%TF.GenerationSoftware,KiCad,Pcbnew,(5.1.8)-1*%
%TF.CreationDate,2022-07-09T15:07:12+10:00*%
%TF.ProjectId,ergonomic_split_left,6572676f-6e6f-46d6-9963-5f73706c6974,rev?*%
%TF.SameCoordinates,Original*%
%TF.FileFunction,Legend,Bot*%
%TF.FilePolarity,Positive*%
%FSLAX46Y46*%
G04 Gerber Fmt 4.6, Leading zero omitted, Abs format (unit mm)*
G04 Created by KiCad (PCBNEW (5.1.8)-1) date 2022-07-09 15:07:12*
%MOMM*%
%LPD*%
G01*
G04 APERTURE LIST*
%ADD10C,0.200000*%
%ADD11C,0.120000*%
%ADD12C,0.150000*%
G04 APERTURE END LIST*
D10*
X153617600Y-63906400D02*
G75*
G03*
X153617600Y-63906400I-100000J0D01*
G01*
D11*
%TO.C,SW6*%
X102104580Y-161674080D02*
X102385740Y-161674080D01*
X102104580Y-162694080D02*
X102385740Y-162694080D01*
X100421260Y-161846310D02*
X100421260Y-161546310D01*
X100121260Y-161846310D02*
X100421260Y-161846310D01*
X89502880Y-164537260D02*
X89502880Y-167087260D01*
X91202880Y-164537260D02*
X89502880Y-164537260D01*
X91202880Y-164537260D02*
X91202880Y-167087260D01*
%TO.C,D1*%
X185743480Y-77168840D02*
X185743480Y-74618840D01*
X187443480Y-77168840D02*
X187443480Y-74618840D01*
X187443480Y-77168840D02*
X185743480Y-77168840D01*
%TO.C,SW37*%
X210722460Y-134434960D02*
X210722460Y-134734960D01*
X211022460Y-134434960D02*
X210722460Y-134434960D01*
X210593060Y-134047960D02*
X210874220Y-134047960D01*
X210593060Y-133027960D02*
X210874220Y-133027960D01*
X205436840Y-140996540D02*
X205436840Y-143546540D01*
X203736840Y-140996540D02*
X203736840Y-143546540D01*
X205436840Y-140996540D02*
X203736840Y-140996540D01*
%TO.C,SW36*%
X210722460Y-105859960D02*
X210722460Y-106159960D01*
X211022460Y-105859960D02*
X210722460Y-105859960D01*
X210593060Y-105472960D02*
X210874220Y-105472960D01*
X210593060Y-104452960D02*
X210874220Y-104452960D01*
X205436840Y-112421540D02*
X205436840Y-114971540D01*
X203736840Y-112421540D02*
X203736840Y-114971540D01*
X205436840Y-112421540D02*
X203736840Y-112421540D01*
%TO.C,SW24*%
X200050465Y-175706903D02*
X200262597Y-175494771D01*
X199838333Y-175494771D02*
X200050465Y-175706903D01*
X200474256Y-177419423D02*
X200673066Y-177618234D01*
X201195504Y-176698175D02*
X201394315Y-176896985D01*
X191410179Y-171231405D02*
X189607057Y-173034527D01*
X190208097Y-170029323D02*
X188404975Y-171832445D01*
X191410179Y-171231405D02*
X190208097Y-170029323D01*
%TO.C,SW18*%
X213544215Y-189200653D02*
X213756347Y-188988521D01*
X213332083Y-188988521D02*
X213544215Y-189200653D01*
X213968006Y-190913173D02*
X214166816Y-191111984D01*
X214689254Y-190191925D02*
X214888065Y-190390735D01*
X204903929Y-184725155D02*
X203100807Y-186528277D01*
X203701847Y-183523073D02*
X201898725Y-185326195D01*
X204903929Y-184725155D02*
X203701847Y-183523073D01*
%TO.C,SW5*%
X86308300Y-145665060D02*
X84608300Y-145665060D01*
X84608300Y-145665060D02*
X84608300Y-148215060D01*
X86308300Y-145665060D02*
X86308300Y-148215060D01*
X91606760Y-137709180D02*
X91887920Y-137709180D01*
X91606760Y-138729180D02*
X91887920Y-138729180D01*
X91659960Y-139197460D02*
X91659960Y-139497460D01*
X91959960Y-139197460D02*
X91659960Y-139197460D01*
%TO.C,SW4*%
X86359100Y-126538860D02*
X84659100Y-126538860D01*
X84659100Y-126538860D02*
X84659100Y-129088860D01*
X86359100Y-126538860D02*
X86359100Y-129088860D01*
X97321760Y-123713780D02*
X97602920Y-123713780D01*
X97321760Y-124733780D02*
X97602920Y-124733780D01*
X95358760Y-123746310D02*
X95658760Y-123746310D01*
X95658760Y-123746310D02*
X95658760Y-123446310D01*
%TO.C,SW3*%
X86308300Y-107565060D02*
X84608300Y-107565060D01*
X84608300Y-107565060D02*
X84608300Y-110115060D01*
X86308300Y-107565060D02*
X86308300Y-110115060D01*
X91606760Y-99609180D02*
X91887920Y-99609180D01*
X91606760Y-100629180D02*
X91887920Y-100629180D01*
X91659960Y-101097460D02*
X91659960Y-101397460D01*
X91959960Y-101097460D02*
X91659960Y-101097460D01*
%TO.C,SW2*%
X86359100Y-88438860D02*
X84659100Y-88438860D01*
X84659100Y-88438860D02*
X84659100Y-90988860D01*
X86359100Y-88438860D02*
X86359100Y-90988860D01*
X97321760Y-85613780D02*
X97602920Y-85613780D01*
X97321760Y-86633780D02*
X97602920Y-86633780D01*
X95358760Y-85646310D02*
X95658760Y-85646310D01*
X95658760Y-85646310D02*
X95658760Y-85346310D01*
%TO.C,SW39*%
X216404580Y-85474080D02*
X216685740Y-85474080D01*
X216404580Y-86494080D02*
X216685740Y-86494080D01*
X214721260Y-85646310D02*
X214721260Y-85346310D01*
X214421260Y-85646310D02*
X214721260Y-85646310D01*
X203802880Y-88337260D02*
X203802880Y-90887260D01*
X205502880Y-88337260D02*
X203802880Y-88337260D01*
X205502880Y-88337260D02*
X205502880Y-90887260D01*
%TO.C,SW38*%
X238733482Y-177997003D02*
X237531401Y-176794921D01*
X237531401Y-176794921D02*
X235728279Y-178598044D01*
X238733482Y-177997003D02*
X236930360Y-179800125D01*
X248014118Y-176008364D02*
X248212928Y-176207174D01*
X247292869Y-176729613D02*
X247491679Y-176928423D01*
X247322850Y-177306895D02*
X247110718Y-177094763D01*
X247110718Y-177094763D02*
X246898586Y-177306895D01*
%TO.C,SW35*%
X225239732Y-164503253D02*
X224037651Y-163301171D01*
X224037651Y-163301171D02*
X222234529Y-165104294D01*
X225239732Y-164503253D02*
X223436610Y-166306375D01*
X234520368Y-162514614D02*
X234719178Y-162713424D01*
X233799119Y-163235863D02*
X233997929Y-163434673D01*
X233829100Y-163813145D02*
X233616968Y-163601013D01*
X233616968Y-163601013D02*
X233404836Y-163813145D01*
%TO.C,SW34*%
X186386840Y-145759040D02*
X184686840Y-145759040D01*
X184686840Y-145759040D02*
X184686840Y-148309040D01*
X186386840Y-145759040D02*
X186386840Y-148309040D01*
X191543060Y-137790460D02*
X191824220Y-137790460D01*
X191543060Y-138810460D02*
X191824220Y-138810460D01*
X191972460Y-139197460D02*
X191672460Y-139197460D01*
X191672460Y-139197460D02*
X191672460Y-139497460D01*
%TO.C,SW33*%
X197354580Y-123574080D02*
X197635740Y-123574080D01*
X197354580Y-124594080D02*
X197635740Y-124594080D01*
X195671260Y-123746310D02*
X195671260Y-123446310D01*
X195371260Y-123746310D02*
X195671260Y-123746310D01*
X184752880Y-126437260D02*
X184752880Y-128987260D01*
X186452880Y-126437260D02*
X184752880Y-126437260D01*
X186452880Y-126437260D02*
X186452880Y-128987260D01*
%TO.C,SW32*%
X186386840Y-107659040D02*
X184686840Y-107659040D01*
X184686840Y-107659040D02*
X184686840Y-110209040D01*
X186386840Y-107659040D02*
X186386840Y-110209040D01*
X191543060Y-99690460D02*
X191824220Y-99690460D01*
X191543060Y-100710460D02*
X191824220Y-100710460D01*
X191972460Y-101097460D02*
X191672460Y-101097460D01*
X191672460Y-101097460D02*
X191672460Y-101397460D01*
%TO.C,SW31*%
X197350840Y-85470390D02*
X197632000Y-85470390D01*
X197350840Y-86490390D02*
X197632000Y-86490390D01*
X195667520Y-85642620D02*
X195667520Y-85342620D01*
X195367520Y-85642620D02*
X195667520Y-85642620D01*
X184749140Y-88333570D02*
X184749140Y-90883570D01*
X186449140Y-88333570D02*
X184749140Y-88333570D01*
X186449140Y-88333570D02*
X186449140Y-90883570D01*
%TO.C,SW30*%
X225239697Y-191485499D02*
X224037616Y-190283417D01*
X224037616Y-190283417D02*
X222234494Y-192086540D01*
X225239697Y-191485499D02*
X223436575Y-193288621D01*
X234520333Y-189496860D02*
X234719143Y-189695670D01*
X233799084Y-190218109D02*
X233997894Y-190416919D01*
X233829065Y-190795391D02*
X233616933Y-190583259D01*
X233616933Y-190583259D02*
X233404801Y-190795391D01*
%TO.C,SW29*%
X178304580Y-159292830D02*
X178585740Y-159292830D01*
X178304580Y-160312830D02*
X178585740Y-160312830D01*
X176621260Y-159465060D02*
X176621260Y-159165060D01*
X176321260Y-159465060D02*
X176621260Y-159465060D01*
X165702880Y-162156010D02*
X165702880Y-164706010D01*
X167402880Y-162156010D02*
X165702880Y-162156010D01*
X167402880Y-162156010D02*
X167402880Y-164706010D01*
%TO.C,SW28*%
X167336840Y-143377790D02*
X165636840Y-143377790D01*
X165636840Y-143377790D02*
X165636840Y-145927790D01*
X167336840Y-143377790D02*
X167336840Y-145927790D01*
X172493060Y-135409210D02*
X172774220Y-135409210D01*
X172493060Y-136429210D02*
X172774220Y-136429210D01*
X172922460Y-136816210D02*
X172622460Y-136816210D01*
X172622460Y-136816210D02*
X172622460Y-137116210D01*
%TO.C,SW27*%
X178304580Y-121192830D02*
X178585740Y-121192830D01*
X178304580Y-122212830D02*
X178585740Y-122212830D01*
X176621260Y-121365060D02*
X176621260Y-121065060D01*
X176321260Y-121365060D02*
X176621260Y-121365060D01*
X165702880Y-124056010D02*
X165702880Y-126606010D01*
X167402880Y-124056010D02*
X165702880Y-124056010D01*
X167402880Y-124056010D02*
X167402880Y-126606010D01*
%TO.C,SW26*%
X167336840Y-105277790D02*
X165636840Y-105277790D01*
X165636840Y-105277790D02*
X165636840Y-107827790D01*
X167336840Y-105277790D02*
X167336840Y-107827790D01*
X172493060Y-97309210D02*
X172774220Y-97309210D01*
X172493060Y-98329210D02*
X172774220Y-98329210D01*
X172922460Y-98716210D02*
X172622460Y-98716210D01*
X172622460Y-98716210D02*
X172622460Y-99016210D01*
%TO.C,SW25*%
X178304580Y-83092830D02*
X178585740Y-83092830D01*
X178304580Y-84112830D02*
X178585740Y-84112830D01*
X176621260Y-83265060D02*
X176621260Y-82965060D01*
X176321260Y-83265060D02*
X176621260Y-83265060D01*
X165702880Y-85956010D02*
X165702880Y-88506010D01*
X167402880Y-85956010D02*
X165702880Y-85956010D01*
X167402880Y-85956010D02*
X167402880Y-88506010D01*
%TO.C,SW23*%
X159250840Y-156911580D02*
X159532000Y-156911580D01*
X159250840Y-157931580D02*
X159532000Y-157931580D01*
X157567520Y-157083810D02*
X157567520Y-156783810D01*
X157267520Y-157083810D02*
X157567520Y-157083810D01*
X146649140Y-159774760D02*
X146649140Y-162324760D01*
X148349140Y-159774760D02*
X146649140Y-159774760D01*
X148349140Y-159774760D02*
X148349140Y-162324760D01*
%TO.C,SW22*%
X148286840Y-140996540D02*
X146586840Y-140996540D01*
X146586840Y-140996540D02*
X146586840Y-143546540D01*
X148286840Y-140996540D02*
X148286840Y-143546540D01*
X153443060Y-133027960D02*
X153724220Y-133027960D01*
X153443060Y-134047960D02*
X153724220Y-134047960D01*
X153872460Y-134434960D02*
X153572460Y-134434960D01*
X153572460Y-134434960D02*
X153572460Y-134734960D01*
%TO.C,SW21*%
X159254580Y-118811580D02*
X159535740Y-118811580D01*
X159254580Y-119831580D02*
X159535740Y-119831580D01*
X157571260Y-118983810D02*
X157571260Y-118683810D01*
X157271260Y-118983810D02*
X157571260Y-118983810D01*
X146652880Y-121674760D02*
X146652880Y-124224760D01*
X148352880Y-121674760D02*
X146652880Y-121674760D01*
X148352880Y-121674760D02*
X148352880Y-124224760D01*
%TO.C,SW20*%
X148286840Y-102896540D02*
X146586840Y-102896540D01*
X146586840Y-102896540D02*
X146586840Y-105446540D01*
X148286840Y-102896540D02*
X148286840Y-105446540D01*
X153443060Y-94927960D02*
X153724220Y-94927960D01*
X153443060Y-95947960D02*
X153724220Y-95947960D01*
X153872460Y-96334960D02*
X153572460Y-96334960D01*
X153572460Y-96334960D02*
X153572460Y-96634960D01*
%TO.C,SW19*%
X159254580Y-80707890D02*
X159535740Y-80707890D01*
X159254580Y-81727890D02*
X159535740Y-81727890D01*
X157571260Y-80880120D02*
X157571260Y-80580120D01*
X157271260Y-80880120D02*
X157571260Y-80880120D01*
X146652880Y-83571070D02*
X146652880Y-86121070D01*
X148352880Y-83571070D02*
X146652880Y-83571070D01*
X148352880Y-83571070D02*
X148352880Y-86121070D01*
%TO.C,SW17*%
X140204580Y-159292830D02*
X140485740Y-159292830D01*
X140204580Y-160312830D02*
X140485740Y-160312830D01*
X138521260Y-159465060D02*
X138521260Y-159165060D01*
X138221260Y-159465060D02*
X138521260Y-159465060D01*
X127602880Y-162156010D02*
X127602880Y-164706010D01*
X129302880Y-162156010D02*
X127602880Y-162156010D01*
X129302880Y-162156010D02*
X129302880Y-164706010D01*
%TO.C,SW16*%
X129236840Y-143377790D02*
X127536840Y-143377790D01*
X127536840Y-143377790D02*
X127536840Y-145927790D01*
X129236840Y-143377790D02*
X129236840Y-145927790D01*
X134393060Y-135409210D02*
X134674220Y-135409210D01*
X134393060Y-136429210D02*
X134674220Y-136429210D01*
X134822460Y-136816210D02*
X134522460Y-136816210D01*
X134522460Y-136816210D02*
X134522460Y-137116210D01*
%TO.C,SW15*%
X140204580Y-121192830D02*
X140485740Y-121192830D01*
X140204580Y-122212830D02*
X140485740Y-122212830D01*
X138521260Y-121365060D02*
X138521260Y-121065060D01*
X138221260Y-121365060D02*
X138521260Y-121365060D01*
X127602880Y-124056010D02*
X127602880Y-126606010D01*
X129302880Y-124056010D02*
X127602880Y-124056010D01*
X129302880Y-124056010D02*
X129302880Y-126606010D01*
%TO.C,SW14*%
X129233100Y-105274100D02*
X127533100Y-105274100D01*
X127533100Y-105274100D02*
X127533100Y-107824100D01*
X129233100Y-105274100D02*
X129233100Y-107824100D01*
X134389320Y-97305520D02*
X134670480Y-97305520D01*
X134389320Y-98325520D02*
X134670480Y-98325520D01*
X134818720Y-98712520D02*
X134518720Y-98712520D01*
X134518720Y-98712520D02*
X134518720Y-99012520D01*
%TO.C,SW13*%
X140204580Y-83092830D02*
X140485740Y-83092830D01*
X140204580Y-84112830D02*
X140485740Y-84112830D01*
X138521260Y-83265060D02*
X138521260Y-82965060D01*
X138221260Y-83265060D02*
X138521260Y-83265060D01*
X127602880Y-85956010D02*
X127602880Y-88506010D01*
X129302880Y-85956010D02*
X127602880Y-85956010D01*
X129302880Y-85956010D02*
X129302880Y-88506010D01*
%TO.C,SW12*%
X221718062Y-210517861D02*
X221916872Y-210716671D01*
X220996813Y-211239110D02*
X221195623Y-211437920D01*
X220405990Y-209449359D02*
X220618122Y-209237227D01*
X220193858Y-209237227D02*
X220405990Y-209449359D01*
X210782741Y-203631687D02*
X208979618Y-205434809D01*
X211984822Y-204833769D02*
X210782741Y-203631687D01*
X211984822Y-204833769D02*
X210181700Y-206636891D01*
%TO.C,SW11*%
X121154580Y-161674080D02*
X121435740Y-161674080D01*
X121154580Y-162694080D02*
X121435740Y-162694080D01*
X119471260Y-161846310D02*
X119471260Y-161546310D01*
X119171260Y-161846310D02*
X119471260Y-161846310D01*
X108552880Y-164537260D02*
X108552880Y-167087260D01*
X110252880Y-164537260D02*
X108552880Y-164537260D01*
X110252880Y-164537260D02*
X110252880Y-167087260D01*
%TO.C,SW10*%
X110186840Y-145759040D02*
X108486840Y-145759040D01*
X108486840Y-145759040D02*
X108486840Y-148309040D01*
X110186840Y-145759040D02*
X110186840Y-148309040D01*
X115343060Y-137790460D02*
X115624220Y-137790460D01*
X115343060Y-138810460D02*
X115624220Y-138810460D01*
X115772460Y-139197460D02*
X115472460Y-139197460D01*
X115472460Y-139197460D02*
X115472460Y-139497460D01*
%TO.C,SW9*%
X121154580Y-123574080D02*
X121435740Y-123574080D01*
X121154580Y-124594080D02*
X121435740Y-124594080D01*
X119471260Y-123746310D02*
X119471260Y-123446310D01*
X119171260Y-123746310D02*
X119471260Y-123746310D01*
X108552880Y-126437260D02*
X108552880Y-128987260D01*
X110252880Y-126437260D02*
X108552880Y-126437260D01*
X110252880Y-126437260D02*
X110252880Y-128987260D01*
%TO.C,SW8*%
X110186840Y-107659040D02*
X108486840Y-107659040D01*
X108486840Y-107659040D02*
X108486840Y-110209040D01*
X110186840Y-107659040D02*
X110186840Y-110209040D01*
X115343060Y-99690460D02*
X115624220Y-99690460D01*
X115343060Y-100710460D02*
X115624220Y-100710460D01*
X115772460Y-101097460D02*
X115472460Y-101097460D01*
X115472460Y-101097460D02*
X115472460Y-101397460D01*
%TO.C,SW7*%
X121154580Y-85474080D02*
X121435740Y-85474080D01*
X121154580Y-86494080D02*
X121435740Y-86494080D01*
X119471260Y-85646310D02*
X119471260Y-85346310D01*
X119171260Y-85646310D02*
X119471260Y-85646310D01*
X108552880Y-88337260D02*
X108552880Y-90887260D01*
X110252880Y-88337260D02*
X108552880Y-88337260D01*
X110252880Y-88337260D02*
X110252880Y-90887260D01*
%TO.C,R9*%
X187242182Y-58814440D02*
X187716698Y-58814440D01*
X187242182Y-59859440D02*
X187716698Y-59859440D01*
%TO.C,R8*%
X181057818Y-59872140D02*
X180583302Y-59872140D01*
X181057818Y-58827140D02*
X180583302Y-58827140D01*
%TO.C,R7*%
X182111441Y-61439522D02*
X182111441Y-61914038D01*
X181066441Y-61439522D02*
X181066441Y-61914038D01*
%TO.C,R4*%
X187263300Y-61423282D02*
X187263300Y-61897798D01*
X186218300Y-61423282D02*
X186218300Y-61897798D01*
%TO.C,C6*%
X182098941Y-64573840D02*
X182098941Y-64855000D01*
X181078941Y-64573840D02*
X181078941Y-64855000D01*
%TO.C,C4*%
X187258420Y-64589080D02*
X187258420Y-64870240D01*
X186238420Y-64589080D02*
X186238420Y-64870240D01*
%TO.C,FB1*%
X161451360Y-60849862D02*
X161451360Y-60050618D01*
X162571360Y-60849862D02*
X162571360Y-60050618D01*
%TO.C,FB2*%
X149909460Y-60463002D02*
X149909460Y-59663758D01*
X148789460Y-60463002D02*
X148789460Y-59663758D01*
%TO.C,R1*%
X148403542Y-57662340D02*
X148878058Y-57662340D01*
X148403542Y-56617340D02*
X148878058Y-56617340D01*
%TO.C,R2*%
X158105580Y-62967138D02*
X158105580Y-62492622D01*
X159150580Y-62967138D02*
X159150580Y-62492622D01*
%TO.C,R22*%
X100055142Y-66697120D02*
X100529658Y-66697120D01*
X100055142Y-65652120D02*
X100529658Y-65652120D01*
%TO.C,SW1*%
X100623640Y-64630480D02*
X100623640Y-64930480D01*
X97323640Y-64930480D02*
X97323640Y-64630480D01*
X100623640Y-64930480D02*
X97323640Y-64930480D01*
X100623640Y-62130480D02*
X97323640Y-62130480D01*
X100623640Y-62430480D02*
X100623640Y-62130480D01*
X97323640Y-62130480D02*
X97323640Y-62430480D01*
%TO.C,TP2*%
X92904540Y-65885060D02*
G75*
G03*
X92904540Y-65885060I-700000J0D01*
G01*
%TO.C,U1*%
X156606900Y-64548700D02*
X154156900Y-64548700D01*
X154806900Y-61328700D02*
X156606900Y-61328700D01*
%TO.C,D1*%
D12*
X188818780Y-74552284D02*
X187818780Y-74552284D01*
X187818780Y-74790380D01*
X187866400Y-74933237D01*
X187961638Y-75028475D01*
X188056876Y-75076094D01*
X188247352Y-75123713D01*
X188390209Y-75123713D01*
X188580685Y-75076094D01*
X188675923Y-75028475D01*
X188771161Y-74933237D01*
X188818780Y-74790380D01*
X188818780Y-74552284D01*
X188818780Y-76076094D02*
X188818780Y-75504665D01*
X188818780Y-75790380D02*
X187818780Y-75790380D01*
X187961638Y-75695141D01*
X188056876Y-75599903D01*
X188104495Y-75504665D01*
%TO.C,R9*%
X188863266Y-61310780D02*
X189196600Y-60834590D01*
X189434695Y-61310780D02*
X189434695Y-60310780D01*
X189053742Y-60310780D01*
X188958504Y-60358400D01*
X188910885Y-60406019D01*
X188863266Y-60501257D01*
X188863266Y-60644114D01*
X188910885Y-60739352D01*
X188958504Y-60786971D01*
X189053742Y-60834590D01*
X189434695Y-60834590D01*
X188387076Y-61310780D02*
X188196600Y-61310780D01*
X188101361Y-61263161D01*
X188053742Y-61215542D01*
X187958504Y-61072685D01*
X187910885Y-60882209D01*
X187910885Y-60501257D01*
X187958504Y-60406019D01*
X188006123Y-60358400D01*
X188101361Y-60310780D01*
X188291838Y-60310780D01*
X188387076Y-60358400D01*
X188434695Y-60406019D01*
X188482314Y-60501257D01*
X188482314Y-60739352D01*
X188434695Y-60834590D01*
X188387076Y-60882209D01*
X188291838Y-60929828D01*
X188101361Y-60929828D01*
X188006123Y-60882209D01*
X187958504Y-60834590D01*
X187910885Y-60739352D01*
%TO.C,R8*%
X179973266Y-61234580D02*
X180306600Y-60758390D01*
X180544695Y-61234580D02*
X180544695Y-60234580D01*
X180163742Y-60234580D01*
X180068504Y-60282200D01*
X180020885Y-60329819D01*
X179973266Y-60425057D01*
X179973266Y-60567914D01*
X180020885Y-60663152D01*
X180068504Y-60710771D01*
X180163742Y-60758390D01*
X180544695Y-60758390D01*
X179401838Y-60663152D02*
X179497076Y-60615533D01*
X179544695Y-60567914D01*
X179592314Y-60472676D01*
X179592314Y-60425057D01*
X179544695Y-60329819D01*
X179497076Y-60282200D01*
X179401838Y-60234580D01*
X179211361Y-60234580D01*
X179116123Y-60282200D01*
X179068504Y-60329819D01*
X179020885Y-60425057D01*
X179020885Y-60472676D01*
X179068504Y-60567914D01*
X179116123Y-60615533D01*
X179211361Y-60663152D01*
X179401838Y-60663152D01*
X179497076Y-60710771D01*
X179544695Y-60758390D01*
X179592314Y-60853628D01*
X179592314Y-61044104D01*
X179544695Y-61139342D01*
X179497076Y-61186961D01*
X179401838Y-61234580D01*
X179211361Y-61234580D01*
X179116123Y-61186961D01*
X179068504Y-61139342D01*
X179020885Y-61044104D01*
X179020885Y-60853628D01*
X179068504Y-60758390D01*
X179116123Y-60710771D01*
X179211361Y-60663152D01*
%TO.C,R7*%
X183535580Y-61580733D02*
X183059390Y-61247400D01*
X183535580Y-61009304D02*
X182535580Y-61009304D01*
X182535580Y-61390257D01*
X182583200Y-61485495D01*
X182630819Y-61533114D01*
X182726057Y-61580733D01*
X182868914Y-61580733D01*
X182964152Y-61533114D01*
X183011771Y-61485495D01*
X183059390Y-61390257D01*
X183059390Y-61009304D01*
X182535580Y-61914066D02*
X182535580Y-62580733D01*
X183535580Y-62152161D01*
%TO.C,R4*%
X185763180Y-61493873D02*
X185286990Y-61160540D01*
X185763180Y-60922444D02*
X184763180Y-60922444D01*
X184763180Y-61303397D01*
X184810800Y-61398635D01*
X184858419Y-61446254D01*
X184953657Y-61493873D01*
X185096514Y-61493873D01*
X185191752Y-61446254D01*
X185239371Y-61398635D01*
X185286990Y-61303397D01*
X185286990Y-60922444D01*
X185096514Y-62351016D02*
X185763180Y-62351016D01*
X184715561Y-62112920D02*
X185429847Y-61874825D01*
X185429847Y-62493873D01*
%TO.C,C6*%
X183491142Y-65339933D02*
X183538761Y-65292314D01*
X183586380Y-65149457D01*
X183586380Y-65054219D01*
X183538761Y-64911361D01*
X183443523Y-64816123D01*
X183348285Y-64768504D01*
X183157809Y-64720885D01*
X183014952Y-64720885D01*
X182824476Y-64768504D01*
X182729238Y-64816123D01*
X182634000Y-64911361D01*
X182586380Y-65054219D01*
X182586380Y-65149457D01*
X182634000Y-65292314D01*
X182681619Y-65339933D01*
X182586380Y-66197076D02*
X182586380Y-66006600D01*
X182634000Y-65911361D01*
X182681619Y-65863742D01*
X182824476Y-65768504D01*
X183014952Y-65720885D01*
X183395904Y-65720885D01*
X183491142Y-65768504D01*
X183538761Y-65816123D01*
X183586380Y-65911361D01*
X183586380Y-66101838D01*
X183538761Y-66197076D01*
X183491142Y-66244695D01*
X183395904Y-66292314D01*
X183157809Y-66292314D01*
X183062571Y-66244695D01*
X183014952Y-66197076D01*
X182967333Y-66101838D01*
X182967333Y-65911361D01*
X183014952Y-65816123D01*
X183062571Y-65768504D01*
X183157809Y-65720885D01*
%TO.C,C4*%
X185726342Y-65111333D02*
X185773961Y-65063714D01*
X185821580Y-64920857D01*
X185821580Y-64825619D01*
X185773961Y-64682761D01*
X185678723Y-64587523D01*
X185583485Y-64539904D01*
X185393009Y-64492285D01*
X185250152Y-64492285D01*
X185059676Y-64539904D01*
X184964438Y-64587523D01*
X184869200Y-64682761D01*
X184821580Y-64825619D01*
X184821580Y-64920857D01*
X184869200Y-65063714D01*
X184916819Y-65111333D01*
X185154914Y-65968476D02*
X185821580Y-65968476D01*
X184773961Y-65730380D02*
X185488247Y-65492285D01*
X185488247Y-66111333D01*
%TO.C,FB1*%
X163489931Y-59616906D02*
X163489931Y-59283573D01*
X164013740Y-59283573D02*
X163013740Y-59283573D01*
X163013740Y-59759763D01*
X163489931Y-60474049D02*
X163537550Y-60616906D01*
X163585169Y-60664525D01*
X163680407Y-60712144D01*
X163823264Y-60712144D01*
X163918502Y-60664525D01*
X163966121Y-60616906D01*
X164013740Y-60521668D01*
X164013740Y-60140716D01*
X163013740Y-60140716D01*
X163013740Y-60474049D01*
X163061360Y-60569287D01*
X163108979Y-60616906D01*
X163204217Y-60664525D01*
X163299455Y-60664525D01*
X163394693Y-60616906D01*
X163442312Y-60569287D01*
X163489931Y-60474049D01*
X163489931Y-60140716D01*
X164013740Y-61664525D02*
X164013740Y-61093097D01*
X164013740Y-61378811D02*
X163013740Y-61378811D01*
X163156598Y-61283573D01*
X163251836Y-61188335D01*
X163299455Y-61093097D01*
%TO.C,FB2*%
X147654971Y-60406066D02*
X147654971Y-60072733D01*
X148178780Y-60072733D02*
X147178780Y-60072733D01*
X147178780Y-60548923D01*
X147654971Y-61263209D02*
X147702590Y-61406066D01*
X147750209Y-61453685D01*
X147845447Y-61501304D01*
X147988304Y-61501304D01*
X148083542Y-61453685D01*
X148131161Y-61406066D01*
X148178780Y-61310828D01*
X148178780Y-60929876D01*
X147178780Y-60929876D01*
X147178780Y-61263209D01*
X147226400Y-61358447D01*
X147274019Y-61406066D01*
X147369257Y-61453685D01*
X147464495Y-61453685D01*
X147559733Y-61406066D01*
X147607352Y-61358447D01*
X147654971Y-61263209D01*
X147654971Y-60929876D01*
X147274019Y-61882257D02*
X147226400Y-61929876D01*
X147178780Y-62025114D01*
X147178780Y-62263209D01*
X147226400Y-62358447D01*
X147274019Y-62406066D01*
X147369257Y-62453685D01*
X147464495Y-62453685D01*
X147607352Y-62406066D01*
X148178780Y-61834638D01*
X148178780Y-62453685D01*
%TO.C,R1*%
X147512066Y-59100980D02*
X147845400Y-58624790D01*
X148083495Y-59100980D02*
X148083495Y-58100980D01*
X147702542Y-58100980D01*
X147607304Y-58148600D01*
X147559685Y-58196219D01*
X147512066Y-58291457D01*
X147512066Y-58434314D01*
X147559685Y-58529552D01*
X147607304Y-58577171D01*
X147702542Y-58624790D01*
X148083495Y-58624790D01*
X146559685Y-59100980D02*
X147131114Y-59100980D01*
X146845400Y-59100980D02*
X146845400Y-58100980D01*
X146940638Y-58243838D01*
X147035876Y-58339076D01*
X147131114Y-58386695D01*
%TO.C,R2*%
X160510460Y-62563213D02*
X160034270Y-62229880D01*
X160510460Y-61991784D02*
X159510460Y-61991784D01*
X159510460Y-62372737D01*
X159558080Y-62467975D01*
X159605699Y-62515594D01*
X159700937Y-62563213D01*
X159843794Y-62563213D01*
X159939032Y-62515594D01*
X159986651Y-62467975D01*
X160034270Y-62372737D01*
X160034270Y-61991784D01*
X159605699Y-62944165D02*
X159558080Y-62991784D01*
X159510460Y-63087022D01*
X159510460Y-63325118D01*
X159558080Y-63420356D01*
X159605699Y-63467975D01*
X159700937Y-63515594D01*
X159796175Y-63515594D01*
X159939032Y-63467975D01*
X160510460Y-62896546D01*
X160510460Y-63515594D01*
%TO.C,R22*%
X100935257Y-68057000D02*
X101268590Y-67580810D01*
X101506685Y-68057000D02*
X101506685Y-67057000D01*
X101125733Y-67057000D01*
X101030495Y-67104620D01*
X100982876Y-67152239D01*
X100935257Y-67247477D01*
X100935257Y-67390334D01*
X100982876Y-67485572D01*
X101030495Y-67533191D01*
X101125733Y-67580810D01*
X101506685Y-67580810D01*
X100554304Y-67152239D02*
X100506685Y-67104620D01*
X100411447Y-67057000D01*
X100173352Y-67057000D01*
X100078114Y-67104620D01*
X100030495Y-67152239D01*
X99982876Y-67247477D01*
X99982876Y-67342715D01*
X100030495Y-67485572D01*
X100601923Y-68057000D01*
X99982876Y-68057000D01*
X99601923Y-67152239D02*
X99554304Y-67104620D01*
X99459066Y-67057000D01*
X99220971Y-67057000D01*
X99125733Y-67104620D01*
X99078114Y-67152239D01*
X99030495Y-67247477D01*
X99030495Y-67342715D01*
X99078114Y-67485572D01*
X99649542Y-68057000D01*
X99030495Y-68057000D01*
%TO.C,SW1*%
X99895493Y-61466361D02*
X99752636Y-61513980D01*
X99514540Y-61513980D01*
X99419302Y-61466361D01*
X99371683Y-61418742D01*
X99324064Y-61323504D01*
X99324064Y-61228266D01*
X99371683Y-61133028D01*
X99419302Y-61085409D01*
X99514540Y-61037790D01*
X99705017Y-60990171D01*
X99800255Y-60942552D01*
X99847874Y-60894933D01*
X99895493Y-60799695D01*
X99895493Y-60704457D01*
X99847874Y-60609219D01*
X99800255Y-60561600D01*
X99705017Y-60513980D01*
X99466921Y-60513980D01*
X99324064Y-60561600D01*
X98990731Y-60513980D02*
X98752636Y-61513980D01*
X98562160Y-60799695D01*
X98371683Y-61513980D01*
X98133588Y-60513980D01*
X97228826Y-61513980D02*
X97800255Y-61513980D01*
X97514540Y-61513980D02*
X97514540Y-60513980D01*
X97609779Y-60656838D01*
X97705017Y-60752076D01*
X97800255Y-60799695D01*
%TO.C,TP2*%
X93466444Y-66785440D02*
X92895016Y-66785440D01*
X93180730Y-67785440D02*
X93180730Y-66785440D01*
X92561682Y-67785440D02*
X92561682Y-66785440D01*
X92180730Y-66785440D01*
X92085492Y-66833060D01*
X92037873Y-66880679D01*
X91990254Y-66975917D01*
X91990254Y-67118774D01*
X92037873Y-67214012D01*
X92085492Y-67261631D01*
X92180730Y-67309250D01*
X92561682Y-67309250D01*
X91609301Y-66880679D02*
X91561682Y-66833060D01*
X91466444Y-66785440D01*
X91228349Y-66785440D01*
X91133111Y-66833060D01*
X91085492Y-66880679D01*
X91037873Y-66975917D01*
X91037873Y-67071155D01*
X91085492Y-67214012D01*
X91656920Y-67785440D01*
X91037873Y-67785440D01*
%TO.C,U1*%
X154889104Y-65263780D02*
X154889104Y-66073304D01*
X154841485Y-66168542D01*
X154793866Y-66216161D01*
X154698628Y-66263780D01*
X154508152Y-66263780D01*
X154412914Y-66216161D01*
X154365295Y-66168542D01*
X154317676Y-66073304D01*
X154317676Y-65263780D01*
X153317676Y-66263780D02*
X153889104Y-66263780D01*
X153603390Y-66263780D02*
X153603390Y-65263780D01*
X153698628Y-65406638D01*
X153793866Y-65501876D01*
X153889104Y-65549495D01*
%TD*%
M02*
