M48
; DRILL file {KiCad (5.1.8)-1} date 07/09/22 15:07:10
; FORMAT={-:-/ absolute / metric / decimal}
; #@! TF.CreationDate,2022-07-09T15:07:10+10:00
; #@! TF.GenerationSoftware,Kicad,Pcbnew,(5.1.8)-1
; #@! TF.FileFunction,Plated,1,2,PTH
FMAT,2
METRIC
T1C0.400
T2C0.600
T3C1.000
T4C1.500
T5C3.200
%
G90
G05
T1
X80.183Y-97.099
X80.63Y-115.316
X81.194Y-134.452
X83.439Y-153.416
X83.769Y-89.111
X83.868Y-108.328
X83.942Y-127.307
X83.965Y-146.296
X85.344Y-162.052
X86.098Y-66.312
X86.106Y-163.83
X86.591Y-98.552
X87.305Y-136.586
X88.9Y-163.853
X89.251Y-140.32
X89.271Y-102.227
X89.759Y-138.184
X89.779Y-100.091
X91.059Y-84.596
X91.059Y-122.696
X95.425Y-86.144
X95.484Y-124.287
X95.821Y-160.796
X96.26Y-102.147
X96.26Y-140.247
X96.484Y-76.22
X97.463Y-65.664
X97.927Y-84.587
X97.986Y-122.73
X100.254Y-162.291
X102.141Y-61.384
X102.413Y-63.536
X102.756Y-160.734
X102.972Y-69.494
X103.442Y-70.676
X104.496Y-84.226
X105.258Y-61.57
X105.588Y-141.605
X105.606Y-68.384
X106.406Y-69.179
X106.434Y-67.528
X107.224Y-68.329
X107.29Y-103.632
X107.505Y-88.956
X107.561Y-127.229
X107.592Y-146.408
X107.686Y-165.24
X107.988Y-108.321
X108.458Y-122.784
X109.22Y-80.62
X109.413Y-62.047
X109.652Y-159.233
X111.836Y-69.327
X111.874Y-166.802
X112.212Y-128.633
X112.339Y-72.522
X112.636Y-147.737
X112.966Y-102.207
X113.005Y-160.706
X113.03Y-140.348
X113.431Y-68.438
X113.474Y-100.071
X113.538Y-138.212
X113.782Y-91.001
X113.861Y-109.758
X113.919Y-74.098
X114.859Y-84.633
X114.871Y-122.696
X119.253Y-162.286
X119.261Y-124.231
X119.268Y-86.152
X120.072Y-102.147
X120.072Y-140.247
X120.221Y-68.557
X120.802Y-58.369
X121.755Y-160.729
X121.763Y-122.674
X121.77Y-84.595
X122.194Y-67.196
X123.673Y-74.016
X123.952Y-71.933
X124.003Y-59.284
X124.881Y-91.436
X124.881Y-110.486
X124.881Y-129.536
X124.881Y-148.586
X124.881Y-167.636
X125.476Y-140.005
X125.679Y-60.452
X125.73Y-102.438
X125.933Y-82.906
X126.639Y-144.099
X126.721Y-86.777
X126.743Y-162.74
X126.749Y-124.785
X126.774Y-105.979
X127.889Y-159.182
X128.295Y-121.082
X128.372Y-70.048
X128.473Y-79.146
X129.118Y-69.118
X129.279Y-62.819
X130.759Y-63.144
X131.216Y-172.503
X131.892Y-63.223
X132.031Y-58.406
X132.034Y-99.893
X132.108Y-137.95
X132.359Y-158.445
X132.542Y-97.757
X132.616Y-135.814
X132.768Y-74.198
X132.944Y-59.131
X133.162Y-64.445
X133.909Y-82.194
X133.921Y-120.315
X135.0Y-67.362
X135.816Y-132.014
X136.129Y-113.327
X136.66Y-92.969
X137.005Y-60.996
X137.058Y-58.928
X137.287Y-151.097
X137.312Y-73.609
X137.442Y-168.989
X138.267Y-83.774
X138.308Y-159.885
X138.333Y-121.836
X139.119Y-99.763
X139.122Y-137.866
X139.129Y-69.85
X139.727Y-72.607
X139.891Y-70.612
X140.106Y-62.636
X140.653Y-73.343
X140.769Y-82.217
X140.81Y-158.328
X140.835Y-120.279
X143.612Y-78.638
X143.928Y-108.101
X143.931Y-89.055
X143.931Y-127.155
X143.931Y-146.205
X143.931Y-165.255
X144.082Y-82.296
X144.17Y-66.04
X144.374Y-77.826
X144.399Y-137.439
X144.501Y-101.143
X145.136Y-77.013
X145.649Y-86.741
X145.672Y-122.413
X145.679Y-103.619
X145.689Y-141.735
X145.804Y-160.398
X146.152Y-65.583
X146.761Y-156.87
X146.888Y-74.651
X147.091Y-118.694
X147.599Y-73.787
X149.469Y-69.125
X151.092Y-97.361
X151.112Y-135.58
X151.359Y-156.108
X151.43Y-80.707
X151.6Y-95.225
X151.62Y-133.444
X152.171Y-81.686
X152.908Y-79.819
X152.971Y-117.934
X155.138Y-168.387
X155.288Y-91.28
X155.311Y-148.806
X155.412Y-64.747
X156.53Y-129.494
X156.591Y-69.85
X156.705Y-110.747
X157.328Y-157.493
X157.353Y-70.612
X157.361Y-119.413
X158.115Y-71.374
X158.172Y-97.385
X158.981Y-71.991
X159.639Y-72.898
X159.829Y-155.936
X159.863Y-117.856
X159.898Y-79.786
X159.995Y-135.738
X160.401Y-73.66
X161.163Y-74.422
X161.303Y-65.22
X161.925Y-75.184
X162.978Y-162.874
X162.981Y-86.67
X162.981Y-105.724
X162.981Y-124.774
X162.981Y-143.824
X164.897Y-138.227
X165.379Y-101.371
X165.405Y-82.982
X166.238Y-79.014
X166.52Y-104.231
X166.555Y-85.166
X166.576Y-123.226
X166.67Y-142.382
X167.437Y-176.733
X168.039Y-161.254
X168.072Y-118.796
X170.104Y-137.968
X170.17Y-99.855
X170.612Y-135.832
X170.678Y-97.719
X170.932Y-164.943
X171.76Y-107.335
X172.021Y-82.215
X172.021Y-120.315
X172.263Y-126.921
X172.265Y-146.025
X173.167Y-89.251
X173.33Y-172.503
X176.276Y-174.18
X176.393Y-159.946
X176.4Y-121.816
X176.459Y-83.767
X177.222Y-99.766
X178.725Y-59.304
X178.895Y-158.389
X178.902Y-120.259
X178.961Y-82.21
X179.197Y-137.871
X182.031Y-89.055
X182.031Y-108.105
X182.031Y-127.155
X182.031Y-146.205
X182.031Y-165.255
X182.855Y-63.932
X183.896Y-73.406
X183.998Y-140.995
X184.15Y-103.378
X184.963Y-63.957
X185.45Y-144.785
X185.481Y-125.392
X185.496Y-87.338
X185.511Y-106.914
X186.411Y-119.659
X187.046Y-83.464
X188.973Y-170.142
X189.187Y-140.254
X189.227Y-102.24
X189.382Y-161.493
X189.695Y-138.118
X189.735Y-100.104
X189.746Y-59.248
X190.685Y-148.119
X190.828Y-86.464
X190.896Y-129.248
X191.068Y-84.593
X191.071Y-122.696
X191.841Y-110.305
X193.418Y-92.499
X195.199Y-169.57
X195.438Y-124.239
X195.458Y-86.162
X196.272Y-102.147
X197.94Y-122.682
X197.96Y-84.605
X198.069Y-140.233
X199.484Y-175.842
X199.796Y-183.642
X201.078Y-91.433
X201.081Y-110.486
X201.081Y-129.536
X201.081Y-148.586
X202.489Y-176.578
X202.743Y-145.694
X202.794Y-136.881
X202.855Y-183.231
X203.175Y-107.34
X204.165Y-175.997
X204.445Y-84.658
X204.488Y-140.078
X204.498Y-111.587
X204.6Y-87.526
X206.035Y-188.73
X208.29Y-106.949
X208.326Y-135.603
X208.661Y-183.109
X208.798Y-104.813
X208.834Y-133.467
X209.423Y-114.524
X210.121Y-84.596
X210.871Y-179.426
X212.705Y-92.25
X212.885Y-189.304
X213.276Y-197.12
X213.97Y-115.595
X214.046Y-148.402
X214.551Y-86.106
X215.322Y-106.91
X215.892Y-190.04
X216.103Y-203.124
X217.053Y-84.549
X217.78Y-192.659
X218.11Y-135.738
X219.87Y-209.7
X220.131Y-91.436
X220.131Y-115.249
X220.131Y-143.824
X222.344Y-201.884
X222.715Y-163.007
X222.829Y-210.363
X224.511Y-154.153
X226.746Y-202.489
X231.15Y-162.651
X231.206Y-189.624
X232.814Y-188.455
X232.844Y-161.473
X233.631Y-203.875
X235.499Y-201.955
X237.693Y-195.986
X238.788Y-176.779
X240.276Y-182.623
X242.595Y-186.385
X244.665Y-176.126
X246.2Y-174.963
X247.125Y-190.387
X251.079Y-182.601
X152.597Y-58.442
X152.597Y-59.792
X153.447Y-58.442
X153.447Y-59.792
X154.297Y-58.442
X154.297Y-59.792
X155.147Y-58.442
X155.147Y-59.792
X155.997Y-58.442
X155.997Y-59.792
X156.847Y-58.442
X156.847Y-59.792
X157.697Y-58.442
X157.697Y-59.792
X158.547Y-58.442
X158.547Y-59.792
T3
X211.931Y-65.405
X211.931Y-67.945
X211.931Y-70.485
X211.931Y-73.025
X214.471Y-65.405
X214.471Y-67.945
X214.471Y-70.485
X214.471Y-73.025
X181.638Y-56.769
X181.638Y-71.269
X184.138Y-56.769
X186.638Y-56.769
X186.638Y-71.269
X207.353Y-60.147
X209.893Y-60.147
T5
X216.642Y-222.905
X80.035Y-56.871
X80.035Y-173.965
X169.862Y-56.794
X105.569Y-136.525
X256.23Y-183.342
X105.569Y-98.425
X221.59Y-56.871
X221.625Y-98.425
X216.694Y-161.925
T2
G00X151.247Y-55.832
M15
G01X151.247Y-55.032
M16
G05
G00X151.247Y-59.562
M15
G01X151.247Y-58.062
M16
G05
G00X159.897Y-55.832
M15
G01X159.897Y-55.032
M16
G05
G00X159.897Y-59.562
M15
G01X159.897Y-58.062
M16
G05
T4
G00X178.538Y-63.619
M15
G01X178.538Y-64.919
M16
G05
G00X189.738Y-63.619
M15
G01X189.738Y-64.919
M16
G05
T0
M30
