%TF.GenerationSoftware,KiCad,Pcbnew,(5.1.8)-1*%
%TF.CreationDate,2022-07-09T15:07:12+10:00*%
%TF.ProjectId,ergonomic_split_left,6572676f-6e6f-46d6-9963-5f73706c6974,rev?*%
%TF.SameCoordinates,Original*%
%TF.FileFunction,Soldermask,Top*%
%TF.FilePolarity,Negative*%
%FSLAX46Y46*%
G04 Gerber Fmt 4.6, Leading zero omitted, Abs format (unit mm)*
G04 Created by KiCad (PCBNEW (5.1.8)-1) date 2022-07-09 15:07:12*
%MOMM*%
%LPD*%
G01*
G04 APERTURE LIST*
%ADD10C,0.100000*%
%ADD11R,2.000000X2.000000*%
%ADD12C,2.000000*%
%ADD13R,2.000000X3.200000*%
%ADD14R,0.750000X0.450000*%
%ADD15O,1.700000X1.700000*%
%ADD16R,1.700000X1.700000*%
%ADD17C,1.750000*%
%ADD18C,3.000000*%
%ADD19C,4.000000*%
%ADD20C,5.700000*%
%ADD21R,1.000000X0.700000*%
%ADD22C,0.700000*%
%ADD23O,0.900000X2.400000*%
%ADD24O,0.900000X1.700000*%
%ADD25C,1.000000*%
%ADD26R,0.600000X0.800000*%
G04 APERTURE END LIST*
%TO.C,J5*%
G36*
G01*
X99538400Y-57640400D02*
X99538400Y-55440400D01*
G75*
G02*
X99788400Y-55190400I250000J0D01*
G01*
X100288400Y-55190400D01*
G75*
G02*
X100538400Y-55440400I0J-250000D01*
G01*
X100538400Y-57640400D01*
G75*
G02*
X100288400Y-57890400I-250000J0D01*
G01*
X99788400Y-57890400D01*
G75*
G02*
X99538400Y-57640400I0J250000D01*
G01*
G37*
G36*
G01*
X101538400Y-57640400D02*
X101538400Y-55440400D01*
G75*
G02*
X101788400Y-55190400I250000J0D01*
G01*
X102288400Y-55190400D01*
G75*
G02*
X102538400Y-55440400I0J-250000D01*
G01*
X102538400Y-57640400D01*
G75*
G02*
X102288400Y-57890400I-250000J0D01*
G01*
X101788400Y-57890400D01*
G75*
G02*
X101538400Y-57640400I0J250000D01*
G01*
G37*
G36*
G01*
X103538400Y-57640400D02*
X103538400Y-55440400D01*
G75*
G02*
X103788400Y-55190400I250000J0D01*
G01*
X104288400Y-55190400D01*
G75*
G02*
X104538400Y-55440400I0J-250000D01*
G01*
X104538400Y-57640400D01*
G75*
G02*
X104288400Y-57890400I-250000J0D01*
G01*
X103788400Y-57890400D01*
G75*
G02*
X103538400Y-57640400I0J250000D01*
G01*
G37*
%TD*%
D10*
%TO.C,U6*%
G36*
X136988812Y-64798934D02*
G01*
X137377720Y-65187842D01*
X136317060Y-66248502D01*
X135928152Y-65859594D01*
X136988812Y-64798934D01*
G37*
G36*
X136423126Y-64233249D02*
G01*
X136812034Y-64622157D01*
X135751374Y-65682817D01*
X135362466Y-65293909D01*
X136423126Y-64233249D01*
G37*
G36*
X135857441Y-63667564D02*
G01*
X136246349Y-64056472D01*
X135185689Y-65117132D01*
X134796781Y-64728224D01*
X135857441Y-63667564D01*
G37*
G36*
X135291756Y-63101878D02*
G01*
X135680664Y-63490786D01*
X134620004Y-64551446D01*
X134231096Y-64162538D01*
X135291756Y-63101878D01*
G37*
G36*
X134726070Y-62536193D02*
G01*
X135114978Y-62925101D01*
X134054318Y-63985761D01*
X133665410Y-63596853D01*
X134726070Y-62536193D01*
G37*
G36*
X134160385Y-61970507D02*
G01*
X134549293Y-62359415D01*
X133488633Y-63420075D01*
X133099725Y-63031167D01*
X134160385Y-61970507D01*
G37*
G36*
X133594699Y-61404822D02*
G01*
X133983607Y-61793730D01*
X132922947Y-62854390D01*
X132534039Y-62465482D01*
X133594699Y-61404822D01*
G37*
G36*
X133029014Y-60839136D02*
G01*
X133417922Y-61228044D01*
X132357262Y-62288704D01*
X131968354Y-61899796D01*
X133029014Y-60839136D01*
G37*
G36*
X132463328Y-60273451D02*
G01*
X132852236Y-60662359D01*
X131791576Y-61723019D01*
X131402668Y-61334111D01*
X132463328Y-60273451D01*
G37*
G36*
X131897643Y-59707766D02*
G01*
X132286551Y-60096674D01*
X131225891Y-61157334D01*
X130836983Y-60768426D01*
X131897643Y-59707766D01*
G37*
G36*
X131331958Y-59142080D02*
G01*
X131720866Y-59530988D01*
X130660206Y-60591648D01*
X130271298Y-60202740D01*
X131331958Y-59142080D01*
G37*
G36*
X127867134Y-59530988D02*
G01*
X128256042Y-59142080D01*
X129316702Y-60202740D01*
X128927794Y-60591648D01*
X127867134Y-59530988D01*
G37*
G36*
X127301449Y-60096674D02*
G01*
X127690357Y-59707766D01*
X128751017Y-60768426D01*
X128362109Y-61157334D01*
X127301449Y-60096674D01*
G37*
G36*
X126735764Y-60662359D02*
G01*
X127124672Y-60273451D01*
X128185332Y-61334111D01*
X127796424Y-61723019D01*
X126735764Y-60662359D01*
G37*
G36*
X126170078Y-61228044D02*
G01*
X126558986Y-60839136D01*
X127619646Y-61899796D01*
X127230738Y-62288704D01*
X126170078Y-61228044D01*
G37*
G36*
X125604393Y-61793730D02*
G01*
X125993301Y-61404822D01*
X127053961Y-62465482D01*
X126665053Y-62854390D01*
X125604393Y-61793730D01*
G37*
G36*
X125038707Y-62359415D02*
G01*
X125427615Y-61970507D01*
X126488275Y-63031167D01*
X126099367Y-63420075D01*
X125038707Y-62359415D01*
G37*
G36*
X124473022Y-62925101D02*
G01*
X124861930Y-62536193D01*
X125922590Y-63596853D01*
X125533682Y-63985761D01*
X124473022Y-62925101D01*
G37*
G36*
X123907336Y-63490786D02*
G01*
X124296244Y-63101878D01*
X125356904Y-64162538D01*
X124967996Y-64551446D01*
X123907336Y-63490786D01*
G37*
G36*
X123341651Y-64056472D02*
G01*
X123730559Y-63667564D01*
X124791219Y-64728224D01*
X124402311Y-65117132D01*
X123341651Y-64056472D01*
G37*
G36*
X122775966Y-64622157D02*
G01*
X123164874Y-64233249D01*
X124225534Y-65293909D01*
X123836626Y-65682817D01*
X122775966Y-64622157D01*
G37*
G36*
X122210280Y-65187842D02*
G01*
X122599188Y-64798934D01*
X123659848Y-65859594D01*
X123270940Y-66248502D01*
X122210280Y-65187842D01*
G37*
G36*
X123270940Y-67203098D02*
G01*
X123659848Y-67592006D01*
X122599188Y-68652666D01*
X122210280Y-68263758D01*
X123270940Y-67203098D01*
G37*
G36*
X123836626Y-67768783D02*
G01*
X124225534Y-68157691D01*
X123164874Y-69218351D01*
X122775966Y-68829443D01*
X123836626Y-67768783D01*
G37*
G36*
X124402311Y-68334468D02*
G01*
X124791219Y-68723376D01*
X123730559Y-69784036D01*
X123341651Y-69395128D01*
X124402311Y-68334468D01*
G37*
G36*
X124967996Y-68900154D02*
G01*
X125356904Y-69289062D01*
X124296244Y-70349722D01*
X123907336Y-69960814D01*
X124967996Y-68900154D01*
G37*
G36*
X125533682Y-69465839D02*
G01*
X125922590Y-69854747D01*
X124861930Y-70915407D01*
X124473022Y-70526499D01*
X125533682Y-69465839D01*
G37*
G36*
X126099367Y-70031525D02*
G01*
X126488275Y-70420433D01*
X125427615Y-71481093D01*
X125038707Y-71092185D01*
X126099367Y-70031525D01*
G37*
G36*
X126665053Y-70597210D02*
G01*
X127053961Y-70986118D01*
X125993301Y-72046778D01*
X125604393Y-71657870D01*
X126665053Y-70597210D01*
G37*
G36*
X127230738Y-71162896D02*
G01*
X127619646Y-71551804D01*
X126558986Y-72612464D01*
X126170078Y-72223556D01*
X127230738Y-71162896D01*
G37*
G36*
X127796424Y-71728581D02*
G01*
X128185332Y-72117489D01*
X127124672Y-73178149D01*
X126735764Y-72789241D01*
X127796424Y-71728581D01*
G37*
G36*
X128362109Y-72294266D02*
G01*
X128751017Y-72683174D01*
X127690357Y-73743834D01*
X127301449Y-73354926D01*
X128362109Y-72294266D01*
G37*
G36*
X128927794Y-72859952D02*
G01*
X129316702Y-73248860D01*
X128256042Y-74309520D01*
X127867134Y-73920612D01*
X128927794Y-72859952D01*
G37*
G36*
X130271298Y-73248860D02*
G01*
X130660206Y-72859952D01*
X131720866Y-73920612D01*
X131331958Y-74309520D01*
X130271298Y-73248860D01*
G37*
G36*
X130836983Y-72683174D02*
G01*
X131225891Y-72294266D01*
X132286551Y-73354926D01*
X131897643Y-73743834D01*
X130836983Y-72683174D01*
G37*
G36*
X131402668Y-72117489D02*
G01*
X131791576Y-71728581D01*
X132852236Y-72789241D01*
X132463328Y-73178149D01*
X131402668Y-72117489D01*
G37*
G36*
X131968354Y-71551804D02*
G01*
X132357262Y-71162896D01*
X133417922Y-72223556D01*
X133029014Y-72612464D01*
X131968354Y-71551804D01*
G37*
G36*
X132534039Y-70986118D02*
G01*
X132922947Y-70597210D01*
X133983607Y-71657870D01*
X133594699Y-72046778D01*
X132534039Y-70986118D01*
G37*
G36*
X133099725Y-70420433D02*
G01*
X133488633Y-70031525D01*
X134549293Y-71092185D01*
X134160385Y-71481093D01*
X133099725Y-70420433D01*
G37*
G36*
X133665410Y-69854747D02*
G01*
X134054318Y-69465839D01*
X135114978Y-70526499D01*
X134726070Y-70915407D01*
X133665410Y-69854747D01*
G37*
G36*
X134231096Y-69289062D02*
G01*
X134620004Y-68900154D01*
X135680664Y-69960814D01*
X135291756Y-70349722D01*
X134231096Y-69289062D01*
G37*
G36*
X134796781Y-68723376D02*
G01*
X135185689Y-68334468D01*
X136246349Y-69395128D01*
X135857441Y-69784036D01*
X134796781Y-68723376D01*
G37*
G36*
X135362466Y-68157691D02*
G01*
X135751374Y-67768783D01*
X136812034Y-68829443D01*
X136423126Y-69218351D01*
X135362466Y-68157691D01*
G37*
G36*
X135928152Y-67592006D02*
G01*
X136317060Y-67203098D01*
X137377720Y-68263758D01*
X136988812Y-68652666D01*
X135928152Y-67592006D01*
G37*
%TD*%
D11*
%TO.C,SW40*%
X186637930Y-56769000D03*
D12*
X184137930Y-56769000D03*
X181637930Y-56769000D03*
D13*
X189737930Y-64269000D03*
X178537930Y-64269000D03*
D12*
X186637930Y-71269000D03*
X181637930Y-71269000D03*
%TD*%
%TO.C,R5*%
G36*
G01*
X148164600Y-62055420D02*
X148164600Y-61505420D01*
G75*
G02*
X148364600Y-61305420I200000J0D01*
G01*
X148764600Y-61305420D01*
G75*
G02*
X148964600Y-61505420I0J-200000D01*
G01*
X148964600Y-62055420D01*
G75*
G02*
X148764600Y-62255420I-200000J0D01*
G01*
X148364600Y-62255420D01*
G75*
G02*
X148164600Y-62055420I0J200000D01*
G01*
G37*
G36*
G01*
X149814600Y-62055420D02*
X149814600Y-61505420D01*
G75*
G02*
X150014600Y-61305420I200000J0D01*
G01*
X150414600Y-61305420D01*
G75*
G02*
X150614600Y-61505420I0J-200000D01*
G01*
X150614600Y-62055420D01*
G75*
G02*
X150414600Y-62255420I-200000J0D01*
G01*
X150014600Y-62255420D01*
G75*
G02*
X149814600Y-62055420I0J200000D01*
G01*
G37*
%TD*%
D14*
%TO.C,L1*%
X152612480Y-62166500D03*
X152612480Y-62966500D03*
X154462480Y-62966500D03*
X154462480Y-62166500D03*
%TD*%
%TO.C,R6*%
G36*
G01*
X150627400Y-63584500D02*
X150627400Y-63034500D01*
G75*
G02*
X150827400Y-62834500I200000J0D01*
G01*
X151227400Y-62834500D01*
G75*
G02*
X151427400Y-63034500I0J-200000D01*
G01*
X151427400Y-63584500D01*
G75*
G02*
X151227400Y-63784500I-200000J0D01*
G01*
X150827400Y-63784500D01*
G75*
G02*
X150627400Y-63584500I0J200000D01*
G01*
G37*
G36*
G01*
X148977400Y-63584500D02*
X148977400Y-63034500D01*
G75*
G02*
X149177400Y-62834500I200000J0D01*
G01*
X149577400Y-62834500D01*
G75*
G02*
X149777400Y-63034500I0J-200000D01*
G01*
X149777400Y-63584500D01*
G75*
G02*
X149577400Y-63784500I-200000J0D01*
G01*
X149177400Y-63784500D01*
G75*
G02*
X148977400Y-63584500I0J200000D01*
G01*
G37*
%TD*%
D15*
%TO.C,J2*%
X214471250Y-73025000D03*
X211931250Y-73025000D03*
X214471250Y-70485000D03*
X211931250Y-70485000D03*
X214471250Y-67945000D03*
X211931250Y-67945000D03*
X214471250Y-65405000D03*
D16*
X211931250Y-65405000D03*
%TD*%
D15*
%TO.C,J3*%
X209892900Y-60147200D03*
D16*
X207352900Y-60147200D03*
%TD*%
D17*
%TO.C,SW6*%
X103502460Y-165096190D03*
X93342460Y-165096190D03*
D18*
X95882460Y-170176190D03*
X102231260Y-167636310D03*
D19*
X98421260Y-165096310D03*
%TD*%
D20*
%TO.C,H10*%
X216693750Y-161925000D03*
%TD*%
%TO.C,H9*%
X221625160Y-98425000D03*
%TD*%
%TO.C,H8*%
X221589600Y-56870600D03*
%TD*%
%TO.C,H7*%
X105568750Y-98425000D03*
%TD*%
%TO.C,H6*%
X256230070Y-183342330D03*
%TD*%
%TO.C,H5*%
X169862500Y-56794400D03*
%TD*%
%TO.C,H4*%
X105568750Y-136525000D03*
%TD*%
%TO.C,H3*%
X216641730Y-222905270D03*
%TD*%
%TO.C,H2*%
X80035400Y-173964600D03*
%TD*%
%TO.C,H1*%
X80035400Y-56870600D03*
%TD*%
%TO.C,C7*%
G36*
G01*
X109693520Y-65420960D02*
X109193520Y-65420960D01*
G75*
G02*
X108968520Y-65195960I0J225000D01*
G01*
X108968520Y-64745960D01*
G75*
G02*
X109193520Y-64520960I225000J0D01*
G01*
X109693520Y-64520960D01*
G75*
G02*
X109918520Y-64745960I0J-225000D01*
G01*
X109918520Y-65195960D01*
G75*
G02*
X109693520Y-65420960I-225000J0D01*
G01*
G37*
G36*
G01*
X109693520Y-63870960D02*
X109193520Y-63870960D01*
G75*
G02*
X108968520Y-63645960I0J225000D01*
G01*
X108968520Y-63195960D01*
G75*
G02*
X109193520Y-62970960I225000J0D01*
G01*
X109693520Y-62970960D01*
G75*
G02*
X109918520Y-63195960I0J-225000D01*
G01*
X109918520Y-63645960D01*
G75*
G02*
X109693520Y-63870960I-225000J0D01*
G01*
G37*
%TD*%
%TO.C,R15*%
G36*
G01*
X111561200Y-68926760D02*
X112111200Y-68926760D01*
G75*
G02*
X112311200Y-69126760I0J-200000D01*
G01*
X112311200Y-69526760D01*
G75*
G02*
X112111200Y-69726760I-200000J0D01*
G01*
X111561200Y-69726760D01*
G75*
G02*
X111361200Y-69526760I0J200000D01*
G01*
X111361200Y-69126760D01*
G75*
G02*
X111561200Y-68926760I200000J0D01*
G01*
G37*
G36*
G01*
X111561200Y-67276760D02*
X112111200Y-67276760D01*
G75*
G02*
X112311200Y-67476760I0J-200000D01*
G01*
X112311200Y-67876760D01*
G75*
G02*
X112111200Y-68076760I-200000J0D01*
G01*
X111561200Y-68076760D01*
G75*
G02*
X111361200Y-67876760I0J200000D01*
G01*
X111361200Y-67476760D01*
G75*
G02*
X111561200Y-67276760I200000J0D01*
G01*
G37*
%TD*%
%TO.C,R14*%
G36*
G01*
X113156320Y-68037760D02*
X113706320Y-68037760D01*
G75*
G02*
X113906320Y-68237760I0J-200000D01*
G01*
X113906320Y-68637760D01*
G75*
G02*
X113706320Y-68837760I-200000J0D01*
G01*
X113156320Y-68837760D01*
G75*
G02*
X112956320Y-68637760I0J200000D01*
G01*
X112956320Y-68237760D01*
G75*
G02*
X113156320Y-68037760I200000J0D01*
G01*
G37*
G36*
G01*
X113156320Y-66387760D02*
X113706320Y-66387760D01*
G75*
G02*
X113906320Y-66587760I0J-200000D01*
G01*
X113906320Y-66987760D01*
G75*
G02*
X113706320Y-67187760I-200000J0D01*
G01*
X113156320Y-67187760D01*
G75*
G02*
X112956320Y-66987760I0J200000D01*
G01*
X112956320Y-66587760D01*
G75*
G02*
X113156320Y-66387760I200000J0D01*
G01*
G37*
%TD*%
D10*
%TO.C,U2*%
G36*
X106054379Y-69477403D02*
G01*
X106425610Y-69106172D01*
X106796841Y-69477403D01*
X106425610Y-69848634D01*
X106054379Y-69477403D01*
G37*
G36*
X106425610Y-69106172D02*
G01*
X106796841Y-68734941D01*
X107168072Y-69106172D01*
X106796841Y-69477403D01*
X106425610Y-69106172D01*
G37*
G36*
X106796841Y-68734941D02*
G01*
X107168072Y-68363710D01*
X107539303Y-68734941D01*
X107168072Y-69106172D01*
X106796841Y-68734941D01*
G37*
G36*
X107168072Y-68363710D02*
G01*
X107539303Y-67992479D01*
X107910534Y-68363710D01*
X107539303Y-68734941D01*
X107168072Y-68363710D01*
G37*
G36*
X105683148Y-69106172D02*
G01*
X106054379Y-68734941D01*
X106425610Y-69106172D01*
X106054379Y-69477403D01*
X105683148Y-69106172D01*
G37*
G36*
X106054379Y-68734941D02*
G01*
X106425610Y-68363710D01*
X106796841Y-68734941D01*
X106425610Y-69106172D01*
X106054379Y-68734941D01*
G37*
G36*
X106425610Y-68363710D02*
G01*
X106796841Y-67992479D01*
X107168072Y-68363710D01*
X106796841Y-68734941D01*
X106425610Y-68363710D01*
G37*
G36*
X106796841Y-67992479D02*
G01*
X107168072Y-67621248D01*
X107539303Y-67992479D01*
X107168072Y-68363710D01*
X106796841Y-67992479D01*
G37*
G36*
X105311917Y-68734941D02*
G01*
X105683148Y-68363710D01*
X106054379Y-68734941D01*
X105683148Y-69106172D01*
X105311917Y-68734941D01*
G37*
G36*
X105683148Y-68363710D02*
G01*
X106054379Y-67992479D01*
X106425610Y-68363710D01*
X106054379Y-68734941D01*
X105683148Y-68363710D01*
G37*
G36*
X106054379Y-67992479D02*
G01*
X106425610Y-67621248D01*
X106796841Y-67992479D01*
X106425610Y-68363710D01*
X106054379Y-67992479D01*
G37*
G36*
X106425610Y-67621248D02*
G01*
X106796841Y-67250017D01*
X107168072Y-67621248D01*
X106796841Y-67992479D01*
X106425610Y-67621248D01*
G37*
G36*
X104940686Y-68363710D02*
G01*
X105311917Y-67992479D01*
X105683148Y-68363710D01*
X105311917Y-68734941D01*
X104940686Y-68363710D01*
G37*
G36*
X105311917Y-67992479D02*
G01*
X105683148Y-67621248D01*
X106054379Y-67992479D01*
X105683148Y-68363710D01*
X105311917Y-67992479D01*
G37*
G36*
X105683148Y-67621248D02*
G01*
X106054379Y-67250017D01*
X106425610Y-67621248D01*
X106054379Y-67992479D01*
X105683148Y-67621248D01*
G37*
G36*
X106054379Y-67250017D02*
G01*
X106425610Y-66878786D01*
X106796841Y-67250017D01*
X106425610Y-67621248D01*
X106054379Y-67250017D01*
G37*
G36*
G01*
X106673097Y-66178750D02*
X107139787Y-65712060D01*
G75*
G02*
X107309493Y-65712060I84853J-84853D01*
G01*
X107309493Y-65712060D01*
G75*
G02*
X107309493Y-65881766I-84853J-84853D01*
G01*
X106842803Y-66348456D01*
G75*
G02*
X106673097Y-66348456I-84853J84853D01*
G01*
X106673097Y-66348456D01*
G75*
G02*
X106673097Y-66178750I84853J84853D01*
G01*
G37*
G36*
G01*
X107026651Y-66532303D02*
X107493341Y-66065613D01*
G75*
G02*
X107663047Y-66065613I84853J-84853D01*
G01*
X107663047Y-66065613D01*
G75*
G02*
X107663047Y-66235319I-84853J-84853D01*
G01*
X107196357Y-66702009D01*
G75*
G02*
X107026651Y-66702009I-84853J84853D01*
G01*
X107026651Y-66702009D01*
G75*
G02*
X107026651Y-66532303I84853J84853D01*
G01*
G37*
G36*
G01*
X107380204Y-66885856D02*
X107846894Y-66419166D01*
G75*
G02*
X108016600Y-66419166I84853J-84853D01*
G01*
X108016600Y-66419166D01*
G75*
G02*
X108016600Y-66588872I-84853J-84853D01*
G01*
X107549910Y-67055562D01*
G75*
G02*
X107380204Y-67055562I-84853J84853D01*
G01*
X107380204Y-67055562D01*
G75*
G02*
X107380204Y-66885856I84853J84853D01*
G01*
G37*
G36*
G01*
X107733758Y-67239410D02*
X108200448Y-66772720D01*
G75*
G02*
X108370154Y-66772720I84853J-84853D01*
G01*
X108370154Y-66772720D01*
G75*
G02*
X108370154Y-66942426I-84853J-84853D01*
G01*
X107903464Y-67409116D01*
G75*
G02*
X107733758Y-67409116I-84853J84853D01*
G01*
X107733758Y-67409116D01*
G75*
G02*
X107733758Y-67239410I84853J84853D01*
G01*
G37*
G36*
G01*
X108087311Y-67592963D02*
X108554001Y-67126273D01*
G75*
G02*
X108723707Y-67126273I84853J-84853D01*
G01*
X108723707Y-67126273D01*
G75*
G02*
X108723707Y-67295979I-84853J-84853D01*
G01*
X108257017Y-67762669D01*
G75*
G02*
X108087311Y-67762669I-84853J84853D01*
G01*
X108087311Y-67762669D01*
G75*
G02*
X108087311Y-67592963I84853J84853D01*
G01*
G37*
G36*
G01*
X108440864Y-67946517D02*
X108907554Y-67479827D01*
G75*
G02*
X109077260Y-67479827I84853J-84853D01*
G01*
X109077260Y-67479827D01*
G75*
G02*
X109077260Y-67649533I-84853J-84853D01*
G01*
X108610570Y-68116223D01*
G75*
G02*
X108440864Y-68116223I-84853J84853D01*
G01*
X108440864Y-68116223D01*
G75*
G02*
X108440864Y-67946517I84853J84853D01*
G01*
G37*
G36*
G01*
X108907554Y-69247593D02*
X108440864Y-68780903D01*
G75*
G02*
X108440864Y-68611197I84853J84853D01*
G01*
X108440864Y-68611197D01*
G75*
G02*
X108610570Y-68611197I84853J-84853D01*
G01*
X109077260Y-69077887D01*
G75*
G02*
X109077260Y-69247593I-84853J-84853D01*
G01*
X109077260Y-69247593D01*
G75*
G02*
X108907554Y-69247593I-84853J84853D01*
G01*
G37*
G36*
G01*
X108554001Y-69601147D02*
X108087311Y-69134457D01*
G75*
G02*
X108087311Y-68964751I84853J84853D01*
G01*
X108087311Y-68964751D01*
G75*
G02*
X108257017Y-68964751I84853J-84853D01*
G01*
X108723707Y-69431441D01*
G75*
G02*
X108723707Y-69601147I-84853J-84853D01*
G01*
X108723707Y-69601147D01*
G75*
G02*
X108554001Y-69601147I-84853J84853D01*
G01*
G37*
G36*
G01*
X108200448Y-69954700D02*
X107733758Y-69488010D01*
G75*
G02*
X107733758Y-69318304I84853J84853D01*
G01*
X107733758Y-69318304D01*
G75*
G02*
X107903464Y-69318304I84853J-84853D01*
G01*
X108370154Y-69784994D01*
G75*
G02*
X108370154Y-69954700I-84853J-84853D01*
G01*
X108370154Y-69954700D01*
G75*
G02*
X108200448Y-69954700I-84853J84853D01*
G01*
G37*
G36*
G01*
X107846894Y-70308254D02*
X107380204Y-69841564D01*
G75*
G02*
X107380204Y-69671858I84853J84853D01*
G01*
X107380204Y-69671858D01*
G75*
G02*
X107549910Y-69671858I84853J-84853D01*
G01*
X108016600Y-70138548D01*
G75*
G02*
X108016600Y-70308254I-84853J-84853D01*
G01*
X108016600Y-70308254D01*
G75*
G02*
X107846894Y-70308254I-84853J84853D01*
G01*
G37*
G36*
G01*
X107493341Y-70661807D02*
X107026651Y-70195117D01*
G75*
G02*
X107026651Y-70025411I84853J84853D01*
G01*
X107026651Y-70025411D01*
G75*
G02*
X107196357Y-70025411I84853J-84853D01*
G01*
X107663047Y-70492101D01*
G75*
G02*
X107663047Y-70661807I-84853J-84853D01*
G01*
X107663047Y-70661807D01*
G75*
G02*
X107493341Y-70661807I-84853J84853D01*
G01*
G37*
G36*
G01*
X107139787Y-71015360D02*
X106673097Y-70548670D01*
G75*
G02*
X106673097Y-70378964I84853J84853D01*
G01*
X106673097Y-70378964D01*
G75*
G02*
X106842803Y-70378964I84853J-84853D01*
G01*
X107309493Y-70845654D01*
G75*
G02*
X107309493Y-71015360I-84853J-84853D01*
G01*
X107309493Y-71015360D01*
G75*
G02*
X107139787Y-71015360I-84853J84853D01*
G01*
G37*
G36*
G01*
X105541727Y-70845654D02*
X106008417Y-70378964D01*
G75*
G02*
X106178123Y-70378964I84853J-84853D01*
G01*
X106178123Y-70378964D01*
G75*
G02*
X106178123Y-70548670I-84853J-84853D01*
G01*
X105711433Y-71015360D01*
G75*
G02*
X105541727Y-71015360I-84853J84853D01*
G01*
X105541727Y-71015360D01*
G75*
G02*
X105541727Y-70845654I84853J84853D01*
G01*
G37*
G36*
G01*
X105188173Y-70492101D02*
X105654863Y-70025411D01*
G75*
G02*
X105824569Y-70025411I84853J-84853D01*
G01*
X105824569Y-70025411D01*
G75*
G02*
X105824569Y-70195117I-84853J-84853D01*
G01*
X105357879Y-70661807D01*
G75*
G02*
X105188173Y-70661807I-84853J84853D01*
G01*
X105188173Y-70661807D01*
G75*
G02*
X105188173Y-70492101I84853J84853D01*
G01*
G37*
G36*
G01*
X104834620Y-70138548D02*
X105301310Y-69671858D01*
G75*
G02*
X105471016Y-69671858I84853J-84853D01*
G01*
X105471016Y-69671858D01*
G75*
G02*
X105471016Y-69841564I-84853J-84853D01*
G01*
X105004326Y-70308254D01*
G75*
G02*
X104834620Y-70308254I-84853J84853D01*
G01*
X104834620Y-70308254D01*
G75*
G02*
X104834620Y-70138548I84853J84853D01*
G01*
G37*
G36*
G01*
X104481066Y-69784994D02*
X104947756Y-69318304D01*
G75*
G02*
X105117462Y-69318304I84853J-84853D01*
G01*
X105117462Y-69318304D01*
G75*
G02*
X105117462Y-69488010I-84853J-84853D01*
G01*
X104650772Y-69954700D01*
G75*
G02*
X104481066Y-69954700I-84853J84853D01*
G01*
X104481066Y-69954700D01*
G75*
G02*
X104481066Y-69784994I84853J84853D01*
G01*
G37*
G36*
G01*
X104127513Y-69431441D02*
X104594203Y-68964751D01*
G75*
G02*
X104763909Y-68964751I84853J-84853D01*
G01*
X104763909Y-68964751D01*
G75*
G02*
X104763909Y-69134457I-84853J-84853D01*
G01*
X104297219Y-69601147D01*
G75*
G02*
X104127513Y-69601147I-84853J84853D01*
G01*
X104127513Y-69601147D01*
G75*
G02*
X104127513Y-69431441I84853J84853D01*
G01*
G37*
G36*
G01*
X103773960Y-69077887D02*
X104240650Y-68611197D01*
G75*
G02*
X104410356Y-68611197I84853J-84853D01*
G01*
X104410356Y-68611197D01*
G75*
G02*
X104410356Y-68780903I-84853J-84853D01*
G01*
X103943666Y-69247593D01*
G75*
G02*
X103773960Y-69247593I-84853J84853D01*
G01*
X103773960Y-69247593D01*
G75*
G02*
X103773960Y-69077887I84853J84853D01*
G01*
G37*
G36*
G01*
X104240650Y-68116223D02*
X103773960Y-67649533D01*
G75*
G02*
X103773960Y-67479827I84853J84853D01*
G01*
X103773960Y-67479827D01*
G75*
G02*
X103943666Y-67479827I84853J-84853D01*
G01*
X104410356Y-67946517D01*
G75*
G02*
X104410356Y-68116223I-84853J-84853D01*
G01*
X104410356Y-68116223D01*
G75*
G02*
X104240650Y-68116223I-84853J84853D01*
G01*
G37*
G36*
G01*
X104594203Y-67762669D02*
X104127513Y-67295979D01*
G75*
G02*
X104127513Y-67126273I84853J84853D01*
G01*
X104127513Y-67126273D01*
G75*
G02*
X104297219Y-67126273I84853J-84853D01*
G01*
X104763909Y-67592963D01*
G75*
G02*
X104763909Y-67762669I-84853J-84853D01*
G01*
X104763909Y-67762669D01*
G75*
G02*
X104594203Y-67762669I-84853J84853D01*
G01*
G37*
G36*
G01*
X104947756Y-67409116D02*
X104481066Y-66942426D01*
G75*
G02*
X104481066Y-66772720I84853J84853D01*
G01*
X104481066Y-66772720D01*
G75*
G02*
X104650772Y-66772720I84853J-84853D01*
G01*
X105117462Y-67239410D01*
G75*
G02*
X105117462Y-67409116I-84853J-84853D01*
G01*
X105117462Y-67409116D01*
G75*
G02*
X104947756Y-67409116I-84853J84853D01*
G01*
G37*
G36*
G01*
X105301310Y-67055562D02*
X104834620Y-66588872D01*
G75*
G02*
X104834620Y-66419166I84853J84853D01*
G01*
X104834620Y-66419166D01*
G75*
G02*
X105004326Y-66419166I84853J-84853D01*
G01*
X105471016Y-66885856D01*
G75*
G02*
X105471016Y-67055562I-84853J-84853D01*
G01*
X105471016Y-67055562D01*
G75*
G02*
X105301310Y-67055562I-84853J84853D01*
G01*
G37*
G36*
G01*
X105654863Y-66702009D02*
X105188173Y-66235319D01*
G75*
G02*
X105188173Y-66065613I84853J84853D01*
G01*
X105188173Y-66065613D01*
G75*
G02*
X105357879Y-66065613I84853J-84853D01*
G01*
X105824569Y-66532303D01*
G75*
G02*
X105824569Y-66702009I-84853J-84853D01*
G01*
X105824569Y-66702009D01*
G75*
G02*
X105654863Y-66702009I-84853J84853D01*
G01*
G37*
G36*
G01*
X106008417Y-66348456D02*
X105541727Y-65881766D01*
G75*
G02*
X105541727Y-65712060I84853J84853D01*
G01*
X105541727Y-65712060D01*
G75*
G02*
X105711433Y-65712060I84853J-84853D01*
G01*
X106178123Y-66178750D01*
G75*
G02*
X106178123Y-66348456I-84853J-84853D01*
G01*
X106178123Y-66348456D01*
G75*
G02*
X106008417Y-66348456I-84853J84853D01*
G01*
G37*
%TD*%
%TO.C,R13*%
G36*
G01*
X105555000Y-63214840D02*
X105555000Y-63764840D01*
G75*
G02*
X105355000Y-63964840I-200000J0D01*
G01*
X104955000Y-63964840D01*
G75*
G02*
X104755000Y-63764840I0J200000D01*
G01*
X104755000Y-63214840D01*
G75*
G02*
X104955000Y-63014840I200000J0D01*
G01*
X105355000Y-63014840D01*
G75*
G02*
X105555000Y-63214840I0J-200000D01*
G01*
G37*
G36*
G01*
X103905000Y-63214840D02*
X103905000Y-63764840D01*
G75*
G02*
X103705000Y-63964840I-200000J0D01*
G01*
X103305000Y-63964840D01*
G75*
G02*
X103105000Y-63764840I0J200000D01*
G01*
X103105000Y-63214840D01*
G75*
G02*
X103305000Y-63014840I200000J0D01*
G01*
X103705000Y-63014840D01*
G75*
G02*
X103905000Y-63214840I0J-200000D01*
G01*
G37*
%TD*%
%TO.C,R12*%
G36*
G01*
X108174200Y-61488000D02*
X107624200Y-61488000D01*
G75*
G02*
X107424200Y-61288000I0J200000D01*
G01*
X107424200Y-60888000D01*
G75*
G02*
X107624200Y-60688000I200000J0D01*
G01*
X108174200Y-60688000D01*
G75*
G02*
X108374200Y-60888000I0J-200000D01*
G01*
X108374200Y-61288000D01*
G75*
G02*
X108174200Y-61488000I-200000J0D01*
G01*
G37*
G36*
G01*
X108174200Y-63138000D02*
X107624200Y-63138000D01*
G75*
G02*
X107424200Y-62938000I0J200000D01*
G01*
X107424200Y-62538000D01*
G75*
G02*
X107624200Y-62338000I200000J0D01*
G01*
X108174200Y-62338000D01*
G75*
G02*
X108374200Y-62538000I0J-200000D01*
G01*
X108374200Y-62938000D01*
G75*
G02*
X108174200Y-63138000I-200000J0D01*
G01*
G37*
%TD*%
%TO.C,R11*%
G36*
G01*
X110976229Y-71487138D02*
X111365138Y-71098229D01*
G75*
G02*
X111647980Y-71098229I141421J-141421D01*
G01*
X111930823Y-71381072D01*
G75*
G02*
X111930823Y-71663914I-141421J-141421D01*
G01*
X111541914Y-72052823D01*
G75*
G02*
X111259072Y-72052823I-141421J141421D01*
G01*
X110976229Y-71769980D01*
G75*
G02*
X110976229Y-71487138I141421J141421D01*
G01*
G37*
G36*
G01*
X109809503Y-70320412D02*
X110198412Y-69931503D01*
G75*
G02*
X110481254Y-69931503I141421J-141421D01*
G01*
X110764097Y-70214346D01*
G75*
G02*
X110764097Y-70497188I-141421J-141421D01*
G01*
X110375188Y-70886097D01*
G75*
G02*
X110092346Y-70886097I-141421J141421D01*
G01*
X109809503Y-70603254D01*
G75*
G02*
X109809503Y-70320412I141421J141421D01*
G01*
G37*
%TD*%
D18*
%TO.C,SW37*%
X210182460Y-146364960D03*
D17*
X217802460Y-141283690D03*
X207642460Y-141283690D03*
D18*
X216531260Y-143823810D03*
D19*
X212721260Y-141283810D03*
%TD*%
D18*
%TO.C,SW36*%
X210182460Y-117789960D03*
D17*
X217802460Y-112708690D03*
X207642460Y-112708690D03*
D18*
X216531260Y-115248810D03*
D19*
X212721260Y-112708810D03*
%TD*%
D17*
%TO.C,SW24*%
X199931190Y-180183652D03*
X192746986Y-172999447D03*
D18*
X190950934Y-178387601D03*
X197236180Y-181080914D03*
D19*
X196338155Y-176590786D03*
%TD*%
D17*
%TO.C,SW18*%
X213424940Y-193677402D03*
X206240736Y-186493197D03*
D18*
X204444684Y-191881351D03*
X210729930Y-194574664D03*
D19*
X209831905Y-190084536D03*
%TD*%
D17*
%TO.C,SW5*%
X88579960Y-146047460D03*
D18*
X91119960Y-151127460D03*
X97469960Y-148587460D03*
D17*
X98739960Y-146047460D03*
D19*
X93659960Y-146047460D03*
%TD*%
D18*
%TO.C,SW4*%
X91119960Y-132077460D03*
D17*
X98739960Y-126997460D03*
D19*
X93659960Y-126997460D03*
D17*
X88579960Y-126996190D03*
D18*
X97468760Y-129536310D03*
%TD*%
D17*
%TO.C,SW3*%
X88579960Y-107947460D03*
D18*
X91119960Y-113027460D03*
X97469960Y-110487460D03*
D17*
X98739960Y-107947460D03*
D19*
X93659960Y-107947460D03*
%TD*%
D18*
%TO.C,SW2*%
X91119960Y-93977460D03*
D17*
X98739960Y-88897460D03*
D19*
X93659960Y-88897460D03*
D17*
X88579960Y-88896190D03*
D18*
X97468760Y-91436310D03*
%TD*%
D17*
%TO.C,SW39*%
X217802460Y-88896190D03*
X207642460Y-88896190D03*
D18*
X210182460Y-93976190D03*
X216531260Y-91436310D03*
D19*
X212721260Y-88896310D03*
%TD*%
D18*
%TO.C,SW38*%
X238293096Y-185148709D03*
D17*
X247274250Y-186943862D03*
X240090046Y-179759657D03*
D18*
X244579240Y-187841124D03*
D19*
X243681215Y-183350996D03*
%TD*%
D18*
%TO.C,SW35*%
X224799346Y-171654959D03*
D17*
X233780500Y-173450112D03*
X226596296Y-166265907D03*
D18*
X231085490Y-174347374D03*
D19*
X230187465Y-169857246D03*
%TD*%
D18*
%TO.C,SW34*%
X191132460Y-151127460D03*
D17*
X198752460Y-146046190D03*
X188592460Y-146046190D03*
D18*
X197481260Y-148586310D03*
D19*
X193671260Y-146046310D03*
%TD*%
D17*
%TO.C,SW33*%
X198752460Y-126996190D03*
X188592460Y-126996190D03*
D18*
X191132460Y-132076190D03*
X197481260Y-129536310D03*
D19*
X193671260Y-126996310D03*
%TD*%
D18*
%TO.C,SW32*%
X191132460Y-113027460D03*
D17*
X198752460Y-107946190D03*
X188592460Y-107946190D03*
D18*
X197481260Y-110486310D03*
D19*
X193671260Y-107946310D03*
%TD*%
D17*
%TO.C,SW31*%
X198748720Y-88892500D03*
X188588720Y-88892500D03*
D18*
X191128720Y-93972500D03*
X197477520Y-91432620D03*
D19*
X193667520Y-88892620D03*
%TD*%
D18*
%TO.C,SW30*%
X224799311Y-198637205D03*
D17*
X233780465Y-200432358D03*
X226596261Y-193248153D03*
D18*
X231085455Y-201329620D03*
D19*
X230187430Y-196839492D03*
%TD*%
D17*
%TO.C,SW29*%
X179702460Y-162714940D03*
X169542460Y-162714940D03*
D18*
X172082460Y-167794940D03*
X178431260Y-165255060D03*
D19*
X174621260Y-162715060D03*
%TD*%
D18*
%TO.C,SW28*%
X172082460Y-148746210D03*
D17*
X179702460Y-143664940D03*
X169542460Y-143664940D03*
D18*
X178431260Y-146205060D03*
D19*
X174621260Y-143665060D03*
%TD*%
D17*
%TO.C,SW27*%
X179702460Y-124614940D03*
X169542460Y-124614940D03*
D18*
X172082460Y-129694940D03*
X178431260Y-127155060D03*
D19*
X174621260Y-124615060D03*
%TD*%
D18*
%TO.C,SW26*%
X172082460Y-110646210D03*
D17*
X179702460Y-105564940D03*
X169542460Y-105564940D03*
D18*
X178431260Y-108105060D03*
D19*
X174621260Y-105565060D03*
%TD*%
D17*
%TO.C,SW25*%
X179702460Y-86514940D03*
X169542460Y-86514940D03*
D18*
X172082460Y-91594940D03*
X178431260Y-89055060D03*
D19*
X174621260Y-86515060D03*
%TD*%
D17*
%TO.C,SW23*%
X160648720Y-160333690D03*
X150488720Y-160333690D03*
D18*
X153028720Y-165413690D03*
X159377520Y-162873810D03*
D19*
X155567520Y-160333810D03*
%TD*%
D18*
%TO.C,SW22*%
X153032460Y-146364960D03*
D17*
X160652460Y-141283690D03*
X150492460Y-141283690D03*
D18*
X159381260Y-143823810D03*
D19*
X155571260Y-141283810D03*
%TD*%
D17*
%TO.C,SW21*%
X160652460Y-122233690D03*
X150492460Y-122233690D03*
D18*
X153032460Y-127313690D03*
X159381260Y-124773810D03*
D19*
X155571260Y-122233810D03*
%TD*%
D18*
%TO.C,SW20*%
X153032460Y-108264960D03*
D17*
X160652460Y-103183690D03*
X150492460Y-103183690D03*
D18*
X159381260Y-105723810D03*
D19*
X155571260Y-103183810D03*
%TD*%
D17*
%TO.C,SW19*%
X160652460Y-84130000D03*
X150492460Y-84130000D03*
D18*
X153032460Y-89210000D03*
X159381260Y-86670120D03*
D19*
X155571260Y-84130120D03*
%TD*%
D17*
%TO.C,SW17*%
X141602460Y-162714940D03*
X131442460Y-162714940D03*
D18*
X133982460Y-167794940D03*
X140331260Y-165255060D03*
D19*
X136521260Y-162715060D03*
%TD*%
D18*
%TO.C,SW16*%
X133982460Y-148746210D03*
D17*
X141602460Y-143664940D03*
X131442460Y-143664940D03*
D18*
X140331260Y-146205060D03*
D19*
X136521260Y-143665060D03*
%TD*%
D17*
%TO.C,SW15*%
X141602460Y-124614940D03*
X131442460Y-124614940D03*
D18*
X133982460Y-129694940D03*
X140331260Y-127155060D03*
D19*
X136521260Y-124615060D03*
%TD*%
D18*
%TO.C,SW14*%
X133978720Y-110642520D03*
D17*
X141598720Y-105561250D03*
X131438720Y-105561250D03*
D18*
X140327520Y-108101370D03*
D19*
X136517520Y-105561370D03*
%TD*%
D17*
%TO.C,SW13*%
X141602460Y-86514940D03*
X131442460Y-86514940D03*
D18*
X133982460Y-91594940D03*
X140331260Y-89055060D03*
D19*
X136521260Y-86515060D03*
%TD*%
D17*
%TO.C,SW12*%
X220286715Y-213926108D03*
X213102511Y-206741903D03*
D18*
X211306459Y-212130057D03*
X217591705Y-214823370D03*
D19*
X216693680Y-210333242D03*
%TD*%
D17*
%TO.C,SW11*%
X122552460Y-165096190D03*
X112392460Y-165096190D03*
D18*
X114932460Y-170176190D03*
X121281260Y-167636310D03*
D19*
X117471260Y-165096310D03*
%TD*%
D18*
%TO.C,SW10*%
X114932460Y-151127460D03*
D17*
X122552460Y-146046190D03*
X112392460Y-146046190D03*
D18*
X121281260Y-148586310D03*
D19*
X117471260Y-146046310D03*
%TD*%
D17*
%TO.C,SW9*%
X122552460Y-126996190D03*
X112392460Y-126996190D03*
D18*
X114932460Y-132076190D03*
X121281260Y-129536310D03*
D19*
X117471260Y-126996310D03*
%TD*%
D18*
%TO.C,SW8*%
X114932460Y-113027460D03*
D17*
X122552460Y-107946190D03*
X112392460Y-107946190D03*
D18*
X121281260Y-110486310D03*
D19*
X117471260Y-107946310D03*
%TD*%
D17*
%TO.C,SW7*%
X122552460Y-88896190D03*
X112392460Y-88896190D03*
D18*
X114932460Y-93976190D03*
X121281260Y-91436310D03*
D19*
X117471260Y-88896310D03*
%TD*%
D21*
%TO.C,U9*%
X145769661Y-70174120D03*
X145769661Y-68274120D03*
X148169661Y-68274120D03*
X148169661Y-69224120D03*
X148169661Y-70174120D03*
%TD*%
%TO.C,C120*%
G36*
G01*
X144458500Y-67797500D02*
X143958500Y-67797500D01*
G75*
G02*
X143733500Y-67572500I0J225000D01*
G01*
X143733500Y-67122500D01*
G75*
G02*
X143958500Y-66897500I225000J0D01*
G01*
X144458500Y-66897500D01*
G75*
G02*
X144683500Y-67122500I0J-225000D01*
G01*
X144683500Y-67572500D01*
G75*
G02*
X144458500Y-67797500I-225000J0D01*
G01*
G37*
G36*
G01*
X144458500Y-69347500D02*
X143958500Y-69347500D01*
G75*
G02*
X143733500Y-69122500I0J225000D01*
G01*
X143733500Y-68672500D01*
G75*
G02*
X143958500Y-68447500I225000J0D01*
G01*
X144458500Y-68447500D01*
G75*
G02*
X144683500Y-68672500I0J-225000D01*
G01*
X144683500Y-69122500D01*
G75*
G02*
X144458500Y-69347500I-225000J0D01*
G01*
G37*
%TD*%
%TO.C,C5*%
G36*
G01*
X146639400Y-66501200D02*
X146639400Y-67001200D01*
G75*
G02*
X146414400Y-67226200I-225000J0D01*
G01*
X145964400Y-67226200D01*
G75*
G02*
X145739400Y-67001200I0J225000D01*
G01*
X145739400Y-66501200D01*
G75*
G02*
X145964400Y-66276200I225000J0D01*
G01*
X146414400Y-66276200D01*
G75*
G02*
X146639400Y-66501200I0J-225000D01*
G01*
G37*
G36*
G01*
X148189400Y-66501200D02*
X148189400Y-67001200D01*
G75*
G02*
X147964400Y-67226200I-225000J0D01*
G01*
X147514400Y-67226200D01*
G75*
G02*
X147289400Y-67001200I0J225000D01*
G01*
X147289400Y-66501200D01*
G75*
G02*
X147514400Y-66276200I225000J0D01*
G01*
X147964400Y-66276200D01*
G75*
G02*
X148189400Y-66501200I0J-225000D01*
G01*
G37*
%TD*%
%TO.C,C1*%
G36*
G01*
X159578220Y-63633160D02*
X159578220Y-63133160D01*
G75*
G02*
X159803220Y-62908160I225000J0D01*
G01*
X160253220Y-62908160D01*
G75*
G02*
X160478220Y-63133160I0J-225000D01*
G01*
X160478220Y-63633160D01*
G75*
G02*
X160253220Y-63858160I-225000J0D01*
G01*
X159803220Y-63858160D01*
G75*
G02*
X159578220Y-63633160I0J225000D01*
G01*
G37*
G36*
G01*
X158028220Y-63633160D02*
X158028220Y-63133160D01*
G75*
G02*
X158253220Y-62908160I225000J0D01*
G01*
X158703220Y-62908160D01*
G75*
G02*
X158928220Y-63133160I0J-225000D01*
G01*
X158928220Y-63633160D01*
G75*
G02*
X158703220Y-63858160I-225000J0D01*
G01*
X158253220Y-63858160D01*
G75*
G02*
X158028220Y-63633160I0J225000D01*
G01*
G37*
%TD*%
%TO.C,C2*%
G36*
G01*
X158030760Y-62032960D02*
X158030760Y-61532960D01*
G75*
G02*
X158255760Y-61307960I225000J0D01*
G01*
X158705760Y-61307960D01*
G75*
G02*
X158930760Y-61532960I0J-225000D01*
G01*
X158930760Y-62032960D01*
G75*
G02*
X158705760Y-62257960I-225000J0D01*
G01*
X158255760Y-62257960D01*
G75*
G02*
X158030760Y-62032960I0J225000D01*
G01*
G37*
G36*
G01*
X159580760Y-62032960D02*
X159580760Y-61532960D01*
G75*
G02*
X159805760Y-61307960I225000J0D01*
G01*
X160255760Y-61307960D01*
G75*
G02*
X160480760Y-61532960I0J-225000D01*
G01*
X160480760Y-62032960D01*
G75*
G02*
X160255760Y-62257960I-225000J0D01*
G01*
X159805760Y-62257960D01*
G75*
G02*
X159580760Y-62032960I0J225000D01*
G01*
G37*
%TD*%
%TO.C,C3*%
G36*
G01*
X159636040Y-65522920D02*
X159636040Y-65022920D01*
G75*
G02*
X159861040Y-64797920I225000J0D01*
G01*
X160311040Y-64797920D01*
G75*
G02*
X160536040Y-65022920I0J-225000D01*
G01*
X160536040Y-65522920D01*
G75*
G02*
X160311040Y-65747920I-225000J0D01*
G01*
X159861040Y-65747920D01*
G75*
G02*
X159636040Y-65522920I0J225000D01*
G01*
G37*
G36*
G01*
X158086040Y-65522920D02*
X158086040Y-65022920D01*
G75*
G02*
X158311040Y-64797920I225000J0D01*
G01*
X158761040Y-64797920D01*
G75*
G02*
X158986040Y-65022920I0J-225000D01*
G01*
X158986040Y-65522920D01*
G75*
G02*
X158761040Y-65747920I-225000J0D01*
G01*
X158311040Y-65747920D01*
G75*
G02*
X158086040Y-65522920I0J225000D01*
G01*
G37*
%TD*%
%TO.C,C42*%
G36*
G01*
X121052400Y-61677000D02*
X120552400Y-61677000D01*
G75*
G02*
X120327400Y-61452000I0J225000D01*
G01*
X120327400Y-61002000D01*
G75*
G02*
X120552400Y-60777000I225000J0D01*
G01*
X121052400Y-60777000D01*
G75*
G02*
X121277400Y-61002000I0J-225000D01*
G01*
X121277400Y-61452000D01*
G75*
G02*
X121052400Y-61677000I-225000J0D01*
G01*
G37*
G36*
G01*
X121052400Y-60127000D02*
X120552400Y-60127000D01*
G75*
G02*
X120327400Y-59902000I0J225000D01*
G01*
X120327400Y-59452000D01*
G75*
G02*
X120552400Y-59227000I225000J0D01*
G01*
X121052400Y-59227000D01*
G75*
G02*
X121277400Y-59452000I0J-225000D01*
G01*
X121277400Y-59902000D01*
G75*
G02*
X121052400Y-60127000I-225000J0D01*
G01*
G37*
%TD*%
%TO.C,C43*%
G36*
G01*
X134935779Y-61454975D02*
X134582225Y-61101421D01*
G75*
G02*
X134582225Y-60783223I159099J159099D01*
G01*
X134900423Y-60465025D01*
G75*
G02*
X135218621Y-60465025I159099J-159099D01*
G01*
X135572175Y-60818579D01*
G75*
G02*
X135572175Y-61136777I-159099J-159099D01*
G01*
X135253977Y-61454975D01*
G75*
G02*
X134935779Y-61454975I-159099J159099D01*
G01*
G37*
G36*
G01*
X136031795Y-60358959D02*
X135678241Y-60005405D01*
G75*
G02*
X135678241Y-59687207I159099J159099D01*
G01*
X135996439Y-59369009D01*
G75*
G02*
X136314637Y-59369009I159099J-159099D01*
G01*
X136668191Y-59722563D01*
G75*
G02*
X136668191Y-60040761I-159099J-159099D01*
G01*
X136349993Y-60358959D01*
G75*
G02*
X136031795Y-60358959I-159099J159099D01*
G01*
G37*
%TD*%
%TO.C,C44*%
G36*
G01*
X122255700Y-69671120D02*
X122255700Y-70171120D01*
G75*
G02*
X122030700Y-70396120I-225000J0D01*
G01*
X121580700Y-70396120D01*
G75*
G02*
X121355700Y-70171120I0J225000D01*
G01*
X121355700Y-69671120D01*
G75*
G02*
X121580700Y-69446120I225000J0D01*
G01*
X122030700Y-69446120D01*
G75*
G02*
X122255700Y-69671120I0J-225000D01*
G01*
G37*
G36*
G01*
X120705700Y-69671120D02*
X120705700Y-70171120D01*
G75*
G02*
X120480700Y-70396120I-225000J0D01*
G01*
X120030700Y-70396120D01*
G75*
G02*
X119805700Y-70171120I0J225000D01*
G01*
X119805700Y-69671120D01*
G75*
G02*
X120030700Y-69446120I225000J0D01*
G01*
X120480700Y-69446120D01*
G75*
G02*
X120705700Y-69671120I0J-225000D01*
G01*
G37*
%TD*%
%TO.C,C45*%
G36*
G01*
X135554600Y-73910000D02*
X135554600Y-73410000D01*
G75*
G02*
X135779600Y-73185000I225000J0D01*
G01*
X136229600Y-73185000D01*
G75*
G02*
X136454600Y-73410000I0J-225000D01*
G01*
X136454600Y-73910000D01*
G75*
G02*
X136229600Y-74135000I-225000J0D01*
G01*
X135779600Y-74135000D01*
G75*
G02*
X135554600Y-73910000I0J225000D01*
G01*
G37*
G36*
G01*
X134004600Y-73910000D02*
X134004600Y-73410000D01*
G75*
G02*
X134229600Y-73185000I225000J0D01*
G01*
X134679600Y-73185000D01*
G75*
G02*
X134904600Y-73410000I0J-225000D01*
G01*
X134904600Y-73910000D01*
G75*
G02*
X134679600Y-74135000I-225000J0D01*
G01*
X134229600Y-74135000D01*
G75*
G02*
X134004600Y-73910000I0J225000D01*
G01*
G37*
%TD*%
%TO.C,C46*%
G36*
G01*
X138571795Y-63152959D02*
X138218241Y-62799405D01*
G75*
G02*
X138218241Y-62481207I159099J159099D01*
G01*
X138536439Y-62163009D01*
G75*
G02*
X138854637Y-62163009I159099J-159099D01*
G01*
X139208191Y-62516563D01*
G75*
G02*
X139208191Y-62834761I-159099J-159099D01*
G01*
X138889993Y-63152959D01*
G75*
G02*
X138571795Y-63152959I-159099J159099D01*
G01*
G37*
G36*
G01*
X137475779Y-64248975D02*
X137122225Y-63895421D01*
G75*
G02*
X137122225Y-63577223I159099J159099D01*
G01*
X137440423Y-63259025D01*
G75*
G02*
X137758621Y-63259025I159099J-159099D01*
G01*
X138112175Y-63612579D01*
G75*
G02*
X138112175Y-63930777I-159099J-159099D01*
G01*
X137793977Y-64248975D01*
G75*
G02*
X137475779Y-64248975I-159099J159099D01*
G01*
G37*
%TD*%
%TO.C,D194*%
G36*
G01*
X142077150Y-66800080D02*
X141564650Y-66800080D01*
G75*
G02*
X141345900Y-66581330I0J218750D01*
G01*
X141345900Y-66143830D01*
G75*
G02*
X141564650Y-65925080I218750J0D01*
G01*
X142077150Y-65925080D01*
G75*
G02*
X142295900Y-66143830I0J-218750D01*
G01*
X142295900Y-66581330D01*
G75*
G02*
X142077150Y-66800080I-218750J0D01*
G01*
G37*
G36*
G01*
X142077150Y-65225080D02*
X141564650Y-65225080D01*
G75*
G02*
X141345900Y-65006330I0J218750D01*
G01*
X141345900Y-64568830D01*
G75*
G02*
X141564650Y-64350080I218750J0D01*
G01*
X142077150Y-64350080D01*
G75*
G02*
X142295900Y-64568830I0J-218750D01*
G01*
X142295900Y-65006330D01*
G75*
G02*
X142077150Y-65225080I-218750J0D01*
G01*
G37*
%TD*%
%TO.C,FB3*%
G36*
G01*
X157132270Y-65747540D02*
X156369770Y-65747540D01*
G75*
G02*
X156151020Y-65528790I0J218750D01*
G01*
X156151020Y-65091290D01*
G75*
G02*
X156369770Y-64872540I218750J0D01*
G01*
X157132270Y-64872540D01*
G75*
G02*
X157351020Y-65091290I0J-218750D01*
G01*
X157351020Y-65528790D01*
G75*
G02*
X157132270Y-65747540I-218750J0D01*
G01*
G37*
G36*
G01*
X157132270Y-63622540D02*
X156369770Y-63622540D01*
G75*
G02*
X156151020Y-63403790I0J218750D01*
G01*
X156151020Y-62966290D01*
G75*
G02*
X156369770Y-62747540I218750J0D01*
G01*
X157132270Y-62747540D01*
G75*
G02*
X157351020Y-62966290I0J-218750D01*
G01*
X157351020Y-63403790D01*
G75*
G02*
X157132270Y-63622540I-218750J0D01*
G01*
G37*
%TD*%
D22*
%TO.C,J1*%
X158546800Y-59791600D03*
X157696800Y-59791600D03*
X156846800Y-59791600D03*
X155996800Y-59791600D03*
X155146800Y-59791600D03*
X154296800Y-59791600D03*
X153446800Y-59791600D03*
X152596800Y-59791600D03*
X157696800Y-58441600D03*
X155996800Y-58441600D03*
X156846800Y-58441600D03*
X158546800Y-58441600D03*
X154296800Y-58441600D03*
X153446800Y-58441600D03*
X152596800Y-58441600D03*
X155146800Y-58441600D03*
D23*
X159896800Y-58811600D03*
X151246800Y-58811600D03*
D24*
X159896800Y-55431600D03*
X151246800Y-55431600D03*
%TD*%
%TO.C,R3*%
G36*
G01*
X139996500Y-66002220D02*
X140546500Y-66002220D01*
G75*
G02*
X140746500Y-66202220I0J-200000D01*
G01*
X140746500Y-66602220D01*
G75*
G02*
X140546500Y-66802220I-200000J0D01*
G01*
X139996500Y-66802220D01*
G75*
G02*
X139796500Y-66602220I0J200000D01*
G01*
X139796500Y-66202220D01*
G75*
G02*
X139996500Y-66002220I200000J0D01*
G01*
G37*
G36*
G01*
X139996500Y-64352220D02*
X140546500Y-64352220D01*
G75*
G02*
X140746500Y-64552220I0J-200000D01*
G01*
X140746500Y-64952220D01*
G75*
G02*
X140546500Y-65152220I-200000J0D01*
G01*
X139996500Y-65152220D01*
G75*
G02*
X139796500Y-64952220I0J200000D01*
G01*
X139796500Y-64552220D01*
G75*
G02*
X139996500Y-64352220I200000J0D01*
G01*
G37*
%TD*%
%TO.C,R23*%
G36*
G01*
X125269171Y-72861062D02*
X124880262Y-73249971D01*
G75*
G02*
X124597420Y-73249971I-141421J141421D01*
G01*
X124314577Y-72967128D01*
G75*
G02*
X124314577Y-72684286I141421J141421D01*
G01*
X124703486Y-72295377D01*
G75*
G02*
X124986328Y-72295377I141421J-141421D01*
G01*
X125269171Y-72578220D01*
G75*
G02*
X125269171Y-72861062I-141421J-141421D01*
G01*
G37*
G36*
G01*
X126435897Y-74027788D02*
X126046988Y-74416697D01*
G75*
G02*
X125764146Y-74416697I-141421J141421D01*
G01*
X125481303Y-74133854D01*
G75*
G02*
X125481303Y-73851012I141421J141421D01*
G01*
X125870212Y-73462103D01*
G75*
G02*
X126153054Y-73462103I141421J-141421D01*
G01*
X126435897Y-73744946D01*
G75*
G02*
X126435897Y-74027788I-141421J-141421D01*
G01*
G37*
%TD*%
D25*
%TO.C,TP1*%
X86144100Y-66255900D03*
%TD*%
D26*
%TO.C,X2*%
X122202800Y-61518800D03*
X124002800Y-61518800D03*
X124002800Y-60318800D03*
X122202800Y-60318800D03*
%TD*%
M02*
