M48
; DRILL file {KiCad (5.1.8)-1} date 07/09/22 15:07:10
; FORMAT={-:-/ absolute / metric / decimal}
; #@! TF.CreationDate,2022-07-09T15:07:10+10:00
; #@! TF.GenerationSoftware,Kicad,Pcbnew,(5.1.8)-1
; #@! TF.FileFunction,NonPlated,1,2,NPTH
FMAT,2
METRIC
T1C1.750
T2C3.000
T3C4.000
%
G90
G05
T1
X206.241Y-186.493
X213.425Y-193.677
X150.492Y-84.13
X160.652Y-84.13
X88.58Y-88.896
X98.74Y-88.897
X112.392Y-146.046
X122.552Y-146.046
X207.642Y-88.896
X217.802Y-88.896
X88.58Y-146.047
X98.74Y-146.047
X192.747Y-172.999
X199.931Y-180.184
X150.492Y-141.284
X160.652Y-141.284
X150.492Y-122.234
X160.652Y-122.234
X169.542Y-124.615
X179.702Y-124.615
X112.392Y-165.096
X122.552Y-165.096
X88.58Y-107.947
X98.74Y-107.947
X112.392Y-88.896
X122.552Y-88.896
X169.542Y-143.665
X179.702Y-143.665
X213.103Y-206.742
X220.287Y-213.926
X150.489Y-160.334
X160.649Y-160.334
X207.642Y-112.709
X217.802Y-112.709
X93.342Y-165.096
X103.502Y-165.096
X112.392Y-107.946
X122.552Y-107.946
X226.596Y-193.248
X233.78Y-200.432
X131.442Y-162.715
X141.602Y-162.715
X226.596Y-166.266
X233.78Y-173.45
X169.542Y-162.715
X179.702Y-162.715
X112.392Y-126.996
X122.552Y-126.996
X88.58Y-126.996
X98.74Y-126.997
X131.442Y-86.515
X141.602Y-86.515
X169.542Y-86.515
X179.702Y-86.515
X207.642Y-141.284
X217.802Y-141.284
X131.442Y-143.665
X141.602Y-143.665
X188.592Y-146.046
X198.752Y-146.046
X131.442Y-124.615
X141.602Y-124.615
X188.589Y-88.892
X198.749Y-88.892
X169.542Y-105.565
X179.702Y-105.565
X150.492Y-103.184
X160.652Y-103.184
X240.09Y-179.76
X247.274Y-186.944
X131.439Y-105.561
X141.599Y-105.561
X188.592Y-126.996
X198.752Y-126.996
X188.592Y-107.946
X198.752Y-107.946
T2
X153.032Y-108.265
X159.381Y-105.724
X238.293Y-185.149
X244.579Y-187.841
X133.979Y-110.643
X140.328Y-108.101
X191.132Y-132.076
X197.481Y-129.536
X191.132Y-113.027
X197.481Y-110.486
X204.445Y-191.881
X210.73Y-194.575
X153.032Y-89.21
X159.381Y-86.67
X91.12Y-93.977
X97.469Y-91.436
X114.932Y-151.127
X121.281Y-148.586
X210.182Y-93.976
X216.531Y-91.436
X91.12Y-151.127
X97.47Y-148.587
X190.951Y-178.388
X197.236Y-181.081
X153.032Y-146.365
X159.381Y-143.824
X153.032Y-127.314
X159.381Y-124.774
X172.082Y-129.695
X178.431Y-127.155
X114.932Y-170.176
X121.281Y-167.636
X91.12Y-113.027
X97.47Y-110.487
X114.932Y-93.976
X121.281Y-91.436
X172.082Y-148.746
X178.431Y-146.205
X211.306Y-212.13
X217.592Y-214.823
X153.029Y-165.414
X159.378Y-162.874
X210.182Y-117.79
X216.531Y-115.249
X95.882Y-170.176
X102.231Y-167.636
X114.932Y-113.027
X121.281Y-110.486
X224.799Y-198.637
X231.085Y-201.33
X133.982Y-167.795
X140.331Y-165.255
X224.799Y-171.655
X231.085Y-174.347
X172.082Y-167.795
X178.431Y-165.255
X114.932Y-132.076
X121.281Y-129.536
X91.12Y-132.077
X97.469Y-129.536
X133.982Y-91.595
X140.331Y-89.055
X172.082Y-91.595
X178.431Y-89.055
X210.182Y-146.365
X216.531Y-143.824
X133.982Y-148.746
X140.331Y-146.205
X191.132Y-151.127
X197.481Y-148.586
X133.982Y-129.695
X140.331Y-127.155
X191.129Y-93.972
X197.478Y-91.433
X172.082Y-110.646
X178.431Y-108.105
T3
X155.571Y-103.184
X243.681Y-183.351
X136.518Y-105.561
X193.671Y-126.996
X193.671Y-107.946
X209.832Y-190.085
X155.571Y-84.13
X93.66Y-88.897
X117.471Y-146.046
X212.721Y-88.896
X93.66Y-146.047
X196.338Y-176.591
X155.571Y-141.284
X155.571Y-122.234
X174.621Y-124.615
X117.471Y-165.096
X93.66Y-107.947
X117.471Y-88.896
X174.621Y-143.665
X216.694Y-210.333
X155.568Y-160.334
X212.721Y-112.709
X98.421Y-165.096
X117.471Y-107.946
X230.187Y-196.839
X136.521Y-162.715
X230.187Y-169.857
X174.621Y-162.715
X117.471Y-126.996
X93.66Y-126.997
X136.521Y-86.515
X174.621Y-86.515
X212.721Y-141.284
X136.521Y-143.665
X193.671Y-146.046
X136.521Y-124.615
X193.668Y-88.893
X174.621Y-105.565
T0
M30
