%TF.GenerationSoftware,KiCad,Pcbnew,(5.1.8)-1*%
%TF.CreationDate,2022-07-09T15:07:12+10:00*%
%TF.ProjectId,ergonomic_split_left,6572676f-6e6f-46d6-9963-5f73706c6974,rev?*%
%TF.SameCoordinates,Original*%
%TF.FileFunction,Profile,NP*%
%FSLAX46Y46*%
G04 Gerber Fmt 4.6, Leading zero omitted, Abs format (unit mm)*
G04 Created by KiCad (PCBNEW (5.1.8)-1) date 2022-07-09 15:07:12*
%MOMM*%
%LPD*%
G01*
G04 APERTURE LIST*
%TA.AperFunction,Profile*%
%ADD10C,0.050000*%
%TD*%
G04 APERTURE END LIST*
D10*
X105981500Y-59486800D02*
X105181400Y-59486800D01*
X106230000Y-53670200D02*
X106235500Y-59232800D01*
X104927400Y-54686200D02*
X104927400Y-59232800D01*
X98120200Y-54686200D02*
X104927400Y-54686200D01*
X98120200Y-59232800D02*
X98120200Y-54686200D01*
X97078800Y-59486800D02*
X97866200Y-59486800D01*
X96824800Y-59232800D02*
X96827400Y-53670200D01*
X106235500Y-59232800D02*
G75*
G02*
X105981500Y-59486800I-254000J0D01*
G01*
X105181400Y-59486800D02*
G75*
G02*
X104927400Y-59232800I0J254000D01*
G01*
X98120200Y-59232800D02*
G75*
G02*
X97866200Y-59486800I-254000J0D01*
G01*
X97078800Y-59486800D02*
G75*
G02*
X96824800Y-59232800I0J254000D01*
G01*
X106230000Y-53670200D02*
X221589600Y-53670200D01*
X96827400Y-53670200D02*
X80035400Y-53670200D01*
X76835000Y-173964600D02*
X76835000Y-56870600D01*
X165049200Y-177165000D02*
X80035400Y-177165000D01*
X214376000Y-225171000D02*
X167310370Y-178101607D01*
X258495800Y-185608060D02*
X218907460Y-225171000D01*
X225729800Y-148310600D02*
X258495800Y-181076600D01*
X224790000Y-56870600D02*
X224791952Y-146046436D01*
X221589600Y-53670200D02*
G75*
G02*
X224790000Y-56870600I0J-3200400D01*
G01*
X76835000Y-56870600D02*
G75*
G02*
X80035400Y-53670200I3200400J0D01*
G01*
X165049200Y-177165000D02*
G75*
G02*
X167310370Y-178101607I0J-3197777D01*
G01*
X225729800Y-148310600D02*
G75*
G02*
X224791952Y-146046436I2264164J2264164D01*
G01*
X80035400Y-177165000D02*
G75*
G02*
X76835000Y-173964600I0J3200400D01*
G01*
X218907460Y-225171000D02*
G75*
G02*
X214376000Y-225171000I-2265730J2265730D01*
G01*
X258495800Y-181076600D02*
G75*
G02*
X258495800Y-185608060I-2265730J-2265730D01*
G01*
%TO.C,SW6*%
X96721260Y-158546310D02*
X100121260Y-158546310D01*
X96721260Y-161546310D02*
X96721260Y-158546310D01*
X100121260Y-158546310D02*
X100121260Y-161546310D01*
X100121260Y-161546310D02*
X96721260Y-161546310D01*
%TO.C,SW37*%
X211022460Y-134734960D02*
X214422460Y-134734960D01*
X214422460Y-134734960D02*
X214422460Y-137734960D01*
X211022460Y-137734960D02*
X211022460Y-134734960D01*
X214422460Y-137734960D02*
X211022460Y-137734960D01*
%TO.C,SW36*%
X211022460Y-106159960D02*
X214422460Y-106159960D01*
X214422460Y-106159960D02*
X214422460Y-109159960D01*
X211022460Y-109159960D02*
X211022460Y-106159960D01*
X214422460Y-109159960D02*
X211022460Y-109159960D01*
%TO.C,SW24*%
X199767623Y-170757155D02*
X202171786Y-173161318D01*
X197646302Y-172878476D02*
X199767623Y-170757155D01*
X202171786Y-173161318D02*
X200050465Y-175282639D01*
X200050465Y-175282639D02*
X197646302Y-172878476D01*
%TO.C,SW18*%
X213261373Y-184250905D02*
X215665536Y-186655068D01*
X211140052Y-186372226D02*
X213261373Y-184250905D01*
X215665536Y-186655068D02*
X213544215Y-188776389D01*
X213544215Y-188776389D02*
X211140052Y-186372226D01*
%TO.C,SW5*%
X91959960Y-139497460D02*
X95359960Y-139497460D01*
X95359960Y-139497460D02*
X95359960Y-142497460D01*
X91959960Y-142497460D02*
X91959960Y-139497460D01*
X95359960Y-142497460D02*
X91959960Y-142497460D01*
%TO.C,SW4*%
X95358760Y-123446310D02*
X91958760Y-123446310D01*
X95358760Y-120446310D02*
X95358760Y-123446310D01*
X91958760Y-123446310D02*
X91958760Y-120446310D01*
X91958760Y-120446310D02*
X95358760Y-120446310D01*
%TO.C,SW3*%
X91959960Y-101397460D02*
X95359960Y-101397460D01*
X95359960Y-101397460D02*
X95359960Y-104397460D01*
X91959960Y-104397460D02*
X91959960Y-101397460D01*
X95359960Y-104397460D02*
X91959960Y-104397460D01*
%TO.C,SW2*%
X95358760Y-85346310D02*
X91958760Y-85346310D01*
X95358760Y-82346310D02*
X95358760Y-85346310D01*
X91958760Y-85346310D02*
X91958760Y-82346310D01*
X91958760Y-82346310D02*
X95358760Y-82346310D01*
%TO.C,SW39*%
X211021260Y-82346310D02*
X214421260Y-82346310D01*
X211021260Y-85346310D02*
X211021260Y-82346310D01*
X214421260Y-82346310D02*
X214421260Y-85346310D01*
X214421260Y-85346310D02*
X211021260Y-85346310D01*
%TO.C,SW38*%
X247393561Y-182044510D02*
X244989398Y-179640347D01*
X244989398Y-179640347D02*
X247110718Y-177519027D01*
X249514881Y-179923190D02*
X247393561Y-182044510D01*
X247110718Y-177519027D02*
X249514881Y-179923190D01*
%TO.C,SW35*%
X233899811Y-168550760D02*
X231495648Y-166146597D01*
X231495648Y-166146597D02*
X233616968Y-164025277D01*
X236021131Y-166429440D02*
X233899811Y-168550760D01*
X233616968Y-164025277D02*
X236021131Y-166429440D01*
%TO.C,SW34*%
X195372460Y-142497460D02*
X191972460Y-142497460D01*
X191972460Y-142497460D02*
X191972460Y-139497460D01*
X195372460Y-139497460D02*
X195372460Y-142497460D01*
X191972460Y-139497460D02*
X195372460Y-139497460D01*
%TO.C,SW33*%
X191971260Y-120446310D02*
X195371260Y-120446310D01*
X191971260Y-123446310D02*
X191971260Y-120446310D01*
X195371260Y-120446310D02*
X195371260Y-123446310D01*
X195371260Y-123446310D02*
X191971260Y-123446310D01*
%TO.C,SW32*%
X195372460Y-104397460D02*
X191972460Y-104397460D01*
X191972460Y-104397460D02*
X191972460Y-101397460D01*
X195372460Y-101397460D02*
X195372460Y-104397460D01*
X191972460Y-101397460D02*
X195372460Y-101397460D01*
%TO.C,SW31*%
X191967520Y-82342620D02*
X195367520Y-82342620D01*
X191967520Y-85342620D02*
X191967520Y-82342620D01*
X195367520Y-82342620D02*
X195367520Y-85342620D01*
X195367520Y-85342620D02*
X191967520Y-85342620D01*
%TO.C,SW30*%
X233899776Y-195533006D02*
X231495613Y-193128843D01*
X231495613Y-193128843D02*
X233616933Y-191007523D01*
X236021096Y-193411686D02*
X233899776Y-195533006D01*
X233616933Y-191007523D02*
X236021096Y-193411686D01*
%TO.C,SW29*%
X172921260Y-156165060D02*
X176321260Y-156165060D01*
X172921260Y-159165060D02*
X172921260Y-156165060D01*
X176321260Y-156165060D02*
X176321260Y-159165060D01*
X176321260Y-159165060D02*
X172921260Y-159165060D01*
%TO.C,SW28*%
X176322460Y-140116210D02*
X172922460Y-140116210D01*
X172922460Y-140116210D02*
X172922460Y-137116210D01*
X176322460Y-137116210D02*
X176322460Y-140116210D01*
X172922460Y-137116210D02*
X176322460Y-137116210D01*
%TO.C,SW27*%
X172921260Y-118065060D02*
X176321260Y-118065060D01*
X172921260Y-121065060D02*
X172921260Y-118065060D01*
X176321260Y-118065060D02*
X176321260Y-121065060D01*
X176321260Y-121065060D02*
X172921260Y-121065060D01*
%TO.C,SW26*%
X176322460Y-102016210D02*
X172922460Y-102016210D01*
X172922460Y-102016210D02*
X172922460Y-99016210D01*
X176322460Y-99016210D02*
X176322460Y-102016210D01*
X172922460Y-99016210D02*
X176322460Y-99016210D01*
%TO.C,SW25*%
X172921260Y-79965060D02*
X176321260Y-79965060D01*
X172921260Y-82965060D02*
X172921260Y-79965060D01*
X176321260Y-79965060D02*
X176321260Y-82965060D01*
X176321260Y-82965060D02*
X172921260Y-82965060D01*
%TO.C,SW23*%
X153867520Y-153783810D02*
X157267520Y-153783810D01*
X153867520Y-156783810D02*
X153867520Y-153783810D01*
X157267520Y-153783810D02*
X157267520Y-156783810D01*
X157267520Y-156783810D02*
X153867520Y-156783810D01*
%TO.C,SW22*%
X157272460Y-137734960D02*
X153872460Y-137734960D01*
X153872460Y-137734960D02*
X153872460Y-134734960D01*
X157272460Y-134734960D02*
X157272460Y-137734960D01*
X153872460Y-134734960D02*
X157272460Y-134734960D01*
%TO.C,SW21*%
X153871260Y-115683810D02*
X157271260Y-115683810D01*
X153871260Y-118683810D02*
X153871260Y-115683810D01*
X157271260Y-115683810D02*
X157271260Y-118683810D01*
X157271260Y-118683810D02*
X153871260Y-118683810D01*
%TO.C,SW20*%
X157272460Y-99634960D02*
X153872460Y-99634960D01*
X153872460Y-99634960D02*
X153872460Y-96634960D01*
X157272460Y-96634960D02*
X157272460Y-99634960D01*
X153872460Y-96634960D02*
X157272460Y-96634960D01*
%TO.C,SW19*%
X153871260Y-77580120D02*
X157271260Y-77580120D01*
X153871260Y-80580120D02*
X153871260Y-77580120D01*
X157271260Y-77580120D02*
X157271260Y-80580120D01*
X157271260Y-80580120D02*
X153871260Y-80580120D01*
%TO.C,SW17*%
X134821260Y-156165060D02*
X138221260Y-156165060D01*
X134821260Y-159165060D02*
X134821260Y-156165060D01*
X138221260Y-156165060D02*
X138221260Y-159165060D01*
X138221260Y-159165060D02*
X134821260Y-159165060D01*
%TO.C,SW16*%
X138222460Y-140116210D02*
X134822460Y-140116210D01*
X134822460Y-140116210D02*
X134822460Y-137116210D01*
X138222460Y-137116210D02*
X138222460Y-140116210D01*
X134822460Y-137116210D02*
X138222460Y-137116210D01*
%TO.C,SW15*%
X134821260Y-118065060D02*
X138221260Y-118065060D01*
X134821260Y-121065060D02*
X134821260Y-118065060D01*
X138221260Y-118065060D02*
X138221260Y-121065060D01*
X138221260Y-121065060D02*
X134821260Y-121065060D01*
%TO.C,SW14*%
X138218720Y-102012520D02*
X134818720Y-102012520D01*
X134818720Y-102012520D02*
X134818720Y-99012520D01*
X138218720Y-99012520D02*
X138218720Y-102012520D01*
X134818720Y-99012520D02*
X138218720Y-99012520D01*
%TO.C,SW13*%
X134821260Y-79965060D02*
X138221260Y-79965060D01*
X134821260Y-82965060D02*
X134821260Y-79965060D01*
X138221260Y-79965060D02*
X138221260Y-82965060D01*
X138221260Y-82965060D02*
X134821260Y-82965060D01*
%TO.C,SW12*%
X220123148Y-204499611D02*
X222527311Y-206903774D01*
X218001827Y-206620932D02*
X220123148Y-204499611D01*
X222527311Y-206903774D02*
X220405990Y-209025095D01*
X220405990Y-209025095D02*
X218001827Y-206620932D01*
%TO.C,SW11*%
X115771260Y-158546310D02*
X119171260Y-158546310D01*
X115771260Y-161546310D02*
X115771260Y-158546310D01*
X119171260Y-158546310D02*
X119171260Y-161546310D01*
X119171260Y-161546310D02*
X115771260Y-161546310D01*
%TO.C,SW10*%
X119172460Y-142497460D02*
X115772460Y-142497460D01*
X115772460Y-142497460D02*
X115772460Y-139497460D01*
X119172460Y-139497460D02*
X119172460Y-142497460D01*
X115772460Y-139497460D02*
X119172460Y-139497460D01*
%TO.C,SW9*%
X115771260Y-120446310D02*
X119171260Y-120446310D01*
X115771260Y-123446310D02*
X115771260Y-120446310D01*
X119171260Y-120446310D02*
X119171260Y-123446310D01*
X119171260Y-123446310D02*
X115771260Y-123446310D01*
%TO.C,SW8*%
X119172460Y-104397460D02*
X115772460Y-104397460D01*
X115772460Y-104397460D02*
X115772460Y-101397460D01*
X119172460Y-101397460D02*
X119172460Y-104397460D01*
X115772460Y-101397460D02*
X119172460Y-101397460D01*
%TO.C,SW7*%
X115771260Y-82346310D02*
X119171260Y-82346310D01*
X115771260Y-85346310D02*
X115771260Y-82346310D01*
X119171260Y-82346310D02*
X119171260Y-85346310D01*
X119171260Y-85346310D02*
X115771260Y-85346310D01*
%TD*%
M02*
