%TF.GenerationSoftware,KiCad,Pcbnew,(5.1.8)-1*%
%TF.CreationDate,2022-07-09T15:07:12+10:00*%
%TF.ProjectId,ergonomic_split_left,6572676f-6e6f-46d6-9963-5f73706c6974,rev?*%
%TF.SameCoordinates,Original*%
%TF.FileFunction,Legend,Top*%
%TF.FilePolarity,Positive*%
%FSLAX46Y46*%
G04 Gerber Fmt 4.6, Leading zero omitted, Abs format (unit mm)*
G04 Created by KiCad (PCBNEW (5.1.8)-1) date 2022-07-09 15:07:12*
%MOMM*%
%LPD*%
G01*
G04 APERTURE LIST*
%ADD10C,0.200000*%
%ADD11C,0.300000*%
%ADD12C,0.150000*%
%ADD13C,0.120000*%
G04 APERTURE END LIST*
D10*
X122291780Y-59433460D02*
G75*
G03*
X122291780Y-59433460I-100000J0D01*
G01*
D11*
X186112925Y-74744742D02*
X185970068Y-74816171D01*
X185684354Y-74816171D01*
X185541497Y-74744742D01*
X185470068Y-74601885D01*
X185470068Y-74030457D01*
X185541497Y-73887600D01*
X185684354Y-73816171D01*
X185970068Y-73816171D01*
X186112925Y-73887600D01*
X186184354Y-74030457D01*
X186184354Y-74173314D01*
X185470068Y-74316171D01*
X186827211Y-74816171D02*
X186827211Y-73816171D01*
X186827211Y-74101885D02*
X186898640Y-73959028D01*
X186970068Y-73887600D01*
X187112925Y-73816171D01*
X187255782Y-73816171D01*
X188398640Y-73816171D02*
X188398640Y-75030457D01*
X188327211Y-75173314D01*
X188255782Y-75244742D01*
X188112925Y-75316171D01*
X187898640Y-75316171D01*
X187755782Y-75244742D01*
X188398640Y-74744742D02*
X188255782Y-74816171D01*
X187970068Y-74816171D01*
X187827211Y-74744742D01*
X187755782Y-74673314D01*
X187684354Y-74530457D01*
X187684354Y-74101885D01*
X187755782Y-73959028D01*
X187827211Y-73887600D01*
X187970068Y-73816171D01*
X188255782Y-73816171D01*
X188398640Y-73887600D01*
X189327211Y-74816171D02*
X189184354Y-74744742D01*
X189112925Y-74673314D01*
X189041497Y-74530457D01*
X189041497Y-74101885D01*
X189112925Y-73959028D01*
X189184354Y-73887600D01*
X189327211Y-73816171D01*
X189541497Y-73816171D01*
X189684354Y-73887600D01*
X189755782Y-73959028D01*
X189827211Y-74101885D01*
X189827211Y-74530457D01*
X189755782Y-74673314D01*
X189684354Y-74744742D01*
X189541497Y-74816171D01*
X189327211Y-74816171D01*
X190470068Y-73816171D02*
X190470068Y-74816171D01*
X190470068Y-73959028D02*
X190541497Y-73887600D01*
X190684354Y-73816171D01*
X190898640Y-73816171D01*
X191041497Y-73887600D01*
X191112925Y-74030457D01*
X191112925Y-74816171D01*
X192041497Y-74816171D02*
X191898640Y-74744742D01*
X191827211Y-74673314D01*
X191755782Y-74530457D01*
X191755782Y-74101885D01*
X191827211Y-73959028D01*
X191898640Y-73887600D01*
X192041497Y-73816171D01*
X192255782Y-73816171D01*
X192398640Y-73887600D01*
X192470068Y-73959028D01*
X192541497Y-74101885D01*
X192541497Y-74530457D01*
X192470068Y-74673314D01*
X192398640Y-74744742D01*
X192255782Y-74816171D01*
X192041497Y-74816171D01*
X193184354Y-74816171D02*
X193184354Y-73816171D01*
X193184354Y-73959028D02*
X193255782Y-73887600D01*
X193398640Y-73816171D01*
X193612925Y-73816171D01*
X193755782Y-73887600D01*
X193827211Y-74030457D01*
X193827211Y-74816171D01*
X193827211Y-74030457D02*
X193898640Y-73887600D01*
X194041497Y-73816171D01*
X194255782Y-73816171D01*
X194398640Y-73887600D01*
X194470068Y-74030457D01*
X194470068Y-74816171D01*
X195184354Y-74816171D02*
X195184354Y-73816171D01*
X195184354Y-73316171D02*
X195112925Y-73387600D01*
X195184354Y-73459028D01*
X195255782Y-73387600D01*
X195184354Y-73316171D01*
X195184354Y-73459028D01*
X196541497Y-74744742D02*
X196398640Y-74816171D01*
X196112925Y-74816171D01*
X195970068Y-74744742D01*
X195898640Y-74673314D01*
X195827211Y-74530457D01*
X195827211Y-74101885D01*
X195898640Y-73959028D01*
X195970068Y-73887600D01*
X196112925Y-73816171D01*
X196398640Y-73816171D01*
X196541497Y-73887600D01*
X198255782Y-74744742D02*
X198398640Y-74816171D01*
X198684354Y-74816171D01*
X198827211Y-74744742D01*
X198898640Y-74601885D01*
X198898640Y-74530457D01*
X198827211Y-74387600D01*
X198684354Y-74316171D01*
X198470068Y-74316171D01*
X198327211Y-74244742D01*
X198255782Y-74101885D01*
X198255782Y-74030457D01*
X198327211Y-73887600D01*
X198470068Y-73816171D01*
X198684354Y-73816171D01*
X198827211Y-73887600D01*
X199541497Y-73816171D02*
X199541497Y-75316171D01*
X199541497Y-73887600D02*
X199684354Y-73816171D01*
X199970068Y-73816171D01*
X200112925Y-73887600D01*
X200184354Y-73959028D01*
X200255782Y-74101885D01*
X200255782Y-74530457D01*
X200184354Y-74673314D01*
X200112925Y-74744742D01*
X199970068Y-74816171D01*
X199684354Y-74816171D01*
X199541497Y-74744742D01*
X201112925Y-74816171D02*
X200970068Y-74744742D01*
X200898640Y-74601885D01*
X200898640Y-73316171D01*
X201684354Y-74816171D02*
X201684354Y-73816171D01*
X201684354Y-73316171D02*
X201612925Y-73387600D01*
X201684354Y-73459028D01*
X201755782Y-73387600D01*
X201684354Y-73316171D01*
X201684354Y-73459028D01*
X202184354Y-73816171D02*
X202755782Y-73816171D01*
X202398640Y-73316171D02*
X202398640Y-74601885D01*
X202470068Y-74744742D01*
X202612925Y-74816171D01*
X202755782Y-74816171D01*
X204398640Y-74244742D02*
X205541497Y-74244742D01*
X207255782Y-73816171D02*
X207612925Y-74816171D01*
X207970068Y-73816171D01*
X208827211Y-73316171D02*
X208970068Y-73316171D01*
X209112925Y-73387600D01*
X209184354Y-73459028D01*
X209255782Y-73601885D01*
X209327211Y-73887600D01*
X209327211Y-74244742D01*
X209255782Y-74530457D01*
X209184354Y-74673314D01*
X209112925Y-74744742D01*
X208970068Y-74816171D01*
X208827211Y-74816171D01*
X208684354Y-74744742D01*
X208612925Y-74673314D01*
X208541497Y-74530457D01*
X208470068Y-74244742D01*
X208470068Y-73887600D01*
X208541497Y-73601885D01*
X208612925Y-73459028D01*
X208684354Y-73387600D01*
X208827211Y-73316171D01*
X188327211Y-76937600D02*
X189041497Y-76937600D01*
X188184354Y-77366171D02*
X188684354Y-75866171D01*
X189184354Y-77366171D01*
X189898640Y-77366171D02*
X189755782Y-77294742D01*
X189684354Y-77151885D01*
X189684354Y-75866171D01*
X191041497Y-77294742D02*
X190898640Y-77366171D01*
X190612925Y-77366171D01*
X190470068Y-77294742D01*
X190398640Y-77151885D01*
X190398640Y-76580457D01*
X190470068Y-76437600D01*
X190612925Y-76366171D01*
X190898640Y-76366171D01*
X191041497Y-76437600D01*
X191112925Y-76580457D01*
X191112925Y-76723314D01*
X190398640Y-76866171D01*
X191612925Y-77366171D02*
X192398640Y-76366171D01*
X191612925Y-76366171D02*
X192398640Y-77366171D01*
X194612925Y-76580457D02*
X194827211Y-76651885D01*
X194898640Y-76723314D01*
X194970068Y-76866171D01*
X194970068Y-77080457D01*
X194898640Y-77223314D01*
X194827211Y-77294742D01*
X194684354Y-77366171D01*
X194112925Y-77366171D01*
X194112925Y-75866171D01*
X194612925Y-75866171D01*
X194755782Y-75937600D01*
X194827211Y-76009028D01*
X194898640Y-76151885D01*
X194898640Y-76294742D01*
X194827211Y-76437600D01*
X194755782Y-76509028D01*
X194612925Y-76580457D01*
X194112925Y-76580457D01*
X195612925Y-77366171D02*
X195612925Y-76366171D01*
X195612925Y-75866171D02*
X195541497Y-75937600D01*
X195612925Y-76009028D01*
X195684354Y-75937600D01*
X195612925Y-75866171D01*
X195612925Y-76009028D01*
X196327211Y-76366171D02*
X196327211Y-77366171D01*
X196327211Y-76509028D02*
X196398640Y-76437600D01*
X196541497Y-76366171D01*
X196755782Y-76366171D01*
X196898640Y-76437600D01*
X196970068Y-76580457D01*
X196970068Y-77366171D01*
X197898640Y-77366171D02*
X197755782Y-77294742D01*
X197684354Y-77223314D01*
X197612925Y-77080457D01*
X197612925Y-76651885D01*
X197684354Y-76509028D01*
X197755782Y-76437600D01*
X197898640Y-76366171D01*
X198112925Y-76366171D01*
X198255782Y-76437600D01*
X198327211Y-76509028D01*
X198398640Y-76651885D01*
X198398640Y-77080457D01*
X198327211Y-77223314D01*
X198255782Y-77294742D01*
X198112925Y-77366171D01*
X197898640Y-77366171D01*
X198970068Y-77294742D02*
X199112925Y-77366171D01*
X199398640Y-77366171D01*
X199541497Y-77294742D01*
X199612925Y-77151885D01*
X199612925Y-77080457D01*
X199541497Y-76937600D01*
X199398640Y-76866171D01*
X199184354Y-76866171D01*
X199041497Y-76794742D01*
X198970068Y-76651885D01*
X198970068Y-76580457D01*
X199041497Y-76437600D01*
X199184354Y-76366171D01*
X199398640Y-76366171D01*
X199541497Y-76437600D01*
X201327211Y-76009028D02*
X201398640Y-75937600D01*
X201541497Y-75866171D01*
X201898640Y-75866171D01*
X202041497Y-75937600D01*
X202112925Y-76009028D01*
X202184354Y-76151885D01*
X202184354Y-76294742D01*
X202112925Y-76509028D01*
X201255782Y-77366171D01*
X202184354Y-77366171D01*
X203112925Y-75866171D02*
X203255782Y-75866171D01*
X203398640Y-75937600D01*
X203470068Y-76009028D01*
X203541497Y-76151885D01*
X203612925Y-76437600D01*
X203612925Y-76794742D01*
X203541497Y-77080457D01*
X203470068Y-77223314D01*
X203398640Y-77294742D01*
X203255782Y-77366171D01*
X203112925Y-77366171D01*
X202970068Y-77294742D01*
X202898640Y-77223314D01*
X202827211Y-77080457D01*
X202755782Y-76794742D01*
X202755782Y-76437600D01*
X202827211Y-76151885D01*
X202898640Y-76009028D01*
X202970068Y-75937600D01*
X203112925Y-75866171D01*
X204184354Y-76009028D02*
X204255782Y-75937600D01*
X204398640Y-75866171D01*
X204755782Y-75866171D01*
X204898640Y-75937600D01*
X204970068Y-76009028D01*
X205041497Y-76151885D01*
X205041497Y-76294742D01*
X204970068Y-76509028D01*
X204112925Y-77366171D01*
X205041497Y-77366171D01*
X205612925Y-76009028D02*
X205684354Y-75937600D01*
X205827211Y-75866171D01*
X206184354Y-75866171D01*
X206327211Y-75937600D01*
X206398640Y-76009028D01*
X206470068Y-76151885D01*
X206470068Y-76294742D01*
X206398640Y-76509028D01*
X205541497Y-77366171D01*
X206470068Y-77366171D01*
D10*
X106518380Y-65524380D02*
G75*
G03*
X106518380Y-65524380I-100000J0D01*
G01*
X137849280Y-66596260D02*
G75*
G03*
X137849280Y-66596260I-100000J0D01*
G01*
%TO.C,J5*%
X104138400Y-58540400D02*
G75*
G03*
X104138400Y-58540400I-100000J0D01*
G01*
D12*
%TO.C,U6*%
X137112555Y-66725800D02*
X136705969Y-66319214D01*
X129794000Y-74044355D02*
X129316703Y-73567058D01*
X122475445Y-66725800D02*
X122952742Y-67203097D01*
X129794000Y-59407245D02*
X130271297Y-59884542D01*
X137112555Y-66725800D02*
X136635258Y-67203097D01*
X129794000Y-59407245D02*
X129316703Y-59884542D01*
X122475445Y-66725800D02*
X122952742Y-66248503D01*
X129794000Y-74044355D02*
X130271297Y-73567058D01*
X136705969Y-66319214D02*
X137607530Y-65417652D01*
D13*
%TO.C,SW40*%
X187137930Y-64269000D02*
G75*
G03*
X187137930Y-64269000I-3000000J0D01*
G01*
X190037930Y-66269000D02*
X190037930Y-70369000D01*
X178237930Y-70369000D02*
X178237930Y-66269000D01*
X178237930Y-62269000D02*
X178237930Y-58169000D01*
X190037930Y-62269000D02*
X190037930Y-58169000D01*
X190037930Y-58169000D02*
X178237930Y-58169000D01*
X187937930Y-56769000D02*
X188237930Y-56469000D01*
X188237930Y-56469000D02*
X188237930Y-57069000D01*
X188237930Y-57069000D02*
X187937930Y-56769000D01*
X190037930Y-70369000D02*
X187637930Y-70369000D01*
X185437930Y-70369000D02*
X182837930Y-70369000D01*
X180637930Y-70369000D02*
X178237930Y-70369000D01*
X184637930Y-64269000D02*
X183637930Y-64269000D01*
X184137930Y-63769000D02*
X184137930Y-64769000D01*
%TO.C,R5*%
X149152342Y-61257920D02*
X149626858Y-61257920D01*
X149152342Y-62302920D02*
X149626858Y-62302920D01*
%TO.C,R6*%
X149965142Y-63832000D02*
X150439658Y-63832000D01*
X149965142Y-62787000D02*
X150439658Y-62787000D01*
%TO.C,J2*%
X210661250Y-64135000D02*
X211931250Y-64135000D01*
X210661250Y-65405000D02*
X210661250Y-64135000D01*
X212974179Y-73405000D02*
X213428321Y-73405000D01*
X212974179Y-72645000D02*
X213428321Y-72645000D01*
X215514179Y-73405000D02*
X215911250Y-73405000D01*
X215514179Y-72645000D02*
X215911250Y-72645000D01*
X224571250Y-73405000D02*
X218571250Y-73405000D01*
X224571250Y-72645000D02*
X224571250Y-73405000D01*
X218571250Y-72645000D02*
X224571250Y-72645000D01*
X215911250Y-71755000D02*
X218571250Y-71755000D01*
X212974179Y-70865000D02*
X213428321Y-70865000D01*
X212974179Y-70105000D02*
X213428321Y-70105000D01*
X215514179Y-70865000D02*
X215911250Y-70865000D01*
X215514179Y-70105000D02*
X215911250Y-70105000D01*
X224571250Y-70865000D02*
X218571250Y-70865000D01*
X224571250Y-70105000D02*
X224571250Y-70865000D01*
X218571250Y-70105000D02*
X224571250Y-70105000D01*
X215911250Y-69215000D02*
X218571250Y-69215000D01*
X212974179Y-68325000D02*
X213428321Y-68325000D01*
X212974179Y-67565000D02*
X213428321Y-67565000D01*
X215514179Y-68325000D02*
X215911250Y-68325000D01*
X215514179Y-67565000D02*
X215911250Y-67565000D01*
X224571250Y-68325000D02*
X218571250Y-68325000D01*
X224571250Y-67565000D02*
X224571250Y-68325000D01*
X218571250Y-67565000D02*
X224571250Y-67565000D01*
X215911250Y-66675000D02*
X218571250Y-66675000D01*
X213041250Y-65785000D02*
X213428321Y-65785000D01*
X213041250Y-65025000D02*
X213428321Y-65025000D01*
X215514179Y-65785000D02*
X215911250Y-65785000D01*
X215514179Y-65025000D02*
X215911250Y-65025000D01*
X218571250Y-65685000D02*
X224571250Y-65685000D01*
X218571250Y-65565000D02*
X224571250Y-65565000D01*
X218571250Y-65445000D02*
X224571250Y-65445000D01*
X218571250Y-65325000D02*
X224571250Y-65325000D01*
X218571250Y-65205000D02*
X224571250Y-65205000D01*
X218571250Y-65085000D02*
X224571250Y-65085000D01*
X224571250Y-65785000D02*
X218571250Y-65785000D01*
X224571250Y-65025000D02*
X224571250Y-65785000D01*
X218571250Y-65025000D02*
X224571250Y-65025000D01*
X218571250Y-64075000D02*
X215911250Y-64075000D01*
X218571250Y-74355000D02*
X218571250Y-64075000D01*
X215911250Y-74355000D02*
X218571250Y-74355000D01*
X215911250Y-64075000D02*
X215911250Y-74355000D01*
%TO.C,J3*%
X211222900Y-61477200D02*
X211222900Y-58817200D01*
X208622900Y-61477200D02*
X211222900Y-61477200D01*
X208622900Y-58817200D02*
X211222900Y-58817200D01*
X208622900Y-61477200D02*
X208622900Y-58817200D01*
X207352900Y-61477200D02*
X206022900Y-61477200D01*
X206022900Y-61477200D02*
X206022900Y-60147200D01*
%TO.C,SW6*%
X105421260Y-172096310D02*
X105421260Y-158096310D01*
X91421260Y-172096310D02*
X91421260Y-158096310D01*
X105421260Y-172096310D02*
X91421260Y-172096310D01*
X91421260Y-158096310D02*
X105421260Y-158096310D01*
%TO.C,C7*%
X109953520Y-64336540D02*
X109953520Y-64055380D01*
X108933520Y-64336540D02*
X108933520Y-64055380D01*
%TO.C,R15*%
X111313700Y-68264502D02*
X111313700Y-68739018D01*
X112358700Y-68264502D02*
X112358700Y-68739018D01*
%TO.C,R14*%
X112908820Y-67375502D02*
X112908820Y-67850018D01*
X113953820Y-67375502D02*
X113953820Y-67850018D01*
%TO.C,U2*%
X107062006Y-65252440D02*
X106213478Y-64403912D01*
X102677944Y-68363710D02*
X103314340Y-67727314D01*
X103314340Y-69000106D02*
X102677944Y-68363710D01*
X106425610Y-72111376D02*
X107062006Y-71474980D01*
X105789214Y-71474980D02*
X106425610Y-72111376D01*
X110173276Y-68363710D02*
X109536880Y-69000106D01*
X109536880Y-67727314D02*
X110173276Y-68363710D01*
%TO.C,R13*%
X104567258Y-64012340D02*
X104092742Y-64012340D01*
X104567258Y-62967340D02*
X104092742Y-62967340D01*
%TO.C,R12*%
X108421700Y-62150258D02*
X108421700Y-61675742D01*
X107376700Y-62150258D02*
X107376700Y-61675742D01*
%TO.C,R11*%
X110332933Y-71193860D02*
X110668466Y-71529393D01*
X111071860Y-70454933D02*
X111407393Y-70790466D01*
%TO.C,SW37*%
X205721260Y-148283810D02*
X205721260Y-134283810D01*
X219721260Y-148283810D02*
X219721260Y-134283810D01*
X219722460Y-148284960D02*
X205722460Y-148284960D01*
X219722460Y-134284960D02*
X205722460Y-134284960D01*
%TO.C,SW36*%
X205721260Y-119708810D02*
X205721260Y-105708810D01*
X219721260Y-119708810D02*
X219721260Y-105708810D01*
X219722460Y-119709960D02*
X205722460Y-119709960D01*
X219722460Y-105709960D02*
X205722460Y-105709960D01*
%TO.C,SW24*%
X186438695Y-176592448D02*
X196338190Y-166692953D01*
X206237685Y-176592448D02*
X196338190Y-186491943D01*
X196338155Y-186490281D02*
X186438660Y-176590786D01*
X196338155Y-166691291D02*
X206237650Y-176590786D01*
%TO.C,SW18*%
X199932445Y-190086198D02*
X209831940Y-180186703D01*
X219731435Y-190086198D02*
X209831940Y-199985693D01*
X209831905Y-199984031D02*
X199932410Y-190084536D01*
X209831905Y-180185041D02*
X219731400Y-190084536D01*
%TO.C,SW5*%
X86659960Y-153047460D02*
X86659960Y-139047460D01*
X100659960Y-153047460D02*
X86659960Y-153047460D01*
X100659960Y-153047460D02*
X100659960Y-139047460D01*
X86659960Y-139047460D02*
X100659960Y-139047460D01*
%TO.C,SW4*%
X100658760Y-133996310D02*
X86658760Y-133996310D01*
X86658760Y-133996310D02*
X86658760Y-119996310D01*
X100658760Y-133996310D02*
X100658760Y-119996310D01*
X86659960Y-119997460D02*
X100659960Y-119997460D01*
%TO.C,SW3*%
X86659960Y-114947460D02*
X86659960Y-100947460D01*
X100659960Y-114947460D02*
X86659960Y-114947460D01*
X100659960Y-114947460D02*
X100659960Y-100947460D01*
X86659960Y-100947460D02*
X100659960Y-100947460D01*
%TO.C,SW2*%
X100658760Y-95896310D02*
X86658760Y-95896310D01*
X86658760Y-95896310D02*
X86658760Y-81896310D01*
X100658760Y-95896310D02*
X100658760Y-81896310D01*
X86659960Y-81897460D02*
X100659960Y-81897460D01*
%TO.C,SW39*%
X219721260Y-95896310D02*
X219721260Y-81896310D01*
X205721260Y-95896310D02*
X205721260Y-81896310D01*
X219721260Y-95896310D02*
X205721260Y-95896310D01*
X205721260Y-81896310D02*
X219721260Y-81896310D01*
%TO.C,SW38*%
X243681215Y-193250491D02*
X253580710Y-183350996D01*
X233781720Y-183350996D02*
X243681215Y-173451501D01*
X243681215Y-193250491D02*
X233781720Y-183350996D01*
X243681215Y-173451501D02*
X253580710Y-183350996D01*
%TO.C,SW35*%
X230187465Y-179756741D02*
X240086960Y-169857246D01*
X220287970Y-169857246D02*
X230187465Y-159957751D01*
X230187465Y-179756741D02*
X220287970Y-169857246D01*
X230187465Y-159957751D02*
X240086960Y-169857246D01*
%TO.C,SW34*%
X200671260Y-153046310D02*
X200671260Y-139046310D01*
X186671260Y-153046310D02*
X186671260Y-139046310D01*
X200671260Y-153046310D02*
X186671260Y-153046310D01*
X186671260Y-139046310D02*
X200671260Y-139046310D01*
%TO.C,SW33*%
X200671260Y-133996310D02*
X200671260Y-119996310D01*
X186671260Y-133996310D02*
X186671260Y-119996310D01*
X200671260Y-133996310D02*
X186671260Y-133996310D01*
X186671260Y-119996310D02*
X200671260Y-119996310D01*
%TO.C,SW32*%
X200671260Y-114946310D02*
X200671260Y-100946310D01*
X186671260Y-114946310D02*
X186671260Y-100946310D01*
X200671260Y-114946310D02*
X186671260Y-114946310D01*
X186671260Y-100946310D02*
X200671260Y-100946310D01*
%TO.C,SW31*%
X200667520Y-95892620D02*
X200667520Y-81892620D01*
X186667520Y-95892620D02*
X186667520Y-81892620D01*
X200667520Y-95892620D02*
X186667520Y-95892620D01*
X186667520Y-81892620D02*
X200667520Y-81892620D01*
%TO.C,SW30*%
X230187430Y-206738987D02*
X240086925Y-196839492D01*
X220287935Y-196839492D02*
X230187430Y-186939997D01*
X230187430Y-206738987D02*
X220287935Y-196839492D01*
X230187430Y-186939997D02*
X240086925Y-196839492D01*
%TO.C,SW29*%
X181621260Y-169715060D02*
X181621260Y-155715060D01*
X167621260Y-169715060D02*
X167621260Y-155715060D01*
X181621260Y-169715060D02*
X167621260Y-169715060D01*
X167621260Y-155715060D02*
X181621260Y-155715060D01*
%TO.C,SW28*%
X181621260Y-150665060D02*
X181621260Y-136665060D01*
X167621260Y-150665060D02*
X167621260Y-136665060D01*
X181621260Y-150665060D02*
X167621260Y-150665060D01*
X167621260Y-136665060D02*
X181621260Y-136665060D01*
%TO.C,SW27*%
X181621260Y-131615060D02*
X181621260Y-117615060D01*
X167621260Y-131615060D02*
X167621260Y-117615060D01*
X181621260Y-131615060D02*
X167621260Y-131615060D01*
X167621260Y-117615060D02*
X181621260Y-117615060D01*
%TO.C,SW26*%
X181621260Y-112565060D02*
X181621260Y-98565060D01*
X167621260Y-112565060D02*
X167621260Y-98565060D01*
X181621260Y-112565060D02*
X167621260Y-112565060D01*
X167621260Y-98565060D02*
X181621260Y-98565060D01*
%TO.C,SW25*%
X181621260Y-93515060D02*
X181621260Y-79515060D01*
X167621260Y-93515060D02*
X167621260Y-79515060D01*
X181621260Y-93515060D02*
X167621260Y-93515060D01*
X167621260Y-79515060D02*
X181621260Y-79515060D01*
%TO.C,SW23*%
X162567520Y-167333810D02*
X162567520Y-153333810D01*
X148567520Y-167333810D02*
X148567520Y-153333810D01*
X162567520Y-167333810D02*
X148567520Y-167333810D01*
X148567520Y-153333810D02*
X162567520Y-153333810D01*
%TO.C,SW22*%
X162571260Y-148283810D02*
X162571260Y-134283810D01*
X148571260Y-148283810D02*
X148571260Y-134283810D01*
X162571260Y-148283810D02*
X148571260Y-148283810D01*
X148571260Y-134283810D02*
X162571260Y-134283810D01*
%TO.C,SW21*%
X162571260Y-129233810D02*
X162571260Y-115233810D01*
X148571260Y-129233810D02*
X148571260Y-115233810D01*
X162571260Y-129233810D02*
X148571260Y-129233810D01*
X148571260Y-115233810D02*
X162571260Y-115233810D01*
%TO.C,SW20*%
X162571260Y-110183810D02*
X162571260Y-96183810D01*
X148571260Y-110183810D02*
X148571260Y-96183810D01*
X162571260Y-110183810D02*
X148571260Y-110183810D01*
X148571260Y-96183810D02*
X162571260Y-96183810D01*
%TO.C,SW19*%
X162571260Y-91130120D02*
X162571260Y-77130120D01*
X148571260Y-91130120D02*
X148571260Y-77130120D01*
X162571260Y-91130120D02*
X148571260Y-91130120D01*
X148571260Y-77130120D02*
X162571260Y-77130120D01*
%TO.C,SW17*%
X143521260Y-169715060D02*
X143521260Y-155715060D01*
X129521260Y-169715060D02*
X129521260Y-155715060D01*
X143521260Y-169715060D02*
X129521260Y-169715060D01*
X129521260Y-155715060D02*
X143521260Y-155715060D01*
%TO.C,SW16*%
X143521260Y-150665060D02*
X143521260Y-136665060D01*
X129521260Y-150665060D02*
X129521260Y-136665060D01*
X143521260Y-150665060D02*
X129521260Y-150665060D01*
X129521260Y-136665060D02*
X143521260Y-136665060D01*
%TO.C,SW15*%
X143521260Y-131615060D02*
X143521260Y-117615060D01*
X129521260Y-131615060D02*
X129521260Y-117615060D01*
X143521260Y-131615060D02*
X129521260Y-131615060D01*
X129521260Y-117615060D02*
X143521260Y-117615060D01*
%TO.C,SW14*%
X143517520Y-112561370D02*
X143517520Y-98561370D01*
X129517520Y-112561370D02*
X129517520Y-98561370D01*
X143517520Y-112561370D02*
X129517520Y-112561370D01*
X129517520Y-98561370D02*
X143517520Y-98561370D01*
%TO.C,SW13*%
X143521260Y-93515060D02*
X143521260Y-79515060D01*
X129521260Y-93515060D02*
X129521260Y-79515060D01*
X143521260Y-93515060D02*
X129521260Y-93515060D01*
X129521260Y-79515060D02*
X143521260Y-79515060D01*
%TO.C,SW12*%
X216693680Y-220232737D02*
X226593175Y-210333242D01*
X206794185Y-210333242D02*
X216693680Y-200433747D01*
X216693680Y-220232737D02*
X206794185Y-210333242D01*
X216693680Y-200433747D02*
X226593175Y-210333242D01*
%TO.C,SW11*%
X124471260Y-172096310D02*
X124471260Y-158096310D01*
X110471260Y-172096310D02*
X110471260Y-158096310D01*
X124471260Y-172096310D02*
X110471260Y-172096310D01*
X110471260Y-158096310D02*
X124471260Y-158096310D01*
%TO.C,SW10*%
X124471260Y-153046310D02*
X124471260Y-139046310D01*
X110471260Y-153046310D02*
X110471260Y-139046310D01*
X124471260Y-153046310D02*
X110471260Y-153046310D01*
X110471260Y-139046310D02*
X124471260Y-139046310D01*
%TO.C,SW9*%
X124471260Y-133996310D02*
X124471260Y-119996310D01*
X110471260Y-133996310D02*
X110471260Y-119996310D01*
X124471260Y-133996310D02*
X110471260Y-133996310D01*
X110471260Y-119996310D02*
X124471260Y-119996310D01*
%TO.C,SW8*%
X124471260Y-114946310D02*
X124471260Y-100946310D01*
X110471260Y-114946310D02*
X110471260Y-100946310D01*
X124471260Y-114946310D02*
X110471260Y-114946310D01*
X110471260Y-100946310D02*
X124471260Y-100946310D01*
%TO.C,SW7*%
X124471260Y-95896310D02*
X124471260Y-81896310D01*
X110471260Y-95896310D02*
X110471260Y-81896310D01*
X124471260Y-95896310D02*
X110471260Y-95896310D01*
X110471260Y-81896310D02*
X124471260Y-81896310D01*
%TO.C,C120*%
X144718500Y-68263080D02*
X144718500Y-67981920D01*
X143698500Y-68263080D02*
X143698500Y-67981920D01*
%TO.C,C5*%
X147104980Y-66241200D02*
X146823820Y-66241200D01*
X147104980Y-67261200D02*
X146823820Y-67261200D01*
%TO.C,C1*%
X159112640Y-63893160D02*
X159393800Y-63893160D01*
X159112640Y-62873160D02*
X159393800Y-62873160D01*
%TO.C,C2*%
X159115180Y-61272960D02*
X159396340Y-61272960D01*
X159115180Y-62292960D02*
X159396340Y-62292960D01*
%TO.C,C3*%
X159170460Y-65782920D02*
X159451620Y-65782920D01*
X159170460Y-64762920D02*
X159451620Y-64762920D01*
%TO.C,C42*%
X120292400Y-60592580D02*
X120292400Y-60311420D01*
X121312400Y-60592580D02*
X121312400Y-60311420D01*
%TO.C,C43*%
X135165178Y-60150773D02*
X135363989Y-59951962D01*
X135886427Y-60872022D02*
X136085238Y-60673211D01*
%TO.C,C44*%
X121171280Y-70431120D02*
X120890120Y-70431120D01*
X121171280Y-69411120D02*
X120890120Y-69411120D01*
%TO.C,C45*%
X135089020Y-74170000D02*
X135370180Y-74170000D01*
X135089020Y-73150000D02*
X135370180Y-73150000D01*
%TO.C,C46*%
X138426427Y-63666022D02*
X138625238Y-63467211D01*
X137705178Y-62944773D02*
X137903989Y-62745962D01*
%TO.C,D194*%
X141085900Y-64775080D02*
X141085900Y-67060080D01*
X141085900Y-67060080D02*
X142555900Y-67060080D01*
X142555900Y-67060080D02*
X142555900Y-64775080D01*
%TO.C,FB3*%
X156191020Y-64647162D02*
X156191020Y-63847918D01*
X157311020Y-64647162D02*
X157311020Y-63847918D01*
%TO.C,J1*%
X160166800Y-51061600D02*
X150976800Y-51061600D01*
X160046800Y-60471600D02*
X151096800Y-60471600D01*
X150976800Y-53791600D02*
X150976800Y-51061600D01*
X160166800Y-53791600D02*
X160166800Y-51061600D01*
X150976800Y-57391600D02*
X150976800Y-56491600D01*
X160166800Y-57391600D02*
X160166800Y-56491600D01*
%TO.C,R3*%
X139749000Y-65339962D02*
X139749000Y-65814478D01*
X140794000Y-65339962D02*
X140794000Y-65814478D01*
%TO.C,R23*%
X125912467Y-73154340D02*
X125576934Y-72818807D01*
X125173540Y-73893267D02*
X124838007Y-73557734D01*
%TO.C,TP1*%
X86844100Y-66255900D02*
G75*
G03*
X86844100Y-66255900I-700000J0D01*
G01*
%TO.C,J5*%
D12*
X101088866Y-58172100D02*
X101088866Y-58886386D01*
X101041247Y-59029243D01*
X100946009Y-59124481D01*
X100803152Y-59172100D01*
X100707914Y-59172100D01*
X102041247Y-58172100D02*
X101565057Y-58172100D01*
X101517438Y-58648291D01*
X101565057Y-58600672D01*
X101660295Y-58553053D01*
X101898390Y-58553053D01*
X101993628Y-58600672D01*
X102041247Y-58648291D01*
X102088866Y-58743529D01*
X102088866Y-58981624D01*
X102041247Y-59076862D01*
X101993628Y-59124481D01*
X101898390Y-59172100D01*
X101660295Y-59172100D01*
X101565057Y-59124481D01*
X101517438Y-59076862D01*
%TO.C,U6*%
X137605626Y-67613922D02*
X138178046Y-68186342D01*
X138279061Y-68220014D01*
X138346405Y-68220014D01*
X138447420Y-68186342D01*
X138582107Y-68051655D01*
X138615779Y-67950640D01*
X138615779Y-67883296D01*
X138582107Y-67782281D01*
X138009687Y-67209861D01*
X138649451Y-66570098D02*
X138514764Y-66704785D01*
X138481092Y-66805800D01*
X138481092Y-66873144D01*
X138514764Y-67041503D01*
X138615779Y-67209861D01*
X138885153Y-67479235D01*
X138986168Y-67512907D01*
X139053512Y-67512907D01*
X139154527Y-67479235D01*
X139289214Y-67344548D01*
X139322886Y-67243533D01*
X139322886Y-67176190D01*
X139289214Y-67075174D01*
X139120855Y-66906816D01*
X139019840Y-66873144D01*
X138952496Y-66873144D01*
X138851481Y-66906816D01*
X138716794Y-67041503D01*
X138683122Y-67142518D01*
X138683122Y-67209861D01*
X138716794Y-67310877D01*
%TO.C,SW40*%
X190620876Y-59180361D02*
X190763733Y-59227980D01*
X191001828Y-59227980D01*
X191097066Y-59180361D01*
X191144685Y-59132742D01*
X191192304Y-59037504D01*
X191192304Y-58942266D01*
X191144685Y-58847028D01*
X191097066Y-58799409D01*
X191001828Y-58751790D01*
X190811352Y-58704171D01*
X190716114Y-58656552D01*
X190668495Y-58608933D01*
X190620876Y-58513695D01*
X190620876Y-58418457D01*
X190668495Y-58323219D01*
X190716114Y-58275600D01*
X190811352Y-58227980D01*
X191049447Y-58227980D01*
X191192304Y-58275600D01*
X191525638Y-58227980D02*
X191763733Y-59227980D01*
X191954209Y-58513695D01*
X192144685Y-59227980D01*
X192382780Y-58227980D01*
X193192304Y-58561314D02*
X193192304Y-59227980D01*
X192954209Y-58180361D02*
X192716114Y-58894647D01*
X193335161Y-58894647D01*
X193906590Y-58227980D02*
X194001828Y-58227980D01*
X194097066Y-58275600D01*
X194144685Y-58323219D01*
X194192304Y-58418457D01*
X194239923Y-58608933D01*
X194239923Y-58847028D01*
X194192304Y-59037504D01*
X194144685Y-59132742D01*
X194097066Y-59180361D01*
X194001828Y-59227980D01*
X193906590Y-59227980D01*
X193811352Y-59180361D01*
X193763733Y-59132742D01*
X193716114Y-59037504D01*
X193668495Y-58847028D01*
X193668495Y-58608933D01*
X193716114Y-58418457D01*
X193763733Y-58323219D01*
X193811352Y-58275600D01*
X193906590Y-58227980D01*
%TO.C,R5*%
X147610533Y-60828180D02*
X147277200Y-60351990D01*
X147039104Y-60828180D02*
X147039104Y-59828180D01*
X147420057Y-59828180D01*
X147515295Y-59875800D01*
X147562914Y-59923419D01*
X147610533Y-60018657D01*
X147610533Y-60161514D01*
X147562914Y-60256752D01*
X147515295Y-60304371D01*
X147420057Y-60351990D01*
X147039104Y-60351990D01*
X148515295Y-59828180D02*
X148039104Y-59828180D01*
X147991485Y-60304371D01*
X148039104Y-60256752D01*
X148134342Y-60209133D01*
X148372438Y-60209133D01*
X148467676Y-60256752D01*
X148515295Y-60304371D01*
X148562914Y-60399609D01*
X148562914Y-60637704D01*
X148515295Y-60732942D01*
X148467676Y-60780561D01*
X148372438Y-60828180D01*
X148134342Y-60828180D01*
X148039104Y-60780561D01*
X147991485Y-60732942D01*
%TO.C,L1*%
X153274733Y-64790580D02*
X152798542Y-64790580D01*
X152798542Y-63790580D01*
X154131876Y-64790580D02*
X153560447Y-64790580D01*
X153846161Y-64790580D02*
X153846161Y-63790580D01*
X153750923Y-63933438D01*
X153655685Y-64028676D01*
X153560447Y-64076295D01*
%TO.C,R6*%
X150048933Y-65120780D02*
X149715600Y-64644590D01*
X149477504Y-65120780D02*
X149477504Y-64120780D01*
X149858457Y-64120780D01*
X149953695Y-64168400D01*
X150001314Y-64216019D01*
X150048933Y-64311257D01*
X150048933Y-64454114D01*
X150001314Y-64549352D01*
X149953695Y-64596971D01*
X149858457Y-64644590D01*
X149477504Y-64644590D01*
X150906076Y-64120780D02*
X150715600Y-64120780D01*
X150620361Y-64168400D01*
X150572742Y-64216019D01*
X150477504Y-64358876D01*
X150429885Y-64549352D01*
X150429885Y-64930304D01*
X150477504Y-65025542D01*
X150525123Y-65073161D01*
X150620361Y-65120780D01*
X150810838Y-65120780D01*
X150906076Y-65073161D01*
X150953695Y-65025542D01*
X151001314Y-64930304D01*
X151001314Y-64692209D01*
X150953695Y-64596971D01*
X150906076Y-64549352D01*
X150810838Y-64501733D01*
X150620361Y-64501733D01*
X150525123Y-64549352D01*
X150477504Y-64596971D01*
X150429885Y-64692209D01*
%TO.C,J2*%
X217252916Y-62587380D02*
X217252916Y-63301666D01*
X217205297Y-63444523D01*
X217110059Y-63539761D01*
X216967202Y-63587380D01*
X216871964Y-63587380D01*
X217681488Y-62682619D02*
X217729107Y-62635000D01*
X217824345Y-62587380D01*
X218062440Y-62587380D01*
X218157678Y-62635000D01*
X218205297Y-62682619D01*
X218252916Y-62777857D01*
X218252916Y-62873095D01*
X218205297Y-63015952D01*
X217633869Y-63587380D01*
X218252916Y-63587380D01*
%TO.C,J3*%
X204689566Y-59599580D02*
X204689566Y-60313866D01*
X204641947Y-60456723D01*
X204546709Y-60551961D01*
X204403852Y-60599580D01*
X204308614Y-60599580D01*
X205070519Y-59599580D02*
X205689566Y-59599580D01*
X205356233Y-59980533D01*
X205499090Y-59980533D01*
X205594328Y-60028152D01*
X205641947Y-60075771D01*
X205689566Y-60171009D01*
X205689566Y-60409104D01*
X205641947Y-60504342D01*
X205594328Y-60551961D01*
X205499090Y-60599580D01*
X205213376Y-60599580D01*
X205118138Y-60551961D01*
X205070519Y-60504342D01*
%TO.C,SW6*%
X97091666Y-174011221D02*
X97234523Y-174058840D01*
X97472619Y-174058840D01*
X97567857Y-174011221D01*
X97615476Y-173963602D01*
X97663095Y-173868364D01*
X97663095Y-173773126D01*
X97615476Y-173677888D01*
X97567857Y-173630269D01*
X97472619Y-173582650D01*
X97282142Y-173535031D01*
X97186904Y-173487412D01*
X97139285Y-173439793D01*
X97091666Y-173344555D01*
X97091666Y-173249317D01*
X97139285Y-173154079D01*
X97186904Y-173106460D01*
X97282142Y-173058840D01*
X97520238Y-173058840D01*
X97663095Y-173106460D01*
X97996428Y-173058840D02*
X98234523Y-174058840D01*
X98425000Y-173344555D01*
X98615476Y-174058840D01*
X98853571Y-173058840D01*
X99663095Y-173058840D02*
X99472619Y-173058840D01*
X99377380Y-173106460D01*
X99329761Y-173154079D01*
X99234523Y-173296936D01*
X99186904Y-173487412D01*
X99186904Y-173868364D01*
X99234523Y-173963602D01*
X99282142Y-174011221D01*
X99377380Y-174058840D01*
X99567857Y-174058840D01*
X99663095Y-174011221D01*
X99710714Y-173963602D01*
X99758333Y-173868364D01*
X99758333Y-173630269D01*
X99710714Y-173535031D01*
X99663095Y-173487412D01*
X99567857Y-173439793D01*
X99377380Y-173439793D01*
X99282142Y-173487412D01*
X99234523Y-173535031D01*
X99186904Y-173630269D01*
%TO.C,C7*%
X111329742Y-63361866D02*
X111377361Y-63409485D01*
X111424980Y-63552342D01*
X111424980Y-63647580D01*
X111377361Y-63790438D01*
X111282123Y-63885676D01*
X111186885Y-63933295D01*
X110996409Y-63980914D01*
X110853552Y-63980914D01*
X110663076Y-63933295D01*
X110567838Y-63885676D01*
X110472600Y-63790438D01*
X110424980Y-63647580D01*
X110424980Y-63552342D01*
X110472600Y-63409485D01*
X110520219Y-63361866D01*
X110424980Y-63028533D02*
X110424980Y-62361866D01*
X111424980Y-62790438D01*
%TO.C,R15*%
X112339380Y-66200257D02*
X111863190Y-66533590D01*
X112339380Y-66771685D02*
X111339380Y-66771685D01*
X111339380Y-66390733D01*
X111387000Y-66295495D01*
X111434619Y-66247876D01*
X111529857Y-66200257D01*
X111672714Y-66200257D01*
X111767952Y-66247876D01*
X111815571Y-66295495D01*
X111863190Y-66390733D01*
X111863190Y-66771685D01*
X112339380Y-65247876D02*
X112339380Y-65819304D01*
X112339380Y-65533590D02*
X111339380Y-65533590D01*
X111482238Y-65628828D01*
X111577476Y-65724066D01*
X111625095Y-65819304D01*
X111339380Y-64343114D02*
X111339380Y-64819304D01*
X111815571Y-64866923D01*
X111767952Y-64819304D01*
X111720333Y-64724066D01*
X111720333Y-64485971D01*
X111767952Y-64390733D01*
X111815571Y-64343114D01*
X111910809Y-64295495D01*
X112148904Y-64295495D01*
X112244142Y-64343114D01*
X112291761Y-64390733D01*
X112339380Y-64485971D01*
X112339380Y-64724066D01*
X112291761Y-64819304D01*
X112244142Y-64866923D01*
%TO.C,R14*%
X115387380Y-68255617D02*
X114911190Y-68588950D01*
X115387380Y-68827045D02*
X114387380Y-68827045D01*
X114387380Y-68446093D01*
X114435000Y-68350855D01*
X114482619Y-68303236D01*
X114577857Y-68255617D01*
X114720714Y-68255617D01*
X114815952Y-68303236D01*
X114863571Y-68350855D01*
X114911190Y-68446093D01*
X114911190Y-68827045D01*
X115387380Y-67303236D02*
X115387380Y-67874664D01*
X115387380Y-67588950D02*
X114387380Y-67588950D01*
X114530238Y-67684188D01*
X114625476Y-67779426D01*
X114673095Y-67874664D01*
X114720714Y-66446093D02*
X115387380Y-66446093D01*
X114339761Y-66684188D02*
X115054047Y-66922283D01*
X115054047Y-66303236D01*
%TO.C,U2*%
X105156877Y-71692626D02*
X104584457Y-72265046D01*
X104550785Y-72366061D01*
X104550785Y-72433405D01*
X104584457Y-72534420D01*
X104719144Y-72669107D01*
X104820159Y-72702779D01*
X104887503Y-72702779D01*
X104988518Y-72669107D01*
X105560938Y-72096687D01*
X105796640Y-72467077D02*
X105863983Y-72467077D01*
X105964999Y-72500748D01*
X106133357Y-72669107D01*
X106167029Y-72770122D01*
X106167029Y-72837466D01*
X106133357Y-72938481D01*
X106066014Y-73005825D01*
X105931327Y-73073168D01*
X105123205Y-73073168D01*
X105560938Y-73510901D01*
%TO.C,R13*%
X103687142Y-65372220D02*
X103353809Y-64896030D01*
X103115714Y-65372220D02*
X103115714Y-64372220D01*
X103496666Y-64372220D01*
X103591904Y-64419840D01*
X103639523Y-64467459D01*
X103687142Y-64562697D01*
X103687142Y-64705554D01*
X103639523Y-64800792D01*
X103591904Y-64848411D01*
X103496666Y-64896030D01*
X103115714Y-64896030D01*
X104639523Y-65372220D02*
X104068095Y-65372220D01*
X104353809Y-65372220D02*
X104353809Y-64372220D01*
X104258571Y-64515078D01*
X104163333Y-64610316D01*
X104068095Y-64657935D01*
X104972857Y-64372220D02*
X105591904Y-64372220D01*
X105258571Y-64753173D01*
X105401428Y-64753173D01*
X105496666Y-64800792D01*
X105544285Y-64848411D01*
X105591904Y-64943649D01*
X105591904Y-65181744D01*
X105544285Y-65276982D01*
X105496666Y-65324601D01*
X105401428Y-65372220D01*
X105115714Y-65372220D01*
X105020476Y-65324601D01*
X104972857Y-65276982D01*
%TO.C,R12*%
X106921580Y-62555857D02*
X106445390Y-62889190D01*
X106921580Y-63127285D02*
X105921580Y-63127285D01*
X105921580Y-62746333D01*
X105969200Y-62651095D01*
X106016819Y-62603476D01*
X106112057Y-62555857D01*
X106254914Y-62555857D01*
X106350152Y-62603476D01*
X106397771Y-62651095D01*
X106445390Y-62746333D01*
X106445390Y-63127285D01*
X106921580Y-61603476D02*
X106921580Y-62174904D01*
X106921580Y-61889190D02*
X105921580Y-61889190D01*
X106064438Y-61984428D01*
X106159676Y-62079666D01*
X106207295Y-62174904D01*
X106016819Y-61222523D02*
X105969200Y-61174904D01*
X105921580Y-61079666D01*
X105921580Y-60841571D01*
X105969200Y-60746333D01*
X106016819Y-60698714D01*
X106112057Y-60651095D01*
X106207295Y-60651095D01*
X106350152Y-60698714D01*
X106921580Y-61270142D01*
X106921580Y-60651095D01*
%TO.C,R11*%
X112585749Y-71213912D02*
X112686764Y-70641493D01*
X112181688Y-70809851D02*
X112888795Y-70102745D01*
X113158169Y-70372119D01*
X113191841Y-70473134D01*
X113191841Y-70540477D01*
X113158169Y-70641493D01*
X113057154Y-70742508D01*
X112956138Y-70776180D01*
X112888795Y-70776180D01*
X112787780Y-70742508D01*
X112518406Y-70473134D01*
X113259184Y-71887348D02*
X112855123Y-71483287D01*
X113057154Y-71685317D02*
X113764261Y-70978210D01*
X113595902Y-71011882D01*
X113461215Y-71011882D01*
X113360200Y-70978210D01*
X113932619Y-72560783D02*
X113528558Y-72156722D01*
X113730589Y-72358752D02*
X114437696Y-71651645D01*
X114269337Y-71685317D01*
X114134650Y-71685317D01*
X114033635Y-71651645D01*
%TO.C,SW37*%
X210915476Y-150198721D02*
X211058333Y-150246340D01*
X211296428Y-150246340D01*
X211391666Y-150198721D01*
X211439285Y-150151102D01*
X211486904Y-150055864D01*
X211486904Y-149960626D01*
X211439285Y-149865388D01*
X211391666Y-149817769D01*
X211296428Y-149770150D01*
X211105952Y-149722531D01*
X211010714Y-149674912D01*
X210963095Y-149627293D01*
X210915476Y-149532055D01*
X210915476Y-149436817D01*
X210963095Y-149341579D01*
X211010714Y-149293960D01*
X211105952Y-149246340D01*
X211344047Y-149246340D01*
X211486904Y-149293960D01*
X211820238Y-149246340D02*
X212058333Y-150246340D01*
X212248809Y-149532055D01*
X212439285Y-150246340D01*
X212677380Y-149246340D01*
X212963095Y-149246340D02*
X213582142Y-149246340D01*
X213248809Y-149627293D01*
X213391666Y-149627293D01*
X213486904Y-149674912D01*
X213534523Y-149722531D01*
X213582142Y-149817769D01*
X213582142Y-150055864D01*
X213534523Y-150151102D01*
X213486904Y-150198721D01*
X213391666Y-150246340D01*
X213105952Y-150246340D01*
X213010714Y-150198721D01*
X212963095Y-150151102D01*
X213915476Y-149246340D02*
X214582142Y-149246340D01*
X214153571Y-150246340D01*
%TO.C,SW36*%
X210915476Y-121623721D02*
X211058333Y-121671340D01*
X211296428Y-121671340D01*
X211391666Y-121623721D01*
X211439285Y-121576102D01*
X211486904Y-121480864D01*
X211486904Y-121385626D01*
X211439285Y-121290388D01*
X211391666Y-121242769D01*
X211296428Y-121195150D01*
X211105952Y-121147531D01*
X211010714Y-121099912D01*
X210963095Y-121052293D01*
X210915476Y-120957055D01*
X210915476Y-120861817D01*
X210963095Y-120766579D01*
X211010714Y-120718960D01*
X211105952Y-120671340D01*
X211344047Y-120671340D01*
X211486904Y-120718960D01*
X211820238Y-120671340D02*
X212058333Y-121671340D01*
X212248809Y-120957055D01*
X212439285Y-121671340D01*
X212677380Y-120671340D01*
X212963095Y-120671340D02*
X213582142Y-120671340D01*
X213248809Y-121052293D01*
X213391666Y-121052293D01*
X213486904Y-121099912D01*
X213534523Y-121147531D01*
X213582142Y-121242769D01*
X213582142Y-121480864D01*
X213534523Y-121576102D01*
X213486904Y-121623721D01*
X213391666Y-121671340D01*
X213105952Y-121671340D01*
X213010714Y-121623721D01*
X212963095Y-121576102D01*
X214439285Y-120671340D02*
X214248809Y-120671340D01*
X214153571Y-120718960D01*
X214105952Y-120766579D01*
X214010714Y-120909436D01*
X213963095Y-121099912D01*
X213963095Y-121480864D01*
X214010714Y-121576102D01*
X214058333Y-121623721D01*
X214153571Y-121671340D01*
X214344047Y-121671340D01*
X214439285Y-121623721D01*
X214486904Y-121576102D01*
X214534523Y-121480864D01*
X214534523Y-121242769D01*
X214486904Y-121147531D01*
X214439285Y-121099912D01*
X214344047Y-121052293D01*
X214153571Y-121052293D01*
X214058333Y-121099912D01*
X214010714Y-121147531D01*
X213963095Y-121242769D01*
%TO.C,SW24*%
X188757477Y-181617699D02*
X188824821Y-181752386D01*
X188993179Y-181920745D01*
X189094195Y-181954416D01*
X189161538Y-181954416D01*
X189262553Y-181920745D01*
X189329897Y-181853401D01*
X189363569Y-181752386D01*
X189363569Y-181685042D01*
X189329897Y-181584027D01*
X189228882Y-181415668D01*
X189195210Y-181314653D01*
X189195210Y-181247310D01*
X189228882Y-181146294D01*
X189296225Y-181078951D01*
X189397240Y-181045279D01*
X189464584Y-181045279D01*
X189565599Y-181078951D01*
X189733958Y-181247310D01*
X189801301Y-181381997D01*
X190070675Y-181584027D02*
X189531927Y-182459493D01*
X190171691Y-182089103D01*
X189801301Y-182728867D01*
X190676767Y-182190119D01*
X190845126Y-182493164D02*
X190912469Y-182493164D01*
X191013484Y-182526836D01*
X191181843Y-182695195D01*
X191215515Y-182796210D01*
X191215515Y-182863554D01*
X191181843Y-182964569D01*
X191114500Y-183031912D01*
X190979813Y-183099256D01*
X190171691Y-183099256D01*
X190609423Y-183536989D01*
X191686919Y-183671676D02*
X191215515Y-184143080D01*
X191787935Y-183233943D02*
X191114500Y-183570660D01*
X191552232Y-184008393D01*
%TO.C,SW18*%
X202251227Y-195111449D02*
X202318571Y-195246136D01*
X202486929Y-195414495D01*
X202587945Y-195448166D01*
X202655288Y-195448166D01*
X202756303Y-195414495D01*
X202823647Y-195347151D01*
X202857319Y-195246136D01*
X202857319Y-195178792D01*
X202823647Y-195077777D01*
X202722632Y-194909418D01*
X202688960Y-194808403D01*
X202688960Y-194741060D01*
X202722632Y-194640044D01*
X202789975Y-194572701D01*
X202890990Y-194539029D01*
X202958334Y-194539029D01*
X203059349Y-194572701D01*
X203227708Y-194741060D01*
X203295051Y-194875747D01*
X203564425Y-195077777D02*
X203025677Y-195953243D01*
X203665441Y-195582853D01*
X203295051Y-196222617D01*
X204170517Y-195683869D01*
X204103173Y-197030739D02*
X203699112Y-196626678D01*
X203901143Y-196828708D02*
X204608250Y-196121601D01*
X204439891Y-196155273D01*
X204305204Y-196155273D01*
X204204189Y-196121601D01*
X204911295Y-197030739D02*
X204877624Y-196929723D01*
X204877624Y-196862380D01*
X204911295Y-196761365D01*
X204944967Y-196727693D01*
X205045982Y-196694021D01*
X205113326Y-196694021D01*
X205214341Y-196727693D01*
X205349028Y-196862380D01*
X205382700Y-196963395D01*
X205382700Y-197030739D01*
X205349028Y-197131754D01*
X205315356Y-197165426D01*
X205214341Y-197199097D01*
X205146998Y-197199097D01*
X205045982Y-197165426D01*
X204911295Y-197030739D01*
X204810280Y-196997067D01*
X204742937Y-196997067D01*
X204641921Y-197030739D01*
X204507234Y-197165426D01*
X204473563Y-197266441D01*
X204473563Y-197333784D01*
X204507234Y-197434800D01*
X204641921Y-197569487D01*
X204742937Y-197603158D01*
X204810280Y-197603158D01*
X204911295Y-197569487D01*
X205045982Y-197434800D01*
X205079654Y-197333784D01*
X205079654Y-197266441D01*
X205045982Y-197165426D01*
%TO.C,SW5*%
X92329166Y-154961221D02*
X92472023Y-155008840D01*
X92710119Y-155008840D01*
X92805357Y-154961221D01*
X92852976Y-154913602D01*
X92900595Y-154818364D01*
X92900595Y-154723126D01*
X92852976Y-154627888D01*
X92805357Y-154580269D01*
X92710119Y-154532650D01*
X92519642Y-154485031D01*
X92424404Y-154437412D01*
X92376785Y-154389793D01*
X92329166Y-154294555D01*
X92329166Y-154199317D01*
X92376785Y-154104079D01*
X92424404Y-154056460D01*
X92519642Y-154008840D01*
X92757738Y-154008840D01*
X92900595Y-154056460D01*
X93233928Y-154008840D02*
X93472023Y-155008840D01*
X93662500Y-154294555D01*
X93852976Y-155008840D01*
X94091071Y-154008840D01*
X94948214Y-154008840D02*
X94472023Y-154008840D01*
X94424404Y-154485031D01*
X94472023Y-154437412D01*
X94567261Y-154389793D01*
X94805357Y-154389793D01*
X94900595Y-154437412D01*
X94948214Y-154485031D01*
X94995833Y-154580269D01*
X94995833Y-154818364D01*
X94948214Y-154913602D01*
X94900595Y-154961221D01*
X94805357Y-155008840D01*
X94567261Y-155008840D01*
X94472023Y-154961221D01*
X94424404Y-154913602D01*
%TO.C,SW4*%
X92329166Y-135911221D02*
X92472023Y-135958840D01*
X92710119Y-135958840D01*
X92805357Y-135911221D01*
X92852976Y-135863602D01*
X92900595Y-135768364D01*
X92900595Y-135673126D01*
X92852976Y-135577888D01*
X92805357Y-135530269D01*
X92710119Y-135482650D01*
X92519642Y-135435031D01*
X92424404Y-135387412D01*
X92376785Y-135339793D01*
X92329166Y-135244555D01*
X92329166Y-135149317D01*
X92376785Y-135054079D01*
X92424404Y-135006460D01*
X92519642Y-134958840D01*
X92757738Y-134958840D01*
X92900595Y-135006460D01*
X93233928Y-134958840D02*
X93472023Y-135958840D01*
X93662500Y-135244555D01*
X93852976Y-135958840D01*
X94091071Y-134958840D01*
X94900595Y-135292174D02*
X94900595Y-135958840D01*
X94662500Y-134911221D02*
X94424404Y-135625507D01*
X95043452Y-135625507D01*
%TO.C,SW3*%
X92329166Y-116861221D02*
X92472023Y-116908840D01*
X92710119Y-116908840D01*
X92805357Y-116861221D01*
X92852976Y-116813602D01*
X92900595Y-116718364D01*
X92900595Y-116623126D01*
X92852976Y-116527888D01*
X92805357Y-116480269D01*
X92710119Y-116432650D01*
X92519642Y-116385031D01*
X92424404Y-116337412D01*
X92376785Y-116289793D01*
X92329166Y-116194555D01*
X92329166Y-116099317D01*
X92376785Y-116004079D01*
X92424404Y-115956460D01*
X92519642Y-115908840D01*
X92757738Y-115908840D01*
X92900595Y-115956460D01*
X93233928Y-115908840D02*
X93472023Y-116908840D01*
X93662500Y-116194555D01*
X93852976Y-116908840D01*
X94091071Y-115908840D01*
X94376785Y-115908840D02*
X94995833Y-115908840D01*
X94662500Y-116289793D01*
X94805357Y-116289793D01*
X94900595Y-116337412D01*
X94948214Y-116385031D01*
X94995833Y-116480269D01*
X94995833Y-116718364D01*
X94948214Y-116813602D01*
X94900595Y-116861221D01*
X94805357Y-116908840D01*
X94519642Y-116908840D01*
X94424404Y-116861221D01*
X94376785Y-116813602D01*
%TO.C,SW2*%
X92329166Y-97811221D02*
X92472023Y-97858840D01*
X92710119Y-97858840D01*
X92805357Y-97811221D01*
X92852976Y-97763602D01*
X92900595Y-97668364D01*
X92900595Y-97573126D01*
X92852976Y-97477888D01*
X92805357Y-97430269D01*
X92710119Y-97382650D01*
X92519642Y-97335031D01*
X92424404Y-97287412D01*
X92376785Y-97239793D01*
X92329166Y-97144555D01*
X92329166Y-97049317D01*
X92376785Y-96954079D01*
X92424404Y-96906460D01*
X92519642Y-96858840D01*
X92757738Y-96858840D01*
X92900595Y-96906460D01*
X93233928Y-96858840D02*
X93472023Y-97858840D01*
X93662500Y-97144555D01*
X93852976Y-97858840D01*
X94091071Y-96858840D01*
X94424404Y-96954079D02*
X94472023Y-96906460D01*
X94567261Y-96858840D01*
X94805357Y-96858840D01*
X94900595Y-96906460D01*
X94948214Y-96954079D01*
X94995833Y-97049317D01*
X94995833Y-97144555D01*
X94948214Y-97287412D01*
X94376785Y-97858840D01*
X94995833Y-97858840D01*
%TO.C,SW39*%
X210915476Y-97811221D02*
X211058333Y-97858840D01*
X211296428Y-97858840D01*
X211391666Y-97811221D01*
X211439285Y-97763602D01*
X211486904Y-97668364D01*
X211486904Y-97573126D01*
X211439285Y-97477888D01*
X211391666Y-97430269D01*
X211296428Y-97382650D01*
X211105952Y-97335031D01*
X211010714Y-97287412D01*
X210963095Y-97239793D01*
X210915476Y-97144555D01*
X210915476Y-97049317D01*
X210963095Y-96954079D01*
X211010714Y-96906460D01*
X211105952Y-96858840D01*
X211344047Y-96858840D01*
X211486904Y-96906460D01*
X211820238Y-96858840D02*
X212058333Y-97858840D01*
X212248809Y-97144555D01*
X212439285Y-97858840D01*
X212677380Y-96858840D01*
X212963095Y-96858840D02*
X213582142Y-96858840D01*
X213248809Y-97239793D01*
X213391666Y-97239793D01*
X213486904Y-97287412D01*
X213534523Y-97335031D01*
X213582142Y-97430269D01*
X213582142Y-97668364D01*
X213534523Y-97763602D01*
X213486904Y-97811221D01*
X213391666Y-97858840D01*
X213105952Y-97858840D01*
X213010714Y-97811221D01*
X212963095Y-97763602D01*
X214058333Y-97858840D02*
X214248809Y-97858840D01*
X214344047Y-97811221D01*
X214391666Y-97763602D01*
X214486904Y-97620745D01*
X214534523Y-97430269D01*
X214534523Y-97049317D01*
X214486904Y-96954079D01*
X214439285Y-96906460D01*
X214344047Y-96858840D01*
X214153571Y-96858840D01*
X214058333Y-96906460D01*
X214010714Y-96954079D01*
X213963095Y-97049317D01*
X213963095Y-97287412D01*
X214010714Y-97382650D01*
X214058333Y-97430269D01*
X214153571Y-97477888D01*
X214344047Y-97477888D01*
X214439285Y-97430269D01*
X214486904Y-97382650D01*
X214534523Y-97287412D01*
%TO.C,SW38*%
X236100537Y-188377909D02*
X236167881Y-188512596D01*
X236336239Y-188680955D01*
X236437255Y-188714626D01*
X236504598Y-188714626D01*
X236605613Y-188680955D01*
X236672957Y-188613611D01*
X236706629Y-188512596D01*
X236706629Y-188445252D01*
X236672957Y-188344237D01*
X236571942Y-188175878D01*
X236538270Y-188074863D01*
X236538270Y-188007520D01*
X236571942Y-187906504D01*
X236639285Y-187839161D01*
X236740300Y-187805489D01*
X236807644Y-187805489D01*
X236908659Y-187839161D01*
X237077018Y-188007520D01*
X237144361Y-188142207D01*
X237413735Y-188344237D02*
X236874987Y-189219703D01*
X237514751Y-188849313D01*
X237144361Y-189489077D01*
X238019827Y-188950329D01*
X238221857Y-189152359D02*
X238659590Y-189590092D01*
X238154514Y-189623764D01*
X238255529Y-189724779D01*
X238289201Y-189825794D01*
X238289201Y-189893138D01*
X238255529Y-189994153D01*
X238087170Y-190162512D01*
X237986155Y-190196183D01*
X237918812Y-190196183D01*
X237817796Y-190162512D01*
X237615766Y-189960481D01*
X237582094Y-189859466D01*
X237582094Y-189792122D01*
X238760605Y-190297199D02*
X238726934Y-190196183D01*
X238726934Y-190128840D01*
X238760605Y-190027825D01*
X238794277Y-189994153D01*
X238895292Y-189960481D01*
X238962636Y-189960481D01*
X239063651Y-189994153D01*
X239198338Y-190128840D01*
X239232010Y-190229855D01*
X239232010Y-190297199D01*
X239198338Y-190398214D01*
X239164666Y-190431886D01*
X239063651Y-190465557D01*
X238996308Y-190465557D01*
X238895292Y-190431886D01*
X238760605Y-190297199D01*
X238659590Y-190263527D01*
X238592247Y-190263527D01*
X238491231Y-190297199D01*
X238356544Y-190431886D01*
X238322873Y-190532901D01*
X238322873Y-190600244D01*
X238356544Y-190701260D01*
X238491231Y-190835947D01*
X238592247Y-190869618D01*
X238659590Y-190869618D01*
X238760605Y-190835947D01*
X238895292Y-190701260D01*
X238928964Y-190600244D01*
X238928964Y-190532901D01*
X238895292Y-190431886D01*
%TO.C,SW35*%
X222606787Y-174884159D02*
X222674131Y-175018846D01*
X222842489Y-175187205D01*
X222943505Y-175220876D01*
X223010848Y-175220876D01*
X223111863Y-175187205D01*
X223179207Y-175119861D01*
X223212879Y-175018846D01*
X223212879Y-174951502D01*
X223179207Y-174850487D01*
X223078192Y-174682128D01*
X223044520Y-174581113D01*
X223044520Y-174513770D01*
X223078192Y-174412754D01*
X223145535Y-174345411D01*
X223246550Y-174311739D01*
X223313894Y-174311739D01*
X223414909Y-174345411D01*
X223583268Y-174513770D01*
X223650611Y-174648457D01*
X223919985Y-174850487D02*
X223381237Y-175725953D01*
X224021001Y-175355563D01*
X223650611Y-175995327D01*
X224526077Y-175456579D01*
X224728107Y-175658609D02*
X225165840Y-176096342D01*
X224660764Y-176130014D01*
X224761779Y-176231029D01*
X224795451Y-176332044D01*
X224795451Y-176399388D01*
X224761779Y-176500403D01*
X224593420Y-176668762D01*
X224492405Y-176702433D01*
X224425062Y-176702433D01*
X224324046Y-176668762D01*
X224122016Y-176466731D01*
X224088344Y-176365716D01*
X224088344Y-176298372D01*
X225805603Y-176736105D02*
X225468886Y-176399388D01*
X225098497Y-176702433D01*
X225165840Y-176702433D01*
X225266855Y-176736105D01*
X225435214Y-176904464D01*
X225468886Y-177005479D01*
X225468886Y-177072823D01*
X225435214Y-177173838D01*
X225266855Y-177342197D01*
X225165840Y-177375868D01*
X225098497Y-177375868D01*
X224997481Y-177342197D01*
X224829123Y-177173838D01*
X224795451Y-177072823D01*
X224795451Y-177005479D01*
%TO.C,SW34*%
X191865476Y-154961221D02*
X192008333Y-155008840D01*
X192246428Y-155008840D01*
X192341666Y-154961221D01*
X192389285Y-154913602D01*
X192436904Y-154818364D01*
X192436904Y-154723126D01*
X192389285Y-154627888D01*
X192341666Y-154580269D01*
X192246428Y-154532650D01*
X192055952Y-154485031D01*
X191960714Y-154437412D01*
X191913095Y-154389793D01*
X191865476Y-154294555D01*
X191865476Y-154199317D01*
X191913095Y-154104079D01*
X191960714Y-154056460D01*
X192055952Y-154008840D01*
X192294047Y-154008840D01*
X192436904Y-154056460D01*
X192770238Y-154008840D02*
X193008333Y-155008840D01*
X193198809Y-154294555D01*
X193389285Y-155008840D01*
X193627380Y-154008840D01*
X193913095Y-154008840D02*
X194532142Y-154008840D01*
X194198809Y-154389793D01*
X194341666Y-154389793D01*
X194436904Y-154437412D01*
X194484523Y-154485031D01*
X194532142Y-154580269D01*
X194532142Y-154818364D01*
X194484523Y-154913602D01*
X194436904Y-154961221D01*
X194341666Y-155008840D01*
X194055952Y-155008840D01*
X193960714Y-154961221D01*
X193913095Y-154913602D01*
X195389285Y-154342174D02*
X195389285Y-155008840D01*
X195151190Y-153961221D02*
X194913095Y-154675507D01*
X195532142Y-154675507D01*
%TO.C,SW33*%
X191865476Y-135911221D02*
X192008333Y-135958840D01*
X192246428Y-135958840D01*
X192341666Y-135911221D01*
X192389285Y-135863602D01*
X192436904Y-135768364D01*
X192436904Y-135673126D01*
X192389285Y-135577888D01*
X192341666Y-135530269D01*
X192246428Y-135482650D01*
X192055952Y-135435031D01*
X191960714Y-135387412D01*
X191913095Y-135339793D01*
X191865476Y-135244555D01*
X191865476Y-135149317D01*
X191913095Y-135054079D01*
X191960714Y-135006460D01*
X192055952Y-134958840D01*
X192294047Y-134958840D01*
X192436904Y-135006460D01*
X192770238Y-134958840D02*
X193008333Y-135958840D01*
X193198809Y-135244555D01*
X193389285Y-135958840D01*
X193627380Y-134958840D01*
X193913095Y-134958840D02*
X194532142Y-134958840D01*
X194198809Y-135339793D01*
X194341666Y-135339793D01*
X194436904Y-135387412D01*
X194484523Y-135435031D01*
X194532142Y-135530269D01*
X194532142Y-135768364D01*
X194484523Y-135863602D01*
X194436904Y-135911221D01*
X194341666Y-135958840D01*
X194055952Y-135958840D01*
X193960714Y-135911221D01*
X193913095Y-135863602D01*
X194865476Y-134958840D02*
X195484523Y-134958840D01*
X195151190Y-135339793D01*
X195294047Y-135339793D01*
X195389285Y-135387412D01*
X195436904Y-135435031D01*
X195484523Y-135530269D01*
X195484523Y-135768364D01*
X195436904Y-135863602D01*
X195389285Y-135911221D01*
X195294047Y-135958840D01*
X195008333Y-135958840D01*
X194913095Y-135911221D01*
X194865476Y-135863602D01*
%TO.C,SW32*%
X191865476Y-116861221D02*
X192008333Y-116908840D01*
X192246428Y-116908840D01*
X192341666Y-116861221D01*
X192389285Y-116813602D01*
X192436904Y-116718364D01*
X192436904Y-116623126D01*
X192389285Y-116527888D01*
X192341666Y-116480269D01*
X192246428Y-116432650D01*
X192055952Y-116385031D01*
X191960714Y-116337412D01*
X191913095Y-116289793D01*
X191865476Y-116194555D01*
X191865476Y-116099317D01*
X191913095Y-116004079D01*
X191960714Y-115956460D01*
X192055952Y-115908840D01*
X192294047Y-115908840D01*
X192436904Y-115956460D01*
X192770238Y-115908840D02*
X193008333Y-116908840D01*
X193198809Y-116194555D01*
X193389285Y-116908840D01*
X193627380Y-115908840D01*
X193913095Y-115908840D02*
X194532142Y-115908840D01*
X194198809Y-116289793D01*
X194341666Y-116289793D01*
X194436904Y-116337412D01*
X194484523Y-116385031D01*
X194532142Y-116480269D01*
X194532142Y-116718364D01*
X194484523Y-116813602D01*
X194436904Y-116861221D01*
X194341666Y-116908840D01*
X194055952Y-116908840D01*
X193960714Y-116861221D01*
X193913095Y-116813602D01*
X194913095Y-116004079D02*
X194960714Y-115956460D01*
X195055952Y-115908840D01*
X195294047Y-115908840D01*
X195389285Y-115956460D01*
X195436904Y-116004079D01*
X195484523Y-116099317D01*
X195484523Y-116194555D01*
X195436904Y-116337412D01*
X194865476Y-116908840D01*
X195484523Y-116908840D01*
%TO.C,SW31*%
X191861736Y-97807531D02*
X192004593Y-97855150D01*
X192242688Y-97855150D01*
X192337926Y-97807531D01*
X192385545Y-97759912D01*
X192433164Y-97664674D01*
X192433164Y-97569436D01*
X192385545Y-97474198D01*
X192337926Y-97426579D01*
X192242688Y-97378960D01*
X192052212Y-97331341D01*
X191956974Y-97283722D01*
X191909355Y-97236103D01*
X191861736Y-97140865D01*
X191861736Y-97045627D01*
X191909355Y-96950389D01*
X191956974Y-96902770D01*
X192052212Y-96855150D01*
X192290307Y-96855150D01*
X192433164Y-96902770D01*
X192766498Y-96855150D02*
X193004593Y-97855150D01*
X193195069Y-97140865D01*
X193385545Y-97855150D01*
X193623640Y-96855150D01*
X193909355Y-96855150D02*
X194528402Y-96855150D01*
X194195069Y-97236103D01*
X194337926Y-97236103D01*
X194433164Y-97283722D01*
X194480783Y-97331341D01*
X194528402Y-97426579D01*
X194528402Y-97664674D01*
X194480783Y-97759912D01*
X194433164Y-97807531D01*
X194337926Y-97855150D01*
X194052212Y-97855150D01*
X193956974Y-97807531D01*
X193909355Y-97759912D01*
X195480783Y-97855150D02*
X194909355Y-97855150D01*
X195195069Y-97855150D02*
X195195069Y-96855150D01*
X195099831Y-96998008D01*
X195004593Y-97093246D01*
X194909355Y-97140865D01*
%TO.C,SW30*%
X222606752Y-201866405D02*
X222674096Y-202001092D01*
X222842454Y-202169451D01*
X222943470Y-202203122D01*
X223010813Y-202203122D01*
X223111828Y-202169451D01*
X223179172Y-202102107D01*
X223212844Y-202001092D01*
X223212844Y-201933748D01*
X223179172Y-201832733D01*
X223078157Y-201664374D01*
X223044485Y-201563359D01*
X223044485Y-201496016D01*
X223078157Y-201395000D01*
X223145500Y-201327657D01*
X223246515Y-201293985D01*
X223313859Y-201293985D01*
X223414874Y-201327657D01*
X223583233Y-201496016D01*
X223650576Y-201630703D01*
X223919950Y-201832733D02*
X223381202Y-202708199D01*
X224020966Y-202337809D01*
X223650576Y-202977573D01*
X224526042Y-202438825D01*
X224728072Y-202640855D02*
X225165805Y-203078588D01*
X224660729Y-203112260D01*
X224761744Y-203213275D01*
X224795416Y-203314290D01*
X224795416Y-203381634D01*
X224761744Y-203482649D01*
X224593385Y-203651008D01*
X224492370Y-203684679D01*
X224425027Y-203684679D01*
X224324011Y-203651008D01*
X224121981Y-203448977D01*
X224088309Y-203347962D01*
X224088309Y-203280618D01*
X225603538Y-203516321D02*
X225670881Y-203583664D01*
X225704553Y-203684679D01*
X225704553Y-203752023D01*
X225670881Y-203853038D01*
X225569866Y-204021397D01*
X225401507Y-204189756D01*
X225233149Y-204290771D01*
X225132133Y-204324443D01*
X225064790Y-204324443D01*
X224963775Y-204290771D01*
X224896431Y-204223427D01*
X224862759Y-204122412D01*
X224862759Y-204055069D01*
X224896431Y-203954053D01*
X224997446Y-203785695D01*
X225165805Y-203617336D01*
X225334164Y-203516321D01*
X225435179Y-203482649D01*
X225502523Y-203482649D01*
X225603538Y-203516321D01*
%TO.C,SW29*%
X172815476Y-171629971D02*
X172958333Y-171677590D01*
X173196428Y-171677590D01*
X173291666Y-171629971D01*
X173339285Y-171582352D01*
X173386904Y-171487114D01*
X173386904Y-171391876D01*
X173339285Y-171296638D01*
X173291666Y-171249019D01*
X173196428Y-171201400D01*
X173005952Y-171153781D01*
X172910714Y-171106162D01*
X172863095Y-171058543D01*
X172815476Y-170963305D01*
X172815476Y-170868067D01*
X172863095Y-170772829D01*
X172910714Y-170725210D01*
X173005952Y-170677590D01*
X173244047Y-170677590D01*
X173386904Y-170725210D01*
X173720238Y-170677590D02*
X173958333Y-171677590D01*
X174148809Y-170963305D01*
X174339285Y-171677590D01*
X174577380Y-170677590D01*
X174910714Y-170772829D02*
X174958333Y-170725210D01*
X175053571Y-170677590D01*
X175291666Y-170677590D01*
X175386904Y-170725210D01*
X175434523Y-170772829D01*
X175482142Y-170868067D01*
X175482142Y-170963305D01*
X175434523Y-171106162D01*
X174863095Y-171677590D01*
X175482142Y-171677590D01*
X175958333Y-171677590D02*
X176148809Y-171677590D01*
X176244047Y-171629971D01*
X176291666Y-171582352D01*
X176386904Y-171439495D01*
X176434523Y-171249019D01*
X176434523Y-170868067D01*
X176386904Y-170772829D01*
X176339285Y-170725210D01*
X176244047Y-170677590D01*
X176053571Y-170677590D01*
X175958333Y-170725210D01*
X175910714Y-170772829D01*
X175863095Y-170868067D01*
X175863095Y-171106162D01*
X175910714Y-171201400D01*
X175958333Y-171249019D01*
X176053571Y-171296638D01*
X176244047Y-171296638D01*
X176339285Y-171249019D01*
X176386904Y-171201400D01*
X176434523Y-171106162D01*
%TO.C,SW28*%
X172815476Y-152579971D02*
X172958333Y-152627590D01*
X173196428Y-152627590D01*
X173291666Y-152579971D01*
X173339285Y-152532352D01*
X173386904Y-152437114D01*
X173386904Y-152341876D01*
X173339285Y-152246638D01*
X173291666Y-152199019D01*
X173196428Y-152151400D01*
X173005952Y-152103781D01*
X172910714Y-152056162D01*
X172863095Y-152008543D01*
X172815476Y-151913305D01*
X172815476Y-151818067D01*
X172863095Y-151722829D01*
X172910714Y-151675210D01*
X173005952Y-151627590D01*
X173244047Y-151627590D01*
X173386904Y-151675210D01*
X173720238Y-151627590D02*
X173958333Y-152627590D01*
X174148809Y-151913305D01*
X174339285Y-152627590D01*
X174577380Y-151627590D01*
X174910714Y-151722829D02*
X174958333Y-151675210D01*
X175053571Y-151627590D01*
X175291666Y-151627590D01*
X175386904Y-151675210D01*
X175434523Y-151722829D01*
X175482142Y-151818067D01*
X175482142Y-151913305D01*
X175434523Y-152056162D01*
X174863095Y-152627590D01*
X175482142Y-152627590D01*
X176053571Y-152056162D02*
X175958333Y-152008543D01*
X175910714Y-151960924D01*
X175863095Y-151865686D01*
X175863095Y-151818067D01*
X175910714Y-151722829D01*
X175958333Y-151675210D01*
X176053571Y-151627590D01*
X176244047Y-151627590D01*
X176339285Y-151675210D01*
X176386904Y-151722829D01*
X176434523Y-151818067D01*
X176434523Y-151865686D01*
X176386904Y-151960924D01*
X176339285Y-152008543D01*
X176244047Y-152056162D01*
X176053571Y-152056162D01*
X175958333Y-152103781D01*
X175910714Y-152151400D01*
X175863095Y-152246638D01*
X175863095Y-152437114D01*
X175910714Y-152532352D01*
X175958333Y-152579971D01*
X176053571Y-152627590D01*
X176244047Y-152627590D01*
X176339285Y-152579971D01*
X176386904Y-152532352D01*
X176434523Y-152437114D01*
X176434523Y-152246638D01*
X176386904Y-152151400D01*
X176339285Y-152103781D01*
X176244047Y-152056162D01*
%TO.C,SW27*%
X172815476Y-133529971D02*
X172958333Y-133577590D01*
X173196428Y-133577590D01*
X173291666Y-133529971D01*
X173339285Y-133482352D01*
X173386904Y-133387114D01*
X173386904Y-133291876D01*
X173339285Y-133196638D01*
X173291666Y-133149019D01*
X173196428Y-133101400D01*
X173005952Y-133053781D01*
X172910714Y-133006162D01*
X172863095Y-132958543D01*
X172815476Y-132863305D01*
X172815476Y-132768067D01*
X172863095Y-132672829D01*
X172910714Y-132625210D01*
X173005952Y-132577590D01*
X173244047Y-132577590D01*
X173386904Y-132625210D01*
X173720238Y-132577590D02*
X173958333Y-133577590D01*
X174148809Y-132863305D01*
X174339285Y-133577590D01*
X174577380Y-132577590D01*
X174910714Y-132672829D02*
X174958333Y-132625210D01*
X175053571Y-132577590D01*
X175291666Y-132577590D01*
X175386904Y-132625210D01*
X175434523Y-132672829D01*
X175482142Y-132768067D01*
X175482142Y-132863305D01*
X175434523Y-133006162D01*
X174863095Y-133577590D01*
X175482142Y-133577590D01*
X175815476Y-132577590D02*
X176482142Y-132577590D01*
X176053571Y-133577590D01*
%TO.C,SW26*%
X172815476Y-114479971D02*
X172958333Y-114527590D01*
X173196428Y-114527590D01*
X173291666Y-114479971D01*
X173339285Y-114432352D01*
X173386904Y-114337114D01*
X173386904Y-114241876D01*
X173339285Y-114146638D01*
X173291666Y-114099019D01*
X173196428Y-114051400D01*
X173005952Y-114003781D01*
X172910714Y-113956162D01*
X172863095Y-113908543D01*
X172815476Y-113813305D01*
X172815476Y-113718067D01*
X172863095Y-113622829D01*
X172910714Y-113575210D01*
X173005952Y-113527590D01*
X173244047Y-113527590D01*
X173386904Y-113575210D01*
X173720238Y-113527590D02*
X173958333Y-114527590D01*
X174148809Y-113813305D01*
X174339285Y-114527590D01*
X174577380Y-113527590D01*
X174910714Y-113622829D02*
X174958333Y-113575210D01*
X175053571Y-113527590D01*
X175291666Y-113527590D01*
X175386904Y-113575210D01*
X175434523Y-113622829D01*
X175482142Y-113718067D01*
X175482142Y-113813305D01*
X175434523Y-113956162D01*
X174863095Y-114527590D01*
X175482142Y-114527590D01*
X176339285Y-113527590D02*
X176148809Y-113527590D01*
X176053571Y-113575210D01*
X176005952Y-113622829D01*
X175910714Y-113765686D01*
X175863095Y-113956162D01*
X175863095Y-114337114D01*
X175910714Y-114432352D01*
X175958333Y-114479971D01*
X176053571Y-114527590D01*
X176244047Y-114527590D01*
X176339285Y-114479971D01*
X176386904Y-114432352D01*
X176434523Y-114337114D01*
X176434523Y-114099019D01*
X176386904Y-114003781D01*
X176339285Y-113956162D01*
X176244047Y-113908543D01*
X176053571Y-113908543D01*
X175958333Y-113956162D01*
X175910714Y-114003781D01*
X175863095Y-114099019D01*
%TO.C,SW25*%
X172815476Y-95429971D02*
X172958333Y-95477590D01*
X173196428Y-95477590D01*
X173291666Y-95429971D01*
X173339285Y-95382352D01*
X173386904Y-95287114D01*
X173386904Y-95191876D01*
X173339285Y-95096638D01*
X173291666Y-95049019D01*
X173196428Y-95001400D01*
X173005952Y-94953781D01*
X172910714Y-94906162D01*
X172863095Y-94858543D01*
X172815476Y-94763305D01*
X172815476Y-94668067D01*
X172863095Y-94572829D01*
X172910714Y-94525210D01*
X173005952Y-94477590D01*
X173244047Y-94477590D01*
X173386904Y-94525210D01*
X173720238Y-94477590D02*
X173958333Y-95477590D01*
X174148809Y-94763305D01*
X174339285Y-95477590D01*
X174577380Y-94477590D01*
X174910714Y-94572829D02*
X174958333Y-94525210D01*
X175053571Y-94477590D01*
X175291666Y-94477590D01*
X175386904Y-94525210D01*
X175434523Y-94572829D01*
X175482142Y-94668067D01*
X175482142Y-94763305D01*
X175434523Y-94906162D01*
X174863095Y-95477590D01*
X175482142Y-95477590D01*
X176386904Y-94477590D02*
X175910714Y-94477590D01*
X175863095Y-94953781D01*
X175910714Y-94906162D01*
X176005952Y-94858543D01*
X176244047Y-94858543D01*
X176339285Y-94906162D01*
X176386904Y-94953781D01*
X176434523Y-95049019D01*
X176434523Y-95287114D01*
X176386904Y-95382352D01*
X176339285Y-95429971D01*
X176244047Y-95477590D01*
X176005952Y-95477590D01*
X175910714Y-95429971D01*
X175863095Y-95382352D01*
%TO.C,SW23*%
X153761736Y-169248721D02*
X153904593Y-169296340D01*
X154142688Y-169296340D01*
X154237926Y-169248721D01*
X154285545Y-169201102D01*
X154333164Y-169105864D01*
X154333164Y-169010626D01*
X154285545Y-168915388D01*
X154237926Y-168867769D01*
X154142688Y-168820150D01*
X153952212Y-168772531D01*
X153856974Y-168724912D01*
X153809355Y-168677293D01*
X153761736Y-168582055D01*
X153761736Y-168486817D01*
X153809355Y-168391579D01*
X153856974Y-168343960D01*
X153952212Y-168296340D01*
X154190307Y-168296340D01*
X154333164Y-168343960D01*
X154666498Y-168296340D02*
X154904593Y-169296340D01*
X155095069Y-168582055D01*
X155285545Y-169296340D01*
X155523640Y-168296340D01*
X155856974Y-168391579D02*
X155904593Y-168343960D01*
X155999831Y-168296340D01*
X156237926Y-168296340D01*
X156333164Y-168343960D01*
X156380783Y-168391579D01*
X156428402Y-168486817D01*
X156428402Y-168582055D01*
X156380783Y-168724912D01*
X155809355Y-169296340D01*
X156428402Y-169296340D01*
X156761736Y-168296340D02*
X157380783Y-168296340D01*
X157047450Y-168677293D01*
X157190307Y-168677293D01*
X157285545Y-168724912D01*
X157333164Y-168772531D01*
X157380783Y-168867769D01*
X157380783Y-169105864D01*
X157333164Y-169201102D01*
X157285545Y-169248721D01*
X157190307Y-169296340D01*
X156904593Y-169296340D01*
X156809355Y-169248721D01*
X156761736Y-169201102D01*
%TO.C,SW22*%
X153765476Y-150198721D02*
X153908333Y-150246340D01*
X154146428Y-150246340D01*
X154241666Y-150198721D01*
X154289285Y-150151102D01*
X154336904Y-150055864D01*
X154336904Y-149960626D01*
X154289285Y-149865388D01*
X154241666Y-149817769D01*
X154146428Y-149770150D01*
X153955952Y-149722531D01*
X153860714Y-149674912D01*
X153813095Y-149627293D01*
X153765476Y-149532055D01*
X153765476Y-149436817D01*
X153813095Y-149341579D01*
X153860714Y-149293960D01*
X153955952Y-149246340D01*
X154194047Y-149246340D01*
X154336904Y-149293960D01*
X154670238Y-149246340D02*
X154908333Y-150246340D01*
X155098809Y-149532055D01*
X155289285Y-150246340D01*
X155527380Y-149246340D01*
X155860714Y-149341579D02*
X155908333Y-149293960D01*
X156003571Y-149246340D01*
X156241666Y-149246340D01*
X156336904Y-149293960D01*
X156384523Y-149341579D01*
X156432142Y-149436817D01*
X156432142Y-149532055D01*
X156384523Y-149674912D01*
X155813095Y-150246340D01*
X156432142Y-150246340D01*
X156813095Y-149341579D02*
X156860714Y-149293960D01*
X156955952Y-149246340D01*
X157194047Y-149246340D01*
X157289285Y-149293960D01*
X157336904Y-149341579D01*
X157384523Y-149436817D01*
X157384523Y-149532055D01*
X157336904Y-149674912D01*
X156765476Y-150246340D01*
X157384523Y-150246340D01*
%TO.C,SW21*%
X153765476Y-131148721D02*
X153908333Y-131196340D01*
X154146428Y-131196340D01*
X154241666Y-131148721D01*
X154289285Y-131101102D01*
X154336904Y-131005864D01*
X154336904Y-130910626D01*
X154289285Y-130815388D01*
X154241666Y-130767769D01*
X154146428Y-130720150D01*
X153955952Y-130672531D01*
X153860714Y-130624912D01*
X153813095Y-130577293D01*
X153765476Y-130482055D01*
X153765476Y-130386817D01*
X153813095Y-130291579D01*
X153860714Y-130243960D01*
X153955952Y-130196340D01*
X154194047Y-130196340D01*
X154336904Y-130243960D01*
X154670238Y-130196340D02*
X154908333Y-131196340D01*
X155098809Y-130482055D01*
X155289285Y-131196340D01*
X155527380Y-130196340D01*
X155860714Y-130291579D02*
X155908333Y-130243960D01*
X156003571Y-130196340D01*
X156241666Y-130196340D01*
X156336904Y-130243960D01*
X156384523Y-130291579D01*
X156432142Y-130386817D01*
X156432142Y-130482055D01*
X156384523Y-130624912D01*
X155813095Y-131196340D01*
X156432142Y-131196340D01*
X157384523Y-131196340D02*
X156813095Y-131196340D01*
X157098809Y-131196340D02*
X157098809Y-130196340D01*
X157003571Y-130339198D01*
X156908333Y-130434436D01*
X156813095Y-130482055D01*
%TO.C,SW20*%
X153765476Y-112098721D02*
X153908333Y-112146340D01*
X154146428Y-112146340D01*
X154241666Y-112098721D01*
X154289285Y-112051102D01*
X154336904Y-111955864D01*
X154336904Y-111860626D01*
X154289285Y-111765388D01*
X154241666Y-111717769D01*
X154146428Y-111670150D01*
X153955952Y-111622531D01*
X153860714Y-111574912D01*
X153813095Y-111527293D01*
X153765476Y-111432055D01*
X153765476Y-111336817D01*
X153813095Y-111241579D01*
X153860714Y-111193960D01*
X153955952Y-111146340D01*
X154194047Y-111146340D01*
X154336904Y-111193960D01*
X154670238Y-111146340D02*
X154908333Y-112146340D01*
X155098809Y-111432055D01*
X155289285Y-112146340D01*
X155527380Y-111146340D01*
X155860714Y-111241579D02*
X155908333Y-111193960D01*
X156003571Y-111146340D01*
X156241666Y-111146340D01*
X156336904Y-111193960D01*
X156384523Y-111241579D01*
X156432142Y-111336817D01*
X156432142Y-111432055D01*
X156384523Y-111574912D01*
X155813095Y-112146340D01*
X156432142Y-112146340D01*
X157051190Y-111146340D02*
X157146428Y-111146340D01*
X157241666Y-111193960D01*
X157289285Y-111241579D01*
X157336904Y-111336817D01*
X157384523Y-111527293D01*
X157384523Y-111765388D01*
X157336904Y-111955864D01*
X157289285Y-112051102D01*
X157241666Y-112098721D01*
X157146428Y-112146340D01*
X157051190Y-112146340D01*
X156955952Y-112098721D01*
X156908333Y-112051102D01*
X156860714Y-111955864D01*
X156813095Y-111765388D01*
X156813095Y-111527293D01*
X156860714Y-111336817D01*
X156908333Y-111241579D01*
X156955952Y-111193960D01*
X157051190Y-111146340D01*
%TO.C,SW19*%
X153765476Y-93045031D02*
X153908333Y-93092650D01*
X154146428Y-93092650D01*
X154241666Y-93045031D01*
X154289285Y-92997412D01*
X154336904Y-92902174D01*
X154336904Y-92806936D01*
X154289285Y-92711698D01*
X154241666Y-92664079D01*
X154146428Y-92616460D01*
X153955952Y-92568841D01*
X153860714Y-92521222D01*
X153813095Y-92473603D01*
X153765476Y-92378365D01*
X153765476Y-92283127D01*
X153813095Y-92187889D01*
X153860714Y-92140270D01*
X153955952Y-92092650D01*
X154194047Y-92092650D01*
X154336904Y-92140270D01*
X154670238Y-92092650D02*
X154908333Y-93092650D01*
X155098809Y-92378365D01*
X155289285Y-93092650D01*
X155527380Y-92092650D01*
X156432142Y-93092650D02*
X155860714Y-93092650D01*
X156146428Y-93092650D02*
X156146428Y-92092650D01*
X156051190Y-92235508D01*
X155955952Y-92330746D01*
X155860714Y-92378365D01*
X156908333Y-93092650D02*
X157098809Y-93092650D01*
X157194047Y-93045031D01*
X157241666Y-92997412D01*
X157336904Y-92854555D01*
X157384523Y-92664079D01*
X157384523Y-92283127D01*
X157336904Y-92187889D01*
X157289285Y-92140270D01*
X157194047Y-92092650D01*
X157003571Y-92092650D01*
X156908333Y-92140270D01*
X156860714Y-92187889D01*
X156813095Y-92283127D01*
X156813095Y-92521222D01*
X156860714Y-92616460D01*
X156908333Y-92664079D01*
X157003571Y-92711698D01*
X157194047Y-92711698D01*
X157289285Y-92664079D01*
X157336904Y-92616460D01*
X157384523Y-92521222D01*
%TO.C,SW17*%
X134715476Y-171629971D02*
X134858333Y-171677590D01*
X135096428Y-171677590D01*
X135191666Y-171629971D01*
X135239285Y-171582352D01*
X135286904Y-171487114D01*
X135286904Y-171391876D01*
X135239285Y-171296638D01*
X135191666Y-171249019D01*
X135096428Y-171201400D01*
X134905952Y-171153781D01*
X134810714Y-171106162D01*
X134763095Y-171058543D01*
X134715476Y-170963305D01*
X134715476Y-170868067D01*
X134763095Y-170772829D01*
X134810714Y-170725210D01*
X134905952Y-170677590D01*
X135144047Y-170677590D01*
X135286904Y-170725210D01*
X135620238Y-170677590D02*
X135858333Y-171677590D01*
X136048809Y-170963305D01*
X136239285Y-171677590D01*
X136477380Y-170677590D01*
X137382142Y-171677590D02*
X136810714Y-171677590D01*
X137096428Y-171677590D02*
X137096428Y-170677590D01*
X137001190Y-170820448D01*
X136905952Y-170915686D01*
X136810714Y-170963305D01*
X137715476Y-170677590D02*
X138382142Y-170677590D01*
X137953571Y-171677590D01*
%TO.C,SW16*%
X134715476Y-152579971D02*
X134858333Y-152627590D01*
X135096428Y-152627590D01*
X135191666Y-152579971D01*
X135239285Y-152532352D01*
X135286904Y-152437114D01*
X135286904Y-152341876D01*
X135239285Y-152246638D01*
X135191666Y-152199019D01*
X135096428Y-152151400D01*
X134905952Y-152103781D01*
X134810714Y-152056162D01*
X134763095Y-152008543D01*
X134715476Y-151913305D01*
X134715476Y-151818067D01*
X134763095Y-151722829D01*
X134810714Y-151675210D01*
X134905952Y-151627590D01*
X135144047Y-151627590D01*
X135286904Y-151675210D01*
X135620238Y-151627590D02*
X135858333Y-152627590D01*
X136048809Y-151913305D01*
X136239285Y-152627590D01*
X136477380Y-151627590D01*
X137382142Y-152627590D02*
X136810714Y-152627590D01*
X137096428Y-152627590D02*
X137096428Y-151627590D01*
X137001190Y-151770448D01*
X136905952Y-151865686D01*
X136810714Y-151913305D01*
X138239285Y-151627590D02*
X138048809Y-151627590D01*
X137953571Y-151675210D01*
X137905952Y-151722829D01*
X137810714Y-151865686D01*
X137763095Y-152056162D01*
X137763095Y-152437114D01*
X137810714Y-152532352D01*
X137858333Y-152579971D01*
X137953571Y-152627590D01*
X138144047Y-152627590D01*
X138239285Y-152579971D01*
X138286904Y-152532352D01*
X138334523Y-152437114D01*
X138334523Y-152199019D01*
X138286904Y-152103781D01*
X138239285Y-152056162D01*
X138144047Y-152008543D01*
X137953571Y-152008543D01*
X137858333Y-152056162D01*
X137810714Y-152103781D01*
X137763095Y-152199019D01*
%TO.C,SW15*%
X134715476Y-133529971D02*
X134858333Y-133577590D01*
X135096428Y-133577590D01*
X135191666Y-133529971D01*
X135239285Y-133482352D01*
X135286904Y-133387114D01*
X135286904Y-133291876D01*
X135239285Y-133196638D01*
X135191666Y-133149019D01*
X135096428Y-133101400D01*
X134905952Y-133053781D01*
X134810714Y-133006162D01*
X134763095Y-132958543D01*
X134715476Y-132863305D01*
X134715476Y-132768067D01*
X134763095Y-132672829D01*
X134810714Y-132625210D01*
X134905952Y-132577590D01*
X135144047Y-132577590D01*
X135286904Y-132625210D01*
X135620238Y-132577590D02*
X135858333Y-133577590D01*
X136048809Y-132863305D01*
X136239285Y-133577590D01*
X136477380Y-132577590D01*
X137382142Y-133577590D02*
X136810714Y-133577590D01*
X137096428Y-133577590D02*
X137096428Y-132577590D01*
X137001190Y-132720448D01*
X136905952Y-132815686D01*
X136810714Y-132863305D01*
X138286904Y-132577590D02*
X137810714Y-132577590D01*
X137763095Y-133053781D01*
X137810714Y-133006162D01*
X137905952Y-132958543D01*
X138144047Y-132958543D01*
X138239285Y-133006162D01*
X138286904Y-133053781D01*
X138334523Y-133149019D01*
X138334523Y-133387114D01*
X138286904Y-133482352D01*
X138239285Y-133529971D01*
X138144047Y-133577590D01*
X137905952Y-133577590D01*
X137810714Y-133529971D01*
X137763095Y-133482352D01*
%TO.C,SW14*%
X134711736Y-114476281D02*
X134854593Y-114523900D01*
X135092688Y-114523900D01*
X135187926Y-114476281D01*
X135235545Y-114428662D01*
X135283164Y-114333424D01*
X135283164Y-114238186D01*
X135235545Y-114142948D01*
X135187926Y-114095329D01*
X135092688Y-114047710D01*
X134902212Y-114000091D01*
X134806974Y-113952472D01*
X134759355Y-113904853D01*
X134711736Y-113809615D01*
X134711736Y-113714377D01*
X134759355Y-113619139D01*
X134806974Y-113571520D01*
X134902212Y-113523900D01*
X135140307Y-113523900D01*
X135283164Y-113571520D01*
X135616498Y-113523900D02*
X135854593Y-114523900D01*
X136045069Y-113809615D01*
X136235545Y-114523900D01*
X136473640Y-113523900D01*
X137378402Y-114523900D02*
X136806974Y-114523900D01*
X137092688Y-114523900D02*
X137092688Y-113523900D01*
X136997450Y-113666758D01*
X136902212Y-113761996D01*
X136806974Y-113809615D01*
X138235545Y-113857234D02*
X138235545Y-114523900D01*
X137997450Y-113476281D02*
X137759355Y-114190567D01*
X138378402Y-114190567D01*
%TO.C,SW13*%
X134715476Y-95429971D02*
X134858333Y-95477590D01*
X135096428Y-95477590D01*
X135191666Y-95429971D01*
X135239285Y-95382352D01*
X135286904Y-95287114D01*
X135286904Y-95191876D01*
X135239285Y-95096638D01*
X135191666Y-95049019D01*
X135096428Y-95001400D01*
X134905952Y-94953781D01*
X134810714Y-94906162D01*
X134763095Y-94858543D01*
X134715476Y-94763305D01*
X134715476Y-94668067D01*
X134763095Y-94572829D01*
X134810714Y-94525210D01*
X134905952Y-94477590D01*
X135144047Y-94477590D01*
X135286904Y-94525210D01*
X135620238Y-94477590D02*
X135858333Y-95477590D01*
X136048809Y-94763305D01*
X136239285Y-95477590D01*
X136477380Y-94477590D01*
X137382142Y-95477590D02*
X136810714Y-95477590D01*
X137096428Y-95477590D02*
X137096428Y-94477590D01*
X137001190Y-94620448D01*
X136905952Y-94715686D01*
X136810714Y-94763305D01*
X137715476Y-94477590D02*
X138334523Y-94477590D01*
X138001190Y-94858543D01*
X138144047Y-94858543D01*
X138239285Y-94906162D01*
X138286904Y-94953781D01*
X138334523Y-95049019D01*
X138334523Y-95287114D01*
X138286904Y-95382352D01*
X138239285Y-95429971D01*
X138144047Y-95477590D01*
X137858333Y-95477590D01*
X137763095Y-95429971D01*
X137715476Y-95382352D01*
%TO.C,SW12*%
X209113002Y-215360155D02*
X209180346Y-215494842D01*
X209348704Y-215663201D01*
X209449720Y-215696872D01*
X209517063Y-215696872D01*
X209618078Y-215663201D01*
X209685422Y-215595857D01*
X209719094Y-215494842D01*
X209719094Y-215427498D01*
X209685422Y-215326483D01*
X209584407Y-215158124D01*
X209550735Y-215057109D01*
X209550735Y-214989766D01*
X209584407Y-214888750D01*
X209651750Y-214821407D01*
X209752765Y-214787735D01*
X209820109Y-214787735D01*
X209921124Y-214821407D01*
X210089483Y-214989766D01*
X210156826Y-215124453D01*
X210426200Y-215326483D02*
X209887452Y-216201949D01*
X210527216Y-215831559D01*
X210156826Y-216471323D01*
X211032292Y-215932575D01*
X210964948Y-217279445D02*
X210560887Y-216875384D01*
X210762918Y-217077414D02*
X211470025Y-216370307D01*
X211301666Y-216403979D01*
X211166979Y-216403979D01*
X211065964Y-216370307D01*
X211874086Y-216909055D02*
X211941429Y-216909055D01*
X212042444Y-216942727D01*
X212210803Y-217111086D01*
X212244475Y-217212101D01*
X212244475Y-217279445D01*
X212210803Y-217380460D01*
X212143460Y-217447803D01*
X212008773Y-217515147D01*
X211200651Y-217515147D01*
X211638383Y-217952880D01*
%TO.C,SW11*%
X115665476Y-174011221D02*
X115808333Y-174058840D01*
X116046428Y-174058840D01*
X116141666Y-174011221D01*
X116189285Y-173963602D01*
X116236904Y-173868364D01*
X116236904Y-173773126D01*
X116189285Y-173677888D01*
X116141666Y-173630269D01*
X116046428Y-173582650D01*
X115855952Y-173535031D01*
X115760714Y-173487412D01*
X115713095Y-173439793D01*
X115665476Y-173344555D01*
X115665476Y-173249317D01*
X115713095Y-173154079D01*
X115760714Y-173106460D01*
X115855952Y-173058840D01*
X116094047Y-173058840D01*
X116236904Y-173106460D01*
X116570238Y-173058840D02*
X116808333Y-174058840D01*
X116998809Y-173344555D01*
X117189285Y-174058840D01*
X117427380Y-173058840D01*
X118332142Y-174058840D02*
X117760714Y-174058840D01*
X118046428Y-174058840D02*
X118046428Y-173058840D01*
X117951190Y-173201698D01*
X117855952Y-173296936D01*
X117760714Y-173344555D01*
X119284523Y-174058840D02*
X118713095Y-174058840D01*
X118998809Y-174058840D02*
X118998809Y-173058840D01*
X118903571Y-173201698D01*
X118808333Y-173296936D01*
X118713095Y-173344555D01*
%TO.C,SW10*%
X115665476Y-154961221D02*
X115808333Y-155008840D01*
X116046428Y-155008840D01*
X116141666Y-154961221D01*
X116189285Y-154913602D01*
X116236904Y-154818364D01*
X116236904Y-154723126D01*
X116189285Y-154627888D01*
X116141666Y-154580269D01*
X116046428Y-154532650D01*
X115855952Y-154485031D01*
X115760714Y-154437412D01*
X115713095Y-154389793D01*
X115665476Y-154294555D01*
X115665476Y-154199317D01*
X115713095Y-154104079D01*
X115760714Y-154056460D01*
X115855952Y-154008840D01*
X116094047Y-154008840D01*
X116236904Y-154056460D01*
X116570238Y-154008840D02*
X116808333Y-155008840D01*
X116998809Y-154294555D01*
X117189285Y-155008840D01*
X117427380Y-154008840D01*
X118332142Y-155008840D02*
X117760714Y-155008840D01*
X118046428Y-155008840D02*
X118046428Y-154008840D01*
X117951190Y-154151698D01*
X117855952Y-154246936D01*
X117760714Y-154294555D01*
X118951190Y-154008840D02*
X119046428Y-154008840D01*
X119141666Y-154056460D01*
X119189285Y-154104079D01*
X119236904Y-154199317D01*
X119284523Y-154389793D01*
X119284523Y-154627888D01*
X119236904Y-154818364D01*
X119189285Y-154913602D01*
X119141666Y-154961221D01*
X119046428Y-155008840D01*
X118951190Y-155008840D01*
X118855952Y-154961221D01*
X118808333Y-154913602D01*
X118760714Y-154818364D01*
X118713095Y-154627888D01*
X118713095Y-154389793D01*
X118760714Y-154199317D01*
X118808333Y-154104079D01*
X118855952Y-154056460D01*
X118951190Y-154008840D01*
%TO.C,SW9*%
X116141666Y-135911221D02*
X116284523Y-135958840D01*
X116522619Y-135958840D01*
X116617857Y-135911221D01*
X116665476Y-135863602D01*
X116713095Y-135768364D01*
X116713095Y-135673126D01*
X116665476Y-135577888D01*
X116617857Y-135530269D01*
X116522619Y-135482650D01*
X116332142Y-135435031D01*
X116236904Y-135387412D01*
X116189285Y-135339793D01*
X116141666Y-135244555D01*
X116141666Y-135149317D01*
X116189285Y-135054079D01*
X116236904Y-135006460D01*
X116332142Y-134958840D01*
X116570238Y-134958840D01*
X116713095Y-135006460D01*
X117046428Y-134958840D02*
X117284523Y-135958840D01*
X117475000Y-135244555D01*
X117665476Y-135958840D01*
X117903571Y-134958840D01*
X118332142Y-135958840D02*
X118522619Y-135958840D01*
X118617857Y-135911221D01*
X118665476Y-135863602D01*
X118760714Y-135720745D01*
X118808333Y-135530269D01*
X118808333Y-135149317D01*
X118760714Y-135054079D01*
X118713095Y-135006460D01*
X118617857Y-134958840D01*
X118427380Y-134958840D01*
X118332142Y-135006460D01*
X118284523Y-135054079D01*
X118236904Y-135149317D01*
X118236904Y-135387412D01*
X118284523Y-135482650D01*
X118332142Y-135530269D01*
X118427380Y-135577888D01*
X118617857Y-135577888D01*
X118713095Y-135530269D01*
X118760714Y-135482650D01*
X118808333Y-135387412D01*
%TO.C,SW8*%
X116141666Y-116861221D02*
X116284523Y-116908840D01*
X116522619Y-116908840D01*
X116617857Y-116861221D01*
X116665476Y-116813602D01*
X116713095Y-116718364D01*
X116713095Y-116623126D01*
X116665476Y-116527888D01*
X116617857Y-116480269D01*
X116522619Y-116432650D01*
X116332142Y-116385031D01*
X116236904Y-116337412D01*
X116189285Y-116289793D01*
X116141666Y-116194555D01*
X116141666Y-116099317D01*
X116189285Y-116004079D01*
X116236904Y-115956460D01*
X116332142Y-115908840D01*
X116570238Y-115908840D01*
X116713095Y-115956460D01*
X117046428Y-115908840D02*
X117284523Y-116908840D01*
X117475000Y-116194555D01*
X117665476Y-116908840D01*
X117903571Y-115908840D01*
X118427380Y-116337412D02*
X118332142Y-116289793D01*
X118284523Y-116242174D01*
X118236904Y-116146936D01*
X118236904Y-116099317D01*
X118284523Y-116004079D01*
X118332142Y-115956460D01*
X118427380Y-115908840D01*
X118617857Y-115908840D01*
X118713095Y-115956460D01*
X118760714Y-116004079D01*
X118808333Y-116099317D01*
X118808333Y-116146936D01*
X118760714Y-116242174D01*
X118713095Y-116289793D01*
X118617857Y-116337412D01*
X118427380Y-116337412D01*
X118332142Y-116385031D01*
X118284523Y-116432650D01*
X118236904Y-116527888D01*
X118236904Y-116718364D01*
X118284523Y-116813602D01*
X118332142Y-116861221D01*
X118427380Y-116908840D01*
X118617857Y-116908840D01*
X118713095Y-116861221D01*
X118760714Y-116813602D01*
X118808333Y-116718364D01*
X118808333Y-116527888D01*
X118760714Y-116432650D01*
X118713095Y-116385031D01*
X118617857Y-116337412D01*
%TO.C,SW7*%
X116141666Y-97811221D02*
X116284523Y-97858840D01*
X116522619Y-97858840D01*
X116617857Y-97811221D01*
X116665476Y-97763602D01*
X116713095Y-97668364D01*
X116713095Y-97573126D01*
X116665476Y-97477888D01*
X116617857Y-97430269D01*
X116522619Y-97382650D01*
X116332142Y-97335031D01*
X116236904Y-97287412D01*
X116189285Y-97239793D01*
X116141666Y-97144555D01*
X116141666Y-97049317D01*
X116189285Y-96954079D01*
X116236904Y-96906460D01*
X116332142Y-96858840D01*
X116570238Y-96858840D01*
X116713095Y-96906460D01*
X117046428Y-96858840D02*
X117284523Y-97858840D01*
X117475000Y-97144555D01*
X117665476Y-97858840D01*
X117903571Y-96858840D01*
X118189285Y-96858840D02*
X118855952Y-96858840D01*
X118427380Y-97858840D01*
%TO.C,U9*%
X146253295Y-71029580D02*
X146253295Y-71839104D01*
X146300914Y-71934342D01*
X146348533Y-71981961D01*
X146443771Y-72029580D01*
X146634247Y-72029580D01*
X146729485Y-71981961D01*
X146777104Y-71934342D01*
X146824723Y-71839104D01*
X146824723Y-71029580D01*
X147348533Y-72029580D02*
X147539009Y-72029580D01*
X147634247Y-71981961D01*
X147681866Y-71934342D01*
X147777104Y-71791485D01*
X147824723Y-71601009D01*
X147824723Y-71220057D01*
X147777104Y-71124819D01*
X147729485Y-71077200D01*
X147634247Y-71029580D01*
X147443771Y-71029580D01*
X147348533Y-71077200D01*
X147300914Y-71124819D01*
X147253295Y-71220057D01*
X147253295Y-71458152D01*
X147300914Y-71553390D01*
X147348533Y-71601009D01*
X147443771Y-71648628D01*
X147634247Y-71648628D01*
X147729485Y-71601009D01*
X147777104Y-71553390D01*
X147824723Y-71458152D01*
%TO.C,C120*%
X143003542Y-70232447D02*
X143051161Y-70280066D01*
X143098780Y-70422923D01*
X143098780Y-70518161D01*
X143051161Y-70661019D01*
X142955923Y-70756257D01*
X142860685Y-70803876D01*
X142670209Y-70851495D01*
X142527352Y-70851495D01*
X142336876Y-70803876D01*
X142241638Y-70756257D01*
X142146400Y-70661019D01*
X142098780Y-70518161D01*
X142098780Y-70422923D01*
X142146400Y-70280066D01*
X142194019Y-70232447D01*
X143098780Y-69280066D02*
X143098780Y-69851495D01*
X143098780Y-69565780D02*
X142098780Y-69565780D01*
X142241638Y-69661019D01*
X142336876Y-69756257D01*
X142384495Y-69851495D01*
X142194019Y-68899114D02*
X142146400Y-68851495D01*
X142098780Y-68756257D01*
X142098780Y-68518161D01*
X142146400Y-68422923D01*
X142194019Y-68375304D01*
X142289257Y-68327685D01*
X142384495Y-68327685D01*
X142527352Y-68375304D01*
X143098780Y-68946733D01*
X143098780Y-68327685D01*
X142098780Y-67708638D02*
X142098780Y-67613400D01*
X142146400Y-67518161D01*
X142194019Y-67470542D01*
X142289257Y-67422923D01*
X142479733Y-67375304D01*
X142717828Y-67375304D01*
X142908304Y-67422923D01*
X143003542Y-67470542D01*
X143051161Y-67518161D01*
X143098780Y-67613400D01*
X143098780Y-67708638D01*
X143051161Y-67803876D01*
X143003542Y-67851495D01*
X142908304Y-67899114D01*
X142717828Y-67946733D01*
X142479733Y-67946733D01*
X142289257Y-67899114D01*
X142194019Y-67851495D01*
X142146400Y-67803876D01*
X142098780Y-67708638D01*
%TO.C,C5*%
X147534333Y-65711342D02*
X147486714Y-65758961D01*
X147343857Y-65806580D01*
X147248619Y-65806580D01*
X147105761Y-65758961D01*
X147010523Y-65663723D01*
X146962904Y-65568485D01*
X146915285Y-65378009D01*
X146915285Y-65235152D01*
X146962904Y-65044676D01*
X147010523Y-64949438D01*
X147105761Y-64854200D01*
X147248619Y-64806580D01*
X147343857Y-64806580D01*
X147486714Y-64854200D01*
X147534333Y-64901819D01*
X148439095Y-64806580D02*
X147962904Y-64806580D01*
X147915285Y-65282771D01*
X147962904Y-65235152D01*
X148058142Y-65187533D01*
X148296238Y-65187533D01*
X148391476Y-65235152D01*
X148439095Y-65282771D01*
X148486714Y-65378009D01*
X148486714Y-65616104D01*
X148439095Y-65711342D01*
X148391476Y-65758961D01*
X148296238Y-65806580D01*
X148058142Y-65806580D01*
X147962904Y-65758961D01*
X147915285Y-65711342D01*
%TO.C,C1*%
X161707533Y-63882542D02*
X161659914Y-63930161D01*
X161517057Y-63977780D01*
X161421819Y-63977780D01*
X161278961Y-63930161D01*
X161183723Y-63834923D01*
X161136104Y-63739685D01*
X161088485Y-63549209D01*
X161088485Y-63406352D01*
X161136104Y-63215876D01*
X161183723Y-63120638D01*
X161278961Y-63025400D01*
X161421819Y-62977780D01*
X161517057Y-62977780D01*
X161659914Y-63025400D01*
X161707533Y-63073019D01*
X162659914Y-63977780D02*
X162088485Y-63977780D01*
X162374200Y-63977780D02*
X162374200Y-62977780D01*
X162278961Y-63120638D01*
X162183723Y-63215876D01*
X162088485Y-63263495D01*
%TO.C,C2*%
X161758333Y-62256942D02*
X161710714Y-62304561D01*
X161567857Y-62352180D01*
X161472619Y-62352180D01*
X161329761Y-62304561D01*
X161234523Y-62209323D01*
X161186904Y-62114085D01*
X161139285Y-61923609D01*
X161139285Y-61780752D01*
X161186904Y-61590276D01*
X161234523Y-61495038D01*
X161329761Y-61399800D01*
X161472619Y-61352180D01*
X161567857Y-61352180D01*
X161710714Y-61399800D01*
X161758333Y-61447419D01*
X162139285Y-61447419D02*
X162186904Y-61399800D01*
X162282142Y-61352180D01*
X162520238Y-61352180D01*
X162615476Y-61399800D01*
X162663095Y-61447419D01*
X162710714Y-61542657D01*
X162710714Y-61637895D01*
X162663095Y-61780752D01*
X162091666Y-62352180D01*
X162710714Y-62352180D01*
%TO.C,C3*%
X159091333Y-67082942D02*
X159043714Y-67130561D01*
X158900857Y-67178180D01*
X158805619Y-67178180D01*
X158662761Y-67130561D01*
X158567523Y-67035323D01*
X158519904Y-66940085D01*
X158472285Y-66749609D01*
X158472285Y-66606752D01*
X158519904Y-66416276D01*
X158567523Y-66321038D01*
X158662761Y-66225800D01*
X158805619Y-66178180D01*
X158900857Y-66178180D01*
X159043714Y-66225800D01*
X159091333Y-66273419D01*
X159424666Y-66178180D02*
X160043714Y-66178180D01*
X159710380Y-66559133D01*
X159853238Y-66559133D01*
X159948476Y-66606752D01*
X159996095Y-66654371D01*
X160043714Y-66749609D01*
X160043714Y-66987704D01*
X159996095Y-67082942D01*
X159948476Y-67130561D01*
X159853238Y-67178180D01*
X159567523Y-67178180D01*
X159472285Y-67130561D01*
X159424666Y-67082942D01*
%TO.C,C42*%
X119729542Y-61094857D02*
X119777161Y-61142476D01*
X119824780Y-61285333D01*
X119824780Y-61380571D01*
X119777161Y-61523428D01*
X119681923Y-61618666D01*
X119586685Y-61666285D01*
X119396209Y-61713904D01*
X119253352Y-61713904D01*
X119062876Y-61666285D01*
X118967638Y-61618666D01*
X118872400Y-61523428D01*
X118824780Y-61380571D01*
X118824780Y-61285333D01*
X118872400Y-61142476D01*
X118920019Y-61094857D01*
X119158114Y-60237714D02*
X119824780Y-60237714D01*
X118777161Y-60475809D02*
X119491447Y-60713904D01*
X119491447Y-60094857D01*
X118920019Y-59761523D02*
X118872400Y-59713904D01*
X118824780Y-59618666D01*
X118824780Y-59380571D01*
X118872400Y-59285333D01*
X118920019Y-59237714D01*
X119015257Y-59190095D01*
X119110495Y-59190095D01*
X119253352Y-59237714D01*
X119824780Y-59809142D01*
X119824780Y-59190095D01*
%TO.C,C43*%
X134412014Y-60107935D02*
X134412014Y-60175279D01*
X134344670Y-60309966D01*
X134277327Y-60377309D01*
X134142640Y-60444653D01*
X134007953Y-60444653D01*
X133906938Y-60410981D01*
X133738579Y-60309966D01*
X133637564Y-60208951D01*
X133536548Y-60040592D01*
X133502877Y-59939577D01*
X133502877Y-59804890D01*
X133570220Y-59670203D01*
X133637564Y-59602859D01*
X133772251Y-59535516D01*
X133839594Y-59535516D01*
X134614045Y-59097783D02*
X135085449Y-59569187D01*
X134176312Y-58996767D02*
X134513029Y-59670203D01*
X134950762Y-59232470D01*
X134681388Y-58559035D02*
X135119121Y-58121302D01*
X135152793Y-58626378D01*
X135253808Y-58525363D01*
X135354823Y-58491691D01*
X135422167Y-58491691D01*
X135523182Y-58525363D01*
X135691541Y-58693722D01*
X135725212Y-58794737D01*
X135725212Y-58862080D01*
X135691541Y-58963096D01*
X135489510Y-59165126D01*
X135388495Y-59198798D01*
X135321151Y-59198798D01*
%TO.C,C44*%
X120387842Y-71708262D02*
X120340223Y-71755881D01*
X120197366Y-71803500D01*
X120102128Y-71803500D01*
X119959271Y-71755881D01*
X119864033Y-71660643D01*
X119816414Y-71565405D01*
X119768795Y-71374929D01*
X119768795Y-71232072D01*
X119816414Y-71041596D01*
X119864033Y-70946358D01*
X119959271Y-70851120D01*
X120102128Y-70803500D01*
X120197366Y-70803500D01*
X120340223Y-70851120D01*
X120387842Y-70898739D01*
X121244985Y-71136834D02*
X121244985Y-71803500D01*
X121006890Y-70755881D02*
X120768795Y-71470167D01*
X121387842Y-71470167D01*
X122197366Y-71136834D02*
X122197366Y-71803500D01*
X121959271Y-70755881D02*
X121721176Y-71470167D01*
X122340223Y-71470167D01*
%TO.C,C45*%
X134662942Y-75541142D02*
X134615323Y-75588761D01*
X134472466Y-75636380D01*
X134377228Y-75636380D01*
X134234371Y-75588761D01*
X134139133Y-75493523D01*
X134091514Y-75398285D01*
X134043895Y-75207809D01*
X134043895Y-75064952D01*
X134091514Y-74874476D01*
X134139133Y-74779238D01*
X134234371Y-74684000D01*
X134377228Y-74636380D01*
X134472466Y-74636380D01*
X134615323Y-74684000D01*
X134662942Y-74731619D01*
X135520085Y-74969714D02*
X135520085Y-75636380D01*
X135281990Y-74588761D02*
X135043895Y-75303047D01*
X135662942Y-75303047D01*
X136520085Y-74636380D02*
X136043895Y-74636380D01*
X135996276Y-75112571D01*
X136043895Y-75064952D01*
X136139133Y-75017333D01*
X136377228Y-75017333D01*
X136472466Y-75064952D01*
X136520085Y-75112571D01*
X136567704Y-75207809D01*
X136567704Y-75445904D01*
X136520085Y-75541142D01*
X136472466Y-75588761D01*
X136377228Y-75636380D01*
X136139133Y-75636380D01*
X136043895Y-75588761D01*
X135996276Y-75541142D01*
%TO.C,C46*%
X136952014Y-62901935D02*
X136952014Y-62969279D01*
X136884670Y-63103966D01*
X136817327Y-63171309D01*
X136682640Y-63238653D01*
X136547953Y-63238653D01*
X136446938Y-63204981D01*
X136278579Y-63103966D01*
X136177564Y-63002951D01*
X136076548Y-62834592D01*
X136042877Y-62733577D01*
X136042877Y-62598890D01*
X136110220Y-62464203D01*
X136177564Y-62396859D01*
X136312251Y-62329516D01*
X136379594Y-62329516D01*
X137154045Y-61891783D02*
X137625449Y-62363187D01*
X136716312Y-61790767D02*
X137053029Y-62464203D01*
X137490762Y-62026470D01*
X137591777Y-60982645D02*
X137457090Y-61117332D01*
X137423419Y-61218348D01*
X137423419Y-61285691D01*
X137457090Y-61454050D01*
X137558106Y-61622409D01*
X137827480Y-61891783D01*
X137928495Y-61925454D01*
X137995838Y-61925454D01*
X138096854Y-61891783D01*
X138231541Y-61757096D01*
X138265212Y-61656080D01*
X138265212Y-61588737D01*
X138231541Y-61487722D01*
X138063182Y-61319363D01*
X137962167Y-61285691D01*
X137894823Y-61285691D01*
X137793808Y-61319363D01*
X137659121Y-61454050D01*
X137625449Y-61555065D01*
X137625449Y-61622409D01*
X137659121Y-61723424D01*
%TO.C,D194*%
X143886180Y-65368276D02*
X142886180Y-65368276D01*
X142886180Y-65130180D01*
X142933800Y-64987323D01*
X143029038Y-64892085D01*
X143124276Y-64844466D01*
X143314752Y-64796847D01*
X143457609Y-64796847D01*
X143648085Y-64844466D01*
X143743323Y-64892085D01*
X143838561Y-64987323D01*
X143886180Y-65130180D01*
X143886180Y-65368276D01*
X143886180Y-63844466D02*
X143886180Y-64415895D01*
X143886180Y-64130180D02*
X142886180Y-64130180D01*
X143029038Y-64225419D01*
X143124276Y-64320657D01*
X143171895Y-64415895D01*
X143886180Y-63368276D02*
X143886180Y-63177800D01*
X143838561Y-63082561D01*
X143790942Y-63034942D01*
X143648085Y-62939704D01*
X143457609Y-62892085D01*
X143076657Y-62892085D01*
X142981419Y-62939704D01*
X142933800Y-62987323D01*
X142886180Y-63082561D01*
X142886180Y-63273038D01*
X142933800Y-63368276D01*
X142981419Y-63415895D01*
X143076657Y-63463514D01*
X143314752Y-63463514D01*
X143409990Y-63415895D01*
X143457609Y-63368276D01*
X143505228Y-63273038D01*
X143505228Y-63082561D01*
X143457609Y-62987323D01*
X143409990Y-62939704D01*
X143314752Y-62892085D01*
X143219514Y-62034942D02*
X143886180Y-62034942D01*
X142838561Y-62273038D02*
X143552847Y-62511133D01*
X143552847Y-61892085D01*
%TO.C,FB3*%
X156748171Y-68270333D02*
X156748171Y-68603666D01*
X157271980Y-68603666D02*
X156271980Y-68603666D01*
X156271980Y-68127476D01*
X156748171Y-67413190D02*
X156795790Y-67270333D01*
X156843409Y-67222714D01*
X156938647Y-67175095D01*
X157081504Y-67175095D01*
X157176742Y-67222714D01*
X157224361Y-67270333D01*
X157271980Y-67365571D01*
X157271980Y-67746523D01*
X156271980Y-67746523D01*
X156271980Y-67413190D01*
X156319600Y-67317952D01*
X156367219Y-67270333D01*
X156462457Y-67222714D01*
X156557695Y-67222714D01*
X156652933Y-67270333D01*
X156700552Y-67317952D01*
X156748171Y-67413190D01*
X156748171Y-67746523D01*
X156271980Y-66841761D02*
X156271980Y-66222714D01*
X156652933Y-66556047D01*
X156652933Y-66413190D01*
X156700552Y-66317952D01*
X156748171Y-66270333D01*
X156843409Y-66222714D01*
X157081504Y-66222714D01*
X157176742Y-66270333D01*
X157224361Y-66317952D01*
X157271980Y-66413190D01*
X157271980Y-66698904D01*
X157224361Y-66794142D01*
X157176742Y-66841761D01*
%TO.C,J1*%
X155238466Y-61043980D02*
X155238466Y-61758266D01*
X155190847Y-61901123D01*
X155095609Y-61996361D01*
X154952752Y-62043980D01*
X154857514Y-62043980D01*
X156238466Y-62043980D02*
X155667038Y-62043980D01*
X155952752Y-62043980D02*
X155952752Y-61043980D01*
X155857514Y-61186838D01*
X155762276Y-61282076D01*
X155667038Y-61329695D01*
%TO.C,R3*%
X140736580Y-68213266D02*
X140260390Y-68546600D01*
X140736580Y-68784695D02*
X139736580Y-68784695D01*
X139736580Y-68403742D01*
X139784200Y-68308504D01*
X139831819Y-68260885D01*
X139927057Y-68213266D01*
X140069914Y-68213266D01*
X140165152Y-68260885D01*
X140212771Y-68308504D01*
X140260390Y-68403742D01*
X140260390Y-68784695D01*
X139736580Y-67879933D02*
X139736580Y-67260885D01*
X140117533Y-67594219D01*
X140117533Y-67451361D01*
X140165152Y-67356123D01*
X140212771Y-67308504D01*
X140308009Y-67260885D01*
X140546104Y-67260885D01*
X140641342Y-67308504D01*
X140688961Y-67356123D01*
X140736580Y-67451361D01*
X140736580Y-67737076D01*
X140688961Y-67832314D01*
X140641342Y-67879933D01*
%TO.C,R23*%
X123589623Y-74232512D02*
X123690638Y-73660093D01*
X123185562Y-73828451D02*
X123892669Y-73121345D01*
X124162043Y-73390719D01*
X124195715Y-73491734D01*
X124195715Y-73559077D01*
X124162043Y-73660093D01*
X124061028Y-73761108D01*
X123960012Y-73794780D01*
X123892669Y-73794780D01*
X123791654Y-73761108D01*
X123522280Y-73491734D01*
X124498761Y-73862123D02*
X124566104Y-73862123D01*
X124667119Y-73895795D01*
X124835478Y-74064154D01*
X124869150Y-74165169D01*
X124869150Y-74232512D01*
X124835478Y-74333528D01*
X124768135Y-74400871D01*
X124633448Y-74468215D01*
X123825325Y-74468215D01*
X124263058Y-74905948D01*
X125205867Y-74434543D02*
X125643600Y-74872276D01*
X125138524Y-74905948D01*
X125239539Y-75006963D01*
X125273211Y-75107978D01*
X125273211Y-75175322D01*
X125239539Y-75276337D01*
X125071180Y-75444696D01*
X124970165Y-75478367D01*
X124902822Y-75478367D01*
X124801806Y-75444696D01*
X124599776Y-75242665D01*
X124566104Y-75141650D01*
X124566104Y-75074306D01*
%TO.C,TP1*%
X84882195Y-64260280D02*
X85453623Y-64260280D01*
X85167909Y-65260280D02*
X85167909Y-64260280D01*
X85786957Y-65260280D02*
X85786957Y-64260280D01*
X86167909Y-64260280D01*
X86263147Y-64307900D01*
X86310766Y-64355519D01*
X86358385Y-64450757D01*
X86358385Y-64593614D01*
X86310766Y-64688852D01*
X86263147Y-64736471D01*
X86167909Y-64784090D01*
X85786957Y-64784090D01*
X87310766Y-65260280D02*
X86739338Y-65260280D01*
X87025052Y-65260280D02*
X87025052Y-64260280D01*
X86929814Y-64403138D01*
X86834576Y-64498376D01*
X86739338Y-64545995D01*
%TO.C,X2*%
X121897876Y-57961280D02*
X122564542Y-58961280D01*
X122564542Y-57961280D02*
X121897876Y-58961280D01*
X122897876Y-58056519D02*
X122945495Y-58008900D01*
X123040733Y-57961280D01*
X123278828Y-57961280D01*
X123374066Y-58008900D01*
X123421685Y-58056519D01*
X123469304Y-58151757D01*
X123469304Y-58246995D01*
X123421685Y-58389852D01*
X122850257Y-58961280D01*
X123469304Y-58961280D01*
%TD*%
M02*
