  0
SECTION
  2
HEADER
  9
$ANGBASE
  50
0.0
  9
$ANGDIR
  70
1
  9
$MEASUREMENT
  70
1
  0
ENDSEC
  0
SECTION
  2
TABLES
  0
TABLE
  2
LTYPE
  70
4
  0
LTYPE
  5
40F
  2
CONTINUOUS
  70
0
  3
Solid line
  72
65
  73
0
  40
0.0
  0
LTYPE
  5
410
  2
DASHDOT
 70
0
  3
Dash Dot ____ _ ____ _
 72
65
 73
4
 40
2.0
 49
1.25
 49
-0.25
 49
0.25
 49
-0.25
  0
LTYPE
  5
411
  2
DASHED
 70
0
  3
Dashed __ __ __ __ __
 72
65
 73
2
 40
0.75
 49
0.5
 49
-0.25
  0
LTYPE
  5
43B
  2
DOTTED
 70
0
  3
Dotted .  .  .  .
 72
65
 73
2
 40
0.2
 49
0.0
 49
-0.2
  0
ENDTAB
  0
TABLE
  2
STYLE
  70
4
  0
STYLE
  2
KICAD
  70
0
  40
0
  41
1
  42
1
  50
0
  71
0
  3
isocp.shx
  0
STYLE
  2
KICADB
  70
0
  40
0
  41
1
  42
1
  50
0
  71
0
  3
isocp.shx
  0
STYLE
  2
KICADI
  70
0
  40
0
  41
1
  42
1
  50
15
  71
0
  3
isocp.shx
  0
STYLE
  2
KICADBI
  70
0
  40
0
  41
1
  42
1
  50
15
  71
0
  3
isocp.shx
  0
ENDTAB
  0
TABLE
  2
LAYER
  70
1
  0
LAYER
  2
BLACK
  70
0
  62
7
  6
CONTINUOUS
  0
ENDTAB
  0
ENDSEC
  0
SECTION
  2
ENTITIES
0
LINE
8
BLACK
6
CONTINUOUS
10
230.199
20
-156.328
11
230.211
21
-156.331
0
LINE
8
BLACK
6
CONTINUOUS
10
230.211
20
-156.331
11
230.221
21
-156.337
0
LINE
8
BLACK
6
CONTINUOUS
10
230.221
20
-156.337
11
230.23
21
-156.344
0
LINE
8
BLACK
6
CONTINUOUS
10
230.23
20
-156.344
11
230.232
21
-156.347
0
LINE
8
BLACK
6
CONTINUOUS
10
230.232
20
-156.347
11
243.698
21
-169.813
0
LINE
8
BLACK
6
CONTINUOUS
10
243.698
20
-169.813
11
243.7
21
-169.815
0
LINE
8
BLACK
6
CONTINUOUS
10
243.7
20
-169.815
11
243.702
21
-169.817
0
LINE
8
BLACK
6
CONTINUOUS
10
243.702
20
-169.817
11
243.702
21
-169.817
0
LINE
8
BLACK
6
CONTINUOUS
10
243.702
20
-169.817
11
243.708
21
-169.824
0
LINE
8
BLACK
6
CONTINUOUS
10
243.708
20
-169.824
11
243.71
21
-169.828
0
LINE
8
BLACK
6
CONTINUOUS
10
243.71
20
-169.828
11
243.715
21
-169.83
0
LINE
8
BLACK
6
CONTINUOUS
10
243.715
20
-169.83
11
243.719
21
-169.834
0
LINE
8
BLACK
6
CONTINUOUS
10
243.719
20
-169.834
11
243.724
21
-169.838
0
LINE
8
BLACK
6
CONTINUOUS
10
243.724
20
-169.838
11
243.726
21
-169.84
0
LINE
8
BLACK
6
CONTINUOUS
10
243.726
20
-169.84
11
257.192
21
-183.306
0
LINE
8
BLACK
6
CONTINUOUS
10
257.192
20
-183.306
11
257.194
21
-183.308
0
LINE
8
BLACK
6
CONTINUOUS
10
257.194
20
-183.308
11
257.196
21
-183.311
0
LINE
8
BLACK
6
CONTINUOUS
10
257.196
20
-183.311
11
257.196
21
-183.311
0
LINE
8
BLACK
6
CONTINUOUS
10
257.196
20
-183.311
11
257.202
21
-183.317
0
LINE
8
BLACK
6
CONTINUOUS
10
257.202
20
-183.317
11
257.207
21
-183.328
0
LINE
8
BLACK
6
CONTINUOUS
10
257.207
20
-183.328
11
257.21
21
-183.336
0
LINE
8
BLACK
6
CONTINUOUS
10
257.21
20
-183.336
11
257.211
21
-183.339
0
LINE
8
BLACK
6
CONTINUOUS
10
257.211
20
-183.339
11
257.212
21
-183.351
0
LINE
8
BLACK
6
CONTINUOUS
10
257.212
20
-183.351
11
257.211
21
-183.363
0
LINE
8
BLACK
6
CONTINUOUS
10
257.211
20
-183.363
11
257.207
21
-183.374
0
LINE
8
BLACK
6
CONTINUOUS
10
257.207
20
-183.374
11
257.202
21
-183.384
0
LINE
8
BLACK
6
CONTINUOUS
10
257.202
20
-183.384
11
257.196
21
-183.391
0
LINE
8
BLACK
6
CONTINUOUS
10
257.196
20
-183.391
11
257.196
21
-183.391
0
LINE
8
BLACK
6
CONTINUOUS
10
257.196
20
-183.391
11
257.194
21
-183.394
0
LINE
8
BLACK
6
CONTINUOUS
10
257.194
20
-183.394
11
257.192
21
-183.395
0
LINE
8
BLACK
6
CONTINUOUS
10
257.192
20
-183.395
11
243.726
21
-196.862
0
LINE
8
BLACK
6
CONTINUOUS
10
243.726
20
-196.862
11
243.724
21
-196.864
0
LINE
8
BLACK
6
CONTINUOUS
10
243.724
20
-196.864
11
243.722
21
-196.866
0
LINE
8
BLACK
6
CONTINUOUS
10
243.722
20
-196.866
11
243.722
21
-196.866
0
LINE
8
BLACK
6
CONTINUOUS
10
243.722
20
-196.866
11
243.715
21
-196.872
0
LINE
8
BLACK
6
CONTINUOUS
10
243.715
20
-196.872
11
243.705
21
-196.877
0
LINE
8
BLACK
6
CONTINUOUS
10
243.705
20
-196.877
11
243.702
21
-196.88
0
LINE
8
BLACK
6
CONTINUOUS
10
243.702
20
-196.88
11
243.702
21
-196.88
0
LINE
8
BLACK
6
CONTINUOUS
10
243.702
20
-196.88
11
243.7
21
-196.882
0
LINE
8
BLACK
6
CONTINUOUS
10
243.7
20
-196.882
11
243.698
21
-196.884
0
LINE
8
BLACK
6
CONTINUOUS
10
243.698
20
-196.884
11
230.232
21
-210.35
0
LINE
8
BLACK
6
CONTINUOUS
10
230.232
20
-210.35
11
230.23
21
-210.353
0
LINE
8
BLACK
6
CONTINUOUS
10
230.23
20
-210.353
11
230.228
21
-210.354
0
LINE
8
BLACK
6
CONTINUOUS
10
230.228
20
-210.354
11
230.228
21
-210.354
0
LINE
8
BLACK
6
CONTINUOUS
10
230.228
20
-210.354
11
230.221
21
-210.36
0
LINE
8
BLACK
6
CONTINUOUS
10
230.221
20
-210.36
11
230.217
21
-210.362
0
LINE
8
BLACK
6
CONTINUOUS
10
230.217
20
-210.362
11
230.214
21
-210.367
0
LINE
8
BLACK
6
CONTINUOUS
10
230.214
20
-210.367
11
230.209
21
-210.374
0
LINE
8
BLACK
6
CONTINUOUS
10
230.209
20
-210.374
11
230.209
21
-210.374
0
LINE
8
BLACK
6
CONTINUOUS
10
230.209
20
-210.374
11
230.207
21
-210.376
0
LINE
8
BLACK
6
CONTINUOUS
10
230.207
20
-210.376
11
230.204
21
-210.378
0
LINE
8
BLACK
6
CONTINUOUS
10
230.204
20
-210.378
11
216.738
21
-223.844
0
LINE
8
BLACK
6
CONTINUOUS
10
216.738
20
-223.844
11
216.736
21
-223.846
0
LINE
8
BLACK
6
CONTINUOUS
10
216.736
20
-223.846
11
216.734
21
-223.848
0
LINE
8
BLACK
6
CONTINUOUS
10
216.734
20
-223.848
11
216.734
21
-223.848
0
LINE
8
BLACK
6
CONTINUOUS
10
216.734
20
-223.848
11
216.727
21
-223.854
0
LINE
8
BLACK
6
CONTINUOUS
10
216.727
20
-223.854
11
216.717
21
-223.859
0
LINE
8
BLACK
6
CONTINUOUS
10
216.717
20
-223.859
11
216.705
21
-223.863
0
LINE
8
BLACK
6
CONTINUOUS
10
216.705
20
-223.863
11
216.694
21
-223.864
0
LINE
8
BLACK
6
CONTINUOUS
10
216.694
20
-223.864
11
216.694
21
-223.864
0
LINE
8
BLACK
6
CONTINUOUS
10
216.694
20
-223.864
11
216.693
21
-223.864
0
LINE
8
BLACK
6
CONTINUOUS
10
216.693
20
-223.864
11
216.682
21
-223.863
0
LINE
8
BLACK
6
CONTINUOUS
10
216.682
20
-223.863
11
216.674
21
-223.86
0
LINE
8
BLACK
6
CONTINUOUS
10
216.674
20
-223.86
11
216.671
21
-223.859
0
LINE
8
BLACK
6
CONTINUOUS
10
216.671
20
-223.859
11
216.66
21
-223.854
0
LINE
8
BLACK
6
CONTINUOUS
10
216.66
20
-223.854
11
216.653
21
-223.848
0
LINE
8
BLACK
6
CONTINUOUS
10
216.653
20
-223.848
11
216.653
21
-223.848
0
LINE
8
BLACK
6
CONTINUOUS
10
216.653
20
-223.848
11
216.651
21
-223.846
0
LINE
8
BLACK
6
CONTINUOUS
10
216.651
20
-223.846
11
216.649
21
-223.844
0
LINE
8
BLACK
6
CONTINUOUS
10
216.649
20
-223.844
11
203.183
21
-210.378
0
LINE
8
BLACK
6
CONTINUOUS
10
203.183
20
-210.378
11
203.181
21
-210.376
0
LINE
8
BLACK
6
CONTINUOUS
10
203.181
20
-210.376
11
203.173
21
-210.367
0
LINE
8
BLACK
6
CONTINUOUS
10
203.173
20
-210.367
11
203.168
21
-210.356
0
LINE
8
BLACK
6
CONTINUOUS
10
203.168
20
-210.356
11
203.164
21
-210.345
0
LINE
8
BLACK
6
CONTINUOUS
10
203.164
20
-210.345
11
203.163
21
-210.333
0
LINE
8
BLACK
6
CONTINUOUS
10
203.163
20
-210.333
11
203.164
21
-210.321
0
LINE
8
BLACK
6
CONTINUOUS
10
203.164
20
-210.321
11
203.168
21
-210.31
0
LINE
8
BLACK
6
CONTINUOUS
10
203.168
20
-210.31
11
203.173
21
-210.301
0
LINE
8
BLACK
6
CONTINUOUS
10
203.173
20
-210.301
11
203.141
21
-210.332
0
LINE
8
BLACK
6
CONTINUOUS
10
203.141
20
-210.332
11
203.139
21
-210.334
0
LINE
8
BLACK
6
CONTINUOUS
10
203.139
20
-210.334
11
203.13
21
-210.342
0
LINE
8
BLACK
6
CONTINUOUS
10
203.13
20
-210.342
11
203.12
21
-210.347
0
LINE
8
BLACK
6
CONTINUOUS
10
203.12
20
-210.347
11
203.109
21
-210.351
0
LINE
8
BLACK
6
CONTINUOUS
10
203.109
20
-210.351
11
203.097
21
-210.352
0
LINE
8
BLACK
6
CONTINUOUS
10
203.097
20
-210.352
11
203.085
21
-210.351
0
LINE
8
BLACK
6
CONTINUOUS
10
203.085
20
-210.351
11
203.074
21
-210.347
0
LINE
8
BLACK
6
CONTINUOUS
10
203.074
20
-210.347
11
203.063
21
-210.342
0
LINE
8
BLACK
6
CONTINUOUS
10
203.063
20
-210.342
11
203.056
21
-210.336
0
LINE
8
BLACK
6
CONTINUOUS
10
203.056
20
-210.336
11
203.056
21
-210.336
0
LINE
8
BLACK
6
CONTINUOUS
10
203.056
20
-210.336
11
203.054
21
-210.334
0
LINE
8
BLACK
6
CONTINUOUS
10
203.054
20
-210.334
11
203.052
21
-210.332
0
LINE
8
BLACK
6
CONTINUOUS
10
203.052
20
-210.332
11
189.586
21
-196.866
0
LINE
8
BLACK
6
CONTINUOUS
10
189.586
20
-196.866
11
189.584
21
-196.864
0
LINE
8
BLACK
6
CONTINUOUS
10
189.584
20
-196.864
11
189.576
21
-196.855
0
LINE
8
BLACK
6
CONTINUOUS
10
189.576
20
-196.855
11
189.574
21
-196.85
0
LINE
8
BLACK
6
CONTINUOUS
10
189.574
20
-196.85
11
189.57
21
-196.848
0
LINE
8
BLACK
6
CONTINUOUS
10
189.57
20
-196.848
11
189.563
21
-196.843
0
LINE
8
BLACK
6
CONTINUOUS
10
189.563
20
-196.843
11
189.563
21
-196.843
0
LINE
8
BLACK
6
CONTINUOUS
10
189.563
20
-196.843
11
189.56
21
-196.841
0
LINE
8
BLACK
6
CONTINUOUS
10
189.56
20
-196.841
11
189.558
21
-196.838
0
LINE
8
BLACK
6
CONTINUOUS
10
189.558
20
-196.838
11
176.092
21
-183.372
0
LINE
8
BLACK
6
CONTINUOUS
10
176.092
20
-183.372
11
176.09
21
-183.37
0
LINE
8
BLACK
6
CONTINUOUS
10
176.09
20
-183.37
11
176.082
21
-183.361
0
LINE
8
BLACK
6
CONTINUOUS
10
176.082
20
-183.361
11
176.077
21
-183.351
0
LINE
8
BLACK
6
CONTINUOUS
10
176.077
20
-183.351
11
176.073
21
-183.339
0
LINE
8
BLACK
6
CONTINUOUS
10
176.073
20
-183.339
11
176.072
21
-183.328
0
LINE
8
BLACK
6
CONTINUOUS
10
176.072
20
-183.328
11
176.073
21
-183.316
0
LINE
8
BLACK
6
CONTINUOUS
10
176.073
20
-183.316
11
176.077
21
-183.305
0
LINE
8
BLACK
6
CONTINUOUS
10
176.077
20
-183.305
11
176.082
21
-183.294
0
LINE
8
BLACK
6
CONTINUOUS
10
176.082
20
-183.294
11
176.088
21
-183.287
0
LINE
8
BLACK
6
CONTINUOUS
10
176.088
20
-183.287
11
176.088
21
-183.287
0
LINE
8
BLACK
6
CONTINUOUS
10
176.088
20
-183.287
11
176.09
21
-183.285
0
LINE
8
BLACK
6
CONTINUOUS
10
176.09
20
-183.285
11
176.092
21
-183.283
0
LINE
8
BLACK
6
CONTINUOUS
10
176.092
20
-183.283
11
182.817
21
-176.558
0
LINE
8
BLACK
6
CONTINUOUS
10
182.817
20
-176.558
11
182.818
21
-176.557
0
LINE
8
BLACK
6
CONTINUOUS
10
182.818
20
-176.557
11
182.823
21
-176.55
0
LINE
8
BLACK
6
CONTINUOUS
10
182.823
20
-176.55
11
196.298
21
-163.076
0
LINE
8
BLACK
6
CONTINUOUS
10
196.298
20
-163.076
11
196.305
21
-163.07
0
LINE
8
BLACK
6
CONTINUOUS
10
196.305
20
-163.07
11
196.306
21
-163.07
0
LINE
8
BLACK
6
CONTINUOUS
10
196.306
20
-163.07
11
203.029
21
-156.347
0
LINE
8
BLACK
6
CONTINUOUS
10
203.029
20
-156.347
11
203.031
21
-156.344
0
LINE
8
BLACK
6
CONTINUOUS
10
203.031
20
-156.344
11
203.033
21
-156.342
0
LINE
8
BLACK
6
CONTINUOUS
10
203.033
20
-156.342
11
203.033
21
-156.342
0
LINE
8
BLACK
6
CONTINUOUS
10
203.033
20
-156.342
11
203.04
21
-156.337
0
LINE
8
BLACK
6
CONTINUOUS
10
203.04
20
-156.337
11
203.05
21
-156.331
0
LINE
8
BLACK
6
CONTINUOUS
10
203.05
20
-156.331
11
203.054
21
-156.33
0
LINE
8
BLACK
6
CONTINUOUS
10
203.054
20
-156.33
11
203.062
21
-156.328
0
LINE
8
BLACK
6
CONTINUOUS
10
203.062
20
-156.328
11
203.073
21
-156.327
0
LINE
8
BLACK
6
CONTINUOUS
10
203.073
20
-156.327
11
203.085
21
-156.328
0
LINE
8
BLACK
6
CONTINUOUS
10
203.085
20
-156.328
11
203.096
21
-156.331
0
LINE
8
BLACK
6
CONTINUOUS
10
203.096
20
-156.331
11
203.107
21
-156.337
0
LINE
8
BLACK
6
CONTINUOUS
10
203.107
20
-156.337
11
203.107
21
-156.337
0
LINE
8
BLACK
6
CONTINUOUS
10
203.107
20
-156.337
11
203.116
21
-156.344
0
LINE
8
BLACK
6
CONTINUOUS
10
203.116
20
-156.344
11
203.118
21
-156.347
0
LINE
8
BLACK
6
CONTINUOUS
10
203.118
20
-156.347
11
216.584
21
-169.813
0
LINE
8
BLACK
6
CONTINUOUS
10
216.584
20
-169.813
11
216.586
21
-169.815
0
LINE
8
BLACK
6
CONTINUOUS
10
216.586
20
-169.815
11
216.588
21
-169.817
0
LINE
8
BLACK
6
CONTINUOUS
10
216.588
20
-169.817
11
216.588
21
-169.817
0
LINE
8
BLACK
6
CONTINUOUS
10
216.588
20
-169.817
11
216.594
21
-169.824
0
LINE
8
BLACK
6
CONTINUOUS
10
216.594
20
-169.824
11
216.596
21
-169.828
0
LINE
8
BLACK
6
CONTINUOUS
10
216.596
20
-169.828
11
216.601
21
-169.83
0
LINE
8
BLACK
6
CONTINUOUS
10
216.601
20
-169.83
11
216.601
21
-169.83
0
LINE
8
BLACK
6
CONTINUOUS
10
216.601
20
-169.83
11
216.61
21
-169.838
0
LINE
8
BLACK
6
CONTINUOUS
10
216.61
20
-169.838
11
216.612
21
-169.84
0
LINE
8
BLACK
6
CONTINUOUS
10
216.612
20
-169.84
11
230.078
21
-183.307
0
LINE
8
BLACK
6
CONTINUOUS
10
230.078
20
-183.307
11
230.08
21
-183.308
0
LINE
8
BLACK
6
CONTINUOUS
10
230.08
20
-183.308
11
230.082
21
-183.311
0
LINE
8
BLACK
6
CONTINUOUS
10
230.082
20
-183.311
11
230.082
21
-183.311
0
LINE
8
BLACK
6
CONTINUOUS
10
230.082
20
-183.311
11
230.088
21
-183.318
0
LINE
8
BLACK
6
CONTINUOUS
10
230.088
20
-183.318
11
230.093
21
-183.328
0
LINE
8
BLACK
6
CONTINUOUS
10
230.093
20
-183.328
11
230.097
21
-183.339
0
LINE
8
BLACK
6
CONTINUOUS
10
230.097
20
-183.339
11
230.098
21
-183.351
0
LINE
8
BLACK
6
CONTINUOUS
10
230.098
20
-183.351
11
230.097
21
-183.363
0
LINE
8
BLACK
6
CONTINUOUS
10
230.097
20
-183.363
11
230.093
21
-183.374
0
LINE
8
BLACK
6
CONTINUOUS
10
230.093
20
-183.374
11
230.093
21
-183.374
0
LINE
8
BLACK
6
CONTINUOUS
10
230.093
20
-183.374
11
230.088
21
-183.384
0
LINE
8
BLACK
6
CONTINUOUS
10
230.088
20
-183.384
11
230.123
21
-183.348
0
LINE
8
BLACK
6
CONTINUOUS
10
230.123
20
-183.348
11
216.677
21
-169.902
0
LINE
8
BLACK
6
CONTINUOUS
10
216.677
20
-169.902
11
216.674
21
-169.9
0
LINE
8
BLACK
6
CONTINUOUS
10
216.674
20
-169.9
11
216.667
21
-169.891
0
LINE
8
BLACK
6
CONTINUOUS
10
216.667
20
-169.891
11
216.661
21
-169.88
0
LINE
8
BLACK
6
CONTINUOUS
10
216.661
20
-169.88
11
216.658
21
-169.869
0
LINE
8
BLACK
6
CONTINUOUS
10
216.658
20
-169.869
11
216.657
21
-169.857
0
LINE
8
BLACK
6
CONTINUOUS
10
216.657
20
-169.857
11
216.658
21
-169.845
0
LINE
8
BLACK
6
CONTINUOUS
10
216.658
20
-169.845
11
216.661
21
-169.834
0
LINE
8
BLACK
6
CONTINUOUS
10
216.661
20
-169.834
11
216.667
21
-169.824
0
LINE
8
BLACK
6
CONTINUOUS
10
216.667
20
-169.824
11
216.673
21
-169.817
0
LINE
8
BLACK
6
CONTINUOUS
10
216.673
20
-169.817
11
216.673
21
-169.817
0
LINE
8
BLACK
6
CONTINUOUS
10
216.673
20
-169.817
11
216.674
21
-169.815
0
LINE
8
BLACK
6
CONTINUOUS
10
216.674
20
-169.815
11
216.677
21
-169.813
0
LINE
8
BLACK
6
CONTINUOUS
10
216.677
20
-169.813
11
230.143
21
-156.347
0
LINE
8
BLACK
6
CONTINUOUS
10
230.143
20
-156.347
11
230.145
21
-156.344
0
LINE
8
BLACK
6
CONTINUOUS
10
230.145
20
-156.344
11
230.147
21
-156.342
0
LINE
8
BLACK
6
CONTINUOUS
10
230.147
20
-156.342
11
230.147
21
-156.342
0
LINE
8
BLACK
6
CONTINUOUS
10
230.147
20
-156.342
11
230.154
21
-156.337
0
LINE
8
BLACK
6
CONTINUOUS
10
230.154
20
-156.337
11
230.164
21
-156.331
0
LINE
8
BLACK
6
CONTINUOUS
10
230.164
20
-156.331
11
230.168
21
-156.33
0
LINE
8
BLACK
6
CONTINUOUS
10
230.168
20
-156.33
11
230.176
21
-156.328
0
LINE
8
BLACK
6
CONTINUOUS
10
230.176
20
-156.328
11
230.186
21
-156.327
0
LINE
8
BLACK
6
CONTINUOUS
10
230.186
20
-156.327
11
230.187
21
-156.327
0
LINE
8
BLACK
6
CONTINUOUS
10
230.187
20
-156.327
11
230.187
21
-156.327
0
LINE
8
BLACK
6
CONTINUOUS
10
230.187
20
-156.327
11
230.199
21
-156.328
0
LINE
8
BLACK
6
CONTINUOUS
10
203.308
20
-210.333
11
216.694
21
-223.719
0
LINE
8
BLACK
6
CONTINUOUS
10
216.694
20
-223.719
11
230.079
21
-210.333
0
LINE
8
BLACK
6
CONTINUOUS
10
230.079
20
-210.333
11
216.694
21
-196.948
0
LINE
8
BLACK
6
CONTINUOUS
10
216.694
20
-196.948
11
203.308
21
-210.333
0
LINE
8
BLACK
6
CONTINUOUS
10
216.802
20
-196.839
11
230.187
21
-210.225
0
LINE
8
BLACK
6
CONTINUOUS
10
230.187
20
-210.225
11
243.573
21
-196.839
0
LINE
8
BLACK
6
CONTINUOUS
10
243.573
20
-196.839
11
230.187
21
-183.454
0
LINE
8
BLACK
6
CONTINUOUS
10
230.187
20
-183.454
11
216.802
21
-196.839
0
LINE
8
BLACK
6
CONTINUOUS
10
189.711
20
-196.821
11
203.097
21
-210.207
0
LINE
8
BLACK
6
CONTINUOUS
10
203.097
20
-210.207
11
209.781
21
-203.522
0
LINE
8
BLACK
6
CONTINUOUS
10
209.781
20
-203.522
11
209.782
21
-203.521
0
LINE
8
BLACK
6
CONTINUOUS
10
209.782
20
-203.521
11
209.787
21
-203.515
0
LINE
8
BLACK
6
CONTINUOUS
10
209.787
20
-203.515
11
223.262
21
-190.04
0
LINE
8
BLACK
6
CONTINUOUS
10
223.262
20
-190.04
11
223.269
21
-190.034
0
LINE
8
BLACK
6
CONTINUOUS
10
223.269
20
-190.034
11
223.27
21
-190.034
0
LINE
8
BLACK
6
CONTINUOUS
10
223.27
20
-190.034
11
229.953
21
-183.351
0
LINE
8
BLACK
6
CONTINUOUS
10
229.953
20
-183.351
11
216.567
21
-169.965
0
LINE
8
BLACK
6
CONTINUOUS
10
216.567
20
-169.965
11
189.711
21
-196.821
0
LINE
8
BLACK
6
CONTINUOUS
10
216.661
20
-196.812
11
216.665
21
-196.81
0
LINE
8
BLACK
6
CONTINUOUS
10
216.665
20
-196.81
11
216.666
21
-196.807
0
LINE
8
BLACK
6
CONTINUOUS
10
216.666
20
-196.807
11
216.661
21
-196.812
0
LINE
8
BLACK
6
CONTINUOUS
10
230.296
20
-183.351
11
243.681
21
-196.737
0
LINE
8
BLACK
6
CONTINUOUS
10
243.681
20
-196.737
11
257.067
21
-183.351
0
LINE
8
BLACK
6
CONTINUOUS
10
257.067
20
-183.351
11
243.681
21
-169.965
0
LINE
8
BLACK
6
CONTINUOUS
10
243.681
20
-169.965
11
230.296
21
-183.351
0
LINE
8
BLACK
6
CONTINUOUS
10
176.217
20
-183.328
11
189.603
21
-196.713
0
LINE
8
BLACK
6
CONTINUOUS
10
189.603
20
-196.713
11
196.287
21
-190.029
0
LINE
8
BLACK
6
CONTINUOUS
10
196.287
20
-190.029
11
196.288
21
-190.028
0
LINE
8
BLACK
6
CONTINUOUS
10
196.288
20
-190.028
11
196.294
21
-190.021
0
LINE
8
BLACK
6
CONTINUOUS
10
196.294
20
-190.021
11
209.768
21
-176.546
0
LINE
8
BLACK
6
CONTINUOUS
10
209.768
20
-176.546
11
209.775
21
-176.541
0
LINE
8
BLACK
6
CONTINUOUS
10
209.775
20
-176.541
11
209.776
21
-176.54
0
LINE
8
BLACK
6
CONTINUOUS
10
209.776
20
-176.54
11
216.459
21
-169.857
0
LINE
8
BLACK
6
CONTINUOUS
10
216.459
20
-169.857
11
203.073
21
-156.472
0
LINE
8
BLACK
6
CONTINUOUS
10
203.073
20
-156.472
11
176.217
21
-183.328
0
LINE
8
BLACK
6
CONTINUOUS
10
216.802
20
-169.857
11
230.187
21
-183.243
0
LINE
8
BLACK
6
CONTINUOUS
10
230.187
20
-183.243
11
243.573
21
-169.857
0
LINE
8
BLACK
6
CONTINUOUS
10
243.573
20
-169.857
11
230.187
21
-156.472
0
LINE
8
BLACK
6
CONTINUOUS
10
230.187
20
-156.472
11
216.802
21
-169.857
0
LINE
8
BLACK
6
CONTINUOUS
10
165.099
20
-74.5451
11
165.099
21
-74.5451
0
LINE
8
BLACK
6
CONTINUOUS
10
165.099
20
-74.5451
11
165.108
21
-74.546
0
LINE
8
BLACK
6
CONTINUOUS
10
165.108
20
-74.546
11
165.119
21
-74.5494
0
LINE
8
BLACK
6
CONTINUOUS
10
165.119
20
-74.5494
11
165.13
21
-74.555
0
LINE
8
BLACK
6
CONTINUOUS
10
165.13
20
-74.555
11
165.139
21
-74.5625
0
LINE
8
BLACK
6
CONTINUOUS
10
165.139
20
-74.5625
11
165.146
21
-74.5716
0
LINE
8
BLACK
6
CONTINUOUS
10
165.146
20
-74.5716
11
165.152
21
-74.582
0
LINE
8
BLACK
6
CONTINUOUS
10
165.152
20
-74.582
11
165.155
21
-74.5934
0
LINE
8
BLACK
6
CONTINUOUS
10
165.155
20
-74.5934
11
165.157
21
-74.6051
0
LINE
8
BLACK
6
CONTINUOUS
10
165.157
20
-74.6051
11
165.156
21
-74.6081
0
LINE
8
BLACK
6
CONTINUOUS
10
165.156
20
-74.6081
11
165.156
21
-76.9301
0
LINE
8
BLACK
6
CONTINUOUS
10
165.156
20
-76.9301
11
184.143
21
-76.9301
0
LINE
8
BLACK
6
CONTINUOUS
10
184.143
20
-76.9301
11
184.146
21
-76.9298
0
LINE
8
BLACK
6
CONTINUOUS
10
184.146
20
-76.9298
11
184.149
21
-76.9301
0
LINE
8
BLACK
6
CONTINUOUS
10
184.149
20
-76.9301
11
184.149
21
-76.9301
0
LINE
8
BLACK
6
CONTINUOUS
10
184.149
20
-76.9301
11
184.158
21
-76.9309
0
LINE
8
BLACK
6
CONTINUOUS
10
184.158
20
-76.9309
11
184.169
21
-76.9344
0
LINE
8
BLACK
6
CONTINUOUS
10
184.169
20
-76.9344
11
184.18
21
-76.9399
0
LINE
8
BLACK
6
CONTINUOUS
10
184.18
20
-76.9399
11
184.189
21
-76.9474
0
LINE
8
BLACK
6
CONTINUOUS
10
184.189
20
-76.9474
11
184.196
21
-76.9566
0
LINE
8
BLACK
6
CONTINUOUS
10
184.196
20
-76.9566
11
184.202
21
-76.967
0
LINE
8
BLACK
6
CONTINUOUS
10
184.202
20
-76.967
11
184.205
21
-76.9783
0
LINE
8
BLACK
6
CONTINUOUS
10
184.205
20
-76.9783
11
184.207
21
-76.9901
0
LINE
8
BLACK
6
CONTINUOUS
10
184.207
20
-76.9901
11
184.206
21
-76.993
0
LINE
8
BLACK
6
CONTINUOUS
10
184.206
20
-76.993
11
184.206
21
-79.3076
0
LINE
8
BLACK
6
CONTINUOUS
10
184.206
20
-79.3076
11
203.19
21
-79.3076
0
LINE
8
BLACK
6
CONTINUOUS
10
203.19
20
-79.3076
11
203.193
21
-79.3073
0
LINE
8
BLACK
6
CONTINUOUS
10
203.193
20
-79.3073
11
203.195
21
-79.3076
0
LINE
8
BLACK
6
CONTINUOUS
10
203.195
20
-79.3076
11
203.195
21
-79.3076
0
LINE
8
BLACK
6
CONTINUOUS
10
203.195
20
-79.3076
11
203.204
21
-79.3085
0
LINE
8
BLACK
6
CONTINUOUS
10
203.204
20
-79.3085
11
203.214
21
-79.3113
0
LINE
8
BLACK
6
CONTINUOUS
10
203.214
20
-79.3113
11
222.243
21
-79.3113
0
LINE
8
BLACK
6
CONTINUOUS
10
222.243
20
-79.3113
11
222.246
21
-79.311
0
LINE
8
BLACK
6
CONTINUOUS
10
222.246
20
-79.311
11
222.249
21
-79.3113
0
LINE
8
BLACK
6
CONTINUOUS
10
222.249
20
-79.3113
11
222.249
21
-79.3113
0
LINE
8
BLACK
6
CONTINUOUS
10
222.249
20
-79.3113
11
222.258
21
-79.3122
0
LINE
8
BLACK
6
CONTINUOUS
10
222.258
20
-79.3122
11
222.269
21
-79.3156
0
LINE
8
BLACK
6
CONTINUOUS
10
222.269
20
-79.3156
11
222.28
21
-79.3212
0
LINE
8
BLACK
6
CONTINUOUS
10
222.28
20
-79.3212
11
222.289
21
-79.3287
0
LINE
8
BLACK
6
CONTINUOUS
10
222.289
20
-79.3287
11
222.296
21
-79.3378
0
LINE
8
BLACK
6
CONTINUOUS
10
222.296
20
-79.3378
11
222.302
21
-79.3482
0
LINE
8
BLACK
6
CONTINUOUS
10
222.302
20
-79.3482
11
222.305
21
-79.3595
0
LINE
8
BLACK
6
CONTINUOUS
10
222.305
20
-79.3595
11
222.307
21
-79.3713
0
LINE
8
BLACK
6
CONTINUOUS
10
222.307
20
-79.3713
11
222.306
21
-79.3743
0
LINE
8
BLACK
6
CONTINUOUS
10
222.306
20
-79.3743
11
222.306
21
-98.4096
0
LINE
8
BLACK
6
CONTINUOUS
10
222.306
20
-98.4096
11
222.307
21
-98.4107
0
LINE
8
BLACK
6
CONTINUOUS
10
222.307
20
-98.4107
11
222.307
21
-98.4176
0
LINE
8
BLACK
6
CONTINUOUS
10
222.307
20
-98.4176
11
222.308
21
-98.4225
0
LINE
8
BLACK
6
CONTINUOUS
10
222.308
20
-98.4225
11
222.307
21
-98.4254
0
LINE
8
BLACK
6
CONTINUOUS
10
222.307
20
-98.4254
11
222.307
21
-126.995
0
LINE
8
BLACK
6
CONTINUOUS
10
222.307
20
-126.995
11
222.308
21
-126.997
0
LINE
8
BLACK
6
CONTINUOUS
10
222.308
20
-126.997
11
222.307
21
-127
0
LINE
8
BLACK
6
CONTINUOUS
10
222.307
20
-127
11
222.307
21
-155.57
0
LINE
8
BLACK
6
CONTINUOUS
10
222.307
20
-155.57
11
222.308
21
-155.572
0
LINE
8
BLACK
6
CONTINUOUS
10
222.308
20
-155.572
11
222.307
21
-155.575
0
LINE
8
BLACK
6
CONTINUOUS
10
222.307
20
-155.575
11
222.307
21
-155.575
0
LINE
8
BLACK
6
CONTINUOUS
10
222.307
20
-155.575
11
222.307
21
-155.584
0
LINE
8
BLACK
6
CONTINUOUS
10
222.307
20
-155.584
11
222.303
21
-155.596
0
LINE
8
BLACK
6
CONTINUOUS
10
222.303
20
-155.596
11
222.298
21
-155.606
0
LINE
8
BLACK
6
CONTINUOUS
10
222.298
20
-155.606
11
222.29
21
-155.615
0
LINE
8
BLACK
6
CONTINUOUS
10
222.29
20
-155.615
11
222.281
21
-155.623
0
LINE
8
BLACK
6
CONTINUOUS
10
222.281
20
-155.623
11
222.271
21
-155.628
0
LINE
8
BLACK
6
CONTINUOUS
10
222.271
20
-155.628
11
222.259
21
-155.632
0
LINE
8
BLACK
6
CONTINUOUS
10
222.259
20
-155.632
11
222.247
21
-155.633
0
LINE
8
BLACK
6
CONTINUOUS
10
222.247
20
-155.633
11
222.245
21
-155.632
0
LINE
8
BLACK
6
CONTINUOUS
10
222.245
20
-155.632
11
203.2
21
-155.632
0
LINE
8
BLACK
6
CONTINUOUS
10
203.2
20
-155.632
11
203.197
21
-155.633
0
LINE
8
BLACK
6
CONTINUOUS
10
203.197
20
-155.633
11
203.186
21
-155.632
0
LINE
8
BLACK
6
CONTINUOUS
10
203.186
20
-155.632
11
203.185
21
-155.631
0
LINE
8
BLACK
6
CONTINUOUS
10
203.185
20
-155.631
11
184.206
21
-155.631
0
LINE
8
BLACK
6
CONTINUOUS
10
184.206
20
-155.631
11
184.206
21
-172.237
0
LINE
8
BLACK
6
CONTINUOUS
10
184.206
20
-172.237
11
184.207
21
-172.24
0
LINE
8
BLACK
6
CONTINUOUS
10
184.207
20
-172.24
11
184.206
21
-172.243
0
LINE
8
BLACK
6
CONTINUOUS
10
184.206
20
-172.243
11
184.206
21
-172.243
0
LINE
8
BLACK
6
CONTINUOUS
10
184.206
20
-172.243
11
184.205
21
-172.252
0
LINE
8
BLACK
6
CONTINUOUS
10
184.205
20
-172.252
11
184.202
21
-172.263
0
LINE
8
BLACK
6
CONTINUOUS
10
184.202
20
-172.263
11
184.196
21
-172.274
0
LINE
8
BLACK
6
CONTINUOUS
10
184.196
20
-172.274
11
184.189
21
-172.283
0
LINE
8
BLACK
6
CONTINUOUS
10
184.189
20
-172.283
11
184.18
21
-172.29
0
LINE
8
BLACK
6
CONTINUOUS
10
184.18
20
-172.29
11
184.169
21
-172.296
0
LINE
8
BLACK
6
CONTINUOUS
10
184.169
20
-172.296
11
184.158
21
-172.299
0
LINE
8
BLACK
6
CONTINUOUS
10
184.158
20
-172.299
11
184.146
21
-172.3
0
LINE
8
BLACK
6
CONTINUOUS
10
184.146
20
-172.3
11
184.143
21
-172.3
0
LINE
8
BLACK
6
CONTINUOUS
10
184.143
20
-172.3
11
165.099
21
-172.3
0
LINE
8
BLACK
6
CONTINUOUS
10
165.099
20
-172.3
11
165.096
21
-172.3
0
LINE
8
BLACK
6
CONTINUOUS
10
165.096
20
-172.3
11
165.084
21
-172.299
0
LINE
8
BLACK
6
CONTINUOUS
10
165.084
20
-172.299
11
165.073
21
-172.296
0
LINE
8
BLACK
6
CONTINUOUS
10
165.073
20
-172.296
11
165.063
21
-172.29
0
LINE
8
BLACK
6
CONTINUOUS
10
165.063
20
-172.29
11
165.054
21
-172.283
0
LINE
8
BLACK
6
CONTINUOUS
10
165.054
20
-172.283
11
165.046
21
-172.274
0
LINE
8
BLACK
6
CONTINUOUS
10
165.046
20
-172.274
11
165.041
21
-172.263
0
LINE
8
BLACK
6
CONTINUOUS
10
165.041
20
-172.263
11
165.037
21
-172.252
0
LINE
8
BLACK
6
CONTINUOUS
10
165.037
20
-172.252
11
165.036
21
-172.24
0
LINE
8
BLACK
6
CONTINUOUS
10
165.036
20
-172.24
11
165.036
21
-172.237
0
LINE
8
BLACK
6
CONTINUOUS
10
165.036
20
-172.237
11
165.036
21
-169.919
0
LINE
8
BLACK
6
CONTINUOUS
10
165.036
20
-169.919
11
146.106
21
-169.919
0
LINE
8
BLACK
6
CONTINUOUS
10
146.106
20
-169.919
11
146.106
21
-172.237
0
LINE
8
BLACK
6
CONTINUOUS
10
146.106
20
-172.237
11
146.107
21
-172.24
0
LINE
8
BLACK
6
CONTINUOUS
10
146.107
20
-172.24
11
146.106
21
-172.243
0
LINE
8
BLACK
6
CONTINUOUS
10
146.106
20
-172.243
11
146.106
21
-172.243
0
LINE
8
BLACK
6
CONTINUOUS
10
146.106
20
-172.243
11
146.105
21
-172.252
0
LINE
8
BLACK
6
CONTINUOUS
10
146.105
20
-172.252
11
146.102
21
-172.263
0
LINE
8
BLACK
6
CONTINUOUS
10
146.102
20
-172.263
11
146.096
21
-172.274
0
LINE
8
BLACK
6
CONTINUOUS
10
146.096
20
-172.274
11
146.089
21
-172.283
0
LINE
8
BLACK
6
CONTINUOUS
10
146.089
20
-172.283
11
146.08
21
-172.29
0
LINE
8
BLACK
6
CONTINUOUS
10
146.08
20
-172.29
11
146.069
21
-172.296
0
LINE
8
BLACK
6
CONTINUOUS
10
146.069
20
-172.296
11
146.058
21
-172.299
0
LINE
8
BLACK
6
CONTINUOUS
10
146.058
20
-172.299
11
146.046
21
-172.3
0
LINE
8
BLACK
6
CONTINUOUS
10
146.046
20
-172.3
11
146.043
21
-172.3
0
LINE
8
BLACK
6
CONTINUOUS
10
146.043
20
-172.3
11
127.056
21
-172.3
0
LINE
8
BLACK
6
CONTINUOUS
10
127.056
20
-172.3
11
127.056
21
-174.618
0
LINE
8
BLACK
6
CONTINUOUS
10
127.056
20
-174.618
11
127.057
21
-174.621
0
LINE
8
BLACK
6
CONTINUOUS
10
127.057
20
-174.621
11
127.056
21
-174.624
0
LINE
8
BLACK
6
CONTINUOUS
10
127.056
20
-174.624
11
127.056
21
-174.624
0
LINE
8
BLACK
6
CONTINUOUS
10
127.056
20
-174.624
11
127.055
21
-174.633
0
LINE
8
BLACK
6
CONTINUOUS
10
127.055
20
-174.633
11
127.052
21
-174.644
0
LINE
8
BLACK
6
CONTINUOUS
10
127.052
20
-174.644
11
127.046
21
-174.655
0
LINE
8
BLACK
6
CONTINUOUS
10
127.046
20
-174.655
11
127.039
21
-174.664
0
LINE
8
BLACK
6
CONTINUOUS
10
127.039
20
-174.664
11
127.03
21
-174.671
0
LINE
8
BLACK
6
CONTINUOUS
10
127.03
20
-174.671
11
127.019
21
-174.677
0
LINE
8
BLACK
6
CONTINUOUS
10
127.019
20
-174.677
11
127.008
21
-174.68
0
LINE
8
BLACK
6
CONTINUOUS
10
127.008
20
-174.68
11
126.996
21
-174.682
0
LINE
8
BLACK
6
CONTINUOUS
10
126.996
20
-174.682
11
126.993
21
-174.681
0
LINE
8
BLACK
6
CONTINUOUS
10
126.993
20
-174.681
11
107.949
21
-174.681
0
LINE
8
BLACK
6
CONTINUOUS
10
107.949
20
-174.681
11
107.946
21
-174.682
0
LINE
8
BLACK
6
CONTINUOUS
10
107.946
20
-174.682
11
107.943
21
-174.681
0
LINE
8
BLACK
6
CONTINUOUS
10
107.943
20
-174.681
11
88.8992
21
-174.681
0
LINE
8
BLACK
6
CONTINUOUS
10
88.8992
20
-174.681
11
88.8963
21
-174.682
0
LINE
8
BLACK
6
CONTINUOUS
10
88.8963
20
-174.682
11
88.8845
21
-174.68
0
LINE
8
BLACK
6
CONTINUOUS
10
88.8845
20
-174.68
11
88.8732
21
-174.677
0
LINE
8
BLACK
6
CONTINUOUS
10
88.8732
20
-174.677
11
88.8628
21
-174.671
0
LINE
8
BLACK
6
CONTINUOUS
10
88.8628
20
-174.671
11
88.8536
21
-174.664
0
LINE
8
BLACK
6
CONTINUOUS
10
88.8536
20
-174.664
11
88.8461
21
-174.655
0
LINE
8
BLACK
6
CONTINUOUS
10
88.8461
20
-174.655
11
88.8406
21
-174.644
0
LINE
8
BLACK
6
CONTINUOUS
10
88.8406
20
-174.644
11
88.8371
21
-174.633
0
LINE
8
BLACK
6
CONTINUOUS
10
88.8371
20
-174.633
11
88.836
21
-174.621
0
LINE
8
BLACK
6
CONTINUOUS
10
88.836
20
-174.621
11
88.8363
21
-174.618
0
LINE
8
BLACK
6
CONTINUOUS
10
88.8363
20
-174.618
11
88.8363
21
-155.632
0
LINE
8
BLACK
6
CONTINUOUS
10
88.8363
20
-155.632
11
79.3754
21
-155.632
0
LINE
8
BLACK
6
CONTINUOUS
10
79.3754
20
-155.632
11
79.3725
21
-155.633
0
LINE
8
BLACK
6
CONTINUOUS
10
79.3725
20
-155.633
11
79.3607
21
-155.632
0
LINE
8
BLACK
6
CONTINUOUS
10
79.3607
20
-155.632
11
79.3494
21
-155.628
0
LINE
8
BLACK
6
CONTINUOUS
10
79.3494
20
-155.628
11
79.339
21
-155.623
0
LINE
8
BLACK
6
CONTINUOUS
10
79.339
20
-155.623
11
79.3298
21
-155.615
0
LINE
8
BLACK
6
CONTINUOUS
10
79.3298
20
-155.615
11
79.3223
21
-155.606
0
LINE
8
BLACK
6
CONTINUOUS
10
79.3223
20
-155.606
11
79.3217
21
-155.605
0
LINE
8
BLACK
6
CONTINUOUS
10
79.3217
20
-155.605
11
79.3168
21
-155.596
0
LINE
8
BLACK
6
CONTINUOUS
10
79.3168
20
-155.596
11
79.3133
21
-155.584
0
LINE
8
BLACK
6
CONTINUOUS
10
79.3133
20
-155.584
11
79.3122
21
-155.572
0
LINE
8
BLACK
6
CONTINUOUS
10
79.3122
20
-155.572
11
79.3125
21
-155.57
0
LINE
8
BLACK
6
CONTINUOUS
10
79.3125
20
-155.57
11
79.3125
21
-136.525
0
LINE
8
BLACK
6
CONTINUOUS
10
79.3125
20
-136.525
11
79.3122
21
-136.522
0
LINE
8
BLACK
6
CONTINUOUS
10
79.3122
20
-136.522
11
79.3125
21
-136.52
0
LINE
8
BLACK
6
CONTINUOUS
10
79.3125
20
-136.52
11
79.3125
21
-117.475
0
LINE
8
BLACK
6
CONTINUOUS
10
79.3125
20
-117.475
11
79.3122
21
-117.472
0
LINE
8
BLACK
6
CONTINUOUS
10
79.3122
20
-117.472
11
79.3125
21
-117.47
0
LINE
8
BLACK
6
CONTINUOUS
10
79.3125
20
-117.47
11
79.3125
21
-98.4254
0
LINE
8
BLACK
6
CONTINUOUS
10
79.3125
20
-98.4254
11
79.3122
21
-98.4225
0
LINE
8
BLACK
6
CONTINUOUS
10
79.3122
20
-98.4225
11
79.3125
21
-98.4195
0
LINE
8
BLACK
6
CONTINUOUS
10
79.3125
20
-98.4195
11
79.3125
21
-79.3754
0
LINE
8
BLACK
6
CONTINUOUS
10
79.3125
20
-79.3754
11
79.3122
21
-79.3725
0
LINE
8
BLACK
6
CONTINUOUS
10
79.3122
20
-79.3725
11
79.3133
21
-79.3607
0
LINE
8
BLACK
6
CONTINUOUS
10
79.3133
20
-79.3607
11
79.3168
21
-79.3494
0
LINE
8
BLACK
6
CONTINUOUS
10
79.3168
20
-79.3494
11
79.3223
21
-79.339
0
LINE
8
BLACK
6
CONTINUOUS
10
79.3223
20
-79.339
11
79.3298
21
-79.3298
0
LINE
8
BLACK
6
CONTINUOUS
10
79.3298
20
-79.3298
11
79.339
21
-79.3223
0
LINE
8
BLACK
6
CONTINUOUS
10
79.339
20
-79.3223
11
79.3494
21
-79.3168
0
LINE
8
BLACK
6
CONTINUOUS
10
79.3494
20
-79.3168
11
79.3607
21
-79.3133
0
LINE
8
BLACK
6
CONTINUOUS
10
79.3607
20
-79.3133
11
79.3695
21
-79.3125
0
LINE
8
BLACK
6
CONTINUOUS
10
79.3695
20
-79.3125
11
79.3695
21
-79.3125
0
LINE
8
BLACK
6
CONTINUOUS
10
79.3695
20
-79.3125
11
79.3725
21
-79.3122
0
LINE
8
BLACK
6
CONTINUOUS
10
79.3725
20
-79.3122
11
79.3754
21
-79.3125
0
LINE
8
BLACK
6
CONTINUOUS
10
79.3754
20
-79.3125
11
107.934
21
-79.3125
0
LINE
8
BLACK
6
CONTINUOUS
10
107.934
20
-79.3125
11
107.934
21
-79.3122
0
LINE
8
BLACK
6
CONTINUOUS
10
107.934
20
-79.3122
11
107.943
21
-79.3113
0
LINE
8
BLACK
6
CONTINUOUS
10
107.943
20
-79.3113
11
107.943
21
-79.3113
0
LINE
8
BLACK
6
CONTINUOUS
10
107.943
20
-79.3113
11
107.946
21
-79.311
0
LINE
8
BLACK
6
CONTINUOUS
10
107.946
20
-79.311
11
107.949
21
-79.3113
0
LINE
8
BLACK
6
CONTINUOUS
10
107.949
20
-79.3113
11
126.936
21
-79.3113
0
LINE
8
BLACK
6
CONTINUOUS
10
126.936
20
-79.3113
11
126.936
21
-76.993
0
LINE
8
BLACK
6
CONTINUOUS
10
126.936
20
-76.993
11
126.936
21
-76.9901
0
LINE
8
BLACK
6
CONTINUOUS
10
126.936
20
-76.9901
11
126.937
21
-76.9783
0
LINE
8
BLACK
6
CONTINUOUS
10
126.937
20
-76.9783
11
126.941
21
-76.967
0
LINE
8
BLACK
6
CONTINUOUS
10
126.941
20
-76.967
11
126.946
21
-76.9566
0
LINE
8
BLACK
6
CONTINUOUS
10
126.946
20
-76.9566
11
126.954
21
-76.9474
0
LINE
8
BLACK
6
CONTINUOUS
10
126.954
20
-76.9474
11
126.963
21
-76.9399
0
LINE
8
BLACK
6
CONTINUOUS
10
126.963
20
-76.9399
11
126.973
21
-76.9344
0
LINE
8
BLACK
6
CONTINUOUS
10
126.973
20
-76.9344
11
126.984
21
-76.9309
0
LINE
8
BLACK
6
CONTINUOUS
10
126.984
20
-76.9309
11
126.993
21
-76.9301
0
LINE
8
BLACK
6
CONTINUOUS
10
126.993
20
-76.9301
11
126.993
21
-76.9301
0
LINE
8
BLACK
6
CONTINUOUS
10
126.993
20
-76.9301
11
126.996
21
-76.9298
0
LINE
8
BLACK
6
CONTINUOUS
10
126.996
20
-76.9298
11
126.999
21
-76.9301
0
LINE
8
BLACK
6
CONTINUOUS
10
126.999
20
-76.9301
11
145.986
21
-76.9301
0
LINE
8
BLACK
6
CONTINUOUS
10
145.986
20
-76.9301
11
145.986
21
-74.6081
0
LINE
8
BLACK
6
CONTINUOUS
10
145.986
20
-74.6081
11
145.986
21
-74.6051
0
LINE
8
BLACK
6
CONTINUOUS
10
145.986
20
-74.6051
11
145.987
21
-74.5934
0
LINE
8
BLACK
6
CONTINUOUS
10
145.987
20
-74.5934
11
145.991
21
-74.582
0
LINE
8
BLACK
6
CONTINUOUS
10
145.991
20
-74.582
11
145.996
21
-74.5716
0
LINE
8
BLACK
6
CONTINUOUS
10
145.996
20
-74.5716
11
146.004
21
-74.5625
0
LINE
8
BLACK
6
CONTINUOUS
10
146.004
20
-74.5625
11
146.013
21
-74.555
0
LINE
8
BLACK
6
CONTINUOUS
10
146.013
20
-74.555
11
146.023
21
-74.5494
0
LINE
8
BLACK
6
CONTINUOUS
10
146.023
20
-74.5494
11
146.034
21
-74.546
0
LINE
8
BLACK
6
CONTINUOUS
10
146.034
20
-74.546
11
146.043
21
-74.5451
0
LINE
8
BLACK
6
CONTINUOUS
10
146.043
20
-74.5451
11
146.043
21
-74.5451
0
LINE
8
BLACK
6
CONTINUOUS
10
146.043
20
-74.5451
11
146.046
21
-74.5448
0
LINE
8
BLACK
6
CONTINUOUS
10
146.046
20
-74.5448
11
146.049
21
-74.5451
0
LINE
8
BLACK
6
CONTINUOUS
10
146.049
20
-74.5451
11
165.093
21
-74.5451
0
LINE
8
BLACK
6
CONTINUOUS
10
165.093
20
-74.5451
11
165.096
21
-74.5448
0
LINE
8
BLACK
6
CONTINUOUS
10
165.096
20
-74.5448
11
165.099
21
-74.5451
0
LINE
8
BLACK
6
CONTINUOUS
10
108.006
20
-155.631
11
108.006
21
-174.561
0
LINE
8
BLACK
6
CONTINUOUS
10
108.006
20
-174.561
11
126.936
21
-174.561
0
LINE
8
BLACK
6
CONTINUOUS
10
126.936
20
-174.561
11
126.936
21
-172.243
0
LINE
8
BLACK
6
CONTINUOUS
10
126.936
20
-172.243
11
126.936
21
-172.24
0
LINE
8
BLACK
6
CONTINUOUS
10
126.936
20
-172.24
11
126.936
21
-172.237
0
LINE
8
BLACK
6
CONTINUOUS
10
126.936
20
-172.237
11
126.936
21
-155.631
0
LINE
8
BLACK
6
CONTINUOUS
10
126.936
20
-155.631
11
108.006
21
-155.631
0
LINE
8
BLACK
6
CONTINUOUS
10
88.9563
20
-155.632
11
88.9563
21
-174.561
0
LINE
8
BLACK
6
CONTINUOUS
10
88.9563
20
-174.561
11
107.886
21
-174.561
0
LINE
8
BLACK
6
CONTINUOUS
10
107.886
20
-174.561
11
107.886
21
-155.632
0
LINE
8
BLACK
6
CONTINUOUS
10
107.886
20
-155.632
11
88.9563
21
-155.632
0
LINE
8
BLACK
6
CONTINUOUS
10
165.156
20
-153.25
11
165.156
21
-172.18
0
LINE
8
BLACK
6
CONTINUOUS
10
165.156
20
-172.18
11
184.086
21
-172.18
0
LINE
8
BLACK
6
CONTINUOUS
10
184.086
20
-172.18
11
184.086
21
-155.574
0
LINE
8
BLACK
6
CONTINUOUS
10
184.086
20
-155.574
11
184.086
21
-155.571
0
LINE
8
BLACK
6
CONTINUOUS
10
184.086
20
-155.571
11
184.086
21
-155.568
0
LINE
8
BLACK
6
CONTINUOUS
10
184.086
20
-155.568
11
184.086
21
-153.25
0
LINE
8
BLACK
6
CONTINUOUS
10
184.086
20
-153.25
11
165.156
21
-153.25
0
LINE
8
BLACK
6
CONTINUOUS
10
127.056
20
-153.25
11
127.056
21
-155.568
0
LINE
8
BLACK
6
CONTINUOUS
10
127.056
20
-155.568
11
127.057
21
-155.571
0
LINE
8
BLACK
6
CONTINUOUS
10
127.057
20
-155.571
11
127.056
21
-155.574
0
LINE
8
BLACK
6
CONTINUOUS
10
127.056
20
-155.574
11
127.056
21
-172.18
0
LINE
8
BLACK
6
CONTINUOUS
10
127.056
20
-172.18
11
145.986
21
-172.18
0
LINE
8
BLACK
6
CONTINUOUS
10
145.986
20
-172.18
11
145.986
21
-169.88
0
LINE
8
BLACK
6
CONTINUOUS
10
145.986
20
-169.88
11
145.983
21
-169.871
0
LINE
8
BLACK
6
CONTINUOUS
10
145.983
20
-169.871
11
145.982
21
-169.859
0
LINE
8
BLACK
6
CONTINUOUS
10
145.982
20
-169.859
11
145.983
21
-169.856
0
LINE
8
BLACK
6
CONTINUOUS
10
145.983
20
-169.856
11
145.983
21
-153.25
0
LINE
8
BLACK
6
CONTINUOUS
10
145.983
20
-153.25
11
127.056
21
-153.25
0
LINE
8
BLACK
6
CONTINUOUS
10
146.106
20
-150.869
11
146.106
21
-153.187
0
LINE
8
BLACK
6
CONTINUOUS
10
146.106
20
-153.187
11
146.107
21
-153.19
0
LINE
8
BLACK
6
CONTINUOUS
10
146.107
20
-153.19
11
146.106
21
-153.193
0
LINE
8
BLACK
6
CONTINUOUS
10
146.106
20
-153.193
11
146.106
21
-169.799
0
LINE
8
BLACK
6
CONTINUOUS
10
146.106
20
-169.799
11
165.033
21
-169.799
0
LINE
8
BLACK
6
CONTINUOUS
10
165.033
20
-169.799
11
165.033
21
-150.869
0
LINE
8
BLACK
6
CONTINUOUS
10
165.033
20
-150.869
11
146.106
21
-150.869
0
LINE
8
BLACK
6
CONTINUOUS
10
203.257
20
-127.057
11
203.257
21
-155.512
0
LINE
8
BLACK
6
CONTINUOUS
10
203.257
20
-155.512
11
222.187
21
-155.512
0
LINE
8
BLACK
6
CONTINUOUS
10
222.187
20
-155.512
11
222.187
21
-127.057
0
LINE
8
BLACK
6
CONTINUOUS
10
222.187
20
-127.057
11
203.257
21
-127.057
0
LINE
8
BLACK
6
CONTINUOUS
10
79.4325
20
-136.582
11
79.4325
21
-155.512
0
LINE
8
BLACK
6
CONTINUOUS
10
79.4325
20
-155.512
11
88.8836
21
-155.512
0
LINE
8
BLACK
6
CONTINUOUS
10
88.8836
20
-155.512
11
88.8845
21
-155.512
0
LINE
8
BLACK
6
CONTINUOUS
10
88.8845
20
-155.512
11
88.8933
21
-155.511
0
LINE
8
BLACK
6
CONTINUOUS
10
88.8933
20
-155.511
11
88.8933
21
-155.511
0
LINE
8
BLACK
6
CONTINUOUS
10
88.8933
20
-155.511
11
88.8963
21
-155.511
0
LINE
8
BLACK
6
CONTINUOUS
10
88.8963
20
-155.511
11
88.8992
21
-155.511
0
LINE
8
BLACK
6
CONTINUOUS
10
88.8992
20
-155.511
11
107.886
21
-155.511
0
LINE
8
BLACK
6
CONTINUOUS
10
107.886
20
-155.511
11
107.886
21
-136.582
0
LINE
8
BLACK
6
CONTINUOUS
10
107.886
20
-136.582
11
79.4325
21
-136.582
0
LINE
8
BLACK
6
CONTINUOUS
10
184.206
20
-136.581
11
184.206
21
-153.187
0
LINE
8
BLACK
6
CONTINUOUS
10
184.206
20
-153.187
11
184.207
21
-153.19
0
LINE
8
BLACK
6
CONTINUOUS
10
184.207
20
-153.19
11
184.206
21
-153.193
0
LINE
8
BLACK
6
CONTINUOUS
10
184.206
20
-153.193
11
184.206
21
-155.511
0
LINE
8
BLACK
6
CONTINUOUS
10
184.206
20
-155.511
11
203.136
21
-155.511
0
LINE
8
BLACK
6
CONTINUOUS
10
203.136
20
-155.511
11
203.136
21
-136.581
0
LINE
8
BLACK
6
CONTINUOUS
10
203.136
20
-136.581
11
184.206
21
-136.581
0
LINE
8
BLACK
6
CONTINUOUS
10
108.007
20
-136.581
11
108.007
21
-155.511
0
LINE
8
BLACK
6
CONTINUOUS
10
108.007
20
-155.511
11
126.936
21
-155.511
0
LINE
8
BLACK
6
CONTINUOUS
10
126.936
20
-155.511
11
126.936
21
-153.193
0
LINE
8
BLACK
6
CONTINUOUS
10
126.936
20
-153.193
11
126.936
21
-153.19
0
LINE
8
BLACK
6
CONTINUOUS
10
126.936
20
-153.19
11
126.936
21
-153.187
0
LINE
8
BLACK
6
CONTINUOUS
10
126.936
20
-153.187
11
126.936
21
-136.581
0
LINE
8
BLACK
6
CONTINUOUS
10
126.936
20
-136.581
11
108.007
21
-136.581
0
LINE
8
BLACK
6
CONTINUOUS
10
165.156
20
-134.2
11
165.156
21
-150.806
0
LINE
8
BLACK
6
CONTINUOUS
10
165.156
20
-150.806
11
165.157
21
-150.809
0
LINE
8
BLACK
6
CONTINUOUS
10
165.157
20
-150.809
11
165.156
21
-150.812
0
LINE
8
BLACK
6
CONTINUOUS
10
165.156
20
-150.812
11
165.156
21
-153.13
0
LINE
8
BLACK
6
CONTINUOUS
10
165.156
20
-153.13
11
184.086
21
-153.13
0
LINE
8
BLACK
6
CONTINUOUS
10
184.086
20
-153.13
11
184.086
21
-144.856
0
LINE
8
BLACK
6
CONTINUOUS
10
184.086
20
-144.856
11
184.086
21
-136.524
0
LINE
8
BLACK
6
CONTINUOUS
10
184.086
20
-136.524
11
184.086
21
-136.521
0
LINE
8
BLACK
6
CONTINUOUS
10
184.086
20
-136.521
11
184.086
21
-136.518
0
LINE
8
BLACK
6
CONTINUOUS
10
184.086
20
-136.518
11
184.086
21
-134.2
0
LINE
8
BLACK
6
CONTINUOUS
10
184.086
20
-134.2
11
165.156
21
-134.2
0
LINE
8
BLACK
6
CONTINUOUS
10
127.056
20
-134.2
11
127.056
21
-136.518
0
LINE
8
BLACK
6
CONTINUOUS
10
127.056
20
-136.518
11
127.057
21
-136.521
0
LINE
8
BLACK
6
CONTINUOUS
10
127.057
20
-136.521
11
127.056
21
-136.524
0
LINE
8
BLACK
6
CONTINUOUS
10
127.056
20
-136.524
11
127.056
21
-153.13
0
LINE
8
BLACK
6
CONTINUOUS
10
127.056
20
-153.13
11
145.983
21
-153.13
0
LINE
8
BLACK
6
CONTINUOUS
10
145.983
20
-153.13
11
145.983
21
-150.812
0
LINE
8
BLACK
6
CONTINUOUS
10
145.983
20
-150.812
11
145.982
21
-150.809
0
LINE
8
BLACK
6
CONTINUOUS
10
145.982
20
-150.809
11
145.983
21
-150.797
0
LINE
8
BLACK
6
CONTINUOUS
10
145.983
20
-150.797
11
145.986
21
-150.788
0
LINE
8
BLACK
6
CONTINUOUS
10
145.986
20
-150.788
11
145.986
21
-134.2
0
LINE
8
BLACK
6
CONTINUOUS
10
145.986
20
-134.2
11
127.056
21
-134.2
0
LINE
8
BLACK
6
CONTINUOUS
10
146.106
20
-131.819
11
146.106
21
-134.137
0
LINE
8
BLACK
6
CONTINUOUS
10
146.106
20
-134.137
11
146.107
21
-134.14
0
LINE
8
BLACK
6
CONTINUOUS
10
146.107
20
-134.14
11
146.106
21
-134.143
0
LINE
8
BLACK
6
CONTINUOUS
10
146.106
20
-134.143
11
146.106
21
-150.749
0
LINE
8
BLACK
6
CONTINUOUS
10
146.106
20
-150.749
11
165.036
21
-150.749
0
LINE
8
BLACK
6
CONTINUOUS
10
165.036
20
-150.749
11
165.036
21
-142.474
0
LINE
8
BLACK
6
CONTINUOUS
10
165.036
20
-142.474
11
165.036
21
-134.143
0
LINE
8
BLACK
6
CONTINUOUS
10
165.036
20
-134.143
11
165.036
21
-134.14
0
LINE
8
BLACK
6
CONTINUOUS
10
165.036
20
-134.14
11
165.036
21
-134.137
0
LINE
8
BLACK
6
CONTINUOUS
10
165.036
20
-134.137
11
165.036
21
-131.819
0
LINE
8
BLACK
6
CONTINUOUS
10
165.036
20
-131.819
11
146.106
21
-131.819
0
LINE
8
BLACK
6
CONTINUOUS
10
79.4325
20
-117.532
11
79.4325
21
-136.462
0
LINE
8
BLACK
6
CONTINUOUS
10
79.4325
20
-136.462
11
107.886
21
-136.462
0
LINE
8
BLACK
6
CONTINUOUS
10
107.886
20
-136.462
11
107.886
21
-117.532
0
LINE
8
BLACK
6
CONTINUOUS
10
107.886
20
-117.532
11
79.4325
21
-117.532
0
LINE
8
BLACK
6
CONTINUOUS
10
184.206
20
-117.531
11
184.206
21
-134.137
0
LINE
8
BLACK
6
CONTINUOUS
10
184.206
20
-134.137
11
184.207
21
-134.14
0
LINE
8
BLACK
6
CONTINUOUS
10
184.207
20
-134.14
11
184.206
21
-134.143
0
LINE
8
BLACK
6
CONTINUOUS
10
184.206
20
-134.143
11
184.206
21
-136.461
0
LINE
8
BLACK
6
CONTINUOUS
10
184.206
20
-136.461
11
203.136
21
-136.461
0
LINE
8
BLACK
6
CONTINUOUS
10
203.136
20
-136.461
11
203.136
21
-117.531
0
LINE
8
BLACK
6
CONTINUOUS
10
203.136
20
-117.531
11
184.206
21
-117.531
0
LINE
8
BLACK
6
CONTINUOUS
10
108.007
20
-117.531
11
108.007
21
-136.461
0
LINE
8
BLACK
6
CONTINUOUS
10
108.007
20
-136.461
11
126.936
21
-136.461
0
LINE
8
BLACK
6
CONTINUOUS
10
126.936
20
-136.461
11
126.936
21
-134.143
0
LINE
8
BLACK
6
CONTINUOUS
10
126.936
20
-134.143
11
126.936
21
-134.14
0
LINE
8
BLACK
6
CONTINUOUS
10
126.936
20
-134.14
11
126.936
21
-134.137
0
LINE
8
BLACK
6
CONTINUOUS
10
126.936
20
-134.137
11
126.936
21
-117.531
0
LINE
8
BLACK
6
CONTINUOUS
10
126.936
20
-117.531
11
108.007
21
-117.531
0
LINE
8
BLACK
6
CONTINUOUS
10
165.156
20
-115.15
11
165.156
21
-131.756
0
LINE
8
BLACK
6
CONTINUOUS
10
165.156
20
-131.756
11
165.157
21
-131.759
0
LINE
8
BLACK
6
CONTINUOUS
10
165.157
20
-131.759
11
165.156
21
-131.762
0
LINE
8
BLACK
6
CONTINUOUS
10
165.156
20
-131.762
11
165.156
21
-134.08
0
LINE
8
BLACK
6
CONTINUOUS
10
165.156
20
-134.08
11
184.086
21
-134.08
0
LINE
8
BLACK
6
CONTINUOUS
10
184.086
20
-134.08
11
184.086
21
-125.806
0
LINE
8
BLACK
6
CONTINUOUS
10
184.086
20
-125.806
11
184.086
21
-117.474
0
LINE
8
BLACK
6
CONTINUOUS
10
184.086
20
-117.474
11
184.086
21
-117.471
0
LINE
8
BLACK
6
CONTINUOUS
10
184.086
20
-117.471
11
184.086
21
-117.468
0
LINE
8
BLACK
6
CONTINUOUS
10
184.086
20
-117.468
11
184.086
21
-115.15
0
LINE
8
BLACK
6
CONTINUOUS
10
184.086
20
-115.15
11
165.156
21
-115.15
0
LINE
8
BLACK
6
CONTINUOUS
10
127.056
20
-115.15
11
127.056
21
-117.468
0
LINE
8
BLACK
6
CONTINUOUS
10
127.056
20
-117.468
11
127.057
21
-117.471
0
LINE
8
BLACK
6
CONTINUOUS
10
127.057
20
-117.471
11
127.056
21
-117.474
0
LINE
8
BLACK
6
CONTINUOUS
10
127.056
20
-117.474
11
127.056
21
-134.08
0
LINE
8
BLACK
6
CONTINUOUS
10
127.056
20
-134.08
11
145.986
21
-134.08
0
LINE
8
BLACK
6
CONTINUOUS
10
145.986
20
-134.08
11
145.986
21
-131.762
0
LINE
8
BLACK
6
CONTINUOUS
10
145.986
20
-131.762
11
145.986
21
-131.759
0
LINE
8
BLACK
6
CONTINUOUS
10
145.986
20
-131.759
11
145.986
21
-131.756
0
LINE
8
BLACK
6
CONTINUOUS
10
145.986
20
-131.756
11
145.986
21
-115.15
0
LINE
8
BLACK
6
CONTINUOUS
10
145.986
20
-115.15
11
127.056
21
-115.15
0
LINE
8
BLACK
6
CONTINUOUS
10
146.106
20
-112.769
11
146.106
21
-115.087
0
LINE
8
BLACK
6
CONTINUOUS
10
146.106
20
-115.087
11
146.107
21
-115.09
0
LINE
8
BLACK
6
CONTINUOUS
10
146.107
20
-115.09
11
146.106
21
-115.093
0
LINE
8
BLACK
6
CONTINUOUS
10
146.106
20
-115.093
11
146.106
21
-131.699
0
LINE
8
BLACK
6
CONTINUOUS
10
146.106
20
-131.699
11
165.036
21
-131.699
0
LINE
8
BLACK
6
CONTINUOUS
10
165.036
20
-131.699
11
165.036
21
-123.424
0
LINE
8
BLACK
6
CONTINUOUS
10
165.036
20
-123.424
11
165.036
21
-115.093
0
LINE
8
BLACK
6
CONTINUOUS
10
165.036
20
-115.093
11
165.036
21
-115.09
0
LINE
8
BLACK
6
CONTINUOUS
10
165.036
20
-115.09
11
165.036
21
-115.087
0
LINE
8
BLACK
6
CONTINUOUS
10
165.036
20
-115.087
11
165.036
21
-112.769
0
LINE
8
BLACK
6
CONTINUOUS
10
165.036
20
-112.769
11
146.106
21
-112.769
0
LINE
8
BLACK
6
CONTINUOUS
10
203.257
20
-98.4825
11
203.257
21
-126.937
0
LINE
8
BLACK
6
CONTINUOUS
10
203.257
20
-126.937
11
222.187
21
-126.937
0
LINE
8
BLACK
6
CONTINUOUS
10
222.187
20
-126.937
11
222.187
21
-98.4825
0
LINE
8
BLACK
6
CONTINUOUS
10
222.187
20
-98.4825
11
203.257
21
-98.4825
0
LINE
8
BLACK
6
CONTINUOUS
10
79.4325
20
-98.4825
11
79.4325
21
-117.412
0
LINE
8
BLACK
6
CONTINUOUS
10
79.4325
20
-117.412
11
107.886
21
-117.412
0
LINE
8
BLACK
6
CONTINUOUS
10
107.886
20
-117.412
11
107.886
21
-98.4825
0
LINE
8
BLACK
6
CONTINUOUS
10
107.886
20
-98.4825
11
79.4325
21
-98.4825
0
LINE
8
BLACK
6
CONTINUOUS
10
184.206
20
-98.4813
11
184.206
21
-115.087
0
LINE
8
BLACK
6
CONTINUOUS
10
184.206
20
-115.087
11
184.207
21
-115.09
0
LINE
8
BLACK
6
CONTINUOUS
10
184.207
20
-115.09
11
184.206
21
-115.093
0
LINE
8
BLACK
6
CONTINUOUS
10
184.206
20
-115.093
11
184.206
21
-117.411
0
LINE
8
BLACK
6
CONTINUOUS
10
184.206
20
-117.411
11
203.136
21
-117.411
0
LINE
8
BLACK
6
CONTINUOUS
10
203.136
20
-117.411
11
203.136
21
-98.4813
0
LINE
8
BLACK
6
CONTINUOUS
10
203.136
20
-98.4813
11
184.206
21
-98.4813
0
LINE
8
BLACK
6
CONTINUOUS
10
108.007
20
-98.4813
11
108.007
21
-117.411
0
LINE
8
BLACK
6
CONTINUOUS
10
108.007
20
-117.411
11
126.936
21
-117.411
0
LINE
8
BLACK
6
CONTINUOUS
10
126.936
20
-117.411
11
126.936
21
-115.108
0
LINE
8
BLACK
6
CONTINUOUS
10
126.936
20
-115.108
11
126.933
21
-115.098
0
LINE
8
BLACK
6
CONTINUOUS
10
126.933
20
-115.098
11
126.932
21
-115.086
0
LINE
8
BLACK
6
CONTINUOUS
10
126.932
20
-115.086
11
126.933
21
-115.083
0
LINE
8
BLACK
6
CONTINUOUS
10
126.933
20
-115.083
11
126.933
21
-98.4813
0
LINE
8
BLACK
6
CONTINUOUS
10
126.933
20
-98.4813
11
108.007
21
-98.4813
0
LINE
8
BLACK
6
CONTINUOUS
10
165.156
20
-96.1001
11
165.156
21
-112.706
0
LINE
8
BLACK
6
CONTINUOUS
10
165.156
20
-112.706
11
165.157
21
-112.709
0
LINE
8
BLACK
6
CONTINUOUS
10
165.157
20
-112.709
11
165.156
21
-112.712
0
LINE
8
BLACK
6
CONTINUOUS
10
165.156
20
-112.712
11
165.156
21
-115.03
0
LINE
8
BLACK
6
CONTINUOUS
10
165.156
20
-115.03
11
184.086
21
-115.03
0
LINE
8
BLACK
6
CONTINUOUS
10
184.086
20
-115.03
11
184.086
21
-106.756
0
LINE
8
BLACK
6
CONTINUOUS
10
184.086
20
-106.756
11
184.086
21
-98.4389
0
LINE
8
BLACK
6
CONTINUOUS
10
184.086
20
-98.4389
11
184.083
21
-98.4294
0
LINE
8
BLACK
6
CONTINUOUS
10
184.083
20
-98.4294
11
184.082
21
-98.4176
0
LINE
8
BLACK
6
CONTINUOUS
10
184.082
20
-98.4176
11
184.083
21
-98.4147
0
LINE
8
BLACK
6
CONTINUOUS
10
184.083
20
-98.4147
11
184.083
21
-96.1001
0
LINE
8
BLACK
6
CONTINUOUS
10
184.083
20
-96.1001
11
165.156
21
-96.1001
0
LINE
8
BLACK
6
CONTINUOUS
10
127.056
20
-96.1001
11
127.056
21
-98.4184
0
LINE
8
BLACK
6
CONTINUOUS
10
127.056
20
-98.4184
11
127.057
21
-98.4213
0
LINE
8
BLACK
6
CONTINUOUS
10
127.057
20
-98.4213
11
127.056
21
-98.4243
0
LINE
8
BLACK
6
CONTINUOUS
10
127.056
20
-98.4243
11
127.056
21
-115.026
0
LINE
8
BLACK
6
CONTINUOUS
10
127.056
20
-115.026
11
145.983
21
-115.026
0
LINE
8
BLACK
6
CONTINUOUS
10
145.983
20
-115.026
11
145.983
21
-96.1001
0
LINE
8
BLACK
6
CONTINUOUS
10
145.983
20
-96.1001
11
127.056
21
-96.1001
0
LINE
8
BLACK
6
CONTINUOUS
10
146.106
20
-93.7188
11
146.106
21
-96.0371
0
LINE
8
BLACK
6
CONTINUOUS
10
146.106
20
-96.0371
11
146.107
21
-96.0401
0
LINE
8
BLACK
6
CONTINUOUS
10
146.107
20
-96.0401
11
146.106
21
-96.043
0
LINE
8
BLACK
6
CONTINUOUS
10
146.106
20
-96.043
11
146.106
21
-112.649
0
LINE
8
BLACK
6
CONTINUOUS
10
146.106
20
-112.649
11
165.036
21
-112.649
0
LINE
8
BLACK
6
CONTINUOUS
10
165.036
20
-112.649
11
165.036
21
-104.374
0
LINE
8
BLACK
6
CONTINUOUS
10
165.036
20
-104.374
11
165.036
21
-96.043
0
LINE
8
BLACK
6
CONTINUOUS
10
165.036
20
-96.043
11
165.036
21
-96.0401
0
LINE
8
BLACK
6
CONTINUOUS
10
165.036
20
-96.0401
11
165.036
21
-96.0371
0
LINE
8
BLACK
6
CONTINUOUS
10
165.036
20
-96.0371
11
165.036
21
-93.7188
0
LINE
8
BLACK
6
CONTINUOUS
10
165.036
20
-93.7188
11
146.106
21
-93.7188
0
LINE
8
BLACK
6
CONTINUOUS
10
79.4325
20
-79.4325
11
79.4325
21
-98.3625
0
LINE
8
BLACK
6
CONTINUOUS
10
79.4325
20
-98.3625
11
107.886
21
-98.3625
0
LINE
8
BLACK
6
CONTINUOUS
10
107.886
20
-98.3625
11
107.886
21
-79.4325
0
LINE
8
BLACK
6
CONTINUOUS
10
107.886
20
-79.4325
11
79.4325
21
-79.4325
0
LINE
8
BLACK
6
CONTINUOUS
10
203.256
20
-79.4313
11
203.256
21
-98.3613
0
LINE
8
BLACK
6
CONTINUOUS
10
203.256
20
-98.3613
11
222.186
21
-98.3613
0
LINE
8
BLACK
6
CONTINUOUS
10
222.186
20
-98.3613
11
222.186
21
-79.4313
0
LINE
8
BLACK
6
CONTINUOUS
10
222.186
20
-79.4313
11
203.256
21
-79.4313
0
LINE
8
BLACK
6
CONTINUOUS
10
108.007
20
-79.4313
11
108.007
21
-98.3613
0
LINE
8
BLACK
6
CONTINUOUS
10
108.007
20
-98.3613
11
126.933
21
-98.3613
0
LINE
8
BLACK
6
CONTINUOUS
10
126.933
20
-98.3613
11
126.933
21
-96.0393
0
LINE
8
BLACK
6
CONTINUOUS
10
126.933
20
-96.0393
11
126.932
21
-96.0364
0
LINE
8
BLACK
6
CONTINUOUS
10
126.932
20
-96.0364
11
126.933
21
-96.0246
0
LINE
8
BLACK
6
CONTINUOUS
10
126.933
20
-96.0246
11
126.936
21
-96.0151
0
LINE
8
BLACK
6
CONTINUOUS
10
126.936
20
-96.0151
11
126.936
21
-79.4313
0
LINE
8
BLACK
6
CONTINUOUS
10
126.936
20
-79.4313
11
108.007
21
-79.4313
0
LINE
8
BLACK
6
CONTINUOUS
10
184.206
20
-79.4276
11
184.206
21
-96.0371
0
LINE
8
BLACK
6
CONTINUOUS
10
184.206
20
-96.0371
11
184.207
21
-96.0401
0
LINE
8
BLACK
6
CONTINUOUS
10
184.207
20
-96.0401
11
184.206
21
-96.043
0
LINE
8
BLACK
6
CONTINUOUS
10
184.206
20
-96.043
11
184.206
21
-98.3576
0
LINE
8
BLACK
6
CONTINUOUS
10
184.206
20
-98.3576
11
203.133
21
-98.3576
0
LINE
8
BLACK
6
CONTINUOUS
10
203.133
20
-98.3576
11
203.133
21
-79.4276
0
LINE
8
BLACK
6
CONTINUOUS
10
203.133
20
-79.4276
11
184.206
21
-79.4276
0
LINE
8
BLACK
6
CONTINUOUS
10
165.156
20
-77.0501
11
165.156
21
-93.6522
0
LINE
8
BLACK
6
CONTINUOUS
10
165.156
20
-93.6522
11
165.157
21
-93.6551
0
LINE
8
BLACK
6
CONTINUOUS
10
165.157
20
-93.6551
11
165.156
21
-93.657
0
LINE
8
BLACK
6
CONTINUOUS
10
165.156
20
-93.657
11
165.157
21
-93.6588
0
LINE
8
BLACK
6
CONTINUOUS
10
165.157
20
-93.6588
11
165.156
21
-93.6618
0
LINE
8
BLACK
6
CONTINUOUS
10
165.156
20
-93.6618
11
165.156
21
-95.9801
0
LINE
8
BLACK
6
CONTINUOUS
10
165.156
20
-95.9801
11
184.083
21
-95.9801
0
LINE
8
BLACK
6
CONTINUOUS
10
184.083
20
-95.9801
11
184.083
21
-79.3706
0
LINE
8
BLACK
6
CONTINUOUS
10
184.083
20
-79.3706
11
184.082
21
-79.3676
0
LINE
8
BLACK
6
CONTINUOUS
10
184.082
20
-79.3676
11
184.083
21
-79.3559
0
LINE
8
BLACK
6
CONTINUOUS
10
184.083
20
-79.3559
11
184.086
21
-79.3464
0
LINE
8
BLACK
6
CONTINUOUS
10
184.086
20
-79.3464
11
184.086
21
-77.0501
0
LINE
8
BLACK
6
CONTINUOUS
10
184.086
20
-77.0501
11
165.156
21
-77.0501
0
LINE
8
BLACK
6
CONTINUOUS
10
127.056
20
-77.0501
11
127.056
21
-79.3684
0
LINE
8
BLACK
6
CONTINUOUS
10
127.056
20
-79.3684
11
127.057
21
-79.3713
0
LINE
8
BLACK
6
CONTINUOUS
10
127.057
20
-79.3713
11
127.056
21
-79.3743
0
LINE
8
BLACK
6
CONTINUOUS
10
127.056
20
-79.3743
11
127.056
21
-95.9764
0
LINE
8
BLACK
6
CONTINUOUS
10
127.056
20
-95.9764
11
145.986
21
-95.9764
0
LINE
8
BLACK
6
CONTINUOUS
10
145.986
20
-95.9764
11
145.986
21
-93.6618
0
LINE
8
BLACK
6
CONTINUOUS
10
145.986
20
-93.6618
11
145.986
21
-93.6588
0
LINE
8
BLACK
6
CONTINUOUS
10
145.986
20
-93.6588
11
145.986
21
-93.657
0
LINE
8
BLACK
6
CONTINUOUS
10
145.986
20
-93.657
11
145.986
21
-93.6551
0
LINE
8
BLACK
6
CONTINUOUS
10
145.986
20
-93.6551
11
145.986
21
-93.6522
0
LINE
8
BLACK
6
CONTINUOUS
10
145.986
20
-93.6522
11
145.986
21
-77.0501
0
LINE
8
BLACK
6
CONTINUOUS
10
145.986
20
-77.0501
11
127.056
21
-77.0501
0
LINE
8
BLACK
6
CONTINUOUS
10
146.106
20
-74.6651
11
146.106
21
-76.9871
0
LINE
8
BLACK
6
CONTINUOUS
10
146.106
20
-76.9871
11
146.107
21
-76.9901
0
LINE
8
BLACK
6
CONTINUOUS
10
146.107
20
-76.9901
11
146.106
21
-76.993
0
LINE
8
BLACK
6
CONTINUOUS
10
146.106
20
-76.993
11
146.106
21
-93.5951
0
LINE
8
BLACK
6
CONTINUOUS
10
146.106
20
-93.5951
11
165.036
21
-93.5951
0
LINE
8
BLACK
6
CONTINUOUS
10
165.036
20
-93.5951
11
165.036
21
-85.3226
0
LINE
8
BLACK
6
CONTINUOUS
10
165.036
20
-85.3226
11
165.036
21
-76.993
0
LINE
8
BLACK
6
CONTINUOUS
10
165.036
20
-76.993
11
165.036
21
-76.9901
0
LINE
8
BLACK
6
CONTINUOUS
10
165.036
20
-76.9901
11
165.036
21
-76.9871
0
LINE
8
BLACK
6
CONTINUOUS
10
165.036
20
-76.9871
11
165.036
21
-74.6651
0
LINE
8
BLACK
6
CONTINUOUS
10
165.036
20
-74.6651
11
146.106
21
-74.6651
0
LINE
8
BLACK
6
CONTINUOUS
10
147.772
20
-67.7941
11
147.778
21
-67.7947
0
LINE
8
BLACK
6
CONTINUOUS
10
147.778
20
-67.7947
11
147.785
21
-67.797
0
LINE
8
BLACK
6
CONTINUOUS
10
147.785
20
-67.797
11
147.792
21
-67.8007
0
LINE
8
BLACK
6
CONTINUOUS
10
147.792
20
-67.8007
11
147.798
21
-67.8057
0
LINE
8
BLACK
6
CONTINUOUS
10
147.798
20
-67.8057
11
147.803
21
-67.8118
0
LINE
8
BLACK
6
CONTINUOUS
10
147.803
20
-67.8118
11
147.807
21
-67.8187
0
LINE
8
BLACK
6
CONTINUOUS
10
147.807
20
-67.8187
11
147.809
21
-67.8263
0
LINE
8
BLACK
6
CONTINUOUS
10
147.809
20
-67.8263
11
147.81
21
-67.8341
0
LINE
8
BLACK
6
CONTINUOUS
10
147.81
20
-67.8341
11
147.81
21
-67.8361
0
LINE
8
BLACK
6
CONTINUOUS
10
147.81
20
-67.8361
11
147.81
21
-70.6702
0
LINE
8
BLACK
6
CONTINUOUS
10
147.81
20
-70.6702
11
147.81
21
-70.6721
0
LINE
8
BLACK
6
CONTINUOUS
10
147.81
20
-70.6721
11
147.809
21
-70.68
0
LINE
8
BLACK
6
CONTINUOUS
10
147.809
20
-70.68
11
147.807
21
-70.6875
0
LINE
8
BLACK
6
CONTINUOUS
10
147.807
20
-70.6875
11
147.803
21
-70.6945
0
LINE
8
BLACK
6
CONTINUOUS
10
147.803
20
-70.6945
11
147.798
21
-70.7005
0
LINE
8
BLACK
6
CONTINUOUS
10
147.798
20
-70.7005
11
147.792
21
-70.7055
0
LINE
8
BLACK
6
CONTINUOUS
10
147.792
20
-70.7055
11
147.785
21
-70.7093
0
LINE
8
BLACK
6
CONTINUOUS
10
147.785
20
-70.7093
11
147.778
21
-70.7115
0
LINE
8
BLACK
6
CONTINUOUS
10
147.778
20
-70.7115
11
147.772
21
-70.7121
0
LINE
8
BLACK
6
CONTINUOUS
10
147.772
20
-70.7121
11
147.77
21
-70.7123
0
LINE
8
BLACK
6
CONTINUOUS
10
147.77
20
-70.7123
11
147.768
21
-70.7121
0
LINE
8
BLACK
6
CONTINUOUS
10
147.768
20
-70.7121
11
146.172
21
-70.7121
0
LINE
8
BLACK
6
CONTINUOUS
10
146.172
20
-70.7121
11
146.17
21
-70.7123
0
LINE
8
BLACK
6
CONTINUOUS
10
146.17
20
-70.7123
11
146.162
21
-70.7115
0
LINE
8
BLACK
6
CONTINUOUS
10
146.162
20
-70.7115
11
146.154
21
-70.7093
0
LINE
8
BLACK
6
CONTINUOUS
10
146.154
20
-70.7093
11
146.147
21
-70.7055
0
LINE
8
BLACK
6
CONTINUOUS
10
146.147
20
-70.7055
11
146.141
21
-70.7005
0
LINE
8
BLACK
6
CONTINUOUS
10
146.141
20
-70.7005
11
146.136
21
-70.6945
0
LINE
8
BLACK
6
CONTINUOUS
10
146.136
20
-70.6945
11
146.133
21
-70.6875
0
LINE
8
BLACK
6
CONTINUOUS
10
146.133
20
-70.6875
11
146.13
21
-70.68
0
LINE
8
BLACK
6
CONTINUOUS
10
146.13
20
-70.68
11
146.129
21
-70.6721
0
LINE
8
BLACK
6
CONTINUOUS
10
146.129
20
-70.6721
11
146.13
21
-70.6702
0
LINE
8
BLACK
6
CONTINUOUS
10
146.13
20
-70.6702
11
146.13
21
-67.8361
0
LINE
8
BLACK
6
CONTINUOUS
10
146.13
20
-67.8361
11
146.129
21
-67.8341
0
LINE
8
BLACK
6
CONTINUOUS
10
146.129
20
-67.8341
11
146.13
21
-67.8263
0
LINE
8
BLACK
6
CONTINUOUS
10
146.13
20
-67.8263
11
146.133
21
-67.8187
0
LINE
8
BLACK
6
CONTINUOUS
10
146.133
20
-67.8187
11
146.136
21
-67.8118
0
LINE
8
BLACK
6
CONTINUOUS
10
146.136
20
-67.8118
11
146.141
21
-67.8057
0
LINE
8
BLACK
6
CONTINUOUS
10
146.141
20
-67.8057
11
146.147
21
-67.8007
0
LINE
8
BLACK
6
CONTINUOUS
10
146.147
20
-67.8007
11
146.154
21
-67.797
0
LINE
8
BLACK
6
CONTINUOUS
10
146.154
20
-67.797
11
146.162
21
-67.7947
0
LINE
8
BLACK
6
CONTINUOUS
10
146.162
20
-67.7947
11
146.168
21
-67.7941
0
LINE
8
BLACK
6
CONTINUOUS
10
146.168
20
-67.7941
11
146.17
21
-67.7939
0
LINE
8
BLACK
6
CONTINUOUS
10
146.17
20
-67.7939
11
146.172
21
-67.7941
0
LINE
8
BLACK
6
CONTINUOUS
10
146.172
20
-67.7941
11
147.768
21
-67.7941
0
LINE
8
BLACK
6
CONTINUOUS
10
147.768
20
-67.7941
11
147.77
21
-67.7939
0
LINE
8
BLACK
6
CONTINUOUS
10
147.77
20
-67.7939
11
147.772
21
-67.7941
0
LINE
8
BLACK
6
CONTINUOUS
10
146.947
20
-70.2543
11
146.949
21
-70.2548
0
LINE
8
BLACK
6
CONTINUOUS
10
146.949
20
-70.2548
11
146.952
21
-70.2552
0
LINE
8
BLACK
6
CONTINUOUS
10
146.952
20
-70.2552
11
147.027
21
-70.2773
0
LINE
8
BLACK
6
CONTINUOUS
10
147.027
20
-70.2773
11
147.027
21
-70.2773
0
LINE
8
BLACK
6
CONTINUOUS
10
147.027
20
-70.2773
11
147.027
21
-70.2774
0
LINE
8
BLACK
6
CONTINUOUS
10
147.027
20
-70.2774
11
147.029
21
-70.2782
0
LINE
8
BLACK
6
CONTINUOUS
10
147.029
20
-70.2782
11
147.031
21
-70.2791
0
LINE
8
BLACK
6
CONTINUOUS
10
147.031
20
-70.2791
11
147.1
21
-70.3153
0
LINE
8
BLACK
6
CONTINUOUS
10
147.1
20
-70.3153
11
147.101
21
-70.3154
0
LINE
8
BLACK
6
CONTINUOUS
10
147.101
20
-70.3154
11
147.102
21
-70.3167
0
LINE
8
BLACK
6
CONTINUOUS
10
147.102
20
-70.3167
11
147.104
21
-70.3179
0
LINE
8
BLACK
6
CONTINUOUS
10
147.104
20
-70.3179
11
147.165
21
-70.3668
0
LINE
8
BLACK
6
CONTINUOUS
10
147.165
20
-70.3668
11
147.165
21
-70.3671
0
LINE
8
BLACK
6
CONTINUOUS
10
147.165
20
-70.3671
11
147.167
21
-70.3687
0
LINE
8
BLACK
6
CONTINUOUS
10
147.167
20
-70.3687
11
147.169
21
-70.3703
0
LINE
8
BLACK
6
CONTINUOUS
10
147.169
20
-70.3703
11
147.219
21
-70.4301
0
LINE
8
BLACK
6
CONTINUOUS
10
147.219
20
-70.4301
11
147.219
21
-70.4303
0
LINE
8
BLACK
6
CONTINUOUS
10
147.219
20
-70.4303
11
147.22
21
-70.4322
0
LINE
8
BLACK
6
CONTINUOUS
10
147.22
20
-70.4322
11
147.222
21
-70.4341
0
LINE
8
BLACK
6
CONTINUOUS
10
147.222
20
-70.4341
11
147.259
21
-70.5025
0
LINE
8
BLACK
6
CONTINUOUS
10
147.259
20
-70.5025
11
147.259
21
-70.5025
0
LINE
8
BLACK
6
CONTINUOUS
10
147.259
20
-70.5025
11
147.259
21
-70.5025
0
LINE
8
BLACK
6
CONTINUOUS
10
147.259
20
-70.5025
11
147.259
21
-70.5028
0
LINE
8
BLACK
6
CONTINUOUS
10
147.259
20
-70.5028
11
147.26
21
-70.5049
0
LINE
8
BLACK
6
CONTINUOUS
10
147.26
20
-70.5049
11
147.261
21
-70.507
0
LINE
8
BLACK
6
CONTINUOUS
10
147.261
20
-70.507
11
147.285
21
-70.5814
0
LINE
8
BLACK
6
CONTINUOUS
10
147.285
20
-70.5814
11
147.285
21
-70.5817
0
LINE
8
BLACK
6
CONTINUOUS
10
147.285
20
-70.5817
11
147.285
21
-70.584
0
LINE
8
BLACK
6
CONTINUOUS
10
147.285
20
-70.584
11
147.286
21
-70.5862
0
LINE
8
BLACK
6
CONTINUOUS
10
147.286
20
-70.5862
11
147.291
21
-70.6321
0
LINE
8
BLACK
6
CONTINUOUS
10
147.291
20
-70.6321
11
147.73
21
-70.6321
0
LINE
8
BLACK
6
CONTINUOUS
10
147.73
20
-70.6321
11
147.73
21
-67.8741
0
LINE
8
BLACK
6
CONTINUOUS
10
147.73
20
-67.8741
11
146.21
21
-67.8741
0
LINE
8
BLACK
6
CONTINUOUS
10
146.21
20
-67.8741
11
146.21
21
-70.6321
0
LINE
8
BLACK
6
CONTINUOUS
10
146.21
20
-70.6321
11
146.448
21
-70.6321
0
LINE
8
BLACK
6
CONTINUOUS
10
146.448
20
-70.6321
11
146.452
21
-70.592
0
LINE
8
BLACK
6
CONTINUOUS
10
146.452
20
-70.592
11
146.452
21
-70.5916
0
LINE
8
BLACK
6
CONTINUOUS
10
146.452
20
-70.5916
11
146.453
21
-70.5894
0
LINE
8
BLACK
6
CONTINUOUS
10
146.453
20
-70.5894
11
146.453
21
-70.5872
0
LINE
8
BLACK
6
CONTINUOUS
10
146.453
20
-70.5872
11
146.476
21
-70.5125
0
LINE
8
BLACK
6
CONTINUOUS
10
146.476
20
-70.5125
11
146.476
21
-70.5121
0
LINE
8
BLACK
6
CONTINUOUS
10
146.476
20
-70.5121
11
146.477
21
-70.51
0
LINE
8
BLACK
6
CONTINUOUS
10
146.477
20
-70.51
11
146.478
21
-70.508
0
LINE
8
BLACK
6
CONTINUOUS
10
146.478
20
-70.508
11
146.514
21
-70.439
0
LINE
8
BLACK
6
CONTINUOUS
10
146.514
20
-70.439
11
146.515
21
-70.4387
0
LINE
8
BLACK
6
CONTINUOUS
10
146.515
20
-70.4387
11
146.516
21
-70.4369
0
LINE
8
BLACK
6
CONTINUOUS
10
146.516
20
-70.4369
11
146.517
21
-70.435
0
LINE
8
BLACK
6
CONTINUOUS
10
146.517
20
-70.435
11
146.566
21
-70.3745
0
LINE
8
BLACK
6
CONTINUOUS
10
146.566
20
-70.3745
11
146.567
21
-70.3742
0
LINE
8
BLACK
6
CONTINUOUS
10
146.567
20
-70.3742
11
146.568
21
-70.3726
0
LINE
8
BLACK
6
CONTINUOUS
10
146.568
20
-70.3726
11
146.57
21
-70.371
0
LINE
8
BLACK
6
CONTINUOUS
10
146.57
20
-70.371
11
146.63
21
-70.3212
0
LINE
8
BLACK
6
CONTINUOUS
10
146.63
20
-70.3212
11
146.63
21
-70.321
0
LINE
8
BLACK
6
CONTINUOUS
10
146.63
20
-70.321
11
146.632
21
-70.3198
0
LINE
8
BLACK
6
CONTINUOUS
10
146.632
20
-70.3198
11
146.634
21
-70.3185
0
LINE
8
BLACK
6
CONTINUOUS
10
146.634
20
-70.3185
11
146.703
21
-70.2814
0
LINE
8
BLACK
6
CONTINUOUS
10
146.703
20
-70.2814
11
146.703
21
-70.2812
0
LINE
8
BLACK
6
CONTINUOUS
10
146.703
20
-70.2812
11
146.705
21
-70.2804
0
LINE
8
BLACK
6
CONTINUOUS
10
146.705
20
-70.2804
11
146.707
21
-70.2795
0
LINE
8
BLACK
6
CONTINUOUS
10
146.707
20
-70.2795
11
146.782
21
-70.2564
0
LINE
8
BLACK
6
CONTINUOUS
10
146.782
20
-70.2564
11
146.782
21
-70.2563
0
LINE
8
BLACK
6
CONTINUOUS
10
146.782
20
-70.2563
11
146.784
21
-70.2559
0
LINE
8
BLACK
6
CONTINUOUS
10
146.784
20
-70.2559
11
146.787
21
-70.2554
0
LINE
8
BLACK
6
CONTINUOUS
10
146.787
20
-70.2554
11
146.864
21
-70.2473
0
LINE
8
BLACK
6
CONTINUOUS
10
146.864
20
-70.2473
11
146.865
21
-70.2472
0
LINE
8
BLACK
6
CONTINUOUS
10
146.865
20
-70.2472
11
146.867
21
-70.2472
0
LINE
8
BLACK
6
CONTINUOUS
10
146.867
20
-70.2472
11
146.869
21
-70.2472
0
LINE
8
BLACK
6
CONTINUOUS
10
146.869
20
-70.2472
11
146.947
21
-70.2543
0
LINE
8
BLACK
6
CONTINUOUS
10
146.947
20
-70.2543
11
146.947
21
-70.2543
0
LINE
8
BLACK
6
CONTINUOUS
10
146.947
20
-70.2543
11
146.947
21
-70.2543
0
LINE
8
BLACK
6
CONTINUOUS
10
146.794
20
-70.3049
11
146.724
21
-70.3265
0
LINE
8
BLACK
6
CONTINUOUS
10
146.724
20
-70.3265
11
146.66
21
-70.3613
0
LINE
8
BLACK
6
CONTINUOUS
10
146.66
20
-70.3613
11
146.604
21
-70.408
0
LINE
8
BLACK
6
CONTINUOUS
10
146.604
20
-70.408
11
146.557
21
-70.4647
0
LINE
8
BLACK
6
CONTINUOUS
10
146.557
20
-70.4647
11
146.523
21
-70.5293
0
LINE
8
BLACK
6
CONTINUOUS
10
146.523
20
-70.5293
11
146.502
21
-70.5993
0
LINE
8
BLACK
6
CONTINUOUS
10
146.502
20
-70.5993
11
146.499
21
-70.6321
0
LINE
8
BLACK
6
CONTINUOUS
10
146.499
20
-70.6321
11
147.241
21
-70.6321
0
LINE
8
BLACK
6
CONTINUOUS
10
147.241
20
-70.6321
11
147.236
21
-70.5942
0
LINE
8
BLACK
6
CONTINUOUS
10
147.236
20
-70.5942
11
147.214
21
-70.5244
0
LINE
8
BLACK
6
CONTINUOUS
10
147.214
20
-70.5244
11
147.179
21
-70.4603
0
LINE
8
BLACK
6
CONTINUOUS
10
147.179
20
-70.4603
11
147.132
21
-70.4043
0
LINE
8
BLACK
6
CONTINUOUS
10
147.132
20
-70.4043
11
147.075
21
-70.3584
0
LINE
8
BLACK
6
CONTINUOUS
10
147.075
20
-70.3584
11
147.01
21
-70.3245
0
LINE
8
BLACK
6
CONTINUOUS
10
147.01
20
-70.3245
11
146.94
21
-70.3039
0
LINE
8
BLACK
6
CONTINUOUS
10
146.94
20
-70.3039
11
146.867
21
-70.2972
0
LINE
8
BLACK
6
CONTINUOUS
10
146.867
20
-70.2972
11
146.794
21
-70.3049
0
LINE
8
BLACK
6
CONTINUOUS
10
147.512
20
-70.3109
11
147.529
21
-70.3181
0
LINE
8
BLACK
6
CONTINUOUS
10
147.529
20
-70.3181
11
147.545
21
-70.3286
0
LINE
8
BLACK
6
CONTINUOUS
10
147.545
20
-70.3286
11
147.558
21
-70.3419
0
LINE
8
BLACK
6
CONTINUOUS
10
147.558
20
-70.3419
11
147.568
21
-70.3575
0
LINE
8
BLACK
6
CONTINUOUS
10
147.568
20
-70.3575
11
147.576
21
-70.3749
0
LINE
8
BLACK
6
CONTINUOUS
10
147.576
20
-70.3749
11
147.579
21
-70.3933
0
LINE
8
BLACK
6
CONTINUOUS
10
147.579
20
-70.3933
11
147.579
21
-70.4121
0
LINE
8
BLACK
6
CONTINUOUS
10
147.579
20
-70.4121
11
147.576
21
-70.4306
0
LINE
8
BLACK
6
CONTINUOUS
10
147.576
20
-70.4306
11
147.568
21
-70.4479
0
LINE
8
BLACK
6
CONTINUOUS
10
147.568
20
-70.4479
11
147.558
21
-70.4636
0
LINE
8
BLACK
6
CONTINUOUS
10
147.558
20
-70.4636
11
147.545
21
-70.4769
0
LINE
8
BLACK
6
CONTINUOUS
10
147.545
20
-70.4769
11
147.529
21
-70.4873
0
LINE
8
BLACK
6
CONTINUOUS
10
147.529
20
-70.4873
11
147.512
21
-70.4945
0
LINE
8
BLACK
6
CONTINUOUS
10
147.512
20
-70.4945
11
147.493
21
-70.4982
0
LINE
8
BLACK
6
CONTINUOUS
10
147.493
20
-70.4982
11
147.474
21
-70.4982
0
LINE
8
BLACK
6
CONTINUOUS
10
147.474
20
-70.4982
11
147.456
21
-70.4945
0
LINE
8
BLACK
6
CONTINUOUS
10
147.456
20
-70.4945
11
147.439
21
-70.4873
0
LINE
8
BLACK
6
CONTINUOUS
10
147.439
20
-70.4873
11
147.423
21
-70.4769
0
LINE
8
BLACK
6
CONTINUOUS
10
147.423
20
-70.4769
11
147.41
21
-70.4636
0
LINE
8
BLACK
6
CONTINUOUS
10
147.41
20
-70.4636
11
147.399
21
-70.4479
0
LINE
8
BLACK
6
CONTINUOUS
10
147.399
20
-70.4479
11
147.392
21
-70.4306
0
LINE
8
BLACK
6
CONTINUOUS
10
147.392
20
-70.4306
11
147.388
21
-70.4121
0
LINE
8
BLACK
6
CONTINUOUS
10
147.388
20
-70.4121
11
147.388
21
-70.3933
0
LINE
8
BLACK
6
CONTINUOUS
10
147.388
20
-70.3933
11
147.392
21
-70.3749
0
LINE
8
BLACK
6
CONTINUOUS
10
147.392
20
-70.3749
11
147.399
21
-70.3575
0
LINE
8
BLACK
6
CONTINUOUS
10
147.399
20
-70.3575
11
147.41
21
-70.3419
0
LINE
8
BLACK
6
CONTINUOUS
10
147.41
20
-70.3419
11
147.423
21
-70.3286
0
LINE
8
BLACK
6
CONTINUOUS
10
147.423
20
-70.3286
11
147.439
21
-70.3181
0
LINE
8
BLACK
6
CONTINUOUS
10
147.439
20
-70.3181
11
147.456
21
-70.3109
0
LINE
8
BLACK
6
CONTINUOUS
10
147.456
20
-70.3109
11
147.474
21
-70.3073
0
LINE
8
BLACK
6
CONTINUOUS
10
147.474
20
-70.3073
11
147.493
21
-70.3073
0
LINE
8
BLACK
6
CONTINUOUS
10
147.493
20
-70.3073
11
147.512
21
-70.3109
0
LINE
8
BLACK
6
CONTINUOUS
10
124.104
20
-60.0938
11
124.108
21
-60.0942
0
LINE
8
BLACK
6
CONTINUOUS
10
124.108
20
-60.0942
11
124.112
21
-60.0956
0
LINE
8
BLACK
6
CONTINUOUS
10
124.112
20
-60.0956
11
124.117
21
-60.0979
0
LINE
8
BLACK
6
CONTINUOUS
10
124.117
20
-60.0979
11
124.121
21
-60.101
0
LINE
8
BLACK
6
CONTINUOUS
10
124.121
20
-60.101
11
124.124
21
-60.1048
0
LINE
8
BLACK
6
CONTINUOUS
10
124.124
20
-60.1048
11
124.126
21
-60.1092
0
LINE
8
BLACK
6
CONTINUOUS
10
124.126
20
-60.1092
11
124.127
21
-60.1139
0
LINE
8
BLACK
6
CONTINUOUS
10
124.127
20
-60.1139
11
124.128
21
-60.1188
0
LINE
8
BLACK
6
CONTINUOUS
10
124.128
20
-60.1188
11
124.128
21
-60.12
0
LINE
8
BLACK
6
CONTINUOUS
10
124.128
20
-60.12
11
124.128
21
-61.7176
0
LINE
8
BLACK
6
CONTINUOUS
10
124.128
20
-61.7176
11
124.128
21
-61.7188
0
LINE
8
BLACK
6
CONTINUOUS
10
124.128
20
-61.7188
11
124.127
21
-61.7237
0
LINE
8
BLACK
6
CONTINUOUS
10
124.127
20
-61.7237
11
124.126
21
-61.7284
0
LINE
8
BLACK
6
CONTINUOUS
10
124.126
20
-61.7284
11
124.124
21
-61.7328
0
LINE
8
BLACK
6
CONTINUOUS
10
124.124
20
-61.7328
11
124.121
21
-61.7366
0
LINE
8
BLACK
6
CONTINUOUS
10
124.121
20
-61.7366
11
124.117
21
-61.7397
0
LINE
8
BLACK
6
CONTINUOUS
10
124.117
20
-61.7397
11
124.112
21
-61.742
0
LINE
8
BLACK
6
CONTINUOUS
10
124.112
20
-61.742
11
124.108
21
-61.7434
0
LINE
8
BLACK
6
CONTINUOUS
10
124.108
20
-61.7434
11
124.104
21
-61.7438
0
LINE
8
BLACK
6
CONTINUOUS
10
124.104
20
-61.7438
11
124.104
21
-61.7438
0
LINE
8
BLACK
6
CONTINUOUS
10
124.104
20
-61.7438
11
124.103
21
-61.7439
0
LINE
8
BLACK
6
CONTINUOUS
10
124.103
20
-61.7439
11
124.102
21
-61.7438
0
LINE
8
BLACK
6
CONTINUOUS
10
124.102
20
-61.7438
11
122.104
21
-61.7438
0
LINE
8
BLACK
6
CONTINUOUS
10
122.104
20
-61.7438
11
122.103
21
-61.7439
0
LINE
8
BLACK
6
CONTINUOUS
10
122.103
20
-61.7439
11
122.098
21
-61.7434
0
LINE
8
BLACK
6
CONTINUOUS
10
122.098
20
-61.7434
11
122.093
21
-61.742
0
LINE
8
BLACK
6
CONTINUOUS
10
122.093
20
-61.742
11
122.089
21
-61.7397
0
LINE
8
BLACK
6
CONTINUOUS
10
122.089
20
-61.7397
11
122.085
21
-61.7366
0
LINE
8
BLACK
6
CONTINUOUS
10
122.085
20
-61.7366
11
122.082
21
-61.7328
0
LINE
8
BLACK
6
CONTINUOUS
10
122.082
20
-61.7328
11
122.08
21
-61.7284
0
LINE
8
BLACK
6
CONTINUOUS
10
122.08
20
-61.7284
11
122.078
21
-61.7237
0
LINE
8
BLACK
6
CONTINUOUS
10
122.078
20
-61.7237
11
122.078
21
-61.7188
0
LINE
8
BLACK
6
CONTINUOUS
10
122.078
20
-61.7188
11
122.078
21
-61.7176
0
LINE
8
BLACK
6
CONTINUOUS
10
122.078
20
-61.7176
11
122.078
21
-60.12
0
LINE
8
BLACK
6
CONTINUOUS
10
122.078
20
-60.12
11
122.078
21
-60.1188
0
LINE
8
BLACK
6
CONTINUOUS
10
122.078
20
-60.1188
11
122.078
21
-60.1139
0
LINE
8
BLACK
6
CONTINUOUS
10
122.078
20
-60.1139
11
122.08
21
-60.1092
0
LINE
8
BLACK
6
CONTINUOUS
10
122.08
20
-60.1092
11
122.082
21
-60.1048
0
LINE
8
BLACK
6
CONTINUOUS
10
122.082
20
-60.1048
11
122.085
21
-60.101
0
LINE
8
BLACK
6
CONTINUOUS
10
122.085
20
-60.101
11
122.089
21
-60.0979
0
LINE
8
BLACK
6
CONTINUOUS
10
122.089
20
-60.0979
11
122.093
21
-60.0956
0
LINE
8
BLACK
6
CONTINUOUS
10
122.093
20
-60.0956
11
122.098
21
-60.0942
0
LINE
8
BLACK
6
CONTINUOUS
10
122.098
20
-60.0942
11
122.102
21
-60.0938
0
LINE
8
BLACK
6
CONTINUOUS
10
122.102
20
-60.0938
11
122.102
21
-60.0938
0
LINE
8
BLACK
6
CONTINUOUS
10
122.102
20
-60.0938
11
122.103
21
-60.0937
0
LINE
8
BLACK
6
CONTINUOUS
10
122.103
20
-60.0937
11
122.104
21
-60.0938
0
LINE
8
BLACK
6
CONTINUOUS
10
122.104
20
-60.0938
11
124.102
21
-60.0938
0
LINE
8
BLACK
6
CONTINUOUS
10
124.102
20
-60.0938
11
124.103
21
-60.0937
0
LINE
8
BLACK
6
CONTINUOUS
10
124.103
20
-60.0937
11
124.104
21
-60.0938
0
LINE
8
BLACK
6
CONTINUOUS
10
122.128
20
-60.1438
11
122.128
21
-61.6938
0
LINE
8
BLACK
6
CONTINUOUS
10
122.128
20
-61.6938
11
124.078
21
-61.6938
0
LINE
8
BLACK
6
CONTINUOUS
10
124.078
20
-61.6938
11
124.078
21
-60.1438
0
LINE
8
BLACK
6
CONTINUOUS
10
124.078
20
-60.1438
11
122.128
21
-60.1438
0
LINE
8
BLACK
6
CONTINUOUS
10
106.073
20
-59.5082
11
106.071
21
-59.5086
0
LINE
8
BLACK
6
CONTINUOUS
10
106.071
20
-59.5086
11
106.069
21
-59.5091
0
LINE
8
BLACK
6
CONTINUOUS
10
106.069
20
-59.5091
11
106.029
21
-59.5132
0
LINE
8
BLACK
6
CONTINUOUS
10
106.029
20
-59.5132
11
106.029
21
-59.5133
0
LINE
8
BLACK
6
CONTINUOUS
10
106.029
20
-59.5133
11
106.028
21
-59.5133
0
LINE
8
BLACK
6
CONTINUOUS
10
106.028
20
-59.5133
11
106.027
21
-59.5134
0
LINE
8
BLACK
6
CONTINUOUS
10
106.027
20
-59.5134
11
106.026
21
-59.5134
0
LINE
8
BLACK
6
CONTINUOUS
10
106.026
20
-59.5134
11
106.026
21
-59.5134
0
LINE
8
BLACK
6
CONTINUOUS
10
106.026
20
-59.5134
11
105.134
21
-59.5134
0
LINE
8
BLACK
6
CONTINUOUS
10
105.134
20
-59.5134
11
105.132
21
-59.5133
0
LINE
8
BLACK
6
CONTINUOUS
10
105.132
20
-59.5133
11
105.132
21
-59.5133
0
LINE
8
BLACK
6
CONTINUOUS
10
105.132
20
-59.5133
11
105.093
21
-59.5094
0
LINE
8
BLACK
6
CONTINUOUS
10
105.093
20
-59.5094
11
105.092
21
-59.5093
0
LINE
8
BLACK
6
CONTINUOUS
10
105.092
20
-59.5093
11
105.09
21
-59.5088
0
LINE
8
BLACK
6
CONTINUOUS
10
105.09
20
-59.5088
11
105.088
21
-59.5084
0
LINE
8
BLACK
6
CONTINUOUS
10
105.088
20
-59.5084
11
105.05
21
-59.4969
0
LINE
8
BLACK
6
CONTINUOUS
10
105.05
20
-59.4969
11
105.049
21
-59.4968
0
LINE
8
BLACK
6
CONTINUOUS
10
105.049
20
-59.4968
11
105.047
21
-59.4959
0
LINE
8
BLACK
6
CONTINUOUS
10
105.047
20
-59.4959
11
105.045
21
-59.495
0
LINE
8
BLACK
6
CONTINUOUS
10
105.045
20
-59.495
11
105.01
21
-59.4762
0
LINE
8
BLACK
6
CONTINUOUS
10
105.01
20
-59.4762
11
105.009
21
-59.4761
0
LINE
8
BLACK
6
CONTINUOUS
10
105.009
20
-59.4761
11
105.008
21
-59.4748
0
LINE
8
BLACK
6
CONTINUOUS
10
105.008
20
-59.4748
11
105.006
21
-59.4735
0
LINE
8
BLACK
6
CONTINUOUS
10
105.006
20
-59.4735
11
104.975
21
-59.4483
0
LINE
8
BLACK
6
CONTINUOUS
10
104.975
20
-59.4483
11
104.974
21
-59.4481
0
LINE
8
BLACK
6
CONTINUOUS
10
104.974
20
-59.4481
11
104.973
21
-59.4464
0
LINE
8
BLACK
6
CONTINUOUS
10
104.973
20
-59.4464
11
104.971
21
-59.4448
0
LINE
8
BLACK
6
CONTINUOUS
10
104.971
20
-59.4448
11
104.946
21
-59.4141
0
LINE
8
BLACK
6
CONTINUOUS
10
104.946
20
-59.4141
11
104.946
21
-59.414
0
LINE
8
BLACK
6
CONTINUOUS
10
104.946
20
-59.414
11
104.946
21
-59.414
0
LINE
8
BLACK
6
CONTINUOUS
10
104.946
20
-59.414
11
104.946
21
-59.4138
0
LINE
8
BLACK
6
CONTINUOUS
10
104.946
20
-59.4138
11
104.944
21
-59.4119
0
LINE
8
BLACK
6
CONTINUOUS
10
104.944
20
-59.4119
11
104.943
21
-59.41
0
LINE
8
BLACK
6
CONTINUOUS
10
104.943
20
-59.41
11
104.924
21
-59.3748
0
LINE
8
BLACK
6
CONTINUOUS
10
104.924
20
-59.3748
11
104.924
21
-59.3745
0
LINE
8
BLACK
6
CONTINUOUS
10
104.924
20
-59.3745
11
104.923
21
-59.3724
0
LINE
8
BLACK
6
CONTINUOUS
10
104.923
20
-59.3724
11
104.922
21
-59.3703
0
LINE
8
BLACK
6
CONTINUOUS
10
104.922
20
-59.3703
11
104.91
21
-59.3322
0
LINE
8
BLACK
6
CONTINUOUS
10
104.91
20
-59.3322
11
104.91
21
-59.3318
0
LINE
8
BLACK
6
CONTINUOUS
10
104.91
20
-59.3318
11
104.91
21
-59.3296
0
LINE
8
BLACK
6
CONTINUOUS
10
104.91
20
-59.3296
11
104.909
21
-59.3274
0
LINE
8
BLACK
6
CONTINUOUS
10
104.909
20
-59.3274
11
104.905
21
-59.2876
0
LINE
8
BLACK
6
CONTINUOUS
10
104.905
20
-59.2876
11
104.905
21
-59.2873
0
LINE
8
BLACK
6
CONTINUOUS
10
104.905
20
-59.2873
11
104.905
21
-59.2862
0
LINE
8
BLACK
6
CONTINUOUS
10
104.905
20
-59.2862
11
104.905
21
-59.2851
0
LINE
8
BLACK
6
CONTINUOUS
10
104.905
20
-59.2851
11
104.905
21
-59.2848
0
LINE
8
BLACK
6
CONTINUOUS
10
104.905
20
-59.2848
11
104.905
21
-59.2848
0
LINE
8
BLACK
6
CONTINUOUS
10
104.905
20
-59.2848
11
104.905
21
-59.284
0
LINE
8
BLACK
6
CONTINUOUS
10
104.905
20
-59.284
11
104.905
21
-59.2837
0
LINE
8
BLACK
6
CONTINUOUS
10
104.905
20
-59.2837
11
104.905
21
-59.2833
0
LINE
8
BLACK
6
CONTINUOUS
10
104.905
20
-59.2833
11
104.905
21
-54.7112
0
LINE
8
BLACK
6
CONTINUOUS
10
104.905
20
-54.7112
11
98.1524
21
-54.7112
0
LINE
8
BLACK
6
CONTINUOUS
10
98.1524
20
-54.7112
11
98.1524
21
-59.2848
0
LINE
8
BLACK
6
CONTINUOUS
10
98.1524
20
-59.2848
11
98.1523
21
-59.286
0
LINE
8
BLACK
6
CONTINUOUS
10
98.1523
20
-59.286
11
98.1523
21
-59.286
0
LINE
8
BLACK
6
CONTINUOUS
10
98.1523
20
-59.286
11
98.1484
21
-59.3258
0
LINE
8
BLACK
6
CONTINUOUS
10
98.1484
20
-59.3258
11
98.1483
21
-59.3262
0
LINE
8
BLACK
6
CONTINUOUS
10
98.1483
20
-59.3262
11
98.1479
21
-59.3284
0
LINE
8
BLACK
6
CONTINUOUS
10
98.1479
20
-59.3284
11
98.1474
21
-59.3306
0
LINE
8
BLACK
6
CONTINUOUS
10
98.1474
20
-59.3306
11
98.1359
21
-59.3689
0
LINE
8
BLACK
6
CONTINUOUS
10
98.1359
20
-59.3689
11
98.1358
21
-59.3692
0
LINE
8
BLACK
6
CONTINUOUS
10
98.1358
20
-59.3692
11
98.1349
21
-59.3713
0
LINE
8
BLACK
6
CONTINUOUS
10
98.1349
20
-59.3713
11
98.134
21
-59.3734
0
LINE
8
BLACK
6
CONTINUOUS
10
98.134
20
-59.3734
11
98.1153
21
-59.4087
0
LINE
8
BLACK
6
CONTINUOUS
10
98.1153
20
-59.4087
11
98.1151
21
-59.409
0
LINE
8
BLACK
6
CONTINUOUS
10
98.1151
20
-59.409
11
98.1138
21
-59.4109
0
LINE
8
BLACK
6
CONTINUOUS
10
98.1138
20
-59.4109
11
98.1126
21
-59.4127
0
LINE
8
BLACK
6
CONTINUOUS
10
98.1126
20
-59.4127
11
98.0873
21
-59.4437
0
LINE
8
BLACK
6
CONTINUOUS
10
98.0873
20
-59.4437
11
98.0871
21
-59.444
0
LINE
8
BLACK
6
CONTINUOUS
10
98.0871
20
-59.444
11
98.0854
21
-59.4456
0
LINE
8
BLACK
6
CONTINUOUS
10
98.0854
20
-59.4456
11
98.0839
21
-59.4472
0
LINE
8
BLACK
6
CONTINUOUS
10
98.0839
20
-59.4472
11
98.0531
21
-59.4726
0
LINE
8
BLACK
6
CONTINUOUS
10
98.0531
20
-59.4726
11
98.0531
21
-59.4726
0
LINE
8
BLACK
6
CONTINUOUS
10
98.0531
20
-59.4726
11
98.0531
21
-59.4726
0
LINE
8
BLACK
6
CONTINUOUS
10
98.0531
20
-59.4726
11
98.0528
21
-59.4729
0
LINE
8
BLACK
6
CONTINUOUS
10
98.0528
20
-59.4729
11
98.0509
21
-59.4741
0
LINE
8
BLACK
6
CONTINUOUS
10
98.0509
20
-59.4741
11
98.049
21
-59.4754
0
LINE
8
BLACK
6
CONTINUOUS
10
98.049
20
-59.4754
11
98.0139
21
-59.4944
0
LINE
8
BLACK
6
CONTINUOUS
10
98.0139
20
-59.4944
11
98.0136
21
-59.4945
0
LINE
8
BLACK
6
CONTINUOUS
10
98.0136
20
-59.4945
11
98.0114
21
-59.4954
0
LINE
8
BLACK
6
CONTINUOUS
10
98.0114
20
-59.4954
11
98.0094
21
-59.4963
0
LINE
8
BLACK
6
CONTINUOUS
10
98.0094
20
-59.4963
11
97.9712
21
-59.5081
0
LINE
8
BLACK
6
CONTINUOUS
10
97.9712
20
-59.5081
11
97.9712
21
-59.5081
0
LINE
8
BLACK
6
CONTINUOUS
10
97.9712
20
-59.5081
11
97.9709
21
-59.5082
0
LINE
8
BLACK
6
CONTINUOUS
10
97.9709
20
-59.5082
11
97.9686
21
-59.5086
0
LINE
8
BLACK
6
CONTINUOUS
10
97.9686
20
-59.5086
11
97.9664
21
-59.5091
0
LINE
8
BLACK
6
CONTINUOUS
10
97.9664
20
-59.5091
11
97.9267
21
-59.5132
0
LINE
8
BLACK
6
CONTINUOUS
10
97.9267
20
-59.5132
11
97.9263
21
-59.5133
0
LINE
8
BLACK
6
CONTINUOUS
10
97.9263
20
-59.5133
11
97.9252
21
-59.5133
0
LINE
8
BLACK
6
CONTINUOUS
10
97.9252
20
-59.5133
11
97.9241
21
-59.5134
0
LINE
8
BLACK
6
CONTINUOUS
10
97.9241
20
-59.5134
11
97.9239
21
-59.5134
0
LINE
8
BLACK
6
CONTINUOUS
10
97.9239
20
-59.5134
11
97.9238
21
-59.5134
0
LINE
8
BLACK
6
CONTINUOUS
10
97.9238
20
-59.5134
11
97.031
21
-59.5134
0
LINE
8
BLACK
6
CONTINUOUS
10
97.031
20
-59.5134
11
97.0298
21
-59.5133
0
LINE
8
BLACK
6
CONTINUOUS
10
97.0298
20
-59.5133
11
97.0297
21
-59.5133
0
LINE
8
BLACK
6
CONTINUOUS
10
97.0297
20
-59.5133
11
96.99
21
-59.5094
0
LINE
8
BLACK
6
CONTINUOUS
10
96.99
20
-59.5094
11
96.9896
21
-59.5093
0
LINE
8
BLACK
6
CONTINUOUS
10
96.9896
20
-59.5093
11
96.9874
21
-59.5088
0
LINE
8
BLACK
6
CONTINUOUS
10
96.9874
20
-59.5088
11
96.9852
21
-59.5084
0
LINE
8
BLACK
6
CONTINUOUS
10
96.9852
20
-59.5084
11
96.9469
21
-59.4969
0
LINE
8
BLACK
6
CONTINUOUS
10
96.9469
20
-59.4969
11
96.9466
21
-59.4968
0
LINE
8
BLACK
6
CONTINUOUS
10
96.9466
20
-59.4968
11
96.9445
21
-59.4959
0
LINE
8
BLACK
6
CONTINUOUS
10
96.9445
20
-59.4959
11
96.9424
21
-59.495
0
LINE
8
BLACK
6
CONTINUOUS
10
96.9424
20
-59.495
11
96.9071
21
-59.4762
0
LINE
8
BLACK
6
CONTINUOUS
10
96.9071
20
-59.4762
11
96.9068
21
-59.4761
0
LINE
8
BLACK
6
CONTINUOUS
10
96.9068
20
-59.4761
11
96.9049
21
-59.4748
0
LINE
8
BLACK
6
CONTINUOUS
10
96.9049
20
-59.4748
11
96.9031
21
-59.4735
0
LINE
8
BLACK
6
CONTINUOUS
10
96.9031
20
-59.4735
11
96.8721
21
-59.4483
0
LINE
8
BLACK
6
CONTINUOUS
10
96.8721
20
-59.4483
11
96.8718
21
-59.4481
0
LINE
8
BLACK
6
CONTINUOUS
10
96.8718
20
-59.4481
11
96.8702
21
-59.4464
0
LINE
8
BLACK
6
CONTINUOUS
10
96.8702
20
-59.4464
11
96.8686
21
-59.4448
0
LINE
8
BLACK
6
CONTINUOUS
10
96.8686
20
-59.4448
11
96.8432
21
-59.4141
0
LINE
8
BLACK
6
CONTINUOUS
10
96.8432
20
-59.4141
11
96.8431
21
-59.414
0
LINE
8
BLACK
6
CONTINUOUS
10
96.8431
20
-59.414
11
96.8431
21
-59.414
0
LINE
8
BLACK
6
CONTINUOUS
10
96.8431
20
-59.414
11
96.8429
21
-59.4138
0
LINE
8
BLACK
6
CONTINUOUS
10
96.8429
20
-59.4138
11
96.8417
21
-59.4119
0
LINE
8
BLACK
6
CONTINUOUS
10
96.8417
20
-59.4119
11
96.8404
21
-59.41
0
LINE
8
BLACK
6
CONTINUOUS
10
96.8404
20
-59.41
11
96.8214
21
-59.3748
0
LINE
8
BLACK
6
CONTINUOUS
10
96.8214
20
-59.3748
11
96.8212
21
-59.3745
0
LINE
8
BLACK
6
CONTINUOUS
10
96.8212
20
-59.3745
11
96.8204
21
-59.3724
0
LINE
8
BLACK
6
CONTINUOUS
10
96.8204
20
-59.3724
11
96.8195
21
-59.3703
0
LINE
8
BLACK
6
CONTINUOUS
10
96.8195
20
-59.3703
11
96.8077
21
-59.3322
0
LINE
8
BLACK
6
CONTINUOUS
10
96.8077
20
-59.3322
11
96.8076
21
-59.3318
0
LINE
8
BLACK
6
CONTINUOUS
10
96.8076
20
-59.3318
11
96.8072
21
-59.3296
0
LINE
8
BLACK
6
CONTINUOUS
10
96.8072
20
-59.3296
11
96.8067
21
-59.3274
0
LINE
8
BLACK
6
CONTINUOUS
10
96.8067
20
-59.3274
11
96.8025
21
-59.2876
0
LINE
8
BLACK
6
CONTINUOUS
10
96.8025
20
-59.2876
11
96.8025
21
-59.2873
0
LINE
8
BLACK
6
CONTINUOUS
10
96.8025
20
-59.2873
11
96.8025
21
-59.2862
0
LINE
8
BLACK
6
CONTINUOUS
10
96.8025
20
-59.2862
11
96.8024
21
-59.2851
0
LINE
8
BLACK
6
CONTINUOUS
10
96.8024
20
-59.2851
11
96.8024
21
-59.2848
0
LINE
8
BLACK
6
CONTINUOUS
10
96.8024
20
-59.2848
11
96.8024
21
-59.2848
0
LINE
8
BLACK
6
CONTINUOUS
10
96.8024
20
-59.2848
11
96.8024
21
-59.284
0
LINE
8
BLACK
6
CONTINUOUS
10
96.8024
20
-59.284
11
96.8024
21
-59.2837
0
LINE
8
BLACK
6
CONTINUOUS
10
96.8024
20
-59.2837
11
96.8024
21
-59.2833
0
LINE
8
BLACK
6
CONTINUOUS
10
96.8024
20
-59.2833
11
96.8024
21
-54.685
0
LINE
8
BLACK
6
CONTINUOUS
10
96.8024
20
-54.685
11
96.8028
21
-54.6813
0
LINE
8
BLACK
6
CONTINUOUS
10
96.8028
20
-54.6813
11
96.8042
21
-54.6766
0
LINE
8
BLACK
6
CONTINUOUS
10
96.8042
20
-54.6766
11
96.8065
21
-54.6722
0
LINE
8
BLACK
6
CONTINUOUS
10
96.8065
20
-54.6722
11
96.8096
21
-54.6684
0
LINE
8
BLACK
6
CONTINUOUS
10
96.8096
20
-54.6684
11
96.8134
21
-54.6653
0
LINE
8
BLACK
6
CONTINUOUS
10
96.8134
20
-54.6653
11
96.8178
21
-54.663
0
LINE
8
BLACK
6
CONTINUOUS
10
96.8178
20
-54.663
11
96.8225
21
-54.6616
0
LINE
8
BLACK
6
CONTINUOUS
10
96.8225
20
-54.6616
11
96.8274
21
-54.6611
0
LINE
8
BLACK
6
CONTINUOUS
10
96.8274
20
-54.6611
11
96.8323
21
-54.6616
0
LINE
8
BLACK
6
CONTINUOUS
10
96.8323
20
-54.6616
11
96.837
21
-54.663
0
LINE
8
BLACK
6
CONTINUOUS
10
96.837
20
-54.663
11
96.8414
21
-54.6653
0
LINE
8
BLACK
6
CONTINUOUS
10
96.8414
20
-54.6653
11
96.8452
21
-54.6684
0
LINE
8
BLACK
6
CONTINUOUS
10
96.8452
20
-54.6684
11
96.8483
21
-54.6722
0
LINE
8
BLACK
6
CONTINUOUS
10
96.8483
20
-54.6722
11
96.8506
21
-54.6766
0
LINE
8
BLACK
6
CONTINUOUS
10
96.8506
20
-54.6766
11
96.852
21
-54.6813
0
LINE
8
BLACK
6
CONTINUOUS
10
96.852
20
-54.6813
11
96.8524
21
-54.685
0
LINE
8
BLACK
6
CONTINUOUS
10
96.8524
20
-54.685
11
96.8524
21
-59.2835
0
LINE
8
BLACK
6
CONTINUOUS
10
96.8524
20
-59.2835
11
96.8524
21
-59.2837
0
LINE
8
BLACK
6
CONTINUOUS
10
96.8524
20
-59.2837
11
96.8562
21
-59.3197
0
LINE
8
BLACK
6
CONTINUOUS
10
96.8562
20
-59.3197
11
96.8666
21
-59.3532
0
LINE
8
BLACK
6
CONTINUOUS
10
96.8666
20
-59.3532
11
96.8832
21
-59.3841
0
LINE
8
BLACK
6
CONTINUOUS
10
96.8832
20
-59.3841
11
96.9056
21
-59.4111
0
LINE
8
BLACK
6
CONTINUOUS
10
96.9056
20
-59.4111
11
96.9328
21
-59.4332
0
LINE
8
BLACK
6
CONTINUOUS
10
96.9328
20
-59.4332
11
96.9637
21
-59.4497
0
LINE
8
BLACK
6
CONTINUOUS
10
96.9637
20
-59.4497
11
96.9973
21
-59.4598
0
LINE
8
BLACK
6
CONTINUOUS
10
96.9973
20
-59.4598
11
97.0334
21
-59.4634
0
LINE
8
BLACK
6
CONTINUOUS
10
97.0334
20
-59.4634
11
97.9225
21
-59.4634
0
LINE
8
BLACK
6
CONTINUOUS
10
97.9225
20
-59.4634
11
97.9227
21
-59.4634
0
LINE
8
BLACK
6
CONTINUOUS
10
97.9227
20
-59.4634
11
97.9587
21
-59.4596
0
LINE
8
BLACK
6
CONTINUOUS
10
97.9587
20
-59.4596
11
97.9922
21
-59.4492
0
LINE
8
BLACK
6
CONTINUOUS
10
97.9922
20
-59.4492
11
98.0231
21
-59.4325
0
LINE
8
BLACK
6
CONTINUOUS
10
98.0231
20
-59.4325
11
98.0501
21
-59.4102
0
LINE
8
BLACK
6
CONTINUOUS
10
98.0501
20
-59.4102
11
98.0723
21
-59.383
0
LINE
8
BLACK
6
CONTINUOUS
10
98.0723
20
-59.383
11
98.0887
21
-59.3521
0
LINE
8
BLACK
6
CONTINUOUS
10
98.0887
20
-59.3521
11
98.0989
21
-59.3185
0
LINE
8
BLACK
6
CONTINUOUS
10
98.0989
20
-59.3185
11
98.1024
21
-59.2824
0
LINE
8
BLACK
6
CONTINUOUS
10
98.1024
20
-59.2824
11
98.1024
21
-54.6874
0
LINE
8
BLACK
6
CONTINUOUS
10
98.1024
20
-54.6874
11
98.1023
21
-54.6862
0
LINE
8
BLACK
6
CONTINUOUS
10
98.1023
20
-54.6862
11
98.1028
21
-54.6813
0
LINE
8
BLACK
6
CONTINUOUS
10
98.1028
20
-54.6813
11
98.1042
21
-54.6766
0
LINE
8
BLACK
6
CONTINUOUS
10
98.1042
20
-54.6766
11
98.1065
21
-54.6722
0
LINE
8
BLACK
6
CONTINUOUS
10
98.1065
20
-54.6722
11
98.1096
21
-54.6684
0
LINE
8
BLACK
6
CONTINUOUS
10
98.1096
20
-54.6684
11
98.1134
21
-54.6653
0
LINE
8
BLACK
6
CONTINUOUS
10
98.1134
20
-54.6653
11
98.1178
21
-54.663
0
LINE
8
BLACK
6
CONTINUOUS
10
98.1178
20
-54.663
11
98.1225
21
-54.6616
0
LINE
8
BLACK
6
CONTINUOUS
10
98.1225
20
-54.6616
11
98.1262
21
-54.6612
0
LINE
8
BLACK
6
CONTINUOUS
10
98.1262
20
-54.6612
11
98.1274
21
-54.6611
0
LINE
8
BLACK
6
CONTINUOUS
10
98.1274
20
-54.6611
11
98.1286
21
-54.6612
0
LINE
8
BLACK
6
CONTINUOUS
10
98.1286
20
-54.6612
11
104.929
21
-54.6612
0
LINE
8
BLACK
6
CONTINUOUS
10
104.929
20
-54.6612
11
104.929
21
-54.6612
0
LINE
8
BLACK
6
CONTINUOUS
10
104.929
20
-54.6612
11
104.93
21
-54.6611
0
LINE
8
BLACK
6
CONTINUOUS
10
104.93
20
-54.6611
11
104.935
21
-54.6616
0
LINE
8
BLACK
6
CONTINUOUS
10
104.935
20
-54.6616
11
104.94
21
-54.663
0
LINE
8
BLACK
6
CONTINUOUS
10
104.94
20
-54.663
11
104.944
21
-54.6653
0
LINE
8
BLACK
6
CONTINUOUS
10
104.944
20
-54.6653
11
104.948
21
-54.6684
0
LINE
8
BLACK
6
CONTINUOUS
10
104.948
20
-54.6684
11
104.951
21
-54.6722
0
LINE
8
BLACK
6
CONTINUOUS
10
104.951
20
-54.6722
11
104.953
21
-54.6766
0
LINE
8
BLACK
6
CONTINUOUS
10
104.953
20
-54.6766
11
104.955
21
-54.6813
0
LINE
8
BLACK
6
CONTINUOUS
10
104.955
20
-54.6813
11
104.955
21
-54.685
0
LINE
8
BLACK
6
CONTINUOUS
10
104.955
20
-54.685
11
104.955
21
-59.2835
0
LINE
8
BLACK
6
CONTINUOUS
10
104.955
20
-59.2835
11
104.955
21
-59.2837
0
LINE
8
BLACK
6
CONTINUOUS
10
104.955
20
-59.2837
11
104.959
21
-59.3197
0
LINE
8
BLACK
6
CONTINUOUS
10
104.959
20
-59.3197
11
104.969
21
-59.3532
0
LINE
8
BLACK
6
CONTINUOUS
10
104.969
20
-59.3532
11
104.986
21
-59.3841
0
LINE
8
BLACK
6
CONTINUOUS
10
104.986
20
-59.3841
11
105.008
21
-59.4111
0
LINE
8
BLACK
6
CONTINUOUS
10
105.008
20
-59.4111
11
105.035
21
-59.4332
0
LINE
8
BLACK
6
CONTINUOUS
10
105.035
20
-59.4332
11
105.066
21
-59.4497
0
LINE
8
BLACK
6
CONTINUOUS
10
105.066
20
-59.4497
11
105.1
21
-59.4598
0
LINE
8
BLACK
6
CONTINUOUS
10
105.1
20
-59.4598
11
105.136
21
-59.4634
0
LINE
8
BLACK
6
CONTINUOUS
10
105.136
20
-59.4634
11
106.025
21
-59.4634
0
LINE
8
BLACK
6
CONTINUOUS
10
106.025
20
-59.4634
11
106.025
21
-59.4634
0
LINE
8
BLACK
6
CONTINUOUS
10
106.025
20
-59.4634
11
106.061
21
-59.4596
0
LINE
8
BLACK
6
CONTINUOUS
10
106.061
20
-59.4596
11
106.095
21
-59.4492
0
LINE
8
BLACK
6
CONTINUOUS
10
106.095
20
-59.4492
11
106.126
21
-59.4325
0
LINE
8
BLACK
6
CONTINUOUS
10
106.126
20
-59.4325
11
106.153
21
-59.4102
0
LINE
8
BLACK
6
CONTINUOUS
10
106.153
20
-59.4102
11
106.175
21
-59.383
0
LINE
8
BLACK
6
CONTINUOUS
10
106.175
20
-59.383
11
106.191
21
-59.3521
0
LINE
8
BLACK
6
CONTINUOUS
10
106.191
20
-59.3521
11
106.201
21
-59.3185
0
LINE
8
BLACK
6
CONTINUOUS
10
106.201
20
-59.3185
11
106.205
21
-59.2824
0
LINE
8
BLACK
6
CONTINUOUS
10
106.205
20
-59.2824
11
106.205
21
-54.685
0
LINE
8
BLACK
6
CONTINUOUS
10
106.205
20
-54.685
11
106.205
21
-54.6813
0
LINE
8
BLACK
6
CONTINUOUS
10
106.205
20
-54.6813
11
106.207
21
-54.6766
0
LINE
8
BLACK
6
CONTINUOUS
10
106.207
20
-54.6766
11
106.209
21
-54.6722
0
LINE
8
BLACK
6
CONTINUOUS
10
106.209
20
-54.6722
11
106.212
21
-54.6684
0
LINE
8
BLACK
6
CONTINUOUS
10
106.212
20
-54.6684
11
106.216
21
-54.6653
0
LINE
8
BLACK
6
CONTINUOUS
10
106.216
20
-54.6653
11
106.22
21
-54.663
0
LINE
8
BLACK
6
CONTINUOUS
10
106.22
20
-54.663
11
106.225
21
-54.6616
0
LINE
8
BLACK
6
CONTINUOUS
10
106.225
20
-54.6616
11
106.23
21
-54.6611
0
LINE
8
BLACK
6
CONTINUOUS
10
106.23
20
-54.6611
11
106.235
21
-54.6616
0
LINE
8
BLACK
6
CONTINUOUS
10
106.235
20
-54.6616
11
106.24
21
-54.663
0
LINE
8
BLACK
6
CONTINUOUS
10
106.24
20
-54.663
11
106.244
21
-54.6653
0
LINE
8
BLACK
6
CONTINUOUS
10
106.244
20
-54.6653
11
106.248
21
-54.6684
0
LINE
8
BLACK
6
CONTINUOUS
10
106.248
20
-54.6684
11
106.251
21
-54.6722
0
LINE
8
BLACK
6
CONTINUOUS
10
106.251
20
-54.6722
11
106.253
21
-54.6766
0
LINE
8
BLACK
6
CONTINUOUS
10
106.253
20
-54.6766
11
106.255
21
-54.6813
0
LINE
8
BLACK
6
CONTINUOUS
10
106.255
20
-54.6813
11
106.255
21
-54.685
0
LINE
8
BLACK
6
CONTINUOUS
10
106.255
20
-54.685
11
106.255
21
-59.2848
0
LINE
8
BLACK
6
CONTINUOUS
10
106.255
20
-59.2848
11
106.255
21
-59.286
0
LINE
8
BLACK
6
CONTINUOUS
10
106.255
20
-59.286
11
106.255
21
-59.286
0
LINE
8
BLACK
6
CONTINUOUS
10
106.255
20
-59.286
11
106.251
21
-59.3258
0
LINE
8
BLACK
6
CONTINUOUS
10
106.251
20
-59.3258
11
106.251
21
-59.3262
0
LINE
8
BLACK
6
CONTINUOUS
10
106.251
20
-59.3262
11
106.25
21
-59.3284
0
LINE
8
BLACK
6
CONTINUOUS
10
106.25
20
-59.3284
11
106.25
21
-59.3306
0
LINE
8
BLACK
6
CONTINUOUS
10
106.25
20
-59.3306
11
106.238
21
-59.3689
0
LINE
8
BLACK
6
CONTINUOUS
10
106.238
20
-59.3689
11
106.238
21
-59.3692
0
LINE
8
BLACK
6
CONTINUOUS
10
106.238
20
-59.3692
11
106.237
21
-59.3713
0
LINE
8
BLACK
6
CONTINUOUS
10
106.237
20
-59.3713
11
106.237
21
-59.3734
0
LINE
8
BLACK
6
CONTINUOUS
10
106.237
20
-59.3734
11
106.218
21
-59.4087
0
LINE
8
BLACK
6
CONTINUOUS
10
106.218
20
-59.4087
11
106.218
21
-59.409
0
LINE
8
BLACK
6
CONTINUOUS
10
106.218
20
-59.409
11
106.216
21
-59.4109
0
LINE
8
BLACK
6
CONTINUOUS
10
106.216
20
-59.4109
11
106.215
21
-59.4127
0
LINE
8
BLACK
6
CONTINUOUS
10
106.215
20
-59.4127
11
106.19
21
-59.4437
0
LINE
8
BLACK
6
CONTINUOUS
10
106.19
20
-59.4437
11
106.19
21
-59.444
0
LINE
8
BLACK
6
CONTINUOUS
10
106.19
20
-59.444
11
106.188
21
-59.4456
0
LINE
8
BLACK
6
CONTINUOUS
10
106.188
20
-59.4456
11
106.186
21
-59.4472
0
LINE
8
BLACK
6
CONTINUOUS
10
106.186
20
-59.4472
11
106.156
21
-59.4726
0
LINE
8
BLACK
6
CONTINUOUS
10
106.156
20
-59.4726
11
106.156
21
-59.4726
0
LINE
8
BLACK
6
CONTINUOUS
10
106.156
20
-59.4726
11
106.156
21
-59.4726
0
LINE
8
BLACK
6
CONTINUOUS
10
106.156
20
-59.4726
11
106.155
21
-59.4729
0
LINE
8
BLACK
6
CONTINUOUS
10
106.155
20
-59.4729
11
106.153
21
-59.4741
0
LINE
8
BLACK
6
CONTINUOUS
10
106.153
20
-59.4741
11
106.152
21
-59.4754
0
LINE
8
BLACK
6
CONTINUOUS
10
106.152
20
-59.4754
11
106.116
21
-59.4944
0
LINE
8
BLACK
6
CONTINUOUS
10
106.116
20
-59.4944
11
106.116
21
-59.4945
0
LINE
8
BLACK
6
CONTINUOUS
10
106.116
20
-59.4945
11
106.114
21
-59.4954
0
LINE
8
BLACK
6
CONTINUOUS
10
106.114
20
-59.4954
11
106.112
21
-59.4963
0
LINE
8
BLACK
6
CONTINUOUS
10
106.112
20
-59.4963
11
106.074
21
-59.5081
0
LINE
8
BLACK
6
CONTINUOUS
10
106.074
20
-59.5081
11
106.074
21
-59.5081
0
LINE
8
BLACK
6
CONTINUOUS
10
106.074
20
-59.5081
11
106.073
21
-59.5082
0
LINE
8
BLACK
6
CONTINUOUS
10
156.811
20
-53.5345
11
156.812
21
-53.5346
0
LINE
8
BLACK
6
CONTINUOUS
10
156.812
20
-53.5346
11
156.814
21
-53.5346
0
LINE
8
BLACK
6
CONTINUOUS
10
156.814
20
-53.5346
11
156.817
21
-53.5352
0
LINE
8
BLACK
6
CONTINUOUS
10
156.817
20
-53.5352
11
156.82
21
-53.5356
0
LINE
8
BLACK
6
CONTINUOUS
10
156.82
20
-53.5356
11
156.822
21
-53.536
0
LINE
8
BLACK
6
CONTINUOUS
10
156.822
20
-53.536
11
156.823
21
-53.5362
0
LINE
8
BLACK
6
CONTINUOUS
10
156.823
20
-53.5362
11
156.826
21
-53.5375
0
LINE
8
BLACK
6
CONTINUOUS
10
156.826
20
-53.5375
11
156.83
21
-53.5385
0
LINE
8
BLACK
6
CONTINUOUS
10
156.83
20
-53.5385
11
156.831
21
-53.5392
0
LINE
8
BLACK
6
CONTINUOUS
10
156.831
20
-53.5392
11
156.832
21
-53.5397
0
LINE
8
BLACK
6
CONTINUOUS
10
156.832
20
-53.5397
11
156.834
21
-53.5406
0
LINE
8
BLACK
6
CONTINUOUS
10
156.834
20
-53.5406
11
156.839
21
-53.5381
0
LINE
8
BLACK
6
CONTINUOUS
10
156.839
20
-53.5381
11
156.848
21
-53.5353
0
LINE
8
BLACK
6
CONTINUOUS
10
156.848
20
-53.5353
11
156.858
21
-53.5345
0
LINE
8
BLACK
6
CONTINUOUS
10
156.858
20
-53.5345
11
156.868
21
-53.5355
0
LINE
8
BLACK
6
CONTINUOUS
10
156.868
20
-53.5355
11
156.877
21
-53.5384
0
LINE
8
BLACK
6
CONTINUOUS
10
156.877
20
-53.5384
11
156.885
21
-53.543
0
LINE
8
BLACK
6
CONTINUOUS
10
156.885
20
-53.543
11
156.893
21
-53.5492
0
LINE
8
BLACK
6
CONTINUOUS
10
156.893
20
-53.5492
11
156.899
21
-53.5568
0
LINE
8
BLACK
6
CONTINUOUS
10
156.899
20
-53.5568
11
156.904
21
-53.5654
0
LINE
8
BLACK
6
CONTINUOUS
10
156.904
20
-53.5654
11
156.907
21
-53.5747
0
LINE
8
BLACK
6
CONTINUOUS
10
156.907
20
-53.5747
11
156.908
21
-53.5845
0
LINE
8
BLACK
6
CONTINUOUS
10
156.908
20
-53.5845
11
156.908
21
-53.9892
0
LINE
8
BLACK
6
CONTINUOUS
10
156.908
20
-53.9892
11
156.908
21
-53.9899
0
LINE
8
BLACK
6
CONTINUOUS
10
156.908
20
-53.9899
11
156.907
21
-53.9914
0
LINE
8
BLACK
6
CONTINUOUS
10
156.907
20
-53.9914
11
156.907
21
-53.9928
0
LINE
8
BLACK
6
CONTINUOUS
10
156.907
20
-53.9928
11
156.907
21
-53.9962
0
LINE
8
BLACK
6
CONTINUOUS
10
156.907
20
-53.9962
11
156.906
21
-53.9996
0
LINE
8
BLACK
6
CONTINUOUS
10
156.906
20
-53.9996
11
156.906
21
-54.001
0
LINE
8
BLACK
6
CONTINUOUS
10
156.906
20
-54.001
11
156.906
21
-54.0025
0
LINE
8
BLACK
6
CONTINUOUS
10
156.906
20
-54.0025
11
156.905
21
-54.0057
0
LINE
8
BLACK
6
CONTINUOUS
10
156.905
20
-54.0057
11
156.903
21
-54.0089
0
LINE
8
BLACK
6
CONTINUOUS
10
156.903
20
-54.0089
11
156.903
21
-54.0102
0
LINE
8
BLACK
6
CONTINUOUS
10
156.903
20
-54.0102
11
156.902
21
-54.0116
0
LINE
8
BLACK
6
CONTINUOUS
10
156.902
20
-54.0116
11
156.878
21
-54.0592
0
LINE
8
BLACK
6
CONTINUOUS
10
156.878
20
-54.0592
11
156.878
21
-54.0598
0
LINE
8
BLACK
6
CONTINUOUS
10
156.878
20
-54.0598
11
156.877
21
-54.0622
0
LINE
8
BLACK
6
CONTINUOUS
10
156.877
20
-54.0622
11
156.875
21
-54.0647
0
LINE
8
BLACK
6
CONTINUOUS
10
156.875
20
-54.0647
11
156.874
21
-54.0663
0
LINE
8
BLACK
6
CONTINUOUS
10
156.874
20
-54.0663
11
156.873
21
-54.068
0
LINE
8
BLACK
6
CONTINUOUS
10
156.873
20
-54.068
11
156.871
21
-54.07
0
LINE
8
BLACK
6
CONTINUOUS
10
156.871
20
-54.07
11
156.869
21
-54.0722
0
LINE
8
BLACK
6
CONTINUOUS
10
156.869
20
-54.0722
11
156.845
21
-54.096
0
LINE
8
BLACK
6
CONTINUOUS
10
156.845
20
-54.096
11
156.845
21
-54.0965
0
LINE
8
BLACK
6
CONTINUOUS
10
156.845
20
-54.0965
11
156.843
21
-54.0982
0
LINE
8
BLACK
6
CONTINUOUS
10
156.843
20
-54.0982
11
156.841
21
-54.1002
0
LINE
8
BLACK
6
CONTINUOUS
10
156.841
20
-54.1002
11
156.839
21
-54.1013
0
LINE
8
BLACK
6
CONTINUOUS
10
156.839
20
-54.1013
11
156.837
21
-54.1026
0
LINE
8
BLACK
6
CONTINUOUS
10
156.837
20
-54.1026
11
156.835
21
-54.1039
0
LINE
8
BLACK
6
CONTINUOUS
10
156.835
20
-54.1039
11
156.832
21
-54.1054
0
LINE
8
BLACK
6
CONTINUOUS
10
156.832
20
-54.1054
11
156.785
21
-54.1292
0
LINE
8
BLACK
6
CONTINUOUS
10
156.785
20
-54.1292
11
156.784
21
-54.1295
0
LINE
8
BLACK
6
CONTINUOUS
10
156.784
20
-54.1295
11
156.783
21
-54.13
0
LINE
8
BLACK
6
CONTINUOUS
10
156.783
20
-54.13
11
156.781
21
-54.1307
0
LINE
8
BLACK
6
CONTINUOUS
10
156.781
20
-54.1307
11
156.778
21
-54.1317
0
LINE
8
BLACK
6
CONTINUOUS
10
156.778
20
-54.1317
11
156.775
21
-54.1328
0
LINE
8
BLACK
6
CONTINUOUS
10
156.775
20
-54.1328
11
156.773
21
-54.1331
0
LINE
8
BLACK
6
CONTINUOUS
10
156.773
20
-54.1331
11
156.772
21
-54.1335
0
LINE
8
BLACK
6
CONTINUOUS
10
156.772
20
-54.1335
11
156.769
21
-54.1338
0
LINE
8
BLACK
6
CONTINUOUS
10
156.769
20
-54.1338
11
156.765
21
-54.1344
0
LINE
8
BLACK
6
CONTINUOUS
10
156.765
20
-54.1344
11
156.764
21
-54.1343
0
LINE
8
BLACK
6
CONTINUOUS
10
156.764
20
-54.1343
11
156.762
21
-54.1345
0
LINE
8
BLACK
6
CONTINUOUS
10
156.762
20
-54.1345
11
156.691
21
-54.1345
0
LINE
8
BLACK
6
CONTINUOUS
10
156.691
20
-54.1345
11
156.69
21
-54.1345
0
LINE
8
BLACK
6
CONTINUOUS
10
156.69
20
-54.1345
11
156.689
21
-54.1343
0
LINE
8
BLACK
6
CONTINUOUS
10
156.689
20
-54.1343
11
156.687
21
-54.1343
0
LINE
8
BLACK
6
CONTINUOUS
10
156.687
20
-54.1343
11
156.684
21
-54.1337
0
LINE
8
BLACK
6
CONTINUOUS
10
156.684
20
-54.1337
11
156.68
21
-54.1334
0
LINE
8
BLACK
6
CONTINUOUS
10
156.68
20
-54.1334
11
156.679
21
-54.1329
0
LINE
8
BLACK
6
CONTINUOUS
10
156.679
20
-54.1329
11
156.678
21
-54.1327
0
LINE
8
BLACK
6
CONTINUOUS
10
156.678
20
-54.1327
11
156.674
21
-54.1314
0
LINE
8
BLACK
6
CONTINUOUS
10
156.674
20
-54.1314
11
156.671
21
-54.1304
0
LINE
8
BLACK
6
CONTINUOUS
10
156.671
20
-54.1304
11
156.67
21
-54.1297
0
LINE
8
BLACK
6
CONTINUOUS
10
156.67
20
-54.1297
11
156.668
21
-54.1292
0
LINE
8
BLACK
6
CONTINUOUS
10
156.668
20
-54.1292
11
156.621
21
-54.1054
0
LINE
8
BLACK
6
CONTINUOUS
10
156.621
20
-54.1054
11
156.62
21
-54.1051
0
LINE
8
BLACK
6
CONTINUOUS
10
156.62
20
-54.1051
11
156.612
21
-54.0997
0
LINE
8
BLACK
6
CONTINUOUS
10
156.612
20
-54.0997
11
156.605
21
-54.0929
0
LINE
8
BLACK
6
CONTINUOUS
10
156.605
20
-54.0929
11
156.6
21
-54.0849
0
LINE
8
BLACK
6
CONTINUOUS
10
156.6
20
-54.0849
11
156.596
21
-54.076
0
LINE
8
BLACK
6
CONTINUOUS
10
156.596
20
-54.076
11
156.594
21
-54.0664
0
LINE
8
BLACK
6
CONTINUOUS
10
156.594
20
-54.0664
11
156.593
21
-54.0567
0
LINE
8
BLACK
6
CONTINUOUS
10
156.593
20
-54.0567
11
156.595
21
-54.0471
0
LINE
8
BLACK
6
CONTINUOUS
10
156.595
20
-54.0471
11
156.599
21
-54.038
0
LINE
8
BLACK
6
CONTINUOUS
10
156.599
20
-54.038
11
156.604
21
-54.0297
0
LINE
8
BLACK
6
CONTINUOUS
10
156.604
20
-54.0297
11
156.611
21
-54.0227
0
LINE
8
BLACK
6
CONTINUOUS
10
156.611
20
-54.0227
11
156.619
21
-54.0171
0
LINE
8
BLACK
6
CONTINUOUS
10
156.619
20
-54.0171
11
156.628
21
-54.0132
0
LINE
8
BLACK
6
CONTINUOUS
10
156.628
20
-54.0132
11
156.637
21
-54.011
0
LINE
8
BLACK
6
CONTINUOUS
10
156.637
20
-54.011
11
156.647
21
-54.0108
0
LINE
8
BLACK
6
CONTINUOUS
10
156.647
20
-54.0108
11
156.656
21
-54.0124
0
LINE
8
BLACK
6
CONTINUOUS
10
156.656
20
-54.0124
11
156.666
21
-54.0159
0
LINE
8
BLACK
6
CONTINUOUS
10
156.666
20
-54.0159
11
156.703
21
-54.0345
0
LINE
8
BLACK
6
CONTINUOUS
10
156.703
20
-54.0345
11
156.75
21
-54.0345
0
LINE
8
BLACK
6
CONTINUOUS
10
156.75
20
-54.0345
11
156.78
21
-54.0196
0
LINE
8
BLACK
6
CONTINUOUS
10
156.78
20
-54.0196
11
156.793
21
-54.0072
0
LINE
8
BLACK
6
CONTINUOUS
10
156.793
20
-54.0072
11
156.808
21
-53.9774
0
LINE
8
BLACK
6
CONTINUOUS
10
156.808
20
-53.9774
11
156.808
21
-53.9678
0
LINE
8
BLACK
6
CONTINUOUS
10
156.808
20
-53.9678
11
156.715
21
-53.9678
0
LINE
8
BLACK
6
CONTINUOUS
10
156.715
20
-53.9678
11
156.714
21
-53.9678
0
LINE
8
BLACK
6
CONTINUOUS
10
156.714
20
-53.9678
11
156.712
21
-53.9676
0
LINE
8
BLACK
6
CONTINUOUS
10
156.712
20
-53.9676
11
156.711
21
-53.9677
0
LINE
8
BLACK
6
CONTINUOUS
10
156.711
20
-53.9677
11
156.708
21
-53.9671
0
LINE
8
BLACK
6
CONTINUOUS
10
156.708
20
-53.9671
11
156.704
21
-53.9667
0
LINE
8
BLACK
6
CONTINUOUS
10
156.704
20
-53.9667
11
156.703
21
-53.9663
0
LINE
8
BLACK
6
CONTINUOUS
10
156.703
20
-53.9663
11
156.701
21
-53.966
0
LINE
8
BLACK
6
CONTINUOUS
10
156.701
20
-53.966
11
156.698
21
-53.9648
0
LINE
8
BLACK
6
CONTINUOUS
10
156.698
20
-53.9648
11
156.695
21
-53.9637
0
LINE
8
BLACK
6
CONTINUOUS
10
156.695
20
-53.9637
11
156.694
21
-53.963
0
LINE
8
BLACK
6
CONTINUOUS
10
156.694
20
-53.963
11
156.692
21
-53.9625
0
LINE
8
BLACK
6
CONTINUOUS
10
156.692
20
-53.9625
11
156.645
21
-53.9387
0
LINE
8
BLACK
6
CONTINUOUS
10
156.645
20
-53.9387
11
156.644
21
-53.9384
0
LINE
8
BLACK
6
CONTINUOUS
10
156.644
20
-53.9384
11
156.642
21
-53.9369
0
LINE
8
BLACK
6
CONTINUOUS
10
156.642
20
-53.9369
11
156.639
21
-53.9355
0
LINE
8
BLACK
6
CONTINUOUS
10
156.639
20
-53.9355
11
156.638
21
-53.9342
0
LINE
8
BLACK
6
CONTINUOUS
10
156.638
20
-53.9342
11
156.636
21
-53.9331
0
LINE
8
BLACK
6
CONTINUOUS
10
156.636
20
-53.9331
11
156.634
21
-53.9311
0
LINE
8
BLACK
6
CONTINUOUS
10
156.634
20
-53.9311
11
156.632
21
-53.9293
0
LINE
8
BLACK
6
CONTINUOUS
10
156.632
20
-53.9293
11
156.608
21
-53.9055
0
LINE
8
BLACK
6
CONTINUOUS
10
156.608
20
-53.9055
11
156.607
21
-53.905
0
LINE
8
BLACK
6
CONTINUOUS
10
156.607
20
-53.905
11
156.606
21
-53.9028
0
LINE
8
BLACK
6
CONTINUOUS
10
156.606
20
-53.9028
11
156.604
21
-53.9008
0
LINE
8
BLACK
6
CONTINUOUS
10
156.604
20
-53.9008
11
156.603
21
-53.899
0
LINE
8
BLACK
6
CONTINUOUS
10
156.603
20
-53.899
11
156.601
21
-53.8974
0
LINE
8
BLACK
6
CONTINUOUS
10
156.601
20
-53.8974
11
156.6
21
-53.8949
0
LINE
8
BLACK
6
CONTINUOUS
10
156.6
20
-53.8949
11
156.599
21
-53.8925
0
LINE
8
BLACK
6
CONTINUOUS
10
156.599
20
-53.8925
11
156.575
21
-53.8449
0
LINE
8
BLACK
6
CONTINUOUS
10
156.575
20
-53.8449
11
156.574
21
-53.8443
0
LINE
8
BLACK
6
CONTINUOUS
10
156.574
20
-53.8443
11
156.574
21
-53.8429
0
LINE
8
BLACK
6
CONTINUOUS
10
156.574
20
-53.8429
11
156.573
21
-53.8416
0
LINE
8
BLACK
6
CONTINUOUS
10
156.573
20
-53.8416
11
156.572
21
-53.8383
0
LINE
8
BLACK
6
CONTINUOUS
10
156.572
20
-53.8383
11
156.571
21
-53.8351
0
LINE
8
BLACK
6
CONTINUOUS
10
156.571
20
-53.8351
11
156.571
21
-53.8337
0
LINE
8
BLACK
6
CONTINUOUS
10
156.571
20
-53.8337
11
156.57
21
-53.8323
0
LINE
8
BLACK
6
CONTINUOUS
10
156.57
20
-53.8323
11
156.57
21
-53.8289
0
LINE
8
BLACK
6
CONTINUOUS
10
156.57
20
-53.8289
11
156.57
21
-53.8255
0
LINE
8
BLACK
6
CONTINUOUS
10
156.57
20
-53.8255
11
156.57
21
-53.824
0
LINE
8
BLACK
6
CONTINUOUS
10
156.57
20
-53.824
11
156.569
21
-53.8226
0
LINE
8
BLACK
6
CONTINUOUS
10
156.569
20
-53.8226
11
156.569
21
-53.6797
0
LINE
8
BLACK
6
CONTINUOUS
10
156.569
20
-53.6797
11
156.569
21
-53.679
0
LINE
8
BLACK
6
CONTINUOUS
10
156.569
20
-53.679
11
156.57
21
-53.6775
0
LINE
8
BLACK
6
CONTINUOUS
10
156.57
20
-53.6775
11
156.57
21
-53.6761
0
LINE
8
BLACK
6
CONTINUOUS
10
156.57
20
-53.6761
11
156.57
21
-53.6727
0
LINE
8
BLACK
6
CONTINUOUS
10
156.57
20
-53.6727
11
156.571
21
-53.6693
0
LINE
8
BLACK
6
CONTINUOUS
10
156.571
20
-53.6693
11
156.571
21
-53.6679
0
LINE
8
BLACK
6
CONTINUOUS
10
156.571
20
-53.6679
11
156.571
21
-53.6664
0
LINE
8
BLACK
6
CONTINUOUS
10
156.571
20
-53.6664
11
156.572
21
-53.6632
0
LINE
8
BLACK
6
CONTINUOUS
10
156.572
20
-53.6632
11
156.573
21
-53.66
0
LINE
8
BLACK
6
CONTINUOUS
10
156.573
20
-53.66
11
156.574
21
-53.6587
0
LINE
8
BLACK
6
CONTINUOUS
10
156.574
20
-53.6587
11
156.575
21
-53.6573
0
LINE
8
BLACK
6
CONTINUOUS
10
156.575
20
-53.6573
11
156.599
21
-53.6097
0
LINE
8
BLACK
6
CONTINUOUS
10
156.599
20
-53.6097
11
156.599
21
-53.6091
0
LINE
8
BLACK
6
CONTINUOUS
10
156.599
20
-53.6091
11
156.6
21
-53.6067
0
LINE
8
BLACK
6
CONTINUOUS
10
156.6
20
-53.6067
11
156.602
21
-53.6043
0
LINE
8
BLACK
6
CONTINUOUS
10
156.602
20
-53.6043
11
156.603
21
-53.6026
0
LINE
8
BLACK
6
CONTINUOUS
10
156.603
20
-53.6026
11
156.604
21
-53.6009
0
LINE
8
BLACK
6
CONTINUOUS
10
156.604
20
-53.6009
11
156.606
21
-53.5989
0
LINE
8
BLACK
6
CONTINUOUS
10
156.606
20
-53.5989
11
156.608
21
-53.5967
0
LINE
8
BLACK
6
CONTINUOUS
10
156.608
20
-53.5967
11
156.632
21
-53.5729
0
LINE
8
BLACK
6
CONTINUOUS
10
156.632
20
-53.5729
11
156.632
21
-53.5724
0
LINE
8
BLACK
6
CONTINUOUS
10
156.632
20
-53.5724
11
156.634
21
-53.5707
0
LINE
8
BLACK
6
CONTINUOUS
10
156.634
20
-53.5707
11
156.636
21
-53.5687
0
LINE
8
BLACK
6
CONTINUOUS
10
156.636
20
-53.5687
11
156.638
21
-53.5676
0
LINE
8
BLACK
6
CONTINUOUS
10
156.638
20
-53.5676
11
156.64
21
-53.5663
0
LINE
8
BLACK
6
CONTINUOUS
10
156.64
20
-53.5663
11
156.642
21
-53.565
0
LINE
8
BLACK
6
CONTINUOUS
10
156.642
20
-53.565
11
156.645
21
-53.5635
0
LINE
8
BLACK
6
CONTINUOUS
10
156.645
20
-53.5635
11
156.692
21
-53.5397
0
LINE
8
BLACK
6
CONTINUOUS
10
156.692
20
-53.5397
11
156.693
21
-53.5394
0
LINE
8
BLACK
6
CONTINUOUS
10
156.693
20
-53.5394
11
156.694
21
-53.5389
0
LINE
8
BLACK
6
CONTINUOUS
10
156.694
20
-53.5389
11
156.696
21
-53.5382
0
LINE
8
BLACK
6
CONTINUOUS
10
156.696
20
-53.5382
11
156.699
21
-53.5372
0
LINE
8
BLACK
6
CONTINUOUS
10
156.699
20
-53.5372
11
156.702
21
-53.5361
0
LINE
8
BLACK
6
CONTINUOUS
10
156.702
20
-53.5361
11
156.704
21
-53.5358
0
LINE
8
BLACK
6
CONTINUOUS
10
156.704
20
-53.5358
11
156.705
21
-53.5354
0
LINE
8
BLACK
6
CONTINUOUS
10
156.705
20
-53.5354
11
156.708
21
-53.5351
0
LINE
8
BLACK
6
CONTINUOUS
10
156.708
20
-53.5351
11
156.712
21
-53.5345
0
LINE
8
BLACK
6
CONTINUOUS
10
156.712
20
-53.5345
11
156.713
21
-53.5346
0
LINE
8
BLACK
6
CONTINUOUS
10
156.713
20
-53.5346
11
156.715
21
-53.5345
0
LINE
8
BLACK
6
CONTINUOUS
10
156.715
20
-53.5345
11
156.81
21
-53.5345
0
LINE
8
BLACK
6
CONTINUOUS
10
156.81
20
-53.5345
11
156.811
21
-53.5345
0
LINE
8
BLACK
6
CONTINUOUS
10
156.726
20
-53.6345
11
156.697
21
-53.6494
0
LINE
8
BLACK
6
CONTINUOUS
10
156.697
20
-53.6494
11
156.684
21
-53.6617
0
LINE
8
BLACK
6
CONTINUOUS
10
156.684
20
-53.6617
11
156.669
21
-53.6915
0
LINE
8
BLACK
6
CONTINUOUS
10
156.669
20
-53.6915
11
156.669
21
-53.8107
0
LINE
8
BLACK
6
CONTINUOUS
10
156.669
20
-53.8107
11
156.684
21
-53.8406
0
LINE
8
BLACK
6
CONTINUOUS
10
156.684
20
-53.8406
11
156.697
21
-53.8529
0
LINE
8
BLACK
6
CONTINUOUS
10
156.697
20
-53.8529
11
156.726
21
-53.8678
0
LINE
8
BLACK
6
CONTINUOUS
10
156.726
20
-53.8678
11
156.798
21
-53.8678
0
LINE
8
BLACK
6
CONTINUOUS
10
156.798
20
-53.8678
11
156.808
21
-53.8631
0
LINE
8
BLACK
6
CONTINUOUS
10
156.808
20
-53.8631
11
156.808
21
-53.6392
0
LINE
8
BLACK
6
CONTINUOUS
10
156.808
20
-53.6392
11
156.798
21
-53.6345
0
LINE
8
BLACK
6
CONTINUOUS
10
156.798
20
-53.6345
11
156.726
21
-53.6345
0
LINE
8
BLACK
6
CONTINUOUS
10
157.239
20
-53.5345
11
157.241
21
-53.5346
0
LINE
8
BLACK
6
CONTINUOUS
10
157.241
20
-53.5346
11
157.242
21
-53.5346
0
LINE
8
BLACK
6
CONTINUOUS
10
157.242
20
-53.5346
11
157.245
21
-53.5352
0
LINE
8
BLACK
6
CONTINUOUS
10
157.245
20
-53.5352
11
157.249
21
-53.5356
0
LINE
8
BLACK
6
CONTINUOUS
10
157.249
20
-53.5356
11
157.25
21
-53.536
0
LINE
8
BLACK
6
CONTINUOUS
10
157.25
20
-53.536
11
157.252
21
-53.5362
0
LINE
8
BLACK
6
CONTINUOUS
10
157.252
20
-53.5362
11
157.255
21
-53.5375
0
LINE
8
BLACK
6
CONTINUOUS
10
157.255
20
-53.5375
11
157.258
21
-53.5385
0
LINE
8
BLACK
6
CONTINUOUS
10
157.258
20
-53.5385
11
157.259
21
-53.5392
0
LINE
8
BLACK
6
CONTINUOUS
10
157.259
20
-53.5392
11
157.261
21
-53.5397
0
LINE
8
BLACK
6
CONTINUOUS
10
157.261
20
-53.5397
11
157.308
21
-53.5635
0
LINE
8
BLACK
6
CONTINUOUS
10
157.308
20
-53.5635
11
157.309
21
-53.5639
0
LINE
8
BLACK
6
CONTINUOUS
10
157.309
20
-53.5639
11
157.31
21
-53.5644
0
LINE
8
BLACK
6
CONTINUOUS
10
157.31
20
-53.5644
11
157.311
21
-53.5649
0
LINE
8
BLACK
6
CONTINUOUS
10
157.311
20
-53.5649
11
157.314
21
-53.5671
0
LINE
8
BLACK
6
CONTINUOUS
10
157.314
20
-53.5671
11
157.317
21
-53.5692
0
LINE
8
BLACK
6
CONTINUOUS
10
157.317
20
-53.5692
11
157.318
21
-53.5699
0
LINE
8
BLACK
6
CONTINUOUS
10
157.318
20
-53.5699
11
157.319
21
-53.5705
0
LINE
8
BLACK
6
CONTINUOUS
10
157.319
20
-53.5705
11
157.322
21
-53.5733
0
LINE
8
BLACK
6
CONTINUOUS
10
157.322
20
-53.5733
11
157.324
21
-53.576
0
LINE
8
BLACK
6
CONTINUOUS
10
157.324
20
-53.576
11
157.325
21
-53.5769
0
LINE
8
BLACK
6
CONTINUOUS
10
157.325
20
-53.5769
11
157.326
21
-53.5776
0
LINE
8
BLACK
6
CONTINUOUS
10
157.326
20
-53.5776
11
157.328
21
-53.5809
0
LINE
8
BLACK
6
CONTINUOUS
10
157.328
20
-53.5809
11
157.33
21
-53.584
0
LINE
8
BLACK
6
CONTINUOUS
10
157.33
20
-53.584
11
157.33
21
-53.585
0
LINE
8
BLACK
6
CONTINUOUS
10
157.33
20
-53.585
11
157.331
21
-53.5859
0
LINE
8
BLACK
6
CONTINUOUS
10
157.331
20
-53.5859
11
157.355
21
-53.6335
0
LINE
8
BLACK
6
CONTINUOUS
10
157.355
20
-53.6335
11
157.355
21
-53.6342
0
LINE
8
BLACK
6
CONTINUOUS
10
157.355
20
-53.6342
11
157.355
21
-53.6355
0
LINE
8
BLACK
6
CONTINUOUS
10
157.355
20
-53.6355
11
157.356
21
-53.6368
0
LINE
8
BLACK
6
CONTINUOUS
10
157.356
20
-53.6368
11
157.357
21
-53.6401
0
LINE
8
BLACK
6
CONTINUOUS
10
157.357
20
-53.6401
11
157.358
21
-53.6433
0
LINE
8
BLACK
6
CONTINUOUS
10
157.358
20
-53.6433
11
157.359
21
-53.6448
0
LINE
8
BLACK
6
CONTINUOUS
10
157.359
20
-53.6448
11
157.359
21
-53.6462
0
LINE
8
BLACK
6
CONTINUOUS
10
157.359
20
-53.6462
11
157.359
21
-53.6496
0
LINE
8
BLACK
6
CONTINUOUS
10
157.359
20
-53.6496
11
157.36
21
-53.6529
0
LINE
8
BLACK
6
CONTINUOUS
10
157.36
20
-53.6529
11
157.36
21
-53.6544
0
LINE
8
BLACK
6
CONTINUOUS
10
157.36
20
-53.6544
11
157.36
21
-53.6559
0
LINE
8
BLACK
6
CONTINUOUS
10
157.36
20
-53.6559
11
157.36
21
-53.7035
0
LINE
8
BLACK
6
CONTINUOUS
10
157.36
20
-53.7035
11
157.36
21
-53.7037
0
LINE
8
BLACK
6
CONTINUOUS
10
157.36
20
-53.7037
11
157.36
21
-53.7038
0
LINE
8
BLACK
6
CONTINUOUS
10
157.36
20
-53.7038
11
157.36
21
-53.7038
0
LINE
8
BLACK
6
CONTINUOUS
10
157.36
20
-53.7038
11
157.36
21
-53.7042
0
LINE
8
BLACK
6
CONTINUOUS
10
157.36
20
-53.7042
11
157.359
21
-53.7088
0
LINE
8
BLACK
6
CONTINUOUS
10
157.359
20
-53.7088
11
157.359
21
-53.7135
0
LINE
8
BLACK
6
CONTINUOUS
10
157.359
20
-53.7135
11
157.359
21
-53.7137
0
LINE
8
BLACK
6
CONTINUOUS
10
157.359
20
-53.7137
11
157.359
21
-53.7139
0
LINE
8
BLACK
6
CONTINUOUS
10
157.359
20
-53.7139
11
157.357
21
-53.7183
0
LINE
8
BLACK
6
CONTINUOUS
10
157.357
20
-53.7183
11
157.356
21
-53.7228
0
LINE
8
BLACK
6
CONTINUOUS
10
157.356
20
-53.7228
11
157.356
21
-53.723
0
LINE
8
BLACK
6
CONTINUOUS
10
157.356
20
-53.723
11
157.356
21
-53.7232
0
LINE
8
BLACK
6
CONTINUOUS
10
157.356
20
-53.7232
11
157.354
21
-53.7273
0
LINE
8
BLACK
6
CONTINUOUS
10
157.354
20
-53.7273
11
157.351
21
-53.7314
0
LINE
8
BLACK
6
CONTINUOUS
10
157.351
20
-53.7314
11
157.351
21
-53.7316
0
LINE
8
BLACK
6
CONTINUOUS
10
157.351
20
-53.7316
11
157.351
21
-53.7318
0
LINE
8
BLACK
6
CONTINUOUS
10
157.351
20
-53.7318
11
157.348
21
-53.7353
0
LINE
8
BLACK
6
CONTINUOUS
10
157.348
20
-53.7353
11
157.345
21
-53.7389
0
LINE
8
BLACK
6
CONTINUOUS
10
157.345
20
-53.7389
11
157.345
21
-53.7391
0
LINE
8
BLACK
6
CONTINUOUS
10
157.345
20
-53.7391
11
157.345
21
-53.7392
0
LINE
8
BLACK
6
CONTINUOUS
10
157.345
20
-53.7392
11
157.341
21
-53.7421
0
LINE
8
BLACK
6
CONTINUOUS
10
157.341
20
-53.7421
11
157.338
21
-53.7451
0
LINE
8
BLACK
6
CONTINUOUS
10
157.338
20
-53.7451
11
157.337
21
-53.7452
0
LINE
8
BLACK
6
CONTINUOUS
10
157.337
20
-53.7452
11
157.337
21
-53.7453
0
LINE
8
BLACK
6
CONTINUOUS
10
157.337
20
-53.7453
11
157.333
21
-53.7475
0
LINE
8
BLACK
6
CONTINUOUS
10
157.333
20
-53.7475
11
157.329
21
-53.7497
0
LINE
8
BLACK
6
CONTINUOUS
10
157.329
20
-53.7497
11
157.329
21
-53.7498
0
LINE
8
BLACK
6
CONTINUOUS
10
157.329
20
-53.7498
11
157.329
21
-53.7499
0
LINE
8
BLACK
6
CONTINUOUS
10
157.329
20
-53.7499
11
157.324
21
-53.7512
0
LINE
8
BLACK
6
CONTINUOUS
10
157.324
20
-53.7512
11
157.32
21
-53.7525
0
LINE
8
BLACK
6
CONTINUOUS
10
157.32
20
-53.7525
11
157.122
21
-53.7921
0
LINE
8
BLACK
6
CONTINUOUS
10
157.122
20
-53.7921
11
157.122
21
-53.8346
0
LINE
8
BLACK
6
CONTINUOUS
10
157.122
20
-53.8346
11
157.133
21
-53.8567
0
LINE
8
BLACK
6
CONTINUOUS
10
157.133
20
-53.8567
11
157.155
21
-53.8678
0
LINE
8
BLACK
6
CONTINUOUS
10
157.155
20
-53.8678
11
157.227
21
-53.8678
0
LINE
8
BLACK
6
CONTINUOUS
10
157.227
20
-53.8678
11
157.264
21
-53.8493
0
LINE
8
BLACK
6
CONTINUOUS
10
157.264
20
-53.8493
11
157.264
21
-53.849
0
LINE
8
BLACK
6
CONTINUOUS
10
157.264
20
-53.849
11
157.274
21
-53.8456
0
LINE
8
BLACK
6
CONTINUOUS
10
157.274
20
-53.8456
11
157.283
21
-53.8441
0
LINE
8
BLACK
6
CONTINUOUS
10
157.283
20
-53.8441
11
157.293
21
-53.8444
0
LINE
8
BLACK
6
CONTINUOUS
10
157.293
20
-53.8444
11
157.302
21
-53.8467
0
LINE
8
BLACK
6
CONTINUOUS
10
157.302
20
-53.8467
11
157.311
21
-53.8508
0
LINE
8
BLACK
6
CONTINUOUS
10
157.311
20
-53.8508
11
157.319
21
-53.8565
0
LINE
8
BLACK
6
CONTINUOUS
10
157.319
20
-53.8565
11
157.326
21
-53.8636
0
LINE
8
BLACK
6
CONTINUOUS
10
157.326
20
-53.8636
11
157.331
21
-53.8719
0
LINE
8
BLACK
6
CONTINUOUS
10
157.331
20
-53.8719
11
157.334
21
-53.8811
0
LINE
8
BLACK
6
CONTINUOUS
10
157.334
20
-53.8811
11
157.336
21
-53.8907
0
LINE
8
BLACK
6
CONTINUOUS
10
157.336
20
-53.8907
11
157.336
21
-53.9004
0
LINE
8
BLACK
6
CONTINUOUS
10
157.336
20
-53.9004
11
157.333
21
-53.91
0
LINE
8
BLACK
6
CONTINUOUS
10
157.333
20
-53.91
11
157.329
21
-53.9189
0
LINE
8
BLACK
6
CONTINUOUS
10
157.329
20
-53.9189
11
157.324
21
-53.9268
0
LINE
8
BLACK
6
CONTINUOUS
10
157.324
20
-53.9268
11
157.317
21
-53.9335
0
LINE
8
BLACK
6
CONTINUOUS
10
157.317
20
-53.9335
11
157.308
21
-53.9387
0
LINE
8
BLACK
6
CONTINUOUS
10
157.308
20
-53.9387
11
157.261
21
-53.9625
0
LINE
8
BLACK
6
CONTINUOUS
10
157.261
20
-53.9625
11
157.26
21
-53.9628
0
LINE
8
BLACK
6
CONTINUOUS
10
157.26
20
-53.9628
11
157.259
21
-53.9633
0
LINE
8
BLACK
6
CONTINUOUS
10
157.259
20
-53.9633
11
157.258
21
-53.964
0
LINE
8
BLACK
6
CONTINUOUS
10
157.258
20
-53.964
11
157.254
21
-53.965
0
LINE
8
BLACK
6
CONTINUOUS
10
157.254
20
-53.965
11
157.251
21
-53.9662
0
LINE
8
BLACK
6
CONTINUOUS
10
157.251
20
-53.9662
11
157.25
21
-53.9664
0
LINE
8
BLACK
6
CONTINUOUS
10
157.25
20
-53.9664
11
157.248
21
-53.9668
0
LINE
8
BLACK
6
CONTINUOUS
10
157.248
20
-53.9668
11
157.245
21
-53.9672
0
LINE
8
BLACK
6
CONTINUOUS
10
157.245
20
-53.9672
11
157.241
21
-53.9677
0
LINE
8
BLACK
6
CONTINUOUS
10
157.241
20
-53.9677
11
157.24
21
-53.9676
0
LINE
8
BLACK
6
CONTINUOUS
10
157.24
20
-53.9676
11
157.238
21
-53.9678
0
LINE
8
BLACK
6
CONTINUOUS
10
157.238
20
-53.9678
11
157.143
21
-53.9678
0
LINE
8
BLACK
6
CONTINUOUS
10
157.143
20
-53.9678
11
157.143
21
-53.9678
0
LINE
8
BLACK
6
CONTINUOUS
10
157.143
20
-53.9678
11
157.141
21
-53.9676
0
LINE
8
BLACK
6
CONTINUOUS
10
157.141
20
-53.9676
11
157.14
21
-53.9677
0
LINE
8
BLACK
6
CONTINUOUS
10
157.14
20
-53.9677
11
157.136
21
-53.9671
0
LINE
8
BLACK
6
CONTINUOUS
10
157.136
20
-53.9671
11
157.133
21
-53.9667
0
LINE
8
BLACK
6
CONTINUOUS
10
157.133
20
-53.9667
11
157.131
21
-53.9663
0
LINE
8
BLACK
6
CONTINUOUS
10
157.131
20
-53.9663
11
157.13
21
-53.966
0
LINE
8
BLACK
6
CONTINUOUS
10
157.13
20
-53.966
11
157.127
21
-53.9648
0
LINE
8
BLACK
6
CONTINUOUS
10
157.127
20
-53.9648
11
157.124
21
-53.9637
0
LINE
8
BLACK
6
CONTINUOUS
10
157.124
20
-53.9637
11
157.122
21
-53.963
0
LINE
8
BLACK
6
CONTINUOUS
10
157.122
20
-53.963
11
157.121
21
-53.9625
0
LINE
8
BLACK
6
CONTINUOUS
10
157.121
20
-53.9625
11
157.073
21
-53.9387
0
LINE
8
BLACK
6
CONTINUOUS
10
157.073
20
-53.9387
11
157.073
21
-53.9384
0
LINE
8
BLACK
6
CONTINUOUS
10
157.073
20
-53.9384
11
157.072
21
-53.9378
0
LINE
8
BLACK
6
CONTINUOUS
10
157.072
20
-53.9378
11
157.071
21
-53.9374
0
LINE
8
BLACK
6
CONTINUOUS
10
157.071
20
-53.9374
11
157.068
21
-53.9351
0
LINE
8
BLACK
6
CONTINUOUS
10
157.068
20
-53.9351
11
157.064
21
-53.9331
0
LINE
8
BLACK
6
CONTINUOUS
10
157.064
20
-53.9331
11
157.064
21
-53.9323
0
LINE
8
BLACK
6
CONTINUOUS
10
157.064
20
-53.9323
11
157.063
21
-53.9317
0
LINE
8
BLACK
6
CONTINUOUS
10
157.063
20
-53.9317
11
157.06
21
-53.9289
0
LINE
8
BLACK
6
CONTINUOUS
10
157.06
20
-53.9289
11
157.057
21
-53.9263
0
LINE
8
BLACK
6
CONTINUOUS
10
157.057
20
-53.9263
11
157.057
21
-53.9254
0
LINE
8
BLACK
6
CONTINUOUS
10
157.057
20
-53.9254
11
157.056
21
-53.9246
0
LINE
8
BLACK
6
CONTINUOUS
10
157.056
20
-53.9246
11
157.054
21
-53.9214
0
LINE
8
BLACK
6
CONTINUOUS
10
157.054
20
-53.9214
11
157.052
21
-53.9182
0
LINE
8
BLACK
6
CONTINUOUS
10
157.052
20
-53.9182
11
157.051
21
-53.9173
0
LINE
8
BLACK
6
CONTINUOUS
10
157.051
20
-53.9173
11
157.051
21
-53.9163
0
LINE
8
BLACK
6
CONTINUOUS
10
157.051
20
-53.9163
11
157.027
21
-53.8687
0
LINE
8
BLACK
6
CONTINUOUS
10
157.027
20
-53.8687
11
157.027
21
-53.8681
0
LINE
8
BLACK
6
CONTINUOUS
10
157.027
20
-53.8681
11
157.026
21
-53.8667
0
LINE
8
BLACK
6
CONTINUOUS
10
157.026
20
-53.8667
11
157.026
21
-53.8654
0
LINE
8
BLACK
6
CONTINUOUS
10
157.026
20
-53.8654
11
157.025
21
-53.8621
0
LINE
8
BLACK
6
CONTINUOUS
10
157.025
20
-53.8621
11
157.023
21
-53.8589
0
LINE
8
BLACK
6
CONTINUOUS
10
157.023
20
-53.8589
11
157.023
21
-53.8575
0
LINE
8
BLACK
6
CONTINUOUS
10
157.023
20
-53.8575
11
157.023
21
-53.8561
0
LINE
8
BLACK
6
CONTINUOUS
10
157.023
20
-53.8561
11
157.022
21
-53.8527
0
LINE
8
BLACK
6
CONTINUOUS
10
157.022
20
-53.8527
11
157.022
21
-53.8493
0
LINE
8
BLACK
6
CONTINUOUS
10
157.022
20
-53.8493
11
157.022
21
-53.8478
0
LINE
8
BLACK
6
CONTINUOUS
10
157.022
20
-53.8478
11
157.022
21
-53.8464
0
LINE
8
BLACK
6
CONTINUOUS
10
157.022
20
-53.8464
11
157.022
21
-53.6559
0
LINE
8
BLACK
6
CONTINUOUS
10
157.022
20
-53.6559
11
157.022
21
-53.6552
0
LINE
8
BLACK
6
CONTINUOUS
10
157.022
20
-53.6552
11
157.022
21
-53.6537
0
LINE
8
BLACK
6
CONTINUOUS
10
157.022
20
-53.6537
11
157.022
21
-53.6523
0
LINE
8
BLACK
6
CONTINUOUS
10
157.022
20
-53.6523
11
157.023
21
-53.6489
0
LINE
8
BLACK
6
CONTINUOUS
10
157.023
20
-53.6489
11
157.023
21
-53.6455
0
LINE
8
BLACK
6
CONTINUOUS
10
157.023
20
-53.6455
11
157.023
21
-53.6441
0
LINE
8
BLACK
6
CONTINUOUS
10
157.023
20
-53.6441
11
157.024
21
-53.6426
0
LINE
8
BLACK
6
CONTINUOUS
10
157.024
20
-53.6426
11
157.025
21
-53.6394
0
LINE
8
BLACK
6
CONTINUOUS
10
157.025
20
-53.6394
11
157.026
21
-53.6362
0
LINE
8
BLACK
6
CONTINUOUS
10
157.026
20
-53.6362
11
157.027
21
-53.6349
0
LINE
8
BLACK
6
CONTINUOUS
10
157.027
20
-53.6349
11
157.027
21
-53.6335
0
LINE
8
BLACK
6
CONTINUOUS
10
157.027
20
-53.6335
11
157.051
21
-53.5859
0
LINE
8
BLACK
6
CONTINUOUS
10
157.051
20
-53.5859
11
157.051
21
-53.5853
0
LINE
8
BLACK
6
CONTINUOUS
10
157.051
20
-53.5853
11
157.052
21
-53.5844
0
LINE
8
BLACK
6
CONTINUOUS
10
157.052
20
-53.5844
11
157.052
21
-53.5834
0
LINE
8
BLACK
6
CONTINUOUS
10
157.052
20
-53.5834
11
157.054
21
-53.5803
0
LINE
8
BLACK
6
CONTINUOUS
10
157.054
20
-53.5803
11
157.057
21
-53.5771
0
LINE
8
BLACK
6
CONTINUOUS
10
157.057
20
-53.5771
11
157.057
21
-53.5763
0
LINE
8
BLACK
6
CONTINUOUS
10
157.057
20
-53.5763
11
157.058
21
-53.5754
0
LINE
8
BLACK
6
CONTINUOUS
10
157.058
20
-53.5754
11
157.061
21
-53.5728
0
LINE
8
BLACK
6
CONTINUOUS
10
157.061
20
-53.5728
11
157.063
21
-53.5701
0
LINE
8
BLACK
6
CONTINUOUS
10
157.063
20
-53.5701
11
157.064
21
-53.5695
0
LINE
8
BLACK
6
CONTINUOUS
10
157.064
20
-53.5695
11
157.065
21
-53.5687
0
LINE
8
BLACK
6
CONTINUOUS
10
157.065
20
-53.5687
11
157.068
21
-53.5667
0
LINE
8
BLACK
6
CONTINUOUS
10
157.068
20
-53.5667
11
157.071
21
-53.5646
0
LINE
8
BLACK
6
CONTINUOUS
10
157.071
20
-53.5646
11
157.072
21
-53.5641
0
LINE
8
BLACK
6
CONTINUOUS
10
157.072
20
-53.5641
11
157.073
21
-53.5635
0
LINE
8
BLACK
6
CONTINUOUS
10
157.073
20
-53.5635
11
157.121
21
-53.5397
0
LINE
8
BLACK
6
CONTINUOUS
10
157.121
20
-53.5397
11
157.121
21
-53.5394
0
LINE
8
BLACK
6
CONTINUOUS
10
157.121
20
-53.5394
11
157.123
21
-53.5389
0
LINE
8
BLACK
6
CONTINUOUS
10
157.123
20
-53.5389
11
157.124
21
-53.5382
0
LINE
8
BLACK
6
CONTINUOUS
10
157.124
20
-53.5382
11
157.127
21
-53.5372
0
LINE
8
BLACK
6
CONTINUOUS
10
157.127
20
-53.5372
11
157.131
21
-53.5361
0
LINE
8
BLACK
6
CONTINUOUS
10
157.131
20
-53.5361
11
157.132
21
-53.5358
0
LINE
8
BLACK
6
CONTINUOUS
10
157.132
20
-53.5358
11
157.134
21
-53.5354
0
LINE
8
BLACK
6
CONTINUOUS
10
157.134
20
-53.5354
11
157.137
21
-53.5351
0
LINE
8
BLACK
6
CONTINUOUS
10
157.137
20
-53.5351
11
157.14
21
-53.5345
0
LINE
8
BLACK
6
CONTINUOUS
10
157.14
20
-53.5345
11
157.142
21
-53.5346
0
LINE
8
BLACK
6
CONTINUOUS
10
157.142
20
-53.5346
11
157.143
21
-53.5345
0
LINE
8
BLACK
6
CONTINUOUS
10
157.143
20
-53.5345
11
157.238
21
-53.5345
0
LINE
8
BLACK
6
CONTINUOUS
10
157.238
20
-53.5345
11
157.239
21
-53.5345
0
LINE
8
BLACK
6
CONTINUOUS
10
157.155
20
-53.6345
11
157.133
21
-53.6455
0
LINE
8
BLACK
6
CONTINUOUS
10
157.133
20
-53.6455
11
157.122
21
-53.6677
0
LINE
8
BLACK
6
CONTINUOUS
10
157.122
20
-53.6677
11
157.122
21
-53.6901
0
LINE
8
BLACK
6
CONTINUOUS
10
157.122
20
-53.6901
11
157.258
21
-53.663
0
LINE
8
BLACK
6
CONTINUOUS
10
157.258
20
-53.663
11
157.249
21
-53.6455
0
LINE
8
BLACK
6
CONTINUOUS
10
157.249
20
-53.6455
11
157.227
21
-53.6345
0
LINE
8
BLACK
6
CONTINUOUS
10
157.227
20
-53.6345
11
157.155
21
-53.6345
0
LINE
8
BLACK
6
CONTINUOUS
10
155.025
20
-53.3678
11
155.026
21
-53.368
0
LINE
8
BLACK
6
CONTINUOUS
10
155.026
20
-53.368
11
155.028
21
-53.3679
0
LINE
8
BLACK
6
CONTINUOUS
10
155.028
20
-53.3679
11
155.031
21
-53.3685
0
LINE
8
BLACK
6
CONTINUOUS
10
155.031
20
-53.3685
11
155.035
21
-53.3689
0
LINE
8
BLACK
6
CONTINUOUS
10
155.035
20
-53.3689
11
155.036
21
-53.3693
0
LINE
8
BLACK
6
CONTINUOUS
10
155.036
20
-53.3693
11
155.037
21
-53.3696
0
LINE
8
BLACK
6
CONTINUOUS
10
155.037
20
-53.3696
11
155.041
21
-53.3708
0
LINE
8
BLACK
6
CONTINUOUS
10
155.041
20
-53.3708
11
155.044
21
-53.3718
0
LINE
8
BLACK
6
CONTINUOUS
10
155.044
20
-53.3718
11
155.045
21
-53.3725
0
LINE
8
BLACK
6
CONTINUOUS
10
155.045
20
-53.3725
11
155.047
21
-53.3731
0
LINE
8
BLACK
6
CONTINUOUS
10
155.047
20
-53.3731
11
155.094
21
-53.3969
0
LINE
8
BLACK
6
CONTINUOUS
10
155.094
20
-53.3969
11
155.095
21
-53.3972
0
LINE
8
BLACK
6
CONTINUOUS
10
155.095
20
-53.3972
11
155.097
21
-53.3987
0
LINE
8
BLACK
6
CONTINUOUS
10
155.097
20
-53.3987
11
155.1
21
-53.4001
0
LINE
8
BLACK
6
CONTINUOUS
10
155.1
20
-53.4001
11
155.101
21
-53.4014
0
LINE
8
BLACK
6
CONTINUOUS
10
155.101
20
-53.4014
11
155.103
21
-53.4025
0
LINE
8
BLACK
6
CONTINUOUS
10
155.103
20
-53.4025
11
155.105
21
-53.4045
0
LINE
8
BLACK
6
CONTINUOUS
10
155.105
20
-53.4045
11
155.107
21
-53.4062
0
LINE
8
BLACK
6
CONTINUOUS
10
155.107
20
-53.4062
11
155.131
21
-53.4301
0
LINE
8
BLACK
6
CONTINUOUS
10
155.131
20
-53.4301
11
155.131
21
-53.4306
0
LINE
8
BLACK
6
CONTINUOUS
10
155.131
20
-53.4306
11
155.133
21
-53.4327
0
LINE
8
BLACK
6
CONTINUOUS
10
155.133
20
-53.4327
11
155.135
21
-53.4348
0
LINE
8
BLACK
6
CONTINUOUS
10
155.135
20
-53.4348
11
155.136
21
-53.4366
0
LINE
8
BLACK
6
CONTINUOUS
10
155.136
20
-53.4366
11
155.138
21
-53.4382
0
LINE
8
BLACK
6
CONTINUOUS
10
155.138
20
-53.4382
11
155.139
21
-53.4407
0
LINE
8
BLACK
6
CONTINUOUS
10
155.139
20
-53.4407
11
155.14
21
-53.443
0
LINE
8
BLACK
6
CONTINUOUS
10
155.14
20
-53.443
11
155.164
21
-53.4907
0
LINE
8
BLACK
6
CONTINUOUS
10
155.164
20
-53.4907
11
155.164
21
-53.4913
0
LINE
8
BLACK
6
CONTINUOUS
10
155.164
20
-53.4913
11
155.165
21
-53.4927
0
LINE
8
BLACK
6
CONTINUOUS
10
155.165
20
-53.4927
11
155.166
21
-53.494
0
LINE
8
BLACK
6
CONTINUOUS
10
155.166
20
-53.494
11
155.167
21
-53.4972
0
LINE
8
BLACK
6
CONTINUOUS
10
155.167
20
-53.4972
11
155.168
21
-53.5005
0
LINE
8
BLACK
6
CONTINUOUS
10
155.168
20
-53.5005
11
155.168
21
-53.5019
0
LINE
8
BLACK
6
CONTINUOUS
10
155.168
20
-53.5019
11
155.168
21
-53.5033
0
LINE
8
BLACK
6
CONTINUOUS
10
155.168
20
-53.5033
11
155.169
21
-53.5067
0
LINE
8
BLACK
6
CONTINUOUS
10
155.169
20
-53.5067
11
155.169
21
-53.5101
0
LINE
8
BLACK
6
CONTINUOUS
10
155.169
20
-53.5101
11
155.169
21
-53.5116
0
LINE
8
BLACK
6
CONTINUOUS
10
155.169
20
-53.5116
11
155.169
21
-53.513
0
LINE
8
BLACK
6
CONTINUOUS
10
155.169
20
-53.513
11
155.169
21
-53.5606
0
LINE
8
BLACK
6
CONTINUOUS
10
155.169
20
-53.5606
11
155.169
21
-53.5613
0
LINE
8
BLACK
6
CONTINUOUS
10
155.169
20
-53.5613
11
155.169
21
-53.5628
0
LINE
8
BLACK
6
CONTINUOUS
10
155.169
20
-53.5628
11
155.169
21
-53.5643
0
LINE
8
BLACK
6
CONTINUOUS
10
155.169
20
-53.5643
11
155.169
21
-53.5677
0
LINE
8
BLACK
6
CONTINUOUS
10
155.169
20
-53.5677
11
155.168
21
-53.571
0
LINE
8
BLACK
6
CONTINUOUS
10
155.168
20
-53.571
11
155.168
21
-53.5724
0
LINE
8
BLACK
6
CONTINUOUS
10
155.168
20
-53.5724
11
155.168
21
-53.5739
0
LINE
8
BLACK
6
CONTINUOUS
10
155.168
20
-53.5739
11
155.166
21
-53.5771
0
LINE
8
BLACK
6
CONTINUOUS
10
155.166
20
-53.5771
11
155.165
21
-53.5803
0
LINE
8
BLACK
6
CONTINUOUS
10
155.165
20
-53.5803
11
155.165
21
-53.5816
0
LINE
8
BLACK
6
CONTINUOUS
10
155.165
20
-53.5816
11
155.164
21
-53.583
0
LINE
8
BLACK
6
CONTINUOUS
10
155.164
20
-53.583
11
155.14
21
-53.6306
0
LINE
8
BLACK
6
CONTINUOUS
10
155.14
20
-53.6306
11
155.14
21
-53.6312
0
LINE
8
BLACK
6
CONTINUOUS
10
155.14
20
-53.6312
11
155.138
21
-53.6336
0
LINE
8
BLACK
6
CONTINUOUS
10
155.138
20
-53.6336
11
155.137
21
-53.6361
0
LINE
8
BLACK
6
CONTINUOUS
10
155.137
20
-53.6361
11
155.136
21
-53.6377
0
LINE
8
BLACK
6
CONTINUOUS
10
155.136
20
-53.6377
11
155.135
21
-53.6394
0
LINE
8
BLACK
6
CONTINUOUS
10
155.135
20
-53.6394
11
155.133
21
-53.6415
0
LINE
8
BLACK
6
CONTINUOUS
10
155.133
20
-53.6415
11
155.131
21
-53.6436
0
LINE
8
BLACK
6
CONTINUOUS
10
155.131
20
-53.6436
11
155.131
21
-53.644
0
LINE
8
BLACK
6
CONTINUOUS
10
155.131
20
-53.644
11
155.131
21
-53.6443
0
LINE
8
BLACK
6
CONTINUOUS
10
155.131
20
-53.6443
11
155.155
21
-53.6681
0
LINE
8
BLACK
6
CONTINUOUS
10
155.155
20
-53.6681
11
155.155
21
-53.6686
0
LINE
8
BLACK
6
CONTINUOUS
10
155.155
20
-53.6686
11
155.157
21
-53.6708
0
LINE
8
BLACK
6
CONTINUOUS
10
155.157
20
-53.6708
11
155.159
21
-53.6729
0
LINE
8
BLACK
6
CONTINUOUS
10
155.159
20
-53.6729
11
155.16
21
-53.6746
0
LINE
8
BLACK
6
CONTINUOUS
10
155.16
20
-53.6746
11
155.161
21
-53.6763
0
LINE
8
BLACK
6
CONTINUOUS
10
155.161
20
-53.6763
11
155.163
21
-53.6788
0
LINE
8
BLACK
6
CONTINUOUS
10
155.163
20
-53.6788
11
155.164
21
-53.6811
0
LINE
8
BLACK
6
CONTINUOUS
10
155.164
20
-53.6811
11
155.188
21
-53.7288
0
LINE
8
BLACK
6
CONTINUOUS
10
155.188
20
-53.7288
11
155.188
21
-53.7294
0
LINE
8
BLACK
6
CONTINUOUS
10
155.188
20
-53.7294
11
155.189
21
-53.7308
0
LINE
8
BLACK
6
CONTINUOUS
10
155.189
20
-53.7308
11
155.189
21
-53.7321
0
LINE
8
BLACK
6
CONTINUOUS
10
155.189
20
-53.7321
11
155.19
21
-53.7353
0
LINE
8
BLACK
6
CONTINUOUS
10
155.19
20
-53.7353
11
155.192
21
-53.7385
0
LINE
8
BLACK
6
CONTINUOUS
10
155.192
20
-53.7385
11
155.192
21
-53.74
0
LINE
8
BLACK
6
CONTINUOUS
10
155.192
20
-53.74
11
155.192
21
-53.7414
0
LINE
8
BLACK
6
CONTINUOUS
10
155.192
20
-53.7414
11
155.193
21
-53.7448
0
LINE
8
BLACK
6
CONTINUOUS
10
155.193
20
-53.7448
11
155.193
21
-53.7482
0
LINE
8
BLACK
6
CONTINUOUS
10
155.193
20
-53.7482
11
155.193
21
-53.7497
0
LINE
8
BLACK
6
CONTINUOUS
10
155.193
20
-53.7497
11
155.193
21
-53.7511
0
LINE
8
BLACK
6
CONTINUOUS
10
155.193
20
-53.7511
11
155.193
21
-53.8226
0
LINE
8
BLACK
6
CONTINUOUS
10
155.193
20
-53.8226
11
155.193
21
-53.8232
0
LINE
8
BLACK
6
CONTINUOUS
10
155.193
20
-53.8232
11
155.193
21
-53.8247
0
LINE
8
BLACK
6
CONTINUOUS
10
155.193
20
-53.8247
11
155.193
21
-53.8262
0
LINE
8
BLACK
6
CONTINUOUS
10
155.193
20
-53.8262
11
155.193
21
-53.8296
0
LINE
8
BLACK
6
CONTINUOUS
10
155.193
20
-53.8296
11
155.192
21
-53.8329
0
LINE
8
BLACK
6
CONTINUOUS
10
155.192
20
-53.8329
11
155.192
21
-53.8343
0
LINE
8
BLACK
6
CONTINUOUS
10
155.192
20
-53.8343
11
155.191
21
-53.8358
0
LINE
8
BLACK
6
CONTINUOUS
10
155.191
20
-53.8358
11
155.19
21
-53.839
0
LINE
8
BLACK
6
CONTINUOUS
10
155.19
20
-53.839
11
155.189
21
-53.8422
0
LINE
8
BLACK
6
CONTINUOUS
10
155.189
20
-53.8422
11
155.188
21
-53.8435
0
LINE
8
BLACK
6
CONTINUOUS
10
155.188
20
-53.8435
11
155.188
21
-53.8449
0
LINE
8
BLACK
6
CONTINUOUS
10
155.188
20
-53.8449
11
155.164
21
-53.8925
0
LINE
8
BLACK
6
CONTINUOUS
10
155.164
20
-53.8925
11
155.164
21
-53.8932
0
LINE
8
BLACK
6
CONTINUOUS
10
155.164
20
-53.8932
11
155.162
21
-53.8955
0
LINE
8
BLACK
6
CONTINUOUS
10
155.162
20
-53.8955
11
155.161
21
-53.898
0
LINE
8
BLACK
6
CONTINUOUS
10
155.161
20
-53.898
11
155.16
21
-53.8996
0
LINE
8
BLACK
6
CONTINUOUS
10
155.16
20
-53.8996
11
155.159
21
-53.9013
0
LINE
8
BLACK
6
CONTINUOUS
10
155.159
20
-53.9013
11
155.157
21
-53.9034
0
LINE
8
BLACK
6
CONTINUOUS
10
155.157
20
-53.9034
11
155.155
21
-53.9055
0
LINE
8
BLACK
6
CONTINUOUS
10
155.155
20
-53.9055
11
155.131
21
-53.9293
0
LINE
8
BLACK
6
CONTINUOUS
10
155.131
20
-53.9293
11
155.13
21
-53.9298
0
LINE
8
BLACK
6
CONTINUOUS
10
155.13
20
-53.9298
11
155.128
21
-53.9316
0
LINE
8
BLACK
6
CONTINUOUS
10
155.128
20
-53.9316
11
155.126
21
-53.9335
0
LINE
8
BLACK
6
CONTINUOUS
10
155.126
20
-53.9335
11
155.124
21
-53.9346
0
LINE
8
BLACK
6
CONTINUOUS
10
155.124
20
-53.9346
11
155.123
21
-53.9359
0
LINE
8
BLACK
6
CONTINUOUS
10
155.123
20
-53.9359
11
155.12
21
-53.9372
0
LINE
8
BLACK
6
CONTINUOUS
10
155.12
20
-53.9372
11
155.118
21
-53.9387
0
LINE
8
BLACK
6
CONTINUOUS
10
155.118
20
-53.9387
11
155.07
21
-53.9625
0
LINE
8
BLACK
6
CONTINUOUS
10
155.07
20
-53.9625
11
155.07
21
-53.9628
0
LINE
8
BLACK
6
CONTINUOUS
10
155.07
20
-53.9628
11
155.068
21
-53.9633
0
LINE
8
BLACK
6
CONTINUOUS
10
155.068
20
-53.9633
11
155.067
21
-53.964
0
LINE
8
BLACK
6
CONTINUOUS
10
155.067
20
-53.964
11
155.064
21
-53.965
0
LINE
8
BLACK
6
CONTINUOUS
10
155.064
20
-53.965
11
155.061
21
-53.9662
0
LINE
8
BLACK
6
CONTINUOUS
10
155.061
20
-53.9662
11
155.059
21
-53.9664
0
LINE
8
BLACK
6
CONTINUOUS
10
155.059
20
-53.9664
11
155.058
21
-53.9668
0
LINE
8
BLACK
6
CONTINUOUS
10
155.058
20
-53.9668
11
155.054
21
-53.9672
0
LINE
8
BLACK
6
CONTINUOUS
10
155.054
20
-53.9672
11
155.051
21
-53.9677
0
LINE
8
BLACK
6
CONTINUOUS
10
155.051
20
-53.9677
11
155.049
21
-53.9676
0
LINE
8
BLACK
6
CONTINUOUS
10
155.049
20
-53.9676
11
155.048
21
-53.9678
0
LINE
8
BLACK
6
CONTINUOUS
10
155.048
20
-53.9678
11
154.858
21
-53.9678
0
LINE
8
BLACK
6
CONTINUOUS
10
154.858
20
-53.9678
11
154.857
21
-53.9678
0
LINE
8
BLACK
6
CONTINUOUS
10
154.857
20
-53.9678
11
154.857
21
-53.9678
0
LINE
8
BLACK
6
CONTINUOUS
10
154.857
20
-53.9678
11
154.857
21
-53.9678
0
LINE
8
BLACK
6
CONTINUOUS
10
154.857
20
-53.9678
11
154.857
21
-53.9678
0
LINE
8
BLACK
6
CONTINUOUS
10
154.857
20
-53.9678
11
154.852
21
-53.9673
0
LINE
8
BLACK
6
CONTINUOUS
10
154.852
20
-53.9673
11
154.847
21
-53.9668
0
LINE
8
BLACK
6
CONTINUOUS
10
154.847
20
-53.9668
11
154.847
21
-53.9667
0
LINE
8
BLACK
6
CONTINUOUS
10
154.847
20
-53.9667
11
154.847
21
-53.9667
0
LINE
8
BLACK
6
CONTINUOUS
10
154.847
20
-53.9667
11
154.843
21
-53.9653
0
LINE
8
BLACK
6
CONTINUOUS
10
154.843
20
-53.9653
11
154.838
21
-53.9639
0
LINE
8
BLACK
6
CONTINUOUS
10
154.838
20
-53.9639
11
154.838
21
-53.9638
0
LINE
8
BLACK
6
CONTINUOUS
10
154.838
20
-53.9638
11
154.838
21
-53.9637
0
LINE
8
BLACK
6
CONTINUOUS
10
154.838
20
-53.9637
11
154.834
21
-53.9615
0
LINE
8
BLACK
6
CONTINUOUS
10
154.834
20
-53.9615
11
154.83
21
-53.9592
0
LINE
8
BLACK
6
CONTINUOUS
10
154.83
20
-53.9592
11
154.829
21
-53.9591
0
LINE
8
BLACK
6
CONTINUOUS
10
154.829
20
-53.9591
11
154.829
21
-53.959
0
LINE
8
BLACK
6
CONTINUOUS
10
154.829
20
-53.959
11
154.826
21
-53.9561
0
LINE
8
BLACK
6
CONTINUOUS
10
154.826
20
-53.9561
11
154.822
21
-53.953
0
LINE
8
BLACK
6
CONTINUOUS
10
154.822
20
-53.953
11
154.822
21
-53.9529
0
LINE
8
BLACK
6
CONTINUOUS
10
154.822
20
-53.9529
11
154.822
21
-53.9528
0
LINE
8
BLACK
6
CONTINUOUS
10
154.822
20
-53.9528
11
154.819
21
-53.9492
0
LINE
8
BLACK
6
CONTINUOUS
10
154.819
20
-53.9492
11
154.816
21
-53.9455
0
LINE
8
BLACK
6
CONTINUOUS
10
154.816
20
-53.9455
11
154.816
21
-53.9453
0
LINE
8
BLACK
6
CONTINUOUS
10
154.816
20
-53.9453
11
154.816
21
-53.9452
0
LINE
8
BLACK
6
CONTINUOUS
10
154.816
20
-53.9452
11
154.814
21
-53.941
0
LINE
8
BLACK
6
CONTINUOUS
10
154.814
20
-53.941
11
154.811
21
-53.9368
0
LINE
8
BLACK
6
CONTINUOUS
10
154.811
20
-53.9368
11
154.811
21
-53.9367
0
LINE
8
BLACK
6
CONTINUOUS
10
154.811
20
-53.9367
11
154.811
21
-53.9365
0
LINE
8
BLACK
6
CONTINUOUS
10
154.811
20
-53.9365
11
154.81
21
-53.9321
0
LINE
8
BLACK
6
CONTINUOUS
10
154.81
20
-53.9321
11
154.808
21
-53.9275
0
LINE
8
BLACK
6
CONTINUOUS
10
154.808
20
-53.9275
11
154.808
21
-53.9273
0
LINE
8
BLACK
6
CONTINUOUS
10
154.808
20
-53.9273
11
154.808
21
-53.9272
0
LINE
8
BLACK
6
CONTINUOUS
10
154.808
20
-53.9272
11
154.808
21
-53.9225
0
LINE
8
BLACK
6
CONTINUOUS
10
154.808
20
-53.9225
11
154.808
21
-53.9178
0
LINE
8
BLACK
6
CONTINUOUS
10
154.808
20
-53.9178
11
154.808
21
-53.4178
0
LINE
8
BLACK
6
CONTINUOUS
10
154.808
20
-53.4178
11
154.808
21
-53.4175
0
LINE
8
BLACK
6
CONTINUOUS
10
154.808
20
-53.4175
11
154.808
21
-53.4174
0
LINE
8
BLACK
6
CONTINUOUS
10
154.808
20
-53.4174
11
154.808
21
-53.4174
0
LINE
8
BLACK
6
CONTINUOUS
10
154.808
20
-53.4174
11
154.808
21
-53.4171
0
LINE
8
BLACK
6
CONTINUOUS
10
154.808
20
-53.4171
11
154.808
21
-53.4125
0
LINE
8
BLACK
6
CONTINUOUS
10
154.808
20
-53.4125
11
154.809
21
-53.4077
0
LINE
8
BLACK
6
CONTINUOUS
10
154.809
20
-53.4077
11
154.809
21
-53.4076
0
LINE
8
BLACK
6
CONTINUOUS
10
154.809
20
-53.4076
11
154.809
21
-53.4074
0
LINE
8
BLACK
6
CONTINUOUS
10
154.809
20
-53.4074
11
154.81
21
-53.4029
0
LINE
8
BLACK
6
CONTINUOUS
10
154.81
20
-53.4029
11
154.811
21
-53.3984
0
LINE
8
BLACK
6
CONTINUOUS
10
154.811
20
-53.3984
11
154.812
21
-53.3983
0
LINE
8
BLACK
6
CONTINUOUS
10
154.812
20
-53.3983
11
154.812
21
-53.3981
0
LINE
8
BLACK
6
CONTINUOUS
10
154.812
20
-53.3981
11
154.814
21
-53.394
0
LINE
8
BLACK
6
CONTINUOUS
10
154.814
20
-53.394
11
154.816
21
-53.3898
0
LINE
8
BLACK
6
CONTINUOUS
10
154.816
20
-53.3898
11
154.816
21
-53.3897
0
LINE
8
BLACK
6
CONTINUOUS
10
154.816
20
-53.3897
11
154.816
21
-53.3895
0
LINE
8
BLACK
6
CONTINUOUS
10
154.816
20
-53.3895
11
154.819
21
-53.386
0
LINE
8
BLACK
6
CONTINUOUS
10
154.819
20
-53.386
11
154.822
21
-53.3823
0
LINE
8
BLACK
6
CONTINUOUS
10
154.822
20
-53.3823
11
154.822
21
-53.3822
0
LINE
8
BLACK
6
CONTINUOUS
10
154.822
20
-53.3822
11
154.823
21
-53.3821
0
LINE
8
BLACK
6
CONTINUOUS
10
154.823
20
-53.3821
11
154.826
21
-53.3792
0
LINE
8
BLACK
6
CONTINUOUS
10
154.826
20
-53.3792
11
154.83
21
-53.3761
0
LINE
8
BLACK
6
CONTINUOUS
10
154.83
20
-53.3761
11
154.83
21
-53.3761
0
LINE
8
BLACK
6
CONTINUOUS
10
154.83
20
-53.3761
11
154.83
21
-53.376
0
LINE
8
BLACK
6
CONTINUOUS
10
154.83
20
-53.376
11
154.834
21
-53.3738
0
LINE
8
BLACK
6
CONTINUOUS
10
154.834
20
-53.3738
11
154.838
21
-53.3716
0
LINE
8
BLACK
6
CONTINUOUS
10
154.838
20
-53.3716
11
154.839
21
-53.3715
0
LINE
8
BLACK
6
CONTINUOUS
10
154.839
20
-53.3715
11
154.839
21
-53.3714
0
LINE
8
BLACK
6
CONTINUOUS
10
154.839
20
-53.3714
11
154.843
21
-53.3701
0
LINE
8
BLACK
6
CONTINUOUS
10
154.843
20
-53.3701
11
154.848
21
-53.3687
0
LINE
8
BLACK
6
CONTINUOUS
10
154.848
20
-53.3687
11
154.848
21
-53.3687
0
LINE
8
BLACK
6
CONTINUOUS
10
154.848
20
-53.3687
11
154.848
21
-53.3687
0
LINE
8
BLACK
6
CONTINUOUS
10
154.848
20
-53.3687
11
154.853
21
-53.3683
0
LINE
8
BLACK
6
CONTINUOUS
10
154.853
20
-53.3683
11
154.858
21
-53.3678
0
LINE
8
BLACK
6
CONTINUOUS
10
154.858
20
-53.3678
11
155.024
21
-53.3678
0
LINE
8
BLACK
6
CONTINUOUS
10
155.024
20
-53.3678
11
155.025
21
-53.3678
0
LINE
8
BLACK
6
CONTINUOUS
10
154.908
20
-53.7059
11
154.908
21
-53.8678
0
LINE
8
BLACK
6
CONTINUOUS
10
154.908
20
-53.8678
11
155.036
21
-53.8678
0
LINE
8
BLACK
6
CONTINUOUS
10
155.036
20
-53.8678
11
155.066
21
-53.8529
0
LINE
8
BLACK
6
CONTINUOUS
10
155.066
20
-53.8529
11
155.078
21
-53.8406
0
LINE
8
BLACK
6
CONTINUOUS
10
155.078
20
-53.8406
11
155.093
21
-53.8107
0
LINE
8
BLACK
6
CONTINUOUS
10
155.093
20
-53.8107
11
155.093
21
-53.7629
0
LINE
8
BLACK
6
CONTINUOUS
10
155.093
20
-53.7629
11
155.078
21
-53.7331
0
LINE
8
BLACK
6
CONTINUOUS
10
155.078
20
-53.7331
11
155.069
21
-53.7234
0
LINE
8
BLACK
6
CONTINUOUS
10
155.069
20
-53.7234
11
155.016
21
-53.7059
0
LINE
8
BLACK
6
CONTINUOUS
10
155.016
20
-53.7059
11
154.908
21
-53.7059
0
LINE
8
BLACK
6
CONTINUOUS
10
154.908
20
-53.4678
11
154.908
21
-53.6059
0
LINE
8
BLACK
6
CONTINUOUS
10
154.908
20
-53.6059
11
155.012
21
-53.6059
0
LINE
8
BLACK
6
CONTINUOUS
10
155.012
20
-53.6059
11
155.042
21
-53.591
0
LINE
8
BLACK
6
CONTINUOUS
10
155.042
20
-53.591
11
155.055
21
-53.5786
0
LINE
8
BLACK
6
CONTINUOUS
10
155.055
20
-53.5786
11
155.069
21
-53.5488
0
LINE
8
BLACK
6
CONTINUOUS
10
155.069
20
-53.5488
11
155.069
21
-53.5248
0
LINE
8
BLACK
6
CONTINUOUS
10
155.069
20
-53.5248
11
155.055
21
-53.495
0
LINE
8
BLACK
6
CONTINUOUS
10
155.055
20
-53.495
11
155.042
21
-53.4827
0
LINE
8
BLACK
6
CONTINUOUS
10
155.042
20
-53.4827
11
155.012
21
-53.4678
0
LINE
8
BLACK
6
CONTINUOUS
10
155.012
20
-53.4678
11
154.908
21
-53.4678
0
LINE
8
BLACK
6
CONTINUOUS
10
154.549
20
-53.3678
11
154.551
21
-53.3681
0
LINE
8
BLACK
6
CONTINUOUS
10
154.551
20
-53.3681
11
154.554
21
-53.3682
0
LINE
8
BLACK
6
CONTINUOUS
10
154.554
20
-53.3682
11
154.556
21
-53.3687
0
LINE
8
BLACK
6
CONTINUOUS
10
154.556
20
-53.3687
11
154.558
21
-53.3689
0
LINE
8
BLACK
6
CONTINUOUS
10
154.558
20
-53.3689
11
154.561
21
-53.3697
0
LINE
8
BLACK
6
CONTINUOUS
10
154.561
20
-53.3697
11
154.564
21
-53.3704
0
LINE
8
BLACK
6
CONTINUOUS
10
154.564
20
-53.3704
11
154.635
21
-53.3942
0
LINE
8
BLACK
6
CONTINUOUS
10
154.635
20
-53.3942
11
154.636
21
-53.3944
0
LINE
8
BLACK
6
CONTINUOUS
10
154.636
20
-53.3944
11
154.637
21
-53.395
0
LINE
8
BLACK
6
CONTINUOUS
10
154.637
20
-53.395
11
154.639
21
-53.3954
0
LINE
8
BLACK
6
CONTINUOUS
10
154.639
20
-53.3954
11
154.642
21
-53.3971
0
LINE
8
BLACK
6
CONTINUOUS
10
154.642
20
-53.3971
11
154.645
21
-53.3985
0
LINE
8
BLACK
6
CONTINUOUS
10
154.645
20
-53.3985
11
154.646
21
-53.3994
0
LINE
8
BLACK
6
CONTINUOUS
10
154.646
20
-53.3994
11
154.647
21
-53.4001
0
LINE
8
BLACK
6
CONTINUOUS
10
154.647
20
-53.4001
11
154.65
21
-53.4022
0
LINE
8
BLACK
6
CONTINUOUS
10
154.65
20
-53.4022
11
154.653
21
-53.4042
0
LINE
8
BLACK
6
CONTINUOUS
10
154.653
20
-53.4042
11
154.654
21
-53.4053
0
LINE
8
BLACK
6
CONTINUOUS
10
154.654
20
-53.4053
11
154.655
21
-53.4062
0
LINE
8
BLACK
6
CONTINUOUS
10
154.655
20
-53.4062
11
154.679
21
-53.4301
0
LINE
8
BLACK
6
CONTINUOUS
10
154.679
20
-53.4301
11
154.679
21
-53.4306
0
LINE
8
BLACK
6
CONTINUOUS
10
154.679
20
-53.4306
11
154.685
21
-53.4382
0
LINE
8
BLACK
6
CONTINUOUS
10
154.685
20
-53.4382
11
154.69
21
-53.4468
0
LINE
8
BLACK
6
CONTINUOUS
10
154.69
20
-53.4468
11
154.692
21
-53.4562
0
LINE
8
BLACK
6
CONTINUOUS
10
154.692
20
-53.4562
11
154.693
21
-53.4659
0
LINE
8
BLACK
6
CONTINUOUS
10
154.693
20
-53.4659
11
154.692
21
-53.4756
0
LINE
8
BLACK
6
CONTINUOUS
10
154.692
20
-53.4756
11
154.689
21
-53.4849
0
LINE
8
BLACK
6
CONTINUOUS
10
154.689
20
-53.4849
11
154.685
21
-53.4935
0
LINE
8
BLACK
6
CONTINUOUS
10
154.685
20
-53.4935
11
154.678
21
-53.501
0
LINE
8
BLACK
6
CONTINUOUS
10
154.678
20
-53.501
11
154.671
21
-53.5072
0
LINE
8
BLACK
6
CONTINUOUS
10
154.671
20
-53.5072
11
154.662
21
-53.5117
0
LINE
8
BLACK
6
CONTINUOUS
10
154.662
20
-53.5117
11
154.653
21
-53.5145
0
LINE
8
BLACK
6
CONTINUOUS
10
154.653
20
-53.5145
11
154.643
21
-53.5154
0
LINE
8
BLACK
6
CONTINUOUS
10
154.643
20
-53.5154
11
154.633
21
-53.5144
0
LINE
8
BLACK
6
CONTINUOUS
10
154.633
20
-53.5144
11
154.624
21
-53.5116
0
LINE
8
BLACK
6
CONTINUOUS
10
154.624
20
-53.5116
11
154.615
21
-53.507
0
LINE
8
BLACK
6
CONTINUOUS
10
154.615
20
-53.507
11
154.608
21
-53.5008
0
LINE
8
BLACK
6
CONTINUOUS
10
154.608
20
-53.5008
11
154.592
21
-53.4853
0
LINE
8
BLACK
6
CONTINUOUS
10
154.592
20
-53.4853
11
154.54
21
-53.4678
0
LINE
8
BLACK
6
CONTINUOUS
10
154.54
20
-53.4678
11
154.508
21
-53.4678
0
LINE
8
BLACK
6
CONTINUOUS
10
154.508
20
-53.4678
11
154.456
21
-53.4853
0
LINE
8
BLACK
6
CONTINUOUS
10
154.456
20
-53.4853
11
154.422
21
-53.5188
0
LINE
8
BLACK
6
CONTINUOUS
10
154.422
20
-53.5188
11
154.405
21
-53.5543
0
LINE
8
BLACK
6
CONTINUOUS
10
154.405
20
-53.5543
11
154.384
21
-53.6382
0
LINE
8
BLACK
6
CONTINUOUS
10
154.384
20
-53.6382
11
154.384
21
-53.6973
0
LINE
8
BLACK
6
CONTINUOUS
10
154.384
20
-53.6973
11
154.405
21
-53.7813
0
LINE
8
BLACK
6
CONTINUOUS
10
154.405
20
-53.7813
11
154.422
21
-53.8167
0
LINE
8
BLACK
6
CONTINUOUS
10
154.422
20
-53.8167
11
154.456
21
-53.8503
0
LINE
8
BLACK
6
CONTINUOUS
10
154.456
20
-53.8503
11
154.508
21
-53.8678
0
LINE
8
BLACK
6
CONTINUOUS
10
154.508
20
-53.8678
11
154.54
21
-53.8678
0
LINE
8
BLACK
6
CONTINUOUS
10
154.54
20
-53.8678
11
154.592
21
-53.8503
0
LINE
8
BLACK
6
CONTINUOUS
10
154.592
20
-53.8503
11
154.608
21
-53.8348
0
LINE
8
BLACK
6
CONTINUOUS
10
154.608
20
-53.8348
11
154.608
21
-53.8343
0
LINE
8
BLACK
6
CONTINUOUS
10
154.608
20
-53.8343
11
154.616
21
-53.8282
0
LINE
8
BLACK
6
CONTINUOUS
10
154.616
20
-53.8282
11
154.625
21
-53.8237
0
LINE
8
BLACK
6
CONTINUOUS
10
154.625
20
-53.8237
11
154.634
21
-53.821
0
LINE
8
BLACK
6
CONTINUOUS
10
154.634
20
-53.821
11
154.644
21
-53.8202
0
LINE
8
BLACK
6
CONTINUOUS
10
154.644
20
-53.8202
11
154.653
21
-53.8212
0
LINE
8
BLACK
6
CONTINUOUS
10
154.653
20
-53.8212
11
154.663
21
-53.8241
0
LINE
8
BLACK
6
CONTINUOUS
10
154.663
20
-53.8241
11
154.671
21
-53.8288
0
LINE
8
BLACK
6
CONTINUOUS
10
154.671
20
-53.8288
11
154.679
21
-53.8351
0
LINE
8
BLACK
6
CONTINUOUS
10
154.679
20
-53.8351
11
154.685
21
-53.8426
0
LINE
8
BLACK
6
CONTINUOUS
10
154.685
20
-53.8426
11
154.69
21
-53.8513
0
LINE
8
BLACK
6
CONTINUOUS
10
154.69
20
-53.8513
11
154.692
21
-53.8606
0
LINE
8
BLACK
6
CONTINUOUS
10
154.692
20
-53.8606
11
154.693
21
-53.8703
0
LINE
8
BLACK
6
CONTINUOUS
10
154.693
20
-53.8703
11
154.692
21
-53.8801
0
LINE
8
BLACK
6
CONTINUOUS
10
154.692
20
-53.8801
11
154.689
21
-53.8894
0
LINE
8
BLACK
6
CONTINUOUS
10
154.689
20
-53.8894
11
154.685
21
-53.898
0
LINE
8
BLACK
6
CONTINUOUS
10
154.685
20
-53.898
11
154.679
21
-53.9055
0
LINE
8
BLACK
6
CONTINUOUS
10
154.679
20
-53.9055
11
154.655
21
-53.9293
0
LINE
8
BLACK
6
CONTINUOUS
10
154.655
20
-53.9293
11
154.654
21
-53.9298
0
LINE
8
BLACK
6
CONTINUOUS
10
154.654
20
-53.9298
11
154.653
21
-53.9307
0
LINE
8
BLACK
6
CONTINUOUS
10
154.653
20
-53.9307
11
154.652
21
-53.9318
0
LINE
8
BLACK
6
CONTINUOUS
10
154.652
20
-53.9318
11
154.649
21
-53.9338
0
LINE
8
BLACK
6
CONTINUOUS
10
154.649
20
-53.9338
11
154.647
21
-53.9359
0
LINE
8
BLACK
6
CONTINUOUS
10
154.647
20
-53.9359
11
154.645
21
-53.9366
0
LINE
8
BLACK
6
CONTINUOUS
10
154.645
20
-53.9366
11
154.644
21
-53.9374
0
LINE
8
BLACK
6
CONTINUOUS
10
154.644
20
-53.9374
11
154.641
21
-53.9388
0
LINE
8
BLACK
6
CONTINUOUS
10
154.641
20
-53.9388
11
154.638
21
-53.9404
0
LINE
8
BLACK
6
CONTINUOUS
10
154.638
20
-53.9404
11
154.637
21
-53.9408
0
LINE
8
BLACK
6
CONTINUOUS
10
154.637
20
-53.9408
11
154.635
21
-53.9414
0
LINE
8
BLACK
6
CONTINUOUS
10
154.635
20
-53.9414
11
154.564
21
-53.9652
0
LINE
8
BLACK
6
CONTINUOUS
10
154.564
20
-53.9652
11
154.563
21
-53.9654
0
LINE
8
BLACK
6
CONTINUOUS
10
154.563
20
-53.9654
11
154.56
21
-53.966
0
LINE
8
BLACK
6
CONTINUOUS
10
154.56
20
-53.966
11
154.558
21
-53.9668
0
LINE
8
BLACK
6
CONTINUOUS
10
154.558
20
-53.9668
11
154.556
21
-53.967
0
LINE
8
BLACK
6
CONTINUOUS
10
154.556
20
-53.967
11
154.554
21
-53.9675
0
LINE
8
BLACK
6
CONTINUOUS
10
154.554
20
-53.9675
11
154.551
21
-53.9675
0
LINE
8
BLACK
6
CONTINUOUS
10
154.551
20
-53.9675
11
154.548
21
-53.9678
0
LINE
8
BLACK
6
CONTINUOUS
10
154.548
20
-53.9678
11
154.5
21
-53.9678
0
LINE
8
BLACK
6
CONTINUOUS
10
154.5
20
-53.9678
11
154.5
21
-53.9678
0
LINE
8
BLACK
6
CONTINUOUS
10
154.5
20
-53.9678
11
154.497
21
-53.9675
0
LINE
8
BLACK
6
CONTINUOUS
10
154.497
20
-53.9675
11
154.494
21
-53.9674
0
LINE
8
BLACK
6
CONTINUOUS
10
154.494
20
-53.9674
11
154.492
21
-53.9669
0
LINE
8
BLACK
6
CONTINUOUS
10
154.492
20
-53.9669
11
154.49
21
-53.9667
0
LINE
8
BLACK
6
CONTINUOUS
10
154.49
20
-53.9667
11
154.487
21
-53.9658
0
LINE
8
BLACK
6
CONTINUOUS
10
154.487
20
-53.9658
11
154.485
21
-53.9652
0
LINE
8
BLACK
6
CONTINUOUS
10
154.485
20
-53.9652
11
154.413
21
-53.9414
0
LINE
8
BLACK
6
CONTINUOUS
10
154.413
20
-53.9414
11
154.412
21
-53.9412
0
LINE
8
BLACK
6
CONTINUOUS
10
154.412
20
-53.9412
11
154.411
21
-53.9406
0
LINE
8
BLACK
6
CONTINUOUS
10
154.411
20
-53.9406
11
154.41
21
-53.9401
0
LINE
8
BLACK
6
CONTINUOUS
10
154.41
20
-53.9401
11
154.407
21
-53.9385
0
LINE
8
BLACK
6
CONTINUOUS
10
154.407
20
-53.9385
11
154.404
21
-53.9371
0
LINE
8
BLACK
6
CONTINUOUS
10
154.404
20
-53.9371
11
154.402
21
-53.9362
0
LINE
8
BLACK
6
CONTINUOUS
10
154.402
20
-53.9362
11
154.401
21
-53.9355
0
LINE
8
BLACK
6
CONTINUOUS
10
154.401
20
-53.9355
11
154.398
21
-53.9334
0
LINE
8
BLACK
6
CONTINUOUS
10
154.398
20
-53.9334
11
154.396
21
-53.9313
0
LINE
8
BLACK
6
CONTINUOUS
10
154.396
20
-53.9313
11
154.395
21
-53.9303
0
LINE
8
BLACK
6
CONTINUOUS
10
154.395
20
-53.9303
11
154.394
21
-53.9293
0
LINE
8
BLACK
6
CONTINUOUS
10
154.394
20
-53.9293
11
154.346
21
-53.8817
0
LINE
8
BLACK
6
CONTINUOUS
10
154.346
20
-53.8817
11
154.345
21
-53.8812
0
LINE
8
BLACK
6
CONTINUOUS
10
154.345
20
-53.8812
11
154.344
21
-53.879
0
LINE
8
BLACK
6
CONTINUOUS
10
154.344
20
-53.879
11
154.342
21
-53.877
0
LINE
8
BLACK
6
CONTINUOUS
10
154.342
20
-53.877
11
154.341
21
-53.8752
0
LINE
8
BLACK
6
CONTINUOUS
10
154.341
20
-53.8752
11
154.339
21
-53.8736
0
LINE
8
BLACK
6
CONTINUOUS
10
154.339
20
-53.8736
11
154.338
21
-53.8711
0
LINE
8
BLACK
6
CONTINUOUS
10
154.338
20
-53.8711
11
154.337
21
-53.8687
0
LINE
8
BLACK
6
CONTINUOUS
10
154.337
20
-53.8687
11
154.313
21
-53.8211
0
LINE
8
BLACK
6
CONTINUOUS
10
154.313
20
-53.8211
11
154.312
21
-53.8205
0
LINE
8
BLACK
6
CONTINUOUS
10
154.312
20
-53.8205
11
154.312
21
-53.8203
0
LINE
8
BLACK
6
CONTINUOUS
10
154.312
20
-53.8203
11
154.312
21
-53.8201
0
LINE
8
BLACK
6
CONTINUOUS
10
154.312
20
-53.8201
11
154.311
21
-53.8156
0
LINE
8
BLACK
6
CONTINUOUS
10
154.311
20
-53.8156
11
154.309
21
-53.8113
0
LINE
8
BLACK
6
CONTINUOUS
10
154.309
20
-53.8113
11
154.309
21
-53.8111
0
LINE
8
BLACK
6
CONTINUOUS
10
154.309
20
-53.8111
11
154.309
21
-53.8109
0
LINE
8
BLACK
6
CONTINUOUS
10
154.309
20
-53.8109
11
154.285
21
-53.7156
0
LINE
8
BLACK
6
CONTINUOUS
10
154.285
20
-53.7156
11
154.285
21
-53.715
0
LINE
8
BLACK
6
CONTINUOUS
10
154.285
20
-53.715
11
154.285
21
-53.7141
0
LINE
8
BLACK
6
CONTINUOUS
10
154.285
20
-53.7141
11
154.285
21
-53.7132
0
LINE
8
BLACK
6
CONTINUOUS
10
154.285
20
-53.7132
11
154.284
21
-53.7092
0
LINE
8
BLACK
6
CONTINUOUS
10
154.284
20
-53.7092
11
154.284
21
-53.7053
0
LINE
8
BLACK
6
CONTINUOUS
10
154.284
20
-53.7053
11
154.284
21
-53.7044
0
LINE
8
BLACK
6
CONTINUOUS
10
154.284
20
-53.7044
11
154.284
21
-53.7035
0
LINE
8
BLACK
6
CONTINUOUS
10
154.284
20
-53.7035
11
154.284
21
-53.6321
0
LINE
8
BLACK
6
CONTINUOUS
10
154.284
20
-53.6321
11
154.284
21
-53.6314
0
LINE
8
BLACK
6
CONTINUOUS
10
154.284
20
-53.6314
11
154.284
21
-53.6305
0
LINE
8
BLACK
6
CONTINUOUS
10
154.284
20
-53.6305
11
154.284
21
-53.6296
0
LINE
8
BLACK
6
CONTINUOUS
10
154.284
20
-53.6296
11
154.284
21
-53.6256
0
LINE
8
BLACK
6
CONTINUOUS
10
154.284
20
-53.6256
11
154.285
21
-53.6217
0
LINE
8
BLACK
6
CONTINUOUS
10
154.285
20
-53.6217
11
154.285
21
-53.6208
0
LINE
8
BLACK
6
CONTINUOUS
10
154.285
20
-53.6208
11
154.285
21
-53.6199
0
LINE
8
BLACK
6
CONTINUOUS
10
154.285
20
-53.6199
11
154.309
21
-53.5247
0
LINE
8
BLACK
6
CONTINUOUS
10
154.309
20
-53.5247
11
154.309
21
-53.524
0
LINE
8
BLACK
6
CONTINUOUS
10
154.309
20
-53.524
11
154.309
21
-53.5238
0
LINE
8
BLACK
6
CONTINUOUS
10
154.309
20
-53.5238
11
154.309
21
-53.5236
0
LINE
8
BLACK
6
CONTINUOUS
10
154.309
20
-53.5236
11
154.311
21
-53.5192
0
LINE
8
BLACK
6
CONTINUOUS
10
154.311
20
-53.5192
11
154.313
21
-53.5149
0
LINE
8
BLACK
6
CONTINUOUS
10
154.313
20
-53.5149
11
154.313
21
-53.5147
0
LINE
8
BLACK
6
CONTINUOUS
10
154.313
20
-53.5147
11
154.313
21
-53.5145
0
LINE
8
BLACK
6
CONTINUOUS
10
154.313
20
-53.5145
11
154.337
21
-53.4669
0
LINE
8
BLACK
6
CONTINUOUS
10
154.337
20
-53.4669
11
154.337
21
-53.4662
0
LINE
8
BLACK
6
CONTINUOUS
10
154.337
20
-53.4662
11
154.338
21
-53.4639
0
LINE
8
BLACK
6
CONTINUOUS
10
154.338
20
-53.4639
11
154.34
21
-53.4614
0
LINE
8
BLACK
6
CONTINUOUS
10
154.34
20
-53.4614
11
154.341
21
-53.4598
0
LINE
8
BLACK
6
CONTINUOUS
10
154.341
20
-53.4598
11
154.342
21
-53.458
0
LINE
8
BLACK
6
CONTINUOUS
10
154.342
20
-53.458
11
154.344
21
-53.456
0
LINE
8
BLACK
6
CONTINUOUS
10
154.344
20
-53.456
11
154.346
21
-53.4539
0
LINE
8
BLACK
6
CONTINUOUS
10
154.346
20
-53.4539
11
154.394
21
-53.4062
0
LINE
8
BLACK
6
CONTINUOUS
10
154.394
20
-53.4062
11
154.394
21
-53.4058
0
LINE
8
BLACK
6
CONTINUOUS
10
154.394
20
-53.4058
11
154.395
21
-53.4048
0
LINE
8
BLACK
6
CONTINUOUS
10
154.395
20
-53.4048
11
154.396
21
-53.4038
0
LINE
8
BLACK
6
CONTINUOUS
10
154.396
20
-53.4038
11
154.399
21
-53.4018
0
LINE
8
BLACK
6
CONTINUOUS
10
154.399
20
-53.4018
11
154.402
21
-53.3997
0
LINE
8
BLACK
6
CONTINUOUS
10
154.402
20
-53.3997
11
154.403
21
-53.399
0
LINE
8
BLACK
6
CONTINUOUS
10
154.403
20
-53.399
11
154.404
21
-53.3981
0
LINE
8
BLACK
6
CONTINUOUS
10
154.404
20
-53.3981
11
154.407
21
-53.3967
0
LINE
8
BLACK
6
CONTINUOUS
10
154.407
20
-53.3967
11
154.41
21
-53.3952
0
LINE
8
BLACK
6
CONTINUOUS
10
154.41
20
-53.3952
11
154.412
21
-53.3948
0
LINE
8
BLACK
6
CONTINUOUS
10
154.412
20
-53.3948
11
154.413
21
-53.3942
0
LINE
8
BLACK
6
CONTINUOUS
10
154.413
20
-53.3942
11
154.485
21
-53.3704
0
LINE
8
BLACK
6
CONTINUOUS
10
154.485
20
-53.3704
11
154.485
21
-53.3701
0
LINE
8
BLACK
6
CONTINUOUS
10
154.485
20
-53.3701
11
154.488
21
-53.3696
0
LINE
8
BLACK
6
CONTINUOUS
10
154.488
20
-53.3696
11
154.491
21
-53.3687
0
LINE
8
BLACK
6
CONTINUOUS
10
154.491
20
-53.3687
11
154.493
21
-53.3685
0
LINE
8
BLACK
6
CONTINUOUS
10
154.493
20
-53.3685
11
154.495
21
-53.3681
0
LINE
8
BLACK
6
CONTINUOUS
10
154.495
20
-53.3681
11
154.498
21
-53.3681
0
LINE
8
BLACK
6
CONTINUOUS
10
154.498
20
-53.3681
11
154.5
21
-53.3678
0
LINE
8
BLACK
6
CONTINUOUS
10
154.5
20
-53.3678
11
154.548
21
-53.3678
0
LINE
8
BLACK
6
CONTINUOUS
10
154.548
20
-53.3678
11
154.549
21
-53.3678
0
LINE
8
BLACK
6
CONTINUOUS
10
155.977
20
-53.3678
11
155.987
21
-53.3689
0
LINE
8
BLACK
6
CONTINUOUS
10
155.987
20
-53.3689
11
155.996
21
-53.3718
0
LINE
8
BLACK
6
CONTINUOUS
10
155.996
20
-53.3718
11
156.005
21
-53.3765
0
LINE
8
BLACK
6
CONTINUOUS
10
156.005
20
-53.3765
11
156.012
21
-53.3828
0
LINE
8
BLACK
6
CONTINUOUS
10
156.012
20
-53.3828
11
156.018
21
-53.3904
0
LINE
8
BLACK
6
CONTINUOUS
10
156.018
20
-53.3904
11
156.023
21
-53.3991
0
LINE
8
BLACK
6
CONTINUOUS
10
156.023
20
-53.3991
11
156.026
21
-53.4084
0
LINE
8
BLACK
6
CONTINUOUS
10
156.026
20
-53.4084
11
156.027
21
-53.4181
0
LINE
8
BLACK
6
CONTINUOUS
10
156.027
20
-53.4181
11
156.026
21
-53.4278
0
LINE
8
BLACK
6
CONTINUOUS
10
156.026
20
-53.4278
11
156.023
21
-53.4372
0
LINE
8
BLACK
6
CONTINUOUS
10
156.023
20
-53.4372
11
156.018
21
-53.4457
0
LINE
8
BLACK
6
CONTINUOUS
10
156.018
20
-53.4457
11
156.012
21
-53.4533
0
LINE
8
BLACK
6
CONTINUOUS
10
156.012
20
-53.4533
11
156.004
21
-53.4594
0
LINE
8
BLACK
6
CONTINUOUS
10
156.004
20
-53.4594
11
155.996
21
-53.464
0
LINE
8
BLACK
6
CONTINUOUS
10
155.996
20
-53.464
11
155.986
21
-53.4668
0
LINE
8
BLACK
6
CONTINUOUS
10
155.986
20
-53.4668
11
155.977
21
-53.4678
0
LINE
8
BLACK
6
CONTINUOUS
10
155.977
20
-53.4678
11
155.788
21
-53.4678
0
LINE
8
BLACK
6
CONTINUOUS
10
155.788
20
-53.4678
11
155.788
21
-53.6059
0
LINE
8
BLACK
6
CONTINUOUS
10
155.788
20
-53.6059
11
155.905
21
-53.6059
0
LINE
8
BLACK
6
CONTINUOUS
10
155.905
20
-53.6059
11
155.906
21
-53.6059
0
LINE
8
BLACK
6
CONTINUOUS
10
155.906
20
-53.6059
11
155.916
21
-53.607
0
LINE
8
BLACK
6
CONTINUOUS
10
155.916
20
-53.607
11
155.925
21
-53.6099
0
LINE
8
BLACK
6
CONTINUOUS
10
155.925
20
-53.6099
11
155.933
21
-53.6146
0
LINE
8
BLACK
6
CONTINUOUS
10
155.933
20
-53.6146
11
155.941
21
-53.6209
0
LINE
8
BLACK
6
CONTINUOUS
10
155.941
20
-53.6209
11
155.947
21
-53.6285
0
LINE
8
BLACK
6
CONTINUOUS
10
155.947
20
-53.6285
11
155.951
21
-53.6372
0
LINE
8
BLACK
6
CONTINUOUS
10
155.951
20
-53.6372
11
155.954
21
-53.6465
0
LINE
8
BLACK
6
CONTINUOUS
10
155.954
20
-53.6465
11
155.955
21
-53.6562
0
LINE
8
BLACK
6
CONTINUOUS
10
155.955
20
-53.6562
11
155.954
21
-53.6659
0
LINE
8
BLACK
6
CONTINUOUS
10
155.954
20
-53.6659
11
155.951
21
-53.6753
0
LINE
8
BLACK
6
CONTINUOUS
10
155.951
20
-53.6753
11
155.947
21
-53.6838
0
LINE
8
BLACK
6
CONTINUOUS
10
155.947
20
-53.6838
11
155.94
21
-53.6914
0
LINE
8
BLACK
6
CONTINUOUS
10
155.94
20
-53.6914
11
155.933
21
-53.6975
0
LINE
8
BLACK
6
CONTINUOUS
10
155.933
20
-53.6975
11
155.924
21
-53.7021
0
LINE
8
BLACK
6
CONTINUOUS
10
155.924
20
-53.7021
11
155.915
21
-53.7049
0
LINE
8
BLACK
6
CONTINUOUS
10
155.915
20
-53.7049
11
155.905
21
-53.7059
0
LINE
8
BLACK
6
CONTINUOUS
10
155.905
20
-53.7059
11
155.788
21
-53.7059
0
LINE
8
BLACK
6
CONTINUOUS
10
155.788
20
-53.7059
11
155.788
21
-53.8678
0
LINE
8
BLACK
6
CONTINUOUS
10
155.788
20
-53.8678
11
155.977
21
-53.8678
0
LINE
8
BLACK
6
CONTINUOUS
10
155.977
20
-53.8678
11
155.977
21
-53.8678
0
LINE
8
BLACK
6
CONTINUOUS
10
155.977
20
-53.8678
11
155.987
21
-53.8689
0
LINE
8
BLACK
6
CONTINUOUS
10
155.987
20
-53.8689
11
155.996
21
-53.8718
0
LINE
8
BLACK
6
CONTINUOUS
10
155.996
20
-53.8718
11
156.005
21
-53.8765
0
LINE
8
BLACK
6
CONTINUOUS
10
156.005
20
-53.8765
11
156.012
21
-53.8828
0
LINE
8
BLACK
6
CONTINUOUS
10
156.012
20
-53.8828
11
156.018
21
-53.8904
0
LINE
8
BLACK
6
CONTINUOUS
10
156.018
20
-53.8904
11
156.023
21
-53.8991
0
LINE
8
BLACK
6
CONTINUOUS
10
156.023
20
-53.8991
11
156.026
21
-53.9084
0
LINE
8
BLACK
6
CONTINUOUS
10
156.026
20
-53.9084
11
156.027
21
-53.9181
0
LINE
8
BLACK
6
CONTINUOUS
10
156.027
20
-53.9181
11
156.026
21
-53.9278
0
LINE
8
BLACK
6
CONTINUOUS
10
156.026
20
-53.9278
11
156.023
21
-53.9372
0
LINE
8
BLACK
6
CONTINUOUS
10
156.023
20
-53.9372
11
156.018
21
-53.9457
0
LINE
8
BLACK
6
CONTINUOUS
10
156.018
20
-53.9457
11
156.012
21
-53.9533
0
LINE
8
BLACK
6
CONTINUOUS
10
156.012
20
-53.9533
11
156.004
21
-53.9594
0
LINE
8
BLACK
6
CONTINUOUS
10
156.004
20
-53.9594
11
155.996
21
-53.964
0
LINE
8
BLACK
6
CONTINUOUS
10
155.996
20
-53.964
11
155.986
21
-53.9668
0
LINE
8
BLACK
6
CONTINUOUS
10
155.986
20
-53.9668
11
155.977
21
-53.9678
0
LINE
8
BLACK
6
CONTINUOUS
10
155.977
20
-53.9678
11
155.738
21
-53.9678
0
LINE
8
BLACK
6
CONTINUOUS
10
155.738
20
-53.9678
11
155.738
21
-53.9678
0
LINE
8
BLACK
6
CONTINUOUS
10
155.738
20
-53.9678
11
155.738
21
-53.9678
0
LINE
8
BLACK
6
CONTINUOUS
10
155.738
20
-53.9678
11
155.738
21
-53.9678
0
LINE
8
BLACK
6
CONTINUOUS
10
155.738
20
-53.9678
11
155.738
21
-53.9678
0
LINE
8
BLACK
6
CONTINUOUS
10
155.738
20
-53.9678
11
155.733
21
-53.9673
0
LINE
8
BLACK
6
CONTINUOUS
10
155.733
20
-53.9673
11
155.728
21
-53.9668
0
LINE
8
BLACK
6
CONTINUOUS
10
155.728
20
-53.9668
11
155.728
21
-53.9667
0
LINE
8
BLACK
6
CONTINUOUS
10
155.728
20
-53.9667
11
155.728
21
-53.9667
0
LINE
8
BLACK
6
CONTINUOUS
10
155.728
20
-53.9667
11
155.724
21
-53.9653
0
LINE
8
BLACK
6
CONTINUOUS
10
155.724
20
-53.9653
11
155.719
21
-53.9639
0
LINE
8
BLACK
6
CONTINUOUS
10
155.719
20
-53.9639
11
155.719
21
-53.9638
0
LINE
8
BLACK
6
CONTINUOUS
10
155.719
20
-53.9638
11
155.719
21
-53.9637
0
LINE
8
BLACK
6
CONTINUOUS
10
155.719
20
-53.9637
11
155.715
21
-53.9615
0
LINE
8
BLACK
6
CONTINUOUS
10
155.715
20
-53.9615
11
155.711
21
-53.9592
0
LINE
8
BLACK
6
CONTINUOUS
10
155.711
20
-53.9592
11
155.71
21
-53.9591
0
LINE
8
BLACK
6
CONTINUOUS
10
155.71
20
-53.9591
11
155.71
21
-53.959
0
LINE
8
BLACK
6
CONTINUOUS
10
155.71
20
-53.959
11
155.707
21
-53.9561
0
LINE
8
BLACK
6
CONTINUOUS
10
155.707
20
-53.9561
11
155.703
21
-53.953
0
LINE
8
BLACK
6
CONTINUOUS
10
155.703
20
-53.953
11
155.703
21
-53.9529
0
LINE
8
BLACK
6
CONTINUOUS
10
155.703
20
-53.9529
11
155.703
21
-53.9528
0
LINE
8
BLACK
6
CONTINUOUS
10
155.703
20
-53.9528
11
155.7
21
-53.9492
0
LINE
8
BLACK
6
CONTINUOUS
10
155.7
20
-53.9492
11
155.697
21
-53.9455
0
LINE
8
BLACK
6
CONTINUOUS
10
155.697
20
-53.9455
11
155.697
21
-53.9453
0
LINE
8
BLACK
6
CONTINUOUS
10
155.697
20
-53.9453
11
155.697
21
-53.9452
0
LINE
8
BLACK
6
CONTINUOUS
10
155.697
20
-53.9452
11
155.694
21
-53.941
0
LINE
8
BLACK
6
CONTINUOUS
10
155.694
20
-53.941
11
155.692
21
-53.9368
0
LINE
8
BLACK
6
CONTINUOUS
10
155.692
20
-53.9368
11
155.692
21
-53.9367
0
LINE
8
BLACK
6
CONTINUOUS
10
155.692
20
-53.9367
11
155.692
21
-53.9365
0
LINE
8
BLACK
6
CONTINUOUS
10
155.692
20
-53.9365
11
155.691
21
-53.9321
0
LINE
8
BLACK
6
CONTINUOUS
10
155.691
20
-53.9321
11
155.689
21
-53.9275
0
LINE
8
BLACK
6
CONTINUOUS
10
155.689
20
-53.9275
11
155.689
21
-53.9273
0
LINE
8
BLACK
6
CONTINUOUS
10
155.689
20
-53.9273
11
155.689
21
-53.9272
0
LINE
8
BLACK
6
CONTINUOUS
10
155.689
20
-53.9272
11
155.689
21
-53.9225
0
LINE
8
BLACK
6
CONTINUOUS
10
155.689
20
-53.9225
11
155.688
21
-53.9178
0
LINE
8
BLACK
6
CONTINUOUS
10
155.688
20
-53.9178
11
155.688
21
-53.4178
0
LINE
8
BLACK
6
CONTINUOUS
10
155.688
20
-53.4178
11
155.688
21
-53.4175
0
LINE
8
BLACK
6
CONTINUOUS
10
155.688
20
-53.4175
11
155.688
21
-53.4174
0
LINE
8
BLACK
6
CONTINUOUS
10
155.688
20
-53.4174
11
155.688
21
-53.4174
0
LINE
8
BLACK
6
CONTINUOUS
10
155.688
20
-53.4174
11
155.688
21
-53.4171
0
LINE
8
BLACK
6
CONTINUOUS
10
155.688
20
-53.4171
11
155.689
21
-53.4125
0
LINE
8
BLACK
6
CONTINUOUS
10
155.689
20
-53.4125
11
155.689
21
-53.4077
0
LINE
8
BLACK
6
CONTINUOUS
10
155.689
20
-53.4077
11
155.69
21
-53.4076
0
LINE
8
BLACK
6
CONTINUOUS
10
155.69
20
-53.4076
11
155.69
21
-53.4074
0
LINE
8
BLACK
6
CONTINUOUS
10
155.69
20
-53.4074
11
155.691
21
-53.4029
0
LINE
8
BLACK
6
CONTINUOUS
10
155.691
20
-53.4029
11
155.692
21
-53.3984
0
LINE
8
BLACK
6
CONTINUOUS
10
155.692
20
-53.3984
11
155.692
21
-53.3983
0
LINE
8
BLACK
6
CONTINUOUS
10
155.692
20
-53.3983
11
155.693
21
-53.3981
0
LINE
8
BLACK
6
CONTINUOUS
10
155.693
20
-53.3981
11
155.695
21
-53.394
0
LINE
8
BLACK
6
CONTINUOUS
10
155.695
20
-53.394
11
155.697
21
-53.3898
0
LINE
8
BLACK
6
CONTINUOUS
10
155.697
20
-53.3898
11
155.697
21
-53.3897
0
LINE
8
BLACK
6
CONTINUOUS
10
155.697
20
-53.3897
11
155.697
21
-53.3895
0
LINE
8
BLACK
6
CONTINUOUS
10
155.697
20
-53.3895
11
155.7
21
-53.386
0
LINE
8
BLACK
6
CONTINUOUS
10
155.7
20
-53.386
11
155.703
21
-53.3823
0
LINE
8
BLACK
6
CONTINUOUS
10
155.703
20
-53.3823
11
155.703
21
-53.3822
0
LINE
8
BLACK
6
CONTINUOUS
10
155.703
20
-53.3822
11
155.703
21
-53.3821
0
LINE
8
BLACK
6
CONTINUOUS
10
155.703
20
-53.3821
11
155.707
21
-53.3792
0
LINE
8
BLACK
6
CONTINUOUS
10
155.707
20
-53.3792
11
155.711
21
-53.3761
0
LINE
8
BLACK
6
CONTINUOUS
10
155.711
20
-53.3761
11
155.711
21
-53.3761
0
LINE
8
BLACK
6
CONTINUOUS
10
155.711
20
-53.3761
11
155.711
21
-53.376
0
LINE
8
BLACK
6
CONTINUOUS
10
155.711
20
-53.376
11
155.715
21
-53.3738
0
LINE
8
BLACK
6
CONTINUOUS
10
155.715
20
-53.3738
11
155.719
21
-53.3716
0
LINE
8
BLACK
6
CONTINUOUS
10
155.719
20
-53.3716
11
155.72
21
-53.3715
0
LINE
8
BLACK
6
CONTINUOUS
10
155.72
20
-53.3715
11
155.72
21
-53.3714
0
LINE
8
BLACK
6
CONTINUOUS
10
155.72
20
-53.3714
11
155.724
21
-53.3701
0
LINE
8
BLACK
6
CONTINUOUS
10
155.724
20
-53.3701
11
155.729
21
-53.3687
0
LINE
8
BLACK
6
CONTINUOUS
10
155.729
20
-53.3687
11
155.729
21
-53.3687
0
LINE
8
BLACK
6
CONTINUOUS
10
155.729
20
-53.3687
11
155.729
21
-53.3687
0
LINE
8
BLACK
6
CONTINUOUS
10
155.729
20
-53.3687
11
155.734
21
-53.3683
0
LINE
8
BLACK
6
CONTINUOUS
10
155.734
20
-53.3683
11
155.738
21
-53.3678
0
LINE
8
BLACK
6
CONTINUOUS
10
155.738
20
-53.3678
11
155.977
21
-53.3678
0
LINE
8
BLACK
6
CONTINUOUS
10
155.977
20
-53.3678
11
155.977
21
-53.3678
0
LINE
8
BLACK
6
CONTINUOUS
10
156.415
20
-53.3688
11
156.425
21
-53.3717
0
LINE
8
BLACK
6
CONTINUOUS
10
156.425
20
-53.3717
11
156.433
21
-53.3763
0
LINE
8
BLACK
6
CONTINUOUS
10
156.433
20
-53.3763
11
156.441
21
-53.3826
0
LINE
8
BLACK
6
CONTINUOUS
10
156.441
20
-53.3826
11
156.447
21
-53.3901
0
LINE
8
BLACK
6
CONTINUOUS
10
156.447
20
-53.3901
11
156.451
21
-53.3987
0
LINE
8
BLACK
6
CONTINUOUS
10
156.451
20
-53.3987
11
156.454
21
-53.4081
0
LINE
8
BLACK
6
CONTINUOUS
10
156.454
20
-53.4081
11
156.455
21
-53.4178
0
LINE
8
BLACK
6
CONTINUOUS
10
156.455
20
-53.4178
11
156.455
21
-53.9178
0
LINE
8
BLACK
6
CONTINUOUS
10
156.455
20
-53.9178
11
156.455
21
-53.9185
0
LINE
8
BLACK
6
CONTINUOUS
10
156.455
20
-53.9185
11
156.454
21
-53.9282
0
LINE
8
BLACK
6
CONTINUOUS
10
156.454
20
-53.9282
11
156.451
21
-53.9375
0
LINE
8
BLACK
6
CONTINUOUS
10
156.451
20
-53.9375
11
156.446
21
-53.946
0
LINE
8
BLACK
6
CONTINUOUS
10
156.446
20
-53.946
11
156.44
21
-53.9535
0
LINE
8
BLACK
6
CONTINUOUS
10
156.44
20
-53.9535
11
156.433
21
-53.9596
0
LINE
8
BLACK
6
CONTINUOUS
10
156.433
20
-53.9596
11
156.424
21
-53.9641
0
LINE
8
BLACK
6
CONTINUOUS
10
156.424
20
-53.9641
11
156.415
21
-53.9669
0
LINE
8
BLACK
6
CONTINUOUS
10
156.415
20
-53.9669
11
156.405
21
-53.9678
0
LINE
8
BLACK
6
CONTINUOUS
10
156.405
20
-53.9678
11
156.395
21
-53.9668
0
LINE
8
BLACK
6
CONTINUOUS
10
156.395
20
-53.9668
11
156.386
21
-53.9639
0
LINE
8
BLACK
6
CONTINUOUS
10
156.386
20
-53.9639
11
156.382
21
-53.9616
0
LINE
8
BLACK
6
CONTINUOUS
10
156.382
20
-53.9616
11
156.38
21
-53.9625
0
LINE
8
BLACK
6
CONTINUOUS
10
156.38
20
-53.9625
11
156.379
21
-53.9628
0
LINE
8
BLACK
6
CONTINUOUS
10
156.379
20
-53.9628
11
156.378
21
-53.9633
0
LINE
8
BLACK
6
CONTINUOUS
10
156.378
20
-53.9633
11
156.377
21
-53.964
0
LINE
8
BLACK
6
CONTINUOUS
10
156.377
20
-53.964
11
156.373
21
-53.965
0
LINE
8
BLACK
6
CONTINUOUS
10
156.373
20
-53.965
11
156.37
21
-53.9662
0
LINE
8
BLACK
6
CONTINUOUS
10
156.37
20
-53.9662
11
156.369
21
-53.9664
0
LINE
8
BLACK
6
CONTINUOUS
10
156.369
20
-53.9664
11
156.367
21
-53.9668
0
LINE
8
BLACK
6
CONTINUOUS
10
156.367
20
-53.9668
11
156.364
21
-53.9672
0
LINE
8
BLACK
6
CONTINUOUS
10
156.364
20
-53.9672
11
156.36
21
-53.9677
0
LINE
8
BLACK
6
CONTINUOUS
10
156.36
20
-53.9677
11
156.359
21
-53.9676
0
LINE
8
BLACK
6
CONTINUOUS
10
156.359
20
-53.9676
11
156.358
21
-53.9678
0
LINE
8
BLACK
6
CONTINUOUS
10
156.358
20
-53.9678
11
156.262
21
-53.9678
0
LINE
8
BLACK
6
CONTINUOUS
10
156.262
20
-53.9678
11
156.262
21
-53.9678
0
LINE
8
BLACK
6
CONTINUOUS
10
156.262
20
-53.9678
11
156.26
21
-53.9676
0
LINE
8
BLACK
6
CONTINUOUS
10
156.26
20
-53.9676
11
156.259
21
-53.9677
0
LINE
8
BLACK
6
CONTINUOUS
10
156.259
20
-53.9677
11
156.255
21
-53.9671
0
LINE
8
BLACK
6
CONTINUOUS
10
156.255
20
-53.9671
11
156.252
21
-53.9667
0
LINE
8
BLACK
6
CONTINUOUS
10
156.252
20
-53.9667
11
156.25
21
-53.9663
0
LINE
8
BLACK
6
CONTINUOUS
10
156.25
20
-53.9663
11
156.249
21
-53.966
0
LINE
8
BLACK
6
CONTINUOUS
10
156.249
20
-53.966
11
156.246
21
-53.9648
0
LINE
8
BLACK
6
CONTINUOUS
10
156.246
20
-53.9648
11
156.243
21
-53.9637
0
LINE
8
BLACK
6
CONTINUOUS
10
156.243
20
-53.9637
11
156.241
21
-53.963
0
LINE
8
BLACK
6
CONTINUOUS
10
156.241
20
-53.963
11
156.24
21
-53.9625
0
LINE
8
BLACK
6
CONTINUOUS
10
156.24
20
-53.9625
11
156.192
21
-53.9387
0
LINE
8
BLACK
6
CONTINUOUS
10
156.192
20
-53.9387
11
156.192
21
-53.9384
0
LINE
8
BLACK
6
CONTINUOUS
10
156.192
20
-53.9384
11
156.189
21
-53.9369
0
LINE
8
BLACK
6
CONTINUOUS
10
156.189
20
-53.9369
11
156.187
21
-53.9355
0
LINE
8
BLACK
6
CONTINUOUS
10
156.187
20
-53.9355
11
156.185
21
-53.9342
0
LINE
8
BLACK
6
CONTINUOUS
10
156.185
20
-53.9342
11
156.183
21
-53.9331
0
LINE
8
BLACK
6
CONTINUOUS
10
156.183
20
-53.9331
11
156.181
21
-53.9311
0
LINE
8
BLACK
6
CONTINUOUS
10
156.181
20
-53.9311
11
156.179
21
-53.9293
0
LINE
8
BLACK
6
CONTINUOUS
10
156.179
20
-53.9293
11
156.155
21
-53.9055
0
LINE
8
BLACK
6
CONTINUOUS
10
156.155
20
-53.9055
11
156.155
21
-53.905
0
LINE
8
BLACK
6
CONTINUOUS
10
156.155
20
-53.905
11
156.153
21
-53.9028
0
LINE
8
BLACK
6
CONTINUOUS
10
156.153
20
-53.9028
11
156.151
21
-53.9008
0
LINE
8
BLACK
6
CONTINUOUS
10
156.151
20
-53.9008
11
156.15
21
-53.899
0
LINE
8
BLACK
6
CONTINUOUS
10
156.15
20
-53.899
11
156.149
21
-53.8974
0
LINE
8
BLACK
6
CONTINUOUS
10
156.149
20
-53.8974
11
156.148
21
-53.8949
0
LINE
8
BLACK
6
CONTINUOUS
10
156.148
20
-53.8949
11
156.146
21
-53.8925
0
LINE
8
BLACK
6
CONTINUOUS
10
156.146
20
-53.8925
11
156.122
21
-53.8449
0
LINE
8
BLACK
6
CONTINUOUS
10
156.122
20
-53.8449
11
156.122
21
-53.8443
0
LINE
8
BLACK
6
CONTINUOUS
10
156.122
20
-53.8443
11
156.122
21
-53.8429
0
LINE
8
BLACK
6
CONTINUOUS
10
156.122
20
-53.8429
11
156.121
21
-53.8416
0
LINE
8
BLACK
6
CONTINUOUS
10
156.121
20
-53.8416
11
156.12
21
-53.8383
0
LINE
8
BLACK
6
CONTINUOUS
10
156.12
20
-53.8383
11
156.119
21
-53.8351
0
LINE
8
BLACK
6
CONTINUOUS
10
156.119
20
-53.8351
11
156.118
21
-53.8337
0
LINE
8
BLACK
6
CONTINUOUS
10
156.118
20
-53.8337
11
156.118
21
-53.8323
0
LINE
8
BLACK
6
CONTINUOUS
10
156.118
20
-53.8323
11
156.118
21
-53.8289
0
LINE
8
BLACK
6
CONTINUOUS
10
156.118
20
-53.8289
11
156.117
21
-53.8255
0
LINE
8
BLACK
6
CONTINUOUS
10
156.117
20
-53.8255
11
156.117
21
-53.824
0
LINE
8
BLACK
6
CONTINUOUS
10
156.117
20
-53.824
11
156.117
21
-53.8226
0
LINE
8
BLACK
6
CONTINUOUS
10
156.117
20
-53.8226
11
156.117
21
-53.6797
0
LINE
8
BLACK
6
CONTINUOUS
10
156.117
20
-53.6797
11
156.117
21
-53.679
0
LINE
8
BLACK
6
CONTINUOUS
10
156.117
20
-53.679
11
156.117
21
-53.6775
0
LINE
8
BLACK
6
CONTINUOUS
10
156.117
20
-53.6775
11
156.117
21
-53.6761
0
LINE
8
BLACK
6
CONTINUOUS
10
156.117
20
-53.6761
11
156.118
21
-53.6727
0
LINE
8
BLACK
6
CONTINUOUS
10
156.118
20
-53.6727
11
156.118
21
-53.6693
0
LINE
8
BLACK
6
CONTINUOUS
10
156.118
20
-53.6693
11
156.119
21
-53.6679
0
LINE
8
BLACK
6
CONTINUOUS
10
156.119
20
-53.6679
11
156.119
21
-53.6664
0
LINE
8
BLACK
6
CONTINUOUS
10
156.119
20
-53.6664
11
156.12
21
-53.6632
0
LINE
8
BLACK
6
CONTINUOUS
10
156.12
20
-53.6632
11
156.121
21
-53.66
0
LINE
8
BLACK
6
CONTINUOUS
10
156.121
20
-53.66
11
156.122
21
-53.6587
0
LINE
8
BLACK
6
CONTINUOUS
10
156.122
20
-53.6587
11
156.122
21
-53.6573
0
LINE
8
BLACK
6
CONTINUOUS
10
156.122
20
-53.6573
11
156.146
21
-53.6097
0
LINE
8
BLACK
6
CONTINUOUS
10
156.146
20
-53.6097
11
156.146
21
-53.6091
0
LINE
8
BLACK
6
CONTINUOUS
10
156.146
20
-53.6091
11
156.148
21
-53.6067
0
LINE
8
BLACK
6
CONTINUOUS
10
156.148
20
-53.6067
11
156.149
21
-53.6043
0
LINE
8
BLACK
6
CONTINUOUS
10
156.149
20
-53.6043
11
156.151
21
-53.6026
0
LINE
8
BLACK
6
CONTINUOUS
10
156.151
20
-53.6026
11
156.152
21
-53.6009
0
LINE
8
BLACK
6
CONTINUOUS
10
156.152
20
-53.6009
11
156.154
21
-53.5989
0
LINE
8
BLACK
6
CONTINUOUS
10
156.154
20
-53.5989
11
156.155
21
-53.5967
0
LINE
8
BLACK
6
CONTINUOUS
10
156.155
20
-53.5967
11
156.179
21
-53.5729
0
LINE
8
BLACK
6
CONTINUOUS
10
156.179
20
-53.5729
11
156.18
21
-53.5724
0
LINE
8
BLACK
6
CONTINUOUS
10
156.18
20
-53.5724
11
156.182
21
-53.5707
0
LINE
8
BLACK
6
CONTINUOUS
10
156.182
20
-53.5707
11
156.184
21
-53.5687
0
LINE
8
BLACK
6
CONTINUOUS
10
156.184
20
-53.5687
11
156.186
21
-53.5676
0
LINE
8
BLACK
6
CONTINUOUS
10
156.186
20
-53.5676
11
156.187
21
-53.5663
0
LINE
8
BLACK
6
CONTINUOUS
10
156.187
20
-53.5663
11
156.19
21
-53.565
0
LINE
8
BLACK
6
CONTINUOUS
10
156.19
20
-53.565
11
156.192
21
-53.5635
0
LINE
8
BLACK
6
CONTINUOUS
10
156.192
20
-53.5635
11
156.24
21
-53.5397
0
LINE
8
BLACK
6
CONTINUOUS
10
156.24
20
-53.5397
11
156.241
21
-53.5394
0
LINE
8
BLACK
6
CONTINUOUS
10
156.241
20
-53.5394
11
156.242
21
-53.5389
0
LINE
8
BLACK
6
CONTINUOUS
10
156.242
20
-53.5389
11
156.243
21
-53.5382
0
LINE
8
BLACK
6
CONTINUOUS
10
156.243
20
-53.5382
11
156.246
21
-53.5372
0
LINE
8
BLACK
6
CONTINUOUS
10
156.246
20
-53.5372
11
156.25
21
-53.5361
0
LINE
8
BLACK
6
CONTINUOUS
10
156.25
20
-53.5361
11
156.251
21
-53.5358
0
LINE
8
BLACK
6
CONTINUOUS
10
156.251
20
-53.5358
11
156.253
21
-53.5354
0
LINE
8
BLACK
6
CONTINUOUS
10
156.253
20
-53.5354
11
156.256
21
-53.5351
0
LINE
8
BLACK
6
CONTINUOUS
10
156.256
20
-53.5351
11
156.259
21
-53.5345
0
LINE
8
BLACK
6
CONTINUOUS
10
156.259
20
-53.5345
11
156.261
21
-53.5346
0
LINE
8
BLACK
6
CONTINUOUS
10
156.261
20
-53.5346
11
156.262
21
-53.5345
0
LINE
8
BLACK
6
CONTINUOUS
10
156.262
20
-53.5345
11
156.355
21
-53.5345
0
LINE
8
BLACK
6
CONTINUOUS
10
156.355
20
-53.5345
11
156.355
21
-53.4178
0
LINE
8
BLACK
6
CONTINUOUS
10
156.355
20
-53.4178
11
156.355
21
-53.4171
0
LINE
8
BLACK
6
CONTINUOUS
10
156.355
20
-53.4171
11
156.356
21
-53.4074
0
LINE
8
BLACK
6
CONTINUOUS
10
156.356
20
-53.4074
11
156.359
21
-53.3981
0
LINE
8
BLACK
6
CONTINUOUS
10
156.359
20
-53.3981
11
156.364
21
-53.3895
0
LINE
8
BLACK
6
CONTINUOUS
10
156.364
20
-53.3895
11
156.37
21
-53.3821
0
LINE
8
BLACK
6
CONTINUOUS
10
156.37
20
-53.3821
11
156.378
21
-53.376
0
LINE
8
BLACK
6
CONTINUOUS
10
156.378
20
-53.376
11
156.386
21
-53.3714
0
LINE
8
BLACK
6
CONTINUOUS
10
156.386
20
-53.3714
11
156.396
21
-53.3687
0
LINE
8
BLACK
6
CONTINUOUS
10
156.396
20
-53.3687
11
156.405
21
-53.3678
0
LINE
8
BLACK
6
CONTINUOUS
10
156.405
20
-53.3678
11
156.415
21
-53.3688
0
LINE
8
BLACK
6
CONTINUOUS
10
156.274
20
-53.6345
11
156.244
21
-53.6494
0
LINE
8
BLACK
6
CONTINUOUS
10
156.244
20
-53.6494
11
156.232
21
-53.6617
0
LINE
8
BLACK
6
CONTINUOUS
10
156.232
20
-53.6617
11
156.217
21
-53.6915
0
LINE
8
BLACK
6
CONTINUOUS
10
156.217
20
-53.6915
11
156.217
21
-53.8107
0
LINE
8
BLACK
6
CONTINUOUS
10
156.217
20
-53.8107
11
156.232
21
-53.8406
0
LINE
8
BLACK
6
CONTINUOUS
10
156.232
20
-53.8406
11
156.244
21
-53.8529
0
LINE
8
BLACK
6
CONTINUOUS
10
156.244
20
-53.8529
11
156.274
21
-53.8678
0
LINE
8
BLACK
6
CONTINUOUS
10
156.274
20
-53.8678
11
156.346
21
-53.8678
0
LINE
8
BLACK
6
CONTINUOUS
10
156.346
20
-53.8678
11
156.355
21
-53.8631
0
LINE
8
BLACK
6
CONTINUOUS
10
156.355
20
-53.8631
11
156.355
21
-53.6392
0
LINE
8
BLACK
6
CONTINUOUS
10
156.355
20
-53.6392
11
156.346
21
-53.6345
0
LINE
8
BLACK
6
CONTINUOUS
10
156.346
20
-53.6345
11
156.274
21
-53.6345
0
LINE
8
BLACK
6
CONTINUOUS
10
154.049
20
-53.3678
11
154.05
21
-53.368
0
LINE
8
BLACK
6
CONTINUOUS
10
154.05
20
-53.368
11
154.052
21
-53.3679
0
LINE
8
BLACK
6
CONTINUOUS
10
154.052
20
-53.3679
11
154.055
21
-53.3685
0
LINE
8
BLACK
6
CONTINUOUS
10
154.055
20
-53.3685
11
154.058
21
-53.3689
0
LINE
8
BLACK
6
CONTINUOUS
10
154.058
20
-53.3689
11
154.06
21
-53.3693
0
LINE
8
BLACK
6
CONTINUOUS
10
154.06
20
-53.3693
11
154.061
21
-53.3696
0
LINE
8
BLACK
6
CONTINUOUS
10
154.061
20
-53.3696
11
154.064
21
-53.3708
0
LINE
8
BLACK
6
CONTINUOUS
10
154.064
20
-53.3708
11
154.068
21
-53.3718
0
LINE
8
BLACK
6
CONTINUOUS
10
154.068
20
-53.3718
11
154.069
21
-53.3725
0
LINE
8
BLACK
6
CONTINUOUS
10
154.069
20
-53.3725
11
154.07
21
-53.3731
0
LINE
8
BLACK
6
CONTINUOUS
10
154.07
20
-53.3731
11
154.118
21
-53.3969
0
LINE
8
BLACK
6
CONTINUOUS
10
154.118
20
-53.3969
11
154.119
21
-53.3972
0
LINE
8
BLACK
6
CONTINUOUS
10
154.119
20
-53.3972
11
154.121
21
-53.3987
0
LINE
8
BLACK
6
CONTINUOUS
10
154.121
20
-53.3987
11
154.123
21
-53.4001
0
LINE
8
BLACK
6
CONTINUOUS
10
154.123
20
-53.4001
11
154.125
21
-53.4014
0
LINE
8
BLACK
6
CONTINUOUS
10
154.125
20
-53.4014
11
154.127
21
-53.4025
0
LINE
8
BLACK
6
CONTINUOUS
10
154.127
20
-53.4025
11
154.129
21
-53.4045
0
LINE
8
BLACK
6
CONTINUOUS
10
154.129
20
-53.4045
11
154.131
21
-53.4062
0
LINE
8
BLACK
6
CONTINUOUS
10
154.131
20
-53.4062
11
154.155
21
-53.4301
0
LINE
8
BLACK
6
CONTINUOUS
10
154.155
20
-53.4301
11
154.155
21
-53.4305
0
LINE
8
BLACK
6
CONTINUOUS
10
154.155
20
-53.4305
11
154.157
21
-53.4327
0
LINE
8
BLACK
6
CONTINUOUS
10
154.157
20
-53.4327
11
154.159
21
-53.4348
0
LINE
8
BLACK
6
CONTINUOUS
10
154.159
20
-53.4348
11
154.16
21
-53.4366
0
LINE
8
BLACK
6
CONTINUOUS
10
154.16
20
-53.4366
11
154.161
21
-53.4382
0
LINE
8
BLACK
6
CONTINUOUS
10
154.161
20
-53.4382
11
154.163
21
-53.4407
0
LINE
8
BLACK
6
CONTINUOUS
10
154.163
20
-53.4407
11
154.164
21
-53.443
0
LINE
8
BLACK
6
CONTINUOUS
10
154.164
20
-53.443
11
154.188
21
-53.4907
0
LINE
8
BLACK
6
CONTINUOUS
10
154.188
20
-53.4907
11
154.188
21
-53.4913
0
LINE
8
BLACK
6
CONTINUOUS
10
154.188
20
-53.4913
11
154.189
21
-53.4927
0
LINE
8
BLACK
6
CONTINUOUS
10
154.189
20
-53.4927
11
154.189
21
-53.494
0
LINE
8
BLACK
6
CONTINUOUS
10
154.189
20
-53.494
11
154.19
21
-53.4973
0
LINE
8
BLACK
6
CONTINUOUS
10
154.19
20
-53.4973
11
154.192
21
-53.5005
0
LINE
8
BLACK
6
CONTINUOUS
10
154.192
20
-53.5005
11
154.192
21
-53.5019
0
LINE
8
BLACK
6
CONTINUOUS
10
154.192
20
-53.5019
11
154.192
21
-53.5033
0
LINE
8
BLACK
6
CONTINUOUS
10
154.192
20
-53.5033
11
154.193
21
-53.5067
0
LINE
8
BLACK
6
CONTINUOUS
10
154.193
20
-53.5067
11
154.193
21
-53.5101
0
LINE
8
BLACK
6
CONTINUOUS
10
154.193
20
-53.5101
11
154.193
21
-53.5116
0
LINE
8
BLACK
6
CONTINUOUS
10
154.193
20
-53.5116
11
154.193
21
-53.513
0
LINE
8
BLACK
6
CONTINUOUS
10
154.193
20
-53.513
11
154.193
21
-53.5845
0
LINE
8
BLACK
6
CONTINUOUS
10
154.193
20
-53.5845
11
154.193
21
-53.5852
0
LINE
8
BLACK
6
CONTINUOUS
10
154.193
20
-53.5852
11
154.193
21
-53.5866
0
LINE
8
BLACK
6
CONTINUOUS
10
154.193
20
-53.5866
11
154.193
21
-53.5881
0
LINE
8
BLACK
6
CONTINUOUS
10
154.193
20
-53.5881
11
154.193
21
-53.5915
0
LINE
8
BLACK
6
CONTINUOUS
10
154.193
20
-53.5915
11
154.192
21
-53.5949
0
LINE
8
BLACK
6
CONTINUOUS
10
154.192
20
-53.5949
11
154.192
21
-53.5963
0
LINE
8
BLACK
6
CONTINUOUS
10
154.192
20
-53.5963
11
154.191
21
-53.5977
0
LINE
8
BLACK
6
CONTINUOUS
10
154.191
20
-53.5977
11
154.19
21
-53.6009
0
LINE
8
BLACK
6
CONTINUOUS
10
154.19
20
-53.6009
11
154.189
21
-53.6042
0
LINE
8
BLACK
6
CONTINUOUS
10
154.189
20
-53.6042
11
154.188
21
-53.6054
0
LINE
8
BLACK
6
CONTINUOUS
10
154.188
20
-53.6054
11
154.188
21
-53.6068
0
LINE
8
BLACK
6
CONTINUOUS
10
154.188
20
-53.6068
11
154.164
21
-53.6544
0
LINE
8
BLACK
6
CONTINUOUS
10
154.164
20
-53.6544
11
154.164
21
-53.6551
0
LINE
8
BLACK
6
CONTINUOUS
10
154.164
20
-53.6551
11
154.162
21
-53.6574
0
LINE
8
BLACK
6
CONTINUOUS
10
154.162
20
-53.6574
11
154.161
21
-53.6599
0
LINE
8
BLACK
6
CONTINUOUS
10
154.161
20
-53.6599
11
154.16
21
-53.6615
0
LINE
8
BLACK
6
CONTINUOUS
10
154.16
20
-53.6615
11
154.159
21
-53.6632
0
LINE
8
BLACK
6
CONTINUOUS
10
154.159
20
-53.6632
11
154.157
21
-53.6653
0
LINE
8
BLACK
6
CONTINUOUS
10
154.157
20
-53.6653
11
154.155
21
-53.6674
0
LINE
8
BLACK
6
CONTINUOUS
10
154.155
20
-53.6674
11
154.131
21
-53.6912
0
LINE
8
BLACK
6
CONTINUOUS
10
154.131
20
-53.6912
11
154.13
21
-53.6917
0
LINE
8
BLACK
6
CONTINUOUS
10
154.13
20
-53.6917
11
154.128
21
-53.6935
0
LINE
8
BLACK
6
CONTINUOUS
10
154.128
20
-53.6935
11
154.126
21
-53.6954
0
LINE
8
BLACK
6
CONTINUOUS
10
154.126
20
-53.6954
11
154.124
21
-53.6965
0
LINE
8
BLACK
6
CONTINUOUS
10
154.124
20
-53.6965
11
154.123
21
-53.6978
0
LINE
8
BLACK
6
CONTINUOUS
10
154.123
20
-53.6978
11
154.12
21
-53.6991
0
LINE
8
BLACK
6
CONTINUOUS
10
154.12
20
-53.6991
11
154.118
21
-53.7006
0
LINE
8
BLACK
6
CONTINUOUS
10
154.118
20
-53.7006
11
154.07
21
-53.7244
0
LINE
8
BLACK
6
CONTINUOUS
10
154.07
20
-53.7244
11
154.07
21
-53.7247
0
LINE
8
BLACK
6
CONTINUOUS
10
154.07
20
-53.7247
11
154.068
21
-53.7252
0
LINE
8
BLACK
6
CONTINUOUS
10
154.068
20
-53.7252
11
154.067
21
-53.7259
0
LINE
8
BLACK
6
CONTINUOUS
10
154.067
20
-53.7259
11
154.064
21
-53.7269
0
LINE
8
BLACK
6
CONTINUOUS
10
154.064
20
-53.7269
11
154.061
21
-53.7281
0
LINE
8
BLACK
6
CONTINUOUS
10
154.061
20
-53.7281
11
154.059
21
-53.7283
0
LINE
8
BLACK
6
CONTINUOUS
10
154.059
20
-53.7283
11
154.058
21
-53.7287
0
LINE
8
BLACK
6
CONTINUOUS
10
154.058
20
-53.7287
11
154.054
21
-53.7291
0
LINE
8
BLACK
6
CONTINUOUS
10
154.054
20
-53.7291
11
154.051
21
-53.7296
0
LINE
8
BLACK
6
CONTINUOUS
10
154.051
20
-53.7296
11
154.049
21
-53.7296
0
LINE
8
BLACK
6
CONTINUOUS
10
154.049
20
-53.7296
11
154.048
21
-53.7297
0
LINE
8
BLACK
6
CONTINUOUS
10
154.048
20
-53.7297
11
153.908
21
-53.7297
0
LINE
8
BLACK
6
CONTINUOUS
10
153.908
20
-53.7297
11
153.908
21
-53.9178
0
LINE
8
BLACK
6
CONTINUOUS
10
153.908
20
-53.9178
11
153.908
21
-53.9185
0
LINE
8
BLACK
6
CONTINUOUS
10
153.908
20
-53.9185
11
153.906
21
-53.9282
0
LINE
8
BLACK
6
CONTINUOUS
10
153.906
20
-53.9282
11
153.903
21
-53.9375
0
LINE
8
BLACK
6
CONTINUOUS
10
153.903
20
-53.9375
11
153.899
21
-53.946
0
LINE
8
BLACK
6
CONTINUOUS
10
153.899
20
-53.946
11
153.892
21
-53.9535
0
LINE
8
BLACK
6
CONTINUOUS
10
153.892
20
-53.9535
11
153.885
21
-53.9596
0
LINE
8
BLACK
6
CONTINUOUS
10
153.885
20
-53.9596
11
153.876
21
-53.9641
0
LINE
8
BLACK
6
CONTINUOUS
10
153.876
20
-53.9641
11
153.867
21
-53.9669
0
LINE
8
BLACK
6
CONTINUOUS
10
153.867
20
-53.9669
11
153.857
21
-53.9678
0
LINE
8
BLACK
6
CONTINUOUS
10
153.857
20
-53.9678
11
153.847
21
-53.9668
0
LINE
8
BLACK
6
CONTINUOUS
10
153.847
20
-53.9668
11
153.838
21
-53.9639
0
LINE
8
BLACK
6
CONTINUOUS
10
153.838
20
-53.9639
11
153.83
21
-53.9592
0
LINE
8
BLACK
6
CONTINUOUS
10
153.83
20
-53.9592
11
153.822
21
-53.953
0
LINE
8
BLACK
6
CONTINUOUS
10
153.822
20
-53.953
11
153.816
21
-53.9455
0
LINE
8
BLACK
6
CONTINUOUS
10
153.816
20
-53.9455
11
153.811
21
-53.9368
0
LINE
8
BLACK
6
CONTINUOUS
10
153.811
20
-53.9368
11
153.808
21
-53.9275
0
LINE
8
BLACK
6
CONTINUOUS
10
153.808
20
-53.9275
11
153.808
21
-53.9178
0
LINE
8
BLACK
6
CONTINUOUS
10
153.808
20
-53.9178
11
153.808
21
-53.4178
0
LINE
8
BLACK
6
CONTINUOUS
10
153.808
20
-53.4178
11
153.808
21
-53.4175
0
LINE
8
BLACK
6
CONTINUOUS
10
153.808
20
-53.4175
11
153.808
21
-53.4174
0
LINE
8
BLACK
6
CONTINUOUS
10
153.808
20
-53.4174
11
153.808
21
-53.4174
0
LINE
8
BLACK
6
CONTINUOUS
10
153.808
20
-53.4174
11
153.808
21
-53.4171
0
LINE
8
BLACK
6
CONTINUOUS
10
153.808
20
-53.4171
11
153.808
21
-53.4125
0
LINE
8
BLACK
6
CONTINUOUS
10
153.808
20
-53.4125
11
153.809
21
-53.4077
0
LINE
8
BLACK
6
CONTINUOUS
10
153.809
20
-53.4077
11
153.809
21
-53.4076
0
LINE
8
BLACK
6
CONTINUOUS
10
153.809
20
-53.4076
11
153.809
21
-53.4074
0
LINE
8
BLACK
6
CONTINUOUS
10
153.809
20
-53.4074
11
153.81
21
-53.4029
0
LINE
8
BLACK
6
CONTINUOUS
10
153.81
20
-53.4029
11
153.811
21
-53.3984
0
LINE
8
BLACK
6
CONTINUOUS
10
153.811
20
-53.3984
11
153.812
21
-53.3983
0
LINE
8
BLACK
6
CONTINUOUS
10
153.812
20
-53.3983
11
153.812
21
-53.3981
0
LINE
8
BLACK
6
CONTINUOUS
10
153.812
20
-53.3981
11
153.814
21
-53.394
0
LINE
8
BLACK
6
CONTINUOUS
10
153.814
20
-53.394
11
153.816
21
-53.3898
0
LINE
8
BLACK
6
CONTINUOUS
10
153.816
20
-53.3898
11
153.816
21
-53.3897
0
LINE
8
BLACK
6
CONTINUOUS
10
153.816
20
-53.3897
11
153.816
21
-53.3895
0
LINE
8
BLACK
6
CONTINUOUS
10
153.816
20
-53.3895
11
153.819
21
-53.386
0
LINE
8
BLACK
6
CONTINUOUS
10
153.819
20
-53.386
11
153.822
21
-53.3823
0
LINE
8
BLACK
6
CONTINUOUS
10
153.822
20
-53.3823
11
153.822
21
-53.3822
0
LINE
8
BLACK
6
CONTINUOUS
10
153.822
20
-53.3822
11
153.823
21
-53.3821
0
LINE
8
BLACK
6
CONTINUOUS
10
153.823
20
-53.3821
11
153.826
21
-53.3792
0
LINE
8
BLACK
6
CONTINUOUS
10
153.826
20
-53.3792
11
153.83
21
-53.3761
0
LINE
8
BLACK
6
CONTINUOUS
10
153.83
20
-53.3761
11
153.83
21
-53.3761
0
LINE
8
BLACK
6
CONTINUOUS
10
153.83
20
-53.3761
11
153.83
21
-53.376
0
LINE
8
BLACK
6
CONTINUOUS
10
153.83
20
-53.376
11
153.834
21
-53.3738
0
LINE
8
BLACK
6
CONTINUOUS
10
153.834
20
-53.3738
11
153.838
21
-53.3716
0
LINE
8
BLACK
6
CONTINUOUS
10
153.838
20
-53.3716
11
153.839
21
-53.3715
0
LINE
8
BLACK
6
CONTINUOUS
10
153.839
20
-53.3715
11
153.839
21
-53.3714
0
LINE
8
BLACK
6
CONTINUOUS
10
153.839
20
-53.3714
11
153.843
21
-53.3701
0
LINE
8
BLACK
6
CONTINUOUS
10
153.843
20
-53.3701
11
153.848
21
-53.3687
0
LINE
8
BLACK
6
CONTINUOUS
10
153.848
20
-53.3687
11
153.848
21
-53.3687
0
LINE
8
BLACK
6
CONTINUOUS
10
153.848
20
-53.3687
11
153.848
21
-53.3687
0
LINE
8
BLACK
6
CONTINUOUS
10
153.848
20
-53.3687
11
153.853
21
-53.3683
0
LINE
8
BLACK
6
CONTINUOUS
10
153.853
20
-53.3683
11
153.858
21
-53.3678
0
LINE
8
BLACK
6
CONTINUOUS
10
153.858
20
-53.3678
11
154.048
21
-53.3678
0
LINE
8
BLACK
6
CONTINUOUS
10
154.048
20
-53.3678
11
154.049
21
-53.3678
0
LINE
8
BLACK
6
CONTINUOUS
10
153.908
20
-53.4678
11
153.908
21
-53.6297
0
LINE
8
BLACK
6
CONTINUOUS
10
153.908
20
-53.6297
11
154.036
21
-53.6297
0
LINE
8
BLACK
6
CONTINUOUS
10
154.036
20
-53.6297
11
154.066
21
-53.6148
0
LINE
8
BLACK
6
CONTINUOUS
10
154.066
20
-53.6148
11
154.078
21
-53.6025
0
LINE
8
BLACK
6
CONTINUOUS
10
154.078
20
-53.6025
11
154.093
21
-53.5727
0
LINE
8
BLACK
6
CONTINUOUS
10
154.093
20
-53.5727
11
154.093
21
-53.5248
0
LINE
8
BLACK
6
CONTINUOUS
10
154.093
20
-53.5248
11
154.078
21
-53.495
0
LINE
8
BLACK
6
CONTINUOUS
10
154.078
20
-53.495
11
154.066
21
-53.4827
0
LINE
8
BLACK
6
CONTINUOUS
10
154.066
20
-53.4827
11
154.036
21
-53.4678
0
LINE
8
BLACK
6
CONTINUOUS
10
154.036
20
-53.4678
11
153.908
21
-53.4678
0
LINE
8
BLACK
6
CONTINUOUS
10
98.1879
20
-63.2921
11
98.2513
21
-63.1391
0
LINE
8
BLACK
6
CONTINUOUS
10
98.2513
20
-63.1391
11
98.3433
21
-63.0013
0
LINE
8
BLACK
6
CONTINUOUS
10
98.3433
20
-63.0013
11
98.4604
21
-62.8842
0
LINE
8
BLACK
6
CONTINUOUS
10
98.4604
20
-62.8842
11
98.5982
21
-62.7922
0
LINE
8
BLACK
6
CONTINUOUS
10
98.5982
20
-62.7922
11
98.7512
21
-62.7288
0
LINE
8
BLACK
6
CONTINUOUS
10
98.7512
20
-62.7288
11
98.9137
21
-62.6965
0
LINE
8
BLACK
6
CONTINUOUS
10
98.9137
20
-62.6965
11
99.0793
21
-62.6965
0
LINE
8
BLACK
6
CONTINUOUS
10
99.0793
20
-62.6965
11
99.2418
21
-62.7288
0
LINE
8
BLACK
6
CONTINUOUS
10
99.2418
20
-62.7288
11
99.3948
21
-62.7922
0
LINE
8
BLACK
6
CONTINUOUS
10
99.3948
20
-62.7922
11
99.5326
21
-62.8842
0
LINE
8
BLACK
6
CONTINUOUS
10
99.5326
20
-62.8842
11
99.6497
21
-63.0013
0
LINE
8
BLACK
6
CONTINUOUS
10
99.6497
20
-63.0013
11
99.7417
21
-63.1391
0
LINE
8
BLACK
6
CONTINUOUS
10
99.7417
20
-63.1391
11
99.8051
21
-63.2921
0
LINE
8
BLACK
6
CONTINUOUS
10
99.8051
20
-63.2921
11
99.8374
21
-63.4546
0
LINE
8
BLACK
6
CONTINUOUS
10
99.8374
20
-63.4546
11
99.8374
21
-63.6202
0
LINE
8
BLACK
6
CONTINUOUS
10
99.8374
20
-63.6202
11
99.8051
21
-63.7827
0
LINE
8
BLACK
6
CONTINUOUS
10
99.8051
20
-63.7827
11
99.7417
21
-63.9357
0
LINE
8
BLACK
6
CONTINUOUS
10
99.7417
20
-63.9357
11
99.6497
21
-64.0735
0
LINE
8
BLACK
6
CONTINUOUS
10
99.6497
20
-64.0735
11
99.5326
21
-64.1906
0
LINE
8
BLACK
6
CONTINUOUS
10
99.5326
20
-64.1906
11
99.3948
21
-64.2826
0
LINE
8
BLACK
6
CONTINUOUS
10
99.3948
20
-64.2826
11
99.2418
21
-64.346
0
LINE
8
BLACK
6
CONTINUOUS
10
99.2418
20
-64.346
11
99.0793
21
-64.3783
0
LINE
8
BLACK
6
CONTINUOUS
10
99.0793
20
-64.3783
11
98.9137
21
-64.3783
0
LINE
8
BLACK
6
CONTINUOUS
10
98.9137
20
-64.3783
11
98.7512
21
-64.346
0
LINE
8
BLACK
6
CONTINUOUS
10
98.7512
20
-64.346
11
98.5982
21
-64.2826
0
LINE
8
BLACK
6
CONTINUOUS
10
98.5982
20
-64.2826
11
98.4604
21
-64.1906
0
LINE
8
BLACK
6
CONTINUOUS
10
98.4604
20
-64.1906
11
98.3433
21
-64.0735
0
LINE
8
BLACK
6
CONTINUOUS
10
98.3433
20
-64.0735
11
98.2513
21
-63.9357
0
LINE
8
BLACK
6
CONTINUOUS
10
98.2513
20
-63.9357
11
98.1879
21
-63.7827
0
LINE
8
BLACK
6
CONTINUOUS
10
98.1879
20
-63.7827
11
98.1556
21
-63.6202
0
LINE
8
BLACK
6
CONTINUOUS
10
98.1556
20
-63.6202
11
98.1556
21
-63.4546
0
LINE
8
BLACK
6
CONTINUOUS
10
98.1556
20
-63.4546
11
98.1879
21
-63.2921
0
LINE
8
BLACK
6
CONTINUOUS
10
98.3506
20
-63.7333
11
98.4012
21
-63.8556
0
LINE
8
BLACK
6
CONTINUOUS
10
98.4012
20
-63.8556
11
98.4747
21
-63.9656
0
LINE
8
BLACK
6
CONTINUOUS
10
98.4747
20
-63.9656
11
98.5683
21
-64.0592
0
LINE
8
BLACK
6
CONTINUOUS
10
98.5683
20
-64.0592
11
98.6783
21
-64.1327
0
LINE
8
BLACK
6
CONTINUOUS
10
98.6783
20
-64.1327
11
98.8006
21
-64.1833
0
LINE
8
BLACK
6
CONTINUOUS
10
98.8006
20
-64.1833
11
98.9303
21
-64.2091
0
LINE
8
BLACK
6
CONTINUOUS
10
98.9303
20
-64.2091
11
99.0627
21
-64.2091
0
LINE
8
BLACK
6
CONTINUOUS
10
99.0627
20
-64.2091
11
99.1924
21
-64.1833
0
LINE
8
BLACK
6
CONTINUOUS
10
99.1924
20
-64.1833
11
99.3147
21
-64.1327
0
LINE
8
BLACK
6
CONTINUOUS
10
99.3147
20
-64.1327
11
99.4247
21
-64.0592
0
LINE
8
BLACK
6
CONTINUOUS
10
99.4247
20
-64.0592
11
99.5183
21
-63.9656
0
LINE
8
BLACK
6
CONTINUOUS
10
99.5183
20
-63.9656
11
99.5918
21
-63.8556
0
LINE
8
BLACK
6
CONTINUOUS
10
99.5918
20
-63.8556
11
99.6424
21
-63.7333
0
LINE
8
BLACK
6
CONTINUOUS
10
99.6424
20
-63.7333
11
99.6683
21
-63.6036
0
LINE
8
BLACK
6
CONTINUOUS
10
99.6683
20
-63.6036
11
99.6683
21
-63.4712
0
LINE
8
BLACK
6
CONTINUOUS
10
99.6683
20
-63.4712
11
99.6424
21
-63.3415
0
LINE
8
BLACK
6
CONTINUOUS
10
99.6424
20
-63.3415
11
99.5918
21
-63.2192
0
LINE
8
BLACK
6
CONTINUOUS
10
99.5918
20
-63.2192
11
99.5183
21
-63.1092
0
LINE
8
BLACK
6
CONTINUOUS
10
99.5183
20
-63.1092
11
99.4247
21
-63.0156
0
LINE
8
BLACK
6
CONTINUOUS
10
99.4247
20
-63.0156
11
99.3147
21
-62.9421
0
LINE
8
BLACK
6
CONTINUOUS
10
99.3147
20
-62.9421
11
99.1924
21
-62.8915
0
LINE
8
BLACK
6
CONTINUOUS
10
99.1924
20
-62.8915
11
99.0627
21
-62.8656
0
LINE
8
BLACK
6
CONTINUOUS
10
99.0627
20
-62.8656
11
98.9303
21
-62.8656
0
LINE
8
BLACK
6
CONTINUOUS
10
98.9303
20
-62.8656
11
98.8006
21
-62.8915
0
LINE
8
BLACK
6
CONTINUOUS
10
98.8006
20
-62.8915
11
98.6783
21
-62.9421
0
LINE
8
BLACK
6
CONTINUOUS
10
98.6783
20
-62.9421
11
98.5683
21
-63.0156
0
LINE
8
BLACK
6
CONTINUOUS
10
98.5683
20
-63.0156
11
98.4747
21
-63.1092
0
LINE
8
BLACK
6
CONTINUOUS
10
98.4747
20
-63.1092
11
98.4012
21
-63.2192
0
LINE
8
BLACK
6
CONTINUOUS
10
98.4012
20
-63.2192
11
98.3506
21
-63.3415
0
LINE
8
BLACK
6
CONTINUOUS
10
98.3506
20
-63.3415
11
98.3247
21
-63.4712
0
LINE
8
BLACK
6
CONTINUOUS
10
98.3247
20
-63.4712
11
98.3247
21
-63.6036
0
LINE
8
BLACK
6
CONTINUOUS
10
98.3247
20
-63.6036
11
98.3506
21
-63.7333
  0
ENDSEC
  0
EOF
