  0
SECTION
  2
HEADER
  9
$ANGBASE
  50
0.0
  9
$ANGDIR
  70
1
  9
$MEASUREMENT
  70
1
  0
ENDSEC
  0
SECTION
  2
TABLES
  0
TABLE
  2
LTYPE
  70
4
  0
LTYPE
  5
40F
  2
CONTINUOUS
  70
0
  3
Solid line
  72
65
  73
0
  40
0.0
  0
LTYPE
  5
410
  2
DASHDOT
 70
0
  3
Dash Dot ____ _ ____ _
 72
65
 73
4
 40
2.0
 49
1.25
 49
-0.25
 49
0.25
 49
-0.25
  0
LTYPE
  5
411
  2
DASHED
 70
0
  3
Dashed __ __ __ __ __
 72
65
 73
2
 40
0.75
 49
0.5
 49
-0.25
  0
LTYPE
  5
43B
  2
DOTTED
 70
0
  3
Dotted .  .  .  .
 72
65
 73
2
 40
0.2
 49
0.0
 49
-0.2
  0
ENDTAB
  0
TABLE
  2
STYLE
  70
4
  0
STYLE
  2
KICAD
  70
0
  40
0
  41
1
  42
1
  50
0
  71
0
  3
isocp.shx
  0
STYLE
  2
KICADB
  70
0
  40
0
  41
1
  42
1
  50
0
  71
0
  3
isocp.shx
  0
STYLE
  2
KICADI
  70
0
  40
0
  41
1
  42
1
  50
15
  71
0
  3
isocp.shx
  0
STYLE
  2
KICADBI
  70
0
  40
0
  41
1
  42
1
  50
15
  71
0
  3
isocp.shx
  0
ENDTAB
  0
TABLE
  2
LAYER
  70
1
  0
LAYER
  2
BLACK
  70
0
  62
7
  6
CONTINUOUS
  0
ENDTAB
  0
ENDSEC
  0
SECTION
  2
ENTITIES
0
LINE
8
BLACK
6
CONTINUOUS
10
200.431
20
-161.315
11
200.431
21
-161.315
0
LINE
8
BLACK
6
CONTINUOUS
10
200.431
20
-161.315
11
200.422
21
-161.315
0
LINE
8
BLACK
6
CONTINUOUS
10
200.422
20
-161.315
11
199.804
21
-161.378
0
LINE
8
BLACK
6
CONTINUOUS
10
199.804
20
-161.378
11
199.211
21
-161.559
0
LINE
8
BLACK
6
CONTINUOUS
10
199.211
20
-161.559
11
198.665
21
-161.852
0
LINE
8
BLACK
6
CONTINUOUS
10
198.665
20
-161.852
11
198.185
21
-162.246
0
LINE
8
BLACK
6
CONTINUOUS
10
198.185
20
-162.246
11
150.74
21
-209.696
0
LINE
8
BLACK
6
CONTINUOUS
10
150.74
20
-209.696
11
150.739
21
-209.696
0
LINE
8
BLACK
6
CONTINUOUS
10
150.739
20
-209.696
11
150.739
21
-209.696
0
LINE
8
BLACK
6
CONTINUOUS
10
150.739
20
-209.696
11
150.26
21
-210.09
0
LINE
8
BLACK
6
CONTINUOUS
10
150.26
20
-210.09
11
150.26
21
-210.091
0
LINE
8
BLACK
6
CONTINUOUS
10
150.26
20
-210.091
11
150.258
21
-210.092
0
LINE
8
BLACK
6
CONTINUOUS
10
150.258
20
-210.092
11
150.256
21
-210.093
0
LINE
8
BLACK
6
CONTINUOUS
10
150.256
20
-210.093
11
149.709
21
-210.386
0
LINE
8
BLACK
6
CONTINUOUS
10
149.709
20
-210.386
11
149.708
21
-210.386
0
LINE
8
BLACK
6
CONTINUOUS
10
149.708
20
-210.386
11
149.706
21
-210.387
0
LINE
8
BLACK
6
CONTINUOUS
10
149.706
20
-210.387
11
149.704
21
-210.388
0
LINE
8
BLACK
6
CONTINUOUS
10
149.704
20
-210.388
11
149.111
21
-210.57
0
LINE
8
BLACK
6
CONTINUOUS
10
149.111
20
-210.57
11
149.11
21
-210.57
0
LINE
8
BLACK
6
CONTINUOUS
10
149.11
20
-210.57
11
149.108
21
-210.57
0
LINE
8
BLACK
6
CONTINUOUS
10
149.108
20
-210.57
11
149.106
21
-210.571
0
LINE
8
BLACK
6
CONTINUOUS
10
149.106
20
-210.571
11
148.488
21
-210.633
0
LINE
8
BLACK
6
CONTINUOUS
10
148.488
20
-210.633
11
148.488
21
-210.633
0
LINE
8
BLACK
6
CONTINUOUS
10
148.488
20
-210.633
11
148.488
21
-210.633
0
LINE
8
BLACK
6
CONTINUOUS
10
148.488
20
-210.633
11
148.486
21
-210.633
0
LINE
8
BLACK
6
CONTINUOUS
10
148.486
20
-210.633
11
148.484
21
-210.633
0
LINE
8
BLACK
6
CONTINUOUS
10
148.484
20
-210.633
11
147.866
21
-210.575
0
LINE
8
BLACK
6
CONTINUOUS
10
147.866
20
-210.575
11
147.865
21
-210.575
0
LINE
8
BLACK
6
CONTINUOUS
10
147.865
20
-210.575
11
147.863
21
-210.574
0
LINE
8
BLACK
6
CONTINUOUS
10
147.863
20
-210.574
11
147.861
21
-210.574
0
LINE
8
BLACK
6
CONTINUOUS
10
147.861
20
-210.574
11
147.266
21
-210.397
0
LINE
8
BLACK
6
CONTINUOUS
10
147.266
20
-210.397
11
147.266
21
-210.397
0
LINE
8
BLACK
6
CONTINUOUS
10
147.266
20
-210.397
11
147.264
21
-210.396
0
LINE
8
BLACK
6
CONTINUOUS
10
147.264
20
-210.396
11
147.262
21
-210.395
0
LINE
8
BLACK
6
CONTINUOUS
10
147.262
20
-210.395
11
146.712
21
-210.105
0
LINE
8
BLACK
6
CONTINUOUS
10
146.712
20
-210.105
11
146.712
21
-210.105
0
LINE
8
BLACK
6
CONTINUOUS
10
146.712
20
-210.105
11
146.71
21
-210.104
0
LINE
8
BLACK
6
CONTINUOUS
10
146.71
20
-210.104
11
146.708
21
-210.103
0
LINE
8
BLACK
6
CONTINUOUS
10
146.708
20
-210.103
11
146.226
21
-209.712
0
LINE
8
BLACK
6
CONTINUOUS
10
146.226
20
-209.712
11
146.226
21
-209.712
0
LINE
8
BLACK
6
CONTINUOUS
10
146.226
20
-209.712
11
146.225
21
-209.711
0
LINE
8
BLACK
6
CONTINUOUS
10
146.225
20
-209.711
11
146.224
21
-209.71
0
LINE
8
BLACK
6
CONTINUOUS
10
146.224
20
-209.71
11
146.209
21
-209.696
0
LINE
8
BLACK
6
CONTINUOUS
10
146.209
20
-209.696
11
146.209
21
-209.696
0
LINE
8
BLACK
6
CONTINUOUS
10
146.209
20
-209.696
11
106.23
21
-169.716
0
LINE
8
BLACK
6
CONTINUOUS
10
106.23
20
-169.716
11
106.229
21
-169.715
0
LINE
8
BLACK
6
CONTINUOUS
10
106.229
20
-169.715
11
106.229
21
-169.715
0
LINE
8
BLACK
6
CONTINUOUS
10
106.229
20
-169.715
11
105.835
21
-169.235
0
LINE
8
BLACK
6
CONTINUOUS
10
105.835
20
-169.235
11
105.835
21
-169.235
0
LINE
8
BLACK
6
CONTINUOUS
10
105.835
20
-169.235
11
105.833
21
-169.233
0
LINE
8
BLACK
6
CONTINUOUS
10
105.833
20
-169.233
11
105.832
21
-169.231
0
LINE
8
BLACK
6
CONTINUOUS
10
105.832
20
-169.231
11
105.539
21
-168.684
0
LINE
8
BLACK
6
CONTINUOUS
10
105.539
20
-168.684
11
105.539
21
-168.684
0
LINE
8
BLACK
6
CONTINUOUS
10
105.539
20
-168.684
11
105.538
21
-168.682
0
LINE
8
BLACK
6
CONTINUOUS
10
105.538
20
-168.682
11
105.537
21
-168.68
0
LINE
8
BLACK
6
CONTINUOUS
10
105.537
20
-168.68
11
105.356
21
-168.086
0
LINE
8
BLACK
6
CONTINUOUS
10
105.356
20
-168.086
11
105.355
21
-168.086
0
LINE
8
BLACK
6
CONTINUOUS
10
105.355
20
-168.086
11
105.355
21
-168.084
0
LINE
8
BLACK
6
CONTINUOUS
10
105.355
20
-168.084
11
105.355
21
-168.082
0
LINE
8
BLACK
6
CONTINUOUS
10
105.355
20
-168.082
11
105.292
21
-167.464
0
LINE
8
BLACK
6
CONTINUOUS
10
105.292
20
-167.464
11
105.292
21
-167.464
0
LINE
8
BLACK
6
CONTINUOUS
10
105.292
20
-167.464
11
105.292
21
-167.461
0
LINE
8
BLACK
6
CONTINUOUS
10
105.292
20
-167.461
11
105.292
21
-167.459
0
LINE
8
BLACK
6
CONTINUOUS
10
105.292
20
-167.459
11
105.35
21
-166.841
0
LINE
8
BLACK
6
CONTINUOUS
10
105.35
20
-166.841
11
105.35
21
-166.841
0
LINE
8
BLACK
6
CONTINUOUS
10
105.35
20
-166.841
11
105.351
21
-166.839
0
LINE
8
BLACK
6
CONTINUOUS
10
105.351
20
-166.839
11
105.351
21
-166.836
0
LINE
8
BLACK
6
CONTINUOUS
10
105.351
20
-166.836
11
105.529
21
-166.242
0
LINE
8
BLACK
6
CONTINUOUS
10
105.529
20
-166.242
11
105.529
21
-166.241
0
LINE
8
BLACK
6
CONTINUOUS
10
105.529
20
-166.241
11
105.53
21
-166.239
0
LINE
8
BLACK
6
CONTINUOUS
10
105.53
20
-166.239
11
105.53
21
-166.237
0
LINE
8
BLACK
6
CONTINUOUS
10
105.53
20
-166.237
11
105.82
21
-165.688
0
LINE
8
BLACK
6
CONTINUOUS
10
105.82
20
-165.688
11
105.82
21
-165.688
0
LINE
8
BLACK
6
CONTINUOUS
10
105.82
20
-165.688
11
105.82
21
-165.688
0
LINE
8
BLACK
6
CONTINUOUS
10
105.82
20
-165.688
11
105.82
21
-165.688
0
LINE
8
BLACK
6
CONTINUOUS
10
105.82
20
-165.688
11
105.821
21
-165.686
0
LINE
8
BLACK
6
CONTINUOUS
10
105.821
20
-165.686
11
105.823
21
-165.684
0
LINE
8
BLACK
6
CONTINUOUS
10
105.823
20
-165.684
11
106.213
21
-165.202
0
LINE
8
BLACK
6
CONTINUOUS
10
106.213
20
-165.202
11
106.213
21
-165.201
0
LINE
8
BLACK
6
CONTINUOUS
10
106.213
20
-165.201
11
106.214
21
-165.201
0
LINE
8
BLACK
6
CONTINUOUS
10
106.214
20
-165.201
11
106.215
21
-165.2
0
LINE
8
BLACK
6
CONTINUOUS
10
106.215
20
-165.2
11
106.23
21
-165.185
0
LINE
8
BLACK
6
CONTINUOUS
10
106.23
20
-165.185
11
106.23
21
-165.185
0
LINE
8
BLACK
6
CONTINUOUS
10
106.23
20
-165.185
11
106.23
21
-165.184
0
LINE
8
BLACK
6
CONTINUOUS
10
106.23
20
-165.184
11
106.231
21
-165.184
0
LINE
8
BLACK
6
CONTINUOUS
10
106.231
20
-165.184
11
139.381
21
-132.062
0
LINE
8
BLACK
6
CONTINUOUS
10
139.381
20
-132.062
11
139.388
21
-132.055
0
LINE
8
BLACK
6
CONTINUOUS
10
139.388
20
-132.055
11
139.78
21
-131.575
0
LINE
8
BLACK
6
CONTINUOUS
10
139.78
20
-131.575
11
140.071
21
-131.028
0
LINE
8
BLACK
6
CONTINUOUS
10
140.071
20
-131.028
11
140.249
21
-130.435
0
LINE
8
BLACK
6
CONTINUOUS
10
140.249
20
-130.435
11
140.31
21
-129.818
0
LINE
8
BLACK
6
CONTINUOUS
10
140.31
20
-129.818
11
140.308
21
-41.0214
0
LINE
8
BLACK
6
CONTINUOUS
10
140.308
20
-41.0214
11
140.309
21
-41.0202
0
LINE
8
BLACK
6
CONTINUOUS
10
140.309
20
-41.0202
11
140.309
21
-41.0202
0
LINE
8
BLACK
6
CONTINUOUS
10
140.309
20
-41.0202
11
140.369
21
-40.3982
0
LINE
8
BLACK
6
CONTINUOUS
10
140.369
20
-40.3982
11
140.37
21
-40.3979
0
LINE
8
BLACK
6
CONTINUOUS
10
140.37
20
-40.3979
11
140.37
21
-40.3956
0
LINE
8
BLACK
6
CONTINUOUS
10
140.37
20
-40.3956
11
140.37
21
-40.3934
0
LINE
8
BLACK
6
CONTINUOUS
10
140.37
20
-40.3934
11
140.551
21
-39.7952
0
LINE
8
BLACK
6
CONTINUOUS
10
140.551
20
-39.7952
11
140.551
21
-39.7949
0
LINE
8
BLACK
6
CONTINUOUS
10
140.551
20
-39.7949
11
140.552
21
-39.7928
0
LINE
8
BLACK
6
CONTINUOUS
10
140.552
20
-39.7928
11
140.553
21
-39.7907
0
LINE
8
BLACK
6
CONTINUOUS
10
140.553
20
-39.7907
11
140.846
21
-39.2389
0
LINE
8
BLACK
6
CONTINUOUS
10
140.846
20
-39.2389
11
140.846
21
-39.2389
0
LINE
8
BLACK
6
CONTINUOUS
10
140.846
20
-39.2389
11
140.846
21
-39.2389
0
LINE
8
BLACK
6
CONTINUOUS
10
140.846
20
-39.2389
11
140.846
21
-39.2386
0
LINE
8
BLACK
6
CONTINUOUS
10
140.846
20
-39.2386
11
140.848
21
-39.2367
0
LINE
8
BLACK
6
CONTINUOUS
10
140.848
20
-39.2367
11
140.849
21
-39.2348
0
LINE
8
BLACK
6
CONTINUOUS
10
140.849
20
-39.2348
11
141.244
21
-38.7506
0
LINE
8
BLACK
6
CONTINUOUS
10
141.244
20
-38.7506
11
141.244
21
-38.7506
0
LINE
8
BLACK
6
CONTINUOUS
10
141.244
20
-38.7506
11
141.244
21
-38.7506
0
LINE
8
BLACK
6
CONTINUOUS
10
141.244
20
-38.7506
11
141.244
21
-38.7503
0
LINE
8
BLACK
6
CONTINUOUS
10
141.244
20
-38.7503
11
141.246
21
-38.7487
0
LINE
8
BLACK
6
CONTINUOUS
10
141.246
20
-38.7487
11
141.247
21
-38.7471
0
LINE
8
BLACK
6
CONTINUOUS
10
141.247
20
-38.7471
11
141.729
21
-38.3488
0
LINE
8
BLACK
6
CONTINUOUS
10
141.729
20
-38.3488
11
141.729
21
-38.3485
0
LINE
8
BLACK
6
CONTINUOUS
10
141.729
20
-38.3485
11
141.731
21
-38.3473
0
LINE
8
BLACK
6
CONTINUOUS
10
141.731
20
-38.3473
11
141.733
21
-38.346
0
LINE
8
BLACK
6
CONTINUOUS
10
141.733
20
-38.346
11
142.283
21
-38.0488
0
LINE
8
BLACK
6
CONTINUOUS
10
142.283
20
-38.0488
11
142.283
21
-38.0488
0
LINE
8
BLACK
6
CONTINUOUS
10
142.283
20
-38.0488
11
142.283
21
-38.0488
0
LINE
8
BLACK
6
CONTINUOUS
10
142.283
20
-38.0488
11
142.283
21
-38.0486
0
LINE
8
BLACK
6
CONTINUOUS
10
142.283
20
-38.0486
11
142.285
21
-38.0478
0
LINE
8
BLACK
6
CONTINUOUS
10
142.285
20
-38.0478
11
142.287
21
-38.0469
0
LINE
8
BLACK
6
CONTINUOUS
10
142.287
20
-38.0469
11
142.884
21
-37.8621
0
LINE
8
BLACK
6
CONTINUOUS
10
142.884
20
-37.8621
11
142.884
21
-37.8621
0
LINE
8
BLACK
6
CONTINUOUS
10
142.884
20
-37.8621
11
142.884
21
-37.862
0
LINE
8
BLACK
6
CONTINUOUS
10
142.884
20
-37.862
11
142.887
21
-37.8616
0
LINE
8
BLACK
6
CONTINUOUS
10
142.887
20
-37.8616
11
142.889
21
-37.8611
0
LINE
8
BLACK
6
CONTINUOUS
10
142.889
20
-37.8611
11
143.51
21
-37.7958
0
LINE
8
BLACK
6
CONTINUOUS
10
143.51
20
-37.7958
11
143.511
21
-37.7958
0
LINE
8
BLACK
6
CONTINUOUS
10
143.511
20
-37.7958
11
143.512
21
-37.7958
0
LINE
8
BLACK
6
CONTINUOUS
10
143.512
20
-37.7958
11
143.513
21
-37.7957
0
LINE
8
BLACK
6
CONTINUOUS
10
143.513
20
-37.7957
11
143.534
21
-37.7956
0
LINE
8
BLACK
6
CONTINUOUS
10
143.534
20
-37.7956
11
143.534
21
-37.7956
0
LINE
8
BLACK
6
CONTINUOUS
10
143.534
20
-37.7956
11
285.091
21
-37.7956
0
LINE
8
BLACK
6
CONTINUOUS
10
285.091
20
-37.7956
11
285.092
21
-37.7957
0
LINE
8
BLACK
6
CONTINUOUS
10
285.092
20
-37.7957
11
285.092
21
-37.7957
0
LINE
8
BLACK
6
CONTINUOUS
10
285.092
20
-37.7957
11
285.714
21
-37.8567
0
LINE
8
BLACK
6
CONTINUOUS
10
285.714
20
-37.8567
11
285.714
21
-37.8567
0
LINE
8
BLACK
6
CONTINUOUS
10
285.714
20
-37.8567
11
285.717
21
-37.8572
0
LINE
8
BLACK
6
CONTINUOUS
10
285.717
20
-37.8572
11
285.719
21
-37.8576
0
LINE
8
BLACK
6
CONTINUOUS
10
285.719
20
-37.8576
11
286.317
21
-38.0383
0
LINE
8
BLACK
6
CONTINUOUS
10
286.317
20
-38.0383
11
286.317
21
-38.0384
0
LINE
8
BLACK
6
CONTINUOUS
10
286.317
20
-38.0384
11
286.319
21
-38.0393
0
LINE
8
BLACK
6
CONTINUOUS
10
286.319
20
-38.0393
11
286.322
21
-38.0401
0
LINE
8
BLACK
6
CONTINUOUS
10
286.322
20
-38.0401
11
286.873
21
-38.3335
0
LINE
8
BLACK
6
CONTINUOUS
10
286.873
20
-38.3335
11
286.873
21
-38.3335
0
LINE
8
BLACK
6
CONTINUOUS
10
286.873
20
-38.3335
11
286.873
21
-38.3335
0
LINE
8
BLACK
6
CONTINUOUS
10
286.873
20
-38.3335
11
286.874
21
-38.3337
0
LINE
8
BLACK
6
CONTINUOUS
10
286.874
20
-38.3337
11
286.875
21
-38.335
0
LINE
8
BLACK
6
CONTINUOUS
10
286.875
20
-38.335
11
286.877
21
-38.3362
0
LINE
8
BLACK
6
CONTINUOUS
10
286.877
20
-38.3362
11
287.362
21
-38.7312
0
LINE
8
BLACK
6
CONTINUOUS
10
287.362
20
-38.7312
11
287.362
21
-38.7312
0
LINE
8
BLACK
6
CONTINUOUS
10
287.362
20
-38.7312
11
287.362
21
-38.7312
0
LINE
8
BLACK
6
CONTINUOUS
10
287.362
20
-38.7312
11
287.362
21
-38.7314
0
LINE
8
BLACK
6
CONTINUOUS
10
287.362
20
-38.7314
11
287.363
21
-38.733
0
LINE
8
BLACK
6
CONTINUOUS
10
287.363
20
-38.733
11
287.365
21
-38.7346
0
LINE
8
BLACK
6
CONTINUOUS
10
287.365
20
-38.7346
11
287.763
21
-39.2161
0
LINE
8
BLACK
6
CONTINUOUS
10
287.763
20
-39.2161
11
287.764
21
-39.2164
0
LINE
8
BLACK
6
CONTINUOUS
10
287.764
20
-39.2164
11
287.765
21
-39.2183
0
LINE
8
BLACK
6
CONTINUOUS
10
287.765
20
-39.2183
11
287.766
21
-39.2202
0
LINE
8
BLACK
6
CONTINUOUS
10
287.766
20
-39.2202
11
288.063
21
-39.7699
0
LINE
8
BLACK
6
CONTINUOUS
10
288.063
20
-39.7699
11
288.063
21
-39.7699
0
LINE
8
BLACK
6
CONTINUOUS
10
288.063
20
-39.7699
11
288.063
21
-39.7699
0
LINE
8
BLACK
6
CONTINUOUS
10
288.063
20
-39.7699
11
288.064
21
-39.7702
0
LINE
8
BLACK
6
CONTINUOUS
10
288.064
20
-39.7702
11
288.064
21
-39.7723
0
LINE
8
BLACK
6
CONTINUOUS
10
288.064
20
-39.7723
11
288.065
21
-39.7744
0
LINE
8
BLACK
6
CONTINUOUS
10
288.065
20
-39.7744
11
288.25
21
-40.3714
0
LINE
8
BLACK
6
CONTINUOUS
10
288.25
20
-40.3714
11
288.25
21
-40.3717
0
LINE
8
BLACK
6
CONTINUOUS
10
288.25
20
-40.3717
11
288.251
21
-40.374
0
LINE
8
BLACK
6
CONTINUOUS
10
288.251
20
-40.374
11
288.251
21
-40.3761
0
LINE
8
BLACK
6
CONTINUOUS
10
288.251
20
-40.3761
11
288.316
21
-40.9976
0
LINE
8
BLACK
6
CONTINUOUS
10
288.316
20
-40.9976
11
288.316
21
-40.998
0
LINE
8
BLACK
6
CONTINUOUS
10
288.316
20
-40.998
11
288.316
21
-40.9991
0
LINE
8
BLACK
6
CONTINUOUS
10
288.316
20
-40.9991
11
288.317
21
-41.0002
0
LINE
8
BLACK
6
CONTINUOUS
10
288.317
20
-41.0002
11
288.317
21
-41.0214
0
LINE
8
BLACK
6
CONTINUOUS
10
288.317
20
-41.0214
11
288.317
21
-41.0214
0
LINE
8
BLACK
6
CONTINUOUS
10
288.317
20
-41.0214
11
288.315
21
-158.116
0
LINE
8
BLACK
6
CONTINUOUS
10
288.315
20
-158.116
11
288.315
21
-158.117
0
LINE
8
BLACK
6
CONTINUOUS
10
288.315
20
-158.117
11
288.315
21
-158.117
0
LINE
8
BLACK
6
CONTINUOUS
10
288.315
20
-158.117
11
288.254
21
-158.739
0
LINE
8
BLACK
6
CONTINUOUS
10
288.254
20
-158.739
11
288.254
21
-158.74
0
LINE
8
BLACK
6
CONTINUOUS
10
288.254
20
-158.74
11
288.253
21
-158.742
0
LINE
8
BLACK
6
CONTINUOUS
10
288.253
20
-158.742
11
288.253
21
-158.744
0
LINE
8
BLACK
6
CONTINUOUS
10
288.253
20
-158.744
11
288.072
21
-159.342
0
LINE
8
BLACK
6
CONTINUOUS
10
288.072
20
-159.342
11
288.072
21
-159.343
0
LINE
8
BLACK
6
CONTINUOUS
10
288.072
20
-159.343
11
288.071
21
-159.345
0
LINE
8
BLACK
6
CONTINUOUS
10
288.071
20
-159.345
11
288.07
21
-159.347
0
LINE
8
BLACK
6
CONTINUOUS
10
288.07
20
-159.347
11
287.777
21
-159.899
0
LINE
8
BLACK
6
CONTINUOUS
10
287.777
20
-159.899
11
287.777
21
-159.899
0
LINE
8
BLACK
6
CONTINUOUS
10
287.777
20
-159.899
11
287.776
21
-159.901
0
LINE
8
BLACK
6
CONTINUOUS
10
287.776
20
-159.901
11
287.774
21
-159.903
0
LINE
8
BLACK
6
CONTINUOUS
10
287.774
20
-159.903
11
287.379
21
-160.387
0
LINE
8
BLACK
6
CONTINUOUS
10
287.379
20
-160.387
11
287.379
21
-160.387
0
LINE
8
BLACK
6
CONTINUOUS
10
287.379
20
-160.387
11
287.378
21
-160.389
0
LINE
8
BLACK
6
CONTINUOUS
10
287.378
20
-160.389
11
287.376
21
-160.391
0
LINE
8
BLACK
6
CONTINUOUS
10
287.376
20
-160.391
11
286.894
21
-160.789
0
LINE
8
BLACK
6
CONTINUOUS
10
286.894
20
-160.789
11
286.894
21
-160.789
0
LINE
8
BLACK
6
CONTINUOUS
10
286.894
20
-160.789
11
286.892
21
-160.79
0
LINE
8
BLACK
6
CONTINUOUS
10
286.892
20
-160.79
11
286.89
21
-160.792
0
LINE
8
BLACK
6
CONTINUOUS
10
286.89
20
-160.792
11
286.341
21
-161.089
0
LINE
8
BLACK
6
CONTINUOUS
10
286.341
20
-161.089
11
286.34
21
-161.089
0
LINE
8
BLACK
6
CONTINUOUS
10
286.34
20
-161.089
11
286.338
21
-161.09
0
LINE
8
BLACK
6
CONTINUOUS
10
286.338
20
-161.09
11
286.336
21
-161.091
0
LINE
8
BLACK
6
CONTINUOUS
10
286.336
20
-161.091
11
285.739
21
-161.275
0
LINE
8
BLACK
6
CONTINUOUS
10
285.739
20
-161.275
11
285.739
21
-161.276
0
LINE
8
BLACK
6
CONTINUOUS
10
285.739
20
-161.276
11
285.737
21
-161.276
0
LINE
8
BLACK
6
CONTINUOUS
10
285.737
20
-161.276
11
285.734
21
-161.276
0
LINE
8
BLACK
6
CONTINUOUS
10
285.734
20
-161.276
11
285.113
21
-161.342
0
LINE
8
BLACK
6
CONTINUOUS
10
285.113
20
-161.342
11
285.113
21
-161.342
0
LINE
8
BLACK
6
CONTINUOUS
10
285.113
20
-161.342
11
285.112
21
-161.342
0
LINE
8
BLACK
6
CONTINUOUS
10
285.112
20
-161.342
11
285.11
21
-161.342
0
LINE
8
BLACK
6
CONTINUOUS
10
285.11
20
-161.342
11
285.089
21
-161.342
0
LINE
8
BLACK
6
CONTINUOUS
10
285.089
20
-161.342
11
285.089
21
-161.342
0
LINE
8
BLACK
6
CONTINUOUS
10
285.089
20
-161.342
11
285.088
21
-161.342
0
LINE
8
BLACK
6
CONTINUOUS
10
285.088
20
-161.342
11
200.431
21
-161.315
0
LINE
8
BLACK
6
CONTINUOUS
10
285.088
20
-161.292
11
285.109
21
-161.292
0
LINE
8
BLACK
6
CONTINUOUS
10
285.109
20
-161.292
11
285.727
21
-161.227
0
LINE
8
BLACK
6
CONTINUOUS
10
285.727
20
-161.227
11
286.319
21
-161.044
0
LINE
8
BLACK
6
CONTINUOUS
10
286.319
20
-161.044
11
286.864
21
-160.749
0
LINE
8
BLACK
6
CONTINUOUS
10
286.864
20
-160.749
11
287.342
21
-160.354
0
LINE
8
BLACK
6
CONTINUOUS
10
287.342
20
-160.354
11
287.734
21
-159.873
0
LINE
8
BLACK
6
CONTINUOUS
10
287.734
20
-159.873
11
288.025
21
-159.326
0
LINE
8
BLACK
6
CONTINUOUS
10
288.025
20
-159.326
11
288.204
21
-158.732
0
LINE
8
BLACK
6
CONTINUOUS
10
288.204
20
-158.732
11
288.265
21
-158.114
0
LINE
8
BLACK
6
CONTINUOUS
10
288.265
20
-158.114
11
288.267
21
-41.0227
0
LINE
8
BLACK
6
CONTINUOUS
10
288.267
20
-41.0227
11
288.267
21
-41.0227
0
LINE
8
BLACK
6
CONTINUOUS
10
288.267
20
-41.0227
11
288.267
21
-41.0016
0
LINE
8
BLACK
6
CONTINUOUS
10
288.267
20
-41.0016
11
288.202
21
-40.3838
0
LINE
8
BLACK
6
CONTINUOUS
10
288.202
20
-40.3838
11
288.018
21
-39.7915
0
LINE
8
BLACK
6
CONTINUOUS
10
288.018
20
-39.7915
11
287.723
21
-39.2461
0
LINE
8
BLACK
6
CONTINUOUS
10
287.723
20
-39.2461
11
287.328
21
-38.7684
0
LINE
8
BLACK
6
CONTINUOUS
10
287.328
20
-38.7684
11
286.848
21
-38.3765
0
LINE
8
BLACK
6
CONTINUOUS
10
286.848
20
-38.3765
11
286.3
21
-38.0854
0
LINE
8
BLACK
6
CONTINUOUS
10
286.3
20
-38.0854
11
285.707
21
-37.9062
0
LINE
8
BLACK
6
CONTINUOUS
10
285.707
20
-37.9062
11
285.088
21
-37.8456
0
LINE
8
BLACK
6
CONTINUOUS
10
285.088
20
-37.8456
11
143.535
21
-37.8456
0
LINE
8
BLACK
6
CONTINUOUS
10
143.535
20
-37.8456
11
143.514
21
-37.8457
0
LINE
8
BLACK
6
CONTINUOUS
10
143.514
20
-37.8457
11
142.897
21
-37.9106
0
LINE
8
BLACK
6
CONTINUOUS
10
142.897
20
-37.9106
11
142.304
21
-38.094
0
LINE
8
BLACK
6
CONTINUOUS
10
142.304
20
-38.094
11
141.759
21
-38.3888
0
LINE
8
BLACK
6
CONTINUOUS
10
141.759
20
-38.3888
11
141.281
21
-38.7841
0
LINE
8
BLACK
6
CONTINUOUS
10
141.281
20
-38.7841
11
140.889
21
-39.2645
0
LINE
8
BLACK
6
CONTINUOUS
10
140.889
20
-39.2645
11
140.598
21
-39.812
0
LINE
8
BLACK
6
CONTINUOUS
10
140.598
20
-39.812
11
140.419
21
-40.4055
0
LINE
8
BLACK
6
CONTINUOUS
10
140.419
20
-40.4055
11
140.358
21
-41.0238
0
LINE
8
BLACK
6
CONTINUOUS
10
140.358
20
-41.0238
11
140.36
21
-129.821
0
LINE
8
BLACK
6
CONTINUOUS
10
140.36
20
-129.821
11
140.36
21
-129.822
0
LINE
8
BLACK
6
CONTINUOUS
10
140.36
20
-129.822
11
140.36
21
-129.822
0
LINE
8
BLACK
6
CONTINUOUS
10
140.36
20
-129.822
11
140.299
21
-130.443
0
LINE
8
BLACK
6
CONTINUOUS
10
140.299
20
-130.443
11
140.299
21
-130.443
0
LINE
8
BLACK
6
CONTINUOUS
10
140.299
20
-130.443
11
140.298
21
-130.445
0
LINE
8
BLACK
6
CONTINUOUS
10
140.298
20
-130.445
11
140.298
21
-130.448
0
LINE
8
BLACK
6
CONTINUOUS
10
140.298
20
-130.448
11
140.118
21
-131.045
0
LINE
8
BLACK
6
CONTINUOUS
10
140.118
20
-131.045
11
140.118
21
-131.045
0
LINE
8
BLACK
6
CONTINUOUS
10
140.118
20
-131.045
11
140.117
21
-131.047
0
LINE
8
BLACK
6
CONTINUOUS
10
140.117
20
-131.047
11
140.116
21
-131.049
0
LINE
8
BLACK
6
CONTINUOUS
10
140.116
20
-131.049
11
139.823
21
-131.6
0
LINE
8
BLACK
6
CONTINUOUS
10
139.823
20
-131.6
11
139.823
21
-131.601
0
LINE
8
BLACK
6
CONTINUOUS
10
139.823
20
-131.601
11
139.821
21
-131.602
0
LINE
8
BLACK
6
CONTINUOUS
10
139.821
20
-131.602
11
139.82
21
-131.604
0
LINE
8
BLACK
6
CONTINUOUS
10
139.82
20
-131.604
11
139.426
21
-132.088
0
LINE
8
BLACK
6
CONTINUOUS
10
139.426
20
-132.088
11
139.426
21
-132.088
0
LINE
8
BLACK
6
CONTINUOUS
10
139.426
20
-132.088
11
139.425
21
-132.089
0
LINE
8
BLACK
6
CONTINUOUS
10
139.425
20
-132.089
11
139.424
21
-132.09
0
LINE
8
BLACK
6
CONTINUOUS
10
139.424
20
-132.09
11
139.417
21
-132.097
0
LINE
8
BLACK
6
CONTINUOUS
10
139.417
20
-132.097
11
139.417
21
-132.097
0
LINE
8
BLACK
6
CONTINUOUS
10
139.417
20
-132.097
11
106.266
21
-165.219
0
LINE
8
BLACK
6
CONTINUOUS
10
106.266
20
-165.219
11
106.266
21
-165.219
0
LINE
8
BLACK
6
CONTINUOUS
10
106.266
20
-165.219
11
106.251
21
-165.234
0
LINE
8
BLACK
6
CONTINUOUS
10
106.251
20
-165.234
11
105.863
21
-165.714
0
LINE
8
BLACK
6
CONTINUOUS
10
105.863
20
-165.714
11
105.576
21
-166.258
0
LINE
8
BLACK
6
CONTINUOUS
10
105.576
20
-166.258
11
105.4
21
-166.848
0
LINE
8
BLACK
6
CONTINUOUS
10
105.4
20
-166.848
11
105.342
21
-167.461
0
LINE
8
BLACK
6
CONTINUOUS
10
105.342
20
-167.461
11
105.404
21
-168.074
0
LINE
8
BLACK
6
CONTINUOUS
10
105.404
20
-168.074
11
105.584
21
-168.663
0
LINE
8
BLACK
6
CONTINUOUS
10
105.584
20
-168.663
11
105.875
21
-169.206
0
LINE
8
BLACK
6
CONTINUOUS
10
105.875
20
-169.206
11
106.267
21
-169.682
0
LINE
8
BLACK
6
CONTINUOUS
10
106.267
20
-169.682
11
146.244
21
-209.659
0
LINE
8
BLACK
6
CONTINUOUS
10
146.244
20
-209.659
11
146.244
21
-209.659
0
LINE
8
BLACK
6
CONTINUOUS
10
146.244
20
-209.659
11
146.258
21
-209.674
0
LINE
8
BLACK
6
CONTINUOUS
10
146.258
20
-209.674
11
146.738
21
-210.062
0
LINE
8
BLACK
6
CONTINUOUS
10
146.738
20
-210.062
11
147.283
21
-210.349
0
LINE
8
BLACK
6
CONTINUOUS
10
147.283
20
-210.349
11
147.873
21
-210.525
0
LINE
8
BLACK
6
CONTINUOUS
10
147.873
20
-210.525
11
148.486
21
-210.583
0
LINE
8
BLACK
6
CONTINUOUS
10
148.486
20
-210.583
11
149.098
21
-210.521
0
LINE
8
BLACK
6
CONTINUOUS
10
149.098
20
-210.521
11
149.687
21
-210.341
0
LINE
8
BLACK
6
CONTINUOUS
10
149.687
20
-210.341
11
150.23
21
-210.05
0
LINE
8
BLACK
6
CONTINUOUS
10
150.23
20
-210.05
11
150.707
21
-209.658
0
LINE
8
BLACK
6
CONTINUOUS
10
150.707
20
-209.658
11
198.151
21
-162.209
0
LINE
8
BLACK
6
CONTINUOUS
10
198.151
20
-162.209
11
198.152
21
-162.208
0
LINE
8
BLACK
6
CONTINUOUS
10
198.152
20
-162.208
11
198.152
21
-162.208
0
LINE
8
BLACK
6
CONTINUOUS
10
198.152
20
-162.208
11
198.635
21
-161.812
0
LINE
8
BLACK
6
CONTINUOUS
10
198.635
20
-161.812
11
198.635
21
-161.811
0
LINE
8
BLACK
6
CONTINUOUS
10
198.635
20
-161.811
11
198.637
21
-161.81
0
LINE
8
BLACK
6
CONTINUOUS
10
198.637
20
-161.81
11
198.639
21
-161.809
0
LINE
8
BLACK
6
CONTINUOUS
10
198.639
20
-161.809
11
199.19
21
-161.514
0
LINE
8
BLACK
6
CONTINUOUS
10
199.19
20
-161.514
11
199.19
21
-161.514
0
LINE
8
BLACK
6
CONTINUOUS
10
199.19
20
-161.514
11
199.19
21
-161.514
0
LINE
8
BLACK
6
CONTINUOUS
10
199.19
20
-161.514
11
199.19
21
-161.514
0
LINE
8
BLACK
6
CONTINUOUS
10
199.19
20
-161.514
11
199.192
21
-161.513
0
LINE
8
BLACK
6
CONTINUOUS
10
199.192
20
-161.513
11
199.194
21
-161.512
0
LINE
8
BLACK
6
CONTINUOUS
10
199.194
20
-161.512
11
199.791
21
-161.329
0
LINE
8
BLACK
6
CONTINUOUS
10
199.791
20
-161.329
11
199.792
21
-161.329
0
LINE
8
BLACK
6
CONTINUOUS
10
199.792
20
-161.329
11
199.794
21
-161.329
0
LINE
8
BLACK
6
CONTINUOUS
10
199.794
20
-161.329
11
199.796
21
-161.328
0
LINE
8
BLACK
6
CONTINUOUS
10
199.796
20
-161.328
11
200.418
21
-161.265
0
LINE
8
BLACK
6
CONTINUOUS
10
200.418
20
-161.265
11
200.418
21
-161.265
0
LINE
8
BLACK
6
CONTINUOUS
10
200.418
20
-161.265
11
200.419
21
-161.265
0
LINE
8
BLACK
6
CONTINUOUS
10
200.419
20
-161.265
11
200.42
21
-161.265
0
LINE
8
BLACK
6
CONTINUOUS
10
200.42
20
-161.265
11
200.43
21
-161.265
0
LINE
8
BLACK
6
CONTINUOUS
10
200.43
20
-161.265
11
200.43
21
-161.265
0
LINE
8
BLACK
6
CONTINUOUS
10
200.43
20
-161.265
11
200.432
21
-161.265
0
LINE
8
BLACK
6
CONTINUOUS
10
200.432
20
-161.265
11
285.088
21
-161.292
0
LINE
8
BLACK
6
CONTINUOUS
10
145.001
20
-188.611
11
145.006
21
-188.612
0
LINE
8
BLACK
6
CONTINUOUS
10
145.006
20
-188.612
11
145.01
21
-188.614
0
LINE
8
BLACK
6
CONTINUOUS
10
145.01
20
-188.614
11
145.014
21
-188.617
0
LINE
8
BLACK
6
CONTINUOUS
10
145.014
20
-188.617
11
145.015
21
-188.618
0
LINE
8
BLACK
6
CONTINUOUS
10
145.015
20
-188.618
11
147.135
21
-190.738
0
LINE
8
BLACK
6
CONTINUOUS
10
147.135
20
-190.738
11
147.136
21
-190.739
0
LINE
8
BLACK
6
CONTINUOUS
10
147.136
20
-190.739
11
147.136
21
-190.74
0
LINE
8
BLACK
6
CONTINUOUS
10
147.136
20
-190.74
11
147.136
21
-190.74
0
LINE
8
BLACK
6
CONTINUOUS
10
147.136
20
-190.74
11
147.139
21
-190.743
0
LINE
8
BLACK
6
CONTINUOUS
10
147.139
20
-190.743
11
147.141
21
-190.747
0
LINE
8
BLACK
6
CONTINUOUS
10
147.141
20
-190.747
11
147.141
21
-190.747
0
LINE
8
BLACK
6
CONTINUOUS
10
147.141
20
-190.747
11
147.142
21
-190.752
0
LINE
8
BLACK
6
CONTINUOUS
10
147.142
20
-190.752
11
147.143
21
-190.756
0
LINE
8
BLACK
6
CONTINUOUS
10
147.143
20
-190.756
11
147.142
21
-190.761
0
LINE
8
BLACK
6
CONTINUOUS
10
147.142
20
-190.761
11
147.141
21
-190.766
0
LINE
8
BLACK
6
CONTINUOUS
10
147.141
20
-190.766
11
147.139
21
-190.77
0
LINE
8
BLACK
6
CONTINUOUS
10
147.139
20
-190.77
11
147.136
21
-190.773
0
LINE
8
BLACK
6
CONTINUOUS
10
147.136
20
-190.773
11
147.136
21
-190.773
0
LINE
8
BLACK
6
CONTINUOUS
10
147.136
20
-190.773
11
147.136
21
-190.774
0
LINE
8
BLACK
6
CONTINUOUS
10
147.136
20
-190.774
11
147.135
21
-190.775
0
LINE
8
BLACK
6
CONTINUOUS
10
147.135
20
-190.775
11
144.732
21
-193.177
0
LINE
8
BLACK
6
CONTINUOUS
10
144.732
20
-193.177
11
144.731
21
-193.178
0
LINE
8
BLACK
6
CONTINUOUS
10
144.731
20
-193.178
11
144.728
21
-193.182
0
LINE
8
BLACK
6
CONTINUOUS
10
144.728
20
-193.182
11
144.723
21
-193.184
0
LINE
8
BLACK
6
CONTINUOUS
10
144.723
20
-193.184
11
144.719
21
-193.185
0
LINE
8
BLACK
6
CONTINUOUS
10
144.719
20
-193.185
11
144.714
21
-193.186
0
LINE
8
BLACK
6
CONTINUOUS
10
144.714
20
-193.186
11
144.709
21
-193.185
0
LINE
8
BLACK
6
CONTINUOUS
10
144.709
20
-193.185
11
144.704
21
-193.184
0
LINE
8
BLACK
6
CONTINUOUS
10
144.704
20
-193.184
11
144.7
21
-193.182
0
LINE
8
BLACK
6
CONTINUOUS
10
144.7
20
-193.182
11
144.697
21
-193.179
0
LINE
8
BLACK
6
CONTINUOUS
10
144.697
20
-193.179
11
144.697
21
-193.179
0
LINE
8
BLACK
6
CONTINUOUS
10
144.697
20
-193.179
11
144.696
21
-193.178
0
LINE
8
BLACK
6
CONTINUOUS
10
144.696
20
-193.178
11
144.695
21
-193.177
0
LINE
8
BLACK
6
CONTINUOUS
10
144.695
20
-193.177
11
142.576
21
-191.058
0
LINE
8
BLACK
6
CONTINUOUS
10
142.576
20
-191.058
11
142.575
21
-191.057
0
LINE
8
BLACK
6
CONTINUOUS
10
142.575
20
-191.057
11
142.571
21
-191.053
0
LINE
8
BLACK
6
CONTINUOUS
10
142.571
20
-191.053
11
142.569
21
-191.049
0
LINE
8
BLACK
6
CONTINUOUS
10
142.569
20
-191.049
11
142.568
21
-191.044
0
LINE
8
BLACK
6
CONTINUOUS
10
142.568
20
-191.044
11
142.567
21
-191.039
0
LINE
8
BLACK
6
CONTINUOUS
10
142.567
20
-191.039
11
142.568
21
-191.034
0
LINE
8
BLACK
6
CONTINUOUS
10
142.568
20
-191.034
11
142.569
21
-191.03
0
LINE
8
BLACK
6
CONTINUOUS
10
142.569
20
-191.03
11
142.571
21
-191.025
0
LINE
8
BLACK
6
CONTINUOUS
10
142.571
20
-191.025
11
142.574
21
-191.023
0
LINE
8
BLACK
6
CONTINUOUS
10
142.574
20
-191.023
11
142.575
21
-191.022
0
LINE
8
BLACK
6
CONTINUOUS
10
142.575
20
-191.022
11
142.576
21
-191.021
0
LINE
8
BLACK
6
CONTINUOUS
10
142.576
20
-191.021
11
144.978
21
-188.618
0
LINE
8
BLACK
6
CONTINUOUS
10
144.978
20
-188.618
11
144.979
21
-188.617
0
LINE
8
BLACK
6
CONTINUOUS
10
144.979
20
-188.617
11
144.98
21
-188.617
0
LINE
8
BLACK
6
CONTINUOUS
10
144.98
20
-188.617
11
144.98
21
-188.617
0
LINE
8
BLACK
6
CONTINUOUS
10
144.98
20
-188.617
11
144.983
21
-188.614
0
LINE
8
BLACK
6
CONTINUOUS
10
144.983
20
-188.614
11
144.987
21
-188.612
0
LINE
8
BLACK
6
CONTINUOUS
10
144.987
20
-188.612
11
144.992
21
-188.611
0
LINE
8
BLACK
6
CONTINUOUS
10
144.992
20
-188.611
11
144.997
21
-188.61
0
LINE
8
BLACK
6
CONTINUOUS
10
144.997
20
-188.61
11
145.001
21
-188.611
0
LINE
8
BLACK
6
CONTINUOUS
10
142.628
20
-191.039
11
144.714
21
-193.125
0
LINE
8
BLACK
6
CONTINUOUS
10
144.714
20
-193.125
11
147.082
21
-190.756
0
LINE
8
BLACK
6
CONTINUOUS
10
147.082
20
-190.756
11
144.997
21
-188.671
0
LINE
8
BLACK
6
CONTINUOUS
10
144.997
20
-188.671
11
142.628
21
-191.039
0
LINE
8
BLACK
6
CONTINUOUS
10
131.509
20
-175.117
11
131.514
21
-175.118
0
LINE
8
BLACK
6
CONTINUOUS
10
131.514
20
-175.118
11
131.518
21
-175.12
0
LINE
8
BLACK
6
CONTINUOUS
10
131.518
20
-175.12
11
131.522
21
-175.124
0
LINE
8
BLACK
6
CONTINUOUS
10
131.522
20
-175.124
11
131.523
21
-175.125
0
LINE
8
BLACK
6
CONTINUOUS
10
131.523
20
-175.125
11
133.643
21
-177.244
0
LINE
8
BLACK
6
CONTINUOUS
10
133.643
20
-177.244
11
133.644
21
-177.245
0
LINE
8
BLACK
6
CONTINUOUS
10
133.644
20
-177.245
11
133.644
21
-177.246
0
LINE
8
BLACK
6
CONTINUOUS
10
133.644
20
-177.246
11
133.644
21
-177.246
0
LINE
8
BLACK
6
CONTINUOUS
10
133.644
20
-177.246
11
133.647
21
-177.249
0
LINE
8
BLACK
6
CONTINUOUS
10
133.647
20
-177.249
11
133.649
21
-177.253
0
LINE
8
BLACK
6
CONTINUOUS
10
133.649
20
-177.253
11
133.65
21
-177.258
0
LINE
8
BLACK
6
CONTINUOUS
10
133.65
20
-177.258
11
133.651
21
-177.263
0
LINE
8
BLACK
6
CONTINUOUS
10
133.651
20
-177.263
11
133.65
21
-177.268
0
LINE
8
BLACK
6
CONTINUOUS
10
133.65
20
-177.268
11
133.649
21
-177.271
0
LINE
8
BLACK
6
CONTINUOUS
10
133.649
20
-177.271
11
133.649
21
-177.272
0
LINE
8
BLACK
6
CONTINUOUS
10
133.649
20
-177.272
11
133.647
21
-177.277
0
LINE
8
BLACK
6
CONTINUOUS
10
133.647
20
-177.277
11
133.644
21
-177.28
0
LINE
8
BLACK
6
CONTINUOUS
10
133.644
20
-177.28
11
133.644
21
-177.28
0
LINE
8
BLACK
6
CONTINUOUS
10
133.644
20
-177.28
11
133.644
21
-177.28
0
LINE
8
BLACK
6
CONTINUOUS
10
133.644
20
-177.28
11
133.643
21
-177.281
0
LINE
8
BLACK
6
CONTINUOUS
10
133.643
20
-177.281
11
131.24
21
-179.684
0
LINE
8
BLACK
6
CONTINUOUS
10
131.24
20
-179.684
11
131.239
21
-179.685
0
LINE
8
BLACK
6
CONTINUOUS
10
131.239
20
-179.685
11
131.236
21
-179.688
0
LINE
8
BLACK
6
CONTINUOUS
10
131.236
20
-179.688
11
131.231
21
-179.69
0
LINE
8
BLACK
6
CONTINUOUS
10
131.231
20
-179.69
11
131.226
21
-179.691
0
LINE
8
BLACK
6
CONTINUOUS
10
131.226
20
-179.691
11
131.222
21
-179.692
0
LINE
8
BLACK
6
CONTINUOUS
10
131.222
20
-179.692
11
131.217
21
-179.691
0
LINE
8
BLACK
6
CONTINUOUS
10
131.217
20
-179.691
11
131.212
21
-179.69
0
LINE
8
BLACK
6
CONTINUOUS
10
131.212
20
-179.69
11
131.208
21
-179.688
0
LINE
8
BLACK
6
CONTINUOUS
10
131.208
20
-179.688
11
131.205
21
-179.685
0
LINE
8
BLACK
6
CONTINUOUS
10
131.205
20
-179.685
11
131.205
21
-179.685
0
LINE
8
BLACK
6
CONTINUOUS
10
131.205
20
-179.685
11
131.204
21
-179.685
0
LINE
8
BLACK
6
CONTINUOUS
10
131.204
20
-179.685
11
131.203
21
-179.684
0
LINE
8
BLACK
6
CONTINUOUS
10
131.203
20
-179.684
11
129.083
21
-177.564
0
LINE
8
BLACK
6
CONTINUOUS
10
129.083
20
-177.564
11
129.083
21
-177.563
0
LINE
8
BLACK
6
CONTINUOUS
10
129.083
20
-177.563
11
129.079
21
-177.559
0
LINE
8
BLACK
6
CONTINUOUS
10
129.079
20
-177.559
11
129.077
21
-177.555
0
LINE
8
BLACK
6
CONTINUOUS
10
129.077
20
-177.555
11
129.076
21
-177.55
0
LINE
8
BLACK
6
CONTINUOUS
10
129.076
20
-177.55
11
129.075
21
-177.546
0
LINE
8
BLACK
6
CONTINUOUS
10
129.075
20
-177.546
11
129.076
21
-177.541
0
LINE
8
BLACK
6
CONTINUOUS
10
129.076
20
-177.541
11
129.077
21
-177.536
0
LINE
8
BLACK
6
CONTINUOUS
10
129.077
20
-177.536
11
129.079
21
-177.532
0
LINE
8
BLACK
6
CONTINUOUS
10
129.079
20
-177.532
11
129.082
21
-177.529
0
LINE
8
BLACK
6
CONTINUOUS
10
129.082
20
-177.529
11
129.083
21
-177.528
0
LINE
8
BLACK
6
CONTINUOUS
10
129.083
20
-177.528
11
129.083
21
-177.527
0
LINE
8
BLACK
6
CONTINUOUS
10
129.083
20
-177.527
11
131.486
21
-175.125
0
LINE
8
BLACK
6
CONTINUOUS
10
131.486
20
-175.125
11
131.487
21
-175.124
0
LINE
8
BLACK
6
CONTINUOUS
10
131.487
20
-175.124
11
131.488
21
-175.123
0
LINE
8
BLACK
6
CONTINUOUS
10
131.488
20
-175.123
11
131.488
21
-175.123
0
LINE
8
BLACK
6
CONTINUOUS
10
131.488
20
-175.123
11
131.49
21
-175.12
0
LINE
8
BLACK
6
CONTINUOUS
10
131.49
20
-175.12
11
131.495
21
-175.118
0
LINE
8
BLACK
6
CONTINUOUS
10
131.495
20
-175.118
11
131.5
21
-175.117
0
LINE
8
BLACK
6
CONTINUOUS
10
131.5
20
-175.117
11
131.504
21
-175.116
0
LINE
8
BLACK
6
CONTINUOUS
10
131.504
20
-175.116
11
131.509
21
-175.117
0
LINE
8
BLACK
6
CONTINUOUS
10
129.136
20
-177.546
11
131.222
21
-179.631
0
LINE
8
BLACK
6
CONTINUOUS
10
131.222
20
-179.631
11
133.59
21
-177.263
0
LINE
8
BLACK
6
CONTINUOUS
10
133.59
20
-177.263
11
131.504
21
-175.177
0
LINE
8
BLACK
6
CONTINUOUS
10
131.504
20
-175.177
11
129.136
21
-177.546
0
LINE
8
BLACK
6
CONTINUOUS
10
151.563
20
-172.93
11
151.559
21
-172.928
0
LINE
8
BLACK
6
CONTINUOUS
10
151.559
20
-172.928
11
151.556
21
-172.925
0
LINE
8
BLACK
6
CONTINUOUS
10
151.556
20
-172.925
11
151.556
21
-172.925
0
LINE
8
BLACK
6
CONTINUOUS
10
151.556
20
-172.925
11
151.555
21
-172.924
0
LINE
8
BLACK
6
CONTINUOUS
10
151.555
20
-172.924
11
151.554
21
-172.923
0
LINE
8
BLACK
6
CONTINUOUS
10
151.554
20
-172.923
11
149.435
21
-170.804
0
LINE
8
BLACK
6
CONTINUOUS
10
149.435
20
-170.804
11
149.434
21
-170.803
0
LINE
8
BLACK
6
CONTINUOUS
10
149.434
20
-170.803
11
149.431
21
-170.799
0
LINE
8
BLACK
6
CONTINUOUS
10
149.431
20
-170.799
11
149.428
21
-170.795
0
LINE
8
BLACK
6
CONTINUOUS
10
149.428
20
-170.795
11
149.427
21
-170.79
0
LINE
8
BLACK
6
CONTINUOUS
10
149.427
20
-170.79
11
149.427
21
-170.785
0
LINE
8
BLACK
6
CONTINUOUS
10
149.427
20
-170.785
11
149.427
21
-170.78
0
LINE
8
BLACK
6
CONTINUOUS
10
149.427
20
-170.78
11
149.428
21
-170.776
0
LINE
8
BLACK
6
CONTINUOUS
10
149.428
20
-170.776
11
149.431
21
-170.771
0
LINE
8
BLACK
6
CONTINUOUS
10
149.431
20
-170.771
11
149.433
21
-170.769
0
LINE
8
BLACK
6
CONTINUOUS
10
149.433
20
-170.769
11
149.434
21
-170.768
0
LINE
8
BLACK
6
CONTINUOUS
10
149.434
20
-170.768
11
149.435
21
-170.767
0
LINE
8
BLACK
6
CONTINUOUS
10
149.435
20
-170.767
11
151.837
21
-168.364
0
LINE
8
BLACK
6
CONTINUOUS
10
151.837
20
-168.364
11
151.838
21
-168.363
0
LINE
8
BLACK
6
CONTINUOUS
10
151.838
20
-168.363
11
151.839
21
-168.363
0
LINE
8
BLACK
6
CONTINUOUS
10
151.839
20
-168.363
11
151.839
21
-168.363
0
LINE
8
BLACK
6
CONTINUOUS
10
151.839
20
-168.363
11
151.842
21
-168.36
0
LINE
8
BLACK
6
CONTINUOUS
10
151.842
20
-168.36
11
151.846
21
-168.358
0
LINE
8
BLACK
6
CONTINUOUS
10
151.846
20
-168.358
11
151.851
21
-168.357
0
LINE
8
BLACK
6
CONTINUOUS
10
151.851
20
-168.357
11
151.856
21
-168.356
0
LINE
8
BLACK
6
CONTINUOUS
10
151.856
20
-168.356
11
151.861
21
-168.357
0
LINE
8
BLACK
6
CONTINUOUS
10
151.861
20
-168.357
11
151.865
21
-168.358
0
LINE
8
BLACK
6
CONTINUOUS
10
151.865
20
-168.358
11
151.87
21
-168.36
0
LINE
8
BLACK
6
CONTINUOUS
10
151.87
20
-168.36
11
151.874
21
-168.363
0
LINE
8
BLACK
6
CONTINUOUS
10
151.874
20
-168.363
11
151.874
21
-168.364
0
LINE
8
BLACK
6
CONTINUOUS
10
151.874
20
-168.364
11
153.994
21
-170.484
0
LINE
8
BLACK
6
CONTINUOUS
10
153.994
20
-170.484
11
153.995
21
-170.485
0
LINE
8
BLACK
6
CONTINUOUS
10
153.995
20
-170.485
11
153.996
21
-170.486
0
LINE
8
BLACK
6
CONTINUOUS
10
153.996
20
-170.486
11
153.996
21
-170.486
0
LINE
8
BLACK
6
CONTINUOUS
10
153.996
20
-170.486
11
153.998
21
-170.489
0
LINE
8
BLACK
6
CONTINUOUS
10
153.998
20
-170.489
11
154
21
-170.493
0
LINE
8
BLACK
6
CONTINUOUS
10
154
20
-170.493
11
154
21
-170.493
0
LINE
8
BLACK
6
CONTINUOUS
10
154
20
-170.493
11
154.002
21
-170.498
0
LINE
8
BLACK
6
CONTINUOUS
10
154.002
20
-170.498
11
154.002
21
-170.503
0
LINE
8
BLACK
6
CONTINUOUS
10
154.002
20
-170.503
11
154.002
21
-170.507
0
LINE
8
BLACK
6
CONTINUOUS
10
154.002
20
-170.507
11
154
21
-170.512
0
LINE
8
BLACK
6
CONTINUOUS
10
154
20
-170.512
11
153.998
21
-170.516
0
LINE
8
BLACK
6
CONTINUOUS
10
153.998
20
-170.516
11
153.996
21
-170.519
0
LINE
8
BLACK
6
CONTINUOUS
10
153.996
20
-170.519
11
153.996
21
-170.519
0
LINE
8
BLACK
6
CONTINUOUS
10
153.996
20
-170.519
11
153.995
21
-170.52
0
LINE
8
BLACK
6
CONTINUOUS
10
153.995
20
-170.52
11
153.994
21
-170.521
0
LINE
8
BLACK
6
CONTINUOUS
10
153.994
20
-170.521
11
151.591
21
-172.923
0
LINE
8
BLACK
6
CONTINUOUS
10
151.591
20
-172.923
11
151.591
21
-172.924
0
LINE
8
BLACK
6
CONTINUOUS
10
151.591
20
-172.924
11
151.587
21
-172.928
0
LINE
8
BLACK
6
CONTINUOUS
10
151.587
20
-172.928
11
151.583
21
-172.93
0
LINE
8
BLACK
6
CONTINUOUS
10
151.583
20
-172.93
11
151.578
21
-172.931
0
LINE
8
BLACK
6
CONTINUOUS
10
151.578
20
-172.931
11
151.573
21
-172.932
0
LINE
8
BLACK
6
CONTINUOUS
10
151.573
20
-172.932
11
151.568
21
-172.931
0
LINE
8
BLACK
6
CONTINUOUS
10
151.568
20
-172.931
11
151.563
21
-172.93
0
LINE
8
BLACK
6
CONTINUOUS
10
149.487
20
-170.785
11
151.573
21
-172.871
0
LINE
8
BLACK
6
CONTINUOUS
10
151.573
20
-172.871
11
153.942
21
-170.503
0
LINE
8
BLACK
6
CONTINUOUS
10
153.942
20
-170.503
11
151.856
21
-168.417
0
LINE
8
BLACK
6
CONTINUOUS
10
151.856
20
-168.417
11
149.487
21
-170.785
0
LINE
8
BLACK
6
CONTINUOUS
10
118.021
20
-161.623
11
118.026
21
-161.624
0
LINE
8
BLACK
6
CONTINUOUS
10
118.026
20
-161.624
11
118.03
21
-161.627
0
LINE
8
BLACK
6
CONTINUOUS
10
118.03
20
-161.627
11
118.034
21
-161.63
0
LINE
8
BLACK
6
CONTINUOUS
10
118.034
20
-161.63
11
118.034
21
-161.631
0
LINE
8
BLACK
6
CONTINUOUS
10
118.034
20
-161.631
11
120.154
21
-163.75
0
LINE
8
BLACK
6
CONTINUOUS
10
120.154
20
-163.75
11
120.155
21
-163.751
0
LINE
8
BLACK
6
CONTINUOUS
10
120.155
20
-163.751
11
120.156
21
-163.752
0
LINE
8
BLACK
6
CONTINUOUS
10
120.156
20
-163.752
11
120.156
21
-163.752
0
LINE
8
BLACK
6
CONTINUOUS
10
120.156
20
-163.752
11
120.158
21
-163.755
0
LINE
8
BLACK
6
CONTINUOUS
10
120.158
20
-163.755
11
120.16
21
-163.759
0
LINE
8
BLACK
6
CONTINUOUS
10
120.16
20
-163.759
11
120.162
21
-163.764
0
LINE
8
BLACK
6
CONTINUOUS
10
120.162
20
-163.764
11
120.162
21
-163.769
0
LINE
8
BLACK
6
CONTINUOUS
10
120.162
20
-163.769
11
120.162
21
-163.774
0
LINE
8
BLACK
6
CONTINUOUS
10
120.162
20
-163.774
11
120.161
21
-163.777
0
LINE
8
BLACK
6
CONTINUOUS
10
120.161
20
-163.777
11
120.16
21
-163.779
0
LINE
8
BLACK
6
CONTINUOUS
10
120.16
20
-163.779
11
120.158
21
-163.783
0
LINE
8
BLACK
6
CONTINUOUS
10
120.158
20
-163.783
11
120.156
21
-163.786
0
LINE
8
BLACK
6
CONTINUOUS
10
120.156
20
-163.786
11
120.156
21
-163.786
0
LINE
8
BLACK
6
CONTINUOUS
10
120.156
20
-163.786
11
120.155
21
-163.787
0
LINE
8
BLACK
6
CONTINUOUS
10
120.155
20
-163.787
11
120.154
21
-163.787
0
LINE
8
BLACK
6
CONTINUOUS
10
120.154
20
-163.787
11
117.752
21
-166.19
0
LINE
8
BLACK
6
CONTINUOUS
10
117.752
20
-166.19
11
117.751
21
-166.191
0
LINE
8
BLACK
6
CONTINUOUS
10
117.751
20
-166.191
11
117.747
21
-166.194
0
LINE
8
BLACK
6
CONTINUOUS
10
117.747
20
-166.194
11
117.743
21
-166.196
0
LINE
8
BLACK
6
CONTINUOUS
10
117.743
20
-166.196
11
117.738
21
-166.198
0
LINE
8
BLACK
6
CONTINUOUS
10
117.738
20
-166.198
11
117.733
21
-166.198
0
LINE
8
BLACK
6
CONTINUOUS
10
117.733
20
-166.198
11
117.728
21
-166.198
0
LINE
8
BLACK
6
CONTINUOUS
10
117.728
20
-166.198
11
117.723
21
-166.196
0
LINE
8
BLACK
6
CONTINUOUS
10
117.723
20
-166.196
11
117.719
21
-166.194
0
LINE
8
BLACK
6
CONTINUOUS
10
117.719
20
-166.194
11
117.716
21
-166.192
0
LINE
8
BLACK
6
CONTINUOUS
10
117.716
20
-166.192
11
117.716
21
-166.192
0
LINE
8
BLACK
6
CONTINUOUS
10
117.716
20
-166.192
11
117.715
21
-166.191
0
LINE
8
BLACK
6
CONTINUOUS
10
117.715
20
-166.191
11
117.715
21
-166.19
0
LINE
8
BLACK
6
CONTINUOUS
10
117.715
20
-166.19
11
115.595
21
-164.07
0
LINE
8
BLACK
6
CONTINUOUS
10
115.595
20
-164.07
11
115.594
21
-164.07
0
LINE
8
BLACK
6
CONTINUOUS
10
115.594
20
-164.07
11
115.591
21
-164.066
0
LINE
8
BLACK
6
CONTINUOUS
10
115.591
20
-164.066
11
115.589
21
-164.061
0
LINE
8
BLACK
6
CONTINUOUS
10
115.589
20
-164.061
11
115.587
21
-164.057
0
LINE
8
BLACK
6
CONTINUOUS
10
115.587
20
-164.057
11
115.587
21
-164.052
0
LINE
8
BLACK
6
CONTINUOUS
10
115.587
20
-164.052
11
115.587
21
-164.047
0
LINE
8
BLACK
6
CONTINUOUS
10
115.587
20
-164.047
11
115.589
21
-164.042
0
LINE
8
BLACK
6
CONTINUOUS
10
115.589
20
-164.042
11
115.591
21
-164.038
0
LINE
8
BLACK
6
CONTINUOUS
10
115.591
20
-164.038
11
115.593
21
-164.035
0
LINE
8
BLACK
6
CONTINUOUS
10
115.593
20
-164.035
11
115.594
21
-164.034
0
LINE
8
BLACK
6
CONTINUOUS
10
115.594
20
-164.034
11
115.595
21
-164.033
0
LINE
8
BLACK
6
CONTINUOUS
10
115.595
20
-164.033
11
117.997
21
-161.631
0
LINE
8
BLACK
6
CONTINUOUS
10
117.997
20
-161.631
11
117.998
21
-161.63
0
LINE
8
BLACK
6
CONTINUOUS
10
117.998
20
-161.63
11
117.999
21
-161.629
0
LINE
8
BLACK
6
CONTINUOUS
10
117.999
20
-161.629
11
117.999
21
-161.629
0
LINE
8
BLACK
6
CONTINUOUS
10
117.999
20
-161.629
11
118.002
21
-161.627
0
LINE
8
BLACK
6
CONTINUOUS
10
118.002
20
-161.627
11
118.006
21
-161.624
0
LINE
8
BLACK
6
CONTINUOUS
10
118.006
20
-161.624
11
118.011
21
-161.623
0
LINE
8
BLACK
6
CONTINUOUS
10
118.011
20
-161.623
11
118.016
21
-161.622
0
LINE
8
BLACK
6
CONTINUOUS
10
118.016
20
-161.622
11
118.021
21
-161.623
0
LINE
8
BLACK
6
CONTINUOUS
10
115.647
20
-164.052
11
117.733
21
-166.138
0
LINE
8
BLACK
6
CONTINUOUS
10
117.733
20
-166.138
11
120.102
21
-163.769
0
LINE
8
BLACK
6
CONTINUOUS
10
120.102
20
-163.769
11
118.016
21
-161.683
0
LINE
8
BLACK
6
CONTINUOUS
10
118.016
20
-161.683
11
115.647
21
-164.052
0
LINE
8
BLACK
6
CONTINUOUS
10
165.062
20
-159.436
11
165.058
21
-159.434
0
LINE
8
BLACK
6
CONTINUOUS
10
165.058
20
-159.434
11
165.055
21
-159.431
0
LINE
8
BLACK
6
CONTINUOUS
10
165.055
20
-159.431
11
165.055
21
-159.431
0
LINE
8
BLACK
6
CONTINUOUS
10
165.055
20
-159.431
11
165.054
21
-159.431
0
LINE
8
BLACK
6
CONTINUOUS
10
165.054
20
-159.431
11
165.053
21
-159.43
0
LINE
8
BLACK
6
CONTINUOUS
10
165.053
20
-159.43
11
162.934
21
-157.31
0
LINE
8
BLACK
6
CONTINUOUS
10
162.934
20
-157.31
11
162.933
21
-157.309
0
LINE
8
BLACK
6
CONTINUOUS
10
162.933
20
-157.309
11
162.93
21
-157.306
0
LINE
8
BLACK
6
CONTINUOUS
10
162.93
20
-157.306
11
162.927
21
-157.301
0
LINE
8
BLACK
6
CONTINUOUS
10
162.927
20
-157.301
11
162.926
21
-157.296
0
LINE
8
BLACK
6
CONTINUOUS
10
162.926
20
-157.296
11
162.926
21
-157.292
0
LINE
8
BLACK
6
CONTINUOUS
10
162.926
20
-157.292
11
162.926
21
-157.287
0
LINE
8
BLACK
6
CONTINUOUS
10
162.926
20
-157.287
11
162.927
21
-157.282
0
LINE
8
BLACK
6
CONTINUOUS
10
162.927
20
-157.282
11
162.93
21
-157.278
0
LINE
8
BLACK
6
CONTINUOUS
10
162.93
20
-157.278
11
162.932
21
-157.275
0
LINE
8
BLACK
6
CONTINUOUS
10
162.932
20
-157.275
11
162.933
21
-157.274
0
LINE
8
BLACK
6
CONTINUOUS
10
162.933
20
-157.274
11
162.934
21
-157.273
0
LINE
8
BLACK
6
CONTINUOUS
10
162.934
20
-157.273
11
165.336
21
-154.871
0
LINE
8
BLACK
6
CONTINUOUS
10
165.336
20
-154.871
11
165.337
21
-154.87
0
LINE
8
BLACK
6
CONTINUOUS
10
165.337
20
-154.87
11
165.338
21
-154.869
0
LINE
8
BLACK
6
CONTINUOUS
10
165.338
20
-154.869
11
165.338
21
-154.869
0
LINE
8
BLACK
6
CONTINUOUS
10
165.338
20
-154.869
11
165.341
21
-154.867
0
LINE
8
BLACK
6
CONTINUOUS
10
165.341
20
-154.867
11
165.345
21
-154.864
0
LINE
8
BLACK
6
CONTINUOUS
10
165.345
20
-154.864
11
165.35
21
-154.863
0
LINE
8
BLACK
6
CONTINUOUS
10
165.35
20
-154.863
11
165.355
21
-154.862
0
LINE
8
BLACK
6
CONTINUOUS
10
165.355
20
-154.862
11
165.36
21
-154.863
0
LINE
8
BLACK
6
CONTINUOUS
10
165.36
20
-154.863
11
165.364
21
-154.864
0
LINE
8
BLACK
6
CONTINUOUS
10
165.364
20
-154.864
11
165.369
21
-154.867
0
LINE
8
BLACK
6
CONTINUOUS
10
165.369
20
-154.867
11
165.373
21
-154.87
0
LINE
8
BLACK
6
CONTINUOUS
10
165.373
20
-154.87
11
165.373
21
-154.871
0
LINE
8
BLACK
6
CONTINUOUS
10
165.373
20
-154.871
11
167.493
21
-156.99
0
LINE
8
BLACK
6
CONTINUOUS
10
167.493
20
-156.99
11
167.494
21
-156.991
0
LINE
8
BLACK
6
CONTINUOUS
10
167.494
20
-156.991
11
167.495
21
-156.992
0
LINE
8
BLACK
6
CONTINUOUS
10
167.495
20
-156.992
11
167.495
21
-156.992
0
LINE
8
BLACK
6
CONTINUOUS
10
167.495
20
-156.992
11
167.497
21
-156.995
0
LINE
8
BLACK
6
CONTINUOUS
10
167.497
20
-156.995
11
167.499
21
-156.999
0
LINE
8
BLACK
6
CONTINUOUS
10
167.499
20
-156.999
11
167.499
21
-156.999
0
LINE
8
BLACK
6
CONTINUOUS
10
167.499
20
-156.999
11
167.501
21
-157.004
0
LINE
8
BLACK
6
CONTINUOUS
10
167.501
20
-157.004
11
167.501
21
-157.009
0
LINE
8
BLACK
6
CONTINUOUS
10
167.501
20
-157.009
11
167.501
21
-157.014
0
LINE
8
BLACK
6
CONTINUOUS
10
167.501
20
-157.014
11
167.499
21
-157.018
0
LINE
8
BLACK
6
CONTINUOUS
10
167.499
20
-157.018
11
167.497
21
-157.023
0
LINE
8
BLACK
6
CONTINUOUS
10
167.497
20
-157.023
11
167.495
21
-157.026
0
LINE
8
BLACK
6
CONTINUOUS
10
167.495
20
-157.026
11
167.495
21
-157.026
0
LINE
8
BLACK
6
CONTINUOUS
10
167.495
20
-157.026
11
167.494
21
-157.026
0
LINE
8
BLACK
6
CONTINUOUS
10
167.494
20
-157.026
11
167.493
21
-157.027
0
LINE
8
BLACK
6
CONTINUOUS
10
167.493
20
-157.027
11
165.09
21
-159.43
0
LINE
8
BLACK
6
CONTINUOUS
10
165.09
20
-159.43
11
165.09
21
-159.431
0
LINE
8
BLACK
6
CONTINUOUS
10
165.09
20
-159.431
11
165.086
21
-159.434
0
LINE
8
BLACK
6
CONTINUOUS
10
165.086
20
-159.434
11
165.082
21
-159.436
0
LINE
8
BLACK
6
CONTINUOUS
10
165.082
20
-159.436
11
165.077
21
-159.438
0
LINE
8
BLACK
6
CONTINUOUS
10
165.077
20
-159.438
11
165.072
21
-159.438
0
LINE
8
BLACK
6
CONTINUOUS
10
165.072
20
-159.438
11
165.067
21
-159.438
0
LINE
8
BLACK
6
CONTINUOUS
10
165.067
20
-159.438
11
165.062
21
-159.436
0
LINE
8
BLACK
6
CONTINUOUS
10
162.986
20
-157.292
11
165.072
21
-159.378
0
LINE
8
BLACK
6
CONTINUOUS
10
165.072
20
-159.378
11
167.441
21
-157.009
0
LINE
8
BLACK
6
CONTINUOUS
10
167.441
20
-157.009
11
165.355
21
-154.923
0
LINE
8
BLACK
6
CONTINUOUS
10
165.355
20
-154.923
11
162.986
21
-157.292
0
LINE
8
BLACK
6
CONTINUOUS
10
131.509
20
-148.129
11
131.514
21
-148.131
0
LINE
8
BLACK
6
CONTINUOUS
10
131.514
20
-148.131
11
131.518
21
-148.133
0
LINE
8
BLACK
6
CONTINUOUS
10
131.518
20
-148.133
11
131.522
21
-148.136
0
LINE
8
BLACK
6
CONTINUOUS
10
131.522
20
-148.136
11
131.523
21
-148.137
0
LINE
8
BLACK
6
CONTINUOUS
10
131.523
20
-148.137
11
133.643
21
-150.257
0
LINE
8
BLACK
6
CONTINUOUS
10
133.643
20
-150.257
11
133.644
21
-150.257
0
LINE
8
BLACK
6
CONTINUOUS
10
133.644
20
-150.257
11
133.644
21
-150.258
0
LINE
8
BLACK
6
CONTINUOUS
10
133.644
20
-150.258
11
133.644
21
-150.258
0
LINE
8
BLACK
6
CONTINUOUS
10
133.644
20
-150.258
11
133.647
21
-150.261
0
LINE
8
BLACK
6
CONTINUOUS
10
133.647
20
-150.261
11
133.649
21
-150.266
0
LINE
8
BLACK
6
CONTINUOUS
10
133.649
20
-150.266
11
133.65
21
-150.27
0
LINE
8
BLACK
6
CONTINUOUS
10
133.65
20
-150.27
11
133.651
21
-150.275
0
LINE
8
BLACK
6
CONTINUOUS
10
133.651
20
-150.275
11
133.65
21
-150.28
0
LINE
8
BLACK
6
CONTINUOUS
10
133.65
20
-150.28
11
133.649
21
-150.284
0
LINE
8
BLACK
6
CONTINUOUS
10
133.649
20
-150.284
11
133.649
21
-150.285
0
LINE
8
BLACK
6
CONTINUOUS
10
133.649
20
-150.285
11
133.647
21
-150.289
0
LINE
8
BLACK
6
CONTINUOUS
10
133.647
20
-150.289
11
133.644
21
-150.292
0
LINE
8
BLACK
6
CONTINUOUS
10
133.644
20
-150.292
11
133.644
21
-150.292
0
LINE
8
BLACK
6
CONTINUOUS
10
133.644
20
-150.292
11
133.644
21
-150.293
0
LINE
8
BLACK
6
CONTINUOUS
10
133.644
20
-150.293
11
133.643
21
-150.294
0
LINE
8
BLACK
6
CONTINUOUS
10
133.643
20
-150.294
11
131.24
21
-152.696
0
LINE
8
BLACK
6
CONTINUOUS
10
131.24
20
-152.696
11
131.239
21
-152.697
0
LINE
8
BLACK
6
CONTINUOUS
10
131.239
20
-152.697
11
131.236
21
-152.7
0
LINE
8
BLACK
6
CONTINUOUS
10
131.236
20
-152.7
11
131.231
21
-152.703
0
LINE
8
BLACK
6
CONTINUOUS
10
131.231
20
-152.703
11
131.226
21
-152.704
0
LINE
8
BLACK
6
CONTINUOUS
10
131.226
20
-152.704
11
131.222
21
-152.704
0
LINE
8
BLACK
6
CONTINUOUS
10
131.222
20
-152.704
11
131.217
21
-152.704
0
LINE
8
BLACK
6
CONTINUOUS
10
131.217
20
-152.704
11
131.212
21
-152.703
0
LINE
8
BLACK
6
CONTINUOUS
10
131.212
20
-152.703
11
131.208
21
-152.7
0
LINE
8
BLACK
6
CONTINUOUS
10
131.208
20
-152.7
11
131.205
21
-152.698
0
LINE
8
BLACK
6
CONTINUOUS
10
131.205
20
-152.698
11
131.205
21
-152.698
0
LINE
8
BLACK
6
CONTINUOUS
10
131.205
20
-152.698
11
131.204
21
-152.697
0
LINE
8
BLACK
6
CONTINUOUS
10
131.204
20
-152.697
11
131.203
21
-152.696
0
LINE
8
BLACK
6
CONTINUOUS
10
131.203
20
-152.696
11
129.083
21
-150.577
0
LINE
8
BLACK
6
CONTINUOUS
10
129.083
20
-150.577
11
129.083
21
-150.576
0
LINE
8
BLACK
6
CONTINUOUS
10
129.083
20
-150.576
11
129.079
21
-150.572
0
LINE
8
BLACK
6
CONTINUOUS
10
129.079
20
-150.572
11
129.077
21
-150.568
0
LINE
8
BLACK
6
CONTINUOUS
10
129.077
20
-150.568
11
129.076
21
-150.563
0
LINE
8
BLACK
6
CONTINUOUS
10
129.076
20
-150.563
11
129.075
21
-150.558
0
LINE
8
BLACK
6
CONTINUOUS
10
129.075
20
-150.558
11
129.076
21
-150.553
0
LINE
8
BLACK
6
CONTINUOUS
10
129.076
20
-150.553
11
129.077
21
-150.548
0
LINE
8
BLACK
6
CONTINUOUS
10
129.077
20
-150.548
11
129.079
21
-150.544
0
LINE
8
BLACK
6
CONTINUOUS
10
129.079
20
-150.544
11
129.082
21
-150.541
0
LINE
8
BLACK
6
CONTINUOUS
10
129.082
20
-150.541
11
129.083
21
-150.54
0
LINE
8
BLACK
6
CONTINUOUS
10
129.083
20
-150.54
11
129.083
21
-150.539
0
LINE
8
BLACK
6
CONTINUOUS
10
129.083
20
-150.539
11
131.486
21
-148.137
0
LINE
8
BLACK
6
CONTINUOUS
10
131.486
20
-148.137
11
131.487
21
-148.136
0
LINE
8
BLACK
6
CONTINUOUS
10
131.487
20
-148.136
11
131.488
21
-148.135
0
LINE
8
BLACK
6
CONTINUOUS
10
131.488
20
-148.135
11
131.488
21
-148.135
0
LINE
8
BLACK
6
CONTINUOUS
10
131.488
20
-148.135
11
131.49
21
-148.133
0
LINE
8
BLACK
6
CONTINUOUS
10
131.49
20
-148.133
11
131.495
21
-148.131
0
LINE
8
BLACK
6
CONTINUOUS
10
131.495
20
-148.131
11
131.5
21
-148.129
0
LINE
8
BLACK
6
CONTINUOUS
10
131.5
20
-148.129
11
131.504
21
-148.129
0
LINE
8
BLACK
6
CONTINUOUS
10
131.504
20
-148.129
11
131.509
21
-148.129
0
LINE
8
BLACK
6
CONTINUOUS
10
129.136
20
-150.558
11
131.222
21
-152.644
0
LINE
8
BLACK
6
CONTINUOUS
10
131.222
20
-152.644
11
133.59
21
-150.275
0
LINE
8
BLACK
6
CONTINUOUS
10
133.59
20
-150.275
11
131.504
21
-148.189
0
LINE
8
BLACK
6
CONTINUOUS
10
131.504
20
-148.189
11
129.136
21
-150.558
0
LINE
8
BLACK
6
CONTINUOUS
10
268.397
20
-142.646
11
268.397
21
-142.646
0
LINE
8
BLACK
6
CONTINUOUS
10
268.397
20
-142.646
11
268.401
21
-142.647
0
LINE
8
BLACK
6
CONTINUOUS
10
268.401
20
-142.647
11
268.406
21
-142.648
0
LINE
8
BLACK
6
CONTINUOUS
10
268.406
20
-142.648
11
268.41
21
-142.65
0
LINE
8
BLACK
6
CONTINUOUS
10
268.41
20
-142.65
11
268.414
21
-142.654
0
LINE
8
BLACK
6
CONTINUOUS
10
268.414
20
-142.654
11
268.417
21
-142.657
0
LINE
8
BLACK
6
CONTINUOUS
10
268.417
20
-142.657
11
268.419
21
-142.662
0
LINE
8
BLACK
6
CONTINUOUS
10
268.419
20
-142.662
11
268.421
21
-142.666
0
LINE
8
BLACK
6
CONTINUOUS
10
268.421
20
-142.666
11
268.421
21
-142.671
0
LINE
8
BLACK
6
CONTINUOUS
10
268.421
20
-142.671
11
268.421
21
-142.673
0
LINE
8
BLACK
6
CONTINUOUS
10
268.421
20
-142.673
11
268.421
21
-145.67
0
LINE
8
BLACK
6
CONTINUOUS
10
268.421
20
-145.67
11
268.421
21
-145.671
0
LINE
8
BLACK
6
CONTINUOUS
10
268.421
20
-145.671
11
268.421
21
-145.673
0
LINE
8
BLACK
6
CONTINUOUS
10
268.421
20
-145.673
11
268.421
21
-145.673
0
LINE
8
BLACK
6
CONTINUOUS
10
268.421
20
-145.673
11
268.421
21
-145.676
0
LINE
8
BLACK
6
CONTINUOUS
10
268.421
20
-145.676
11
268.419
21
-145.681
0
LINE
8
BLACK
6
CONTINUOUS
10
268.419
20
-145.681
11
268.417
21
-145.685
0
LINE
8
BLACK
6
CONTINUOUS
10
268.417
20
-145.685
11
268.414
21
-145.689
0
LINE
8
BLACK
6
CONTINUOUS
10
268.414
20
-145.689
11
268.41
21
-145.692
0
LINE
8
BLACK
6
CONTINUOUS
10
268.41
20
-145.692
11
268.406
21
-145.695
0
LINE
8
BLACK
6
CONTINUOUS
10
268.406
20
-145.695
11
268.401
21
-145.696
0
LINE
8
BLACK
6
CONTINUOUS
10
268.401
20
-145.696
11
268.396
21
-145.696
0
LINE
8
BLACK
6
CONTINUOUS
10
268.396
20
-145.696
11
268.395
21
-145.696
0
LINE
8
BLACK
6
CONTINUOUS
10
268.395
20
-145.696
11
264.997
21
-145.696
0
LINE
8
BLACK
6
CONTINUOUS
10
264.997
20
-145.696
11
264.996
21
-145.696
0
LINE
8
BLACK
6
CONTINUOUS
10
264.996
20
-145.696
11
264.991
21
-145.696
0
LINE
8
BLACK
6
CONTINUOUS
10
264.991
20
-145.696
11
264.987
21
-145.695
0
LINE
8
BLACK
6
CONTINUOUS
10
264.987
20
-145.695
11
264.982
21
-145.692
0
LINE
8
BLACK
6
CONTINUOUS
10
264.982
20
-145.692
11
264.978
21
-145.689
0
LINE
8
BLACK
6
CONTINUOUS
10
264.978
20
-145.689
11
264.975
21
-145.685
0
LINE
8
BLACK
6
CONTINUOUS
10
264.975
20
-145.685
11
264.973
21
-145.681
0
LINE
8
BLACK
6
CONTINUOUS
10
264.973
20
-145.681
11
264.972
21
-145.676
0
LINE
8
BLACK
6
CONTINUOUS
10
264.972
20
-145.676
11
264.971
21
-145.671
0
LINE
8
BLACK
6
CONTINUOUS
10
264.971
20
-145.671
11
264.971
21
-145.67
0
LINE
8
BLACK
6
CONTINUOUS
10
264.971
20
-145.67
11
264.971
21
-142.673
0
LINE
8
BLACK
6
CONTINUOUS
10
264.971
20
-142.673
11
264.971
21
-142.671
0
LINE
8
BLACK
6
CONTINUOUS
10
264.971
20
-142.671
11
264.972
21
-142.666
0
LINE
8
BLACK
6
CONTINUOUS
10
264.972
20
-142.666
11
264.973
21
-142.662
0
LINE
8
BLACK
6
CONTINUOUS
10
264.973
20
-142.662
11
264.975
21
-142.657
0
LINE
8
BLACK
6
CONTINUOUS
10
264.975
20
-142.657
11
264.978
21
-142.654
0
LINE
8
BLACK
6
CONTINUOUS
10
264.978
20
-142.654
11
264.982
21
-142.65
0
LINE
8
BLACK
6
CONTINUOUS
10
264.982
20
-142.65
11
264.987
21
-142.648
0
LINE
8
BLACK
6
CONTINUOUS
10
264.987
20
-142.648
11
264.991
21
-142.647
0
LINE
8
BLACK
6
CONTINUOUS
10
264.991
20
-142.647
11
264.995
21
-142.646
0
LINE
8
BLACK
6
CONTINUOUS
10
264.995
20
-142.646
11
264.995
21
-142.646
0
LINE
8
BLACK
6
CONTINUOUS
10
264.995
20
-142.646
11
264.996
21
-142.646
0
LINE
8
BLACK
6
CONTINUOUS
10
264.996
20
-142.646
11
264.997
21
-142.646
0
LINE
8
BLACK
6
CONTINUOUS
10
264.997
20
-142.646
11
268.395
21
-142.646
0
LINE
8
BLACK
6
CONTINUOUS
10
268.395
20
-142.646
11
268.396
21
-142.646
0
LINE
8
BLACK
6
CONTINUOUS
10
268.396
20
-142.646
11
268.397
21
-142.646
0
LINE
8
BLACK
6
CONTINUOUS
10
265.021
20
-142.696
11
265.021
21
-145.646
0
LINE
8
BLACK
6
CONTINUOUS
10
265.021
20
-145.646
11
268.371
21
-145.646
0
LINE
8
BLACK
6
CONTINUOUS
10
268.371
20
-145.646
11
268.371
21
-142.696
0
LINE
8
BLACK
6
CONTINUOUS
10
268.371
20
-142.696
11
265.021
21
-142.696
0
LINE
8
BLACK
6
CONTINUOUS
10
249.347
20
-142.646
11
249.347
21
-142.646
0
LINE
8
BLACK
6
CONTINUOUS
10
249.347
20
-142.646
11
249.351
21
-142.647
0
LINE
8
BLACK
6
CONTINUOUS
10
249.351
20
-142.647
11
249.356
21
-142.648
0
LINE
8
BLACK
6
CONTINUOUS
10
249.356
20
-142.648
11
249.36
21
-142.65
0
LINE
8
BLACK
6
CONTINUOUS
10
249.36
20
-142.65
11
249.364
21
-142.654
0
LINE
8
BLACK
6
CONTINUOUS
10
249.364
20
-142.654
11
249.367
21
-142.657
0
LINE
8
BLACK
6
CONTINUOUS
10
249.367
20
-142.657
11
249.369
21
-142.662
0
LINE
8
BLACK
6
CONTINUOUS
10
249.369
20
-142.662
11
249.371
21
-142.666
0
LINE
8
BLACK
6
CONTINUOUS
10
249.371
20
-142.666
11
249.371
21
-142.671
0
LINE
8
BLACK
6
CONTINUOUS
10
249.371
20
-142.671
11
249.371
21
-142.673
0
LINE
8
BLACK
6
CONTINUOUS
10
249.371
20
-142.673
11
249.371
21
-145.67
0
LINE
8
BLACK
6
CONTINUOUS
10
249.371
20
-145.67
11
249.371
21
-145.671
0
LINE
8
BLACK
6
CONTINUOUS
10
249.371
20
-145.671
11
249.371
21
-145.673
0
LINE
8
BLACK
6
CONTINUOUS
10
249.371
20
-145.673
11
249.371
21
-145.673
0
LINE
8
BLACK
6
CONTINUOUS
10
249.371
20
-145.673
11
249.371
21
-145.676
0
LINE
8
BLACK
6
CONTINUOUS
10
249.371
20
-145.676
11
249.369
21
-145.681
0
LINE
8
BLACK
6
CONTINUOUS
10
249.369
20
-145.681
11
249.367
21
-145.685
0
LINE
8
BLACK
6
CONTINUOUS
10
249.367
20
-145.685
11
249.364
21
-145.689
0
LINE
8
BLACK
6
CONTINUOUS
10
249.364
20
-145.689
11
249.36
21
-145.692
0
LINE
8
BLACK
6
CONTINUOUS
10
249.36
20
-145.692
11
249.356
21
-145.695
0
LINE
8
BLACK
6
CONTINUOUS
10
249.356
20
-145.695
11
249.351
21
-145.696
0
LINE
8
BLACK
6
CONTINUOUS
10
249.351
20
-145.696
11
249.346
21
-145.696
0
LINE
8
BLACK
6
CONTINUOUS
10
249.346
20
-145.696
11
249.345
21
-145.696
0
LINE
8
BLACK
6
CONTINUOUS
10
249.345
20
-145.696
11
245.947
21
-145.696
0
LINE
8
BLACK
6
CONTINUOUS
10
245.947
20
-145.696
11
245.946
21
-145.696
0
LINE
8
BLACK
6
CONTINUOUS
10
245.946
20
-145.696
11
245.941
21
-145.696
0
LINE
8
BLACK
6
CONTINUOUS
10
245.941
20
-145.696
11
245.937
21
-145.695
0
LINE
8
BLACK
6
CONTINUOUS
10
245.937
20
-145.695
11
245.932
21
-145.692
0
LINE
8
BLACK
6
CONTINUOUS
10
245.932
20
-145.692
11
245.928
21
-145.689
0
LINE
8
BLACK
6
CONTINUOUS
10
245.928
20
-145.689
11
245.925
21
-145.685
0
LINE
8
BLACK
6
CONTINUOUS
10
245.925
20
-145.685
11
245.923
21
-145.681
0
LINE
8
BLACK
6
CONTINUOUS
10
245.923
20
-145.681
11
245.922
21
-145.676
0
LINE
8
BLACK
6
CONTINUOUS
10
245.922
20
-145.676
11
245.921
21
-145.671
0
LINE
8
BLACK
6
CONTINUOUS
10
245.921
20
-145.671
11
245.921
21
-145.67
0
LINE
8
BLACK
6
CONTINUOUS
10
245.921
20
-145.67
11
245.921
21
-142.673
0
LINE
8
BLACK
6
CONTINUOUS
10
245.921
20
-142.673
11
245.921
21
-142.671
0
LINE
8
BLACK
6
CONTINUOUS
10
245.921
20
-142.671
11
245.922
21
-142.666
0
LINE
8
BLACK
6
CONTINUOUS
10
245.922
20
-142.666
11
245.923
21
-142.662
0
LINE
8
BLACK
6
CONTINUOUS
10
245.923
20
-142.662
11
245.925
21
-142.657
0
LINE
8
BLACK
6
CONTINUOUS
10
245.925
20
-142.657
11
245.928
21
-142.654
0
LINE
8
BLACK
6
CONTINUOUS
10
245.928
20
-142.654
11
245.932
21
-142.65
0
LINE
8
BLACK
6
CONTINUOUS
10
245.932
20
-142.65
11
245.937
21
-142.648
0
LINE
8
BLACK
6
CONTINUOUS
10
245.937
20
-142.648
11
245.941
21
-142.647
0
LINE
8
BLACK
6
CONTINUOUS
10
245.941
20
-142.647
11
245.945
21
-142.646
0
LINE
8
BLACK
6
CONTINUOUS
10
245.945
20
-142.646
11
245.945
21
-142.646
0
LINE
8
BLACK
6
CONTINUOUS
10
245.945
20
-142.646
11
245.946
21
-142.646
0
LINE
8
BLACK
6
CONTINUOUS
10
245.946
20
-142.646
11
245.947
21
-142.646
0
LINE
8
BLACK
6
CONTINUOUS
10
245.947
20
-142.646
11
249.345
21
-142.646
0
LINE
8
BLACK
6
CONTINUOUS
10
249.345
20
-142.646
11
249.346
21
-142.646
0
LINE
8
BLACK
6
CONTINUOUS
10
249.346
20
-142.646
11
249.347
21
-142.646
0
LINE
8
BLACK
6
CONTINUOUS
10
245.971
20
-142.696
11
245.971
21
-145.646
0
LINE
8
BLACK
6
CONTINUOUS
10
245.971
20
-145.646
11
249.321
21
-145.646
0
LINE
8
BLACK
6
CONTINUOUS
10
249.321
20
-145.646
11
249.321
21
-142.696
0
LINE
8
BLACK
6
CONTINUOUS
10
249.321
20
-142.696
11
245.971
21
-142.696
0
LINE
8
BLACK
6
CONTINUOUS
10
230.297
20
-140.265
11
230.297
21
-140.265
0
LINE
8
BLACK
6
CONTINUOUS
10
230.297
20
-140.265
11
230.301
21
-140.265
0
LINE
8
BLACK
6
CONTINUOUS
10
230.301
20
-140.265
11
230.306
21
-140.267
0
LINE
8
BLACK
6
CONTINUOUS
10
230.306
20
-140.267
11
230.31
21
-140.269
0
LINE
8
BLACK
6
CONTINUOUS
10
230.31
20
-140.269
11
230.314
21
-140.272
0
LINE
8
BLACK
6
CONTINUOUS
10
230.314
20
-140.272
11
230.317
21
-140.276
0
LINE
8
BLACK
6
CONTINUOUS
10
230.317
20
-140.276
11
230.319
21
-140.28
0
LINE
8
BLACK
6
CONTINUOUS
10
230.319
20
-140.28
11
230.321
21
-140.285
0
LINE
8
BLACK
6
CONTINUOUS
10
230.321
20
-140.285
11
230.321
21
-140.29
0
LINE
8
BLACK
6
CONTINUOUS
10
230.321
20
-140.29
11
230.321
21
-140.291
0
LINE
8
BLACK
6
CONTINUOUS
10
230.321
20
-140.291
11
230.321
21
-143.289
0
LINE
8
BLACK
6
CONTINUOUS
10
230.321
20
-143.289
11
230.321
21
-143.29
0
LINE
8
BLACK
6
CONTINUOUS
10
230.321
20
-143.29
11
230.321
21
-143.291
0
LINE
8
BLACK
6
CONTINUOUS
10
230.321
20
-143.291
11
230.321
21
-143.291
0
LINE
8
BLACK
6
CONTINUOUS
10
230.321
20
-143.291
11
230.321
21
-143.295
0
LINE
8
BLACK
6
CONTINUOUS
10
230.321
20
-143.295
11
230.319
21
-143.3
0
LINE
8
BLACK
6
CONTINUOUS
10
230.319
20
-143.3
11
230.317
21
-143.304
0
LINE
8
BLACK
6
CONTINUOUS
10
230.317
20
-143.304
11
230.314
21
-143.308
0
LINE
8
BLACK
6
CONTINUOUS
10
230.314
20
-143.308
11
230.31
21
-143.311
0
LINE
8
BLACK
6
CONTINUOUS
10
230.31
20
-143.311
11
230.306
21
-143.313
0
LINE
8
BLACK
6
CONTINUOUS
10
230.306
20
-143.313
11
230.301
21
-143.315
0
LINE
8
BLACK
6
CONTINUOUS
10
230.301
20
-143.315
11
230.296
21
-143.315
0
LINE
8
BLACK
6
CONTINUOUS
10
230.296
20
-143.315
11
230.295
21
-143.315
0
LINE
8
BLACK
6
CONTINUOUS
10
230.295
20
-143.315
11
226.897
21
-143.315
0
LINE
8
BLACK
6
CONTINUOUS
10
226.897
20
-143.315
11
226.896
21
-143.315
0
LINE
8
BLACK
6
CONTINUOUS
10
226.896
20
-143.315
11
226.891
21
-143.315
0
LINE
8
BLACK
6
CONTINUOUS
10
226.891
20
-143.315
11
226.887
21
-143.313
0
LINE
8
BLACK
6
CONTINUOUS
10
226.887
20
-143.313
11
226.882
21
-143.311
0
LINE
8
BLACK
6
CONTINUOUS
10
226.882
20
-143.311
11
226.878
21
-143.308
0
LINE
8
BLACK
6
CONTINUOUS
10
226.878
20
-143.308
11
226.878
21
-143.307
0
LINE
8
BLACK
6
CONTINUOUS
10
226.878
20
-143.307
11
226.875
21
-143.304
0
LINE
8
BLACK
6
CONTINUOUS
10
226.875
20
-143.304
11
226.873
21
-143.3
0
LINE
8
BLACK
6
CONTINUOUS
10
226.873
20
-143.3
11
226.872
21
-143.295
0
LINE
8
BLACK
6
CONTINUOUS
10
226.872
20
-143.295
11
226.871
21
-143.29
0
LINE
8
BLACK
6
CONTINUOUS
10
226.871
20
-143.29
11
226.871
21
-143.289
0
LINE
8
BLACK
6
CONTINUOUS
10
226.871
20
-143.289
11
226.871
21
-140.291
0
LINE
8
BLACK
6
CONTINUOUS
10
226.871
20
-140.291
11
226.871
21
-140.29
0
LINE
8
BLACK
6
CONTINUOUS
10
226.871
20
-140.29
11
226.872
21
-140.285
0
LINE
8
BLACK
6
CONTINUOUS
10
226.872
20
-140.285
11
226.873
21
-140.28
0
LINE
8
BLACK
6
CONTINUOUS
10
226.873
20
-140.28
11
226.875
21
-140.276
0
LINE
8
BLACK
6
CONTINUOUS
10
226.875
20
-140.276
11
226.878
21
-140.272
0
LINE
8
BLACK
6
CONTINUOUS
10
226.878
20
-140.272
11
226.882
21
-140.269
0
LINE
8
BLACK
6
CONTINUOUS
10
226.882
20
-140.269
11
226.887
21
-140.267
0
LINE
8
BLACK
6
CONTINUOUS
10
226.887
20
-140.267
11
226.891
21
-140.265
0
LINE
8
BLACK
6
CONTINUOUS
10
226.891
20
-140.265
11
226.895
21
-140.265
0
LINE
8
BLACK
6
CONTINUOUS
10
226.895
20
-140.265
11
226.895
21
-140.265
0
LINE
8
BLACK
6
CONTINUOUS
10
226.895
20
-140.265
11
226.896
21
-140.265
0
LINE
8
BLACK
6
CONTINUOUS
10
226.896
20
-140.265
11
226.897
21
-140.265
0
LINE
8
BLACK
6
CONTINUOUS
10
226.897
20
-140.265
11
230.295
21
-140.265
0
LINE
8
BLACK
6
CONTINUOUS
10
230.295
20
-140.265
11
230.296
21
-140.265
0
LINE
8
BLACK
6
CONTINUOUS
10
230.296
20
-140.265
11
230.297
21
-140.265
0
LINE
8
BLACK
6
CONTINUOUS
10
226.921
20
-140.315
11
226.921
21
-143.265
0
LINE
8
BLACK
6
CONTINUOUS
10
226.921
20
-143.265
11
230.271
21
-143.265
0
LINE
8
BLACK
6
CONTINUOUS
10
230.271
20
-143.265
11
230.271
21
-140.315
0
LINE
8
BLACK
6
CONTINUOUS
10
230.271
20
-140.315
11
226.921
21
-140.315
0
LINE
8
BLACK
6
CONTINUOUS
10
192.194
20
-140.261
11
192.194
21
-140.261
0
LINE
8
BLACK
6
CONTINUOUS
10
192.194
20
-140.261
11
192.197
21
-140.262
0
LINE
8
BLACK
6
CONTINUOUS
10
192.197
20
-140.262
11
192.202
21
-140.263
0
LINE
8
BLACK
6
CONTINUOUS
10
192.202
20
-140.263
11
192.206
21
-140.265
0
LINE
8
BLACK
6
CONTINUOUS
10
192.206
20
-140.265
11
192.21
21
-140.269
0
LINE
8
BLACK
6
CONTINUOUS
10
192.21
20
-140.269
11
192.213
21
-140.272
0
LINE
8
BLACK
6
CONTINUOUS
10
192.213
20
-140.272
11
192.216
21
-140.277
0
LINE
8
BLACK
6
CONTINUOUS
10
192.216
20
-140.277
11
192.217
21
-140.281
0
LINE
8
BLACK
6
CONTINUOUS
10
192.217
20
-140.281
11
192.218
21
-140.286
0
LINE
8
BLACK
6
CONTINUOUS
10
192.218
20
-140.286
11
192.218
21
-140.288
0
LINE
8
BLACK
6
CONTINUOUS
10
192.218
20
-140.288
11
192.218
21
-143.285
0
LINE
8
BLACK
6
CONTINUOUS
10
192.218
20
-143.285
11
192.218
21
-143.286
0
LINE
8
BLACK
6
CONTINUOUS
10
192.218
20
-143.286
11
192.218
21
-143.288
0
LINE
8
BLACK
6
CONTINUOUS
10
192.218
20
-143.288
11
192.218
21
-143.288
0
LINE
8
BLACK
6
CONTINUOUS
10
192.218
20
-143.288
11
192.217
21
-143.291
0
LINE
8
BLACK
6
CONTINUOUS
10
192.217
20
-143.291
11
192.216
21
-143.296
0
LINE
8
BLACK
6
CONTINUOUS
10
192.216
20
-143.296
11
192.213
21
-143.3
0
LINE
8
BLACK
6
CONTINUOUS
10
192.213
20
-143.3
11
192.21
21
-143.304
0
LINE
8
BLACK
6
CONTINUOUS
10
192.21
20
-143.304
11
192.206
21
-143.307
0
LINE
8
BLACK
6
CONTINUOUS
10
192.206
20
-143.307
11
192.202
21
-143.31
0
LINE
8
BLACK
6
CONTINUOUS
10
192.202
20
-143.31
11
192.197
21
-143.311
0
LINE
8
BLACK
6
CONTINUOUS
10
192.197
20
-143.311
11
192.193
21
-143.311
0
LINE
8
BLACK
6
CONTINUOUS
10
192.193
20
-143.311
11
192.191
21
-143.311
0
LINE
8
BLACK
6
CONTINUOUS
10
192.191
20
-143.311
11
188.794
21
-143.311
0
LINE
8
BLACK
6
CONTINUOUS
10
188.794
20
-143.311
11
188.793
21
-143.311
0
LINE
8
BLACK
6
CONTINUOUS
10
188.793
20
-143.311
11
188.788
21
-143.311
0
LINE
8
BLACK
6
CONTINUOUS
10
188.788
20
-143.311
11
188.783
21
-143.31
0
LINE
8
BLACK
6
CONTINUOUS
10
188.783
20
-143.31
11
188.779
21
-143.307
0
LINE
8
BLACK
6
CONTINUOUS
10
188.779
20
-143.307
11
188.775
21
-143.304
0
LINE
8
BLACK
6
CONTINUOUS
10
188.775
20
-143.304
11
188.775
21
-143.304
0
LINE
8
BLACK
6
CONTINUOUS
10
188.775
20
-143.304
11
188.772
21
-143.3
0
LINE
8
BLACK
6
CONTINUOUS
10
188.772
20
-143.3
11
188.769
21
-143.296
0
LINE
8
BLACK
6
CONTINUOUS
10
188.769
20
-143.296
11
188.768
21
-143.291
0
LINE
8
BLACK
6
CONTINUOUS
10
188.768
20
-143.291
11
188.767
21
-143.286
0
LINE
8
BLACK
6
CONTINUOUS
10
188.767
20
-143.286
11
188.768
21
-143.285
0
LINE
8
BLACK
6
CONTINUOUS
10
188.768
20
-143.285
11
188.768
21
-140.288
0
LINE
8
BLACK
6
CONTINUOUS
10
188.768
20
-140.288
11
188.767
21
-140.286
0
LINE
8
BLACK
6
CONTINUOUS
10
188.767
20
-140.286
11
188.768
21
-140.281
0
LINE
8
BLACK
6
CONTINUOUS
10
188.768
20
-140.281
11
188.769
21
-140.277
0
LINE
8
BLACK
6
CONTINUOUS
10
188.769
20
-140.277
11
188.772
21
-140.272
0
LINE
8
BLACK
6
CONTINUOUS
10
188.772
20
-140.272
11
188.775
21
-140.269
0
LINE
8
BLACK
6
CONTINUOUS
10
188.775
20
-140.269
11
188.779
21
-140.265
0
LINE
8
BLACK
6
CONTINUOUS
10
188.779
20
-140.265
11
188.783
21
-140.263
0
LINE
8
BLACK
6
CONTINUOUS
10
188.783
20
-140.263
11
188.788
21
-140.262
0
LINE
8
BLACK
6
CONTINUOUS
10
188.788
20
-140.262
11
188.791
21
-140.261
0
LINE
8
BLACK
6
CONTINUOUS
10
188.791
20
-140.261
11
188.791
21
-140.261
0
LINE
8
BLACK
6
CONTINUOUS
10
188.791
20
-140.261
11
188.793
21
-140.261
0
LINE
8
BLACK
6
CONTINUOUS
10
188.793
20
-140.261
11
188.794
21
-140.261
0
LINE
8
BLACK
6
CONTINUOUS
10
188.794
20
-140.261
11
192.191
21
-140.261
0
LINE
8
BLACK
6
CONTINUOUS
10
192.191
20
-140.261
11
192.193
21
-140.261
0
LINE
8
BLACK
6
CONTINUOUS
10
192.193
20
-140.261
11
192.194
21
-140.261
0
LINE
8
BLACK
6
CONTINUOUS
10
188.818
20
-140.311
11
188.818
21
-143.261
0
LINE
8
BLACK
6
CONTINUOUS
10
188.818
20
-143.261
11
192.168
21
-143.261
0
LINE
8
BLACK
6
CONTINUOUS
10
192.168
20
-143.261
11
192.168
21
-140.311
0
LINE
8
BLACK
6
CONTINUOUS
10
192.168
20
-140.311
11
188.818
21
-140.311
0
LINE
8
BLACK
6
CONTINUOUS
10
211.244
20
-137.88
11
211.244
21
-137.88
0
LINE
8
BLACK
6
CONTINUOUS
10
211.244
20
-137.88
11
211.247
21
-137.88
0
LINE
8
BLACK
6
CONTINUOUS
10
211.247
20
-137.88
11
211.252
21
-137.882
0
LINE
8
BLACK
6
CONTINUOUS
10
211.252
20
-137.882
11
211.256
21
-137.884
0
LINE
8
BLACK
6
CONTINUOUS
10
211.256
20
-137.884
11
211.26
21
-137.887
0
LINE
8
BLACK
6
CONTINUOUS
10
211.26
20
-137.887
11
211.263
21
-137.891
0
LINE
8
BLACK
6
CONTINUOUS
10
211.263
20
-137.891
11
211.266
21
-137.896
0
LINE
8
BLACK
6
CONTINUOUS
10
211.266
20
-137.896
11
211.267
21
-137.9
0
LINE
8
BLACK
6
CONTINUOUS
10
211.267
20
-137.9
11
211.268
21
-137.905
0
LINE
8
BLACK
6
CONTINUOUS
10
211.268
20
-137.905
11
211.268
21
-137.906
0
LINE
8
BLACK
6
CONTINUOUS
10
211.268
20
-137.906
11
211.268
21
-140.904
0
LINE
8
BLACK
6
CONTINUOUS
10
211.268
20
-140.904
11
211.268
21
-140.905
0
LINE
8
BLACK
6
CONTINUOUS
10
211.268
20
-140.905
11
211.268
21
-140.906
0
LINE
8
BLACK
6
CONTINUOUS
10
211.268
20
-140.906
11
211.268
21
-140.906
0
LINE
8
BLACK
6
CONTINUOUS
10
211.268
20
-140.906
11
211.267
21
-140.91
0
LINE
8
BLACK
6
CONTINUOUS
10
211.267
20
-140.91
11
211.266
21
-140.915
0
LINE
8
BLACK
6
CONTINUOUS
10
211.266
20
-140.915
11
211.263
21
-140.919
0
LINE
8
BLACK
6
CONTINUOUS
10
211.263
20
-140.919
11
211.26
21
-140.923
0
LINE
8
BLACK
6
CONTINUOUS
10
211.26
20
-140.923
11
211.256
21
-140.926
0
LINE
8
BLACK
6
CONTINUOUS
10
211.256
20
-140.926
11
211.252
21
-140.928
0
LINE
8
BLACK
6
CONTINUOUS
10
211.252
20
-140.928
11
211.247
21
-140.93
0
LINE
8
BLACK
6
CONTINUOUS
10
211.247
20
-140.93
11
211.243
21
-140.93
0
LINE
8
BLACK
6
CONTINUOUS
10
211.243
20
-140.93
11
211.241
21
-140.93
0
LINE
8
BLACK
6
CONTINUOUS
10
211.241
20
-140.93
11
207.844
21
-140.93
0
LINE
8
BLACK
6
CONTINUOUS
10
207.844
20
-140.93
11
207.843
21
-140.93
0
LINE
8
BLACK
6
CONTINUOUS
10
207.843
20
-140.93
11
207.838
21
-140.93
0
LINE
8
BLACK
6
CONTINUOUS
10
207.838
20
-140.93
11
207.833
21
-140.928
0
LINE
8
BLACK
6
CONTINUOUS
10
207.833
20
-140.928
11
207.829
21
-140.926
0
LINE
8
BLACK
6
CONTINUOUS
10
207.829
20
-140.926
11
207.825
21
-140.923
0
LINE
8
BLACK
6
CONTINUOUS
10
207.825
20
-140.923
11
207.822
21
-140.919
0
LINE
8
BLACK
6
CONTINUOUS
10
207.822
20
-140.919
11
207.819
21
-140.915
0
LINE
8
BLACK
6
CONTINUOUS
10
207.819
20
-140.915
11
207.818
21
-140.91
0
LINE
8
BLACK
6
CONTINUOUS
10
207.818
20
-140.91
11
207.817
21
-140.905
0
LINE
8
BLACK
6
CONTINUOUS
10
207.817
20
-140.905
11
207.818
21
-140.904
0
LINE
8
BLACK
6
CONTINUOUS
10
207.818
20
-140.904
11
207.818
21
-137.906
0
LINE
8
BLACK
6
CONTINUOUS
10
207.818
20
-137.906
11
207.817
21
-137.905
0
LINE
8
BLACK
6
CONTINUOUS
10
207.817
20
-137.905
11
207.818
21
-137.9
0
LINE
8
BLACK
6
CONTINUOUS
10
207.818
20
-137.9
11
207.819
21
-137.896
0
LINE
8
BLACK
6
CONTINUOUS
10
207.819
20
-137.896
11
207.822
21
-137.891
0
LINE
8
BLACK
6
CONTINUOUS
10
207.822
20
-137.891
11
207.825
21
-137.887
0
LINE
8
BLACK
6
CONTINUOUS
10
207.825
20
-137.887
11
207.829
21
-137.884
0
LINE
8
BLACK
6
CONTINUOUS
10
207.829
20
-137.884
11
207.833
21
-137.882
0
LINE
8
BLACK
6
CONTINUOUS
10
207.833
20
-137.882
11
207.838
21
-137.88
0
LINE
8
BLACK
6
CONTINUOUS
10
207.838
20
-137.88
11
207.841
21
-137.88
0
LINE
8
BLACK
6
CONTINUOUS
10
207.841
20
-137.88
11
207.841
21
-137.88
0
LINE
8
BLACK
6
CONTINUOUS
10
207.841
20
-137.88
11
207.843
21
-137.88
0
LINE
8
BLACK
6
CONTINUOUS
10
207.843
20
-137.88
11
207.844
21
-137.88
0
LINE
8
BLACK
6
CONTINUOUS
10
207.844
20
-137.88
11
211.241
21
-137.88
0
LINE
8
BLACK
6
CONTINUOUS
10
211.241
20
-137.88
11
211.243
21
-137.88
0
LINE
8
BLACK
6
CONTINUOUS
10
211.243
20
-137.88
11
211.244
21
-137.88
0
LINE
8
BLACK
6
CONTINUOUS
10
207.868
20
-137.93
11
207.868
21
-140.88
0
LINE
8
BLACK
6
CONTINUOUS
10
207.868
20
-140.88
11
211.218
21
-140.88
0
LINE
8
BLACK
6
CONTINUOUS
10
211.218
20
-140.88
11
211.218
21
-137.93
0
LINE
8
BLACK
6
CONTINUOUS
10
211.218
20
-137.93
11
207.868
21
-137.93
0
LINE
8
BLACK
6
CONTINUOUS
10
173.149
20
-123.597
11
173.149
21
-123.597
0
LINE
8
BLACK
6
CONTINUOUS
10
173.149
20
-123.597
11
173.152
21
-123.598
0
LINE
8
BLACK
6
CONTINUOUS
10
173.152
20
-123.598
11
173.157
21
-123.599
0
LINE
8
BLACK
6
CONTINUOUS
10
173.157
20
-123.599
11
173.161
21
-123.602
0
LINE
8
BLACK
6
CONTINUOUS
10
173.161
20
-123.602
11
173.165
21
-123.605
0
LINE
8
BLACK
6
CONTINUOUS
10
173.165
20
-123.605
11
173.168
21
-123.609
0
LINE
8
BLACK
6
CONTINUOUS
10
173.168
20
-123.609
11
173.171
21
-123.613
0
LINE
8
BLACK
6
CONTINUOUS
10
173.171
20
-123.613
11
173.172
21
-123.618
0
LINE
8
BLACK
6
CONTINUOUS
10
173.172
20
-123.618
11
173.173
21
-123.622
0
LINE
8
BLACK
6
CONTINUOUS
10
173.173
20
-123.622
11
173.172
21
-123.624
0
LINE
8
BLACK
6
CONTINUOUS
10
173.172
20
-123.624
11
173.172
21
-126.621
0
LINE
8
BLACK
6
CONTINUOUS
10
173.172
20
-126.621
11
173.173
21
-126.622
0
LINE
8
BLACK
6
CONTINUOUS
10
173.173
20
-126.622
11
173.172
21
-126.624
0
LINE
8
BLACK
6
CONTINUOUS
10
173.172
20
-126.624
11
173.172
21
-126.624
0
LINE
8
BLACK
6
CONTINUOUS
10
173.172
20
-126.624
11
173.172
21
-126.627
0
LINE
8
BLACK
6
CONTINUOUS
10
173.172
20
-126.627
11
173.171
21
-126.632
0
LINE
8
BLACK
6
CONTINUOUS
10
173.171
20
-126.632
11
173.168
21
-126.636
0
LINE
8
BLACK
6
CONTINUOUS
10
173.168
20
-126.636
11
173.165
21
-126.64
0
LINE
8
BLACK
6
CONTINUOUS
10
173.165
20
-126.64
11
173.161
21
-126.643
0
LINE
8
BLACK
6
CONTINUOUS
10
173.161
20
-126.643
11
173.157
21
-126.646
0
LINE
8
BLACK
6
CONTINUOUS
10
173.157
20
-126.646
11
173.152
21
-126.647
0
LINE
8
BLACK
6
CONTINUOUS
10
173.152
20
-126.647
11
173.147
21
-126.648
0
LINE
8
BLACK
6
CONTINUOUS
10
173.147
20
-126.648
11
173.146
21
-126.647
0
LINE
8
BLACK
6
CONTINUOUS
10
173.146
20
-126.647
11
169.749
21
-126.647
0
LINE
8
BLACK
6
CONTINUOUS
10
169.749
20
-126.647
11
169.747
21
-126.648
0
LINE
8
BLACK
6
CONTINUOUS
10
169.747
20
-126.648
11
169.743
21
-126.647
0
LINE
8
BLACK
6
CONTINUOUS
10
169.743
20
-126.647
11
169.738
21
-126.646
0
LINE
8
BLACK
6
CONTINUOUS
10
169.738
20
-126.646
11
169.734
21
-126.643
0
LINE
8
BLACK
6
CONTINUOUS
10
169.734
20
-126.643
11
169.73
21
-126.64
0
LINE
8
BLACK
6
CONTINUOUS
10
169.73
20
-126.64
11
169.728
21
-126.638
0
LINE
8
BLACK
6
CONTINUOUS
10
169.728
20
-126.638
11
169.727
21
-126.636
0
LINE
8
BLACK
6
CONTINUOUS
10
169.727
20
-126.636
11
169.724
21
-126.632
0
LINE
8
BLACK
6
CONTINUOUS
10
169.724
20
-126.632
11
169.723
21
-126.627
0
LINE
8
BLACK
6
CONTINUOUS
10
169.723
20
-126.627
11
169.722
21
-126.622
0
LINE
8
BLACK
6
CONTINUOUS
10
169.722
20
-126.622
11
169.722
21
-126.621
0
LINE
8
BLACK
6
CONTINUOUS
10
169.722
20
-126.621
11
169.722
21
-123.624
0
LINE
8
BLACK
6
CONTINUOUS
10
169.722
20
-123.624
11
169.722
21
-123.622
0
LINE
8
BLACK
6
CONTINUOUS
10
169.722
20
-123.622
11
169.723
21
-123.618
0
LINE
8
BLACK
6
CONTINUOUS
10
169.723
20
-123.618
11
169.724
21
-123.613
0
LINE
8
BLACK
6
CONTINUOUS
10
169.724
20
-123.613
11
169.727
21
-123.609
0
LINE
8
BLACK
6
CONTINUOUS
10
169.727
20
-123.609
11
169.73
21
-123.605
0
LINE
8
BLACK
6
CONTINUOUS
10
169.73
20
-123.605
11
169.734
21
-123.602
0
LINE
8
BLACK
6
CONTINUOUS
10
169.734
20
-123.602
11
169.738
21
-123.599
0
LINE
8
BLACK
6
CONTINUOUS
10
169.738
20
-123.599
11
169.743
21
-123.598
0
LINE
8
BLACK
6
CONTINUOUS
10
169.743
20
-123.598
11
169.746
21
-123.597
0
LINE
8
BLACK
6
CONTINUOUS
10
169.746
20
-123.597
11
169.746
21
-123.597
0
LINE
8
BLACK
6
CONTINUOUS
10
169.746
20
-123.597
11
169.747
21
-123.597
0
LINE
8
BLACK
6
CONTINUOUS
10
169.747
20
-123.597
11
169.749
21
-123.597
0
LINE
8
BLACK
6
CONTINUOUS
10
169.749
20
-123.597
11
173.146
21
-123.597
0
LINE
8
BLACK
6
CONTINUOUS
10
173.146
20
-123.597
11
173.147
21
-123.597
0
LINE
8
BLACK
6
CONTINUOUS
10
173.147
20
-123.597
11
173.149
21
-123.597
0
LINE
8
BLACK
6
CONTINUOUS
10
169.772
20
-123.647
11
169.772
21
-126.597
0
LINE
8
BLACK
6
CONTINUOUS
10
169.772
20
-126.597
11
173.122
21
-126.597
0
LINE
8
BLACK
6
CONTINUOUS
10
173.122
20
-126.597
11
173.122
21
-123.647
0
LINE
8
BLACK
6
CONTINUOUS
10
173.122
20
-123.647
11
169.772
21
-123.647
0
LINE
8
BLACK
6
CONTINUOUS
10
273.159
20
-123.595
11
273.159
21
-123.595
0
LINE
8
BLACK
6
CONTINUOUS
10
273.159
20
-123.595
11
273.162
21
-123.595
0
LINE
8
BLACK
6
CONTINUOUS
10
273.162
20
-123.595
11
273.167
21
-123.597
0
LINE
8
BLACK
6
CONTINUOUS
10
273.167
20
-123.597
11
273.171
21
-123.599
0
LINE
8
BLACK
6
CONTINUOUS
10
273.171
20
-123.599
11
273.175
21
-123.602
0
LINE
8
BLACK
6
CONTINUOUS
10
273.175
20
-123.602
11
273.178
21
-123.606
0
LINE
8
BLACK
6
CONTINUOUS
10
273.178
20
-123.606
11
273.181
21
-123.61
0
LINE
8
BLACK
6
CONTINUOUS
10
273.181
20
-123.61
11
273.182
21
-123.615
0
LINE
8
BLACK
6
CONTINUOUS
10
273.182
20
-123.615
11
273.183
21
-123.62
0
LINE
8
BLACK
6
CONTINUOUS
10
273.183
20
-123.62
11
273.182
21
-123.621
0
LINE
8
BLACK
6
CONTINUOUS
10
273.182
20
-123.621
11
273.182
21
-126.619
0
LINE
8
BLACK
6
CONTINUOUS
10
273.182
20
-126.619
11
273.183
21
-126.62
0
LINE
8
BLACK
6
CONTINUOUS
10
273.183
20
-126.62
11
273.182
21
-126.621
0
LINE
8
BLACK
6
CONTINUOUS
10
273.182
20
-126.621
11
273.182
21
-126.621
0
LINE
8
BLACK
6
CONTINUOUS
10
273.182
20
-126.621
11
273.182
21
-126.625
0
LINE
8
BLACK
6
CONTINUOUS
10
273.182
20
-126.625
11
273.181
21
-126.63
0
LINE
8
BLACK
6
CONTINUOUS
10
273.181
20
-126.63
11
273.178
21
-126.634
0
LINE
8
BLACK
6
CONTINUOUS
10
273.178
20
-126.634
11
273.175
21
-126.638
0
LINE
8
BLACK
6
CONTINUOUS
10
273.175
20
-126.638
11
273.171
21
-126.641
0
LINE
8
BLACK
6
CONTINUOUS
10
273.171
20
-126.641
11
273.167
21
-126.643
0
LINE
8
BLACK
6
CONTINUOUS
10
273.167
20
-126.643
11
273.162
21
-126.645
0
LINE
8
BLACK
6
CONTINUOUS
10
273.162
20
-126.645
11
273.157
21
-126.645
0
LINE
8
BLACK
6
CONTINUOUS
10
273.157
20
-126.645
11
273.156
21
-126.645
0
LINE
8
BLACK
6
CONTINUOUS
10
273.156
20
-126.645
11
269.759
21
-126.645
0
LINE
8
BLACK
6
CONTINUOUS
10
269.759
20
-126.645
11
269.757
21
-126.645
0
LINE
8
BLACK
6
CONTINUOUS
10
269.757
20
-126.645
11
269.753
21
-126.645
0
LINE
8
BLACK
6
CONTINUOUS
10
269.753
20
-126.645
11
269.748
21
-126.643
0
LINE
8
BLACK
6
CONTINUOUS
10
269.748
20
-126.643
11
269.743
21
-126.641
0
LINE
8
BLACK
6
CONTINUOUS
10
269.743
20
-126.641
11
269.74
21
-126.638
0
LINE
8
BLACK
6
CONTINUOUS
10
269.74
20
-126.638
11
269.737
21
-126.634
0
LINE
8
BLACK
6
CONTINUOUS
10
269.737
20
-126.634
11
269.734
21
-126.63
0
LINE
8
BLACK
6
CONTINUOUS
10
269.734
20
-126.63
11
269.733
21
-126.625
0
LINE
8
BLACK
6
CONTINUOUS
10
269.733
20
-126.625
11
269.732
21
-126.62
0
LINE
8
BLACK
6
CONTINUOUS
10
269.732
20
-126.62
11
269.732
21
-126.619
0
LINE
8
BLACK
6
CONTINUOUS
10
269.732
20
-126.619
11
269.732
21
-123.621
0
LINE
8
BLACK
6
CONTINUOUS
10
269.732
20
-123.621
11
269.732
21
-123.62
0
LINE
8
BLACK
6
CONTINUOUS
10
269.732
20
-123.62
11
269.733
21
-123.615
0
LINE
8
BLACK
6
CONTINUOUS
10
269.733
20
-123.615
11
269.734
21
-123.61
0
LINE
8
BLACK
6
CONTINUOUS
10
269.734
20
-123.61
11
269.737
21
-123.606
0
LINE
8
BLACK
6
CONTINUOUS
10
269.737
20
-123.606
11
269.74
21
-123.602
0
LINE
8
BLACK
6
CONTINUOUS
10
269.74
20
-123.602
11
269.743
21
-123.599
0
LINE
8
BLACK
6
CONTINUOUS
10
269.743
20
-123.599
11
269.748
21
-123.597
0
LINE
8
BLACK
6
CONTINUOUS
10
269.748
20
-123.597
11
269.753
21
-123.595
0
LINE
8
BLACK
6
CONTINUOUS
10
269.753
20
-123.595
11
269.756
21
-123.595
0
LINE
8
BLACK
6
CONTINUOUS
10
269.756
20
-123.595
11
269.756
21
-123.595
0
LINE
8
BLACK
6
CONTINUOUS
10
269.756
20
-123.595
11
269.757
21
-123.595
0
LINE
8
BLACK
6
CONTINUOUS
10
269.757
20
-123.595
11
269.759
21
-123.595
0
LINE
8
BLACK
6
CONTINUOUS
10
269.759
20
-123.595
11
273.156
21
-123.595
0
LINE
8
BLACK
6
CONTINUOUS
10
273.156
20
-123.595
11
273.157
21
-123.595
0
LINE
8
BLACK
6
CONTINUOUS
10
273.157
20
-123.595
11
273.159
21
-123.595
0
LINE
8
BLACK
6
CONTINUOUS
10
269.782
20
-123.645
11
269.782
21
-126.595
0
LINE
8
BLACK
6
CONTINUOUS
10
269.782
20
-126.595
11
273.132
21
-126.595
0
LINE
8
BLACK
6
CONTINUOUS
10
273.132
20
-126.595
11
273.132
21
-123.645
0
LINE
8
BLACK
6
CONTINUOUS
10
273.132
20
-123.645
11
269.782
21
-123.645
0
LINE
8
BLACK
6
CONTINUOUS
10
249.345
20
-123.594
11
249.345
21
-123.594
0
LINE
8
BLACK
6
CONTINUOUS
10
249.345
20
-123.594
11
249.349
21
-123.594
0
LINE
8
BLACK
6
CONTINUOUS
10
249.349
20
-123.594
11
249.353
21
-123.596
0
LINE
8
BLACK
6
CONTINUOUS
10
249.353
20
-123.596
11
249.358
21
-123.598
0
LINE
8
BLACK
6
CONTINUOUS
10
249.358
20
-123.598
11
249.361
21
-123.601
0
LINE
8
BLACK
6
CONTINUOUS
10
249.361
20
-123.601
11
249.365
21
-123.605
0
LINE
8
BLACK
6
CONTINUOUS
10
249.365
20
-123.605
11
249.367
21
-123.609
0
LINE
8
BLACK
6
CONTINUOUS
10
249.367
20
-123.609
11
249.368
21
-123.614
0
LINE
8
BLACK
6
CONTINUOUS
10
249.368
20
-123.614
11
249.369
21
-123.619
0
LINE
8
BLACK
6
CONTINUOUS
10
249.369
20
-123.619
11
249.369
21
-123.62
0
LINE
8
BLACK
6
CONTINUOUS
10
249.369
20
-123.62
11
249.369
21
-126.618
0
LINE
8
BLACK
6
CONTINUOUS
10
249.369
20
-126.618
11
249.369
21
-126.619
0
LINE
8
BLACK
6
CONTINUOUS
10
249.369
20
-126.619
11
249.369
21
-126.62
0
LINE
8
BLACK
6
CONTINUOUS
10
249.369
20
-126.62
11
249.369
21
-126.62
0
LINE
8
BLACK
6
CONTINUOUS
10
249.369
20
-126.62
11
249.368
21
-126.624
0
LINE
8
BLACK
6
CONTINUOUS
10
249.368
20
-126.624
11
249.367
21
-126.628
0
LINE
8
BLACK
6
CONTINUOUS
10
249.367
20
-126.628
11
249.365
21
-126.633
0
LINE
8
BLACK
6
CONTINUOUS
10
249.365
20
-126.633
11
249.361
21
-126.637
0
LINE
8
BLACK
6
CONTINUOUS
10
249.361
20
-126.637
11
249.358
21
-126.64
0
LINE
8
BLACK
6
CONTINUOUS
10
249.358
20
-126.64
11
249.353
21
-126.642
0
LINE
8
BLACK
6
CONTINUOUS
10
249.353
20
-126.642
11
249.349
21
-126.643
0
LINE
8
BLACK
6
CONTINUOUS
10
249.349
20
-126.643
11
249.344
21
-126.644
0
LINE
8
BLACK
6
CONTINUOUS
10
249.344
20
-126.644
11
249.343
21
-126.644
0
LINE
8
BLACK
6
CONTINUOUS
10
249.343
20
-126.644
11
245.945
21
-126.644
0
LINE
8
BLACK
6
CONTINUOUS
10
245.945
20
-126.644
11
245.944
21
-126.644
0
LINE
8
BLACK
6
CONTINUOUS
10
245.944
20
-126.644
11
245.939
21
-126.643
0
LINE
8
BLACK
6
CONTINUOUS
10
245.939
20
-126.643
11
245.934
21
-126.642
0
LINE
8
BLACK
6
CONTINUOUS
10
245.934
20
-126.642
11
245.93
21
-126.64
0
LINE
8
BLACK
6
CONTINUOUS
10
245.93
20
-126.64
11
245.926
21
-126.637
0
LINE
8
BLACK
6
CONTINUOUS
10
245.926
20
-126.637
11
245.924
21
-126.634
0
LINE
8
BLACK
6
CONTINUOUS
10
245.924
20
-126.634
11
245.923
21
-126.633
0
LINE
8
BLACK
6
CONTINUOUS
10
245.923
20
-126.633
11
245.921
21
-126.628
0
LINE
8
BLACK
6
CONTINUOUS
10
245.921
20
-126.628
11
245.919
21
-126.624
0
LINE
8
BLACK
6
CONTINUOUS
10
245.919
20
-126.624
11
245.919
21
-126.619
0
LINE
8
BLACK
6
CONTINUOUS
10
245.919
20
-126.619
11
245.919
21
-126.618
0
LINE
8
BLACK
6
CONTINUOUS
10
245.919
20
-126.618
11
245.919
21
-123.62
0
LINE
8
BLACK
6
CONTINUOUS
10
245.919
20
-123.62
11
245.919
21
-123.619
0
LINE
8
BLACK
6
CONTINUOUS
10
245.919
20
-123.619
11
245.919
21
-123.614
0
LINE
8
BLACK
6
CONTINUOUS
10
245.919
20
-123.614
11
245.921
21
-123.609
0
LINE
8
BLACK
6
CONTINUOUS
10
245.921
20
-123.609
11
245.923
21
-123.605
0
LINE
8
BLACK
6
CONTINUOUS
10
245.923
20
-123.605
11
245.926
21
-123.601
0
LINE
8
BLACK
6
CONTINUOUS
10
245.926
20
-123.601
11
245.93
21
-123.598
0
LINE
8
BLACK
6
CONTINUOUS
10
245.93
20
-123.598
11
245.934
21
-123.596
0
LINE
8
BLACK
6
CONTINUOUS
10
245.934
20
-123.596
11
245.939
21
-123.594
0
LINE
8
BLACK
6
CONTINUOUS
10
245.939
20
-123.594
11
245.943
21
-123.594
0
LINE
8
BLACK
6
CONTINUOUS
10
245.943
20
-123.594
11
245.943
21
-123.594
0
LINE
8
BLACK
6
CONTINUOUS
10
245.943
20
-123.594
11
245.944
21
-123.594
0
LINE
8
BLACK
6
CONTINUOUS
10
245.944
20
-123.594
11
245.945
21
-123.594
0
LINE
8
BLACK
6
CONTINUOUS
10
245.945
20
-123.594
11
249.343
21
-123.594
0
LINE
8
BLACK
6
CONTINUOUS
10
249.343
20
-123.594
11
249.344
21
-123.594
0
LINE
8
BLACK
6
CONTINUOUS
10
249.344
20
-123.594
11
249.345
21
-123.594
0
LINE
8
BLACK
6
CONTINUOUS
10
245.969
20
-123.644
11
245.969
21
-126.594
0
LINE
8
BLACK
6
CONTINUOUS
10
245.969
20
-126.594
11
249.319
21
-126.594
0
LINE
8
BLACK
6
CONTINUOUS
10
249.319
20
-126.594
11
249.319
21
-123.644
0
LINE
8
BLACK
6
CONTINUOUS
10
249.319
20
-123.644
11
245.969
21
-123.644
0
LINE
8
BLACK
6
CONTINUOUS
10
230.299
20
-121.216
11
230.299
21
-121.216
0
LINE
8
BLACK
6
CONTINUOUS
10
230.299
20
-121.216
11
230.302
21
-121.217
0
LINE
8
BLACK
6
CONTINUOUS
10
230.302
20
-121.217
11
230.307
21
-121.218
0
LINE
8
BLACK
6
CONTINUOUS
10
230.307
20
-121.218
11
230.311
21
-121.22
0
LINE
8
BLACK
6
CONTINUOUS
10
230.311
20
-121.22
11
230.315
21
-121.223
0
LINE
8
BLACK
6
CONTINUOUS
10
230.315
20
-121.223
11
230.318
21
-121.227
0
LINE
8
BLACK
6
CONTINUOUS
10
230.318
20
-121.227
11
230.321
21
-121.232
0
LINE
8
BLACK
6
CONTINUOUS
10
230.321
20
-121.232
11
230.322
21
-121.236
0
LINE
8
BLACK
6
CONTINUOUS
10
230.322
20
-121.236
11
230.323
21
-121.241
0
LINE
8
BLACK
6
CONTINUOUS
10
230.323
20
-121.241
11
230.322
21
-121.242
0
LINE
8
BLACK
6
CONTINUOUS
10
230.322
20
-121.242
11
230.322
21
-124.24
0
LINE
8
BLACK
6
CONTINUOUS
10
230.322
20
-124.24
11
230.323
21
-124.241
0
LINE
8
BLACK
6
CONTINUOUS
10
230.323
20
-124.241
11
230.322
21
-124.242
0
LINE
8
BLACK
6
CONTINUOUS
10
230.322
20
-124.242
11
230.322
21
-124.242
0
LINE
8
BLACK
6
CONTINUOUS
10
230.322
20
-124.242
11
230.322
21
-124.246
0
LINE
8
BLACK
6
CONTINUOUS
10
230.322
20
-124.246
11
230.321
21
-124.251
0
LINE
8
BLACK
6
CONTINUOUS
10
230.321
20
-124.251
11
230.318
21
-124.255
0
LINE
8
BLACK
6
CONTINUOUS
10
230.318
20
-124.255
11
230.315
21
-124.259
0
LINE
8
BLACK
6
CONTINUOUS
10
230.315
20
-124.259
11
230.311
21
-124.262
0
LINE
8
BLACK
6
CONTINUOUS
10
230.311
20
-124.262
11
230.307
21
-124.264
0
LINE
8
BLACK
6
CONTINUOUS
10
230.307
20
-124.264
11
230.302
21
-124.266
0
LINE
8
BLACK
6
CONTINUOUS
10
230.302
20
-124.266
11
230.297
21
-124.266
0
LINE
8
BLACK
6
CONTINUOUS
10
230.297
20
-124.266
11
230.296
21
-124.266
0
LINE
8
BLACK
6
CONTINUOUS
10
230.296
20
-124.266
11
226.899
21
-124.266
0
LINE
8
BLACK
6
CONTINUOUS
10
226.899
20
-124.266
11
226.897
21
-124.266
0
LINE
8
BLACK
6
CONTINUOUS
10
226.897
20
-124.266
11
226.893
21
-124.266
0
LINE
8
BLACK
6
CONTINUOUS
10
226.893
20
-124.266
11
226.888
21
-124.264
0
LINE
8
BLACK
6
CONTINUOUS
10
226.888
20
-124.264
11
226.884
21
-124.262
0
LINE
8
BLACK
6
CONTINUOUS
10
226.884
20
-124.262
11
226.88
21
-124.259
0
LINE
8
BLACK
6
CONTINUOUS
10
226.88
20
-124.259
11
226.877
21
-124.255
0
LINE
8
BLACK
6
CONTINUOUS
10
226.877
20
-124.255
11
226.874
21
-124.251
0
LINE
8
BLACK
6
CONTINUOUS
10
226.874
20
-124.251
11
226.873
21
-124.246
0
LINE
8
BLACK
6
CONTINUOUS
10
226.873
20
-124.246
11
226.872
21
-124.241
0
LINE
8
BLACK
6
CONTINUOUS
10
226.872
20
-124.241
11
226.872
21
-124.24
0
LINE
8
BLACK
6
CONTINUOUS
10
226.872
20
-124.24
11
226.872
21
-121.242
0
LINE
8
BLACK
6
CONTINUOUS
10
226.872
20
-121.242
11
226.872
21
-121.241
0
LINE
8
BLACK
6
CONTINUOUS
10
226.872
20
-121.241
11
226.873
21
-121.236
0
LINE
8
BLACK
6
CONTINUOUS
10
226.873
20
-121.236
11
226.874
21
-121.232
0
LINE
8
BLACK
6
CONTINUOUS
10
226.874
20
-121.232
11
226.877
21
-121.227
0
LINE
8
BLACK
6
CONTINUOUS
10
226.877
20
-121.227
11
226.88
21
-121.223
0
LINE
8
BLACK
6
CONTINUOUS
10
226.88
20
-121.223
11
226.884
21
-121.22
0
LINE
8
BLACK
6
CONTINUOUS
10
226.884
20
-121.22
11
226.888
21
-121.218
0
LINE
8
BLACK
6
CONTINUOUS
10
226.888
20
-121.218
11
226.893
21
-121.217
0
LINE
8
BLACK
6
CONTINUOUS
10
226.893
20
-121.217
11
226.896
21
-121.216
0
LINE
8
BLACK
6
CONTINUOUS
10
226.896
20
-121.216
11
226.896
21
-121.216
0
LINE
8
BLACK
6
CONTINUOUS
10
226.896
20
-121.216
11
226.897
21
-121.216
0
LINE
8
BLACK
6
CONTINUOUS
10
226.897
20
-121.216
11
226.899
21
-121.216
0
LINE
8
BLACK
6
CONTINUOUS
10
226.899
20
-121.216
11
230.296
21
-121.216
0
LINE
8
BLACK
6
CONTINUOUS
10
230.296
20
-121.216
11
230.297
21
-121.216
0
LINE
8
BLACK
6
CONTINUOUS
10
230.297
20
-121.216
11
230.299
21
-121.216
0
LINE
8
BLACK
6
CONTINUOUS
10
226.922
20
-121.266
11
226.922
21
-124.216
0
LINE
8
BLACK
6
CONTINUOUS
10
226.922
20
-124.216
11
230.272
21
-124.216
0
LINE
8
BLACK
6
CONTINUOUS
10
230.272
20
-124.216
11
230.272
21
-121.266
0
LINE
8
BLACK
6
CONTINUOUS
10
230.272
20
-121.266
11
226.922
21
-121.266
0
LINE
8
BLACK
6
CONTINUOUS
10
192.199
20
-121.216
11
192.199
21
-121.216
0
LINE
8
BLACK
6
CONTINUOUS
10
192.199
20
-121.216
11
192.202
21
-121.217
0
LINE
8
BLACK
6
CONTINUOUS
10
192.202
20
-121.217
11
192.207
21
-121.218
0
LINE
8
BLACK
6
CONTINUOUS
10
192.207
20
-121.218
11
192.211
21
-121.22
0
LINE
8
BLACK
6
CONTINUOUS
10
192.211
20
-121.22
11
192.215
21
-121.223
0
LINE
8
BLACK
6
CONTINUOUS
10
192.215
20
-121.223
11
192.218
21
-121.227
0
LINE
8
BLACK
6
CONTINUOUS
10
192.218
20
-121.227
11
192.221
21
-121.232
0
LINE
8
BLACK
6
CONTINUOUS
10
192.221
20
-121.232
11
192.222
21
-121.236
0
LINE
8
BLACK
6
CONTINUOUS
10
192.222
20
-121.236
11
192.223
21
-121.241
0
LINE
8
BLACK
6
CONTINUOUS
10
192.223
20
-121.241
11
192.222
21
-121.242
0
LINE
8
BLACK
6
CONTINUOUS
10
192.222
20
-121.242
11
192.222
21
-124.24
0
LINE
8
BLACK
6
CONTINUOUS
10
192.222
20
-124.24
11
192.223
21
-124.241
0
LINE
8
BLACK
6
CONTINUOUS
10
192.223
20
-124.241
11
192.222
21
-124.242
0
LINE
8
BLACK
6
CONTINUOUS
10
192.222
20
-124.242
11
192.222
21
-124.242
0
LINE
8
BLACK
6
CONTINUOUS
10
192.222
20
-124.242
11
192.222
21
-124.246
0
LINE
8
BLACK
6
CONTINUOUS
10
192.222
20
-124.246
11
192.221
21
-124.251
0
LINE
8
BLACK
6
CONTINUOUS
10
192.221
20
-124.251
11
192.218
21
-124.255
0
LINE
8
BLACK
6
CONTINUOUS
10
192.218
20
-124.255
11
192.215
21
-124.259
0
LINE
8
BLACK
6
CONTINUOUS
10
192.215
20
-124.259
11
192.211
21
-124.262
0
LINE
8
BLACK
6
CONTINUOUS
10
192.211
20
-124.262
11
192.207
21
-124.264
0
LINE
8
BLACK
6
CONTINUOUS
10
192.207
20
-124.264
11
192.202
21
-124.266
0
LINE
8
BLACK
6
CONTINUOUS
10
192.202
20
-124.266
11
192.197
21
-124.266
0
LINE
8
BLACK
6
CONTINUOUS
10
192.197
20
-124.266
11
192.196
21
-124.266
0
LINE
8
BLACK
6
CONTINUOUS
10
192.196
20
-124.266
11
188.799
21
-124.266
0
LINE
8
BLACK
6
CONTINUOUS
10
188.799
20
-124.266
11
188.797
21
-124.266
0
LINE
8
BLACK
6
CONTINUOUS
10
188.797
20
-124.266
11
188.793
21
-124.266
0
LINE
8
BLACK
6
CONTINUOUS
10
188.793
20
-124.266
11
188.788
21
-124.264
0
LINE
8
BLACK
6
CONTINUOUS
10
188.788
20
-124.264
11
188.784
21
-124.262
0
LINE
8
BLACK
6
CONTINUOUS
10
188.784
20
-124.262
11
188.78
21
-124.259
0
LINE
8
BLACK
6
CONTINUOUS
10
188.78
20
-124.259
11
188.777
21
-124.255
0
LINE
8
BLACK
6
CONTINUOUS
10
188.777
20
-124.255
11
188.774
21
-124.251
0
LINE
8
BLACK
6
CONTINUOUS
10
188.774
20
-124.251
11
188.773
21
-124.246
0
LINE
8
BLACK
6
CONTINUOUS
10
188.773
20
-124.246
11
188.772
21
-124.241
0
LINE
8
BLACK
6
CONTINUOUS
10
188.772
20
-124.241
11
188.772
21
-124.24
0
LINE
8
BLACK
6
CONTINUOUS
10
188.772
20
-124.24
11
188.772
21
-121.242
0
LINE
8
BLACK
6
CONTINUOUS
10
188.772
20
-121.242
11
188.772
21
-121.241
0
LINE
8
BLACK
6
CONTINUOUS
10
188.772
20
-121.241
11
188.773
21
-121.236
0
LINE
8
BLACK
6
CONTINUOUS
10
188.773
20
-121.236
11
188.774
21
-121.232
0
LINE
8
BLACK
6
CONTINUOUS
10
188.774
20
-121.232
11
188.777
21
-121.227
0
LINE
8
BLACK
6
CONTINUOUS
10
188.777
20
-121.227
11
188.78
21
-121.223
0
LINE
8
BLACK
6
CONTINUOUS
10
188.78
20
-121.223
11
188.784
21
-121.22
0
LINE
8
BLACK
6
CONTINUOUS
10
188.784
20
-121.22
11
188.788
21
-121.218
0
LINE
8
BLACK
6
CONTINUOUS
10
188.788
20
-121.218
11
188.793
21
-121.217
0
LINE
8
BLACK
6
CONTINUOUS
10
188.793
20
-121.217
11
188.796
21
-121.216
0
LINE
8
BLACK
6
CONTINUOUS
10
188.796
20
-121.216
11
188.796
21
-121.216
0
LINE
8
BLACK
6
CONTINUOUS
10
188.796
20
-121.216
11
188.797
21
-121.216
0
LINE
8
BLACK
6
CONTINUOUS
10
188.797
20
-121.216
11
188.799
21
-121.216
0
LINE
8
BLACK
6
CONTINUOUS
10
188.799
20
-121.216
11
192.196
21
-121.216
0
LINE
8
BLACK
6
CONTINUOUS
10
192.196
20
-121.216
11
192.197
21
-121.216
0
LINE
8
BLACK
6
CONTINUOUS
10
192.197
20
-121.216
11
192.199
21
-121.216
0
LINE
8
BLACK
6
CONTINUOUS
10
188.822
20
-121.266
11
188.822
21
-124.216
0
LINE
8
BLACK
6
CONTINUOUS
10
188.822
20
-124.216
11
192.172
21
-124.216
0
LINE
8
BLACK
6
CONTINUOUS
10
192.172
20
-124.216
11
192.172
21
-121.266
0
LINE
8
BLACK
6
CONTINUOUS
10
192.172
20
-121.266
11
188.822
21
-121.266
0
LINE
8
BLACK
6
CONTINUOUS
10
154.099
20
-118.835
11
154.099
21
-118.835
0
LINE
8
BLACK
6
CONTINUOUS
10
154.099
20
-118.835
11
154.102
21
-118.835
0
LINE
8
BLACK
6
CONTINUOUS
10
154.102
20
-118.835
11
154.107
21
-118.837
0
LINE
8
BLACK
6
CONTINUOUS
10
154.107
20
-118.837
11
154.111
21
-118.839
0
LINE
8
BLACK
6
CONTINUOUS
10
154.111
20
-118.839
11
154.115
21
-118.842
0
LINE
8
BLACK
6
CONTINUOUS
10
154.115
20
-118.842
11
154.118
21
-118.846
0
LINE
8
BLACK
6
CONTINUOUS
10
154.118
20
-118.846
11
154.121
21
-118.85
0
LINE
8
BLACK
6
CONTINUOUS
10
154.121
20
-118.85
11
154.122
21
-118.855
0
LINE
8
BLACK
6
CONTINUOUS
10
154.122
20
-118.855
11
154.123
21
-118.86
0
LINE
8
BLACK
6
CONTINUOUS
10
154.123
20
-118.86
11
154.122
21
-118.861
0
LINE
8
BLACK
6
CONTINUOUS
10
154.122
20
-118.861
11
154.122
21
-121.859
0
LINE
8
BLACK
6
CONTINUOUS
10
154.122
20
-121.859
11
154.123
21
-121.86
0
LINE
8
BLACK
6
CONTINUOUS
10
154.123
20
-121.86
11
154.122
21
-121.861
0
LINE
8
BLACK
6
CONTINUOUS
10
154.122
20
-121.861
11
154.122
21
-121.861
0
LINE
8
BLACK
6
CONTINUOUS
10
154.122
20
-121.861
11
154.122
21
-121.865
0
LINE
8
BLACK
6
CONTINUOUS
10
154.122
20
-121.865
11
154.121
21
-121.87
0
LINE
8
BLACK
6
CONTINUOUS
10
154.121
20
-121.87
11
154.118
21
-121.874
0
LINE
8
BLACK
6
CONTINUOUS
10
154.118
20
-121.874
11
154.115
21
-121.878
0
LINE
8
BLACK
6
CONTINUOUS
10
154.115
20
-121.878
11
154.111
21
-121.881
0
LINE
8
BLACK
6
CONTINUOUS
10
154.111
20
-121.881
11
154.107
21
-121.883
0
LINE
8
BLACK
6
CONTINUOUS
10
154.107
20
-121.883
11
154.102
21
-121.885
0
LINE
8
BLACK
6
CONTINUOUS
10
154.102
20
-121.885
11
154.097
21
-121.885
0
LINE
8
BLACK
6
CONTINUOUS
10
154.097
20
-121.885
11
154.096
21
-121.885
0
LINE
8
BLACK
6
CONTINUOUS
10
154.096
20
-121.885
11
150.699
21
-121.885
0
LINE
8
BLACK
6
CONTINUOUS
10
150.699
20
-121.885
11
150.697
21
-121.885
0
LINE
8
BLACK
6
CONTINUOUS
10
150.697
20
-121.885
11
150.693
21
-121.885
0
LINE
8
BLACK
6
CONTINUOUS
10
150.693
20
-121.885
11
150.688
21
-121.883
0
LINE
8
BLACK
6
CONTINUOUS
10
150.688
20
-121.883
11
150.684
21
-121.881
0
LINE
8
BLACK
6
CONTINUOUS
10
150.684
20
-121.881
11
150.68
21
-121.878
0
LINE
8
BLACK
6
CONTINUOUS
10
150.68
20
-121.878
11
150.677
21
-121.874
0
LINE
8
BLACK
6
CONTINUOUS
10
150.677
20
-121.874
11
150.674
21
-121.87
0
LINE
8
BLACK
6
CONTINUOUS
10
150.674
20
-121.87
11
150.673
21
-121.865
0
LINE
8
BLACK
6
CONTINUOUS
10
150.673
20
-121.865
11
150.672
21
-121.86
0
LINE
8
BLACK
6
CONTINUOUS
10
150.672
20
-121.86
11
150.672
21
-121.859
0
LINE
8
BLACK
6
CONTINUOUS
10
150.672
20
-121.859
11
150.672
21
-118.861
0
LINE
8
BLACK
6
CONTINUOUS
10
150.672
20
-118.861
11
150.672
21
-118.86
0
LINE
8
BLACK
6
CONTINUOUS
10
150.672
20
-118.86
11
150.673
21
-118.855
0
LINE
8
BLACK
6
CONTINUOUS
10
150.673
20
-118.855
11
150.674
21
-118.85
0
LINE
8
BLACK
6
CONTINUOUS
10
150.674
20
-118.85
11
150.677
21
-118.846
0
LINE
8
BLACK
6
CONTINUOUS
10
150.677
20
-118.846
11
150.68
21
-118.842
0
LINE
8
BLACK
6
CONTINUOUS
10
150.68
20
-118.842
11
150.684
21
-118.839
0
LINE
8
BLACK
6
CONTINUOUS
10
150.684
20
-118.839
11
150.688
21
-118.837
0
LINE
8
BLACK
6
CONTINUOUS
10
150.688
20
-118.837
11
150.693
21
-118.835
0
LINE
8
BLACK
6
CONTINUOUS
10
150.693
20
-118.835
11
150.696
21
-118.835
0
LINE
8
BLACK
6
CONTINUOUS
10
150.696
20
-118.835
11
150.696
21
-118.835
0
LINE
8
BLACK
6
CONTINUOUS
10
150.696
20
-118.835
11
150.697
21
-118.835
0
LINE
8
BLACK
6
CONTINUOUS
10
150.697
20
-118.835
11
150.699
21
-118.835
0
LINE
8
BLACK
6
CONTINUOUS
10
150.699
20
-118.835
11
154.096
21
-118.835
0
LINE
8
BLACK
6
CONTINUOUS
10
154.096
20
-118.835
11
154.097
21
-118.835
0
LINE
8
BLACK
6
CONTINUOUS
10
154.097
20
-118.835
11
154.099
21
-118.835
0
LINE
8
BLACK
6
CONTINUOUS
10
150.722
20
-118.885
11
150.722
21
-121.835
0
LINE
8
BLACK
6
CONTINUOUS
10
150.722
20
-121.835
11
154.072
21
-121.835
0
LINE
8
BLACK
6
CONTINUOUS
10
154.072
20
-121.835
11
154.072
21
-118.885
0
LINE
8
BLACK
6
CONTINUOUS
10
154.072
20
-118.885
11
150.722
21
-118.885
0
LINE
8
BLACK
6
CONTINUOUS
10
211.249
20
-118.835
11
211.249
21
-118.835
0
LINE
8
BLACK
6
CONTINUOUS
10
211.249
20
-118.835
11
211.252
21
-118.835
0
LINE
8
BLACK
6
CONTINUOUS
10
211.252
20
-118.835
11
211.257
21
-118.837
0
LINE
8
BLACK
6
CONTINUOUS
10
211.257
20
-118.837
11
211.261
21
-118.839
0
LINE
8
BLACK
6
CONTINUOUS
10
211.261
20
-118.839
11
211.265
21
-118.842
0
LINE
8
BLACK
6
CONTINUOUS
10
211.265
20
-118.842
11
211.268
21
-118.846
0
LINE
8
BLACK
6
CONTINUOUS
10
211.268
20
-118.846
11
211.271
21
-118.85
0
LINE
8
BLACK
6
CONTINUOUS
10
211.271
20
-118.85
11
211.272
21
-118.855
0
LINE
8
BLACK
6
CONTINUOUS
10
211.272
20
-118.855
11
211.273
21
-118.86
0
LINE
8
BLACK
6
CONTINUOUS
10
211.273
20
-118.86
11
211.272
21
-118.861
0
LINE
8
BLACK
6
CONTINUOUS
10
211.272
20
-118.861
11
211.272
21
-121.859
0
LINE
8
BLACK
6
CONTINUOUS
10
211.272
20
-121.859
11
211.273
21
-121.86
0
LINE
8
BLACK
6
CONTINUOUS
10
211.273
20
-121.86
11
211.272
21
-121.861
0
LINE
8
BLACK
6
CONTINUOUS
10
211.272
20
-121.861
11
211.272
21
-121.861
0
LINE
8
BLACK
6
CONTINUOUS
10
211.272
20
-121.861
11
211.272
21
-121.865
0
LINE
8
BLACK
6
CONTINUOUS
10
211.272
20
-121.865
11
211.271
21
-121.87
0
LINE
8
BLACK
6
CONTINUOUS
10
211.271
20
-121.87
11
211.268
21
-121.874
0
LINE
8
BLACK
6
CONTINUOUS
10
211.268
20
-121.874
11
211.265
21
-121.878
0
LINE
8
BLACK
6
CONTINUOUS
10
211.265
20
-121.878
11
211.261
21
-121.881
0
LINE
8
BLACK
6
CONTINUOUS
10
211.261
20
-121.881
11
211.257
21
-121.883
0
LINE
8
BLACK
6
CONTINUOUS
10
211.257
20
-121.883
11
211.252
21
-121.885
0
LINE
8
BLACK
6
CONTINUOUS
10
211.252
20
-121.885
11
211.247
21
-121.885
0
LINE
8
BLACK
6
CONTINUOUS
10
211.247
20
-121.885
11
211.246
21
-121.885
0
LINE
8
BLACK
6
CONTINUOUS
10
211.246
20
-121.885
11
207.849
21
-121.885
0
LINE
8
BLACK
6
CONTINUOUS
10
207.849
20
-121.885
11
207.847
21
-121.885
0
LINE
8
BLACK
6
CONTINUOUS
10
207.847
20
-121.885
11
207.843
21
-121.885
0
LINE
8
BLACK
6
CONTINUOUS
10
207.843
20
-121.885
11
207.838
21
-121.883
0
LINE
8
BLACK
6
CONTINUOUS
10
207.838
20
-121.883
11
207.834
21
-121.881
0
LINE
8
BLACK
6
CONTINUOUS
10
207.834
20
-121.881
11
207.83
21
-121.878
0
LINE
8
BLACK
6
CONTINUOUS
10
207.83
20
-121.878
11
207.827
21
-121.874
0
LINE
8
BLACK
6
CONTINUOUS
10
207.827
20
-121.874
11
207.824
21
-121.87
0
LINE
8
BLACK
6
CONTINUOUS
10
207.824
20
-121.87
11
207.823
21
-121.865
0
LINE
8
BLACK
6
CONTINUOUS
10
207.823
20
-121.865
11
207.822
21
-121.86
0
LINE
8
BLACK
6
CONTINUOUS
10
207.822
20
-121.86
11
207.822
21
-121.859
0
LINE
8
BLACK
6
CONTINUOUS
10
207.822
20
-121.859
11
207.822
21
-118.861
0
LINE
8
BLACK
6
CONTINUOUS
10
207.822
20
-118.861
11
207.822
21
-118.86
0
LINE
8
BLACK
6
CONTINUOUS
10
207.822
20
-118.86
11
207.823
21
-118.855
0
LINE
8
BLACK
6
CONTINUOUS
10
207.823
20
-118.855
11
207.824
21
-118.85
0
LINE
8
BLACK
6
CONTINUOUS
10
207.824
20
-118.85
11
207.827
21
-118.846
0
LINE
8
BLACK
6
CONTINUOUS
10
207.827
20
-118.846
11
207.83
21
-118.842
0
LINE
8
BLACK
6
CONTINUOUS
10
207.83
20
-118.842
11
207.834
21
-118.839
0
LINE
8
BLACK
6
CONTINUOUS
10
207.834
20
-118.839
11
207.838
21
-118.837
0
LINE
8
BLACK
6
CONTINUOUS
10
207.838
20
-118.837
11
207.843
21
-118.835
0
LINE
8
BLACK
6
CONTINUOUS
10
207.843
20
-118.835
11
207.846
21
-118.835
0
LINE
8
BLACK
6
CONTINUOUS
10
207.846
20
-118.835
11
207.846
21
-118.835
0
LINE
8
BLACK
6
CONTINUOUS
10
207.846
20
-118.835
11
207.847
21
-118.835
0
LINE
8
BLACK
6
CONTINUOUS
10
207.847
20
-118.835
11
207.849
21
-118.835
0
LINE
8
BLACK
6
CONTINUOUS
10
207.849
20
-118.835
11
211.246
21
-118.835
0
LINE
8
BLACK
6
CONTINUOUS
10
211.246
20
-118.835
11
211.247
21
-118.835
0
LINE
8
BLACK
6
CONTINUOUS
10
211.247
20
-118.835
11
211.249
21
-118.835
0
LINE
8
BLACK
6
CONTINUOUS
10
207.872
20
-118.885
11
207.872
21
-121.835
0
LINE
8
BLACK
6
CONTINUOUS
10
207.872
20
-121.835
11
211.222
21
-121.835
0
LINE
8
BLACK
6
CONTINUOUS
10
211.222
20
-121.835
11
211.222
21
-118.885
0
LINE
8
BLACK
6
CONTINUOUS
10
211.222
20
-118.885
11
207.872
21
-118.885
0
LINE
8
BLACK
6
CONTINUOUS
10
173.147
20
-104.546
11
173.147
21
-104.546
0
LINE
8
BLACK
6
CONTINUOUS
10
173.147
20
-104.546
11
173.151
21
-104.547
0
LINE
8
BLACK
6
CONTINUOUS
10
173.151
20
-104.547
11
173.156
21
-104.548
0
LINE
8
BLACK
6
CONTINUOUS
10
173.156
20
-104.548
11
173.16
21
-104.55
0
LINE
8
BLACK
6
CONTINUOUS
10
173.16
20
-104.55
11
173.164
21
-104.554
0
LINE
8
BLACK
6
CONTINUOUS
10
173.164
20
-104.554
11
173.167
21
-104.557
0
LINE
8
BLACK
6
CONTINUOUS
10
173.167
20
-104.557
11
173.169
21
-104.562
0
LINE
8
BLACK
6
CONTINUOUS
10
173.169
20
-104.562
11
173.171
21
-104.566
0
LINE
8
BLACK
6
CONTINUOUS
10
173.171
20
-104.566
11
173.171
21
-104.571
0
LINE
8
BLACK
6
CONTINUOUS
10
173.171
20
-104.571
11
173.171
21
-104.573
0
LINE
8
BLACK
6
CONTINUOUS
10
173.171
20
-104.573
11
173.171
21
-107.57
0
LINE
8
BLACK
6
CONTINUOUS
10
173.171
20
-107.57
11
173.171
21
-107.571
0
LINE
8
BLACK
6
CONTINUOUS
10
173.171
20
-107.571
11
173.171
21
-107.573
0
LINE
8
BLACK
6
CONTINUOUS
10
173.171
20
-107.573
11
173.171
21
-107.573
0
LINE
8
BLACK
6
CONTINUOUS
10
173.171
20
-107.573
11
173.171
21
-107.576
0
LINE
8
BLACK
6
CONTINUOUS
10
173.171
20
-107.576
11
173.169
21
-107.581
0
LINE
8
BLACK
6
CONTINUOUS
10
173.169
20
-107.581
11
173.167
21
-107.585
0
LINE
8
BLACK
6
CONTINUOUS
10
173.167
20
-107.585
11
173.164
21
-107.589
0
LINE
8
BLACK
6
CONTINUOUS
10
173.164
20
-107.589
11
173.16
21
-107.592
0
LINE
8
BLACK
6
CONTINUOUS
10
173.16
20
-107.592
11
173.156
21
-107.595
0
LINE
8
BLACK
6
CONTINUOUS
10
173.156
20
-107.595
11
173.151
21
-107.596
0
LINE
8
BLACK
6
CONTINUOUS
10
173.151
20
-107.596
11
173.146
21
-107.596
0
LINE
8
BLACK
6
CONTINUOUS
10
173.146
20
-107.596
11
173.145
21
-107.596
0
LINE
8
BLACK
6
CONTINUOUS
10
173.145
20
-107.596
11
169.747
21
-107.596
0
LINE
8
BLACK
6
CONTINUOUS
10
169.747
20
-107.596
11
169.746
21
-107.596
0
LINE
8
BLACK
6
CONTINUOUS
10
169.746
20
-107.596
11
169.741
21
-107.596
0
LINE
8
BLACK
6
CONTINUOUS
10
169.741
20
-107.596
11
169.737
21
-107.595
0
LINE
8
BLACK
6
CONTINUOUS
10
169.737
20
-107.595
11
169.732
21
-107.592
0
LINE
8
BLACK
6
CONTINUOUS
10
169.732
20
-107.592
11
169.728
21
-107.589
0
LINE
8
BLACK
6
CONTINUOUS
10
169.728
20
-107.589
11
169.725
21
-107.585
0
LINE
8
BLACK
6
CONTINUOUS
10
169.725
20
-107.585
11
169.723
21
-107.581
0
LINE
8
BLACK
6
CONTINUOUS
10
169.723
20
-107.581
11
169.722
21
-107.576
0
LINE
8
BLACK
6
CONTINUOUS
10
169.722
20
-107.576
11
169.721
21
-107.571
0
LINE
8
BLACK
6
CONTINUOUS
10
169.721
20
-107.571
11
169.721
21
-107.57
0
LINE
8
BLACK
6
CONTINUOUS
10
169.721
20
-107.57
11
169.721
21
-104.573
0
LINE
8
BLACK
6
CONTINUOUS
10
169.721
20
-104.573
11
169.721
21
-104.571
0
LINE
8
BLACK
6
CONTINUOUS
10
169.721
20
-104.571
11
169.722
21
-104.566
0
LINE
8
BLACK
6
CONTINUOUS
10
169.722
20
-104.566
11
169.723
21
-104.562
0
LINE
8
BLACK
6
CONTINUOUS
10
169.723
20
-104.562
11
169.725
21
-104.557
0
LINE
8
BLACK
6
CONTINUOUS
10
169.725
20
-104.557
11
169.728
21
-104.554
0
LINE
8
BLACK
6
CONTINUOUS
10
169.728
20
-104.554
11
169.732
21
-104.55
0
LINE
8
BLACK
6
CONTINUOUS
10
169.732
20
-104.55
11
169.737
21
-104.548
0
LINE
8
BLACK
6
CONTINUOUS
10
169.737
20
-104.548
11
169.741
21
-104.547
0
LINE
8
BLACK
6
CONTINUOUS
10
169.741
20
-104.547
11
169.745
21
-104.546
0
LINE
8
BLACK
6
CONTINUOUS
10
169.745
20
-104.546
11
169.745
21
-104.546
0
LINE
8
BLACK
6
CONTINUOUS
10
169.745
20
-104.546
11
169.746
21
-104.546
0
LINE
8
BLACK
6
CONTINUOUS
10
169.746
20
-104.546
11
169.747
21
-104.546
0
LINE
8
BLACK
6
CONTINUOUS
10
169.747
20
-104.546
11
173.145
21
-104.546
0
LINE
8
BLACK
6
CONTINUOUS
10
173.145
20
-104.546
11
173.146
21
-104.546
0
LINE
8
BLACK
6
CONTINUOUS
10
173.146
20
-104.546
11
173.147
21
-104.546
0
LINE
8
BLACK
6
CONTINUOUS
10
169.771
20
-104.596
11
169.771
21
-107.546
0
LINE
8
BLACK
6
CONTINUOUS
10
169.771
20
-107.546
11
173.121
21
-107.546
0
LINE
8
BLACK
6
CONTINUOUS
10
173.121
20
-107.546
11
173.121
21
-104.596
0
LINE
8
BLACK
6
CONTINUOUS
10
173.121
20
-104.596
11
169.771
21
-104.596
0
LINE
8
BLACK
6
CONTINUOUS
10
249.347
20
-104.546
11
249.347
21
-104.546
0
LINE
8
BLACK
6
CONTINUOUS
10
249.347
20
-104.546
11
249.351
21
-104.547
0
LINE
8
BLACK
6
CONTINUOUS
10
249.351
20
-104.547
11
249.356
21
-104.548
0
LINE
8
BLACK
6
CONTINUOUS
10
249.356
20
-104.548
11
249.36
21
-104.55
0
LINE
8
BLACK
6
CONTINUOUS
10
249.36
20
-104.55
11
249.364
21
-104.554
0
LINE
8
BLACK
6
CONTINUOUS
10
249.364
20
-104.554
11
249.367
21
-104.557
0
LINE
8
BLACK
6
CONTINUOUS
10
249.367
20
-104.557
11
249.369
21
-104.562
0
LINE
8
BLACK
6
CONTINUOUS
10
249.369
20
-104.562
11
249.371
21
-104.566
0
LINE
8
BLACK
6
CONTINUOUS
10
249.371
20
-104.566
11
249.371
21
-104.571
0
LINE
8
BLACK
6
CONTINUOUS
10
249.371
20
-104.571
11
249.371
21
-104.573
0
LINE
8
BLACK
6
CONTINUOUS
10
249.371
20
-104.573
11
249.371
21
-107.57
0
LINE
8
BLACK
6
CONTINUOUS
10
249.371
20
-107.57
11
249.371
21
-107.571
0
LINE
8
BLACK
6
CONTINUOUS
10
249.371
20
-107.571
11
249.371
21
-107.573
0
LINE
8
BLACK
6
CONTINUOUS
10
249.371
20
-107.573
11
249.371
21
-107.573
0
LINE
8
BLACK
6
CONTINUOUS
10
249.371
20
-107.573
11
249.371
21
-107.576
0
LINE
8
BLACK
6
CONTINUOUS
10
249.371
20
-107.576
11
249.369
21
-107.581
0
LINE
8
BLACK
6
CONTINUOUS
10
249.369
20
-107.581
11
249.367
21
-107.585
0
LINE
8
BLACK
6
CONTINUOUS
10
249.367
20
-107.585
11
249.364
21
-107.589
0
LINE
8
BLACK
6
CONTINUOUS
10
249.364
20
-107.589
11
249.36
21
-107.592
0
LINE
8
BLACK
6
CONTINUOUS
10
249.36
20
-107.592
11
249.356
21
-107.595
0
LINE
8
BLACK
6
CONTINUOUS
10
249.356
20
-107.595
11
249.351
21
-107.596
0
LINE
8
BLACK
6
CONTINUOUS
10
249.351
20
-107.596
11
249.346
21
-107.596
0
LINE
8
BLACK
6
CONTINUOUS
10
249.346
20
-107.596
11
249.345
21
-107.596
0
LINE
8
BLACK
6
CONTINUOUS
10
249.345
20
-107.596
11
245.947
21
-107.596
0
LINE
8
BLACK
6
CONTINUOUS
10
245.947
20
-107.596
11
245.946
21
-107.596
0
LINE
8
BLACK
6
CONTINUOUS
10
245.946
20
-107.596
11
245.941
21
-107.596
0
LINE
8
BLACK
6
CONTINUOUS
10
245.941
20
-107.596
11
245.937
21
-107.595
0
LINE
8
BLACK
6
CONTINUOUS
10
245.937
20
-107.595
11
245.932
21
-107.592
0
LINE
8
BLACK
6
CONTINUOUS
10
245.932
20
-107.592
11
245.928
21
-107.589
0
LINE
8
BLACK
6
CONTINUOUS
10
245.928
20
-107.589
11
245.925
21
-107.585
0
LINE
8
BLACK
6
CONTINUOUS
10
245.925
20
-107.585
11
245.923
21
-107.581
0
LINE
8
BLACK
6
CONTINUOUS
10
245.923
20
-107.581
11
245.922
21
-107.576
0
LINE
8
BLACK
6
CONTINUOUS
10
245.922
20
-107.576
11
245.921
21
-107.571
0
LINE
8
BLACK
6
CONTINUOUS
10
245.921
20
-107.571
11
245.921
21
-107.57
0
LINE
8
BLACK
6
CONTINUOUS
10
245.921
20
-107.57
11
245.921
21
-104.573
0
LINE
8
BLACK
6
CONTINUOUS
10
245.921
20
-104.573
11
245.921
21
-104.571
0
LINE
8
BLACK
6
CONTINUOUS
10
245.921
20
-104.571
11
245.922
21
-104.566
0
LINE
8
BLACK
6
CONTINUOUS
10
245.922
20
-104.566
11
245.923
21
-104.562
0
LINE
8
BLACK
6
CONTINUOUS
10
245.923
20
-104.562
11
245.925
21
-104.557
0
LINE
8
BLACK
6
CONTINUOUS
10
245.925
20
-104.557
11
245.928
21
-104.554
0
LINE
8
BLACK
6
CONTINUOUS
10
245.928
20
-104.554
11
245.932
21
-104.55
0
LINE
8
BLACK
6
CONTINUOUS
10
245.932
20
-104.55
11
245.937
21
-104.548
0
LINE
8
BLACK
6
CONTINUOUS
10
245.937
20
-104.548
11
245.941
21
-104.547
0
LINE
8
BLACK
6
CONTINUOUS
10
245.941
20
-104.547
11
245.945
21
-104.546
0
LINE
8
BLACK
6
CONTINUOUS
10
245.945
20
-104.546
11
245.945
21
-104.546
0
LINE
8
BLACK
6
CONTINUOUS
10
245.945
20
-104.546
11
245.946
21
-104.546
0
LINE
8
BLACK
6
CONTINUOUS
10
245.946
20
-104.546
11
245.947
21
-104.546
0
LINE
8
BLACK
6
CONTINUOUS
10
245.947
20
-104.546
11
249.345
21
-104.546
0
LINE
8
BLACK
6
CONTINUOUS
10
249.345
20
-104.546
11
249.346
21
-104.546
0
LINE
8
BLACK
6
CONTINUOUS
10
249.346
20
-104.546
11
249.347
21
-104.546
0
LINE
8
BLACK
6
CONTINUOUS
10
245.971
20
-104.596
11
245.971
21
-107.546
0
LINE
8
BLACK
6
CONTINUOUS
10
245.971
20
-107.546
11
249.321
21
-107.546
0
LINE
8
BLACK
6
CONTINUOUS
10
249.321
20
-107.546
11
249.321
21
-104.596
0
LINE
8
BLACK
6
CONTINUOUS
10
249.321
20
-104.596
11
245.971
21
-104.596
0
LINE
8
BLACK
6
CONTINUOUS
10
273.16
20
-104.546
11
273.16
21
-104.546
0
LINE
8
BLACK
6
CONTINUOUS
10
273.16
20
-104.546
11
273.164
21
-104.547
0
LINE
8
BLACK
6
CONTINUOUS
10
273.164
20
-104.547
11
273.168
21
-104.548
0
LINE
8
BLACK
6
CONTINUOUS
10
273.168
20
-104.548
11
273.173
21
-104.55
0
LINE
8
BLACK
6
CONTINUOUS
10
273.173
20
-104.55
11
273.177
21
-104.554
0
LINE
8
BLACK
6
CONTINUOUS
10
273.177
20
-104.554
11
273.18
21
-104.557
0
LINE
8
BLACK
6
CONTINUOUS
10
273.18
20
-104.557
11
273.182
21
-104.562
0
LINE
8
BLACK
6
CONTINUOUS
10
273.182
20
-104.562
11
273.183
21
-104.566
0
LINE
8
BLACK
6
CONTINUOUS
10
273.183
20
-104.566
11
273.184
21
-104.571
0
LINE
8
BLACK
6
CONTINUOUS
10
273.184
20
-104.571
11
273.184
21
-104.573
0
LINE
8
BLACK
6
CONTINUOUS
10
273.184
20
-104.573
11
273.184
21
-107.57
0
LINE
8
BLACK
6
CONTINUOUS
10
273.184
20
-107.57
11
273.184
21
-107.571
0
LINE
8
BLACK
6
CONTINUOUS
10
273.184
20
-107.571
11
273.184
21
-107.573
0
LINE
8
BLACK
6
CONTINUOUS
10
273.184
20
-107.573
11
273.184
21
-107.573
0
LINE
8
BLACK
6
CONTINUOUS
10
273.184
20
-107.573
11
273.183
21
-107.576
0
LINE
8
BLACK
6
CONTINUOUS
10
273.183
20
-107.576
11
273.182
21
-107.581
0
LINE
8
BLACK
6
CONTINUOUS
10
273.182
20
-107.581
11
273.18
21
-107.585
0
LINE
8
BLACK
6
CONTINUOUS
10
273.18
20
-107.585
11
273.177
21
-107.589
0
LINE
8
BLACK
6
CONTINUOUS
10
273.177
20
-107.589
11
273.173
21
-107.592
0
LINE
8
BLACK
6
CONTINUOUS
10
273.173
20
-107.592
11
273.168
21
-107.595
0
LINE
8
BLACK
6
CONTINUOUS
10
273.168
20
-107.595
11
273.164
21
-107.596
0
LINE
8
BLACK
6
CONTINUOUS
10
273.164
20
-107.596
11
273.159
21
-107.596
0
LINE
8
BLACK
6
CONTINUOUS
10
273.159
20
-107.596
11
273.158
21
-107.596
0
LINE
8
BLACK
6
CONTINUOUS
10
273.158
20
-107.596
11
269.76
21
-107.596
0
LINE
8
BLACK
6
CONTINUOUS
10
269.76
20
-107.596
11
269.759
21
-107.596
0
LINE
8
BLACK
6
CONTINUOUS
10
269.759
20
-107.596
11
269.754
21
-107.596
0
LINE
8
BLACK
6
CONTINUOUS
10
269.754
20
-107.596
11
269.749
21
-107.595
0
LINE
8
BLACK
6
CONTINUOUS
10
269.749
20
-107.595
11
269.745
21
-107.592
0
LINE
8
BLACK
6
CONTINUOUS
10
269.745
20
-107.592
11
269.741
21
-107.589
0
LINE
8
BLACK
6
CONTINUOUS
10
269.741
20
-107.589
11
269.738
21
-107.585
0
LINE
8
BLACK
6
CONTINUOUS
10
269.738
20
-107.585
11
269.736
21
-107.581
0
LINE
8
BLACK
6
CONTINUOUS
10
269.736
20
-107.581
11
269.734
21
-107.576
0
LINE
8
BLACK
6
CONTINUOUS
10
269.734
20
-107.576
11
269.734
21
-107.571
0
LINE
8
BLACK
6
CONTINUOUS
10
269.734
20
-107.571
11
269.734
21
-107.57
0
LINE
8
BLACK
6
CONTINUOUS
10
269.734
20
-107.57
11
269.734
21
-104.573
0
LINE
8
BLACK
6
CONTINUOUS
10
269.734
20
-104.573
11
269.734
21
-104.571
0
LINE
8
BLACK
6
CONTINUOUS
10
269.734
20
-104.571
11
269.734
21
-104.566
0
LINE
8
BLACK
6
CONTINUOUS
10
269.734
20
-104.566
11
269.736
21
-104.562
0
LINE
8
BLACK
6
CONTINUOUS
10
269.736
20
-104.562
11
269.738
21
-104.557
0
LINE
8
BLACK
6
CONTINUOUS
10
269.738
20
-104.557
11
269.741
21
-104.554
0
LINE
8
BLACK
6
CONTINUOUS
10
269.741
20
-104.554
11
269.745
21
-104.55
0
LINE
8
BLACK
6
CONTINUOUS
10
269.745
20
-104.55
11
269.749
21
-104.548
0
LINE
8
BLACK
6
CONTINUOUS
10
269.749
20
-104.548
11
269.754
21
-104.547
0
LINE
8
BLACK
6
CONTINUOUS
10
269.754
20
-104.547
11
269.758
21
-104.546
0
LINE
8
BLACK
6
CONTINUOUS
10
269.758
20
-104.546
11
269.758
21
-104.546
0
LINE
8
BLACK
6
CONTINUOUS
10
269.758
20
-104.546
11
269.759
21
-104.546
0
LINE
8
BLACK
6
CONTINUOUS
10
269.759
20
-104.546
11
269.76
21
-104.546
0
LINE
8
BLACK
6
CONTINUOUS
10
269.76
20
-104.546
11
273.158
21
-104.546
0
LINE
8
BLACK
6
CONTINUOUS
10
273.158
20
-104.546
11
273.159
21
-104.546
0
LINE
8
BLACK
6
CONTINUOUS
10
273.159
20
-104.546
11
273.16
21
-104.546
0
LINE
8
BLACK
6
CONTINUOUS
10
269.784
20
-104.596
11
269.784
21
-107.546
0
LINE
8
BLACK
6
CONTINUOUS
10
269.784
20
-107.546
11
273.134
21
-107.546
0
LINE
8
BLACK
6
CONTINUOUS
10
273.134
20
-107.546
11
273.134
21
-104.596
0
LINE
8
BLACK
6
CONTINUOUS
10
273.134
20
-104.596
11
269.784
21
-104.596
0
LINE
8
BLACK
6
CONTINUOUS
10
230.297
20
-102.165
11
230.297
21
-102.165
0
LINE
8
BLACK
6
CONTINUOUS
10
230.297
20
-102.165
11
230.301
21
-102.165
0
LINE
8
BLACK
6
CONTINUOUS
10
230.301
20
-102.165
11
230.306
21
-102.167
0
LINE
8
BLACK
6
CONTINUOUS
10
230.306
20
-102.167
11
230.31
21
-102.169
0
LINE
8
BLACK
6
CONTINUOUS
10
230.31
20
-102.169
11
230.314
21
-102.172
0
LINE
8
BLACK
6
CONTINUOUS
10
230.314
20
-102.172
11
230.317
21
-102.176
0
LINE
8
BLACK
6
CONTINUOUS
10
230.317
20
-102.176
11
230.319
21
-102.18
0
LINE
8
BLACK
6
CONTINUOUS
10
230.319
20
-102.18
11
230.321
21
-102.185
0
LINE
8
BLACK
6
CONTINUOUS
10
230.321
20
-102.185
11
230.321
21
-102.19
0
LINE
8
BLACK
6
CONTINUOUS
10
230.321
20
-102.19
11
230.321
21
-102.191
0
LINE
8
BLACK
6
CONTINUOUS
10
230.321
20
-102.191
11
230.321
21
-105.189
0
LINE
8
BLACK
6
CONTINUOUS
10
230.321
20
-105.189
11
230.321
21
-105.19
0
LINE
8
BLACK
6
CONTINUOUS
10
230.321
20
-105.19
11
230.321
21
-105.191
0
LINE
8
BLACK
6
CONTINUOUS
10
230.321
20
-105.191
11
230.321
21
-105.191
0
LINE
8
BLACK
6
CONTINUOUS
10
230.321
20
-105.191
11
230.321
21
-105.195
0
LINE
8
BLACK
6
CONTINUOUS
10
230.321
20
-105.195
11
230.319
21
-105.2
0
LINE
8
BLACK
6
CONTINUOUS
10
230.319
20
-105.2
11
230.317
21
-105.204
0
LINE
8
BLACK
6
CONTINUOUS
10
230.317
20
-105.204
11
230.314
21
-105.208
0
LINE
8
BLACK
6
CONTINUOUS
10
230.314
20
-105.208
11
230.31
21
-105.211
0
LINE
8
BLACK
6
CONTINUOUS
10
230.31
20
-105.211
11
230.306
21
-105.213
0
LINE
8
BLACK
6
CONTINUOUS
10
230.306
20
-105.213
11
230.301
21
-105.215
0
LINE
8
BLACK
6
CONTINUOUS
10
230.301
20
-105.215
11
230.296
21
-105.215
0
LINE
8
BLACK
6
CONTINUOUS
10
230.296
20
-105.215
11
230.295
21
-105.215
0
LINE
8
BLACK
6
CONTINUOUS
10
230.295
20
-105.215
11
226.897
21
-105.215
0
LINE
8
BLACK
6
CONTINUOUS
10
226.897
20
-105.215
11
226.896
21
-105.215
0
LINE
8
BLACK
6
CONTINUOUS
10
226.896
20
-105.215
11
226.891
21
-105.215
0
LINE
8
BLACK
6
CONTINUOUS
10
226.891
20
-105.215
11
226.887
21
-105.213
0
LINE
8
BLACK
6
CONTINUOUS
10
226.887
20
-105.213
11
226.882
21
-105.211
0
LINE
8
BLACK
6
CONTINUOUS
10
226.882
20
-105.211
11
226.878
21
-105.208
0
LINE
8
BLACK
6
CONTINUOUS
10
226.878
20
-105.208
11
226.878
21
-105.207
0
LINE
8
BLACK
6
CONTINUOUS
10
226.878
20
-105.207
11
226.875
21
-105.204
0
LINE
8
BLACK
6
CONTINUOUS
10
226.875
20
-105.204
11
226.873
21
-105.2
0
LINE
8
BLACK
6
CONTINUOUS
10
226.873
20
-105.2
11
226.872
21
-105.195
0
LINE
8
BLACK
6
CONTINUOUS
10
226.872
20
-105.195
11
226.871
21
-105.19
0
LINE
8
BLACK
6
CONTINUOUS
10
226.871
20
-105.19
11
226.871
21
-105.189
0
LINE
8
BLACK
6
CONTINUOUS
10
226.871
20
-105.189
11
226.871
21
-102.191
0
LINE
8
BLACK
6
CONTINUOUS
10
226.871
20
-102.191
11
226.871
21
-102.19
0
LINE
8
BLACK
6
CONTINUOUS
10
226.871
20
-102.19
11
226.872
21
-102.185
0
LINE
8
BLACK
6
CONTINUOUS
10
226.872
20
-102.185
11
226.873
21
-102.18
0
LINE
8
BLACK
6
CONTINUOUS
10
226.873
20
-102.18
11
226.875
21
-102.176
0
LINE
8
BLACK
6
CONTINUOUS
10
226.875
20
-102.176
11
226.878
21
-102.172
0
LINE
8
BLACK
6
CONTINUOUS
10
226.878
20
-102.172
11
226.882
21
-102.169
0
LINE
8
BLACK
6
CONTINUOUS
10
226.882
20
-102.169
11
226.887
21
-102.167
0
LINE
8
BLACK
6
CONTINUOUS
10
226.887
20
-102.167
11
226.891
21
-102.165
0
LINE
8
BLACK
6
CONTINUOUS
10
226.891
20
-102.165
11
226.895
21
-102.165
0
LINE
8
BLACK
6
CONTINUOUS
10
226.895
20
-102.165
11
226.895
21
-102.165
0
LINE
8
BLACK
6
CONTINUOUS
10
226.895
20
-102.165
11
226.896
21
-102.165
0
LINE
8
BLACK
6
CONTINUOUS
10
226.896
20
-102.165
11
226.897
21
-102.165
0
LINE
8
BLACK
6
CONTINUOUS
10
226.897
20
-102.165
11
230.295
21
-102.165
0
LINE
8
BLACK
6
CONTINUOUS
10
230.295
20
-102.165
11
230.296
21
-102.165
0
LINE
8
BLACK
6
CONTINUOUS
10
230.296
20
-102.165
11
230.297
21
-102.165
0
LINE
8
BLACK
6
CONTINUOUS
10
226.921
20
-102.215
11
226.921
21
-105.165
0
LINE
8
BLACK
6
CONTINUOUS
10
226.921
20
-105.165
11
230.271
21
-105.165
0
LINE
8
BLACK
6
CONTINUOUS
10
230.271
20
-105.165
11
230.271
21
-102.215
0
LINE
8
BLACK
6
CONTINUOUS
10
230.271
20
-102.215
11
226.921
21
-102.215
0
LINE
8
BLACK
6
CONTINUOUS
10
192.194
20
-102.161
11
192.194
21
-102.161
0
LINE
8
BLACK
6
CONTINUOUS
10
192.194
20
-102.161
11
192.197
21
-102.162
0
LINE
8
BLACK
6
CONTINUOUS
10
192.197
20
-102.162
11
192.202
21
-102.163
0
LINE
8
BLACK
6
CONTINUOUS
10
192.202
20
-102.163
11
192.206
21
-102.165
0
LINE
8
BLACK
6
CONTINUOUS
10
192.206
20
-102.165
11
192.21
21
-102.169
0
LINE
8
BLACK
6
CONTINUOUS
10
192.21
20
-102.169
11
192.213
21
-102.172
0
LINE
8
BLACK
6
CONTINUOUS
10
192.213
20
-102.172
11
192.216
21
-102.177
0
LINE
8
BLACK
6
CONTINUOUS
10
192.216
20
-102.177
11
192.217
21
-102.181
0
LINE
8
BLACK
6
CONTINUOUS
10
192.217
20
-102.181
11
192.218
21
-102.186
0
LINE
8
BLACK
6
CONTINUOUS
10
192.218
20
-102.186
11
192.218
21
-102.188
0
LINE
8
BLACK
6
CONTINUOUS
10
192.218
20
-102.188
11
192.218
21
-105.185
0
LINE
8
BLACK
6
CONTINUOUS
10
192.218
20
-105.185
11
192.218
21
-105.186
0
LINE
8
BLACK
6
CONTINUOUS
10
192.218
20
-105.186
11
192.218
21
-105.188
0
LINE
8
BLACK
6
CONTINUOUS
10
192.218
20
-105.188
11
192.218
21
-105.188
0
LINE
8
BLACK
6
CONTINUOUS
10
192.218
20
-105.188
11
192.217
21
-105.191
0
LINE
8
BLACK
6
CONTINUOUS
10
192.217
20
-105.191
11
192.216
21
-105.196
0
LINE
8
BLACK
6
CONTINUOUS
10
192.216
20
-105.196
11
192.213
21
-105.2
0
LINE
8
BLACK
6
CONTINUOUS
10
192.213
20
-105.2
11
192.21
21
-105.204
0
LINE
8
BLACK
6
CONTINUOUS
10
192.21
20
-105.204
11
192.206
21
-105.207
0
LINE
8
BLACK
6
CONTINUOUS
10
192.206
20
-105.207
11
192.202
21
-105.21
0
LINE
8
BLACK
6
CONTINUOUS
10
192.202
20
-105.21
11
192.197
21
-105.211
0
LINE
8
BLACK
6
CONTINUOUS
10
192.197
20
-105.211
11
192.193
21
-105.211
0
LINE
8
BLACK
6
CONTINUOUS
10
192.193
20
-105.211
11
192.191
21
-105.211
0
LINE
8
BLACK
6
CONTINUOUS
10
192.191
20
-105.211
11
188.794
21
-105.211
0
LINE
8
BLACK
6
CONTINUOUS
10
188.794
20
-105.211
11
188.793
21
-105.211
0
LINE
8
BLACK
6
CONTINUOUS
10
188.793
20
-105.211
11
188.788
21
-105.211
0
LINE
8
BLACK
6
CONTINUOUS
10
188.788
20
-105.211
11
188.783
21
-105.21
0
LINE
8
BLACK
6
CONTINUOUS
10
188.783
20
-105.21
11
188.779
21
-105.207
0
LINE
8
BLACK
6
CONTINUOUS
10
188.779
20
-105.207
11
188.775
21
-105.204
0
LINE
8
BLACK
6
CONTINUOUS
10
188.775
20
-105.204
11
188.775
21
-105.204
0
LINE
8
BLACK
6
CONTINUOUS
10
188.775
20
-105.204
11
188.772
21
-105.2
0
LINE
8
BLACK
6
CONTINUOUS
10
188.772
20
-105.2
11
188.769
21
-105.196
0
LINE
8
BLACK
6
CONTINUOUS
10
188.769
20
-105.196
11
188.768
21
-105.191
0
LINE
8
BLACK
6
CONTINUOUS
10
188.768
20
-105.191
11
188.767
21
-105.186
0
LINE
8
BLACK
6
CONTINUOUS
10
188.767
20
-105.186
11
188.768
21
-105.185
0
LINE
8
BLACK
6
CONTINUOUS
10
188.768
20
-105.185
11
188.768
21
-102.188
0
LINE
8
BLACK
6
CONTINUOUS
10
188.768
20
-102.188
11
188.767
21
-102.186
0
LINE
8
BLACK
6
CONTINUOUS
10
188.767
20
-102.186
11
188.768
21
-102.181
0
LINE
8
BLACK
6
CONTINUOUS
10
188.768
20
-102.181
11
188.769
21
-102.177
0
LINE
8
BLACK
6
CONTINUOUS
10
188.769
20
-102.177
11
188.772
21
-102.172
0
LINE
8
BLACK
6
CONTINUOUS
10
188.772
20
-102.172
11
188.775
21
-102.169
0
LINE
8
BLACK
6
CONTINUOUS
10
188.775
20
-102.169
11
188.779
21
-102.165
0
LINE
8
BLACK
6
CONTINUOUS
10
188.779
20
-102.165
11
188.783
21
-102.163
0
LINE
8
BLACK
6
CONTINUOUS
10
188.783
20
-102.163
11
188.788
21
-102.162
0
LINE
8
BLACK
6
CONTINUOUS
10
188.788
20
-102.162
11
188.791
21
-102.161
0
LINE
8
BLACK
6
CONTINUOUS
10
188.791
20
-102.161
11
188.791
21
-102.161
0
LINE
8
BLACK
6
CONTINUOUS
10
188.791
20
-102.161
11
188.793
21
-102.161
0
LINE
8
BLACK
6
CONTINUOUS
10
188.793
20
-102.161
11
188.794
21
-102.161
0
LINE
8
BLACK
6
CONTINUOUS
10
188.794
20
-102.161
11
192.191
21
-102.161
0
LINE
8
BLACK
6
CONTINUOUS
10
192.191
20
-102.161
11
192.193
21
-102.161
0
LINE
8
BLACK
6
CONTINUOUS
10
192.193
20
-102.161
11
192.194
21
-102.161
0
LINE
8
BLACK
6
CONTINUOUS
10
188.818
20
-102.211
11
188.818
21
-105.161
0
LINE
8
BLACK
6
CONTINUOUS
10
188.818
20
-105.161
11
192.168
21
-105.161
0
LINE
8
BLACK
6
CONTINUOUS
10
192.168
20
-105.161
11
192.168
21
-102.211
0
LINE
8
BLACK
6
CONTINUOUS
10
192.168
20
-102.211
11
188.818
21
-102.211
0
LINE
8
BLACK
6
CONTINUOUS
10
211.247
20
-99.7838
11
211.247
21
-99.7838
0
LINE
8
BLACK
6
CONTINUOUS
10
211.247
20
-99.7838
11
211.251
21
-99.7842
0
LINE
8
BLACK
6
CONTINUOUS
10
211.251
20
-99.7842
11
211.256
21
-99.7856
0
LINE
8
BLACK
6
CONTINUOUS
10
211.256
20
-99.7856
11
211.26
21
-99.7879
0
LINE
8
BLACK
6
CONTINUOUS
10
211.26
20
-99.7879
11
211.264
21
-99.791
0
LINE
8
BLACK
6
CONTINUOUS
10
211.264
20
-99.791
11
211.267
21
-99.7949
0
LINE
8
BLACK
6
CONTINUOUS
10
211.267
20
-99.7949
11
211.269
21
-99.7992
0
LINE
8
BLACK
6
CONTINUOUS
10
211.269
20
-99.7992
11
211.271
21
-99.8039
0
LINE
8
BLACK
6
CONTINUOUS
10
211.271
20
-99.8039
11
211.271
21
-99.8088
0
LINE
8
BLACK
6
CONTINUOUS
10
211.271
20
-99.8088
11
211.271
21
-99.81
0
LINE
8
BLACK
6
CONTINUOUS
10
211.271
20
-99.81
11
211.271
21
-102.808
0
LINE
8
BLACK
6
CONTINUOUS
10
211.271
20
-102.808
11
211.271
21
-102.809
0
LINE
8
BLACK
6
CONTINUOUS
10
211.271
20
-102.809
11
211.271
21
-102.81
0
LINE
8
BLACK
6
CONTINUOUS
10
211.271
20
-102.81
11
211.271
21
-102.81
0
LINE
8
BLACK
6
CONTINUOUS
10
211.271
20
-102.81
11
211.271
21
-102.814
0
LINE
8
BLACK
6
CONTINUOUS
10
211.271
20
-102.814
11
211.269
21
-102.818
0
LINE
8
BLACK
6
CONTINUOUS
10
211.269
20
-102.818
11
211.267
21
-102.823
0
LINE
8
BLACK
6
CONTINUOUS
10
211.267
20
-102.823
11
211.264
21
-102.827
0
LINE
8
BLACK
6
CONTINUOUS
10
211.264
20
-102.827
11
211.26
21
-102.83
0
LINE
8
BLACK
6
CONTINUOUS
10
211.26
20
-102.83
11
211.256
21
-102.832
0
LINE
8
BLACK
6
CONTINUOUS
10
211.256
20
-102.832
11
211.251
21
-102.833
0
LINE
8
BLACK
6
CONTINUOUS
10
211.251
20
-102.833
11
211.246
21
-102.834
0
LINE
8
BLACK
6
CONTINUOUS
10
211.246
20
-102.834
11
211.245
21
-102.834
0
LINE
8
BLACK
6
CONTINUOUS
10
211.245
20
-102.834
11
207.847
21
-102.834
0
LINE
8
BLACK
6
CONTINUOUS
10
207.847
20
-102.834
11
207.846
21
-102.834
0
LINE
8
BLACK
6
CONTINUOUS
10
207.846
20
-102.834
11
207.841
21
-102.833
0
LINE
8
BLACK
6
CONTINUOUS
10
207.841
20
-102.833
11
207.837
21
-102.832
0
LINE
8
BLACK
6
CONTINUOUS
10
207.837
20
-102.832
11
207.832
21
-102.83
0
LINE
8
BLACK
6
CONTINUOUS
10
207.832
20
-102.83
11
207.828
21
-102.827
0
LINE
8
BLACK
6
CONTINUOUS
10
207.828
20
-102.827
11
207.825
21
-102.823
0
LINE
8
BLACK
6
CONTINUOUS
10
207.825
20
-102.823
11
207.823
21
-102.818
0
LINE
8
BLACK
6
CONTINUOUS
10
207.823
20
-102.818
11
207.822
21
-102.814
0
LINE
8
BLACK
6
CONTINUOUS
10
207.822
20
-102.814
11
207.821
21
-102.809
0
LINE
8
BLACK
6
CONTINUOUS
10
207.821
20
-102.809
11
207.821
21
-102.808
0
LINE
8
BLACK
6
CONTINUOUS
10
207.821
20
-102.808
11
207.821
21
-99.81
0
LINE
8
BLACK
6
CONTINUOUS
10
207.821
20
-99.81
11
207.821
21
-99.8088
0
LINE
8
BLACK
6
CONTINUOUS
10
207.821
20
-99.8088
11
207.822
21
-99.8039
0
LINE
8
BLACK
6
CONTINUOUS
10
207.822
20
-99.8039
11
207.823
21
-99.7992
0
LINE
8
BLACK
6
CONTINUOUS
10
207.823
20
-99.7992
11
207.825
21
-99.7949
0
LINE
8
BLACK
6
CONTINUOUS
10
207.825
20
-99.7949
11
207.828
21
-99.791
0
LINE
8
BLACK
6
CONTINUOUS
10
207.828
20
-99.791
11
207.832
21
-99.7879
0
LINE
8
BLACK
6
CONTINUOUS
10
207.832
20
-99.7879
11
207.837
21
-99.7856
0
LINE
8
BLACK
6
CONTINUOUS
10
207.837
20
-99.7856
11
207.841
21
-99.7842
0
LINE
8
BLACK
6
CONTINUOUS
10
207.841
20
-99.7842
11
207.845
21
-99.7838
0
LINE
8
BLACK
6
CONTINUOUS
10
207.845
20
-99.7838
11
207.845
21
-99.7838
0
LINE
8
BLACK
6
CONTINUOUS
10
207.845
20
-99.7838
11
207.846
21
-99.7837
0
LINE
8
BLACK
6
CONTINUOUS
10
207.846
20
-99.7837
11
207.847
21
-99.7838
0
LINE
8
BLACK
6
CONTINUOUS
10
207.847
20
-99.7838
11
211.245
21
-99.7838
0
LINE
8
BLACK
6
CONTINUOUS
10
211.245
20
-99.7838
11
211.246
21
-99.7837
0
LINE
8
BLACK
6
CONTINUOUS
10
211.246
20
-99.7837
11
211.247
21
-99.7838
0
LINE
8
BLACK
6
CONTINUOUS
10
207.871
20
-99.8338
11
207.871
21
-102.784
0
LINE
8
BLACK
6
CONTINUOUS
10
207.871
20
-102.784
11
211.221
21
-102.784
0
LINE
8
BLACK
6
CONTINUOUS
10
211.221
20
-102.784
11
211.221
21
-99.8338
0
LINE
8
BLACK
6
CONTINUOUS
10
211.221
20
-99.8338
11
207.871
21
-99.8338
0
LINE
8
BLACK
6
CONTINUOUS
10
154.099
20
-90.26
11
154.099
21
-90.26
0
LINE
8
BLACK
6
CONTINUOUS
10
154.099
20
-90.26
11
154.102
21
-90.2603
0
LINE
8
BLACK
6
CONTINUOUS
10
154.102
20
-90.2603
11
154.107
21
-90.2618
0
LINE
8
BLACK
6
CONTINUOUS
10
154.107
20
-90.2618
11
154.111
21
-90.2641
0
LINE
8
BLACK
6
CONTINUOUS
10
154.111
20
-90.2641
11
154.115
21
-90.2672
0
LINE
8
BLACK
6
CONTINUOUS
10
154.115
20
-90.2672
11
154.118
21
-90.271
0
LINE
8
BLACK
6
CONTINUOUS
10
154.118
20
-90.271
11
154.121
21
-90.2753
0
LINE
8
BLACK
6
CONTINUOUS
10
154.121
20
-90.2753
11
154.122
21
-90.2801
0
LINE
8
BLACK
6
CONTINUOUS
10
154.122
20
-90.2801
11
154.123
21
-90.285
0
LINE
8
BLACK
6
CONTINUOUS
10
154.123
20
-90.285
11
154.122
21
-90.2862
0
LINE
8
BLACK
6
CONTINUOUS
10
154.122
20
-90.2862
11
154.122
21
-93.2837
0
LINE
8
BLACK
6
CONTINUOUS
10
154.122
20
-93.2837
11
154.123
21
-93.285
0
LINE
8
BLACK
6
CONTINUOUS
10
154.123
20
-93.285
11
154.122
21
-93.2862
0
LINE
8
BLACK
6
CONTINUOUS
10
154.122
20
-93.2862
11
154.122
21
-93.2862
0
LINE
8
BLACK
6
CONTINUOUS
10
154.122
20
-93.2862
11
154.122
21
-93.2899
0
LINE
8
BLACK
6
CONTINUOUS
10
154.122
20
-93.2899
11
154.121
21
-93.2946
0
LINE
8
BLACK
6
CONTINUOUS
10
154.121
20
-93.2946
11
154.118
21
-93.2989
0
LINE
8
BLACK
6
CONTINUOUS
10
154.118
20
-93.2989
11
154.115
21
-93.3027
0
LINE
8
BLACK
6
CONTINUOUS
10
154.115
20
-93.3027
11
154.111
21
-93.3058
0
LINE
8
BLACK
6
CONTINUOUS
10
154.111
20
-93.3058
11
154.107
21
-93.3082
0
LINE
8
BLACK
6
CONTINUOUS
10
154.107
20
-93.3082
11
154.102
21
-93.3096
0
LINE
8
BLACK
6
CONTINUOUS
10
154.102
20
-93.3096
11
154.097
21
-93.3101
0
LINE
8
BLACK
6
CONTINUOUS
10
154.097
20
-93.3101
11
154.096
21
-93.31
0
LINE
8
BLACK
6
CONTINUOUS
10
154.096
20
-93.31
11
150.699
21
-93.31
0
LINE
8
BLACK
6
CONTINUOUS
10
150.699
20
-93.31
11
150.697
21
-93.3101
0
LINE
8
BLACK
6
CONTINUOUS
10
150.697
20
-93.3101
11
150.693
21
-93.3096
0
LINE
8
BLACK
6
CONTINUOUS
10
150.693
20
-93.3096
11
150.688
21
-93.3082
0
LINE
8
BLACK
6
CONTINUOUS
10
150.688
20
-93.3082
11
150.684
21
-93.3058
0
LINE
8
BLACK
6
CONTINUOUS
10
150.684
20
-93.3058
11
150.68
21
-93.3027
0
LINE
8
BLACK
6
CONTINUOUS
10
150.68
20
-93.3027
11
150.677
21
-93.2989
0
LINE
8
BLACK
6
CONTINUOUS
10
150.677
20
-93.2989
11
150.674
21
-93.2946
0
LINE
8
BLACK
6
CONTINUOUS
10
150.674
20
-93.2946
11
150.673
21
-93.2899
0
LINE
8
BLACK
6
CONTINUOUS
10
150.673
20
-93.2899
11
150.672
21
-93.285
0
LINE
8
BLACK
6
CONTINUOUS
10
150.672
20
-93.285
11
150.672
21
-93.2837
0
LINE
8
BLACK
6
CONTINUOUS
10
150.672
20
-93.2837
11
150.672
21
-90.2862
0
LINE
8
BLACK
6
CONTINUOUS
10
150.672
20
-90.2862
11
150.672
21
-90.285
0
LINE
8
BLACK
6
CONTINUOUS
10
150.672
20
-90.285
11
150.673
21
-90.2801
0
LINE
8
BLACK
6
CONTINUOUS
10
150.673
20
-90.2801
11
150.674
21
-90.2753
0
LINE
8
BLACK
6
CONTINUOUS
10
150.674
20
-90.2753
11
150.677
21
-90.271
0
LINE
8
BLACK
6
CONTINUOUS
10
150.677
20
-90.271
11
150.68
21
-90.2672
0
LINE
8
BLACK
6
CONTINUOUS
10
150.68
20
-90.2672
11
150.684
21
-90.2641
0
LINE
8
BLACK
6
CONTINUOUS
10
150.684
20
-90.2641
11
150.688
21
-90.2618
0
LINE
8
BLACK
6
CONTINUOUS
10
150.688
20
-90.2618
11
150.693
21
-90.2603
0
LINE
8
BLACK
6
CONTINUOUS
10
150.693
20
-90.2603
11
150.696
21
-90.26
0
LINE
8
BLACK
6
CONTINUOUS
10
150.696
20
-90.26
11
150.696
21
-90.26
0
LINE
8
BLACK
6
CONTINUOUS
10
150.696
20
-90.26
11
150.697
21
-90.2598
0
LINE
8
BLACK
6
CONTINUOUS
10
150.697
20
-90.2598
11
150.699
21
-90.26
0
LINE
8
BLACK
6
CONTINUOUS
10
150.699
20
-90.26
11
154.096
21
-90.26
0
LINE
8
BLACK
6
CONTINUOUS
10
154.096
20
-90.26
11
154.097
21
-90.2598
0
LINE
8
BLACK
6
CONTINUOUS
10
154.097
20
-90.2598
11
154.099
21
-90.26
0
LINE
8
BLACK
6
CONTINUOUS
10
150.722
20
-90.31
11
150.722
21
-93.26
0
LINE
8
BLACK
6
CONTINUOUS
10
150.722
20
-93.26
11
154.072
21
-93.26
0
LINE
8
BLACK
6
CONTINUOUS
10
154.072
20
-93.26
11
154.072
21
-90.31
0
LINE
8
BLACK
6
CONTINUOUS
10
154.072
20
-90.31
11
150.722
21
-90.31
0
LINE
8
BLACK
6
CONTINUOUS
10
273.161
20
-85.4975
11
273.161
21
-85.4975
0
LINE
8
BLACK
6
CONTINUOUS
10
273.161
20
-85.4975
11
273.165
21
-85.4978
0
LINE
8
BLACK
6
CONTINUOUS
10
273.165
20
-85.4978
11
273.17
21
-85.4993
0
LINE
8
BLACK
6
CONTINUOUS
10
273.17
20
-85.4993
11
273.174
21
-85.5016
0
LINE
8
BLACK
6
CONTINUOUS
10
273.174
20
-85.5016
11
273.178
21
-85.5047
0
LINE
8
BLACK
6
CONTINUOUS
10
273.178
20
-85.5047
11
273.181
21
-85.5085
0
LINE
8
BLACK
6
CONTINUOUS
10
273.181
20
-85.5085
11
273.183
21
-85.5128
0
LINE
8
BLACK
6
CONTINUOUS
10
273.183
20
-85.5128
11
273.185
21
-85.5176
0
LINE
8
BLACK
6
CONTINUOUS
10
273.185
20
-85.5176
11
273.185
21
-85.5225
0
LINE
8
BLACK
6
CONTINUOUS
10
273.185
20
-85.5225
11
273.185
21
-85.5237
0
LINE
8
BLACK
6
CONTINUOUS
10
273.185
20
-85.5237
11
273.185
21
-88.5212
0
LINE
8
BLACK
6
CONTINUOUS
10
273.185
20
-88.5212
11
273.185
21
-88.5225
0
LINE
8
BLACK
6
CONTINUOUS
10
273.185
20
-88.5225
11
273.185
21
-88.5237
0
LINE
8
BLACK
6
CONTINUOUS
10
273.185
20
-88.5237
11
273.185
21
-88.5237
0
LINE
8
BLACK
6
CONTINUOUS
10
273.185
20
-88.5237
11
273.185
21
-88.5274
0
LINE
8
BLACK
6
CONTINUOUS
10
273.185
20
-88.5274
11
273.183
21
-88.5321
0
LINE
8
BLACK
6
CONTINUOUS
10
273.183
20
-88.5321
11
273.181
21
-88.5364
0
LINE
8
BLACK
6
CONTINUOUS
10
273.181
20
-88.5364
11
273.178
21
-88.5402
0
LINE
8
BLACK
6
CONTINUOUS
10
273.178
20
-88.5402
11
273.174
21
-88.5433
0
LINE
8
BLACK
6
CONTINUOUS
10
273.174
20
-88.5433
11
273.17
21
-88.5457
0
LINE
8
BLACK
6
CONTINUOUS
10
273.17
20
-88.5457
11
273.165
21
-88.5471
0
LINE
8
BLACK
6
CONTINUOUS
10
273.165
20
-88.5471
11
273.16
21
-88.5476
0
LINE
8
BLACK
6
CONTINUOUS
10
273.16
20
-88.5476
11
273.159
21
-88.5475
0
LINE
8
BLACK
6
CONTINUOUS
10
273.159
20
-88.5475
11
269.761
21
-88.5475
0
LINE
8
BLACK
6
CONTINUOUS
10
269.761
20
-88.5475
11
269.76
21
-88.5476
0
LINE
8
BLACK
6
CONTINUOUS
10
269.76
20
-88.5476
11
269.755
21
-88.5471
0
LINE
8
BLACK
6
CONTINUOUS
10
269.755
20
-88.5471
11
269.75
21
-88.5457
0
LINE
8
BLACK
6
CONTINUOUS
10
269.75
20
-88.5457
11
269.746
21
-88.5433
0
LINE
8
BLACK
6
CONTINUOUS
10
269.746
20
-88.5433
11
269.742
21
-88.5402
0
LINE
8
BLACK
6
CONTINUOUS
10
269.742
20
-88.5402
11
269.739
21
-88.5364
0
LINE
8
BLACK
6
CONTINUOUS
10
269.739
20
-88.5364
11
269.737
21
-88.5321
0
LINE
8
BLACK
6
CONTINUOUS
10
269.737
20
-88.5321
11
269.735
21
-88.5274
0
LINE
8
BLACK
6
CONTINUOUS
10
269.735
20
-88.5274
11
269.735
21
-88.5225
0
LINE
8
BLACK
6
CONTINUOUS
10
269.735
20
-88.5225
11
269.735
21
-88.5212
0
LINE
8
BLACK
6
CONTINUOUS
10
269.735
20
-88.5212
11
269.735
21
-85.5237
0
LINE
8
BLACK
6
CONTINUOUS
10
269.735
20
-85.5237
11
269.735
21
-85.5225
0
LINE
8
BLACK
6
CONTINUOUS
10
269.735
20
-85.5225
11
269.735
21
-85.5176
0
LINE
8
BLACK
6
CONTINUOUS
10
269.735
20
-85.5176
11
269.737
21
-85.5128
0
LINE
8
BLACK
6
CONTINUOUS
10
269.737
20
-85.5128
11
269.739
21
-85.5085
0
LINE
8
BLACK
6
CONTINUOUS
10
269.739
20
-85.5085
11
269.742
21
-85.5047
0
LINE
8
BLACK
6
CONTINUOUS
10
269.742
20
-85.5047
11
269.746
21
-85.5016
0
LINE
8
BLACK
6
CONTINUOUS
10
269.746
20
-85.5016
11
269.75
21
-85.4993
0
LINE
8
BLACK
6
CONTINUOUS
10
269.75
20
-85.4993
11
269.755
21
-85.4978
0
LINE
8
BLACK
6
CONTINUOUS
10
269.755
20
-85.4978
11
269.759
21
-85.4975
0
LINE
8
BLACK
6
CONTINUOUS
10
269.759
20
-85.4975
11
269.759
21
-85.4975
0
LINE
8
BLACK
6
CONTINUOUS
10
269.759
20
-85.4975
11
269.76
21
-85.4973
0
LINE
8
BLACK
6
CONTINUOUS
10
269.76
20
-85.4973
11
269.761
21
-85.4975
0
LINE
8
BLACK
6
CONTINUOUS
10
269.761
20
-85.4975
11
273.159
21
-85.4975
0
LINE
8
BLACK
6
CONTINUOUS
10
273.159
20
-85.4975
11
273.16
21
-85.4973
0
LINE
8
BLACK
6
CONTINUOUS
10
273.16
20
-85.4973
11
273.161
21
-85.4975
0
LINE
8
BLACK
6
CONTINUOUS
10
269.785
20
-85.5475
11
269.785
21
-88.4975
0
LINE
8
BLACK
6
CONTINUOUS
10
269.785
20
-88.4975
11
273.135
21
-88.4975
0
LINE
8
BLACK
6
CONTINUOUS
10
273.135
20
-88.4975
11
273.135
21
-85.5475
0
LINE
8
BLACK
6
CONTINUOUS
10
273.135
20
-85.5475
11
269.785
21
-85.5475
0
LINE
8
BLACK
6
CONTINUOUS
10
173.149
20
-85.4975
11
173.149
21
-85.4975
0
LINE
8
BLACK
6
CONTINUOUS
10
173.149
20
-85.4975
11
173.152
21
-85.4978
0
LINE
8
BLACK
6
CONTINUOUS
10
173.152
20
-85.4978
11
173.157
21
-85.4993
0
LINE
8
BLACK
6
CONTINUOUS
10
173.157
20
-85.4993
11
173.161
21
-85.5016
0
LINE
8
BLACK
6
CONTINUOUS
10
173.161
20
-85.5016
11
173.165
21
-85.5047
0
LINE
8
BLACK
6
CONTINUOUS
10
173.165
20
-85.5047
11
173.168
21
-85.5085
0
LINE
8
BLACK
6
CONTINUOUS
10
173.168
20
-85.5085
11
173.171
21
-85.5128
0
LINE
8
BLACK
6
CONTINUOUS
10
173.171
20
-85.5128
11
173.172
21
-85.5176
0
LINE
8
BLACK
6
CONTINUOUS
10
173.172
20
-85.5176
11
173.173
21
-85.5225
0
LINE
8
BLACK
6
CONTINUOUS
10
173.173
20
-85.5225
11
173.172
21
-85.5237
0
LINE
8
BLACK
6
CONTINUOUS
10
173.172
20
-85.5237
11
173.172
21
-88.5212
0
LINE
8
BLACK
6
CONTINUOUS
10
173.172
20
-88.5212
11
173.173
21
-88.5225
0
LINE
8
BLACK
6
CONTINUOUS
10
173.173
20
-88.5225
11
173.172
21
-88.5237
0
LINE
8
BLACK
6
CONTINUOUS
10
173.172
20
-88.5237
11
173.172
21
-88.5237
0
LINE
8
BLACK
6
CONTINUOUS
10
173.172
20
-88.5237
11
173.172
21
-88.5274
0
LINE
8
BLACK
6
CONTINUOUS
10
173.172
20
-88.5274
11
173.171
21
-88.5321
0
LINE
8
BLACK
6
CONTINUOUS
10
173.171
20
-88.5321
11
173.168
21
-88.5364
0
LINE
8
BLACK
6
CONTINUOUS
10
173.168
20
-88.5364
11
173.165
21
-88.5402
0
LINE
8
BLACK
6
CONTINUOUS
10
173.165
20
-88.5402
11
173.161
21
-88.5433
0
LINE
8
BLACK
6
CONTINUOUS
10
173.161
20
-88.5433
11
173.157
21
-88.5457
0
LINE
8
BLACK
6
CONTINUOUS
10
173.157
20
-88.5457
11
173.152
21
-88.5471
0
LINE
8
BLACK
6
CONTINUOUS
10
173.152
20
-88.5471
11
173.147
21
-88.5476
0
LINE
8
BLACK
6
CONTINUOUS
10
173.147
20
-88.5476
11
173.146
21
-88.5475
0
LINE
8
BLACK
6
CONTINUOUS
10
173.146
20
-88.5475
11
169.749
21
-88.5475
0
LINE
8
BLACK
6
CONTINUOUS
10
169.749
20
-88.5475
11
169.747
21
-88.5476
0
LINE
8
BLACK
6
CONTINUOUS
10
169.747
20
-88.5476
11
169.743
21
-88.5471
0
LINE
8
BLACK
6
CONTINUOUS
10
169.743
20
-88.5471
11
169.738
21
-88.5457
0
LINE
8
BLACK
6
CONTINUOUS
10
169.738
20
-88.5457
11
169.734
21
-88.5433
0
LINE
8
BLACK
6
CONTINUOUS
10
169.734
20
-88.5433
11
169.73
21
-88.5402
0
LINE
8
BLACK
6
CONTINUOUS
10
169.73
20
-88.5402
11
169.727
21
-88.5364
0
LINE
8
BLACK
6
CONTINUOUS
10
169.727
20
-88.5364
11
169.724
21
-88.5321
0
LINE
8
BLACK
6
CONTINUOUS
10
169.724
20
-88.5321
11
169.723
21
-88.5274
0
LINE
8
BLACK
6
CONTINUOUS
10
169.723
20
-88.5274
11
169.722
21
-88.5225
0
LINE
8
BLACK
6
CONTINUOUS
10
169.722
20
-88.5225
11
169.722
21
-88.5212
0
LINE
8
BLACK
6
CONTINUOUS
10
169.722
20
-88.5212
11
169.722
21
-85.5237
0
LINE
8
BLACK
6
CONTINUOUS
10
169.722
20
-85.5237
11
169.722
21
-85.5225
0
LINE
8
BLACK
6
CONTINUOUS
10
169.722
20
-85.5225
11
169.723
21
-85.5176
0
LINE
8
BLACK
6
CONTINUOUS
10
169.723
20
-85.5176
11
169.724
21
-85.5128
0
LINE
8
BLACK
6
CONTINUOUS
10
169.724
20
-85.5128
11
169.727
21
-85.5085
0
LINE
8
BLACK
6
CONTINUOUS
10
169.727
20
-85.5085
11
169.73
21
-85.5047
0
LINE
8
BLACK
6
CONTINUOUS
10
169.73
20
-85.5047
11
169.734
21
-85.5016
0
LINE
8
BLACK
6
CONTINUOUS
10
169.734
20
-85.5016
11
169.738
21
-85.4993
0
LINE
8
BLACK
6
CONTINUOUS
10
169.738
20
-85.4993
11
169.743
21
-85.4978
0
LINE
8
BLACK
6
CONTINUOUS
10
169.743
20
-85.4978
11
169.746
21
-85.4975
0
LINE
8
BLACK
6
CONTINUOUS
10
169.746
20
-85.4975
11
169.746
21
-85.4975
0
LINE
8
BLACK
6
CONTINUOUS
10
169.746
20
-85.4975
11
169.747
21
-85.4973
0
LINE
8
BLACK
6
CONTINUOUS
10
169.747
20
-85.4973
11
169.749
21
-85.4975
0
LINE
8
BLACK
6
CONTINUOUS
10
169.749
20
-85.4975
11
173.146
21
-85.4975
0
LINE
8
BLACK
6
CONTINUOUS
10
173.146
20
-85.4975
11
173.147
21
-85.4973
0
LINE
8
BLACK
6
CONTINUOUS
10
173.147
20
-85.4973
11
173.149
21
-85.4975
0
LINE
8
BLACK
6
CONTINUOUS
10
169.772
20
-85.5475
11
169.772
21
-88.4975
0
LINE
8
BLACK
6
CONTINUOUS
10
169.772
20
-88.4975
11
173.122
21
-88.4975
0
LINE
8
BLACK
6
CONTINUOUS
10
173.122
20
-88.4975
11
173.122
21
-85.5475
0
LINE
8
BLACK
6
CONTINUOUS
10
173.122
20
-85.5475
11
169.772
21
-85.5475
0
LINE
8
BLACK
6
CONTINUOUS
10
249.349
20
-85.4975
11
249.349
21
-85.4975
0
LINE
8
BLACK
6
CONTINUOUS
10
249.349
20
-85.4975
11
249.352
21
-85.4978
0
LINE
8
BLACK
6
CONTINUOUS
10
249.352
20
-85.4978
11
249.357
21
-85.4993
0
LINE
8
BLACK
6
CONTINUOUS
10
249.357
20
-85.4993
11
249.361
21
-85.5016
0
LINE
8
BLACK
6
CONTINUOUS
10
249.361
20
-85.5016
11
249.365
21
-85.5047
0
LINE
8
BLACK
6
CONTINUOUS
10
249.365
20
-85.5047
11
249.368
21
-85.5085
0
LINE
8
BLACK
6
CONTINUOUS
10
249.368
20
-85.5085
11
249.371
21
-85.5128
0
LINE
8
BLACK
6
CONTINUOUS
10
249.371
20
-85.5128
11
249.372
21
-85.5176
0
LINE
8
BLACK
6
CONTINUOUS
10
249.372
20
-85.5176
11
249.373
21
-85.5225
0
LINE
8
BLACK
6
CONTINUOUS
10
249.373
20
-85.5225
11
249.372
21
-85.5237
0
LINE
8
BLACK
6
CONTINUOUS
10
249.372
20
-85.5237
11
249.372
21
-88.5212
0
LINE
8
BLACK
6
CONTINUOUS
10
249.372
20
-88.5212
11
249.373
21
-88.5225
0
LINE
8
BLACK
6
CONTINUOUS
10
249.373
20
-88.5225
11
249.372
21
-88.5237
0
LINE
8
BLACK
6
CONTINUOUS
10
249.372
20
-88.5237
11
249.372
21
-88.5237
0
LINE
8
BLACK
6
CONTINUOUS
10
249.372
20
-88.5237
11
249.372
21
-88.5274
0
LINE
8
BLACK
6
CONTINUOUS
10
249.372
20
-88.5274
11
249.371
21
-88.5321
0
LINE
8
BLACK
6
CONTINUOUS
10
249.371
20
-88.5321
11
249.368
21
-88.5364
0
LINE
8
BLACK
6
CONTINUOUS
10
249.368
20
-88.5364
11
249.365
21
-88.5402
0
LINE
8
BLACK
6
CONTINUOUS
10
249.365
20
-88.5402
11
249.361
21
-88.5433
0
LINE
8
BLACK
6
CONTINUOUS
10
249.361
20
-88.5433
11
249.357
21
-88.5457
0
LINE
8
BLACK
6
CONTINUOUS
10
249.357
20
-88.5457
11
249.352
21
-88.5471
0
LINE
8
BLACK
6
CONTINUOUS
10
249.352
20
-88.5471
11
249.347
21
-88.5476
0
LINE
8
BLACK
6
CONTINUOUS
10
249.347
20
-88.5476
11
249.346
21
-88.5475
0
LINE
8
BLACK
6
CONTINUOUS
10
249.346
20
-88.5475
11
245.949
21
-88.5475
0
LINE
8
BLACK
6
CONTINUOUS
10
245.949
20
-88.5475
11
245.947
21
-88.5476
0
LINE
8
BLACK
6
CONTINUOUS
10
245.947
20
-88.5476
11
245.943
21
-88.5471
0
LINE
8
BLACK
6
CONTINUOUS
10
245.943
20
-88.5471
11
245.938
21
-88.5457
0
LINE
8
BLACK
6
CONTINUOUS
10
245.938
20
-88.5457
11
245.934
21
-88.5433
0
LINE
8
BLACK
6
CONTINUOUS
10
245.934
20
-88.5433
11
245.93
21
-88.5402
0
LINE
8
BLACK
6
CONTINUOUS
10
245.93
20
-88.5402
11
245.927
21
-88.5364
0
LINE
8
BLACK
6
CONTINUOUS
10
245.927
20
-88.5364
11
245.924
21
-88.5321
0
LINE
8
BLACK
6
CONTINUOUS
10
245.924
20
-88.5321
11
245.923
21
-88.5274
0
LINE
8
BLACK
6
CONTINUOUS
10
245.923
20
-88.5274
11
245.922
21
-88.5225
0
LINE
8
BLACK
6
CONTINUOUS
10
245.922
20
-88.5225
11
245.922
21
-88.5212
0
LINE
8
BLACK
6
CONTINUOUS
10
245.922
20
-88.5212
11
245.922
21
-85.5237
0
LINE
8
BLACK
6
CONTINUOUS
10
245.922
20
-85.5237
11
245.922
21
-85.5225
0
LINE
8
BLACK
6
CONTINUOUS
10
245.922
20
-85.5225
11
245.923
21
-85.5176
0
LINE
8
BLACK
6
CONTINUOUS
10
245.923
20
-85.5176
11
245.924
21
-85.5128
0
LINE
8
BLACK
6
CONTINUOUS
10
245.924
20
-85.5128
11
245.927
21
-85.5085
0
LINE
8
BLACK
6
CONTINUOUS
10
245.927
20
-85.5085
11
245.93
21
-85.5047
0
LINE
8
BLACK
6
CONTINUOUS
10
245.93
20
-85.5047
11
245.934
21
-85.5016
0
LINE
8
BLACK
6
CONTINUOUS
10
245.934
20
-85.5016
11
245.938
21
-85.4993
0
LINE
8
BLACK
6
CONTINUOUS
10
245.938
20
-85.4993
11
245.943
21
-85.4978
0
LINE
8
BLACK
6
CONTINUOUS
10
245.943
20
-85.4978
11
245.946
21
-85.4975
0
LINE
8
BLACK
6
CONTINUOUS
10
245.946
20
-85.4975
11
245.946
21
-85.4975
0
LINE
8
BLACK
6
CONTINUOUS
10
245.946
20
-85.4975
11
245.947
21
-85.4973
0
LINE
8
BLACK
6
CONTINUOUS
10
245.947
20
-85.4973
11
245.949
21
-85.4975
0
LINE
8
BLACK
6
CONTINUOUS
10
245.949
20
-85.4975
11
249.346
21
-85.4975
0
LINE
8
BLACK
6
CONTINUOUS
10
249.346
20
-85.4975
11
249.347
21
-85.4973
0
LINE
8
BLACK
6
CONTINUOUS
10
249.347
20
-85.4973
11
249.349
21
-85.4975
0
LINE
8
BLACK
6
CONTINUOUS
10
245.972
20
-85.5475
11
245.972
21
-88.4975
0
LINE
8
BLACK
6
CONTINUOUS
10
245.972
20
-88.4975
11
249.322
21
-88.4975
0
LINE
8
BLACK
6
CONTINUOUS
10
249.322
20
-88.4975
11
249.322
21
-85.5475
0
LINE
8
BLACK
6
CONTINUOUS
10
249.322
20
-85.5475
11
245.972
21
-85.5475
0
LINE
8
BLACK
6
CONTINUOUS
10
192.199
20
-83.1162
11
192.199
21
-83.1162
0
LINE
8
BLACK
6
CONTINUOUS
10
192.199
20
-83.1162
11
192.202
21
-83.1166
0
LINE
8
BLACK
6
CONTINUOUS
10
192.202
20
-83.1166
11
192.207
21
-83.118
0
LINE
8
BLACK
6
CONTINUOUS
10
192.207
20
-83.118
11
192.211
21
-83.1203
0
LINE
8
BLACK
6
CONTINUOUS
10
192.211
20
-83.1203
11
192.215
21
-83.1234
0
LINE
8
BLACK
6
CONTINUOUS
10
192.215
20
-83.1234
11
192.218
21
-83.1273
0
LINE
8
BLACK
6
CONTINUOUS
10
192.218
20
-83.1273
11
192.221
21
-83.1316
0
LINE
8
BLACK
6
CONTINUOUS
10
192.221
20
-83.1316
11
192.222
21
-83.1363
0
LINE
8
BLACK
6
CONTINUOUS
10
192.222
20
-83.1363
11
192.223
21
-83.1412
0
LINE
8
BLACK
6
CONTINUOUS
10
192.223
20
-83.1412
11
192.222
21
-83.1424
0
LINE
8
BLACK
6
CONTINUOUS
10
192.222
20
-83.1424
11
192.222
21
-86.14
0
LINE
8
BLACK
6
CONTINUOUS
10
192.222
20
-86.14
11
192.223
21
-86.1412
0
LINE
8
BLACK
6
CONTINUOUS
10
192.223
20
-86.1412
11
192.222
21
-86.1424
0
LINE
8
BLACK
6
CONTINUOUS
10
192.222
20
-86.1424
11
192.222
21
-86.1424
0
LINE
8
BLACK
6
CONTINUOUS
10
192.222
20
-86.1424
11
192.222
21
-86.1461
0
LINE
8
BLACK
6
CONTINUOUS
10
192.222
20
-86.1461
11
192.221
21
-86.1508
0
LINE
8
BLACK
6
CONTINUOUS
10
192.221
20
-86.1508
11
192.218
21
-86.1552
0
LINE
8
BLACK
6
CONTINUOUS
10
192.218
20
-86.1552
11
192.215
21
-86.159
0
LINE
8
BLACK
6
CONTINUOUS
10
192.215
20
-86.159
11
192.211
21
-86.1621
0
LINE
8
BLACK
6
CONTINUOUS
10
192.211
20
-86.1621
11
192.207
21
-86.1644
0
LINE
8
BLACK
6
CONTINUOUS
10
192.207
20
-86.1644
11
192.202
21
-86.1658
0
LINE
8
BLACK
6
CONTINUOUS
10
192.202
20
-86.1658
11
192.197
21
-86.1663
0
LINE
8
BLACK
6
CONTINUOUS
10
192.197
20
-86.1663
11
192.196
21
-86.1662
0
LINE
8
BLACK
6
CONTINUOUS
10
192.196
20
-86.1662
11
188.799
21
-86.1662
0
LINE
8
BLACK
6
CONTINUOUS
10
188.799
20
-86.1662
11
188.797
21
-86.1663
0
LINE
8
BLACK
6
CONTINUOUS
10
188.797
20
-86.1663
11
188.793
21
-86.1658
0
LINE
8
BLACK
6
CONTINUOUS
10
188.793
20
-86.1658
11
188.788
21
-86.1644
0
LINE
8
BLACK
6
CONTINUOUS
10
188.788
20
-86.1644
11
188.784
21
-86.1621
0
LINE
8
BLACK
6
CONTINUOUS
10
188.784
20
-86.1621
11
188.78
21
-86.159
0
LINE
8
BLACK
6
CONTINUOUS
10
188.78
20
-86.159
11
188.777
21
-86.1552
0
LINE
8
BLACK
6
CONTINUOUS
10
188.777
20
-86.1552
11
188.774
21
-86.1508
0
LINE
8
BLACK
6
CONTINUOUS
10
188.774
20
-86.1508
11
188.773
21
-86.1461
0
LINE
8
BLACK
6
CONTINUOUS
10
188.773
20
-86.1461
11
188.772
21
-86.1412
0
LINE
8
BLACK
6
CONTINUOUS
10
188.772
20
-86.1412
11
188.772
21
-86.14
0
LINE
8
BLACK
6
CONTINUOUS
10
188.772
20
-86.14
11
188.772
21
-83.1424
0
LINE
8
BLACK
6
CONTINUOUS
10
188.772
20
-83.1424
11
188.772
21
-83.1412
0
LINE
8
BLACK
6
CONTINUOUS
10
188.772
20
-83.1412
11
188.773
21
-83.1363
0
LINE
8
BLACK
6
CONTINUOUS
10
188.773
20
-83.1363
11
188.774
21
-83.1316
0
LINE
8
BLACK
6
CONTINUOUS
10
188.774
20
-83.1316
11
188.777
21
-83.1273
0
LINE
8
BLACK
6
CONTINUOUS
10
188.777
20
-83.1273
11
188.78
21
-83.1234
0
LINE
8
BLACK
6
CONTINUOUS
10
188.78
20
-83.1234
11
188.784
21
-83.1203
0
LINE
8
BLACK
6
CONTINUOUS
10
188.784
20
-83.1203
11
188.788
21
-83.118
0
LINE
8
BLACK
6
CONTINUOUS
10
188.788
20
-83.118
11
188.793
21
-83.1166
0
LINE
8
BLACK
6
CONTINUOUS
10
188.793
20
-83.1166
11
188.796
21
-83.1162
0
LINE
8
BLACK
6
CONTINUOUS
10
188.796
20
-83.1162
11
188.796
21
-83.1162
0
LINE
8
BLACK
6
CONTINUOUS
10
188.796
20
-83.1162
11
188.797
21
-83.1161
0
LINE
8
BLACK
6
CONTINUOUS
10
188.797
20
-83.1161
11
188.799
21
-83.1162
0
LINE
8
BLACK
6
CONTINUOUS
10
188.799
20
-83.1162
11
192.196
21
-83.1162
0
LINE
8
BLACK
6
CONTINUOUS
10
192.196
20
-83.1162
11
192.197
21
-83.1161
0
LINE
8
BLACK
6
CONTINUOUS
10
192.197
20
-83.1161
11
192.199
21
-83.1162
0
LINE
8
BLACK
6
CONTINUOUS
10
188.822
20
-83.1662
11
188.822
21
-86.1162
0
LINE
8
BLACK
6
CONTINUOUS
10
188.822
20
-86.1162
11
192.172
21
-86.1162
0
LINE
8
BLACK
6
CONTINUOUS
10
192.172
20
-86.1162
11
192.172
21
-83.1662
0
LINE
8
BLACK
6
CONTINUOUS
10
192.172
20
-83.1662
11
188.822
21
-83.1662
0
LINE
8
BLACK
6
CONTINUOUS
10
230.299
20
-83.1162
11
230.299
21
-83.1162
0
LINE
8
BLACK
6
CONTINUOUS
10
230.299
20
-83.1162
11
230.302
21
-83.1166
0
LINE
8
BLACK
6
CONTINUOUS
10
230.302
20
-83.1166
11
230.307
21
-83.118
0
LINE
8
BLACK
6
CONTINUOUS
10
230.307
20
-83.118
11
230.311
21
-83.1203
0
LINE
8
BLACK
6
CONTINUOUS
10
230.311
20
-83.1203
11
230.315
21
-83.1234
0
LINE
8
BLACK
6
CONTINUOUS
10
230.315
20
-83.1234
11
230.318
21
-83.1273
0
LINE
8
BLACK
6
CONTINUOUS
10
230.318
20
-83.1273
11
230.321
21
-83.1316
0
LINE
8
BLACK
6
CONTINUOUS
10
230.321
20
-83.1316
11
230.322
21
-83.1363
0
LINE
8
BLACK
6
CONTINUOUS
10
230.322
20
-83.1363
11
230.323
21
-83.1412
0
LINE
8
BLACK
6
CONTINUOUS
10
230.323
20
-83.1412
11
230.322
21
-83.1424
0
LINE
8
BLACK
6
CONTINUOUS
10
230.322
20
-83.1424
11
230.322
21
-86.14
0
LINE
8
BLACK
6
CONTINUOUS
10
230.322
20
-86.14
11
230.323
21
-86.1412
0
LINE
8
BLACK
6
CONTINUOUS
10
230.323
20
-86.1412
11
230.322
21
-86.1424
0
LINE
8
BLACK
6
CONTINUOUS
10
230.322
20
-86.1424
11
230.322
21
-86.1424
0
LINE
8
BLACK
6
CONTINUOUS
10
230.322
20
-86.1424
11
230.322
21
-86.1461
0
LINE
8
BLACK
6
CONTINUOUS
10
230.322
20
-86.1461
11
230.321
21
-86.1508
0
LINE
8
BLACK
6
CONTINUOUS
10
230.321
20
-86.1508
11
230.318
21
-86.1552
0
LINE
8
BLACK
6
CONTINUOUS
10
230.318
20
-86.1552
11
230.315
21
-86.159
0
LINE
8
BLACK
6
CONTINUOUS
10
230.315
20
-86.159
11
230.311
21
-86.1621
0
LINE
8
BLACK
6
CONTINUOUS
10
230.311
20
-86.1621
11
230.307
21
-86.1644
0
LINE
8
BLACK
6
CONTINUOUS
10
230.307
20
-86.1644
11
230.302
21
-86.1658
0
LINE
8
BLACK
6
CONTINUOUS
10
230.302
20
-86.1658
11
230.297
21
-86.1663
0
LINE
8
BLACK
6
CONTINUOUS
10
230.297
20
-86.1663
11
230.296
21
-86.1662
0
LINE
8
BLACK
6
CONTINUOUS
10
230.296
20
-86.1662
11
226.899
21
-86.1662
0
LINE
8
BLACK
6
CONTINUOUS
10
226.899
20
-86.1662
11
226.897
21
-86.1663
0
LINE
8
BLACK
6
CONTINUOUS
10
226.897
20
-86.1663
11
226.893
21
-86.1658
0
LINE
8
BLACK
6
CONTINUOUS
10
226.893
20
-86.1658
11
226.888
21
-86.1644
0
LINE
8
BLACK
6
CONTINUOUS
10
226.888
20
-86.1644
11
226.884
21
-86.1621
0
LINE
8
BLACK
6
CONTINUOUS
10
226.884
20
-86.1621
11
226.88
21
-86.159
0
LINE
8
BLACK
6
CONTINUOUS
10
226.88
20
-86.159
11
226.877
21
-86.1552
0
LINE
8
BLACK
6
CONTINUOUS
10
226.877
20
-86.1552
11
226.874
21
-86.1508
0
LINE
8
BLACK
6
CONTINUOUS
10
226.874
20
-86.1508
11
226.873
21
-86.1461
0
LINE
8
BLACK
6
CONTINUOUS
10
226.873
20
-86.1461
11
226.872
21
-86.1412
0
LINE
8
BLACK
6
CONTINUOUS
10
226.872
20
-86.1412
11
226.872
21
-86.14
0
LINE
8
BLACK
6
CONTINUOUS
10
226.872
20
-86.14
11
226.872
21
-83.1424
0
LINE
8
BLACK
6
CONTINUOUS
10
226.872
20
-83.1424
11
226.872
21
-83.1412
0
LINE
8
BLACK
6
CONTINUOUS
10
226.872
20
-83.1412
11
226.873
21
-83.1363
0
LINE
8
BLACK
6
CONTINUOUS
10
226.873
20
-83.1363
11
226.874
21
-83.1316
0
LINE
8
BLACK
6
CONTINUOUS
10
226.874
20
-83.1316
11
226.877
21
-83.1273
0
LINE
8
BLACK
6
CONTINUOUS
10
226.877
20
-83.1273
11
226.88
21
-83.1234
0
LINE
8
BLACK
6
CONTINUOUS
10
226.88
20
-83.1234
11
226.884
21
-83.1203
0
LINE
8
BLACK
6
CONTINUOUS
10
226.884
20
-83.1203
11
226.888
21
-83.118
0
LINE
8
BLACK
6
CONTINUOUS
10
226.888
20
-83.118
11
226.893
21
-83.1166
0
LINE
8
BLACK
6
CONTINUOUS
10
226.893
20
-83.1166
11
226.896
21
-83.1162
0
LINE
8
BLACK
6
CONTINUOUS
10
226.896
20
-83.1162
11
226.896
21
-83.1162
0
LINE
8
BLACK
6
CONTINUOUS
10
226.896
20
-83.1162
11
226.897
21
-83.1161
0
LINE
8
BLACK
6
CONTINUOUS
10
226.897
20
-83.1161
11
226.899
21
-83.1162
0
LINE
8
BLACK
6
CONTINUOUS
10
226.899
20
-83.1162
11
230.296
21
-83.1162
0
LINE
8
BLACK
6
CONTINUOUS
10
230.296
20
-83.1162
11
230.297
21
-83.1161
0
LINE
8
BLACK
6
CONTINUOUS
10
230.297
20
-83.1161
11
230.299
21
-83.1162
0
LINE
8
BLACK
6
CONTINUOUS
10
226.922
20
-83.1662
11
226.922
21
-86.1162
0
LINE
8
BLACK
6
CONTINUOUS
10
226.922
20
-86.1162
11
230.272
21
-86.1162
0
LINE
8
BLACK
6
CONTINUOUS
10
230.272
20
-86.1162
11
230.272
21
-83.1662
0
LINE
8
BLACK
6
CONTINUOUS
10
230.272
20
-83.1662
11
226.922
21
-83.1662
0
LINE
8
BLACK
6
CONTINUOUS
10
211.249
20
-80.735
11
211.249
21
-80.735
0
LINE
8
BLACK
6
CONTINUOUS
10
211.249
20
-80.735
11
211.252
21
-80.7353
0
LINE
8
BLACK
6
CONTINUOUS
10
211.252
20
-80.7353
11
211.257
21
-80.7368
0
LINE
8
BLACK
6
CONTINUOUS
10
211.257
20
-80.7368
11
211.261
21
-80.7391
0
LINE
8
BLACK
6
CONTINUOUS
10
211.261
20
-80.7391
11
211.265
21
-80.7422
0
LINE
8
BLACK
6
CONTINUOUS
10
211.265
20
-80.7422
11
211.268
21
-80.746
0
LINE
8
BLACK
6
CONTINUOUS
10
211.268
20
-80.746
11
211.271
21
-80.7503
0
LINE
8
BLACK
6
CONTINUOUS
10
211.271
20
-80.7503
11
211.272
21
-80.7551
0
LINE
8
BLACK
6
CONTINUOUS
10
211.272
20
-80.7551
11
211.273
21
-80.76
0
LINE
8
BLACK
6
CONTINUOUS
10
211.273
20
-80.76
11
211.272
21
-80.7612
0
LINE
8
BLACK
6
CONTINUOUS
10
211.272
20
-80.7612
11
211.272
21
-83.7587
0
LINE
8
BLACK
6
CONTINUOUS
10
211.272
20
-83.7587
11
211.273
21
-83.76
0
LINE
8
BLACK
6
CONTINUOUS
10
211.273
20
-83.76
11
211.272
21
-83.7612
0
LINE
8
BLACK
6
CONTINUOUS
10
211.272
20
-83.7612
11
211.272
21
-83.7612
0
LINE
8
BLACK
6
CONTINUOUS
10
211.272
20
-83.7612
11
211.272
21
-83.7649
0
LINE
8
BLACK
6
CONTINUOUS
10
211.272
20
-83.7649
11
211.271
21
-83.7696
0
LINE
8
BLACK
6
CONTINUOUS
10
211.271
20
-83.7696
11
211.268
21
-83.7739
0
LINE
8
BLACK
6
CONTINUOUS
10
211.268
20
-83.7739
11
211.265
21
-83.7777
0
LINE
8
BLACK
6
CONTINUOUS
10
211.265
20
-83.7777
11
211.261
21
-83.7808
0
LINE
8
BLACK
6
CONTINUOUS
10
211.261
20
-83.7808
11
211.257
21
-83.7832
0
LINE
8
BLACK
6
CONTINUOUS
10
211.257
20
-83.7832
11
211.252
21
-83.7846
0
LINE
8
BLACK
6
CONTINUOUS
10
211.252
20
-83.7846
11
211.247
21
-83.7851
0
LINE
8
BLACK
6
CONTINUOUS
10
211.247
20
-83.7851
11
211.246
21
-83.785
0
LINE
8
BLACK
6
CONTINUOUS
10
211.246
20
-83.785
11
207.849
21
-83.785
0
LINE
8
BLACK
6
CONTINUOUS
10
207.849
20
-83.785
11
207.847
21
-83.7851
0
LINE
8
BLACK
6
CONTINUOUS
10
207.847
20
-83.7851
11
207.843
21
-83.7846
0
LINE
8
BLACK
6
CONTINUOUS
10
207.843
20
-83.7846
11
207.838
21
-83.7832
0
LINE
8
BLACK
6
CONTINUOUS
10
207.838
20
-83.7832
11
207.834
21
-83.7808
0
LINE
8
BLACK
6
CONTINUOUS
10
207.834
20
-83.7808
11
207.83
21
-83.7777
0
LINE
8
BLACK
6
CONTINUOUS
10
207.83
20
-83.7777
11
207.827
21
-83.7739
0
LINE
8
BLACK
6
CONTINUOUS
10
207.827
20
-83.7739
11
207.824
21
-83.7696
0
LINE
8
BLACK
6
CONTINUOUS
10
207.824
20
-83.7696
11
207.823
21
-83.7649
0
LINE
8
BLACK
6
CONTINUOUS
10
207.823
20
-83.7649
11
207.822
21
-83.76
0
LINE
8
BLACK
6
CONTINUOUS
10
207.822
20
-83.76
11
207.822
21
-83.7587
0
LINE
8
BLACK
6
CONTINUOUS
10
207.822
20
-83.7587
11
207.822
21
-80.7612
0
LINE
8
BLACK
6
CONTINUOUS
10
207.822
20
-80.7612
11
207.822
21
-80.76
0
LINE
8
BLACK
6
CONTINUOUS
10
207.822
20
-80.76
11
207.823
21
-80.7551
0
LINE
8
BLACK
6
CONTINUOUS
10
207.823
20
-80.7551
11
207.824
21
-80.7503
0
LINE
8
BLACK
6
CONTINUOUS
10
207.824
20
-80.7503
11
207.827
21
-80.746
0
LINE
8
BLACK
6
CONTINUOUS
10
207.827
20
-80.746
11
207.83
21
-80.7422
0
LINE
8
BLACK
6
CONTINUOUS
10
207.83
20
-80.7422
11
207.834
21
-80.7391
0
LINE
8
BLACK
6
CONTINUOUS
10
207.834
20
-80.7391
11
207.838
21
-80.7368
0
LINE
8
BLACK
6
CONTINUOUS
10
207.838
20
-80.7368
11
207.843
21
-80.7353
0
LINE
8
BLACK
6
CONTINUOUS
10
207.843
20
-80.7353
11
207.846
21
-80.735
0
LINE
8
BLACK
6
CONTINUOUS
10
207.846
20
-80.735
11
207.846
21
-80.735
0
LINE
8
BLACK
6
CONTINUOUS
10
207.846
20
-80.735
11
207.847
21
-80.7348
0
LINE
8
BLACK
6
CONTINUOUS
10
207.847
20
-80.7348
11
207.849
21
-80.735
0
LINE
8
BLACK
6
CONTINUOUS
10
207.849
20
-80.735
11
211.246
21
-80.735
0
LINE
8
BLACK
6
CONTINUOUS
10
211.246
20
-80.735
11
211.247
21
-80.7348
0
LINE
8
BLACK
6
CONTINUOUS
10
211.247
20
-80.7348
11
211.249
21
-80.735
0
LINE
8
BLACK
6
CONTINUOUS
10
207.872
20
-80.785
11
207.872
21
-83.735
0
LINE
8
BLACK
6
CONTINUOUS
10
207.872
20
-83.735
11
211.222
21
-83.735
0
LINE
8
BLACK
6
CONTINUOUS
10
211.222
20
-83.735
11
211.222
21
-80.785
0
LINE
8
BLACK
6
CONTINUOUS
10
211.222
20
-80.785
11
207.872
21
-80.785
0
LINE
8
BLACK
6
CONTINUOUS
10
173.147
20
-66.4463
11
173.147
21
-66.4463
0
LINE
8
BLACK
6
CONTINUOUS
10
173.147
20
-66.4463
11
173.151
21
-66.4467
0
LINE
8
BLACK
6
CONTINUOUS
10
173.151
20
-66.4467
11
173.156
21
-66.4481
0
LINE
8
BLACK
6
CONTINUOUS
10
173.156
20
-66.4481
11
173.16
21
-66.4504
0
LINE
8
BLACK
6
CONTINUOUS
10
173.16
20
-66.4504
11
173.164
21
-66.4535
0
LINE
8
BLACK
6
CONTINUOUS
10
173.164
20
-66.4535
11
173.167
21
-66.4574
0
LINE
8
BLACK
6
CONTINUOUS
10
173.167
20
-66.4574
11
173.169
21
-66.4617
0
LINE
8
BLACK
6
CONTINUOUS
10
173.169
20
-66.4617
11
173.171
21
-66.4664
0
LINE
8
BLACK
6
CONTINUOUS
10
173.171
20
-66.4664
11
173.171
21
-66.4713
0
LINE
8
BLACK
6
CONTINUOUS
10
173.171
20
-66.4713
11
173.171
21
-66.4725
0
LINE
8
BLACK
6
CONTINUOUS
10
173.171
20
-66.4725
11
173.171
21
-69.4701
0
LINE
8
BLACK
6
CONTINUOUS
10
173.171
20
-69.4701
11
173.171
21
-69.4713
0
LINE
8
BLACK
6
CONTINUOUS
10
173.171
20
-69.4713
11
173.171
21
-69.4725
0
LINE
8
BLACK
6
CONTINUOUS
10
173.171
20
-69.4725
11
173.171
21
-69.4725
0
LINE
8
BLACK
6
CONTINUOUS
10
173.171
20
-69.4725
11
173.171
21
-69.4762
0
LINE
8
BLACK
6
CONTINUOUS
10
173.171
20
-69.4762
11
173.169
21
-69.4809
0
LINE
8
BLACK
6
CONTINUOUS
10
173.169
20
-69.4809
11
173.167
21
-69.4853
0
LINE
8
BLACK
6
CONTINUOUS
10
173.167
20
-69.4853
11
173.164
21
-69.4891
0
LINE
8
BLACK
6
CONTINUOUS
10
173.164
20
-69.4891
11
173.16
21
-69.4922
0
LINE
8
BLACK
6
CONTINUOUS
10
173.16
20
-69.4922
11
173.156
21
-69.4945
0
LINE
8
BLACK
6
CONTINUOUS
10
173.156
20
-69.4945
11
173.151
21
-69.4959
0
LINE
8
BLACK
6
CONTINUOUS
10
173.151
20
-69.4959
11
173.146
21
-69.4964
0
LINE
8
BLACK
6
CONTINUOUS
10
173.146
20
-69.4964
11
173.145
21
-69.4963
0
LINE
8
BLACK
6
CONTINUOUS
10
173.145
20
-69.4963
11
169.747
21
-69.4963
0
LINE
8
BLACK
6
CONTINUOUS
10
169.747
20
-69.4963
11
169.746
21
-69.4964
0
LINE
8
BLACK
6
CONTINUOUS
10
169.746
20
-69.4964
11
169.741
21
-69.4959
0
LINE
8
BLACK
6
CONTINUOUS
10
169.741
20
-69.4959
11
169.737
21
-69.4945
0
LINE
8
BLACK
6
CONTINUOUS
10
169.737
20
-69.4945
11
169.732
21
-69.4922
0
LINE
8
BLACK
6
CONTINUOUS
10
169.732
20
-69.4922
11
169.728
21
-69.4891
0
LINE
8
BLACK
6
CONTINUOUS
10
169.728
20
-69.4891
11
169.725
21
-69.4853
0
LINE
8
BLACK
6
CONTINUOUS
10
169.725
20
-69.4853
11
169.723
21
-69.4809
0
LINE
8
BLACK
6
CONTINUOUS
10
169.723
20
-69.4809
11
169.722
21
-69.4762
0
LINE
8
BLACK
6
CONTINUOUS
10
169.722
20
-69.4762
11
169.721
21
-69.4713
0
LINE
8
BLACK
6
CONTINUOUS
10
169.721
20
-69.4713
11
169.721
21
-69.4701
0
LINE
8
BLACK
6
CONTINUOUS
10
169.721
20
-69.4701
11
169.721
21
-66.4725
0
LINE
8
BLACK
6
CONTINUOUS
10
169.721
20
-66.4725
11
169.721
21
-66.4713
0
LINE
8
BLACK
6
CONTINUOUS
10
169.721
20
-66.4713
11
169.722
21
-66.4664
0
LINE
8
BLACK
6
CONTINUOUS
10
169.722
20
-66.4664
11
169.723
21
-66.4617
0
LINE
8
BLACK
6
CONTINUOUS
10
169.723
20
-66.4617
11
169.725
21
-66.4574
0
LINE
8
BLACK
6
CONTINUOUS
10
169.725
20
-66.4574
11
169.728
21
-66.4535
0
LINE
8
BLACK
6
CONTINUOUS
10
169.728
20
-66.4535
11
169.732
21
-66.4504
0
LINE
8
BLACK
6
CONTINUOUS
10
169.732
20
-66.4504
11
169.737
21
-66.4481
0
LINE
8
BLACK
6
CONTINUOUS
10
169.737
20
-66.4481
11
169.741
21
-66.4467
0
LINE
8
BLACK
6
CONTINUOUS
10
169.741
20
-66.4467
11
169.745
21
-66.4463
0
LINE
8
BLACK
6
CONTINUOUS
10
169.745
20
-66.4463
11
169.745
21
-66.4463
0
LINE
8
BLACK
6
CONTINUOUS
10
169.745
20
-66.4463
11
169.746
21
-66.4462
0
LINE
8
BLACK
6
CONTINUOUS
10
169.746
20
-66.4462
11
169.747
21
-66.4463
0
LINE
8
BLACK
6
CONTINUOUS
10
169.747
20
-66.4463
11
173.145
21
-66.4463
0
LINE
8
BLACK
6
CONTINUOUS
10
173.145
20
-66.4463
11
173.146
21
-66.4462
0
LINE
8
BLACK
6
CONTINUOUS
10
173.146
20
-66.4462
11
173.147
21
-66.4463
0
LINE
8
BLACK
6
CONTINUOUS
10
169.771
20
-66.4963
11
169.771
21
-69.4463
0
LINE
8
BLACK
6
CONTINUOUS
10
169.771
20
-69.4463
11
173.121
21
-69.4463
0
LINE
8
BLACK
6
CONTINUOUS
10
173.121
20
-69.4463
11
173.121
21
-66.4963
0
LINE
8
BLACK
6
CONTINUOUS
10
173.121
20
-66.4963
11
169.771
21
-66.4963
0
LINE
8
BLACK
6
CONTINUOUS
10
273.16
20
-66.4463
11
273.16
21
-66.4463
0
LINE
8
BLACK
6
CONTINUOUS
10
273.16
20
-66.4463
11
273.164
21
-66.4467
0
LINE
8
BLACK
6
CONTINUOUS
10
273.164
20
-66.4467
11
273.168
21
-66.4481
0
LINE
8
BLACK
6
CONTINUOUS
10
273.168
20
-66.4481
11
273.173
21
-66.4504
0
LINE
8
BLACK
6
CONTINUOUS
10
273.173
20
-66.4504
11
273.177
21
-66.4535
0
LINE
8
BLACK
6
CONTINUOUS
10
273.177
20
-66.4535
11
273.18
21
-66.4574
0
LINE
8
BLACK
6
CONTINUOUS
10
273.18
20
-66.4574
11
273.182
21
-66.4617
0
LINE
8
BLACK
6
CONTINUOUS
10
273.182
20
-66.4617
11
273.183
21
-66.4664
0
LINE
8
BLACK
6
CONTINUOUS
10
273.183
20
-66.4664
11
273.184
21
-66.4713
0
LINE
8
BLACK
6
CONTINUOUS
10
273.184
20
-66.4713
11
273.184
21
-66.4725
0
LINE
8
BLACK
6
CONTINUOUS
10
273.184
20
-66.4725
11
273.184
21
-69.4701
0
LINE
8
BLACK
6
CONTINUOUS
10
273.184
20
-69.4701
11
273.184
21
-69.4713
0
LINE
8
BLACK
6
CONTINUOUS
10
273.184
20
-69.4713
11
273.184
21
-69.4725
0
LINE
8
BLACK
6
CONTINUOUS
10
273.184
20
-69.4725
11
273.184
21
-69.4725
0
LINE
8
BLACK
6
CONTINUOUS
10
273.184
20
-69.4725
11
273.183
21
-69.4762
0
LINE
8
BLACK
6
CONTINUOUS
10
273.183
20
-69.4762
11
273.182
21
-69.4809
0
LINE
8
BLACK
6
CONTINUOUS
10
273.182
20
-69.4809
11
273.18
21
-69.4853
0
LINE
8
BLACK
6
CONTINUOUS
10
273.18
20
-69.4853
11
273.177
21
-69.4891
0
LINE
8
BLACK
6
CONTINUOUS
10
273.177
20
-69.4891
11
273.173
21
-69.4922
0
LINE
8
BLACK
6
CONTINUOUS
10
273.173
20
-69.4922
11
273.168
21
-69.4945
0
LINE
8
BLACK
6
CONTINUOUS
10
273.168
20
-69.4945
11
273.164
21
-69.4959
0
LINE
8
BLACK
6
CONTINUOUS
10
273.164
20
-69.4959
11
273.159
21
-69.4964
0
LINE
8
BLACK
6
CONTINUOUS
10
273.159
20
-69.4964
11
273.158
21
-69.4963
0
LINE
8
BLACK
6
CONTINUOUS
10
273.158
20
-69.4963
11
269.76
21
-69.4963
0
LINE
8
BLACK
6
CONTINUOUS
10
269.76
20
-69.4963
11
269.759
21
-69.4964
0
LINE
8
BLACK
6
CONTINUOUS
10
269.759
20
-69.4964
11
269.754
21
-69.4959
0
LINE
8
BLACK
6
CONTINUOUS
10
269.754
20
-69.4959
11
269.749
21
-69.4945
0
LINE
8
BLACK
6
CONTINUOUS
10
269.749
20
-69.4945
11
269.745
21
-69.4922
0
LINE
8
BLACK
6
CONTINUOUS
10
269.745
20
-69.4922
11
269.741
21
-69.4891
0
LINE
8
BLACK
6
CONTINUOUS
10
269.741
20
-69.4891
11
269.738
21
-69.4853
0
LINE
8
BLACK
6
CONTINUOUS
10
269.738
20
-69.4853
11
269.736
21
-69.4809
0
LINE
8
BLACK
6
CONTINUOUS
10
269.736
20
-69.4809
11
269.734
21
-69.4762
0
LINE
8
BLACK
6
CONTINUOUS
10
269.734
20
-69.4762
11
269.734
21
-69.4713
0
LINE
8
BLACK
6
CONTINUOUS
10
269.734
20
-69.4713
11
269.734
21
-69.4701
0
LINE
8
BLACK
6
CONTINUOUS
10
269.734
20
-69.4701
11
269.734
21
-66.4725
0
LINE
8
BLACK
6
CONTINUOUS
10
269.734
20
-66.4725
11
269.734
21
-66.4713
0
LINE
8
BLACK
6
CONTINUOUS
10
269.734
20
-66.4713
11
269.734
21
-66.4664
0
LINE
8
BLACK
6
CONTINUOUS
10
269.734
20
-66.4664
11
269.736
21
-66.4617
0
LINE
8
BLACK
6
CONTINUOUS
10
269.736
20
-66.4617
11
269.738
21
-66.4574
0
LINE
8
BLACK
6
CONTINUOUS
10
269.738
20
-66.4574
11
269.741
21
-66.4535
0
LINE
8
BLACK
6
CONTINUOUS
10
269.741
20
-66.4535
11
269.745
21
-66.4504
0
LINE
8
BLACK
6
CONTINUOUS
10
269.745
20
-66.4504
11
269.749
21
-66.4481
0
LINE
8
BLACK
6
CONTINUOUS
10
269.749
20
-66.4481
11
269.754
21
-66.4467
0
LINE
8
BLACK
6
CONTINUOUS
10
269.754
20
-66.4467
11
269.758
21
-66.4463
0
LINE
8
BLACK
6
CONTINUOUS
10
269.758
20
-66.4463
11
269.758
21
-66.4463
0
LINE
8
BLACK
6
CONTINUOUS
10
269.758
20
-66.4463
11
269.759
21
-66.4462
0
LINE
8
BLACK
6
CONTINUOUS
10
269.759
20
-66.4462
11
269.76
21
-66.4463
0
LINE
8
BLACK
6
CONTINUOUS
10
269.76
20
-66.4463
11
273.158
21
-66.4463
0
LINE
8
BLACK
6
CONTINUOUS
10
273.158
20
-66.4463
11
273.159
21
-66.4462
0
LINE
8
BLACK
6
CONTINUOUS
10
273.159
20
-66.4462
11
273.16
21
-66.4463
0
LINE
8
BLACK
6
CONTINUOUS
10
269.784
20
-66.4963
11
269.784
21
-69.4463
0
LINE
8
BLACK
6
CONTINUOUS
10
269.784
20
-69.4463
11
273.134
21
-69.4463
0
LINE
8
BLACK
6
CONTINUOUS
10
273.134
20
-69.4463
11
273.134
21
-66.4963
0
LINE
8
BLACK
6
CONTINUOUS
10
273.134
20
-66.4963
11
269.784
21
-66.4963
0
LINE
8
BLACK
6
CONTINUOUS
10
249.347
20
-66.4463
11
249.347
21
-66.4463
0
LINE
8
BLACK
6
CONTINUOUS
10
249.347
20
-66.4463
11
249.351
21
-66.4467
0
LINE
8
BLACK
6
CONTINUOUS
10
249.351
20
-66.4467
11
249.356
21
-66.4481
0
LINE
8
BLACK
6
CONTINUOUS
10
249.356
20
-66.4481
11
249.36
21
-66.4504
0
LINE
8
BLACK
6
CONTINUOUS
10
249.36
20
-66.4504
11
249.364
21
-66.4535
0
LINE
8
BLACK
6
CONTINUOUS
10
249.364
20
-66.4535
11
249.367
21
-66.4574
0
LINE
8
BLACK
6
CONTINUOUS
10
249.367
20
-66.4574
11
249.369
21
-66.4617
0
LINE
8
BLACK
6
CONTINUOUS
10
249.369
20
-66.4617
11
249.371
21
-66.4664
0
LINE
8
BLACK
6
CONTINUOUS
10
249.371
20
-66.4664
11
249.371
21
-66.4713
0
LINE
8
BLACK
6
CONTINUOUS
10
249.371
20
-66.4713
11
249.371
21
-66.4725
0
LINE
8
BLACK
6
CONTINUOUS
10
249.371
20
-66.4725
11
249.371
21
-69.4701
0
LINE
8
BLACK
6
CONTINUOUS
10
249.371
20
-69.4701
11
249.371
21
-69.4713
0
LINE
8
BLACK
6
CONTINUOUS
10
249.371
20
-69.4713
11
249.371
21
-69.4725
0
LINE
8
BLACK
6
CONTINUOUS
10
249.371
20
-69.4725
11
249.371
21
-69.4725
0
LINE
8
BLACK
6
CONTINUOUS
10
249.371
20
-69.4725
11
249.371
21
-69.4762
0
LINE
8
BLACK
6
CONTINUOUS
10
249.371
20
-69.4762
11
249.369
21
-69.4809
0
LINE
8
BLACK
6
CONTINUOUS
10
249.369
20
-69.4809
11
249.367
21
-69.4853
0
LINE
8
BLACK
6
CONTINUOUS
10
249.367
20
-69.4853
11
249.364
21
-69.4891
0
LINE
8
BLACK
6
CONTINUOUS
10
249.364
20
-69.4891
11
249.36
21
-69.4922
0
LINE
8
BLACK
6
CONTINUOUS
10
249.36
20
-69.4922
11
249.356
21
-69.4945
0
LINE
8
BLACK
6
CONTINUOUS
10
249.356
20
-69.4945
11
249.351
21
-69.4959
0
LINE
8
BLACK
6
CONTINUOUS
10
249.351
20
-69.4959
11
249.346
21
-69.4964
0
LINE
8
BLACK
6
CONTINUOUS
10
249.346
20
-69.4964
11
249.345
21
-69.4963
0
LINE
8
BLACK
6
CONTINUOUS
10
249.345
20
-69.4963
11
245.947
21
-69.4963
0
LINE
8
BLACK
6
CONTINUOUS
10
245.947
20
-69.4963
11
245.946
21
-69.4964
0
LINE
8
BLACK
6
CONTINUOUS
10
245.946
20
-69.4964
11
245.941
21
-69.4959
0
LINE
8
BLACK
6
CONTINUOUS
10
245.941
20
-69.4959
11
245.937
21
-69.4945
0
LINE
8
BLACK
6
CONTINUOUS
10
245.937
20
-69.4945
11
245.932
21
-69.4922
0
LINE
8
BLACK
6
CONTINUOUS
10
245.932
20
-69.4922
11
245.928
21
-69.4891
0
LINE
8
BLACK
6
CONTINUOUS
10
245.928
20
-69.4891
11
245.925
21
-69.4853
0
LINE
8
BLACK
6
CONTINUOUS
10
245.925
20
-69.4853
11
245.923
21
-69.4809
0
LINE
8
BLACK
6
CONTINUOUS
10
245.923
20
-69.4809
11
245.922
21
-69.4762
0
LINE
8
BLACK
6
CONTINUOUS
10
245.922
20
-69.4762
11
245.921
21
-69.4713
0
LINE
8
BLACK
6
CONTINUOUS
10
245.921
20
-69.4713
11
245.921
21
-69.4701
0
LINE
8
BLACK
6
CONTINUOUS
10
245.921
20
-69.4701
11
245.921
21
-66.4725
0
LINE
8
BLACK
6
CONTINUOUS
10
245.921
20
-66.4725
11
245.921
21
-66.4713
0
LINE
8
BLACK
6
CONTINUOUS
10
245.921
20
-66.4713
11
245.922
21
-66.4664
0
LINE
8
BLACK
6
CONTINUOUS
10
245.922
20
-66.4664
11
245.923
21
-66.4617
0
LINE
8
BLACK
6
CONTINUOUS
10
245.923
20
-66.4617
11
245.925
21
-66.4574
0
LINE
8
BLACK
6
CONTINUOUS
10
245.925
20
-66.4574
11
245.928
21
-66.4535
0
LINE
8
BLACK
6
CONTINUOUS
10
245.928
20
-66.4535
11
245.932
21
-66.4504
0
LINE
8
BLACK
6
CONTINUOUS
10
245.932
20
-66.4504
11
245.937
21
-66.4481
0
LINE
8
BLACK
6
CONTINUOUS
10
245.937
20
-66.4481
11
245.941
21
-66.4467
0
LINE
8
BLACK
6
CONTINUOUS
10
245.941
20
-66.4467
11
245.945
21
-66.4463
0
LINE
8
BLACK
6
CONTINUOUS
10
245.945
20
-66.4463
11
245.945
21
-66.4463
0
LINE
8
BLACK
6
CONTINUOUS
10
245.945
20
-66.4463
11
245.946
21
-66.4462
0
LINE
8
BLACK
6
CONTINUOUS
10
245.946
20
-66.4462
11
245.947
21
-66.4463
0
LINE
8
BLACK
6
CONTINUOUS
10
245.947
20
-66.4463
11
249.345
21
-66.4463
0
LINE
8
BLACK
6
CONTINUOUS
10
249.345
20
-66.4463
11
249.346
21
-66.4462
0
LINE
8
BLACK
6
CONTINUOUS
10
249.346
20
-66.4462
11
249.347
21
-66.4463
0
LINE
8
BLACK
6
CONTINUOUS
10
245.971
20
-66.4963
11
245.971
21
-69.4463
0
LINE
8
BLACK
6
CONTINUOUS
10
245.971
20
-69.4463
11
249.321
21
-69.4463
0
LINE
8
BLACK
6
CONTINUOUS
10
249.321
20
-69.4463
11
249.321
21
-66.4963
0
LINE
8
BLACK
6
CONTINUOUS
10
249.321
20
-66.4963
11
245.971
21
-66.4963
0
LINE
8
BLACK
6
CONTINUOUS
10
154.097
20
-66.4463
11
154.097
21
-66.4463
0
LINE
8
BLACK
6
CONTINUOUS
10
154.097
20
-66.4463
11
154.101
21
-66.4467
0
LINE
8
BLACK
6
CONTINUOUS
10
154.101
20
-66.4467
11
154.106
21
-66.4481
0
LINE
8
BLACK
6
CONTINUOUS
10
154.106
20
-66.4481
11
154.11
21
-66.4504
0
LINE
8
BLACK
6
CONTINUOUS
10
154.11
20
-66.4504
11
154.114
21
-66.4535
0
LINE
8
BLACK
6
CONTINUOUS
10
154.114
20
-66.4535
11
154.117
21
-66.4574
0
LINE
8
BLACK
6
CONTINUOUS
10
154.117
20
-66.4574
11
154.119
21
-66.4617
0
LINE
8
BLACK
6
CONTINUOUS
10
154.119
20
-66.4617
11
154.121
21
-66.4664
0
LINE
8
BLACK
6
CONTINUOUS
10
154.121
20
-66.4664
11
154.121
21
-66.4713
0
LINE
8
BLACK
6
CONTINUOUS
10
154.121
20
-66.4713
11
154.121
21
-66.4725
0
LINE
8
BLACK
6
CONTINUOUS
10
154.121
20
-66.4725
11
154.121
21
-69.4701
0
LINE
8
BLACK
6
CONTINUOUS
10
154.121
20
-69.4701
11
154.121
21
-69.4713
0
LINE
8
BLACK
6
CONTINUOUS
10
154.121
20
-69.4713
11
154.121
21
-69.4725
0
LINE
8
BLACK
6
CONTINUOUS
10
154.121
20
-69.4725
11
154.121
21
-69.4725
0
LINE
8
BLACK
6
CONTINUOUS
10
154.121
20
-69.4725
11
154.121
21
-69.4762
0
LINE
8
BLACK
6
CONTINUOUS
10
154.121
20
-69.4762
11
154.119
21
-69.4809
0
LINE
8
BLACK
6
CONTINUOUS
10
154.119
20
-69.4809
11
154.117
21
-69.4853
0
LINE
8
BLACK
6
CONTINUOUS
10
154.117
20
-69.4853
11
154.114
21
-69.4891
0
LINE
8
BLACK
6
CONTINUOUS
10
154.114
20
-69.4891
11
154.11
21
-69.4922
0
LINE
8
BLACK
6
CONTINUOUS
10
154.11
20
-69.4922
11
154.106
21
-69.4945
0
LINE
8
BLACK
6
CONTINUOUS
10
154.106
20
-69.4945
11
154.101
21
-69.4959
0
LINE
8
BLACK
6
CONTINUOUS
10
154.101
20
-69.4959
11
154.096
21
-69.4964
0
LINE
8
BLACK
6
CONTINUOUS
10
154.096
20
-69.4964
11
154.095
21
-69.4963
0
LINE
8
BLACK
6
CONTINUOUS
10
154.095
20
-69.4963
11
150.697
21
-69.4963
0
LINE
8
BLACK
6
CONTINUOUS
10
150.697
20
-69.4963
11
150.696
21
-69.4964
0
LINE
8
BLACK
6
CONTINUOUS
10
150.696
20
-69.4964
11
150.691
21
-69.4959
0
LINE
8
BLACK
6
CONTINUOUS
10
150.691
20
-69.4959
11
150.687
21
-69.4945
0
LINE
8
BLACK
6
CONTINUOUS
10
150.687
20
-69.4945
11
150.682
21
-69.4922
0
LINE
8
BLACK
6
CONTINUOUS
10
150.682
20
-69.4922
11
150.678
21
-69.4891
0
LINE
8
BLACK
6
CONTINUOUS
10
150.678
20
-69.4891
11
150.675
21
-69.4853
0
LINE
8
BLACK
6
CONTINUOUS
10
150.675
20
-69.4853
11
150.673
21
-69.4809
0
LINE
8
BLACK
6
CONTINUOUS
10
150.673
20
-69.4809
11
150.672
21
-69.4762
0
LINE
8
BLACK
6
CONTINUOUS
10
150.672
20
-69.4762
11
150.671
21
-69.4713
0
LINE
8
BLACK
6
CONTINUOUS
10
150.671
20
-69.4713
11
150.671
21
-69.4701
0
LINE
8
BLACK
6
CONTINUOUS
10
150.671
20
-69.4701
11
150.671
21
-66.4725
0
LINE
8
BLACK
6
CONTINUOUS
10
150.671
20
-66.4725
11
150.671
21
-66.4713
0
LINE
8
BLACK
6
CONTINUOUS
10
150.671
20
-66.4713
11
150.672
21
-66.4664
0
LINE
8
BLACK
6
CONTINUOUS
10
150.672
20
-66.4664
11
150.673
21
-66.4617
0
LINE
8
BLACK
6
CONTINUOUS
10
150.673
20
-66.4617
11
150.675
21
-66.4574
0
LINE
8
BLACK
6
CONTINUOUS
10
150.675
20
-66.4574
11
150.678
21
-66.4535
0
LINE
8
BLACK
6
CONTINUOUS
10
150.678
20
-66.4535
11
150.682
21
-66.4504
0
LINE
8
BLACK
6
CONTINUOUS
10
150.682
20
-66.4504
11
150.687
21
-66.4481
0
LINE
8
BLACK
6
CONTINUOUS
10
150.687
20
-66.4481
11
150.691
21
-66.4467
0
LINE
8
BLACK
6
CONTINUOUS
10
150.691
20
-66.4467
11
150.695
21
-66.4463
0
LINE
8
BLACK
6
CONTINUOUS
10
150.695
20
-66.4463
11
150.695
21
-66.4463
0
LINE
8
BLACK
6
CONTINUOUS
10
150.695
20
-66.4463
11
150.696
21
-66.4462
0
LINE
8
BLACK
6
CONTINUOUS
10
150.696
20
-66.4462
11
150.697
21
-66.4463
0
LINE
8
BLACK
6
CONTINUOUS
10
150.697
20
-66.4463
11
154.095
21
-66.4463
0
LINE
8
BLACK
6
CONTINUOUS
10
154.095
20
-66.4463
11
154.096
21
-66.4462
0
LINE
8
BLACK
6
CONTINUOUS
10
154.096
20
-66.4462
11
154.097
21
-66.4463
0
LINE
8
BLACK
6
CONTINUOUS
10
150.721
20
-66.4963
11
150.721
21
-69.4463
0
LINE
8
BLACK
6
CONTINUOUS
10
150.721
20
-69.4463
11
154.071
21
-69.4463
0
LINE
8
BLACK
6
CONTINUOUS
10
154.071
20
-69.4463
11
154.071
21
-66.4963
0
LINE
8
BLACK
6
CONTINUOUS
10
154.071
20
-66.4963
11
150.721
21
-66.4963
0
LINE
8
BLACK
6
CONTINUOUS
10
230.297
20
-64.0651
11
230.297
21
-64.0651
0
LINE
8
BLACK
6
CONTINUOUS
10
230.297
20
-64.0651
11
230.301
21
-64.0654
0
LINE
8
BLACK
6
CONTINUOUS
10
230.301
20
-64.0654
11
230.306
21
-64.0669
0
LINE
8
BLACK
6
CONTINUOUS
10
230.306
20
-64.0669
11
230.31
21
-64.0692
0
LINE
8
BLACK
6
CONTINUOUS
10
230.31
20
-64.0692
11
230.314
21
-64.0723
0
LINE
8
BLACK
6
CONTINUOUS
10
230.314
20
-64.0723
11
230.317
21
-64.0761
0
LINE
8
BLACK
6
CONTINUOUS
10
230.317
20
-64.0761
11
230.319
21
-64.0804
0
LINE
8
BLACK
6
CONTINUOUS
10
230.319
20
-64.0804
11
230.321
21
-64.0852
0
LINE
8
BLACK
6
CONTINUOUS
10
230.321
20
-64.0852
11
230.321
21
-64.0901
0
LINE
8
BLACK
6
CONTINUOUS
10
230.321
20
-64.0901
11
230.321
21
-64.0913
0
LINE
8
BLACK
6
CONTINUOUS
10
230.321
20
-64.0913
11
230.321
21
-67.0888
0
LINE
8
BLACK
6
CONTINUOUS
10
230.321
20
-67.0888
11
230.321
21
-67.0901
0
LINE
8
BLACK
6
CONTINUOUS
10
230.321
20
-67.0901
11
230.321
21
-67.0913
0
LINE
8
BLACK
6
CONTINUOUS
10
230.321
20
-67.0913
11
230.321
21
-67.0913
0
LINE
8
BLACK
6
CONTINUOUS
10
230.321
20
-67.0913
11
230.321
21
-67.095
0
LINE
8
BLACK
6
CONTINUOUS
10
230.321
20
-67.095
11
230.319
21
-67.0997
0
LINE
8
BLACK
6
CONTINUOUS
10
230.319
20
-67.0997
11
230.317
21
-67.104
0
LINE
8
BLACK
6
CONTINUOUS
10
230.317
20
-67.104
11
230.314
21
-67.1078
0
LINE
8
BLACK
6
CONTINUOUS
10
230.314
20
-67.1078
11
230.31
21
-67.1109
0
LINE
8
BLACK
6
CONTINUOUS
10
230.31
20
-67.1109
11
230.306
21
-67.1133
0
LINE
8
BLACK
6
CONTINUOUS
10
230.306
20
-67.1133
11
230.301
21
-67.1147
0
LINE
8
BLACK
6
CONTINUOUS
10
230.301
20
-67.1147
11
230.296
21
-67.1152
0
LINE
8
BLACK
6
CONTINUOUS
10
230.296
20
-67.1152
11
230.295
21
-67.1151
0
LINE
8
BLACK
6
CONTINUOUS
10
230.295
20
-67.1151
11
226.897
21
-67.1151
0
LINE
8
BLACK
6
CONTINUOUS
10
226.897
20
-67.1151
11
226.896
21
-67.1152
0
LINE
8
BLACK
6
CONTINUOUS
10
226.896
20
-67.1152
11
226.891
21
-67.1147
0
LINE
8
BLACK
6
CONTINUOUS
10
226.891
20
-67.1147
11
226.887
21
-67.1133
0
LINE
8
BLACK
6
CONTINUOUS
10
226.887
20
-67.1133
11
226.882
21
-67.1109
0
LINE
8
BLACK
6
CONTINUOUS
10
226.882
20
-67.1109
11
226.878
21
-67.1078
0
LINE
8
BLACK
6
CONTINUOUS
10
226.878
20
-67.1078
11
226.875
21
-67.104
0
LINE
8
BLACK
6
CONTINUOUS
10
226.875
20
-67.104
11
226.873
21
-67.0997
0
LINE
8
BLACK
6
CONTINUOUS
10
226.873
20
-67.0997
11
226.872
21
-67.095
0
LINE
8
BLACK
6
CONTINUOUS
10
226.872
20
-67.095
11
226.871
21
-67.0901
0
LINE
8
BLACK
6
CONTINUOUS
10
226.871
20
-67.0901
11
226.871
21
-67.0888
0
LINE
8
BLACK
6
CONTINUOUS
10
226.871
20
-67.0888
11
226.871
21
-64.0913
0
LINE
8
BLACK
6
CONTINUOUS
10
226.871
20
-64.0913
11
226.871
21
-64.0901
0
LINE
8
BLACK
6
CONTINUOUS
10
226.871
20
-64.0901
11
226.872
21
-64.0852
0
LINE
8
BLACK
6
CONTINUOUS
10
226.872
20
-64.0852
11
226.873
21
-64.0804
0
LINE
8
BLACK
6
CONTINUOUS
10
226.873
20
-64.0804
11
226.875
21
-64.0761
0
LINE
8
BLACK
6
CONTINUOUS
10
226.875
20
-64.0761
11
226.878
21
-64.0723
0
LINE
8
BLACK
6
CONTINUOUS
10
226.878
20
-64.0723
11
226.882
21
-64.0692
0
LINE
8
BLACK
6
CONTINUOUS
10
226.882
20
-64.0692
11
226.887
21
-64.0669
0
LINE
8
BLACK
6
CONTINUOUS
10
226.887
20
-64.0669
11
226.891
21
-64.0654
0
LINE
8
BLACK
6
CONTINUOUS
10
226.891
20
-64.0654
11
226.895
21
-64.0651
0
LINE
8
BLACK
6
CONTINUOUS
10
226.895
20
-64.0651
11
226.895
21
-64.0651
0
LINE
8
BLACK
6
CONTINUOUS
10
226.895
20
-64.0651
11
226.896
21
-64.0649
0
LINE
8
BLACK
6
CONTINUOUS
10
226.896
20
-64.0649
11
226.897
21
-64.0651
0
LINE
8
BLACK
6
CONTINUOUS
10
226.897
20
-64.0651
11
230.295
21
-64.0651
0
LINE
8
BLACK
6
CONTINUOUS
10
230.295
20
-64.0651
11
230.296
21
-64.0649
0
LINE
8
BLACK
6
CONTINUOUS
10
230.296
20
-64.0649
11
230.297
21
-64.0651
0
LINE
8
BLACK
6
CONTINUOUS
10
226.921
20
-64.1151
11
226.921
21
-67.0651
0
LINE
8
BLACK
6
CONTINUOUS
10
226.921
20
-67.0651
11
230.271
21
-67.0651
0
LINE
8
BLACK
6
CONTINUOUS
10
230.271
20
-67.0651
11
230.271
21
-64.1151
0
LINE
8
BLACK
6
CONTINUOUS
10
230.271
20
-64.1151
11
226.921
21
-64.1151
0
LINE
8
BLACK
6
CONTINUOUS
10
192.197
20
-64.0651
11
192.197
21
-64.0651
0
LINE
8
BLACK
6
CONTINUOUS
10
192.197
20
-64.0651
11
192.201
21
-64.0654
0
LINE
8
BLACK
6
CONTINUOUS
10
192.201
20
-64.0654
11
192.206
21
-64.0669
0
LINE
8
BLACK
6
CONTINUOUS
10
192.206
20
-64.0669
11
192.21
21
-64.0692
0
LINE
8
BLACK
6
CONTINUOUS
10
192.21
20
-64.0692
11
192.214
21
-64.0723
0
LINE
8
BLACK
6
CONTINUOUS
10
192.214
20
-64.0723
11
192.217
21
-64.0761
0
LINE
8
BLACK
6
CONTINUOUS
10
192.217
20
-64.0761
11
192.219
21
-64.0804
0
LINE
8
BLACK
6
CONTINUOUS
10
192.219
20
-64.0804
11
192.221
21
-64.0852
0
LINE
8
BLACK
6
CONTINUOUS
10
192.221
20
-64.0852
11
192.221
21
-64.0901
0
LINE
8
BLACK
6
CONTINUOUS
10
192.221
20
-64.0901
11
192.221
21
-64.0913
0
LINE
8
BLACK
6
CONTINUOUS
10
192.221
20
-64.0913
11
192.221
21
-67.0888
0
LINE
8
BLACK
6
CONTINUOUS
10
192.221
20
-67.0888
11
192.221
21
-67.0901
0
LINE
8
BLACK
6
CONTINUOUS
10
192.221
20
-67.0901
11
192.221
21
-67.0913
0
LINE
8
BLACK
6
CONTINUOUS
10
192.221
20
-67.0913
11
192.221
21
-67.0913
0
LINE
8
BLACK
6
CONTINUOUS
10
192.221
20
-67.0913
11
192.221
21
-67.095
0
LINE
8
BLACK
6
CONTINUOUS
10
192.221
20
-67.095
11
192.219
21
-67.0997
0
LINE
8
BLACK
6
CONTINUOUS
10
192.219
20
-67.0997
11
192.217
21
-67.104
0
LINE
8
BLACK
6
CONTINUOUS
10
192.217
20
-67.104
11
192.214
21
-67.1078
0
LINE
8
BLACK
6
CONTINUOUS
10
192.214
20
-67.1078
11
192.21
21
-67.1109
0
LINE
8
BLACK
6
CONTINUOUS
10
192.21
20
-67.1109
11
192.206
21
-67.1133
0
LINE
8
BLACK
6
CONTINUOUS
10
192.206
20
-67.1133
11
192.201
21
-67.1147
0
LINE
8
BLACK
6
CONTINUOUS
10
192.201
20
-67.1147
11
192.196
21
-67.1152
0
LINE
8
BLACK
6
CONTINUOUS
10
192.196
20
-67.1152
11
192.195
21
-67.1151
0
LINE
8
BLACK
6
CONTINUOUS
10
192.195
20
-67.1151
11
188.797
21
-67.1151
0
LINE
8
BLACK
6
CONTINUOUS
10
188.797
20
-67.1151
11
188.796
21
-67.1152
0
LINE
8
BLACK
6
CONTINUOUS
10
188.796
20
-67.1152
11
188.791
21
-67.1147
0
LINE
8
BLACK
6
CONTINUOUS
10
188.791
20
-67.1147
11
188.787
21
-67.1133
0
LINE
8
BLACK
6
CONTINUOUS
10
188.787
20
-67.1133
11
188.782
21
-67.1109
0
LINE
8
BLACK
6
CONTINUOUS
10
188.782
20
-67.1109
11
188.778
21
-67.1078
0
LINE
8
BLACK
6
CONTINUOUS
10
188.778
20
-67.1078
11
188.775
21
-67.104
0
LINE
8
BLACK
6
CONTINUOUS
10
188.775
20
-67.104
11
188.773
21
-67.0997
0
LINE
8
BLACK
6
CONTINUOUS
10
188.773
20
-67.0997
11
188.772
21
-67.095
0
LINE
8
BLACK
6
CONTINUOUS
10
188.772
20
-67.095
11
188.771
21
-67.0901
0
LINE
8
BLACK
6
CONTINUOUS
10
188.771
20
-67.0901
11
188.771
21
-67.0888
0
LINE
8
BLACK
6
CONTINUOUS
10
188.771
20
-67.0888
11
188.771
21
-64.0913
0
LINE
8
BLACK
6
CONTINUOUS
10
188.771
20
-64.0913
11
188.771
21
-64.0901
0
LINE
8
BLACK
6
CONTINUOUS
10
188.771
20
-64.0901
11
188.772
21
-64.0852
0
LINE
8
BLACK
6
CONTINUOUS
10
188.772
20
-64.0852
11
188.773
21
-64.0804
0
LINE
8
BLACK
6
CONTINUOUS
10
188.773
20
-64.0804
11
188.775
21
-64.0761
0
LINE
8
BLACK
6
CONTINUOUS
10
188.775
20
-64.0761
11
188.778
21
-64.0723
0
LINE
8
BLACK
6
CONTINUOUS
10
188.778
20
-64.0723
11
188.782
21
-64.0692
0
LINE
8
BLACK
6
CONTINUOUS
10
188.782
20
-64.0692
11
188.787
21
-64.0669
0
LINE
8
BLACK
6
CONTINUOUS
10
188.787
20
-64.0669
11
188.791
21
-64.0654
0
LINE
8
BLACK
6
CONTINUOUS
10
188.791
20
-64.0654
11
188.795
21
-64.0651
0
LINE
8
BLACK
6
CONTINUOUS
10
188.795
20
-64.0651
11
188.795
21
-64.0651
0
LINE
8
BLACK
6
CONTINUOUS
10
188.795
20
-64.0651
11
188.796
21
-64.0649
0
LINE
8
BLACK
6
CONTINUOUS
10
188.796
20
-64.0649
11
188.797
21
-64.0651
0
LINE
8
BLACK
6
CONTINUOUS
10
188.797
20
-64.0651
11
192.195
21
-64.0651
0
LINE
8
BLACK
6
CONTINUOUS
10
192.195
20
-64.0651
11
192.196
21
-64.0649
0
LINE
8
BLACK
6
CONTINUOUS
10
192.196
20
-64.0649
11
192.197
21
-64.0651
0
LINE
8
BLACK
6
CONTINUOUS
10
188.821
20
-64.1151
11
188.821
21
-67.0651
0
LINE
8
BLACK
6
CONTINUOUS
10
188.821
20
-67.0651
11
192.171
21
-67.0651
0
LINE
8
BLACK
6
CONTINUOUS
10
192.171
20
-67.0651
11
192.171
21
-64.1151
0
LINE
8
BLACK
6
CONTINUOUS
10
192.171
20
-64.1151
11
188.821
21
-64.1151
0
LINE
8
BLACK
6
CONTINUOUS
10
211.244
20
-61.6801
11
211.244
21
-61.6801
0
LINE
8
BLACK
6
CONTINUOUS
10
211.244
20
-61.6801
11
211.247
21
-61.6805
0
LINE
8
BLACK
6
CONTINUOUS
10
211.247
20
-61.6805
11
211.252
21
-61.6819
0
LINE
8
BLACK
6
CONTINUOUS
10
211.252
20
-61.6819
11
211.256
21
-61.6842
0
LINE
8
BLACK
6
CONTINUOUS
10
211.256
20
-61.6842
11
211.26
21
-61.6874
0
LINE
8
BLACK
6
CONTINUOUS
10
211.26
20
-61.6874
11
211.263
21
-61.6912
0
LINE
8
BLACK
6
CONTINUOUS
10
211.263
20
-61.6912
11
211.266
21
-61.6955
0
LINE
8
BLACK
6
CONTINUOUS
10
211.266
20
-61.6955
11
211.267
21
-61.7002
0
LINE
8
BLACK
6
CONTINUOUS
10
211.267
20
-61.7002
11
211.268
21
-61.7051
0
LINE
8
BLACK
6
CONTINUOUS
10
211.268
20
-61.7051
11
211.268
21
-61.7063
0
LINE
8
BLACK
6
CONTINUOUS
10
211.268
20
-61.7063
11
211.268
21
-64.7039
0
LINE
8
BLACK
6
CONTINUOUS
10
211.268
20
-64.7039
11
211.268
21
-64.7051
0
LINE
8
BLACK
6
CONTINUOUS
10
211.268
20
-64.7051
11
211.268
21
-64.7063
0
LINE
8
BLACK
6
CONTINUOUS
10
211.268
20
-64.7063
11
211.268
21
-64.7063
0
LINE
8
BLACK
6
CONTINUOUS
10
211.268
20
-64.7063
11
211.267
21
-64.71
0
LINE
8
BLACK
6
CONTINUOUS
10
211.267
20
-64.71
11
211.266
21
-64.7147
0
LINE
8
BLACK
6
CONTINUOUS
10
211.266
20
-64.7147
11
211.263
21
-64.7191
0
LINE
8
BLACK
6
CONTINUOUS
10
211.263
20
-64.7191
11
211.26
21
-64.7229
0
LINE
8
BLACK
6
CONTINUOUS
10
211.26
20
-64.7229
11
211.256
21
-64.726
0
LINE
8
BLACK
6
CONTINUOUS
10
211.256
20
-64.726
11
211.252
21
-64.7283
0
LINE
8
BLACK
6
CONTINUOUS
10
211.252
20
-64.7283
11
211.247
21
-64.7298
0
LINE
8
BLACK
6
CONTINUOUS
10
211.247
20
-64.7298
11
211.243
21
-64.7302
0
LINE
8
BLACK
6
CONTINUOUS
10
211.243
20
-64.7302
11
211.241
21
-64.7301
0
LINE
8
BLACK
6
CONTINUOUS
10
211.241
20
-64.7301
11
207.844
21
-64.7301
0
LINE
8
BLACK
6
CONTINUOUS
10
207.844
20
-64.7301
11
207.843
21
-64.7302
0
LINE
8
BLACK
6
CONTINUOUS
10
207.843
20
-64.7302
11
207.838
21
-64.7298
0
LINE
8
BLACK
6
CONTINUOUS
10
207.838
20
-64.7298
11
207.833
21
-64.7283
0
LINE
8
BLACK
6
CONTINUOUS
10
207.833
20
-64.7283
11
207.829
21
-64.726
0
LINE
8
BLACK
6
CONTINUOUS
10
207.829
20
-64.726
11
207.825
21
-64.7229
0
LINE
8
BLACK
6
CONTINUOUS
10
207.825
20
-64.7229
11
207.822
21
-64.7191
0
LINE
8
BLACK
6
CONTINUOUS
10
207.822
20
-64.7191
11
207.819
21
-64.7147
0
LINE
8
BLACK
6
CONTINUOUS
10
207.819
20
-64.7147
11
207.818
21
-64.71
0
LINE
8
BLACK
6
CONTINUOUS
10
207.818
20
-64.71
11
207.817
21
-64.7051
0
LINE
8
BLACK
6
CONTINUOUS
10
207.817
20
-64.7051
11
207.818
21
-64.7039
0
LINE
8
BLACK
6
CONTINUOUS
10
207.818
20
-64.7039
11
207.818
21
-61.7063
0
LINE
8
BLACK
6
CONTINUOUS
10
207.818
20
-61.7063
11
207.817
21
-61.7051
0
LINE
8
BLACK
6
CONTINUOUS
10
207.817
20
-61.7051
11
207.818
21
-61.7002
0
LINE
8
BLACK
6
CONTINUOUS
10
207.818
20
-61.7002
11
207.819
21
-61.6955
0
LINE
8
BLACK
6
CONTINUOUS
10
207.819
20
-61.6955
11
207.822
21
-61.6912
0
LINE
8
BLACK
6
CONTINUOUS
10
207.822
20
-61.6912
11
207.825
21
-61.6874
0
LINE
8
BLACK
6
CONTINUOUS
10
207.825
20
-61.6874
11
207.829
21
-61.6842
0
LINE
8
BLACK
6
CONTINUOUS
10
207.829
20
-61.6842
11
207.833
21
-61.6819
0
LINE
8
BLACK
6
CONTINUOUS
10
207.833
20
-61.6819
11
207.838
21
-61.6805
0
LINE
8
BLACK
6
CONTINUOUS
10
207.838
20
-61.6805
11
207.841
21
-61.6801
0
LINE
8
BLACK
6
CONTINUOUS
10
207.841
20
-61.6801
11
207.841
21
-61.6801
0
LINE
8
BLACK
6
CONTINUOUS
10
207.841
20
-61.6801
11
207.843
21
-61.68
0
LINE
8
BLACK
6
CONTINUOUS
10
207.843
20
-61.68
11
207.844
21
-61.6801
0
LINE
8
BLACK
6
CONTINUOUS
10
207.844
20
-61.6801
11
211.241
21
-61.6801
0
LINE
8
BLACK
6
CONTINUOUS
10
211.241
20
-61.6801
11
211.243
21
-61.68
0
LINE
8
BLACK
6
CONTINUOUS
10
211.243
20
-61.68
11
211.244
21
-61.6801
0
LINE
8
BLACK
6
CONTINUOUS
10
207.868
20
-61.7301
11
207.868
21
-64.6801
0
LINE
8
BLACK
6
CONTINUOUS
10
207.868
20
-64.6801
11
211.218
21
-64.6801
0
LINE
8
BLACK
6
CONTINUOUS
10
211.218
20
-64.6801
11
211.218
21
-61.7301
0
LINE
8
BLACK
6
CONTINUOUS
10
211.218
20
-61.7301
11
207.868
21
-61.7301
  0
ENDSEC
  0
EOF
