  0
SECTION
  2
HEADER
  9
$ANGBASE
  50
0.0
  9
$ANGDIR
  70
1
  9
$MEASUREMENT
  70
1
  0
ENDSEC
  0
SECTION
  2
TABLES
  0
TABLE
  2
LTYPE
  70
4
  0
LTYPE
  5
40F
  2
CONTINUOUS
  70
0
  3
Solid line
  72
65
  73
0
  40
0.0
  0
LTYPE
  5
410
  2
DASHDOT
 70
0
  3
Dash Dot ____ _ ____ _
 72
65
 73
4
 40
2.0
 49
1.25
 49
-0.25
 49
0.25
 49
-0.25
  0
LTYPE
  5
411
  2
DASHED
 70
0
  3
Dashed __ __ __ __ __
 72
65
 73
2
 40
0.75
 49
0.5
 49
-0.25
  0
LTYPE
  5
43B
  2
DOTTED
 70
0
  3
Dotted .  .  .  .
 72
65
 73
2
 40
0.2
 49
0.0
 49
-0.2
  0
ENDTAB
  0
TABLE
  2
STYLE
  70
4
  0
STYLE
  2
KICAD
  70
0
  40
0
  41
1
  42
1
  50
0
  71
0
  3
isocp.shx
  0
STYLE
  2
KICADB
  70
0
  40
0
  41
1
  42
1
  50
0
  71
0
  3
isocp.shx
  0
STYLE
  2
KICADI
  70
0
  40
0
  41
1
  42
1
  50
15
  71
0
  3
isocp.shx
  0
STYLE
  2
KICADBI
  70
0
  40
0
  41
1
  42
1
  50
15
  71
0
  3
isocp.shx
  0
ENDTAB
  0
TABLE
  2
LAYER
  70
1
  0
LAYER
  2
BLACK
  70
0
  62
7
  6
CONTINUOUS
  0
ENDTAB
  0
ENDSEC
  0
SECTION
  2
ENTITIES
0
LINE
8
BLACK
6
CONTINUOUS
10
105.981
20
-59.4868
11
105.181
21
-59.4868
0
LINE
8
BLACK
6
CONTINUOUS
10
106.23
20
-53.6702
11
106.236
21
-59.2328
0
LINE
8
BLACK
6
CONTINUOUS
10
104.927
20
-54.6862
11
104.927
21
-59.2328
0
LINE
8
BLACK
6
CONTINUOUS
10
98.1202
20
-54.6862
11
104.927
21
-54.6862
0
LINE
8
BLACK
6
CONTINUOUS
10
98.1202
20
-59.2328
11
98.1202
21
-54.6862
0
LINE
8
BLACK
6
CONTINUOUS
10
97.0788
20
-59.4868
11
97.8662
21
-59.4868
0
LINE
8
BLACK
6
CONTINUOUS
10
96.8248
20
-59.2328
11
96.8274
21
-53.6702
0
ARC
8
BLACK
10
105.981
20
-59.2328
40
0.254
50
-90
51
-0
0
ARC
8
BLACK
10
105.181
20
-59.2328
40
0.254
50
180
51
270
0
ARC
8
BLACK
10
97.8662
20
-59.2328
40
0.254
50
-90
51
-0
0
ARC
8
BLACK
10
97.0788
20
-59.2328
40
0.254
50
180
51
270
0
LINE
8
BLACK
6
CONTINUOUS
10
106.23
20
-53.6702
11
221.59
21
-53.6702
0
LINE
8
BLACK
6
CONTINUOUS
10
96.8274
20
-53.6702
11
80.0354
21
-53.6702
0
LINE
8
BLACK
6
CONTINUOUS
10
76.835
20
-173.965
11
76.835
21
-56.8706
0
LINE
8
BLACK
6
CONTINUOUS
10
165.049
20
-177.165
11
80.0354
21
-177.165
0
LINE
8
BLACK
6
CONTINUOUS
10
214.376
20
-225.171
11
167.31
21
-178.102
0
LINE
8
BLACK
6
CONTINUOUS
10
258.496
20
-185.608
11
218.907
21
-225.171
0
LINE
8
BLACK
6
CONTINUOUS
10
225.73
20
-148.311
11
258.496
21
-181.077
0
LINE
8
BLACK
6
CONTINUOUS
10
224.79
20
-56.8706
11
224.792
21
-146.046
0
ARC
8
BLACK
10
221.59
20
-56.8706
40
3.2004
50
-0
51
90
0
ARC
8
BLACK
10
80.0354
20
-56.8706
40
3.2004
50
90
51
180
0
ARC
8
BLACK
10
165.049
20
-180.363
40
3.19778
50
45
51
90
0
ARC
8
BLACK
10
227.994
20
-146.046
40
3.20201
50
180
51
225
0
ARC
8
BLACK
10
80.0354
20
-173.965
40
3.2004
50
180
51
270
0
ARC
8
BLACK
10
216.642
20
-222.905
40
3.20423
50
-135
51
-45
0
ARC
8
BLACK
10
256.23
20
-183.342
40
3.20423
50
-45
51
45
0
LINE
8
BLACK
6
CONTINUOUS
10
79.9827
20
-96.8991
11
80.3827
21
-97.2991
0
LINE
8
BLACK
6
CONTINUOUS
10
80.3827
20
-96.8991
11
79.9827
21
-97.2991
0
LINE
8
BLACK
6
CONTINUOUS
10
80.4298
20
-115.116
11
80.8298
21
-115.516
0
LINE
8
BLACK
6
CONTINUOUS
10
80.8298
20
-115.116
11
80.4298
21
-115.516
0
LINE
8
BLACK
6
CONTINUOUS
10
80.9936
20
-134.252
11
81.3936
21
-134.652
0
LINE
8
BLACK
6
CONTINUOUS
10
81.3936
20
-134.252
11
80.9936
21
-134.652
0
LINE
8
BLACK
6
CONTINUOUS
10
83.239
20
-153.216
11
83.639
21
-153.616
0
LINE
8
BLACK
6
CONTINUOUS
10
83.639
20
-153.216
11
83.239
21
-153.616
0
LINE
8
BLACK
6
CONTINUOUS
10
83.5692
20
-88.9108
11
83.9692
21
-89.3108
0
LINE
8
BLACK
6
CONTINUOUS
10
83.9692
20
-88.9108
11
83.5692
21
-89.3108
0
LINE
8
BLACK
6
CONTINUOUS
10
83.6683
20
-108.128
11
84.0683
21
-108.528
0
LINE
8
BLACK
6
CONTINUOUS
10
84.0683
20
-108.128
11
83.6683
21
-108.528
0
LINE
8
BLACK
6
CONTINUOUS
10
83.7419
20
-127.107
11
84.1419
21
-127.507
0
LINE
8
BLACK
6
CONTINUOUS
10
84.1419
20
-127.107
11
83.7419
21
-127.507
0
LINE
8
BLACK
6
CONTINUOUS
10
83.7648
20
-146.096
11
84.1648
21
-146.496
0
LINE
8
BLACK
6
CONTINUOUS
10
84.1648
20
-146.096
11
83.7648
21
-146.496
0
LINE
8
BLACK
6
CONTINUOUS
10
85.144
20
-161.852
11
85.544
21
-162.252
0
LINE
8
BLACK
6
CONTINUOUS
10
85.544
20
-161.852
11
85.144
21
-162.252
0
LINE
8
BLACK
6
CONTINUOUS
10
85.8984
20
-66.1118
11
86.2984
21
-66.5118
0
LINE
8
BLACK
6
CONTINUOUS
10
86.2984
20
-66.1118
11
85.8984
21
-66.5118
0
LINE
8
BLACK
6
CONTINUOUS
10
85.906
20
-163.63
11
86.306
21
-164.03
0
LINE
8
BLACK
6
CONTINUOUS
10
86.306
20
-163.63
11
85.906
21
-164.03
0
LINE
8
BLACK
6
CONTINUOUS
10
86.3911
20
-98.352
11
86.7911
21
-98.752
0
LINE
8
BLACK
6
CONTINUOUS
10
86.7911
20
-98.352
11
86.3911
21
-98.752
0
LINE
8
BLACK
6
CONTINUOUS
10
87.1049
20
-136.386
11
87.5049
21
-136.786
0
LINE
8
BLACK
6
CONTINUOUS
10
87.5049
20
-136.386
11
87.1049
21
-136.786
0
LINE
8
BLACK
6
CONTINUOUS
10
88.7
20
-163.653
11
89.1
21
-164.053
0
LINE
8
BLACK
6
CONTINUOUS
10
89.1
20
-163.653
11
88.7
21
-164.053
0
LINE
8
BLACK
6
CONTINUOUS
10
89.0505
20
-140.12
11
89.4505
21
-140.52
0
LINE
8
BLACK
6
CONTINUOUS
10
89.4505
20
-140.12
11
89.0505
21
-140.52
0
LINE
8
BLACK
6
CONTINUOUS
10
89.0708
20
-102.027
11
89.4708
21
-102.427
0
LINE
8
BLACK
6
CONTINUOUS
10
89.4708
20
-102.027
11
89.0708
21
-102.427
0
LINE
8
BLACK
6
CONTINUOUS
10
89.5585
20
-137.984
11
89.9585
21
-138.384
0
LINE
8
BLACK
6
CONTINUOUS
10
89.9585
20
-137.984
11
89.5585
21
-138.384
0
LINE
8
BLACK
6
CONTINUOUS
10
89.5788
20
-99.8912
11
89.9788
21
-100.291
0
LINE
8
BLACK
6
CONTINUOUS
10
89.9788
20
-99.8912
11
89.5788
21
-100.291
0
LINE
8
BLACK
6
CONTINUOUS
10
90.8588
20
-84.3963
11
91.2588
21
-84.7963
0
LINE
8
BLACK
6
CONTINUOUS
10
91.2588
20
-84.3963
11
90.8588
21
-84.7963
0
LINE
8
BLACK
6
CONTINUOUS
10
90.8588
20
-122.496
11
91.2588
21
-122.896
0
LINE
8
BLACK
6
CONTINUOUS
10
91.2588
20
-122.496
11
90.8588
21
-122.896
0
LINE
8
BLACK
6
CONTINUOUS
10
95.2253
20
-85.9441
11
95.6253
21
-86.3441
0
LINE
8
BLACK
6
CONTINUOUS
10
95.6253
20
-85.9441
11
95.2253
21
-86.3441
0
LINE
8
BLACK
6
CONTINUOUS
10
95.2837
20
-124.087
11
95.6837
21
-124.487
0
LINE
8
BLACK
6
CONTINUOUS
10
95.6837
20
-124.087
11
95.2837
21
-124.487
0
LINE
8
BLACK
6
CONTINUOUS
10
95.6213
20
-160.596
11
96.0213
21
-160.996
0
LINE
8
BLACK
6
CONTINUOUS
10
96.0213
20
-160.596
11
95.6213
21
-160.996
0
LINE
8
BLACK
6
CONTINUOUS
10
96.06
20
-101.947
11
96.46
21
-102.347
0
LINE
8
BLACK
6
CONTINUOUS
10
96.46
20
-101.947
11
96.06
21
-102.347
0
LINE
8
BLACK
6
CONTINUOUS
10
96.06
20
-140.047
11
96.46
21
-140.447
0
LINE
8
BLACK
6
CONTINUOUS
10
96.46
20
-140.047
11
96.06
21
-140.447
0
LINE
8
BLACK
6
CONTINUOUS
10
96.2844
20
-76.0203
11
96.6844
21
-76.4203
0
LINE
8
BLACK
6
CONTINUOUS
10
96.6844
20
-76.0203
11
96.2844
21
-76.4203
0
LINE
8
BLACK
6
CONTINUOUS
10
97.2628
20
-65.4645
11
97.6628
21
-65.8645
0
LINE
8
BLACK
6
CONTINUOUS
10
97.6628
20
-65.4645
11
97.2628
21
-65.8645
0
LINE
8
BLACK
6
CONTINUOUS
10
97.7272
20
-84.3871
11
98.1272
21
-84.7871
0
LINE
8
BLACK
6
CONTINUOUS
10
98.1272
20
-84.3871
11
97.7272
21
-84.7871
0
LINE
8
BLACK
6
CONTINUOUS
10
97.7856
20
-122.53
11
98.1856
21
-122.93
0
LINE
8
BLACK
6
CONTINUOUS
10
98.1856
20
-122.53
11
97.7856
21
-122.93
0
LINE
8
BLACK
6
CONTINUOUS
10
100.054
20
-162.091
11
100.454
21
-162.491
0
LINE
8
BLACK
6
CONTINUOUS
10
100.454
20
-162.091
11
100.054
21
-162.491
0
LINE
8
BLACK
6
CONTINUOUS
10
101.941
20
-61.1845
11
102.341
21
-61.5845
0
LINE
8
BLACK
6
CONTINUOUS
10
102.341
20
-61.1845
11
101.941
21
-61.5845
0
LINE
8
BLACK
6
CONTINUOUS
10
102.213
20
-63.3356
11
102.613
21
-63.7356
0
LINE
8
BLACK
6
CONTINUOUS
10
102.613
20
-63.3356
11
102.213
21
-63.7356
0
LINE
8
BLACK
6
CONTINUOUS
10
102.556
20
-160.534
11
102.956
21
-160.934
0
LINE
8
BLACK
6
CONTINUOUS
10
102.956
20
-160.534
11
102.556
21
-160.934
0
LINE
8
BLACK
6
CONTINUOUS
10
102.772
20
-69.2944
11
103.172
21
-69.6944
0
LINE
8
BLACK
6
CONTINUOUS
10
103.172
20
-69.2944
11
102.772
21
-69.6944
0
LINE
8
BLACK
6
CONTINUOUS
10
103.242
20
-70.4758
11
103.642
21
-70.8758
0
LINE
8
BLACK
6
CONTINUOUS
10
103.642
20
-70.4758
11
103.242
21
-70.8758
0
LINE
8
BLACK
6
CONTINUOUS
10
104.296
20
-84.0264
11
104.696
21
-84.4264
0
LINE
8
BLACK
6
CONTINUOUS
10
104.696
20
-84.0264
11
104.296
21
-84.4264
0
LINE
8
BLACK
6
CONTINUOUS
10
105.058
20
-61.3696
11
105.458
21
-61.7696
0
LINE
8
BLACK
6
CONTINUOUS
10
105.458
20
-61.3696
11
105.058
21
-61.7696
0
LINE
8
BLACK
6
CONTINUOUS
10
105.388
20
-141.405
11
105.788
21
-141.805
0
LINE
8
BLACK
6
CONTINUOUS
10
105.788
20
-141.405
11
105.388
21
-141.805
0
LINE
8
BLACK
6
CONTINUOUS
10
105.406
20
-68.1844
11
105.806
21
-68.5844
0
LINE
8
BLACK
6
CONTINUOUS
10
105.806
20
-68.1844
11
105.406
21
-68.5844
0
LINE
8
BLACK
6
CONTINUOUS
10
106.206
20
-68.9794
11
106.606
21
-69.3794
0
LINE
8
BLACK
6
CONTINUOUS
10
106.606
20
-68.9794
11
106.206
21
-69.3794
0
LINE
8
BLACK
6
CONTINUOUS
10
106.234
20
-67.3284
11
106.634
21
-67.7284
0
LINE
8
BLACK
6
CONTINUOUS
10
106.634
20
-67.3284
11
106.234
21
-67.7284
0
LINE
8
BLACK
6
CONTINUOUS
10
107.024
20
-68.1285
11
107.424
21
-68.5285
0
LINE
8
BLACK
6
CONTINUOUS
10
107.424
20
-68.1285
11
107.024
21
-68.5285
0
LINE
8
BLACK
6
CONTINUOUS
10
107.09
20
-103.432
11
107.49
21
-103.832
0
LINE
8
BLACK
6
CONTINUOUS
10
107.49
20
-103.432
11
107.09
21
-103.832
0
LINE
8
BLACK
6
CONTINUOUS
10
107.305
20
-88.7559
11
107.706
21
-89.1559
0
LINE
8
BLACK
6
CONTINUOUS
10
107.706
20
-88.7559
11
107.305
21
-89.1559
0
LINE
8
BLACK
6
CONTINUOUS
10
107.361
20
-127.029
11
107.761
21
-127.429
0
LINE
8
BLACK
6
CONTINUOUS
10
107.761
20
-127.029
11
107.361
21
-127.429
0
LINE
8
BLACK
6
CONTINUOUS
10
107.392
20
-146.208
11
107.792
21
-146.608
0
LINE
8
BLACK
6
CONTINUOUS
10
107.792
20
-146.208
11
107.392
21
-146.608
0
LINE
8
BLACK
6
CONTINUOUS
10
107.486
20
-165.04
11
107.886
21
-165.44
0
LINE
8
BLACK
6
CONTINUOUS
10
107.886
20
-165.04
11
107.486
21
-165.44
0
LINE
8
BLACK
6
CONTINUOUS
10
107.788
20
-108.121
11
108.188
21
-108.521
0
LINE
8
BLACK
6
CONTINUOUS
10
108.188
20
-108.121
11
107.788
21
-108.521
0
LINE
8
BLACK
6
CONTINUOUS
10
108.258
20
-122.584
11
108.658
21
-122.984
0
LINE
8
BLACK
6
CONTINUOUS
10
108.658
20
-122.584
11
108.258
21
-122.984
0
LINE
8
BLACK
6
CONTINUOUS
10
109.02
20
-80.4196
11
109.42
21
-80.8196
0
LINE
8
BLACK
6
CONTINUOUS
10
109.42
20
-80.4196
11
109.02
21
-80.8196
0
LINE
8
BLACK
6
CONTINUOUS
10
109.213
20
-61.8471
11
109.613
21
-62.2471
0
LINE
8
BLACK
6
CONTINUOUS
10
109.613
20
-61.8471
11
109.213
21
-62.2471
0
LINE
8
BLACK
6
CONTINUOUS
10
109.452
20
-159.033
11
109.852
21
-159.433
0
LINE
8
BLACK
6
CONTINUOUS
10
109.852
20
-159.033
11
109.452
21
-159.433
0
LINE
8
BLACK
6
CONTINUOUS
10
111.636
20
-69.1268
11
112.036
21
-69.5268
0
LINE
8
BLACK
6
CONTINUOUS
10
112.036
20
-69.1268
11
111.636
21
-69.5268
0
LINE
8
BLACK
6
CONTINUOUS
10
111.674
20
-166.602
11
112.074
21
-167.002
0
LINE
8
BLACK
6
CONTINUOUS
10
112.074
20
-166.602
11
111.674
21
-167.002
0
LINE
8
BLACK
6
CONTINUOUS
10
112.012
20
-128.433
11
112.412
21
-128.833
0
LINE
8
BLACK
6
CONTINUOUS
10
112.412
20
-128.433
11
112.012
21
-128.833
0
LINE
8
BLACK
6
CONTINUOUS
10
112.139
20
-72.3221
11
112.539
21
-72.7221
0
LINE
8
BLACK
6
CONTINUOUS
10
112.539
20
-72.3221
11
112.139
21
-72.7221
0
LINE
8
BLACK
6
CONTINUOUS
10
112.436
20
-147.537
11
112.836
21
-147.937
0
LINE
8
BLACK
6
CONTINUOUS
10
112.836
20
-147.537
11
112.436
21
-147.937
0
LINE
8
BLACK
6
CONTINUOUS
10
112.766
20
-102.007
11
113.166
21
-102.407
0
LINE
8
BLACK
6
CONTINUOUS
10
113.166
20
-102.007
11
112.766
21
-102.407
0
LINE
8
BLACK
6
CONTINUOUS
10
112.805
20
-160.506
11
113.205
21
-160.906
0
LINE
8
BLACK
6
CONTINUOUS
10
113.205
20
-160.506
11
112.805
21
-160.906
0
LINE
8
BLACK
6
CONTINUOUS
10
112.83
20
-140.148
11
113.23
21
-140.548
0
LINE
8
BLACK
6
CONTINUOUS
10
113.23
20
-140.148
11
112.83
21
-140.548
0
LINE
8
BLACK
6
CONTINUOUS
10
113.231
20
-68.2378
11
113.631
21
-68.6378
0
LINE
8
BLACK
6
CONTINUOUS
10
113.631
20
-68.2378
11
113.231
21
-68.6378
0
LINE
8
BLACK
6
CONTINUOUS
10
113.274
20
-99.8709
11
113.674
21
-100.271
0
LINE
8
BLACK
6
CONTINUOUS
10
113.674
20
-99.8709
11
113.274
21
-100.271
0
LINE
8
BLACK
6
CONTINUOUS
10
113.338
20
-138.012
11
113.738
21
-138.412
0
LINE
8
BLACK
6
CONTINUOUS
10
113.738
20
-138.012
11
113.338
21
-138.412
0
LINE
8
BLACK
6
CONTINUOUS
10
113.582
20
-90.8006
11
113.982
21
-91.2006
0
LINE
8
BLACK
6
CONTINUOUS
10
113.982
20
-90.8006
11
113.582
21
-91.2006
0
LINE
8
BLACK
6
CONTINUOUS
10
113.661
20
-109.558
11
114.061
21
-109.958
0
LINE
8
BLACK
6
CONTINUOUS
10
114.061
20
-109.558
11
113.661
21
-109.958
0
LINE
8
BLACK
6
CONTINUOUS
10
113.719
20
-73.8983
11
114.119
21
-74.2983
0
LINE
8
BLACK
6
CONTINUOUS
10
114.119
20
-73.8983
11
113.719
21
-74.2983
0
LINE
8
BLACK
6
CONTINUOUS
10
114.659
20
-84.4328
11
115.059
21
-84.8328
0
LINE
8
BLACK
6
CONTINUOUS
10
115.059
20
-84.4328
11
114.659
21
-84.8328
0
LINE
8
BLACK
6
CONTINUOUS
10
114.671
20
-122.496
11
115.071
21
-122.896
0
LINE
8
BLACK
6
CONTINUOUS
10
115.071
20
-122.496
11
114.671
21
-122.896
0
LINE
8
BLACK
6
CONTINUOUS
10
119.053
20
-162.086
11
119.453
21
-162.486
0
LINE
8
BLACK
6
CONTINUOUS
10
119.453
20
-162.086
11
119.053
21
-162.486
0
LINE
8
BLACK
6
CONTINUOUS
10
119.061
20
-124.031
11
119.461
21
-124.431
0
LINE
8
BLACK
6
CONTINUOUS
10
119.461
20
-124.031
11
119.061
21
-124.431
0
LINE
8
BLACK
6
CONTINUOUS
10
119.068
20
-85.9517
11
119.468
21
-86.3517
0
LINE
8
BLACK
6
CONTINUOUS
10
119.468
20
-85.9517
11
119.068
21
-86.3517
0
LINE
8
BLACK
6
CONTINUOUS
10
119.872
20
-101.947
11
120.272
21
-102.347
0
LINE
8
BLACK
6
CONTINUOUS
10
120.272
20
-101.947
11
119.872
21
-102.347
0
LINE
8
BLACK
6
CONTINUOUS
10
119.872
20
-140.047
11
120.272
21
-140.447
0
LINE
8
BLACK
6
CONTINUOUS
10
120.272
20
-140.047
11
119.872
21
-140.447
0
LINE
8
BLACK
6
CONTINUOUS
10
120.021
20
-68.3571
11
120.421
21
-68.7571
0
LINE
8
BLACK
6
CONTINUOUS
10
120.421
20
-68.3571
11
120.021
21
-68.7571
0
LINE
8
BLACK
6
CONTINUOUS
10
120.602
20
-58.1692
11
121.002
21
-58.5692
0
LINE
8
BLACK
6
CONTINUOUS
10
121.002
20
-58.1692
11
120.602
21
-58.5692
0
LINE
8
BLACK
6
CONTINUOUS
10
121.555
20
-160.529
11
121.955
21
-160.929
0
LINE
8
BLACK
6
CONTINUOUS
10
121.955
20
-160.529
11
121.555
21
-160.929
0
LINE
8
BLACK
6
CONTINUOUS
10
121.563
20
-122.474
11
121.963
21
-122.874
0
LINE
8
BLACK
6
CONTINUOUS
10
121.963
20
-122.474
11
121.563
21
-122.874
0
LINE
8
BLACK
6
CONTINUOUS
10
121.57
20
-84.3947
11
121.97
21
-84.7947
0
LINE
8
BLACK
6
CONTINUOUS
10
121.97
20
-84.3947
11
121.57
21
-84.7947
0
LINE
8
BLACK
6
CONTINUOUS
10
121.994
20
-66.9957
11
122.394
21
-67.3957
0
LINE
8
BLACK
6
CONTINUOUS
10
122.394
20
-66.9957
11
121.994
21
-67.3957
0
LINE
8
BLACK
6
CONTINUOUS
10
123.473
20
-73.8156
11
123.873
21
-74.2156
0
LINE
8
BLACK
6
CONTINUOUS
10
123.873
20
-73.8156
11
123.473
21
-74.2156
0
LINE
8
BLACK
6
CONTINUOUS
10
123.752
20
-71.7328
11
124.152
21
-72.1328
0
LINE
8
BLACK
6
CONTINUOUS
10
124.152
20
-71.7328
11
123.752
21
-72.1328
0
LINE
8
BLACK
6
CONTINUOUS
10
123.803
20
-59.0836
11
124.203
21
-59.4836
0
LINE
8
BLACK
6
CONTINUOUS
10
124.203
20
-59.0836
11
123.803
21
-59.4836
0
LINE
8
BLACK
6
CONTINUOUS
10
124.681
20
-91.2363
11
125.081
21
-91.6363
0
LINE
8
BLACK
6
CONTINUOUS
10
125.081
20
-91.2363
11
124.681
21
-91.6363
0
LINE
8
BLACK
6
CONTINUOUS
10
124.681
20
-110.286
11
125.081
21
-110.686
0
LINE
8
BLACK
6
CONTINUOUS
10
125.081
20
-110.286
11
124.681
21
-110.686
0
LINE
8
BLACK
6
CONTINUOUS
10
124.681
20
-129.336
11
125.081
21
-129.736
0
LINE
8
BLACK
6
CONTINUOUS
10
125.081
20
-129.336
11
124.681
21
-129.736
0
LINE
8
BLACK
6
CONTINUOUS
10
124.681
20
-148.386
11
125.081
21
-148.786
0
LINE
8
BLACK
6
CONTINUOUS
10
125.081
20
-148.386
11
124.681
21
-148.786
0
LINE
8
BLACK
6
CONTINUOUS
10
124.681
20
-167.436
11
125.081
21
-167.836
0
LINE
8
BLACK
6
CONTINUOUS
10
125.081
20
-167.436
11
124.681
21
-167.836
0
LINE
8
BLACK
6
CONTINUOUS
10
125.276
20
-139.805
11
125.676
21
-140.205
0
LINE
8
BLACK
6
CONTINUOUS
10
125.676
20
-139.805
11
125.276
21
-140.205
0
LINE
8
BLACK
6
CONTINUOUS
10
125.479
20
-60.252
11
125.879
21
-60.652
0
LINE
8
BLACK
6
CONTINUOUS
10
125.879
20
-60.252
11
125.479
21
-60.652
0
LINE
8
BLACK
6
CONTINUOUS
10
125.53
20
-102.238
11
125.93
21
-102.638
0
LINE
8
BLACK
6
CONTINUOUS
10
125.93
20
-102.238
11
125.53
21
-102.638
0
LINE
8
BLACK
6
CONTINUOUS
10
125.733
20
-82.7056
11
126.133
21
-83.1056
0
LINE
8
BLACK
6
CONTINUOUS
10
126.133
20
-82.7056
11
125.733
21
-83.1056
0
LINE
8
BLACK
6
CONTINUOUS
10
126.439
20
-143.899
11
126.839
21
-144.299
0
LINE
8
BLACK
6
CONTINUOUS
10
126.839
20
-143.899
11
126.439
21
-144.299
0
LINE
8
BLACK
6
CONTINUOUS
10
126.521
20
-86.5766
11
126.921
21
-86.9766
0
LINE
8
BLACK
6
CONTINUOUS
10
126.921
20
-86.5766
11
126.521
21
-86.9766
0
LINE
8
BLACK
6
CONTINUOUS
10
126.543
20
-162.54
11
126.943
21
-162.94
0
LINE
8
BLACK
6
CONTINUOUS
10
126.943
20
-162.54
11
126.543
21
-162.94
0
LINE
8
BLACK
6
CONTINUOUS
10
126.549
20
-124.585
11
126.949
21
-124.985
0
LINE
8
BLACK
6
CONTINUOUS
10
126.949
20
-124.585
11
126.549
21
-124.985
0
LINE
8
BLACK
6
CONTINUOUS
10
126.574
20
-105.779
11
126.974
21
-106.179
0
LINE
8
BLACK
6
CONTINUOUS
10
126.974
20
-105.779
11
126.574
21
-106.179
0
LINE
8
BLACK
6
CONTINUOUS
10
127.689
20
-158.982
11
128.089
21
-159.382
0
LINE
8
BLACK
6
CONTINUOUS
10
128.089
20
-158.982
11
127.689
21
-159.382
0
LINE
8
BLACK
6
CONTINUOUS
10
128.095
20
-120.882
11
128.495
21
-121.282
0
LINE
8
BLACK
6
CONTINUOUS
10
128.495
20
-120.882
11
128.095
21
-121.282
0
LINE
8
BLACK
6
CONTINUOUS
10
128.172
20
-69.8481
11
128.572
21
-70.2481
0
LINE
8
BLACK
6
CONTINUOUS
10
128.572
20
-69.8481
11
128.172
21
-70.2481
0
LINE
8
BLACK
6
CONTINUOUS
10
128.273
20
-78.9464
11
128.673
21
-79.3464
0
LINE
8
BLACK
6
CONTINUOUS
10
128.673
20
-78.9464
11
128.273
21
-79.3464
0
LINE
8
BLACK
6
CONTINUOUS
10
128.918
20
-68.9185
11
129.318
21
-69.3185
0
LINE
8
BLACK
6
CONTINUOUS
10
129.318
20
-68.9185
11
128.918
21
-69.3185
0
LINE
8
BLACK
6
CONTINUOUS
10
129.079
20
-62.6191
11
129.479
21
-63.0191
0
LINE
8
BLACK
6
CONTINUOUS
10
129.479
20
-62.6191
11
129.079
21
-63.0191
0
LINE
8
BLACK
6
CONTINUOUS
10
130.559
20
-62.9444
11
130.959
21
-63.3444
0
LINE
8
BLACK
6
CONTINUOUS
10
130.959
20
-62.9444
11
130.559
21
-63.3444
0
LINE
8
BLACK
6
CONTINUOUS
10
131.016
20
-172.303
11
131.416
21
-172.703
0
LINE
8
BLACK
6
CONTINUOUS
10
131.416
20
-172.303
11
131.016
21
-172.703
0
LINE
8
BLACK
6
CONTINUOUS
10
131.692
20
-63.0231
11
132.092
21
-63.4231
0
LINE
8
BLACK
6
CONTINUOUS
10
132.092
20
-63.0231
11
131.692
21
-63.4231
0
LINE
8
BLACK
6
CONTINUOUS
10
131.831
20
-58.2062
11
132.231
21
-58.6062
0
LINE
8
BLACK
6
CONTINUOUS
10
132.231
20
-58.2062
11
131.831
21
-58.6062
0
LINE
8
BLACK
6
CONTINUOUS
10
131.834
20
-99.6931
11
132.234
21
-100.093
0
LINE
8
BLACK
6
CONTINUOUS
10
132.234
20
-99.6931
11
131.834
21
-100.093
0
LINE
8
BLACK
6
CONTINUOUS
10
131.908
20
-137.75
11
132.308
21
-138.15
0
LINE
8
BLACK
6
CONTINUOUS
10
132.308
20
-137.75
11
131.908
21
-138.15
0
LINE
8
BLACK
6
CONTINUOUS
10
132.159
20
-158.245
11
132.559
21
-158.645
0
LINE
8
BLACK
6
CONTINUOUS
10
132.559
20
-158.245
11
132.159
21
-158.645
0
LINE
8
BLACK
6
CONTINUOUS
10
132.342
20
-97.557
11
132.742
21
-97.957
0
LINE
8
BLACK
6
CONTINUOUS
10
132.742
20
-97.557
11
132.342
21
-97.957
0
LINE
8
BLACK
6
CONTINUOUS
10
132.416
20
-135.614
11
132.816
21
-136.014
0
LINE
8
BLACK
6
CONTINUOUS
10
132.816
20
-135.614
11
132.416
21
-136.014
0
LINE
8
BLACK
6
CONTINUOUS
10
132.568
20
-73.9985
11
132.968
21
-74.3985
0
LINE
8
BLACK
6
CONTINUOUS
10
132.968
20
-73.9985
11
132.568
21
-74.3985
0
LINE
8
BLACK
6
CONTINUOUS
10
132.744
20
-58.9312
11
133.144
21
-59.3312
0
LINE
8
BLACK
6
CONTINUOUS
10
133.144
20
-58.9312
11
132.744
21
-59.3312
0
LINE
8
BLACK
6
CONTINUOUS
10
132.962
20
-64.2449
11
133.362
21
-64.6449
0
LINE
8
BLACK
6
CONTINUOUS
10
133.362
20
-64.2449
11
132.962
21
-64.6449
0
LINE
8
BLACK
6
CONTINUOUS
10
133.709
20
-81.9944
11
134.109
21
-82.3944
0
LINE
8
BLACK
6
CONTINUOUS
10
134.109
20
-81.9944
11
133.709
21
-82.3944
0
LINE
8
BLACK
6
CONTINUOUS
10
133.721
20
-120.115
11
134.121
21
-120.515
0
LINE
8
BLACK
6
CONTINUOUS
10
134.121
20
-120.115
11
133.721
21
-120.515
0
LINE
8
BLACK
6
CONTINUOUS
10
134.8
20
-67.1618
11
135.2
21
-67.5618
0
LINE
8
BLACK
6
CONTINUOUS
10
135.2
20
-67.1618
11
134.8
21
-67.5618
0
LINE
8
BLACK
6
CONTINUOUS
10
135.616
20
-131.814
11
136.016
21
-132.214
0
LINE
8
BLACK
6
CONTINUOUS
10
136.016
20
-131.814
11
135.616
21
-132.214
0
LINE
8
BLACK
6
CONTINUOUS
10
135.929
20
-113.127
11
136.329
21
-113.527
0
LINE
8
BLACK
6
CONTINUOUS
10
136.329
20
-113.127
11
135.929
21
-113.527
0
LINE
8
BLACK
6
CONTINUOUS
10
136.46
20
-92.7691
11
136.86
21
-93.1691
0
LINE
8
BLACK
6
CONTINUOUS
10
136.86
20
-92.7691
11
136.46
21
-93.1691
0
LINE
8
BLACK
6
CONTINUOUS
10
136.805
20
-60.7956
11
137.205
21
-61.1956
0
LINE
8
BLACK
6
CONTINUOUS
10
137.205
20
-60.7956
11
136.805
21
-61.1956
0
LINE
8
BLACK
6
CONTINUOUS
10
136.858
20
-58.728
11
137.258
21
-59.128
0
LINE
8
BLACK
6
CONTINUOUS
10
137.258
20
-58.728
11
136.858
21
-59.128
0
LINE
8
BLACK
6
CONTINUOUS
10
137.087
20
-150.897
11
137.487
21
-151.297
0
LINE
8
BLACK
6
CONTINUOUS
10
137.487
20
-150.897
11
137.087
21
-151.297
0
LINE
8
BLACK
6
CONTINUOUS
10
137.112
20
-73.4092
11
137.512
21
-73.8092
0
LINE
8
BLACK
6
CONTINUOUS
10
137.512
20
-73.4092
11
137.112
21
-73.8092
0
LINE
8
BLACK
6
CONTINUOUS
10
137.242
20
-168.789
11
137.642
21
-169.189
0
LINE
8
BLACK
6
CONTINUOUS
10
137.642
20
-168.789
11
137.242
21
-169.189
0
LINE
8
BLACK
6
CONTINUOUS
10
138.067
20
-83.5743
11
138.467
21
-83.9743
0
LINE
8
BLACK
6
CONTINUOUS
10
138.467
20
-83.5743
11
138.067
21
-83.9743
0
LINE
8
BLACK
6
CONTINUOUS
10
138.108
20
-159.685
11
138.508
21
-160.085
0
LINE
8
BLACK
6
CONTINUOUS
10
138.508
20
-159.685
11
138.108
21
-160.085
0
LINE
8
BLACK
6
CONTINUOUS
10
138.133
20
-121.636
11
138.533
21
-122.036
0
LINE
8
BLACK
6
CONTINUOUS
10
138.533
20
-121.636
11
138.133
21
-122.036
0
LINE
8
BLACK
6
CONTINUOUS
10
138.919
20
-99.5625
11
139.319
21
-99.9625
0
LINE
8
BLACK
6
CONTINUOUS
10
139.319
20
-99.5625
11
138.919
21
-99.9625
0
LINE
8
BLACK
6
CONTINUOUS
10
138.922
20
-137.666
11
139.322
21
-138.066
0
LINE
8
BLACK
6
CONTINUOUS
10
139.322
20
-137.666
11
138.922
21
-138.066
0
LINE
8
BLACK
6
CONTINUOUS
10
138.928
20
-69.65
11
139.328
21
-70.05
0
LINE
8
BLACK
6
CONTINUOUS
10
139.328
20
-69.65
11
138.928
21
-70.05
0
LINE
8
BLACK
6
CONTINUOUS
10
139.527
20
-72.407
11
139.927
21
-72.807
0
LINE
8
BLACK
6
CONTINUOUS
10
139.927
20
-72.407
11
139.527
21
-72.807
0
LINE
8
BLACK
6
CONTINUOUS
10
139.69
20
-70.412
11
140.09
21
-70.812
0
LINE
8
BLACK
6
CONTINUOUS
10
140.09
20
-70.412
11
139.69
21
-70.812
0
LINE
8
BLACK
6
CONTINUOUS
10
139.906
20
-62.4364
11
140.306
21
-62.8364
0
LINE
8
BLACK
6
CONTINUOUS
10
140.306
20
-62.4364
11
139.906
21
-62.8364
0
LINE
8
BLACK
6
CONTINUOUS
10
140.452
20
-73.1425
11
140.852
21
-73.5425
0
LINE
8
BLACK
6
CONTINUOUS
10
140.852
20
-73.1425
11
140.452
21
-73.5425
0
LINE
8
BLACK
6
CONTINUOUS
10
140.569
20
-82.0173
11
140.969
21
-82.4173
0
LINE
8
BLACK
6
CONTINUOUS
10
140.969
20
-82.0173
11
140.569
21
-82.4173
0
LINE
8
BLACK
6
CONTINUOUS
10
140.61
20
-158.128
11
141.01
21
-158.528
0
LINE
8
BLACK
6
CONTINUOUS
10
141.01
20
-158.128
11
140.61
21
-158.528
0
LINE
8
BLACK
6
CONTINUOUS
10
140.635
20
-120.079
11
141.035
21
-120.479
0
LINE
8
BLACK
6
CONTINUOUS
10
141.035
20
-120.079
11
140.635
21
-120.479
0
LINE
8
BLACK
6
CONTINUOUS
10
143.412
20
-78.4384
11
143.812
21
-78.8384
0
LINE
8
BLACK
6
CONTINUOUS
10
143.812
20
-78.4384
11
143.412
21
-78.8384
0
LINE
8
BLACK
6
CONTINUOUS
10
143.728
20
-107.901
11
144.128
21
-108.301
0
LINE
8
BLACK
6
CONTINUOUS
10
144.128
20
-107.901
11
143.728
21
-108.301
0
LINE
8
BLACK
6
CONTINUOUS
10
143.731
20
-88.8551
11
144.131
21
-89.2551
0
LINE
8
BLACK
6
CONTINUOUS
10
144.131
20
-88.8551
11
143.731
21
-89.2551
0
LINE
8
BLACK
6
CONTINUOUS
10
143.731
20
-126.955
11
144.131
21
-127.355
0
LINE
8
BLACK
6
CONTINUOUS
10
144.131
20
-126.955
11
143.731
21
-127.355
0
LINE
8
BLACK
6
CONTINUOUS
10
143.731
20
-146.005
11
144.131
21
-146.405
0
LINE
8
BLACK
6
CONTINUOUS
10
144.131
20
-146.005
11
143.731
21
-146.405
0
LINE
8
BLACK
6
CONTINUOUS
10
143.731
20
-165.055
11
144.131
21
-165.455
0
LINE
8
BLACK
6
CONTINUOUS
10
144.131
20
-165.055
11
143.731
21
-165.455
0
LINE
8
BLACK
6
CONTINUOUS
10
143.881
20
-82.096
11
144.281
21
-82.496
0
LINE
8
BLACK
6
CONTINUOUS
10
144.281
20
-82.096
11
143.881
21
-82.496
0
LINE
8
BLACK
6
CONTINUOUS
10
143.97
20
-65.84
11
144.37
21
-66.24
0
LINE
8
BLACK
6
CONTINUOUS
10
144.37
20
-65.84
11
143.97
21
-66.24
0
LINE
8
BLACK
6
CONTINUOUS
10
144.174
20
-77.6256
11
144.574
21
-78.0256
0
LINE
8
BLACK
6
CONTINUOUS
10
144.574
20
-77.6256
11
144.174
21
-78.0256
0
LINE
8
BLACK
6
CONTINUOUS
10
144.199
20
-137.239
11
144.599
21
-137.639
0
LINE
8
BLACK
6
CONTINUOUS
10
144.599
20
-137.239
11
144.199
21
-137.639
0
LINE
8
BLACK
6
CONTINUOUS
10
144.301
20
-100.943
11
144.701
21
-101.343
0
LINE
8
BLACK
6
CONTINUOUS
10
144.701
20
-100.943
11
144.301
21
-101.343
0
LINE
8
BLACK
6
CONTINUOUS
10
144.936
20
-76.8128
11
145.336
21
-77.2128
0
LINE
8
BLACK
6
CONTINUOUS
10
145.336
20
-76.8128
11
144.936
21
-77.2128
0
LINE
8
BLACK
6
CONTINUOUS
10
145.449
20
-86.541
11
145.849
21
-86.941
0
LINE
8
BLACK
6
CONTINUOUS
10
145.849
20
-86.541
11
145.449
21
-86.941
0
LINE
8
BLACK
6
CONTINUOUS
10
145.472
20
-122.213
11
145.872
21
-122.613
0
LINE
8
BLACK
6
CONTINUOUS
10
145.872
20
-122.213
11
145.472
21
-122.613
0
LINE
8
BLACK
6
CONTINUOUS
10
145.479
20
-103.419
11
145.879
21
-103.819
0
LINE
8
BLACK
6
CONTINUOUS
10
145.879
20
-103.419
11
145.479
21
-103.819
0
LINE
8
BLACK
6
CONTINUOUS
10
145.489
20
-141.535
11
145.889
21
-141.935
0
LINE
8
BLACK
6
CONTINUOUS
10
145.889
20
-141.535
11
145.489
21
-141.935
0
LINE
8
BLACK
6
CONTINUOUS
10
145.604
20
-160.198
11
146.004
21
-160.598
0
LINE
8
BLACK
6
CONTINUOUS
10
146.004
20
-160.198
11
145.604
21
-160.598
0
LINE
8
BLACK
6
CONTINUOUS
10
145.952
20
-65.3828
11
146.352
21
-65.7828
0
LINE
8
BLACK
6
CONTINUOUS
10
146.352
20
-65.3828
11
145.952
21
-65.7828
0
LINE
8
BLACK
6
CONTINUOUS
10
146.561
20
-156.67
11
146.961
21
-157.07
0
LINE
8
BLACK
6
CONTINUOUS
10
146.961
20
-156.67
11
146.561
21
-157.07
0
LINE
8
BLACK
6
CONTINUOUS
10
146.688
20
-74.4506
11
147.088
21
-74.8506
0
LINE
8
BLACK
6
CONTINUOUS
10
147.088
20
-74.4506
11
146.688
21
-74.8506
0
LINE
8
BLACK
6
CONTINUOUS
10
146.891
20
-118.494
11
147.291
21
-118.894
0
LINE
8
BLACK
6
CONTINUOUS
10
147.291
20
-118.494
11
146.891
21
-118.894
0
LINE
8
BLACK
6
CONTINUOUS
10
147.399
20
-73.587
11
147.799
21
-73.987
0
LINE
8
BLACK
6
CONTINUOUS
10
147.799
20
-73.587
11
147.399
21
-73.987
0
LINE
8
BLACK
6
CONTINUOUS
10
149.269
20
-68.925
11
149.669
21
-69.325
0
LINE
8
BLACK
6
CONTINUOUS
10
149.669
20
-68.925
11
149.269
21
-69.325
0
LINE
8
BLACK
6
CONTINUOUS
10
150.892
20
-97.1607
11
151.292
21
-97.5607
0
LINE
8
BLACK
6
CONTINUOUS
10
151.292
20
-97.1607
11
150.892
21
-97.5607
0
LINE
8
BLACK
6
CONTINUOUS
10
150.912
20
-135.38
11
151.312
21
-135.78
0
LINE
8
BLACK
6
CONTINUOUS
10
151.312
20
-135.38
11
150.912
21
-135.78
0
LINE
8
BLACK
6
CONTINUOUS
10
151.159
20
-155.908
11
151.559
21
-156.308
0
LINE
8
BLACK
6
CONTINUOUS
10
151.559
20
-155.908
11
151.159
21
-156.308
0
LINE
8
BLACK
6
CONTINUOUS
10
151.23
20
-80.5075
11
151.63
21
-80.9075
0
LINE
8
BLACK
6
CONTINUOUS
10
151.63
20
-80.5075
11
151.23
21
-80.9075
0
LINE
8
BLACK
6
CONTINUOUS
10
151.4
20
-95.0246
11
151.8
21
-95.4246
0
LINE
8
BLACK
6
CONTINUOUS
10
151.8
20
-95.0246
11
151.4
21
-95.4246
0
LINE
8
BLACK
6
CONTINUOUS
10
151.42
20
-133.244
11
151.82
21
-133.644
0
LINE
8
BLACK
6
CONTINUOUS
10
151.82
20
-133.244
11
151.42
21
-133.644
0
LINE
8
BLACK
6
CONTINUOUS
10
151.971
20
-81.4864
11
152.371
21
-81.8864
0
LINE
8
BLACK
6
CONTINUOUS
10
152.371
20
-81.4864
11
151.971
21
-81.8864
0
LINE
8
BLACK
6
CONTINUOUS
10
152.708
20
-79.6195
11
153.108
21
-80.0195
0
LINE
8
BLACK
6
CONTINUOUS
10
153.108
20
-79.6195
11
152.708
21
-80.0195
0
LINE
8
BLACK
6
CONTINUOUS
10
152.771
20
-117.734
11
153.171
21
-118.134
0
LINE
8
BLACK
6
CONTINUOUS
10
153.171
20
-117.734
11
152.771
21
-118.134
0
LINE
8
BLACK
6
CONTINUOUS
10
154.938
20
-168.187
11
155.338
21
-168.587
0
LINE
8
BLACK
6
CONTINUOUS
10
155.338
20
-168.187
11
154.938
21
-168.587
0
LINE
8
BLACK
6
CONTINUOUS
10
155.088
20
-91.08
11
155.488
21
-91.48
0
LINE
8
BLACK
6
CONTINUOUS
10
155.488
20
-91.08
11
155.088
21
-91.48
0
LINE
8
BLACK
6
CONTINUOUS
10
155.111
20
-148.606
11
155.511
21
-149.006
0
LINE
8
BLACK
6
CONTINUOUS
10
155.511
20
-148.606
11
155.111
21
-149.006
0
LINE
8
BLACK
6
CONTINUOUS
10
155.212
20
-64.5471
11
155.612
21
-64.9471
0
LINE
8
BLACK
6
CONTINUOUS
10
155.612
20
-64.5471
11
155.212
21
-64.9471
0
LINE
8
BLACK
6
CONTINUOUS
10
156.33
20
-129.294
11
156.73
21
-129.694
0
LINE
8
BLACK
6
CONTINUOUS
10
156.73
20
-129.294
11
156.33
21
-129.694
0
LINE
8
BLACK
6
CONTINUOUS
10
156.391
20
-69.65
11
156.791
21
-70.05
0
LINE
8
BLACK
6
CONTINUOUS
10
156.791
20
-69.65
11
156.391
21
-70.05
0
LINE
8
BLACK
6
CONTINUOUS
10
156.505
20
-110.547
11
156.905
21
-110.947
0
LINE
8
BLACK
6
CONTINUOUS
10
156.905
20
-110.547
11
156.505
21
-110.947
0
LINE
8
BLACK
6
CONTINUOUS
10
157.128
20
-157.293
11
157.528
21
-157.693
0
LINE
8
BLACK
6
CONTINUOUS
10
157.528
20
-157.293
11
157.128
21
-157.693
0
LINE
8
BLACK
6
CONTINUOUS
10
157.153
20
-70.412
11
157.553
21
-70.812
0
LINE
8
BLACK
6
CONTINUOUS
10
157.553
20
-70.412
11
157.153
21
-70.812
0
LINE
8
BLACK
6
CONTINUOUS
10
157.161
20
-119.213
11
157.561
21
-119.613
0
LINE
8
BLACK
6
CONTINUOUS
10
157.561
20
-119.213
11
157.161
21
-119.613
0
LINE
8
BLACK
6
CONTINUOUS
10
157.915
20
-71.174
11
158.315
21
-71.574
0
LINE
8
BLACK
6
CONTINUOUS
10
158.315
20
-71.174
11
157.915
21
-71.574
0
LINE
8
BLACK
6
CONTINUOUS
10
157.972
20
-97.185
11
158.372
21
-97.585
0
LINE
8
BLACK
6
CONTINUOUS
10
158.372
20
-97.185
11
157.972
21
-97.585
0
LINE
8
BLACK
6
CONTINUOUS
10
158.781
20
-71.7905
11
159.181
21
-72.1905
0
LINE
8
BLACK
6
CONTINUOUS
10
159.181
20
-71.7905
11
158.781
21
-72.1905
0
LINE
8
BLACK
6
CONTINUOUS
10
159.439
20
-72.698
11
159.839
21
-73.098
0
LINE
8
BLACK
6
CONTINUOUS
10
159.839
20
-72.698
11
159.439
21
-73.098
0
LINE
8
BLACK
6
CONTINUOUS
10
159.629
20
-155.736
11
160.029
21
-156.136
0
LINE
8
BLACK
6
CONTINUOUS
10
160.029
20
-155.736
11
159.629
21
-156.136
0
LINE
8
BLACK
6
CONTINUOUS
10
159.663
20
-117.656
11
160.063
21
-118.056
0
LINE
8
BLACK
6
CONTINUOUS
10
160.063
20
-117.656
11
159.663
21
-118.056
0
LINE
8
BLACK
6
CONTINUOUS
10
159.698
20
-79.5865
11
160.098
21
-79.9865
0
LINE
8
BLACK
6
CONTINUOUS
10
160.098
20
-79.5865
11
159.698
21
-79.9865
0
LINE
8
BLACK
6
CONTINUOUS
10
159.795
20
-135.538
11
160.195
21
-135.938
0
LINE
8
BLACK
6
CONTINUOUS
10
160.195
20
-135.538
11
159.795
21
-135.938
0
LINE
8
BLACK
6
CONTINUOUS
10
160.201
20
-73.46
11
160.601
21
-73.86
0
LINE
8
BLACK
6
CONTINUOUS
10
160.601
20
-73.46
11
160.201
21
-73.86
0
LINE
8
BLACK
6
CONTINUOUS
10
160.963
20
-74.222
11
161.363
21
-74.622
0
LINE
8
BLACK
6
CONTINUOUS
10
161.363
20
-74.222
11
160.963
21
-74.622
0
LINE
8
BLACK
6
CONTINUOUS
10
161.103
20
-65.0196
11
161.503
21
-65.4196
0
LINE
8
BLACK
6
CONTINUOUS
10
161.503
20
-65.0196
11
161.103
21
-65.4196
0
LINE
8
BLACK
6
CONTINUOUS
10
161.725
20
-74.984
11
162.125
21
-75.384
0
LINE
8
BLACK
6
CONTINUOUS
10
162.125
20
-74.984
11
161.725
21
-75.384
0
LINE
8
BLACK
6
CONTINUOUS
10
162.778
20
-162.674
11
163.178
21
-163.074
0
LINE
8
BLACK
6
CONTINUOUS
10
163.178
20
-162.674
11
162.778
21
-163.074
0
LINE
8
BLACK
6
CONTINUOUS
10
162.781
20
-86.4701
11
163.181
21
-86.8701
0
LINE
8
BLACK
6
CONTINUOUS
10
163.181
20
-86.4701
11
162.781
21
-86.8701
0
LINE
8
BLACK
6
CONTINUOUS
10
162.781
20
-105.524
11
163.181
21
-105.924
0
LINE
8
BLACK
6
CONTINUOUS
10
163.181
20
-105.524
11
162.781
21
-105.924
0
LINE
8
BLACK
6
CONTINUOUS
10
162.781
20
-124.574
11
163.181
21
-124.974
0
LINE
8
BLACK
6
CONTINUOUS
10
163.181
20
-124.574
11
162.781
21
-124.974
0
LINE
8
BLACK
6
CONTINUOUS
10
162.781
20
-143.624
11
163.181
21
-144.024
0
LINE
8
BLACK
6
CONTINUOUS
10
163.181
20
-143.624
11
162.781
21
-144.024
0
LINE
8
BLACK
6
CONTINUOUS
10
164.697
20
-138.027
11
165.097
21
-138.427
0
LINE
8
BLACK
6
CONTINUOUS
10
165.097
20
-138.027
11
164.697
21
-138.427
0
LINE
8
BLACK
6
CONTINUOUS
10
165.179
20
-101.171
11
165.579
21
-101.571
0
LINE
8
BLACK
6
CONTINUOUS
10
165.579
20
-101.171
11
165.179
21
-101.571
0
LINE
8
BLACK
6
CONTINUOUS
10
165.205
20
-82.7818
11
165.605
21
-83.1818
0
LINE
8
BLACK
6
CONTINUOUS
10
165.605
20
-82.7818
11
165.205
21
-83.1818
0
LINE
8
BLACK
6
CONTINUOUS
10
166.038
20
-78.8143
11
166.438
21
-79.2143
0
LINE
8
BLACK
6
CONTINUOUS
10
166.438
20
-78.8143
11
166.038
21
-79.2143
0
LINE
8
BLACK
6
CONTINUOUS
10
166.32
20
-104.031
11
166.72
21
-104.431
0
LINE
8
BLACK
6
CONTINUOUS
10
166.72
20
-104.031
11
166.32
21
-104.431
0
LINE
8
BLACK
6
CONTINUOUS
10
166.355
20
-84.9662
11
166.755
21
-85.3662
0
LINE
8
BLACK
6
CONTINUOUS
10
166.755
20
-84.9662
11
166.355
21
-85.3662
0
LINE
8
BLACK
6
CONTINUOUS
10
166.376
20
-123.026
11
166.776
21
-123.426
0
LINE
8
BLACK
6
CONTINUOUS
10
166.776
20
-123.026
11
166.376
21
-123.426
0
LINE
8
BLACK
6
CONTINUOUS
10
166.47
20
-142.182
11
166.87
21
-142.582
0
LINE
8
BLACK
6
CONTINUOUS
10
166.87
20
-142.182
11
166.47
21
-142.582
0
LINE
8
BLACK
6
CONTINUOUS
10
167.237
20
-176.533
11
167.637
21
-176.933
0
LINE
8
BLACK
6
CONTINUOUS
10
167.637
20
-176.533
11
167.237
21
-176.933
0
LINE
8
BLACK
6
CONTINUOUS
10
167.839
20
-161.054
11
168.239
21
-161.454
0
LINE
8
BLACK
6
CONTINUOUS
10
168.239
20
-161.054
11
167.839
21
-161.454
0
LINE
8
BLACK
6
CONTINUOUS
10
167.872
20
-118.596
11
168.272
21
-118.996
0
LINE
8
BLACK
6
CONTINUOUS
10
168.272
20
-118.596
11
167.872
21
-118.996
0
LINE
8
BLACK
6
CONTINUOUS
10
169.904
20
-137.768
11
170.304
21
-138.168
0
LINE
8
BLACK
6
CONTINUOUS
10
170.304
20
-137.768
11
169.904
21
-138.168
0
LINE
8
BLACK
6
CONTINUOUS
10
169.97
20
-99.655
11
170.37
21
-100.055
0
LINE
8
BLACK
6
CONTINUOUS
10
170.37
20
-99.655
11
169.97
21
-100.055
0
LINE
8
BLACK
6
CONTINUOUS
10
170.412
20
-135.632
11
170.812
21
-136.032
0
LINE
8
BLACK
6
CONTINUOUS
10
170.812
20
-135.632
11
170.412
21
-136.032
0
LINE
8
BLACK
6
CONTINUOUS
10
170.478
20
-97.5189
11
170.878
21
-97.9189
0
LINE
8
BLACK
6
CONTINUOUS
10
170.878
20
-97.5189
11
170.478
21
-97.9189
0
LINE
8
BLACK
6
CONTINUOUS
10
170.732
20
-164.743
11
171.132
21
-165.143
0
LINE
8
BLACK
6
CONTINUOUS
10
171.132
20
-164.743
11
170.732
21
-165.143
0
LINE
8
BLACK
6
CONTINUOUS
10
171.56
20
-107.135
11
171.96
21
-107.535
0
LINE
8
BLACK
6
CONTINUOUS
10
171.96
20
-107.135
11
171.56
21
-107.535
0
LINE
8
BLACK
6
CONTINUOUS
10
171.821
20
-82.0151
11
172.221
21
-82.4151
0
LINE
8
BLACK
6
CONTINUOUS
10
172.221
20
-82.0151
11
171.821
21
-82.4151
0
LINE
8
BLACK
6
CONTINUOUS
10
171.821
20
-120.115
11
172.221
21
-120.515
0
LINE
8
BLACK
6
CONTINUOUS
10
172.221
20
-120.115
11
171.821
21
-120.515
0
LINE
8
BLACK
6
CONTINUOUS
10
172.063
20
-126.721
11
172.463
21
-127.121
0
LINE
8
BLACK
6
CONTINUOUS
10
172.463
20
-126.721
11
172.063
21
-127.121
0
LINE
8
BLACK
6
CONTINUOUS
10
172.065
20
-145.825
11
172.465
21
-146.225
0
LINE
8
BLACK
6
CONTINUOUS
10
172.465
20
-145.825
11
172.065
21
-146.225
0
LINE
8
BLACK
6
CONTINUOUS
10
172.967
20
-89.0505
11
173.367
21
-89.4505
0
LINE
8
BLACK
6
CONTINUOUS
10
173.367
20
-89.0505
11
172.967
21
-89.4505
0
LINE
8
BLACK
6
CONTINUOUS
10
173.13
20
-172.303
11
173.53
21
-172.703
0
LINE
8
BLACK
6
CONTINUOUS
10
173.53
20
-172.303
11
173.13
21
-172.703
0
LINE
8
BLACK
6
CONTINUOUS
10
176.076
20
-173.98
11
176.476
21
-174.38
0
LINE
8
BLACK
6
CONTINUOUS
10
176.476
20
-173.98
11
176.076
21
-174.38
0
LINE
8
BLACK
6
CONTINUOUS
10
176.193
20
-159.746
11
176.593
21
-160.146
0
LINE
8
BLACK
6
CONTINUOUS
10
176.593
20
-159.746
11
176.193
21
-160.146
0
LINE
8
BLACK
6
CONTINUOUS
10
176.2
20
-121.616
11
176.6
21
-122.016
0
LINE
8
BLACK
6
CONTINUOUS
10
176.6
20
-121.616
11
176.2
21
-122.016
0
LINE
8
BLACK
6
CONTINUOUS
10
176.259
20
-83.5667
11
176.659
21
-83.9667
0
LINE
8
BLACK
6
CONTINUOUS
10
176.659
20
-83.5667
11
176.259
21
-83.9667
0
LINE
8
BLACK
6
CONTINUOUS
10
177.022
20
-99.5662
11
177.422
21
-99.9662
0
LINE
8
BLACK
6
CONTINUOUS
10
177.422
20
-99.5662
11
177.022
21
-99.9662
0
LINE
8
BLACK
6
CONTINUOUS
10
178.525
20
-59.1039
11
178.925
21
-59.5039
0
LINE
8
BLACK
6
CONTINUOUS
10
178.925
20
-59.1039
11
178.525
21
-59.5039
0
LINE
8
BLACK
6
CONTINUOUS
10
178.695
20
-158.189
11
179.095
21
-158.589
0
LINE
8
BLACK
6
CONTINUOUS
10
179.095
20
-158.189
11
178.695
21
-158.589
0
LINE
8
BLACK
6
CONTINUOUS
10
178.702
20
-120.059
11
179.102
21
-120.459
0
LINE
8
BLACK
6
CONTINUOUS
10
179.102
20
-120.059
11
178.702
21
-120.459
0
LINE
8
BLACK
6
CONTINUOUS
10
178.761
20
-82.0096
11
179.161
21
-82.4096
0
LINE
8
BLACK
6
CONTINUOUS
10
179.161
20
-82.0096
11
178.761
21
-82.4096
0
LINE
8
BLACK
6
CONTINUOUS
10
178.997
20
-137.671
11
179.397
21
-138.071
0
LINE
8
BLACK
6
CONTINUOUS
10
179.397
20
-137.671
11
178.997
21
-138.071
0
LINE
8
BLACK
6
CONTINUOUS
10
181.831
20
-88.8551
11
182.231
21
-89.2551
0
LINE
8
BLACK
6
CONTINUOUS
10
182.231
20
-88.8551
11
181.831
21
-89.2551
0
LINE
8
BLACK
6
CONTINUOUS
10
181.831
20
-107.905
11
182.231
21
-108.305
0
LINE
8
BLACK
6
CONTINUOUS
10
182.231
20
-107.905
11
181.831
21
-108.305
0
LINE
8
BLACK
6
CONTINUOUS
10
181.831
20
-126.955
11
182.231
21
-127.355
0
LINE
8
BLACK
6
CONTINUOUS
10
182.231
20
-126.955
11
181.831
21
-127.355
0
LINE
8
BLACK
6
CONTINUOUS
10
181.831
20
-146.005
11
182.231
21
-146.405
0
LINE
8
BLACK
6
CONTINUOUS
10
182.231
20
-146.005
11
181.831
21
-146.405
0
LINE
8
BLACK
6
CONTINUOUS
10
181.831
20
-165.055
11
182.231
21
-165.455
0
LINE
8
BLACK
6
CONTINUOUS
10
182.231
20
-165.055
11
181.831
21
-165.455
0
LINE
8
BLACK
6
CONTINUOUS
10
182.655
20
-63.7318
11
183.055
21
-64.1318
0
LINE
8
BLACK
6
CONTINUOUS
10
183.055
20
-63.7318
11
182.655
21
-64.1318
0
LINE
8
BLACK
6
CONTINUOUS
10
183.696
20
-73.206
11
184.096
21
-73.606
0
LINE
8
BLACK
6
CONTINUOUS
10
184.096
20
-73.206
11
183.696
21
-73.606
0
LINE
8
BLACK
6
CONTINUOUS
10
183.798
20
-140.795
11
184.198
21
-141.195
0
LINE
8
BLACK
6
CONTINUOUS
10
184.198
20
-140.795
11
183.798
21
-141.195
0
LINE
8
BLACK
6
CONTINUOUS
10
183.95
20
-103.178
11
184.35
21
-103.578
0
LINE
8
BLACK
6
CONTINUOUS
10
184.35
20
-103.178
11
183.95
21
-103.578
0
LINE
8
BLACK
6
CONTINUOUS
10
184.763
20
-63.7572
11
185.163
21
-64.1572
0
LINE
8
BLACK
6
CONTINUOUS
10
185.163
20
-63.7572
11
184.763
21
-64.1572
0
LINE
8
BLACK
6
CONTINUOUS
10
185.25
20
-144.585
11
185.65
21
-144.985
0
LINE
8
BLACK
6
CONTINUOUS
10
185.65
20
-144.585
11
185.25
21
-144.985
0
LINE
8
BLACK
6
CONTINUOUS
10
185.281
20
-125.192
11
185.681
21
-125.592
0
LINE
8
BLACK
6
CONTINUOUS
10
185.681
20
-125.192
11
185.281
21
-125.592
0
LINE
8
BLACK
6
CONTINUOUS
10
185.296
20
-87.1379
11
185.696
21
-87.5379
0
LINE
8
BLACK
6
CONTINUOUS
10
185.696
20
-87.1379
11
185.296
21
-87.5379
0
LINE
8
BLACK
6
CONTINUOUS
10
185.311
20
-106.714
11
185.711
21
-107.114
0
LINE
8
BLACK
6
CONTINUOUS
10
185.711
20
-106.714
11
185.311
21
-107.114
0
LINE
8
BLACK
6
CONTINUOUS
10
186.211
20
-119.459
11
186.611
21
-119.859
0
LINE
8
BLACK
6
CONTINUOUS
10
186.611
20
-119.459
11
186.211
21
-119.859
0
LINE
8
BLACK
6
CONTINUOUS
10
186.846
20
-83.2644
11
187.246
21
-83.6644
0
LINE
8
BLACK
6
CONTINUOUS
10
187.246
20
-83.2644
11
186.846
21
-83.6644
0
LINE
8
BLACK
6
CONTINUOUS
10
188.773
20
-169.942
11
189.173
21
-170.342
0
LINE
8
BLACK
6
CONTINUOUS
10
189.173
20
-169.942
11
188.773
21
-170.342
0
LINE
8
BLACK
6
CONTINUOUS
10
188.987
20
-140.054
11
189.387
21
-140.454
0
LINE
8
BLACK
6
CONTINUOUS
10
189.387
20
-140.054
11
188.987
21
-140.454
0
LINE
8
BLACK
6
CONTINUOUS
10
189.027
20
-102.04
11
189.427
21
-102.44
0
LINE
8
BLACK
6
CONTINUOUS
10
189.427
20
-102.04
11
189.027
21
-102.44
0
LINE
8
BLACK
6
CONTINUOUS
10
189.182
20
-161.293
11
189.582
21
-161.693
0
LINE
8
BLACK
6
CONTINUOUS
10
189.582
20
-161.293
11
189.182
21
-161.693
0
LINE
8
BLACK
6
CONTINUOUS
10
189.495
20
-137.918
11
189.895
21
-138.318
0
LINE
8
BLACK
6
CONTINUOUS
10
189.895
20
-137.918
11
189.495
21
-138.318
0
LINE
8
BLACK
6
CONTINUOUS
10
189.535
20
-99.9039
11
189.935
21
-100.304
0
LINE
8
BLACK
6
CONTINUOUS
10
189.935
20
-99.9039
11
189.535
21
-100.304
0
LINE
8
BLACK
6
CONTINUOUS
10
189.546
20
-59.048
11
189.946
21
-59.448
0
LINE
8
BLACK
6
CONTINUOUS
10
189.946
20
-59.048
11
189.546
21
-59.448
0
LINE
8
BLACK
6
CONTINUOUS
10
190.485
20
-147.919
11
190.885
21
-148.319
0
LINE
8
BLACK
6
CONTINUOUS
10
190.885
20
-147.919
11
190.485
21
-148.319
0
LINE
8
BLACK
6
CONTINUOUS
10
190.628
20
-86.2641
11
191.028
21
-86.6641
0
LINE
8
BLACK
6
CONTINUOUS
10
191.028
20
-86.2641
11
190.628
21
-86.6641
0
LINE
8
BLACK
6
CONTINUOUS
10
190.696
20
-129.048
11
191.096
21
-129.448
0
LINE
8
BLACK
6
CONTINUOUS
10
191.096
20
-129.048
11
190.696
21
-129.448
0
LINE
8
BLACK
6
CONTINUOUS
10
190.868
20
-84.3926
11
191.268
21
-84.7926
0
LINE
8
BLACK
6
CONTINUOUS
10
191.268
20
-84.3926
11
190.868
21
-84.7926
0
LINE
8
BLACK
6
CONTINUOUS
10
190.871
20
-122.496
11
191.271
21
-122.896
0
LINE
8
BLACK
6
CONTINUOUS
10
191.271
20
-122.496
11
190.871
21
-122.896
0
LINE
8
BLACK
6
CONTINUOUS
10
191.641
20
-110.105
11
192.041
21
-110.505
0
LINE
8
BLACK
6
CONTINUOUS
10
192.041
20
-110.105
11
191.641
21
-110.505
0
LINE
8
BLACK
6
CONTINUOUS
10
193.218
20
-92.2992
11
193.618
21
-92.6992
0
LINE
8
BLACK
6
CONTINUOUS
10
193.618
20
-92.2992
11
193.218
21
-92.6992
0
LINE
8
BLACK
6
CONTINUOUS
10
194.999
20
-169.37
11
195.399
21
-169.77
0
LINE
8
BLACK
6
CONTINUOUS
10
195.399
20
-169.37
11
194.999
21
-169.77
0
LINE
8
BLACK
6
CONTINUOUS
10
195.238
20
-124.039
11
195.638
21
-124.439
0
LINE
8
BLACK
6
CONTINUOUS
10
195.638
20
-124.039
11
195.238
21
-124.439
0
LINE
8
BLACK
6
CONTINUOUS
10
195.258
20
-85.9619
11
195.658
21
-86.3619
0
LINE
8
BLACK
6
CONTINUOUS
10
195.658
20
-85.9619
11
195.258
21
-86.3619
0
LINE
8
BLACK
6
CONTINUOUS
10
196.072
20
-101.947
11
196.472
21
-102.347
0
LINE
8
BLACK
6
CONTINUOUS
10
196.472
20
-101.947
11
196.072
21
-102.347
0
LINE
8
BLACK
6
CONTINUOUS
10
197.74
20
-122.482
11
198.14
21
-122.882
0
LINE
8
BLACK
6
CONTINUOUS
10
198.14
20
-122.482
11
197.74
21
-122.882
0
LINE
8
BLACK
6
CONTINUOUS
10
197.76
20
-84.4049
11
198.16
21
-84.8049
0
LINE
8
BLACK
6
CONTINUOUS
10
198.16
20
-84.4049
11
197.76
21
-84.8049
0
LINE
8
BLACK
6
CONTINUOUS
10
197.869
20
-140.033
11
198.269
21
-140.433
0
LINE
8
BLACK
6
CONTINUOUS
10
198.269
20
-140.033
11
197.869
21
-140.433
0
LINE
8
BLACK
6
CONTINUOUS
10
199.284
20
-175.642
11
199.684
21
-176.042
0
LINE
8
BLACK
6
CONTINUOUS
10
199.684
20
-175.642
11
199.284
21
-176.042
0
LINE
8
BLACK
6
CONTINUOUS
10
199.596
20
-183.442
11
199.996
21
-183.842
0
LINE
8
BLACK
6
CONTINUOUS
10
199.996
20
-183.442
11
199.596
21
-183.842
0
LINE
8
BLACK
6
CONTINUOUS
10
200.878
20
-91.2326
11
201.278
21
-91.6326
0
LINE
8
BLACK
6
CONTINUOUS
10
201.278
20
-91.2326
11
200.878
21
-91.6326
0
LINE
8
BLACK
6
CONTINUOUS
10
200.881
20
-110.286
11
201.281
21
-110.686
0
LINE
8
BLACK
6
CONTINUOUS
10
201.281
20
-110.286
11
200.881
21
-110.686
0
LINE
8
BLACK
6
CONTINUOUS
10
200.881
20
-129.336
11
201.281
21
-129.736
0
LINE
8
BLACK
6
CONTINUOUS
10
201.281
20
-129.336
11
200.881
21
-129.736
0
LINE
8
BLACK
6
CONTINUOUS
10
200.881
20
-148.386
11
201.281
21
-148.786
0
LINE
8
BLACK
6
CONTINUOUS
10
201.281
20
-148.386
11
200.881
21
-148.786
0
LINE
8
BLACK
6
CONTINUOUS
10
202.289
20
-176.378
11
202.689
21
-176.778
0
LINE
8
BLACK
6
CONTINUOUS
10
202.689
20
-176.378
11
202.289
21
-176.778
0
LINE
8
BLACK
6
CONTINUOUS
10
202.543
20
-145.494
11
202.943
21
-145.894
0
LINE
8
BLACK
6
CONTINUOUS
10
202.943
20
-145.494
11
202.543
21
-145.894
0
LINE
8
BLACK
6
CONTINUOUS
10
202.594
20
-136.681
11
202.994
21
-137.081
0
LINE
8
BLACK
6
CONTINUOUS
10
202.994
20
-136.681
11
202.594
21
-137.081
0
LINE
8
BLACK
6
CONTINUOUS
10
202.655
20
-183.031
11
203.055
21
-183.431
0
LINE
8
BLACK
6
CONTINUOUS
10
203.055
20
-183.031
11
202.655
21
-183.431
0
LINE
8
BLACK
6
CONTINUOUS
10
202.975
20
-107.14
11
203.375
21
-107.54
0
LINE
8
BLACK
6
CONTINUOUS
10
203.375
20
-107.14
11
202.975
21
-107.54
0
LINE
8
BLACK
6
CONTINUOUS
10
203.965
20
-175.797
11
204.365
21
-176.197
0
LINE
8
BLACK
6
CONTINUOUS
10
204.365
20
-175.797
11
203.965
21
-176.197
0
LINE
8
BLACK
6
CONTINUOUS
10
204.245
20
-84.4582
11
204.645
21
-84.8582
0
LINE
8
BLACK
6
CONTINUOUS
10
204.645
20
-84.4582
11
204.245
21
-84.8582
0
LINE
8
BLACK
6
CONTINUOUS
10
204.288
20
-139.878
11
204.688
21
-140.278
0
LINE
8
BLACK
6
CONTINUOUS
10
204.688
20
-139.878
11
204.288
21
-140.278
0
LINE
8
BLACK
6
CONTINUOUS
10
204.298
20
-111.387
11
204.698
21
-111.787
0
LINE
8
BLACK
6
CONTINUOUS
10
204.698
20
-111.387
11
204.298
21
-111.787
0
LINE
8
BLACK
6
CONTINUOUS
10
204.4
20
-87.3259
11
204.8
21
-87.7259
0
LINE
8
BLACK
6
CONTINUOUS
10
204.8
20
-87.3259
11
204.4
21
-87.7259
0
LINE
8
BLACK
6
CONTINUOUS
10
205.835
20
-188.53
11
206.235
21
-188.93
0
LINE
8
BLACK
6
CONTINUOUS
10
206.235
20
-188.53
11
205.835
21
-188.93
0
LINE
8
BLACK
6
CONTINUOUS
10
208.09
20
-106.749
11
208.49
21
-107.149
0
LINE
8
BLACK
6
CONTINUOUS
10
208.49
20
-106.749
11
208.09
21
-107.149
0
LINE
8
BLACK
6
CONTINUOUS
10
208.126
20
-135.403
11
208.526
21
-135.803
0
LINE
8
BLACK
6
CONTINUOUS
10
208.526
20
-135.403
11
208.126
21
-135.803
0
LINE
8
BLACK
6
CONTINUOUS
10
208.461
20
-182.909
11
208.861
21
-183.309
0
LINE
8
BLACK
6
CONTINUOUS
10
208.861
20
-182.909
11
208.461
21
-183.309
0
LINE
8
BLACK
6
CONTINUOUS
10
208.598
20
-104.613
11
208.998
21
-105.013
0
LINE
8
BLACK
6
CONTINUOUS
10
208.998
20
-104.613
11
208.598
21
-105.013
0
LINE
8
BLACK
6
CONTINUOUS
10
208.634
20
-133.267
11
209.034
21
-133.667
0
LINE
8
BLACK
6
CONTINUOUS
10
209.034
20
-133.267
11
208.634
21
-133.667
0
LINE
8
BLACK
6
CONTINUOUS
10
209.223
20
-114.324
11
209.623
21
-114.724
0
LINE
8
BLACK
6
CONTINUOUS
10
209.623
20
-114.324
11
209.223
21
-114.724
0
LINE
8
BLACK
6
CONTINUOUS
10
209.921
20
-84.3963
11
210.321
21
-84.7963
0
LINE
8
BLACK
6
CONTINUOUS
10
210.321
20
-84.3963
11
209.921
21
-84.7963
0
LINE
8
BLACK
6
CONTINUOUS
10
210.671
20
-179.226
11
211.071
21
-179.626
0
LINE
8
BLACK
6
CONTINUOUS
10
211.071
20
-179.226
11
210.671
21
-179.626
0
LINE
8
BLACK
6
CONTINUOUS
10
212.505
20
-92.0503
11
212.905
21
-92.4503
0
LINE
8
BLACK
6
CONTINUOUS
10
212.905
20
-92.0503
11
212.505
21
-92.4503
0
LINE
8
BLACK
6
CONTINUOUS
10
212.685
20
-189.104
11
213.085
21
-189.504
0
LINE
8
BLACK
6
CONTINUOUS
10
213.085
20
-189.104
11
212.685
21
-189.504
0
LINE
8
BLACK
6
CONTINUOUS
10
213.076
20
-196.92
11
213.476
21
-197.32
0
LINE
8
BLACK
6
CONTINUOUS
10
213.476
20
-196.92
11
213.076
21
-197.32
0
LINE
8
BLACK
6
CONTINUOUS
10
213.77
20
-115.395
11
214.17
21
-115.795
0
LINE
8
BLACK
6
CONTINUOUS
10
214.17
20
-115.395
11
213.77
21
-115.795
0
LINE
8
BLACK
6
CONTINUOUS
10
213.846
20
-148.202
11
214.246
21
-148.602
0
LINE
8
BLACK
6
CONTINUOUS
10
214.246
20
-148.202
11
213.846
21
-148.602
0
LINE
8
BLACK
6
CONTINUOUS
10
214.351
20
-85.906
11
214.751
21
-86.306
0
LINE
8
BLACK
6
CONTINUOUS
10
214.751
20
-85.906
11
214.351
21
-86.306
0
LINE
8
BLACK
6
CONTINUOUS
10
215.122
20
-106.71
11
215.522
21
-107.11
0
LINE
8
BLACK
6
CONTINUOUS
10
215.522
20
-106.71
11
215.122
21
-107.11
0
LINE
8
BLACK
6
CONTINUOUS
10
215.692
20
-189.84
11
216.092
21
-190.24
0
LINE
8
BLACK
6
CONTINUOUS
10
216.092
20
-189.84
11
215.692
21
-190.24
0
LINE
8
BLACK
6
CONTINUOUS
10
215.903
20
-202.924
11
216.303
21
-203.324
0
LINE
8
BLACK
6
CONTINUOUS
10
216.303
20
-202.924
11
215.903
21
-203.324
0
LINE
8
BLACK
6
CONTINUOUS
10
216.853
20
-84.349
11
217.253
21
-84.749
0
LINE
8
BLACK
6
CONTINUOUS
10
217.253
20
-84.349
11
216.853
21
-84.749
0
LINE
8
BLACK
6
CONTINUOUS
10
217.58
20
-192.459
11
217.98
21
-192.859
0
LINE
8
BLACK
6
CONTINUOUS
10
217.98
20
-192.459
11
217.58
21
-192.859
0
LINE
8
BLACK
6
CONTINUOUS
10
217.91
20
-135.538
11
218.31
21
-135.938
0
LINE
8
BLACK
6
CONTINUOUS
10
218.31
20
-135.538
11
217.91
21
-135.938
0
LINE
8
BLACK
6
CONTINUOUS
10
219.67
20
-209.5
11
220.07
21
-209.9
0
LINE
8
BLACK
6
CONTINUOUS
10
220.07
20
-209.5
11
219.67
21
-209.9
0
LINE
8
BLACK
6
CONTINUOUS
10
219.931
20
-91.2363
11
220.331
21
-91.6363
0
LINE
8
BLACK
6
CONTINUOUS
10
220.331
20
-91.2363
11
219.931
21
-91.6363
0
LINE
8
BLACK
6
CONTINUOUS
10
219.931
20
-115.049
11
220.331
21
-115.449
0
LINE
8
BLACK
6
CONTINUOUS
10
220.331
20
-115.049
11
219.931
21
-115.449
0
LINE
8
BLACK
6
CONTINUOUS
10
219.931
20
-143.624
11
220.331
21
-144.024
0
LINE
8
BLACK
6
CONTINUOUS
10
220.331
20
-143.624
11
219.931
21
-144.024
0
LINE
8
BLACK
6
CONTINUOUS
10
222.144
20
-201.684
11
222.544
21
-202.084
0
LINE
8
BLACK
6
CONTINUOUS
10
222.544
20
-201.684
11
222.144
21
-202.084
0
LINE
8
BLACK
6
CONTINUOUS
10
222.515
20
-162.807
11
222.915
21
-163.207
0
LINE
8
BLACK
6
CONTINUOUS
10
222.915
20
-162.807
11
222.515
21
-163.207
0
LINE
8
BLACK
6
CONTINUOUS
10
222.629
20
-210.163
11
223.029
21
-210.563
0
LINE
8
BLACK
6
CONTINUOUS
10
223.029
20
-210.163
11
222.629
21
-210.563
0
LINE
8
BLACK
6
CONTINUOUS
10
224.311
20
-153.953
11
224.711
21
-154.353
0
LINE
8
BLACK
6
CONTINUOUS
10
224.711
20
-153.953
11
224.311
21
-154.353
0
LINE
8
BLACK
6
CONTINUOUS
10
226.546
20
-202.289
11
226.946
21
-202.689
0
LINE
8
BLACK
6
CONTINUOUS
10
226.946
20
-202.289
11
226.546
21
-202.689
0
LINE
8
BLACK
6
CONTINUOUS
10
230.95
20
-162.451
11
231.35
21
-162.851
0
LINE
8
BLACK
6
CONTINUOUS
10
231.35
20
-162.451
11
230.95
21
-162.851
0
LINE
8
BLACK
6
CONTINUOUS
10
231.006
20
-189.424
11
231.406
21
-189.824
0
LINE
8
BLACK
6
CONTINUOUS
10
231.406
20
-189.424
11
231.006
21
-189.824
0
LINE
8
BLACK
6
CONTINUOUS
10
232.614
20
-188.255
11
233.014
21
-188.655
0
LINE
8
BLACK
6
CONTINUOUS
10
233.014
20
-188.255
11
232.614
21
-188.655
0
LINE
8
BLACK
6
CONTINUOUS
10
232.644
20
-161.273
11
233.044
21
-161.673
0
LINE
8
BLACK
6
CONTINUOUS
10
233.044
20
-161.273
11
232.644
21
-161.673
0
LINE
8
BLACK
6
CONTINUOUS
10
233.431
20
-203.675
11
233.831
21
-204.075
0
LINE
8
BLACK
6
CONTINUOUS
10
233.831
20
-203.675
11
233.431
21
-204.075
0
LINE
8
BLACK
6
CONTINUOUS
10
235.299
20
-201.755
11
235.699
21
-202.155
0
LINE
8
BLACK
6
CONTINUOUS
10
235.699
20
-201.755
11
235.299
21
-202.155
0
LINE
8
BLACK
6
CONTINUOUS
10
237.493
20
-195.786
11
237.893
21
-196.186
0
LINE
8
BLACK
6
CONTINUOUS
10
237.893
20
-195.786
11
237.493
21
-196.186
0
LINE
8
BLACK
6
CONTINUOUS
10
238.588
20
-176.579
11
238.988
21
-176.979
0
LINE
8
BLACK
6
CONTINUOUS
10
238.988
20
-176.579
11
238.588
21
-176.979
0
LINE
8
BLACK
6
CONTINUOUS
10
240.076
20
-182.423
11
240.476
21
-182.823
0
LINE
8
BLACK
6
CONTINUOUS
10
240.476
20
-182.423
11
240.076
21
-182.823
0
LINE
8
BLACK
6
CONTINUOUS
10
242.395
20
-186.185
11
242.795
21
-186.585
0
LINE
8
BLACK
6
CONTINUOUS
10
242.795
20
-186.185
11
242.395
21
-186.585
0
LINE
8
BLACK
6
CONTINUOUS
10
244.465
20
-175.926
11
244.865
21
-176.326
0
LINE
8
BLACK
6
CONTINUOUS
10
244.865
20
-175.926
11
244.465
21
-176.326
0
LINE
8
BLACK
6
CONTINUOUS
10
246
20
-174.763
11
246.4
21
-175.163
0
LINE
8
BLACK
6
CONTINUOUS
10
246.4
20
-174.763
11
246
21
-175.163
0
LINE
8
BLACK
6
CONTINUOUS
10
246.925
20
-190.187
11
247.325
21
-190.587
0
LINE
8
BLACK
6
CONTINUOUS
10
247.325
20
-190.187
11
246.925
21
-190.587
0
LINE
8
BLACK
6
CONTINUOUS
10
250.879
20
-182.401
11
251.279
21
-182.801
0
LINE
8
BLACK
6
CONTINUOUS
10
251.279
20
-182.401
11
250.879
21
-182.801
0
LINE
8
BLACK
6
CONTINUOUS
10
152.397
20
-58.2416
11
152.797
21
-58.6416
0
LINE
8
BLACK
6
CONTINUOUS
10
152.797
20
-58.2416
11
152.397
21
-58.6416
0
LINE
8
BLACK
6
CONTINUOUS
10
152.397
20
-59.5916
11
152.797
21
-59.9916
0
LINE
8
BLACK
6
CONTINUOUS
10
152.797
20
-59.5916
11
152.397
21
-59.9916
0
LINE
8
BLACK
6
CONTINUOUS
10
153.247
20
-58.2416
11
153.647
21
-58.6416
0
LINE
8
BLACK
6
CONTINUOUS
10
153.647
20
-58.2416
11
153.247
21
-58.6416
0
LINE
8
BLACK
6
CONTINUOUS
10
153.247
20
-59.5916
11
153.647
21
-59.9916
0
LINE
8
BLACK
6
CONTINUOUS
10
153.647
20
-59.5916
11
153.247
21
-59.9916
0
LINE
8
BLACK
6
CONTINUOUS
10
154.097
20
-58.2416
11
154.497
21
-58.6416
0
LINE
8
BLACK
6
CONTINUOUS
10
154.497
20
-58.2416
11
154.097
21
-58.6416
0
LINE
8
BLACK
6
CONTINUOUS
10
154.097
20
-59.5916
11
154.497
21
-59.9916
0
LINE
8
BLACK
6
CONTINUOUS
10
154.497
20
-59.5916
11
154.097
21
-59.9916
0
LINE
8
BLACK
6
CONTINUOUS
10
154.947
20
-58.2416
11
155.347
21
-58.6416
0
LINE
8
BLACK
6
CONTINUOUS
10
155.347
20
-58.2416
11
154.947
21
-58.6416
0
LINE
8
BLACK
6
CONTINUOUS
10
154.947
20
-59.5916
11
155.347
21
-59.9916
0
LINE
8
BLACK
6
CONTINUOUS
10
155.347
20
-59.5916
11
154.947
21
-59.9916
0
LINE
8
BLACK
6
CONTINUOUS
10
155.797
20
-58.2416
11
156.197
21
-58.6416
0
LINE
8
BLACK
6
CONTINUOUS
10
156.197
20
-58.2416
11
155.797
21
-58.6416
0
LINE
8
BLACK
6
CONTINUOUS
10
155.797
20
-59.5916
11
156.197
21
-59.9916
0
LINE
8
BLACK
6
CONTINUOUS
10
156.197
20
-59.5916
11
155.797
21
-59.9916
0
LINE
8
BLACK
6
CONTINUOUS
10
156.647
20
-58.2416
11
157.047
21
-58.6416
0
LINE
8
BLACK
6
CONTINUOUS
10
157.047
20
-58.2416
11
156.647
21
-58.6416
0
LINE
8
BLACK
6
CONTINUOUS
10
156.647
20
-59.5916
11
157.047
21
-59.9916
0
LINE
8
BLACK
6
CONTINUOUS
10
157.047
20
-59.5916
11
156.647
21
-59.9916
0
LINE
8
BLACK
6
CONTINUOUS
10
157.497
20
-58.2416
11
157.897
21
-58.6416
0
LINE
8
BLACK
6
CONTINUOUS
10
157.897
20
-58.2416
11
157.497
21
-58.6416
0
LINE
8
BLACK
6
CONTINUOUS
10
157.497
20
-59.5916
11
157.897
21
-59.9916
0
LINE
8
BLACK
6
CONTINUOUS
10
157.897
20
-59.5916
11
157.497
21
-59.9916
0
LINE
8
BLACK
6
CONTINUOUS
10
158.347
20
-58.2416
11
158.747
21
-58.6416
0
LINE
8
BLACK
6
CONTINUOUS
10
158.747
20
-58.2416
11
158.347
21
-58.6416
0
LINE
8
BLACK
6
CONTINUOUS
10
158.347
20
-59.5916
11
158.747
21
-59.9916
0
LINE
8
BLACK
6
CONTINUOUS
10
158.747
20
-59.5916
11
158.347
21
-59.9916
0
CIRCLE
8
BLACK
10
151.247
20
-55.4316
40
0.3
0
LINE
8
BLACK
6
CONTINUOUS
10
151.547
20
-55.8316
11
151.547
21
-55.0316
0
LINE
8
BLACK
6
CONTINUOUS
10
150.947
20
-55.8316
11
150.947
21
-55.0316
0
ARC
8
BLACK
10
151.247
20
-55.0316
40
0.3
50
360
51
540
0
ARC
8
BLACK
10
151.247
20
-55.8316
40
0.3
50
180
51
360
0
CIRCLE
8
BLACK
10
151.247
20
-58.8116
40
0.3
0
LINE
8
BLACK
6
CONTINUOUS
10
151.547
20
-59.5616
11
151.547
21
-58.0616
0
LINE
8
BLACK
6
CONTINUOUS
10
150.947
20
-59.5616
11
150.947
21
-58.0616
0
ARC
8
BLACK
10
151.247
20
-58.0616
40
0.3
50
360
51
540
0
ARC
8
BLACK
10
151.247
20
-59.5616
40
0.3
50
180
51
360
0
CIRCLE
8
BLACK
10
159.897
20
-55.4316
40
0.3
0
LINE
8
BLACK
6
CONTINUOUS
10
160.197
20
-55.8316
11
160.197
21
-55.0316
0
LINE
8
BLACK
6
CONTINUOUS
10
159.597
20
-55.8316
11
159.597
21
-55.0316
0
ARC
8
BLACK
10
159.897
20
-55.0316
40
0.3
50
360
51
540
0
ARC
8
BLACK
10
159.897
20
-55.8316
40
0.3
50
180
51
360
0
CIRCLE
8
BLACK
10
159.897
20
-58.8116
40
0.3
0
LINE
8
BLACK
6
CONTINUOUS
10
160.197
20
-59.5616
11
160.197
21
-58.0616
0
LINE
8
BLACK
6
CONTINUOUS
10
159.597
20
-59.5616
11
159.597
21
-58.0616
0
ARC
8
BLACK
10
159.897
20
-58.0616
40
0.3
50
360
51
540
0
ARC
8
BLACK
10
159.897
20
-59.5616
40
0.3
50
180
51
360
0
LINE
8
BLACK
6
CONTINUOUS
10
211.931
20
-64.905
11
211.931
21
-65.905
0
LINE
8
BLACK
6
CONTINUOUS
10
211.431
20
-65.405
11
212.431
21
-65.405
0
LINE
8
BLACK
6
CONTINUOUS
10
211.931
20
-67.445
11
211.931
21
-68.445
0
LINE
8
BLACK
6
CONTINUOUS
10
211.431
20
-67.945
11
212.431
21
-67.945
0
LINE
8
BLACK
6
CONTINUOUS
10
211.931
20
-69.985
11
211.931
21
-70.985
0
LINE
8
BLACK
6
CONTINUOUS
10
211.431
20
-70.485
11
212.431
21
-70.485
0
LINE
8
BLACK
6
CONTINUOUS
10
211.931
20
-72.525
11
211.931
21
-73.525
0
LINE
8
BLACK
6
CONTINUOUS
10
211.431
20
-73.025
11
212.431
21
-73.025
0
LINE
8
BLACK
6
CONTINUOUS
10
214.471
20
-64.905
11
214.471
21
-65.905
0
LINE
8
BLACK
6
CONTINUOUS
10
213.971
20
-65.405
11
214.971
21
-65.405
0
LINE
8
BLACK
6
CONTINUOUS
10
214.471
20
-67.445
11
214.471
21
-68.445
0
LINE
8
BLACK
6
CONTINUOUS
10
213.971
20
-67.945
11
214.971
21
-67.945
0
LINE
8
BLACK
6
CONTINUOUS
10
214.471
20
-69.985
11
214.471
21
-70.985
0
LINE
8
BLACK
6
CONTINUOUS
10
213.971
20
-70.485
11
214.971
21
-70.485
0
LINE
8
BLACK
6
CONTINUOUS
10
214.471
20
-72.525
11
214.471
21
-73.525
0
LINE
8
BLACK
6
CONTINUOUS
10
213.971
20
-73.025
11
214.971
21
-73.025
0
LINE
8
BLACK
6
CONTINUOUS
10
181.638
20
-56.269
11
181.638
21
-57.269
0
LINE
8
BLACK
6
CONTINUOUS
10
181.138
20
-56.769
11
182.138
21
-56.769
0
LINE
8
BLACK
6
CONTINUOUS
10
181.638
20
-70.769
11
181.638
21
-71.769
0
LINE
8
BLACK
6
CONTINUOUS
10
181.138
20
-71.269
11
182.138
21
-71.269
0
LINE
8
BLACK
6
CONTINUOUS
10
184.138
20
-56.269
11
184.138
21
-57.269
0
LINE
8
BLACK
6
CONTINUOUS
10
183.638
20
-56.769
11
184.638
21
-56.769
0
LINE
8
BLACK
6
CONTINUOUS
10
186.638
20
-56.269
11
186.638
21
-57.269
0
LINE
8
BLACK
6
CONTINUOUS
10
186.138
20
-56.769
11
187.138
21
-56.769
0
LINE
8
BLACK
6
CONTINUOUS
10
186.638
20
-70.769
11
186.638
21
-71.769
0
LINE
8
BLACK
6
CONTINUOUS
10
186.138
20
-71.269
11
187.138
21
-71.269
0
LINE
8
BLACK
6
CONTINUOUS
10
207.353
20
-59.6472
11
207.353
21
-60.6472
0
LINE
8
BLACK
6
CONTINUOUS
10
206.853
20
-60.1472
11
207.853
21
-60.1472
0
LINE
8
BLACK
6
CONTINUOUS
10
209.893
20
-59.6472
11
209.893
21
-60.6472
0
LINE
8
BLACK
6
CONTINUOUS
10
209.393
20
-60.1472
11
210.393
21
-60.1472
0
LINE
8
BLACK
6
CONTINUOUS
10
179.068
20
-64.7993
11
179.068
21
-63.7387
0
LINE
8
BLACK
6
CONTINUOUS
10
179.068
20
-63.7387
11
178.008
21
-63.7387
0
LINE
8
BLACK
6
CONTINUOUS
10
178.008
20
-63.7387
11
178.008
21
-64.7993
0
LINE
8
BLACK
6
CONTINUOUS
10
178.008
20
-64.7993
11
179.068
21
-64.7993
0
LINE
8
BLACK
6
CONTINUOUS
10
177.788
20
-63.619
11
177.788
21
-64.919
0
LINE
8
BLACK
6
CONTINUOUS
10
179.288
20
-63.619
11
179.288
21
-64.919
0
ARC
8
BLACK
10
178.538
20
-64.919
40
0.75
50
180
51
360
0
ARC
8
BLACK
10
178.538
20
-63.619
40
0.75
50
0
51
180
0
LINE
8
BLACK
6
CONTINUOUS
10
190.268
20
-64.7993
11
190.268
21
-63.7387
0
LINE
8
BLACK
6
CONTINUOUS
10
190.268
20
-63.7387
11
189.208
21
-63.7387
0
LINE
8
BLACK
6
CONTINUOUS
10
189.208
20
-63.7387
11
189.208
21
-64.7993
0
LINE
8
BLACK
6
CONTINUOUS
10
189.208
20
-64.7993
11
190.268
21
-64.7993
0
LINE
8
BLACK
6
CONTINUOUS
10
188.988
20
-63.619
11
188.988
21
-64.919
0
LINE
8
BLACK
6
CONTINUOUS
10
190.488
20
-63.619
11
190.488
21
-64.919
0
ARC
8
BLACK
10
189.738
20
-64.919
40
0.75
50
180
51
360
0
ARC
8
BLACK
10
189.738
20
-63.619
40
0.75
50
0
51
180
0
LINE
8
BLACK
6
CONTINUOUS
10
80.0354
20
-58.4706
11
81.6354
21
-56.8706
0
LINE
8
BLACK
6
CONTINUOUS
10
81.6354
20
-56.8706
11
80.0354
21
-55.2706
0
LINE
8
BLACK
6
CONTINUOUS
10
80.0354
20
-55.2706
11
78.4354
21
-56.8706
0
LINE
8
BLACK
6
CONTINUOUS
10
78.4354
20
-56.8706
11
80.0354
21
-58.4706
0
LINE
8
BLACK
6
CONTINUOUS
10
216.642
20
-224.505
11
218.242
21
-222.905
0
LINE
8
BLACK
6
CONTINUOUS
10
218.242
20
-222.905
11
216.642
21
-221.305
0
LINE
8
BLACK
6
CONTINUOUS
10
216.642
20
-221.305
11
215.042
21
-222.905
0
LINE
8
BLACK
6
CONTINUOUS
10
215.042
20
-222.905
11
216.642
21
-224.505
0
LINE
8
BLACK
6
CONTINUOUS
10
169.862
20
-58.3944
11
171.463
21
-56.7944
0
LINE
8
BLACK
6
CONTINUOUS
10
171.463
20
-56.7944
11
169.862
21
-55.1944
0
LINE
8
BLACK
6
CONTINUOUS
10
169.862
20
-55.1944
11
168.262
21
-56.7944
0
LINE
8
BLACK
6
CONTINUOUS
10
168.262
20
-56.7944
11
169.862
21
-58.3944
0
LINE
8
BLACK
6
CONTINUOUS
10
80.0354
20
-175.565
11
81.6354
21
-173.965
0
LINE
8
BLACK
6
CONTINUOUS
10
81.6354
20
-173.965
11
80.0354
21
-172.365
0
LINE
8
BLACK
6
CONTINUOUS
10
80.0354
20
-172.365
11
78.4354
21
-173.965
0
LINE
8
BLACK
6
CONTINUOUS
10
78.4354
20
-173.965
11
80.0354
21
-175.565
0
LINE
8
BLACK
6
CONTINUOUS
10
105.569
20
-100.025
11
107.169
21
-98.425
0
LINE
8
BLACK
6
CONTINUOUS
10
107.169
20
-98.425
11
105.569
21
-96.825
0
LINE
8
BLACK
6
CONTINUOUS
10
105.569
20
-96.825
11
103.969
21
-98.425
0
LINE
8
BLACK
6
CONTINUOUS
10
103.969
20
-98.425
11
105.569
21
-100.025
0
LINE
8
BLACK
6
CONTINUOUS
10
105.569
20
-138.125
11
107.169
21
-136.525
0
LINE
8
BLACK
6
CONTINUOUS
10
107.169
20
-136.525
11
105.569
21
-134.925
0
LINE
8
BLACK
6
CONTINUOUS
10
105.569
20
-134.925
11
103.969
21
-136.525
0
LINE
8
BLACK
6
CONTINUOUS
10
103.969
20
-136.525
11
105.569
21
-138.125
0
LINE
8
BLACK
6
CONTINUOUS
10
221.59
20
-58.4706
11
223.19
21
-56.8706
0
LINE
8
BLACK
6
CONTINUOUS
10
223.19
20
-56.8706
11
221.59
21
-55.2706
0
LINE
8
BLACK
6
CONTINUOUS
10
221.59
20
-55.2706
11
219.99
21
-56.8706
0
LINE
8
BLACK
6
CONTINUOUS
10
219.99
20
-56.8706
11
221.59
21
-58.4706
0
LINE
8
BLACK
6
CONTINUOUS
10
256.23
20
-184.942
11
257.83
21
-183.342
0
LINE
8
BLACK
6
CONTINUOUS
10
257.83
20
-183.342
11
256.23
21
-181.742
0
LINE
8
BLACK
6
CONTINUOUS
10
256.23
20
-181.742
11
254.63
21
-183.342
0
LINE
8
BLACK
6
CONTINUOUS
10
254.63
20
-183.342
11
256.23
21
-184.942
0
LINE
8
BLACK
6
CONTINUOUS
10
221.625
20
-100.025
11
223.225
21
-98.425
0
LINE
8
BLACK
6
CONTINUOUS
10
223.225
20
-98.425
11
221.625
21
-96.825
0
LINE
8
BLACK
6
CONTINUOUS
10
221.625
20
-96.825
11
220.025
21
-98.425
0
LINE
8
BLACK
6
CONTINUOUS
10
220.025
20
-98.425
11
221.625
21
-100.025
0
LINE
8
BLACK
6
CONTINUOUS
10
216.694
20
-163.525
11
218.294
21
-161.925
0
LINE
8
BLACK
6
CONTINUOUS
10
218.294
20
-161.925
11
216.694
21
-160.325
0
LINE
8
BLACK
6
CONTINUOUS
10
216.694
20
-160.325
11
215.094
21
-161.925
0
LINE
8
BLACK
6
CONTINUOUS
10
215.094
20
-161.925
11
216.694
21
-163.525
0
LINE
8
BLACK
6
CONTINUOUS
10
79.6743
20
-230.792
11
79.6743
21
-227.792
0
LINE
8
BLACK
6
CONTINUOUS
10
79.6743
20
-227.792
11
80.3886
21
-227.792
0
LINE
8
BLACK
6
CONTINUOUS
10
80.3886
20
-227.792
11
80.8171
21
-227.934
0
LINE
8
BLACK
6
CONTINUOUS
10
80.8171
20
-227.934
11
81.1029
21
-228.22
0
LINE
8
BLACK
6
CONTINUOUS
10
81.1029
20
-228.22
11
81.2457
21
-228.506
0
LINE
8
BLACK
6
CONTINUOUS
10
81.2457
20
-228.506
11
81.3886
21
-229.077
0
LINE
8
BLACK
6
CONTINUOUS
10
81.3886
20
-229.077
11
81.3886
21
-229.506
0
LINE
8
BLACK
6
CONTINUOUS
10
81.3886
20
-229.506
11
81.2457
21
-230.077
0
LINE
8
BLACK
6
CONTINUOUS
10
81.2457
20
-230.077
11
81.1029
21
-230.363
0
LINE
8
BLACK
6
CONTINUOUS
10
81.1029
20
-230.363
11
80.8171
21
-230.649
0
LINE
8
BLACK
6
CONTINUOUS
10
80.8171
20
-230.649
11
80.3886
21
-230.792
0
LINE
8
BLACK
6
CONTINUOUS
10
80.3886
20
-230.792
11
79.6743
21
-230.792
0
LINE
8
BLACK
6
CONTINUOUS
10
82.6743
20
-230.792
11
82.6743
21
-228.792
0
LINE
8
BLACK
6
CONTINUOUS
10
82.6743
20
-229.363
11
82.8171
21
-229.077
0
LINE
8
BLACK
6
CONTINUOUS
10
82.8171
20
-229.077
11
82.96
21
-228.934
0
LINE
8
BLACK
6
CONTINUOUS
10
82.96
20
-228.934
11
83.2457
21
-228.792
0
LINE
8
BLACK
6
CONTINUOUS
10
83.2457
20
-228.792
11
83.5314
21
-228.792
0
LINE
8
BLACK
6
CONTINUOUS
10
84.5314
20
-230.792
11
84.5314
21
-228.792
0
LINE
8
BLACK
6
CONTINUOUS
10
84.5314
20
-227.792
11
84.3886
21
-227.934
0
LINE
8
BLACK
6
CONTINUOUS
10
84.3886
20
-227.934
11
84.5314
21
-228.077
0
LINE
8
BLACK
6
CONTINUOUS
10
84.5314
20
-228.077
11
84.6743
21
-227.934
0
LINE
8
BLACK
6
CONTINUOUS
10
84.6743
20
-227.934
11
84.5314
21
-227.792
0
LINE
8
BLACK
6
CONTINUOUS
10
84.5314
20
-227.792
11
84.5314
21
-228.077
0
LINE
8
BLACK
6
CONTINUOUS
10
86.3886
20
-230.792
11
86.1029
21
-230.649
0
LINE
8
BLACK
6
CONTINUOUS
10
86.1029
20
-230.649
11
85.96
21
-230.363
0
LINE
8
BLACK
6
CONTINUOUS
10
85.96
20
-230.363
11
85.96
21
-227.792
0
LINE
8
BLACK
6
CONTINUOUS
10
87.96
20
-230.792
11
87.6743
21
-230.649
0
LINE
8
BLACK
6
CONTINUOUS
10
87.6743
20
-230.649
11
87.5314
21
-230.363
0
LINE
8
BLACK
6
CONTINUOUS
10
87.5314
20
-230.363
11
87.5314
21
-227.792
0
LINE
8
BLACK
6
CONTINUOUS
10
91.3886
20
-230.792
11
91.3886
21
-227.792
0
LINE
8
BLACK
6
CONTINUOUS
10
91.3886
20
-227.792
11
92.3886
21
-229.934
0
LINE
8
BLACK
6
CONTINUOUS
10
92.3886
20
-229.934
11
93.3886
21
-227.792
0
LINE
8
BLACK
6
CONTINUOUS
10
93.3886
20
-227.792
11
93.3886
21
-230.792
0
LINE
8
BLACK
6
CONTINUOUS
10
96.1029
20
-230.792
11
96.1029
21
-229.22
0
LINE
8
BLACK
6
CONTINUOUS
10
96.1029
20
-229.22
11
95.96
21
-228.934
0
LINE
8
BLACK
6
CONTINUOUS
10
95.96
20
-228.934
11
95.6743
21
-228.792
0
LINE
8
BLACK
6
CONTINUOUS
10
95.6743
20
-228.792
11
95.1029
21
-228.792
0
LINE
8
BLACK
6
CONTINUOUS
10
95.1029
20
-228.792
11
94.8171
21
-228.934
0
LINE
8
BLACK
6
CONTINUOUS
10
96.1029
20
-230.649
11
95.8171
21
-230.792
0
LINE
8
BLACK
6
CONTINUOUS
10
95.8171
20
-230.792
11
95.1029
21
-230.792
0
LINE
8
BLACK
6
CONTINUOUS
10
95.1029
20
-230.792
11
94.8171
21
-230.649
0
LINE
8
BLACK
6
CONTINUOUS
10
94.8171
20
-230.649
11
94.6743
21
-230.363
0
LINE
8
BLACK
6
CONTINUOUS
10
94.6743
20
-230.363
11
94.6743
21
-230.077
0
LINE
8
BLACK
6
CONTINUOUS
10
94.6743
20
-230.077
11
94.8171
21
-229.792
0
LINE
8
BLACK
6
CONTINUOUS
10
94.8171
20
-229.792
11
95.1029
21
-229.649
0
LINE
8
BLACK
6
CONTINUOUS
10
95.1029
20
-229.649
11
95.8171
21
-229.649
0
LINE
8
BLACK
6
CONTINUOUS
10
95.8171
20
-229.649
11
96.1029
21
-229.506
0
LINE
8
BLACK
6
CONTINUOUS
10
97.5314
20
-228.792
11
97.5314
21
-231.792
0
LINE
8
BLACK
6
CONTINUOUS
10
97.5314
20
-228.934
11
97.8171
21
-228.792
0
LINE
8
BLACK
6
CONTINUOUS
10
97.8171
20
-228.792
11
98.3886
21
-228.792
0
LINE
8
BLACK
6
CONTINUOUS
10
98.3886
20
-228.792
11
98.6743
21
-228.934
0
LINE
8
BLACK
6
CONTINUOUS
10
98.6743
20
-228.934
11
98.8171
21
-229.077
0
LINE
8
BLACK
6
CONTINUOUS
10
98.8171
20
-229.077
11
98.96
21
-229.363
0
LINE
8
BLACK
6
CONTINUOUS
10
98.96
20
-229.363
11
98.96
21
-230.22
0
LINE
8
BLACK
6
CONTINUOUS
10
98.96
20
-230.22
11
98.8171
21
-230.506
0
LINE
8
BLACK
6
CONTINUOUS
10
98.8171
20
-230.506
11
98.6743
21
-230.649
0
LINE
8
BLACK
6
CONTINUOUS
10
98.6743
20
-230.649
11
98.3886
21
-230.792
0
LINE
8
BLACK
6
CONTINUOUS
10
98.3886
20
-230.792
11
97.8171
21
-230.792
0
LINE
8
BLACK
6
CONTINUOUS
10
97.8171
20
-230.792
11
97.5314
21
-230.649
0
LINE
8
BLACK
6
CONTINUOUS
10
100.246
20
-230.506
11
100.389
21
-230.649
0
LINE
8
BLACK
6
CONTINUOUS
10
100.389
20
-230.649
11
100.246
21
-230.792
0
LINE
8
BLACK
6
CONTINUOUS
10
100.246
20
-230.792
11
100.103
21
-230.649
0
LINE
8
BLACK
6
CONTINUOUS
10
100.103
20
-230.649
11
100.246
21
-230.506
0
LINE
8
BLACK
6
CONTINUOUS
10
100.246
20
-230.506
11
100.246
21
-230.792
0
LINE
8
BLACK
6
CONTINUOUS
10
100.246
20
-228.934
11
100.389
21
-229.077
0
LINE
8
BLACK
6
CONTINUOUS
10
100.389
20
-229.077
11
100.246
21
-229.22
0
LINE
8
BLACK
6
CONTINUOUS
10
100.246
20
-229.22
11
100.103
21
-229.077
0
LINE
8
BLACK
6
CONTINUOUS
10
100.103
20
-229.077
11
100.246
21
-228.934
0
LINE
8
BLACK
6
CONTINUOUS
10
100.246
20
-228.934
11
100.246
21
-229.22
0
LINE
8
BLACK
6
CONTINUOUS
10
76.41
20
-235.534
11
76.81
21
-235.934
0
LINE
8
BLACK
6
CONTINUOUS
10
76.81
20
-235.534
11
76.41
21
-235.934
0
LINE
8
BLACK
6
CONTINUOUS
10
80.2457
20
-234.092
11
80.5314
21
-234.092
0
LINE
8
BLACK
6
CONTINUOUS
10
80.5314
20
-234.092
11
80.8171
21
-234.234
0
LINE
8
BLACK
6
CONTINUOUS
10
80.8171
20
-234.234
11
80.96
21
-234.377
0
LINE
8
BLACK
6
CONTINUOUS
10
80.96
20
-234.377
11
81.1029
21
-234.663
0
LINE
8
BLACK
6
CONTINUOUS
10
81.1029
20
-234.663
11
81.2457
21
-235.234
0
LINE
8
BLACK
6
CONTINUOUS
10
81.2457
20
-235.234
11
81.2457
21
-235.949
0
LINE
8
BLACK
6
CONTINUOUS
10
81.2457
20
-235.949
11
81.1029
21
-236.52
0
LINE
8
BLACK
6
CONTINUOUS
10
81.1029
20
-236.52
11
80.96
21
-236.806
0
LINE
8
BLACK
6
CONTINUOUS
10
80.96
20
-236.806
11
80.8171
21
-236.949
0
LINE
8
BLACK
6
CONTINUOUS
10
80.8171
20
-236.949
11
80.5314
21
-237.092
0
LINE
8
BLACK
6
CONTINUOUS
10
80.5314
20
-237.092
11
80.2457
21
-237.092
0
LINE
8
BLACK
6
CONTINUOUS
10
80.2457
20
-237.092
11
79.96
21
-236.949
0
LINE
8
BLACK
6
CONTINUOUS
10
79.96
20
-236.949
11
79.8171
21
-236.806
0
LINE
8
BLACK
6
CONTINUOUS
10
79.8171
20
-236.806
11
79.6743
21
-236.52
0
LINE
8
BLACK
6
CONTINUOUS
10
79.6743
20
-236.52
11
79.5314
21
-235.949
0
LINE
8
BLACK
6
CONTINUOUS
10
79.5314
20
-235.949
11
79.5314
21
-235.234
0
LINE
8
BLACK
6
CONTINUOUS
10
79.5314
20
-235.234
11
79.6743
21
-234.663
0
LINE
8
BLACK
6
CONTINUOUS
10
79.6743
20
-234.663
11
79.8171
21
-234.377
0
LINE
8
BLACK
6
CONTINUOUS
10
79.8171
20
-234.377
11
79.96
21
-234.234
0
LINE
8
BLACK
6
CONTINUOUS
10
79.96
20
-234.234
11
80.2457
21
-234.092
0
LINE
8
BLACK
6
CONTINUOUS
10
82.5314
20
-236.806
11
82.6743
21
-236.949
0
LINE
8
BLACK
6
CONTINUOUS
10
82.6743
20
-236.949
11
82.5314
21
-237.092
0
LINE
8
BLACK
6
CONTINUOUS
10
82.5314
20
-237.092
11
82.3886
21
-236.949
0
LINE
8
BLACK
6
CONTINUOUS
10
82.3886
20
-236.949
11
82.5314
21
-236.806
0
LINE
8
BLACK
6
CONTINUOUS
10
82.5314
20
-236.806
11
82.5314
21
-237.092
0
LINE
8
BLACK
6
CONTINUOUS
10
85.2457
20
-235.092
11
85.2457
21
-237.092
0
LINE
8
BLACK
6
CONTINUOUS
10
84.5314
20
-233.949
11
83.8171
21
-236.092
0
LINE
8
BLACK
6
CONTINUOUS
10
83.8171
20
-236.092
11
85.6743
21
-236.092
0
LINE
8
BLACK
6
CONTINUOUS
10
87.3886
20
-234.092
11
87.6743
21
-234.092
0
LINE
8
BLACK
6
CONTINUOUS
10
87.6743
20
-234.092
11
87.96
21
-234.234
0
LINE
8
BLACK
6
CONTINUOUS
10
87.96
20
-234.234
11
88.1029
21
-234.377
0
LINE
8
BLACK
6
CONTINUOUS
10
88.1029
20
-234.377
11
88.2457
21
-234.663
0
LINE
8
BLACK
6
CONTINUOUS
10
88.2457
20
-234.663
11
88.3886
21
-235.234
0
LINE
8
BLACK
6
CONTINUOUS
10
88.3886
20
-235.234
11
88.3886
21
-235.949
0
LINE
8
BLACK
6
CONTINUOUS
10
88.3886
20
-235.949
11
88.2457
21
-236.52
0
LINE
8
BLACK
6
CONTINUOUS
10
88.2457
20
-236.52
11
88.1029
21
-236.806
0
LINE
8
BLACK
6
CONTINUOUS
10
88.1029
20
-236.806
11
87.96
21
-236.949
0
LINE
8
BLACK
6
CONTINUOUS
10
87.96
20
-236.949
11
87.6743
21
-237.092
0
LINE
8
BLACK
6
CONTINUOUS
10
87.6743
20
-237.092
11
87.3886
21
-237.092
0
LINE
8
BLACK
6
CONTINUOUS
10
87.3886
20
-237.092
11
87.1029
21
-236.949
0
LINE
8
BLACK
6
CONTINUOUS
10
87.1029
20
-236.949
11
86.96
21
-236.806
0
LINE
8
BLACK
6
CONTINUOUS
10
86.96
20
-236.806
11
86.8171
21
-236.52
0
LINE
8
BLACK
6
CONTINUOUS
10
86.8171
20
-236.52
11
86.6743
21
-235.949
0
LINE
8
BLACK
6
CONTINUOUS
10
86.6743
20
-235.949
11
86.6743
21
-235.234
0
LINE
8
BLACK
6
CONTINUOUS
10
86.6743
20
-235.234
11
86.8171
21
-234.663
0
LINE
8
BLACK
6
CONTINUOUS
10
86.8171
20
-234.663
11
86.96
21
-234.377
0
LINE
8
BLACK
6
CONTINUOUS
10
86.96
20
-234.377
11
87.1029
21
-234.234
0
LINE
8
BLACK
6
CONTINUOUS
10
87.1029
20
-234.234
11
87.3886
21
-234.092
0
LINE
8
BLACK
6
CONTINUOUS
10
89.6743
20
-237.092
11
89.6743
21
-235.092
0
LINE
8
BLACK
6
CONTINUOUS
10
89.6743
20
-235.377
11
89.8171
21
-235.234
0
LINE
8
BLACK
6
CONTINUOUS
10
89.8171
20
-235.234
11
90.1029
21
-235.092
0
LINE
8
BLACK
6
CONTINUOUS
10
90.1029
20
-235.092
11
90.5314
21
-235.092
0
LINE
8
BLACK
6
CONTINUOUS
10
90.5314
20
-235.092
11
90.8171
21
-235.234
0
LINE
8
BLACK
6
CONTINUOUS
10
90.8171
20
-235.234
11
90.96
21
-235.52
0
LINE
8
BLACK
6
CONTINUOUS
10
90.96
20
-235.52
11
90.96
21
-237.092
0
LINE
8
BLACK
6
CONTINUOUS
10
90.96
20
-235.52
11
91.1029
21
-235.234
0
LINE
8
BLACK
6
CONTINUOUS
10
91.1029
20
-235.234
11
91.3886
21
-235.092
0
LINE
8
BLACK
6
CONTINUOUS
10
91.3886
20
-235.092
11
91.8171
21
-235.092
0
LINE
8
BLACK
6
CONTINUOUS
10
91.8171
20
-235.092
11
92.1029
21
-235.234
0
LINE
8
BLACK
6
CONTINUOUS
10
92.1029
20
-235.234
11
92.2457
21
-235.52
0
LINE
8
BLACK
6
CONTINUOUS
10
92.2457
20
-235.52
11
92.2457
21
-237.092
0
LINE
8
BLACK
6
CONTINUOUS
10
93.6743
20
-237.092
11
93.6743
21
-235.092
0
LINE
8
BLACK
6
CONTINUOUS
10
93.6743
20
-235.377
11
93.8171
21
-235.234
0
LINE
8
BLACK
6
CONTINUOUS
10
93.8171
20
-235.234
11
94.1029
21
-235.092
0
LINE
8
BLACK
6
CONTINUOUS
10
94.1029
20
-235.092
11
94.5314
21
-235.092
0
LINE
8
BLACK
6
CONTINUOUS
10
94.5314
20
-235.092
11
94.8171
21
-235.234
0
LINE
8
BLACK
6
CONTINUOUS
10
94.8171
20
-235.234
11
94.96
21
-235.52
0
LINE
8
BLACK
6
CONTINUOUS
10
94.96
20
-235.52
11
94.96
21
-237.092
0
LINE
8
BLACK
6
CONTINUOUS
10
94.96
20
-235.52
11
95.1029
21
-235.234
0
LINE
8
BLACK
6
CONTINUOUS
10
95.1029
20
-235.234
11
95.3886
21
-235.092
0
LINE
8
BLACK
6
CONTINUOUS
10
95.3886
20
-235.092
11
95.8171
21
-235.092
0
LINE
8
BLACK
6
CONTINUOUS
10
95.8171
20
-235.092
11
96.1029
21
-235.234
0
LINE
8
BLACK
6
CONTINUOUS
10
96.1029
20
-235.234
11
96.2457
21
-235.52
0
LINE
8
BLACK
6
CONTINUOUS
10
96.2457
20
-235.52
11
96.2457
21
-237.092
0
LINE
8
BLACK
6
CONTINUOUS
10
102.103
20
-233.949
11
99.5314
21
-237.806
0
LINE
8
BLACK
6
CONTINUOUS
10
105.96
20
-234.092
11
106.246
21
-234.092
0
LINE
8
BLACK
6
CONTINUOUS
10
106.246
20
-234.092
11
106.531
21
-234.234
0
LINE
8
BLACK
6
CONTINUOUS
10
106.531
20
-234.234
11
106.674
21
-234.377
0
LINE
8
BLACK
6
CONTINUOUS
10
106.674
20
-234.377
11
106.817
21
-234.663
0
LINE
8
BLACK
6
CONTINUOUS
10
106.817
20
-234.663
11
106.96
21
-235.234
0
LINE
8
BLACK
6
CONTINUOUS
10
106.96
20
-235.234
11
106.96
21
-235.949
0
LINE
8
BLACK
6
CONTINUOUS
10
106.96
20
-235.949
11
106.817
21
-236.52
0
LINE
8
BLACK
6
CONTINUOUS
10
106.817
20
-236.52
11
106.674
21
-236.806
0
LINE
8
BLACK
6
CONTINUOUS
10
106.674
20
-236.806
11
106.531
21
-236.949
0
LINE
8
BLACK
6
CONTINUOUS
10
106.531
20
-236.949
11
106.246
21
-237.092
0
LINE
8
BLACK
6
CONTINUOUS
10
106.246
20
-237.092
11
105.96
21
-237.092
0
LINE
8
BLACK
6
CONTINUOUS
10
105.96
20
-237.092
11
105.674
21
-236.949
0
LINE
8
BLACK
6
CONTINUOUS
10
105.674
20
-236.949
11
105.531
21
-236.806
0
LINE
8
BLACK
6
CONTINUOUS
10
105.531
20
-236.806
11
105.389
21
-236.52
0
LINE
8
BLACK
6
CONTINUOUS
10
105.389
20
-236.52
11
105.246
21
-235.949
0
LINE
8
BLACK
6
CONTINUOUS
10
105.246
20
-235.949
11
105.246
21
-235.234
0
LINE
8
BLACK
6
CONTINUOUS
10
105.246
20
-235.234
11
105.389
21
-234.663
0
LINE
8
BLACK
6
CONTINUOUS
10
105.389
20
-234.663
11
105.531
21
-234.377
0
LINE
8
BLACK
6
CONTINUOUS
10
105.531
20
-234.377
11
105.674
21
-234.234
0
LINE
8
BLACK
6
CONTINUOUS
10
105.674
20
-234.234
11
105.96
21
-234.092
0
LINE
8
BLACK
6
CONTINUOUS
10
108.246
20
-236.806
11
108.389
21
-236.949
0
LINE
8
BLACK
6
CONTINUOUS
10
108.389
20
-236.949
11
108.246
21
-237.092
0
LINE
8
BLACK
6
CONTINUOUS
10
108.246
20
-237.092
11
108.103
21
-236.949
0
LINE
8
BLACK
6
CONTINUOUS
10
108.103
20
-236.949
11
108.246
21
-236.806
0
LINE
8
BLACK
6
CONTINUOUS
10
108.246
20
-236.806
11
108.246
21
-237.092
0
LINE
8
BLACK
6
CONTINUOUS
10
110.246
20
-234.092
11
110.531
21
-234.092
0
LINE
8
BLACK
6
CONTINUOUS
10
110.531
20
-234.092
11
110.817
21
-234.234
0
LINE
8
BLACK
6
CONTINUOUS
10
110.817
20
-234.234
11
110.96
21
-234.377
0
LINE
8
BLACK
6
CONTINUOUS
10
110.96
20
-234.377
11
111.103
21
-234.663
0
LINE
8
BLACK
6
CONTINUOUS
10
111.103
20
-234.663
11
111.246
21
-235.234
0
LINE
8
BLACK
6
CONTINUOUS
10
111.246
20
-235.234
11
111.246
21
-235.949
0
LINE
8
BLACK
6
CONTINUOUS
10
111.246
20
-235.949
11
111.103
21
-236.52
0
LINE
8
BLACK
6
CONTINUOUS
10
111.103
20
-236.52
11
110.96
21
-236.806
0
LINE
8
BLACK
6
CONTINUOUS
10
110.96
20
-236.806
11
110.817
21
-236.949
0
LINE
8
BLACK
6
CONTINUOUS
10
110.817
20
-236.949
11
110.531
21
-237.092
0
LINE
8
BLACK
6
CONTINUOUS
10
110.531
20
-237.092
11
110.246
21
-237.092
0
LINE
8
BLACK
6
CONTINUOUS
10
110.246
20
-237.092
11
109.96
21
-236.949
0
LINE
8
BLACK
6
CONTINUOUS
10
109.96
20
-236.949
11
109.817
21
-236.806
0
LINE
8
BLACK
6
CONTINUOUS
10
109.817
20
-236.806
11
109.674
21
-236.52
0
LINE
8
BLACK
6
CONTINUOUS
10
109.674
20
-236.52
11
109.531
21
-235.949
0
LINE
8
BLACK
6
CONTINUOUS
10
109.531
20
-235.949
11
109.531
21
-235.234
0
LINE
8
BLACK
6
CONTINUOUS
10
109.531
20
-235.234
11
109.674
21
-234.663
0
LINE
8
BLACK
6
CONTINUOUS
10
109.674
20
-234.663
11
109.817
21
-234.377
0
LINE
8
BLACK
6
CONTINUOUS
10
109.817
20
-234.377
11
109.96
21
-234.234
0
LINE
8
BLACK
6
CONTINUOUS
10
109.96
20
-234.234
11
110.246
21
-234.092
0
LINE
8
BLACK
6
CONTINUOUS
10
114.103
20
-237.092
11
112.389
21
-237.092
0
LINE
8
BLACK
6
CONTINUOUS
10
113.246
20
-237.092
11
113.246
21
-234.092
0
LINE
8
BLACK
6
CONTINUOUS
10
113.246
20
-234.092
11
112.96
21
-234.52
0
LINE
8
BLACK
6
CONTINUOUS
10
112.96
20
-234.52
11
112.674
21
-234.806
0
LINE
8
BLACK
6
CONTINUOUS
10
112.674
20
-234.806
11
112.389
21
-234.949
0
LINE
8
BLACK
6
CONTINUOUS
10
116.674
20
-234.092
11
116.103
21
-234.092
0
LINE
8
BLACK
6
CONTINUOUS
10
116.103
20
-234.092
11
115.817
21
-234.234
0
LINE
8
BLACK
6
CONTINUOUS
10
115.817
20
-234.234
11
115.674
21
-234.377
0
LINE
8
BLACK
6
CONTINUOUS
10
115.674
20
-234.377
11
115.389
21
-234.806
0
LINE
8
BLACK
6
CONTINUOUS
10
115.389
20
-234.806
11
115.246
21
-235.377
0
LINE
8
BLACK
6
CONTINUOUS
10
115.246
20
-235.377
11
115.246
21
-236.52
0
LINE
8
BLACK
6
CONTINUOUS
10
115.246
20
-236.52
11
115.389
21
-236.806
0
LINE
8
BLACK
6
CONTINUOUS
10
115.389
20
-236.806
11
115.531
21
-236.949
0
LINE
8
BLACK
6
CONTINUOUS
10
115.531
20
-236.949
11
115.817
21
-237.092
0
LINE
8
BLACK
6
CONTINUOUS
10
115.817
20
-237.092
11
116.389
21
-237.092
0
LINE
8
BLACK
6
CONTINUOUS
10
116.389
20
-237.092
11
116.674
21
-236.949
0
LINE
8
BLACK
6
CONTINUOUS
10
116.674
20
-236.949
11
116.817
21
-236.806
0
LINE
8
BLACK
6
CONTINUOUS
10
116.817
20
-236.806
11
116.96
21
-236.52
0
LINE
8
BLACK
6
CONTINUOUS
10
116.96
20
-236.52
11
116.96
21
-235.806
0
LINE
8
BLACK
6
CONTINUOUS
10
116.96
20
-235.806
11
116.817
21
-235.52
0
LINE
8
BLACK
6
CONTINUOUS
10
116.817
20
-235.52
11
116.674
21
-235.377
0
LINE
8
BLACK
6
CONTINUOUS
10
116.674
20
-235.377
11
116.389
21
-235.234
0
LINE
8
BLACK
6
CONTINUOUS
10
116.389
20
-235.234
11
115.817
21
-235.234
0
LINE
8
BLACK
6
CONTINUOUS
10
115.817
20
-235.234
11
115.531
21
-235.377
0
LINE
8
BLACK
6
CONTINUOUS
10
115.531
20
-235.377
11
115.389
21
-235.52
0
LINE
8
BLACK
6
CONTINUOUS
10
115.389
20
-235.52
11
115.246
21
-235.806
0
LINE
8
BLACK
6
CONTINUOUS
10
118.103
20
-234.092
11
118.103
21
-234.663
0
LINE
8
BLACK
6
CONTINUOUS
10
119.246
20
-234.092
11
119.246
21
-234.663
0
LINE
8
BLACK
6
CONTINUOUS
10
123.674
20
-238.234
11
123.531
21
-238.092
0
LINE
8
BLACK
6
CONTINUOUS
10
123.531
20
-238.092
11
123.246
21
-237.663
0
LINE
8
BLACK
6
CONTINUOUS
10
123.246
20
-237.663
11
123.103
21
-237.377
0
LINE
8
BLACK
6
CONTINUOUS
10
123.103
20
-237.377
11
122.96
21
-236.949
0
LINE
8
BLACK
6
CONTINUOUS
10
122.96
20
-236.949
11
122.817
21
-236.234
0
LINE
8
BLACK
6
CONTINUOUS
10
122.817
20
-236.234
11
122.817
21
-235.663
0
LINE
8
BLACK
6
CONTINUOUS
10
122.817
20
-235.663
11
122.96
21
-234.949
0
LINE
8
BLACK
6
CONTINUOUS
10
122.96
20
-234.949
11
123.103
21
-234.52
0
LINE
8
BLACK
6
CONTINUOUS
10
123.103
20
-234.52
11
123.246
21
-234.234
0
LINE
8
BLACK
6
CONTINUOUS
10
123.246
20
-234.234
11
123.531
21
-233.806
0
LINE
8
BLACK
6
CONTINUOUS
10
123.531
20
-233.806
11
123.674
21
-233.663
0
LINE
8
BLACK
6
CONTINUOUS
10
124.531
20
-234.092
11
126.389
21
-234.092
0
LINE
8
BLACK
6
CONTINUOUS
10
126.389
20
-234.092
11
125.389
21
-235.234
0
LINE
8
BLACK
6
CONTINUOUS
10
125.389
20
-235.234
11
125.817
21
-235.234
0
LINE
8
BLACK
6
CONTINUOUS
10
125.817
20
-235.234
11
126.103
21
-235.377
0
LINE
8
BLACK
6
CONTINUOUS
10
126.103
20
-235.377
11
126.246
21
-235.52
0
LINE
8
BLACK
6
CONTINUOUS
10
126.246
20
-235.52
11
126.389
21
-235.806
0
LINE
8
BLACK
6
CONTINUOUS
10
126.389
20
-235.806
11
126.389
21
-236.52
0
LINE
8
BLACK
6
CONTINUOUS
10
126.389
20
-236.52
11
126.246
21
-236.806
0
LINE
8
BLACK
6
CONTINUOUS
10
126.246
20
-236.806
11
126.103
21
-236.949
0
LINE
8
BLACK
6
CONTINUOUS
10
126.103
20
-236.949
11
125.817
21
-237.092
0
LINE
8
BLACK
6
CONTINUOUS
10
125.817
20
-237.092
11
124.96
21
-237.092
0
LINE
8
BLACK
6
CONTINUOUS
10
124.96
20
-237.092
11
124.674
21
-236.949
0
LINE
8
BLACK
6
CONTINUOUS
10
124.674
20
-236.949
11
124.531
21
-236.806
0
LINE
8
BLACK
6
CONTINUOUS
10
128.96
20
-235.092
11
128.96
21
-237.092
0
LINE
8
BLACK
6
CONTINUOUS
10
128.246
20
-233.949
11
127.531
21
-236.092
0
LINE
8
BLACK
6
CONTINUOUS
10
127.531
20
-236.092
11
129.389
21
-236.092
0
LINE
8
BLACK
6
CONTINUOUS
10
130.246
20
-234.092
11
132.103
21
-234.092
0
LINE
8
BLACK
6
CONTINUOUS
10
132.103
20
-234.092
11
131.103
21
-235.234
0
LINE
8
BLACK
6
CONTINUOUS
10
131.103
20
-235.234
11
131.531
21
-235.234
0
LINE
8
BLACK
6
CONTINUOUS
10
131.531
20
-235.234
11
131.817
21
-235.377
0
LINE
8
BLACK
6
CONTINUOUS
10
131.817
20
-235.377
11
131.96
21
-235.52
0
LINE
8
BLACK
6
CONTINUOUS
10
131.96
20
-235.52
11
132.103
21
-235.806
0
LINE
8
BLACK
6
CONTINUOUS
10
132.103
20
-235.806
11
132.103
21
-236.52
0
LINE
8
BLACK
6
CONTINUOUS
10
132.103
20
-236.52
11
131.96
21
-236.806
0
LINE
8
BLACK
6
CONTINUOUS
10
131.96
20
-236.806
11
131.817
21
-236.949
0
LINE
8
BLACK
6
CONTINUOUS
10
131.817
20
-236.949
11
131.531
21
-237.092
0
LINE
8
BLACK
6
CONTINUOUS
10
131.531
20
-237.092
11
130.674
21
-237.092
0
LINE
8
BLACK
6
CONTINUOUS
10
130.674
20
-237.092
11
130.389
21
-236.949
0
LINE
8
BLACK
6
CONTINUOUS
10
130.389
20
-236.949
11
130.246
21
-236.806
0
LINE
8
BLACK
6
CONTINUOUS
10
135.674
20
-237.092
11
135.674
21
-234.092
0
LINE
8
BLACK
6
CONTINUOUS
10
136.96
20
-237.092
11
136.96
21
-235.52
0
LINE
8
BLACK
6
CONTINUOUS
10
136.96
20
-235.52
11
136.817
21
-235.234
0
LINE
8
BLACK
6
CONTINUOUS
10
136.817
20
-235.234
11
136.531
21
-235.092
0
LINE
8
BLACK
6
CONTINUOUS
10
136.531
20
-235.092
11
136.103
21
-235.092
0
LINE
8
BLACK
6
CONTINUOUS
10
136.103
20
-235.092
11
135.817
21
-235.234
0
LINE
8
BLACK
6
CONTINUOUS
10
135.817
20
-235.234
11
135.674
21
-235.377
0
LINE
8
BLACK
6
CONTINUOUS
10
138.817
20
-237.092
11
138.531
21
-236.949
0
LINE
8
BLACK
6
CONTINUOUS
10
138.531
20
-236.949
11
138.389
21
-236.806
0
LINE
8
BLACK
6
CONTINUOUS
10
138.389
20
-236.806
11
138.246
21
-236.52
0
LINE
8
BLACK
6
CONTINUOUS
10
138.246
20
-236.52
11
138.246
21
-235.663
0
LINE
8
BLACK
6
CONTINUOUS
10
138.246
20
-235.663
11
138.389
21
-235.377
0
LINE
8
BLACK
6
CONTINUOUS
10
138.389
20
-235.377
11
138.531
21
-235.234
0
LINE
8
BLACK
6
CONTINUOUS
10
138.531
20
-235.234
11
138.817
21
-235.092
0
LINE
8
BLACK
6
CONTINUOUS
10
138.817
20
-235.092
11
139.246
21
-235.092
0
LINE
8
BLACK
6
CONTINUOUS
10
139.246
20
-235.092
11
139.531
21
-235.234
0
LINE
8
BLACK
6
CONTINUOUS
10
139.531
20
-235.234
11
139.674
21
-235.377
0
LINE
8
BLACK
6
CONTINUOUS
10
139.674
20
-235.377
11
139.817
21
-235.663
0
LINE
8
BLACK
6
CONTINUOUS
10
139.817
20
-235.663
11
139.817
21
-236.52
0
LINE
8
BLACK
6
CONTINUOUS
10
139.817
20
-236.52
11
139.674
21
-236.806
0
LINE
8
BLACK
6
CONTINUOUS
10
139.674
20
-236.806
11
139.531
21
-236.949
0
LINE
8
BLACK
6
CONTINUOUS
10
139.531
20
-236.949
11
139.246
21
-237.092
0
LINE
8
BLACK
6
CONTINUOUS
10
139.246
20
-237.092
11
138.817
21
-237.092
0
LINE
8
BLACK
6
CONTINUOUS
10
141.531
20
-237.092
11
141.246
21
-236.949
0
LINE
8
BLACK
6
CONTINUOUS
10
141.246
20
-236.949
11
141.103
21
-236.663
0
LINE
8
BLACK
6
CONTINUOUS
10
141.103
20
-236.663
11
141.103
21
-234.092
0
LINE
8
BLACK
6
CONTINUOUS
10
143.817
20
-236.949
11
143.531
21
-237.092
0
LINE
8
BLACK
6
CONTINUOUS
10
143.531
20
-237.092
11
142.96
21
-237.092
0
LINE
8
BLACK
6
CONTINUOUS
10
142.96
20
-237.092
11
142.674
21
-236.949
0
LINE
8
BLACK
6
CONTINUOUS
10
142.674
20
-236.949
11
142.531
21
-236.663
0
LINE
8
BLACK
6
CONTINUOUS
10
142.531
20
-236.663
11
142.531
21
-235.52
0
LINE
8
BLACK
6
CONTINUOUS
10
142.531
20
-235.52
11
142.674
21
-235.234
0
LINE
8
BLACK
6
CONTINUOUS
10
142.674
20
-235.234
11
142.96
21
-235.092
0
LINE
8
BLACK
6
CONTINUOUS
10
142.96
20
-235.092
11
143.531
21
-235.092
0
LINE
8
BLACK
6
CONTINUOUS
10
143.531
20
-235.092
11
143.817
21
-235.234
0
LINE
8
BLACK
6
CONTINUOUS
10
143.817
20
-235.234
11
143.96
21
-235.52
0
LINE
8
BLACK
6
CONTINUOUS
10
143.96
20
-235.52
11
143.96
21
-235.806
0
LINE
8
BLACK
6
CONTINUOUS
10
143.96
20
-235.806
11
142.531
21
-236.092
0
LINE
8
BLACK
6
CONTINUOUS
10
145.103
20
-236.949
11
145.389
21
-237.092
0
LINE
8
BLACK
6
CONTINUOUS
10
145.389
20
-237.092
11
145.96
21
-237.092
0
LINE
8
BLACK
6
CONTINUOUS
10
145.96
20
-237.092
11
146.246
21
-236.949
0
LINE
8
BLACK
6
CONTINUOUS
10
146.246
20
-236.949
11
146.389
21
-236.663
0
LINE
8
BLACK
6
CONTINUOUS
10
146.389
20
-236.663
11
146.389
21
-236.52
0
LINE
8
BLACK
6
CONTINUOUS
10
146.389
20
-236.52
11
146.246
21
-236.234
0
LINE
8
BLACK
6
CONTINUOUS
10
146.246
20
-236.234
11
145.96
21
-236.092
0
LINE
8
BLACK
6
CONTINUOUS
10
145.96
20
-236.092
11
145.531
21
-236.092
0
LINE
8
BLACK
6
CONTINUOUS
10
145.531
20
-236.092
11
145.246
21
-235.949
0
LINE
8
BLACK
6
CONTINUOUS
10
145.246
20
-235.949
11
145.103
21
-235.663
0
LINE
8
BLACK
6
CONTINUOUS
10
145.103
20
-235.663
11
145.103
21
-235.52
0
LINE
8
BLACK
6
CONTINUOUS
10
145.103
20
-235.52
11
145.246
21
-235.234
0
LINE
8
BLACK
6
CONTINUOUS
10
145.246
20
-235.234
11
145.531
21
-235.092
0
LINE
8
BLACK
6
CONTINUOUS
10
145.531
20
-235.092
11
145.96
21
-235.092
0
LINE
8
BLACK
6
CONTINUOUS
10
145.96
20
-235.092
11
146.246
21
-235.234
0
LINE
8
BLACK
6
CONTINUOUS
10
147.389
20
-238.234
11
147.531
21
-238.092
0
LINE
8
BLACK
6
CONTINUOUS
10
147.531
20
-238.092
11
147.817
21
-237.663
0
LINE
8
BLACK
6
CONTINUOUS
10
147.817
20
-237.663
11
147.96
21
-237.377
0
LINE
8
BLACK
6
CONTINUOUS
10
147.96
20
-237.377
11
148.103
21
-236.949
0
LINE
8
BLACK
6
CONTINUOUS
10
148.103
20
-236.949
11
148.246
21
-236.234
0
LINE
8
BLACK
6
CONTINUOUS
10
148.246
20
-236.234
11
148.246
21
-235.663
0
LINE
8
BLACK
6
CONTINUOUS
10
148.246
20
-235.663
11
148.103
21
-234.949
0
LINE
8
BLACK
6
CONTINUOUS
10
148.103
20
-234.949
11
147.96
21
-234.52
0
LINE
8
BLACK
6
CONTINUOUS
10
147.96
20
-234.52
11
147.817
21
-234.234
0
LINE
8
BLACK
6
CONTINUOUS
10
147.817
20
-234.234
11
147.531
21
-233.806
0
LINE
8
BLACK
6
CONTINUOUS
10
147.531
20
-233.806
11
147.389
21
-233.663
0
CIRCLE
8
BLACK
10
76.51
20
-239.694
40
0.3
0
LINE
8
BLACK
6
CONTINUOUS
10
80.2457
20
-238.052
11
80.5314
21
-238.052
0
LINE
8
BLACK
6
CONTINUOUS
10
80.5314
20
-238.052
11
80.8171
21
-238.194
0
LINE
8
BLACK
6
CONTINUOUS
10
80.8171
20
-238.194
11
80.96
21
-238.337
0
LINE
8
BLACK
6
CONTINUOUS
10
80.96
20
-238.337
11
81.1029
21
-238.623
0
LINE
8
BLACK
6
CONTINUOUS
10
81.1029
20
-238.623
11
81.2457
21
-239.194
0
LINE
8
BLACK
6
CONTINUOUS
10
81.2457
20
-239.194
11
81.2457
21
-239.909
0
LINE
8
BLACK
6
CONTINUOUS
10
81.2457
20
-239.909
11
81.1029
21
-240.48
0
LINE
8
BLACK
6
CONTINUOUS
10
81.1029
20
-240.48
11
80.96
21
-240.766
0
LINE
8
BLACK
6
CONTINUOUS
10
80.96
20
-240.766
11
80.8171
21
-240.909
0
LINE
8
BLACK
6
CONTINUOUS
10
80.8171
20
-240.909
11
80.5314
21
-241.052
0
LINE
8
BLACK
6
CONTINUOUS
10
80.5314
20
-241.052
11
80.2457
21
-241.052
0
LINE
8
BLACK
6
CONTINUOUS
10
80.2457
20
-241.052
11
79.96
21
-240.909
0
LINE
8
BLACK
6
CONTINUOUS
10
79.96
20
-240.909
11
79.8171
21
-240.766
0
LINE
8
BLACK
6
CONTINUOUS
10
79.8171
20
-240.766
11
79.6743
21
-240.48
0
LINE
8
BLACK
6
CONTINUOUS
10
79.6743
20
-240.48
11
79.5314
21
-239.909
0
LINE
8
BLACK
6
CONTINUOUS
10
79.5314
20
-239.909
11
79.5314
21
-239.194
0
LINE
8
BLACK
6
CONTINUOUS
10
79.5314
20
-239.194
11
79.6743
21
-238.623
0
LINE
8
BLACK
6
CONTINUOUS
10
79.6743
20
-238.623
11
79.8171
21
-238.337
0
LINE
8
BLACK
6
CONTINUOUS
10
79.8171
20
-238.337
11
79.96
21
-238.194
0
LINE
8
BLACK
6
CONTINUOUS
10
79.96
20
-238.194
11
80.2457
21
-238.052
0
LINE
8
BLACK
6
CONTINUOUS
10
82.5314
20
-240.766
11
82.6743
21
-240.909
0
LINE
8
BLACK
6
CONTINUOUS
10
82.6743
20
-240.909
11
82.5314
21
-241.052
0
LINE
8
BLACK
6
CONTINUOUS
10
82.5314
20
-241.052
11
82.3886
21
-240.909
0
LINE
8
BLACK
6
CONTINUOUS
10
82.3886
20
-240.909
11
82.5314
21
-240.766
0
LINE
8
BLACK
6
CONTINUOUS
10
82.5314
20
-240.766
11
82.5314
21
-241.052
0
LINE
8
BLACK
6
CONTINUOUS
10
85.2457
20
-238.052
11
84.6743
21
-238.052
0
LINE
8
BLACK
6
CONTINUOUS
10
84.6743
20
-238.052
11
84.3886
21
-238.194
0
LINE
8
BLACK
6
CONTINUOUS
10
84.3886
20
-238.194
11
84.2457
21
-238.337
0
LINE
8
BLACK
6
CONTINUOUS
10
84.2457
20
-238.337
11
83.96
21
-238.766
0
LINE
8
BLACK
6
CONTINUOUS
10
83.96
20
-238.766
11
83.8171
21
-239.337
0
LINE
8
BLACK
6
CONTINUOUS
10
83.8171
20
-239.337
11
83.8171
21
-240.48
0
LINE
8
BLACK
6
CONTINUOUS
10
83.8171
20
-240.48
11
83.96
21
-240.766
0
LINE
8
BLACK
6
CONTINUOUS
10
83.96
20
-240.766
11
84.1029
21
-240.909
0
LINE
8
BLACK
6
CONTINUOUS
10
84.1029
20
-240.909
11
84.3886
21
-241.052
0
LINE
8
BLACK
6
CONTINUOUS
10
84.3886
20
-241.052
11
84.96
21
-241.052
0
LINE
8
BLACK
6
CONTINUOUS
10
84.96
20
-241.052
11
85.2457
21
-240.909
0
LINE
8
BLACK
6
CONTINUOUS
10
85.2457
20
-240.909
11
85.3886
21
-240.766
0
LINE
8
BLACK
6
CONTINUOUS
10
85.3886
20
-240.766
11
85.5314
21
-240.48
0
LINE
8
BLACK
6
CONTINUOUS
10
85.5314
20
-240.48
11
85.5314
21
-239.766
0
LINE
8
BLACK
6
CONTINUOUS
10
85.5314
20
-239.766
11
85.3886
21
-239.48
0
LINE
8
BLACK
6
CONTINUOUS
10
85.3886
20
-239.48
11
85.2457
21
-239.337
0
LINE
8
BLACK
6
CONTINUOUS
10
85.2457
20
-239.337
11
84.96
21
-239.194
0
LINE
8
BLACK
6
CONTINUOUS
10
84.96
20
-239.194
11
84.3886
21
-239.194
0
LINE
8
BLACK
6
CONTINUOUS
10
84.3886
20
-239.194
11
84.1029
21
-239.337
0
LINE
8
BLACK
6
CONTINUOUS
10
84.1029
20
-239.337
11
83.96
21
-239.48
0
LINE
8
BLACK
6
CONTINUOUS
10
83.96
20
-239.48
11
83.8171
21
-239.766
0
LINE
8
BLACK
6
CONTINUOUS
10
87.3886
20
-238.052
11
87.6743
21
-238.052
0
LINE
8
BLACK
6
CONTINUOUS
10
87.6743
20
-238.052
11
87.96
21
-238.194
0
LINE
8
BLACK
6
CONTINUOUS
10
87.96
20
-238.194
11
88.1029
21
-238.337
0
LINE
8
BLACK
6
CONTINUOUS
10
88.1029
20
-238.337
11
88.2457
21
-238.623
0
LINE
8
BLACK
6
CONTINUOUS
10
88.2457
20
-238.623
11
88.3886
21
-239.194
0
LINE
8
BLACK
6
CONTINUOUS
10
88.3886
20
-239.194
11
88.3886
21
-239.909
0
LINE
8
BLACK
6
CONTINUOUS
10
88.3886
20
-239.909
11
88.2457
21
-240.48
0
LINE
8
BLACK
6
CONTINUOUS
10
88.2457
20
-240.48
11
88.1029
21
-240.766
0
LINE
8
BLACK
6
CONTINUOUS
10
88.1029
20
-240.766
11
87.96
21
-240.909
0
LINE
8
BLACK
6
CONTINUOUS
10
87.96
20
-240.909
11
87.6743
21
-241.052
0
LINE
8
BLACK
6
CONTINUOUS
10
87.6743
20
-241.052
11
87.3886
21
-241.052
0
LINE
8
BLACK
6
CONTINUOUS
10
87.3886
20
-241.052
11
87.1029
21
-240.909
0
LINE
8
BLACK
6
CONTINUOUS
10
87.1029
20
-240.909
11
86.96
21
-240.766
0
LINE
8
BLACK
6
CONTINUOUS
10
86.96
20
-240.766
11
86.8171
21
-240.48
0
LINE
8
BLACK
6
CONTINUOUS
10
86.8171
20
-240.48
11
86.6743
21
-239.909
0
LINE
8
BLACK
6
CONTINUOUS
10
86.6743
20
-239.909
11
86.6743
21
-239.194
0
LINE
8
BLACK
6
CONTINUOUS
10
86.6743
20
-239.194
11
86.8171
21
-238.623
0
LINE
8
BLACK
6
CONTINUOUS
10
86.8171
20
-238.623
11
86.96
21
-238.337
0
LINE
8
BLACK
6
CONTINUOUS
10
86.96
20
-238.337
11
87.1029
21
-238.194
0
LINE
8
BLACK
6
CONTINUOUS
10
87.1029
20
-238.194
11
87.3886
21
-238.052
0
LINE
8
BLACK
6
CONTINUOUS
10
89.6743
20
-241.052
11
89.6743
21
-239.052
0
LINE
8
BLACK
6
CONTINUOUS
10
89.6743
20
-239.337
11
89.8171
21
-239.194
0
LINE
8
BLACK
6
CONTINUOUS
10
89.8171
20
-239.194
11
90.1029
21
-239.052
0
LINE
8
BLACK
6
CONTINUOUS
10
90.1029
20
-239.052
11
90.5314
21
-239.052
0
LINE
8
BLACK
6
CONTINUOUS
10
90.5314
20
-239.052
11
90.8171
21
-239.194
0
LINE
8
BLACK
6
CONTINUOUS
10
90.8171
20
-239.194
11
90.96
21
-239.48
0
LINE
8
BLACK
6
CONTINUOUS
10
90.96
20
-239.48
11
90.96
21
-241.052
0
LINE
8
BLACK
6
CONTINUOUS
10
90.96
20
-239.48
11
91.1029
21
-239.194
0
LINE
8
BLACK
6
CONTINUOUS
10
91.1029
20
-239.194
11
91.3886
21
-239.052
0
LINE
8
BLACK
6
CONTINUOUS
10
91.3886
20
-239.052
11
91.8171
21
-239.052
0
LINE
8
BLACK
6
CONTINUOUS
10
91.8171
20
-239.052
11
92.1029
21
-239.194
0
LINE
8
BLACK
6
CONTINUOUS
10
92.1029
20
-239.194
11
92.2457
21
-239.48
0
LINE
8
BLACK
6
CONTINUOUS
10
92.2457
20
-239.48
11
92.2457
21
-241.052
0
LINE
8
BLACK
6
CONTINUOUS
10
93.6743
20
-241.052
11
93.6743
21
-239.052
0
LINE
8
BLACK
6
CONTINUOUS
10
93.6743
20
-239.337
11
93.8171
21
-239.194
0
LINE
8
BLACK
6
CONTINUOUS
10
93.8171
20
-239.194
11
94.1029
21
-239.052
0
LINE
8
BLACK
6
CONTINUOUS
10
94.1029
20
-239.052
11
94.5314
21
-239.052
0
LINE
8
BLACK
6
CONTINUOUS
10
94.5314
20
-239.052
11
94.8171
21
-239.194
0
LINE
8
BLACK
6
CONTINUOUS
10
94.8171
20
-239.194
11
94.96
21
-239.48
0
LINE
8
BLACK
6
CONTINUOUS
10
94.96
20
-239.48
11
94.96
21
-241.052
0
LINE
8
BLACK
6
CONTINUOUS
10
94.96
20
-239.48
11
95.1029
21
-239.194
0
LINE
8
BLACK
6
CONTINUOUS
10
95.1029
20
-239.194
11
95.3886
21
-239.052
0
LINE
8
BLACK
6
CONTINUOUS
10
95.3886
20
-239.052
11
95.8171
21
-239.052
0
LINE
8
BLACK
6
CONTINUOUS
10
95.8171
20
-239.052
11
96.1029
21
-239.194
0
LINE
8
BLACK
6
CONTINUOUS
10
96.1029
20
-239.194
11
96.2457
21
-239.48
0
LINE
8
BLACK
6
CONTINUOUS
10
96.2457
20
-239.48
11
96.2457
21
-241.052
0
LINE
8
BLACK
6
CONTINUOUS
10
102.103
20
-237.909
11
99.5314
21
-241.766
0
LINE
8
BLACK
6
CONTINUOUS
10
105.96
20
-238.052
11
106.246
21
-238.052
0
LINE
8
BLACK
6
CONTINUOUS
10
106.246
20
-238.052
11
106.531
21
-238.194
0
LINE
8
BLACK
6
CONTINUOUS
10
106.531
20
-238.194
11
106.674
21
-238.337
0
LINE
8
BLACK
6
CONTINUOUS
10
106.674
20
-238.337
11
106.817
21
-238.623
0
LINE
8
BLACK
6
CONTINUOUS
10
106.817
20
-238.623
11
106.96
21
-239.194
0
LINE
8
BLACK
6
CONTINUOUS
10
106.96
20
-239.194
11
106.96
21
-239.909
0
LINE
8
BLACK
6
CONTINUOUS
10
106.96
20
-239.909
11
106.817
21
-240.48
0
LINE
8
BLACK
6
CONTINUOUS
10
106.817
20
-240.48
11
106.674
21
-240.766
0
LINE
8
BLACK
6
CONTINUOUS
10
106.674
20
-240.766
11
106.531
21
-240.909
0
LINE
8
BLACK
6
CONTINUOUS
10
106.531
20
-240.909
11
106.246
21
-241.052
0
LINE
8
BLACK
6
CONTINUOUS
10
106.246
20
-241.052
11
105.96
21
-241.052
0
LINE
8
BLACK
6
CONTINUOUS
10
105.96
20
-241.052
11
105.674
21
-240.909
0
LINE
8
BLACK
6
CONTINUOUS
10
105.674
20
-240.909
11
105.531
21
-240.766
0
LINE
8
BLACK
6
CONTINUOUS
10
105.531
20
-240.766
11
105.389
21
-240.48
0
LINE
8
BLACK
6
CONTINUOUS
10
105.389
20
-240.48
11
105.246
21
-239.909
0
LINE
8
BLACK
6
CONTINUOUS
10
105.246
20
-239.909
11
105.246
21
-239.194
0
LINE
8
BLACK
6
CONTINUOUS
10
105.246
20
-239.194
11
105.389
21
-238.623
0
LINE
8
BLACK
6
CONTINUOUS
10
105.389
20
-238.623
11
105.531
21
-238.337
0
LINE
8
BLACK
6
CONTINUOUS
10
105.531
20
-238.337
11
105.674
21
-238.194
0
LINE
8
BLACK
6
CONTINUOUS
10
105.674
20
-238.194
11
105.96
21
-238.052
0
LINE
8
BLACK
6
CONTINUOUS
10
108.246
20
-240.766
11
108.389
21
-240.909
0
LINE
8
BLACK
6
CONTINUOUS
10
108.389
20
-240.909
11
108.246
21
-241.052
0
LINE
8
BLACK
6
CONTINUOUS
10
108.246
20
-241.052
11
108.103
21
-240.909
0
LINE
8
BLACK
6
CONTINUOUS
10
108.103
20
-240.909
11
108.246
21
-240.766
0
LINE
8
BLACK
6
CONTINUOUS
10
108.246
20
-240.766
11
108.246
21
-241.052
0
LINE
8
BLACK
6
CONTINUOUS
10
110.246
20
-238.052
11
110.531
21
-238.052
0
LINE
8
BLACK
6
CONTINUOUS
10
110.531
20
-238.052
11
110.817
21
-238.194
0
LINE
8
BLACK
6
CONTINUOUS
10
110.817
20
-238.194
11
110.96
21
-238.337
0
LINE
8
BLACK
6
CONTINUOUS
10
110.96
20
-238.337
11
111.103
21
-238.623
0
LINE
8
BLACK
6
CONTINUOUS
10
111.103
20
-238.623
11
111.246
21
-239.194
0
LINE
8
BLACK
6
CONTINUOUS
10
111.246
20
-239.194
11
111.246
21
-239.909
0
LINE
8
BLACK
6
CONTINUOUS
10
111.246
20
-239.909
11
111.103
21
-240.48
0
LINE
8
BLACK
6
CONTINUOUS
10
111.103
20
-240.48
11
110.96
21
-240.766
0
LINE
8
BLACK
6
CONTINUOUS
10
110.96
20
-240.766
11
110.817
21
-240.909
0
LINE
8
BLACK
6
CONTINUOUS
10
110.817
20
-240.909
11
110.531
21
-241.052
0
LINE
8
BLACK
6
CONTINUOUS
10
110.531
20
-241.052
11
110.246
21
-241.052
0
LINE
8
BLACK
6
CONTINUOUS
10
110.246
20
-241.052
11
109.96
21
-240.909
0
LINE
8
BLACK
6
CONTINUOUS
10
109.96
20
-240.909
11
109.817
21
-240.766
0
LINE
8
BLACK
6
CONTINUOUS
10
109.817
20
-240.766
11
109.674
21
-240.48
0
LINE
8
BLACK
6
CONTINUOUS
10
109.674
20
-240.48
11
109.531
21
-239.909
0
LINE
8
BLACK
6
CONTINUOUS
10
109.531
20
-239.909
11
109.531
21
-239.194
0
LINE
8
BLACK
6
CONTINUOUS
10
109.531
20
-239.194
11
109.674
21
-238.623
0
LINE
8
BLACK
6
CONTINUOUS
10
109.674
20
-238.623
11
109.817
21
-238.337
0
LINE
8
BLACK
6
CONTINUOUS
10
109.817
20
-238.337
11
109.96
21
-238.194
0
LINE
8
BLACK
6
CONTINUOUS
10
109.96
20
-238.194
11
110.246
21
-238.052
0
LINE
8
BLACK
6
CONTINUOUS
10
112.389
20
-238.337
11
112.531
21
-238.194
0
LINE
8
BLACK
6
CONTINUOUS
10
112.531
20
-238.194
11
112.817
21
-238.052
0
LINE
8
BLACK
6
CONTINUOUS
10
112.817
20
-238.052
11
113.531
21
-238.052
0
LINE
8
BLACK
6
CONTINUOUS
10
113.531
20
-238.052
11
113.817
21
-238.194
0
LINE
8
BLACK
6
CONTINUOUS
10
113.817
20
-238.194
11
113.96
21
-238.337
0
LINE
8
BLACK
6
CONTINUOUS
10
113.96
20
-238.337
11
114.103
21
-238.623
0
LINE
8
BLACK
6
CONTINUOUS
10
114.103
20
-238.623
11
114.103
21
-238.909
0
LINE
8
BLACK
6
CONTINUOUS
10
114.103
20
-238.909
11
113.96
21
-239.337
0
LINE
8
BLACK
6
CONTINUOUS
10
113.96
20
-239.337
11
112.246
21
-241.052
0
LINE
8
BLACK
6
CONTINUOUS
10
112.246
20
-241.052
11
114.103
21
-241.052
0
LINE
8
BLACK
6
CONTINUOUS
10
116.674
20
-239.052
11
116.674
21
-241.052
0
LINE
8
BLACK
6
CONTINUOUS
10
115.96
20
-237.909
11
115.246
21
-240.052
0
LINE
8
BLACK
6
CONTINUOUS
10
115.246
20
-240.052
11
117.103
21
-240.052
0
LINE
8
BLACK
6
CONTINUOUS
10
118.103
20
-238.052
11
118.103
21
-238.623
0
LINE
8
BLACK
6
CONTINUOUS
10
119.246
20
-238.052
11
119.246
21
-238.623
0
LINE
8
BLACK
6
CONTINUOUS
10
123.674
20
-242.194
11
123.531
21
-242.052
0
LINE
8
BLACK
6
CONTINUOUS
10
123.531
20
-242.052
11
123.246
21
-241.623
0
LINE
8
BLACK
6
CONTINUOUS
10
123.246
20
-241.623
11
123.103
21
-241.337
0
LINE
8
BLACK
6
CONTINUOUS
10
123.103
20
-241.337
11
122.96
21
-240.909
0
LINE
8
BLACK
6
CONTINUOUS
10
122.96
20
-240.909
11
122.817
21
-240.194
0
LINE
8
BLACK
6
CONTINUOUS
10
122.817
20
-240.194
11
122.817
21
-239.623
0
LINE
8
BLACK
6
CONTINUOUS
10
122.817
20
-239.623
11
122.96
21
-238.909
0
LINE
8
BLACK
6
CONTINUOUS
10
122.96
20
-238.909
11
123.103
21
-238.48
0
LINE
8
BLACK
6
CONTINUOUS
10
123.103
20
-238.48
11
123.246
21
-238.194
0
LINE
8
BLACK
6
CONTINUOUS
10
123.246
20
-238.194
11
123.531
21
-237.766
0
LINE
8
BLACK
6
CONTINUOUS
10
123.531
20
-237.766
11
123.674
21
-237.623
0
LINE
8
BLACK
6
CONTINUOUS
10
125.389
20
-238.052
11
125.674
21
-238.052
0
LINE
8
BLACK
6
CONTINUOUS
10
125.674
20
-238.052
11
125.96
21
-238.194
0
LINE
8
BLACK
6
CONTINUOUS
10
125.96
20
-238.194
11
126.103
21
-238.337
0
LINE
8
BLACK
6
CONTINUOUS
10
126.103
20
-238.337
11
126.246
21
-238.623
0
LINE
8
BLACK
6
CONTINUOUS
10
126.246
20
-238.623
11
126.389
21
-239.194
0
LINE
8
BLACK
6
CONTINUOUS
10
126.389
20
-239.194
11
126.389
21
-239.909
0
LINE
8
BLACK
6
CONTINUOUS
10
126.389
20
-239.909
11
126.246
21
-240.48
0
LINE
8
BLACK
6
CONTINUOUS
10
126.246
20
-240.48
11
126.103
21
-240.766
0
LINE
8
BLACK
6
CONTINUOUS
10
126.103
20
-240.766
11
125.96
21
-240.909
0
LINE
8
BLACK
6
CONTINUOUS
10
125.96
20
-240.909
11
125.674
21
-241.052
0
LINE
8
BLACK
6
CONTINUOUS
10
125.674
20
-241.052
11
125.389
21
-241.052
0
LINE
8
BLACK
6
CONTINUOUS
10
125.389
20
-241.052
11
125.103
21
-240.909
0
LINE
8
BLACK
6
CONTINUOUS
10
125.103
20
-240.909
11
124.96
21
-240.766
0
LINE
8
BLACK
6
CONTINUOUS
10
124.96
20
-240.766
11
124.817
21
-240.48
0
LINE
8
BLACK
6
CONTINUOUS
10
124.817
20
-240.48
11
124.674
21
-239.909
0
LINE
8
BLACK
6
CONTINUOUS
10
124.674
20
-239.909
11
124.674
21
-239.194
0
LINE
8
BLACK
6
CONTINUOUS
10
124.674
20
-239.194
11
124.817
21
-238.623
0
LINE
8
BLACK
6
CONTINUOUS
10
124.817
20
-238.623
11
124.96
21
-238.337
0
LINE
8
BLACK
6
CONTINUOUS
10
124.96
20
-238.337
11
125.103
21
-238.194
0
LINE
8
BLACK
6
CONTINUOUS
10
125.103
20
-238.194
11
125.389
21
-238.052
0
LINE
8
BLACK
6
CONTINUOUS
10
129.96
20
-241.052
11
129.96
21
-238.052
0
LINE
8
BLACK
6
CONTINUOUS
10
131.246
20
-241.052
11
131.246
21
-239.48
0
LINE
8
BLACK
6
CONTINUOUS
10
131.246
20
-239.48
11
131.103
21
-239.194
0
LINE
8
BLACK
6
CONTINUOUS
10
131.103
20
-239.194
11
130.817
21
-239.052
0
LINE
8
BLACK
6
CONTINUOUS
10
130.817
20
-239.052
11
130.389
21
-239.052
0
LINE
8
BLACK
6
CONTINUOUS
10
130.389
20
-239.052
11
130.103
21
-239.194
0
LINE
8
BLACK
6
CONTINUOUS
10
130.103
20
-239.194
11
129.96
21
-239.337
0
LINE
8
BLACK
6
CONTINUOUS
10
133.103
20
-241.052
11
132.817
21
-240.909
0
LINE
8
BLACK
6
CONTINUOUS
10
132.817
20
-240.909
11
132.674
21
-240.766
0
LINE
8
BLACK
6
CONTINUOUS
10
132.674
20
-240.766
11
132.531
21
-240.48
0
LINE
8
BLACK
6
CONTINUOUS
10
132.531
20
-240.48
11
132.531
21
-239.623
0
LINE
8
BLACK
6
CONTINUOUS
10
132.531
20
-239.623
11
132.674
21
-239.337
0
LINE
8
BLACK
6
CONTINUOUS
10
132.674
20
-239.337
11
132.817
21
-239.194
0
LINE
8
BLACK
6
CONTINUOUS
10
132.817
20
-239.194
11
133.103
21
-239.052
0
LINE
8
BLACK
6
CONTINUOUS
10
133.103
20
-239.052
11
133.531
21
-239.052
0
LINE
8
BLACK
6
CONTINUOUS
10
133.531
20
-239.052
11
133.817
21
-239.194
0
LINE
8
BLACK
6
CONTINUOUS
10
133.817
20
-239.194
11
133.96
21
-239.337
0
LINE
8
BLACK
6
CONTINUOUS
10
133.96
20
-239.337
11
134.103
21
-239.623
0
LINE
8
BLACK
6
CONTINUOUS
10
134.103
20
-239.623
11
134.103
21
-240.48
0
LINE
8
BLACK
6
CONTINUOUS
10
134.103
20
-240.48
11
133.96
21
-240.766
0
LINE
8
BLACK
6
CONTINUOUS
10
133.96
20
-240.766
11
133.817
21
-240.909
0
LINE
8
BLACK
6
CONTINUOUS
10
133.817
20
-240.909
11
133.531
21
-241.052
0
LINE
8
BLACK
6
CONTINUOUS
10
133.531
20
-241.052
11
133.103
21
-241.052
0
LINE
8
BLACK
6
CONTINUOUS
10
135.817
20
-241.052
11
135.531
21
-240.909
0
LINE
8
BLACK
6
CONTINUOUS
10
135.531
20
-240.909
11
135.389
21
-240.623
0
LINE
8
BLACK
6
CONTINUOUS
10
135.389
20
-240.623
11
135.389
21
-238.052
0
LINE
8
BLACK
6
CONTINUOUS
10
138.103
20
-240.909
11
137.817
21
-241.052
0
LINE
8
BLACK
6
CONTINUOUS
10
137.817
20
-241.052
11
137.246
21
-241.052
0
LINE
8
BLACK
6
CONTINUOUS
10
137.246
20
-241.052
11
136.96
21
-240.909
0
LINE
8
BLACK
6
CONTINUOUS
10
136.96
20
-240.909
11
136.817
21
-240.623
0
LINE
8
BLACK
6
CONTINUOUS
10
136.817
20
-240.623
11
136.817
21
-239.48
0
LINE
8
BLACK
6
CONTINUOUS
10
136.817
20
-239.48
11
136.96
21
-239.194
0
LINE
8
BLACK
6
CONTINUOUS
10
136.96
20
-239.194
11
137.246
21
-239.052
0
LINE
8
BLACK
6
CONTINUOUS
10
137.246
20
-239.052
11
137.817
21
-239.052
0
LINE
8
BLACK
6
CONTINUOUS
10
137.817
20
-239.052
11
138.103
21
-239.194
0
LINE
8
BLACK
6
CONTINUOUS
10
138.103
20
-239.194
11
138.246
21
-239.48
0
LINE
8
BLACK
6
CONTINUOUS
10
138.246
20
-239.48
11
138.246
21
-239.766
0
LINE
8
BLACK
6
CONTINUOUS
10
138.246
20
-239.766
11
136.817
21
-240.052
0
LINE
8
BLACK
6
CONTINUOUS
10
139.389
20
-240.909
11
139.674
21
-241.052
0
LINE
8
BLACK
6
CONTINUOUS
10
139.674
20
-241.052
11
140.246
21
-241.052
0
LINE
8
BLACK
6
CONTINUOUS
10
140.246
20
-241.052
11
140.531
21
-240.909
0
LINE
8
BLACK
6
CONTINUOUS
10
140.531
20
-240.909
11
140.674
21
-240.623
0
LINE
8
BLACK
6
CONTINUOUS
10
140.674
20
-240.623
11
140.674
21
-240.48
0
LINE
8
BLACK
6
CONTINUOUS
10
140.674
20
-240.48
11
140.531
21
-240.194
0
LINE
8
BLACK
6
CONTINUOUS
10
140.531
20
-240.194
11
140.246
21
-240.052
0
LINE
8
BLACK
6
CONTINUOUS
10
140.246
20
-240.052
11
139.817
21
-240.052
0
LINE
8
BLACK
6
CONTINUOUS
10
139.817
20
-240.052
11
139.531
21
-239.909
0
LINE
8
BLACK
6
CONTINUOUS
10
139.531
20
-239.909
11
139.389
21
-239.623
0
LINE
8
BLACK
6
CONTINUOUS
10
139.389
20
-239.623
11
139.389
21
-239.48
0
LINE
8
BLACK
6
CONTINUOUS
10
139.389
20
-239.48
11
139.531
21
-239.194
0
LINE
8
BLACK
6
CONTINUOUS
10
139.531
20
-239.194
11
139.817
21
-239.052
0
LINE
8
BLACK
6
CONTINUOUS
10
139.817
20
-239.052
11
140.246
21
-239.052
0
LINE
8
BLACK
6
CONTINUOUS
10
140.246
20
-239.052
11
140.531
21
-239.194
0
LINE
8
BLACK
6
CONTINUOUS
10
144.246
20
-239.909
11
146.531
21
-239.909
0
LINE
8
BLACK
6
CONTINUOUS
10
145.389
20
-241.052
11
145.389
21
-238.766
0
LINE
8
BLACK
6
CONTINUOUS
10
151.531
20
-239.052
11
151.531
21
-241.052
0
LINE
8
BLACK
6
CONTINUOUS
10
150.817
20
-237.909
11
150.103
21
-240.052
0
LINE
8
BLACK
6
CONTINUOUS
10
150.103
20
-240.052
11
151.96
21
-240.052
0
LINE
8
BLACK
6
CONTINUOUS
10
155.246
20
-240.909
11
155.531
21
-241.052
0
LINE
8
BLACK
6
CONTINUOUS
10
155.531
20
-241.052
11
156.103
21
-241.052
0
LINE
8
BLACK
6
CONTINUOUS
10
156.103
20
-241.052
11
156.389
21
-240.909
0
LINE
8
BLACK
6
CONTINUOUS
10
156.389
20
-240.909
11
156.531
21
-240.623
0
LINE
8
BLACK
6
CONTINUOUS
10
156.531
20
-240.623
11
156.531
21
-240.48
0
LINE
8
BLACK
6
CONTINUOUS
10
156.531
20
-240.48
11
156.389
21
-240.194
0
LINE
8
BLACK
6
CONTINUOUS
10
156.389
20
-240.194
11
156.103
21
-240.052
0
LINE
8
BLACK
6
CONTINUOUS
10
156.103
20
-240.052
11
155.674
21
-240.052
0
LINE
8
BLACK
6
CONTINUOUS
10
155.674
20
-240.052
11
155.389
21
-239.909
0
LINE
8
BLACK
6
CONTINUOUS
10
155.389
20
-239.909
11
155.246
21
-239.623
0
LINE
8
BLACK
6
CONTINUOUS
10
155.246
20
-239.623
11
155.246
21
-239.48
0
LINE
8
BLACK
6
CONTINUOUS
10
155.246
20
-239.48
11
155.389
21
-239.194
0
LINE
8
BLACK
6
CONTINUOUS
10
155.389
20
-239.194
11
155.674
21
-239.052
0
LINE
8
BLACK
6
CONTINUOUS
10
155.674
20
-239.052
11
156.103
21
-239.052
0
LINE
8
BLACK
6
CONTINUOUS
10
156.103
20
-239.052
11
156.389
21
-239.194
0
LINE
8
BLACK
6
CONTINUOUS
10
158.246
20
-241.052
11
157.96
21
-240.909
0
LINE
8
BLACK
6
CONTINUOUS
10
157.96
20
-240.909
11
157.817
21
-240.623
0
LINE
8
BLACK
6
CONTINUOUS
10
157.817
20
-240.623
11
157.817
21
-238.052
0
LINE
8
BLACK
6
CONTINUOUS
10
159.817
20
-241.052
11
159.531
21
-240.909
0
LINE
8
BLACK
6
CONTINUOUS
10
159.531
20
-240.909
11
159.389
21
-240.766
0
LINE
8
BLACK
6
CONTINUOUS
10
159.389
20
-240.766
11
159.246
21
-240.48
0
LINE
8
BLACK
6
CONTINUOUS
10
159.246
20
-240.48
11
159.246
21
-239.623
0
LINE
8
BLACK
6
CONTINUOUS
10
159.246
20
-239.623
11
159.389
21
-239.337
0
LINE
8
BLACK
6
CONTINUOUS
10
159.389
20
-239.337
11
159.531
21
-239.194
0
LINE
8
BLACK
6
CONTINUOUS
10
159.531
20
-239.194
11
159.817
21
-239.052
0
LINE
8
BLACK
6
CONTINUOUS
10
159.817
20
-239.052
11
160.246
21
-239.052
0
LINE
8
BLACK
6
CONTINUOUS
10
160.246
20
-239.052
11
160.531
21
-239.194
0
LINE
8
BLACK
6
CONTINUOUS
10
160.531
20
-239.194
11
160.674
21
-239.337
0
LINE
8
BLACK
6
CONTINUOUS
10
160.674
20
-239.337
11
160.817
21
-239.623
0
LINE
8
BLACK
6
CONTINUOUS
10
160.817
20
-239.623
11
160.817
21
-240.48
0
LINE
8
BLACK
6
CONTINUOUS
10
160.817
20
-240.48
11
160.674
21
-240.766
0
LINE
8
BLACK
6
CONTINUOUS
10
160.674
20
-240.766
11
160.531
21
-240.909
0
LINE
8
BLACK
6
CONTINUOUS
10
160.531
20
-240.909
11
160.246
21
-241.052
0
LINE
8
BLACK
6
CONTINUOUS
10
160.246
20
-241.052
11
159.817
21
-241.052
0
LINE
8
BLACK
6
CONTINUOUS
10
161.674
20
-239.052
11
162.817
21
-239.052
0
LINE
8
BLACK
6
CONTINUOUS
10
162.103
20
-238.052
11
162.103
21
-240.623
0
LINE
8
BLACK
6
CONTINUOUS
10
162.103
20
-240.623
11
162.246
21
-240.909
0
LINE
8
BLACK
6
CONTINUOUS
10
162.246
20
-240.909
11
162.531
21
-241.052
0
LINE
8
BLACK
6
CONTINUOUS
10
162.531
20
-241.052
11
162.817
21
-241.052
0
LINE
8
BLACK
6
CONTINUOUS
10
163.674
20
-240.909
11
163.96
21
-241.052
0
LINE
8
BLACK
6
CONTINUOUS
10
163.96
20
-241.052
11
164.531
21
-241.052
0
LINE
8
BLACK
6
CONTINUOUS
10
164.531
20
-241.052
11
164.817
21
-240.909
0
LINE
8
BLACK
6
CONTINUOUS
10
164.817
20
-240.909
11
164.96
21
-240.623
0
LINE
8
BLACK
6
CONTINUOUS
10
164.96
20
-240.623
11
164.96
21
-240.48
0
LINE
8
BLACK
6
CONTINUOUS
10
164.96
20
-240.48
11
164.817
21
-240.194
0
LINE
8
BLACK
6
CONTINUOUS
10
164.817
20
-240.194
11
164.531
21
-240.052
0
LINE
8
BLACK
6
CONTINUOUS
10
164.531
20
-240.052
11
164.103
21
-240.052
0
LINE
8
BLACK
6
CONTINUOUS
10
164.103
20
-240.052
11
163.817
21
-239.909
0
LINE
8
BLACK
6
CONTINUOUS
10
163.817
20
-239.909
11
163.674
21
-239.623
0
LINE
8
BLACK
6
CONTINUOUS
10
163.674
20
-239.623
11
163.674
21
-239.48
0
LINE
8
BLACK
6
CONTINUOUS
10
163.674
20
-239.48
11
163.817
21
-239.194
0
LINE
8
BLACK
6
CONTINUOUS
10
163.817
20
-239.194
11
164.103
21
-239.052
0
LINE
8
BLACK
6
CONTINUOUS
10
164.103
20
-239.052
11
164.531
21
-239.052
0
LINE
8
BLACK
6
CONTINUOUS
10
164.531
20
-239.052
11
164.817
21
-239.194
0
LINE
8
BLACK
6
CONTINUOUS
10
165.96
20
-242.194
11
166.103
21
-242.052
0
LINE
8
BLACK
6
CONTINUOUS
10
166.103
20
-242.052
11
166.389
21
-241.623
0
LINE
8
BLACK
6
CONTINUOUS
10
166.389
20
-241.623
11
166.531
21
-241.337
0
LINE
8
BLACK
6
CONTINUOUS
10
166.531
20
-241.337
11
166.674
21
-240.909
0
LINE
8
BLACK
6
CONTINUOUS
10
166.674
20
-240.909
11
166.817
21
-240.194
0
LINE
8
BLACK
6
CONTINUOUS
10
166.817
20
-240.194
11
166.817
21
-239.623
0
LINE
8
BLACK
6
CONTINUOUS
10
166.817
20
-239.623
11
166.674
21
-238.909
0
LINE
8
BLACK
6
CONTINUOUS
10
166.674
20
-238.909
11
166.531
21
-238.48
0
LINE
8
BLACK
6
CONTINUOUS
10
166.531
20
-238.48
11
166.389
21
-238.194
0
LINE
8
BLACK
6
CONTINUOUS
10
166.389
20
-238.194
11
166.103
21
-237.766
0
LINE
8
BLACK
6
CONTINUOUS
10
166.103
20
-237.766
11
165.96
21
-237.623
0
LINE
8
BLACK
6
CONTINUOUS
10
76.31
20
-243.154
11
76.31
21
-244.154
0
LINE
8
BLACK
6
CONTINUOUS
10
75.81
20
-243.654
11
76.81
21
-243.654
0
LINE
8
BLACK
6
CONTINUOUS
10
81.2457
20
-245.012
11
79.5314
21
-245.012
0
LINE
8
BLACK
6
CONTINUOUS
10
80.3886
20
-245.012
11
80.3886
21
-242.012
0
LINE
8
BLACK
6
CONTINUOUS
10
80.3886
20
-242.012
11
80.1029
21
-242.44
0
LINE
8
BLACK
6
CONTINUOUS
10
80.1029
20
-242.44
11
79.8171
21
-242.726
0
LINE
8
BLACK
6
CONTINUOUS
10
79.8171
20
-242.726
11
79.5314
21
-242.869
0
LINE
8
BLACK
6
CONTINUOUS
10
82.5314
20
-244.726
11
82.6743
21
-244.869
0
LINE
8
BLACK
6
CONTINUOUS
10
82.6743
20
-244.869
11
82.5314
21
-245.012
0
LINE
8
BLACK
6
CONTINUOUS
10
82.5314
20
-245.012
11
82.3886
21
-244.869
0
LINE
8
BLACK
6
CONTINUOUS
10
82.3886
20
-244.869
11
82.5314
21
-244.726
0
LINE
8
BLACK
6
CONTINUOUS
10
82.5314
20
-244.726
11
82.5314
21
-245.012
0
LINE
8
BLACK
6
CONTINUOUS
10
84.5314
20
-242.012
11
84.8171
21
-242.012
0
LINE
8
BLACK
6
CONTINUOUS
10
84.8171
20
-242.012
11
85.1029
21
-242.154
0
LINE
8
BLACK
6
CONTINUOUS
10
85.1029
20
-242.154
11
85.2457
21
-242.297
0
LINE
8
BLACK
6
CONTINUOUS
10
85.2457
20
-242.297
11
85.3886
21
-242.583
0
LINE
8
BLACK
6
CONTINUOUS
10
85.3886
20
-242.583
11
85.5314
21
-243.154
0
LINE
8
BLACK
6
CONTINUOUS
10
85.5314
20
-243.154
11
85.5314
21
-243.869
0
LINE
8
BLACK
6
CONTINUOUS
10
85.5314
20
-243.869
11
85.3886
21
-244.44
0
LINE
8
BLACK
6
CONTINUOUS
10
85.3886
20
-244.44
11
85.2457
21
-244.726
0
LINE
8
BLACK
6
CONTINUOUS
10
85.2457
20
-244.726
11
85.1029
21
-244.869
0
LINE
8
BLACK
6
CONTINUOUS
10
85.1029
20
-244.869
11
84.8171
21
-245.012
0
LINE
8
BLACK
6
CONTINUOUS
10
84.8171
20
-245.012
11
84.5314
21
-245.012
0
LINE
8
BLACK
6
CONTINUOUS
10
84.5314
20
-245.012
11
84.2457
21
-244.869
0
LINE
8
BLACK
6
CONTINUOUS
10
84.2457
20
-244.869
11
84.1029
21
-244.726
0
LINE
8
BLACK
6
CONTINUOUS
10
84.1029
20
-244.726
11
83.96
21
-244.44
0
LINE
8
BLACK
6
CONTINUOUS
10
83.96
20
-244.44
11
83.8171
21
-243.869
0
LINE
8
BLACK
6
CONTINUOUS
10
83.8171
20
-243.869
11
83.8171
21
-243.154
0
LINE
8
BLACK
6
CONTINUOUS
10
83.8171
20
-243.154
11
83.96
21
-242.583
0
LINE
8
BLACK
6
CONTINUOUS
10
83.96
20
-242.583
11
84.1029
21
-242.297
0
LINE
8
BLACK
6
CONTINUOUS
10
84.1029
20
-242.297
11
84.2457
21
-242.154
0
LINE
8
BLACK
6
CONTINUOUS
10
84.2457
20
-242.154
11
84.5314
21
-242.012
0
LINE
8
BLACK
6
CONTINUOUS
10
87.3886
20
-242.012
11
87.6743
21
-242.012
0
LINE
8
BLACK
6
CONTINUOUS
10
87.6743
20
-242.012
11
87.96
21
-242.154
0
LINE
8
BLACK
6
CONTINUOUS
10
87.96
20
-242.154
11
88.1029
21
-242.297
0
LINE
8
BLACK
6
CONTINUOUS
10
88.1029
20
-242.297
11
88.2457
21
-242.583
0
LINE
8
BLACK
6
CONTINUOUS
10
88.2457
20
-242.583
11
88.3886
21
-243.154
0
LINE
8
BLACK
6
CONTINUOUS
10
88.3886
20
-243.154
11
88.3886
21
-243.869
0
LINE
8
BLACK
6
CONTINUOUS
10
88.3886
20
-243.869
11
88.2457
21
-244.44
0
LINE
8
BLACK
6
CONTINUOUS
10
88.2457
20
-244.44
11
88.1029
21
-244.726
0
LINE
8
BLACK
6
CONTINUOUS
10
88.1029
20
-244.726
11
87.96
21
-244.869
0
LINE
8
BLACK
6
CONTINUOUS
10
87.96
20
-244.869
11
87.6743
21
-245.012
0
LINE
8
BLACK
6
CONTINUOUS
10
87.6743
20
-245.012
11
87.3886
21
-245.012
0
LINE
8
BLACK
6
CONTINUOUS
10
87.3886
20
-245.012
11
87.1029
21
-244.869
0
LINE
8
BLACK
6
CONTINUOUS
10
87.1029
20
-244.869
11
86.96
21
-244.726
0
LINE
8
BLACK
6
CONTINUOUS
10
86.96
20
-244.726
11
86.8171
21
-244.44
0
LINE
8
BLACK
6
CONTINUOUS
10
86.8171
20
-244.44
11
86.6743
21
-243.869
0
LINE
8
BLACK
6
CONTINUOUS
10
86.6743
20
-243.869
11
86.6743
21
-243.154
0
LINE
8
BLACK
6
CONTINUOUS
10
86.6743
20
-243.154
11
86.8171
21
-242.583
0
LINE
8
BLACK
6
CONTINUOUS
10
86.8171
20
-242.583
11
86.96
21
-242.297
0
LINE
8
BLACK
6
CONTINUOUS
10
86.96
20
-242.297
11
87.1029
21
-242.154
0
LINE
8
BLACK
6
CONTINUOUS
10
87.1029
20
-242.154
11
87.3886
21
-242.012
0
LINE
8
BLACK
6
CONTINUOUS
10
89.6743
20
-245.012
11
89.6743
21
-243.012
0
LINE
8
BLACK
6
CONTINUOUS
10
89.6743
20
-243.297
11
89.8171
21
-243.154
0
LINE
8
BLACK
6
CONTINUOUS
10
89.8171
20
-243.154
11
90.1029
21
-243.012
0
LINE
8
BLACK
6
CONTINUOUS
10
90.1029
20
-243.012
11
90.5314
21
-243.012
0
LINE
8
BLACK
6
CONTINUOUS
10
90.5314
20
-243.012
11
90.8171
21
-243.154
0
LINE
8
BLACK
6
CONTINUOUS
10
90.8171
20
-243.154
11
90.96
21
-243.44
0
LINE
8
BLACK
6
CONTINUOUS
10
90.96
20
-243.44
11
90.96
21
-245.012
0
LINE
8
BLACK
6
CONTINUOUS
10
90.96
20
-243.44
11
91.1029
21
-243.154
0
LINE
8
BLACK
6
CONTINUOUS
10
91.1029
20
-243.154
11
91.3886
21
-243.012
0
LINE
8
BLACK
6
CONTINUOUS
10
91.3886
20
-243.012
11
91.8171
21
-243.012
0
LINE
8
BLACK
6
CONTINUOUS
10
91.8171
20
-243.012
11
92.1029
21
-243.154
0
LINE
8
BLACK
6
CONTINUOUS
10
92.1029
20
-243.154
11
92.2457
21
-243.44
0
LINE
8
BLACK
6
CONTINUOUS
10
92.2457
20
-243.44
11
92.2457
21
-245.012
0
LINE
8
BLACK
6
CONTINUOUS
10
93.6743
20
-245.012
11
93.6743
21
-243.012
0
LINE
8
BLACK
6
CONTINUOUS
10
93.6743
20
-243.297
11
93.8171
21
-243.154
0
LINE
8
BLACK
6
CONTINUOUS
10
93.8171
20
-243.154
11
94.1029
21
-243.012
0
LINE
8
BLACK
6
CONTINUOUS
10
94.1029
20
-243.012
11
94.5314
21
-243.012
0
LINE
8
BLACK
6
CONTINUOUS
10
94.5314
20
-243.012
11
94.8171
21
-243.154
0
LINE
8
BLACK
6
CONTINUOUS
10
94.8171
20
-243.154
11
94.96
21
-243.44
0
LINE
8
BLACK
6
CONTINUOUS
10
94.96
20
-243.44
11
94.96
21
-245.012
0
LINE
8
BLACK
6
CONTINUOUS
10
94.96
20
-243.44
11
95.1029
21
-243.154
0
LINE
8
BLACK
6
CONTINUOUS
10
95.1029
20
-243.154
11
95.3886
21
-243.012
0
LINE
8
BLACK
6
CONTINUOUS
10
95.3886
20
-243.012
11
95.8171
21
-243.012
0
LINE
8
BLACK
6
CONTINUOUS
10
95.8171
20
-243.012
11
96.1029
21
-243.154
0
LINE
8
BLACK
6
CONTINUOUS
10
96.1029
20
-243.154
11
96.2457
21
-243.44
0
LINE
8
BLACK
6
CONTINUOUS
10
96.2457
20
-243.44
11
96.2457
21
-245.012
0
LINE
8
BLACK
6
CONTINUOUS
10
102.103
20
-241.869
11
99.5314
21
-245.726
0
LINE
8
BLACK
6
CONTINUOUS
10
105.96
20
-242.012
11
106.246
21
-242.012
0
LINE
8
BLACK
6
CONTINUOUS
10
106.246
20
-242.012
11
106.531
21
-242.154
0
LINE
8
BLACK
6
CONTINUOUS
10
106.531
20
-242.154
11
106.674
21
-242.297
0
LINE
8
BLACK
6
CONTINUOUS
10
106.674
20
-242.297
11
106.817
21
-242.583
0
LINE
8
BLACK
6
CONTINUOUS
10
106.817
20
-242.583
11
106.96
21
-243.154
0
LINE
8
BLACK
6
CONTINUOUS
10
106.96
20
-243.154
11
106.96
21
-243.869
0
LINE
8
BLACK
6
CONTINUOUS
10
106.96
20
-243.869
11
106.817
21
-244.44
0
LINE
8
BLACK
6
CONTINUOUS
10
106.817
20
-244.44
11
106.674
21
-244.726
0
LINE
8
BLACK
6
CONTINUOUS
10
106.674
20
-244.726
11
106.531
21
-244.869
0
LINE
8
BLACK
6
CONTINUOUS
10
106.531
20
-244.869
11
106.246
21
-245.012
0
LINE
8
BLACK
6
CONTINUOUS
10
106.246
20
-245.012
11
105.96
21
-245.012
0
LINE
8
BLACK
6
CONTINUOUS
10
105.96
20
-245.012
11
105.674
21
-244.869
0
LINE
8
BLACK
6
CONTINUOUS
10
105.674
20
-244.869
11
105.531
21
-244.726
0
LINE
8
BLACK
6
CONTINUOUS
10
105.531
20
-244.726
11
105.389
21
-244.44
0
LINE
8
BLACK
6
CONTINUOUS
10
105.389
20
-244.44
11
105.246
21
-243.869
0
LINE
8
BLACK
6
CONTINUOUS
10
105.246
20
-243.869
11
105.246
21
-243.154
0
LINE
8
BLACK
6
CONTINUOUS
10
105.246
20
-243.154
11
105.389
21
-242.583
0
LINE
8
BLACK
6
CONTINUOUS
10
105.389
20
-242.583
11
105.531
21
-242.297
0
LINE
8
BLACK
6
CONTINUOUS
10
105.531
20
-242.297
11
105.674
21
-242.154
0
LINE
8
BLACK
6
CONTINUOUS
10
105.674
20
-242.154
11
105.96
21
-242.012
0
LINE
8
BLACK
6
CONTINUOUS
10
108.246
20
-244.726
11
108.389
21
-244.869
0
LINE
8
BLACK
6
CONTINUOUS
10
108.389
20
-244.869
11
108.246
21
-245.012
0
LINE
8
BLACK
6
CONTINUOUS
10
108.246
20
-245.012
11
108.103
21
-244.869
0
LINE
8
BLACK
6
CONTINUOUS
10
108.103
20
-244.869
11
108.246
21
-244.726
0
LINE
8
BLACK
6
CONTINUOUS
10
108.246
20
-244.726
11
108.246
21
-245.012
0
LINE
8
BLACK
6
CONTINUOUS
10
110.246
20
-242.012
11
110.531
21
-242.012
0
LINE
8
BLACK
6
CONTINUOUS
10
110.531
20
-242.012
11
110.817
21
-242.154
0
LINE
8
BLACK
6
CONTINUOUS
10
110.817
20
-242.154
11
110.96
21
-242.297
0
LINE
8
BLACK
6
CONTINUOUS
10
110.96
20
-242.297
11
111.103
21
-242.583
0
LINE
8
BLACK
6
CONTINUOUS
10
111.103
20
-242.583
11
111.246
21
-243.154
0
LINE
8
BLACK
6
CONTINUOUS
10
111.246
20
-243.154
11
111.246
21
-243.869
0
LINE
8
BLACK
6
CONTINUOUS
10
111.246
20
-243.869
11
111.103
21
-244.44
0
LINE
8
BLACK
6
CONTINUOUS
10
111.103
20
-244.44
11
110.96
21
-244.726
0
LINE
8
BLACK
6
CONTINUOUS
10
110.96
20
-244.726
11
110.817
21
-244.869
0
LINE
8
BLACK
6
CONTINUOUS
10
110.817
20
-244.869
11
110.531
21
-245.012
0
LINE
8
BLACK
6
CONTINUOUS
10
110.531
20
-245.012
11
110.246
21
-245.012
0
LINE
8
BLACK
6
CONTINUOUS
10
110.246
20
-245.012
11
109.96
21
-244.869
0
LINE
8
BLACK
6
CONTINUOUS
10
109.96
20
-244.869
11
109.817
21
-244.726
0
LINE
8
BLACK
6
CONTINUOUS
10
109.817
20
-244.726
11
109.674
21
-244.44
0
LINE
8
BLACK
6
CONTINUOUS
10
109.674
20
-244.44
11
109.531
21
-243.869
0
LINE
8
BLACK
6
CONTINUOUS
10
109.531
20
-243.869
11
109.531
21
-243.154
0
LINE
8
BLACK
6
CONTINUOUS
10
109.531
20
-243.154
11
109.674
21
-242.583
0
LINE
8
BLACK
6
CONTINUOUS
10
109.674
20
-242.583
11
109.817
21
-242.297
0
LINE
8
BLACK
6
CONTINUOUS
10
109.817
20
-242.297
11
109.96
21
-242.154
0
LINE
8
BLACK
6
CONTINUOUS
10
109.96
20
-242.154
11
110.246
21
-242.012
0
LINE
8
BLACK
6
CONTINUOUS
10
112.246
20
-242.012
11
114.103
21
-242.012
0
LINE
8
BLACK
6
CONTINUOUS
10
114.103
20
-242.012
11
113.103
21
-243.154
0
LINE
8
BLACK
6
CONTINUOUS
10
113.103
20
-243.154
11
113.531
21
-243.154
0
LINE
8
BLACK
6
CONTINUOUS
10
113.531
20
-243.154
11
113.817
21
-243.297
0
LINE
8
BLACK
6
CONTINUOUS
10
113.817
20
-243.297
11
113.96
21
-243.44
0
LINE
8
BLACK
6
CONTINUOUS
10
113.96
20
-243.44
11
114.103
21
-243.726
0
LINE
8
BLACK
6
CONTINUOUS
10
114.103
20
-243.726
11
114.103
21
-244.44
0
LINE
8
BLACK
6
CONTINUOUS
10
114.103
20
-244.44
11
113.96
21
-244.726
0
LINE
8
BLACK
6
CONTINUOUS
10
113.96
20
-244.726
11
113.817
21
-244.869
0
LINE
8
BLACK
6
CONTINUOUS
10
113.817
20
-244.869
11
113.531
21
-245.012
0
LINE
8
BLACK
6
CONTINUOUS
10
113.531
20
-245.012
11
112.674
21
-245.012
0
LINE
8
BLACK
6
CONTINUOUS
10
112.674
20
-245.012
11
112.389
21
-244.869
0
LINE
8
BLACK
6
CONTINUOUS
10
112.389
20
-244.869
11
112.246
21
-244.726
0
LINE
8
BLACK
6
CONTINUOUS
10
115.531
20
-245.012
11
116.103
21
-245.012
0
LINE
8
BLACK
6
CONTINUOUS
10
116.103
20
-245.012
11
116.389
21
-244.869
0
LINE
8
BLACK
6
CONTINUOUS
10
116.389
20
-244.869
11
116.531
21
-244.726
0
LINE
8
BLACK
6
CONTINUOUS
10
116.531
20
-244.726
11
116.817
21
-244.297
0
LINE
8
BLACK
6
CONTINUOUS
10
116.817
20
-244.297
11
116.96
21
-243.726
0
LINE
8
BLACK
6
CONTINUOUS
10
116.96
20
-243.726
11
116.96
21
-242.583
0
LINE
8
BLACK
6
CONTINUOUS
10
116.96
20
-242.583
11
116.817
21
-242.297
0
LINE
8
BLACK
6
CONTINUOUS
10
116.817
20
-242.297
11
116.674
21
-242.154
0
LINE
8
BLACK
6
CONTINUOUS
10
116.674
20
-242.154
11
116.389
21
-242.012
0
LINE
8
BLACK
6
CONTINUOUS
10
116.389
20
-242.012
11
115.817
21
-242.012
0
LINE
8
BLACK
6
CONTINUOUS
10
115.817
20
-242.012
11
115.531
21
-242.154
0
LINE
8
BLACK
6
CONTINUOUS
10
115.531
20
-242.154
11
115.389
21
-242.297
0
LINE
8
BLACK
6
CONTINUOUS
10
115.389
20
-242.297
11
115.246
21
-242.583
0
LINE
8
BLACK
6
CONTINUOUS
10
115.246
20
-242.583
11
115.246
21
-243.297
0
LINE
8
BLACK
6
CONTINUOUS
10
115.246
20
-243.297
11
115.389
21
-243.583
0
LINE
8
BLACK
6
CONTINUOUS
10
115.389
20
-243.583
11
115.531
21
-243.726
0
LINE
8
BLACK
6
CONTINUOUS
10
115.531
20
-243.726
11
115.817
21
-243.869
0
LINE
8
BLACK
6
CONTINUOUS
10
115.817
20
-243.869
11
116.389
21
-243.869
0
LINE
8
BLACK
6
CONTINUOUS
10
116.389
20
-243.869
11
116.674
21
-243.726
0
LINE
8
BLACK
6
CONTINUOUS
10
116.674
20
-243.726
11
116.817
21
-243.583
0
LINE
8
BLACK
6
CONTINUOUS
10
116.817
20
-243.583
11
116.96
21
-243.297
0
LINE
8
BLACK
6
CONTINUOUS
10
118.103
20
-242.012
11
118.103
21
-242.583
0
LINE
8
BLACK
6
CONTINUOUS
10
119.246
20
-242.012
11
119.246
21
-242.583
0
LINE
8
BLACK
6
CONTINUOUS
10
123.674
20
-246.154
11
123.531
21
-246.012
0
LINE
8
BLACK
6
CONTINUOUS
10
123.531
20
-246.012
11
123.246
21
-245.583
0
LINE
8
BLACK
6
CONTINUOUS
10
123.246
20
-245.583
11
123.103
21
-245.297
0
LINE
8
BLACK
6
CONTINUOUS
10
123.103
20
-245.297
11
122.96
21
-244.869
0
LINE
8
BLACK
6
CONTINUOUS
10
122.96
20
-244.869
11
122.817
21
-244.154
0
LINE
8
BLACK
6
CONTINUOUS
10
122.817
20
-244.154
11
122.817
21
-243.583
0
LINE
8
BLACK
6
CONTINUOUS
10
122.817
20
-243.583
11
122.96
21
-242.869
0
LINE
8
BLACK
6
CONTINUOUS
10
122.96
20
-242.869
11
123.103
21
-242.44
0
LINE
8
BLACK
6
CONTINUOUS
10
123.103
20
-242.44
11
123.246
21
-242.154
0
LINE
8
BLACK
6
CONTINUOUS
10
123.246
20
-242.154
11
123.531
21
-241.726
0
LINE
8
BLACK
6
CONTINUOUS
10
123.531
20
-241.726
11
123.674
21
-241.583
0
LINE
8
BLACK
6
CONTINUOUS
10
126.389
20
-245.012
11
124.674
21
-245.012
0
LINE
8
BLACK
6
CONTINUOUS
10
125.531
20
-245.012
11
125.531
21
-242.012
0
LINE
8
BLACK
6
CONTINUOUS
10
125.531
20
-242.012
11
125.246
21
-242.44
0
LINE
8
BLACK
6
CONTINUOUS
10
125.246
20
-242.44
11
124.96
21
-242.726
0
LINE
8
BLACK
6
CONTINUOUS
10
124.96
20
-242.726
11
124.674
21
-242.869
0
LINE
8
BLACK
6
CONTINUOUS
10
129.103
20
-242.012
11
127.674
21
-242.012
0
LINE
8
BLACK
6
CONTINUOUS
10
127.674
20
-242.012
11
127.531
21
-243.44
0
LINE
8
BLACK
6
CONTINUOUS
10
127.531
20
-243.44
11
127.674
21
-243.297
0
LINE
8
BLACK
6
CONTINUOUS
10
127.674
20
-243.297
11
127.96
21
-243.154
0
LINE
8
BLACK
6
CONTINUOUS
10
127.96
20
-243.154
11
128.674
21
-243.154
0
LINE
8
BLACK
6
CONTINUOUS
10
128.674
20
-243.154
11
128.96
21
-243.297
0
LINE
8
BLACK
6
CONTINUOUS
10
128.96
20
-243.297
11
129.103
21
-243.44
0
LINE
8
BLACK
6
CONTINUOUS
10
129.103
20
-243.44
11
129.246
21
-243.726
0
LINE
8
BLACK
6
CONTINUOUS
10
129.246
20
-243.726
11
129.246
21
-244.44
0
LINE
8
BLACK
6
CONTINUOUS
10
129.246
20
-244.44
11
129.103
21
-244.726
0
LINE
8
BLACK
6
CONTINUOUS
10
129.103
20
-244.726
11
128.96
21
-244.869
0
LINE
8
BLACK
6
CONTINUOUS
10
128.96
20
-244.869
11
128.674
21
-245.012
0
LINE
8
BLACK
6
CONTINUOUS
10
128.674
20
-245.012
11
127.96
21
-245.012
0
LINE
8
BLACK
6
CONTINUOUS
10
127.96
20
-245.012
11
127.674
21
-244.869
0
LINE
8
BLACK
6
CONTINUOUS
10
127.674
20
-244.869
11
127.531
21
-244.726
0
LINE
8
BLACK
6
CONTINUOUS
10
132.817
20
-245.012
11
132.817
21
-242.012
0
LINE
8
BLACK
6
CONTINUOUS
10
134.103
20
-245.012
11
134.103
21
-243.44
0
LINE
8
BLACK
6
CONTINUOUS
10
134.103
20
-243.44
11
133.96
21
-243.154
0
LINE
8
BLACK
6
CONTINUOUS
10
133.96
20
-243.154
11
133.674
21
-243.012
0
LINE
8
BLACK
6
CONTINUOUS
10
133.674
20
-243.012
11
133.246
21
-243.012
0
LINE
8
BLACK
6
CONTINUOUS
10
133.246
20
-243.012
11
132.96
21
-243.154
0
LINE
8
BLACK
6
CONTINUOUS
10
132.96
20
-243.154
11
132.817
21
-243.297
0
LINE
8
BLACK
6
CONTINUOUS
10
135.96
20
-245.012
11
135.674
21
-244.869
0
LINE
8
BLACK
6
CONTINUOUS
10
135.674
20
-244.869
11
135.531
21
-244.726
0
LINE
8
BLACK
6
CONTINUOUS
10
135.531
20
-244.726
11
135.389
21
-244.44
0
LINE
8
BLACK
6
CONTINUOUS
10
135.389
20
-244.44
11
135.389
21
-243.583
0
LINE
8
BLACK
6
CONTINUOUS
10
135.389
20
-243.583
11
135.531
21
-243.297
0
LINE
8
BLACK
6
CONTINUOUS
10
135.531
20
-243.297
11
135.674
21
-243.154
0
LINE
8
BLACK
6
CONTINUOUS
10
135.674
20
-243.154
11
135.96
21
-243.012
0
LINE
8
BLACK
6
CONTINUOUS
10
135.96
20
-243.012
11
136.389
21
-243.012
0
LINE
8
BLACK
6
CONTINUOUS
10
136.389
20
-243.012
11
136.674
21
-243.154
0
LINE
8
BLACK
6
CONTINUOUS
10
136.674
20
-243.154
11
136.817
21
-243.297
0
LINE
8
BLACK
6
CONTINUOUS
10
136.817
20
-243.297
11
136.96
21
-243.583
0
LINE
8
BLACK
6
CONTINUOUS
10
136.96
20
-243.583
11
136.96
21
-244.44
0
LINE
8
BLACK
6
CONTINUOUS
10
136.96
20
-244.44
11
136.817
21
-244.726
0
LINE
8
BLACK
6
CONTINUOUS
10
136.817
20
-244.726
11
136.674
21
-244.869
0
LINE
8
BLACK
6
CONTINUOUS
10
136.674
20
-244.869
11
136.389
21
-245.012
0
LINE
8
BLACK
6
CONTINUOUS
10
136.389
20
-245.012
11
135.96
21
-245.012
0
LINE
8
BLACK
6
CONTINUOUS
10
138.674
20
-245.012
11
138.389
21
-244.869
0
LINE
8
BLACK
6
CONTINUOUS
10
138.389
20
-244.869
11
138.246
21
-244.583
0
LINE
8
BLACK
6
CONTINUOUS
10
138.246
20
-244.583
11
138.246
21
-242.012
0
LINE
8
BLACK
6
CONTINUOUS
10
140.96
20
-244.869
11
140.674
21
-245.012
0
LINE
8
BLACK
6
CONTINUOUS
10
140.674
20
-245.012
11
140.103
21
-245.012
0
LINE
8
BLACK
6
CONTINUOUS
10
140.103
20
-245.012
11
139.817
21
-244.869
0
LINE
8
BLACK
6
CONTINUOUS
10
139.817
20
-244.869
11
139.674
21
-244.583
0
LINE
8
BLACK
6
CONTINUOUS
10
139.674
20
-244.583
11
139.674
21
-243.44
0
LINE
8
BLACK
6
CONTINUOUS
10
139.674
20
-243.44
11
139.817
21
-243.154
0
LINE
8
BLACK
6
CONTINUOUS
10
139.817
20
-243.154
11
140.103
21
-243.012
0
LINE
8
BLACK
6
CONTINUOUS
10
140.103
20
-243.012
11
140.674
21
-243.012
0
LINE
8
BLACK
6
CONTINUOUS
10
140.674
20
-243.012
11
140.96
21
-243.154
0
LINE
8
BLACK
6
CONTINUOUS
10
140.96
20
-243.154
11
141.103
21
-243.44
0
LINE
8
BLACK
6
CONTINUOUS
10
141.103
20
-243.44
11
141.103
21
-243.726
0
LINE
8
BLACK
6
CONTINUOUS
10
141.103
20
-243.726
11
139.674
21
-244.012
0
LINE
8
BLACK
6
CONTINUOUS
10
142.246
20
-244.869
11
142.531
21
-245.012
0
LINE
8
BLACK
6
CONTINUOUS
10
142.531
20
-245.012
11
143.103
21
-245.012
0
LINE
8
BLACK
6
CONTINUOUS
10
143.103
20
-245.012
11
143.389
21
-244.869
0
LINE
8
BLACK
6
CONTINUOUS
10
143.389
20
-244.869
11
143.531
21
-244.583
0
LINE
8
BLACK
6
CONTINUOUS
10
143.531
20
-244.583
11
143.531
21
-244.44
0
LINE
8
BLACK
6
CONTINUOUS
10
143.531
20
-244.44
11
143.389
21
-244.154
0
LINE
8
BLACK
6
CONTINUOUS
10
143.389
20
-244.154
11
143.103
21
-244.012
0
LINE
8
BLACK
6
CONTINUOUS
10
143.103
20
-244.012
11
142.674
21
-244.012
0
LINE
8
BLACK
6
CONTINUOUS
10
142.674
20
-244.012
11
142.389
21
-243.869
0
LINE
8
BLACK
6
CONTINUOUS
10
142.389
20
-243.869
11
142.246
21
-243.583
0
LINE
8
BLACK
6
CONTINUOUS
10
142.246
20
-243.583
11
142.246
21
-243.44
0
LINE
8
BLACK
6
CONTINUOUS
10
142.246
20
-243.44
11
142.389
21
-243.154
0
LINE
8
BLACK
6
CONTINUOUS
10
142.389
20
-243.154
11
142.674
21
-243.012
0
LINE
8
BLACK
6
CONTINUOUS
10
142.674
20
-243.012
11
143.103
21
-243.012
0
LINE
8
BLACK
6
CONTINUOUS
10
143.103
20
-243.012
11
143.389
21
-243.154
0
LINE
8
BLACK
6
CONTINUOUS
10
144.531
20
-246.154
11
144.674
21
-246.012
0
LINE
8
BLACK
6
CONTINUOUS
10
144.674
20
-246.012
11
144.96
21
-245.583
0
LINE
8
BLACK
6
CONTINUOUS
10
144.96
20
-245.583
11
145.103
21
-245.297
0
LINE
8
BLACK
6
CONTINUOUS
10
145.103
20
-245.297
11
145.246
21
-244.869
0
LINE
8
BLACK
6
CONTINUOUS
10
145.246
20
-244.869
11
145.389
21
-244.154
0
LINE
8
BLACK
6
CONTINUOUS
10
145.389
20
-244.154
11
145.389
21
-243.583
0
LINE
8
BLACK
6
CONTINUOUS
10
145.389
20
-243.583
11
145.246
21
-242.869
0
LINE
8
BLACK
6
CONTINUOUS
10
145.246
20
-242.869
11
145.103
21
-242.44
0
LINE
8
BLACK
6
CONTINUOUS
10
145.103
20
-242.44
11
144.96
21
-242.154
0
LINE
8
BLACK
6
CONTINUOUS
10
144.96
20
-242.154
11
144.674
21
-241.726
0
LINE
8
BLACK
6
CONTINUOUS
10
144.674
20
-241.726
11
144.531
21
-241.583
0
LINE
8
BLACK
6
CONTINUOUS
10
76.5903
20
-248.145
11
76.5903
21
-247.084
0
LINE
8
BLACK
6
CONTINUOUS
10
76.5903
20
-247.084
11
75.5297
21
-247.084
0
LINE
8
BLACK
6
CONTINUOUS
10
75.5297
20
-247.084
11
75.5297
21
-248.145
0
LINE
8
BLACK
6
CONTINUOUS
10
75.5297
20
-248.145
11
76.5903
21
-248.145
0
LINE
8
BLACK
6
CONTINUOUS
10
81.2457
20
-248.972
11
79.5314
21
-248.972
0
LINE
8
BLACK
6
CONTINUOUS
10
80.3886
20
-248.972
11
80.3886
21
-245.972
0
LINE
8
BLACK
6
CONTINUOUS
10
80.3886
20
-245.972
11
80.1029
21
-246.4
0
LINE
8
BLACK
6
CONTINUOUS
10
80.1029
20
-246.4
11
79.8171
21
-246.686
0
LINE
8
BLACK
6
CONTINUOUS
10
79.8171
20
-246.686
11
79.5314
21
-246.829
0
LINE
8
BLACK
6
CONTINUOUS
10
82.5314
20
-248.686
11
82.6743
21
-248.829
0
LINE
8
BLACK
6
CONTINUOUS
10
82.6743
20
-248.829
11
82.5314
21
-248.972
0
LINE
8
BLACK
6
CONTINUOUS
10
82.5314
20
-248.972
11
82.3886
21
-248.829
0
LINE
8
BLACK
6
CONTINUOUS
10
82.3886
20
-248.829
11
82.5314
21
-248.686
0
LINE
8
BLACK
6
CONTINUOUS
10
82.5314
20
-248.686
11
82.5314
21
-248.972
0
LINE
8
BLACK
6
CONTINUOUS
10
85.3886
20
-245.972
11
83.96
21
-245.972
0
LINE
8
BLACK
6
CONTINUOUS
10
83.96
20
-245.972
11
83.8171
21
-247.4
0
LINE
8
BLACK
6
CONTINUOUS
10
83.8171
20
-247.4
11
83.96
21
-247.257
0
LINE
8
BLACK
6
CONTINUOUS
10
83.96
20
-247.257
11
84.2457
21
-247.114
0
LINE
8
BLACK
6
CONTINUOUS
10
84.2457
20
-247.114
11
84.96
21
-247.114
0
LINE
8
BLACK
6
CONTINUOUS
10
84.96
20
-247.114
11
85.2457
21
-247.257
0
LINE
8
BLACK
6
CONTINUOUS
10
85.2457
20
-247.257
11
85.3886
21
-247.4
0
LINE
8
BLACK
6
CONTINUOUS
10
85.3886
20
-247.4
11
85.5314
21
-247.686
0
LINE
8
BLACK
6
CONTINUOUS
10
85.5314
20
-247.686
11
85.5314
21
-248.4
0
LINE
8
BLACK
6
CONTINUOUS
10
85.5314
20
-248.4
11
85.3886
21
-248.686
0
LINE
8
BLACK
6
CONTINUOUS
10
85.3886
20
-248.686
11
85.2457
21
-248.829
0
LINE
8
BLACK
6
CONTINUOUS
10
85.2457
20
-248.829
11
84.96
21
-248.972
0
LINE
8
BLACK
6
CONTINUOUS
10
84.96
20
-248.972
11
84.2457
21
-248.972
0
LINE
8
BLACK
6
CONTINUOUS
10
84.2457
20
-248.972
11
83.96
21
-248.829
0
LINE
8
BLACK
6
CONTINUOUS
10
83.96
20
-248.829
11
83.8171
21
-248.686
0
LINE
8
BLACK
6
CONTINUOUS
10
87.3886
20
-245.972
11
87.6743
21
-245.972
0
LINE
8
BLACK
6
CONTINUOUS
10
87.6743
20
-245.972
11
87.96
21
-246.114
0
LINE
8
BLACK
6
CONTINUOUS
10
87.96
20
-246.114
11
88.1029
21
-246.257
0
LINE
8
BLACK
6
CONTINUOUS
10
88.1029
20
-246.257
11
88.2457
21
-246.543
0
LINE
8
BLACK
6
CONTINUOUS
10
88.2457
20
-246.543
11
88.3886
21
-247.114
0
LINE
8
BLACK
6
CONTINUOUS
10
88.3886
20
-247.114
11
88.3886
21
-247.829
0
LINE
8
BLACK
6
CONTINUOUS
10
88.3886
20
-247.829
11
88.2457
21
-248.4
0
LINE
8
BLACK
6
CONTINUOUS
10
88.2457
20
-248.4
11
88.1029
21
-248.686
0
LINE
8
BLACK
6
CONTINUOUS
10
88.1029
20
-248.686
11
87.96
21
-248.829
0
LINE
8
BLACK
6
CONTINUOUS
10
87.96
20
-248.829
11
87.6743
21
-248.972
0
LINE
8
BLACK
6
CONTINUOUS
10
87.6743
20
-248.972
11
87.3886
21
-248.972
0
LINE
8
BLACK
6
CONTINUOUS
10
87.3886
20
-248.972
11
87.1029
21
-248.829
0
LINE
8
BLACK
6
CONTINUOUS
10
87.1029
20
-248.829
11
86.96
21
-248.686
0
LINE
8
BLACK
6
CONTINUOUS
10
86.96
20
-248.686
11
86.8171
21
-248.4
0
LINE
8
BLACK
6
CONTINUOUS
10
86.8171
20
-248.4
11
86.6743
21
-247.829
0
LINE
8
BLACK
6
CONTINUOUS
10
86.6743
20
-247.829
11
86.6743
21
-247.114
0
LINE
8
BLACK
6
CONTINUOUS
10
86.6743
20
-247.114
11
86.8171
21
-246.543
0
LINE
8
BLACK
6
CONTINUOUS
10
86.8171
20
-246.543
11
86.96
21
-246.257
0
LINE
8
BLACK
6
CONTINUOUS
10
86.96
20
-246.257
11
87.1029
21
-246.114
0
LINE
8
BLACK
6
CONTINUOUS
10
87.1029
20
-246.114
11
87.3886
21
-245.972
0
LINE
8
BLACK
6
CONTINUOUS
10
89.6743
20
-248.972
11
89.6743
21
-246.972
0
LINE
8
BLACK
6
CONTINUOUS
10
89.6743
20
-247.257
11
89.8171
21
-247.114
0
LINE
8
BLACK
6
CONTINUOUS
10
89.8171
20
-247.114
11
90.1029
21
-246.972
0
LINE
8
BLACK
6
CONTINUOUS
10
90.1029
20
-246.972
11
90.5314
21
-246.972
0
LINE
8
BLACK
6
CONTINUOUS
10
90.5314
20
-246.972
11
90.8171
21
-247.114
0
LINE
8
BLACK
6
CONTINUOUS
10
90.8171
20
-247.114
11
90.96
21
-247.4
0
LINE
8
BLACK
6
CONTINUOUS
10
90.96
20
-247.4
11
90.96
21
-248.972
0
LINE
8
BLACK
6
CONTINUOUS
10
90.96
20
-247.4
11
91.1029
21
-247.114
0
LINE
8
BLACK
6
CONTINUOUS
10
91.1029
20
-247.114
11
91.3886
21
-246.972
0
LINE
8
BLACK
6
CONTINUOUS
10
91.3886
20
-246.972
11
91.8171
21
-246.972
0
LINE
8
BLACK
6
CONTINUOUS
10
91.8171
20
-246.972
11
92.1029
21
-247.114
0
LINE
8
BLACK
6
CONTINUOUS
10
92.1029
20
-247.114
11
92.2457
21
-247.4
0
LINE
8
BLACK
6
CONTINUOUS
10
92.2457
20
-247.4
11
92.2457
21
-248.972
0
LINE
8
BLACK
6
CONTINUOUS
10
93.6743
20
-248.972
11
93.6743
21
-246.972
0
LINE
8
BLACK
6
CONTINUOUS
10
93.6743
20
-247.257
11
93.8171
21
-247.114
0
LINE
8
BLACK
6
CONTINUOUS
10
93.8171
20
-247.114
11
94.1029
21
-246.972
0
LINE
8
BLACK
6
CONTINUOUS
10
94.1029
20
-246.972
11
94.5314
21
-246.972
0
LINE
8
BLACK
6
CONTINUOUS
10
94.5314
20
-246.972
11
94.8171
21
-247.114
0
LINE
8
BLACK
6
CONTINUOUS
10
94.8171
20
-247.114
11
94.96
21
-247.4
0
LINE
8
BLACK
6
CONTINUOUS
10
94.96
20
-247.4
11
94.96
21
-248.972
0
LINE
8
BLACK
6
CONTINUOUS
10
94.96
20
-247.4
11
95.1029
21
-247.114
0
LINE
8
BLACK
6
CONTINUOUS
10
95.1029
20
-247.114
11
95.3886
21
-246.972
0
LINE
8
BLACK
6
CONTINUOUS
10
95.3886
20
-246.972
11
95.8171
21
-246.972
0
LINE
8
BLACK
6
CONTINUOUS
10
95.8171
20
-246.972
11
96.1029
21
-247.114
0
LINE
8
BLACK
6
CONTINUOUS
10
96.1029
20
-247.114
11
96.2457
21
-247.4
0
LINE
8
BLACK
6
CONTINUOUS
10
96.2457
20
-247.4
11
96.2457
21
-248.972
0
LINE
8
BLACK
6
CONTINUOUS
10
102.103
20
-245.829
11
99.5314
21
-249.686
0
LINE
8
BLACK
6
CONTINUOUS
10
105.96
20
-245.972
11
106.246
21
-245.972
0
LINE
8
BLACK
6
CONTINUOUS
10
106.246
20
-245.972
11
106.531
21
-246.114
0
LINE
8
BLACK
6
CONTINUOUS
10
106.531
20
-246.114
11
106.674
21
-246.257
0
LINE
8
BLACK
6
CONTINUOUS
10
106.674
20
-246.257
11
106.817
21
-246.543
0
LINE
8
BLACK
6
CONTINUOUS
10
106.817
20
-246.543
11
106.96
21
-247.114
0
LINE
8
BLACK
6
CONTINUOUS
10
106.96
20
-247.114
11
106.96
21
-247.829
0
LINE
8
BLACK
6
CONTINUOUS
10
106.96
20
-247.829
11
106.817
21
-248.4
0
LINE
8
BLACK
6
CONTINUOUS
10
106.817
20
-248.4
11
106.674
21
-248.686
0
LINE
8
BLACK
6
CONTINUOUS
10
106.674
20
-248.686
11
106.531
21
-248.829
0
LINE
8
BLACK
6
CONTINUOUS
10
106.531
20
-248.829
11
106.246
21
-248.972
0
LINE
8
BLACK
6
CONTINUOUS
10
106.246
20
-248.972
11
105.96
21
-248.972
0
LINE
8
BLACK
6
CONTINUOUS
10
105.96
20
-248.972
11
105.674
21
-248.829
0
LINE
8
BLACK
6
CONTINUOUS
10
105.674
20
-248.829
11
105.531
21
-248.686
0
LINE
8
BLACK
6
CONTINUOUS
10
105.531
20
-248.686
11
105.389
21
-248.4
0
LINE
8
BLACK
6
CONTINUOUS
10
105.389
20
-248.4
11
105.246
21
-247.829
0
LINE
8
BLACK
6
CONTINUOUS
10
105.246
20
-247.829
11
105.246
21
-247.114
0
LINE
8
BLACK
6
CONTINUOUS
10
105.246
20
-247.114
11
105.389
21
-246.543
0
LINE
8
BLACK
6
CONTINUOUS
10
105.389
20
-246.543
11
105.531
21
-246.257
0
LINE
8
BLACK
6
CONTINUOUS
10
105.531
20
-246.257
11
105.674
21
-246.114
0
LINE
8
BLACK
6
CONTINUOUS
10
105.674
20
-246.114
11
105.96
21
-245.972
0
LINE
8
BLACK
6
CONTINUOUS
10
108.246
20
-248.686
11
108.389
21
-248.829
0
LINE
8
BLACK
6
CONTINUOUS
10
108.389
20
-248.829
11
108.246
21
-248.972
0
LINE
8
BLACK
6
CONTINUOUS
10
108.246
20
-248.972
11
108.103
21
-248.829
0
LINE
8
BLACK
6
CONTINUOUS
10
108.103
20
-248.829
11
108.246
21
-248.686
0
LINE
8
BLACK
6
CONTINUOUS
10
108.246
20
-248.686
11
108.246
21
-248.972
0
LINE
8
BLACK
6
CONTINUOUS
10
110.246
20
-245.972
11
110.531
21
-245.972
0
LINE
8
BLACK
6
CONTINUOUS
10
110.531
20
-245.972
11
110.817
21
-246.114
0
LINE
8
BLACK
6
CONTINUOUS
10
110.817
20
-246.114
11
110.96
21
-246.257
0
LINE
8
BLACK
6
CONTINUOUS
10
110.96
20
-246.257
11
111.103
21
-246.543
0
LINE
8
BLACK
6
CONTINUOUS
10
111.103
20
-246.543
11
111.246
21
-247.114
0
LINE
8
BLACK
6
CONTINUOUS
10
111.246
20
-247.114
11
111.246
21
-247.829
0
LINE
8
BLACK
6
CONTINUOUS
10
111.246
20
-247.829
11
111.103
21
-248.4
0
LINE
8
BLACK
6
CONTINUOUS
10
111.103
20
-248.4
11
110.96
21
-248.686
0
LINE
8
BLACK
6
CONTINUOUS
10
110.96
20
-248.686
11
110.817
21
-248.829
0
LINE
8
BLACK
6
CONTINUOUS
10
110.817
20
-248.829
11
110.531
21
-248.972
0
LINE
8
BLACK
6
CONTINUOUS
10
110.531
20
-248.972
11
110.246
21
-248.972
0
LINE
8
BLACK
6
CONTINUOUS
10
110.246
20
-248.972
11
109.96
21
-248.829
0
LINE
8
BLACK
6
CONTINUOUS
10
109.96
20
-248.829
11
109.817
21
-248.686
0
LINE
8
BLACK
6
CONTINUOUS
10
109.817
20
-248.686
11
109.674
21
-248.4
0
LINE
8
BLACK
6
CONTINUOUS
10
109.674
20
-248.4
11
109.531
21
-247.829
0
LINE
8
BLACK
6
CONTINUOUS
10
109.531
20
-247.829
11
109.531
21
-247.114
0
LINE
8
BLACK
6
CONTINUOUS
10
109.531
20
-247.114
11
109.674
21
-246.543
0
LINE
8
BLACK
6
CONTINUOUS
10
109.674
20
-246.543
11
109.817
21
-246.257
0
LINE
8
BLACK
6
CONTINUOUS
10
109.817
20
-246.257
11
109.96
21
-246.114
0
LINE
8
BLACK
6
CONTINUOUS
10
109.96
20
-246.114
11
110.246
21
-245.972
0
LINE
8
BLACK
6
CONTINUOUS
10
113.96
20
-245.972
11
112.531
21
-245.972
0
LINE
8
BLACK
6
CONTINUOUS
10
112.531
20
-245.972
11
112.389
21
-247.4
0
LINE
8
BLACK
6
CONTINUOUS
10
112.389
20
-247.4
11
112.531
21
-247.257
0
LINE
8
BLACK
6
CONTINUOUS
10
112.531
20
-247.257
11
112.817
21
-247.114
0
LINE
8
BLACK
6
CONTINUOUS
10
112.817
20
-247.114
11
113.531
21
-247.114
0
LINE
8
BLACK
6
CONTINUOUS
10
113.531
20
-247.114
11
113.817
21
-247.257
0
LINE
8
BLACK
6
CONTINUOUS
10
113.817
20
-247.257
11
113.96
21
-247.4
0
LINE
8
BLACK
6
CONTINUOUS
10
113.96
20
-247.4
11
114.103
21
-247.686
0
LINE
8
BLACK
6
CONTINUOUS
10
114.103
20
-247.686
11
114.103
21
-248.4
0
LINE
8
BLACK
6
CONTINUOUS
10
114.103
20
-248.4
11
113.96
21
-248.686
0
LINE
8
BLACK
6
CONTINUOUS
10
113.96
20
-248.686
11
113.817
21
-248.829
0
LINE
8
BLACK
6
CONTINUOUS
10
113.817
20
-248.829
11
113.531
21
-248.972
0
LINE
8
BLACK
6
CONTINUOUS
10
113.531
20
-248.972
11
112.817
21
-248.972
0
LINE
8
BLACK
6
CONTINUOUS
10
112.817
20
-248.972
11
112.531
21
-248.829
0
LINE
8
BLACK
6
CONTINUOUS
10
112.531
20
-248.829
11
112.389
21
-248.686
0
LINE
8
BLACK
6
CONTINUOUS
10
115.531
20
-248.972
11
116.103
21
-248.972
0
LINE
8
BLACK
6
CONTINUOUS
10
116.103
20
-248.972
11
116.389
21
-248.829
0
LINE
8
BLACK
6
CONTINUOUS
10
116.389
20
-248.829
11
116.531
21
-248.686
0
LINE
8
BLACK
6
CONTINUOUS
10
116.531
20
-248.686
11
116.817
21
-248.257
0
LINE
8
BLACK
6
CONTINUOUS
10
116.817
20
-248.257
11
116.96
21
-247.686
0
LINE
8
BLACK
6
CONTINUOUS
10
116.96
20
-247.686
11
116.96
21
-246.543
0
LINE
8
BLACK
6
CONTINUOUS
10
116.96
20
-246.543
11
116.817
21
-246.257
0
LINE
8
BLACK
6
CONTINUOUS
10
116.817
20
-246.257
11
116.674
21
-246.114
0
LINE
8
BLACK
6
CONTINUOUS
10
116.674
20
-246.114
11
116.389
21
-245.972
0
LINE
8
BLACK
6
CONTINUOUS
10
116.389
20
-245.972
11
115.817
21
-245.972
0
LINE
8
BLACK
6
CONTINUOUS
10
115.817
20
-245.972
11
115.531
21
-246.114
0
LINE
8
BLACK
6
CONTINUOUS
10
115.531
20
-246.114
11
115.389
21
-246.257
0
LINE
8
BLACK
6
CONTINUOUS
10
115.389
20
-246.257
11
115.246
21
-246.543
0
LINE
8
BLACK
6
CONTINUOUS
10
115.246
20
-246.543
11
115.246
21
-247.257
0
LINE
8
BLACK
6
CONTINUOUS
10
115.246
20
-247.257
11
115.389
21
-247.543
0
LINE
8
BLACK
6
CONTINUOUS
10
115.389
20
-247.543
11
115.531
21
-247.686
0
LINE
8
BLACK
6
CONTINUOUS
10
115.531
20
-247.686
11
115.817
21
-247.829
0
LINE
8
BLACK
6
CONTINUOUS
10
115.817
20
-247.829
11
116.389
21
-247.829
0
LINE
8
BLACK
6
CONTINUOUS
10
116.389
20
-247.829
11
116.674
21
-247.686
0
LINE
8
BLACK
6
CONTINUOUS
10
116.674
20
-247.686
11
116.817
21
-247.543
0
LINE
8
BLACK
6
CONTINUOUS
10
116.817
20
-247.543
11
116.96
21
-247.257
0
LINE
8
BLACK
6
CONTINUOUS
10
118.103
20
-245.972
11
118.103
21
-246.543
0
LINE
8
BLACK
6
CONTINUOUS
10
119.246
20
-245.972
11
119.246
21
-246.543
0
LINE
8
BLACK
6
CONTINUOUS
10
123.674
20
-250.114
11
123.531
21
-249.972
0
LINE
8
BLACK
6
CONTINUOUS
10
123.531
20
-249.972
11
123.246
21
-249.543
0
LINE
8
BLACK
6
CONTINUOUS
10
123.246
20
-249.543
11
123.103
21
-249.257
0
LINE
8
BLACK
6
CONTINUOUS
10
123.103
20
-249.257
11
122.96
21
-248.829
0
LINE
8
BLACK
6
CONTINUOUS
10
122.96
20
-248.829
11
122.817
21
-248.114
0
LINE
8
BLACK
6
CONTINUOUS
10
122.817
20
-248.114
11
122.817
21
-247.543
0
LINE
8
BLACK
6
CONTINUOUS
10
122.817
20
-247.543
11
122.96
21
-246.829
0
LINE
8
BLACK
6
CONTINUOUS
10
122.96
20
-246.829
11
123.103
21
-246.4
0
LINE
8
BLACK
6
CONTINUOUS
10
123.103
20
-246.4
11
123.246
21
-246.114
0
LINE
8
BLACK
6
CONTINUOUS
10
123.246
20
-246.114
11
123.531
21
-245.686
0
LINE
8
BLACK
6
CONTINUOUS
10
123.531
20
-245.686
11
123.674
21
-245.543
0
LINE
8
BLACK
6
CONTINUOUS
10
125.389
20
-245.972
11
125.674
21
-245.972
0
LINE
8
BLACK
6
CONTINUOUS
10
125.674
20
-245.972
11
125.96
21
-246.114
0
LINE
8
BLACK
6
CONTINUOUS
10
125.96
20
-246.114
11
126.103
21
-246.257
0
LINE
8
BLACK
6
CONTINUOUS
10
126.103
20
-246.257
11
126.246
21
-246.543
0
LINE
8
BLACK
6
CONTINUOUS
10
126.246
20
-246.543
11
126.389
21
-247.114
0
LINE
8
BLACK
6
CONTINUOUS
10
126.389
20
-247.114
11
126.389
21
-247.829
0
LINE
8
BLACK
6
CONTINUOUS
10
126.389
20
-247.829
11
126.246
21
-248.4
0
LINE
8
BLACK
6
CONTINUOUS
10
126.246
20
-248.4
11
126.103
21
-248.686
0
LINE
8
BLACK
6
CONTINUOUS
10
126.103
20
-248.686
11
125.96
21
-248.829
0
LINE
8
BLACK
6
CONTINUOUS
10
125.96
20
-248.829
11
125.674
21
-248.972
0
LINE
8
BLACK
6
CONTINUOUS
10
125.674
20
-248.972
11
125.389
21
-248.972
0
LINE
8
BLACK
6
CONTINUOUS
10
125.389
20
-248.972
11
125.103
21
-248.829
0
LINE
8
BLACK
6
CONTINUOUS
10
125.103
20
-248.829
11
124.96
21
-248.686
0
LINE
8
BLACK
6
CONTINUOUS
10
124.96
20
-248.686
11
124.817
21
-248.4
0
LINE
8
BLACK
6
CONTINUOUS
10
124.817
20
-248.4
11
124.674
21
-247.829
0
LINE
8
BLACK
6
CONTINUOUS
10
124.674
20
-247.829
11
124.674
21
-247.114
0
LINE
8
BLACK
6
CONTINUOUS
10
124.674
20
-247.114
11
124.817
21
-246.543
0
LINE
8
BLACK
6
CONTINUOUS
10
124.817
20
-246.543
11
124.96
21
-246.257
0
LINE
8
BLACK
6
CONTINUOUS
10
124.96
20
-246.257
11
125.103
21
-246.114
0
LINE
8
BLACK
6
CONTINUOUS
10
125.103
20
-246.114
11
125.389
21
-245.972
0
LINE
8
BLACK
6
CONTINUOUS
10
129.96
20
-248.972
11
129.96
21
-245.972
0
LINE
8
BLACK
6
CONTINUOUS
10
131.246
20
-248.972
11
131.246
21
-247.4
0
LINE
8
BLACK
6
CONTINUOUS
10
131.246
20
-247.4
11
131.103
21
-247.114
0
LINE
8
BLACK
6
CONTINUOUS
10
131.103
20
-247.114
11
130.817
21
-246.972
0
LINE
8
BLACK
6
CONTINUOUS
10
130.817
20
-246.972
11
130.389
21
-246.972
0
LINE
8
BLACK
6
CONTINUOUS
10
130.389
20
-246.972
11
130.103
21
-247.114
0
LINE
8
BLACK
6
CONTINUOUS
10
130.103
20
-247.114
11
129.96
21
-247.257
0
LINE
8
BLACK
6
CONTINUOUS
10
133.103
20
-248.972
11
132.817
21
-248.829
0
LINE
8
BLACK
6
CONTINUOUS
10
132.817
20
-248.829
11
132.674
21
-248.686
0
LINE
8
BLACK
6
CONTINUOUS
10
132.674
20
-248.686
11
132.531
21
-248.4
0
LINE
8
BLACK
6
CONTINUOUS
10
132.531
20
-248.4
11
132.531
21
-247.543
0
LINE
8
BLACK
6
CONTINUOUS
10
132.531
20
-247.543
11
132.674
21
-247.257
0
LINE
8
BLACK
6
CONTINUOUS
10
132.674
20
-247.257
11
132.817
21
-247.114
0
LINE
8
BLACK
6
CONTINUOUS
10
132.817
20
-247.114
11
133.103
21
-246.972
0
LINE
8
BLACK
6
CONTINUOUS
10
133.103
20
-246.972
11
133.531
21
-246.972
0
LINE
8
BLACK
6
CONTINUOUS
10
133.531
20
-246.972
11
133.817
21
-247.114
0
LINE
8
BLACK
6
CONTINUOUS
10
133.817
20
-247.114
11
133.96
21
-247.257
0
LINE
8
BLACK
6
CONTINUOUS
10
133.96
20
-247.257
11
134.103
21
-247.543
0
LINE
8
BLACK
6
CONTINUOUS
10
134.103
20
-247.543
11
134.103
21
-248.4
0
LINE
8
BLACK
6
CONTINUOUS
10
134.103
20
-248.4
11
133.96
21
-248.686
0
LINE
8
BLACK
6
CONTINUOUS
10
133.96
20
-248.686
11
133.817
21
-248.829
0
LINE
8
BLACK
6
CONTINUOUS
10
133.817
20
-248.829
11
133.531
21
-248.972
0
LINE
8
BLACK
6
CONTINUOUS
10
133.531
20
-248.972
11
133.103
21
-248.972
0
LINE
8
BLACK
6
CONTINUOUS
10
135.817
20
-248.972
11
135.531
21
-248.829
0
LINE
8
BLACK
6
CONTINUOUS
10
135.531
20
-248.829
11
135.389
21
-248.543
0
LINE
8
BLACK
6
CONTINUOUS
10
135.389
20
-248.543
11
135.389
21
-245.972
0
LINE
8
BLACK
6
CONTINUOUS
10
138.103
20
-248.829
11
137.817
21
-248.972
0
LINE
8
BLACK
6
CONTINUOUS
10
137.817
20
-248.972
11
137.246
21
-248.972
0
LINE
8
BLACK
6
CONTINUOUS
10
137.246
20
-248.972
11
136.96
21
-248.829
0
LINE
8
BLACK
6
CONTINUOUS
10
136.96
20
-248.829
11
136.817
21
-248.543
0
LINE
8
BLACK
6
CONTINUOUS
10
136.817
20
-248.543
11
136.817
21
-247.4
0
LINE
8
BLACK
6
CONTINUOUS
10
136.817
20
-247.4
11
136.96
21
-247.114
0
LINE
8
BLACK
6
CONTINUOUS
10
136.96
20
-247.114
11
137.246
21
-246.972
0
LINE
8
BLACK
6
CONTINUOUS
10
137.246
20
-246.972
11
137.817
21
-246.972
0
LINE
8
BLACK
6
CONTINUOUS
10
137.817
20
-246.972
11
138.103
21
-247.114
0
LINE
8
BLACK
6
CONTINUOUS
10
138.103
20
-247.114
11
138.246
21
-247.4
0
LINE
8
BLACK
6
CONTINUOUS
10
138.246
20
-247.4
11
138.246
21
-247.686
0
LINE
8
BLACK
6
CONTINUOUS
10
138.246
20
-247.686
11
136.817
21
-247.972
0
LINE
8
BLACK
6
CONTINUOUS
10
139.389
20
-248.829
11
139.674
21
-248.972
0
LINE
8
BLACK
6
CONTINUOUS
10
139.674
20
-248.972
11
140.246
21
-248.972
0
LINE
8
BLACK
6
CONTINUOUS
10
140.246
20
-248.972
11
140.531
21
-248.829
0
LINE
8
BLACK
6
CONTINUOUS
10
140.531
20
-248.829
11
140.674
21
-248.543
0
LINE
8
BLACK
6
CONTINUOUS
10
140.674
20
-248.543
11
140.674
21
-248.4
0
LINE
8
BLACK
6
CONTINUOUS
10
140.674
20
-248.4
11
140.531
21
-248.114
0
LINE
8
BLACK
6
CONTINUOUS
10
140.531
20
-248.114
11
140.246
21
-247.972
0
LINE
8
BLACK
6
CONTINUOUS
10
140.246
20
-247.972
11
139.817
21
-247.972
0
LINE
8
BLACK
6
CONTINUOUS
10
139.817
20
-247.972
11
139.531
21
-247.829
0
LINE
8
BLACK
6
CONTINUOUS
10
139.531
20
-247.829
11
139.389
21
-247.543
0
LINE
8
BLACK
6
CONTINUOUS
10
139.389
20
-247.543
11
139.389
21
-247.4
0
LINE
8
BLACK
6
CONTINUOUS
10
139.389
20
-247.4
11
139.531
21
-247.114
0
LINE
8
BLACK
6
CONTINUOUS
10
139.531
20
-247.114
11
139.817
21
-246.972
0
LINE
8
BLACK
6
CONTINUOUS
10
139.817
20
-246.972
11
140.246
21
-246.972
0
LINE
8
BLACK
6
CONTINUOUS
10
140.246
20
-246.972
11
140.531
21
-247.114
0
LINE
8
BLACK
6
CONTINUOUS
10
144.246
20
-247.829
11
146.531
21
-247.829
0
LINE
8
BLACK
6
CONTINUOUS
10
145.389
20
-248.972
11
145.389
21
-246.686
0
LINE
8
BLACK
6
CONTINUOUS
10
150.103
20
-246.257
11
150.246
21
-246.114
0
LINE
8
BLACK
6
CONTINUOUS
10
150.246
20
-246.114
11
150.531
21
-245.972
0
LINE
8
BLACK
6
CONTINUOUS
10
150.531
20
-245.972
11
151.246
21
-245.972
0
LINE
8
BLACK
6
CONTINUOUS
10
151.246
20
-245.972
11
151.531
21
-246.114
0
LINE
8
BLACK
6
CONTINUOUS
10
151.531
20
-246.114
11
151.674
21
-246.257
0
LINE
8
BLACK
6
CONTINUOUS
10
151.674
20
-246.257
11
151.817
21
-246.543
0
LINE
8
BLACK
6
CONTINUOUS
10
151.817
20
-246.543
11
151.817
21
-246.829
0
LINE
8
BLACK
6
CONTINUOUS
10
151.817
20
-246.829
11
151.674
21
-247.257
0
LINE
8
BLACK
6
CONTINUOUS
10
151.674
20
-247.257
11
149.96
21
-248.972
0
LINE
8
BLACK
6
CONTINUOUS
10
149.96
20
-248.972
11
151.817
21
-248.972
0
LINE
8
BLACK
6
CONTINUOUS
10
155.246
20
-248.829
11
155.531
21
-248.972
0
LINE
8
BLACK
6
CONTINUOUS
10
155.531
20
-248.972
11
156.103
21
-248.972
0
LINE
8
BLACK
6
CONTINUOUS
10
156.103
20
-248.972
11
156.389
21
-248.829
0
LINE
8
BLACK
6
CONTINUOUS
10
156.389
20
-248.829
11
156.531
21
-248.543
0
LINE
8
BLACK
6
CONTINUOUS
10
156.531
20
-248.543
11
156.531
21
-248.4
0
LINE
8
BLACK
6
CONTINUOUS
10
156.531
20
-248.4
11
156.389
21
-248.114
0
LINE
8
BLACK
6
CONTINUOUS
10
156.389
20
-248.114
11
156.103
21
-247.972
0
LINE
8
BLACK
6
CONTINUOUS
10
156.103
20
-247.972
11
155.674
21
-247.972
0
LINE
8
BLACK
6
CONTINUOUS
10
155.674
20
-247.972
11
155.389
21
-247.829
0
LINE
8
BLACK
6
CONTINUOUS
10
155.389
20
-247.829
11
155.246
21
-247.543
0
LINE
8
BLACK
6
CONTINUOUS
10
155.246
20
-247.543
11
155.246
21
-247.4
0
LINE
8
BLACK
6
CONTINUOUS
10
155.246
20
-247.4
11
155.389
21
-247.114
0
LINE
8
BLACK
6
CONTINUOUS
10
155.389
20
-247.114
11
155.674
21
-246.972
0
LINE
8
BLACK
6
CONTINUOUS
10
155.674
20
-246.972
11
156.103
21
-246.972
0
LINE
8
BLACK
6
CONTINUOUS
10
156.103
20
-246.972
11
156.389
21
-247.114
0
LINE
8
BLACK
6
CONTINUOUS
10
158.246
20
-248.972
11
157.96
21
-248.829
0
LINE
8
BLACK
6
CONTINUOUS
10
157.96
20
-248.829
11
157.817
21
-248.543
0
LINE
8
BLACK
6
CONTINUOUS
10
157.817
20
-248.543
11
157.817
21
-245.972
0
LINE
8
BLACK
6
CONTINUOUS
10
159.817
20
-248.972
11
159.531
21
-248.829
0
LINE
8
BLACK
6
CONTINUOUS
10
159.531
20
-248.829
11
159.389
21
-248.686
0
LINE
8
BLACK
6
CONTINUOUS
10
159.389
20
-248.686
11
159.246
21
-248.4
0
LINE
8
BLACK
6
CONTINUOUS
10
159.246
20
-248.4
11
159.246
21
-247.543
0
LINE
8
BLACK
6
CONTINUOUS
10
159.246
20
-247.543
11
159.389
21
-247.257
0
LINE
8
BLACK
6
CONTINUOUS
10
159.389
20
-247.257
11
159.531
21
-247.114
0
LINE
8
BLACK
6
CONTINUOUS
10
159.531
20
-247.114
11
159.817
21
-246.972
0
LINE
8
BLACK
6
CONTINUOUS
10
159.817
20
-246.972
11
160.246
21
-246.972
0
LINE
8
BLACK
6
CONTINUOUS
10
160.246
20
-246.972
11
160.531
21
-247.114
0
LINE
8
BLACK
6
CONTINUOUS
10
160.531
20
-247.114
11
160.674
21
-247.257
0
LINE
8
BLACK
6
CONTINUOUS
10
160.674
20
-247.257
11
160.817
21
-247.543
0
LINE
8
BLACK
6
CONTINUOUS
10
160.817
20
-247.543
11
160.817
21
-248.4
0
LINE
8
BLACK
6
CONTINUOUS
10
160.817
20
-248.4
11
160.674
21
-248.686
0
LINE
8
BLACK
6
CONTINUOUS
10
160.674
20
-248.686
11
160.531
21
-248.829
0
LINE
8
BLACK
6
CONTINUOUS
10
160.531
20
-248.829
11
160.246
21
-248.972
0
LINE
8
BLACK
6
CONTINUOUS
10
160.246
20
-248.972
11
159.817
21
-248.972
0
LINE
8
BLACK
6
CONTINUOUS
10
161.674
20
-246.972
11
162.817
21
-246.972
0
LINE
8
BLACK
6
CONTINUOUS
10
162.103
20
-245.972
11
162.103
21
-248.543
0
LINE
8
BLACK
6
CONTINUOUS
10
162.103
20
-248.543
11
162.246
21
-248.829
0
LINE
8
BLACK
6
CONTINUOUS
10
162.246
20
-248.829
11
162.531
21
-248.972
0
LINE
8
BLACK
6
CONTINUOUS
10
162.531
20
-248.972
11
162.817
21
-248.972
0
LINE
8
BLACK
6
CONTINUOUS
10
163.674
20
-248.829
11
163.96
21
-248.972
0
LINE
8
BLACK
6
CONTINUOUS
10
163.96
20
-248.972
11
164.531
21
-248.972
0
LINE
8
BLACK
6
CONTINUOUS
10
164.531
20
-248.972
11
164.817
21
-248.829
0
LINE
8
BLACK
6
CONTINUOUS
10
164.817
20
-248.829
11
164.96
21
-248.543
0
LINE
8
BLACK
6
CONTINUOUS
10
164.96
20
-248.543
11
164.96
21
-248.4
0
LINE
8
BLACK
6
CONTINUOUS
10
164.96
20
-248.4
11
164.817
21
-248.114
0
LINE
8
BLACK
6
CONTINUOUS
10
164.817
20
-248.114
11
164.531
21
-247.972
0
LINE
8
BLACK
6
CONTINUOUS
10
164.531
20
-247.972
11
164.103
21
-247.972
0
LINE
8
BLACK
6
CONTINUOUS
10
164.103
20
-247.972
11
163.817
21
-247.829
0
LINE
8
BLACK
6
CONTINUOUS
10
163.817
20
-247.829
11
163.674
21
-247.543
0
LINE
8
BLACK
6
CONTINUOUS
10
163.674
20
-247.543
11
163.674
21
-247.4
0
LINE
8
BLACK
6
CONTINUOUS
10
163.674
20
-247.4
11
163.817
21
-247.114
0
LINE
8
BLACK
6
CONTINUOUS
10
163.817
20
-247.114
11
164.103
21
-246.972
0
LINE
8
BLACK
6
CONTINUOUS
10
164.103
20
-246.972
11
164.531
21
-246.972
0
LINE
8
BLACK
6
CONTINUOUS
10
164.531
20
-246.972
11
164.817
21
-247.114
0
LINE
8
BLACK
6
CONTINUOUS
10
165.96
20
-250.114
11
166.103
21
-249.972
0
LINE
8
BLACK
6
CONTINUOUS
10
166.103
20
-249.972
11
166.389
21
-249.543
0
LINE
8
BLACK
6
CONTINUOUS
10
166.389
20
-249.543
11
166.531
21
-249.257
0
LINE
8
BLACK
6
CONTINUOUS
10
166.531
20
-249.257
11
166.674
21
-248.829
0
LINE
8
BLACK
6
CONTINUOUS
10
166.674
20
-248.829
11
166.817
21
-248.114
0
LINE
8
BLACK
6
CONTINUOUS
10
166.817
20
-248.114
11
166.817
21
-247.543
0
LINE
8
BLACK
6
CONTINUOUS
10
166.817
20
-247.543
11
166.674
21
-246.829
0
LINE
8
BLACK
6
CONTINUOUS
10
166.674
20
-246.829
11
166.531
21
-246.4
0
LINE
8
BLACK
6
CONTINUOUS
10
166.531
20
-246.4
11
166.389
21
-246.114
0
LINE
8
BLACK
6
CONTINUOUS
10
166.389
20
-246.114
11
166.103
21
-245.686
0
LINE
8
BLACK
6
CONTINUOUS
10
166.103
20
-245.686
11
165.96
21
-245.543
0
LINE
8
BLACK
6
CONTINUOUS
10
75.21
20
-253.174
11
76.81
21
-251.574
0
LINE
8
BLACK
6
CONTINUOUS
10
76.81
20
-251.574
11
75.21
21
-249.974
0
LINE
8
BLACK
6
CONTINUOUS
10
75.21
20
-249.974
11
73.61
21
-251.574
0
LINE
8
BLACK
6
CONTINUOUS
10
73.61
20
-251.574
11
75.21
21
-253.174
0
LINE
8
BLACK
6
CONTINUOUS
10
79.3886
20
-249.932
11
81.2457
21
-249.932
0
LINE
8
BLACK
6
CONTINUOUS
10
81.2457
20
-249.932
11
80.2457
21
-251.074
0
LINE
8
BLACK
6
CONTINUOUS
10
80.2457
20
-251.074
11
80.6743
21
-251.074
0
LINE
8
BLACK
6
CONTINUOUS
10
80.6743
20
-251.074
11
80.96
21
-251.217
0
LINE
8
BLACK
6
CONTINUOUS
10
80.96
20
-251.217
11
81.1029
21
-251.36
0
LINE
8
BLACK
6
CONTINUOUS
10
81.1029
20
-251.36
11
81.2457
21
-251.646
0
LINE
8
BLACK
6
CONTINUOUS
10
81.2457
20
-251.646
11
81.2457
21
-252.36
0
LINE
8
BLACK
6
CONTINUOUS
10
81.2457
20
-252.36
11
81.1029
21
-252.646
0
LINE
8
BLACK
6
CONTINUOUS
10
81.1029
20
-252.646
11
80.96
21
-252.789
0
LINE
8
BLACK
6
CONTINUOUS
10
80.96
20
-252.789
11
80.6743
21
-252.932
0
LINE
8
BLACK
6
CONTINUOUS
10
80.6743
20
-252.932
11
79.8171
21
-252.932
0
LINE
8
BLACK
6
CONTINUOUS
10
79.8171
20
-252.932
11
79.5314
21
-252.789
0
LINE
8
BLACK
6
CONTINUOUS
10
79.5314
20
-252.789
11
79.3886
21
-252.646
0
LINE
8
BLACK
6
CONTINUOUS
10
82.5314
20
-252.646
11
82.6743
21
-252.789
0
LINE
8
BLACK
6
CONTINUOUS
10
82.6743
20
-252.789
11
82.5314
21
-252.932
0
LINE
8
BLACK
6
CONTINUOUS
10
82.5314
20
-252.932
11
82.3886
21
-252.789
0
LINE
8
BLACK
6
CONTINUOUS
10
82.3886
20
-252.789
11
82.5314
21
-252.646
0
LINE
8
BLACK
6
CONTINUOUS
10
82.5314
20
-252.646
11
82.5314
21
-252.932
0
LINE
8
BLACK
6
CONTINUOUS
10
83.8171
20
-250.217
11
83.96
21
-250.074
0
LINE
8
BLACK
6
CONTINUOUS
10
83.96
20
-250.074
11
84.2457
21
-249.932
0
LINE
8
BLACK
6
CONTINUOUS
10
84.2457
20
-249.932
11
84.96
21
-249.932
0
LINE
8
BLACK
6
CONTINUOUS
10
84.96
20
-249.932
11
85.2457
21
-250.074
0
LINE
8
BLACK
6
CONTINUOUS
10
85.2457
20
-250.074
11
85.3886
21
-250.217
0
LINE
8
BLACK
6
CONTINUOUS
10
85.3886
20
-250.217
11
85.5314
21
-250.503
0
LINE
8
BLACK
6
CONTINUOUS
10
85.5314
20
-250.503
11
85.5314
21
-250.789
0
LINE
8
BLACK
6
CONTINUOUS
10
85.5314
20
-250.789
11
85.3886
21
-251.217
0
LINE
8
BLACK
6
CONTINUOUS
10
85.3886
20
-251.217
11
83.6743
21
-252.932
0
LINE
8
BLACK
6
CONTINUOUS
10
83.6743
20
-252.932
11
85.5314
21
-252.932
0
LINE
8
BLACK
6
CONTINUOUS
10
87.3886
20
-249.932
11
87.6743
21
-249.932
0
LINE
8
BLACK
6
CONTINUOUS
10
87.6743
20
-249.932
11
87.96
21
-250.074
0
LINE
8
BLACK
6
CONTINUOUS
10
87.96
20
-250.074
11
88.1029
21
-250.217
0
LINE
8
BLACK
6
CONTINUOUS
10
88.1029
20
-250.217
11
88.2457
21
-250.503
0
LINE
8
BLACK
6
CONTINUOUS
10
88.2457
20
-250.503
11
88.3886
21
-251.074
0
LINE
8
BLACK
6
CONTINUOUS
10
88.3886
20
-251.074
11
88.3886
21
-251.789
0
LINE
8
BLACK
6
CONTINUOUS
10
88.3886
20
-251.789
11
88.2457
21
-252.36
0
LINE
8
BLACK
6
CONTINUOUS
10
88.2457
20
-252.36
11
88.1029
21
-252.646
0
LINE
8
BLACK
6
CONTINUOUS
10
88.1029
20
-252.646
11
87.96
21
-252.789
0
LINE
8
BLACK
6
CONTINUOUS
10
87.96
20
-252.789
11
87.6743
21
-252.932
0
LINE
8
BLACK
6
CONTINUOUS
10
87.6743
20
-252.932
11
87.3886
21
-252.932
0
LINE
8
BLACK
6
CONTINUOUS
10
87.3886
20
-252.932
11
87.1029
21
-252.789
0
LINE
8
BLACK
6
CONTINUOUS
10
87.1029
20
-252.789
11
86.96
21
-252.646
0
LINE
8
BLACK
6
CONTINUOUS
10
86.96
20
-252.646
11
86.8171
21
-252.36
0
LINE
8
BLACK
6
CONTINUOUS
10
86.8171
20
-252.36
11
86.6743
21
-251.789
0
LINE
8
BLACK
6
CONTINUOUS
10
86.6743
20
-251.789
11
86.6743
21
-251.074
0
LINE
8
BLACK
6
CONTINUOUS
10
86.6743
20
-251.074
11
86.8171
21
-250.503
0
LINE
8
BLACK
6
CONTINUOUS
10
86.8171
20
-250.503
11
86.96
21
-250.217
0
LINE
8
BLACK
6
CONTINUOUS
10
86.96
20
-250.217
11
87.1029
21
-250.074
0
LINE
8
BLACK
6
CONTINUOUS
10
87.1029
20
-250.074
11
87.3886
21
-249.932
0
LINE
8
BLACK
6
CONTINUOUS
10
89.6743
20
-252.932
11
89.6743
21
-250.932
0
LINE
8
BLACK
6
CONTINUOUS
10
89.6743
20
-251.217
11
89.8171
21
-251.074
0
LINE
8
BLACK
6
CONTINUOUS
10
89.8171
20
-251.074
11
90.1029
21
-250.932
0
LINE
8
BLACK
6
CONTINUOUS
10
90.1029
20
-250.932
11
90.5314
21
-250.932
0
LINE
8
BLACK
6
CONTINUOUS
10
90.5314
20
-250.932
11
90.8171
21
-251.074
0
LINE
8
BLACK
6
CONTINUOUS
10
90.8171
20
-251.074
11
90.96
21
-251.36
0
LINE
8
BLACK
6
CONTINUOUS
10
90.96
20
-251.36
11
90.96
21
-252.932
0
LINE
8
BLACK
6
CONTINUOUS
10
90.96
20
-251.36
11
91.1029
21
-251.074
0
LINE
8
BLACK
6
CONTINUOUS
10
91.1029
20
-251.074
11
91.3886
21
-250.932
0
LINE
8
BLACK
6
CONTINUOUS
10
91.3886
20
-250.932
11
91.8171
21
-250.932
0
LINE
8
BLACK
6
CONTINUOUS
10
91.8171
20
-250.932
11
92.1029
21
-251.074
0
LINE
8
BLACK
6
CONTINUOUS
10
92.1029
20
-251.074
11
92.2457
21
-251.36
0
LINE
8
BLACK
6
CONTINUOUS
10
92.2457
20
-251.36
11
92.2457
21
-252.932
0
LINE
8
BLACK
6
CONTINUOUS
10
93.6743
20
-252.932
11
93.6743
21
-250.932
0
LINE
8
BLACK
6
CONTINUOUS
10
93.6743
20
-251.217
11
93.8171
21
-251.074
0
LINE
8
BLACK
6
CONTINUOUS
10
93.8171
20
-251.074
11
94.1029
21
-250.932
0
LINE
8
BLACK
6
CONTINUOUS
10
94.1029
20
-250.932
11
94.5314
21
-250.932
0
LINE
8
BLACK
6
CONTINUOUS
10
94.5314
20
-250.932
11
94.8171
21
-251.074
0
LINE
8
BLACK
6
CONTINUOUS
10
94.8171
20
-251.074
11
94.96
21
-251.36
0
LINE
8
BLACK
6
CONTINUOUS
10
94.96
20
-251.36
11
94.96
21
-252.932
0
LINE
8
BLACK
6
CONTINUOUS
10
94.96
20
-251.36
11
95.1029
21
-251.074
0
LINE
8
BLACK
6
CONTINUOUS
10
95.1029
20
-251.074
11
95.3886
21
-250.932
0
LINE
8
BLACK
6
CONTINUOUS
10
95.3886
20
-250.932
11
95.8171
21
-250.932
0
LINE
8
BLACK
6
CONTINUOUS
10
95.8171
20
-250.932
11
96.1029
21
-251.074
0
LINE
8
BLACK
6
CONTINUOUS
10
96.1029
20
-251.074
11
96.2457
21
-251.36
0
LINE
8
BLACK
6
CONTINUOUS
10
96.2457
20
-251.36
11
96.2457
21
-252.932
0
LINE
8
BLACK
6
CONTINUOUS
10
102.103
20
-249.789
11
99.5314
21
-253.646
0
LINE
8
BLACK
6
CONTINUOUS
10
105.96
20
-249.932
11
106.246
21
-249.932
0
LINE
8
BLACK
6
CONTINUOUS
10
106.246
20
-249.932
11
106.531
21
-250.074
0
LINE
8
BLACK
6
CONTINUOUS
10
106.531
20
-250.074
11
106.674
21
-250.217
0
LINE
8
BLACK
6
CONTINUOUS
10
106.674
20
-250.217
11
106.817
21
-250.503
0
LINE
8
BLACK
6
CONTINUOUS
10
106.817
20
-250.503
11
106.96
21
-251.074
0
LINE
8
BLACK
6
CONTINUOUS
10
106.96
20
-251.074
11
106.96
21
-251.789
0
LINE
8
BLACK
6
CONTINUOUS
10
106.96
20
-251.789
11
106.817
21
-252.36
0
LINE
8
BLACK
6
CONTINUOUS
10
106.817
20
-252.36
11
106.674
21
-252.646
0
LINE
8
BLACK
6
CONTINUOUS
10
106.674
20
-252.646
11
106.531
21
-252.789
0
LINE
8
BLACK
6
CONTINUOUS
10
106.531
20
-252.789
11
106.246
21
-252.932
0
LINE
8
BLACK
6
CONTINUOUS
10
106.246
20
-252.932
11
105.96
21
-252.932
0
LINE
8
BLACK
6
CONTINUOUS
10
105.96
20
-252.932
11
105.674
21
-252.789
0
LINE
8
BLACK
6
CONTINUOUS
10
105.674
20
-252.789
11
105.531
21
-252.646
0
LINE
8
BLACK
6
CONTINUOUS
10
105.531
20
-252.646
11
105.389
21
-252.36
0
LINE
8
BLACK
6
CONTINUOUS
10
105.389
20
-252.36
11
105.246
21
-251.789
0
LINE
8
BLACK
6
CONTINUOUS
10
105.246
20
-251.789
11
105.246
21
-251.074
0
LINE
8
BLACK
6
CONTINUOUS
10
105.246
20
-251.074
11
105.389
21
-250.503
0
LINE
8
BLACK
6
CONTINUOUS
10
105.389
20
-250.503
11
105.531
21
-250.217
0
LINE
8
BLACK
6
CONTINUOUS
10
105.531
20
-250.217
11
105.674
21
-250.074
0
LINE
8
BLACK
6
CONTINUOUS
10
105.674
20
-250.074
11
105.96
21
-249.932
0
LINE
8
BLACK
6
CONTINUOUS
10
108.246
20
-252.646
11
108.389
21
-252.789
0
LINE
8
BLACK
6
CONTINUOUS
10
108.389
20
-252.789
11
108.246
21
-252.932
0
LINE
8
BLACK
6
CONTINUOUS
10
108.246
20
-252.932
11
108.103
21
-252.789
0
LINE
8
BLACK
6
CONTINUOUS
10
108.103
20
-252.789
11
108.246
21
-252.646
0
LINE
8
BLACK
6
CONTINUOUS
10
108.246
20
-252.646
11
108.246
21
-252.932
0
LINE
8
BLACK
6
CONTINUOUS
10
111.246
20
-252.932
11
109.531
21
-252.932
0
LINE
8
BLACK
6
CONTINUOUS
10
110.389
20
-252.932
11
110.389
21
-249.932
0
LINE
8
BLACK
6
CONTINUOUS
10
110.389
20
-249.932
11
110.103
21
-250.36
0
LINE
8
BLACK
6
CONTINUOUS
10
110.103
20
-250.36
11
109.817
21
-250.646
0
LINE
8
BLACK
6
CONTINUOUS
10
109.817
20
-250.646
11
109.531
21
-250.789
0
LINE
8
BLACK
6
CONTINUOUS
10
112.389
20
-250.217
11
112.531
21
-250.074
0
LINE
8
BLACK
6
CONTINUOUS
10
112.531
20
-250.074
11
112.817
21
-249.932
0
LINE
8
BLACK
6
CONTINUOUS
10
112.817
20
-249.932
11
113.531
21
-249.932
0
LINE
8
BLACK
6
CONTINUOUS
10
113.531
20
-249.932
11
113.817
21
-250.074
0
LINE
8
BLACK
6
CONTINUOUS
10
113.817
20
-250.074
11
113.96
21
-250.217
0
LINE
8
BLACK
6
CONTINUOUS
10
113.96
20
-250.217
11
114.103
21
-250.503
0
LINE
8
BLACK
6
CONTINUOUS
10
114.103
20
-250.503
11
114.103
21
-250.789
0
LINE
8
BLACK
6
CONTINUOUS
10
114.103
20
-250.789
11
113.96
21
-251.217
0
LINE
8
BLACK
6
CONTINUOUS
10
113.96
20
-251.217
11
112.246
21
-252.932
0
LINE
8
BLACK
6
CONTINUOUS
10
112.246
20
-252.932
11
114.103
21
-252.932
0
LINE
8
BLACK
6
CONTINUOUS
10
116.674
20
-249.932
11
116.103
21
-249.932
0
LINE
8
BLACK
6
CONTINUOUS
10
116.103
20
-249.932
11
115.817
21
-250.074
0
LINE
8
BLACK
6
CONTINUOUS
10
115.817
20
-250.074
11
115.674
21
-250.217
0
LINE
8
BLACK
6
CONTINUOUS
10
115.674
20
-250.217
11
115.389
21
-250.646
0
LINE
8
BLACK
6
CONTINUOUS
10
115.389
20
-250.646
11
115.246
21
-251.217
0
LINE
8
BLACK
6
CONTINUOUS
10
115.246
20
-251.217
11
115.246
21
-252.36
0
LINE
8
BLACK
6
CONTINUOUS
10
115.246
20
-252.36
11
115.389
21
-252.646
0
LINE
8
BLACK
6
CONTINUOUS
10
115.389
20
-252.646
11
115.531
21
-252.789
0
LINE
8
BLACK
6
CONTINUOUS
10
115.531
20
-252.789
11
115.817
21
-252.932
0
LINE
8
BLACK
6
CONTINUOUS
10
115.817
20
-252.932
11
116.389
21
-252.932
0
LINE
8
BLACK
6
CONTINUOUS
10
116.389
20
-252.932
11
116.674
21
-252.789
0
LINE
8
BLACK
6
CONTINUOUS
10
116.674
20
-252.789
11
116.817
21
-252.646
0
LINE
8
BLACK
6
CONTINUOUS
10
116.817
20
-252.646
11
116.96
21
-252.36
0
LINE
8
BLACK
6
CONTINUOUS
10
116.96
20
-252.36
11
116.96
21
-251.646
0
LINE
8
BLACK
6
CONTINUOUS
10
116.96
20
-251.646
11
116.817
21
-251.36
0
LINE
8
BLACK
6
CONTINUOUS
10
116.817
20
-251.36
11
116.674
21
-251.217
0
LINE
8
BLACK
6
CONTINUOUS
10
116.674
20
-251.217
11
116.389
21
-251.074
0
LINE
8
BLACK
6
CONTINUOUS
10
116.389
20
-251.074
11
115.817
21
-251.074
0
LINE
8
BLACK
6
CONTINUOUS
10
115.817
20
-251.074
11
115.531
21
-251.217
0
LINE
8
BLACK
6
CONTINUOUS
10
115.531
20
-251.217
11
115.389
21
-251.36
0
LINE
8
BLACK
6
CONTINUOUS
10
115.389
20
-251.36
11
115.246
21
-251.646
0
LINE
8
BLACK
6
CONTINUOUS
10
118.103
20
-249.932
11
118.103
21
-250.503
0
LINE
8
BLACK
6
CONTINUOUS
10
119.246
20
-249.932
11
119.246
21
-250.503
0
LINE
8
BLACK
6
CONTINUOUS
10
123.674
20
-254.074
11
123.531
21
-253.932
0
LINE
8
BLACK
6
CONTINUOUS
10
123.531
20
-253.932
11
123.246
21
-253.503
0
LINE
8
BLACK
6
CONTINUOUS
10
123.246
20
-253.503
11
123.103
21
-253.217
0
LINE
8
BLACK
6
CONTINUOUS
10
123.103
20
-253.217
11
122.96
21
-252.789
0
LINE
8
BLACK
6
CONTINUOUS
10
122.96
20
-252.789
11
122.817
21
-252.074
0
LINE
8
BLACK
6
CONTINUOUS
10
122.817
20
-252.074
11
122.817
21
-251.503
0
LINE
8
BLACK
6
CONTINUOUS
10
122.817
20
-251.503
11
122.96
21
-250.789
0
LINE
8
BLACK
6
CONTINUOUS
10
122.96
20
-250.789
11
123.103
21
-250.36
0
LINE
8
BLACK
6
CONTINUOUS
10
123.103
20
-250.36
11
123.246
21
-250.074
0
LINE
8
BLACK
6
CONTINUOUS
10
123.246
20
-250.074
11
123.531
21
-249.646
0
LINE
8
BLACK
6
CONTINUOUS
10
123.531
20
-249.646
11
123.674
21
-249.503
0
LINE
8
BLACK
6
CONTINUOUS
10
126.389
20
-252.932
11
124.674
21
-252.932
0
LINE
8
BLACK
6
CONTINUOUS
10
125.531
20
-252.932
11
125.531
21
-249.932
0
LINE
8
BLACK
6
CONTINUOUS
10
125.531
20
-249.932
11
125.246
21
-250.36
0
LINE
8
BLACK
6
CONTINUOUS
10
125.246
20
-250.36
11
124.96
21
-250.646
0
LINE
8
BLACK
6
CONTINUOUS
10
124.96
20
-250.646
11
124.674
21
-250.789
0
LINE
8
BLACK
6
CONTINUOUS
10
128.246
20
-249.932
11
128.531
21
-249.932
0
LINE
8
BLACK
6
CONTINUOUS
10
128.531
20
-249.932
11
128.817
21
-250.074
0
LINE
8
BLACK
6
CONTINUOUS
10
128.817
20
-250.074
11
128.96
21
-250.217
0
LINE
8
BLACK
6
CONTINUOUS
10
128.96
20
-250.217
11
129.103
21
-250.503
0
LINE
8
BLACK
6
CONTINUOUS
10
129.103
20
-250.503
11
129.246
21
-251.074
0
LINE
8
BLACK
6
CONTINUOUS
10
129.246
20
-251.074
11
129.246
21
-251.789
0
LINE
8
BLACK
6
CONTINUOUS
10
129.246
20
-251.789
11
129.103
21
-252.36
0
LINE
8
BLACK
6
CONTINUOUS
10
129.103
20
-252.36
11
128.96
21
-252.646
0
LINE
8
BLACK
6
CONTINUOUS
10
128.96
20
-252.646
11
128.817
21
-252.789
0
LINE
8
BLACK
6
CONTINUOUS
10
128.817
20
-252.789
11
128.531
21
-252.932
0
LINE
8
BLACK
6
CONTINUOUS
10
128.531
20
-252.932
11
128.246
21
-252.932
0
LINE
8
BLACK
6
CONTINUOUS
10
128.246
20
-252.932
11
127.96
21
-252.789
0
LINE
8
BLACK
6
CONTINUOUS
10
127.96
20
-252.789
11
127.817
21
-252.646
0
LINE
8
BLACK
6
CONTINUOUS
10
127.817
20
-252.646
11
127.674
21
-252.36
0
LINE
8
BLACK
6
CONTINUOUS
10
127.674
20
-252.36
11
127.531
21
-251.789
0
LINE
8
BLACK
6
CONTINUOUS
10
127.531
20
-251.789
11
127.531
21
-251.074
0
LINE
8
BLACK
6
CONTINUOUS
10
127.531
20
-251.074
11
127.674
21
-250.503
0
LINE
8
BLACK
6
CONTINUOUS
10
127.674
20
-250.503
11
127.817
21
-250.217
0
LINE
8
BLACK
6
CONTINUOUS
10
127.817
20
-250.217
11
127.96
21
-250.074
0
LINE
8
BLACK
6
CONTINUOUS
10
127.96
20
-250.074
11
128.246
21
-249.932
0
LINE
8
BLACK
6
CONTINUOUS
10
132.817
20
-252.932
11
132.817
21
-249.932
0
LINE
8
BLACK
6
CONTINUOUS
10
134.103
20
-252.932
11
134.103
21
-251.36
0
LINE
8
BLACK
6
CONTINUOUS
10
134.103
20
-251.36
11
133.96
21
-251.074
0
LINE
8
BLACK
6
CONTINUOUS
10
133.96
20
-251.074
11
133.674
21
-250.932
0
LINE
8
BLACK
6
CONTINUOUS
10
133.674
20
-250.932
11
133.246
21
-250.932
0
LINE
8
BLACK
6
CONTINUOUS
10
133.246
20
-250.932
11
132.96
21
-251.074
0
LINE
8
BLACK
6
CONTINUOUS
10
132.96
20
-251.074
11
132.817
21
-251.217
0
LINE
8
BLACK
6
CONTINUOUS
10
135.96
20
-252.932
11
135.674
21
-252.789
0
LINE
8
BLACK
6
CONTINUOUS
10
135.674
20
-252.789
11
135.531
21
-252.646
0
LINE
8
BLACK
6
CONTINUOUS
10
135.531
20
-252.646
11
135.389
21
-252.36
0
LINE
8
BLACK
6
CONTINUOUS
10
135.389
20
-252.36
11
135.389
21
-251.503
0
LINE
8
BLACK
6
CONTINUOUS
10
135.389
20
-251.503
11
135.531
21
-251.217
0
LINE
8
BLACK
6
CONTINUOUS
10
135.531
20
-251.217
11
135.674
21
-251.074
0
LINE
8
BLACK
6
CONTINUOUS
10
135.674
20
-251.074
11
135.96
21
-250.932
0
LINE
8
BLACK
6
CONTINUOUS
10
135.96
20
-250.932
11
136.389
21
-250.932
0
LINE
8
BLACK
6
CONTINUOUS
10
136.389
20
-250.932
11
136.674
21
-251.074
0
LINE
8
BLACK
6
CONTINUOUS
10
136.674
20
-251.074
11
136.817
21
-251.217
0
LINE
8
BLACK
6
CONTINUOUS
10
136.817
20
-251.217
11
136.96
21
-251.503
0
LINE
8
BLACK
6
CONTINUOUS
10
136.96
20
-251.503
11
136.96
21
-252.36
0
LINE
8
BLACK
6
CONTINUOUS
10
136.96
20
-252.36
11
136.817
21
-252.646
0
LINE
8
BLACK
6
CONTINUOUS
10
136.817
20
-252.646
11
136.674
21
-252.789
0
LINE
8
BLACK
6
CONTINUOUS
10
136.674
20
-252.789
11
136.389
21
-252.932
0
LINE
8
BLACK
6
CONTINUOUS
10
136.389
20
-252.932
11
135.96
21
-252.932
0
LINE
8
BLACK
6
CONTINUOUS
10
138.674
20
-252.932
11
138.389
21
-252.789
0
LINE
8
BLACK
6
CONTINUOUS
10
138.389
20
-252.789
11
138.246
21
-252.503
0
LINE
8
BLACK
6
CONTINUOUS
10
138.246
20
-252.503
11
138.246
21
-249.932
0
LINE
8
BLACK
6
CONTINUOUS
10
140.96
20
-252.789
11
140.674
21
-252.932
0
LINE
8
BLACK
6
CONTINUOUS
10
140.674
20
-252.932
11
140.103
21
-252.932
0
LINE
8
BLACK
6
CONTINUOUS
10
140.103
20
-252.932
11
139.817
21
-252.789
0
LINE
8
BLACK
6
CONTINUOUS
10
139.817
20
-252.789
11
139.674
21
-252.503
0
LINE
8
BLACK
6
CONTINUOUS
10
139.674
20
-252.503
11
139.674
21
-251.36
0
LINE
8
BLACK
6
CONTINUOUS
10
139.674
20
-251.36
11
139.817
21
-251.074
0
LINE
8
BLACK
6
CONTINUOUS
10
139.817
20
-251.074
11
140.103
21
-250.932
0
LINE
8
BLACK
6
CONTINUOUS
10
140.103
20
-250.932
11
140.674
21
-250.932
0
LINE
8
BLACK
6
CONTINUOUS
10
140.674
20
-250.932
11
140.96
21
-251.074
0
LINE
8
BLACK
6
CONTINUOUS
10
140.96
20
-251.074
11
141.103
21
-251.36
0
LINE
8
BLACK
6
CONTINUOUS
10
141.103
20
-251.36
11
141.103
21
-251.646
0
LINE
8
BLACK
6
CONTINUOUS
10
141.103
20
-251.646
11
139.674
21
-251.932
0
LINE
8
BLACK
6
CONTINUOUS
10
142.246
20
-252.789
11
142.531
21
-252.932
0
LINE
8
BLACK
6
CONTINUOUS
10
142.531
20
-252.932
11
143.103
21
-252.932
0
LINE
8
BLACK
6
CONTINUOUS
10
143.103
20
-252.932
11
143.389
21
-252.789
0
LINE
8
BLACK
6
CONTINUOUS
10
143.389
20
-252.789
11
143.531
21
-252.503
0
LINE
8
BLACK
6
CONTINUOUS
10
143.531
20
-252.503
11
143.531
21
-252.36
0
LINE
8
BLACK
6
CONTINUOUS
10
143.531
20
-252.36
11
143.389
21
-252.074
0
LINE
8
BLACK
6
CONTINUOUS
10
143.389
20
-252.074
11
143.103
21
-251.932
0
LINE
8
BLACK
6
CONTINUOUS
10
143.103
20
-251.932
11
142.674
21
-251.932
0
LINE
8
BLACK
6
CONTINUOUS
10
142.674
20
-251.932
11
142.389
21
-251.789
0
LINE
8
BLACK
6
CONTINUOUS
10
142.389
20
-251.789
11
142.246
21
-251.503
0
LINE
8
BLACK
6
CONTINUOUS
10
142.246
20
-251.503
11
142.246
21
-251.36
0
LINE
8
BLACK
6
CONTINUOUS
10
142.246
20
-251.36
11
142.389
21
-251.074
0
LINE
8
BLACK
6
CONTINUOUS
10
142.389
20
-251.074
11
142.674
21
-250.932
0
LINE
8
BLACK
6
CONTINUOUS
10
142.674
20
-250.932
11
143.103
21
-250.932
0
LINE
8
BLACK
6
CONTINUOUS
10
143.103
20
-250.932
11
143.389
21
-251.074
0
LINE
8
BLACK
6
CONTINUOUS
10
144.531
20
-254.074
11
144.674
21
-253.932
0
LINE
8
BLACK
6
CONTINUOUS
10
144.674
20
-253.932
11
144.96
21
-253.503
0
LINE
8
BLACK
6
CONTINUOUS
10
144.96
20
-253.503
11
145.103
21
-253.217
0
LINE
8
BLACK
6
CONTINUOUS
10
145.103
20
-253.217
11
145.246
21
-252.789
0
LINE
8
BLACK
6
CONTINUOUS
10
145.246
20
-252.789
11
145.389
21
-252.074
0
LINE
8
BLACK
6
CONTINUOUS
10
145.389
20
-252.074
11
145.389
21
-251.503
0
LINE
8
BLACK
6
CONTINUOUS
10
145.389
20
-251.503
11
145.246
21
-250.789
0
LINE
8
BLACK
6
CONTINUOUS
10
145.246
20
-250.789
11
145.103
21
-250.36
0
LINE
8
BLACK
6
CONTINUOUS
10
145.103
20
-250.36
11
144.96
21
-250.074
0
LINE
8
BLACK
6
CONTINUOUS
10
144.96
20
-250.074
11
144.674
21
-249.646
0
LINE
8
BLACK
6
CONTINUOUS
10
144.674
20
-249.646
11
144.531
21
-249.503
  0
ENDSEC
  0
EOF
