  0
SECTION
  2
HEADER
  9
$ANGBASE
  50
0.0
  9
$ANGDIR
  70
1
  9
$MEASUREMENT
  70
1
  0
ENDSEC
  0
SECTION
  2
TABLES
  0
TABLE
  2
LTYPE
  70
4
  0
LTYPE
  5
40F
  2
CONTINUOUS
  70
0
  3
Solid line
  72
65
  73
0
  40
0.0
  0
LTYPE
  5
410
  2
DASHDOT
 70
0
  3
Dash Dot ____ _ ____ _
 72
65
 73
4
 40
2.0
 49
1.25
 49
-0.25
 49
0.25
 49
-0.25
  0
LTYPE
  5
411
  2
DASHED
 70
0
  3
Dashed __ __ __ __ __
 72
65
 73
2
 40
0.75
 49
0.5
 49
-0.25
  0
LTYPE
  5
43B
  2
DOTTED
 70
0
  3
Dotted .  .  .  .
 72
65
 73
2
 40
0.2
 49
0.0
 49
-0.2
  0
ENDTAB
  0
TABLE
  2
STYLE
  70
4
  0
STYLE
  2
KICAD
  70
0
  40
0
  41
1
  42
1
  50
0
  71
0
  3
isocp.shx
  0
STYLE
  2
KICADB
  70
0
  40
0
  41
1
  42
1
  50
0
  71
0
  3
isocp.shx
  0
STYLE
  2
KICADI
  70
0
  40
0
  41
1
  42
1
  50
15
  71
0
  3
isocp.shx
  0
STYLE
  2
KICADBI
  70
0
  40
0
  41
1
  42
1
  50
15
  71
0
  3
isocp.shx
  0
ENDTAB
  0
TABLE
  2
LAYER
  70
1
  0
LAYER
  2
BLACK
  70
0
  62
7
  6
CONTINUOUS
  0
ENDTAB
  0
ENDSEC
  0
SECTION
  2
ENTITIES
0
LINE
8
BLACK
6
CONTINUOUS
10
140.335
20
-129.819
11
140.333
21
-41.0226
0
LINE
8
BLACK
6
CONTINUOUS
10
106.248
20
-165.202
11
139.399
21
-132.08
0
LINE
8
BLACK
6
CONTINUOUS
10
146.226
20
-209.677
11
106.248
21
-169.699
0
LINE
8
BLACK
6
CONTINUOUS
10
198.168
20
-162.227
11
150.724
21
-209.677
0
LINE
8
BLACK
6
CONTINUOUS
10
285.088
20
-161.317
11
200.431
21
-161.29
0
LINE
8
BLACK
6
CONTINUOUS
10
288.292
20
-41.0226
11
288.29
21
-158.115
0
LINE
8
BLACK
6
CONTINUOUS
10
143.535
20
-37.8206
11
285.09
21
-37.8206
0
ARC
8
BLACK
10
108.497
20
-167.45
40
3.18028
50
135
51
225
0
ARC
8
BLACK
10
148.475
20
-207.428
40
3.18028
50
-135
51
-45
0
ARC
8
BLACK
10
143.535
20
-41.0226
40
3.20201
50
90
51
180
0
ARC
8
BLACK
10
285.09
20
-41.0226
40
3.20201
50
-0
51
90
0
ARC
8
BLACK
10
200.431
20
-164.49
40
3.2005
50
90
51
135
0
ARC
8
BLACK
10
137.138
20
-129.819
40
3.19697
50
-45
51
-0
0
ARC
8
BLACK
10
285.088
20
-158.115
40
3.20201
50
-90
51
-0
0
LINE
8
BLACK
6
CONTINUOUS
10
130.466
20
-156.704
11
132.216
21
-158.454
0
LINE
8
BLACK
6
CONTINUOUS
10
132.216
20
-156.704
11
130.466
21
-158.454
0
LINE
8
BLACK
6
CONTINUOUS
10
137.65
20
-149.519
11
139.4
21
-151.269
0
LINE
8
BLACK
6
CONTINUOUS
10
139.4
20
-149.519
11
137.65
21
-151.269
0
LINE
8
BLACK
6
CONTINUOUS
10
241.692
20
-72.1462
11
243.442
21
-73.8962
0
LINE
8
BLACK
6
CONTINUOUS
10
243.442
20
-72.1462
11
241.692
21
-73.8962
0
LINE
8
BLACK
6
CONTINUOUS
10
251.852
20
-72.1462
11
253.602
21
-73.8962
0
LINE
8
BLACK
6
CONTINUOUS
10
253.602
20
-72.1462
11
251.852
21
-73.8962
0
LINE
8
BLACK
6
CONTINUOUS
10
165.492
20
-129.296
11
167.242
21
-131.046
0
LINE
8
BLACK
6
CONTINUOUS
10
167.242
20
-129.296
11
165.492
21
-131.046
0
LINE
8
BLACK
6
CONTINUOUS
10
175.652
20
-129.296
11
177.402
21
-131.046
0
LINE
8
BLACK
6
CONTINUOUS
10
177.402
20
-129.296
11
175.652
21
-131.046
0
LINE
8
BLACK
6
CONTINUOUS
10
164.318
20
-163.437
11
166.068
21
-165.187
0
LINE
8
BLACK
6
CONTINUOUS
10
166.068
20
-163.437
11
164.318
21
-165.187
0
LINE
8
BLACK
6
CONTINUOUS
10
171.502
20
-156.253
11
173.252
21
-158.003
0
LINE
8
BLACK
6
CONTINUOUS
10
173.252
20
-156.253
11
171.502
21
-158.003
0
LINE
8
BLACK
6
CONTINUOUS
10
265.505
20
-110.246
11
267.255
21
-111.996
0
LINE
8
BLACK
6
CONTINUOUS
10
267.255
20
-110.246
11
265.505
21
-111.996
0
LINE
8
BLACK
6
CONTINUOUS
10
275.665
20
-110.247
11
277.415
21
-111.997
0
LINE
8
BLACK
6
CONTINUOUS
10
277.415
20
-110.247
11
275.665
21
-111.997
0
LINE
8
BLACK
6
CONTINUOUS
10
146.442
20
-124.534
11
148.192
21
-126.284
0
LINE
8
BLACK
6
CONTINUOUS
10
148.192
20
-124.534
11
146.442
21
-126.284
0
LINE
8
BLACK
6
CONTINUOUS
10
156.602
20
-124.534
11
158.352
21
-126.284
0
LINE
8
BLACK
6
CONTINUOUS
10
158.352
20
-124.534
11
156.602
21
-126.284
0
LINE
8
BLACK
6
CONTINUOUS
10
203.592
20
-105.484
11
205.342
21
-107.234
0
LINE
8
BLACK
6
CONTINUOUS
10
205.342
20
-105.484
11
203.592
21
-107.234
0
LINE
8
BLACK
6
CONTINUOUS
10
213.752
20
-105.484
11
215.502
21
-107.234
0
LINE
8
BLACK
6
CONTINUOUS
10
215.502
20
-105.484
11
213.752
21
-107.234
0
LINE
8
BLACK
6
CONTINUOUS
10
165.492
20
-91.1962
11
167.242
21
-92.9462
0
LINE
8
BLACK
6
CONTINUOUS
10
167.242
20
-91.1962
11
165.492
21
-92.9462
0
LINE
8
BLACK
6
CONTINUOUS
10
175.652
20
-91.1962
11
177.402
21
-92.9462
0
LINE
8
BLACK
6
CONTINUOUS
10
177.402
20
-91.1962
11
175.652
21
-92.9462
0
LINE
8
BLACK
6
CONTINUOUS
10
222.642
20
-145.965
11
224.392
21
-147.715
0
LINE
8
BLACK
6
CONTINUOUS
10
224.392
20
-145.965
11
222.642
21
-147.715
0
LINE
8
BLACK
6
CONTINUOUS
10
232.802
20
-145.965
11
234.552
21
-147.715
0
LINE
8
BLACK
6
CONTINUOUS
10
234.552
20
-145.965
11
232.802
21
-147.715
0
LINE
8
BLACK
6
CONTINUOUS
10
184.542
20
-88.8149
11
186.292
21
-90.5649
0
LINE
8
BLACK
6
CONTINUOUS
10
186.292
20
-88.8149
11
184.542
21
-90.5649
0
LINE
8
BLACK
6
CONTINUOUS
10
194.702
20
-88.8149
11
196.452
21
-90.5649
0
LINE
8
BLACK
6
CONTINUOUS
10
196.452
20
-88.8149
11
194.702
21
-90.5649
0
LINE
8
BLACK
6
CONTINUOUS
10
146.442
20
-95.9587
11
148.192
21
-97.7087
0
LINE
8
BLACK
6
CONTINUOUS
10
148.192
20
-95.9587
11
146.442
21
-97.7087
0
LINE
8
BLACK
6
CONTINUOUS
10
156.602
20
-95.9587
11
158.352
21
-97.7087
0
LINE
8
BLACK
6
CONTINUOUS
10
158.352
20
-95.9587
11
156.602
21
-97.7087
0
LINE
8
BLACK
6
CONTINUOUS
10
165.492
20
-72.1462
11
167.242
21
-73.8962
0
LINE
8
BLACK
6
CONTINUOUS
10
167.242
20
-72.1462
11
165.492
21
-73.8962
0
LINE
8
BLACK
6
CONTINUOUS
10
175.652
20
-72.1462
11
177.402
21
-73.8962
0
LINE
8
BLACK
6
CONTINUOUS
10
177.402
20
-72.1462
11
175.652
21
-73.8962
0
LINE
8
BLACK
6
CONTINUOUS
10
241.692
20
-91.1962
11
243.442
21
-92.9462
0
LINE
8
BLACK
6
CONTINUOUS
10
243.442
20
-91.1962
11
241.692
21
-92.9462
0
LINE
8
BLACK
6
CONTINUOUS
10
251.852
20
-91.1962
11
253.602
21
-92.9462
0
LINE
8
BLACK
6
CONTINUOUS
10
253.602
20
-91.1962
11
251.852
21
-92.9462
0
LINE
8
BLACK
6
CONTINUOUS
10
184.542
20
-69.7649
11
186.292
21
-71.5149
0
LINE
8
BLACK
6
CONTINUOUS
10
186.292
20
-69.7649
11
184.542
21
-71.5149
0
LINE
8
BLACK
6
CONTINUOUS
10
194.702
20
-69.7649
11
196.452
21
-71.5149
0
LINE
8
BLACK
6
CONTINUOUS
10
196.452
20
-69.7649
11
194.702
21
-71.5149
0
LINE
8
BLACK
6
CONTINUOUS
10
222.642
20
-126.915
11
224.392
21
-128.665
0
LINE
8
BLACK
6
CONTINUOUS
10
224.392
20
-126.915
11
222.642
21
-128.665
0
LINE
8
BLACK
6
CONTINUOUS
10
232.802
20
-126.915
11
234.552
21
-128.665
0
LINE
8
BLACK
6
CONTINUOUS
10
234.552
20
-126.915
11
232.802
21
-128.665
0
LINE
8
BLACK
6
CONTINUOUS
10
241.692
20
-148.346
11
243.442
21
-150.096
0
LINE
8
BLACK
6
CONTINUOUS
10
243.442
20
-148.346
11
241.692
21
-150.096
0
LINE
8
BLACK
6
CONTINUOUS
10
251.852
20
-148.346
11
253.602
21
-150.096
0
LINE
8
BLACK
6
CONTINUOUS
10
253.602
20
-148.346
11
251.852
21
-150.096
0
LINE
8
BLACK
6
CONTINUOUS
10
241.692
20
-110.246
11
243.442
21
-111.996
0
LINE
8
BLACK
6
CONTINUOUS
10
243.442
20
-110.246
11
241.692
21
-111.996
0
LINE
8
BLACK
6
CONTINUOUS
10
251.852
20
-110.246
11
253.602
21
-111.996
0
LINE
8
BLACK
6
CONTINUOUS
10
253.602
20
-110.246
11
251.852
21
-111.996
0
LINE
8
BLACK
6
CONTINUOUS
10
203.589
20
-67.38
11
205.339
21
-69.13
0
LINE
8
BLACK
6
CONTINUOUS
10
205.339
20
-67.38
11
203.589
21
-69.13
0
LINE
8
BLACK
6
CONTINUOUS
10
213.749
20
-67.38
11
215.499
21
-69.13
0
LINE
8
BLACK
6
CONTINUOUS
10
215.499
20
-67.38
11
213.749
21
-69.13
0
LINE
8
BLACK
6
CONTINUOUS
10
222.642
20
-107.865
11
224.392
21
-109.615
0
LINE
8
BLACK
6
CONTINUOUS
10
224.392
20
-107.865
11
222.642
21
-109.615
0
LINE
8
BLACK
6
CONTINUOUS
10
232.802
20
-107.865
11
234.552
21
-109.615
0
LINE
8
BLACK
6
CONTINUOUS
10
234.552
20
-107.865
11
232.802
21
-109.615
0
LINE
8
BLACK
6
CONTINUOUS
10
265.502
20
-129.295
11
267.252
21
-131.045
0
LINE
8
BLACK
6
CONTINUOUS
10
267.252
20
-129.295
11
265.502
21
-131.045
0
LINE
8
BLACK
6
CONTINUOUS
10
275.662
20
-129.295
11
277.412
21
-131.045
0
LINE
8
BLACK
6
CONTINUOUS
10
277.412
20
-129.295
11
275.662
21
-131.045
0
LINE
8
BLACK
6
CONTINUOUS
10
203.592
20
-124.534
11
205.342
21
-126.284
0
LINE
8
BLACK
6
CONTINUOUS
10
205.342
20
-124.534
11
203.592
21
-126.284
0
LINE
8
BLACK
6
CONTINUOUS
10
213.752
20
-124.534
11
215.502
21
-126.284
0
LINE
8
BLACK
6
CONTINUOUS
10
215.502
20
-124.534
11
213.752
21
-126.284
0
LINE
8
BLACK
6
CONTINUOUS
10
150.819
20
-176.931
11
152.569
21
-178.681
0
LINE
8
BLACK
6
CONTINUOUS
10
152.569
20
-176.931
11
150.819
21
-178.681
0
LINE
8
BLACK
6
CONTINUOUS
10
158.003
20
-169.747
11
159.753
21
-171.497
0
LINE
8
BLACK
6
CONTINUOUS
10
159.753
20
-169.747
11
158.003
21
-171.497
0
LINE
8
BLACK
6
CONTINUOUS
10
203.589
20
-143.58
11
205.339
21
-145.33
0
LINE
8
BLACK
6
CONTINUOUS
10
205.339
20
-143.58
11
203.589
21
-145.33
0
LINE
8
BLACK
6
CONTINUOUS
10
213.749
20
-143.58
11
215.499
21
-145.33
0
LINE
8
BLACK
6
CONTINUOUS
10
215.499
20
-143.58
11
213.749
21
-145.33
0
LINE
8
BLACK
6
CONTINUOUS
10
130.466
20
-183.691
11
132.216
21
-185.441
0
LINE
8
BLACK
6
CONTINUOUS
10
132.216
20
-183.691
11
130.466
21
-185.441
0
LINE
8
BLACK
6
CONTINUOUS
10
137.65
20
-176.507
11
139.4
21
-178.257
0
LINE
8
BLACK
6
CONTINUOUS
10
139.4
20
-176.507
11
137.65
21
-178.257
0
LINE
8
BLACK
6
CONTINUOUS
10
222.642
20
-88.8149
11
224.392
21
-90.5649
0
LINE
8
BLACK
6
CONTINUOUS
10
224.392
20
-88.8149
11
222.642
21
-90.5649
0
LINE
8
BLACK
6
CONTINUOUS
10
232.802
20
-88.8149
11
234.552
21
-90.5649
0
LINE
8
BLACK
6
CONTINUOUS
10
234.552
20
-88.8149
11
232.802
21
-90.5649
0
LINE
8
BLACK
6
CONTINUOUS
10
265.505
20
-91.1975
11
267.255
21
-92.9475
0
LINE
8
BLACK
6
CONTINUOUS
10
267.255
20
-91.1975
11
265.505
21
-92.9475
0
LINE
8
BLACK
6
CONTINUOUS
10
275.665
20
-91.1975
11
277.415
21
-92.9475
0
LINE
8
BLACK
6
CONTINUOUS
10
277.415
20
-91.1975
11
275.665
21
-92.9475
0
LINE
8
BLACK
6
CONTINUOUS
10
143.96
20
-197.185
11
145.71
21
-198.935
0
LINE
8
BLACK
6
CONTINUOUS
10
145.71
20
-197.185
11
143.96
21
-198.935
0
LINE
8
BLACK
6
CONTINUOUS
10
151.144
20
-190.001
11
152.894
21
-191.751
0
LINE
8
BLACK
6
CONTINUOUS
10
152.894
20
-190.001
11
151.144
21
-191.751
0
LINE
8
BLACK
6
CONTINUOUS
10
184.542
20
-126.915
11
186.292
21
-128.665
0
LINE
8
BLACK
6
CONTINUOUS
10
186.292
20
-126.915
11
184.542
21
-128.665
0
LINE
8
BLACK
6
CONTINUOUS
10
194.702
20
-126.915
11
196.452
21
-128.665
0
LINE
8
BLACK
6
CONTINUOUS
10
196.452
20
-126.915
11
194.702
21
-128.665
0
LINE
8
BLACK
6
CONTINUOUS
10
222.642
20
-69.7649
11
224.392
21
-71.5149
0
LINE
8
BLACK
6
CONTINUOUS
10
224.392
20
-69.7649
11
222.642
21
-71.5149
0
LINE
8
BLACK
6
CONTINUOUS
10
232.802
20
-69.7649
11
234.552
21
-71.5149
0
LINE
8
BLACK
6
CONTINUOUS
10
234.552
20
-69.7649
11
232.802
21
-71.5149
0
LINE
8
BLACK
6
CONTINUOUS
10
165.492
20
-110.246
11
167.242
21
-111.996
0
LINE
8
BLACK
6
CONTINUOUS
10
167.242
20
-110.246
11
165.492
21
-111.996
0
LINE
8
BLACK
6
CONTINUOUS
10
175.652
20
-110.246
11
177.402
21
-111.996
0
LINE
8
BLACK
6
CONTINUOUS
10
177.402
20
-110.246
11
175.652
21
-111.996
0
LINE
8
BLACK
6
CONTINUOUS
10
146.442
20
-72.1462
11
148.192
21
-73.8962
0
LINE
8
BLACK
6
CONTINUOUS
10
148.192
20
-72.1462
11
146.442
21
-73.8962
0
LINE
8
BLACK
6
CONTINUOUS
10
156.602
20
-72.1462
11
158.352
21
-73.8962
0
LINE
8
BLACK
6
CONTINUOUS
10
158.352
20
-72.1462
11
156.602
21
-73.8962
0
LINE
8
BLACK
6
CONTINUOUS
10
265.505
20
-72.1462
11
267.255
21
-73.8962
0
LINE
8
BLACK
6
CONTINUOUS
10
267.255
20
-72.1462
11
265.505
21
-73.8962
0
LINE
8
BLACK
6
CONTINUOUS
10
275.665
20
-72.1475
11
277.415
21
-73.8975
0
LINE
8
BLACK
6
CONTINUOUS
10
277.415
20
-72.1475
11
275.665
21
-73.8975
0
LINE
8
BLACK
6
CONTINUOUS
10
116.977
20
-170.197
11
118.727
21
-171.947
0
LINE
8
BLACK
6
CONTINUOUS
10
118.727
20
-170.197
11
116.977
21
-171.947
0
LINE
8
BLACK
6
CONTINUOUS
10
124.162
20
-163.013
11
125.912
21
-164.763
0
LINE
8
BLACK
6
CONTINUOUS
10
125.912
20
-163.013
11
124.162
21
-164.763
0
LINE
8
BLACK
6
CONTINUOUS
10
260.742
20
-148.346
11
262.492
21
-150.096
0
LINE
8
BLACK
6
CONTINUOUS
10
262.492
20
-148.346
11
260.742
21
-150.096
0
LINE
8
BLACK
6
CONTINUOUS
10
270.902
20
-148.346
11
272.652
21
-150.096
0
LINE
8
BLACK
6
CONTINUOUS
10
272.652
20
-148.346
11
270.902
21
-150.096
0
LINE
8
BLACK
6
CONTINUOUS
10
184.539
20
-107.861
11
186.289
21
-109.611
0
LINE
8
BLACK
6
CONTINUOUS
10
186.289
20
-107.861
11
184.539
21
-109.611
0
LINE
8
BLACK
6
CONTINUOUS
10
194.699
20
-107.861
11
196.449
21
-109.611
0
LINE
8
BLACK
6
CONTINUOUS
10
196.449
20
-107.861
11
194.699
21
-109.611
0
LINE
8
BLACK
6
CONTINUOUS
10
203.592
20
-86.4337
11
205.342
21
-88.1837
0
LINE
8
BLACK
6
CONTINUOUS
10
205.342
20
-86.4337
11
203.592
21
-88.1837
0
LINE
8
BLACK
6
CONTINUOUS
10
213.752
20
-86.4337
11
215.502
21
-88.1837
0
LINE
8
BLACK
6
CONTINUOUS
10
215.502
20
-86.4337
11
213.752
21
-88.1837
0
LINE
8
BLACK
6
CONTINUOUS
10
184.539
20
-145.961
11
186.289
21
-147.711
0
LINE
8
BLACK
6
CONTINUOUS
10
186.289
20
-145.961
11
184.539
21
-147.711
0
LINE
8
BLACK
6
CONTINUOUS
10
194.699
20
-145.961
11
196.449
21
-147.711
0
LINE
8
BLACK
6
CONTINUOUS
10
196.449
20
-145.961
11
194.699
21
-147.711
0
LINE
8
BLACK
6
CONTINUOUS
10
241.689
20
-129.292
11
243.439
21
-131.042
0
LINE
8
BLACK
6
CONTINUOUS
10
243.439
20
-129.292
11
241.689
21
-131.042
0
LINE
8
BLACK
6
CONTINUOUS
10
251.849
20
-129.292
11
253.599
21
-131.042
0
LINE
8
BLACK
6
CONTINUOUS
10
253.599
20
-129.292
11
251.849
21
-131.042
0
CIRCLE
8
BLACK
10
207.007
20
-111.439
40
1.5
0
CIRCLE
8
BLACK
10
213.356
20
-108.899
40
1.5
0
CIRCLE
8
BLACK
10
168.907
20
-97.1525
40
1.5
0
CIRCLE
8
BLACK
10
175.256
20
-94.6113
40
1.5
0
CIRCLE
8
BLACK
10
226.057
20
-151.92
40
1.5
0
CIRCLE
8
BLACK
10
232.406
20
-149.38
40
1.5
0
CIRCLE
8
BLACK
10
187.957
20
-94.7712
40
1.5
0
CIRCLE
8
BLACK
10
194.306
20
-92.2301
40
1.5
0
CIRCLE
8
BLACK
10
149.857
20
-101.915
40
1.5
0
CIRCLE
8
BLACK
10
156.206
20
-99.3738
40
1.5
0
CIRCLE
8
BLACK
10
168.907
20
-78.1012
40
1.5
0
CIRCLE
8
BLACK
10
175.256
20
-75.5613
40
1.5
0
CIRCLE
8
BLACK
10
245.107
20
-97.1525
40
1.5
0
CIRCLE
8
BLACK
10
251.456
20
-94.6113
40
1.5
0
CIRCLE
8
BLACK
10
187.957
20
-75.7199
40
1.5
0
CIRCLE
8
BLACK
10
194.306
20
-73.1801
40
1.5
0
CIRCLE
8
BLACK
10
226.057
20
-132.871
40
1.5
0
CIRCLE
8
BLACK
10
232.406
20
-130.33
40
1.5
0
CIRCLE
8
BLACK
10
245.107
20
-154.301
40
1.5
0
CIRCLE
8
BLACK
10
251.456
20
-151.761
40
1.5
0
CIRCLE
8
BLACK
10
245.107
20
-116.201
40
1.5
0
CIRCLE
8
BLACK
10
251.456
20
-113.661
40
1.5
0
CIRCLE
8
BLACK
10
207.004
20
-73.335
40
1.5
0
CIRCLE
8
BLACK
10
213.353
20
-70.7951
40
1.5
0
CIRCLE
8
BLACK
10
226.057
20
-113.82
40
1.5
0
CIRCLE
8
BLACK
10
232.406
20
-111.28
40
1.5
0
CIRCLE
8
BLACK
10
268.917
20
-135.25
40
1.5
0
CIRCLE
8
BLACK
10
275.267
20
-132.71
40
1.5
0
CIRCLE
8
BLACK
10
207.007
20
-130.49
40
1.5
0
CIRCLE
8
BLACK
10
213.356
20
-127.949
40
1.5
0
CIRCLE
8
BLACK
10
157.082
20
-179.602
40
1.5
0
CIRCLE
8
BLACK
10
159.775
20
-173.317
40
1.5
0
CIRCLE
8
BLACK
10
207.004
20
-149.535
40
1.5
0
CIRCLE
8
BLACK
10
213.353
20
-146.995
40
1.5
0
CIRCLE
8
BLACK
10
136.73
20
-186.363
40
1.5
0
CIRCLE
8
BLACK
10
139.422
20
-180.077
40
1.5
0
CIRCLE
8
BLACK
10
226.057
20
-94.7712
40
1.5
0
CIRCLE
8
BLACK
10
232.406
20
-92.2301
40
1.5
0
CIRCLE
8
BLACK
10
268.92
20
-97.1525
40
1.5
0
CIRCLE
8
BLACK
10
275.27
20
-94.6125
40
1.5
0
CIRCLE
8
BLACK
10
150.223
20
-199.856
40
1.5
0
CIRCLE
8
BLACK
10
152.916
20
-193.571
40
1.5
0
CIRCLE
8
BLACK
10
187.957
20
-132.871
40
1.5
0
CIRCLE
8
BLACK
10
194.306
20
-130.33
40
1.5
0
CIRCLE
8
BLACK
10
226.057
20
-75.7199
40
1.5
0
CIRCLE
8
BLACK
10
232.406
20
-73.1801
40
1.5
0
CIRCLE
8
BLACK
10
168.907
20
-116.201
40
1.5
0
CIRCLE
8
BLACK
10
175.256
20
-113.661
40
1.5
0
CIRCLE
8
BLACK
10
149.857
20
-78.1012
40
1.5
0
CIRCLE
8
BLACK
10
156.206
20
-75.5613
40
1.5
0
CIRCLE
8
BLACK
10
268.92
20
-78.1025
40
1.5
0
CIRCLE
8
BLACK
10
275.269
20
-75.5613
40
1.5
0
CIRCLE
8
BLACK
10
123.241
20
-172.869
40
1.5
0
CIRCLE
8
BLACK
10
125.934
20
-166.583
40
1.5
0
CIRCLE
8
BLACK
10
264.157
20
-154.301
40
1.5
0
CIRCLE
8
BLACK
10
270.506
20
-151.761
40
1.5
0
CIRCLE
8
BLACK
10
187.954
20
-113.816
40
1.5
0
CIRCLE
8
BLACK
10
194.303
20
-111.276
40
1.5
0
CIRCLE
8
BLACK
10
207.007
20
-92.39
40
1.5
0
CIRCLE
8
BLACK
10
213.356
20
-89.8488
40
1.5
0
CIRCLE
8
BLACK
10
187.954
20
-151.916
40
1.5
0
CIRCLE
8
BLACK
10
194.303
20
-149.376
40
1.5
0
CIRCLE
8
BLACK
10
245.104
20
-135.249
40
1.5
0
CIRCLE
8
BLACK
10
251.453
20
-132.708
40
1.5
0
CIRCLE
8
BLACK
10
136.73
20
-159.376
40
1.5
0
CIRCLE
8
BLACK
10
139.422
20
-153.09
40
1.5
0
CIRCLE
8
BLACK
10
245.107
20
-78.1012
40
1.5
0
CIRCLE
8
BLACK
10
251.456
20
-75.5613
40
1.5
0
CIRCLE
8
BLACK
10
168.907
20
-135.252
40
1.5
0
CIRCLE
8
BLACK
10
175.256
20
-132.711
40
1.5
0
CIRCLE
8
BLACK
10
170.581
20
-166.108
40
1.5
0
CIRCLE
8
BLACK
10
173.274
20
-159.823
40
1.5
0
CIRCLE
8
BLACK
10
268.92
20
-116.202
40
1.5
0
CIRCLE
8
BLACK
10
275.269
20
-113.661
40
1.5
0
CIRCLE
8
BLACK
10
149.857
20
-130.49
40
1.5
0
CIRCLE
8
BLACK
10
156.206
20
-127.949
40
1.5
0
LINE
8
BLACK
6
CONTINUOUS
10
209.543
20
-66.2551
11
209.543
21
-70.2551
0
LINE
8
BLACK
6
CONTINUOUS
10
207.543
20
-68.2551
11
211.543
21
-68.2551
0
LINE
8
BLACK
6
CONTINUOUS
10
228.596
20
-106.74
11
228.596
21
-110.74
0
LINE
8
BLACK
6
CONTINUOUS
10
226.596
20
-108.74
11
230.596
21
-108.74
0
LINE
8
BLACK
6
CONTINUOUS
10
271.457
20
-128.17
11
271.457
21
-132.17
0
LINE
8
BLACK
6
CONTINUOUS
10
269.457
20
-130.17
11
273.457
21
-130.17
0
LINE
8
BLACK
6
CONTINUOUS
10
209.546
20
-123.409
11
209.546
21
-127.409
0
LINE
8
BLACK
6
CONTINUOUS
10
207.546
20
-125.409
11
211.546
21
-125.409
0
LINE
8
BLACK
6
CONTINUOUS
10
155.285
20
-172.215
11
155.285
21
-176.215
0
LINE
8
BLACK
6
CONTINUOUS
10
153.285
20
-174.215
11
157.285
21
-174.215
0
LINE
8
BLACK
6
CONTINUOUS
10
209.543
20
-142.455
11
209.543
21
-146.455
0
LINE
8
BLACK
6
CONTINUOUS
10
207.543
20
-144.455
11
211.543
21
-144.455
0
LINE
8
BLACK
6
CONTINUOUS
10
134.932
20
-178.975
11
134.932
21
-182.975
0
LINE
8
BLACK
6
CONTINUOUS
10
132.932
20
-180.975
11
136.932
21
-180.975
0
LINE
8
BLACK
6
CONTINUOUS
10
228.596
20
-87.6901
11
228.596
21
-91.6901
0
LINE
8
BLACK
6
CONTINUOUS
10
226.596
20
-89.6901
11
230.596
21
-89.6901
0
LINE
8
BLACK
6
CONTINUOUS
10
271.46
20
-90.0725
11
271.46
21
-94.0725
0
LINE
8
BLACK
6
CONTINUOUS
10
269.46
20
-92.0725
11
273.46
21
-92.0725
0
LINE
8
BLACK
6
CONTINUOUS
10
148.426
20
-192.469
11
148.426
21
-196.469
0
LINE
8
BLACK
6
CONTINUOUS
10
146.426
20
-194.469
11
150.426
21
-194.469
0
LINE
8
BLACK
6
CONTINUOUS
10
190.496
20
-125.79
11
190.496
21
-129.79
0
LINE
8
BLACK
6
CONTINUOUS
10
188.496
20
-127.79
11
192.496
21
-127.79
0
LINE
8
BLACK
6
CONTINUOUS
10
228.596
20
-68.6401
11
228.596
21
-72.6401
0
LINE
8
BLACK
6
CONTINUOUS
10
226.596
20
-70.6401
11
230.596
21
-70.6401
0
LINE
8
BLACK
6
CONTINUOUS
10
171.446
20
-109.121
11
171.446
21
-113.121
0
LINE
8
BLACK
6
CONTINUOUS
10
169.446
20
-111.121
11
173.446
21
-111.121
0
LINE
8
BLACK
6
CONTINUOUS
10
152.396
20
-71.0213
11
152.396
21
-75.0213
0
LINE
8
BLACK
6
CONTINUOUS
10
150.396
20
-73.0213
11
154.396
21
-73.0213
0
LINE
8
BLACK
6
CONTINUOUS
10
271.46
20
-71.0225
11
271.46
21
-75.0225
0
LINE
8
BLACK
6
CONTINUOUS
10
269.46
20
-73.0225
11
273.46
21
-73.0225
0
LINE
8
BLACK
6
CONTINUOUS
10
121.444
20
-165.481
11
121.444
21
-169.481
0
LINE
8
BLACK
6
CONTINUOUS
10
119.444
20
-167.481
11
123.444
21
-167.481
0
LINE
8
BLACK
6
CONTINUOUS
10
266.696
20
-147.221
11
266.696
21
-151.221
0
LINE
8
BLACK
6
CONTINUOUS
10
264.696
20
-149.221
11
268.696
21
-149.221
0
LINE
8
BLACK
6
CONTINUOUS
10
190.493
20
-106.736
11
190.493
21
-110.736
0
LINE
8
BLACK
6
CONTINUOUS
10
188.493
20
-108.736
11
192.493
21
-108.736
0
LINE
8
BLACK
6
CONTINUOUS
10
209.546
20
-85.3088
11
209.546
21
-89.3088
0
LINE
8
BLACK
6
CONTINUOUS
10
207.546
20
-87.3088
11
211.546
21
-87.3088
0
LINE
8
BLACK
6
CONTINUOUS
10
190.493
20
-144.836
11
190.493
21
-148.836
0
LINE
8
BLACK
6
CONTINUOUS
10
188.493
20
-146.836
11
192.493
21
-146.836
0
LINE
8
BLACK
6
CONTINUOUS
10
247.643
20
-128.168
11
247.643
21
-132.168
0
LINE
8
BLACK
6
CONTINUOUS
10
245.643
20
-130.168
11
249.643
21
-130.168
0
LINE
8
BLACK
6
CONTINUOUS
10
134.932
20
-151.988
11
134.932
21
-155.988
0
LINE
8
BLACK
6
CONTINUOUS
10
132.932
20
-153.988
11
136.932
21
-153.988
0
LINE
8
BLACK
6
CONTINUOUS
10
247.646
20
-71.0213
11
247.646
21
-75.0213
0
LINE
8
BLACK
6
CONTINUOUS
10
245.646
20
-73.0213
11
249.646
21
-73.0213
0
LINE
8
BLACK
6
CONTINUOUS
10
171.446
20
-128.171
11
171.446
21
-132.171
0
LINE
8
BLACK
6
CONTINUOUS
10
169.446
20
-130.171
11
173.446
21
-130.171
0
LINE
8
BLACK
6
CONTINUOUS
10
168.784
20
-158.721
11
168.784
21
-162.721
0
LINE
8
BLACK
6
CONTINUOUS
10
166.784
20
-160.721
11
170.784
21
-160.721
0
LINE
8
BLACK
6
CONTINUOUS
10
271.46
20
-109.122
11
271.46
21
-113.122
0
LINE
8
BLACK
6
CONTINUOUS
10
269.46
20
-111.122
11
273.46
21
-111.122
0
LINE
8
BLACK
6
CONTINUOUS
10
152.396
20
-123.409
11
152.396
21
-127.409
0
LINE
8
BLACK
6
CONTINUOUS
10
150.396
20
-125.409
11
154.396
21
-125.409
0
LINE
8
BLACK
6
CONTINUOUS
10
209.546
20
-104.359
11
209.546
21
-108.359
0
LINE
8
BLACK
6
CONTINUOUS
10
207.546
20
-106.359
11
211.546
21
-106.359
0
LINE
8
BLACK
6
CONTINUOUS
10
171.446
20
-90.0713
11
171.446
21
-94.0713
0
LINE
8
BLACK
6
CONTINUOUS
10
169.446
20
-92.0713
11
173.446
21
-92.0713
0
LINE
8
BLACK
6
CONTINUOUS
10
228.596
20
-144.84
11
228.596
21
-148.84
0
LINE
8
BLACK
6
CONTINUOUS
10
226.596
20
-146.84
11
230.596
21
-146.84
0
LINE
8
BLACK
6
CONTINUOUS
10
190.496
20
-87.6901
11
190.496
21
-91.6901
0
LINE
8
BLACK
6
CONTINUOUS
10
188.496
20
-89.6901
11
192.496
21
-89.6901
0
LINE
8
BLACK
6
CONTINUOUS
10
152.396
20
-94.8338
11
152.396
21
-98.8338
0
LINE
8
BLACK
6
CONTINUOUS
10
150.396
20
-96.8338
11
154.396
21
-96.8338
0
LINE
8
BLACK
6
CONTINUOUS
10
171.446
20
-71.0213
11
171.446
21
-75.0213
0
LINE
8
BLACK
6
CONTINUOUS
10
169.446
20
-73.0213
11
173.446
21
-73.0213
0
LINE
8
BLACK
6
CONTINUOUS
10
247.646
20
-90.0713
11
247.646
21
-94.0713
0
LINE
8
BLACK
6
CONTINUOUS
10
245.646
20
-92.0713
11
249.646
21
-92.0713
0
LINE
8
BLACK
6
CONTINUOUS
10
190.496
20
-68.6401
11
190.496
21
-72.6401
0
LINE
8
BLACK
6
CONTINUOUS
10
188.496
20
-70.6401
11
192.496
21
-70.6401
0
LINE
8
BLACK
6
CONTINUOUS
10
228.596
20
-125.79
11
228.596
21
-129.79
0
LINE
8
BLACK
6
CONTINUOUS
10
226.596
20
-127.79
11
230.596
21
-127.79
0
LINE
8
BLACK
6
CONTINUOUS
10
247.646
20
-147.221
11
247.646
21
-151.221
0
LINE
8
BLACK
6
CONTINUOUS
10
245.646
20
-149.221
11
249.646
21
-149.221
0
LINE
8
BLACK
6
CONTINUOUS
10
247.646
20
-109.121
11
247.646
21
-113.121
0
LINE
8
BLACK
6
CONTINUOUS
10
245.646
20
-111.121
11
249.646
21
-111.121
0
LINE
8
BLACK
6
CONTINUOUS
10
108.156
20
-215.291
11
108.156
21
-212.291
0
LINE
8
BLACK
6
CONTINUOUS
10
108.156
20
-212.291
11
108.87
21
-212.291
0
LINE
8
BLACK
6
CONTINUOUS
10
108.87
20
-212.291
11
109.299
21
-212.433
0
LINE
8
BLACK
6
CONTINUOUS
10
109.299
20
-212.433
11
109.585
21
-212.719
0
LINE
8
BLACK
6
CONTINUOUS
10
109.585
20
-212.719
11
109.727
21
-213.005
0
LINE
8
BLACK
6
CONTINUOUS
10
109.727
20
-213.005
11
109.87
21
-213.576
0
LINE
8
BLACK
6
CONTINUOUS
10
109.87
20
-213.576
11
109.87
21
-214.005
0
LINE
8
BLACK
6
CONTINUOUS
10
109.87
20
-214.005
11
109.727
21
-214.576
0
LINE
8
BLACK
6
CONTINUOUS
10
109.727
20
-214.576
11
109.585
21
-214.862
0
LINE
8
BLACK
6
CONTINUOUS
10
109.585
20
-214.862
11
109.299
21
-215.148
0
LINE
8
BLACK
6
CONTINUOUS
10
109.299
20
-215.148
11
108.87
21
-215.291
0
LINE
8
BLACK
6
CONTINUOUS
10
108.87
20
-215.291
11
108.156
21
-215.291
0
LINE
8
BLACK
6
CONTINUOUS
10
111.156
20
-215.291
11
111.156
21
-213.291
0
LINE
8
BLACK
6
CONTINUOUS
10
111.156
20
-213.862
11
111.299
21
-213.576
0
LINE
8
BLACK
6
CONTINUOUS
10
111.299
20
-213.576
11
111.442
21
-213.433
0
LINE
8
BLACK
6
CONTINUOUS
10
111.442
20
-213.433
11
111.727
21
-213.291
0
LINE
8
BLACK
6
CONTINUOUS
10
111.727
20
-213.291
11
112.013
21
-213.291
0
LINE
8
BLACK
6
CONTINUOUS
10
113.013
20
-215.291
11
113.013
21
-213.291
0
LINE
8
BLACK
6
CONTINUOUS
10
113.013
20
-212.291
11
112.87
21
-212.433
0
LINE
8
BLACK
6
CONTINUOUS
10
112.87
20
-212.433
11
113.013
21
-212.576
0
LINE
8
BLACK
6
CONTINUOUS
10
113.013
20
-212.576
11
113.156
21
-212.433
0
LINE
8
BLACK
6
CONTINUOUS
10
113.156
20
-212.433
11
113.013
21
-212.291
0
LINE
8
BLACK
6
CONTINUOUS
10
113.013
20
-212.291
11
113.013
21
-212.576
0
LINE
8
BLACK
6
CONTINUOUS
10
114.87
20
-215.291
11
114.585
21
-215.148
0
LINE
8
BLACK
6
CONTINUOUS
10
114.585
20
-215.148
11
114.442
21
-214.862
0
LINE
8
BLACK
6
CONTINUOUS
10
114.442
20
-214.862
11
114.442
21
-212.291
0
LINE
8
BLACK
6
CONTINUOUS
10
116.442
20
-215.291
11
116.156
21
-215.148
0
LINE
8
BLACK
6
CONTINUOUS
10
116.156
20
-215.148
11
116.013
21
-214.862
0
LINE
8
BLACK
6
CONTINUOUS
10
116.013
20
-214.862
11
116.013
21
-212.291
0
LINE
8
BLACK
6
CONTINUOUS
10
119.87
20
-215.291
11
119.87
21
-212.291
0
LINE
8
BLACK
6
CONTINUOUS
10
119.87
20
-212.291
11
120.87
21
-214.433
0
LINE
8
BLACK
6
CONTINUOUS
10
120.87
20
-214.433
11
121.87
21
-212.291
0
LINE
8
BLACK
6
CONTINUOUS
10
121.87
20
-212.291
11
121.87
21
-215.291
0
LINE
8
BLACK
6
CONTINUOUS
10
124.585
20
-215.291
11
124.585
21
-213.719
0
LINE
8
BLACK
6
CONTINUOUS
10
124.585
20
-213.719
11
124.442
21
-213.433
0
LINE
8
BLACK
6
CONTINUOUS
10
124.442
20
-213.433
11
124.156
21
-213.291
0
LINE
8
BLACK
6
CONTINUOUS
10
124.156
20
-213.291
11
123.585
21
-213.291
0
LINE
8
BLACK
6
CONTINUOUS
10
123.585
20
-213.291
11
123.299
21
-213.433
0
LINE
8
BLACK
6
CONTINUOUS
10
124.585
20
-215.148
11
124.299
21
-215.291
0
LINE
8
BLACK
6
CONTINUOUS
10
124.299
20
-215.291
11
123.585
21
-215.291
0
LINE
8
BLACK
6
CONTINUOUS
10
123.585
20
-215.291
11
123.299
21
-215.148
0
LINE
8
BLACK
6
CONTINUOUS
10
123.299
20
-215.148
11
123.156
21
-214.862
0
LINE
8
BLACK
6
CONTINUOUS
10
123.156
20
-214.862
11
123.156
21
-214.576
0
LINE
8
BLACK
6
CONTINUOUS
10
123.156
20
-214.576
11
123.299
21
-214.291
0
LINE
8
BLACK
6
CONTINUOUS
10
123.299
20
-214.291
11
123.585
21
-214.148
0
LINE
8
BLACK
6
CONTINUOUS
10
123.585
20
-214.148
11
124.299
21
-214.148
0
LINE
8
BLACK
6
CONTINUOUS
10
124.299
20
-214.148
11
124.585
21
-214.005
0
LINE
8
BLACK
6
CONTINUOUS
10
126.013
20
-213.291
11
126.013
21
-216.291
0
LINE
8
BLACK
6
CONTINUOUS
10
126.013
20
-213.433
11
126.299
21
-213.291
0
LINE
8
BLACK
6
CONTINUOUS
10
126.299
20
-213.291
11
126.87
21
-213.291
0
LINE
8
BLACK
6
CONTINUOUS
10
126.87
20
-213.291
11
127.156
21
-213.433
0
LINE
8
BLACK
6
CONTINUOUS
10
127.156
20
-213.433
11
127.299
21
-213.576
0
LINE
8
BLACK
6
CONTINUOUS
10
127.299
20
-213.576
11
127.442
21
-213.862
0
LINE
8
BLACK
6
CONTINUOUS
10
127.442
20
-213.862
11
127.442
21
-214.719
0
LINE
8
BLACK
6
CONTINUOUS
10
127.442
20
-214.719
11
127.299
21
-215.005
0
LINE
8
BLACK
6
CONTINUOUS
10
127.299
20
-215.005
11
127.156
21
-215.148
0
LINE
8
BLACK
6
CONTINUOUS
10
127.156
20
-215.148
11
126.87
21
-215.291
0
LINE
8
BLACK
6
CONTINUOUS
10
126.87
20
-215.291
11
126.299
21
-215.291
0
LINE
8
BLACK
6
CONTINUOUS
10
126.299
20
-215.291
11
126.013
21
-215.148
0
LINE
8
BLACK
6
CONTINUOUS
10
128.727
20
-215.005
11
128.87
21
-215.148
0
LINE
8
BLACK
6
CONTINUOUS
10
128.87
20
-215.148
11
128.727
21
-215.291
0
LINE
8
BLACK
6
CONTINUOUS
10
128.727
20
-215.291
11
128.585
21
-215.148
0
LINE
8
BLACK
6
CONTINUOUS
10
128.585
20
-215.148
11
128.727
21
-215.005
0
LINE
8
BLACK
6
CONTINUOUS
10
128.727
20
-215.005
11
128.727
21
-215.291
0
LINE
8
BLACK
6
CONTINUOUS
10
128.727
20
-213.433
11
128.87
21
-213.576
0
LINE
8
BLACK
6
CONTINUOUS
10
128.87
20
-213.576
11
128.727
21
-213.719
0
LINE
8
BLACK
6
CONTINUOUS
10
128.727
20
-213.719
11
128.585
21
-213.576
0
LINE
8
BLACK
6
CONTINUOUS
10
128.585
20
-213.576
11
128.727
21
-213.433
0
LINE
8
BLACK
6
CONTINUOUS
10
128.727
20
-213.433
11
128.727
21
-213.719
0
LINE
8
BLACK
6
CONTINUOUS
10
103.542
20
-219.358
11
105.292
21
-221.108
0
LINE
8
BLACK
6
CONTINUOUS
10
105.292
20
-219.358
11
103.542
21
-221.108
0
LINE
8
BLACK
6
CONTINUOUS
10
109.727
20
-221.591
11
108.013
21
-221.591
0
LINE
8
BLACK
6
CONTINUOUS
10
108.87
20
-221.591
11
108.87
21
-218.591
0
LINE
8
BLACK
6
CONTINUOUS
10
108.87
20
-218.591
11
108.585
21
-219.019
0
LINE
8
BLACK
6
CONTINUOUS
10
108.585
20
-219.019
11
108.299
21
-219.305
0
LINE
8
BLACK
6
CONTINUOUS
10
108.299
20
-219.305
11
108.013
21
-219.448
0
LINE
8
BLACK
6
CONTINUOUS
10
111.013
20
-221.305
11
111.156
21
-221.448
0
LINE
8
BLACK
6
CONTINUOUS
10
111.156
20
-221.448
11
111.013
21
-221.591
0
LINE
8
BLACK
6
CONTINUOUS
10
111.013
20
-221.591
11
110.87
21
-221.448
0
LINE
8
BLACK
6
CONTINUOUS
10
110.87
20
-221.448
11
111.013
21
-221.305
0
LINE
8
BLACK
6
CONTINUOUS
10
111.013
20
-221.305
11
111.013
21
-221.591
0
LINE
8
BLACK
6
CONTINUOUS
10
112.156
20
-218.591
11
114.156
21
-218.591
0
LINE
8
BLACK
6
CONTINUOUS
10
114.156
20
-218.591
11
112.87
21
-221.591
0
LINE
8
BLACK
6
CONTINUOUS
10
116.727
20
-218.591
11
115.299
21
-218.591
0
LINE
8
BLACK
6
CONTINUOUS
10
115.299
20
-218.591
11
115.156
21
-220.019
0
LINE
8
BLACK
6
CONTINUOUS
10
115.156
20
-220.019
11
115.299
21
-219.876
0
LINE
8
BLACK
6
CONTINUOUS
10
115.299
20
-219.876
11
115.585
21
-219.733
0
LINE
8
BLACK
6
CONTINUOUS
10
115.585
20
-219.733
11
116.299
21
-219.733
0
LINE
8
BLACK
6
CONTINUOUS
10
116.299
20
-219.733
11
116.585
21
-219.876
0
LINE
8
BLACK
6
CONTINUOUS
10
116.585
20
-219.876
11
116.727
21
-220.019
0
LINE
8
BLACK
6
CONTINUOUS
10
116.727
20
-220.019
11
116.87
21
-220.305
0
LINE
8
BLACK
6
CONTINUOUS
10
116.87
20
-220.305
11
116.87
21
-221.019
0
LINE
8
BLACK
6
CONTINUOUS
10
116.87
20
-221.019
11
116.727
21
-221.305
0
LINE
8
BLACK
6
CONTINUOUS
10
116.727
20
-221.305
11
116.585
21
-221.448
0
LINE
8
BLACK
6
CONTINUOUS
10
116.585
20
-221.448
11
116.299
21
-221.591
0
LINE
8
BLACK
6
CONTINUOUS
10
116.299
20
-221.591
11
115.585
21
-221.591
0
LINE
8
BLACK
6
CONTINUOUS
10
115.585
20
-221.591
11
115.299
21
-221.448
0
LINE
8
BLACK
6
CONTINUOUS
10
115.299
20
-221.448
11
115.156
21
-221.305
0
LINE
8
BLACK
6
CONTINUOUS
10
118.156
20
-221.591
11
118.156
21
-219.591
0
LINE
8
BLACK
6
CONTINUOUS
10
118.156
20
-219.876
11
118.299
21
-219.733
0
LINE
8
BLACK
6
CONTINUOUS
10
118.299
20
-219.733
11
118.585
21
-219.591
0
LINE
8
BLACK
6
CONTINUOUS
10
118.585
20
-219.591
11
119.013
21
-219.591
0
LINE
8
BLACK
6
CONTINUOUS
10
119.013
20
-219.591
11
119.299
21
-219.733
0
LINE
8
BLACK
6
CONTINUOUS
10
119.299
20
-219.733
11
119.442
21
-220.019
0
LINE
8
BLACK
6
CONTINUOUS
10
119.442
20
-220.019
11
119.442
21
-221.591
0
LINE
8
BLACK
6
CONTINUOUS
10
119.442
20
-220.019
11
119.585
21
-219.733
0
LINE
8
BLACK
6
CONTINUOUS
10
119.585
20
-219.733
11
119.87
21
-219.591
0
LINE
8
BLACK
6
CONTINUOUS
10
119.87
20
-219.591
11
120.299
21
-219.591
0
LINE
8
BLACK
6
CONTINUOUS
10
120.299
20
-219.591
11
120.585
21
-219.733
0
LINE
8
BLACK
6
CONTINUOUS
10
120.585
20
-219.733
11
120.727
21
-220.019
0
LINE
8
BLACK
6
CONTINUOUS
10
120.727
20
-220.019
11
120.727
21
-221.591
0
LINE
8
BLACK
6
CONTINUOUS
10
122.156
20
-221.591
11
122.156
21
-219.591
0
LINE
8
BLACK
6
CONTINUOUS
10
122.156
20
-219.876
11
122.299
21
-219.733
0
LINE
8
BLACK
6
CONTINUOUS
10
122.299
20
-219.733
11
122.585
21
-219.591
0
LINE
8
BLACK
6
CONTINUOUS
10
122.585
20
-219.591
11
123.013
21
-219.591
0
LINE
8
BLACK
6
CONTINUOUS
10
123.013
20
-219.591
11
123.299
21
-219.733
0
LINE
8
BLACK
6
CONTINUOUS
10
123.299
20
-219.733
11
123.442
21
-220.019
0
LINE
8
BLACK
6
CONTINUOUS
10
123.442
20
-220.019
11
123.442
21
-221.591
0
LINE
8
BLACK
6
CONTINUOUS
10
123.442
20
-220.019
11
123.585
21
-219.733
0
LINE
8
BLACK
6
CONTINUOUS
10
123.585
20
-219.733
11
123.87
21
-219.591
0
LINE
8
BLACK
6
CONTINUOUS
10
123.87
20
-219.591
11
124.299
21
-219.591
0
LINE
8
BLACK
6
CONTINUOUS
10
124.299
20
-219.591
11
124.585
21
-219.733
0
LINE
8
BLACK
6
CONTINUOUS
10
124.585
20
-219.733
11
124.727
21
-220.019
0
LINE
8
BLACK
6
CONTINUOUS
10
124.727
20
-220.019
11
124.727
21
-221.591
0
LINE
8
BLACK
6
CONTINUOUS
10
130.585
20
-218.448
11
128.013
21
-222.305
0
LINE
8
BLACK
6
CONTINUOUS
10
134.442
20
-218.591
11
134.727
21
-218.591
0
LINE
8
BLACK
6
CONTINUOUS
10
134.727
20
-218.591
11
135.013
21
-218.733
0
LINE
8
BLACK
6
CONTINUOUS
10
135.013
20
-218.733
11
135.156
21
-218.876
0
LINE
8
BLACK
6
CONTINUOUS
10
135.156
20
-218.876
11
135.299
21
-219.162
0
LINE
8
BLACK
6
CONTINUOUS
10
135.299
20
-219.162
11
135.442
21
-219.733
0
LINE
8
BLACK
6
CONTINUOUS
10
135.442
20
-219.733
11
135.442
21
-220.448
0
LINE
8
BLACK
6
CONTINUOUS
10
135.442
20
-220.448
11
135.299
21
-221.019
0
LINE
8
BLACK
6
CONTINUOUS
10
135.299
20
-221.019
11
135.156
21
-221.305
0
LINE
8
BLACK
6
CONTINUOUS
10
135.156
20
-221.305
11
135.013
21
-221.448
0
LINE
8
BLACK
6
CONTINUOUS
10
135.013
20
-221.448
11
134.727
21
-221.591
0
LINE
8
BLACK
6
CONTINUOUS
10
134.727
20
-221.591
11
134.442
21
-221.591
0
LINE
8
BLACK
6
CONTINUOUS
10
134.442
20
-221.591
11
134.156
21
-221.448
0
LINE
8
BLACK
6
CONTINUOUS
10
134.156
20
-221.448
11
134.013
21
-221.305
0
LINE
8
BLACK
6
CONTINUOUS
10
134.013
20
-221.305
11
133.87
21
-221.019
0
LINE
8
BLACK
6
CONTINUOUS
10
133.87
20
-221.019
11
133.727
21
-220.448
0
LINE
8
BLACK
6
CONTINUOUS
10
133.727
20
-220.448
11
133.727
21
-219.733
0
LINE
8
BLACK
6
CONTINUOUS
10
133.727
20
-219.733
11
133.87
21
-219.162
0
LINE
8
BLACK
6
CONTINUOUS
10
133.87
20
-219.162
11
134.013
21
-218.876
0
LINE
8
BLACK
6
CONTINUOUS
10
134.013
20
-218.876
11
134.156
21
-218.733
0
LINE
8
BLACK
6
CONTINUOUS
10
134.156
20
-218.733
11
134.442
21
-218.591
0
LINE
8
BLACK
6
CONTINUOUS
10
136.727
20
-221.305
11
136.87
21
-221.448
0
LINE
8
BLACK
6
CONTINUOUS
10
136.87
20
-221.448
11
136.727
21
-221.591
0
LINE
8
BLACK
6
CONTINUOUS
10
136.727
20
-221.591
11
136.585
21
-221.448
0
LINE
8
BLACK
6
CONTINUOUS
10
136.585
20
-221.448
11
136.727
21
-221.305
0
LINE
8
BLACK
6
CONTINUOUS
10
136.727
20
-221.305
11
136.727
21
-221.591
0
LINE
8
BLACK
6
CONTINUOUS
10
138.727
20
-218.591
11
139.013
21
-218.591
0
LINE
8
BLACK
6
CONTINUOUS
10
139.013
20
-218.591
11
139.299
21
-218.733
0
LINE
8
BLACK
6
CONTINUOUS
10
139.299
20
-218.733
11
139.442
21
-218.876
0
LINE
8
BLACK
6
CONTINUOUS
10
139.442
20
-218.876
11
139.585
21
-219.162
0
LINE
8
BLACK
6
CONTINUOUS
10
139.585
20
-219.162
11
139.727
21
-219.733
0
LINE
8
BLACK
6
CONTINUOUS
10
139.727
20
-219.733
11
139.727
21
-220.448
0
LINE
8
BLACK
6
CONTINUOUS
10
139.727
20
-220.448
11
139.585
21
-221.019
0
LINE
8
BLACK
6
CONTINUOUS
10
139.585
20
-221.019
11
139.442
21
-221.305
0
LINE
8
BLACK
6
CONTINUOUS
10
139.442
20
-221.305
11
139.299
21
-221.448
0
LINE
8
BLACK
6
CONTINUOUS
10
139.299
20
-221.448
11
139.013
21
-221.591
0
LINE
8
BLACK
6
CONTINUOUS
10
139.013
20
-221.591
11
138.727
21
-221.591
0
LINE
8
BLACK
6
CONTINUOUS
10
138.727
20
-221.591
11
138.442
21
-221.448
0
LINE
8
BLACK
6
CONTINUOUS
10
138.442
20
-221.448
11
138.299
21
-221.305
0
LINE
8
BLACK
6
CONTINUOUS
10
138.299
20
-221.305
11
138.156
21
-221.019
0
LINE
8
BLACK
6
CONTINUOUS
10
138.156
20
-221.019
11
138.013
21
-220.448
0
LINE
8
BLACK
6
CONTINUOUS
10
138.013
20
-220.448
11
138.013
21
-219.733
0
LINE
8
BLACK
6
CONTINUOUS
10
138.013
20
-219.733
11
138.156
21
-219.162
0
LINE
8
BLACK
6
CONTINUOUS
10
138.156
20
-219.162
11
138.299
21
-218.876
0
LINE
8
BLACK
6
CONTINUOUS
10
138.299
20
-218.876
11
138.442
21
-218.733
0
LINE
8
BLACK
6
CONTINUOUS
10
138.442
20
-218.733
11
138.727
21
-218.591
0
LINE
8
BLACK
6
CONTINUOUS
10
142.299
20
-218.591
11
141.727
21
-218.591
0
LINE
8
BLACK
6
CONTINUOUS
10
141.727
20
-218.591
11
141.442
21
-218.733
0
LINE
8
BLACK
6
CONTINUOUS
10
141.442
20
-218.733
11
141.299
21
-218.876
0
LINE
8
BLACK
6
CONTINUOUS
10
141.299
20
-218.876
11
141.013
21
-219.305
0
LINE
8
BLACK
6
CONTINUOUS
10
141.013
20
-219.305
11
140.87
21
-219.876
0
LINE
8
BLACK
6
CONTINUOUS
10
140.87
20
-219.876
11
140.87
21
-221.019
0
LINE
8
BLACK
6
CONTINUOUS
10
140.87
20
-221.019
11
141.013
21
-221.305
0
LINE
8
BLACK
6
CONTINUOUS
10
141.013
20
-221.305
11
141.156
21
-221.448
0
LINE
8
BLACK
6
CONTINUOUS
10
141.156
20
-221.448
11
141.442
21
-221.591
0
LINE
8
BLACK
6
CONTINUOUS
10
141.442
20
-221.591
11
142.013
21
-221.591
0
LINE
8
BLACK
6
CONTINUOUS
10
142.013
20
-221.591
11
142.299
21
-221.448
0
LINE
8
BLACK
6
CONTINUOUS
10
142.299
20
-221.448
11
142.442
21
-221.305
0
LINE
8
BLACK
6
CONTINUOUS
10
142.442
20
-221.305
11
142.585
21
-221.019
0
LINE
8
BLACK
6
CONTINUOUS
10
142.585
20
-221.019
11
142.585
21
-220.305
0
LINE
8
BLACK
6
CONTINUOUS
10
142.585
20
-220.305
11
142.442
21
-220.019
0
LINE
8
BLACK
6
CONTINUOUS
10
142.442
20
-220.019
11
142.299
21
-219.876
0
LINE
8
BLACK
6
CONTINUOUS
10
142.299
20
-219.876
11
142.013
21
-219.733
0
LINE
8
BLACK
6
CONTINUOUS
10
142.013
20
-219.733
11
141.442
21
-219.733
0
LINE
8
BLACK
6
CONTINUOUS
10
141.442
20
-219.733
11
141.156
21
-219.876
0
LINE
8
BLACK
6
CONTINUOUS
10
141.156
20
-219.876
11
141.013
21
-220.019
0
LINE
8
BLACK
6
CONTINUOUS
10
141.013
20
-220.019
11
140.87
21
-220.305
0
LINE
8
BLACK
6
CONTINUOUS
10
144.013
20
-221.591
11
144.585
21
-221.591
0
LINE
8
BLACK
6
CONTINUOUS
10
144.585
20
-221.591
11
144.87
21
-221.448
0
LINE
8
BLACK
6
CONTINUOUS
10
144.87
20
-221.448
11
145.013
21
-221.305
0
LINE
8
BLACK
6
CONTINUOUS
10
145.013
20
-221.305
11
145.299
21
-220.876
0
LINE
8
BLACK
6
CONTINUOUS
10
145.299
20
-220.876
11
145.442
21
-220.305
0
LINE
8
BLACK
6
CONTINUOUS
10
145.442
20
-220.305
11
145.442
21
-219.162
0
LINE
8
BLACK
6
CONTINUOUS
10
145.442
20
-219.162
11
145.299
21
-218.876
0
LINE
8
BLACK
6
CONTINUOUS
10
145.299
20
-218.876
11
145.156
21
-218.733
0
LINE
8
BLACK
6
CONTINUOUS
10
145.156
20
-218.733
11
144.87
21
-218.591
0
LINE
8
BLACK
6
CONTINUOUS
10
144.87
20
-218.591
11
144.299
21
-218.591
0
LINE
8
BLACK
6
CONTINUOUS
10
144.299
20
-218.591
11
144.013
21
-218.733
0
LINE
8
BLACK
6
CONTINUOUS
10
144.013
20
-218.733
11
143.87
21
-218.876
0
LINE
8
BLACK
6
CONTINUOUS
10
143.87
20
-218.876
11
143.727
21
-219.162
0
LINE
8
BLACK
6
CONTINUOUS
10
143.727
20
-219.162
11
143.727
21
-219.876
0
LINE
8
BLACK
6
CONTINUOUS
10
143.727
20
-219.876
11
143.87
21
-220.162
0
LINE
8
BLACK
6
CONTINUOUS
10
143.87
20
-220.162
11
144.013
21
-220.305
0
LINE
8
BLACK
6
CONTINUOUS
10
144.013
20
-220.305
11
144.299
21
-220.448
0
LINE
8
BLACK
6
CONTINUOUS
10
144.299
20
-220.448
11
144.87
21
-220.448
0
LINE
8
BLACK
6
CONTINUOUS
10
144.87
20
-220.448
11
145.156
21
-220.305
0
LINE
8
BLACK
6
CONTINUOUS
10
145.156
20
-220.305
11
145.299
21
-220.162
0
LINE
8
BLACK
6
CONTINUOUS
10
145.299
20
-220.162
11
145.442
21
-219.876
0
LINE
8
BLACK
6
CONTINUOUS
10
146.585
20
-218.591
11
146.585
21
-219.162
0
LINE
8
BLACK
6
CONTINUOUS
10
147.727
20
-218.591
11
147.727
21
-219.162
0
LINE
8
BLACK
6
CONTINUOUS
10
152.156
20
-222.733
11
152.013
21
-222.591
0
LINE
8
BLACK
6
CONTINUOUS
10
152.013
20
-222.591
11
151.727
21
-222.162
0
LINE
8
BLACK
6
CONTINUOUS
10
151.727
20
-222.162
11
151.585
21
-221.876
0
LINE
8
BLACK
6
CONTINUOUS
10
151.585
20
-221.876
11
151.442
21
-221.448
0
LINE
8
BLACK
6
CONTINUOUS
10
151.442
20
-221.448
11
151.299
21
-220.733
0
LINE
8
BLACK
6
CONTINUOUS
10
151.299
20
-220.733
11
151.299
21
-220.162
0
LINE
8
BLACK
6
CONTINUOUS
10
151.299
20
-220.162
11
151.442
21
-219.448
0
LINE
8
BLACK
6
CONTINUOUS
10
151.442
20
-219.448
11
151.585
21
-219.019
0
LINE
8
BLACK
6
CONTINUOUS
10
151.585
20
-219.019
11
151.727
21
-218.733
0
LINE
8
BLACK
6
CONTINUOUS
10
151.727
20
-218.733
11
152.013
21
-218.305
0
LINE
8
BLACK
6
CONTINUOUS
10
152.013
20
-218.305
11
152.156
21
-218.162
0
LINE
8
BLACK
6
CONTINUOUS
10
153.013
20
-218.591
11
155.013
21
-218.591
0
LINE
8
BLACK
6
CONTINUOUS
10
155.013
20
-218.591
11
153.727
21
-221.591
0
LINE
8
BLACK
6
CONTINUOUS
10
157.442
20
-218.591
11
156.87
21
-218.591
0
LINE
8
BLACK
6
CONTINUOUS
10
156.87
20
-218.591
11
156.585
21
-218.733
0
LINE
8
BLACK
6
CONTINUOUS
10
156.585
20
-218.733
11
156.442
21
-218.876
0
LINE
8
BLACK
6
CONTINUOUS
10
156.442
20
-218.876
11
156.156
21
-219.305
0
LINE
8
BLACK
6
CONTINUOUS
10
156.156
20
-219.305
11
156.013
21
-219.876
0
LINE
8
BLACK
6
CONTINUOUS
10
156.013
20
-219.876
11
156.013
21
-221.019
0
LINE
8
BLACK
6
CONTINUOUS
10
156.013
20
-221.019
11
156.156
21
-221.305
0
LINE
8
BLACK
6
CONTINUOUS
10
156.156
20
-221.305
11
156.299
21
-221.448
0
LINE
8
BLACK
6
CONTINUOUS
10
156.299
20
-221.448
11
156.585
21
-221.591
0
LINE
8
BLACK
6
CONTINUOUS
10
156.585
20
-221.591
11
157.156
21
-221.591
0
LINE
8
BLACK
6
CONTINUOUS
10
157.156
20
-221.591
11
157.442
21
-221.448
0
LINE
8
BLACK
6
CONTINUOUS
10
157.442
20
-221.448
11
157.585
21
-221.305
0
LINE
8
BLACK
6
CONTINUOUS
10
157.585
20
-221.305
11
157.727
21
-221.019
0
LINE
8
BLACK
6
CONTINUOUS
10
157.727
20
-221.019
11
157.727
21
-220.305
0
LINE
8
BLACK
6
CONTINUOUS
10
157.727
20
-220.305
11
157.585
21
-220.019
0
LINE
8
BLACK
6
CONTINUOUS
10
157.585
20
-220.019
11
157.442
21
-219.876
0
LINE
8
BLACK
6
CONTINUOUS
10
157.442
20
-219.876
11
157.156
21
-219.733
0
LINE
8
BLACK
6
CONTINUOUS
10
157.156
20
-219.733
11
156.585
21
-219.733
0
LINE
8
BLACK
6
CONTINUOUS
10
156.585
20
-219.733
11
156.299
21
-219.876
0
LINE
8
BLACK
6
CONTINUOUS
10
156.299
20
-219.876
11
156.156
21
-220.019
0
LINE
8
BLACK
6
CONTINUOUS
10
156.156
20
-220.019
11
156.013
21
-220.305
0
LINE
8
BLACK
6
CONTINUOUS
10
161.299
20
-221.591
11
161.299
21
-218.591
0
LINE
8
BLACK
6
CONTINUOUS
10
162.585
20
-221.591
11
162.585
21
-220.019
0
LINE
8
BLACK
6
CONTINUOUS
10
162.585
20
-220.019
11
162.442
21
-219.733
0
LINE
8
BLACK
6
CONTINUOUS
10
162.442
20
-219.733
11
162.156
21
-219.591
0
LINE
8
BLACK
6
CONTINUOUS
10
162.156
20
-219.591
11
161.727
21
-219.591
0
LINE
8
BLACK
6
CONTINUOUS
10
161.727
20
-219.591
11
161.442
21
-219.733
0
LINE
8
BLACK
6
CONTINUOUS
10
161.442
20
-219.733
11
161.299
21
-219.876
0
LINE
8
BLACK
6
CONTINUOUS
10
164.442
20
-221.591
11
164.156
21
-221.448
0
LINE
8
BLACK
6
CONTINUOUS
10
164.156
20
-221.448
11
164.013
21
-221.305
0
LINE
8
BLACK
6
CONTINUOUS
10
164.013
20
-221.305
11
163.87
21
-221.019
0
LINE
8
BLACK
6
CONTINUOUS
10
163.87
20
-221.019
11
163.87
21
-220.162
0
LINE
8
BLACK
6
CONTINUOUS
10
163.87
20
-220.162
11
164.013
21
-219.876
0
LINE
8
BLACK
6
CONTINUOUS
10
164.013
20
-219.876
11
164.156
21
-219.733
0
LINE
8
BLACK
6
CONTINUOUS
10
164.156
20
-219.733
11
164.442
21
-219.591
0
LINE
8
BLACK
6
CONTINUOUS
10
164.442
20
-219.591
11
164.87
21
-219.591
0
LINE
8
BLACK
6
CONTINUOUS
10
164.87
20
-219.591
11
165.156
21
-219.733
0
LINE
8
BLACK
6
CONTINUOUS
10
165.156
20
-219.733
11
165.299
21
-219.876
0
LINE
8
BLACK
6
CONTINUOUS
10
165.299
20
-219.876
11
165.442
21
-220.162
0
LINE
8
BLACK
6
CONTINUOUS
10
165.442
20
-220.162
11
165.442
21
-221.019
0
LINE
8
BLACK
6
CONTINUOUS
10
165.442
20
-221.019
11
165.299
21
-221.305
0
LINE
8
BLACK
6
CONTINUOUS
10
165.299
20
-221.305
11
165.156
21
-221.448
0
LINE
8
BLACK
6
CONTINUOUS
10
165.156
20
-221.448
11
164.87
21
-221.591
0
LINE
8
BLACK
6
CONTINUOUS
10
164.87
20
-221.591
11
164.442
21
-221.591
0
LINE
8
BLACK
6
CONTINUOUS
10
167.156
20
-221.591
11
166.87
21
-221.448
0
LINE
8
BLACK
6
CONTINUOUS
10
166.87
20
-221.448
11
166.727
21
-221.162
0
LINE
8
BLACK
6
CONTINUOUS
10
166.727
20
-221.162
11
166.727
21
-218.591
0
LINE
8
BLACK
6
CONTINUOUS
10
169.442
20
-221.448
11
169.156
21
-221.591
0
LINE
8
BLACK
6
CONTINUOUS
10
169.156
20
-221.591
11
168.585
21
-221.591
0
LINE
8
BLACK
6
CONTINUOUS
10
168.585
20
-221.591
11
168.299
21
-221.448
0
LINE
8
BLACK
6
CONTINUOUS
10
168.299
20
-221.448
11
168.156
21
-221.162
0
LINE
8
BLACK
6
CONTINUOUS
10
168.156
20
-221.162
11
168.156
21
-220.019
0
LINE
8
BLACK
6
CONTINUOUS
10
168.156
20
-220.019
11
168.299
21
-219.733
0
LINE
8
BLACK
6
CONTINUOUS
10
168.299
20
-219.733
11
168.585
21
-219.591
0
LINE
8
BLACK
6
CONTINUOUS
10
168.585
20
-219.591
11
169.156
21
-219.591
0
LINE
8
BLACK
6
CONTINUOUS
10
169.156
20
-219.591
11
169.442
21
-219.733
0
LINE
8
BLACK
6
CONTINUOUS
10
169.442
20
-219.733
11
169.585
21
-220.019
0
LINE
8
BLACK
6
CONTINUOUS
10
169.585
20
-220.019
11
169.585
21
-220.305
0
LINE
8
BLACK
6
CONTINUOUS
10
169.585
20
-220.305
11
168.156
21
-220.591
0
LINE
8
BLACK
6
CONTINUOUS
10
170.727
20
-221.448
11
171.013
21
-221.591
0
LINE
8
BLACK
6
CONTINUOUS
10
171.013
20
-221.591
11
171.585
21
-221.591
0
LINE
8
BLACK
6
CONTINUOUS
10
171.585
20
-221.591
11
171.87
21
-221.448
0
LINE
8
BLACK
6
CONTINUOUS
10
171.87
20
-221.448
11
172.013
21
-221.162
0
LINE
8
BLACK
6
CONTINUOUS
10
172.013
20
-221.162
11
172.013
21
-221.019
0
LINE
8
BLACK
6
CONTINUOUS
10
172.013
20
-221.019
11
171.87
21
-220.733
0
LINE
8
BLACK
6
CONTINUOUS
10
171.87
20
-220.733
11
171.585
21
-220.591
0
LINE
8
BLACK
6
CONTINUOUS
10
171.585
20
-220.591
11
171.156
21
-220.591
0
LINE
8
BLACK
6
CONTINUOUS
10
171.156
20
-220.591
11
170.87
21
-220.448
0
LINE
8
BLACK
6
CONTINUOUS
10
170.87
20
-220.448
11
170.727
21
-220.162
0
LINE
8
BLACK
6
CONTINUOUS
10
170.727
20
-220.162
11
170.727
21
-220.019
0
LINE
8
BLACK
6
CONTINUOUS
10
170.727
20
-220.019
11
170.87
21
-219.733
0
LINE
8
BLACK
6
CONTINUOUS
10
170.87
20
-219.733
11
171.156
21
-219.591
0
LINE
8
BLACK
6
CONTINUOUS
10
171.156
20
-219.591
11
171.585
21
-219.591
0
LINE
8
BLACK
6
CONTINUOUS
10
171.585
20
-219.591
11
171.87
21
-219.733
0
LINE
8
BLACK
6
CONTINUOUS
10
173.013
20
-222.733
11
173.156
21
-222.591
0
LINE
8
BLACK
6
CONTINUOUS
10
173.156
20
-222.591
11
173.442
21
-222.162
0
LINE
8
BLACK
6
CONTINUOUS
10
173.442
20
-222.162
11
173.585
21
-221.876
0
LINE
8
BLACK
6
CONTINUOUS
10
173.585
20
-221.876
11
173.727
21
-221.448
0
LINE
8
BLACK
6
CONTINUOUS
10
173.727
20
-221.448
11
173.87
21
-220.733
0
LINE
8
BLACK
6
CONTINUOUS
10
173.87
20
-220.733
11
173.87
21
-220.162
0
LINE
8
BLACK
6
CONTINUOUS
10
173.87
20
-220.162
11
173.727
21
-219.448
0
LINE
8
BLACK
6
CONTINUOUS
10
173.727
20
-219.448
11
173.585
21
-219.019
0
LINE
8
BLACK
6
CONTINUOUS
10
173.585
20
-219.019
11
173.442
21
-218.733
0
LINE
8
BLACK
6
CONTINUOUS
10
173.442
20
-218.733
11
173.156
21
-218.305
0
LINE
8
BLACK
6
CONTINUOUS
10
173.156
20
-218.305
11
173.013
21
-218.162
0
LINE
8
BLACK
6
CONTINUOUS
10
178.442
20
-222.733
11
178.299
21
-222.591
0
LINE
8
BLACK
6
CONTINUOUS
10
178.299
20
-222.591
11
178.013
21
-222.162
0
LINE
8
BLACK
6
CONTINUOUS
10
178.013
20
-222.162
11
177.87
21
-221.876
0
LINE
8
BLACK
6
CONTINUOUS
10
177.87
20
-221.876
11
177.727
21
-221.448
0
LINE
8
BLACK
6
CONTINUOUS
10
177.727
20
-221.448
11
177.585
21
-220.733
0
LINE
8
BLACK
6
CONTINUOUS
10
177.585
20
-220.733
11
177.585
21
-220.162
0
LINE
8
BLACK
6
CONTINUOUS
10
177.585
20
-220.162
11
177.727
21
-219.448
0
LINE
8
BLACK
6
CONTINUOUS
10
177.727
20
-219.448
11
177.87
21
-219.019
0
LINE
8
BLACK
6
CONTINUOUS
10
177.87
20
-219.019
11
178.013
21
-218.733
0
LINE
8
BLACK
6
CONTINUOUS
10
178.013
20
-218.733
11
178.299
21
-218.305
0
LINE
8
BLACK
6
CONTINUOUS
10
178.299
20
-218.305
11
178.442
21
-218.162
0
LINE
8
BLACK
6
CONTINUOUS
10
179.585
20
-219.591
11
179.585
21
-221.591
0
LINE
8
BLACK
6
CONTINUOUS
10
179.585
20
-219.876
11
179.727
21
-219.733
0
LINE
8
BLACK
6
CONTINUOUS
10
179.727
20
-219.733
11
180.013
21
-219.591
0
LINE
8
BLACK
6
CONTINUOUS
10
180.013
20
-219.591
11
180.442
21
-219.591
0
LINE
8
BLACK
6
CONTINUOUS
10
180.442
20
-219.591
11
180.727
21
-219.733
0
LINE
8
BLACK
6
CONTINUOUS
10
180.727
20
-219.733
11
180.87
21
-220.019
0
LINE
8
BLACK
6
CONTINUOUS
10
180.87
20
-220.019
11
180.87
21
-221.591
0
LINE
8
BLACK
6
CONTINUOUS
10
182.727
20
-221.591
11
182.442
21
-221.448
0
LINE
8
BLACK
6
CONTINUOUS
10
182.442
20
-221.448
11
182.299
21
-221.305
0
LINE
8
BLACK
6
CONTINUOUS
10
182.299
20
-221.305
11
182.156
21
-221.019
0
LINE
8
BLACK
6
CONTINUOUS
10
182.156
20
-221.019
11
182.156
21
-220.162
0
LINE
8
BLACK
6
CONTINUOUS
10
182.156
20
-220.162
11
182.299
21
-219.876
0
LINE
8
BLACK
6
CONTINUOUS
10
182.299
20
-219.876
11
182.442
21
-219.733
0
LINE
8
BLACK
6
CONTINUOUS
10
182.442
20
-219.733
11
182.727
21
-219.591
0
LINE
8
BLACK
6
CONTINUOUS
10
182.727
20
-219.591
11
183.156
21
-219.591
0
LINE
8
BLACK
6
CONTINUOUS
10
183.156
20
-219.591
11
183.442
21
-219.733
0
LINE
8
BLACK
6
CONTINUOUS
10
183.442
20
-219.733
11
183.585
21
-219.876
0
LINE
8
BLACK
6
CONTINUOUS
10
183.585
20
-219.876
11
183.727
21
-220.162
0
LINE
8
BLACK
6
CONTINUOUS
10
183.727
20
-220.162
11
183.727
21
-221.019
0
LINE
8
BLACK
6
CONTINUOUS
10
183.727
20
-221.019
11
183.585
21
-221.305
0
LINE
8
BLACK
6
CONTINUOUS
10
183.585
20
-221.305
11
183.442
21
-221.448
0
LINE
8
BLACK
6
CONTINUOUS
10
183.442
20
-221.448
11
183.156
21
-221.591
0
LINE
8
BLACK
6
CONTINUOUS
10
183.156
20
-221.591
11
182.727
21
-221.591
0
LINE
8
BLACK
6
CONTINUOUS
10
184.585
20
-219.591
11
185.727
21
-219.591
0
LINE
8
BLACK
6
CONTINUOUS
10
185.013
20
-218.591
11
185.013
21
-221.162
0
LINE
8
BLACK
6
CONTINUOUS
10
185.013
20
-221.162
11
185.156
21
-221.448
0
LINE
8
BLACK
6
CONTINUOUS
10
185.156
20
-221.448
11
185.442
21
-221.591
0
LINE
8
BLACK
6
CONTINUOUS
10
185.442
20
-221.591
11
185.727
21
-221.591
0
LINE
8
BLACK
6
CONTINUOUS
10
189.013
20
-219.591
11
189.013
21
-222.591
0
LINE
8
BLACK
6
CONTINUOUS
10
189.013
20
-219.733
11
189.299
21
-219.591
0
LINE
8
BLACK
6
CONTINUOUS
10
189.299
20
-219.591
11
189.87
21
-219.591
0
LINE
8
BLACK
6
CONTINUOUS
10
189.87
20
-219.591
11
190.156
21
-219.733
0
LINE
8
BLACK
6
CONTINUOUS
10
190.156
20
-219.733
11
190.299
21
-219.876
0
LINE
8
BLACK
6
CONTINUOUS
10
190.299
20
-219.876
11
190.442
21
-220.162
0
LINE
8
BLACK
6
CONTINUOUS
10
190.442
20
-220.162
11
190.442
21
-221.019
0
LINE
8
BLACK
6
CONTINUOUS
10
190.442
20
-221.019
11
190.299
21
-221.305
0
LINE
8
BLACK
6
CONTINUOUS
10
190.299
20
-221.305
11
190.156
21
-221.448
0
LINE
8
BLACK
6
CONTINUOUS
10
190.156
20
-221.448
11
189.87
21
-221.591
0
LINE
8
BLACK
6
CONTINUOUS
10
189.87
20
-221.591
11
189.299
21
-221.591
0
LINE
8
BLACK
6
CONTINUOUS
10
189.299
20
-221.591
11
189.013
21
-221.448
0
LINE
8
BLACK
6
CONTINUOUS
10
192.156
20
-221.591
11
191.87
21
-221.448
0
LINE
8
BLACK
6
CONTINUOUS
10
191.87
20
-221.448
11
191.727
21
-221.162
0
LINE
8
BLACK
6
CONTINUOUS
10
191.727
20
-221.162
11
191.727
21
-218.591
0
LINE
8
BLACK
6
CONTINUOUS
10
194.585
20
-221.591
11
194.585
21
-220.019
0
LINE
8
BLACK
6
CONTINUOUS
10
194.585
20
-220.019
11
194.442
21
-219.733
0
LINE
8
BLACK
6
CONTINUOUS
10
194.442
20
-219.733
11
194.156
21
-219.591
0
LINE
8
BLACK
6
CONTINUOUS
10
194.156
20
-219.591
11
193.585
21
-219.591
0
LINE
8
BLACK
6
CONTINUOUS
10
193.585
20
-219.591
11
193.299
21
-219.733
0
LINE
8
BLACK
6
CONTINUOUS
10
194.585
20
-221.448
11
194.299
21
-221.591
0
LINE
8
BLACK
6
CONTINUOUS
10
194.299
20
-221.591
11
193.585
21
-221.591
0
LINE
8
BLACK
6
CONTINUOUS
10
193.585
20
-221.591
11
193.299
21
-221.448
0
LINE
8
BLACK
6
CONTINUOUS
10
193.299
20
-221.448
11
193.156
21
-221.162
0
LINE
8
BLACK
6
CONTINUOUS
10
193.156
20
-221.162
11
193.156
21
-220.876
0
LINE
8
BLACK
6
CONTINUOUS
10
193.156
20
-220.876
11
193.299
21
-220.591
0
LINE
8
BLACK
6
CONTINUOUS
10
193.299
20
-220.591
11
193.585
21
-220.448
0
LINE
8
BLACK
6
CONTINUOUS
10
193.585
20
-220.448
11
194.299
21
-220.448
0
LINE
8
BLACK
6
CONTINUOUS
10
194.299
20
-220.448
11
194.585
21
-220.305
0
LINE
8
BLACK
6
CONTINUOUS
10
195.585
20
-219.591
11
196.727
21
-219.591
0
LINE
8
BLACK
6
CONTINUOUS
10
196.013
20
-218.591
11
196.013
21
-221.162
0
LINE
8
BLACK
6
CONTINUOUS
10
196.013
20
-221.162
11
196.156
21
-221.448
0
LINE
8
BLACK
6
CONTINUOUS
10
196.156
20
-221.448
11
196.442
21
-221.591
0
LINE
8
BLACK
6
CONTINUOUS
10
196.442
20
-221.591
11
196.727
21
-221.591
0
LINE
8
BLACK
6
CONTINUOUS
10
198.87
20
-221.448
11
198.585
21
-221.591
0
LINE
8
BLACK
6
CONTINUOUS
10
198.585
20
-221.591
11
198.013
21
-221.591
0
LINE
8
BLACK
6
CONTINUOUS
10
198.013
20
-221.591
11
197.727
21
-221.448
0
LINE
8
BLACK
6
CONTINUOUS
10
197.727
20
-221.448
11
197.585
21
-221.162
0
LINE
8
BLACK
6
CONTINUOUS
10
197.585
20
-221.162
11
197.585
21
-220.019
0
LINE
8
BLACK
6
CONTINUOUS
10
197.585
20
-220.019
11
197.727
21
-219.733
0
LINE
8
BLACK
6
CONTINUOUS
10
197.727
20
-219.733
11
198.013
21
-219.591
0
LINE
8
BLACK
6
CONTINUOUS
10
198.013
20
-219.591
11
198.585
21
-219.591
0
LINE
8
BLACK
6
CONTINUOUS
10
198.585
20
-219.591
11
198.87
21
-219.733
0
LINE
8
BLACK
6
CONTINUOUS
10
198.87
20
-219.733
11
199.013
21
-220.019
0
LINE
8
BLACK
6
CONTINUOUS
10
199.013
20
-220.019
11
199.013
21
-220.305
0
LINE
8
BLACK
6
CONTINUOUS
10
199.013
20
-220.305
11
197.585
21
-220.591
0
LINE
8
BLACK
6
CONTINUOUS
10
201.585
20
-221.591
11
201.585
21
-218.591
0
LINE
8
BLACK
6
CONTINUOUS
10
201.585
20
-221.448
11
201.299
21
-221.591
0
LINE
8
BLACK
6
CONTINUOUS
10
201.299
20
-221.591
11
200.727
21
-221.591
0
LINE
8
BLACK
6
CONTINUOUS
10
200.727
20
-221.591
11
200.442
21
-221.448
0
LINE
8
BLACK
6
CONTINUOUS
10
200.442
20
-221.448
11
200.299
21
-221.305
0
LINE
8
BLACK
6
CONTINUOUS
10
200.299
20
-221.305
11
200.156
21
-221.019
0
LINE
8
BLACK
6
CONTINUOUS
10
200.156
20
-221.019
11
200.156
21
-220.162
0
LINE
8
BLACK
6
CONTINUOUS
10
200.156
20
-220.162
11
200.299
21
-219.876
0
LINE
8
BLACK
6
CONTINUOUS
10
200.299
20
-219.876
11
200.442
21
-219.733
0
LINE
8
BLACK
6
CONTINUOUS
10
200.442
20
-219.733
11
200.727
21
-219.591
0
LINE
8
BLACK
6
CONTINUOUS
10
200.727
20
-219.591
11
201.299
21
-219.591
0
LINE
8
BLACK
6
CONTINUOUS
10
201.299
20
-219.591
11
201.585
21
-219.733
0
LINE
8
BLACK
6
CONTINUOUS
10
202.727
20
-222.733
11
202.87
21
-222.591
0
LINE
8
BLACK
6
CONTINUOUS
10
202.87
20
-222.591
11
203.156
21
-222.162
0
LINE
8
BLACK
6
CONTINUOUS
10
203.156
20
-222.162
11
203.299
21
-221.876
0
LINE
8
BLACK
6
CONTINUOUS
10
203.299
20
-221.876
11
203.442
21
-221.448
0
LINE
8
BLACK
6
CONTINUOUS
10
203.442
20
-221.448
11
203.585
21
-220.733
0
LINE
8
BLACK
6
CONTINUOUS
10
203.585
20
-220.733
11
203.585
21
-220.162
0
LINE
8
BLACK
6
CONTINUOUS
10
203.585
20
-220.162
11
203.442
21
-219.448
0
LINE
8
BLACK
6
CONTINUOUS
10
203.442
20
-219.448
11
203.299
21
-219.019
0
LINE
8
BLACK
6
CONTINUOUS
10
203.299
20
-219.019
11
203.156
21
-218.733
0
LINE
8
BLACK
6
CONTINUOUS
10
203.156
20
-218.733
11
202.87
21
-218.305
0
LINE
8
BLACK
6
CONTINUOUS
10
202.87
20
-218.305
11
202.727
21
-218.162
0
CIRCLE
8
BLACK
10
103.792
20
-224.193
40
1.5
0
LINE
8
BLACK
6
CONTINUOUS
10
107.87
20
-222.551
11
109.727
21
-222.551
0
LINE
8
BLACK
6
CONTINUOUS
10
109.727
20
-222.551
11
108.727
21
-223.693
0
LINE
8
BLACK
6
CONTINUOUS
10
108.727
20
-223.693
11
109.156
21
-223.693
0
LINE
8
BLACK
6
CONTINUOUS
10
109.156
20
-223.693
11
109.442
21
-223.836
0
LINE
8
BLACK
6
CONTINUOUS
10
109.442
20
-223.836
11
109.585
21
-223.979
0
LINE
8
BLACK
6
CONTINUOUS
10
109.585
20
-223.979
11
109.727
21
-224.265
0
LINE
8
BLACK
6
CONTINUOUS
10
109.727
20
-224.265
11
109.727
21
-224.979
0
LINE
8
BLACK
6
CONTINUOUS
10
109.727
20
-224.979
11
109.585
21
-225.265
0
LINE
8
BLACK
6
CONTINUOUS
10
109.585
20
-225.265
11
109.442
21
-225.408
0
LINE
8
BLACK
6
CONTINUOUS
10
109.442
20
-225.408
11
109.156
21
-225.551
0
LINE
8
BLACK
6
CONTINUOUS
10
109.156
20
-225.551
11
108.299
21
-225.551
0
LINE
8
BLACK
6
CONTINUOUS
10
108.299
20
-225.551
11
108.013
21
-225.408
0
LINE
8
BLACK
6
CONTINUOUS
10
108.013
20
-225.408
11
107.87
21
-225.265
0
LINE
8
BLACK
6
CONTINUOUS
10
111.013
20
-225.265
11
111.156
21
-225.408
0
LINE
8
BLACK
6
CONTINUOUS
10
111.156
20
-225.408
11
111.013
21
-225.551
0
LINE
8
BLACK
6
CONTINUOUS
10
111.013
20
-225.551
11
110.87
21
-225.408
0
LINE
8
BLACK
6
CONTINUOUS
10
110.87
20
-225.408
11
111.013
21
-225.265
0
LINE
8
BLACK
6
CONTINUOUS
10
111.013
20
-225.265
11
111.013
21
-225.551
0
LINE
8
BLACK
6
CONTINUOUS
10
113.013
20
-222.551
11
113.299
21
-222.551
0
LINE
8
BLACK
6
CONTINUOUS
10
113.299
20
-222.551
11
113.585
21
-222.693
0
LINE
8
BLACK
6
CONTINUOUS
10
113.585
20
-222.693
11
113.727
21
-222.836
0
LINE
8
BLACK
6
CONTINUOUS
10
113.727
20
-222.836
11
113.87
21
-223.122
0
LINE
8
BLACK
6
CONTINUOUS
10
113.87
20
-223.122
11
114.013
21
-223.693
0
LINE
8
BLACK
6
CONTINUOUS
10
114.013
20
-223.693
11
114.013
21
-224.408
0
LINE
8
BLACK
6
CONTINUOUS
10
114.013
20
-224.408
11
113.87
21
-224.979
0
LINE
8
BLACK
6
CONTINUOUS
10
113.87
20
-224.979
11
113.727
21
-225.265
0
LINE
8
BLACK
6
CONTINUOUS
10
113.727
20
-225.265
11
113.585
21
-225.408
0
LINE
8
BLACK
6
CONTINUOUS
10
113.585
20
-225.408
11
113.299
21
-225.551
0
LINE
8
BLACK
6
CONTINUOUS
10
113.299
20
-225.551
11
113.013
21
-225.551
0
LINE
8
BLACK
6
CONTINUOUS
10
113.013
20
-225.551
11
112.727
21
-225.408
0
LINE
8
BLACK
6
CONTINUOUS
10
112.727
20
-225.408
11
112.585
21
-225.265
0
LINE
8
BLACK
6
CONTINUOUS
10
112.585
20
-225.265
11
112.442
21
-224.979
0
LINE
8
BLACK
6
CONTINUOUS
10
112.442
20
-224.979
11
112.299
21
-224.408
0
LINE
8
BLACK
6
CONTINUOUS
10
112.299
20
-224.408
11
112.299
21
-223.693
0
LINE
8
BLACK
6
CONTINUOUS
10
112.299
20
-223.693
11
112.442
21
-223.122
0
LINE
8
BLACK
6
CONTINUOUS
10
112.442
20
-223.122
11
112.585
21
-222.836
0
LINE
8
BLACK
6
CONTINUOUS
10
112.585
20
-222.836
11
112.727
21
-222.693
0
LINE
8
BLACK
6
CONTINUOUS
10
112.727
20
-222.693
11
113.013
21
-222.551
0
LINE
8
BLACK
6
CONTINUOUS
10
115.87
20
-222.551
11
116.156
21
-222.551
0
LINE
8
BLACK
6
CONTINUOUS
10
116.156
20
-222.551
11
116.442
21
-222.693
0
LINE
8
BLACK
6
CONTINUOUS
10
116.442
20
-222.693
11
116.585
21
-222.836
0
LINE
8
BLACK
6
CONTINUOUS
10
116.585
20
-222.836
11
116.727
21
-223.122
0
LINE
8
BLACK
6
CONTINUOUS
10
116.727
20
-223.122
11
116.87
21
-223.693
0
LINE
8
BLACK
6
CONTINUOUS
10
116.87
20
-223.693
11
116.87
21
-224.408
0
LINE
8
BLACK
6
CONTINUOUS
10
116.87
20
-224.408
11
116.727
21
-224.979
0
LINE
8
BLACK
6
CONTINUOUS
10
116.727
20
-224.979
11
116.585
21
-225.265
0
LINE
8
BLACK
6
CONTINUOUS
10
116.585
20
-225.265
11
116.442
21
-225.408
0
LINE
8
BLACK
6
CONTINUOUS
10
116.442
20
-225.408
11
116.156
21
-225.551
0
LINE
8
BLACK
6
CONTINUOUS
10
116.156
20
-225.551
11
115.87
21
-225.551
0
LINE
8
BLACK
6
CONTINUOUS
10
115.87
20
-225.551
11
115.585
21
-225.408
0
LINE
8
BLACK
6
CONTINUOUS
10
115.585
20
-225.408
11
115.442
21
-225.265
0
LINE
8
BLACK
6
CONTINUOUS
10
115.442
20
-225.265
11
115.299
21
-224.979
0
LINE
8
BLACK
6
CONTINUOUS
10
115.299
20
-224.979
11
115.156
21
-224.408
0
LINE
8
BLACK
6
CONTINUOUS
10
115.156
20
-224.408
11
115.156
21
-223.693
0
LINE
8
BLACK
6
CONTINUOUS
10
115.156
20
-223.693
11
115.299
21
-223.122
0
LINE
8
BLACK
6
CONTINUOUS
10
115.299
20
-223.122
11
115.442
21
-222.836
0
LINE
8
BLACK
6
CONTINUOUS
10
115.442
20
-222.836
11
115.585
21
-222.693
0
LINE
8
BLACK
6
CONTINUOUS
10
115.585
20
-222.693
11
115.87
21
-222.551
0
LINE
8
BLACK
6
CONTINUOUS
10
118.156
20
-225.551
11
118.156
21
-223.551
0
LINE
8
BLACK
6
CONTINUOUS
10
118.156
20
-223.836
11
118.299
21
-223.693
0
LINE
8
BLACK
6
CONTINUOUS
10
118.299
20
-223.693
11
118.585
21
-223.551
0
LINE
8
BLACK
6
CONTINUOUS
10
118.585
20
-223.551
11
119.013
21
-223.551
0
LINE
8
BLACK
6
CONTINUOUS
10
119.013
20
-223.551
11
119.299
21
-223.693
0
LINE
8
BLACK
6
CONTINUOUS
10
119.299
20
-223.693
11
119.442
21
-223.979
0
LINE
8
BLACK
6
CONTINUOUS
10
119.442
20
-223.979
11
119.442
21
-225.551
0
LINE
8
BLACK
6
CONTINUOUS
10
119.442
20
-223.979
11
119.585
21
-223.693
0
LINE
8
BLACK
6
CONTINUOUS
10
119.585
20
-223.693
11
119.87
21
-223.551
0
LINE
8
BLACK
6
CONTINUOUS
10
119.87
20
-223.551
11
120.299
21
-223.551
0
LINE
8
BLACK
6
CONTINUOUS
10
120.299
20
-223.551
11
120.585
21
-223.693
0
LINE
8
BLACK
6
CONTINUOUS
10
120.585
20
-223.693
11
120.727
21
-223.979
0
LINE
8
BLACK
6
CONTINUOUS
10
120.727
20
-223.979
11
120.727
21
-225.551
0
LINE
8
BLACK
6
CONTINUOUS
10
122.156
20
-225.551
11
122.156
21
-223.551
0
LINE
8
BLACK
6
CONTINUOUS
10
122.156
20
-223.836
11
122.299
21
-223.693
0
LINE
8
BLACK
6
CONTINUOUS
10
122.299
20
-223.693
11
122.585
21
-223.551
0
LINE
8
BLACK
6
CONTINUOUS
10
122.585
20
-223.551
11
123.013
21
-223.551
0
LINE
8
BLACK
6
CONTINUOUS
10
123.013
20
-223.551
11
123.299
21
-223.693
0
LINE
8
BLACK
6
CONTINUOUS
10
123.299
20
-223.693
11
123.442
21
-223.979
0
LINE
8
BLACK
6
CONTINUOUS
10
123.442
20
-223.979
11
123.442
21
-225.551
0
LINE
8
BLACK
6
CONTINUOUS
10
123.442
20
-223.979
11
123.585
21
-223.693
0
LINE
8
BLACK
6
CONTINUOUS
10
123.585
20
-223.693
11
123.87
21
-223.551
0
LINE
8
BLACK
6
CONTINUOUS
10
123.87
20
-223.551
11
124.299
21
-223.551
0
LINE
8
BLACK
6
CONTINUOUS
10
124.299
20
-223.551
11
124.585
21
-223.693
0
LINE
8
BLACK
6
CONTINUOUS
10
124.585
20
-223.693
11
124.727
21
-223.979
0
LINE
8
BLACK
6
CONTINUOUS
10
124.727
20
-223.979
11
124.727
21
-225.551
0
LINE
8
BLACK
6
CONTINUOUS
10
130.585
20
-222.408
11
128.013
21
-226.265
0
LINE
8
BLACK
6
CONTINUOUS
10
134.442
20
-222.551
11
134.727
21
-222.551
0
LINE
8
BLACK
6
CONTINUOUS
10
134.727
20
-222.551
11
135.013
21
-222.693
0
LINE
8
BLACK
6
CONTINUOUS
10
135.013
20
-222.693
11
135.156
21
-222.836
0
LINE
8
BLACK
6
CONTINUOUS
10
135.156
20
-222.836
11
135.299
21
-223.122
0
LINE
8
BLACK
6
CONTINUOUS
10
135.299
20
-223.122
11
135.442
21
-223.693
0
LINE
8
BLACK
6
CONTINUOUS
10
135.442
20
-223.693
11
135.442
21
-224.408
0
LINE
8
BLACK
6
CONTINUOUS
10
135.442
20
-224.408
11
135.299
21
-224.979
0
LINE
8
BLACK
6
CONTINUOUS
10
135.299
20
-224.979
11
135.156
21
-225.265
0
LINE
8
BLACK
6
CONTINUOUS
10
135.156
20
-225.265
11
135.013
21
-225.408
0
LINE
8
BLACK
6
CONTINUOUS
10
135.013
20
-225.408
11
134.727
21
-225.551
0
LINE
8
BLACK
6
CONTINUOUS
10
134.727
20
-225.551
11
134.442
21
-225.551
0
LINE
8
BLACK
6
CONTINUOUS
10
134.442
20
-225.551
11
134.156
21
-225.408
0
LINE
8
BLACK
6
CONTINUOUS
10
134.156
20
-225.408
11
134.013
21
-225.265
0
LINE
8
BLACK
6
CONTINUOUS
10
134.013
20
-225.265
11
133.87
21
-224.979
0
LINE
8
BLACK
6
CONTINUOUS
10
133.87
20
-224.979
11
133.727
21
-224.408
0
LINE
8
BLACK
6
CONTINUOUS
10
133.727
20
-224.408
11
133.727
21
-223.693
0
LINE
8
BLACK
6
CONTINUOUS
10
133.727
20
-223.693
11
133.87
21
-223.122
0
LINE
8
BLACK
6
CONTINUOUS
10
133.87
20
-223.122
11
134.013
21
-222.836
0
LINE
8
BLACK
6
CONTINUOUS
10
134.013
20
-222.836
11
134.156
21
-222.693
0
LINE
8
BLACK
6
CONTINUOUS
10
134.156
20
-222.693
11
134.442
21
-222.551
0
LINE
8
BLACK
6
CONTINUOUS
10
136.727
20
-225.265
11
136.87
21
-225.408
0
LINE
8
BLACK
6
CONTINUOUS
10
136.87
20
-225.408
11
136.727
21
-225.551
0
LINE
8
BLACK
6
CONTINUOUS
10
136.727
20
-225.551
11
136.585
21
-225.408
0
LINE
8
BLACK
6
CONTINUOUS
10
136.585
20
-225.408
11
136.727
21
-225.265
0
LINE
8
BLACK
6
CONTINUOUS
10
136.727
20
-225.265
11
136.727
21
-225.551
0
LINE
8
BLACK
6
CONTINUOUS
10
139.727
20
-225.551
11
138.013
21
-225.551
0
LINE
8
BLACK
6
CONTINUOUS
10
138.87
20
-225.551
11
138.87
21
-222.551
0
LINE
8
BLACK
6
CONTINUOUS
10
138.87
20
-222.551
11
138.585
21
-222.979
0
LINE
8
BLACK
6
CONTINUOUS
10
138.585
20
-222.979
11
138.299
21
-223.265
0
LINE
8
BLACK
6
CONTINUOUS
10
138.299
20
-223.265
11
138.013
21
-223.408
0
LINE
8
BLACK
6
CONTINUOUS
10
142.585
20
-225.551
11
140.87
21
-225.551
0
LINE
8
BLACK
6
CONTINUOUS
10
141.727
20
-225.551
11
141.727
21
-222.551
0
LINE
8
BLACK
6
CONTINUOUS
10
141.727
20
-222.551
11
141.442
21
-222.979
0
LINE
8
BLACK
6
CONTINUOUS
10
141.442
20
-222.979
11
141.156
21
-223.265
0
LINE
8
BLACK
6
CONTINUOUS
10
141.156
20
-223.265
11
140.87
21
-223.408
0
LINE
8
BLACK
6
CONTINUOUS
10
144.299
20
-223.836
11
144.013
21
-223.693
0
LINE
8
BLACK
6
CONTINUOUS
10
144.013
20
-223.693
11
143.87
21
-223.551
0
LINE
8
BLACK
6
CONTINUOUS
10
143.87
20
-223.551
11
143.727
21
-223.265
0
LINE
8
BLACK
6
CONTINUOUS
10
143.727
20
-223.265
11
143.727
21
-223.122
0
LINE
8
BLACK
6
CONTINUOUS
10
143.727
20
-223.122
11
143.87
21
-222.836
0
LINE
8
BLACK
6
CONTINUOUS
10
143.87
20
-222.836
11
144.013
21
-222.693
0
LINE
8
BLACK
6
CONTINUOUS
10
144.013
20
-222.693
11
144.299
21
-222.551
0
LINE
8
BLACK
6
CONTINUOUS
10
144.299
20
-222.551
11
144.87
21
-222.551
0
LINE
8
BLACK
6
CONTINUOUS
10
144.87
20
-222.551
11
145.156
21
-222.693
0
LINE
8
BLACK
6
CONTINUOUS
10
145.156
20
-222.693
11
145.299
21
-222.836
0
LINE
8
BLACK
6
CONTINUOUS
10
145.299
20
-222.836
11
145.442
21
-223.122
0
LINE
8
BLACK
6
CONTINUOUS
10
145.442
20
-223.122
11
145.442
21
-223.265
0
LINE
8
BLACK
6
CONTINUOUS
10
145.442
20
-223.265
11
145.299
21
-223.551
0
LINE
8
BLACK
6
CONTINUOUS
10
145.299
20
-223.551
11
145.156
21
-223.693
0
LINE
8
BLACK
6
CONTINUOUS
10
145.156
20
-223.693
11
144.87
21
-223.836
0
LINE
8
BLACK
6
CONTINUOUS
10
144.87
20
-223.836
11
144.299
21
-223.836
0
LINE
8
BLACK
6
CONTINUOUS
10
144.299
20
-223.836
11
144.013
21
-223.979
0
LINE
8
BLACK
6
CONTINUOUS
10
144.013
20
-223.979
11
143.87
21
-224.122
0
LINE
8
BLACK
6
CONTINUOUS
10
143.87
20
-224.122
11
143.727
21
-224.408
0
LINE
8
BLACK
6
CONTINUOUS
10
143.727
20
-224.408
11
143.727
21
-224.979
0
LINE
8
BLACK
6
CONTINUOUS
10
143.727
20
-224.979
11
143.87
21
-225.265
0
LINE
8
BLACK
6
CONTINUOUS
10
143.87
20
-225.265
11
144.013
21
-225.408
0
LINE
8
BLACK
6
CONTINUOUS
10
144.013
20
-225.408
11
144.299
21
-225.551
0
LINE
8
BLACK
6
CONTINUOUS
10
144.299
20
-225.551
11
144.87
21
-225.551
0
LINE
8
BLACK
6
CONTINUOUS
10
144.87
20
-225.551
11
145.156
21
-225.408
0
LINE
8
BLACK
6
CONTINUOUS
10
145.156
20
-225.408
11
145.299
21
-225.265
0
LINE
8
BLACK
6
CONTINUOUS
10
145.299
20
-225.265
11
145.442
21
-224.979
0
LINE
8
BLACK
6
CONTINUOUS
10
145.442
20
-224.979
11
145.442
21
-224.408
0
LINE
8
BLACK
6
CONTINUOUS
10
145.442
20
-224.408
11
145.299
21
-224.122
0
LINE
8
BLACK
6
CONTINUOUS
10
145.299
20
-224.122
11
145.156
21
-223.979
0
LINE
8
BLACK
6
CONTINUOUS
10
145.156
20
-223.979
11
144.87
21
-223.836
0
LINE
8
BLACK
6
CONTINUOUS
10
146.585
20
-222.551
11
146.585
21
-223.122
0
LINE
8
BLACK
6
CONTINUOUS
10
147.727
20
-222.551
11
147.727
21
-223.122
0
LINE
8
BLACK
6
CONTINUOUS
10
152.156
20
-226.693
11
152.013
21
-226.551
0
LINE
8
BLACK
6
CONTINUOUS
10
152.013
20
-226.551
11
151.727
21
-226.122
0
LINE
8
BLACK
6
CONTINUOUS
10
151.727
20
-226.122
11
151.585
21
-225.836
0
LINE
8
BLACK
6
CONTINUOUS
10
151.585
20
-225.836
11
151.442
21
-225.408
0
LINE
8
BLACK
6
CONTINUOUS
10
151.442
20
-225.408
11
151.299
21
-224.693
0
LINE
8
BLACK
6
CONTINUOUS
10
151.299
20
-224.693
11
151.299
21
-224.122
0
LINE
8
BLACK
6
CONTINUOUS
10
151.299
20
-224.122
11
151.442
21
-223.408
0
LINE
8
BLACK
6
CONTINUOUS
10
151.442
20
-223.408
11
151.585
21
-222.979
0
LINE
8
BLACK
6
CONTINUOUS
10
151.585
20
-222.979
11
151.727
21
-222.693
0
LINE
8
BLACK
6
CONTINUOUS
10
151.727
20
-222.693
11
152.013
21
-222.265
0
LINE
8
BLACK
6
CONTINUOUS
10
152.013
20
-222.265
11
152.156
21
-222.122
0
LINE
8
BLACK
6
CONTINUOUS
10
153.013
20
-222.551
11
155.013
21
-222.551
0
LINE
8
BLACK
6
CONTINUOUS
10
155.013
20
-222.551
11
153.727
21
-225.551
0
LINE
8
BLACK
6
CONTINUOUS
10
157.442
20
-222.551
11
156.87
21
-222.551
0
LINE
8
BLACK
6
CONTINUOUS
10
156.87
20
-222.551
11
156.585
21
-222.693
0
LINE
8
BLACK
6
CONTINUOUS
10
156.585
20
-222.693
11
156.442
21
-222.836
0
LINE
8
BLACK
6
CONTINUOUS
10
156.442
20
-222.836
11
156.156
21
-223.265
0
LINE
8
BLACK
6
CONTINUOUS
10
156.156
20
-223.265
11
156.013
21
-223.836
0
LINE
8
BLACK
6
CONTINUOUS
10
156.013
20
-223.836
11
156.013
21
-224.979
0
LINE
8
BLACK
6
CONTINUOUS
10
156.013
20
-224.979
11
156.156
21
-225.265
0
LINE
8
BLACK
6
CONTINUOUS
10
156.156
20
-225.265
11
156.299
21
-225.408
0
LINE
8
BLACK
6
CONTINUOUS
10
156.299
20
-225.408
11
156.585
21
-225.551
0
LINE
8
BLACK
6
CONTINUOUS
10
156.585
20
-225.551
11
157.156
21
-225.551
0
LINE
8
BLACK
6
CONTINUOUS
10
157.156
20
-225.551
11
157.442
21
-225.408
0
LINE
8
BLACK
6
CONTINUOUS
10
157.442
20
-225.408
11
157.585
21
-225.265
0
LINE
8
BLACK
6
CONTINUOUS
10
157.585
20
-225.265
11
157.727
21
-224.979
0
LINE
8
BLACK
6
CONTINUOUS
10
157.727
20
-224.979
11
157.727
21
-224.265
0
LINE
8
BLACK
6
CONTINUOUS
10
157.727
20
-224.265
11
157.585
21
-223.979
0
LINE
8
BLACK
6
CONTINUOUS
10
157.585
20
-223.979
11
157.442
21
-223.836
0
LINE
8
BLACK
6
CONTINUOUS
10
157.442
20
-223.836
11
157.156
21
-223.693
0
LINE
8
BLACK
6
CONTINUOUS
10
157.156
20
-223.693
11
156.585
21
-223.693
0
LINE
8
BLACK
6
CONTINUOUS
10
156.585
20
-223.693
11
156.299
21
-223.836
0
LINE
8
BLACK
6
CONTINUOUS
10
156.299
20
-223.836
11
156.156
21
-223.979
0
LINE
8
BLACK
6
CONTINUOUS
10
156.156
20
-223.979
11
156.013
21
-224.265
0
LINE
8
BLACK
6
CONTINUOUS
10
161.299
20
-225.551
11
161.299
21
-222.551
0
LINE
8
BLACK
6
CONTINUOUS
10
162.585
20
-225.551
11
162.585
21
-223.979
0
LINE
8
BLACK
6
CONTINUOUS
10
162.585
20
-223.979
11
162.442
21
-223.693
0
LINE
8
BLACK
6
CONTINUOUS
10
162.442
20
-223.693
11
162.156
21
-223.551
0
LINE
8
BLACK
6
CONTINUOUS
10
162.156
20
-223.551
11
161.727
21
-223.551
0
LINE
8
BLACK
6
CONTINUOUS
10
161.727
20
-223.551
11
161.442
21
-223.693
0
LINE
8
BLACK
6
CONTINUOUS
10
161.442
20
-223.693
11
161.299
21
-223.836
0
LINE
8
BLACK
6
CONTINUOUS
10
164.442
20
-225.551
11
164.156
21
-225.408
0
LINE
8
BLACK
6
CONTINUOUS
10
164.156
20
-225.408
11
164.013
21
-225.265
0
LINE
8
BLACK
6
CONTINUOUS
10
164.013
20
-225.265
11
163.87
21
-224.979
0
LINE
8
BLACK
6
CONTINUOUS
10
163.87
20
-224.979
11
163.87
21
-224.122
0
LINE
8
BLACK
6
CONTINUOUS
10
163.87
20
-224.122
11
164.013
21
-223.836
0
LINE
8
BLACK
6
CONTINUOUS
10
164.013
20
-223.836
11
164.156
21
-223.693
0
LINE
8
BLACK
6
CONTINUOUS
10
164.156
20
-223.693
11
164.442
21
-223.551
0
LINE
8
BLACK
6
CONTINUOUS
10
164.442
20
-223.551
11
164.87
21
-223.551
0
LINE
8
BLACK
6
CONTINUOUS
10
164.87
20
-223.551
11
165.156
21
-223.693
0
LINE
8
BLACK
6
CONTINUOUS
10
165.156
20
-223.693
11
165.299
21
-223.836
0
LINE
8
BLACK
6
CONTINUOUS
10
165.299
20
-223.836
11
165.442
21
-224.122
0
LINE
8
BLACK
6
CONTINUOUS
10
165.442
20
-224.122
11
165.442
21
-224.979
0
LINE
8
BLACK
6
CONTINUOUS
10
165.442
20
-224.979
11
165.299
21
-225.265
0
LINE
8
BLACK
6
CONTINUOUS
10
165.299
20
-225.265
11
165.156
21
-225.408
0
LINE
8
BLACK
6
CONTINUOUS
10
165.156
20
-225.408
11
164.87
21
-225.551
0
LINE
8
BLACK
6
CONTINUOUS
10
164.87
20
-225.551
11
164.442
21
-225.551
0
LINE
8
BLACK
6
CONTINUOUS
10
167.156
20
-225.551
11
166.87
21
-225.408
0
LINE
8
BLACK
6
CONTINUOUS
10
166.87
20
-225.408
11
166.727
21
-225.122
0
LINE
8
BLACK
6
CONTINUOUS
10
166.727
20
-225.122
11
166.727
21
-222.551
0
LINE
8
BLACK
6
CONTINUOUS
10
169.442
20
-225.408
11
169.156
21
-225.551
0
LINE
8
BLACK
6
CONTINUOUS
10
169.156
20
-225.551
11
168.585
21
-225.551
0
LINE
8
BLACK
6
CONTINUOUS
10
168.585
20
-225.551
11
168.299
21
-225.408
0
LINE
8
BLACK
6
CONTINUOUS
10
168.299
20
-225.408
11
168.156
21
-225.122
0
LINE
8
BLACK
6
CONTINUOUS
10
168.156
20
-225.122
11
168.156
21
-223.979
0
LINE
8
BLACK
6
CONTINUOUS
10
168.156
20
-223.979
11
168.299
21
-223.693
0
LINE
8
BLACK
6
CONTINUOUS
10
168.299
20
-223.693
11
168.585
21
-223.551
0
LINE
8
BLACK
6
CONTINUOUS
10
168.585
20
-223.551
11
169.156
21
-223.551
0
LINE
8
BLACK
6
CONTINUOUS
10
169.156
20
-223.551
11
169.442
21
-223.693
0
LINE
8
BLACK
6
CONTINUOUS
10
169.442
20
-223.693
11
169.585
21
-223.979
0
LINE
8
BLACK
6
CONTINUOUS
10
169.585
20
-223.979
11
169.585
21
-224.265
0
LINE
8
BLACK
6
CONTINUOUS
10
169.585
20
-224.265
11
168.156
21
-224.551
0
LINE
8
BLACK
6
CONTINUOUS
10
170.727
20
-225.408
11
171.013
21
-225.551
0
LINE
8
BLACK
6
CONTINUOUS
10
171.013
20
-225.551
11
171.585
21
-225.551
0
LINE
8
BLACK
6
CONTINUOUS
10
171.585
20
-225.551
11
171.87
21
-225.408
0
LINE
8
BLACK
6
CONTINUOUS
10
171.87
20
-225.408
11
172.013
21
-225.122
0
LINE
8
BLACK
6
CONTINUOUS
10
172.013
20
-225.122
11
172.013
21
-224.979
0
LINE
8
BLACK
6
CONTINUOUS
10
172.013
20
-224.979
11
171.87
21
-224.693
0
LINE
8
BLACK
6
CONTINUOUS
10
171.87
20
-224.693
11
171.585
21
-224.551
0
LINE
8
BLACK
6
CONTINUOUS
10
171.585
20
-224.551
11
171.156
21
-224.551
0
LINE
8
BLACK
6
CONTINUOUS
10
171.156
20
-224.551
11
170.87
21
-224.408
0
LINE
8
BLACK
6
CONTINUOUS
10
170.87
20
-224.408
11
170.727
21
-224.122
0
LINE
8
BLACK
6
CONTINUOUS
10
170.727
20
-224.122
11
170.727
21
-223.979
0
LINE
8
BLACK
6
CONTINUOUS
10
170.727
20
-223.979
11
170.87
21
-223.693
0
LINE
8
BLACK
6
CONTINUOUS
10
170.87
20
-223.693
11
171.156
21
-223.551
0
LINE
8
BLACK
6
CONTINUOUS
10
171.156
20
-223.551
11
171.585
21
-223.551
0
LINE
8
BLACK
6
CONTINUOUS
10
171.585
20
-223.551
11
171.87
21
-223.693
0
LINE
8
BLACK
6
CONTINUOUS
10
173.013
20
-226.693
11
173.156
21
-226.551
0
LINE
8
BLACK
6
CONTINUOUS
10
173.156
20
-226.551
11
173.442
21
-226.122
0
LINE
8
BLACK
6
CONTINUOUS
10
173.442
20
-226.122
11
173.585
21
-225.836
0
LINE
8
BLACK
6
CONTINUOUS
10
173.585
20
-225.836
11
173.727
21
-225.408
0
LINE
8
BLACK
6
CONTINUOUS
10
173.727
20
-225.408
11
173.87
21
-224.693
0
LINE
8
BLACK
6
CONTINUOUS
10
173.87
20
-224.693
11
173.87
21
-224.122
0
LINE
8
BLACK
6
CONTINUOUS
10
173.87
20
-224.122
11
173.727
21
-223.408
0
LINE
8
BLACK
6
CONTINUOUS
10
173.727
20
-223.408
11
173.585
21
-222.979
0
LINE
8
BLACK
6
CONTINUOUS
10
173.585
20
-222.979
11
173.442
21
-222.693
0
LINE
8
BLACK
6
CONTINUOUS
10
173.442
20
-222.693
11
173.156
21
-222.265
0
LINE
8
BLACK
6
CONTINUOUS
10
173.156
20
-222.265
11
173.013
21
-222.122
0
LINE
8
BLACK
6
CONTINUOUS
10
178.442
20
-226.693
11
178.299
21
-226.551
0
LINE
8
BLACK
6
CONTINUOUS
10
178.299
20
-226.551
11
178.013
21
-226.122
0
LINE
8
BLACK
6
CONTINUOUS
10
178.013
20
-226.122
11
177.87
21
-225.836
0
LINE
8
BLACK
6
CONTINUOUS
10
177.87
20
-225.836
11
177.727
21
-225.408
0
LINE
8
BLACK
6
CONTINUOUS
10
177.727
20
-225.408
11
177.585
21
-224.693
0
LINE
8
BLACK
6
CONTINUOUS
10
177.585
20
-224.693
11
177.585
21
-224.122
0
LINE
8
BLACK
6
CONTINUOUS
10
177.585
20
-224.122
11
177.727
21
-223.408
0
LINE
8
BLACK
6
CONTINUOUS
10
177.727
20
-223.408
11
177.87
21
-222.979
0
LINE
8
BLACK
6
CONTINUOUS
10
177.87
20
-222.979
11
178.013
21
-222.693
0
LINE
8
BLACK
6
CONTINUOUS
10
178.013
20
-222.693
11
178.299
21
-222.265
0
LINE
8
BLACK
6
CONTINUOUS
10
178.299
20
-222.265
11
178.442
21
-222.122
0
LINE
8
BLACK
6
CONTINUOUS
10
179.585
20
-223.551
11
179.585
21
-225.551
0
LINE
8
BLACK
6
CONTINUOUS
10
179.585
20
-223.836
11
179.727
21
-223.693
0
LINE
8
BLACK
6
CONTINUOUS
10
179.727
20
-223.693
11
180.013
21
-223.551
0
LINE
8
BLACK
6
CONTINUOUS
10
180.013
20
-223.551
11
180.442
21
-223.551
0
LINE
8
BLACK
6
CONTINUOUS
10
180.442
20
-223.551
11
180.727
21
-223.693
0
LINE
8
BLACK
6
CONTINUOUS
10
180.727
20
-223.693
11
180.87
21
-223.979
0
LINE
8
BLACK
6
CONTINUOUS
10
180.87
20
-223.979
11
180.87
21
-225.551
0
LINE
8
BLACK
6
CONTINUOUS
10
182.727
20
-225.551
11
182.442
21
-225.408
0
LINE
8
BLACK
6
CONTINUOUS
10
182.442
20
-225.408
11
182.299
21
-225.265
0
LINE
8
BLACK
6
CONTINUOUS
10
182.299
20
-225.265
11
182.156
21
-224.979
0
LINE
8
BLACK
6
CONTINUOUS
10
182.156
20
-224.979
11
182.156
21
-224.122
0
LINE
8
BLACK
6
CONTINUOUS
10
182.156
20
-224.122
11
182.299
21
-223.836
0
LINE
8
BLACK
6
CONTINUOUS
10
182.299
20
-223.836
11
182.442
21
-223.693
0
LINE
8
BLACK
6
CONTINUOUS
10
182.442
20
-223.693
11
182.727
21
-223.551
0
LINE
8
BLACK
6
CONTINUOUS
10
182.727
20
-223.551
11
183.156
21
-223.551
0
LINE
8
BLACK
6
CONTINUOUS
10
183.156
20
-223.551
11
183.442
21
-223.693
0
LINE
8
BLACK
6
CONTINUOUS
10
183.442
20
-223.693
11
183.585
21
-223.836
0
LINE
8
BLACK
6
CONTINUOUS
10
183.585
20
-223.836
11
183.727
21
-224.122
0
LINE
8
BLACK
6
CONTINUOUS
10
183.727
20
-224.122
11
183.727
21
-224.979
0
LINE
8
BLACK
6
CONTINUOUS
10
183.727
20
-224.979
11
183.585
21
-225.265
0
LINE
8
BLACK
6
CONTINUOUS
10
183.585
20
-225.265
11
183.442
21
-225.408
0
LINE
8
BLACK
6
CONTINUOUS
10
183.442
20
-225.408
11
183.156
21
-225.551
0
LINE
8
BLACK
6
CONTINUOUS
10
183.156
20
-225.551
11
182.727
21
-225.551
0
LINE
8
BLACK
6
CONTINUOUS
10
184.585
20
-223.551
11
185.727
21
-223.551
0
LINE
8
BLACK
6
CONTINUOUS
10
185.013
20
-222.551
11
185.013
21
-225.122
0
LINE
8
BLACK
6
CONTINUOUS
10
185.013
20
-225.122
11
185.156
21
-225.408
0
LINE
8
BLACK
6
CONTINUOUS
10
185.156
20
-225.408
11
185.442
21
-225.551
0
LINE
8
BLACK
6
CONTINUOUS
10
185.442
20
-225.551
11
185.727
21
-225.551
0
LINE
8
BLACK
6
CONTINUOUS
10
189.013
20
-223.551
11
189.013
21
-226.551
0
LINE
8
BLACK
6
CONTINUOUS
10
189.013
20
-223.693
11
189.299
21
-223.551
0
LINE
8
BLACK
6
CONTINUOUS
10
189.299
20
-223.551
11
189.87
21
-223.551
0
LINE
8
BLACK
6
CONTINUOUS
10
189.87
20
-223.551
11
190.156
21
-223.693
0
LINE
8
BLACK
6
CONTINUOUS
10
190.156
20
-223.693
11
190.299
21
-223.836
0
LINE
8
BLACK
6
CONTINUOUS
10
190.299
20
-223.836
11
190.442
21
-224.122
0
LINE
8
BLACK
6
CONTINUOUS
10
190.442
20
-224.122
11
190.442
21
-224.979
0
LINE
8
BLACK
6
CONTINUOUS
10
190.442
20
-224.979
11
190.299
21
-225.265
0
LINE
8
BLACK
6
CONTINUOUS
10
190.299
20
-225.265
11
190.156
21
-225.408
0
LINE
8
BLACK
6
CONTINUOUS
10
190.156
20
-225.408
11
189.87
21
-225.551
0
LINE
8
BLACK
6
CONTINUOUS
10
189.87
20
-225.551
11
189.299
21
-225.551
0
LINE
8
BLACK
6
CONTINUOUS
10
189.299
20
-225.551
11
189.013
21
-225.408
0
LINE
8
BLACK
6
CONTINUOUS
10
192.156
20
-225.551
11
191.87
21
-225.408
0
LINE
8
BLACK
6
CONTINUOUS
10
191.87
20
-225.408
11
191.727
21
-225.122
0
LINE
8
BLACK
6
CONTINUOUS
10
191.727
20
-225.122
11
191.727
21
-222.551
0
LINE
8
BLACK
6
CONTINUOUS
10
194.585
20
-225.551
11
194.585
21
-223.979
0
LINE
8
BLACK
6
CONTINUOUS
10
194.585
20
-223.979
11
194.442
21
-223.693
0
LINE
8
BLACK
6
CONTINUOUS
10
194.442
20
-223.693
11
194.156
21
-223.551
0
LINE
8
BLACK
6
CONTINUOUS
10
194.156
20
-223.551
11
193.585
21
-223.551
0
LINE
8
BLACK
6
CONTINUOUS
10
193.585
20
-223.551
11
193.299
21
-223.693
0
LINE
8
BLACK
6
CONTINUOUS
10
194.585
20
-225.408
11
194.299
21
-225.551
0
LINE
8
BLACK
6
CONTINUOUS
10
194.299
20
-225.551
11
193.585
21
-225.551
0
LINE
8
BLACK
6
CONTINUOUS
10
193.585
20
-225.551
11
193.299
21
-225.408
0
LINE
8
BLACK
6
CONTINUOUS
10
193.299
20
-225.408
11
193.156
21
-225.122
0
LINE
8
BLACK
6
CONTINUOUS
10
193.156
20
-225.122
11
193.156
21
-224.836
0
LINE
8
BLACK
6
CONTINUOUS
10
193.156
20
-224.836
11
193.299
21
-224.551
0
LINE
8
BLACK
6
CONTINUOUS
10
193.299
20
-224.551
11
193.585
21
-224.408
0
LINE
8
BLACK
6
CONTINUOUS
10
193.585
20
-224.408
11
194.299
21
-224.408
0
LINE
8
BLACK
6
CONTINUOUS
10
194.299
20
-224.408
11
194.585
21
-224.265
0
LINE
8
BLACK
6
CONTINUOUS
10
195.585
20
-223.551
11
196.727
21
-223.551
0
LINE
8
BLACK
6
CONTINUOUS
10
196.013
20
-222.551
11
196.013
21
-225.122
0
LINE
8
BLACK
6
CONTINUOUS
10
196.013
20
-225.122
11
196.156
21
-225.408
0
LINE
8
BLACK
6
CONTINUOUS
10
196.156
20
-225.408
11
196.442
21
-225.551
0
LINE
8
BLACK
6
CONTINUOUS
10
196.442
20
-225.551
11
196.727
21
-225.551
0
LINE
8
BLACK
6
CONTINUOUS
10
198.87
20
-225.408
11
198.585
21
-225.551
0
LINE
8
BLACK
6
CONTINUOUS
10
198.585
20
-225.551
11
198.013
21
-225.551
0
LINE
8
BLACK
6
CONTINUOUS
10
198.013
20
-225.551
11
197.727
21
-225.408
0
LINE
8
BLACK
6
CONTINUOUS
10
197.727
20
-225.408
11
197.585
21
-225.122
0
LINE
8
BLACK
6
CONTINUOUS
10
197.585
20
-225.122
11
197.585
21
-223.979
0
LINE
8
BLACK
6
CONTINUOUS
10
197.585
20
-223.979
11
197.727
21
-223.693
0
LINE
8
BLACK
6
CONTINUOUS
10
197.727
20
-223.693
11
198.013
21
-223.551
0
LINE
8
BLACK
6
CONTINUOUS
10
198.013
20
-223.551
11
198.585
21
-223.551
0
LINE
8
BLACK
6
CONTINUOUS
10
198.585
20
-223.551
11
198.87
21
-223.693
0
LINE
8
BLACK
6
CONTINUOUS
10
198.87
20
-223.693
11
199.013
21
-223.979
0
LINE
8
BLACK
6
CONTINUOUS
10
199.013
20
-223.979
11
199.013
21
-224.265
0
LINE
8
BLACK
6
CONTINUOUS
10
199.013
20
-224.265
11
197.585
21
-224.551
0
LINE
8
BLACK
6
CONTINUOUS
10
201.585
20
-225.551
11
201.585
21
-222.551
0
LINE
8
BLACK
6
CONTINUOUS
10
201.585
20
-225.408
11
201.299
21
-225.551
0
LINE
8
BLACK
6
CONTINUOUS
10
201.299
20
-225.551
11
200.727
21
-225.551
0
LINE
8
BLACK
6
CONTINUOUS
10
200.727
20
-225.551
11
200.442
21
-225.408
0
LINE
8
BLACK
6
CONTINUOUS
10
200.442
20
-225.408
11
200.299
21
-225.265
0
LINE
8
BLACK
6
CONTINUOUS
10
200.299
20
-225.265
11
200.156
21
-224.979
0
LINE
8
BLACK
6
CONTINUOUS
10
200.156
20
-224.979
11
200.156
21
-224.122
0
LINE
8
BLACK
6
CONTINUOUS
10
200.156
20
-224.122
11
200.299
21
-223.836
0
LINE
8
BLACK
6
CONTINUOUS
10
200.299
20
-223.836
11
200.442
21
-223.693
0
LINE
8
BLACK
6
CONTINUOUS
10
200.442
20
-223.693
11
200.727
21
-223.551
0
LINE
8
BLACK
6
CONTINUOUS
10
200.727
20
-223.551
11
201.299
21
-223.551
0
LINE
8
BLACK
6
CONTINUOUS
10
201.299
20
-223.551
11
201.585
21
-223.693
0
LINE
8
BLACK
6
CONTINUOUS
10
202.727
20
-226.693
11
202.87
21
-226.551
0
LINE
8
BLACK
6
CONTINUOUS
10
202.87
20
-226.551
11
203.156
21
-226.122
0
LINE
8
BLACK
6
CONTINUOUS
10
203.156
20
-226.122
11
203.299
21
-225.836
0
LINE
8
BLACK
6
CONTINUOUS
10
203.299
20
-225.836
11
203.442
21
-225.408
0
LINE
8
BLACK
6
CONTINUOUS
10
203.442
20
-225.408
11
203.585
21
-224.693
0
LINE
8
BLACK
6
CONTINUOUS
10
203.585
20
-224.693
11
203.585
21
-224.122
0
LINE
8
BLACK
6
CONTINUOUS
10
203.585
20
-224.122
11
203.442
21
-223.408
0
LINE
8
BLACK
6
CONTINUOUS
10
203.442
20
-223.408
11
203.299
21
-222.979
0
LINE
8
BLACK
6
CONTINUOUS
10
203.299
20
-222.979
11
203.156
21
-222.693
0
LINE
8
BLACK
6
CONTINUOUS
10
203.156
20
-222.693
11
202.87
21
-222.265
0
LINE
8
BLACK
6
CONTINUOUS
10
202.87
20
-222.265
11
202.727
21
-222.122
0
LINE
8
BLACK
6
CONTINUOUS
10
103.292
20
-226.493
11
103.292
21
-230.493
0
LINE
8
BLACK
6
CONTINUOUS
10
101.292
20
-228.493
11
105.292
21
-228.493
0
LINE
8
BLACK
6
CONTINUOUS
10
109.442
20
-227.851
11
109.442
21
-229.851
0
LINE
8
BLACK
6
CONTINUOUS
10
108.727
20
-226.708
11
108.013
21
-228.851
0
LINE
8
BLACK
6
CONTINUOUS
10
108.013
20
-228.851
11
109.87
21
-228.851
0
LINE
8
BLACK
6
CONTINUOUS
10
111.013
20
-229.565
11
111.156
21
-229.708
0
LINE
8
BLACK
6
CONTINUOUS
10
111.156
20
-229.708
11
111.013
21
-229.851
0
LINE
8
BLACK
6
CONTINUOUS
10
111.013
20
-229.851
11
110.87
21
-229.708
0
LINE
8
BLACK
6
CONTINUOUS
10
110.87
20
-229.708
11
111.013
21
-229.565
0
LINE
8
BLACK
6
CONTINUOUS
10
111.013
20
-229.565
11
111.013
21
-229.851
0
LINE
8
BLACK
6
CONTINUOUS
10
113.013
20
-226.851
11
113.299
21
-226.851
0
LINE
8
BLACK
6
CONTINUOUS
10
113.299
20
-226.851
11
113.585
21
-226.993
0
LINE
8
BLACK
6
CONTINUOUS
10
113.585
20
-226.993
11
113.727
21
-227.136
0
LINE
8
BLACK
6
CONTINUOUS
10
113.727
20
-227.136
11
113.87
21
-227.422
0
LINE
8
BLACK
6
CONTINUOUS
10
113.87
20
-227.422
11
114.013
21
-227.993
0
LINE
8
BLACK
6
CONTINUOUS
10
114.013
20
-227.993
11
114.013
21
-228.708
0
LINE
8
BLACK
6
CONTINUOUS
10
114.013
20
-228.708
11
113.87
21
-229.279
0
LINE
8
BLACK
6
CONTINUOUS
10
113.87
20
-229.279
11
113.727
21
-229.565
0
LINE
8
BLACK
6
CONTINUOUS
10
113.727
20
-229.565
11
113.585
21
-229.708
0
LINE
8
BLACK
6
CONTINUOUS
10
113.585
20
-229.708
11
113.299
21
-229.851
0
LINE
8
BLACK
6
CONTINUOUS
10
113.299
20
-229.851
11
113.013
21
-229.851
0
LINE
8
BLACK
6
CONTINUOUS
10
113.013
20
-229.851
11
112.727
21
-229.708
0
LINE
8
BLACK
6
CONTINUOUS
10
112.727
20
-229.708
11
112.585
21
-229.565
0
LINE
8
BLACK
6
CONTINUOUS
10
112.585
20
-229.565
11
112.442
21
-229.279
0
LINE
8
BLACK
6
CONTINUOUS
10
112.442
20
-229.279
11
112.299
21
-228.708
0
LINE
8
BLACK
6
CONTINUOUS
10
112.299
20
-228.708
11
112.299
21
-227.993
0
LINE
8
BLACK
6
CONTINUOUS
10
112.299
20
-227.993
11
112.442
21
-227.422
0
LINE
8
BLACK
6
CONTINUOUS
10
112.442
20
-227.422
11
112.585
21
-227.136
0
LINE
8
BLACK
6
CONTINUOUS
10
112.585
20
-227.136
11
112.727
21
-226.993
0
LINE
8
BLACK
6
CONTINUOUS
10
112.727
20
-226.993
11
113.013
21
-226.851
0
LINE
8
BLACK
6
CONTINUOUS
10
115.87
20
-226.851
11
116.156
21
-226.851
0
LINE
8
BLACK
6
CONTINUOUS
10
116.156
20
-226.851
11
116.442
21
-226.993
0
LINE
8
BLACK
6
CONTINUOUS
10
116.442
20
-226.993
11
116.585
21
-227.136
0
LINE
8
BLACK
6
CONTINUOUS
10
116.585
20
-227.136
11
116.727
21
-227.422
0
LINE
8
BLACK
6
CONTINUOUS
10
116.727
20
-227.422
11
116.87
21
-227.993
0
LINE
8
BLACK
6
CONTINUOUS
10
116.87
20
-227.993
11
116.87
21
-228.708
0
LINE
8
BLACK
6
CONTINUOUS
10
116.87
20
-228.708
11
116.727
21
-229.279
0
LINE
8
BLACK
6
CONTINUOUS
10
116.727
20
-229.279
11
116.585
21
-229.565
0
LINE
8
BLACK
6
CONTINUOUS
10
116.585
20
-229.565
11
116.442
21
-229.708
0
LINE
8
BLACK
6
CONTINUOUS
10
116.442
20
-229.708
11
116.156
21
-229.851
0
LINE
8
BLACK
6
CONTINUOUS
10
116.156
20
-229.851
11
115.87
21
-229.851
0
LINE
8
BLACK
6
CONTINUOUS
10
115.87
20
-229.851
11
115.585
21
-229.708
0
LINE
8
BLACK
6
CONTINUOUS
10
115.585
20
-229.708
11
115.442
21
-229.565
0
LINE
8
BLACK
6
CONTINUOUS
10
115.442
20
-229.565
11
115.299
21
-229.279
0
LINE
8
BLACK
6
CONTINUOUS
10
115.299
20
-229.279
11
115.156
21
-228.708
0
LINE
8
BLACK
6
CONTINUOUS
10
115.156
20
-228.708
11
115.156
21
-227.993
0
LINE
8
BLACK
6
CONTINUOUS
10
115.156
20
-227.993
11
115.299
21
-227.422
0
LINE
8
BLACK
6
CONTINUOUS
10
115.299
20
-227.422
11
115.442
21
-227.136
0
LINE
8
BLACK
6
CONTINUOUS
10
115.442
20
-227.136
11
115.585
21
-226.993
0
LINE
8
BLACK
6
CONTINUOUS
10
115.585
20
-226.993
11
115.87
21
-226.851
0
LINE
8
BLACK
6
CONTINUOUS
10
118.156
20
-229.851
11
118.156
21
-227.851
0
LINE
8
BLACK
6
CONTINUOUS
10
118.156
20
-228.136
11
118.299
21
-227.993
0
LINE
8
BLACK
6
CONTINUOUS
10
118.299
20
-227.993
11
118.585
21
-227.851
0
LINE
8
BLACK
6
CONTINUOUS
10
118.585
20
-227.851
11
119.013
21
-227.851
0
LINE
8
BLACK
6
CONTINUOUS
10
119.013
20
-227.851
11
119.299
21
-227.993
0
LINE
8
BLACK
6
CONTINUOUS
10
119.299
20
-227.993
11
119.442
21
-228.279
0
LINE
8
BLACK
6
CONTINUOUS
10
119.442
20
-228.279
11
119.442
21
-229.851
0
LINE
8
BLACK
6
CONTINUOUS
10
119.442
20
-228.279
11
119.585
21
-227.993
0
LINE
8
BLACK
6
CONTINUOUS
10
119.585
20
-227.993
11
119.87
21
-227.851
0
LINE
8
BLACK
6
CONTINUOUS
10
119.87
20
-227.851
11
120.299
21
-227.851
0
LINE
8
BLACK
6
CONTINUOUS
10
120.299
20
-227.851
11
120.585
21
-227.993
0
LINE
8
BLACK
6
CONTINUOUS
10
120.585
20
-227.993
11
120.727
21
-228.279
0
LINE
8
BLACK
6
CONTINUOUS
10
120.727
20
-228.279
11
120.727
21
-229.851
0
LINE
8
BLACK
6
CONTINUOUS
10
122.156
20
-229.851
11
122.156
21
-227.851
0
LINE
8
BLACK
6
CONTINUOUS
10
122.156
20
-228.136
11
122.299
21
-227.993
0
LINE
8
BLACK
6
CONTINUOUS
10
122.299
20
-227.993
11
122.585
21
-227.851
0
LINE
8
BLACK
6
CONTINUOUS
10
122.585
20
-227.851
11
123.013
21
-227.851
0
LINE
8
BLACK
6
CONTINUOUS
10
123.013
20
-227.851
11
123.299
21
-227.993
0
LINE
8
BLACK
6
CONTINUOUS
10
123.299
20
-227.993
11
123.442
21
-228.279
0
LINE
8
BLACK
6
CONTINUOUS
10
123.442
20
-228.279
11
123.442
21
-229.851
0
LINE
8
BLACK
6
CONTINUOUS
10
123.442
20
-228.279
11
123.585
21
-227.993
0
LINE
8
BLACK
6
CONTINUOUS
10
123.585
20
-227.993
11
123.87
21
-227.851
0
LINE
8
BLACK
6
CONTINUOUS
10
123.87
20
-227.851
11
124.299
21
-227.851
0
LINE
8
BLACK
6
CONTINUOUS
10
124.299
20
-227.851
11
124.585
21
-227.993
0
LINE
8
BLACK
6
CONTINUOUS
10
124.585
20
-227.993
11
124.727
21
-228.279
0
LINE
8
BLACK
6
CONTINUOUS
10
124.727
20
-228.279
11
124.727
21
-229.851
0
LINE
8
BLACK
6
CONTINUOUS
10
130.585
20
-226.708
11
128.013
21
-230.565
0
LINE
8
BLACK
6
CONTINUOUS
10
134.442
20
-226.851
11
134.727
21
-226.851
0
LINE
8
BLACK
6
CONTINUOUS
10
134.727
20
-226.851
11
135.013
21
-226.993
0
LINE
8
BLACK
6
CONTINUOUS
10
135.013
20
-226.993
11
135.156
21
-227.136
0
LINE
8
BLACK
6
CONTINUOUS
10
135.156
20
-227.136
11
135.299
21
-227.422
0
LINE
8
BLACK
6
CONTINUOUS
10
135.299
20
-227.422
11
135.442
21
-227.993
0
LINE
8
BLACK
6
CONTINUOUS
10
135.442
20
-227.993
11
135.442
21
-228.708
0
LINE
8
BLACK
6
CONTINUOUS
10
135.442
20
-228.708
11
135.299
21
-229.279
0
LINE
8
BLACK
6
CONTINUOUS
10
135.299
20
-229.279
11
135.156
21
-229.565
0
LINE
8
BLACK
6
CONTINUOUS
10
135.156
20
-229.565
11
135.013
21
-229.708
0
LINE
8
BLACK
6
CONTINUOUS
10
135.013
20
-229.708
11
134.727
21
-229.851
0
LINE
8
BLACK
6
CONTINUOUS
10
134.727
20
-229.851
11
134.442
21
-229.851
0
LINE
8
BLACK
6
CONTINUOUS
10
134.442
20
-229.851
11
134.156
21
-229.708
0
LINE
8
BLACK
6
CONTINUOUS
10
134.156
20
-229.708
11
134.013
21
-229.565
0
LINE
8
BLACK
6
CONTINUOUS
10
134.013
20
-229.565
11
133.87
21
-229.279
0
LINE
8
BLACK
6
CONTINUOUS
10
133.87
20
-229.279
11
133.727
21
-228.708
0
LINE
8
BLACK
6
CONTINUOUS
10
133.727
20
-228.708
11
133.727
21
-227.993
0
LINE
8
BLACK
6
CONTINUOUS
10
133.727
20
-227.993
11
133.87
21
-227.422
0
LINE
8
BLACK
6
CONTINUOUS
10
133.87
20
-227.422
11
134.013
21
-227.136
0
LINE
8
BLACK
6
CONTINUOUS
10
134.013
20
-227.136
11
134.156
21
-226.993
0
LINE
8
BLACK
6
CONTINUOUS
10
134.156
20
-226.993
11
134.442
21
-226.851
0
LINE
8
BLACK
6
CONTINUOUS
10
136.727
20
-229.565
11
136.87
21
-229.708
0
LINE
8
BLACK
6
CONTINUOUS
10
136.87
20
-229.708
11
136.727
21
-229.851
0
LINE
8
BLACK
6
CONTINUOUS
10
136.727
20
-229.851
11
136.585
21
-229.708
0
LINE
8
BLACK
6
CONTINUOUS
10
136.585
20
-229.708
11
136.727
21
-229.565
0
LINE
8
BLACK
6
CONTINUOUS
10
136.727
20
-229.565
11
136.727
21
-229.851
0
LINE
8
BLACK
6
CONTINUOUS
10
139.727
20
-229.851
11
138.013
21
-229.851
0
LINE
8
BLACK
6
CONTINUOUS
10
138.87
20
-229.851
11
138.87
21
-226.851
0
LINE
8
BLACK
6
CONTINUOUS
10
138.87
20
-226.851
11
138.585
21
-227.279
0
LINE
8
BLACK
6
CONTINUOUS
10
138.585
20
-227.279
11
138.299
21
-227.565
0
LINE
8
BLACK
6
CONTINUOUS
10
138.299
20
-227.565
11
138.013
21
-227.708
0
LINE
8
BLACK
6
CONTINUOUS
10
142.442
20
-226.851
11
141.013
21
-226.851
0
LINE
8
BLACK
6
CONTINUOUS
10
141.013
20
-226.851
11
140.87
21
-228.279
0
LINE
8
BLACK
6
CONTINUOUS
10
140.87
20
-228.279
11
141.013
21
-228.136
0
LINE
8
BLACK
6
CONTINUOUS
10
141.013
20
-228.136
11
141.299
21
-227.993
0
LINE
8
BLACK
6
CONTINUOUS
10
141.299
20
-227.993
11
142.013
21
-227.993
0
LINE
8
BLACK
6
CONTINUOUS
10
142.013
20
-227.993
11
142.299
21
-228.136
0
LINE
8
BLACK
6
CONTINUOUS
10
142.299
20
-228.136
11
142.442
21
-228.279
0
LINE
8
BLACK
6
CONTINUOUS
10
142.442
20
-228.279
11
142.585
21
-228.565
0
LINE
8
BLACK
6
CONTINUOUS
10
142.585
20
-228.565
11
142.585
21
-229.279
0
LINE
8
BLACK
6
CONTINUOUS
10
142.585
20
-229.279
11
142.442
21
-229.565
0
LINE
8
BLACK
6
CONTINUOUS
10
142.442
20
-229.565
11
142.299
21
-229.708
0
LINE
8
BLACK
6
CONTINUOUS
10
142.299
20
-229.708
11
142.013
21
-229.851
0
LINE
8
BLACK
6
CONTINUOUS
10
142.013
20
-229.851
11
141.299
21
-229.851
0
LINE
8
BLACK
6
CONTINUOUS
10
141.299
20
-229.851
11
141.013
21
-229.708
0
LINE
8
BLACK
6
CONTINUOUS
10
141.013
20
-229.708
11
140.87
21
-229.565
0
LINE
8
BLACK
6
CONTINUOUS
10
143.585
20
-226.851
11
145.585
21
-226.851
0
LINE
8
BLACK
6
CONTINUOUS
10
145.585
20
-226.851
11
144.299
21
-229.851
0
LINE
8
BLACK
6
CONTINUOUS
10
146.585
20
-226.851
11
146.585
21
-227.422
0
LINE
8
BLACK
6
CONTINUOUS
10
147.727
20
-226.851
11
147.727
21
-227.422
0
LINE
8
BLACK
6
CONTINUOUS
10
152.156
20
-230.993
11
152.013
21
-230.851
0
LINE
8
BLACK
6
CONTINUOUS
10
152.013
20
-230.851
11
151.727
21
-230.422
0
LINE
8
BLACK
6
CONTINUOUS
10
151.727
20
-230.422
11
151.585
21
-230.136
0
LINE
8
BLACK
6
CONTINUOUS
10
151.585
20
-230.136
11
151.442
21
-229.708
0
LINE
8
BLACK
6
CONTINUOUS
10
151.442
20
-229.708
11
151.299
21
-228.993
0
LINE
8
BLACK
6
CONTINUOUS
10
151.299
20
-228.993
11
151.299
21
-228.422
0
LINE
8
BLACK
6
CONTINUOUS
10
151.299
20
-228.422
11
151.442
21
-227.708
0
LINE
8
BLACK
6
CONTINUOUS
10
151.442
20
-227.708
11
151.585
21
-227.279
0
LINE
8
BLACK
6
CONTINUOUS
10
151.585
20
-227.279
11
151.727
21
-226.993
0
LINE
8
BLACK
6
CONTINUOUS
10
151.727
20
-226.993
11
152.013
21
-226.565
0
LINE
8
BLACK
6
CONTINUOUS
10
152.013
20
-226.565
11
152.156
21
-226.422
0
LINE
8
BLACK
6
CONTINUOUS
10
153.013
20
-226.851
11
154.87
21
-226.851
0
LINE
8
BLACK
6
CONTINUOUS
10
154.87
20
-226.851
11
153.87
21
-227.993
0
LINE
8
BLACK
6
CONTINUOUS
10
153.87
20
-227.993
11
154.299
21
-227.993
0
LINE
8
BLACK
6
CONTINUOUS
10
154.299
20
-227.993
11
154.585
21
-228.136
0
LINE
8
BLACK
6
CONTINUOUS
10
154.585
20
-228.136
11
154.727
21
-228.279
0
LINE
8
BLACK
6
CONTINUOUS
10
154.727
20
-228.279
11
154.87
21
-228.565
0
LINE
8
BLACK
6
CONTINUOUS
10
154.87
20
-228.565
11
154.87
21
-229.279
0
LINE
8
BLACK
6
CONTINUOUS
10
154.87
20
-229.279
11
154.727
21
-229.565
0
LINE
8
BLACK
6
CONTINUOUS
10
154.727
20
-229.565
11
154.585
21
-229.708
0
LINE
8
BLACK
6
CONTINUOUS
10
154.585
20
-229.708
11
154.299
21
-229.851
0
LINE
8
BLACK
6
CONTINUOUS
10
154.299
20
-229.851
11
153.442
21
-229.851
0
LINE
8
BLACK
6
CONTINUOUS
10
153.442
20
-229.851
11
153.156
21
-229.708
0
LINE
8
BLACK
6
CONTINUOUS
10
153.156
20
-229.708
11
153.013
21
-229.565
0
LINE
8
BLACK
6
CONTINUOUS
10
156.585
20
-228.136
11
156.299
21
-227.993
0
LINE
8
BLACK
6
CONTINUOUS
10
156.299
20
-227.993
11
156.156
21
-227.851
0
LINE
8
BLACK
6
CONTINUOUS
10
156.156
20
-227.851
11
156.013
21
-227.565
0
LINE
8
BLACK
6
CONTINUOUS
10
156.013
20
-227.565
11
156.013
21
-227.422
0
LINE
8
BLACK
6
CONTINUOUS
10
156.013
20
-227.422
11
156.156
21
-227.136
0
LINE
8
BLACK
6
CONTINUOUS
10
156.156
20
-227.136
11
156.299
21
-226.993
0
LINE
8
BLACK
6
CONTINUOUS
10
156.299
20
-226.993
11
156.585
21
-226.851
0
LINE
8
BLACK
6
CONTINUOUS
10
156.585
20
-226.851
11
157.156
21
-226.851
0
LINE
8
BLACK
6
CONTINUOUS
10
157.156
20
-226.851
11
157.442
21
-226.993
0
LINE
8
BLACK
6
CONTINUOUS
10
157.442
20
-226.993
11
157.585
21
-227.136
0
LINE
8
BLACK
6
CONTINUOUS
10
157.585
20
-227.136
11
157.727
21
-227.422
0
LINE
8
BLACK
6
CONTINUOUS
10
157.727
20
-227.422
11
157.727
21
-227.565
0
LINE
8
BLACK
6
CONTINUOUS
10
157.727
20
-227.565
11
157.585
21
-227.851
0
LINE
8
BLACK
6
CONTINUOUS
10
157.585
20
-227.851
11
157.442
21
-227.993
0
LINE
8
BLACK
6
CONTINUOUS
10
157.442
20
-227.993
11
157.156
21
-228.136
0
LINE
8
BLACK
6
CONTINUOUS
10
157.156
20
-228.136
11
156.585
21
-228.136
0
LINE
8
BLACK
6
CONTINUOUS
10
156.585
20
-228.136
11
156.299
21
-228.279
0
LINE
8
BLACK
6
CONTINUOUS
10
156.299
20
-228.279
11
156.156
21
-228.422
0
LINE
8
BLACK
6
CONTINUOUS
10
156.156
20
-228.422
11
156.013
21
-228.708
0
LINE
8
BLACK
6
CONTINUOUS
10
156.013
20
-228.708
11
156.013
21
-229.279
0
LINE
8
BLACK
6
CONTINUOUS
10
156.013
20
-229.279
11
156.156
21
-229.565
0
LINE
8
BLACK
6
CONTINUOUS
10
156.156
20
-229.565
11
156.299
21
-229.708
0
LINE
8
BLACK
6
CONTINUOUS
10
156.299
20
-229.708
11
156.585
21
-229.851
0
LINE
8
BLACK
6
CONTINUOUS
10
156.585
20
-229.851
11
157.156
21
-229.851
0
LINE
8
BLACK
6
CONTINUOUS
10
157.156
20
-229.851
11
157.442
21
-229.708
0
LINE
8
BLACK
6
CONTINUOUS
10
157.442
20
-229.708
11
157.585
21
-229.565
0
LINE
8
BLACK
6
CONTINUOUS
10
157.585
20
-229.565
11
157.727
21
-229.279
0
LINE
8
BLACK
6
CONTINUOUS
10
157.727
20
-229.279
11
157.727
21
-228.708
0
LINE
8
BLACK
6
CONTINUOUS
10
157.727
20
-228.708
11
157.585
21
-228.422
0
LINE
8
BLACK
6
CONTINUOUS
10
157.585
20
-228.422
11
157.442
21
-228.279
0
LINE
8
BLACK
6
CONTINUOUS
10
157.442
20
-228.279
11
157.156
21
-228.136
0
LINE
8
BLACK
6
CONTINUOUS
10
161.299
20
-229.851
11
161.299
21
-226.851
0
LINE
8
BLACK
6
CONTINUOUS
10
162.585
20
-229.851
11
162.585
21
-228.279
0
LINE
8
BLACK
6
CONTINUOUS
10
162.585
20
-228.279
11
162.442
21
-227.993
0
LINE
8
BLACK
6
CONTINUOUS
10
162.442
20
-227.993
11
162.156
21
-227.851
0
LINE
8
BLACK
6
CONTINUOUS
10
162.156
20
-227.851
11
161.727
21
-227.851
0
LINE
8
BLACK
6
CONTINUOUS
10
161.727
20
-227.851
11
161.442
21
-227.993
0
LINE
8
BLACK
6
CONTINUOUS
10
161.442
20
-227.993
11
161.299
21
-228.136
0
LINE
8
BLACK
6
CONTINUOUS
10
164.442
20
-229.851
11
164.156
21
-229.708
0
LINE
8
BLACK
6
CONTINUOUS
10
164.156
20
-229.708
11
164.013
21
-229.565
0
LINE
8
BLACK
6
CONTINUOUS
10
164.013
20
-229.565
11
163.87
21
-229.279
0
LINE
8
BLACK
6
CONTINUOUS
10
163.87
20
-229.279
11
163.87
21
-228.422
0
LINE
8
BLACK
6
CONTINUOUS
10
163.87
20
-228.422
11
164.013
21
-228.136
0
LINE
8
BLACK
6
CONTINUOUS
10
164.013
20
-228.136
11
164.156
21
-227.993
0
LINE
8
BLACK
6
CONTINUOUS
10
164.156
20
-227.993
11
164.442
21
-227.851
0
LINE
8
BLACK
6
CONTINUOUS
10
164.442
20
-227.851
11
164.87
21
-227.851
0
LINE
8
BLACK
6
CONTINUOUS
10
164.87
20
-227.851
11
165.156
21
-227.993
0
LINE
8
BLACK
6
CONTINUOUS
10
165.156
20
-227.993
11
165.299
21
-228.136
0
LINE
8
BLACK
6
CONTINUOUS
10
165.299
20
-228.136
11
165.442
21
-228.422
0
LINE
8
BLACK
6
CONTINUOUS
10
165.442
20
-228.422
11
165.442
21
-229.279
0
LINE
8
BLACK
6
CONTINUOUS
10
165.442
20
-229.279
11
165.299
21
-229.565
0
LINE
8
BLACK
6
CONTINUOUS
10
165.299
20
-229.565
11
165.156
21
-229.708
0
LINE
8
BLACK
6
CONTINUOUS
10
165.156
20
-229.708
11
164.87
21
-229.851
0
LINE
8
BLACK
6
CONTINUOUS
10
164.87
20
-229.851
11
164.442
21
-229.851
0
LINE
8
BLACK
6
CONTINUOUS
10
167.156
20
-229.851
11
166.87
21
-229.708
0
LINE
8
BLACK
6
CONTINUOUS
10
166.87
20
-229.708
11
166.727
21
-229.422
0
LINE
8
BLACK
6
CONTINUOUS
10
166.727
20
-229.422
11
166.727
21
-226.851
0
LINE
8
BLACK
6
CONTINUOUS
10
169.442
20
-229.708
11
169.156
21
-229.851
0
LINE
8
BLACK
6
CONTINUOUS
10
169.156
20
-229.851
11
168.585
21
-229.851
0
LINE
8
BLACK
6
CONTINUOUS
10
168.585
20
-229.851
11
168.299
21
-229.708
0
LINE
8
BLACK
6
CONTINUOUS
10
168.299
20
-229.708
11
168.156
21
-229.422
0
LINE
8
BLACK
6
CONTINUOUS
10
168.156
20
-229.422
11
168.156
21
-228.279
0
LINE
8
BLACK
6
CONTINUOUS
10
168.156
20
-228.279
11
168.299
21
-227.993
0
LINE
8
BLACK
6
CONTINUOUS
10
168.299
20
-227.993
11
168.585
21
-227.851
0
LINE
8
BLACK
6
CONTINUOUS
10
168.585
20
-227.851
11
169.156
21
-227.851
0
LINE
8
BLACK
6
CONTINUOUS
10
169.156
20
-227.851
11
169.442
21
-227.993
0
LINE
8
BLACK
6
CONTINUOUS
10
169.442
20
-227.993
11
169.585
21
-228.279
0
LINE
8
BLACK
6
CONTINUOUS
10
169.585
20
-228.279
11
169.585
21
-228.565
0
LINE
8
BLACK
6
CONTINUOUS
10
169.585
20
-228.565
11
168.156
21
-228.851
0
LINE
8
BLACK
6
CONTINUOUS
10
170.727
20
-229.708
11
171.013
21
-229.851
0
LINE
8
BLACK
6
CONTINUOUS
10
171.013
20
-229.851
11
171.585
21
-229.851
0
LINE
8
BLACK
6
CONTINUOUS
10
171.585
20
-229.851
11
171.87
21
-229.708
0
LINE
8
BLACK
6
CONTINUOUS
10
171.87
20
-229.708
11
172.013
21
-229.422
0
LINE
8
BLACK
6
CONTINUOUS
10
172.013
20
-229.422
11
172.013
21
-229.279
0
LINE
8
BLACK
6
CONTINUOUS
10
172.013
20
-229.279
11
171.87
21
-228.993
0
LINE
8
BLACK
6
CONTINUOUS
10
171.87
20
-228.993
11
171.585
21
-228.851
0
LINE
8
BLACK
6
CONTINUOUS
10
171.585
20
-228.851
11
171.156
21
-228.851
0
LINE
8
BLACK
6
CONTINUOUS
10
171.156
20
-228.851
11
170.87
21
-228.708
0
LINE
8
BLACK
6
CONTINUOUS
10
170.87
20
-228.708
11
170.727
21
-228.422
0
LINE
8
BLACK
6
CONTINUOUS
10
170.727
20
-228.422
11
170.727
21
-228.279
0
LINE
8
BLACK
6
CONTINUOUS
10
170.727
20
-228.279
11
170.87
21
-227.993
0
LINE
8
BLACK
6
CONTINUOUS
10
170.87
20
-227.993
11
171.156
21
-227.851
0
LINE
8
BLACK
6
CONTINUOUS
10
171.156
20
-227.851
11
171.585
21
-227.851
0
LINE
8
BLACK
6
CONTINUOUS
10
171.585
20
-227.851
11
171.87
21
-227.993
0
LINE
8
BLACK
6
CONTINUOUS
10
173.013
20
-230.993
11
173.156
21
-230.851
0
LINE
8
BLACK
6
CONTINUOUS
10
173.156
20
-230.851
11
173.442
21
-230.422
0
LINE
8
BLACK
6
CONTINUOUS
10
173.442
20
-230.422
11
173.585
21
-230.136
0
LINE
8
BLACK
6
CONTINUOUS
10
173.585
20
-230.136
11
173.727
21
-229.708
0
LINE
8
BLACK
6
CONTINUOUS
10
173.727
20
-229.708
11
173.87
21
-228.993
0
LINE
8
BLACK
6
CONTINUOUS
10
173.87
20
-228.993
11
173.87
21
-228.422
0
LINE
8
BLACK
6
CONTINUOUS
10
173.87
20
-228.422
11
173.727
21
-227.708
0
LINE
8
BLACK
6
CONTINUOUS
10
173.727
20
-227.708
11
173.585
21
-227.279
0
LINE
8
BLACK
6
CONTINUOUS
10
173.585
20
-227.279
11
173.442
21
-226.993
0
LINE
8
BLACK
6
CONTINUOUS
10
173.442
20
-226.993
11
173.156
21
-226.565
0
LINE
8
BLACK
6
CONTINUOUS
10
173.156
20
-226.565
11
173.013
21
-226.422
0
LINE
8
BLACK
6
CONTINUOUS
10
178.442
20
-230.993
11
178.299
21
-230.851
0
LINE
8
BLACK
6
CONTINUOUS
10
178.299
20
-230.851
11
178.013
21
-230.422
0
LINE
8
BLACK
6
CONTINUOUS
10
178.013
20
-230.422
11
177.87
21
-230.136
0
LINE
8
BLACK
6
CONTINUOUS
10
177.87
20
-230.136
11
177.727
21
-229.708
0
LINE
8
BLACK
6
CONTINUOUS
10
177.727
20
-229.708
11
177.585
21
-228.993
0
LINE
8
BLACK
6
CONTINUOUS
10
177.585
20
-228.993
11
177.585
21
-228.422
0
LINE
8
BLACK
6
CONTINUOUS
10
177.585
20
-228.422
11
177.727
21
-227.708
0
LINE
8
BLACK
6
CONTINUOUS
10
177.727
20
-227.708
11
177.87
21
-227.279
0
LINE
8
BLACK
6
CONTINUOUS
10
177.87
20
-227.279
11
178.013
21
-226.993
0
LINE
8
BLACK
6
CONTINUOUS
10
178.013
20
-226.993
11
178.299
21
-226.565
0
LINE
8
BLACK
6
CONTINUOUS
10
178.299
20
-226.565
11
178.442
21
-226.422
0
LINE
8
BLACK
6
CONTINUOUS
10
179.585
20
-227.851
11
179.585
21
-229.851
0
LINE
8
BLACK
6
CONTINUOUS
10
179.585
20
-228.136
11
179.727
21
-227.993
0
LINE
8
BLACK
6
CONTINUOUS
10
179.727
20
-227.993
11
180.013
21
-227.851
0
LINE
8
BLACK
6
CONTINUOUS
10
180.013
20
-227.851
11
180.442
21
-227.851
0
LINE
8
BLACK
6
CONTINUOUS
10
180.442
20
-227.851
11
180.727
21
-227.993
0
LINE
8
BLACK
6
CONTINUOUS
10
180.727
20
-227.993
11
180.87
21
-228.279
0
LINE
8
BLACK
6
CONTINUOUS
10
180.87
20
-228.279
11
180.87
21
-229.851
0
LINE
8
BLACK
6
CONTINUOUS
10
182.727
20
-229.851
11
182.442
21
-229.708
0
LINE
8
BLACK
6
CONTINUOUS
10
182.442
20
-229.708
11
182.299
21
-229.565
0
LINE
8
BLACK
6
CONTINUOUS
10
182.299
20
-229.565
11
182.156
21
-229.279
0
LINE
8
BLACK
6
CONTINUOUS
10
182.156
20
-229.279
11
182.156
21
-228.422
0
LINE
8
BLACK
6
CONTINUOUS
10
182.156
20
-228.422
11
182.299
21
-228.136
0
LINE
8
BLACK
6
CONTINUOUS
10
182.299
20
-228.136
11
182.442
21
-227.993
0
LINE
8
BLACK
6
CONTINUOUS
10
182.442
20
-227.993
11
182.727
21
-227.851
0
LINE
8
BLACK
6
CONTINUOUS
10
182.727
20
-227.851
11
183.156
21
-227.851
0
LINE
8
BLACK
6
CONTINUOUS
10
183.156
20
-227.851
11
183.442
21
-227.993
0
LINE
8
BLACK
6
CONTINUOUS
10
183.442
20
-227.993
11
183.585
21
-228.136
0
LINE
8
BLACK
6
CONTINUOUS
10
183.585
20
-228.136
11
183.727
21
-228.422
0
LINE
8
BLACK
6
CONTINUOUS
10
183.727
20
-228.422
11
183.727
21
-229.279
0
LINE
8
BLACK
6
CONTINUOUS
10
183.727
20
-229.279
11
183.585
21
-229.565
0
LINE
8
BLACK
6
CONTINUOUS
10
183.585
20
-229.565
11
183.442
21
-229.708
0
LINE
8
BLACK
6
CONTINUOUS
10
183.442
20
-229.708
11
183.156
21
-229.851
0
LINE
8
BLACK
6
CONTINUOUS
10
183.156
20
-229.851
11
182.727
21
-229.851
0
LINE
8
BLACK
6
CONTINUOUS
10
184.585
20
-227.851
11
185.727
21
-227.851
0
LINE
8
BLACK
6
CONTINUOUS
10
185.013
20
-226.851
11
185.013
21
-229.422
0
LINE
8
BLACK
6
CONTINUOUS
10
185.013
20
-229.422
11
185.156
21
-229.708
0
LINE
8
BLACK
6
CONTINUOUS
10
185.156
20
-229.708
11
185.442
21
-229.851
0
LINE
8
BLACK
6
CONTINUOUS
10
185.442
20
-229.851
11
185.727
21
-229.851
0
LINE
8
BLACK
6
CONTINUOUS
10
189.013
20
-227.851
11
189.013
21
-230.851
0
LINE
8
BLACK
6
CONTINUOUS
10
189.013
20
-227.993
11
189.299
21
-227.851
0
LINE
8
BLACK
6
CONTINUOUS
10
189.299
20
-227.851
11
189.87
21
-227.851
0
LINE
8
BLACK
6
CONTINUOUS
10
189.87
20
-227.851
11
190.156
21
-227.993
0
LINE
8
BLACK
6
CONTINUOUS
10
190.156
20
-227.993
11
190.299
21
-228.136
0
LINE
8
BLACK
6
CONTINUOUS
10
190.299
20
-228.136
11
190.442
21
-228.422
0
LINE
8
BLACK
6
CONTINUOUS
10
190.442
20
-228.422
11
190.442
21
-229.279
0
LINE
8
BLACK
6
CONTINUOUS
10
190.442
20
-229.279
11
190.299
21
-229.565
0
LINE
8
BLACK
6
CONTINUOUS
10
190.299
20
-229.565
11
190.156
21
-229.708
0
LINE
8
BLACK
6
CONTINUOUS
10
190.156
20
-229.708
11
189.87
21
-229.851
0
LINE
8
BLACK
6
CONTINUOUS
10
189.87
20
-229.851
11
189.299
21
-229.851
0
LINE
8
BLACK
6
CONTINUOUS
10
189.299
20
-229.851
11
189.013
21
-229.708
0
LINE
8
BLACK
6
CONTINUOUS
10
192.156
20
-229.851
11
191.87
21
-229.708
0
LINE
8
BLACK
6
CONTINUOUS
10
191.87
20
-229.708
11
191.727
21
-229.422
0
LINE
8
BLACK
6
CONTINUOUS
10
191.727
20
-229.422
11
191.727
21
-226.851
0
LINE
8
BLACK
6
CONTINUOUS
10
194.585
20
-229.851
11
194.585
21
-228.279
0
LINE
8
BLACK
6
CONTINUOUS
10
194.585
20
-228.279
11
194.442
21
-227.993
0
LINE
8
BLACK
6
CONTINUOUS
10
194.442
20
-227.993
11
194.156
21
-227.851
0
LINE
8
BLACK
6
CONTINUOUS
10
194.156
20
-227.851
11
193.585
21
-227.851
0
LINE
8
BLACK
6
CONTINUOUS
10
193.585
20
-227.851
11
193.299
21
-227.993
0
LINE
8
BLACK
6
CONTINUOUS
10
194.585
20
-229.708
11
194.299
21
-229.851
0
LINE
8
BLACK
6
CONTINUOUS
10
194.299
20
-229.851
11
193.585
21
-229.851
0
LINE
8
BLACK
6
CONTINUOUS
10
193.585
20
-229.851
11
193.299
21
-229.708
0
LINE
8
BLACK
6
CONTINUOUS
10
193.299
20
-229.708
11
193.156
21
-229.422
0
LINE
8
BLACK
6
CONTINUOUS
10
193.156
20
-229.422
11
193.156
21
-229.136
0
LINE
8
BLACK
6
CONTINUOUS
10
193.156
20
-229.136
11
193.299
21
-228.851
0
LINE
8
BLACK
6
CONTINUOUS
10
193.299
20
-228.851
11
193.585
21
-228.708
0
LINE
8
BLACK
6
CONTINUOUS
10
193.585
20
-228.708
11
194.299
21
-228.708
0
LINE
8
BLACK
6
CONTINUOUS
10
194.299
20
-228.708
11
194.585
21
-228.565
0
LINE
8
BLACK
6
CONTINUOUS
10
195.585
20
-227.851
11
196.727
21
-227.851
0
LINE
8
BLACK
6
CONTINUOUS
10
196.013
20
-226.851
11
196.013
21
-229.422
0
LINE
8
BLACK
6
CONTINUOUS
10
196.013
20
-229.422
11
196.156
21
-229.708
0
LINE
8
BLACK
6
CONTINUOUS
10
196.156
20
-229.708
11
196.442
21
-229.851
0
LINE
8
BLACK
6
CONTINUOUS
10
196.442
20
-229.851
11
196.727
21
-229.851
0
LINE
8
BLACK
6
CONTINUOUS
10
198.87
20
-229.708
11
198.585
21
-229.851
0
LINE
8
BLACK
6
CONTINUOUS
10
198.585
20
-229.851
11
198.013
21
-229.851
0
LINE
8
BLACK
6
CONTINUOUS
10
198.013
20
-229.851
11
197.727
21
-229.708
0
LINE
8
BLACK
6
CONTINUOUS
10
197.727
20
-229.708
11
197.585
21
-229.422
0
LINE
8
BLACK
6
CONTINUOUS
10
197.585
20
-229.422
11
197.585
21
-228.279
0
LINE
8
BLACK
6
CONTINUOUS
10
197.585
20
-228.279
11
197.727
21
-227.993
0
LINE
8
BLACK
6
CONTINUOUS
10
197.727
20
-227.993
11
198.013
21
-227.851
0
LINE
8
BLACK
6
CONTINUOUS
10
198.013
20
-227.851
11
198.585
21
-227.851
0
LINE
8
BLACK
6
CONTINUOUS
10
198.585
20
-227.851
11
198.87
21
-227.993
0
LINE
8
BLACK
6
CONTINUOUS
10
198.87
20
-227.993
11
199.013
21
-228.279
0
LINE
8
BLACK
6
CONTINUOUS
10
199.013
20
-228.279
11
199.013
21
-228.565
0
LINE
8
BLACK
6
CONTINUOUS
10
199.013
20
-228.565
11
197.585
21
-228.851
0
LINE
8
BLACK
6
CONTINUOUS
10
201.585
20
-229.851
11
201.585
21
-226.851
0
LINE
8
BLACK
6
CONTINUOUS
10
201.585
20
-229.708
11
201.299
21
-229.851
0
LINE
8
BLACK
6
CONTINUOUS
10
201.299
20
-229.851
11
200.727
21
-229.851
0
LINE
8
BLACK
6
CONTINUOUS
10
200.727
20
-229.851
11
200.442
21
-229.708
0
LINE
8
BLACK
6
CONTINUOUS
10
200.442
20
-229.708
11
200.299
21
-229.565
0
LINE
8
BLACK
6
CONTINUOUS
10
200.299
20
-229.565
11
200.156
21
-229.279
0
LINE
8
BLACK
6
CONTINUOUS
10
200.156
20
-229.279
11
200.156
21
-228.422
0
LINE
8
BLACK
6
CONTINUOUS
10
200.156
20
-228.422
11
200.299
21
-228.136
0
LINE
8
BLACK
6
CONTINUOUS
10
200.299
20
-228.136
11
200.442
21
-227.993
0
LINE
8
BLACK
6
CONTINUOUS
10
200.442
20
-227.993
11
200.727
21
-227.851
0
LINE
8
BLACK
6
CONTINUOUS
10
200.727
20
-227.851
11
201.299
21
-227.851
0
LINE
8
BLACK
6
CONTINUOUS
10
201.299
20
-227.851
11
201.585
21
-227.993
0
LINE
8
BLACK
6
CONTINUOUS
10
202.727
20
-230.993
11
202.87
21
-230.851
0
LINE
8
BLACK
6
CONTINUOUS
10
202.87
20
-230.851
11
203.156
21
-230.422
0
LINE
8
BLACK
6
CONTINUOUS
10
203.156
20
-230.422
11
203.299
21
-230.136
0
LINE
8
BLACK
6
CONTINUOUS
10
203.299
20
-230.136
11
203.442
21
-229.708
0
LINE
8
BLACK
6
CONTINUOUS
10
203.442
20
-229.708
11
203.585
21
-228.993
0
LINE
8
BLACK
6
CONTINUOUS
10
203.585
20
-228.993
11
203.585
21
-228.422
0
LINE
8
BLACK
6
CONTINUOUS
10
203.585
20
-228.422
11
203.442
21
-227.708
0
LINE
8
BLACK
6
CONTINUOUS
10
203.442
20
-227.708
11
203.299
21
-227.279
0
LINE
8
BLACK
6
CONTINUOUS
10
203.299
20
-227.279
11
203.156
21
-226.993
0
LINE
8
BLACK
6
CONTINUOUS
10
203.156
20
-226.993
11
202.87
21
-226.565
0
LINE
8
BLACK
6
CONTINUOUS
10
202.87
20
-226.565
11
202.727
21
-226.422
  0
ENDSEC
  0
EOF
