  0
SECTION
  2
HEADER
  9
$ANGBASE
  50
0.0
  9
$ANGDIR
  70
1
  9
$MEASUREMENT
  70
1
  0
ENDSEC
  0
SECTION
  2
TABLES
  0
TABLE
  2
LTYPE
  70
4
  0
LTYPE
  5
40F
  2
CONTINUOUS
  70
0
  3
Solid line
  72
65
  73
0
  40
0.0
  0
LTYPE
  5
410
  2
DASHDOT
 70
0
  3
Dash Dot ____ _ ____ _
 72
65
 73
4
 40
2.0
 49
1.25
 49
-0.25
 49
0.25
 49
-0.25
  0
LTYPE
  5
411
  2
DASHED
 70
0
  3
Dashed __ __ __ __ __
 72
65
 73
2
 40
0.75
 49
0.5
 49
-0.25
  0
LTYPE
  5
43B
  2
DOTTED
 70
0
  3
Dotted .  .  .  .
 72
65
 73
2
 40
0.2
 49
0.0
 49
-0.2
  0
ENDTAB
  0
TABLE
  2
STYLE
  70
4
  0
STYLE
  2
KICAD
  70
0
  40
0
  41
1
  42
1
  50
0
  71
0
  3
isocp.shx
  0
STYLE
  2
KICADB
  70
0
  40
0
  41
1
  42
1
  50
0
  71
0
  3
isocp.shx
  0
STYLE
  2
KICADI
  70
0
  40
0
  41
1
  42
1
  50
15
  71
0
  3
isocp.shx
  0
STYLE
  2
KICADBI
  70
0
  40
0
  41
1
  42
1
  50
15
  71
0
  3
isocp.shx
  0
ENDTAB
  0
TABLE
  2
LAYER
  70
1
  0
LAYER
  2
BLACK
  70
0
  62
7
  6
CONTINUOUS
  0
ENDTAB
  0
ENDSEC
  0
SECTION
  2
ENTITIES
0
LINE
8
BLACK
6
CONTINUOUS
10
163.952
20
-57.2858
11
163.952
21
-57.2858
0
LINE
8
BLACK
6
CONTINUOUS
10
163.952
20
-57.2858
11
163.955
21
-57.2862
0
LINE
8
BLACK
6
CONTINUOUS
10
163.955
20
-57.2862
11
163.96
21
-57.2876
0
LINE
8
BLACK
6
CONTINUOUS
10
163.96
20
-57.2876
11
163.964
21
-57.29
0
LINE
8
BLACK
6
CONTINUOUS
10
163.964
20
-57.29
11
163.968
21
-57.2931
0
LINE
8
BLACK
6
CONTINUOUS
10
163.968
20
-57.2931
11
163.971
21
-57.2969
0
LINE
8
BLACK
6
CONTINUOUS
10
163.971
20
-57.2969
11
163.974
21
-57.3012
0
LINE
8
BLACK
6
CONTINUOUS
10
163.974
20
-57.3012
11
163.975
21
-57.3059
0
LINE
8
BLACK
6
CONTINUOUS
10
163.975
20
-57.3059
11
163.976
21
-57.3108
0
LINE
8
BLACK
6
CONTINUOUS
10
163.976
20
-57.3108
11
163.975
21
-57.3121
0
LINE
8
BLACK
6
CONTINUOUS
10
163.975
20
-57.3121
11
163.975
21
-60.2696
0
LINE
8
BLACK
6
CONTINUOUS
10
163.975
20
-60.2696
11
163.976
21
-60.2708
0
LINE
8
BLACK
6
CONTINUOUS
10
163.976
20
-60.2708
11
163.975
21
-60.2721
0
LINE
8
BLACK
6
CONTINUOUS
10
163.975
20
-60.2721
11
163.975
21
-60.2721
0
LINE
8
BLACK
6
CONTINUOUS
10
163.975
20
-60.2721
11
163.975
21
-60.2757
0
LINE
8
BLACK
6
CONTINUOUS
10
163.975
20
-60.2757
11
163.974
21
-60.2805
0
LINE
8
BLACK
6
CONTINUOUS
10
163.974
20
-60.2805
11
163.971
21
-60.2848
0
LINE
8
BLACK
6
CONTINUOUS
10
163.971
20
-60.2848
11
163.968
21
-60.2886
0
LINE
8
BLACK
6
CONTINUOUS
10
163.968
20
-60.2886
11
163.964
21
-60.2917
0
LINE
8
BLACK
6
CONTINUOUS
10
163.964
20
-60.2917
11
163.96
21
-60.294
0
LINE
8
BLACK
6
CONTINUOUS
10
163.96
20
-60.294
11
163.955
21
-60.2955
0
LINE
8
BLACK
6
CONTINUOUS
10
163.955
20
-60.2955
11
163.95
21
-60.296
0
LINE
8
BLACK
6
CONTINUOUS
10
163.95
20
-60.296
11
163.949
21
-60.2958
0
LINE
8
BLACK
6
CONTINUOUS
10
163.949
20
-60.2958
11
162.492
21
-60.2958
0
LINE
8
BLACK
6
CONTINUOUS
10
162.492
20
-60.2958
11
162.49
21
-60.296
0
LINE
8
BLACK
6
CONTINUOUS
10
162.49
20
-60.296
11
162.485
21
-60.2955
0
LINE
8
BLACK
6
CONTINUOUS
10
162.485
20
-60.2955
11
162.481
21
-60.294
0
LINE
8
BLACK
6
CONTINUOUS
10
162.481
20
-60.294
11
162.476
21
-60.2917
0
LINE
8
BLACK
6
CONTINUOUS
10
162.476
20
-60.2917
11
162.473
21
-60.2886
0
LINE
8
BLACK
6
CONTINUOUS
10
162.473
20
-60.2886
11
162.47
21
-60.2848
0
LINE
8
BLACK
6
CONTINUOUS
10
162.47
20
-60.2848
11
162.467
21
-60.2805
0
LINE
8
BLACK
6
CONTINUOUS
10
162.467
20
-60.2805
11
162.466
21
-60.2757
0
LINE
8
BLACK
6
CONTINUOUS
10
162.466
20
-60.2757
11
162.465
21
-60.2708
0
LINE
8
BLACK
6
CONTINUOUS
10
162.465
20
-60.2708
11
162.465
21
-60.2696
0
LINE
8
BLACK
6
CONTINUOUS
10
162.465
20
-60.2696
11
162.465
21
-57.3121
0
LINE
8
BLACK
6
CONTINUOUS
10
162.465
20
-57.3121
11
162.465
21
-57.3108
0
LINE
8
BLACK
6
CONTINUOUS
10
162.465
20
-57.3108
11
162.466
21
-57.3059
0
LINE
8
BLACK
6
CONTINUOUS
10
162.466
20
-57.3059
11
162.467
21
-57.3012
0
LINE
8
BLACK
6
CONTINUOUS
10
162.467
20
-57.3012
11
162.47
21
-57.2969
0
LINE
8
BLACK
6
CONTINUOUS
10
162.47
20
-57.2969
11
162.473
21
-57.2931
0
LINE
8
BLACK
6
CONTINUOUS
10
162.473
20
-57.2931
11
162.476
21
-57.29
0
LINE
8
BLACK
6
CONTINUOUS
10
162.476
20
-57.29
11
162.481
21
-57.2876
0
LINE
8
BLACK
6
CONTINUOUS
10
162.481
20
-57.2876
11
162.485
21
-57.2862
0
LINE
8
BLACK
6
CONTINUOUS
10
162.485
20
-57.2862
11
162.489
21
-57.2858
0
LINE
8
BLACK
6
CONTINUOUS
10
162.489
20
-57.2858
11
162.489
21
-57.2858
0
LINE
8
BLACK
6
CONTINUOUS
10
162.489
20
-57.2858
11
162.49
21
-57.2857
0
LINE
8
BLACK
6
CONTINUOUS
10
162.49
20
-57.2857
11
162.492
21
-57.2858
0
LINE
8
BLACK
6
CONTINUOUS
10
162.492
20
-57.2858
11
163.949
21
-57.2858
0
LINE
8
BLACK
6
CONTINUOUS
10
163.949
20
-57.2858
11
163.95
21
-57.2857
0
LINE
8
BLACK
6
CONTINUOUS
10
163.95
20
-57.2857
11
163.952
21
-57.2858
0
LINE
8
BLACK
6
CONTINUOUS
10
162.515
20
-57.3358
11
162.515
21
-60.2458
0
LINE
8
BLACK
6
CONTINUOUS
10
162.515
20
-60.2458
11
163.925
21
-60.2458
0
LINE
8
BLACK
6
CONTINUOUS
10
163.925
20
-60.2458
11
163.925
21
-57.3358
0
LINE
8
BLACK
6
CONTINUOUS
10
163.925
20
-57.3358
11
162.515
21
-57.3358
0
LINE
8
BLACK
6
CONTINUOUS
10
159.921
20
-57.2858
11
159.921
21
-57.2858
0
LINE
8
BLACK
6
CONTINUOUS
10
159.921
20
-57.2858
11
159.925
21
-57.2862
0
LINE
8
BLACK
6
CONTINUOUS
10
159.925
20
-57.2862
11
159.93
21
-57.2876
0
LINE
8
BLACK
6
CONTINUOUS
10
159.93
20
-57.2876
11
159.934
21
-57.29
0
LINE
8
BLACK
6
CONTINUOUS
10
159.934
20
-57.29
11
159.938
21
-57.2931
0
LINE
8
BLACK
6
CONTINUOUS
10
159.938
20
-57.2931
11
159.941
21
-57.2969
0
LINE
8
BLACK
6
CONTINUOUS
10
159.941
20
-57.2969
11
159.943
21
-57.3012
0
LINE
8
BLACK
6
CONTINUOUS
10
159.943
20
-57.3012
11
159.945
21
-57.3059
0
LINE
8
BLACK
6
CONTINUOUS
10
159.945
20
-57.3059
11
159.945
21
-57.3108
0
LINE
8
BLACK
6
CONTINUOUS
10
159.945
20
-57.3108
11
159.945
21
-57.3121
0
LINE
8
BLACK
6
CONTINUOUS
10
159.945
20
-57.3121
11
159.945
21
-60.2696
0
LINE
8
BLACK
6
CONTINUOUS
10
159.945
20
-60.2696
11
159.945
21
-60.2708
0
LINE
8
BLACK
6
CONTINUOUS
10
159.945
20
-60.2708
11
159.945
21
-60.2721
0
LINE
8
BLACK
6
CONTINUOUS
10
159.945
20
-60.2721
11
159.945
21
-60.2721
0
LINE
8
BLACK
6
CONTINUOUS
10
159.945
20
-60.2721
11
159.945
21
-60.2757
0
LINE
8
BLACK
6
CONTINUOUS
10
159.945
20
-60.2757
11
159.943
21
-60.2805
0
LINE
8
BLACK
6
CONTINUOUS
10
159.943
20
-60.2805
11
159.941
21
-60.2848
0
LINE
8
BLACK
6
CONTINUOUS
10
159.941
20
-60.2848
11
159.938
21
-60.2886
0
LINE
8
BLACK
6
CONTINUOUS
10
159.938
20
-60.2886
11
159.934
21
-60.2917
0
LINE
8
BLACK
6
CONTINUOUS
10
159.934
20
-60.2917
11
159.93
21
-60.294
0
LINE
8
BLACK
6
CONTINUOUS
10
159.93
20
-60.294
11
159.925
21
-60.2955
0
LINE
8
BLACK
6
CONTINUOUS
10
159.925
20
-60.2955
11
159.92
21
-60.296
0
LINE
8
BLACK
6
CONTINUOUS
10
159.92
20
-60.296
11
159.919
21
-60.2958
0
LINE
8
BLACK
6
CONTINUOUS
10
159.919
20
-60.2958
11
158.461
21
-60.2958
0
LINE
8
BLACK
6
CONTINUOUS
10
158.461
20
-60.2958
11
158.46
21
-60.296
0
LINE
8
BLACK
6
CONTINUOUS
10
158.46
20
-60.296
11
158.455
21
-60.2955
0
LINE
8
BLACK
6
CONTINUOUS
10
158.455
20
-60.2955
11
158.451
21
-60.294
0
LINE
8
BLACK
6
CONTINUOUS
10
158.451
20
-60.294
11
158.446
21
-60.2917
0
LINE
8
BLACK
6
CONTINUOUS
10
158.446
20
-60.2917
11
158.443
21
-60.2886
0
LINE
8
BLACK
6
CONTINUOUS
10
158.443
20
-60.2886
11
158.439
21
-60.2848
0
LINE
8
BLACK
6
CONTINUOUS
10
158.439
20
-60.2848
11
158.437
21
-60.2805
0
LINE
8
BLACK
6
CONTINUOUS
10
158.437
20
-60.2805
11
158.436
21
-60.2757
0
LINE
8
BLACK
6
CONTINUOUS
10
158.436
20
-60.2757
11
158.435
21
-60.2708
0
LINE
8
BLACK
6
CONTINUOUS
10
158.435
20
-60.2708
11
158.435
21
-60.2696
0
LINE
8
BLACK
6
CONTINUOUS
10
158.435
20
-60.2696
11
158.435
21
-57.3121
0
LINE
8
BLACK
6
CONTINUOUS
10
158.435
20
-57.3121
11
158.435
21
-57.3108
0
LINE
8
BLACK
6
CONTINUOUS
10
158.435
20
-57.3108
11
158.436
21
-57.3059
0
LINE
8
BLACK
6
CONTINUOUS
10
158.436
20
-57.3059
11
158.437
21
-57.3012
0
LINE
8
BLACK
6
CONTINUOUS
10
158.437
20
-57.3012
11
158.439
21
-57.2969
0
LINE
8
BLACK
6
CONTINUOUS
10
158.439
20
-57.2969
11
158.443
21
-57.2931
0
LINE
8
BLACK
6
CONTINUOUS
10
158.443
20
-57.2931
11
158.446
21
-57.29
0
LINE
8
BLACK
6
CONTINUOUS
10
158.446
20
-57.29
11
158.451
21
-57.2876
0
LINE
8
BLACK
6
CONTINUOUS
10
158.451
20
-57.2876
11
158.455
21
-57.2862
0
LINE
8
BLACK
6
CONTINUOUS
10
158.455
20
-57.2862
11
158.459
21
-57.2858
0
LINE
8
BLACK
6
CONTINUOUS
10
158.459
20
-57.2858
11
158.459
21
-57.2858
0
LINE
8
BLACK
6
CONTINUOUS
10
158.459
20
-57.2858
11
158.46
21
-57.2857
0
LINE
8
BLACK
6
CONTINUOUS
10
158.46
20
-57.2857
11
158.461
21
-57.2858
0
LINE
8
BLACK
6
CONTINUOUS
10
158.461
20
-57.2858
11
159.919
21
-57.2858
0
LINE
8
BLACK
6
CONTINUOUS
10
159.919
20
-57.2858
11
159.92
21
-57.2857
0
LINE
8
BLACK
6
CONTINUOUS
10
159.92
20
-57.2857
11
159.921
21
-57.2858
0
LINE
8
BLACK
6
CONTINUOUS
10
158.485
20
-57.3358
11
158.485
21
-60.2458
0
LINE
8
BLACK
6
CONTINUOUS
10
158.485
20
-60.2458
11
159.895
21
-60.2458
0
LINE
8
BLACK
6
CONTINUOUS
10
159.895
20
-60.2458
11
159.895
21
-57.3358
0
LINE
8
BLACK
6
CONTINUOUS
10
159.895
20
-57.3358
11
158.485
21
-57.3358
0
LINE
8
BLACK
6
CONTINUOUS
10
157.906
20
-57.2858
11
157.906
21
-57.2858
0
LINE
8
BLACK
6
CONTINUOUS
10
157.906
20
-57.2858
11
157.91
21
-57.2862
0
LINE
8
BLACK
6
CONTINUOUS
10
157.91
20
-57.2862
11
157.915
21
-57.2876
0
LINE
8
BLACK
6
CONTINUOUS
10
157.915
20
-57.2876
11
157.919
21
-57.29
0
LINE
8
BLACK
6
CONTINUOUS
10
157.919
20
-57.29
11
157.923
21
-57.2931
0
LINE
8
BLACK
6
CONTINUOUS
10
157.923
20
-57.2931
11
157.926
21
-57.2969
0
LINE
8
BLACK
6
CONTINUOUS
10
157.926
20
-57.2969
11
157.928
21
-57.3012
0
LINE
8
BLACK
6
CONTINUOUS
10
157.928
20
-57.3012
11
157.93
21
-57.3059
0
LINE
8
BLACK
6
CONTINUOUS
10
157.93
20
-57.3059
11
157.93
21
-57.3108
0
LINE
8
BLACK
6
CONTINUOUS
10
157.93
20
-57.3108
11
157.93
21
-57.3121
0
LINE
8
BLACK
6
CONTINUOUS
10
157.93
20
-57.3121
11
157.93
21
-60.2696
0
LINE
8
BLACK
6
CONTINUOUS
10
157.93
20
-60.2696
11
157.93
21
-60.2708
0
LINE
8
BLACK
6
CONTINUOUS
10
157.93
20
-60.2708
11
157.93
21
-60.2721
0
LINE
8
BLACK
6
CONTINUOUS
10
157.93
20
-60.2721
11
157.93
21
-60.2721
0
LINE
8
BLACK
6
CONTINUOUS
10
157.93
20
-60.2721
11
157.93
21
-60.2757
0
LINE
8
BLACK
6
CONTINUOUS
10
157.93
20
-60.2757
11
157.928
21
-60.2805
0
LINE
8
BLACK
6
CONTINUOUS
10
157.928
20
-60.2805
11
157.926
21
-60.2848
0
LINE
8
BLACK
6
CONTINUOUS
10
157.926
20
-60.2848
11
157.923
21
-60.2886
0
LINE
8
BLACK
6
CONTINUOUS
10
157.923
20
-60.2886
11
157.919
21
-60.2917
0
LINE
8
BLACK
6
CONTINUOUS
10
157.919
20
-60.2917
11
157.915
21
-60.294
0
LINE
8
BLACK
6
CONTINUOUS
10
157.915
20
-60.294
11
157.91
21
-60.2955
0
LINE
8
BLACK
6
CONTINUOUS
10
157.91
20
-60.2955
11
157.905
21
-60.296
0
LINE
8
BLACK
6
CONTINUOUS
10
157.905
20
-60.296
11
157.904
21
-60.2958
0
LINE
8
BLACK
6
CONTINUOUS
10
157.904
20
-60.2958
11
156.446
21
-60.2958
0
LINE
8
BLACK
6
CONTINUOUS
10
156.446
20
-60.2958
11
156.445
21
-60.296
0
LINE
8
BLACK
6
CONTINUOUS
10
156.445
20
-60.296
11
156.44
21
-60.2955
0
LINE
8
BLACK
6
CONTINUOUS
10
156.44
20
-60.2955
11
156.436
21
-60.294
0
LINE
8
BLACK
6
CONTINUOUS
10
156.436
20
-60.294
11
156.431
21
-60.2917
0
LINE
8
BLACK
6
CONTINUOUS
10
156.431
20
-60.2917
11
156.427
21
-60.2886
0
LINE
8
BLACK
6
CONTINUOUS
10
156.427
20
-60.2886
11
156.424
21
-60.2848
0
LINE
8
BLACK
6
CONTINUOUS
10
156.424
20
-60.2848
11
156.422
21
-60.2805
0
LINE
8
BLACK
6
CONTINUOUS
10
156.422
20
-60.2805
11
156.421
21
-60.2757
0
LINE
8
BLACK
6
CONTINUOUS
10
156.421
20
-60.2757
11
156.42
21
-60.2708
0
LINE
8
BLACK
6
CONTINUOUS
10
156.42
20
-60.2708
11
156.42
21
-60.2696
0
LINE
8
BLACK
6
CONTINUOUS
10
156.42
20
-60.2696
11
156.42
21
-57.3121
0
LINE
8
BLACK
6
CONTINUOUS
10
156.42
20
-57.3121
11
156.42
21
-57.3108
0
LINE
8
BLACK
6
CONTINUOUS
10
156.42
20
-57.3108
11
156.421
21
-57.3059
0
LINE
8
BLACK
6
CONTINUOUS
10
156.421
20
-57.3059
11
156.422
21
-57.3012
0
LINE
8
BLACK
6
CONTINUOUS
10
156.422
20
-57.3012
11
156.424
21
-57.2969
0
LINE
8
BLACK
6
CONTINUOUS
10
156.424
20
-57.2969
11
156.427
21
-57.2931
0
LINE
8
BLACK
6
CONTINUOUS
10
156.427
20
-57.2931
11
156.431
21
-57.29
0
LINE
8
BLACK
6
CONTINUOUS
10
156.431
20
-57.29
11
156.436
21
-57.2876
0
LINE
8
BLACK
6
CONTINUOUS
10
156.436
20
-57.2876
11
156.44
21
-57.2862
0
LINE
8
BLACK
6
CONTINUOUS
10
156.44
20
-57.2862
11
156.444
21
-57.2858
0
LINE
8
BLACK
6
CONTINUOUS
10
156.444
20
-57.2858
11
156.444
21
-57.2858
0
LINE
8
BLACK
6
CONTINUOUS
10
156.444
20
-57.2858
11
156.445
21
-57.2857
0
LINE
8
BLACK
6
CONTINUOUS
10
156.445
20
-57.2857
11
156.446
21
-57.2858
0
LINE
8
BLACK
6
CONTINUOUS
10
156.446
20
-57.2858
11
157.904
21
-57.2858
0
LINE
8
BLACK
6
CONTINUOUS
10
157.904
20
-57.2858
11
157.905
21
-57.2857
0
LINE
8
BLACK
6
CONTINUOUS
10
157.905
20
-57.2857
11
157.906
21
-57.2858
0
LINE
8
BLACK
6
CONTINUOUS
10
156.47
20
-57.3358
11
156.47
21
-60.2458
0
LINE
8
BLACK
6
CONTINUOUS
10
156.47
20
-60.2458
11
157.88
21
-60.2458
0
LINE
8
BLACK
6
CONTINUOUS
10
157.88
20
-60.2458
11
157.88
21
-57.3358
0
LINE
8
BLACK
6
CONTINUOUS
10
157.88
20
-57.3358
11
156.47
21
-57.3358
0
LINE
8
BLACK
6
CONTINUOUS
10
161.937
20
-57.2858
11
161.937
21
-57.2858
0
LINE
8
BLACK
6
CONTINUOUS
10
161.937
20
-57.2858
11
161.94
21
-57.2862
0
LINE
8
BLACK
6
CONTINUOUS
10
161.94
20
-57.2862
11
161.945
21
-57.2876
0
LINE
8
BLACK
6
CONTINUOUS
10
161.945
20
-57.2876
11
161.949
21
-57.29
0
LINE
8
BLACK
6
CONTINUOUS
10
161.949
20
-57.29
11
161.953
21
-57.2931
0
LINE
8
BLACK
6
CONTINUOUS
10
161.953
20
-57.2931
11
161.956
21
-57.2969
0
LINE
8
BLACK
6
CONTINUOUS
10
161.956
20
-57.2969
11
161.959
21
-57.3012
0
LINE
8
BLACK
6
CONTINUOUS
10
161.959
20
-57.3012
11
161.96
21
-57.3059
0
LINE
8
BLACK
6
CONTINUOUS
10
161.96
20
-57.3059
11
161.96
21
-57.3108
0
LINE
8
BLACK
6
CONTINUOUS
10
161.96
20
-57.3108
11
161.96
21
-57.3121
0
LINE
8
BLACK
6
CONTINUOUS
10
161.96
20
-57.3121
11
161.96
21
-60.2696
0
LINE
8
BLACK
6
CONTINUOUS
10
161.96
20
-60.2696
11
161.96
21
-60.2708
0
LINE
8
BLACK
6
CONTINUOUS
10
161.96
20
-60.2708
11
161.96
21
-60.2721
0
LINE
8
BLACK
6
CONTINUOUS
10
161.96
20
-60.2721
11
161.96
21
-60.2721
0
LINE
8
BLACK
6
CONTINUOUS
10
161.96
20
-60.2721
11
161.96
21
-60.2757
0
LINE
8
BLACK
6
CONTINUOUS
10
161.96
20
-60.2757
11
161.959
21
-60.2805
0
LINE
8
BLACK
6
CONTINUOUS
10
161.959
20
-60.2805
11
161.956
21
-60.2848
0
LINE
8
BLACK
6
CONTINUOUS
10
161.956
20
-60.2848
11
161.953
21
-60.2886
0
LINE
8
BLACK
6
CONTINUOUS
10
161.953
20
-60.2886
11
161.949
21
-60.2917
0
LINE
8
BLACK
6
CONTINUOUS
10
161.949
20
-60.2917
11
161.945
21
-60.294
0
LINE
8
BLACK
6
CONTINUOUS
10
161.945
20
-60.294
11
161.94
21
-60.2955
0
LINE
8
BLACK
6
CONTINUOUS
10
161.94
20
-60.2955
11
161.935
21
-60.296
0
LINE
8
BLACK
6
CONTINUOUS
10
161.935
20
-60.296
11
161.934
21
-60.2958
0
LINE
8
BLACK
6
CONTINUOUS
10
161.934
20
-60.2958
11
160.477
21
-60.2958
0
LINE
8
BLACK
6
CONTINUOUS
10
160.477
20
-60.2958
11
160.475
21
-60.296
0
LINE
8
BLACK
6
CONTINUOUS
10
160.475
20
-60.296
11
160.47
21
-60.2955
0
LINE
8
BLACK
6
CONTINUOUS
10
160.47
20
-60.2955
11
160.466
21
-60.294
0
LINE
8
BLACK
6
CONTINUOUS
10
160.466
20
-60.294
11
160.461
21
-60.2917
0
LINE
8
BLACK
6
CONTINUOUS
10
160.461
20
-60.2917
11
160.458
21
-60.2886
0
LINE
8
BLACK
6
CONTINUOUS
10
160.458
20
-60.2886
11
160.454
21
-60.2848
0
LINE
8
BLACK
6
CONTINUOUS
10
160.454
20
-60.2848
11
160.452
21
-60.2805
0
LINE
8
BLACK
6
CONTINUOUS
10
160.452
20
-60.2805
11
160.451
21
-60.2757
0
LINE
8
BLACK
6
CONTINUOUS
10
160.451
20
-60.2757
11
160.45
21
-60.2708
0
LINE
8
BLACK
6
CONTINUOUS
10
160.45
20
-60.2708
11
160.45
21
-60.2696
0
LINE
8
BLACK
6
CONTINUOUS
10
160.45
20
-60.2696
11
160.45
21
-57.3121
0
LINE
8
BLACK
6
CONTINUOUS
10
160.45
20
-57.3121
11
160.45
21
-57.3108
0
LINE
8
BLACK
6
CONTINUOUS
10
160.45
20
-57.3108
11
160.451
21
-57.3059
0
LINE
8
BLACK
6
CONTINUOUS
10
160.451
20
-57.3059
11
160.452
21
-57.3012
0
LINE
8
BLACK
6
CONTINUOUS
10
160.452
20
-57.3012
11
160.454
21
-57.2969
0
LINE
8
BLACK
6
CONTINUOUS
10
160.454
20
-57.2969
11
160.458
21
-57.2931
0
LINE
8
BLACK
6
CONTINUOUS
10
160.458
20
-57.2931
11
160.461
21
-57.29
0
LINE
8
BLACK
6
CONTINUOUS
10
160.461
20
-57.29
11
160.466
21
-57.2876
0
LINE
8
BLACK
6
CONTINUOUS
10
160.466
20
-57.2876
11
160.47
21
-57.2862
0
LINE
8
BLACK
6
CONTINUOUS
10
160.47
20
-57.2862
11
160.474
21
-57.2858
0
LINE
8
BLACK
6
CONTINUOUS
10
160.474
20
-57.2858
11
160.474
21
-57.2858
0
LINE
8
BLACK
6
CONTINUOUS
10
160.474
20
-57.2858
11
160.475
21
-57.2857
0
LINE
8
BLACK
6
CONTINUOUS
10
160.475
20
-57.2857
11
160.477
21
-57.2858
0
LINE
8
BLACK
6
CONTINUOUS
10
160.477
20
-57.2858
11
161.934
21
-57.2858
0
LINE
8
BLACK
6
CONTINUOUS
10
161.934
20
-57.2858
11
161.935
21
-57.2857
0
LINE
8
BLACK
6
CONTINUOUS
10
161.935
20
-57.2857
11
161.937
21
-57.2858
0
LINE
8
BLACK
6
CONTINUOUS
10
160.5
20
-57.3358
11
160.5
21
-60.2458
0
LINE
8
BLACK
6
CONTINUOUS
10
160.5
20
-60.2458
11
161.91
21
-60.2458
0
LINE
8
BLACK
6
CONTINUOUS
10
161.91
20
-60.2458
11
161.91
21
-57.3358
0
LINE
8
BLACK
6
CONTINUOUS
10
161.91
20
-57.3358
11
160.5
21
-57.3358
0
LINE
8
BLACK
6
CONTINUOUS
10
154.995
20
-47.725
11
154.999
21
-47.7254
0
LINE
8
BLACK
6
CONTINUOUS
10
154.999
20
-47.7254
11
155.003
21
-47.7268
0
LINE
8
BLACK
6
CONTINUOUS
10
155.003
20
-47.7268
11
155.008
21
-47.7291
0
LINE
8
BLACK
6
CONTINUOUS
10
155.008
20
-47.7291
11
155.012
21
-47.7322
0
LINE
8
BLACK
6
CONTINUOUS
10
155.012
20
-47.7322
11
155.015
21
-47.736
0
LINE
8
BLACK
6
CONTINUOUS
10
155.015
20
-47.736
11
155.017
21
-47.7404
0
LINE
8
BLACK
6
CONTINUOUS
10
155.017
20
-47.7404
11
155.018
21
-47.7451
0
LINE
8
BLACK
6
CONTINUOUS
10
155.018
20
-47.7451
11
155.019
21
-47.75
0
LINE
8
BLACK
6
CONTINUOUS
10
155.019
20
-47.75
11
155.019
21
-47.7512
0
LINE
8
BLACK
6
CONTINUOUS
10
155.019
20
-47.7512
11
155.019
21
-58.9488
0
LINE
8
BLACK
6
CONTINUOUS
10
155.019
20
-58.9488
11
155.019
21
-58.95
0
LINE
8
BLACK
6
CONTINUOUS
10
155.019
20
-58.95
11
155.018
21
-58.9549
0
LINE
8
BLACK
6
CONTINUOUS
10
155.018
20
-58.9549
11
155.017
21
-58.9596
0
LINE
8
BLACK
6
CONTINUOUS
10
155.017
20
-58.9596
11
155.015
21
-58.964
0
LINE
8
BLACK
6
CONTINUOUS
10
155.015
20
-58.964
11
155.012
21
-58.9678
0
LINE
8
BLACK
6
CONTINUOUS
10
155.012
20
-58.9678
11
155.008
21
-58.9709
0
LINE
8
BLACK
6
CONTINUOUS
10
155.008
20
-58.9709
11
155.003
21
-58.9732
0
LINE
8
BLACK
6
CONTINUOUS
10
155.003
20
-58.9732
11
154.999
21
-58.9746
0
LINE
8
BLACK
6
CONTINUOUS
10
154.999
20
-58.9746
11
154.995
21
-58.975
0
LINE
8
BLACK
6
CONTINUOUS
10
154.995
20
-58.975
11
154.995
21
-58.975
0
LINE
8
BLACK
6
CONTINUOUS
10
154.995
20
-58.975
11
154.994
21
-58.9751
0
LINE
8
BLACK
6
CONTINUOUS
10
154.994
20
-58.9751
11
154.993
21
-58.975
0
LINE
8
BLACK
6
CONTINUOUS
10
154.993
20
-58.975
11
140.095
21
-58.975
0
LINE
8
BLACK
6
CONTINUOUS
10
140.095
20
-58.975
11
140.094
21
-58.9751
0
LINE
8
BLACK
6
CONTINUOUS
10
140.094
20
-58.9751
11
140.093
21
-58.975
0
LINE
8
BLACK
6
CONTINUOUS
10
140.093
20
-58.975
11
140.093
21
-58.975
0
LINE
8
BLACK
6
CONTINUOUS
10
140.093
20
-58.975
11
140.089
21
-58.9746
0
LINE
8
BLACK
6
CONTINUOUS
10
140.089
20
-58.9746
11
140.084
21
-58.9732
0
LINE
8
BLACK
6
CONTINUOUS
10
140.084
20
-58.9732
11
140.08
21
-58.9709
0
LINE
8
BLACK
6
CONTINUOUS
10
140.08
20
-58.9709
11
140.076
21
-58.9678
0
LINE
8
BLACK
6
CONTINUOUS
10
140.076
20
-58.9678
11
140.073
21
-58.964
0
LINE
8
BLACK
6
CONTINUOUS
10
140.073
20
-58.964
11
140.071
21
-58.9596
0
LINE
8
BLACK
6
CONTINUOUS
10
140.071
20
-58.9596
11
140.069
21
-58.9549
0
LINE
8
BLACK
6
CONTINUOUS
10
140.069
20
-58.9549
11
140.069
21
-58.95
0
LINE
8
BLACK
6
CONTINUOUS
10
140.069
20
-58.95
11
140.069
21
-58.9488
0
LINE
8
BLACK
6
CONTINUOUS
10
140.069
20
-58.9488
11
140.069
21
-47.7512
0
LINE
8
BLACK
6
CONTINUOUS
10
140.069
20
-47.7512
11
140.069
21
-47.75
0
LINE
8
BLACK
6
CONTINUOUS
10
140.069
20
-47.75
11
140.069
21
-47.7451
0
LINE
8
BLACK
6
CONTINUOUS
10
140.069
20
-47.7451
11
140.071
21
-47.7404
0
LINE
8
BLACK
6
CONTINUOUS
10
140.071
20
-47.7404
11
140.073
21
-47.736
0
LINE
8
BLACK
6
CONTINUOUS
10
140.073
20
-47.736
11
140.076
21
-47.7322
0
LINE
8
BLACK
6
CONTINUOUS
10
140.076
20
-47.7322
11
140.08
21
-47.7291
0
LINE
8
BLACK
6
CONTINUOUS
10
140.08
20
-47.7291
11
140.084
21
-47.7268
0
LINE
8
BLACK
6
CONTINUOUS
10
140.084
20
-47.7268
11
140.089
21
-47.7254
0
LINE
8
BLACK
6
CONTINUOUS
10
140.089
20
-47.7254
11
140.093
21
-47.725
0
LINE
8
BLACK
6
CONTINUOUS
10
140.093
20
-47.725
11
140.094
21
-47.7249
0
LINE
8
BLACK
6
CONTINUOUS
10
140.094
20
-47.7249
11
140.095
21
-47.725
0
LINE
8
BLACK
6
CONTINUOUS
10
140.095
20
-47.725
11
154.993
21
-47.725
0
LINE
8
BLACK
6
CONTINUOUS
10
154.993
20
-47.725
11
154.994
21
-47.7249
0
LINE
8
BLACK
6
CONTINUOUS
10
154.994
20
-47.7249
11
154.995
21
-47.725
0
LINE
8
BLACK
6
CONTINUOUS
10
140.119
20
-47.775
11
140.119
21
-58.925
0
LINE
8
BLACK
6
CONTINUOUS
10
140.119
20
-58.925
11
154.969
21
-58.925
0
LINE
8
BLACK
6
CONTINUOUS
10
154.969
20
-58.925
11
154.969
21
-47.775
0
LINE
8
BLACK
6
CONTINUOUS
10
154.969
20
-47.775
11
140.119
21
-47.775
0
LINE
8
BLACK
6
CONTINUOUS
10
188.073
20
-39.402
11
188.073
21
-39.402
0
LINE
8
BLACK
6
CONTINUOUS
10
188.073
20
-39.402
11
188.077
21
-39.4024
0
LINE
8
BLACK
6
CONTINUOUS
10
188.077
20
-39.4024
11
188.081
21
-39.4038
0
LINE
8
BLACK
6
CONTINUOUS
10
188.081
20
-39.4038
11
188.086
21
-39.4061
0
LINE
8
BLACK
6
CONTINUOUS
10
188.086
20
-39.4061
11
188.09
21
-39.4093
0
LINE
8
BLACK
6
CONTINUOUS
10
188.09
20
-39.4093
11
188.093
21
-39.4131
0
LINE
8
BLACK
6
CONTINUOUS
10
188.093
20
-39.4131
11
188.095
21
-39.4174
0
LINE
8
BLACK
6
CONTINUOUS
10
188.095
20
-39.4174
11
188.096
21
-39.4221
0
LINE
8
BLACK
6
CONTINUOUS
10
188.096
20
-39.4221
11
188.097
21
-39.427
0
LINE
8
BLACK
6
CONTINUOUS
10
188.097
20
-39.427
11
188.097
21
-39.4282
0
LINE
8
BLACK
6
CONTINUOUS
10
188.097
20
-39.4282
11
188.097
21
-56.9258
0
LINE
8
BLACK
6
CONTINUOUS
10
188.097
20
-56.9258
11
188.097
21
-56.927
0
LINE
8
BLACK
6
CONTINUOUS
10
188.097
20
-56.927
11
188.097
21
-56.9282
0
LINE
8
BLACK
6
CONTINUOUS
10
188.097
20
-56.9282
11
188.097
21
-56.9282
0
LINE
8
BLACK
6
CONTINUOUS
10
188.097
20
-56.9282
11
188.096
21
-56.9319
0
LINE
8
BLACK
6
CONTINUOUS
10
188.096
20
-56.9319
11
188.095
21
-56.9366
0
LINE
8
BLACK
6
CONTINUOUS
10
188.095
20
-56.9366
11
188.093
21
-56.941
0
LINE
8
BLACK
6
CONTINUOUS
10
188.093
20
-56.941
11
188.09
21
-56.9448
0
LINE
8
BLACK
6
CONTINUOUS
10
188.09
20
-56.9448
11
188.086
21
-56.9479
0
LINE
8
BLACK
6
CONTINUOUS
10
188.086
20
-56.9479
11
188.081
21
-56.9502
0
LINE
8
BLACK
6
CONTINUOUS
10
188.081
20
-56.9502
11
188.077
21
-56.9517
0
LINE
8
BLACK
6
CONTINUOUS
10
188.077
20
-56.9517
11
188.072
21
-56.9521
0
LINE
8
BLACK
6
CONTINUOUS
10
188.072
20
-56.9521
11
188.071
21
-56.952
0
LINE
8
BLACK
6
CONTINUOUS
10
188.071
20
-56.952
11
173.873
21
-56.952
0
LINE
8
BLACK
6
CONTINUOUS
10
173.873
20
-56.952
11
173.872
21
-56.9521
0
LINE
8
BLACK
6
CONTINUOUS
10
173.872
20
-56.9521
11
173.867
21
-56.9517
0
LINE
8
BLACK
6
CONTINUOUS
10
173.867
20
-56.9517
11
173.862
21
-56.9502
0
LINE
8
BLACK
6
CONTINUOUS
10
173.862
20
-56.9502
11
173.858
21
-56.9479
0
LINE
8
BLACK
6
CONTINUOUS
10
173.858
20
-56.9479
11
173.854
21
-56.9448
0
LINE
8
BLACK
6
CONTINUOUS
10
173.854
20
-56.9448
11
173.851
21
-56.941
0
LINE
8
BLACK
6
CONTINUOUS
10
173.851
20
-56.941
11
173.849
21
-56.9366
0
LINE
8
BLACK
6
CONTINUOUS
10
173.849
20
-56.9366
11
173.847
21
-56.9319
0
LINE
8
BLACK
6
CONTINUOUS
10
173.847
20
-56.9319
11
173.847
21
-56.927
0
LINE
8
BLACK
6
CONTINUOUS
10
173.847
20
-56.927
11
173.847
21
-56.9258
0
LINE
8
BLACK
6
CONTINUOUS
10
173.847
20
-56.9258
11
173.847
21
-39.4282
0
LINE
8
BLACK
6
CONTINUOUS
10
173.847
20
-39.4282
11
173.847
21
-39.427
0
LINE
8
BLACK
6
CONTINUOUS
10
173.847
20
-39.427
11
173.847
21
-39.4221
0
LINE
8
BLACK
6
CONTINUOUS
10
173.847
20
-39.4221
11
173.849
21
-39.4174
0
LINE
8
BLACK
6
CONTINUOUS
10
173.849
20
-39.4174
11
173.851
21
-39.4131
0
LINE
8
BLACK
6
CONTINUOUS
10
173.851
20
-39.4131
11
173.854
21
-39.4093
0
LINE
8
BLACK
6
CONTINUOUS
10
173.854
20
-39.4093
11
173.858
21
-39.4061
0
LINE
8
BLACK
6
CONTINUOUS
10
173.858
20
-39.4061
11
173.862
21
-39.4038
0
LINE
8
BLACK
6
CONTINUOUS
10
173.862
20
-39.4038
11
173.867
21
-39.4024
0
LINE
8
BLACK
6
CONTINUOUS
10
173.867
20
-39.4024
11
173.871
21
-39.402
0
LINE
8
BLACK
6
CONTINUOUS
10
173.871
20
-39.402
11
173.871
21
-39.402
0
LINE
8
BLACK
6
CONTINUOUS
10
173.871
20
-39.402
11
173.872
21
-39.4019
0
LINE
8
BLACK
6
CONTINUOUS
10
173.872
20
-39.4019
11
173.873
21
-39.402
0
LINE
8
BLACK
6
CONTINUOUS
10
173.873
20
-39.402
11
188.071
21
-39.402
0
LINE
8
BLACK
6
CONTINUOUS
10
188.071
20
-39.402
11
188.072
21
-39.4019
0
LINE
8
BLACK
6
CONTINUOUS
10
188.072
20
-39.4019
11
188.073
21
-39.402
0
LINE
8
BLACK
6
CONTINUOUS
10
173.897
20
-39.452
11
173.897
21
-56.902
0
LINE
8
BLACK
6
CONTINUOUS
10
173.897
20
-56.902
11
188.047
21
-56.902
0
LINE
8
BLACK
6
CONTINUOUS
10
188.047
20
-56.902
11
188.047
21
-39.452
0
LINE
8
BLACK
6
CONTINUOUS
10
188.047
20
-39.452
11
173.897
21
-39.452
0
LINE
8
BLACK
6
CONTINUOUS
10
225.233
20
-55.1157
11
225.228
21
-55.1142
0
LINE
8
BLACK
6
CONTINUOUS
10
225.228
20
-55.1142
11
225.223
21
-55.1119
0
LINE
8
BLACK
6
CONTINUOUS
10
225.223
20
-55.1119
11
225.221
21
-55.1096
0
LINE
8
BLACK
6
CONTINUOUS
10
225.221
20
-55.1096
11
225.221
21
-55.1096
0
LINE
8
BLACK
6
CONTINUOUS
10
225.221
20
-55.1096
11
225.22
21
-55.1088
0
LINE
8
BLACK
6
CONTINUOUS
10
225.22
20
-55.1088
11
225.219
21
-55.1078
0
LINE
8
BLACK
6
CONTINUOUS
10
225.219
20
-55.1078
11
220.695
21
-50.5841
0
LINE
8
BLACK
6
CONTINUOUS
10
220.695
20
-50.5841
11
220.694
21
-50.5833
0
LINE
8
BLACK
6
CONTINUOUS
10
220.694
20
-50.5833
11
220.691
21
-50.5795
0
LINE
8
BLACK
6
CONTINUOUS
10
220.691
20
-50.5795
11
220.689
21
-50.5752
0
LINE
8
BLACK
6
CONTINUOUS
10
220.689
20
-50.5752
11
220.687
21
-50.5704
0
LINE
8
BLACK
6
CONTINUOUS
10
220.687
20
-50.5704
11
220.687
21
-50.5655
0
LINE
8
BLACK
6
CONTINUOUS
10
220.687
20
-50.5655
11
220.687
21
-50.5606
0
LINE
8
BLACK
6
CONTINUOUS
10
220.687
20
-50.5606
11
220.689
21
-50.5559
0
LINE
8
BLACK
6
CONTINUOUS
10
220.689
20
-50.5559
11
220.691
21
-50.5516
0
LINE
8
BLACK
6
CONTINUOUS
10
220.691
20
-50.5516
11
220.693
21
-50.5487
0
LINE
8
BLACK
6
CONTINUOUS
10
220.693
20
-50.5487
11
220.693
21
-50.5487
0
LINE
8
BLACK
6
CONTINUOUS
10
220.693
20
-50.5487
11
220.694
21
-50.5478
0
LINE
8
BLACK
6
CONTINUOUS
10
220.694
20
-50.5478
11
220.695
21
-50.547
0
LINE
8
BLACK
6
CONTINUOUS
10
220.695
20
-50.547
11
225.219
21
-46.0232
0
LINE
8
BLACK
6
CONTINUOUS
10
225.219
20
-46.0232
11
225.22
21
-46.0223
0
LINE
8
BLACK
6
CONTINUOUS
10
225.22
20
-46.0223
11
225.221
21
-46.0215
0
LINE
8
BLACK
6
CONTINUOUS
10
225.221
20
-46.0215
11
225.221
21
-46.0215
0
LINE
8
BLACK
6
CONTINUOUS
10
225.221
20
-46.0215
11
225.223
21
-46.0192
0
LINE
8
BLACK
6
CONTINUOUS
10
225.223
20
-46.0192
11
225.228
21
-46.0168
0
LINE
8
BLACK
6
CONTINUOUS
10
225.228
20
-46.0168
11
225.233
21
-46.0154
0
LINE
8
BLACK
6
CONTINUOUS
10
225.233
20
-46.0154
11
225.237
21
-46.0149
0
LINE
8
BLACK
6
CONTINUOUS
10
225.237
20
-46.0149
11
225.237
21
-46.0149
0
LINE
8
BLACK
6
CONTINUOUS
10
225.237
20
-46.0149
11
225.242
21
-46.0154
0
LINE
8
BLACK
6
CONTINUOUS
10
225.242
20
-46.0154
11
225.247
21
-46.0168
0
LINE
8
BLACK
6
CONTINUOUS
10
225.247
20
-46.0168
11
225.251
21
-46.0192
0
LINE
8
BLACK
6
CONTINUOUS
10
225.251
20
-46.0192
11
225.255
21
-46.0223
0
LINE
8
BLACK
6
CONTINUOUS
10
225.255
20
-46.0223
11
225.256
21
-46.0232
0
LINE
8
BLACK
6
CONTINUOUS
10
225.256
20
-46.0232
11
229.78
21
-50.547
0
LINE
8
BLACK
6
CONTINUOUS
10
229.78
20
-50.547
11
229.781
21
-50.5478
0
LINE
8
BLACK
6
CONTINUOUS
10
229.781
20
-50.5478
11
229.781
21
-50.5487
0
LINE
8
BLACK
6
CONTINUOUS
10
229.781
20
-50.5487
11
229.781
21
-50.5487
0
LINE
8
BLACK
6
CONTINUOUS
10
229.781
20
-50.5487
11
229.784
21
-50.5516
0
LINE
8
BLACK
6
CONTINUOUS
10
229.784
20
-50.5516
11
229.786
21
-50.5559
0
LINE
8
BLACK
6
CONTINUOUS
10
229.786
20
-50.5559
11
229.788
21
-50.5606
0
LINE
8
BLACK
6
CONTINUOUS
10
229.788
20
-50.5606
11
229.788
21
-50.5606
0
LINE
8
BLACK
6
CONTINUOUS
10
229.788
20
-50.5606
11
229.788
21
-50.5655
0
LINE
8
BLACK
6
CONTINUOUS
10
229.788
20
-50.5655
11
229.788
21
-50.5704
0
LINE
8
BLACK
6
CONTINUOUS
10
229.788
20
-50.5704
11
229.786
21
-50.5752
0
LINE
8
BLACK
6
CONTINUOUS
10
229.786
20
-50.5752
11
229.784
21
-50.5795
0
LINE
8
BLACK
6
CONTINUOUS
10
229.784
20
-50.5795
11
229.781
21
-50.5824
0
LINE
8
BLACK
6
CONTINUOUS
10
229.781
20
-50.5824
11
229.781
21
-50.5824
0
LINE
8
BLACK
6
CONTINUOUS
10
229.781
20
-50.5824
11
229.781
21
-50.5833
0
LINE
8
BLACK
6
CONTINUOUS
10
229.781
20
-50.5833
11
229.78
21
-50.5841
0
LINE
8
BLACK
6
CONTINUOUS
10
229.78
20
-50.5841
11
225.256
21
-55.1078
0
LINE
8
BLACK
6
CONTINUOUS
10
225.256
20
-55.1078
11
225.255
21
-55.1088
0
LINE
8
BLACK
6
CONTINUOUS
10
225.255
20
-55.1088
11
225.254
21
-55.1096
0
LINE
8
BLACK
6
CONTINUOUS
10
225.254
20
-55.1096
11
225.251
21
-55.1119
0
LINE
8
BLACK
6
CONTINUOUS
10
225.251
20
-55.1119
11
225.247
21
-55.1142
0
LINE
8
BLACK
6
CONTINUOUS
10
225.247
20
-55.1142
11
225.242
21
-55.1157
0
LINE
8
BLACK
6
CONTINUOUS
10
225.242
20
-55.1157
11
225.237
21
-55.1161
0
LINE
8
BLACK
6
CONTINUOUS
10
225.237
20
-55.1161
11
225.237
21
-55.1161
0
LINE
8
BLACK
6
CONTINUOUS
10
225.237
20
-55.1161
11
225.233
21
-55.1157
0
LINE
8
BLACK
6
CONTINUOUS
10
220.747
20
-50.5655
11
225.237
21
-55.0557
0
LINE
8
BLACK
6
CONTINUOUS
10
225.237
20
-55.0557
11
229.728
21
-50.5655
0
LINE
8
BLACK
6
CONTINUOUS
10
229.728
20
-50.5655
11
225.237
21
-46.0754
0
LINE
8
BLACK
6
CONTINUOUS
10
225.237
20
-46.0754
11
220.747
21
-50.5655
0
LINE
8
BLACK
6
CONTINUOUS
10
207.682
20
-50.6124
11
207.682
21
-50.6124
0
LINE
8
BLACK
6
CONTINUOUS
10
207.682
20
-50.6124
11
207.685
21
-50.6128
0
LINE
8
BLACK
6
CONTINUOUS
10
207.685
20
-50.6128
11
207.69
21
-50.6142
0
LINE
8
BLACK
6
CONTINUOUS
10
207.69
20
-50.6142
11
207.695
21
-50.6166
0
LINE
8
BLACK
6
CONTINUOUS
10
207.695
20
-50.6166
11
207.698
21
-50.6197
0
LINE
8
BLACK
6
CONTINUOUS
10
207.698
20
-50.6197
11
207.701
21
-50.6235
0
LINE
8
BLACK
6
CONTINUOUS
10
207.701
20
-50.6235
11
207.704
21
-50.6278
0
LINE
8
BLACK
6
CONTINUOUS
10
207.704
20
-50.6278
11
207.705
21
-50.6325
0
LINE
8
BLACK
6
CONTINUOUS
10
207.705
20
-50.6325
11
207.706
21
-50.6374
0
LINE
8
BLACK
6
CONTINUOUS
10
207.706
20
-50.6374
11
207.706
21
-50.6387
0
LINE
8
BLACK
6
CONTINUOUS
10
207.706
20
-50.6387
11
207.706
21
-53.9382
0
LINE
8
BLACK
6
CONTINUOUS
10
207.706
20
-53.9382
11
207.706
21
-53.9394
0
LINE
8
BLACK
6
CONTINUOUS
10
207.706
20
-53.9394
11
207.706
21
-53.9407
0
LINE
8
BLACK
6
CONTINUOUS
10
207.706
20
-53.9407
11
207.705
21
-53.9443
0
LINE
8
BLACK
6
CONTINUOUS
10
207.705
20
-53.9443
11
207.704
21
-53.9491
0
LINE
8
BLACK
6
CONTINUOUS
10
207.704
20
-53.9491
11
207.701
21
-53.9534
0
LINE
8
BLACK
6
CONTINUOUS
10
207.701
20
-53.9534
11
207.698
21
-53.9572
0
LINE
8
BLACK
6
CONTINUOUS
10
207.698
20
-53.9572
11
207.695
21
-53.9603
0
LINE
8
BLACK
6
CONTINUOUS
10
207.695
20
-53.9603
11
207.69
21
-53.9626
0
LINE
8
BLACK
6
CONTINUOUS
10
207.69
20
-53.9626
11
207.685
21
-53.9641
0
LINE
8
BLACK
6
CONTINUOUS
10
207.685
20
-53.9641
11
207.681
21
-53.9646
0
LINE
8
BLACK
6
CONTINUOUS
10
207.681
20
-53.9646
11
207.679
21
-53.9644
0
LINE
8
BLACK
6
CONTINUOUS
10
207.679
20
-53.9644
11
205.269
21
-53.9644
0
LINE
8
BLACK
6
CONTINUOUS
10
205.269
20
-53.9644
11
205.268
21
-53.9646
0
LINE
8
BLACK
6
CONTINUOUS
10
205.268
20
-53.9646
11
205.266
21
-53.9644
0
LINE
8
BLACK
6
CONTINUOUS
10
205.266
20
-53.9644
11
205.266
21
-53.9644
0
LINE
8
BLACK
6
CONTINUOUS
10
205.266
20
-53.9644
11
205.263
21
-53.9641
0
LINE
8
BLACK
6
CONTINUOUS
10
205.263
20
-53.9641
11
205.258
21
-53.9626
0
LINE
8
BLACK
6
CONTINUOUS
10
205.258
20
-53.9626
11
205.254
21
-53.9603
0
LINE
8
BLACK
6
CONTINUOUS
10
205.254
20
-53.9603
11
205.25
21
-53.9572
0
LINE
8
BLACK
6
CONTINUOUS
10
205.25
20
-53.9572
11
205.247
21
-53.9534
0
LINE
8
BLACK
6
CONTINUOUS
10
205.247
20
-53.9534
11
205.244
21
-53.9491
0
LINE
8
BLACK
6
CONTINUOUS
10
205.244
20
-53.9491
11
205.243
21
-53.9443
0
LINE
8
BLACK
6
CONTINUOUS
10
205.243
20
-53.9443
11
205.242
21
-53.9394
0
LINE
8
BLACK
6
CONTINUOUS
10
205.242
20
-53.9394
11
205.243
21
-53.9382
0
LINE
8
BLACK
6
CONTINUOUS
10
205.243
20
-53.9382
11
205.243
21
-50.6387
0
LINE
8
BLACK
6
CONTINUOUS
10
205.243
20
-50.6387
11
205.242
21
-50.6374
0
LINE
8
BLACK
6
CONTINUOUS
10
205.242
20
-50.6374
11
205.243
21
-50.6325
0
LINE
8
BLACK
6
CONTINUOUS
10
205.243
20
-50.6325
11
205.244
21
-50.6278
0
LINE
8
BLACK
6
CONTINUOUS
10
205.244
20
-50.6278
11
205.247
21
-50.6235
0
LINE
8
BLACK
6
CONTINUOUS
10
205.247
20
-50.6235
11
205.25
21
-50.6197
0
LINE
8
BLACK
6
CONTINUOUS
10
205.25
20
-50.6197
11
205.254
21
-50.6166
0
LINE
8
BLACK
6
CONTINUOUS
10
205.254
20
-50.6166
11
205.258
21
-50.6142
0
LINE
8
BLACK
6
CONTINUOUS
10
205.258
20
-50.6142
11
205.263
21
-50.6128
0
LINE
8
BLACK
6
CONTINUOUS
10
205.263
20
-50.6128
11
205.266
21
-50.6124
0
LINE
8
BLACK
6
CONTINUOUS
10
205.266
20
-50.6124
11
205.268
21
-50.6123
0
LINE
8
BLACK
6
CONTINUOUS
10
205.268
20
-50.6123
11
205.269
21
-50.6124
0
LINE
8
BLACK
6
CONTINUOUS
10
205.269
20
-50.6124
11
207.679
21
-50.6124
0
LINE
8
BLACK
6
CONTINUOUS
10
207.679
20
-50.6124
11
207.681
21
-50.6123
0
LINE
8
BLACK
6
CONTINUOUS
10
207.681
20
-50.6123
11
207.682
21
-50.6124
0
LINE
8
BLACK
6
CONTINUOUS
10
205.293
20
-50.6624
11
205.293
21
-53.9144
0
LINE
8
BLACK
6
CONTINUOUS
10
205.293
20
-53.9144
11
207.656
21
-53.9144
0
LINE
8
BLACK
6
CONTINUOUS
10
207.656
20
-53.9144
11
207.656
21
-50.6624
0
LINE
8
BLACK
6
CONTINUOUS
10
207.656
20
-50.6624
11
205.293
21
-50.6624
0
LINE
8
BLACK
6
CONTINUOUS
10
210.063
20
-50.8342
11
210.063
21
-50.8342
0
LINE
8
BLACK
6
CONTINUOUS
10
210.063
20
-50.8342
11
210.066
21
-50.8346
0
LINE
8
BLACK
6
CONTINUOUS
10
210.066
20
-50.8346
11
210.071
21
-50.836
0
LINE
8
BLACK
6
CONTINUOUS
10
210.071
20
-50.836
11
210.076
21
-50.8384
0
LINE
8
BLACK
6
CONTINUOUS
10
210.076
20
-50.8384
11
210.079
21
-50.8415
0
LINE
8
BLACK
6
CONTINUOUS
10
210.079
20
-50.8415
11
210.082
21
-50.8453
0
LINE
8
BLACK
6
CONTINUOUS
10
210.082
20
-50.8453
11
210.085
21
-50.8496
0
LINE
8
BLACK
6
CONTINUOUS
10
210.085
20
-50.8496
11
210.086
21
-50.8543
0
LINE
8
BLACK
6
CONTINUOUS
10
210.086
20
-50.8543
11
210.087
21
-50.8592
0
LINE
8
BLACK
6
CONTINUOUS
10
210.087
20
-50.8592
11
210.087
21
-50.8605
0
LINE
8
BLACK
6
CONTINUOUS
10
210.087
20
-50.8605
11
210.087
21
-53.818
0
LINE
8
BLACK
6
CONTINUOUS
10
210.087
20
-53.818
11
210.087
21
-53.8192
0
LINE
8
BLACK
6
CONTINUOUS
10
210.087
20
-53.8192
11
210.087
21
-53.8205
0
LINE
8
BLACK
6
CONTINUOUS
10
210.087
20
-53.8205
11
210.087
21
-53.8205
0
LINE
8
BLACK
6
CONTINUOUS
10
210.087
20
-53.8205
11
210.086
21
-53.8241
0
LINE
8
BLACK
6
CONTINUOUS
10
210.086
20
-53.8241
11
210.085
21
-53.8289
0
LINE
8
BLACK
6
CONTINUOUS
10
210.085
20
-53.8289
11
210.082
21
-53.8332
0
LINE
8
BLACK
6
CONTINUOUS
10
210.082
20
-53.8332
11
210.079
21
-53.837
0
LINE
8
BLACK
6
CONTINUOUS
10
210.079
20
-53.837
11
210.076
21
-53.8401
0
LINE
8
BLACK
6
CONTINUOUS
10
210.076
20
-53.8401
11
210.071
21
-53.8424
0
LINE
8
BLACK
6
CONTINUOUS
10
210.071
20
-53.8424
11
210.066
21
-53.8439
0
LINE
8
BLACK
6
CONTINUOUS
10
210.066
20
-53.8439
11
210.062
21
-53.8444
0
LINE
8
BLACK
6
CONTINUOUS
10
210.062
20
-53.8444
11
210.06
21
-53.8442
0
LINE
8
BLACK
6
CONTINUOUS
10
210.06
20
-53.8442
11
208.603
21
-53.8442
0
LINE
8
BLACK
6
CONTINUOUS
10
208.603
20
-53.8442
11
208.602
21
-53.8444
0
LINE
8
BLACK
6
CONTINUOUS
10
208.602
20
-53.8444
11
208.597
21
-53.8439
0
LINE
8
BLACK
6
CONTINUOUS
10
208.597
20
-53.8439
11
208.592
21
-53.8424
0
LINE
8
BLACK
6
CONTINUOUS
10
208.592
20
-53.8424
11
208.588
21
-53.8401
0
LINE
8
BLACK
6
CONTINUOUS
10
208.588
20
-53.8401
11
208.584
21
-53.837
0
LINE
8
BLACK
6
CONTINUOUS
10
208.584
20
-53.837
11
208.581
21
-53.8332
0
LINE
8
BLACK
6
CONTINUOUS
10
208.581
20
-53.8332
11
208.578
21
-53.8289
0
LINE
8
BLACK
6
CONTINUOUS
10
208.578
20
-53.8289
11
208.577
21
-53.8241
0
LINE
8
BLACK
6
CONTINUOUS
10
208.577
20
-53.8241
11
208.576
21
-53.8192
0
LINE
8
BLACK
6
CONTINUOUS
10
208.576
20
-53.8192
11
208.577
21
-53.818
0
LINE
8
BLACK
6
CONTINUOUS
10
208.577
20
-53.818
11
208.577
21
-50.8605
0
LINE
8
BLACK
6
CONTINUOUS
10
208.577
20
-50.8605
11
208.576
21
-50.8592
0
LINE
8
BLACK
6
CONTINUOUS
10
208.576
20
-50.8592
11
208.577
21
-50.8543
0
LINE
8
BLACK
6
CONTINUOUS
10
208.577
20
-50.8543
11
208.578
21
-50.8496
0
LINE
8
BLACK
6
CONTINUOUS
10
208.578
20
-50.8496
11
208.581
21
-50.8453
0
LINE
8
BLACK
6
CONTINUOUS
10
208.581
20
-50.8453
11
208.584
21
-50.8415
0
LINE
8
BLACK
6
CONTINUOUS
10
208.584
20
-50.8415
11
208.588
21
-50.8384
0
LINE
8
BLACK
6
CONTINUOUS
10
208.588
20
-50.8384
11
208.592
21
-50.836
0
LINE
8
BLACK
6
CONTINUOUS
10
208.592
20
-50.836
11
208.597
21
-50.8346
0
LINE
8
BLACK
6
CONTINUOUS
10
208.597
20
-50.8346
11
208.6
21
-50.8342
0
LINE
8
BLACK
6
CONTINUOUS
10
208.6
20
-50.8342
11
208.6
21
-50.8342
0
LINE
8
BLACK
6
CONTINUOUS
10
208.6
20
-50.8342
11
208.602
21
-50.8341
0
LINE
8
BLACK
6
CONTINUOUS
10
208.602
20
-50.8341
11
208.603
21
-50.8342
0
LINE
8
BLACK
6
CONTINUOUS
10
208.603
20
-50.8342
11
210.06
21
-50.8342
0
LINE
8
BLACK
6
CONTINUOUS
10
210.06
20
-50.8342
11
210.062
21
-50.8341
0
LINE
8
BLACK
6
CONTINUOUS
10
210.062
20
-50.8341
11
210.063
21
-50.8342
0
LINE
8
BLACK
6
CONTINUOUS
10
208.627
20
-50.8842
11
208.627
21
-53.7942
0
LINE
8
BLACK
6
CONTINUOUS
10
208.627
20
-53.7942
11
210.037
21
-53.7942
0
LINE
8
BLACK
6
CONTINUOUS
10
210.037
20
-53.7942
11
210.037
21
-50.8842
0
LINE
8
BLACK
6
CONTINUOUS
10
210.037
20
-50.8842
11
208.627
21
-50.8842
0
LINE
8
BLACK
6
CONTINUOUS
10
219.693
20
-51.0043
11
219.693
21
-51.0043
0
LINE
8
BLACK
6
CONTINUOUS
10
219.693
20
-51.0043
11
219.697
21
-51.0047
0
LINE
8
BLACK
6
CONTINUOUS
10
219.697
20
-51.0047
11
219.701
21
-51.0061
0
LINE
8
BLACK
6
CONTINUOUS
10
219.701
20
-51.0061
11
219.706
21
-51.0084
0
LINE
8
BLACK
6
CONTINUOUS
10
219.706
20
-51.0084
11
219.709
21
-51.0116
0
LINE
8
BLACK
6
CONTINUOUS
10
219.709
20
-51.0116
11
219.713
21
-51.0154
0
LINE
8
BLACK
6
CONTINUOUS
10
219.713
20
-51.0154
11
219.715
21
-51.0197
0
LINE
8
BLACK
6
CONTINUOUS
10
219.715
20
-51.0197
11
219.716
21
-51.0244
0
LINE
8
BLACK
6
CONTINUOUS
10
219.716
20
-51.0244
11
219.717
21
-51.0293
0
LINE
8
BLACK
6
CONTINUOUS
10
219.717
20
-51.0293
11
219.717
21
-51.0305
0
LINE
8
BLACK
6
CONTINUOUS
10
219.717
20
-51.0305
11
219.717
21
-52.4881
0
LINE
8
BLACK
6
CONTINUOUS
10
219.717
20
-52.4881
11
219.717
21
-52.4893
0
LINE
8
BLACK
6
CONTINUOUS
10
219.717
20
-52.4893
11
219.717
21
-52.4905
0
LINE
8
BLACK
6
CONTINUOUS
10
219.717
20
-52.4905
11
219.717
21
-52.4905
0
LINE
8
BLACK
6
CONTINUOUS
10
219.717
20
-52.4905
11
219.716
21
-52.4942
0
LINE
8
BLACK
6
CONTINUOUS
10
219.716
20
-52.4942
11
219.715
21
-52.4989
0
LINE
8
BLACK
6
CONTINUOUS
10
219.715
20
-52.4989
11
219.713
21
-52.5033
0
LINE
8
BLACK
6
CONTINUOUS
10
219.713
20
-52.5033
11
219.709
21
-52.5071
0
LINE
8
BLACK
6
CONTINUOUS
10
219.709
20
-52.5071
11
219.706
21
-52.5102
0
LINE
8
BLACK
6
CONTINUOUS
10
219.706
20
-52.5102
11
219.701
21
-52.5125
0
LINE
8
BLACK
6
CONTINUOUS
10
219.701
20
-52.5125
11
219.697
21
-52.514
0
LINE
8
BLACK
6
CONTINUOUS
10
219.697
20
-52.514
11
219.692
21
-52.5145
0
LINE
8
BLACK
6
CONTINUOUS
10
219.692
20
-52.5145
11
219.69
21
-52.5143
0
LINE
8
BLACK
6
CONTINUOUS
10
219.69
20
-52.5143
11
216.733
21
-52.5143
0
LINE
8
BLACK
6
CONTINUOUS
10
216.733
20
-52.5143
11
216.732
21
-52.5145
0
LINE
8
BLACK
6
CONTINUOUS
10
216.732
20
-52.5145
11
216.727
21
-52.514
0
LINE
8
BLACK
6
CONTINUOUS
10
216.727
20
-52.514
11
216.722
21
-52.5125
0
LINE
8
BLACK
6
CONTINUOUS
10
216.722
20
-52.5125
11
216.718
21
-52.5102
0
LINE
8
BLACK
6
CONTINUOUS
10
216.718
20
-52.5102
11
216.714
21
-52.5071
0
LINE
8
BLACK
6
CONTINUOUS
10
216.714
20
-52.5071
11
216.711
21
-52.5033
0
LINE
8
BLACK
6
CONTINUOUS
10
216.711
20
-52.5033
11
216.708
21
-52.4989
0
LINE
8
BLACK
6
CONTINUOUS
10
216.708
20
-52.4989
11
216.707
21
-52.4942
0
LINE
8
BLACK
6
CONTINUOUS
10
216.707
20
-52.4942
11
216.707
21
-52.4893
0
LINE
8
BLACK
6
CONTINUOUS
10
216.707
20
-52.4893
11
216.707
21
-52.4881
0
LINE
8
BLACK
6
CONTINUOUS
10
216.707
20
-52.4881
11
216.707
21
-51.0306
0
LINE
8
BLACK
6
CONTINUOUS
10
216.707
20
-51.0306
11
216.707
21
-51.0293
0
LINE
8
BLACK
6
CONTINUOUS
10
216.707
20
-51.0293
11
216.707
21
-51.0244
0
LINE
8
BLACK
6
CONTINUOUS
10
216.707
20
-51.0244
11
216.708
21
-51.0197
0
LINE
8
BLACK
6
CONTINUOUS
10
216.708
20
-51.0197
11
216.711
21
-51.0154
0
LINE
8
BLACK
6
CONTINUOUS
10
216.711
20
-51.0154
11
216.714
21
-51.0116
0
LINE
8
BLACK
6
CONTINUOUS
10
216.714
20
-51.0116
11
216.718
21
-51.0084
0
LINE
8
BLACK
6
CONTINUOUS
10
216.718
20
-51.0084
11
216.722
21
-51.0061
0
LINE
8
BLACK
6
CONTINUOUS
10
216.722
20
-51.0061
11
216.727
21
-51.0047
0
LINE
8
BLACK
6
CONTINUOUS
10
216.727
20
-51.0047
11
216.73
21
-51.0043
0
LINE
8
BLACK
6
CONTINUOUS
10
216.73
20
-51.0043
11
216.73
21
-51.0043
0
LINE
8
BLACK
6
CONTINUOUS
10
216.73
20
-51.0043
11
216.732
21
-51.0042
0
LINE
8
BLACK
6
CONTINUOUS
10
216.732
20
-51.0042
11
216.733
21
-51.0043
0
LINE
8
BLACK
6
CONTINUOUS
10
216.733
20
-51.0043
11
219.69
21
-51.0043
0
LINE
8
BLACK
6
CONTINUOUS
10
219.69
20
-51.0043
11
219.692
21
-51.0042
0
LINE
8
BLACK
6
CONTINUOUS
10
219.692
20
-51.0042
11
219.693
21
-51.0043
0
LINE
8
BLACK
6
CONTINUOUS
10
216.757
20
-51.0543
11
216.757
21
-52.4643
0
LINE
8
BLACK
6
CONTINUOUS
10
216.757
20
-52.4643
11
219.667
21
-52.4643
0
LINE
8
BLACK
6
CONTINUOUS
10
219.667
20
-52.4643
11
219.667
21
-51.0543
0
LINE
8
BLACK
6
CONTINUOUS
10
219.667
20
-51.0543
11
216.757
21
-51.0543
0
LINE
8
BLACK
6
CONTINUOUS
10
219.693
20
-49.41
11
219.693
21
-49.41
0
LINE
8
BLACK
6
CONTINUOUS
10
219.693
20
-49.41
11
219.696
21
-49.4104
0
LINE
8
BLACK
6
CONTINUOUS
10
219.696
20
-49.4104
11
219.701
21
-49.4118
0
LINE
8
BLACK
6
CONTINUOUS
10
219.701
20
-49.4118
11
219.705
21
-49.4141
0
LINE
8
BLACK
6
CONTINUOUS
10
219.705
20
-49.4141
11
219.709
21
-49.4172
0
LINE
8
BLACK
6
CONTINUOUS
10
219.709
20
-49.4172
11
219.712
21
-49.421
0
LINE
8
BLACK
6
CONTINUOUS
10
219.712
20
-49.421
11
219.715
21
-49.4254
0
LINE
8
BLACK
6
CONTINUOUS
10
219.715
20
-49.4254
11
219.716
21
-49.4301
0
LINE
8
BLACK
6
CONTINUOUS
10
219.716
20
-49.4301
11
219.717
21
-49.435
0
LINE
8
BLACK
6
CONTINUOUS
10
219.717
20
-49.435
11
219.716
21
-49.4362
0
LINE
8
BLACK
6
CONTINUOUS
10
219.716
20
-49.4362
11
219.716
21
-50.8938
0
LINE
8
BLACK
6
CONTINUOUS
10
219.716
20
-50.8938
11
219.717
21
-50.895
0
LINE
8
BLACK
6
CONTINUOUS
10
219.717
20
-50.895
11
219.716
21
-50.8962
0
LINE
8
BLACK
6
CONTINUOUS
10
219.716
20
-50.8962
11
219.716
21
-50.8962
0
LINE
8
BLACK
6
CONTINUOUS
10
219.716
20
-50.8962
11
219.716
21
-50.8999
0
LINE
8
BLACK
6
CONTINUOUS
10
219.716
20
-50.8999
11
219.715
21
-50.9046
0
LINE
8
BLACK
6
CONTINUOUS
10
219.715
20
-50.9046
11
219.712
21
-50.909
0
LINE
8
BLACK
6
CONTINUOUS
10
219.712
20
-50.909
11
219.709
21
-50.9128
0
LINE
8
BLACK
6
CONTINUOUS
10
219.709
20
-50.9128
11
219.705
21
-50.9159
0
LINE
8
BLACK
6
CONTINUOUS
10
219.705
20
-50.9159
11
219.701
21
-50.9182
0
LINE
8
BLACK
6
CONTINUOUS
10
219.701
20
-50.9182
11
219.696
21
-50.9196
0
LINE
8
BLACK
6
CONTINUOUS
10
219.696
20
-50.9196
11
219.691
21
-50.9201
0
LINE
8
BLACK
6
CONTINUOUS
10
219.691
20
-50.9201
11
219.69
21
-50.92
0
LINE
8
BLACK
6
CONTINUOUS
10
219.69
20
-50.92
11
216.733
21
-50.92
0
LINE
8
BLACK
6
CONTINUOUS
10
216.733
20
-50.92
11
216.731
21
-50.9201
0
LINE
8
BLACK
6
CONTINUOUS
10
216.731
20
-50.9201
11
216.726
21
-50.9196
0
LINE
8
BLACK
6
CONTINUOUS
10
216.726
20
-50.9196
11
216.722
21
-50.9182
0
LINE
8
BLACK
6
CONTINUOUS
10
216.722
20
-50.9182
11
216.717
21
-50.9159
0
LINE
8
BLACK
6
CONTINUOUS
10
216.717
20
-50.9159
11
216.714
21
-50.9128
0
LINE
8
BLACK
6
CONTINUOUS
10
216.714
20
-50.9128
11
216.711
21
-50.909
0
LINE
8
BLACK
6
CONTINUOUS
10
216.711
20
-50.909
11
216.708
21
-50.9046
0
LINE
8
BLACK
6
CONTINUOUS
10
216.708
20
-50.9046
11
216.707
21
-50.8999
0
LINE
8
BLACK
6
CONTINUOUS
10
216.707
20
-50.8999
11
216.706
21
-50.895
0
LINE
8
BLACK
6
CONTINUOUS
10
216.706
20
-50.895
11
216.706
21
-50.8938
0
LINE
8
BLACK
6
CONTINUOUS
10
216.706
20
-50.8938
11
216.706
21
-49.4362
0
LINE
8
BLACK
6
CONTINUOUS
10
216.706
20
-49.4362
11
216.706
21
-49.435
0
LINE
8
BLACK
6
CONTINUOUS
10
216.706
20
-49.435
11
216.707
21
-49.4301
0
LINE
8
BLACK
6
CONTINUOUS
10
216.707
20
-49.4301
11
216.708
21
-49.4254
0
LINE
8
BLACK
6
CONTINUOUS
10
216.708
20
-49.4254
11
216.711
21
-49.421
0
LINE
8
BLACK
6
CONTINUOUS
10
216.711
20
-49.421
11
216.714
21
-49.4172
0
LINE
8
BLACK
6
CONTINUOUS
10
216.714
20
-49.4172
11
216.717
21
-49.4141
0
LINE
8
BLACK
6
CONTINUOUS
10
216.717
20
-49.4141
11
216.722
21
-49.4118
0
LINE
8
BLACK
6
CONTINUOUS
10
216.722
20
-49.4118
11
216.726
21
-49.4104
0
LINE
8
BLACK
6
CONTINUOUS
10
216.726
20
-49.4104
11
216.73
21
-49.41
0
LINE
8
BLACK
6
CONTINUOUS
10
216.73
20
-49.41
11
216.73
21
-49.41
0
LINE
8
BLACK
6
CONTINUOUS
10
216.73
20
-49.41
11
216.731
21
-49.4099
0
LINE
8
BLACK
6
CONTINUOUS
10
216.731
20
-49.4099
11
216.733
21
-49.41
0
LINE
8
BLACK
6
CONTINUOUS
10
216.733
20
-49.41
11
219.69
21
-49.41
0
LINE
8
BLACK
6
CONTINUOUS
10
219.69
20
-49.41
11
219.691
21
-49.4099
0
LINE
8
BLACK
6
CONTINUOUS
10
219.691
20
-49.4099
11
219.693
21
-49.41
0
LINE
8
BLACK
6
CONTINUOUS
10
216.756
20
-49.46
11
216.756
21
-50.87
0
LINE
8
BLACK
6
CONTINUOUS
10
216.756
20
-50.87
11
219.666
21
-50.87
0
LINE
8
BLACK
6
CONTINUOUS
10
219.666
20
-50.87
11
219.666
21
-49.46
0
LINE
8
BLACK
6
CONTINUOUS
10
219.666
20
-49.46
11
216.756
21
-49.46
0
LINE
8
BLACK
6
CONTINUOUS
10
207.866
20
-48.9426
11
207.866
21
-48.9426
0
LINE
8
BLACK
6
CONTINUOUS
10
207.866
20
-48.9426
11
207.87
21
-48.943
0
LINE
8
BLACK
6
CONTINUOUS
10
207.87
20
-48.943
11
207.875
21
-48.9444
0
LINE
8
BLACK
6
CONTINUOUS
10
207.875
20
-48.9444
11
207.879
21
-48.9468
0
LINE
8
BLACK
6
CONTINUOUS
10
207.879
20
-48.9468
11
207.883
21
-48.9499
0
LINE
8
BLACK
6
CONTINUOUS
10
207.883
20
-48.9499
11
207.886
21
-48.9537
0
LINE
8
BLACK
6
CONTINUOUS
10
207.886
20
-48.9537
11
207.888
21
-48.958
0
LINE
8
BLACK
6
CONTINUOUS
10
207.888
20
-48.958
11
207.89
21
-48.9627
0
LINE
8
BLACK
6
CONTINUOUS
10
207.89
20
-48.9627
11
207.89
21
-48.9676
0
LINE
8
BLACK
6
CONTINUOUS
10
207.89
20
-48.9676
11
207.89
21
-48.9689
0
LINE
8
BLACK
6
CONTINUOUS
10
207.89
20
-48.9689
11
207.89
21
-50.4264
0
LINE
8
BLACK
6
CONTINUOUS
10
207.89
20
-50.4264
11
207.89
21
-50.4276
0
LINE
8
BLACK
6
CONTINUOUS
10
207.89
20
-50.4276
11
207.89
21
-50.4289
0
LINE
8
BLACK
6
CONTINUOUS
10
207.89
20
-50.4289
11
207.89
21
-50.4289
0
LINE
8
BLACK
6
CONTINUOUS
10
207.89
20
-50.4289
11
207.89
21
-50.4325
0
LINE
8
BLACK
6
CONTINUOUS
10
207.89
20
-50.4325
11
207.888
21
-50.4373
0
LINE
8
BLACK
6
CONTINUOUS
10
207.888
20
-50.4373
11
207.886
21
-50.4416
0
LINE
8
BLACK
6
CONTINUOUS
10
207.886
20
-50.4416
11
207.883
21
-50.4454
0
LINE
8
BLACK
6
CONTINUOUS
10
207.883
20
-50.4454
11
207.879
21
-50.4485
0
LINE
8
BLACK
6
CONTINUOUS
10
207.879
20
-50.4485
11
207.875
21
-50.4508
0
LINE
8
BLACK
6
CONTINUOUS
10
207.875
20
-50.4508
11
207.87
21
-50.4523
0
LINE
8
BLACK
6
CONTINUOUS
10
207.87
20
-50.4523
11
207.865
21
-50.4528
0
LINE
8
BLACK
6
CONTINUOUS
10
207.865
20
-50.4528
11
207.864
21
-50.4526
0
LINE
8
BLACK
6
CONTINUOUS
10
207.864
20
-50.4526
11
204.906
21
-50.4526
0
LINE
8
BLACK
6
CONTINUOUS
10
204.906
20
-50.4526
11
204.905
21
-50.4528
0
LINE
8
BLACK
6
CONTINUOUS
10
204.905
20
-50.4528
11
204.9
21
-50.4523
0
LINE
8
BLACK
6
CONTINUOUS
10
204.9
20
-50.4523
11
204.896
21
-50.4508
0
LINE
8
BLACK
6
CONTINUOUS
10
204.896
20
-50.4508
11
204.891
21
-50.4485
0
LINE
8
BLACK
6
CONTINUOUS
10
204.891
20
-50.4485
11
204.887
21
-50.4454
0
LINE
8
BLACK
6
CONTINUOUS
10
204.887
20
-50.4454
11
204.884
21
-50.4416
0
LINE
8
BLACK
6
CONTINUOUS
10
204.884
20
-50.4416
11
204.882
21
-50.4373
0
LINE
8
BLACK
6
CONTINUOUS
10
204.882
20
-50.4373
11
204.881
21
-50.4325
0
LINE
8
BLACK
6
CONTINUOUS
10
204.881
20
-50.4325
11
204.88
21
-50.4276
0
LINE
8
BLACK
6
CONTINUOUS
10
204.88
20
-50.4276
11
204.88
21
-50.4264
0
LINE
8
BLACK
6
CONTINUOUS
10
204.88
20
-50.4264
11
204.88
21
-48.9689
0
LINE
8
BLACK
6
CONTINUOUS
10
204.88
20
-48.9689
11
204.88
21
-48.9676
0
LINE
8
BLACK
6
CONTINUOUS
10
204.88
20
-48.9676
11
204.881
21
-48.9627
0
LINE
8
BLACK
6
CONTINUOUS
10
204.881
20
-48.9627
11
204.882
21
-48.958
0
LINE
8
BLACK
6
CONTINUOUS
10
204.882
20
-48.958
11
204.884
21
-48.9537
0
LINE
8
BLACK
6
CONTINUOUS
10
204.884
20
-48.9537
11
204.887
21
-48.9499
0
LINE
8
BLACK
6
CONTINUOUS
10
204.887
20
-48.9499
11
204.891
21
-48.9468
0
LINE
8
BLACK
6
CONTINUOUS
10
204.891
20
-48.9468
11
204.896
21
-48.9444
0
LINE
8
BLACK
6
CONTINUOUS
10
204.896
20
-48.9444
11
204.9
21
-48.943
0
LINE
8
BLACK
6
CONTINUOUS
10
204.9
20
-48.943
11
204.904
21
-48.9426
0
LINE
8
BLACK
6
CONTINUOUS
10
204.904
20
-48.9426
11
204.904
21
-48.9426
0
LINE
8
BLACK
6
CONTINUOUS
10
204.904
20
-48.9426
11
204.905
21
-48.9425
0
LINE
8
BLACK
6
CONTINUOUS
10
204.905
20
-48.9425
11
204.906
21
-48.9426
0
LINE
8
BLACK
6
CONTINUOUS
10
204.906
20
-48.9426
11
207.864
21
-48.9426
0
LINE
8
BLACK
6
CONTINUOUS
10
207.864
20
-48.9426
11
207.865
21
-48.9425
0
LINE
8
BLACK
6
CONTINUOUS
10
207.865
20
-48.9425
11
207.866
21
-48.9426
0
LINE
8
BLACK
6
CONTINUOUS
10
204.93
20
-48.9926
11
204.93
21
-50.4026
0
LINE
8
BLACK
6
CONTINUOUS
10
204.93
20
-50.4026
11
207.84
21
-50.4026
0
LINE
8
BLACK
6
CONTINUOUS
10
207.84
20
-50.4026
11
207.84
21
-48.9926
0
LINE
8
BLACK
6
CONTINUOUS
10
207.84
20
-48.9926
11
204.93
21
-48.9926
0
LINE
8
BLACK
6
CONTINUOUS
10
221.64
20
-47.251
11
221.64
21
-47.251
0
LINE
8
BLACK
6
CONTINUOUS
10
221.64
20
-47.251
11
221.644
21
-47.2514
0
LINE
8
BLACK
6
CONTINUOUS
10
221.644
20
-47.2514
11
221.649
21
-47.2528
0
LINE
8
BLACK
6
CONTINUOUS
10
221.649
20
-47.2528
11
221.653
21
-47.2551
0
LINE
8
BLACK
6
CONTINUOUS
10
221.653
20
-47.2551
11
221.657
21
-47.2582
0
LINE
8
BLACK
6
CONTINUOUS
10
221.657
20
-47.2582
11
221.66
21
-47.262
0
LINE
8
BLACK
6
CONTINUOUS
10
221.66
20
-47.262
11
221.662
21
-47.2664
0
LINE
8
BLACK
6
CONTINUOUS
10
221.662
20
-47.2664
11
221.664
21
-47.2711
0
LINE
8
BLACK
6
CONTINUOUS
10
221.664
20
-47.2711
11
221.664
21
-47.276
0
LINE
8
BLACK
6
CONTINUOUS
10
221.664
20
-47.276
11
221.664
21
-47.2772
0
LINE
8
BLACK
6
CONTINUOUS
10
221.664
20
-47.2772
11
221.664
21
-48.7348
0
LINE
8
BLACK
6
CONTINUOUS
10
221.664
20
-48.7348
11
221.664
21
-48.736
0
LINE
8
BLACK
6
CONTINUOUS
10
221.664
20
-48.736
11
221.664
21
-48.7372
0
LINE
8
BLACK
6
CONTINUOUS
10
221.664
20
-48.7372
11
221.664
21
-48.7372
0
LINE
8
BLACK
6
CONTINUOUS
10
221.664
20
-48.7372
11
221.664
21
-48.7409
0
LINE
8
BLACK
6
CONTINUOUS
10
221.664
20
-48.7409
11
221.662
21
-48.7456
0
LINE
8
BLACK
6
CONTINUOUS
10
221.662
20
-48.7456
11
221.66
21
-48.75
0
LINE
8
BLACK
6
CONTINUOUS
10
221.66
20
-48.75
11
221.657
21
-48.7538
0
LINE
8
BLACK
6
CONTINUOUS
10
221.657
20
-48.7538
11
221.653
21
-48.7569
0
LINE
8
BLACK
6
CONTINUOUS
10
221.653
20
-48.7569
11
221.649
21
-48.7592
0
LINE
8
BLACK
6
CONTINUOUS
10
221.649
20
-48.7592
11
221.644
21
-48.7606
0
LINE
8
BLACK
6
CONTINUOUS
10
221.644
20
-48.7606
11
221.639
21
-48.7611
0
LINE
8
BLACK
6
CONTINUOUS
10
221.639
20
-48.7611
11
221.638
21
-48.761
0
LINE
8
BLACK
6
CONTINUOUS
10
221.638
20
-48.761
11
218.68
21
-48.761
0
LINE
8
BLACK
6
CONTINUOUS
10
218.68
20
-48.761
11
218.679
21
-48.7611
0
LINE
8
BLACK
6
CONTINUOUS
10
218.679
20
-48.7611
11
218.674
21
-48.7606
0
LINE
8
BLACK
6
CONTINUOUS
10
218.674
20
-48.7606
11
218.67
21
-48.7592
0
LINE
8
BLACK
6
CONTINUOUS
10
218.67
20
-48.7592
11
218.665
21
-48.7569
0
LINE
8
BLACK
6
CONTINUOUS
10
218.665
20
-48.7569
11
218.662
21
-48.7538
0
LINE
8
BLACK
6
CONTINUOUS
10
218.662
20
-48.7538
11
218.658
21
-48.75
0
LINE
8
BLACK
6
CONTINUOUS
10
218.658
20
-48.75
11
218.656
21
-48.7456
0
LINE
8
BLACK
6
CONTINUOUS
10
218.656
20
-48.7456
11
218.655
21
-48.7409
0
LINE
8
BLACK
6
CONTINUOUS
10
218.655
20
-48.7409
11
218.654
21
-48.736
0
LINE
8
BLACK
6
CONTINUOUS
10
218.654
20
-48.736
11
218.654
21
-48.7348
0
LINE
8
BLACK
6
CONTINUOUS
10
218.654
20
-48.7348
11
218.654
21
-47.2772
0
LINE
8
BLACK
6
CONTINUOUS
10
218.654
20
-47.2772
11
218.654
21
-47.276
0
LINE
8
BLACK
6
CONTINUOUS
10
218.654
20
-47.276
11
218.655
21
-47.2711
0
LINE
8
BLACK
6
CONTINUOUS
10
218.655
20
-47.2711
11
218.656
21
-47.2664
0
LINE
8
BLACK
6
CONTINUOUS
10
218.656
20
-47.2664
11
218.658
21
-47.262
0
LINE
8
BLACK
6
CONTINUOUS
10
218.658
20
-47.262
11
218.662
21
-47.2582
0
LINE
8
BLACK
6
CONTINUOUS
10
218.662
20
-47.2582
11
218.665
21
-47.2551
0
LINE
8
BLACK
6
CONTINUOUS
10
218.665
20
-47.2551
11
218.67
21
-47.2528
0
LINE
8
BLACK
6
CONTINUOUS
10
218.67
20
-47.2528
11
218.674
21
-47.2514
0
LINE
8
BLACK
6
CONTINUOUS
10
218.674
20
-47.2514
11
218.678
21
-47.251
0
LINE
8
BLACK
6
CONTINUOUS
10
218.678
20
-47.251
11
218.678
21
-47.251
0
LINE
8
BLACK
6
CONTINUOUS
10
218.678
20
-47.251
11
218.679
21
-47.2509
0
LINE
8
BLACK
6
CONTINUOUS
10
218.679
20
-47.2509
11
218.68
21
-47.251
0
LINE
8
BLACK
6
CONTINUOUS
10
218.68
20
-47.251
11
221.638
21
-47.251
0
LINE
8
BLACK
6
CONTINUOUS
10
221.638
20
-47.251
11
221.639
21
-47.2509
0
LINE
8
BLACK
6
CONTINUOUS
10
221.639
20
-47.2509
11
221.64
21
-47.251
0
LINE
8
BLACK
6
CONTINUOUS
10
218.704
20
-47.301
11
218.704
21
-48.711
0
LINE
8
BLACK
6
CONTINUOUS
10
218.704
20
-48.711
11
221.614
21
-48.711
0
LINE
8
BLACK
6
CONTINUOUS
10
221.614
20
-48.711
11
221.614
21
-47.301
0
LINE
8
BLACK
6
CONTINUOUS
10
221.614
20
-47.301
11
218.704
21
-47.301
0
LINE
8
BLACK
6
CONTINUOUS
10
227.147
20
-43.4154
11
227.147
21
-43.4154
0
LINE
8
BLACK
6
CONTINUOUS
10
227.147
20
-43.4154
11
227.151
21
-43.4158
0
LINE
8
BLACK
6
CONTINUOUS
10
227.151
20
-43.4158
11
227.155
21
-43.4172
0
LINE
8
BLACK
6
CONTINUOUS
10
227.155
20
-43.4172
11
227.16
21
-43.4195
0
LINE
8
BLACK
6
CONTINUOUS
10
227.16
20
-43.4195
11
227.163
21
-43.4226
0
LINE
8
BLACK
6
CONTINUOUS
10
227.163
20
-43.4226
11
227.166
21
-43.4264
0
LINE
8
BLACK
6
CONTINUOUS
10
227.166
20
-43.4264
11
227.169
21
-43.4308
0
LINE
8
BLACK
6
CONTINUOUS
10
227.169
20
-43.4308
11
227.17
21
-43.4355
0
LINE
8
BLACK
6
CONTINUOUS
10
227.17
20
-43.4355
11
227.171
21
-43.4404
0
LINE
8
BLACK
6
CONTINUOUS
10
227.171
20
-43.4404
11
227.171
21
-43.4416
0
LINE
8
BLACK
6
CONTINUOUS
10
227.171
20
-43.4416
11
227.171
21
-46.3992
0
LINE
8
BLACK
6
CONTINUOUS
10
227.171
20
-46.3992
11
227.171
21
-46.4004
0
LINE
8
BLACK
6
CONTINUOUS
10
227.171
20
-46.4004
11
227.171
21
-46.4016
0
LINE
8
BLACK
6
CONTINUOUS
10
227.171
20
-46.4016
11
227.171
21
-46.4016
0
LINE
8
BLACK
6
CONTINUOUS
10
227.171
20
-46.4016
11
227.17
21
-46.4053
0
LINE
8
BLACK
6
CONTINUOUS
10
227.17
20
-46.4053
11
227.169
21
-46.41
0
LINE
8
BLACK
6
CONTINUOUS
10
227.169
20
-46.41
11
227.166
21
-46.4144
0
LINE
8
BLACK
6
CONTINUOUS
10
227.166
20
-46.4144
11
227.163
21
-46.4182
0
LINE
8
BLACK
6
CONTINUOUS
10
227.163
20
-46.4182
11
227.16
21
-46.4213
0
LINE
8
BLACK
6
CONTINUOUS
10
227.16
20
-46.4213
11
227.155
21
-46.4236
0
LINE
8
BLACK
6
CONTINUOUS
10
227.155
20
-46.4236
11
227.151
21
-46.425
0
LINE
8
BLACK
6
CONTINUOUS
10
227.151
20
-46.425
11
227.146
21
-46.4255
0
LINE
8
BLACK
6
CONTINUOUS
10
227.146
20
-46.4255
11
227.144
21
-46.4254
0
LINE
8
BLACK
6
CONTINUOUS
10
227.144
20
-46.4254
11
225.687
21
-46.4254
0
LINE
8
BLACK
6
CONTINUOUS
10
225.687
20
-46.4254
11
225.686
21
-46.4255
0
LINE
8
BLACK
6
CONTINUOUS
10
225.686
20
-46.4255
11
225.681
21
-46.425
0
LINE
8
BLACK
6
CONTINUOUS
10
225.681
20
-46.425
11
225.676
21
-46.4236
0
LINE
8
BLACK
6
CONTINUOUS
10
225.676
20
-46.4236
11
225.672
21
-46.4213
0
LINE
8
BLACK
6
CONTINUOUS
10
225.672
20
-46.4213
11
225.668
21
-46.4182
0
LINE
8
BLACK
6
CONTINUOUS
10
225.668
20
-46.4182
11
225.665
21
-46.4144
0
LINE
8
BLACK
6
CONTINUOUS
10
225.665
20
-46.4144
11
225.662
21
-46.41
0
LINE
8
BLACK
6
CONTINUOUS
10
225.662
20
-46.41
11
225.661
21
-46.4053
0
LINE
8
BLACK
6
CONTINUOUS
10
225.661
20
-46.4053
11
225.66
21
-46.4004
0
LINE
8
BLACK
6
CONTINUOUS
10
225.66
20
-46.4004
11
225.661
21
-46.3992
0
LINE
8
BLACK
6
CONTINUOUS
10
225.661
20
-46.3992
11
225.661
21
-43.4416
0
LINE
8
BLACK
6
CONTINUOUS
10
225.661
20
-43.4416
11
225.66
21
-43.4404
0
LINE
8
BLACK
6
CONTINUOUS
10
225.66
20
-43.4404
11
225.661
21
-43.4355
0
LINE
8
BLACK
6
CONTINUOUS
10
225.661
20
-43.4355
11
225.662
21
-43.4308
0
LINE
8
BLACK
6
CONTINUOUS
10
225.662
20
-43.4308
11
225.665
21
-43.4264
0
LINE
8
BLACK
6
CONTINUOUS
10
225.665
20
-43.4264
11
225.668
21
-43.4226
0
LINE
8
BLACK
6
CONTINUOUS
10
225.668
20
-43.4226
11
225.672
21
-43.4195
0
LINE
8
BLACK
6
CONTINUOUS
10
225.672
20
-43.4195
11
225.676
21
-43.4172
0
LINE
8
BLACK
6
CONTINUOUS
10
225.676
20
-43.4172
11
225.681
21
-43.4158
0
LINE
8
BLACK
6
CONTINUOUS
10
225.681
20
-43.4158
11
225.684
21
-43.4154
0
LINE
8
BLACK
6
CONTINUOUS
10
225.684
20
-43.4154
11
225.684
21
-43.4154
0
LINE
8
BLACK
6
CONTINUOUS
10
225.684
20
-43.4154
11
225.686
21
-43.4153
0
LINE
8
BLACK
6
CONTINUOUS
10
225.686
20
-43.4153
11
225.687
21
-43.4154
0
LINE
8
BLACK
6
CONTINUOUS
10
225.687
20
-43.4154
11
227.144
21
-43.4154
0
LINE
8
BLACK
6
CONTINUOUS
10
227.144
20
-43.4154
11
227.146
21
-43.4153
0
LINE
8
BLACK
6
CONTINUOUS
10
227.146
20
-43.4153
11
227.147
21
-43.4154
0
LINE
8
BLACK
6
CONTINUOUS
10
225.711
20
-43.4654
11
225.711
21
-46.3754
0
LINE
8
BLACK
6
CONTINUOUS
10
225.711
20
-46.3754
11
227.121
21
-46.3754
0
LINE
8
BLACK
6
CONTINUOUS
10
227.121
20
-46.3754
11
227.121
21
-43.4654
0
LINE
8
BLACK
6
CONTINUOUS
10
227.121
20
-43.4654
11
225.711
21
-43.4654
0
LINE
8
BLACK
6
CONTINUOUS
10
145.465
20
-206.515
11
145.701
21
-205.946
0
LINE
8
BLACK
6
CONTINUOUS
10
145.701
20
-205.946
11
146.044
21
-205.433
0
LINE
8
BLACK
6
CONTINUOUS
10
146.044
20
-205.433
11
146.48
21
-204.997
0
LINE
8
BLACK
6
CONTINUOUS
10
146.48
20
-204.997
11
146.992
21
-204.655
0
LINE
8
BLACK
6
CONTINUOUS
10
146.992
20
-204.655
11
147.562
21
-204.419
0
LINE
8
BLACK
6
CONTINUOUS
10
147.562
20
-204.419
11
148.167
21
-204.298
0
LINE
8
BLACK
6
CONTINUOUS
10
148.167
20
-204.298
11
148.783
21
-204.298
0
LINE
8
BLACK
6
CONTINUOUS
10
148.783
20
-204.298
11
149.388
21
-204.419
0
LINE
8
BLACK
6
CONTINUOUS
10
149.388
20
-204.419
11
149.957
21
-204.655
0
LINE
8
BLACK
6
CONTINUOUS
10
149.957
20
-204.655
11
150.47
21
-204.997
0
LINE
8
BLACK
6
CONTINUOUS
10
150.47
20
-204.997
11
150.906
21
-205.433
0
LINE
8
BLACK
6
CONTINUOUS
10
150.906
20
-205.433
11
151.248
21
-205.946
0
LINE
8
BLACK
6
CONTINUOUS
10
151.248
20
-205.946
11
151.484
21
-206.515
0
LINE
8
BLACK
6
CONTINUOUS
10
151.484
20
-206.515
11
151.605
21
-207.12
0
LINE
8
BLACK
6
CONTINUOUS
10
151.605
20
-207.12
11
151.605
21
-207.736
0
LINE
8
BLACK
6
CONTINUOUS
10
151.605
20
-207.736
11
151.484
21
-208.341
0
LINE
8
BLACK
6
CONTINUOUS
10
151.484
20
-208.341
11
151.248
21
-208.911
0
LINE
8
BLACK
6
CONTINUOUS
10
151.248
20
-208.911
11
150.906
21
-209.423
0
LINE
8
BLACK
6
CONTINUOUS
10
150.906
20
-209.423
11
150.47
21
-209.859
0
LINE
8
BLACK
6
CONTINUOUS
10
150.47
20
-209.859
11
149.957
21
-210.202
0
LINE
8
BLACK
6
CONTINUOUS
10
149.957
20
-210.202
11
149.388
21
-210.438
0
LINE
8
BLACK
6
CONTINUOUS
10
149.388
20
-210.438
11
148.783
21
-210.558
0
LINE
8
BLACK
6
CONTINUOUS
10
148.783
20
-210.558
11
148.167
21
-210.558
0
LINE
8
BLACK
6
CONTINUOUS
10
148.167
20
-210.558
11
147.562
21
-210.438
0
LINE
8
BLACK
6
CONTINUOUS
10
147.562
20
-210.438
11
146.992
21
-210.202
0
LINE
8
BLACK
6
CONTINUOUS
10
146.992
20
-210.202
11
146.48
21
-209.859
0
LINE
8
BLACK
6
CONTINUOUS
10
146.48
20
-209.859
11
146.044
21
-209.423
0
LINE
8
BLACK
6
CONTINUOUS
10
146.044
20
-209.423
11
145.701
21
-208.911
0
LINE
8
BLACK
6
CONTINUOUS
10
145.701
20
-208.911
11
145.465
21
-208.341
0
LINE
8
BLACK
6
CONTINUOUS
10
145.465
20
-208.341
11
145.345
21
-207.736
0
LINE
8
BLACK
6
CONTINUOUS
10
145.345
20
-207.736
11
145.345
21
-207.12
0
LINE
8
BLACK
6
CONTINUOUS
10
145.345
20
-207.12
11
145.465
21
-206.515
0
LINE
8
BLACK
6
CONTINUOUS
10
145.532
20
-208.321
11
145.763
21
-208.878
0
LINE
8
BLACK
6
CONTINUOUS
10
145.763
20
-208.878
11
146.098
21
-209.379
0
LINE
8
BLACK
6
CONTINUOUS
10
146.098
20
-209.379
11
146.524
21
-209.805
0
LINE
8
BLACK
6
CONTINUOUS
10
146.524
20
-209.805
11
147.025
21
-210.14
0
LINE
8
BLACK
6
CONTINUOUS
10
147.025
20
-210.14
11
147.582
21
-210.371
0
LINE
8
BLACK
6
CONTINUOUS
10
147.582
20
-210.371
11
148.173
21
-210.488
0
LINE
8
BLACK
6
CONTINUOUS
10
148.173
20
-210.488
11
148.776
21
-210.488
0
LINE
8
BLACK
6
CONTINUOUS
10
148.776
20
-210.488
11
149.367
21
-210.371
0
LINE
8
BLACK
6
CONTINUOUS
10
149.367
20
-210.371
11
149.924
21
-210.14
0
LINE
8
BLACK
6
CONTINUOUS
10
149.924
20
-210.14
11
150.426
21
-209.805
0
LINE
8
BLACK
6
CONTINUOUS
10
150.426
20
-209.805
11
150.852
21
-209.379
0
LINE
8
BLACK
6
CONTINUOUS
10
150.852
20
-209.379
11
151.187
21
-208.878
0
LINE
8
BLACK
6
CONTINUOUS
10
151.187
20
-208.878
11
151.417
21
-208.321
0
LINE
8
BLACK
6
CONTINUOUS
10
151.417
20
-208.321
11
151.535
21
-207.73
0
LINE
8
BLACK
6
CONTINUOUS
10
151.535
20
-207.73
11
151.535
21
-207.127
0
LINE
8
BLACK
6
CONTINUOUS
10
151.535
20
-207.127
11
151.417
21
-206.536
0
LINE
8
BLACK
6
CONTINUOUS
10
151.417
20
-206.536
11
151.187
21
-205.979
0
LINE
8
BLACK
6
CONTINUOUS
10
151.187
20
-205.979
11
150.852
21
-205.477
0
LINE
8
BLACK
6
CONTINUOUS
10
150.852
20
-205.477
11
150.426
21
-205.051
0
LINE
8
BLACK
6
CONTINUOUS
10
150.426
20
-205.051
11
149.924
21
-204.716
0
LINE
8
BLACK
6
CONTINUOUS
10
149.924
20
-204.716
11
149.367
21
-204.486
0
LINE
8
BLACK
6
CONTINUOUS
10
149.367
20
-204.486
11
148.776
21
-204.368
0
LINE
8
BLACK
6
CONTINUOUS
10
148.776
20
-204.368
11
148.173
21
-204.368
0
LINE
8
BLACK
6
CONTINUOUS
10
148.173
20
-204.368
11
147.582
21
-204.486
0
LINE
8
BLACK
6
CONTINUOUS
10
147.582
20
-204.486
11
147.025
21
-204.716
0
LINE
8
BLACK
6
CONTINUOUS
10
147.025
20
-204.716
11
146.524
21
-205.051
0
LINE
8
BLACK
6
CONTINUOUS
10
146.524
20
-205.051
11
146.098
21
-205.477
0
LINE
8
BLACK
6
CONTINUOUS
10
146.098
20
-205.477
11
145.763
21
-205.979
0
LINE
8
BLACK
6
CONTINUOUS
10
145.763
20
-205.979
11
145.532
21
-206.536
0
LINE
8
BLACK
6
CONTINUOUS
10
145.532
20
-206.536
11
145.415
21
-207.127
0
LINE
8
BLACK
6
CONTINUOUS
10
145.415
20
-207.127
11
145.415
21
-207.73
0
LINE
8
BLACK
6
CONTINUOUS
10
145.415
20
-207.73
11
145.532
21
-208.321
0
LINE
8
BLACK
6
CONTINUOUS
10
105.487
20
-166.537
11
105.723
21
-165.968
0
LINE
8
BLACK
6
CONTINUOUS
10
105.723
20
-165.968
11
106.066
21
-165.455
0
LINE
8
BLACK
6
CONTINUOUS
10
106.066
20
-165.455
11
106.502
21
-165.019
0
LINE
8
BLACK
6
CONTINUOUS
10
106.502
20
-165.019
11
107.014
21
-164.677
0
LINE
8
BLACK
6
CONTINUOUS
10
107.014
20
-164.677
11
107.584
21
-164.441
0
LINE
8
BLACK
6
CONTINUOUS
10
107.584
20
-164.441
11
108.189
21
-164.321
0
LINE
8
BLACK
6
CONTINUOUS
10
108.189
20
-164.321
11
108.805
21
-164.321
0
LINE
8
BLACK
6
CONTINUOUS
10
108.805
20
-164.321
11
109.41
21
-164.441
0
LINE
8
BLACK
6
CONTINUOUS
10
109.41
20
-164.441
11
109.98
21
-164.677
0
LINE
8
BLACK
6
CONTINUOUS
10
109.98
20
-164.677
11
110.492
21
-165.019
0
LINE
8
BLACK
6
CONTINUOUS
10
110.492
20
-165.019
11
110.928
21
-165.455
0
LINE
8
BLACK
6
CONTINUOUS
10
110.928
20
-165.455
11
111.271
21
-165.968
0
LINE
8
BLACK
6
CONTINUOUS
10
111.271
20
-165.968
11
111.507
21
-166.537
0
LINE
8
BLACK
6
CONTINUOUS
10
111.507
20
-166.537
11
111.627
21
-167.142
0
LINE
8
BLACK
6
CONTINUOUS
10
111.627
20
-167.142
11
111.627
21
-167.759
0
LINE
8
BLACK
6
CONTINUOUS
10
111.627
20
-167.759
11
111.507
21
-168.363
0
LINE
8
BLACK
6
CONTINUOUS
10
111.507
20
-168.363
11
111.271
21
-168.933
0
LINE
8
BLACK
6
CONTINUOUS
10
111.271
20
-168.933
11
110.928
21
-169.446
0
LINE
8
BLACK
6
CONTINUOUS
10
110.928
20
-169.446
11
110.492
21
-169.882
0
LINE
8
BLACK
6
CONTINUOUS
10
110.492
20
-169.882
11
109.98
21
-170.224
0
LINE
8
BLACK
6
CONTINUOUS
10
109.98
20
-170.224
11
109.41
21
-170.46
0
LINE
8
BLACK
6
CONTINUOUS
10
109.41
20
-170.46
11
108.805
21
-170.58
0
LINE
8
BLACK
6
CONTINUOUS
10
108.805
20
-170.58
11
108.189
21
-170.58
0
LINE
8
BLACK
6
CONTINUOUS
10
108.189
20
-170.58
11
107.584
21
-170.46
0
LINE
8
BLACK
6
CONTINUOUS
10
107.584
20
-170.46
11
107.014
21
-170.224
0
LINE
8
BLACK
6
CONTINUOUS
10
107.014
20
-170.224
11
106.502
21
-169.882
0
LINE
8
BLACK
6
CONTINUOUS
10
106.502
20
-169.882
11
106.066
21
-169.446
0
LINE
8
BLACK
6
CONTINUOUS
10
106.066
20
-169.446
11
105.723
21
-168.933
0
LINE
8
BLACK
6
CONTINUOUS
10
105.723
20
-168.933
11
105.487
21
-168.363
0
LINE
8
BLACK
6
CONTINUOUS
10
105.487
20
-168.363
11
105.367
21
-167.759
0
LINE
8
BLACK
6
CONTINUOUS
10
105.367
20
-167.759
11
105.367
21
-167.142
0
LINE
8
BLACK
6
CONTINUOUS
10
105.367
20
-167.142
11
105.487
21
-166.537
0
LINE
8
BLACK
6
CONTINUOUS
10
105.554
20
-168.343
11
105.785
21
-168.9
0
LINE
8
BLACK
6
CONTINUOUS
10
105.785
20
-168.9
11
106.12
21
-169.401
0
LINE
8
BLACK
6
CONTINUOUS
10
106.12
20
-169.401
11
106.546
21
-169.827
0
LINE
8
BLACK
6
CONTINUOUS
10
106.546
20
-169.827
11
107.047
21
-170.162
0
LINE
8
BLACK
6
CONTINUOUS
10
107.047
20
-170.162
11
107.604
21
-170.393
0
LINE
8
BLACK
6
CONTINUOUS
10
107.604
20
-170.393
11
108.196
21
-170.511
0
LINE
8
BLACK
6
CONTINUOUS
10
108.196
20
-170.511
11
108.798
21
-170.511
0
LINE
8
BLACK
6
CONTINUOUS
10
108.798
20
-170.511
11
109.39
21
-170.393
0
LINE
8
BLACK
6
CONTINUOUS
10
109.39
20
-170.393
11
109.947
21
-170.162
0
LINE
8
BLACK
6
CONTINUOUS
10
109.947
20
-170.162
11
110.448
21
-169.827
0
LINE
8
BLACK
6
CONTINUOUS
10
110.448
20
-169.827
11
110.874
21
-169.401
0
LINE
8
BLACK
6
CONTINUOUS
10
110.874
20
-169.401
11
111.209
21
-168.9
0
LINE
8
BLACK
6
CONTINUOUS
10
111.209
20
-168.9
11
111.44
21
-168.343
0
LINE
8
BLACK
6
CONTINUOUS
10
111.44
20
-168.343
11
111.557
21
-167.752
0
LINE
8
BLACK
6
CONTINUOUS
10
111.557
20
-167.752
11
111.557
21
-167.149
0
LINE
8
BLACK
6
CONTINUOUS
10
111.557
20
-167.149
11
111.44
21
-166.558
0
LINE
8
BLACK
6
CONTINUOUS
10
111.44
20
-166.558
11
111.209
21
-166.001
0
LINE
8
BLACK
6
CONTINUOUS
10
111.209
20
-166.001
11
110.874
21
-165.5
0
LINE
8
BLACK
6
CONTINUOUS
10
110.874
20
-165.5
11
110.448
21
-165.073
0
LINE
8
BLACK
6
CONTINUOUS
10
110.448
20
-165.073
11
109.947
21
-164.738
0
LINE
8
BLACK
6
CONTINUOUS
10
109.947
20
-164.738
11
109.39
21
-164.508
0
LINE
8
BLACK
6
CONTINUOUS
10
109.39
20
-164.508
11
108.798
21
-164.39
0
LINE
8
BLACK
6
CONTINUOUS
10
108.798
20
-164.39
11
108.196
21
-164.39
0
LINE
8
BLACK
6
CONTINUOUS
10
108.196
20
-164.39
11
107.604
21
-164.508
0
LINE
8
BLACK
6
CONTINUOUS
10
107.604
20
-164.508
11
107.047
21
-164.738
0
LINE
8
BLACK
6
CONTINUOUS
10
107.047
20
-164.738
11
106.546
21
-165.073
0
LINE
8
BLACK
6
CONTINUOUS
10
106.546
20
-165.073
11
106.12
21
-165.5
0
LINE
8
BLACK
6
CONTINUOUS
10
106.12
20
-165.5
11
105.785
21
-166.001
0
LINE
8
BLACK
6
CONTINUOUS
10
105.785
20
-166.001
11
105.554
21
-166.558
0
LINE
8
BLACK
6
CONTINUOUS
10
105.554
20
-166.558
11
105.437
21
-167.149
0
LINE
8
BLACK
6
CONTINUOUS
10
105.437
20
-167.149
11
105.437
21
-167.752
0
LINE
8
BLACK
6
CONTINUOUS
10
105.437
20
-167.752
11
105.554
21
-168.343
0
LINE
8
BLACK
6
CONTINUOUS
10
282.078
20
-157.202
11
282.314
21
-156.632
0
LINE
8
BLACK
6
CONTINUOUS
10
282.314
20
-156.632
11
282.657
21
-156.12
0
LINE
8
BLACK
6
CONTINUOUS
10
282.657
20
-156.12
11
283.093
21
-155.684
0
LINE
8
BLACK
6
CONTINUOUS
10
283.093
20
-155.684
11
283.605
21
-155.341
0
LINE
8
BLACK
6
CONTINUOUS
10
283.605
20
-155.341
11
284.175
21
-155.105
0
LINE
8
BLACK
6
CONTINUOUS
10
284.175
20
-155.105
11
284.78
21
-154.985
0
LINE
8
BLACK
6
CONTINUOUS
10
284.78
20
-154.985
11
285.396
21
-154.985
0
LINE
8
BLACK
6
CONTINUOUS
10
285.396
20
-154.985
11
286.001
21
-155.105
0
LINE
8
BLACK
6
CONTINUOUS
10
286.001
20
-155.105
11
286.571
21
-155.341
0
LINE
8
BLACK
6
CONTINUOUS
10
286.571
20
-155.341
11
287.083
21
-155.684
0
LINE
8
BLACK
6
CONTINUOUS
10
287.083
20
-155.684
11
287.519
21
-156.12
0
LINE
8
BLACK
6
CONTINUOUS
10
287.519
20
-156.12
11
287.862
21
-156.632
0
LINE
8
BLACK
6
CONTINUOUS
10
287.862
20
-156.632
11
288.098
21
-157.202
0
LINE
8
BLACK
6
CONTINUOUS
10
288.098
20
-157.202
11
288.218
21
-157.807
0
LINE
8
BLACK
6
CONTINUOUS
10
288.218
20
-157.807
11
288.218
21
-158.423
0
LINE
8
BLACK
6
CONTINUOUS
10
288.218
20
-158.423
11
288.098
21
-159.028
0
LINE
8
BLACK
6
CONTINUOUS
10
288.098
20
-159.028
11
287.862
21
-159.598
0
LINE
8
BLACK
6
CONTINUOUS
10
287.862
20
-159.598
11
287.519
21
-160.11
0
LINE
8
BLACK
6
CONTINUOUS
10
287.519
20
-160.11
11
287.083
21
-160.546
0
LINE
8
BLACK
6
CONTINUOUS
10
287.083
20
-160.546
11
286.571
21
-160.889
0
LINE
8
BLACK
6
CONTINUOUS
10
286.571
20
-160.889
11
286.001
21
-161.125
0
LINE
8
BLACK
6
CONTINUOUS
10
286.001
20
-161.125
11
285.396
21
-161.245
0
LINE
8
BLACK
6
CONTINUOUS
10
285.396
20
-161.245
11
284.78
21
-161.245
0
LINE
8
BLACK
6
CONTINUOUS
10
284.78
20
-161.245
11
284.175
21
-161.125
0
LINE
8
BLACK
6
CONTINUOUS
10
284.175
20
-161.125
11
283.605
21
-160.889
0
LINE
8
BLACK
6
CONTINUOUS
10
283.605
20
-160.889
11
283.093
21
-160.546
0
LINE
8
BLACK
6
CONTINUOUS
10
283.093
20
-160.546
11
282.657
21
-160.11
0
LINE
8
BLACK
6
CONTINUOUS
10
282.657
20
-160.11
11
282.314
21
-159.598
0
LINE
8
BLACK
6
CONTINUOUS
10
282.314
20
-159.598
11
282.078
21
-159.028
0
LINE
8
BLACK
6
CONTINUOUS
10
282.078
20
-159.028
11
281.958
21
-158.423
0
LINE
8
BLACK
6
CONTINUOUS
10
281.958
20
-158.423
11
281.958
21
-157.807
0
LINE
8
BLACK
6
CONTINUOUS
10
281.958
20
-157.807
11
282.078
21
-157.202
0
LINE
8
BLACK
6
CONTINUOUS
10
282.145
20
-159.008
11
282.376
21
-159.565
0
LINE
8
BLACK
6
CONTINUOUS
10
282.376
20
-159.565
11
282.711
21
-160.066
0
LINE
8
BLACK
6
CONTINUOUS
10
282.711
20
-160.066
11
283.137
21
-160.492
0
LINE
8
BLACK
6
CONTINUOUS
10
283.137
20
-160.492
11
283.638
21
-160.827
0
LINE
8
BLACK
6
CONTINUOUS
10
283.638
20
-160.827
11
284.195
21
-161.058
0
LINE
8
BLACK
6
CONTINUOUS
10
284.195
20
-161.058
11
284.787
21
-161.175
0
LINE
8
BLACK
6
CONTINUOUS
10
284.787
20
-161.175
11
285.389
21
-161.175
0
LINE
8
BLACK
6
CONTINUOUS
10
285.389
20
-161.175
11
285.981
21
-161.058
0
LINE
8
BLACK
6
CONTINUOUS
10
285.981
20
-161.058
11
286.538
21
-160.827
0
LINE
8
BLACK
6
CONTINUOUS
10
286.538
20
-160.827
11
287.039
21
-160.492
0
LINE
8
BLACK
6
CONTINUOUS
10
287.039
20
-160.492
11
287.465
21
-160.066
0
LINE
8
BLACK
6
CONTINUOUS
10
287.465
20
-160.066
11
287.8
21
-159.565
0
LINE
8
BLACK
6
CONTINUOUS
10
287.8
20
-159.565
11
288.031
21
-159.008
0
LINE
8
BLACK
6
CONTINUOUS
10
288.031
20
-159.008
11
288.148
21
-158.416
0
LINE
8
BLACK
6
CONTINUOUS
10
288.148
20
-158.416
11
288.148
21
-157.814
0
LINE
8
BLACK
6
CONTINUOUS
10
288.148
20
-157.814
11
288.031
21
-157.222
0
LINE
8
BLACK
6
CONTINUOUS
10
288.031
20
-157.222
11
287.8
21
-156.665
0
LINE
8
BLACK
6
CONTINUOUS
10
287.8
20
-156.665
11
287.465
21
-156.164
0
LINE
8
BLACK
6
CONTINUOUS
10
287.465
20
-156.164
11
287.039
21
-155.738
0
LINE
8
BLACK
6
CONTINUOUS
10
287.039
20
-155.738
11
286.538
21
-155.403
0
LINE
8
BLACK
6
CONTINUOUS
10
286.538
20
-155.403
11
285.981
21
-155.172
0
LINE
8
BLACK
6
CONTINUOUS
10
285.981
20
-155.172
11
285.389
21
-155.055
0
LINE
8
BLACK
6
CONTINUOUS
10
285.389
20
-155.055
11
284.787
21
-155.055
0
LINE
8
BLACK
6
CONTINUOUS
10
284.787
20
-155.055
11
284.195
21
-155.172
0
LINE
8
BLACK
6
CONTINUOUS
10
284.195
20
-155.172
11
283.638
21
-155.403
0
LINE
8
BLACK
6
CONTINUOUS
10
283.638
20
-155.403
11
283.137
21
-155.738
0
LINE
8
BLACK
6
CONTINUOUS
10
283.137
20
-155.738
11
282.711
21
-156.164
0
LINE
8
BLACK
6
CONTINUOUS
10
282.711
20
-156.164
11
282.376
21
-156.665
0
LINE
8
BLACK
6
CONTINUOUS
10
282.376
20
-156.665
11
282.145
21
-157.222
0
LINE
8
BLACK
6
CONTINUOUS
10
282.145
20
-157.222
11
282.028
21
-157.814
0
LINE
8
BLACK
6
CONTINUOUS
10
282.028
20
-157.814
11
282.028
21
-158.416
0
LINE
8
BLACK
6
CONTINUOUS
10
282.028
20
-158.416
11
282.145
21
-159.008
0
LINE
8
BLACK
6
CONTINUOUS
10
145.422
20
-145.137
11
145.658
21
-144.567
0
LINE
8
BLACK
6
CONTINUOUS
10
145.658
20
-144.567
11
146
21
-144.055
0
LINE
8
BLACK
6
CONTINUOUS
10
146
20
-144.055
11
146.436
21
-143.619
0
LINE
8
BLACK
6
CONTINUOUS
10
146.436
20
-143.619
11
146.949
21
-143.276
0
LINE
8
BLACK
6
CONTINUOUS
10
146.949
20
-143.276
11
147.518
21
-143.04
0
LINE
8
BLACK
6
CONTINUOUS
10
147.518
20
-143.04
11
148.123
21
-142.92
0
LINE
8
BLACK
6
CONTINUOUS
10
148.123
20
-142.92
11
148.74
21
-142.92
0
LINE
8
BLACK
6
CONTINUOUS
10
148.74
20
-142.92
11
149.344
21
-143.04
0
LINE
8
BLACK
6
CONTINUOUS
10
149.344
20
-143.04
11
149.914
21
-143.276
0
LINE
8
BLACK
6
CONTINUOUS
10
149.914
20
-143.276
11
150.426
21
-143.619
0
LINE
8
BLACK
6
CONTINUOUS
10
150.426
20
-143.619
11
150.862
21
-144.055
0
LINE
8
BLACK
6
CONTINUOUS
10
150.862
20
-144.055
11
151.205
21
-144.567
0
LINE
8
BLACK
6
CONTINUOUS
10
151.205
20
-144.567
11
151.441
21
-145.137
0
LINE
8
BLACK
6
CONTINUOUS
10
151.441
20
-145.137
11
151.561
21
-145.742
0
LINE
8
BLACK
6
CONTINUOUS
10
151.561
20
-145.742
11
151.561
21
-146.358
0
LINE
8
BLACK
6
CONTINUOUS
10
151.561
20
-146.358
11
151.441
21
-146.963
0
LINE
8
BLACK
6
CONTINUOUS
10
151.441
20
-146.963
11
151.205
21
-147.533
0
LINE
8
BLACK
6
CONTINUOUS
10
151.205
20
-147.533
11
150.862
21
-148.045
0
LINE
8
BLACK
6
CONTINUOUS
10
150.862
20
-148.045
11
150.426
21
-148.481
0
LINE
8
BLACK
6
CONTINUOUS
10
150.426
20
-148.481
11
149.914
21
-148.824
0
LINE
8
BLACK
6
CONTINUOUS
10
149.914
20
-148.824
11
149.344
21
-149.06
0
LINE
8
BLACK
6
CONTINUOUS
10
149.344
20
-149.06
11
148.74
21
-149.18
0
LINE
8
BLACK
6
CONTINUOUS
10
148.74
20
-149.18
11
148.123
21
-149.18
0
LINE
8
BLACK
6
CONTINUOUS
10
148.123
20
-149.18
11
147.518
21
-149.06
0
LINE
8
BLACK
6
CONTINUOUS
10
147.518
20
-149.06
11
146.949
21
-148.824
0
LINE
8
BLACK
6
CONTINUOUS
10
146.949
20
-148.824
11
146.436
21
-148.481
0
LINE
8
BLACK
6
CONTINUOUS
10
146.436
20
-148.481
11
146
21
-148.045
0
LINE
8
BLACK
6
CONTINUOUS
10
146
20
-148.045
11
145.658
21
-147.533
0
LINE
8
BLACK
6
CONTINUOUS
10
145.658
20
-147.533
11
145.422
21
-146.963
0
LINE
8
BLACK
6
CONTINUOUS
10
145.422
20
-146.963
11
145.301
21
-146.358
0
LINE
8
BLACK
6
CONTINUOUS
10
145.301
20
-146.358
11
145.301
21
-145.742
0
LINE
8
BLACK
6
CONTINUOUS
10
145.301
20
-145.742
11
145.422
21
-145.137
0
LINE
8
BLACK
6
CONTINUOUS
10
145.489
20
-146.943
11
145.719
21
-147.5
0
LINE
8
BLACK
6
CONTINUOUS
10
145.719
20
-147.5
11
146.054
21
-148.001
0
LINE
8
BLACK
6
CONTINUOUS
10
146.054
20
-148.001
11
146.48
21
-148.427
0
LINE
8
BLACK
6
CONTINUOUS
10
146.48
20
-148.427
11
146.982
21
-148.762
0
LINE
8
BLACK
6
CONTINUOUS
10
146.982
20
-148.762
11
147.539
21
-148.993
0
LINE
8
BLACK
6
CONTINUOUS
10
147.539
20
-148.993
11
148.13
21
-149.11
0
LINE
8
BLACK
6
CONTINUOUS
10
148.13
20
-149.11
11
148.733
21
-149.11
0
LINE
8
BLACK
6
CONTINUOUS
10
148.733
20
-149.11
11
149.324
21
-148.993
0
LINE
8
BLACK
6
CONTINUOUS
10
149.324
20
-148.993
11
149.881
21
-148.762
0
LINE
8
BLACK
6
CONTINUOUS
10
149.881
20
-148.762
11
150.382
21
-148.427
0
LINE
8
BLACK
6
CONTINUOUS
10
150.382
20
-148.427
11
150.808
21
-148.001
0
LINE
8
BLACK
6
CONTINUOUS
10
150.808
20
-148.001
11
151.143
21
-147.5
0
LINE
8
BLACK
6
CONTINUOUS
10
151.143
20
-147.5
11
151.374
21
-146.943
0
LINE
8
BLACK
6
CONTINUOUS
10
151.374
20
-146.943
11
151.491
21
-146.351
0
LINE
8
BLACK
6
CONTINUOUS
10
151.491
20
-146.351
11
151.491
21
-145.749
0
LINE
8
BLACK
6
CONTINUOUS
10
151.491
20
-145.749
11
151.374
21
-145.157
0
LINE
8
BLACK
6
CONTINUOUS
10
151.374
20
-145.157
11
151.143
21
-144.6
0
LINE
8
BLACK
6
CONTINUOUS
10
151.143
20
-144.6
11
150.808
21
-144.099
0
LINE
8
BLACK
6
CONTINUOUS
10
150.808
20
-144.099
11
150.382
21
-143.673
0
LINE
8
BLACK
6
CONTINUOUS
10
150.382
20
-143.673
11
149.881
21
-143.338
0
LINE
8
BLACK
6
CONTINUOUS
10
149.881
20
-143.338
11
149.324
21
-143.107
0
LINE
8
BLACK
6
CONTINUOUS
10
149.324
20
-143.107
11
148.733
21
-142.99
0
LINE
8
BLACK
6
CONTINUOUS
10
148.733
20
-142.99
11
148.13
21
-142.99
0
LINE
8
BLACK
6
CONTINUOUS
10
148.13
20
-142.99
11
147.539
21
-143.107
0
LINE
8
BLACK
6
CONTINUOUS
10
147.539
20
-143.107
11
146.982
21
-143.338
0
LINE
8
BLACK
6
CONTINUOUS
10
146.982
20
-143.338
11
146.48
21
-143.673
0
LINE
8
BLACK
6
CONTINUOUS
10
146.48
20
-143.673
11
146.054
21
-144.099
0
LINE
8
BLACK
6
CONTINUOUS
10
146.054
20
-144.099
11
145.719
21
-144.6
0
LINE
8
BLACK
6
CONTINUOUS
10
145.719
20
-144.6
11
145.489
21
-145.157
0
LINE
8
BLACK
6
CONTINUOUS
10
145.489
20
-145.157
11
145.371
21
-145.749
0
LINE
8
BLACK
6
CONTINUOUS
10
145.371
20
-145.749
11
145.371
21
-146.351
0
LINE
8
BLACK
6
CONTINUOUS
10
145.371
20
-146.351
11
145.489
21
-146.943
0
LINE
8
BLACK
6
CONTINUOUS
10
256.547
20
-119.737
11
256.783
21
-119.167
0
LINE
8
BLACK
6
CONTINUOUS
10
256.783
20
-119.167
11
257.125
21
-118.655
0
LINE
8
BLACK
6
CONTINUOUS
10
257.125
20
-118.655
11
257.561
21
-118.219
0
LINE
8
BLACK
6
CONTINUOUS
10
257.561
20
-118.219
11
258.074
21
-117.876
0
LINE
8
BLACK
6
CONTINUOUS
10
258.074
20
-117.876
11
258.643
21
-117.64
0
LINE
8
BLACK
6
CONTINUOUS
10
258.643
20
-117.64
11
259.248
21
-117.52
0
LINE
8
BLACK
6
CONTINUOUS
10
259.248
20
-117.52
11
259.865
21
-117.52
0
LINE
8
BLACK
6
CONTINUOUS
10
259.865
20
-117.52
11
260.469
21
-117.64
0
LINE
8
BLACK
6
CONTINUOUS
10
260.469
20
-117.64
11
261.039
21
-117.876
0
LINE
8
BLACK
6
CONTINUOUS
10
261.039
20
-117.876
11
261.551
21
-118.219
0
LINE
8
BLACK
6
CONTINUOUS
10
261.551
20
-118.219
11
261.987
21
-118.655
0
LINE
8
BLACK
6
CONTINUOUS
10
261.987
20
-118.655
11
262.33
21
-119.167
0
LINE
8
BLACK
6
CONTINUOUS
10
262.33
20
-119.167
11
262.566
21
-119.737
0
LINE
8
BLACK
6
CONTINUOUS
10
262.566
20
-119.737
11
262.686
21
-120.342
0
LINE
8
BLACK
6
CONTINUOUS
10
262.686
20
-120.342
11
262.686
21
-120.958
0
LINE
8
BLACK
6
CONTINUOUS
10
262.686
20
-120.958
11
262.566
21
-121.563
0
LINE
8
BLACK
6
CONTINUOUS
10
262.566
20
-121.563
11
262.33
21
-122.133
0
LINE
8
BLACK
6
CONTINUOUS
10
262.33
20
-122.133
11
261.987
21
-122.645
0
LINE
8
BLACK
6
CONTINUOUS
10
261.987
20
-122.645
11
261.551
21
-123.081
0
LINE
8
BLACK
6
CONTINUOUS
10
261.551
20
-123.081
11
261.039
21
-123.424
0
LINE
8
BLACK
6
CONTINUOUS
10
261.039
20
-123.424
11
260.469
21
-123.66
0
LINE
8
BLACK
6
CONTINUOUS
10
260.469
20
-123.66
11
259.865
21
-123.78
0
LINE
8
BLACK
6
CONTINUOUS
10
259.865
20
-123.78
11
259.248
21
-123.78
0
LINE
8
BLACK
6
CONTINUOUS
10
259.248
20
-123.78
11
258.643
21
-123.66
0
LINE
8
BLACK
6
CONTINUOUS
10
258.643
20
-123.66
11
258.074
21
-123.424
0
LINE
8
BLACK
6
CONTINUOUS
10
258.074
20
-123.424
11
257.561
21
-123.081
0
LINE
8
BLACK
6
CONTINUOUS
10
257.561
20
-123.081
11
257.125
21
-122.645
0
LINE
8
BLACK
6
CONTINUOUS
10
257.125
20
-122.645
11
256.783
21
-122.133
0
LINE
8
BLACK
6
CONTINUOUS
10
256.783
20
-122.133
11
256.547
21
-121.563
0
LINE
8
BLACK
6
CONTINUOUS
10
256.547
20
-121.563
11
256.426
21
-120.958
0
LINE
8
BLACK
6
CONTINUOUS
10
256.426
20
-120.958
11
256.426
21
-120.342
0
LINE
8
BLACK
6
CONTINUOUS
10
256.426
20
-120.342
11
256.547
21
-119.737
0
LINE
8
BLACK
6
CONTINUOUS
10
256.614
20
-121.543
11
256.844
21
-122.1
0
LINE
8
BLACK
6
CONTINUOUS
10
256.844
20
-122.1
11
257.179
21
-122.601
0
LINE
8
BLACK
6
CONTINUOUS
10
257.179
20
-122.601
11
257.605
21
-123.027
0
LINE
8
BLACK
6
CONTINUOUS
10
257.605
20
-123.027
11
258.107
21
-123.362
0
LINE
8
BLACK
6
CONTINUOUS
10
258.107
20
-123.362
11
258.664
21
-123.593
0
LINE
8
BLACK
6
CONTINUOUS
10
258.664
20
-123.593
11
259.255
21
-123.71
0
LINE
8
BLACK
6
CONTINUOUS
10
259.255
20
-123.71
11
259.858
21
-123.71
0
LINE
8
BLACK
6
CONTINUOUS
10
259.858
20
-123.71
11
260.449
21
-123.593
0
LINE
8
BLACK
6
CONTINUOUS
10
260.449
20
-123.593
11
261.006
21
-123.362
0
LINE
8
BLACK
6
CONTINUOUS
10
261.006
20
-123.362
11
261.507
21
-123.027
0
LINE
8
BLACK
6
CONTINUOUS
10
261.507
20
-123.027
11
261.933
21
-122.601
0
LINE
8
BLACK
6
CONTINUOUS
10
261.933
20
-122.601
11
262.268
21
-122.1
0
LINE
8
BLACK
6
CONTINUOUS
10
262.268
20
-122.1
11
262.499
21
-121.543
0
LINE
8
BLACK
6
CONTINUOUS
10
262.499
20
-121.543
11
262.616
21
-120.951
0
LINE
8
BLACK
6
CONTINUOUS
10
262.616
20
-120.951
11
262.616
21
-120.349
0
LINE
8
BLACK
6
CONTINUOUS
10
262.616
20
-120.349
11
262.499
21
-119.757
0
LINE
8
BLACK
6
CONTINUOUS
10
262.499
20
-119.757
11
262.268
21
-119.2
0
LINE
8
BLACK
6
CONTINUOUS
10
262.268
20
-119.2
11
261.933
21
-118.699
0
LINE
8
BLACK
6
CONTINUOUS
10
261.933
20
-118.699
11
261.507
21
-118.273
0
LINE
8
BLACK
6
CONTINUOUS
10
261.507
20
-118.273
11
261.006
21
-117.938
0
LINE
8
BLACK
6
CONTINUOUS
10
261.006
20
-117.938
11
260.449
21
-117.707
0
LINE
8
BLACK
6
CONTINUOUS
10
260.449
20
-117.707
11
259.858
21
-117.59
0
LINE
8
BLACK
6
CONTINUOUS
10
259.858
20
-117.59
11
259.255
21
-117.59
0
LINE
8
BLACK
6
CONTINUOUS
10
259.255
20
-117.59
11
258.664
21
-117.707
0
LINE
8
BLACK
6
CONTINUOUS
10
258.664
20
-117.707
11
258.107
21
-117.938
0
LINE
8
BLACK
6
CONTINUOUS
10
258.107
20
-117.938
11
257.605
21
-118.273
0
LINE
8
BLACK
6
CONTINUOUS
10
257.605
20
-118.273
11
257.179
21
-118.699
0
LINE
8
BLACK
6
CONTINUOUS
10
257.179
20
-118.699
11
256.844
21
-119.2
0
LINE
8
BLACK
6
CONTINUOUS
10
256.844
20
-119.2
11
256.614
21
-119.757
0
LINE
8
BLACK
6
CONTINUOUS
10
256.614
20
-119.757
11
256.496
21
-120.349
0
LINE
8
BLACK
6
CONTINUOUS
10
256.496
20
-120.349
11
256.496
21
-120.951
0
LINE
8
BLACK
6
CONTINUOUS
10
256.496
20
-120.951
11
256.614
21
-121.543
0
LINE
8
BLACK
6
CONTINUOUS
10
140.659
20
-81.6371
11
140.895
21
-81.0675
0
LINE
8
BLACK
6
CONTINUOUS
10
140.895
20
-81.0675
11
141.238
21
-80.5548
0
LINE
8
BLACK
6
CONTINUOUS
10
141.238
20
-80.5548
11
141.674
21
-80.1189
0
LINE
8
BLACK
6
CONTINUOUS
10
141.674
20
-80.1189
11
142.186
21
-79.7764
0
LINE
8
BLACK
6
CONTINUOUS
10
142.186
20
-79.7764
11
142.756
21
-79.5404
0
LINE
8
BLACK
6
CONTINUOUS
10
142.756
20
-79.5404
11
143.36
21
-79.4201
0
LINE
8
BLACK
6
CONTINUOUS
10
143.36
20
-79.4201
11
143.977
21
-79.4201
0
LINE
8
BLACK
6
CONTINUOUS
10
143.977
20
-79.4201
11
144.582
21
-79.5404
0
LINE
8
BLACK
6
CONTINUOUS
10
144.582
20
-79.5404
11
145.151
21
-79.7764
0
LINE
8
BLACK
6
CONTINUOUS
10
145.151
20
-79.7764
11
145.664
21
-80.1189
0
LINE
8
BLACK
6
CONTINUOUS
10
145.664
20
-80.1189
11
146.1
21
-80.5548
0
LINE
8
BLACK
6
CONTINUOUS
10
146.1
20
-80.5548
11
146.442
21
-81.0675
0
LINE
8
BLACK
6
CONTINUOUS
10
146.442
20
-81.0675
11
146.678
21
-81.6371
0
LINE
8
BLACK
6
CONTINUOUS
10
146.678
20
-81.6371
11
146.799
21
-82.2417
0
LINE
8
BLACK
6
CONTINUOUS
10
146.799
20
-82.2417
11
146.799
21
-82.8583
0
LINE
8
BLACK
6
CONTINUOUS
10
146.799
20
-82.8583
11
146.678
21
-83.4629
0
LINE
8
BLACK
6
CONTINUOUS
10
146.678
20
-83.4629
11
146.442
21
-84.0325
0
LINE
8
BLACK
6
CONTINUOUS
10
146.442
20
-84.0325
11
146.1
21
-84.5452
0
LINE
8
BLACK
6
CONTINUOUS
10
146.1
20
-84.5452
11
145.664
21
-84.9811
0
LINE
8
BLACK
6
CONTINUOUS
10
145.664
20
-84.9811
11
145.151
21
-85.3236
0
LINE
8
BLACK
6
CONTINUOUS
10
145.151
20
-85.3236
11
144.582
21
-85.5596
0
LINE
8
BLACK
6
CONTINUOUS
10
144.582
20
-85.5596
11
143.977
21
-85.6799
0
LINE
8
BLACK
6
CONTINUOUS
10
143.977
20
-85.6799
11
143.36
21
-85.6799
0
LINE
8
BLACK
6
CONTINUOUS
10
143.36
20
-85.6799
11
142.756
21
-85.5596
0
LINE
8
BLACK
6
CONTINUOUS
10
142.756
20
-85.5596
11
142.186
21
-85.3236
0
LINE
8
BLACK
6
CONTINUOUS
10
142.186
20
-85.3236
11
141.674
21
-84.9811
0
LINE
8
BLACK
6
CONTINUOUS
10
141.674
20
-84.9811
11
141.238
21
-84.5452
0
LINE
8
BLACK
6
CONTINUOUS
10
141.238
20
-84.5452
11
140.895
21
-84.0325
0
LINE
8
BLACK
6
CONTINUOUS
10
140.895
20
-84.0325
11
140.659
21
-83.4629
0
LINE
8
BLACK
6
CONTINUOUS
10
140.659
20
-83.4629
11
140.539
21
-82.8583
0
LINE
8
BLACK
6
CONTINUOUS
10
140.539
20
-82.8583
11
140.539
21
-82.2417
0
LINE
8
BLACK
6
CONTINUOUS
10
140.539
20
-82.2417
11
140.659
21
-81.6371
0
LINE
8
BLACK
6
CONTINUOUS
10
140.726
20
-83.4426
11
140.957
21
-83.9995
0
LINE
8
BLACK
6
CONTINUOUS
10
140.957
20
-83.9995
11
141.292
21
-84.5008
0
LINE
8
BLACK
6
CONTINUOUS
10
141.292
20
-84.5008
11
141.718
21
-84.927
0
LINE
8
BLACK
6
CONTINUOUS
10
141.718
20
-84.927
11
142.219
21
-85.2619
0
LINE
8
BLACK
6
CONTINUOUS
10
142.219
20
-85.2619
11
142.776
21
-85.4926
0
LINE
8
BLACK
6
CONTINUOUS
10
142.776
20
-85.4926
11
143.367
21
-85.6102
0
LINE
8
BLACK
6
CONTINUOUS
10
143.367
20
-85.6102
11
143.97
21
-85.6102
0
LINE
8
BLACK
6
CONTINUOUS
10
143.97
20
-85.6102
11
144.561
21
-85.4926
0
LINE
8
BLACK
6
CONTINUOUS
10
144.561
20
-85.4926
11
145.118
21
-85.2619
0
LINE
8
BLACK
6
CONTINUOUS
10
145.118
20
-85.2619
11
145.62
21
-84.927
0
LINE
8
BLACK
6
CONTINUOUS
10
145.62
20
-84.927
11
146.046
21
-84.5008
0
LINE
8
BLACK
6
CONTINUOUS
10
146.046
20
-84.5008
11
146.381
21
-83.9995
0
LINE
8
BLACK
6
CONTINUOUS
10
146.381
20
-83.9995
11
146.611
21
-83.4426
0
LINE
8
BLACK
6
CONTINUOUS
10
146.611
20
-83.4426
11
146.729
21
-82.8514
0
LINE
8
BLACK
6
CONTINUOUS
10
146.729
20
-82.8514
11
146.729
21
-82.2486
0
LINE
8
BLACK
6
CONTINUOUS
10
146.729
20
-82.2486
11
146.611
21
-81.6574
0
LINE
8
BLACK
6
CONTINUOUS
10
146.611
20
-81.6574
11
146.381
21
-81.1005
0
LINE
8
BLACK
6
CONTINUOUS
10
146.381
20
-81.1005
11
146.046
21
-80.5992
0
LINE
8
BLACK
6
CONTINUOUS
10
146.046
20
-80.5992
11
145.62
21
-80.173
0
LINE
8
BLACK
6
CONTINUOUS
10
145.62
20
-80.173
11
145.118
21
-79.8381
0
LINE
8
BLACK
6
CONTINUOUS
10
145.118
20
-79.8381
11
144.561
21
-79.6074
0
LINE
8
BLACK
6
CONTINUOUS
10
144.561
20
-79.6074
11
143.97
21
-79.4898
0
LINE
8
BLACK
6
CONTINUOUS
10
143.97
20
-79.4898
11
143.367
21
-79.4898
0
LINE
8
BLACK
6
CONTINUOUS
10
143.367
20
-79.4898
11
142.776
21
-79.6074
0
LINE
8
BLACK
6
CONTINUOUS
10
142.776
20
-79.6074
11
142.219
21
-79.8381
0
LINE
8
BLACK
6
CONTINUOUS
10
142.219
20
-79.8381
11
141.718
21
-80.173
0
LINE
8
BLACK
6
CONTINUOUS
10
141.718
20
-80.173
11
141.292
21
-80.5992
0
LINE
8
BLACK
6
CONTINUOUS
10
141.292
20
-80.5992
11
140.957
21
-81.1005
0
LINE
8
BLACK
6
CONTINUOUS
10
140.957
20
-81.1005
11
140.726
21
-81.6574
0
LINE
8
BLACK
6
CONTINUOUS
10
140.726
20
-81.6574
11
140.609
21
-82.2486
0
LINE
8
BLACK
6
CONTINUOUS
10
140.609
20
-82.2486
11
140.609
21
-82.8514
0
LINE
8
BLACK
6
CONTINUOUS
10
140.609
20
-82.8514
11
140.726
21
-83.4426
0
LINE
8
BLACK
6
CONTINUOUS
10
256.547
20
-81.6371
11
256.783
21
-81.0675
0
LINE
8
BLACK
6
CONTINUOUS
10
256.783
20
-81.0675
11
257.125
21
-80.5548
0
LINE
8
BLACK
6
CONTINUOUS
10
257.125
20
-80.5548
11
257.561
21
-80.1189
0
LINE
8
BLACK
6
CONTINUOUS
10
257.561
20
-80.1189
11
258.074
21
-79.7764
0
LINE
8
BLACK
6
CONTINUOUS
10
258.074
20
-79.7764
11
258.643
21
-79.5404
0
LINE
8
BLACK
6
CONTINUOUS
10
258.643
20
-79.5404
11
259.248
21
-79.4201
0
LINE
8
BLACK
6
CONTINUOUS
10
259.248
20
-79.4201
11
259.865
21
-79.4201
0
LINE
8
BLACK
6
CONTINUOUS
10
259.865
20
-79.4201
11
260.469
21
-79.5404
0
LINE
8
BLACK
6
CONTINUOUS
10
260.469
20
-79.5404
11
261.039
21
-79.7764
0
LINE
8
BLACK
6
CONTINUOUS
10
261.039
20
-79.7764
11
261.551
21
-80.1189
0
LINE
8
BLACK
6
CONTINUOUS
10
261.551
20
-80.1189
11
261.987
21
-80.5548
0
LINE
8
BLACK
6
CONTINUOUS
10
261.987
20
-80.5548
11
262.33
21
-81.0675
0
LINE
8
BLACK
6
CONTINUOUS
10
262.33
20
-81.0675
11
262.566
21
-81.6371
0
LINE
8
BLACK
6
CONTINUOUS
10
262.566
20
-81.6371
11
262.686
21
-82.2417
0
LINE
8
BLACK
6
CONTINUOUS
10
262.686
20
-82.2417
11
262.686
21
-82.8583
0
LINE
8
BLACK
6
CONTINUOUS
10
262.686
20
-82.8583
11
262.566
21
-83.4629
0
LINE
8
BLACK
6
CONTINUOUS
10
262.566
20
-83.4629
11
262.33
21
-84.0325
0
LINE
8
BLACK
6
CONTINUOUS
10
262.33
20
-84.0325
11
261.987
21
-84.5452
0
LINE
8
BLACK
6
CONTINUOUS
10
261.987
20
-84.5452
11
261.551
21
-84.9811
0
LINE
8
BLACK
6
CONTINUOUS
10
261.551
20
-84.9811
11
261.039
21
-85.3236
0
LINE
8
BLACK
6
CONTINUOUS
10
261.039
20
-85.3236
11
260.469
21
-85.5596
0
LINE
8
BLACK
6
CONTINUOUS
10
260.469
20
-85.5596
11
259.865
21
-85.6799
0
LINE
8
BLACK
6
CONTINUOUS
10
259.865
20
-85.6799
11
259.248
21
-85.6799
0
LINE
8
BLACK
6
CONTINUOUS
10
259.248
20
-85.6799
11
258.643
21
-85.5596
0
LINE
8
BLACK
6
CONTINUOUS
10
258.643
20
-85.5596
11
258.074
21
-85.3236
0
LINE
8
BLACK
6
CONTINUOUS
10
258.074
20
-85.3236
11
257.561
21
-84.9811
0
LINE
8
BLACK
6
CONTINUOUS
10
257.561
20
-84.9811
11
257.125
21
-84.5452
0
LINE
8
BLACK
6
CONTINUOUS
10
257.125
20
-84.5452
11
256.783
21
-84.0325
0
LINE
8
BLACK
6
CONTINUOUS
10
256.783
20
-84.0325
11
256.547
21
-83.4629
0
LINE
8
BLACK
6
CONTINUOUS
10
256.547
20
-83.4629
11
256.426
21
-82.8583
0
LINE
8
BLACK
6
CONTINUOUS
10
256.426
20
-82.8583
11
256.426
21
-82.2417
0
LINE
8
BLACK
6
CONTINUOUS
10
256.426
20
-82.2417
11
256.547
21
-81.6371
0
LINE
8
BLACK
6
CONTINUOUS
10
256.614
20
-83.4426
11
256.844
21
-83.9995
0
LINE
8
BLACK
6
CONTINUOUS
10
256.844
20
-83.9995
11
257.179
21
-84.5008
0
LINE
8
BLACK
6
CONTINUOUS
10
257.179
20
-84.5008
11
257.605
21
-84.927
0
LINE
8
BLACK
6
CONTINUOUS
10
257.605
20
-84.927
11
258.107
21
-85.2619
0
LINE
8
BLACK
6
CONTINUOUS
10
258.107
20
-85.2619
11
258.664
21
-85.4926
0
LINE
8
BLACK
6
CONTINUOUS
10
258.664
20
-85.4926
11
259.255
21
-85.6102
0
LINE
8
BLACK
6
CONTINUOUS
10
259.255
20
-85.6102
11
259.858
21
-85.6102
0
LINE
8
BLACK
6
CONTINUOUS
10
259.858
20
-85.6102
11
260.449
21
-85.4926
0
LINE
8
BLACK
6
CONTINUOUS
10
260.449
20
-85.4926
11
261.006
21
-85.2619
0
LINE
8
BLACK
6
CONTINUOUS
10
261.006
20
-85.2619
11
261.507
21
-84.927
0
LINE
8
BLACK
6
CONTINUOUS
10
261.507
20
-84.927
11
261.933
21
-84.5008
0
LINE
8
BLACK
6
CONTINUOUS
10
261.933
20
-84.5008
11
262.268
21
-83.9995
0
LINE
8
BLACK
6
CONTINUOUS
10
262.268
20
-83.9995
11
262.499
21
-83.4426
0
LINE
8
BLACK
6
CONTINUOUS
10
262.499
20
-83.4426
11
262.616
21
-82.8514
0
LINE
8
BLACK
6
CONTINUOUS
10
262.616
20
-82.8514
11
262.616
21
-82.2486
0
LINE
8
BLACK
6
CONTINUOUS
10
262.616
20
-82.2486
11
262.499
21
-81.6574
0
LINE
8
BLACK
6
CONTINUOUS
10
262.499
20
-81.6574
11
262.268
21
-81.1005
0
LINE
8
BLACK
6
CONTINUOUS
10
262.268
20
-81.1005
11
261.933
21
-80.5992
0
LINE
8
BLACK
6
CONTINUOUS
10
261.933
20
-80.5992
11
261.507
21
-80.173
0
LINE
8
BLACK
6
CONTINUOUS
10
261.507
20
-80.173
11
261.006
21
-79.8381
0
LINE
8
BLACK
6
CONTINUOUS
10
261.006
20
-79.8381
11
260.449
21
-79.6074
0
LINE
8
BLACK
6
CONTINUOUS
10
260.449
20
-79.6074
11
259.858
21
-79.4898
0
LINE
8
BLACK
6
CONTINUOUS
10
259.858
20
-79.4898
11
259.255
21
-79.4898
0
LINE
8
BLACK
6
CONTINUOUS
10
259.255
20
-79.4898
11
258.664
21
-79.6074
0
LINE
8
BLACK
6
CONTINUOUS
10
258.664
20
-79.6074
11
258.107
21
-79.8381
0
LINE
8
BLACK
6
CONTINUOUS
10
258.107
20
-79.8381
11
257.605
21
-80.173
0
LINE
8
BLACK
6
CONTINUOUS
10
257.605
20
-80.173
11
257.179
21
-80.5992
0
LINE
8
BLACK
6
CONTINUOUS
10
257.179
20
-80.5992
11
256.844
21
-81.1005
0
LINE
8
BLACK
6
CONTINUOUS
10
256.844
20
-81.1005
11
256.614
21
-81.6574
0
LINE
8
BLACK
6
CONTINUOUS
10
256.614
20
-81.6574
11
256.496
21
-82.2486
0
LINE
8
BLACK
6
CONTINUOUS
10
256.496
20
-82.2486
11
256.496
21
-82.8514
0
LINE
8
BLACK
6
CONTINUOUS
10
256.496
20
-82.8514
11
256.614
21
-83.4426
0
LINE
8
BLACK
6
CONTINUOUS
10
282.08
20
-40.1097
11
282.316
21
-39.5401
0
LINE
8
BLACK
6
CONTINUOUS
10
282.316
20
-39.5401
11
282.658
21
-39.0274
0
LINE
8
BLACK
6
CONTINUOUS
10
282.658
20
-39.0274
11
283.094
21
-38.5915
0
LINE
8
BLACK
6
CONTINUOUS
10
283.094
20
-38.5915
11
283.607
21
-38.249
0
LINE
8
BLACK
6
CONTINUOUS
10
283.607
20
-38.249
11
284.177
21
-38.013
0
LINE
8
BLACK
6
CONTINUOUS
10
284.177
20
-38.013
11
284.781
21
-37.8928
0
LINE
8
BLACK
6
CONTINUOUS
10
284.781
20
-37.8928
11
285.398
21
-37.8928
0
LINE
8
BLACK
6
CONTINUOUS
10
285.398
20
-37.8928
11
286.003
21
-38.013
0
LINE
8
BLACK
6
CONTINUOUS
10
286.003
20
-38.013
11
286.572
21
-38.249
0
LINE
8
BLACK
6
CONTINUOUS
10
286.572
20
-38.249
11
287.085
21
-38.5915
0
LINE
8
BLACK
6
CONTINUOUS
10
287.085
20
-38.5915
11
287.521
21
-39.0274
0
LINE
8
BLACK
6
CONTINUOUS
10
287.521
20
-39.0274
11
287.863
21
-39.5401
0
LINE
8
BLACK
6
CONTINUOUS
10
287.863
20
-39.5401
11
288.099
21
-40.1097
0
LINE
8
BLACK
6
CONTINUOUS
10
288.099
20
-40.1097
11
288.219
21
-40.7143
0
LINE
8
BLACK
6
CONTINUOUS
10
288.219
20
-40.7143
11
288.219
21
-41.3309
0
LINE
8
BLACK
6
CONTINUOUS
10
288.219
20
-41.3309
11
288.099
21
-41.9356
0
LINE
8
BLACK
6
CONTINUOUS
10
288.099
20
-41.9356
11
287.863
21
-42.5052
0
LINE
8
BLACK
6
CONTINUOUS
10
287.863
20
-42.5052
11
287.521
21
-43.0178
0
LINE
8
BLACK
6
CONTINUOUS
10
287.521
20
-43.0178
11
287.085
21
-43.4537
0
LINE
8
BLACK
6
CONTINUOUS
10
287.085
20
-43.4537
11
286.572
21
-43.7963
0
LINE
8
BLACK
6
CONTINUOUS
10
286.572
20
-43.7963
11
286.003
21
-44.0322
0
LINE
8
BLACK
6
CONTINUOUS
10
286.003
20
-44.0322
11
285.398
21
-44.1525
0
LINE
8
BLACK
6
CONTINUOUS
10
285.398
20
-44.1525
11
284.781
21
-44.1525
0
LINE
8
BLACK
6
CONTINUOUS
10
284.781
20
-44.1525
11
284.177
21
-44.0322
0
LINE
8
BLACK
6
CONTINUOUS
10
284.177
20
-44.0322
11
283.607
21
-43.7963
0
LINE
8
BLACK
6
CONTINUOUS
10
283.607
20
-43.7963
11
283.094
21
-43.4537
0
LINE
8
BLACK
6
CONTINUOUS
10
283.094
20
-43.4537
11
282.658
21
-43.0178
0
LINE
8
BLACK
6
CONTINUOUS
10
282.658
20
-43.0178
11
282.316
21
-42.5052
0
LINE
8
BLACK
6
CONTINUOUS
10
282.316
20
-42.5052
11
282.08
21
-41.9356
0
LINE
8
BLACK
6
CONTINUOUS
10
282.08
20
-41.9356
11
281.96
21
-41.3309
0
LINE
8
BLACK
6
CONTINUOUS
10
281.96
20
-41.3309
11
281.96
21
-40.7143
0
LINE
8
BLACK
6
CONTINUOUS
10
281.96
20
-40.7143
11
282.08
21
-40.1097
0
LINE
8
BLACK
6
CONTINUOUS
10
282.147
20
-41.9152
11
282.378
21
-42.4722
0
LINE
8
BLACK
6
CONTINUOUS
10
282.378
20
-42.4722
11
282.713
21
-42.9734
0
LINE
8
BLACK
6
CONTINUOUS
10
282.713
20
-42.9734
11
283.139
21
-43.3996
0
LINE
8
BLACK
6
CONTINUOUS
10
283.139
20
-43.3996
11
283.64
21
-43.7345
0
LINE
8
BLACK
6
CONTINUOUS
10
283.64
20
-43.7345
11
284.197
21
-43.9652
0
LINE
8
BLACK
6
CONTINUOUS
10
284.197
20
-43.9652
11
284.788
21
-44.0828
0
LINE
8
BLACK
6
CONTINUOUS
10
284.788
20
-44.0828
11
285.391
21
-44.0828
0
LINE
8
BLACK
6
CONTINUOUS
10
285.391
20
-44.0828
11
285.982
21
-43.9652
0
LINE
8
BLACK
6
CONTINUOUS
10
285.982
20
-43.9652
11
286.539
21
-43.7345
0
LINE
8
BLACK
6
CONTINUOUS
10
286.539
20
-43.7345
11
287.04
21
-43.3996
0
LINE
8
BLACK
6
CONTINUOUS
10
287.04
20
-43.3996
11
287.467
21
-42.9734
0
LINE
8
BLACK
6
CONTINUOUS
10
287.467
20
-42.9734
11
287.802
21
-42.4722
0
LINE
8
BLACK
6
CONTINUOUS
10
287.802
20
-42.4722
11
288.032
21
-41.9152
0
LINE
8
BLACK
6
CONTINUOUS
10
288.032
20
-41.9152
11
288.15
21
-41.324
0
LINE
8
BLACK
6
CONTINUOUS
10
288.15
20
-41.324
11
288.15
21
-40.7212
0
LINE
8
BLACK
6
CONTINUOUS
10
288.15
20
-40.7212
11
288.032
21
-40.13
0
LINE
8
BLACK
6
CONTINUOUS
10
288.032
20
-40.13
11
287.802
21
-39.5731
0
LINE
8
BLACK
6
CONTINUOUS
10
287.802
20
-39.5731
11
287.467
21
-39.0719
0
LINE
8
BLACK
6
CONTINUOUS
10
287.467
20
-39.0719
11
287.04
21
-38.6456
0
LINE
8
BLACK
6
CONTINUOUS
10
287.04
20
-38.6456
11
286.539
21
-38.3107
0
LINE
8
BLACK
6
CONTINUOUS
10
286.539
20
-38.3107
11
285.982
21
-38.08
0
LINE
8
BLACK
6
CONTINUOUS
10
285.982
20
-38.08
11
285.391
21
-37.9624
0
LINE
8
BLACK
6
CONTINUOUS
10
285.391
20
-37.9624
11
284.788
21
-37.9624
0
LINE
8
BLACK
6
CONTINUOUS
10
284.788
20
-37.9624
11
284.197
21
-38.08
0
LINE
8
BLACK
6
CONTINUOUS
10
284.197
20
-38.08
11
283.64
21
-38.3107
0
LINE
8
BLACK
6
CONTINUOUS
10
283.64
20
-38.3107
11
283.139
21
-38.6456
0
LINE
8
BLACK
6
CONTINUOUS
10
283.139
20
-38.6456
11
282.713
21
-39.0719
0
LINE
8
BLACK
6
CONTINUOUS
10
282.713
20
-39.0719
11
282.378
21
-39.5731
0
LINE
8
BLACK
6
CONTINUOUS
10
282.378
20
-39.5731
11
282.147
21
-40.13
0
LINE
8
BLACK
6
CONTINUOUS
10
282.147
20
-40.13
11
282.029
21
-40.7212
0
LINE
8
BLACK
6
CONTINUOUS
10
282.029
20
-40.7212
11
282.029
21
-41.324
0
LINE
8
BLACK
6
CONTINUOUS
10
282.029
20
-41.324
11
282.147
21
-41.9152
0
LINE
8
BLACK
6
CONTINUOUS
10
140.526
20
-40.1097
11
140.762
21
-39.5401
0
LINE
8
BLACK
6
CONTINUOUS
10
140.762
20
-39.5401
11
141.104
21
-39.0274
0
LINE
8
BLACK
6
CONTINUOUS
10
141.104
20
-39.0274
11
141.54
21
-38.5915
0
LINE
8
BLACK
6
CONTINUOUS
10
141.54
20
-38.5915
11
142.053
21
-38.249
0
LINE
8
BLACK
6
CONTINUOUS
10
142.053
20
-38.249
11
142.622
21
-38.013
0
LINE
8
BLACK
6
CONTINUOUS
10
142.622
20
-38.013
11
143.227
21
-37.8928
0
LINE
8
BLACK
6
CONTINUOUS
10
143.227
20
-37.8928
11
143.844
21
-37.8928
0
LINE
8
BLACK
6
CONTINUOUS
10
143.844
20
-37.8928
11
144.448
21
-38.013
0
LINE
8
BLACK
6
CONTINUOUS
10
144.448
20
-38.013
11
145.018
21
-38.249
0
LINE
8
BLACK
6
CONTINUOUS
10
145.018
20
-38.249
11
145.531
21
-38.5915
0
LINE
8
BLACK
6
CONTINUOUS
10
145.531
20
-38.5915
11
145.967
21
-39.0274
0
LINE
8
BLACK
6
CONTINUOUS
10
145.967
20
-39.0274
11
146.309
21
-39.5401
0
LINE
8
BLACK
6
CONTINUOUS
10
146.309
20
-39.5401
11
146.545
21
-40.1097
0
LINE
8
BLACK
6
CONTINUOUS
10
146.545
20
-40.1097
11
146.665
21
-40.7143
0
LINE
8
BLACK
6
CONTINUOUS
10
146.665
20
-40.7143
11
146.665
21
-41.3309
0
LINE
8
BLACK
6
CONTINUOUS
10
146.665
20
-41.3309
11
146.545
21
-41.9356
0
LINE
8
BLACK
6
CONTINUOUS
10
146.545
20
-41.9356
11
146.309
21
-42.5052
0
LINE
8
BLACK
6
CONTINUOUS
10
146.309
20
-42.5052
11
145.967
21
-43.0178
0
LINE
8
BLACK
6
CONTINUOUS
10
145.967
20
-43.0178
11
145.531
21
-43.4537
0
LINE
8
BLACK
6
CONTINUOUS
10
145.531
20
-43.4537
11
145.018
21
-43.7963
0
LINE
8
BLACK
6
CONTINUOUS
10
145.018
20
-43.7963
11
144.448
21
-44.0322
0
LINE
8
BLACK
6
CONTINUOUS
10
144.448
20
-44.0322
11
143.844
21
-44.1525
0
LINE
8
BLACK
6
CONTINUOUS
10
143.844
20
-44.1525
11
143.227
21
-44.1525
0
LINE
8
BLACK
6
CONTINUOUS
10
143.227
20
-44.1525
11
142.622
21
-44.0322
0
LINE
8
BLACK
6
CONTINUOUS
10
142.622
20
-44.0322
11
142.053
21
-43.7963
0
LINE
8
BLACK
6
CONTINUOUS
10
142.053
20
-43.7963
11
141.54
21
-43.4537
0
LINE
8
BLACK
6
CONTINUOUS
10
141.54
20
-43.4537
11
141.104
21
-43.0178
0
LINE
8
BLACK
6
CONTINUOUS
10
141.104
20
-43.0178
11
140.762
21
-42.5052
0
LINE
8
BLACK
6
CONTINUOUS
10
140.762
20
-42.5052
11
140.526
21
-41.9356
0
LINE
8
BLACK
6
CONTINUOUS
10
140.526
20
-41.9356
11
140.406
21
-41.3309
0
LINE
8
BLACK
6
CONTINUOUS
10
140.406
20
-41.3309
11
140.406
21
-40.7143
0
LINE
8
BLACK
6
CONTINUOUS
10
140.406
20
-40.7143
11
140.526
21
-40.1097
0
LINE
8
BLACK
6
CONTINUOUS
10
140.593
20
-41.9152
11
140.823
21
-42.4722
0
LINE
8
BLACK
6
CONTINUOUS
10
140.823
20
-42.4722
11
141.158
21
-42.9734
0
LINE
8
BLACK
6
CONTINUOUS
10
141.158
20
-42.9734
11
141.585
21
-43.3996
0
LINE
8
BLACK
6
CONTINUOUS
10
141.585
20
-43.3996
11
142.086
21
-43.7345
0
LINE
8
BLACK
6
CONTINUOUS
10
142.086
20
-43.7345
11
142.643
21
-43.9652
0
LINE
8
BLACK
6
CONTINUOUS
10
142.643
20
-43.9652
11
143.234
21
-44.0828
0
LINE
8
BLACK
6
CONTINUOUS
10
143.234
20
-44.0828
11
143.837
21
-44.0828
0
LINE
8
BLACK
6
CONTINUOUS
10
143.837
20
-44.0828
11
144.428
21
-43.9652
0
LINE
8
BLACK
6
CONTINUOUS
10
144.428
20
-43.9652
11
144.985
21
-43.7345
0
LINE
8
BLACK
6
CONTINUOUS
10
144.985
20
-43.7345
11
145.486
21
-43.3996
0
LINE
8
BLACK
6
CONTINUOUS
10
145.486
20
-43.3996
11
145.912
21
-42.9734
0
LINE
8
BLACK
6
CONTINUOUS
10
145.912
20
-42.9734
11
146.247
21
-42.4722
0
LINE
8
BLACK
6
CONTINUOUS
10
146.247
20
-42.4722
11
146.478
21
-41.9152
0
LINE
8
BLACK
6
CONTINUOUS
10
146.478
20
-41.9152
11
146.596
21
-41.324
0
LINE
8
BLACK
6
CONTINUOUS
10
146.596
20
-41.324
11
146.596
21
-40.7212
0
LINE
8
BLACK
6
CONTINUOUS
10
146.596
20
-40.7212
11
146.478
21
-40.13
0
LINE
8
BLACK
6
CONTINUOUS
10
146.478
20
-40.13
11
146.247
21
-39.5731
0
LINE
8
BLACK
6
CONTINUOUS
10
146.247
20
-39.5731
11
145.912
21
-39.0719
0
LINE
8
BLACK
6
CONTINUOUS
10
145.912
20
-39.0719
11
145.486
21
-38.6456
0
LINE
8
BLACK
6
CONTINUOUS
10
145.486
20
-38.6456
11
144.985
21
-38.3107
0
LINE
8
BLACK
6
CONTINUOUS
10
144.985
20
-38.3107
11
144.428
21
-38.08
0
LINE
8
BLACK
6
CONTINUOUS
10
144.428
20
-38.08
11
143.837
21
-37.9624
0
LINE
8
BLACK
6
CONTINUOUS
10
143.837
20
-37.9624
11
143.234
21
-37.9624
0
LINE
8
BLACK
6
CONTINUOUS
10
143.234
20
-37.9624
11
142.643
21
-38.08
0
LINE
8
BLACK
6
CONTINUOUS
10
142.643
20
-38.08
11
142.086
21
-38.3107
0
LINE
8
BLACK
6
CONTINUOUS
10
142.086
20
-38.3107
11
141.585
21
-38.6456
0
LINE
8
BLACK
6
CONTINUOUS
10
141.585
20
-38.6456
11
141.158
21
-39.0719
0
LINE
8
BLACK
6
CONTINUOUS
10
141.158
20
-39.0719
11
140.823
21
-39.5731
0
LINE
8
BLACK
6
CONTINUOUS
10
140.823
20
-39.5731
11
140.593
21
-40.13
0
LINE
8
BLACK
6
CONTINUOUS
10
140.593
20
-40.13
11
140.475
21
-40.7212
0
LINE
8
BLACK
6
CONTINUOUS
10
140.475
20
-40.7212
11
140.475
21
-41.324
0
LINE
8
BLACK
6
CONTINUOUS
10
140.475
20
-41.324
11
140.593
21
-41.9152
0
LINE
8
BLACK
6
CONTINUOUS
10
191.326
20
-40.0827
11
191.562
21
-39.5131
0
LINE
8
BLACK
6
CONTINUOUS
10
191.562
20
-39.5131
11
191.904
21
-39.0004
0
LINE
8
BLACK
6
CONTINUOUS
10
191.904
20
-39.0004
11
192.34
21
-38.5645
0
LINE
8
BLACK
6
CONTINUOUS
10
192.34
20
-38.5645
11
192.853
21
-38.222
0
LINE
8
BLACK
6
CONTINUOUS
10
192.853
20
-38.222
11
193.422
21
-37.986
0
LINE
8
BLACK
6
CONTINUOUS
10
193.422
20
-37.986
11
194.027
21
-37.8657
0
LINE
8
BLACK
6
CONTINUOUS
10
194.027
20
-37.8657
11
194.644
21
-37.8657
0
LINE
8
BLACK
6
CONTINUOUS
10
194.644
20
-37.8657
11
195.248
21
-37.986
0
LINE
8
BLACK
6
CONTINUOUS
10
195.248
20
-37.986
11
195.818
21
-38.222
0
LINE
8
BLACK
6
CONTINUOUS
10
195.818
20
-38.222
11
196.331
21
-38.5645
0
LINE
8
BLACK
6
CONTINUOUS
10
196.331
20
-38.5645
11
196.767
21
-39.0004
0
LINE
8
BLACK
6
CONTINUOUS
10
196.767
20
-39.0004
11
197.109
21
-39.5131
0
LINE
8
BLACK
6
CONTINUOUS
10
197.109
20
-39.5131
11
197.345
21
-40.0827
0
LINE
8
BLACK
6
CONTINUOUS
10
197.345
20
-40.0827
11
197.465
21
-40.6873
0
LINE
8
BLACK
6
CONTINUOUS
10
197.465
20
-40.6873
11
197.465
21
-41.3039
0
LINE
8
BLACK
6
CONTINUOUS
10
197.465
20
-41.3039
11
197.345
21
-41.9085
0
LINE
8
BLACK
6
CONTINUOUS
10
197.345
20
-41.9085
11
197.109
21
-42.4781
0
LINE
8
BLACK
6
CONTINUOUS
10
197.109
20
-42.4781
11
196.767
21
-42.9908
0
LINE
8
BLACK
6
CONTINUOUS
10
196.767
20
-42.9908
11
196.331
21
-43.4267
0
LINE
8
BLACK
6
CONTINUOUS
10
196.331
20
-43.4267
11
195.818
21
-43.7692
0
LINE
8
BLACK
6
CONTINUOUS
10
195.818
20
-43.7692
11
195.248
21
-44.0052
0
LINE
8
BLACK
6
CONTINUOUS
10
195.248
20
-44.0052
11
194.644
21
-44.1255
0
LINE
8
BLACK
6
CONTINUOUS
10
194.644
20
-44.1255
11
194.027
21
-44.1255
0
LINE
8
BLACK
6
CONTINUOUS
10
194.027
20
-44.1255
11
193.422
21
-44.0052
0
LINE
8
BLACK
6
CONTINUOUS
10
193.422
20
-44.0052
11
192.853
21
-43.7692
0
LINE
8
BLACK
6
CONTINUOUS
10
192.853
20
-43.7692
11
192.34
21
-43.4267
0
LINE
8
BLACK
6
CONTINUOUS
10
192.34
20
-43.4267
11
191.904
21
-42.9908
0
LINE
8
BLACK
6
CONTINUOUS
10
191.904
20
-42.9908
11
191.562
21
-42.4781
0
LINE
8
BLACK
6
CONTINUOUS
10
191.562
20
-42.4781
11
191.326
21
-41.9085
0
LINE
8
BLACK
6
CONTINUOUS
10
191.326
20
-41.9085
11
191.206
21
-41.3039
0
LINE
8
BLACK
6
CONTINUOUS
10
191.206
20
-41.3039
11
191.206
21
-40.6873
0
LINE
8
BLACK
6
CONTINUOUS
10
191.206
20
-40.6873
11
191.326
21
-40.0827
0
LINE
8
BLACK
6
CONTINUOUS
10
191.393
20
-41.8882
11
191.623
21
-42.4451
0
LINE
8
BLACK
6
CONTINUOUS
10
191.623
20
-42.4451
11
191.958
21
-42.9464
0
LINE
8
BLACK
6
CONTINUOUS
10
191.958
20
-42.9464
11
192.385
21
-43.3726
0
LINE
8
BLACK
6
CONTINUOUS
10
192.385
20
-43.3726
11
192.886
21
-43.7075
0
LINE
8
BLACK
6
CONTINUOUS
10
192.886
20
-43.7075
11
193.443
21
-43.9382
0
LINE
8
BLACK
6
CONTINUOUS
10
193.443
20
-43.9382
11
194.034
21
-44.0558
0
LINE
8
BLACK
6
CONTINUOUS
10
194.034
20
-44.0558
11
194.637
21
-44.0558
0
LINE
8
BLACK
6
CONTINUOUS
10
194.637
20
-44.0558
11
195.228
21
-43.9382
0
LINE
8
BLACK
6
CONTINUOUS
10
195.228
20
-43.9382
11
195.785
21
-43.7075
0
LINE
8
BLACK
6
CONTINUOUS
10
195.785
20
-43.7075
11
196.286
21
-43.3726
0
LINE
8
BLACK
6
CONTINUOUS
10
196.286
20
-43.3726
11
196.712
21
-42.9464
0
LINE
8
BLACK
6
CONTINUOUS
10
196.712
20
-42.9464
11
197.047
21
-42.4451
0
LINE
8
BLACK
6
CONTINUOUS
10
197.047
20
-42.4451
11
197.278
21
-41.8882
0
LINE
8
BLACK
6
CONTINUOUS
10
197.278
20
-41.8882
11
197.396
21
-41.297
0
LINE
8
BLACK
6
CONTINUOUS
10
197.396
20
-41.297
11
197.396
21
-40.6942
0
LINE
8
BLACK
6
CONTINUOUS
10
197.396
20
-40.6942
11
197.278
21
-40.103
0
LINE
8
BLACK
6
CONTINUOUS
10
197.278
20
-40.103
11
197.047
21
-39.5461
0
LINE
8
BLACK
6
CONTINUOUS
10
197.047
20
-39.5461
11
196.712
21
-39.0448
0
LINE
8
BLACK
6
CONTINUOUS
10
196.712
20
-39.0448
11
196.286
21
-38.6186
0
LINE
8
BLACK
6
CONTINUOUS
10
196.286
20
-38.6186
11
195.785
21
-38.2837
0
LINE
8
BLACK
6
CONTINUOUS
10
195.785
20
-38.2837
11
195.228
21
-38.053
0
LINE
8
BLACK
6
CONTINUOUS
10
195.228
20
-38.053
11
194.637
21
-37.9354
0
LINE
8
BLACK
6
CONTINUOUS
10
194.637
20
-37.9354
11
194.034
21
-37.9354
0
LINE
8
BLACK
6
CONTINUOUS
10
194.034
20
-37.9354
11
193.443
21
-38.053
0
LINE
8
BLACK
6
CONTINUOUS
10
193.443
20
-38.053
11
192.886
21
-38.2837
0
LINE
8
BLACK
6
CONTINUOUS
10
192.886
20
-38.2837
11
192.385
21
-38.6186
0
LINE
8
BLACK
6
CONTINUOUS
10
192.385
20
-38.6186
11
191.958
21
-39.0448
0
LINE
8
BLACK
6
CONTINUOUS
10
191.958
20
-39.0448
11
191.623
21
-39.5461
0
LINE
8
BLACK
6
CONTINUOUS
10
191.623
20
-39.5461
11
191.393
21
-40.103
0
LINE
8
BLACK
6
CONTINUOUS
10
191.393
20
-40.103
11
191.275
21
-40.6942
0
LINE
8
BLACK
6
CONTINUOUS
10
191.275
20
-40.6942
11
191.275
21
-41.297
0
LINE
8
BLACK
6
CONTINUOUS
10
191.275
20
-41.297
11
191.393
21
-41.8882
  0
ENDSEC
  0
EOF
