  0
SECTION
  2
HEADER
  9
$ANGBASE
  50
0.0
  9
$ANGDIR
  70
1
  9
$MEASUREMENT
  70
1
  0
ENDSEC
  0
SECTION
  2
TABLES
  0
TABLE
  2
LTYPE
  70
4
  0
LTYPE
  5
40F
  2
CONTINUOUS
  70
0
  3
Solid line
  72
65
  73
0
  40
0.0
  0
LTYPE
  5
410
  2
DASHDOT
 70
0
  3
Dash Dot ____ _ ____ _
 72
65
 73
4
 40
2.0
 49
1.25
 49
-0.25
 49
0.25
 49
-0.25
  0
LTYPE
  5
411
  2
DASHED
 70
0
  3
Dashed __ __ __ __ __
 72
65
 73
2
 40
0.75
 49
0.5
 49
-0.25
  0
LTYPE
  5
43B
  2
DOTTED
 70
0
  3
Dotted .  .  .  .
 72
65
 73
2
 40
0.2
 49
0.0
 49
-0.2
  0
ENDTAB
  0
TABLE
  2
STYLE
  70
4
  0
STYLE
  2
KICAD
  70
0
  40
0
  41
1
  42
1
  50
0
  71
0
  3
isocp.shx
  0
STYLE
  2
KICADB
  70
0
  40
0
  41
1
  42
1
  50
0
  71
0
  3
isocp.shx
  0
STYLE
  2
KICADI
  70
0
  40
0
  41
1
  42
1
  50
15
  71
0
  3
isocp.shx
  0
STYLE
  2
KICADBI
  70
0
  40
0
  41
1
  42
1
  50
15
  71
0
  3
isocp.shx
  0
ENDTAB
  0
TABLE
  2
LAYER
  70
1
  0
LAYER
  2
BLACK
  70
0
  62
7
  6
CONTINUOUS
  0
ENDTAB
  0
ENDSEC
  0
SECTION
  2
ENTITIES
0
LINE
8
BLACK
6
CONTINUOUS
10
140.335
20
-129.819
11
140.333
21
-41.0226
0
LINE
8
BLACK
6
CONTINUOUS
10
106.248
20
-165.202
11
139.399
21
-132.08
0
LINE
8
BLACK
6
CONTINUOUS
10
146.226
20
-209.677
11
106.248
21
-169.699
0
LINE
8
BLACK
6
CONTINUOUS
10
198.168
20
-162.227
11
150.724
21
-209.677
0
LINE
8
BLACK
6
CONTINUOUS
10
285.088
20
-161.317
11
200.431
21
-161.29
0
LINE
8
BLACK
6
CONTINUOUS
10
288.292
20
-41.0226
11
288.29
21
-158.115
0
LINE
8
BLACK
6
CONTINUOUS
10
143.535
20
-37.8206
11
285.09
21
-37.8206
0
ARC
8
BLACK
10
108.497
20
-167.45
40
3.18028
50
135
51
225
0
ARC
8
BLACK
10
148.475
20
-207.428
40
3.18028
50
-135
51
-45
0
ARC
8
BLACK
10
143.535
20
-41.0226
40
3.20201
50
90
51
180
0
ARC
8
BLACK
10
285.09
20
-41.0226
40
3.20201
50
-0
51
90
0
ARC
8
BLACK
10
200.431
20
-164.49
40
3.2005
50
90
51
135
0
ARC
8
BLACK
10
137.138
20
-129.819
40
3.19697
50
-45
51
-0
0
ARC
8
BLACK
10
285.088
20
-158.115
40
3.20201
50
-90
51
-0
0
LINE
8
BLACK
6
CONTINUOUS
10
112.896
20
-164.773
11
113.296
21
-165.173
0
LINE
8
BLACK
6
CONTINUOUS
10
113.296
20
-164.773
11
112.896
21
-165.173
0
LINE
8
BLACK
6
CONTINUOUS
10
114.166
20
-166.297
11
114.566
21
-166.697
0
LINE
8
BLACK
6
CONTINUOUS
10
114.566
20
-166.297
11
114.166
21
-166.697
0
LINE
8
BLACK
6
CONTINUOUS
10
114.595
20
-172.063
11
114.995
21
-172.463
0
LINE
8
BLACK
6
CONTINUOUS
10
114.995
20
-172.063
11
114.595
21
-172.463
0
LINE
8
BLACK
6
CONTINUOUS
10
118.983
20
-161.342
11
119.383
21
-161.742
0
LINE
8
BLACK
6
CONTINUOUS
10
119.383
20
-161.342
11
118.983
21
-161.742
0
LINE
8
BLACK
6
CONTINUOUS
10
120.653
20
-164.113
11
121.053
21
-164.513
0
LINE
8
BLACK
6
CONTINUOUS
10
121.053
20
-164.113
11
120.653
21
-164.513
0
LINE
8
BLACK
6
CONTINUOUS
10
121.136
20
-161.319
11
121.536
21
-161.719
0
LINE
8
BLACK
6
CONTINUOUS
10
121.536
20
-161.319
11
121.136
21
-161.719
0
LINE
8
BLACK
6
CONTINUOUS
10
124.184
20
-155.644
11
124.584
21
-156.044
0
LINE
8
BLACK
6
CONTINUOUS
10
124.584
20
-155.644
11
124.184
21
-156.044
0
LINE
8
BLACK
6
CONTINUOUS
10
124.646
20
-170.097
11
125.046
21
-170.497
0
LINE
8
BLACK
6
CONTINUOUS
10
125.046
20
-170.097
11
124.646
21
-170.497
0
LINE
8
BLACK
6
CONTINUOUS
10
126.363
20
-151.204
11
126.763
21
-151.604
0
LINE
8
BLACK
6
CONTINUOUS
10
126.763
20
-151.204
11
126.363
21
-151.604
0
LINE
8
BLACK
6
CONTINUOUS
10
126.444
20
-178.057
11
126.844
21
-178.457
0
LINE
8
BLACK
6
CONTINUOUS
10
126.844
20
-178.057
11
126.444
21
-178.457
0
LINE
8
BLACK
6
CONTINUOUS
10
127.638
20
-179.683
11
128.038
21
-180.083
0
LINE
8
BLACK
6
CONTINUOUS
10
128.038
20
-179.683
11
127.638
21
-180.083
0
LINE
8
BLACK
6
CONTINUOUS
10
127.643
20
-152.749
11
128.043
21
-153.149
0
LINE
8
BLACK
6
CONTINUOUS
10
128.043
20
-152.749
11
127.643
21
-153.149
0
LINE
8
BLACK
6
CONTINUOUS
10
131.689
20
-163.566
11
132.089
21
-163.966
0
LINE
8
BLACK
6
CONTINUOUS
10
132.089
20
-163.566
11
131.689
21
-163.966
0
LINE
8
BLACK
6
CONTINUOUS
10
132.261
20
-167.587
11
132.661
21
-167.987
0
LINE
8
BLACK
6
CONTINUOUS
10
132.661
20
-167.587
11
132.261
21
-167.987
0
LINE
8
BLACK
6
CONTINUOUS
10
132.471
20
-147.848
11
132.871
21
-148.248
0
LINE
8
BLACK
6
CONTINUOUS
10
132.871
20
-147.848
11
132.471
21
-148.248
0
LINE
8
BLACK
6
CONTINUOUS
10
132.471
20
-174.835
11
132.871
21
-175.235
0
LINE
8
BLACK
6
CONTINUOUS
10
132.871
20
-174.835
11
132.471
21
-175.235
0
LINE
8
BLACK
6
CONTINUOUS
10
132.617
20
-186.02
11
133.017
21
-186.42
0
LINE
8
BLACK
6
CONTINUOUS
10
133.017
20
-186.02
11
132.617
21
-186.42
0
LINE
8
BLACK
6
CONTINUOUS
10
139.287
20
-174.796
11
139.687
21
-175.196
0
LINE
8
BLACK
6
CONTINUOUS
10
139.687
20
-174.796
11
139.287
21
-175.196
0
LINE
8
BLACK
6
CONTINUOUS
10
143.427
20
-155.353
11
143.827
21
-155.753
0
LINE
8
BLACK
6
CONTINUOUS
10
143.827
20
-155.353
11
143.427
21
-155.753
0
LINE
8
BLACK
6
CONTINUOUS
10
143.992
20
-124.222
11
144.392
21
-124.622
0
LINE
8
BLACK
6
CONTINUOUS
10
144.392
20
-124.222
11
143.992
21
-124.622
0
LINE
8
BLACK
6
CONTINUOUS
10
144.059
20
-95.5453
11
144.459
21
-95.9453
0
LINE
8
BLACK
6
CONTINUOUS
10
144.459
20
-95.5453
11
144.059
21
-95.9453
0
LINE
8
BLACK
6
CONTINUOUS
10
144.136
20
-71.3645
11
144.535
21
-71.7645
0
LINE
8
BLACK
6
CONTINUOUS
10
144.535
20
-71.3645
11
144.136
21
-71.7645
0
LINE
8
BLACK
6
CONTINUOUS
10
145.913
20
-199.749
11
146.314
21
-200.149
0
LINE
8
BLACK
6
CONTINUOUS
10
146.314
20
-199.749
11
145.913
21
-200.149
0
LINE
8
BLACK
6
CONTINUOUS
10
146.058
20
-121.288
11
146.458
21
-121.688
0
LINE
8
BLACK
6
CONTINUOUS
10
146.458
20
-121.288
11
146.058
21
-121.688
0
LINE
8
BLACK
6
CONTINUOUS
10
147.31
20
-68.2276
11
147.71
21
-68.6276
0
LINE
8
BLACK
6
CONTINUOUS
10
147.71
20
-68.2276
11
147.31
21
-68.6276
0
LINE
8
BLACK
6
CONTINUOUS
10
147.577
20
-191.113
11
147.977
21
-191.513
0
LINE
8
BLACK
6
CONTINUOUS
10
147.977
20
-191.113
11
147.577
21
-191.513
0
LINE
8
BLACK
6
CONTINUOUS
10
147.592
20
-183
11
147.992
21
-183.4
0
LINE
8
BLACK
6
CONTINUOUS
10
147.992
20
-183
11
147.592
21
-183.4
0
LINE
8
BLACK
6
CONTINUOUS
10
147.598
20
-180.353
11
147.998
21
-180.753
0
LINE
8
BLACK
6
CONTINUOUS
10
147.998
20
-180.353
11
147.598
21
-180.753
0
LINE
8
BLACK
6
CONTINUOUS
10
147.907
20
-90.8336
11
148.307
21
-91.2336
0
LINE
8
BLACK
6
CONTINUOUS
10
148.307
20
-90.8336
11
147.907
21
-91.2336
0
LINE
8
BLACK
6
CONTINUOUS
10
147.933
20
-119.434
11
148.333
21
-119.834
0
LINE
8
BLACK
6
CONTINUOUS
10
148.333
20
-119.434
11
147.933
21
-119.834
0
LINE
8
BLACK
6
CONTINUOUS
10
148.136
20
-88.9286
11
148.536
21
-89.3286
0
LINE
8
BLACK
6
CONTINUOUS
10
148.536
20
-88.9286
11
148.136
21
-89.3286
0
LINE
8
BLACK
6
CONTINUOUS
10
148.161
20
-117.529
11
148.561
21
-117.929
0
LINE
8
BLACK
6
CONTINUOUS
10
148.561
20
-117.529
11
148.161
21
-117.929
0
LINE
8
BLACK
6
CONTINUOUS
10
148.187
20
-188.192
11
148.587
21
-188.592
0
LINE
8
BLACK
6
CONTINUOUS
10
148.587
20
-188.192
11
148.187
21
-188.592
0
LINE
8
BLACK
6
CONTINUOUS
10
150.206
20
-172.813
11
150.606
21
-173.213
0
LINE
8
BLACK
6
CONTINUOUS
10
150.606
20
-172.813
11
150.206
21
-173.213
0
LINE
8
BLACK
6
CONTINUOUS
10
152.414
20
-179.866
11
152.814
21
-180.266
0
LINE
8
BLACK
6
CONTINUOUS
10
152.814
20
-179.866
11
152.414
21
-180.266
0
LINE
8
BLACK
6
CONTINUOUS
10
153.953
20
-69.9548
11
154.353
21
-70.3548
0
LINE
8
BLACK
6
CONTINUOUS
10
154.353
20
-69.9548
11
153.953
21
-70.3548
0
LINE
8
BLACK
6
CONTINUOUS
10
154.435
20
-170.996
11
154.835
21
-171.396
0
LINE
8
BLACK
6
CONTINUOUS
10
154.835
20
-170.996
11
154.435
21
-171.396
0
LINE
8
BLACK
6
CONTINUOUS
10
154.797
20
-90.835
11
155.197
21
-91.235
0
LINE
8
BLACK
6
CONTINUOUS
10
155.197
20
-90.835
11
154.797
21
-91.235
0
LINE
8
BLACK
6
CONTINUOUS
10
154.797
20
-119.41
11
155.197
21
-119.81
0
LINE
8
BLACK
6
CONTINUOUS
10
155.197
20
-119.41
11
154.797
21
-119.81
0
LINE
8
BLACK
6
CONTINUOUS
10
155.146
20
-167.923
11
155.546
21
-168.323
0
LINE
8
BLACK
6
CONTINUOUS
10
155.546
20
-167.923
11
155.146
21
-168.323
0
LINE
8
BLACK
6
CONTINUOUS
10
155.262
20
-190.825
11
155.662
21
-191.225
0
LINE
8
BLACK
6
CONTINUOUS
10
155.662
20
-190.825
11
155.262
21
-191.225
0
LINE
8
BLACK
6
CONTINUOUS
10
156.416
20
-68.507
11
156.816
21
-68.907
0
LINE
8
BLACK
6
CONTINUOUS
10
156.816
20
-68.507
11
156.416
21
-68.907
0
LINE
8
BLACK
6
CONTINUOUS
10
156.975
20
-60.6584
11
157.375
21
-61.0584
0
LINE
8
BLACK
6
CONTINUOUS
10
157.375
20
-60.6584
11
156.975
21
-61.0584
0
LINE
8
BLACK
6
CONTINUOUS
10
158.382
20
-165.317
11
158.782
21
-165.717
0
LINE
8
BLACK
6
CONTINUOUS
10
158.782
20
-165.317
11
158.382
21
-165.717
0
LINE
8
BLACK
6
CONTINUOUS
10
159.007
20
-60.6838
11
159.407
21
-61.0838
0
LINE
8
BLACK
6
CONTINUOUS
10
159.407
20
-60.6838
11
159.007
21
-61.0838
0
LINE
8
BLACK
6
CONTINUOUS
10
159.536
20
-66.922
11
159.936
21
-67.322
0
LINE
8
BLACK
6
CONTINUOUS
10
159.936
20
-66.922
11
159.536
21
-67.322
0
LINE
8
BLACK
6
CONTINUOUS
10
160.572
20
-138.697
11
160.972
21
-139.097
0
LINE
8
BLACK
6
CONTINUOUS
10
160.972
20
-138.697
11
160.572
21
-139.097
0
LINE
8
BLACK
6
CONTINUOUS
10
161.014
20
-60.6584
11
161.414
21
-61.0584
0
LINE
8
BLACK
6
CONTINUOUS
10
161.414
20
-60.6584
11
161.014
21
-61.0584
0
LINE
8
BLACK
6
CONTINUOUS
10
161.588
20
-88.3596
11
161.988
21
-88.7596
0
LINE
8
BLACK
6
CONTINUOUS
10
161.988
20
-88.3596
11
161.588
21
-88.7596
0
LINE
8
BLACK
6
CONTINUOUS
10
161.842
20
-124.6
11
162.242
21
-125
0
LINE
8
BLACK
6
CONTINUOUS
10
162.242
20
-124.6
11
161.842
21
-125
0
LINE
8
BLACK
6
CONTINUOUS
10
163.02
20
-60.6584
11
163.42
21
-61.0584
0
LINE
8
BLACK
6
CONTINUOUS
10
163.42
20
-60.6584
11
163.02
21
-61.0584
0
LINE
8
BLACK
6
CONTINUOUS
10
163.122
20
-128.959
11
163.522
21
-129.359
0
LINE
8
BLACK
6
CONTINUOUS
10
163.522
20
-128.959
11
163.122
21
-129.359
0
LINE
8
BLACK
6
CONTINUOUS
10
163.147
20
-109.642
11
163.547
21
-110.042
0
LINE
8
BLACK
6
CONTINUOUS
10
163.547
20
-109.642
11
163.147
21
-110.042
0
LINE
8
BLACK
6
CONTINUOUS
10
163.173
20
-71.5677
11
163.573
21
-71.9677
0
LINE
8
BLACK
6
CONTINUOUS
10
163.573
20
-71.5677
11
163.173
21
-71.9677
0
LINE
8
BLACK
6
CONTINUOUS
10
163.173
20
-90.8717
11
163.573
21
-91.2717
0
LINE
8
BLACK
6
CONTINUOUS
10
163.573
20
-90.8717
11
163.173
21
-91.2717
0
LINE
8
BLACK
6
CONTINUOUS
10
163.705
20
-159.319
11
164.105
21
-159.719
0
LINE
8
BLACK
6
CONTINUOUS
10
164.105
20
-159.319
11
163.705
21
-159.719
0
LINE
8
BLACK
6
CONTINUOUS
10
165.601
20
-99.1496
11
166.001
21
-99.5496
0
LINE
8
BLACK
6
CONTINUOUS
10
166.001
20
-99.1496
11
165.601
21
-99.5496
0
LINE
8
BLACK
6
CONTINUOUS
10
166.171
20
-166.106
11
166.571
21
-166.506
0
LINE
8
BLACK
6
CONTINUOUS
10
166.571
20
-166.106
11
166.171
21
-166.506
0
LINE
8
BLACK
6
CONTINUOUS
10
166.627
20
-58.2708
11
167.027
21
-58.6708
0
LINE
8
BLACK
6
CONTINUOUS
10
167.027
20
-58.2708
11
166.627
21
-58.6708
0
LINE
8
BLACK
6
CONTINUOUS
10
166.805
20
-80.8514
11
167.205
21
-81.2514
0
LINE
8
BLACK
6
CONTINUOUS
10
167.205
20
-80.8514
11
166.805
21
-81.2514
0
LINE
8
BLACK
6
CONTINUOUS
10
166.983
20
-86.033
11
167.383
21
-86.433
0
LINE
8
BLACK
6
CONTINUOUS
10
167.383
20
-86.033
11
166.983
21
-86.433
0
LINE
8
BLACK
6
CONTINUOUS
10
166.983
20
-124.158
11
167.383
21
-124.558
0
LINE
8
BLACK
6
CONTINUOUS
10
167.383
20
-124.158
11
166.983
21
-124.558
0
LINE
8
BLACK
6
CONTINUOUS
10
167.211
20
-84.128
11
167.611
21
-84.528
0
LINE
8
BLACK
6
CONTINUOUS
10
167.611
20
-84.128
11
167.211
21
-84.528
0
LINE
8
BLACK
6
CONTINUOUS
10
167.211
20
-122.253
11
167.611
21
-122.653
0
LINE
8
BLACK
6
CONTINUOUS
10
167.611
20
-122.253
11
167.211
21
-122.653
0
LINE
8
BLACK
6
CONTINUOUS
10
167.338
20
-137.874
11
167.738
21
-138.274
0
LINE
8
BLACK
6
CONTINUOUS
10
167.738
20
-137.874
11
167.338
21
-138.274
0
LINE
8
BLACK
6
CONTINUOUS
10
167.796
20
-100.155
11
168.196
21
-100.555
0
LINE
8
BLACK
6
CONTINUOUS
10
168.196
20
-100.155
11
167.796
21
-100.555
0
LINE
8
BLACK
6
CONTINUOUS
10
167.821
20
-157.432
11
168.221
21
-157.832
0
LINE
8
BLACK
6
CONTINUOUS
10
168.221
20
-157.432
11
167.821
21
-157.832
0
LINE
8
BLACK
6
CONTINUOUS
10
168.532
20
-154.486
11
168.932
21
-154.886
0
LINE
8
BLACK
6
CONTINUOUS
10
168.932
20
-154.486
11
168.532
21
-154.886
0
LINE
8
BLACK
6
CONTINUOUS
10
168.646
20
-68.5213
11
169.046
21
-68.9213
0
LINE
8
BLACK
6
CONTINUOUS
10
169.046
20
-68.5213
11
168.646
21
-68.9213
0
LINE
8
BLACK
6
CONTINUOUS
10
168.646
20
-106.621
11
169.046
21
-107.021
0
LINE
8
BLACK
6
CONTINUOUS
10
169.046
20
-106.621
11
168.646
21
-107.021
0
LINE
8
BLACK
6
CONTINUOUS
10
170.64
20
-60.1758
11
171.04
21
-60.5758
0
LINE
8
BLACK
6
CONTINUOUS
10
171.04
20
-60.1758
11
170.64
21
-60.5758
0
LINE
8
BLACK
6
CONTINUOUS
10
172.901
20
-108.08
11
173.301
21
-108.48
0
LINE
8
BLACK
6
CONTINUOUS
10
173.301
20
-108.08
11
172.901
21
-108.48
0
LINE
8
BLACK
6
CONTINUOUS
10
172.952
20
-70.031
11
173.352
21
-70.431
0
LINE
8
BLACK
6
CONTINUOUS
10
173.352
20
-70.031
11
172.952
21
-70.431
0
LINE
8
BLACK
6
CONTINUOUS
10
173.847
20
-86.0725
11
174.247
21
-86.4725
0
LINE
8
BLACK
6
CONTINUOUS
10
174.247
20
-86.0725
11
173.847
21
-86.4725
0
LINE
8
BLACK
6
CONTINUOUS
10
173.847
20
-124.172
11
174.247
21
-124.572
0
LINE
8
BLACK
6
CONTINUOUS
10
174.247
20
-124.172
11
173.847
21
-124.572
0
LINE
8
BLACK
6
CONTINUOUS
10
174.704
20
-152.581
11
175.104
21
-152.981
0
LINE
8
BLACK
6
CONTINUOUS
10
175.104
20
-152.581
11
174.704
21
-152.981
0
LINE
8
BLACK
6
CONTINUOUS
10
175.365
20
-106.632
11
175.765
21
-107.032
0
LINE
8
BLACK
6
CONTINUOUS
10
175.765
20
-106.632
11
175.365
21
-107.032
0
LINE
8
BLACK
6
CONTINUOUS
10
175.416
20
-68.5832
11
175.816
21
-68.9832
0
LINE
8
BLACK
6
CONTINUOUS
10
175.816
20
-68.5832
11
175.416
21
-68.9832
0
LINE
8
BLACK
6
CONTINUOUS
10
175.466
20
-43.615
11
175.866
21
-44.015
0
LINE
8
BLACK
6
CONTINUOUS
10
175.866
20
-43.615
11
175.466
21
-44.015
0
LINE
8
BLACK
6
CONTINUOUS
10
178.656
20
-75.3613
11
179.056
21
-75.7613
0
LINE
8
BLACK
6
CONTINUOUS
10
179.056
20
-75.3613
11
178.656
21
-75.7613
0
LINE
8
BLACK
6
CONTINUOUS
10
178.656
20
-94.4113
11
179.056
21
-94.8113
0
LINE
8
BLACK
6
CONTINUOUS
10
179.056
20
-94.4113
11
178.656
21
-94.8113
0
LINE
8
BLACK
6
CONTINUOUS
10
178.656
20
-132.511
11
179.056
21
-132.911
0
LINE
8
BLACK
6
CONTINUOUS
10
179.056
20
-132.511
11
178.656
21
-132.911
0
LINE
8
BLACK
6
CONTINUOUS
10
180.435
20
-85.6164
11
180.835
21
-86.0164
0
LINE
8
BLACK
6
CONTINUOUS
10
180.835
20
-85.6164
11
180.435
21
-86.0164
0
LINE
8
BLACK
6
CONTINUOUS
10
180.973
20
-123.843
11
181.373
21
-124.243
0
LINE
8
BLACK
6
CONTINUOUS
10
181.373
20
-123.843
11
180.973
21
-124.243
0
LINE
8
BLACK
6
CONTINUOUS
10
180.999
20
-66.79
11
181.399
21
-67.19
0
LINE
8
BLACK
6
CONTINUOUS
10
181.399
20
-66.79
11
180.999
21
-67.19
0
LINE
8
BLACK
6
CONTINUOUS
10
181.293
20
-143.412
11
181.693
21
-143.812
0
LINE
8
BLACK
6
CONTINUOUS
10
181.693
20
-143.412
11
181.293
21
-143.812
0
LINE
8
BLACK
6
CONTINUOUS
10
182.172
20
-69.2055
11
182.572
21
-69.6055
0
LINE
8
BLACK
6
CONTINUOUS
10
182.572
20
-69.2055
11
182.172
21
-69.6055
0
LINE
8
BLACK
6
CONTINUOUS
10
182.172
20
-88.4841
11
182.572
21
-88.8841
0
LINE
8
BLACK
6
CONTINUOUS
10
182.572
20
-88.4841
11
182.172
21
-88.8841
0
LINE
8
BLACK
6
CONTINUOUS
10
182.21
20
-107.191
11
182.61
21
-107.591
0
LINE
8
BLACK
6
CONTINUOUS
10
182.61
20
-107.191
11
182.21
21
-107.591
0
LINE
8
BLACK
6
CONTINUOUS
10
182.236
20
-126.419
11
182.635
21
-126.819
0
LINE
8
BLACK
6
CONTINUOUS
10
182.635
20
-126.419
11
182.236
21
-126.819
0
LINE
8
BLACK
6
CONTINUOUS
10
182.236
20
-145.317
11
182.635
21
-145.717
0
LINE
8
BLACK
6
CONTINUOUS
10
182.635
20
-145.317
11
182.236
21
-145.717
0
LINE
8
BLACK
6
CONTINUOUS
10
182.352
20
-154.707
11
182.752
21
-155.107
0
LINE
8
BLACK
6
CONTINUOUS
10
182.752
20
-154.707
11
182.352
21
-155.107
0
LINE
8
BLACK
6
CONTINUOUS
10
183.454
20
-163.367
11
183.854
21
-163.767
0
LINE
8
BLACK
6
CONTINUOUS
10
183.854
20
-163.367
11
183.454
21
-163.767
0
LINE
8
BLACK
6
CONTINUOUS
10
183.63
20
-165.616
11
184.03
21
-166.016
0
LINE
8
BLACK
6
CONTINUOUS
10
184.03
20
-165.616
11
183.63
21
-166.016
0
LINE
8
BLACK
6
CONTINUOUS
10
183.747
20
-104.682
11
184.147
21
-105.082
0
LINE
8
BLACK
6
CONTINUOUS
10
184.147
20
-104.682
11
183.747
21
-105.082
0
LINE
8
BLACK
6
CONTINUOUS
10
185.167
20
-165.06
11
185.567
21
-165.46
0
LINE
8
BLACK
6
CONTINUOUS
10
185.567
20
-165.06
11
185.167
21
-165.46
0
LINE
8
BLACK
6
CONTINUOUS
10
185.174
20
-163.198
11
185.574
21
-163.598
0
LINE
8
BLACK
6
CONTINUOUS
10
185.574
20
-163.198
11
185.174
21
-163.598
0
LINE
8
BLACK
6
CONTINUOUS
10
185.347
20
-58.4232
11
185.747
21
-58.8232
0
LINE
8
BLACK
6
CONTINUOUS
10
185.747
20
-58.4232
11
185.347
21
-58.8232
0
LINE
8
BLACK
6
CONTINUOUS
10
185.715
20
-116.094
11
186.115
21
-116.494
0
LINE
8
BLACK
6
CONTINUOUS
10
186.115
20
-116.094
11
185.715
21
-116.494
0
LINE
8
BLACK
6
CONTINUOUS
10
185.982
20
-83.6454
11
186.382
21
-84.0454
0
LINE
8
BLACK
6
CONTINUOUS
10
186.382
20
-83.6454
11
185.982
21
-84.0454
0
LINE
8
BLACK
6
CONTINUOUS
10
186.02
20
-96.9042
11
186.42
21
-97.3042
0
LINE
8
BLACK
6
CONTINUOUS
10
186.42
20
-96.9042
11
186.02
21
-97.3042
0
LINE
8
BLACK
6
CONTINUOUS
10
186.058
20
-121.771
11
186.458
21
-122.171
0
LINE
8
BLACK
6
CONTINUOUS
10
186.458
20
-121.771
11
186.058
21
-122.171
0
LINE
8
BLACK
6
CONTINUOUS
10
186.096
20
-135.334
11
186.496
21
-135.734
0
LINE
8
BLACK
6
CONTINUOUS
10
186.496
20
-135.334
11
186.096
21
-135.734
0
LINE
8
BLACK
6
CONTINUOUS
10
186.109
20
-43.6404
11
186.509
21
-44.0404
0
LINE
8
BLACK
6
CONTINUOUS
10
186.509
20
-43.6404
11
186.109
21
-44.0404
0
LINE
8
BLACK
6
CONTINUOUS
10
186.211
20
-81.7404
11
186.611
21
-82.1404
0
LINE
8
BLACK
6
CONTINUOUS
10
186.611
20
-81.7404
11
186.211
21
-82.1404
0
LINE
8
BLACK
6
CONTINUOUS
10
186.287
20
-119.866
11
186.687
21
-120.266
0
LINE
8
BLACK
6
CONTINUOUS
10
186.687
20
-119.866
11
186.287
21
-120.266
0
LINE
8
BLACK
6
CONTINUOUS
10
186.655
20
-78.1971
11
187.055
21
-78.5971
0
LINE
8
BLACK
6
CONTINUOUS
10
187.055
20
-78.1971
11
186.655
21
-78.5971
0
LINE
8
BLACK
6
CONTINUOUS
10
187.693
20
-104.236
11
188.093
21
-104.636
0
LINE
8
BLACK
6
CONTINUOUS
10
188.093
20
-104.236
11
187.693
21
-104.636
0
LINE
8
BLACK
6
CONTINUOUS
10
187.696
20
-66.1401
11
188.096
21
-66.5401
0
LINE
8
BLACK
6
CONTINUOUS
10
188.096
20
-66.1401
11
187.696
21
-66.5401
0
LINE
8
BLACK
6
CONTINUOUS
10
192.027
20
-67.5672
11
192.427
21
-67.9672
0
LINE
8
BLACK
6
CONTINUOUS
10
192.427
20
-67.5672
11
192.027
21
-67.9672
0
LINE
8
BLACK
6
CONTINUOUS
10
192.027
20
-105.82
11
192.427
21
-106.22
0
LINE
8
BLACK
6
CONTINUOUS
10
192.427
20
-105.82
11
192.027
21
-106.22
0
LINE
8
BLACK
6
CONTINUOUS
10
192.027
20
-143.716
11
192.427
21
-144.116
0
LINE
8
BLACK
6
CONTINUOUS
10
192.427
20
-143.716
11
192.027
21
-144.116
0
LINE
8
BLACK
6
CONTINUOUS
10
192.897
20
-83.6912
11
193.297
21
-84.0912
0
LINE
8
BLACK
6
CONTINUOUS
10
193.297
20
-83.6912
11
192.897
21
-84.0912
0
LINE
8
BLACK
6
CONTINUOUS
10
192.897
20
-121.791
11
193.297
21
-122.191
0
LINE
8
BLACK
6
CONTINUOUS
10
193.297
20
-121.791
11
192.897
21
-122.191
0
LINE
8
BLACK
6
CONTINUOUS
10
194.491
20
-66.1194
11
194.891
21
-66.5194
0
LINE
8
BLACK
6
CONTINUOUS
10
194.891
20
-66.1194
11
194.491
21
-66.5194
0
LINE
8
BLACK
6
CONTINUOUS
10
194.491
20
-104.372
11
194.891
21
-104.772
0
LINE
8
BLACK
6
CONTINUOUS
10
194.891
20
-104.372
11
194.491
21
-104.772
0
LINE
8
BLACK
6
CONTINUOUS
10
194.491
20
-142.269
11
194.891
21
-142.669
0
LINE
8
BLACK
6
CONTINUOUS
10
194.891
20
-142.269
11
194.491
21
-142.669
0
LINE
8
BLACK
6
CONTINUOUS
10
197.703
20
-111.076
11
198.103
21
-111.476
0
LINE
8
BLACK
6
CONTINUOUS
10
198.103
20
-111.076
11
197.703
21
-111.476
0
LINE
8
BLACK
6
CONTINUOUS
10
197.706
20
-72.9801
11
198.106
21
-73.3801
0
LINE
8
BLACK
6
CONTINUOUS
10
198.106
20
-72.9801
11
197.706
21
-73.3801
0
LINE
8
BLACK
6
CONTINUOUS
10
197.706
20
-92.0301
11
198.106
21
-92.4301
0
LINE
8
BLACK
6
CONTINUOUS
10
198.106
20
-92.0301
11
197.706
21
-92.4301
0
LINE
8
BLACK
6
CONTINUOUS
10
197.706
20
-130.13
11
198.106
21
-130.53
0
LINE
8
BLACK
6
CONTINUOUS
10
198.106
20
-130.13
11
197.706
21
-130.53
0
LINE
8
BLACK
6
CONTINUOUS
10
199.007
20
-121.527
11
199.407
21
-121.927
0
LINE
8
BLACK
6
CONTINUOUS
10
199.407
20
-121.527
11
199.007
21
-121.927
0
LINE
8
BLACK
6
CONTINUOUS
10
199.708
20
-82.797
11
200.108
21
-83.197
0
LINE
8
BLACK
6
CONTINUOUS
10
200.108
20
-82.797
11
199.708
21
-83.197
0
LINE
8
BLACK
6
CONTINUOUS
10
200.216
20
-156.104
11
200.616
21
-156.504
0
LINE
8
BLACK
6
CONTINUOUS
10
200.616
20
-156.104
11
200.216
21
-156.504
0
LINE
8
BLACK
6
CONTINUOUS
10
200.328
20
-64.4481
11
200.728
21
-64.8481
0
LINE
8
BLACK
6
CONTINUOUS
10
200.728
20
-64.4481
11
200.328
21
-64.8481
0
LINE
8
BLACK
6
CONTINUOUS
10
201.285
20
-86.0203
11
201.685
21
-86.4203
0
LINE
8
BLACK
6
CONTINUOUS
10
201.685
20
-86.0203
11
201.285
21
-86.4203
0
LINE
8
BLACK
6
CONTINUOUS
10
201.285
20
-124.12
11
201.685
21
-124.52
0
LINE
8
BLACK
6
CONTINUOUS
10
201.685
20
-124.12
11
201.285
21
-124.52
0
LINE
8
BLACK
6
CONTINUOUS
10
201.298
20
-104.892
11
201.698
21
-105.292
0
LINE
8
BLACK
6
CONTINUOUS
10
201.698
20
-104.892
11
201.298
21
-105.292
0
LINE
8
BLACK
6
CONTINUOUS
10
201.298
20
-142.942
11
201.698
21
-143.342
0
LINE
8
BLACK
6
CONTINUOUS
10
201.698
20
-142.942
11
201.298
21
-143.342
0
LINE
8
BLACK
6
CONTINUOUS
10
201.324
20
-66.7671
11
201.724
21
-67.1671
0
LINE
8
BLACK
6
CONTINUOUS
10
201.724
20
-66.7671
11
201.324
21
-67.1671
0
LINE
8
BLACK
6
CONTINUOUS
10
202.086
20
-140.16
11
202.486
21
-140.56
0
LINE
8
BLACK
6
CONTINUOUS
10
202.486
20
-140.16
11
202.086
21
-140.56
0
LINE
8
BLACK
6
CONTINUOUS
10
202.553
20
-102.137
11
202.953
21
-102.537
0
LINE
8
BLACK
6
CONTINUOUS
10
202.953
20
-102.137
11
202.553
21
-102.537
0
LINE
8
BLACK
6
CONTINUOUS
10
203.864
20
-52.0986
11
204.264
21
-52.4986
0
LINE
8
BLACK
6
CONTINUOUS
10
204.264
20
-52.0986
11
203.864
21
-52.4986
0
LINE
8
BLACK
6
CONTINUOUS
10
204.626
20
-94.8341
11
205.026
21
-95.2341
0
LINE
8
BLACK
6
CONTINUOUS
10
205.026
20
-94.8341
11
204.626
21
-95.2341
0
LINE
8
BLACK
6
CONTINUOUS
10
204.956
20
-81.2578
11
205.356
21
-81.6578
0
LINE
8
BLACK
6
CONTINUOUS
10
205.356
20
-81.2578
11
204.956
21
-81.6578
0
LINE
8
BLACK
6
CONTINUOUS
10
205.057
20
-119.383
11
205.457
21
-119.783
0
LINE
8
BLACK
6
CONTINUOUS
10
205.457
20
-119.383
11
205.057
21
-119.783
0
LINE
8
BLACK
6
CONTINUOUS
10
205.184
20
-79.3528
11
205.584
21
-79.7528
0
LINE
8
BLACK
6
CONTINUOUS
10
205.584
20
-79.3528
11
205.184
21
-79.7528
0
LINE
8
BLACK
6
CONTINUOUS
10
205.286
20
-117.478
11
205.686
21
-117.878
0
LINE
8
BLACK
6
CONTINUOUS
10
205.686
20
-117.478
11
205.286
21
-117.878
0
LINE
8
BLACK
6
CONTINUOUS
10
205.489
20
-133.175
11
205.889
21
-133.575
0
LINE
8
BLACK
6
CONTINUOUS
10
205.889
20
-133.175
11
205.489
21
-133.575
0
LINE
8
BLACK
6
CONTINUOUS
10
205.565
20
-75.8857
11
205.965
21
-76.2857
0
LINE
8
BLACK
6
CONTINUOUS
10
205.965
20
-75.8857
11
205.565
21
-76.2857
0
LINE
8
BLACK
6
CONTINUOUS
10
205.603
20
-113.884
11
206.004
21
-114.284
0
LINE
8
BLACK
6
CONTINUOUS
10
206.004
20
-113.884
11
205.603
21
-114.284
0
LINE
8
BLACK
6
CONTINUOUS
10
205.835
20
-152.185
11
206.235
21
-152.585
0
LINE
8
BLACK
6
CONTINUOUS
10
206.235
20
-152.185
11
205.835
21
-152.585
0
LINE
8
BLACK
6
CONTINUOUS
10
206.439
20
-46.2312
11
206.839
21
-46.6312
0
LINE
8
BLACK
6
CONTINUOUS
10
206.839
20
-46.2312
11
206.439
21
-46.6312
0
LINE
8
BLACK
6
CONTINUOUS
10
206.743
20
-63.7551
11
207.143
21
-64.1551
0
LINE
8
BLACK
6
CONTINUOUS
10
207.143
20
-63.7551
11
206.743
21
-64.1551
0
LINE
8
BLACK
6
CONTINUOUS
10
206.743
20
-139.955
11
207.143
21
-140.355
0
LINE
8
BLACK
6
CONTINUOUS
10
207.143
20
-139.955
11
206.743
21
-140.355
0
LINE
8
BLACK
6
CONTINUOUS
10
206.746
20
-101.859
11
207.146
21
-102.259
0
LINE
8
BLACK
6
CONTINUOUS
10
207.146
20
-101.859
11
206.746
21
-102.259
0
LINE
8
BLACK
6
CONTINUOUS
10
207.039
20
-47.1862
11
207.439
21
-47.5862
0
LINE
8
BLACK
6
CONTINUOUS
10
207.439
20
-47.1862
11
207.039
21
-47.5862
0
LINE
8
BLACK
6
CONTINUOUS
10
208.207
20
-49.457
11
208.607
21
-49.857
0
LINE
8
BLACK
6
CONTINUOUS
10
208.607
20
-49.457
11
208.207
21
-49.857
0
LINE
8
BLACK
6
CONTINUOUS
10
209.121
20
-54.1814
11
209.521
21
-54.5814
0
LINE
8
BLACK
6
CONTINUOUS
10
209.521
20
-54.1814
11
209.121
21
-54.5814
0
LINE
8
BLACK
6
CONTINUOUS
10
211.052
20
-103.356
11
211.452
21
-103.756
0
LINE
8
BLACK
6
CONTINUOUS
10
211.452
20
-103.356
11
211.052
21
-103.756
0
LINE
8
BLACK
6
CONTINUOUS
10
211.103
20
-65.205
11
211.503
21
-65.605
0
LINE
8
BLACK
6
CONTINUOUS
10
211.503
20
-65.205
11
211.103
21
-65.605
0
LINE
8
BLACK
6
CONTINUOUS
10
211.153
20
-141.481
11
211.553
21
-141.881
0
LINE
8
BLACK
6
CONTINUOUS
10
211.553
20
-141.481
11
211.153
21
-141.881
0
LINE
8
BLACK
6
CONTINUOUS
10
211.217
20
-153.254
11
211.617
21
-153.654
0
LINE
8
BLACK
6
CONTINUOUS
10
211.617
20
-153.254
11
211.217
21
-153.654
0
LINE
8
BLACK
6
CONTINUOUS
10
211.947
20
-81.31
11
212.347
21
-81.71
0
LINE
8
BLACK
6
CONTINUOUS
10
212.347
20
-81.31
11
211.947
21
-81.71
0
LINE
8
BLACK
6
CONTINUOUS
10
213.516
20
-101.908
11
213.916
21
-102.308
0
LINE
8
BLACK
6
CONTINUOUS
10
213.916
20
-101.908
11
213.516
21
-102.308
0
LINE
8
BLACK
6
CONTINUOUS
10
213.566
20
-63.7572
11
213.966
21
-64.1572
0
LINE
8
BLACK
6
CONTINUOUS
10
213.966
20
-63.7572
11
213.566
21
-64.1572
0
LINE
8
BLACK
6
CONTINUOUS
10
213.617
20
-140.033
11
214.017
21
-140.433
0
LINE
8
BLACK
6
CONTINUOUS
10
214.017
20
-140.033
11
213.617
21
-140.433
0
LINE
8
BLACK
6
CONTINUOUS
10
213.643
20
-58.8042
11
214.043
21
-59.2042
0
LINE
8
BLACK
6
CONTINUOUS
10
214.043
20
-58.8042
11
213.643
21
-59.2042
0
LINE
8
BLACK
6
CONTINUOUS
10
214.011
20
-56.4851
11
214.411
21
-56.8851
0
LINE
8
BLACK
6
CONTINUOUS
10
214.411
20
-56.4851
11
214.011
21
-56.8851
0
LINE
8
BLACK
6
CONTINUOUS
10
214.481
20
-57.966
11
214.881
21
-58.366
0
LINE
8
BLACK
6
CONTINUOUS
10
214.881
20
-57.966
11
214.481
21
-58.366
0
LINE
8
BLACK
6
CONTINUOUS
10
214.506
20
-59.5408
11
214.906
21
-59.9408
0
LINE
8
BLACK
6
CONTINUOUS
10
214.906
20
-59.5408
11
214.506
21
-59.9408
0
LINE
8
BLACK
6
CONTINUOUS
10
216.03
20
-49.9142
11
216.43
21
-50.3142
0
LINE
8
BLACK
6
CONTINUOUS
10
216.43
20
-49.9142
11
216.03
21
-50.3142
0
LINE
8
BLACK
6
CONTINUOUS
10
216.031
20
-83.1861
11
216.431
21
-83.5861
0
LINE
8
BLACK
6
CONTINUOUS
10
216.431
20
-83.1861
11
216.031
21
-83.5861
0
LINE
8
BLACK
6
CONTINUOUS
10
216.448
20
-70.3536
11
216.848
21
-70.7536
0
LINE
8
BLACK
6
CONTINUOUS
10
216.848
20
-70.3536
11
216.448
21
-70.7536
0
LINE
8
BLACK
6
CONTINUOUS
10
216.55
20
-146.813
11
216.95
21
-147.213
0
LINE
8
BLACK
6
CONTINUOUS
10
216.95
20
-146.813
11
216.55
21
-147.213
0
LINE
8
BLACK
6
CONTINUOUS
10
216.689
20
-89.5814
11
217.089
21
-89.9814
0
LINE
8
BLACK
6
CONTINUOUS
10
217.089
20
-89.5814
11
216.689
21
-89.9814
0
LINE
8
BLACK
6
CONTINUOUS
10
216.756
20
-108.699
11
217.156
21
-109.099
0
LINE
8
BLACK
6
CONTINUOUS
10
217.156
20
-108.699
11
216.756
21
-109.099
0
LINE
8
BLACK
6
CONTINUOUS
10
216.756
20
-127.749
11
217.156
21
-128.149
0
LINE
8
BLACK
6
CONTINUOUS
10
217.156
20
-127.749
11
216.756
21
-128.149
0
LINE
8
BLACK
6
CONTINUOUS
10
217.94
20
-47.7806
11
218.34
21
-48.1806
0
LINE
8
BLACK
6
CONTINUOUS
10
218.34
20
-47.7806
11
217.94
21
-48.1806
0
LINE
8
BLACK
6
CONTINUOUS
10
219.03
20
-156.825
11
219.43
21
-157.225
0
LINE
8
BLACK
6
CONTINUOUS
10
219.43
20
-156.825
11
219.03
21
-157.225
0
LINE
8
BLACK
6
CONTINUOUS
10
220.374
20
-145.342
11
220.774
21
-145.742
0
LINE
8
BLACK
6
CONTINUOUS
10
220.774
20
-145.342
11
220.374
21
-145.742
0
LINE
8
BLACK
6
CONTINUOUS
10
220.464
20
-126.546
11
220.864
21
-126.946
0
LINE
8
BLACK
6
CONTINUOUS
10
220.864
20
-126.546
11
220.464
21
-126.946
0
LINE
8
BLACK
6
CONTINUOUS
10
221.141
20
-140.694
11
221.541
21
-141.094
0
LINE
8
BLACK
6
CONTINUOUS
10
221.541
20
-140.694
11
221.141
21
-141.094
0
LINE
8
BLACK
6
CONTINUOUS
10
221.175
20
-69.1293
11
221.575
21
-69.5293
0
LINE
8
BLACK
6
CONTINUOUS
10
221.575
20
-69.1293
11
221.175
21
-69.5293
0
LINE
8
BLACK
6
CONTINUOUS
10
221.175
20
-88.2357
11
221.575
21
-88.6357
0
LINE
8
BLACK
6
CONTINUOUS
10
221.575
20
-88.2357
11
221.175
21
-88.6357
0
LINE
8
BLACK
6
CONTINUOUS
10
221.302
20
-107.178
11
221.702
21
-107.578
0
LINE
8
BLACK
6
CONTINUOUS
10
221.702
20
-107.178
11
221.302
21
-107.578
0
LINE
8
BLACK
6
CONTINUOUS
10
221.752
20
-102.091
11
222.152
21
-102.491
0
LINE
8
BLACK
6
CONTINUOUS
10
222.152
20
-102.091
11
221.752
21
-102.491
0
LINE
8
BLACK
6
CONTINUOUS
10
221.905
20
-63.9071
11
222.305
21
-64.3071
0
LINE
8
BLACK
6
CONTINUOUS
10
222.305
20
-63.9071
11
221.905
21
-64.3071
0
LINE
8
BLACK
6
CONTINUOUS
10
222.091
20
-124.905
11
222.491
21
-125.305
0
LINE
8
BLACK
6
CONTINUOUS
10
222.491
20
-124.905
11
222.091
21
-125.305
0
LINE
8
BLACK
6
CONTINUOUS
10
222.621
20
-47.2775
11
223.021
21
-47.6775
0
LINE
8
BLACK
6
CONTINUOUS
10
223.021
20
-47.2775
11
222.621
21
-47.6775
0
LINE
8
BLACK
6
CONTINUOUS
10
223.107
20
-46.1398
11
223.507
21
-46.5398
0
LINE
8
BLACK
6
CONTINUOUS
10
223.507
20
-46.1398
11
223.107
21
-46.5398
0
LINE
8
BLACK
6
CONTINUOUS
10
223.848
20
-154.593
11
224.248
21
-154.993
0
LINE
8
BLACK
6
CONTINUOUS
10
224.248
20
-154.593
11
223.848
21
-154.993
0
LINE
8
BLACK
6
CONTINUOUS
10
223.866
20
-78.2733
11
224.266
21
-78.6733
0
LINE
8
BLACK
6
CONTINUOUS
10
224.266
20
-78.2733
11
223.866
21
-78.6733
0
LINE
8
BLACK
6
CONTINUOUS
10
223.891
20
-97.4249
11
224.291
21
-97.8249
0
LINE
8
BLACK
6
CONTINUOUS
10
224.291
20
-97.4249
11
223.891
21
-97.8249
0
LINE
8
BLACK
6
CONTINUOUS
10
224.031
20
-135.665
11
224.431
21
-136.065
0
LINE
8
BLACK
6
CONTINUOUS
10
224.431
20
-135.665
11
224.031
21
-136.065
0
LINE
8
BLACK
6
CONTINUOUS
10
224.107
20
-121.771
11
224.507
21
-122.171
0
LINE
8
BLACK
6
CONTINUOUS
10
224.507
20
-121.771
11
224.107
21
-122.171
0
LINE
8
BLACK
6
CONTINUOUS
10
224.209
20
-83.6708
11
224.609
21
-84.0708
0
LINE
8
BLACK
6
CONTINUOUS
10
224.609
20
-83.6708
11
224.209
21
-84.0708
0
LINE
8
BLACK
6
CONTINUOUS
10
224.296
20
-50.2825
11
224.696
21
-50.6825
0
LINE
8
BLACK
6
CONTINUOUS
10
224.696
20
-50.2825
11
224.296
21
-50.6825
0
LINE
8
BLACK
6
CONTINUOUS
10
224.336
20
-119.866
11
224.736
21
-120.266
0
LINE
8
BLACK
6
CONTINUOUS
10
224.736
20
-119.866
11
224.336
21
-120.266
0
LINE
8
BLACK
6
CONTINUOUS
10
224.438
20
-81.7658
11
224.838
21
-82.1658
0
LINE
8
BLACK
6
CONTINUOUS
10
224.838
20
-81.7658
11
224.438
21
-82.1658
0
LINE
8
BLACK
6
CONTINUOUS
10
224.628
20
-116.31
11
225.028
21
-116.71
0
LINE
8
BLACK
6
CONTINUOUS
10
225.028
20
-116.31
11
224.628
21
-116.71
0
LINE
8
BLACK
6
CONTINUOUS
10
224.943
20
-53.5185
11
225.343
21
-53.9185
0
LINE
8
BLACK
6
CONTINUOUS
10
225.343
20
-53.5185
11
224.943
21
-53.9185
0
LINE
8
BLACK
6
CONTINUOUS
10
224.996
20
-49.5332
11
225.396
21
-49.9332
0
LINE
8
BLACK
6
CONTINUOUS
10
225.396
20
-49.5332
11
224.996
21
-49.9332
0
LINE
8
BLACK
6
CONTINUOUS
10
225.047
20
-51.2096
11
225.447
21
-51.6096
0
LINE
8
BLACK
6
CONTINUOUS
10
225.447
20
-51.2096
11
225.047
21
-51.6096
0
LINE
8
BLACK
6
CONTINUOUS
10
225.796
20
-66.1401
11
226.196
21
-66.5401
0
LINE
8
BLACK
6
CONTINUOUS
10
226.196
20
-66.1401
11
225.796
21
-66.5401
0
LINE
8
BLACK
6
CONTINUOUS
10
225.796
20
-104.24
11
226.196
21
-104.64
0
LINE
8
BLACK
6
CONTINUOUS
10
226.196
20
-104.24
11
225.796
21
-104.64
0
LINE
8
BLACK
6
CONTINUOUS
10
225.796
20
-142.34
11
226.196
21
-142.74
0
LINE
8
BLACK
6
CONTINUOUS
10
226.196
20
-142.34
11
225.796
21
-142.74
0
LINE
8
BLACK
6
CONTINUOUS
10
225.797
20
-123.291
11
226.197
21
-123.691
0
LINE
8
BLACK
6
CONTINUOUS
10
226.197
20
-123.291
11
225.797
21
-123.691
0
LINE
8
BLACK
6
CONTINUOUS
10
225.885
20
-50.346
11
226.285
21
-50.746
0
LINE
8
BLACK
6
CONTINUOUS
10
226.285
20
-50.346
11
225.885
21
-50.746
0
LINE
8
BLACK
6
CONTINUOUS
10
226.927
20
-53.0638
11
227.327
21
-53.4638
0
LINE
8
BLACK
6
CONTINUOUS
10
227.327
20
-53.0638
11
226.927
21
-53.4638
0
LINE
8
BLACK
6
CONTINUOUS
10
227.384
20
-54.0544
11
227.784
21
-54.4544
0
LINE
8
BLACK
6
CONTINUOUS
10
227.784
20
-54.0544
11
227.384
21
-54.4544
0
LINE
8
BLACK
6
CONTINUOUS
10
227.384
20
-55.1974
11
227.784
21
-55.5974
0
LINE
8
BLACK
6
CONTINUOUS
10
227.784
20
-55.1974
11
227.384
21
-55.5974
0
LINE
8
BLACK
6
CONTINUOUS
10
228.679
20
-55.0704
11
229.079
21
-55.4704
0
LINE
8
BLACK
6
CONTINUOUS
10
229.079
20
-55.0704
11
228.679
21
-55.4704
0
LINE
8
BLACK
6
CONTINUOUS
10
230.102
20
-105.769
11
230.502
21
-106.169
0
LINE
8
BLACK
6
CONTINUOUS
10
230.502
20
-105.769
11
230.102
21
-106.169
0
LINE
8
BLACK
6
CONTINUOUS
10
230.178
20
-143.818
11
230.578
21
-144.218
0
LINE
8
BLACK
6
CONTINUOUS
10
230.578
20
-143.818
11
230.178
21
-144.218
0
LINE
8
BLACK
6
CONTINUOUS
10
230.307
20
-156.808
11
230.707
21
-157.208
0
LINE
8
BLACK
6
CONTINUOUS
10
230.707
20
-156.808
11
230.307
21
-157.208
0
LINE
8
BLACK
6
CONTINUOUS
10
230.997
20
-83.6912
11
231.397
21
-84.0912
0
LINE
8
BLACK
6
CONTINUOUS
10
231.397
20
-83.6912
11
230.997
21
-84.0912
0
LINE
8
BLACK
6
CONTINUOUS
10
230.997
20
-121.791
11
231.397
21
-122.191
0
LINE
8
BLACK
6
CONTINUOUS
10
231.397
20
-121.791
11
230.997
21
-122.191
0
LINE
8
BLACK
6
CONTINUOUS
10
232.566
20
-104.321
11
232.966
21
-104.721
0
LINE
8
BLACK
6
CONTINUOUS
10
232.966
20
-104.321
11
232.566
21
-104.721
0
LINE
8
BLACK
6
CONTINUOUS
10
232.642
20
-66.1956
11
233.042
21
-66.5956
0
LINE
8
BLACK
6
CONTINUOUS
10
233.042
20
-66.1956
11
232.642
21
-66.5956
0
LINE
8
BLACK
6
CONTINUOUS
10
232.642
20
-142.37
11
233.042
21
-142.77
0
LINE
8
BLACK
6
CONTINUOUS
10
233.042
20
-142.37
11
232.642
21
-142.77
0
LINE
8
BLACK
6
CONTINUOUS
10
234.171
20
-65.4082
11
234.571
21
-65.8082
0
LINE
8
BLACK
6
CONTINUOUS
10
234.571
20
-65.4082
11
234.171
21
-65.8082
0
LINE
8
BLACK
6
CONTINUOUS
10
235.806
20
-72.9801
11
236.206
21
-73.3801
0
LINE
8
BLACK
6
CONTINUOUS
10
236.206
20
-72.9801
11
235.806
21
-73.3801
0
LINE
8
BLACK
6
CONTINUOUS
10
235.806
20
-92.0301
11
236.206
21
-92.4301
0
LINE
8
BLACK
6
CONTINUOUS
10
236.206
20
-92.0301
11
235.806
21
-92.4301
0
LINE
8
BLACK
6
CONTINUOUS
10
235.806
20
-111.08
11
236.206
21
-111.48
0
LINE
8
BLACK
6
CONTINUOUS
10
236.206
20
-111.08
11
235.806
21
-111.48
0
LINE
8
BLACK
6
CONTINUOUS
10
235.806
20
-130.13
11
236.206
21
-130.53
0
LINE
8
BLACK
6
CONTINUOUS
10
236.206
20
-130.13
11
235.806
21
-130.53
0
LINE
8
BLACK
6
CONTINUOUS
10
235.806
20
-149.18
11
236.206
21
-149.58
0
LINE
8
BLACK
6
CONTINUOUS
10
236.206
20
-149.18
11
235.806
21
-149.58
0
LINE
8
BLACK
6
CONTINUOUS
10
236.873
20
-87.3284
11
237.273
21
-87.7284
0
LINE
8
BLACK
6
CONTINUOUS
10
237.273
20
-87.3284
11
236.873
21
-87.7284
0
LINE
8
BLACK
6
CONTINUOUS
10
237.442
20
-66.5258
11
237.842
21
-66.9258
0
LINE
8
BLACK
6
CONTINUOUS
10
237.842
20
-66.5258
11
237.442
21
-66.9258
0
LINE
8
BLACK
6
CONTINUOUS
10
237.991
20
-125.306
11
238.391
21
-125.706
0
LINE
8
BLACK
6
CONTINUOUS
10
238.391
20
-125.306
11
237.991
21
-125.706
0
LINE
8
BLACK
6
CONTINUOUS
10
238.535
20
-65.7638
11
238.935
21
-66.1638
0
LINE
8
BLACK
6
CONTINUOUS
10
238.935
20
-65.7638
11
238.535
21
-66.1638
0
LINE
8
BLACK
6
CONTINUOUS
10
239.373
20
-90.7447
11
239.773
21
-91.1447
0
LINE
8
BLACK
6
CONTINUOUS
10
239.773
20
-90.7447
11
239.373
21
-91.1447
0
LINE
8
BLACK
6
CONTINUOUS
10
239.385
20
-66.5766
11
239.785
21
-66.9766
0
LINE
8
BLACK
6
CONTINUOUS
10
239.785
20
-66.5766
11
239.385
21
-66.9766
0
LINE
8
BLACK
6
CONTINUOUS
10
239.393
20
-79.368
11
239.793
21
-79.768
0
LINE
8
BLACK
6
CONTINUOUS
10
239.793
20
-79.368
11
239.393
21
-79.768
0
LINE
8
BLACK
6
CONTINUOUS
10
239.398
20
-109.591
11
239.798
21
-109.992
0
LINE
8
BLACK
6
CONTINUOUS
10
239.798
20
-109.591
11
239.398
21
-109.992
0
LINE
8
BLACK
6
CONTINUOUS
10
239.398
20
-128.895
11
239.798
21
-129.296
0
LINE
8
BLACK
6
CONTINUOUS
10
239.798
20
-128.895
11
239.398
21
-129.296
0
LINE
8
BLACK
6
CONTINUOUS
10
239.398
20
-147.717
11
239.798
21
-148.117
0
LINE
8
BLACK
6
CONTINUOUS
10
239.798
20
-147.717
11
239.398
21
-148.117
0
LINE
8
BLACK
6
CONTINUOUS
10
240.374
20
-141.984
11
240.774
21
-142.384
0
LINE
8
BLACK
6
CONTINUOUS
10
240.774
20
-141.984
11
240.374
21
-142.384
0
LINE
8
BLACK
6
CONTINUOUS
10
240.389
20
-65.8146
11
240.789
21
-66.2146
0
LINE
8
BLACK
6
CONTINUOUS
10
240.789
20
-65.8146
11
240.389
21
-66.2146
0
LINE
8
BLACK
6
CONTINUOUS
10
240.47
20
-103.366
11
240.87
21
-103.766
0
LINE
8
BLACK
6
CONTINUOUS
10
240.87
20
-103.366
11
240.47
21
-103.766
0
LINE
8
BLACK
6
CONTINUOUS
10
242.573
20
-99.8252
11
242.973
21
-100.225
0
LINE
8
BLACK
6
CONTINUOUS
10
242.973
20
-99.8252
11
242.573
21
-100.225
0
LINE
8
BLACK
6
CONTINUOUS
10
242.863
20
-156.818
11
243.263
21
-157.218
0
LINE
8
BLACK
6
CONTINUOUS
10
243.263
20
-156.818
11
242.863
21
-157.218
0
LINE
8
BLACK
6
CONTINUOUS
10
243.157
20
-85.9568
11
243.557
21
-86.3568
0
LINE
8
BLACK
6
CONTINUOUS
10
243.557
20
-85.9568
11
243.157
21
-86.3568
0
LINE
8
BLACK
6
CONTINUOUS
10
243.183
20
-124.082
11
243.583
21
-124.482
0
LINE
8
BLACK
6
CONTINUOUS
10
243.583
20
-124.082
11
243.183
21
-124.482
0
LINE
8
BLACK
6
CONTINUOUS
10
243.272
20
-80.2799
11
243.672
21
-80.6799
0
LINE
8
BLACK
6
CONTINUOUS
10
243.672
20
-80.2799
11
243.272
21
-80.6799
0
LINE
8
BLACK
6
CONTINUOUS
10
243.373
20
-138.306
11
243.773
21
-138.706
0
LINE
8
BLACK
6
CONTINUOUS
10
243.773
20
-138.306
11
243.373
21
-138.706
0
LINE
8
BLACK
6
CONTINUOUS
10
243.386
20
-84.0518
11
243.786
21
-84.4518
0
LINE
8
BLACK
6
CONTINUOUS
10
243.786
20
-84.0518
11
243.386
21
-84.4518
0
LINE
8
BLACK
6
CONTINUOUS
10
243.411
20
-122.177
11
243.811
21
-122.577
0
LINE
8
BLACK
6
CONTINUOUS
10
243.811
20
-122.177
11
243.411
21
-122.577
0
LINE
8
BLACK
6
CONTINUOUS
10
244.846
20
-68.5213
11
245.246
21
-68.9213
0
LINE
8
BLACK
6
CONTINUOUS
10
245.246
20
-68.5213
11
244.846
21
-68.9213
0
LINE
8
BLACK
6
CONTINUOUS
10
244.846
20
-106.621
11
245.246
21
-107.021
0
LINE
8
BLACK
6
CONTINUOUS
10
245.246
20
-106.621
11
244.846
21
-107.021
0
LINE
8
BLACK
6
CONTINUOUS
10
244.846
20
-144.721
11
245.246
21
-145.121
0
LINE
8
BLACK
6
CONTINUOUS
10
245.246
20
-144.721
11
244.846
21
-145.121
0
LINE
8
BLACK
6
CONTINUOUS
10
245.38
20
-118.634
11
245.78
21
-119.034
0
LINE
8
BLACK
6
CONTINUOUS
10
245.78
20
-118.634
11
245.38
21
-119.034
0
LINE
8
BLACK
6
CONTINUOUS
10
249.177
20
-69.9802
11
249.577
21
-70.3802
0
LINE
8
BLACK
6
CONTINUOUS
10
249.577
20
-69.9802
11
249.177
21
-70.3802
0
LINE
8
BLACK
6
CONTINUOUS
10
249.218
20
-108.215
11
249.618
21
-108.615
0
LINE
8
BLACK
6
CONTINUOUS
10
249.618
20
-108.215
11
249.218
21
-108.615
0
LINE
8
BLACK
6
CONTINUOUS
10
249.279
20
-146.206
11
249.679
21
-146.606
0
LINE
8
BLACK
6
CONTINUOUS
10
249.679
20
-146.206
11
249.279
21
-146.606
0
LINE
8
BLACK
6
CONTINUOUS
10
250.044
20
-124.169
11
250.444
21
-124.569
0
LINE
8
BLACK
6
CONTINUOUS
10
250.444
20
-124.169
11
250.044
21
-124.569
0
LINE
8
BLACK
6
CONTINUOUS
10
250.047
20
-86.0725
11
250.447
21
-86.4725
0
LINE
8
BLACK
6
CONTINUOUS
10
250.447
20
-86.0725
11
250.047
21
-86.4725
0
LINE
8
BLACK
6
CONTINUOUS
10
251.565
20
-106.505
11
251.965
21
-106.905
0
LINE
8
BLACK
6
CONTINUOUS
10
251.965
20
-106.505
11
251.565
21
-106.905
0
LINE
8
BLACK
6
CONTINUOUS
10
251.641
20
-68.5324
11
252.041
21
-68.9324
0
LINE
8
BLACK
6
CONTINUOUS
10
252.041
20
-68.5324
11
251.641
21
-68.9324
0
LINE
8
BLACK
6
CONTINUOUS
10
251.743
20
-144.758
11
252.143
21
-145.158
0
LINE
8
BLACK
6
CONTINUOUS
10
252.143
20
-144.758
11
251.743
21
-145.158
0
LINE
8
BLACK
6
CONTINUOUS
10
254.853
20
-132.508
11
255.253
21
-132.908
0
LINE
8
BLACK
6
CONTINUOUS
10
255.253
20
-132.508
11
254.853
21
-132.908
0
LINE
8
BLACK
6
CONTINUOUS
10
254.856
20
-75.3613
11
255.256
21
-75.7613
0
LINE
8
BLACK
6
CONTINUOUS
10
255.256
20
-75.3613
11
254.856
21
-75.7613
0
LINE
8
BLACK
6
CONTINUOUS
10
254.856
20
-94.4113
11
255.256
21
-94.8113
0
LINE
8
BLACK
6
CONTINUOUS
10
255.256
20
-94.4113
11
254.856
21
-94.8113
0
LINE
8
BLACK
6
CONTINUOUS
10
254.856
20
-113.461
11
255.256
21
-113.861
0
LINE
8
BLACK
6
CONTINUOUS
10
255.256
20
-113.461
11
254.856
21
-113.861
0
LINE
8
BLACK
6
CONTINUOUS
10
254.856
20
-151.561
11
255.256
21
-151.961
0
LINE
8
BLACK
6
CONTINUOUS
10
255.256
20
-151.561
11
254.856
21
-151.961
0
LINE
8
BLACK
6
CONTINUOUS
10
258.385
20
-147.615
11
258.785
21
-148.015
0
LINE
8
BLACK
6
CONTINUOUS
10
258.785
20
-147.615
11
258.385
21
-148.015
0
LINE
8
BLACK
6
CONTINUOUS
10
258.596
20
-67.6434
11
258.996
21
-68.0434
0
LINE
8
BLACK
6
CONTINUOUS
10
258.996
20
-67.6434
11
258.596
21
-68.0434
0
LINE
8
BLACK
6
CONTINUOUS
10
259.49
20
-86.9525
11
259.89
21
-87.3525
0
LINE
8
BLACK
6
CONTINUOUS
10
259.89
20
-86.9525
11
259.49
21
-87.3525
0
LINE
8
BLACK
6
CONTINUOUS
10
261.186
20
-125.515
11
261.586
21
-125.915
0
LINE
8
BLACK
6
CONTINUOUS
10
261.586
20
-125.515
11
261.186
21
-125.915
0
LINE
8
BLACK
6
CONTINUOUS
10
261.28
20
-130.305
11
261.68
21
-130.705
0
LINE
8
BLACK
6
CONTINUOUS
10
261.68
20
-130.305
11
261.28
21
-130.705
0
LINE
8
BLACK
6
CONTINUOUS
10
262.436
20
-156.66
11
262.836
21
-157.06
0
LINE
8
BLACK
6
CONTINUOUS
10
262.836
20
-156.66
11
262.436
21
-157.06
0
LINE
8
BLACK
6
CONTINUOUS
10
263.135
20
-71.5296
11
263.534
21
-71.9296
0
LINE
8
BLACK
6
CONTINUOUS
10
263.534
20
-71.5296
11
263.135
21
-71.9296
0
LINE
8
BLACK
6
CONTINUOUS
10
263.147
20
-90.5288
11
263.547
21
-90.9288
0
LINE
8
BLACK
6
CONTINUOUS
10
263.547
20
-90.5288
11
263.147
21
-90.9288
0
LINE
8
BLACK
6
CONTINUOUS
10
264.138
20
-109.452
11
264.538
21
-109.852
0
LINE
8
BLACK
6
CONTINUOUS
10
264.538
20
-109.452
11
264.138
21
-109.852
0
LINE
8
BLACK
6
CONTINUOUS
10
265.006
20
-105.825
11
265.406
21
-106.225
0
LINE
8
BLACK
6
CONTINUOUS
10
265.406
20
-105.825
11
265.006
21
-106.225
0
LINE
8
BLACK
6
CONTINUOUS
10
266.83
20
-118.964
11
267.23
21
-119.364
0
LINE
8
BLACK
6
CONTINUOUS
10
267.23
20
-118.964
11
266.83
21
-119.364
0
LINE
8
BLACK
6
CONTINUOUS
10
266.83
20
-138.141
11
267.23
21
-138.541
0
LINE
8
BLACK
6
CONTINUOUS
10
267.23
20
-138.141
11
266.83
21
-138.541
0
LINE
8
BLACK
6
CONTINUOUS
10
267.008
20
-80.5593
11
267.408
21
-80.9593
0
LINE
8
BLACK
6
CONTINUOUS
10
267.408
20
-80.5593
11
267.008
21
-80.9593
0
LINE
8
BLACK
6
CONTINUOUS
10
267.033
20
-86.0584
11
267.433
21
-86.4584
0
LINE
8
BLACK
6
CONTINUOUS
10
267.433
20
-86.0584
11
267.033
21
-86.4584
0
LINE
8
BLACK
6
CONTINUOUS
10
267.033
20
-124.108
11
267.433
21
-124.508
0
LINE
8
BLACK
6
CONTINUOUS
10
267.433
20
-124.108
11
267.033
21
-124.508
0
LINE
8
BLACK
6
CONTINUOUS
10
267.262
20
-84.1534
11
267.662
21
-84.5534
0
LINE
8
BLACK
6
CONTINUOUS
10
267.662
20
-84.1534
11
267.262
21
-84.5534
0
LINE
8
BLACK
6
CONTINUOUS
10
267.262
20
-122.203
11
267.662
21
-122.603
0
LINE
8
BLACK
6
CONTINUOUS
10
267.662
20
-122.203
11
267.262
21
-122.603
0
LINE
8
BLACK
6
CONTINUOUS
10
267.986
20
-99.8252
11
268.386
21
-100.225
0
LINE
8
BLACK
6
CONTINUOUS
10
268.386
20
-99.8252
11
267.986
21
-100.225
0
LINE
8
BLACK
6
CONTINUOUS
10
268.202
20
-146.231
11
268.602
21
-146.631
0
LINE
8
BLACK
6
CONTINUOUS
10
268.602
20
-146.231
11
268.202
21
-146.631
0
LINE
8
BLACK
6
CONTINUOUS
10
268.659
20
-68.5213
11
269.059
21
-68.9213
0
LINE
8
BLACK
6
CONTINUOUS
10
269.059
20
-68.5213
11
268.659
21
-68.9213
0
LINE
8
BLACK
6
CONTINUOUS
10
268.659
20
-106.621
11
269.059
21
-107.021
0
LINE
8
BLACK
6
CONTINUOUS
10
269.059
20
-106.621
11
268.659
21
-107.021
0
LINE
8
BLACK
6
CONTINUOUS
10
270.666
20
-144.783
11
271.066
21
-145.183
0
LINE
8
BLACK
6
CONTINUOUS
10
271.066
20
-144.783
11
270.666
21
-145.183
0
LINE
8
BLACK
6
CONTINUOUS
10
272.977
20
-70.1072
11
273.377
21
-70.5072
0
LINE
8
BLACK
6
CONTINUOUS
10
273.377
20
-70.1072
11
272.977
21
-70.5072
0
LINE
8
BLACK
6
CONTINUOUS
10
273.028
20
-108.156
11
273.428
21
-108.556
0
LINE
8
BLACK
6
CONTINUOUS
10
273.428
20
-108.156
11
273.028
21
-108.556
0
LINE
8
BLACK
6
CONTINUOUS
10
273.857
20
-124.17
11
274.257
21
-124.57
0
LINE
8
BLACK
6
CONTINUOUS
10
274.257
20
-124.17
11
273.857
21
-124.57
0
LINE
8
BLACK
6
CONTINUOUS
10
273.86
20
-86.0725
11
274.26
21
-86.4725
0
LINE
8
BLACK
6
CONTINUOUS
10
274.26
20
-86.0725
11
273.86
21
-86.4725
0
LINE
8
BLACK
6
CONTINUOUS
10
273.906
20
-151.561
11
274.306
21
-151.961
0
LINE
8
BLACK
6
CONTINUOUS
10
274.306
20
-151.561
11
273.906
21
-151.961
0
LINE
8
BLACK
6
CONTINUOUS
10
275.441
20
-68.6594
11
275.841
21
-69.0594
0
LINE
8
BLACK
6
CONTINUOUS
10
275.841
20
-68.6594
11
275.441
21
-69.0594
0
LINE
8
BLACK
6
CONTINUOUS
10
275.492
20
-106.709
11
275.892
21
-107.109
0
LINE
8
BLACK
6
CONTINUOUS
10
275.892
20
-106.709
11
275.492
21
-107.109
0
LINE
8
BLACK
6
CONTINUOUS
10
278.551
20
-75.3613
11
278.951
21
-75.7613
0
LINE
8
BLACK
6
CONTINUOUS
10
278.951
20
-75.3613
11
278.551
21
-75.7613
0
LINE
8
BLACK
6
CONTINUOUS
10
278.666
20
-132.509
11
279.066
21
-132.909
0
LINE
8
BLACK
6
CONTINUOUS
10
279.066
20
-132.509
11
278.666
21
-132.909
0
LINE
8
BLACK
6
CONTINUOUS
10
278.669
20
-94.4113
11
279.069
21
-94.8113
0
LINE
8
BLACK
6
CONTINUOUS
10
279.069
20
-94.4113
11
278.669
21
-94.8113
0
LINE
8
BLACK
6
CONTINUOUS
10
278.669
20
-113.461
11
279.069
21
-113.861
0
LINE
8
BLACK
6
CONTINUOUS
10
279.069
20
-113.461
11
278.669
21
-113.861
0
LINE
8
BLACK
6
CONTINUOUS
10
279.276
20
-71.3772
11
279.676
21
-71.7772
0
LINE
8
BLACK
6
CONTINUOUS
10
279.676
20
-71.3772
11
279.276
21
-71.7772
0
LINE
8
BLACK
6
CONTINUOUS
10
279.667
20
-107.252
11
280.067
21
-107.652
0
LINE
8
BLACK
6
CONTINUOUS
10
280.067
20
-107.252
11
279.667
21
-107.652
0
CIRCLE
8
BLACK
10
150.654
20
-49.53
40
0.5
0
CIRCLE
8
BLACK
10
150.654
20
-52.07
40
0.5
0
CIRCLE
8
BLACK
10
150.654
20
-54.61
40
0.5
0
CIRCLE
8
BLACK
10
150.654
20
-57.15
40
0.5
0
CIRCLE
8
BLACK
10
153.194
20
-49.53
40
0.5
0
CIRCLE
8
BLACK
10
153.194
20
-52.07
40
0.5
0
CIRCLE
8
BLACK
10
153.194
20
-54.61
40
0.5
0
CIRCLE
8
BLACK
10
153.194
20
-57.15
40
0.5
0
CIRCLE
8
BLACK
10
178.472
20
-40.927
40
0.5
0
CIRCLE
8
BLACK
10
178.472
20
-55.427
40
0.5
0
CIRCLE
8
BLACK
10
180.972
20
-40.927
40
0.5
0
CIRCLE
8
BLACK
10
183.472
20
-40.927
40
0.5
0
CIRCLE
8
BLACK
10
183.472
20
-55.427
40
0.5
0
LINE
8
BLACK
6
CONTINUOUS
10
175.372
20
-47.677
11
175.372
21
-49.177
0
LINE
8
BLACK
6
CONTINUOUS
10
174.622
20
-48.427
11
176.122
21
-48.427
0
LINE
8
BLACK
6
CONTINUOUS
10
174.622
20
-47.777
11
174.622
21
-49.077
0
LINE
8
BLACK
6
CONTINUOUS
10
176.122
20
-47.777
11
176.122
21
-49.077
0
ARC
8
BLACK
10
175.372
20
-49.077
40
0.75
50
180
51
360
0
ARC
8
BLACK
10
175.372
20
-47.777
40
0.75
50
0
51
180
0
LINE
8
BLACK
6
CONTINUOUS
10
186.572
20
-47.677
11
186.572
21
-49.177
0
LINE
8
BLACK
6
CONTINUOUS
10
185.822
20
-48.427
11
187.322
21
-48.427
0
LINE
8
BLACK
6
CONTINUOUS
10
185.822
20
-47.777
11
185.822
21
-49.077
0
LINE
8
BLACK
6
CONTINUOUS
10
187.322
20
-47.777
11
187.322
21
-49.077
0
ARC
8
BLACK
10
186.572
20
-49.077
40
0.75
50
180
51
360
0
ARC
8
BLACK
10
186.572
20
-47.777
40
0.75
50
0
51
180
0
LINE
8
BLACK
6
CONTINUOUS
10
195.467
20
-42.127
11
195.467
21
-39.8642
0
LINE
8
BLACK
6
CONTINUOUS
10
195.467
20
-39.8642
11
193.204
21
-39.8642
0
LINE
8
BLACK
6
CONTINUOUS
10
193.204
20
-39.8642
11
193.204
21
-42.127
0
LINE
8
BLACK
6
CONTINUOUS
10
193.204
20
-42.127
11
195.467
21
-42.127
0
LINE
8
BLACK
6
CONTINUOUS
10
144.8
20
-83.6814
11
144.8
21
-81.4186
0
LINE
8
BLACK
6
CONTINUOUS
10
144.8
20
-81.4186
11
142.537
21
-81.4186
0
LINE
8
BLACK
6
CONTINUOUS
10
142.537
20
-81.4186
11
142.537
21
-83.6814
0
LINE
8
BLACK
6
CONTINUOUS
10
142.537
20
-83.6814
11
144.8
21
-83.6814
0
LINE
8
BLACK
6
CONTINUOUS
10
260.688
20
-121.781
11
260.688
21
-119.519
0
LINE
8
BLACK
6
CONTINUOUS
10
260.688
20
-119.519
11
258.425
21
-119.519
0
LINE
8
BLACK
6
CONTINUOUS
10
258.425
20
-119.519
11
258.425
21
-121.781
0
LINE
8
BLACK
6
CONTINUOUS
10
258.425
20
-121.781
11
260.688
21
-121.781
0
LINE
8
BLACK
6
CONTINUOUS
10
109.628
20
-168.582
11
109.628
21
-166.319
0
LINE
8
BLACK
6
CONTINUOUS
10
109.628
20
-166.319
11
107.366
21
-166.319
0
LINE
8
BLACK
6
CONTINUOUS
10
107.366
20
-166.319
11
107.366
21
-168.582
0
LINE
8
BLACK
6
CONTINUOUS
10
107.366
20
-168.582
11
109.628
21
-168.582
0
LINE
8
BLACK
6
CONTINUOUS
10
260.688
20
-83.6814
11
260.688
21
-81.4186
0
LINE
8
BLACK
6
CONTINUOUS
10
260.688
20
-81.4186
11
258.425
21
-81.4186
0
LINE
8
BLACK
6
CONTINUOUS
10
258.425
20
-81.4186
11
258.425
21
-83.6814
0
LINE
8
BLACK
6
CONTINUOUS
10
258.425
20
-83.6814
11
260.688
21
-83.6814
0
LINE
8
BLACK
6
CONTINUOUS
10
149.563
20
-147.181
11
149.563
21
-144.919
0
LINE
8
BLACK
6
CONTINUOUS
10
149.563
20
-144.919
11
147.3
21
-144.919
0
LINE
8
BLACK
6
CONTINUOUS
10
147.3
20
-144.919
11
147.3
21
-147.181
0
LINE
8
BLACK
6
CONTINUOUS
10
147.3
20
-147.181
11
149.563
21
-147.181
0
LINE
8
BLACK
6
CONTINUOUS
10
149.606
20
-208.56
11
149.606
21
-206.297
0
LINE
8
BLACK
6
CONTINUOUS
10
149.606
20
-206.297
11
147.343
21
-206.297
0
LINE
8
BLACK
6
CONTINUOUS
10
147.343
20
-206.297
11
147.343
21
-208.56
0
LINE
8
BLACK
6
CONTINUOUS
10
147.343
20
-208.56
11
149.606
21
-208.56
0
LINE
8
BLACK
6
CONTINUOUS
10
286.219
20
-159.246
11
286.219
21
-156.984
0
LINE
8
BLACK
6
CONTINUOUS
10
286.219
20
-156.984
11
283.957
21
-156.984
0
LINE
8
BLACK
6
CONTINUOUS
10
283.957
20
-156.984
11
283.957
21
-159.246
0
LINE
8
BLACK
6
CONTINUOUS
10
283.957
20
-159.246
11
286.219
21
-159.246
0
LINE
8
BLACK
6
CONTINUOUS
10
144.667
20
-42.154
11
144.667
21
-39.8912
0
LINE
8
BLACK
6
CONTINUOUS
10
144.667
20
-39.8912
11
142.404
21
-39.8912
0
LINE
8
BLACK
6
CONTINUOUS
10
142.404
20
-39.8912
11
142.404
21
-42.154
0
LINE
8
BLACK
6
CONTINUOUS
10
142.404
20
-42.154
11
144.667
21
-42.154
0
LINE
8
BLACK
6
CONTINUOUS
10
286.221
20
-42.154
11
286.221
21
-39.8912
0
LINE
8
BLACK
6
CONTINUOUS
10
286.221
20
-39.8912
11
283.958
21
-39.8912
0
LINE
8
BLACK
6
CONTINUOUS
10
283.958
20
-39.8912
11
283.958
21
-42.154
0
LINE
8
BLACK
6
CONTINUOUS
10
283.958
20
-42.154
11
286.221
21
-42.154
0
LINE
8
BLACK
6
CONTINUOUS
10
108.156
20
-215.291
11
108.156
21
-212.291
0
LINE
8
BLACK
6
CONTINUOUS
10
108.156
20
-212.291
11
108.87
21
-212.291
0
LINE
8
BLACK
6
CONTINUOUS
10
108.87
20
-212.291
11
109.299
21
-212.433
0
LINE
8
BLACK
6
CONTINUOUS
10
109.299
20
-212.433
11
109.585
21
-212.719
0
LINE
8
BLACK
6
CONTINUOUS
10
109.585
20
-212.719
11
109.727
21
-213.005
0
LINE
8
BLACK
6
CONTINUOUS
10
109.727
20
-213.005
11
109.87
21
-213.576
0
LINE
8
BLACK
6
CONTINUOUS
10
109.87
20
-213.576
11
109.87
21
-214.005
0
LINE
8
BLACK
6
CONTINUOUS
10
109.87
20
-214.005
11
109.727
21
-214.576
0
LINE
8
BLACK
6
CONTINUOUS
10
109.727
20
-214.576
11
109.585
21
-214.862
0
LINE
8
BLACK
6
CONTINUOUS
10
109.585
20
-214.862
11
109.299
21
-215.148
0
LINE
8
BLACK
6
CONTINUOUS
10
109.299
20
-215.148
11
108.87
21
-215.291
0
LINE
8
BLACK
6
CONTINUOUS
10
108.87
20
-215.291
11
108.156
21
-215.291
0
LINE
8
BLACK
6
CONTINUOUS
10
111.156
20
-215.291
11
111.156
21
-213.291
0
LINE
8
BLACK
6
CONTINUOUS
10
111.156
20
-213.862
11
111.299
21
-213.576
0
LINE
8
BLACK
6
CONTINUOUS
10
111.299
20
-213.576
11
111.442
21
-213.433
0
LINE
8
BLACK
6
CONTINUOUS
10
111.442
20
-213.433
11
111.727
21
-213.291
0
LINE
8
BLACK
6
CONTINUOUS
10
111.727
20
-213.291
11
112.013
21
-213.291
0
LINE
8
BLACK
6
CONTINUOUS
10
113.013
20
-215.291
11
113.013
21
-213.291
0
LINE
8
BLACK
6
CONTINUOUS
10
113.013
20
-212.291
11
112.87
21
-212.433
0
LINE
8
BLACK
6
CONTINUOUS
10
112.87
20
-212.433
11
113.013
21
-212.576
0
LINE
8
BLACK
6
CONTINUOUS
10
113.013
20
-212.576
11
113.156
21
-212.433
0
LINE
8
BLACK
6
CONTINUOUS
10
113.156
20
-212.433
11
113.013
21
-212.291
0
LINE
8
BLACK
6
CONTINUOUS
10
113.013
20
-212.291
11
113.013
21
-212.576
0
LINE
8
BLACK
6
CONTINUOUS
10
114.87
20
-215.291
11
114.585
21
-215.148
0
LINE
8
BLACK
6
CONTINUOUS
10
114.585
20
-215.148
11
114.442
21
-214.862
0
LINE
8
BLACK
6
CONTINUOUS
10
114.442
20
-214.862
11
114.442
21
-212.291
0
LINE
8
BLACK
6
CONTINUOUS
10
116.442
20
-215.291
11
116.156
21
-215.148
0
LINE
8
BLACK
6
CONTINUOUS
10
116.156
20
-215.148
11
116.013
21
-214.862
0
LINE
8
BLACK
6
CONTINUOUS
10
116.013
20
-214.862
11
116.013
21
-212.291
0
LINE
8
BLACK
6
CONTINUOUS
10
119.87
20
-215.291
11
119.87
21
-212.291
0
LINE
8
BLACK
6
CONTINUOUS
10
119.87
20
-212.291
11
120.87
21
-214.433
0
LINE
8
BLACK
6
CONTINUOUS
10
120.87
20
-214.433
11
121.87
21
-212.291
0
LINE
8
BLACK
6
CONTINUOUS
10
121.87
20
-212.291
11
121.87
21
-215.291
0
LINE
8
BLACK
6
CONTINUOUS
10
124.585
20
-215.291
11
124.585
21
-213.719
0
LINE
8
BLACK
6
CONTINUOUS
10
124.585
20
-213.719
11
124.442
21
-213.433
0
LINE
8
BLACK
6
CONTINUOUS
10
124.442
20
-213.433
11
124.156
21
-213.291
0
LINE
8
BLACK
6
CONTINUOUS
10
124.156
20
-213.291
11
123.585
21
-213.291
0
LINE
8
BLACK
6
CONTINUOUS
10
123.585
20
-213.291
11
123.299
21
-213.433
0
LINE
8
BLACK
6
CONTINUOUS
10
124.585
20
-215.148
11
124.299
21
-215.291
0
LINE
8
BLACK
6
CONTINUOUS
10
124.299
20
-215.291
11
123.585
21
-215.291
0
LINE
8
BLACK
6
CONTINUOUS
10
123.585
20
-215.291
11
123.299
21
-215.148
0
LINE
8
BLACK
6
CONTINUOUS
10
123.299
20
-215.148
11
123.156
21
-214.862
0
LINE
8
BLACK
6
CONTINUOUS
10
123.156
20
-214.862
11
123.156
21
-214.576
0
LINE
8
BLACK
6
CONTINUOUS
10
123.156
20
-214.576
11
123.299
21
-214.291
0
LINE
8
BLACK
6
CONTINUOUS
10
123.299
20
-214.291
11
123.585
21
-214.148
0
LINE
8
BLACK
6
CONTINUOUS
10
123.585
20
-214.148
11
124.299
21
-214.148
0
LINE
8
BLACK
6
CONTINUOUS
10
124.299
20
-214.148
11
124.585
21
-214.005
0
LINE
8
BLACK
6
CONTINUOUS
10
126.013
20
-213.291
11
126.013
21
-216.291
0
LINE
8
BLACK
6
CONTINUOUS
10
126.013
20
-213.433
11
126.299
21
-213.291
0
LINE
8
BLACK
6
CONTINUOUS
10
126.299
20
-213.291
11
126.87
21
-213.291
0
LINE
8
BLACK
6
CONTINUOUS
10
126.87
20
-213.291
11
127.156
21
-213.433
0
LINE
8
BLACK
6
CONTINUOUS
10
127.156
20
-213.433
11
127.299
21
-213.576
0
LINE
8
BLACK
6
CONTINUOUS
10
127.299
20
-213.576
11
127.442
21
-213.862
0
LINE
8
BLACK
6
CONTINUOUS
10
127.442
20
-213.862
11
127.442
21
-214.719
0
LINE
8
BLACK
6
CONTINUOUS
10
127.442
20
-214.719
11
127.299
21
-215.005
0
LINE
8
BLACK
6
CONTINUOUS
10
127.299
20
-215.005
11
127.156
21
-215.148
0
LINE
8
BLACK
6
CONTINUOUS
10
127.156
20
-215.148
11
126.87
21
-215.291
0
LINE
8
BLACK
6
CONTINUOUS
10
126.87
20
-215.291
11
126.299
21
-215.291
0
LINE
8
BLACK
6
CONTINUOUS
10
126.299
20
-215.291
11
126.013
21
-215.148
0
LINE
8
BLACK
6
CONTINUOUS
10
128.727
20
-215.005
11
128.87
21
-215.148
0
LINE
8
BLACK
6
CONTINUOUS
10
128.87
20
-215.148
11
128.727
21
-215.291
0
LINE
8
BLACK
6
CONTINUOUS
10
128.727
20
-215.291
11
128.585
21
-215.148
0
LINE
8
BLACK
6
CONTINUOUS
10
128.585
20
-215.148
11
128.727
21
-215.005
0
LINE
8
BLACK
6
CONTINUOUS
10
128.727
20
-215.005
11
128.727
21
-215.291
0
LINE
8
BLACK
6
CONTINUOUS
10
128.727
20
-213.433
11
128.87
21
-213.576
0
LINE
8
BLACK
6
CONTINUOUS
10
128.87
20
-213.576
11
128.727
21
-213.719
0
LINE
8
BLACK
6
CONTINUOUS
10
128.727
20
-213.719
11
128.585
21
-213.576
0
LINE
8
BLACK
6
CONTINUOUS
10
128.585
20
-213.576
11
128.727
21
-213.433
0
LINE
8
BLACK
6
CONTINUOUS
10
128.727
20
-213.433
11
128.727
21
-213.719
0
LINE
8
BLACK
6
CONTINUOUS
10
104.892
20
-220.033
11
105.292
21
-220.433
0
LINE
8
BLACK
6
CONTINUOUS
10
105.292
20
-220.033
11
104.892
21
-220.433
0
LINE
8
BLACK
6
CONTINUOUS
10
108.727
20
-218.591
11
109.013
21
-218.591
0
LINE
8
BLACK
6
CONTINUOUS
10
109.013
20
-218.591
11
109.299
21
-218.733
0
LINE
8
BLACK
6
CONTINUOUS
10
109.299
20
-218.733
11
109.442
21
-218.876
0
LINE
8
BLACK
6
CONTINUOUS
10
109.442
20
-218.876
11
109.585
21
-219.162
0
LINE
8
BLACK
6
CONTINUOUS
10
109.585
20
-219.162
11
109.727
21
-219.733
0
LINE
8
BLACK
6
CONTINUOUS
10
109.727
20
-219.733
11
109.727
21
-220.448
0
LINE
8
BLACK
6
CONTINUOUS
10
109.727
20
-220.448
11
109.585
21
-221.019
0
LINE
8
BLACK
6
CONTINUOUS
10
109.585
20
-221.019
11
109.442
21
-221.305
0
LINE
8
BLACK
6
CONTINUOUS
10
109.442
20
-221.305
11
109.299
21
-221.448
0
LINE
8
BLACK
6
CONTINUOUS
10
109.299
20
-221.448
11
109.013
21
-221.591
0
LINE
8
BLACK
6
CONTINUOUS
10
109.013
20
-221.591
11
108.727
21
-221.591
0
LINE
8
BLACK
6
CONTINUOUS
10
108.727
20
-221.591
11
108.442
21
-221.448
0
LINE
8
BLACK
6
CONTINUOUS
10
108.442
20
-221.448
11
108.299
21
-221.305
0
LINE
8
BLACK
6
CONTINUOUS
10
108.299
20
-221.305
11
108.156
21
-221.019
0
LINE
8
BLACK
6
CONTINUOUS
10
108.156
20
-221.019
11
108.013
21
-220.448
0
LINE
8
BLACK
6
CONTINUOUS
10
108.013
20
-220.448
11
108.013
21
-219.733
0
LINE
8
BLACK
6
CONTINUOUS
10
108.013
20
-219.733
11
108.156
21
-219.162
0
LINE
8
BLACK
6
CONTINUOUS
10
108.156
20
-219.162
11
108.299
21
-218.876
0
LINE
8
BLACK
6
CONTINUOUS
10
108.299
20
-218.876
11
108.442
21
-218.733
0
LINE
8
BLACK
6
CONTINUOUS
10
108.442
20
-218.733
11
108.727
21
-218.591
0
LINE
8
BLACK
6
CONTINUOUS
10
111.013
20
-221.305
11
111.156
21
-221.448
0
LINE
8
BLACK
6
CONTINUOUS
10
111.156
20
-221.448
11
111.013
21
-221.591
0
LINE
8
BLACK
6
CONTINUOUS
10
111.013
20
-221.591
11
110.87
21
-221.448
0
LINE
8
BLACK
6
CONTINUOUS
10
110.87
20
-221.448
11
111.013
21
-221.305
0
LINE
8
BLACK
6
CONTINUOUS
10
111.013
20
-221.305
11
111.013
21
-221.591
0
LINE
8
BLACK
6
CONTINUOUS
10
113.727
20
-219.591
11
113.727
21
-221.591
0
LINE
8
BLACK
6
CONTINUOUS
10
113.013
20
-218.448
11
112.299
21
-220.591
0
LINE
8
BLACK
6
CONTINUOUS
10
112.299
20
-220.591
11
114.156
21
-220.591
0
LINE
8
BLACK
6
CONTINUOUS
10
115.87
20
-218.591
11
116.156
21
-218.591
0
LINE
8
BLACK
6
CONTINUOUS
10
116.156
20
-218.591
11
116.442
21
-218.733
0
LINE
8
BLACK
6
CONTINUOUS
10
116.442
20
-218.733
11
116.585
21
-218.876
0
LINE
8
BLACK
6
CONTINUOUS
10
116.585
20
-218.876
11
116.727
21
-219.162
0
LINE
8
BLACK
6
CONTINUOUS
10
116.727
20
-219.162
11
116.87
21
-219.733
0
LINE
8
BLACK
6
CONTINUOUS
10
116.87
20
-219.733
11
116.87
21
-220.448
0
LINE
8
BLACK
6
CONTINUOUS
10
116.87
20
-220.448
11
116.727
21
-221.019
0
LINE
8
BLACK
6
CONTINUOUS
10
116.727
20
-221.019
11
116.585
21
-221.305
0
LINE
8
BLACK
6
CONTINUOUS
10
116.585
20
-221.305
11
116.442
21
-221.448
0
LINE
8
BLACK
6
CONTINUOUS
10
116.442
20
-221.448
11
116.156
21
-221.591
0
LINE
8
BLACK
6
CONTINUOUS
10
116.156
20
-221.591
11
115.87
21
-221.591
0
LINE
8
BLACK
6
CONTINUOUS
10
115.87
20
-221.591
11
115.585
21
-221.448
0
LINE
8
BLACK
6
CONTINUOUS
10
115.585
20
-221.448
11
115.442
21
-221.305
0
LINE
8
BLACK
6
CONTINUOUS
10
115.442
20
-221.305
11
115.299
21
-221.019
0
LINE
8
BLACK
6
CONTINUOUS
10
115.299
20
-221.019
11
115.156
21
-220.448
0
LINE
8
BLACK
6
CONTINUOUS
10
115.156
20
-220.448
11
115.156
21
-219.733
0
LINE
8
BLACK
6
CONTINUOUS
10
115.156
20
-219.733
11
115.299
21
-219.162
0
LINE
8
BLACK
6
CONTINUOUS
10
115.299
20
-219.162
11
115.442
21
-218.876
0
LINE
8
BLACK
6
CONTINUOUS
10
115.442
20
-218.876
11
115.585
21
-218.733
0
LINE
8
BLACK
6
CONTINUOUS
10
115.585
20
-218.733
11
115.87
21
-218.591
0
LINE
8
BLACK
6
CONTINUOUS
10
118.156
20
-221.591
11
118.156
21
-219.591
0
LINE
8
BLACK
6
CONTINUOUS
10
118.156
20
-219.876
11
118.299
21
-219.733
0
LINE
8
BLACK
6
CONTINUOUS
10
118.299
20
-219.733
11
118.585
21
-219.591
0
LINE
8
BLACK
6
CONTINUOUS
10
118.585
20
-219.591
11
119.013
21
-219.591
0
LINE
8
BLACK
6
CONTINUOUS
10
119.013
20
-219.591
11
119.299
21
-219.733
0
LINE
8
BLACK
6
CONTINUOUS
10
119.299
20
-219.733
11
119.442
21
-220.019
0
LINE
8
BLACK
6
CONTINUOUS
10
119.442
20
-220.019
11
119.442
21
-221.591
0
LINE
8
BLACK
6
CONTINUOUS
10
119.442
20
-220.019
11
119.585
21
-219.733
0
LINE
8
BLACK
6
CONTINUOUS
10
119.585
20
-219.733
11
119.87
21
-219.591
0
LINE
8
BLACK
6
CONTINUOUS
10
119.87
20
-219.591
11
120.299
21
-219.591
0
LINE
8
BLACK
6
CONTINUOUS
10
120.299
20
-219.591
11
120.585
21
-219.733
0
LINE
8
BLACK
6
CONTINUOUS
10
120.585
20
-219.733
11
120.727
21
-220.019
0
LINE
8
BLACK
6
CONTINUOUS
10
120.727
20
-220.019
11
120.727
21
-221.591
0
LINE
8
BLACK
6
CONTINUOUS
10
122.156
20
-221.591
11
122.156
21
-219.591
0
LINE
8
BLACK
6
CONTINUOUS
10
122.156
20
-219.876
11
122.299
21
-219.733
0
LINE
8
BLACK
6
CONTINUOUS
10
122.299
20
-219.733
11
122.585
21
-219.591
0
LINE
8
BLACK
6
CONTINUOUS
10
122.585
20
-219.591
11
123.013
21
-219.591
0
LINE
8
BLACK
6
CONTINUOUS
10
123.013
20
-219.591
11
123.299
21
-219.733
0
LINE
8
BLACK
6
CONTINUOUS
10
123.299
20
-219.733
11
123.442
21
-220.019
0
LINE
8
BLACK
6
CONTINUOUS
10
123.442
20
-220.019
11
123.442
21
-221.591
0
LINE
8
BLACK
6
CONTINUOUS
10
123.442
20
-220.019
11
123.585
21
-219.733
0
LINE
8
BLACK
6
CONTINUOUS
10
123.585
20
-219.733
11
123.87
21
-219.591
0
LINE
8
BLACK
6
CONTINUOUS
10
123.87
20
-219.591
11
124.299
21
-219.591
0
LINE
8
BLACK
6
CONTINUOUS
10
124.299
20
-219.591
11
124.585
21
-219.733
0
LINE
8
BLACK
6
CONTINUOUS
10
124.585
20
-219.733
11
124.727
21
-220.019
0
LINE
8
BLACK
6
CONTINUOUS
10
124.727
20
-220.019
11
124.727
21
-221.591
0
LINE
8
BLACK
6
CONTINUOUS
10
130.585
20
-218.448
11
128.013
21
-222.305
0
LINE
8
BLACK
6
CONTINUOUS
10
134.442
20
-218.591
11
134.727
21
-218.591
0
LINE
8
BLACK
6
CONTINUOUS
10
134.727
20
-218.591
11
135.013
21
-218.733
0
LINE
8
BLACK
6
CONTINUOUS
10
135.013
20
-218.733
11
135.156
21
-218.876
0
LINE
8
BLACK
6
CONTINUOUS
10
135.156
20
-218.876
11
135.299
21
-219.162
0
LINE
8
BLACK
6
CONTINUOUS
10
135.299
20
-219.162
11
135.442
21
-219.733
0
LINE
8
BLACK
6
CONTINUOUS
10
135.442
20
-219.733
11
135.442
21
-220.448
0
LINE
8
BLACK
6
CONTINUOUS
10
135.442
20
-220.448
11
135.299
21
-221.019
0
LINE
8
BLACK
6
CONTINUOUS
10
135.299
20
-221.019
11
135.156
21
-221.305
0
LINE
8
BLACK
6
CONTINUOUS
10
135.156
20
-221.305
11
135.013
21
-221.448
0
LINE
8
BLACK
6
CONTINUOUS
10
135.013
20
-221.448
11
134.727
21
-221.591
0
LINE
8
BLACK
6
CONTINUOUS
10
134.727
20
-221.591
11
134.442
21
-221.591
0
LINE
8
BLACK
6
CONTINUOUS
10
134.442
20
-221.591
11
134.156
21
-221.448
0
LINE
8
BLACK
6
CONTINUOUS
10
134.156
20
-221.448
11
134.013
21
-221.305
0
LINE
8
BLACK
6
CONTINUOUS
10
134.013
20
-221.305
11
133.87
21
-221.019
0
LINE
8
BLACK
6
CONTINUOUS
10
133.87
20
-221.019
11
133.727
21
-220.448
0
LINE
8
BLACK
6
CONTINUOUS
10
133.727
20
-220.448
11
133.727
21
-219.733
0
LINE
8
BLACK
6
CONTINUOUS
10
133.727
20
-219.733
11
133.87
21
-219.162
0
LINE
8
BLACK
6
CONTINUOUS
10
133.87
20
-219.162
11
134.013
21
-218.876
0
LINE
8
BLACK
6
CONTINUOUS
10
134.013
20
-218.876
11
134.156
21
-218.733
0
LINE
8
BLACK
6
CONTINUOUS
10
134.156
20
-218.733
11
134.442
21
-218.591
0
LINE
8
BLACK
6
CONTINUOUS
10
136.727
20
-221.305
11
136.87
21
-221.448
0
LINE
8
BLACK
6
CONTINUOUS
10
136.87
20
-221.448
11
136.727
21
-221.591
0
LINE
8
BLACK
6
CONTINUOUS
10
136.727
20
-221.591
11
136.585
21
-221.448
0
LINE
8
BLACK
6
CONTINUOUS
10
136.585
20
-221.448
11
136.727
21
-221.305
0
LINE
8
BLACK
6
CONTINUOUS
10
136.727
20
-221.305
11
136.727
21
-221.591
0
LINE
8
BLACK
6
CONTINUOUS
10
138.727
20
-218.591
11
139.013
21
-218.591
0
LINE
8
BLACK
6
CONTINUOUS
10
139.013
20
-218.591
11
139.299
21
-218.733
0
LINE
8
BLACK
6
CONTINUOUS
10
139.299
20
-218.733
11
139.442
21
-218.876
0
LINE
8
BLACK
6
CONTINUOUS
10
139.442
20
-218.876
11
139.585
21
-219.162
0
LINE
8
BLACK
6
CONTINUOUS
10
139.585
20
-219.162
11
139.727
21
-219.733
0
LINE
8
BLACK
6
CONTINUOUS
10
139.727
20
-219.733
11
139.727
21
-220.448
0
LINE
8
BLACK
6
CONTINUOUS
10
139.727
20
-220.448
11
139.585
21
-221.019
0
LINE
8
BLACK
6
CONTINUOUS
10
139.585
20
-221.019
11
139.442
21
-221.305
0
LINE
8
BLACK
6
CONTINUOUS
10
139.442
20
-221.305
11
139.299
21
-221.448
0
LINE
8
BLACK
6
CONTINUOUS
10
139.299
20
-221.448
11
139.013
21
-221.591
0
LINE
8
BLACK
6
CONTINUOUS
10
139.013
20
-221.591
11
138.727
21
-221.591
0
LINE
8
BLACK
6
CONTINUOUS
10
138.727
20
-221.591
11
138.442
21
-221.448
0
LINE
8
BLACK
6
CONTINUOUS
10
138.442
20
-221.448
11
138.299
21
-221.305
0
LINE
8
BLACK
6
CONTINUOUS
10
138.299
20
-221.305
11
138.156
21
-221.019
0
LINE
8
BLACK
6
CONTINUOUS
10
138.156
20
-221.019
11
138.013
21
-220.448
0
LINE
8
BLACK
6
CONTINUOUS
10
138.013
20
-220.448
11
138.013
21
-219.733
0
LINE
8
BLACK
6
CONTINUOUS
10
138.013
20
-219.733
11
138.156
21
-219.162
0
LINE
8
BLACK
6
CONTINUOUS
10
138.156
20
-219.162
11
138.299
21
-218.876
0
LINE
8
BLACK
6
CONTINUOUS
10
138.299
20
-218.876
11
138.442
21
-218.733
0
LINE
8
BLACK
6
CONTINUOUS
10
138.442
20
-218.733
11
138.727
21
-218.591
0
LINE
8
BLACK
6
CONTINUOUS
10
142.585
20
-221.591
11
140.87
21
-221.591
0
LINE
8
BLACK
6
CONTINUOUS
10
141.727
20
-221.591
11
141.727
21
-218.591
0
LINE
8
BLACK
6
CONTINUOUS
10
141.727
20
-218.591
11
141.442
21
-219.019
0
LINE
8
BLACK
6
CONTINUOUS
10
141.442
20
-219.019
11
141.156
21
-219.305
0
LINE
8
BLACK
6
CONTINUOUS
10
141.156
20
-219.305
11
140.87
21
-219.448
0
LINE
8
BLACK
6
CONTINUOUS
10
145.156
20
-218.591
11
144.585
21
-218.591
0
LINE
8
BLACK
6
CONTINUOUS
10
144.585
20
-218.591
11
144.299
21
-218.733
0
LINE
8
BLACK
6
CONTINUOUS
10
144.299
20
-218.733
11
144.156
21
-218.876
0
LINE
8
BLACK
6
CONTINUOUS
10
144.156
20
-218.876
11
143.87
21
-219.305
0
LINE
8
BLACK
6
CONTINUOUS
10
143.87
20
-219.305
11
143.727
21
-219.876
0
LINE
8
BLACK
6
CONTINUOUS
10
143.727
20
-219.876
11
143.727
21
-221.019
0
LINE
8
BLACK
6
CONTINUOUS
10
143.727
20
-221.019
11
143.87
21
-221.305
0
LINE
8
BLACK
6
CONTINUOUS
10
143.87
20
-221.305
11
144.013
21
-221.448
0
LINE
8
BLACK
6
CONTINUOUS
10
144.013
20
-221.448
11
144.299
21
-221.591
0
LINE
8
BLACK
6
CONTINUOUS
10
144.299
20
-221.591
11
144.87
21
-221.591
0
LINE
8
BLACK
6
CONTINUOUS
10
144.87
20
-221.591
11
145.156
21
-221.448
0
LINE
8
BLACK
6
CONTINUOUS
10
145.156
20
-221.448
11
145.299
21
-221.305
0
LINE
8
BLACK
6
CONTINUOUS
10
145.299
20
-221.305
11
145.442
21
-221.019
0
LINE
8
BLACK
6
CONTINUOUS
10
145.442
20
-221.019
11
145.442
21
-220.305
0
LINE
8
BLACK
6
CONTINUOUS
10
145.442
20
-220.305
11
145.299
21
-220.019
0
LINE
8
BLACK
6
CONTINUOUS
10
145.299
20
-220.019
11
145.156
21
-219.876
0
LINE
8
BLACK
6
CONTINUOUS
10
145.156
20
-219.876
11
144.87
21
-219.733
0
LINE
8
BLACK
6
CONTINUOUS
10
144.87
20
-219.733
11
144.299
21
-219.733
0
LINE
8
BLACK
6
CONTINUOUS
10
144.299
20
-219.733
11
144.013
21
-219.876
0
LINE
8
BLACK
6
CONTINUOUS
10
144.013
20
-219.876
11
143.87
21
-220.019
0
LINE
8
BLACK
6
CONTINUOUS
10
143.87
20
-220.019
11
143.727
21
-220.305
0
LINE
8
BLACK
6
CONTINUOUS
10
146.585
20
-218.591
11
146.585
21
-219.162
0
LINE
8
BLACK
6
CONTINUOUS
10
147.727
20
-218.591
11
147.727
21
-219.162
0
LINE
8
BLACK
6
CONTINUOUS
10
152.156
20
-222.733
11
152.013
21
-222.591
0
LINE
8
BLACK
6
CONTINUOUS
10
152.013
20
-222.591
11
151.727
21
-222.162
0
LINE
8
BLACK
6
CONTINUOUS
10
151.727
20
-222.162
11
151.585
21
-221.876
0
LINE
8
BLACK
6
CONTINUOUS
10
151.585
20
-221.876
11
151.442
21
-221.448
0
LINE
8
BLACK
6
CONTINUOUS
10
151.442
20
-221.448
11
151.299
21
-220.733
0
LINE
8
BLACK
6
CONTINUOUS
10
151.299
20
-220.733
11
151.299
21
-220.162
0
LINE
8
BLACK
6
CONTINUOUS
10
151.299
20
-220.162
11
151.442
21
-219.448
0
LINE
8
BLACK
6
CONTINUOUS
10
151.442
20
-219.448
11
151.585
21
-219.019
0
LINE
8
BLACK
6
CONTINUOUS
10
151.585
20
-219.019
11
151.727
21
-218.733
0
LINE
8
BLACK
6
CONTINUOUS
10
151.727
20
-218.733
11
152.013
21
-218.305
0
LINE
8
BLACK
6
CONTINUOUS
10
152.013
20
-218.305
11
152.156
21
-218.162
0
LINE
8
BLACK
6
CONTINUOUS
10
153.156
20
-218.876
11
153.299
21
-218.733
0
LINE
8
BLACK
6
CONTINUOUS
10
153.299
20
-218.733
11
153.585
21
-218.591
0
LINE
8
BLACK
6
CONTINUOUS
10
153.585
20
-218.591
11
154.299
21
-218.591
0
LINE
8
BLACK
6
CONTINUOUS
10
154.299
20
-218.591
11
154.585
21
-218.733
0
LINE
8
BLACK
6
CONTINUOUS
10
154.585
20
-218.733
11
154.727
21
-218.876
0
LINE
8
BLACK
6
CONTINUOUS
10
154.727
20
-218.876
11
154.87
21
-219.162
0
LINE
8
BLACK
6
CONTINUOUS
10
154.87
20
-219.162
11
154.87
21
-219.448
0
LINE
8
BLACK
6
CONTINUOUS
10
154.87
20
-219.448
11
154.727
21
-219.876
0
LINE
8
BLACK
6
CONTINUOUS
10
154.727
20
-219.876
11
153.013
21
-221.591
0
LINE
8
BLACK
6
CONTINUOUS
10
153.013
20
-221.591
11
154.87
21
-221.591
0
LINE
8
BLACK
6
CONTINUOUS
10
156.299
20
-221.591
11
156.87
21
-221.591
0
LINE
8
BLACK
6
CONTINUOUS
10
156.87
20
-221.591
11
157.156
21
-221.448
0
LINE
8
BLACK
6
CONTINUOUS
10
157.156
20
-221.448
11
157.299
21
-221.305
0
LINE
8
BLACK
6
CONTINUOUS
10
157.299
20
-221.305
11
157.585
21
-220.876
0
LINE
8
BLACK
6
CONTINUOUS
10
157.585
20
-220.876
11
157.727
21
-220.305
0
LINE
8
BLACK
6
CONTINUOUS
10
157.727
20
-220.305
11
157.727
21
-219.162
0
LINE
8
BLACK
6
CONTINUOUS
10
157.727
20
-219.162
11
157.585
21
-218.876
0
LINE
8
BLACK
6
CONTINUOUS
10
157.585
20
-218.876
11
157.442
21
-218.733
0
LINE
8
BLACK
6
CONTINUOUS
10
157.442
20
-218.733
11
157.156
21
-218.591
0
LINE
8
BLACK
6
CONTINUOUS
10
157.156
20
-218.591
11
156.585
21
-218.591
0
LINE
8
BLACK
6
CONTINUOUS
10
156.585
20
-218.591
11
156.299
21
-218.733
0
LINE
8
BLACK
6
CONTINUOUS
10
156.299
20
-218.733
11
156.156
21
-218.876
0
LINE
8
BLACK
6
CONTINUOUS
10
156.156
20
-218.876
11
156.013
21
-219.162
0
LINE
8
BLACK
6
CONTINUOUS
10
156.013
20
-219.162
11
156.013
21
-219.876
0
LINE
8
BLACK
6
CONTINUOUS
10
156.013
20
-219.876
11
156.156
21
-220.162
0
LINE
8
BLACK
6
CONTINUOUS
10
156.156
20
-220.162
11
156.299
21
-220.305
0
LINE
8
BLACK
6
CONTINUOUS
10
156.299
20
-220.305
11
156.585
21
-220.448
0
LINE
8
BLACK
6
CONTINUOUS
10
156.585
20
-220.448
11
157.156
21
-220.448
0
LINE
8
BLACK
6
CONTINUOUS
10
157.156
20
-220.448
11
157.442
21
-220.305
0
LINE
8
BLACK
6
CONTINUOUS
10
157.442
20
-220.305
11
157.585
21
-220.162
0
LINE
8
BLACK
6
CONTINUOUS
10
157.585
20
-220.162
11
157.727
21
-219.876
0
LINE
8
BLACK
6
CONTINUOUS
10
159.585
20
-218.591
11
159.87
21
-218.591
0
LINE
8
BLACK
6
CONTINUOUS
10
159.87
20
-218.591
11
160.156
21
-218.733
0
LINE
8
BLACK
6
CONTINUOUS
10
160.156
20
-218.733
11
160.299
21
-218.876
0
LINE
8
BLACK
6
CONTINUOUS
10
160.299
20
-218.876
11
160.442
21
-219.162
0
LINE
8
BLACK
6
CONTINUOUS
10
160.442
20
-219.162
11
160.585
21
-219.733
0
LINE
8
BLACK
6
CONTINUOUS
10
160.585
20
-219.733
11
160.585
21
-220.448
0
LINE
8
BLACK
6
CONTINUOUS
10
160.585
20
-220.448
11
160.442
21
-221.019
0
LINE
8
BLACK
6
CONTINUOUS
10
160.442
20
-221.019
11
160.299
21
-221.305
0
LINE
8
BLACK
6
CONTINUOUS
10
160.299
20
-221.305
11
160.156
21
-221.448
0
LINE
8
BLACK
6
CONTINUOUS
10
160.156
20
-221.448
11
159.87
21
-221.591
0
LINE
8
BLACK
6
CONTINUOUS
10
159.87
20
-221.591
11
159.585
21
-221.591
0
LINE
8
BLACK
6
CONTINUOUS
10
159.585
20
-221.591
11
159.299
21
-221.448
0
LINE
8
BLACK
6
CONTINUOUS
10
159.299
20
-221.448
11
159.156
21
-221.305
0
LINE
8
BLACK
6
CONTINUOUS
10
159.156
20
-221.305
11
159.013
21
-221.019
0
LINE
8
BLACK
6
CONTINUOUS
10
159.013
20
-221.019
11
158.87
21
-220.448
0
LINE
8
BLACK
6
CONTINUOUS
10
158.87
20
-220.448
11
158.87
21
-219.733
0
LINE
8
BLACK
6
CONTINUOUS
10
158.87
20
-219.733
11
159.013
21
-219.162
0
LINE
8
BLACK
6
CONTINUOUS
10
159.013
20
-219.162
11
159.156
21
-218.876
0
LINE
8
BLACK
6
CONTINUOUS
10
159.156
20
-218.876
11
159.299
21
-218.733
0
LINE
8
BLACK
6
CONTINUOUS
10
159.299
20
-218.733
11
159.585
21
-218.591
0
LINE
8
BLACK
6
CONTINUOUS
10
164.156
20
-221.591
11
164.156
21
-218.591
0
LINE
8
BLACK
6
CONTINUOUS
10
165.442
20
-221.591
11
165.442
21
-220.019
0
LINE
8
BLACK
6
CONTINUOUS
10
165.442
20
-220.019
11
165.299
21
-219.733
0
LINE
8
BLACK
6
CONTINUOUS
10
165.299
20
-219.733
11
165.013
21
-219.591
0
LINE
8
BLACK
6
CONTINUOUS
10
165.013
20
-219.591
11
164.585
21
-219.591
0
LINE
8
BLACK
6
CONTINUOUS
10
164.585
20
-219.591
11
164.299
21
-219.733
0
LINE
8
BLACK
6
CONTINUOUS
10
164.299
20
-219.733
11
164.156
21
-219.876
0
LINE
8
BLACK
6
CONTINUOUS
10
167.299
20
-221.591
11
167.013
21
-221.448
0
LINE
8
BLACK
6
CONTINUOUS
10
167.013
20
-221.448
11
166.87
21
-221.305
0
LINE
8
BLACK
6
CONTINUOUS
10
166.87
20
-221.305
11
166.727
21
-221.019
0
LINE
8
BLACK
6
CONTINUOUS
10
166.727
20
-221.019
11
166.727
21
-220.162
0
LINE
8
BLACK
6
CONTINUOUS
10
166.727
20
-220.162
11
166.87
21
-219.876
0
LINE
8
BLACK
6
CONTINUOUS
10
166.87
20
-219.876
11
167.013
21
-219.733
0
LINE
8
BLACK
6
CONTINUOUS
10
167.013
20
-219.733
11
167.299
21
-219.591
0
LINE
8
BLACK
6
CONTINUOUS
10
167.299
20
-219.591
11
167.727
21
-219.591
0
LINE
8
BLACK
6
CONTINUOUS
10
167.727
20
-219.591
11
168.013
21
-219.733
0
LINE
8
BLACK
6
CONTINUOUS
10
168.013
20
-219.733
11
168.156
21
-219.876
0
LINE
8
BLACK
6
CONTINUOUS
10
168.156
20
-219.876
11
168.299
21
-220.162
0
LINE
8
BLACK
6
CONTINUOUS
10
168.299
20
-220.162
11
168.299
21
-221.019
0
LINE
8
BLACK
6
CONTINUOUS
10
168.299
20
-221.019
11
168.156
21
-221.305
0
LINE
8
BLACK
6
CONTINUOUS
10
168.156
20
-221.305
11
168.013
21
-221.448
0
LINE
8
BLACK
6
CONTINUOUS
10
168.013
20
-221.448
11
167.727
21
-221.591
0
LINE
8
BLACK
6
CONTINUOUS
10
167.727
20
-221.591
11
167.299
21
-221.591
0
LINE
8
BLACK
6
CONTINUOUS
10
170.013
20
-221.591
11
169.727
21
-221.448
0
LINE
8
BLACK
6
CONTINUOUS
10
169.727
20
-221.448
11
169.585
21
-221.162
0
LINE
8
BLACK
6
CONTINUOUS
10
169.585
20
-221.162
11
169.585
21
-218.591
0
LINE
8
BLACK
6
CONTINUOUS
10
172.299
20
-221.448
11
172.013
21
-221.591
0
LINE
8
BLACK
6
CONTINUOUS
10
172.013
20
-221.591
11
171.442
21
-221.591
0
LINE
8
BLACK
6
CONTINUOUS
10
171.442
20
-221.591
11
171.156
21
-221.448
0
LINE
8
BLACK
6
CONTINUOUS
10
171.156
20
-221.448
11
171.013
21
-221.162
0
LINE
8
BLACK
6
CONTINUOUS
10
171.013
20
-221.162
11
171.013
21
-220.019
0
LINE
8
BLACK
6
CONTINUOUS
10
171.013
20
-220.019
11
171.156
21
-219.733
0
LINE
8
BLACK
6
CONTINUOUS
10
171.156
20
-219.733
11
171.442
21
-219.591
0
LINE
8
BLACK
6
CONTINUOUS
10
171.442
20
-219.591
11
172.013
21
-219.591
0
LINE
8
BLACK
6
CONTINUOUS
10
172.013
20
-219.591
11
172.299
21
-219.733
0
LINE
8
BLACK
6
CONTINUOUS
10
172.299
20
-219.733
11
172.442
21
-220.019
0
LINE
8
BLACK
6
CONTINUOUS
10
172.442
20
-220.019
11
172.442
21
-220.305
0
LINE
8
BLACK
6
CONTINUOUS
10
172.442
20
-220.305
11
171.013
21
-220.591
0
LINE
8
BLACK
6
CONTINUOUS
10
173.585
20
-221.448
11
173.87
21
-221.591
0
LINE
8
BLACK
6
CONTINUOUS
10
173.87
20
-221.591
11
174.442
21
-221.591
0
LINE
8
BLACK
6
CONTINUOUS
10
174.442
20
-221.591
11
174.727
21
-221.448
0
LINE
8
BLACK
6
CONTINUOUS
10
174.727
20
-221.448
11
174.87
21
-221.162
0
LINE
8
BLACK
6
CONTINUOUS
10
174.87
20
-221.162
11
174.87
21
-221.019
0
LINE
8
BLACK
6
CONTINUOUS
10
174.87
20
-221.019
11
174.727
21
-220.733
0
LINE
8
BLACK
6
CONTINUOUS
10
174.727
20
-220.733
11
174.442
21
-220.591
0
LINE
8
BLACK
6
CONTINUOUS
10
174.442
20
-220.591
11
174.013
21
-220.591
0
LINE
8
BLACK
6
CONTINUOUS
10
174.013
20
-220.591
11
173.727
21
-220.448
0
LINE
8
BLACK
6
CONTINUOUS
10
173.727
20
-220.448
11
173.585
21
-220.162
0
LINE
8
BLACK
6
CONTINUOUS
10
173.585
20
-220.162
11
173.585
21
-220.019
0
LINE
8
BLACK
6
CONTINUOUS
10
173.585
20
-220.019
11
173.727
21
-219.733
0
LINE
8
BLACK
6
CONTINUOUS
10
173.727
20
-219.733
11
174.013
21
-219.591
0
LINE
8
BLACK
6
CONTINUOUS
10
174.013
20
-219.591
11
174.442
21
-219.591
0
LINE
8
BLACK
6
CONTINUOUS
10
174.442
20
-219.591
11
174.727
21
-219.733
0
LINE
8
BLACK
6
CONTINUOUS
10
175.87
20
-222.733
11
176.013
21
-222.591
0
LINE
8
BLACK
6
CONTINUOUS
10
176.013
20
-222.591
11
176.299
21
-222.162
0
LINE
8
BLACK
6
CONTINUOUS
10
176.299
20
-222.162
11
176.442
21
-221.876
0
LINE
8
BLACK
6
CONTINUOUS
10
176.442
20
-221.876
11
176.585
21
-221.448
0
LINE
8
BLACK
6
CONTINUOUS
10
176.585
20
-221.448
11
176.727
21
-220.733
0
LINE
8
BLACK
6
CONTINUOUS
10
176.727
20
-220.733
11
176.727
21
-220.162
0
LINE
8
BLACK
6
CONTINUOUS
10
176.727
20
-220.162
11
176.585
21
-219.448
0
LINE
8
BLACK
6
CONTINUOUS
10
176.585
20
-219.448
11
176.442
21
-219.019
0
LINE
8
BLACK
6
CONTINUOUS
10
176.442
20
-219.019
11
176.299
21
-218.733
0
LINE
8
BLACK
6
CONTINUOUS
10
176.299
20
-218.733
11
176.013
21
-218.305
0
LINE
8
BLACK
6
CONTINUOUS
10
176.013
20
-218.305
11
175.87
21
-218.162
0
CIRCLE
8
BLACK
10
104.792
20
-224.193
40
0.5
0
LINE
8
BLACK
6
CONTINUOUS
10
109.727
20
-225.551
11
108.013
21
-225.551
0
LINE
8
BLACK
6
CONTINUOUS
10
108.87
20
-225.551
11
108.87
21
-222.551
0
LINE
8
BLACK
6
CONTINUOUS
10
108.87
20
-222.551
11
108.585
21
-222.979
0
LINE
8
BLACK
6
CONTINUOUS
10
108.585
20
-222.979
11
108.299
21
-223.265
0
LINE
8
BLACK
6
CONTINUOUS
10
108.299
20
-223.265
11
108.013
21
-223.408
0
LINE
8
BLACK
6
CONTINUOUS
10
111.013
20
-225.265
11
111.156
21
-225.408
0
LINE
8
BLACK
6
CONTINUOUS
10
111.156
20
-225.408
11
111.013
21
-225.551
0
LINE
8
BLACK
6
CONTINUOUS
10
111.013
20
-225.551
11
110.87
21
-225.408
0
LINE
8
BLACK
6
CONTINUOUS
10
110.87
20
-225.408
11
111.013
21
-225.265
0
LINE
8
BLACK
6
CONTINUOUS
10
111.013
20
-225.265
11
111.013
21
-225.551
0
LINE
8
BLACK
6
CONTINUOUS
10
113.013
20
-222.551
11
113.299
21
-222.551
0
LINE
8
BLACK
6
CONTINUOUS
10
113.299
20
-222.551
11
113.585
21
-222.693
0
LINE
8
BLACK
6
CONTINUOUS
10
113.585
20
-222.693
11
113.727
21
-222.836
0
LINE
8
BLACK
6
CONTINUOUS
10
113.727
20
-222.836
11
113.87
21
-223.122
0
LINE
8
BLACK
6
CONTINUOUS
10
113.87
20
-223.122
11
114.013
21
-223.693
0
LINE
8
BLACK
6
CONTINUOUS
10
114.013
20
-223.693
11
114.013
21
-224.408
0
LINE
8
BLACK
6
CONTINUOUS
10
114.013
20
-224.408
11
113.87
21
-224.979
0
LINE
8
BLACK
6
CONTINUOUS
10
113.87
20
-224.979
11
113.727
21
-225.265
0
LINE
8
BLACK
6
CONTINUOUS
10
113.727
20
-225.265
11
113.585
21
-225.408
0
LINE
8
BLACK
6
CONTINUOUS
10
113.585
20
-225.408
11
113.299
21
-225.551
0
LINE
8
BLACK
6
CONTINUOUS
10
113.299
20
-225.551
11
113.013
21
-225.551
0
LINE
8
BLACK
6
CONTINUOUS
10
113.013
20
-225.551
11
112.727
21
-225.408
0
LINE
8
BLACK
6
CONTINUOUS
10
112.727
20
-225.408
11
112.585
21
-225.265
0
LINE
8
BLACK
6
CONTINUOUS
10
112.585
20
-225.265
11
112.442
21
-224.979
0
LINE
8
BLACK
6
CONTINUOUS
10
112.442
20
-224.979
11
112.299
21
-224.408
0
LINE
8
BLACK
6
CONTINUOUS
10
112.299
20
-224.408
11
112.299
21
-223.693
0
LINE
8
BLACK
6
CONTINUOUS
10
112.299
20
-223.693
11
112.442
21
-223.122
0
LINE
8
BLACK
6
CONTINUOUS
10
112.442
20
-223.122
11
112.585
21
-222.836
0
LINE
8
BLACK
6
CONTINUOUS
10
112.585
20
-222.836
11
112.727
21
-222.693
0
LINE
8
BLACK
6
CONTINUOUS
10
112.727
20
-222.693
11
113.013
21
-222.551
0
LINE
8
BLACK
6
CONTINUOUS
10
115.87
20
-222.551
11
116.156
21
-222.551
0
LINE
8
BLACK
6
CONTINUOUS
10
116.156
20
-222.551
11
116.442
21
-222.693
0
LINE
8
BLACK
6
CONTINUOUS
10
116.442
20
-222.693
11
116.585
21
-222.836
0
LINE
8
BLACK
6
CONTINUOUS
10
116.585
20
-222.836
11
116.727
21
-223.122
0
LINE
8
BLACK
6
CONTINUOUS
10
116.727
20
-223.122
11
116.87
21
-223.693
0
LINE
8
BLACK
6
CONTINUOUS
10
116.87
20
-223.693
11
116.87
21
-224.408
0
LINE
8
BLACK
6
CONTINUOUS
10
116.87
20
-224.408
11
116.727
21
-224.979
0
LINE
8
BLACK
6
CONTINUOUS
10
116.727
20
-224.979
11
116.585
21
-225.265
0
LINE
8
BLACK
6
CONTINUOUS
10
116.585
20
-225.265
11
116.442
21
-225.408
0
LINE
8
BLACK
6
CONTINUOUS
10
116.442
20
-225.408
11
116.156
21
-225.551
0
LINE
8
BLACK
6
CONTINUOUS
10
116.156
20
-225.551
11
115.87
21
-225.551
0
LINE
8
BLACK
6
CONTINUOUS
10
115.87
20
-225.551
11
115.585
21
-225.408
0
LINE
8
BLACK
6
CONTINUOUS
10
115.585
20
-225.408
11
115.442
21
-225.265
0
LINE
8
BLACK
6
CONTINUOUS
10
115.442
20
-225.265
11
115.299
21
-224.979
0
LINE
8
BLACK
6
CONTINUOUS
10
115.299
20
-224.979
11
115.156
21
-224.408
0
LINE
8
BLACK
6
CONTINUOUS
10
115.156
20
-224.408
11
115.156
21
-223.693
0
LINE
8
BLACK
6
CONTINUOUS
10
115.156
20
-223.693
11
115.299
21
-223.122
0
LINE
8
BLACK
6
CONTINUOUS
10
115.299
20
-223.122
11
115.442
21
-222.836
0
LINE
8
BLACK
6
CONTINUOUS
10
115.442
20
-222.836
11
115.585
21
-222.693
0
LINE
8
BLACK
6
CONTINUOUS
10
115.585
20
-222.693
11
115.87
21
-222.551
0
LINE
8
BLACK
6
CONTINUOUS
10
118.156
20
-225.551
11
118.156
21
-223.551
0
LINE
8
BLACK
6
CONTINUOUS
10
118.156
20
-223.836
11
118.299
21
-223.693
0
LINE
8
BLACK
6
CONTINUOUS
10
118.299
20
-223.693
11
118.585
21
-223.551
0
LINE
8
BLACK
6
CONTINUOUS
10
118.585
20
-223.551
11
119.013
21
-223.551
0
LINE
8
BLACK
6
CONTINUOUS
10
119.013
20
-223.551
11
119.299
21
-223.693
0
LINE
8
BLACK
6
CONTINUOUS
10
119.299
20
-223.693
11
119.442
21
-223.979
0
LINE
8
BLACK
6
CONTINUOUS
10
119.442
20
-223.979
11
119.442
21
-225.551
0
LINE
8
BLACK
6
CONTINUOUS
10
119.442
20
-223.979
11
119.585
21
-223.693
0
LINE
8
BLACK
6
CONTINUOUS
10
119.585
20
-223.693
11
119.87
21
-223.551
0
LINE
8
BLACK
6
CONTINUOUS
10
119.87
20
-223.551
11
120.299
21
-223.551
0
LINE
8
BLACK
6
CONTINUOUS
10
120.299
20
-223.551
11
120.585
21
-223.693
0
LINE
8
BLACK
6
CONTINUOUS
10
120.585
20
-223.693
11
120.727
21
-223.979
0
LINE
8
BLACK
6
CONTINUOUS
10
120.727
20
-223.979
11
120.727
21
-225.551
0
LINE
8
BLACK
6
CONTINUOUS
10
122.156
20
-225.551
11
122.156
21
-223.551
0
LINE
8
BLACK
6
CONTINUOUS
10
122.156
20
-223.836
11
122.299
21
-223.693
0
LINE
8
BLACK
6
CONTINUOUS
10
122.299
20
-223.693
11
122.585
21
-223.551
0
LINE
8
BLACK
6
CONTINUOUS
10
122.585
20
-223.551
11
123.013
21
-223.551
0
LINE
8
BLACK
6
CONTINUOUS
10
123.013
20
-223.551
11
123.299
21
-223.693
0
LINE
8
BLACK
6
CONTINUOUS
10
123.299
20
-223.693
11
123.442
21
-223.979
0
LINE
8
BLACK
6
CONTINUOUS
10
123.442
20
-223.979
11
123.442
21
-225.551
0
LINE
8
BLACK
6
CONTINUOUS
10
123.442
20
-223.979
11
123.585
21
-223.693
0
LINE
8
BLACK
6
CONTINUOUS
10
123.585
20
-223.693
11
123.87
21
-223.551
0
LINE
8
BLACK
6
CONTINUOUS
10
123.87
20
-223.551
11
124.299
21
-223.551
0
LINE
8
BLACK
6
CONTINUOUS
10
124.299
20
-223.551
11
124.585
21
-223.693
0
LINE
8
BLACK
6
CONTINUOUS
10
124.585
20
-223.693
11
124.727
21
-223.979
0
LINE
8
BLACK
6
CONTINUOUS
10
124.727
20
-223.979
11
124.727
21
-225.551
0
LINE
8
BLACK
6
CONTINUOUS
10
130.585
20
-222.408
11
128.013
21
-226.265
0
LINE
8
BLACK
6
CONTINUOUS
10
134.442
20
-222.551
11
134.727
21
-222.551
0
LINE
8
BLACK
6
CONTINUOUS
10
134.727
20
-222.551
11
135.013
21
-222.693
0
LINE
8
BLACK
6
CONTINUOUS
10
135.013
20
-222.693
11
135.156
21
-222.836
0
LINE
8
BLACK
6
CONTINUOUS
10
135.156
20
-222.836
11
135.299
21
-223.122
0
LINE
8
BLACK
6
CONTINUOUS
10
135.299
20
-223.122
11
135.442
21
-223.693
0
LINE
8
BLACK
6
CONTINUOUS
10
135.442
20
-223.693
11
135.442
21
-224.408
0
LINE
8
BLACK
6
CONTINUOUS
10
135.442
20
-224.408
11
135.299
21
-224.979
0
LINE
8
BLACK
6
CONTINUOUS
10
135.299
20
-224.979
11
135.156
21
-225.265
0
LINE
8
BLACK
6
CONTINUOUS
10
135.156
20
-225.265
11
135.013
21
-225.408
0
LINE
8
BLACK
6
CONTINUOUS
10
135.013
20
-225.408
11
134.727
21
-225.551
0
LINE
8
BLACK
6
CONTINUOUS
10
134.727
20
-225.551
11
134.442
21
-225.551
0
LINE
8
BLACK
6
CONTINUOUS
10
134.442
20
-225.551
11
134.156
21
-225.408
0
LINE
8
BLACK
6
CONTINUOUS
10
134.156
20
-225.408
11
134.013
21
-225.265
0
LINE
8
BLACK
6
CONTINUOUS
10
134.013
20
-225.265
11
133.87
21
-224.979
0
LINE
8
BLACK
6
CONTINUOUS
10
133.87
20
-224.979
11
133.727
21
-224.408
0
LINE
8
BLACK
6
CONTINUOUS
10
133.727
20
-224.408
11
133.727
21
-223.693
0
LINE
8
BLACK
6
CONTINUOUS
10
133.727
20
-223.693
11
133.87
21
-223.122
0
LINE
8
BLACK
6
CONTINUOUS
10
133.87
20
-223.122
11
134.013
21
-222.836
0
LINE
8
BLACK
6
CONTINUOUS
10
134.013
20
-222.836
11
134.156
21
-222.693
0
LINE
8
BLACK
6
CONTINUOUS
10
134.156
20
-222.693
11
134.442
21
-222.551
0
LINE
8
BLACK
6
CONTINUOUS
10
136.727
20
-225.265
11
136.87
21
-225.408
0
LINE
8
BLACK
6
CONTINUOUS
10
136.87
20
-225.408
11
136.727
21
-225.551
0
LINE
8
BLACK
6
CONTINUOUS
10
136.727
20
-225.551
11
136.585
21
-225.408
0
LINE
8
BLACK
6
CONTINUOUS
10
136.585
20
-225.408
11
136.727
21
-225.265
0
LINE
8
BLACK
6
CONTINUOUS
10
136.727
20
-225.265
11
136.727
21
-225.551
0
LINE
8
BLACK
6
CONTINUOUS
10
138.727
20
-222.551
11
139.013
21
-222.551
0
LINE
8
BLACK
6
CONTINUOUS
10
139.013
20
-222.551
11
139.299
21
-222.693
0
LINE
8
BLACK
6
CONTINUOUS
10
139.299
20
-222.693
11
139.442
21
-222.836
0
LINE
8
BLACK
6
CONTINUOUS
10
139.442
20
-222.836
11
139.585
21
-223.122
0
LINE
8
BLACK
6
CONTINUOUS
10
139.585
20
-223.122
11
139.727
21
-223.693
0
LINE
8
BLACK
6
CONTINUOUS
10
139.727
20
-223.693
11
139.727
21
-224.408
0
LINE
8
BLACK
6
CONTINUOUS
10
139.727
20
-224.408
11
139.585
21
-224.979
0
LINE
8
BLACK
6
CONTINUOUS
10
139.585
20
-224.979
11
139.442
21
-225.265
0
LINE
8
BLACK
6
CONTINUOUS
10
139.442
20
-225.265
11
139.299
21
-225.408
0
LINE
8
BLACK
6
CONTINUOUS
10
139.299
20
-225.408
11
139.013
21
-225.551
0
LINE
8
BLACK
6
CONTINUOUS
10
139.013
20
-225.551
11
138.727
21
-225.551
0
LINE
8
BLACK
6
CONTINUOUS
10
138.727
20
-225.551
11
138.442
21
-225.408
0
LINE
8
BLACK
6
CONTINUOUS
10
138.442
20
-225.408
11
138.299
21
-225.265
0
LINE
8
BLACK
6
CONTINUOUS
10
138.299
20
-225.265
11
138.156
21
-224.979
0
LINE
8
BLACK
6
CONTINUOUS
10
138.156
20
-224.979
11
138.013
21
-224.408
0
LINE
8
BLACK
6
CONTINUOUS
10
138.013
20
-224.408
11
138.013
21
-223.693
0
LINE
8
BLACK
6
CONTINUOUS
10
138.013
20
-223.693
11
138.156
21
-223.122
0
LINE
8
BLACK
6
CONTINUOUS
10
138.156
20
-223.122
11
138.299
21
-222.836
0
LINE
8
BLACK
6
CONTINUOUS
10
138.299
20
-222.836
11
138.442
21
-222.693
0
LINE
8
BLACK
6
CONTINUOUS
10
138.442
20
-222.693
11
138.727
21
-222.551
0
LINE
8
BLACK
6
CONTINUOUS
10
140.727
20
-222.551
11
142.585
21
-222.551
0
LINE
8
BLACK
6
CONTINUOUS
10
142.585
20
-222.551
11
141.585
21
-223.693
0
LINE
8
BLACK
6
CONTINUOUS
10
141.585
20
-223.693
11
142.013
21
-223.693
0
LINE
8
BLACK
6
CONTINUOUS
10
142.013
20
-223.693
11
142.299
21
-223.836
0
LINE
8
BLACK
6
CONTINUOUS
10
142.299
20
-223.836
11
142.442
21
-223.979
0
LINE
8
BLACK
6
CONTINUOUS
10
142.442
20
-223.979
11
142.585
21
-224.265
0
LINE
8
BLACK
6
CONTINUOUS
10
142.585
20
-224.265
11
142.585
21
-224.979
0
LINE
8
BLACK
6
CONTINUOUS
10
142.585
20
-224.979
11
142.442
21
-225.265
0
LINE
8
BLACK
6
CONTINUOUS
10
142.442
20
-225.265
11
142.299
21
-225.408
0
LINE
8
BLACK
6
CONTINUOUS
10
142.299
20
-225.408
11
142.013
21
-225.551
0
LINE
8
BLACK
6
CONTINUOUS
10
142.013
20
-225.551
11
141.156
21
-225.551
0
LINE
8
BLACK
6
CONTINUOUS
10
141.156
20
-225.551
11
140.87
21
-225.408
0
LINE
8
BLACK
6
CONTINUOUS
10
140.87
20
-225.408
11
140.727
21
-225.265
0
LINE
8
BLACK
6
CONTINUOUS
10
144.013
20
-225.551
11
144.585
21
-225.551
0
LINE
8
BLACK
6
CONTINUOUS
10
144.585
20
-225.551
11
144.87
21
-225.408
0
LINE
8
BLACK
6
CONTINUOUS
10
144.87
20
-225.408
11
145.013
21
-225.265
0
LINE
8
BLACK
6
CONTINUOUS
10
145.013
20
-225.265
11
145.299
21
-224.836
0
LINE
8
BLACK
6
CONTINUOUS
10
145.299
20
-224.836
11
145.442
21
-224.265
0
LINE
8
BLACK
6
CONTINUOUS
10
145.442
20
-224.265
11
145.442
21
-223.122
0
LINE
8
BLACK
6
CONTINUOUS
10
145.442
20
-223.122
11
145.299
21
-222.836
0
LINE
8
BLACK
6
CONTINUOUS
10
145.299
20
-222.836
11
145.156
21
-222.693
0
LINE
8
BLACK
6
CONTINUOUS
10
145.156
20
-222.693
11
144.87
21
-222.551
0
LINE
8
BLACK
6
CONTINUOUS
10
144.87
20
-222.551
11
144.299
21
-222.551
0
LINE
8
BLACK
6
CONTINUOUS
10
144.299
20
-222.551
11
144.013
21
-222.693
0
LINE
8
BLACK
6
CONTINUOUS
10
144.013
20
-222.693
11
143.87
21
-222.836
0
LINE
8
BLACK
6
CONTINUOUS
10
143.87
20
-222.836
11
143.727
21
-223.122
0
LINE
8
BLACK
6
CONTINUOUS
10
143.727
20
-223.122
11
143.727
21
-223.836
0
LINE
8
BLACK
6
CONTINUOUS
10
143.727
20
-223.836
11
143.87
21
-224.122
0
LINE
8
BLACK
6
CONTINUOUS
10
143.87
20
-224.122
11
144.013
21
-224.265
0
LINE
8
BLACK
6
CONTINUOUS
10
144.013
20
-224.265
11
144.299
21
-224.408
0
LINE
8
BLACK
6
CONTINUOUS
10
144.299
20
-224.408
11
144.87
21
-224.408
0
LINE
8
BLACK
6
CONTINUOUS
10
144.87
20
-224.408
11
145.156
21
-224.265
0
LINE
8
BLACK
6
CONTINUOUS
10
145.156
20
-224.265
11
145.299
21
-224.122
0
LINE
8
BLACK
6
CONTINUOUS
10
145.299
20
-224.122
11
145.442
21
-223.836
0
LINE
8
BLACK
6
CONTINUOUS
10
146.585
20
-222.551
11
146.585
21
-223.122
0
LINE
8
BLACK
6
CONTINUOUS
10
147.727
20
-222.551
11
147.727
21
-223.122
0
LINE
8
BLACK
6
CONTINUOUS
10
152.156
20
-226.693
11
152.013
21
-226.551
0
LINE
8
BLACK
6
CONTINUOUS
10
152.013
20
-226.551
11
151.727
21
-226.122
0
LINE
8
BLACK
6
CONTINUOUS
10
151.727
20
-226.122
11
151.585
21
-225.836
0
LINE
8
BLACK
6
CONTINUOUS
10
151.585
20
-225.836
11
151.442
21
-225.408
0
LINE
8
BLACK
6
CONTINUOUS
10
151.442
20
-225.408
11
151.299
21
-224.693
0
LINE
8
BLACK
6
CONTINUOUS
10
151.299
20
-224.693
11
151.299
21
-224.122
0
LINE
8
BLACK
6
CONTINUOUS
10
151.299
20
-224.122
11
151.442
21
-223.408
0
LINE
8
BLACK
6
CONTINUOUS
10
151.442
20
-223.408
11
151.585
21
-222.979
0
LINE
8
BLACK
6
CONTINUOUS
10
151.585
20
-222.979
11
151.727
21
-222.693
0
LINE
8
BLACK
6
CONTINUOUS
10
151.727
20
-222.693
11
152.013
21
-222.265
0
LINE
8
BLACK
6
CONTINUOUS
10
152.013
20
-222.265
11
152.156
21
-222.122
0
LINE
8
BLACK
6
CONTINUOUS
10
154.87
20
-225.551
11
153.156
21
-225.551
0
LINE
8
BLACK
6
CONTINUOUS
10
154.013
20
-225.551
11
154.013
21
-222.551
0
LINE
8
BLACK
6
CONTINUOUS
10
154.013
20
-222.551
11
153.727
21
-222.979
0
LINE
8
BLACK
6
CONTINUOUS
10
153.727
20
-222.979
11
153.442
21
-223.265
0
LINE
8
BLACK
6
CONTINUOUS
10
153.442
20
-223.265
11
153.156
21
-223.408
0
LINE
8
BLACK
6
CONTINUOUS
10
155.87
20
-222.551
11
157.727
21
-222.551
0
LINE
8
BLACK
6
CONTINUOUS
10
157.727
20
-222.551
11
156.727
21
-223.693
0
LINE
8
BLACK
6
CONTINUOUS
10
156.727
20
-223.693
11
157.156
21
-223.693
0
LINE
8
BLACK
6
CONTINUOUS
10
157.156
20
-223.693
11
157.442
21
-223.836
0
LINE
8
BLACK
6
CONTINUOUS
10
157.442
20
-223.836
11
157.585
21
-223.979
0
LINE
8
BLACK
6
CONTINUOUS
10
157.585
20
-223.979
11
157.727
21
-224.265
0
LINE
8
BLACK
6
CONTINUOUS
10
157.727
20
-224.265
11
157.727
21
-224.979
0
LINE
8
BLACK
6
CONTINUOUS
10
157.727
20
-224.979
11
157.585
21
-225.265
0
LINE
8
BLACK
6
CONTINUOUS
10
157.585
20
-225.265
11
157.442
21
-225.408
0
LINE
8
BLACK
6
CONTINUOUS
10
157.442
20
-225.408
11
157.156
21
-225.551
0
LINE
8
BLACK
6
CONTINUOUS
10
157.156
20
-225.551
11
156.299
21
-225.551
0
LINE
8
BLACK
6
CONTINUOUS
10
156.299
20
-225.551
11
156.013
21
-225.408
0
LINE
8
BLACK
6
CONTINUOUS
10
156.013
20
-225.408
11
155.87
21
-225.265
0
LINE
8
BLACK
6
CONTINUOUS
10
161.299
20
-225.551
11
161.299
21
-222.551
0
LINE
8
BLACK
6
CONTINUOUS
10
162.585
20
-225.551
11
162.585
21
-223.979
0
LINE
8
BLACK
6
CONTINUOUS
10
162.585
20
-223.979
11
162.442
21
-223.693
0
LINE
8
BLACK
6
CONTINUOUS
10
162.442
20
-223.693
11
162.156
21
-223.551
0
LINE
8
BLACK
6
CONTINUOUS
10
162.156
20
-223.551
11
161.727
21
-223.551
0
LINE
8
BLACK
6
CONTINUOUS
10
161.727
20
-223.551
11
161.442
21
-223.693
0
LINE
8
BLACK
6
CONTINUOUS
10
161.442
20
-223.693
11
161.299
21
-223.836
0
LINE
8
BLACK
6
CONTINUOUS
10
164.442
20
-225.551
11
164.156
21
-225.408
0
LINE
8
BLACK
6
CONTINUOUS
10
164.156
20
-225.408
11
164.013
21
-225.265
0
LINE
8
BLACK
6
CONTINUOUS
10
164.013
20
-225.265
11
163.87
21
-224.979
0
LINE
8
BLACK
6
CONTINUOUS
10
163.87
20
-224.979
11
163.87
21
-224.122
0
LINE
8
BLACK
6
CONTINUOUS
10
163.87
20
-224.122
11
164.013
21
-223.836
0
LINE
8
BLACK
6
CONTINUOUS
10
164.013
20
-223.836
11
164.156
21
-223.693
0
LINE
8
BLACK
6
CONTINUOUS
10
164.156
20
-223.693
11
164.442
21
-223.551
0
LINE
8
BLACK
6
CONTINUOUS
10
164.442
20
-223.551
11
164.87
21
-223.551
0
LINE
8
BLACK
6
CONTINUOUS
10
164.87
20
-223.551
11
165.156
21
-223.693
0
LINE
8
BLACK
6
CONTINUOUS
10
165.156
20
-223.693
11
165.299
21
-223.836
0
LINE
8
BLACK
6
CONTINUOUS
10
165.299
20
-223.836
11
165.442
21
-224.122
0
LINE
8
BLACK
6
CONTINUOUS
10
165.442
20
-224.122
11
165.442
21
-224.979
0
LINE
8
BLACK
6
CONTINUOUS
10
165.442
20
-224.979
11
165.299
21
-225.265
0
LINE
8
BLACK
6
CONTINUOUS
10
165.299
20
-225.265
11
165.156
21
-225.408
0
LINE
8
BLACK
6
CONTINUOUS
10
165.156
20
-225.408
11
164.87
21
-225.551
0
LINE
8
BLACK
6
CONTINUOUS
10
164.87
20
-225.551
11
164.442
21
-225.551
0
LINE
8
BLACK
6
CONTINUOUS
10
167.156
20
-225.551
11
166.87
21
-225.408
0
LINE
8
BLACK
6
CONTINUOUS
10
166.87
20
-225.408
11
166.727
21
-225.122
0
LINE
8
BLACK
6
CONTINUOUS
10
166.727
20
-225.122
11
166.727
21
-222.551
0
LINE
8
BLACK
6
CONTINUOUS
10
169.442
20
-225.408
11
169.156
21
-225.551
0
LINE
8
BLACK
6
CONTINUOUS
10
169.156
20
-225.551
11
168.585
21
-225.551
0
LINE
8
BLACK
6
CONTINUOUS
10
168.585
20
-225.551
11
168.299
21
-225.408
0
LINE
8
BLACK
6
CONTINUOUS
10
168.299
20
-225.408
11
168.156
21
-225.122
0
LINE
8
BLACK
6
CONTINUOUS
10
168.156
20
-225.122
11
168.156
21
-223.979
0
LINE
8
BLACK
6
CONTINUOUS
10
168.156
20
-223.979
11
168.299
21
-223.693
0
LINE
8
BLACK
6
CONTINUOUS
10
168.299
20
-223.693
11
168.585
21
-223.551
0
LINE
8
BLACK
6
CONTINUOUS
10
168.585
20
-223.551
11
169.156
21
-223.551
0
LINE
8
BLACK
6
CONTINUOUS
10
169.156
20
-223.551
11
169.442
21
-223.693
0
LINE
8
BLACK
6
CONTINUOUS
10
169.442
20
-223.693
11
169.585
21
-223.979
0
LINE
8
BLACK
6
CONTINUOUS
10
169.585
20
-223.979
11
169.585
21
-224.265
0
LINE
8
BLACK
6
CONTINUOUS
10
169.585
20
-224.265
11
168.156
21
-224.551
0
LINE
8
BLACK
6
CONTINUOUS
10
170.727
20
-225.408
11
171.013
21
-225.551
0
LINE
8
BLACK
6
CONTINUOUS
10
171.013
20
-225.551
11
171.585
21
-225.551
0
LINE
8
BLACK
6
CONTINUOUS
10
171.585
20
-225.551
11
171.87
21
-225.408
0
LINE
8
BLACK
6
CONTINUOUS
10
171.87
20
-225.408
11
172.013
21
-225.122
0
LINE
8
BLACK
6
CONTINUOUS
10
172.013
20
-225.122
11
172.013
21
-224.979
0
LINE
8
BLACK
6
CONTINUOUS
10
172.013
20
-224.979
11
171.87
21
-224.693
0
LINE
8
BLACK
6
CONTINUOUS
10
171.87
20
-224.693
11
171.585
21
-224.551
0
LINE
8
BLACK
6
CONTINUOUS
10
171.585
20
-224.551
11
171.156
21
-224.551
0
LINE
8
BLACK
6
CONTINUOUS
10
171.156
20
-224.551
11
170.87
21
-224.408
0
LINE
8
BLACK
6
CONTINUOUS
10
170.87
20
-224.408
11
170.727
21
-224.122
0
LINE
8
BLACK
6
CONTINUOUS
10
170.727
20
-224.122
11
170.727
21
-223.979
0
LINE
8
BLACK
6
CONTINUOUS
10
170.727
20
-223.979
11
170.87
21
-223.693
0
LINE
8
BLACK
6
CONTINUOUS
10
170.87
20
-223.693
11
171.156
21
-223.551
0
LINE
8
BLACK
6
CONTINUOUS
10
171.156
20
-223.551
11
171.585
21
-223.551
0
LINE
8
BLACK
6
CONTINUOUS
10
171.585
20
-223.551
11
171.87
21
-223.693
0
LINE
8
BLACK
6
CONTINUOUS
10
173.013
20
-226.693
11
173.156
21
-226.551
0
LINE
8
BLACK
6
CONTINUOUS
10
173.156
20
-226.551
11
173.442
21
-226.122
0
LINE
8
BLACK
6
CONTINUOUS
10
173.442
20
-226.122
11
173.585
21
-225.836
0
LINE
8
BLACK
6
CONTINUOUS
10
173.585
20
-225.836
11
173.727
21
-225.408
0
LINE
8
BLACK
6
CONTINUOUS
10
173.727
20
-225.408
11
173.87
21
-224.693
0
LINE
8
BLACK
6
CONTINUOUS
10
173.87
20
-224.693
11
173.87
21
-224.122
0
LINE
8
BLACK
6
CONTINUOUS
10
173.87
20
-224.122
11
173.727
21
-223.408
0
LINE
8
BLACK
6
CONTINUOUS
10
173.727
20
-223.408
11
173.585
21
-222.979
0
LINE
8
BLACK
6
CONTINUOUS
10
173.585
20
-222.979
11
173.442
21
-222.693
0
LINE
8
BLACK
6
CONTINUOUS
10
173.442
20
-222.693
11
173.156
21
-222.265
0
LINE
8
BLACK
6
CONTINUOUS
10
173.156
20
-222.265
11
173.013
21
-222.122
0
LINE
8
BLACK
6
CONTINUOUS
10
104.542
20
-227.403
11
104.542
21
-228.903
0
LINE
8
BLACK
6
CONTINUOUS
10
103.792
20
-228.153
11
105.292
21
-228.153
0
LINE
8
BLACK
6
CONTINUOUS
10
109.727
20
-229.511
11
108.013
21
-229.511
0
LINE
8
BLACK
6
CONTINUOUS
10
108.87
20
-229.511
11
108.87
21
-226.511
0
LINE
8
BLACK
6
CONTINUOUS
10
108.87
20
-226.511
11
108.585
21
-226.939
0
LINE
8
BLACK
6
CONTINUOUS
10
108.585
20
-226.939
11
108.299
21
-227.225
0
LINE
8
BLACK
6
CONTINUOUS
10
108.299
20
-227.225
11
108.013
21
-227.368
0
LINE
8
BLACK
6
CONTINUOUS
10
111.013
20
-229.225
11
111.156
21
-229.368
0
LINE
8
BLACK
6
CONTINUOUS
10
111.156
20
-229.368
11
111.013
21
-229.511
0
LINE
8
BLACK
6
CONTINUOUS
10
111.013
20
-229.511
11
110.87
21
-229.368
0
LINE
8
BLACK
6
CONTINUOUS
10
110.87
20
-229.368
11
111.013
21
-229.225
0
LINE
8
BLACK
6
CONTINUOUS
10
111.013
20
-229.225
11
111.013
21
-229.511
0
LINE
8
BLACK
6
CONTINUOUS
10
113.87
20
-226.511
11
112.442
21
-226.511
0
LINE
8
BLACK
6
CONTINUOUS
10
112.442
20
-226.511
11
112.299
21
-227.939
0
LINE
8
BLACK
6
CONTINUOUS
10
112.299
20
-227.939
11
112.442
21
-227.796
0
LINE
8
BLACK
6
CONTINUOUS
10
112.442
20
-227.796
11
112.727
21
-227.653
0
LINE
8
BLACK
6
CONTINUOUS
10
112.727
20
-227.653
11
113.442
21
-227.653
0
LINE
8
BLACK
6
CONTINUOUS
10
113.442
20
-227.653
11
113.727
21
-227.796
0
LINE
8
BLACK
6
CONTINUOUS
10
113.727
20
-227.796
11
113.87
21
-227.939
0
LINE
8
BLACK
6
CONTINUOUS
10
113.87
20
-227.939
11
114.013
21
-228.225
0
LINE
8
BLACK
6
CONTINUOUS
10
114.013
20
-228.225
11
114.013
21
-228.939
0
LINE
8
BLACK
6
CONTINUOUS
10
114.013
20
-228.939
11
113.87
21
-229.225
0
LINE
8
BLACK
6
CONTINUOUS
10
113.87
20
-229.225
11
113.727
21
-229.368
0
LINE
8
BLACK
6
CONTINUOUS
10
113.727
20
-229.368
11
113.442
21
-229.511
0
LINE
8
BLACK
6
CONTINUOUS
10
113.442
20
-229.511
11
112.727
21
-229.511
0
LINE
8
BLACK
6
CONTINUOUS
10
112.727
20
-229.511
11
112.442
21
-229.368
0
LINE
8
BLACK
6
CONTINUOUS
10
112.442
20
-229.368
11
112.299
21
-229.225
0
LINE
8
BLACK
6
CONTINUOUS
10
115.87
20
-226.511
11
116.156
21
-226.511
0
LINE
8
BLACK
6
CONTINUOUS
10
116.156
20
-226.511
11
116.442
21
-226.653
0
LINE
8
BLACK
6
CONTINUOUS
10
116.442
20
-226.653
11
116.585
21
-226.796
0
LINE
8
BLACK
6
CONTINUOUS
10
116.585
20
-226.796
11
116.727
21
-227.082
0
LINE
8
BLACK
6
CONTINUOUS
10
116.727
20
-227.082
11
116.87
21
-227.653
0
LINE
8
BLACK
6
CONTINUOUS
10
116.87
20
-227.653
11
116.87
21
-228.368
0
LINE
8
BLACK
6
CONTINUOUS
10
116.87
20
-228.368
11
116.727
21
-228.939
0
LINE
8
BLACK
6
CONTINUOUS
10
116.727
20
-228.939
11
116.585
21
-229.225
0
LINE
8
BLACK
6
CONTINUOUS
10
116.585
20
-229.225
11
116.442
21
-229.368
0
LINE
8
BLACK
6
CONTINUOUS
10
116.442
20
-229.368
11
116.156
21
-229.511
0
LINE
8
BLACK
6
CONTINUOUS
10
116.156
20
-229.511
11
115.87
21
-229.511
0
LINE
8
BLACK
6
CONTINUOUS
10
115.87
20
-229.511
11
115.585
21
-229.368
0
LINE
8
BLACK
6
CONTINUOUS
10
115.585
20
-229.368
11
115.442
21
-229.225
0
LINE
8
BLACK
6
CONTINUOUS
10
115.442
20
-229.225
11
115.299
21
-228.939
0
LINE
8
BLACK
6
CONTINUOUS
10
115.299
20
-228.939
11
115.156
21
-228.368
0
LINE
8
BLACK
6
CONTINUOUS
10
115.156
20
-228.368
11
115.156
21
-227.653
0
LINE
8
BLACK
6
CONTINUOUS
10
115.156
20
-227.653
11
115.299
21
-227.082
0
LINE
8
BLACK
6
CONTINUOUS
10
115.299
20
-227.082
11
115.442
21
-226.796
0
LINE
8
BLACK
6
CONTINUOUS
10
115.442
20
-226.796
11
115.585
21
-226.653
0
LINE
8
BLACK
6
CONTINUOUS
10
115.585
20
-226.653
11
115.87
21
-226.511
0
LINE
8
BLACK
6
CONTINUOUS
10
118.156
20
-229.511
11
118.156
21
-227.511
0
LINE
8
BLACK
6
CONTINUOUS
10
118.156
20
-227.796
11
118.299
21
-227.653
0
LINE
8
BLACK
6
CONTINUOUS
10
118.299
20
-227.653
11
118.585
21
-227.511
0
LINE
8
BLACK
6
CONTINUOUS
10
118.585
20
-227.511
11
119.013
21
-227.511
0
LINE
8
BLACK
6
CONTINUOUS
10
119.013
20
-227.511
11
119.299
21
-227.653
0
LINE
8
BLACK
6
CONTINUOUS
10
119.299
20
-227.653
11
119.442
21
-227.939
0
LINE
8
BLACK
6
CONTINUOUS
10
119.442
20
-227.939
11
119.442
21
-229.511
0
LINE
8
BLACK
6
CONTINUOUS
10
119.442
20
-227.939
11
119.585
21
-227.653
0
LINE
8
BLACK
6
CONTINUOUS
10
119.585
20
-227.653
11
119.87
21
-227.511
0
LINE
8
BLACK
6
CONTINUOUS
10
119.87
20
-227.511
11
120.299
21
-227.511
0
LINE
8
BLACK
6
CONTINUOUS
10
120.299
20
-227.511
11
120.585
21
-227.653
0
LINE
8
BLACK
6
CONTINUOUS
10
120.585
20
-227.653
11
120.727
21
-227.939
0
LINE
8
BLACK
6
CONTINUOUS
10
120.727
20
-227.939
11
120.727
21
-229.511
0
LINE
8
BLACK
6
CONTINUOUS
10
122.156
20
-229.511
11
122.156
21
-227.511
0
LINE
8
BLACK
6
CONTINUOUS
10
122.156
20
-227.796
11
122.299
21
-227.653
0
LINE
8
BLACK
6
CONTINUOUS
10
122.299
20
-227.653
11
122.585
21
-227.511
0
LINE
8
BLACK
6
CONTINUOUS
10
122.585
20
-227.511
11
123.013
21
-227.511
0
LINE
8
BLACK
6
CONTINUOUS
10
123.013
20
-227.511
11
123.299
21
-227.653
0
LINE
8
BLACK
6
CONTINUOUS
10
123.299
20
-227.653
11
123.442
21
-227.939
0
LINE
8
BLACK
6
CONTINUOUS
10
123.442
20
-227.939
11
123.442
21
-229.511
0
LINE
8
BLACK
6
CONTINUOUS
10
123.442
20
-227.939
11
123.585
21
-227.653
0
LINE
8
BLACK
6
CONTINUOUS
10
123.585
20
-227.653
11
123.87
21
-227.511
0
LINE
8
BLACK
6
CONTINUOUS
10
123.87
20
-227.511
11
124.299
21
-227.511
0
LINE
8
BLACK
6
CONTINUOUS
10
124.299
20
-227.511
11
124.585
21
-227.653
0
LINE
8
BLACK
6
CONTINUOUS
10
124.585
20
-227.653
11
124.727
21
-227.939
0
LINE
8
BLACK
6
CONTINUOUS
10
124.727
20
-227.939
11
124.727
21
-229.511
0
LINE
8
BLACK
6
CONTINUOUS
10
130.585
20
-226.368
11
128.013
21
-230.225
0
LINE
8
BLACK
6
CONTINUOUS
10
134.442
20
-226.511
11
134.727
21
-226.511
0
LINE
8
BLACK
6
CONTINUOUS
10
134.727
20
-226.511
11
135.013
21
-226.653
0
LINE
8
BLACK
6
CONTINUOUS
10
135.013
20
-226.653
11
135.156
21
-226.796
0
LINE
8
BLACK
6
CONTINUOUS
10
135.156
20
-226.796
11
135.299
21
-227.082
0
LINE
8
BLACK
6
CONTINUOUS
10
135.299
20
-227.082
11
135.442
21
-227.653
0
LINE
8
BLACK
6
CONTINUOUS
10
135.442
20
-227.653
11
135.442
21
-228.368
0
LINE
8
BLACK
6
CONTINUOUS
10
135.442
20
-228.368
11
135.299
21
-228.939
0
LINE
8
BLACK
6
CONTINUOUS
10
135.299
20
-228.939
11
135.156
21
-229.225
0
LINE
8
BLACK
6
CONTINUOUS
10
135.156
20
-229.225
11
135.013
21
-229.368
0
LINE
8
BLACK
6
CONTINUOUS
10
135.013
20
-229.368
11
134.727
21
-229.511
0
LINE
8
BLACK
6
CONTINUOUS
10
134.727
20
-229.511
11
134.442
21
-229.511
0
LINE
8
BLACK
6
CONTINUOUS
10
134.442
20
-229.511
11
134.156
21
-229.368
0
LINE
8
BLACK
6
CONTINUOUS
10
134.156
20
-229.368
11
134.013
21
-229.225
0
LINE
8
BLACK
6
CONTINUOUS
10
134.013
20
-229.225
11
133.87
21
-228.939
0
LINE
8
BLACK
6
CONTINUOUS
10
133.87
20
-228.939
11
133.727
21
-228.368
0
LINE
8
BLACK
6
CONTINUOUS
10
133.727
20
-228.368
11
133.727
21
-227.653
0
LINE
8
BLACK
6
CONTINUOUS
10
133.727
20
-227.653
11
133.87
21
-227.082
0
LINE
8
BLACK
6
CONTINUOUS
10
133.87
20
-227.082
11
134.013
21
-226.796
0
LINE
8
BLACK
6
CONTINUOUS
10
134.013
20
-226.796
11
134.156
21
-226.653
0
LINE
8
BLACK
6
CONTINUOUS
10
134.156
20
-226.653
11
134.442
21
-226.511
0
LINE
8
BLACK
6
CONTINUOUS
10
136.727
20
-229.225
11
136.87
21
-229.368
0
LINE
8
BLACK
6
CONTINUOUS
10
136.87
20
-229.368
11
136.727
21
-229.511
0
LINE
8
BLACK
6
CONTINUOUS
10
136.727
20
-229.511
11
136.585
21
-229.368
0
LINE
8
BLACK
6
CONTINUOUS
10
136.585
20
-229.368
11
136.727
21
-229.225
0
LINE
8
BLACK
6
CONTINUOUS
10
136.727
20
-229.225
11
136.727
21
-229.511
0
LINE
8
BLACK
6
CONTINUOUS
10
138.727
20
-226.511
11
139.013
21
-226.511
0
LINE
8
BLACK
6
CONTINUOUS
10
139.013
20
-226.511
11
139.299
21
-226.653
0
LINE
8
BLACK
6
CONTINUOUS
10
139.299
20
-226.653
11
139.442
21
-226.796
0
LINE
8
BLACK
6
CONTINUOUS
10
139.442
20
-226.796
11
139.585
21
-227.082
0
LINE
8
BLACK
6
CONTINUOUS
10
139.585
20
-227.082
11
139.727
21
-227.653
0
LINE
8
BLACK
6
CONTINUOUS
10
139.727
20
-227.653
11
139.727
21
-228.368
0
LINE
8
BLACK
6
CONTINUOUS
10
139.727
20
-228.368
11
139.585
21
-228.939
0
LINE
8
BLACK
6
CONTINUOUS
10
139.585
20
-228.939
11
139.442
21
-229.225
0
LINE
8
BLACK
6
CONTINUOUS
10
139.442
20
-229.225
11
139.299
21
-229.368
0
LINE
8
BLACK
6
CONTINUOUS
10
139.299
20
-229.368
11
139.013
21
-229.511
0
LINE
8
BLACK
6
CONTINUOUS
10
139.013
20
-229.511
11
138.727
21
-229.511
0
LINE
8
BLACK
6
CONTINUOUS
10
138.727
20
-229.511
11
138.442
21
-229.368
0
LINE
8
BLACK
6
CONTINUOUS
10
138.442
20
-229.368
11
138.299
21
-229.225
0
LINE
8
BLACK
6
CONTINUOUS
10
138.299
20
-229.225
11
138.156
21
-228.939
0
LINE
8
BLACK
6
CONTINUOUS
10
138.156
20
-228.939
11
138.013
21
-228.368
0
LINE
8
BLACK
6
CONTINUOUS
10
138.013
20
-228.368
11
138.013
21
-227.653
0
LINE
8
BLACK
6
CONTINUOUS
10
138.013
20
-227.653
11
138.156
21
-227.082
0
LINE
8
BLACK
6
CONTINUOUS
10
138.156
20
-227.082
11
138.299
21
-226.796
0
LINE
8
BLACK
6
CONTINUOUS
10
138.299
20
-226.796
11
138.442
21
-226.653
0
LINE
8
BLACK
6
CONTINUOUS
10
138.442
20
-226.653
11
138.727
21
-226.511
0
LINE
8
BLACK
6
CONTINUOUS
10
142.442
20
-226.511
11
141.013
21
-226.511
0
LINE
8
BLACK
6
CONTINUOUS
10
141.013
20
-226.511
11
140.87
21
-227.939
0
LINE
8
BLACK
6
CONTINUOUS
10
140.87
20
-227.939
11
141.013
21
-227.796
0
LINE
8
BLACK
6
CONTINUOUS
10
141.013
20
-227.796
11
141.299
21
-227.653
0
LINE
8
BLACK
6
CONTINUOUS
10
141.299
20
-227.653
11
142.013
21
-227.653
0
LINE
8
BLACK
6
CONTINUOUS
10
142.013
20
-227.653
11
142.299
21
-227.796
0
LINE
8
BLACK
6
CONTINUOUS
10
142.299
20
-227.796
11
142.442
21
-227.939
0
LINE
8
BLACK
6
CONTINUOUS
10
142.442
20
-227.939
11
142.585
21
-228.225
0
LINE
8
BLACK
6
CONTINUOUS
10
142.585
20
-228.225
11
142.585
21
-228.939
0
LINE
8
BLACK
6
CONTINUOUS
10
142.585
20
-228.939
11
142.442
21
-229.225
0
LINE
8
BLACK
6
CONTINUOUS
10
142.442
20
-229.225
11
142.299
21
-229.368
0
LINE
8
BLACK
6
CONTINUOUS
10
142.299
20
-229.368
11
142.013
21
-229.511
0
LINE
8
BLACK
6
CONTINUOUS
10
142.013
20
-229.511
11
141.299
21
-229.511
0
LINE
8
BLACK
6
CONTINUOUS
10
141.299
20
-229.511
11
141.013
21
-229.368
0
LINE
8
BLACK
6
CONTINUOUS
10
141.013
20
-229.368
11
140.87
21
-229.225
0
LINE
8
BLACK
6
CONTINUOUS
10
144.013
20
-229.511
11
144.585
21
-229.511
0
LINE
8
BLACK
6
CONTINUOUS
10
144.585
20
-229.511
11
144.87
21
-229.368
0
LINE
8
BLACK
6
CONTINUOUS
10
144.87
20
-229.368
11
145.013
21
-229.225
0
LINE
8
BLACK
6
CONTINUOUS
10
145.013
20
-229.225
11
145.299
21
-228.796
0
LINE
8
BLACK
6
CONTINUOUS
10
145.299
20
-228.796
11
145.442
21
-228.225
0
LINE
8
BLACK
6
CONTINUOUS
10
145.442
20
-228.225
11
145.442
21
-227.082
0
LINE
8
BLACK
6
CONTINUOUS
10
145.442
20
-227.082
11
145.299
21
-226.796
0
LINE
8
BLACK
6
CONTINUOUS
10
145.299
20
-226.796
11
145.156
21
-226.653
0
LINE
8
BLACK
6
CONTINUOUS
10
145.156
20
-226.653
11
144.87
21
-226.511
0
LINE
8
BLACK
6
CONTINUOUS
10
144.87
20
-226.511
11
144.299
21
-226.511
0
LINE
8
BLACK
6
CONTINUOUS
10
144.299
20
-226.511
11
144.013
21
-226.653
0
LINE
8
BLACK
6
CONTINUOUS
10
144.013
20
-226.653
11
143.87
21
-226.796
0
LINE
8
BLACK
6
CONTINUOUS
10
143.87
20
-226.796
11
143.727
21
-227.082
0
LINE
8
BLACK
6
CONTINUOUS
10
143.727
20
-227.082
11
143.727
21
-227.796
0
LINE
8
BLACK
6
CONTINUOUS
10
143.727
20
-227.796
11
143.87
21
-228.082
0
LINE
8
BLACK
6
CONTINUOUS
10
143.87
20
-228.082
11
144.013
21
-228.225
0
LINE
8
BLACK
6
CONTINUOUS
10
144.013
20
-228.225
11
144.299
21
-228.368
0
LINE
8
BLACK
6
CONTINUOUS
10
144.299
20
-228.368
11
144.87
21
-228.368
0
LINE
8
BLACK
6
CONTINUOUS
10
144.87
20
-228.368
11
145.156
21
-228.225
0
LINE
8
BLACK
6
CONTINUOUS
10
145.156
20
-228.225
11
145.299
21
-228.082
0
LINE
8
BLACK
6
CONTINUOUS
10
145.299
20
-228.082
11
145.442
21
-227.796
0
LINE
8
BLACK
6
CONTINUOUS
10
146.585
20
-226.511
11
146.585
21
-227.082
0
LINE
8
BLACK
6
CONTINUOUS
10
147.727
20
-226.511
11
147.727
21
-227.082
0
LINE
8
BLACK
6
CONTINUOUS
10
152.156
20
-230.653
11
152.013
21
-230.511
0
LINE
8
BLACK
6
CONTINUOUS
10
152.013
20
-230.511
11
151.727
21
-230.082
0
LINE
8
BLACK
6
CONTINUOUS
10
151.727
20
-230.082
11
151.585
21
-229.796
0
LINE
8
BLACK
6
CONTINUOUS
10
151.585
20
-229.796
11
151.442
21
-229.368
0
LINE
8
BLACK
6
CONTINUOUS
10
151.442
20
-229.368
11
151.299
21
-228.653
0
LINE
8
BLACK
6
CONTINUOUS
10
151.299
20
-228.653
11
151.299
21
-228.082
0
LINE
8
BLACK
6
CONTINUOUS
10
151.299
20
-228.082
11
151.442
21
-227.368
0
LINE
8
BLACK
6
CONTINUOUS
10
151.442
20
-227.368
11
151.585
21
-226.939
0
LINE
8
BLACK
6
CONTINUOUS
10
151.585
20
-226.939
11
151.727
21
-226.653
0
LINE
8
BLACK
6
CONTINUOUS
10
151.727
20
-226.653
11
152.013
21
-226.225
0
LINE
8
BLACK
6
CONTINUOUS
10
152.013
20
-226.225
11
152.156
21
-226.082
0
LINE
8
BLACK
6
CONTINUOUS
10
153.87
20
-226.511
11
154.156
21
-226.511
0
LINE
8
BLACK
6
CONTINUOUS
10
154.156
20
-226.511
11
154.442
21
-226.653
0
LINE
8
BLACK
6
CONTINUOUS
10
154.442
20
-226.653
11
154.585
21
-226.796
0
LINE
8
BLACK
6
CONTINUOUS
10
154.585
20
-226.796
11
154.727
21
-227.082
0
LINE
8
BLACK
6
CONTINUOUS
10
154.727
20
-227.082
11
154.87
21
-227.653
0
LINE
8
BLACK
6
CONTINUOUS
10
154.87
20
-227.653
11
154.87
21
-228.368
0
LINE
8
BLACK
6
CONTINUOUS
10
154.87
20
-228.368
11
154.727
21
-228.939
0
LINE
8
BLACK
6
CONTINUOUS
10
154.727
20
-228.939
11
154.585
21
-229.225
0
LINE
8
BLACK
6
CONTINUOUS
10
154.585
20
-229.225
11
154.442
21
-229.368
0
LINE
8
BLACK
6
CONTINUOUS
10
154.442
20
-229.368
11
154.156
21
-229.511
0
LINE
8
BLACK
6
CONTINUOUS
10
154.156
20
-229.511
11
153.87
21
-229.511
0
LINE
8
BLACK
6
CONTINUOUS
10
153.87
20
-229.511
11
153.585
21
-229.368
0
LINE
8
BLACK
6
CONTINUOUS
10
153.585
20
-229.368
11
153.442
21
-229.225
0
LINE
8
BLACK
6
CONTINUOUS
10
153.442
20
-229.225
11
153.299
21
-228.939
0
LINE
8
BLACK
6
CONTINUOUS
10
153.299
20
-228.939
11
153.156
21
-228.368
0
LINE
8
BLACK
6
CONTINUOUS
10
153.156
20
-228.368
11
153.156
21
-227.653
0
LINE
8
BLACK
6
CONTINUOUS
10
153.156
20
-227.653
11
153.299
21
-227.082
0
LINE
8
BLACK
6
CONTINUOUS
10
153.299
20
-227.082
11
153.442
21
-226.796
0
LINE
8
BLACK
6
CONTINUOUS
10
153.442
20
-226.796
11
153.585
21
-226.653
0
LINE
8
BLACK
6
CONTINUOUS
10
153.585
20
-226.653
11
153.87
21
-226.511
0
LINE
8
BLACK
6
CONTINUOUS
10
158.442
20
-229.511
11
158.442
21
-226.511
0
LINE
8
BLACK
6
CONTINUOUS
10
159.727
20
-229.511
11
159.727
21
-227.939
0
LINE
8
BLACK
6
CONTINUOUS
10
159.727
20
-227.939
11
159.585
21
-227.653
0
LINE
8
BLACK
6
CONTINUOUS
10
159.585
20
-227.653
11
159.299
21
-227.511
0
LINE
8
BLACK
6
CONTINUOUS
10
159.299
20
-227.511
11
158.87
21
-227.511
0
LINE
8
BLACK
6
CONTINUOUS
10
158.87
20
-227.511
11
158.585
21
-227.653
0
LINE
8
BLACK
6
CONTINUOUS
10
158.585
20
-227.653
11
158.442
21
-227.796
0
LINE
8
BLACK
6
CONTINUOUS
10
161.585
20
-229.511
11
161.299
21
-229.368
0
LINE
8
BLACK
6
CONTINUOUS
10
161.299
20
-229.368
11
161.156
21
-229.225
0
LINE
8
BLACK
6
CONTINUOUS
10
161.156
20
-229.225
11
161.013
21
-228.939
0
LINE
8
BLACK
6
CONTINUOUS
10
161.013
20
-228.939
11
161.013
21
-228.082
0
LINE
8
BLACK
6
CONTINUOUS
10
161.013
20
-228.082
11
161.156
21
-227.796
0
LINE
8
BLACK
6
CONTINUOUS
10
161.156
20
-227.796
11
161.299
21
-227.653
0
LINE
8
BLACK
6
CONTINUOUS
10
161.299
20
-227.653
11
161.585
21
-227.511
0
LINE
8
BLACK
6
CONTINUOUS
10
161.585
20
-227.511
11
162.013
21
-227.511
0
LINE
8
BLACK
6
CONTINUOUS
10
162.013
20
-227.511
11
162.299
21
-227.653
0
LINE
8
BLACK
6
CONTINUOUS
10
162.299
20
-227.653
11
162.442
21
-227.796
0
LINE
8
BLACK
6
CONTINUOUS
10
162.442
20
-227.796
11
162.585
21
-228.082
0
LINE
8
BLACK
6
CONTINUOUS
10
162.585
20
-228.082
11
162.585
21
-228.939
0
LINE
8
BLACK
6
CONTINUOUS
10
162.585
20
-228.939
11
162.442
21
-229.225
0
LINE
8
BLACK
6
CONTINUOUS
10
162.442
20
-229.225
11
162.299
21
-229.368
0
LINE
8
BLACK
6
CONTINUOUS
10
162.299
20
-229.368
11
162.013
21
-229.511
0
LINE
8
BLACK
6
CONTINUOUS
10
162.013
20
-229.511
11
161.585
21
-229.511
0
LINE
8
BLACK
6
CONTINUOUS
10
164.299
20
-229.511
11
164.013
21
-229.368
0
LINE
8
BLACK
6
CONTINUOUS
10
164.013
20
-229.368
11
163.87
21
-229.082
0
LINE
8
BLACK
6
CONTINUOUS
10
163.87
20
-229.082
11
163.87
21
-226.511
0
LINE
8
BLACK
6
CONTINUOUS
10
166.585
20
-229.368
11
166.299
21
-229.511
0
LINE
8
BLACK
6
CONTINUOUS
10
166.299
20
-229.511
11
165.727
21
-229.511
0
LINE
8
BLACK
6
CONTINUOUS
10
165.727
20
-229.511
11
165.442
21
-229.368
0
LINE
8
BLACK
6
CONTINUOUS
10
165.442
20
-229.368
11
165.299
21
-229.082
0
LINE
8
BLACK
6
CONTINUOUS
10
165.299
20
-229.082
11
165.299
21
-227.939
0
LINE
8
BLACK
6
CONTINUOUS
10
165.299
20
-227.939
11
165.442
21
-227.653
0
LINE
8
BLACK
6
CONTINUOUS
10
165.442
20
-227.653
11
165.727
21
-227.511
0
LINE
8
BLACK
6
CONTINUOUS
10
165.727
20
-227.511
11
166.299
21
-227.511
0
LINE
8
BLACK
6
CONTINUOUS
10
166.299
20
-227.511
11
166.585
21
-227.653
0
LINE
8
BLACK
6
CONTINUOUS
10
166.585
20
-227.653
11
166.727
21
-227.939
0
LINE
8
BLACK
6
CONTINUOUS
10
166.727
20
-227.939
11
166.727
21
-228.225
0
LINE
8
BLACK
6
CONTINUOUS
10
166.727
20
-228.225
11
165.299
21
-228.511
0
LINE
8
BLACK
6
CONTINUOUS
10
167.87
20
-229.368
11
168.156
21
-229.511
0
LINE
8
BLACK
6
CONTINUOUS
10
168.156
20
-229.511
11
168.727
21
-229.511
0
LINE
8
BLACK
6
CONTINUOUS
10
168.727
20
-229.511
11
169.013
21
-229.368
0
LINE
8
BLACK
6
CONTINUOUS
10
169.013
20
-229.368
11
169.156
21
-229.082
0
LINE
8
BLACK
6
CONTINUOUS
10
169.156
20
-229.082
11
169.156
21
-228.939
0
LINE
8
BLACK
6
CONTINUOUS
10
169.156
20
-228.939
11
169.013
21
-228.653
0
LINE
8
BLACK
6
CONTINUOUS
10
169.013
20
-228.653
11
168.727
21
-228.511
0
LINE
8
BLACK
6
CONTINUOUS
10
168.727
20
-228.511
11
168.299
21
-228.511
0
LINE
8
BLACK
6
CONTINUOUS
10
168.299
20
-228.511
11
168.013
21
-228.368
0
LINE
8
BLACK
6
CONTINUOUS
10
168.013
20
-228.368
11
167.87
21
-228.082
0
LINE
8
BLACK
6
CONTINUOUS
10
167.87
20
-228.082
11
167.87
21
-227.939
0
LINE
8
BLACK
6
CONTINUOUS
10
167.87
20
-227.939
11
168.013
21
-227.653
0
LINE
8
BLACK
6
CONTINUOUS
10
168.013
20
-227.653
11
168.299
21
-227.511
0
LINE
8
BLACK
6
CONTINUOUS
10
168.299
20
-227.511
11
168.727
21
-227.511
0
LINE
8
BLACK
6
CONTINUOUS
10
168.727
20
-227.511
11
169.013
21
-227.653
0
LINE
8
BLACK
6
CONTINUOUS
10
172.727
20
-228.368
11
175.013
21
-228.368
0
LINE
8
BLACK
6
CONTINUOUS
10
173.87
20
-229.511
11
173.87
21
-227.225
0
LINE
8
BLACK
6
CONTINUOUS
10
178.585
20
-226.796
11
178.727
21
-226.653
0
LINE
8
BLACK
6
CONTINUOUS
10
178.727
20
-226.653
11
179.013
21
-226.511
0
LINE
8
BLACK
6
CONTINUOUS
10
179.013
20
-226.511
11
179.727
21
-226.511
0
LINE
8
BLACK
6
CONTINUOUS
10
179.727
20
-226.511
11
180.013
21
-226.653
0
LINE
8
BLACK
6
CONTINUOUS
10
180.013
20
-226.653
11
180.156
21
-226.796
0
LINE
8
BLACK
6
CONTINUOUS
10
180.156
20
-226.796
11
180.299
21
-227.082
0
LINE
8
BLACK
6
CONTINUOUS
10
180.299
20
-227.082
11
180.299
21
-227.368
0
LINE
8
BLACK
6
CONTINUOUS
10
180.299
20
-227.368
11
180.156
21
-227.796
0
LINE
8
BLACK
6
CONTINUOUS
10
180.156
20
-227.796
11
178.442
21
-229.511
0
LINE
8
BLACK
6
CONTINUOUS
10
178.442
20
-229.511
11
180.299
21
-229.511
0
LINE
8
BLACK
6
CONTINUOUS
10
183.727
20
-229.368
11
184.013
21
-229.511
0
LINE
8
BLACK
6
CONTINUOUS
10
184.013
20
-229.511
11
184.585
21
-229.511
0
LINE
8
BLACK
6
CONTINUOUS
10
184.585
20
-229.511
11
184.87
21
-229.368
0
LINE
8
BLACK
6
CONTINUOUS
10
184.87
20
-229.368
11
185.013
21
-229.082
0
LINE
8
BLACK
6
CONTINUOUS
10
185.013
20
-229.082
11
185.013
21
-228.939
0
LINE
8
BLACK
6
CONTINUOUS
10
185.013
20
-228.939
11
184.87
21
-228.653
0
LINE
8
BLACK
6
CONTINUOUS
10
184.87
20
-228.653
11
184.585
21
-228.511
0
LINE
8
BLACK
6
CONTINUOUS
10
184.585
20
-228.511
11
184.156
21
-228.511
0
LINE
8
BLACK
6
CONTINUOUS
10
184.156
20
-228.511
11
183.87
21
-228.368
0
LINE
8
BLACK
6
CONTINUOUS
10
183.87
20
-228.368
11
183.727
21
-228.082
0
LINE
8
BLACK
6
CONTINUOUS
10
183.727
20
-228.082
11
183.727
21
-227.939
0
LINE
8
BLACK
6
CONTINUOUS
10
183.727
20
-227.939
11
183.87
21
-227.653
0
LINE
8
BLACK
6
CONTINUOUS
10
183.87
20
-227.653
11
184.156
21
-227.511
0
LINE
8
BLACK
6
CONTINUOUS
10
184.156
20
-227.511
11
184.585
21
-227.511
0
LINE
8
BLACK
6
CONTINUOUS
10
184.585
20
-227.511
11
184.87
21
-227.653
0
LINE
8
BLACK
6
CONTINUOUS
10
186.727
20
-229.511
11
186.442
21
-229.368
0
LINE
8
BLACK
6
CONTINUOUS
10
186.442
20
-229.368
11
186.299
21
-229.082
0
LINE
8
BLACK
6
CONTINUOUS
10
186.299
20
-229.082
11
186.299
21
-226.511
0
LINE
8
BLACK
6
CONTINUOUS
10
188.299
20
-229.511
11
188.013
21
-229.368
0
LINE
8
BLACK
6
CONTINUOUS
10
188.013
20
-229.368
11
187.87
21
-229.225
0
LINE
8
BLACK
6
CONTINUOUS
10
187.87
20
-229.225
11
187.727
21
-228.939
0
LINE
8
BLACK
6
CONTINUOUS
10
187.727
20
-228.939
11
187.727
21
-228.082
0
LINE
8
BLACK
6
CONTINUOUS
10
187.727
20
-228.082
11
187.87
21
-227.796
0
LINE
8
BLACK
6
CONTINUOUS
10
187.87
20
-227.796
11
188.013
21
-227.653
0
LINE
8
BLACK
6
CONTINUOUS
10
188.013
20
-227.653
11
188.299
21
-227.511
0
LINE
8
BLACK
6
CONTINUOUS
10
188.299
20
-227.511
11
188.727
21
-227.511
0
LINE
8
BLACK
6
CONTINUOUS
10
188.727
20
-227.511
11
189.013
21
-227.653
0
LINE
8
BLACK
6
CONTINUOUS
10
189.013
20
-227.653
11
189.156
21
-227.796
0
LINE
8
BLACK
6
CONTINUOUS
10
189.156
20
-227.796
11
189.299
21
-228.082
0
LINE
8
BLACK
6
CONTINUOUS
10
189.299
20
-228.082
11
189.299
21
-228.939
0
LINE
8
BLACK
6
CONTINUOUS
10
189.299
20
-228.939
11
189.156
21
-229.225
0
LINE
8
BLACK
6
CONTINUOUS
10
189.156
20
-229.225
11
189.013
21
-229.368
0
LINE
8
BLACK
6
CONTINUOUS
10
189.013
20
-229.368
11
188.727
21
-229.511
0
LINE
8
BLACK
6
CONTINUOUS
10
188.727
20
-229.511
11
188.299
21
-229.511
0
LINE
8
BLACK
6
CONTINUOUS
10
190.156
20
-227.511
11
191.299
21
-227.511
0
LINE
8
BLACK
6
CONTINUOUS
10
190.585
20
-226.511
11
190.585
21
-229.082
0
LINE
8
BLACK
6
CONTINUOUS
10
190.585
20
-229.082
11
190.727
21
-229.368
0
LINE
8
BLACK
6
CONTINUOUS
10
190.727
20
-229.368
11
191.013
21
-229.511
0
LINE
8
BLACK
6
CONTINUOUS
10
191.013
20
-229.511
11
191.299
21
-229.511
0
LINE
8
BLACK
6
CONTINUOUS
10
192.156
20
-229.368
11
192.442
21
-229.511
0
LINE
8
BLACK
6
CONTINUOUS
10
192.442
20
-229.511
11
193.013
21
-229.511
0
LINE
8
BLACK
6
CONTINUOUS
10
193.013
20
-229.511
11
193.299
21
-229.368
0
LINE
8
BLACK
6
CONTINUOUS
10
193.299
20
-229.368
11
193.442
21
-229.082
0
LINE
8
BLACK
6
CONTINUOUS
10
193.442
20
-229.082
11
193.442
21
-228.939
0
LINE
8
BLACK
6
CONTINUOUS
10
193.442
20
-228.939
11
193.299
21
-228.653
0
LINE
8
BLACK
6
CONTINUOUS
10
193.299
20
-228.653
11
193.013
21
-228.511
0
LINE
8
BLACK
6
CONTINUOUS
10
193.013
20
-228.511
11
192.585
21
-228.511
0
LINE
8
BLACK
6
CONTINUOUS
10
192.585
20
-228.511
11
192.299
21
-228.368
0
LINE
8
BLACK
6
CONTINUOUS
10
192.299
20
-228.368
11
192.156
21
-228.082
0
LINE
8
BLACK
6
CONTINUOUS
10
192.156
20
-228.082
11
192.156
21
-227.939
0
LINE
8
BLACK
6
CONTINUOUS
10
192.156
20
-227.939
11
192.299
21
-227.653
0
LINE
8
BLACK
6
CONTINUOUS
10
192.299
20
-227.653
11
192.585
21
-227.511
0
LINE
8
BLACK
6
CONTINUOUS
10
192.585
20
-227.511
11
193.013
21
-227.511
0
LINE
8
BLACK
6
CONTINUOUS
10
193.013
20
-227.511
11
193.299
21
-227.653
0
LINE
8
BLACK
6
CONTINUOUS
10
194.442
20
-230.653
11
194.585
21
-230.511
0
LINE
8
BLACK
6
CONTINUOUS
10
194.585
20
-230.511
11
194.87
21
-230.082
0
LINE
8
BLACK
6
CONTINUOUS
10
194.87
20
-230.082
11
195.013
21
-229.796
0
LINE
8
BLACK
6
CONTINUOUS
10
195.013
20
-229.796
11
195.156
21
-229.368
0
LINE
8
BLACK
6
CONTINUOUS
10
195.156
20
-229.368
11
195.299
21
-228.653
0
LINE
8
BLACK
6
CONTINUOUS
10
195.299
20
-228.653
11
195.299
21
-228.082
0
LINE
8
BLACK
6
CONTINUOUS
10
195.299
20
-228.082
11
195.156
21
-227.368
0
LINE
8
BLACK
6
CONTINUOUS
10
195.156
20
-227.368
11
195.013
21
-226.939
0
LINE
8
BLACK
6
CONTINUOUS
10
195.013
20
-226.939
11
194.87
21
-226.653
0
LINE
8
BLACK
6
CONTINUOUS
10
194.87
20
-226.653
11
194.585
21
-226.225
0
LINE
8
BLACK
6
CONTINUOUS
10
194.585
20
-226.225
11
194.442
21
-226.082
0
LINE
8
BLACK
6
CONTINUOUS
10
104.823
20
-233.245
11
104.823
21
-230.982
0
LINE
8
BLACK
6
CONTINUOUS
10
104.823
20
-230.982
11
102.56
21
-230.982
0
LINE
8
BLACK
6
CONTINUOUS
10
102.56
20
-230.982
11
102.56
21
-233.245
0
LINE
8
BLACK
6
CONTINUOUS
10
102.56
20
-233.245
11
104.823
21
-233.245
0
LINE
8
BLACK
6
CONTINUOUS
10
107.87
20
-230.471
11
109.727
21
-230.471
0
LINE
8
BLACK
6
CONTINUOUS
10
109.727
20
-230.471
11
108.727
21
-231.613
0
LINE
8
BLACK
6
CONTINUOUS
10
108.727
20
-231.613
11
109.156
21
-231.613
0
LINE
8
BLACK
6
CONTINUOUS
10
109.156
20
-231.613
11
109.442
21
-231.756
0
LINE
8
BLACK
6
CONTINUOUS
10
109.442
20
-231.756
11
109.585
21
-231.899
0
LINE
8
BLACK
6
CONTINUOUS
10
109.585
20
-231.899
11
109.727
21
-232.185
0
LINE
8
BLACK
6
CONTINUOUS
10
109.727
20
-232.185
11
109.727
21
-232.899
0
LINE
8
BLACK
6
CONTINUOUS
10
109.727
20
-232.899
11
109.585
21
-233.185
0
LINE
8
BLACK
6
CONTINUOUS
10
109.585
20
-233.185
11
109.442
21
-233.328
0
LINE
8
BLACK
6
CONTINUOUS
10
109.442
20
-233.328
11
109.156
21
-233.471
0
LINE
8
BLACK
6
CONTINUOUS
10
109.156
20
-233.471
11
108.299
21
-233.471
0
LINE
8
BLACK
6
CONTINUOUS
10
108.299
20
-233.471
11
108.013
21
-233.328
0
LINE
8
BLACK
6
CONTINUOUS
10
108.013
20
-233.328
11
107.87
21
-233.185
0
LINE
8
BLACK
6
CONTINUOUS
10
111.013
20
-233.185
11
111.156
21
-233.328
0
LINE
8
BLACK
6
CONTINUOUS
10
111.156
20
-233.328
11
111.013
21
-233.471
0
LINE
8
BLACK
6
CONTINUOUS
10
111.013
20
-233.471
11
110.87
21
-233.328
0
LINE
8
BLACK
6
CONTINUOUS
10
110.87
20
-233.328
11
111.013
21
-233.185
0
LINE
8
BLACK
6
CONTINUOUS
10
111.013
20
-233.185
11
111.013
21
-233.471
0
LINE
8
BLACK
6
CONTINUOUS
10
112.299
20
-230.756
11
112.442
21
-230.613
0
LINE
8
BLACK
6
CONTINUOUS
10
112.442
20
-230.613
11
112.727
21
-230.471
0
LINE
8
BLACK
6
CONTINUOUS
10
112.727
20
-230.471
11
113.442
21
-230.471
0
LINE
8
BLACK
6
CONTINUOUS
10
113.442
20
-230.471
11
113.727
21
-230.613
0
LINE
8
BLACK
6
CONTINUOUS
10
113.727
20
-230.613
11
113.87
21
-230.756
0
LINE
8
BLACK
6
CONTINUOUS
10
113.87
20
-230.756
11
114.013
21
-231.042
0
LINE
8
BLACK
6
CONTINUOUS
10
114.013
20
-231.042
11
114.013
21
-231.328
0
LINE
8
BLACK
6
CONTINUOUS
10
114.013
20
-231.328
11
113.87
21
-231.756
0
LINE
8
BLACK
6
CONTINUOUS
10
113.87
20
-231.756
11
112.156
21
-233.471
0
LINE
8
BLACK
6
CONTINUOUS
10
112.156
20
-233.471
11
114.013
21
-233.471
0
LINE
8
BLACK
6
CONTINUOUS
10
115.87
20
-230.471
11
116.156
21
-230.471
0
LINE
8
BLACK
6
CONTINUOUS
10
116.156
20
-230.471
11
116.442
21
-230.613
0
LINE
8
BLACK
6
CONTINUOUS
10
116.442
20
-230.613
11
116.585
21
-230.756
0
LINE
8
BLACK
6
CONTINUOUS
10
116.585
20
-230.756
11
116.727
21
-231.042
0
LINE
8
BLACK
6
CONTINUOUS
10
116.727
20
-231.042
11
116.87
21
-231.613
0
LINE
8
BLACK
6
CONTINUOUS
10
116.87
20
-231.613
11
116.87
21
-232.328
0
LINE
8
BLACK
6
CONTINUOUS
10
116.87
20
-232.328
11
116.727
21
-232.899
0
LINE
8
BLACK
6
CONTINUOUS
10
116.727
20
-232.899
11
116.585
21
-233.185
0
LINE
8
BLACK
6
CONTINUOUS
10
116.585
20
-233.185
11
116.442
21
-233.328
0
LINE
8
BLACK
6
CONTINUOUS
10
116.442
20
-233.328
11
116.156
21
-233.471
0
LINE
8
BLACK
6
CONTINUOUS
10
116.156
20
-233.471
11
115.87
21
-233.471
0
LINE
8
BLACK
6
CONTINUOUS
10
115.87
20
-233.471
11
115.585
21
-233.328
0
LINE
8
BLACK
6
CONTINUOUS
10
115.585
20
-233.328
11
115.442
21
-233.185
0
LINE
8
BLACK
6
CONTINUOUS
10
115.442
20
-233.185
11
115.299
21
-232.899
0
LINE
8
BLACK
6
CONTINUOUS
10
115.299
20
-232.899
11
115.156
21
-232.328
0
LINE
8
BLACK
6
CONTINUOUS
10
115.156
20
-232.328
11
115.156
21
-231.613
0
LINE
8
BLACK
6
CONTINUOUS
10
115.156
20
-231.613
11
115.299
21
-231.042
0
LINE
8
BLACK
6
CONTINUOUS
10
115.299
20
-231.042
11
115.442
21
-230.756
0
LINE
8
BLACK
6
CONTINUOUS
10
115.442
20
-230.756
11
115.585
21
-230.613
0
LINE
8
BLACK
6
CONTINUOUS
10
115.585
20
-230.613
11
115.87
21
-230.471
0
LINE
8
BLACK
6
CONTINUOUS
10
118.156
20
-233.471
11
118.156
21
-231.471
0
LINE
8
BLACK
6
CONTINUOUS
10
118.156
20
-231.756
11
118.299
21
-231.613
0
LINE
8
BLACK
6
CONTINUOUS
10
118.299
20
-231.613
11
118.585
21
-231.471
0
LINE
8
BLACK
6
CONTINUOUS
10
118.585
20
-231.471
11
119.013
21
-231.471
0
LINE
8
BLACK
6
CONTINUOUS
10
119.013
20
-231.471
11
119.299
21
-231.613
0
LINE
8
BLACK
6
CONTINUOUS
10
119.299
20
-231.613
11
119.442
21
-231.899
0
LINE
8
BLACK
6
CONTINUOUS
10
119.442
20
-231.899
11
119.442
21
-233.471
0
LINE
8
BLACK
6
CONTINUOUS
10
119.442
20
-231.899
11
119.585
21
-231.613
0
LINE
8
BLACK
6
CONTINUOUS
10
119.585
20
-231.613
11
119.87
21
-231.471
0
LINE
8
BLACK
6
CONTINUOUS
10
119.87
20
-231.471
11
120.299
21
-231.471
0
LINE
8
BLACK
6
CONTINUOUS
10
120.299
20
-231.471
11
120.585
21
-231.613
0
LINE
8
BLACK
6
CONTINUOUS
10
120.585
20
-231.613
11
120.727
21
-231.899
0
LINE
8
BLACK
6
CONTINUOUS
10
120.727
20
-231.899
11
120.727
21
-233.471
0
LINE
8
BLACK
6
CONTINUOUS
10
122.156
20
-233.471
11
122.156
21
-231.471
0
LINE
8
BLACK
6
CONTINUOUS
10
122.156
20
-231.756
11
122.299
21
-231.613
0
LINE
8
BLACK
6
CONTINUOUS
10
122.299
20
-231.613
11
122.585
21
-231.471
0
LINE
8
BLACK
6
CONTINUOUS
10
122.585
20
-231.471
11
123.013
21
-231.471
0
LINE
8
BLACK
6
CONTINUOUS
10
123.013
20
-231.471
11
123.299
21
-231.613
0
LINE
8
BLACK
6
CONTINUOUS
10
123.299
20
-231.613
11
123.442
21
-231.899
0
LINE
8
BLACK
6
CONTINUOUS
10
123.442
20
-231.899
11
123.442
21
-233.471
0
LINE
8
BLACK
6
CONTINUOUS
10
123.442
20
-231.899
11
123.585
21
-231.613
0
LINE
8
BLACK
6
CONTINUOUS
10
123.585
20
-231.613
11
123.87
21
-231.471
0
LINE
8
BLACK
6
CONTINUOUS
10
123.87
20
-231.471
11
124.299
21
-231.471
0
LINE
8
BLACK
6
CONTINUOUS
10
124.299
20
-231.471
11
124.585
21
-231.613
0
LINE
8
BLACK
6
CONTINUOUS
10
124.585
20
-231.613
11
124.727
21
-231.899
0
LINE
8
BLACK
6
CONTINUOUS
10
124.727
20
-231.899
11
124.727
21
-233.471
0
LINE
8
BLACK
6
CONTINUOUS
10
130.585
20
-230.328
11
128.013
21
-234.185
0
LINE
8
BLACK
6
CONTINUOUS
10
134.442
20
-230.471
11
134.727
21
-230.471
0
LINE
8
BLACK
6
CONTINUOUS
10
134.727
20
-230.471
11
135.013
21
-230.613
0
LINE
8
BLACK
6
CONTINUOUS
10
135.013
20
-230.613
11
135.156
21
-230.756
0
LINE
8
BLACK
6
CONTINUOUS
10
135.156
20
-230.756
11
135.299
21
-231.042
0
LINE
8
BLACK
6
CONTINUOUS
10
135.299
20
-231.042
11
135.442
21
-231.613
0
LINE
8
BLACK
6
CONTINUOUS
10
135.442
20
-231.613
11
135.442
21
-232.328
0
LINE
8
BLACK
6
CONTINUOUS
10
135.442
20
-232.328
11
135.299
21
-232.899
0
LINE
8
BLACK
6
CONTINUOUS
10
135.299
20
-232.899
11
135.156
21
-233.185
0
LINE
8
BLACK
6
CONTINUOUS
10
135.156
20
-233.185
11
135.013
21
-233.328
0
LINE
8
BLACK
6
CONTINUOUS
10
135.013
20
-233.328
11
134.727
21
-233.471
0
LINE
8
BLACK
6
CONTINUOUS
10
134.727
20
-233.471
11
134.442
21
-233.471
0
LINE
8
BLACK
6
CONTINUOUS
10
134.442
20
-233.471
11
134.156
21
-233.328
0
LINE
8
BLACK
6
CONTINUOUS
10
134.156
20
-233.328
11
134.013
21
-233.185
0
LINE
8
BLACK
6
CONTINUOUS
10
134.013
20
-233.185
11
133.87
21
-232.899
0
LINE
8
BLACK
6
CONTINUOUS
10
133.87
20
-232.899
11
133.727
21
-232.328
0
LINE
8
BLACK
6
CONTINUOUS
10
133.727
20
-232.328
11
133.727
21
-231.613
0
LINE
8
BLACK
6
CONTINUOUS
10
133.727
20
-231.613
11
133.87
21
-231.042
0
LINE
8
BLACK
6
CONTINUOUS
10
133.87
20
-231.042
11
134.013
21
-230.756
0
LINE
8
BLACK
6
CONTINUOUS
10
134.013
20
-230.756
11
134.156
21
-230.613
0
LINE
8
BLACK
6
CONTINUOUS
10
134.156
20
-230.613
11
134.442
21
-230.471
0
LINE
8
BLACK
6
CONTINUOUS
10
136.727
20
-233.185
11
136.87
21
-233.328
0
LINE
8
BLACK
6
CONTINUOUS
10
136.87
20
-233.328
11
136.727
21
-233.471
0
LINE
8
BLACK
6
CONTINUOUS
10
136.727
20
-233.471
11
136.585
21
-233.328
0
LINE
8
BLACK
6
CONTINUOUS
10
136.585
20
-233.328
11
136.727
21
-233.185
0
LINE
8
BLACK
6
CONTINUOUS
10
136.727
20
-233.185
11
136.727
21
-233.471
0
LINE
8
BLACK
6
CONTINUOUS
10
139.727
20
-233.471
11
138.013
21
-233.471
0
LINE
8
BLACK
6
CONTINUOUS
10
138.87
20
-233.471
11
138.87
21
-230.471
0
LINE
8
BLACK
6
CONTINUOUS
10
138.87
20
-230.471
11
138.585
21
-230.899
0
LINE
8
BLACK
6
CONTINUOUS
10
138.585
20
-230.899
11
138.299
21
-231.185
0
LINE
8
BLACK
6
CONTINUOUS
10
138.299
20
-231.185
11
138.013
21
-231.328
0
LINE
8
BLACK
6
CONTINUOUS
10
140.87
20
-230.756
11
141.013
21
-230.613
0
LINE
8
BLACK
6
CONTINUOUS
10
141.013
20
-230.613
11
141.299
21
-230.471
0
LINE
8
BLACK
6
CONTINUOUS
10
141.299
20
-230.471
11
142.013
21
-230.471
0
LINE
8
BLACK
6
CONTINUOUS
10
142.013
20
-230.471
11
142.299
21
-230.613
0
LINE
8
BLACK
6
CONTINUOUS
10
142.299
20
-230.613
11
142.442
21
-230.756
0
LINE
8
BLACK
6
CONTINUOUS
10
142.442
20
-230.756
11
142.585
21
-231.042
0
LINE
8
BLACK
6
CONTINUOUS
10
142.585
20
-231.042
11
142.585
21
-231.328
0
LINE
8
BLACK
6
CONTINUOUS
10
142.585
20
-231.328
11
142.442
21
-231.756
0
LINE
8
BLACK
6
CONTINUOUS
10
142.442
20
-231.756
11
140.727
21
-233.471
0
LINE
8
BLACK
6
CONTINUOUS
10
140.727
20
-233.471
11
142.585
21
-233.471
0
LINE
8
BLACK
6
CONTINUOUS
10
145.156
20
-230.471
11
144.585
21
-230.471
0
LINE
8
BLACK
6
CONTINUOUS
10
144.585
20
-230.471
11
144.299
21
-230.613
0
LINE
8
BLACK
6
CONTINUOUS
10
144.299
20
-230.613
11
144.156
21
-230.756
0
LINE
8
BLACK
6
CONTINUOUS
10
144.156
20
-230.756
11
143.87
21
-231.185
0
LINE
8
BLACK
6
CONTINUOUS
10
143.87
20
-231.185
11
143.727
21
-231.756
0
LINE
8
BLACK
6
CONTINUOUS
10
143.727
20
-231.756
11
143.727
21
-232.899
0
LINE
8
BLACK
6
CONTINUOUS
10
143.727
20
-232.899
11
143.87
21
-233.185
0
LINE
8
BLACK
6
CONTINUOUS
10
143.87
20
-233.185
11
144.013
21
-233.328
0
LINE
8
BLACK
6
CONTINUOUS
10
144.013
20
-233.328
11
144.299
21
-233.471
0
LINE
8
BLACK
6
CONTINUOUS
10
144.299
20
-233.471
11
144.87
21
-233.471
0
LINE
8
BLACK
6
CONTINUOUS
10
144.87
20
-233.471
11
145.156
21
-233.328
0
LINE
8
BLACK
6
CONTINUOUS
10
145.156
20
-233.328
11
145.299
21
-233.185
0
LINE
8
BLACK
6
CONTINUOUS
10
145.299
20
-233.185
11
145.442
21
-232.899
0
LINE
8
BLACK
6
CONTINUOUS
10
145.442
20
-232.899
11
145.442
21
-232.185
0
LINE
8
BLACK
6
CONTINUOUS
10
145.442
20
-232.185
11
145.299
21
-231.899
0
LINE
8
BLACK
6
CONTINUOUS
10
145.299
20
-231.899
11
145.156
21
-231.756
0
LINE
8
BLACK
6
CONTINUOUS
10
145.156
20
-231.756
11
144.87
21
-231.613
0
LINE
8
BLACK
6
CONTINUOUS
10
144.87
20
-231.613
11
144.299
21
-231.613
0
LINE
8
BLACK
6
CONTINUOUS
10
144.299
20
-231.613
11
144.013
21
-231.756
0
LINE
8
BLACK
6
CONTINUOUS
10
144.013
20
-231.756
11
143.87
21
-231.899
0
LINE
8
BLACK
6
CONTINUOUS
10
143.87
20
-231.899
11
143.727
21
-232.185
0
LINE
8
BLACK
6
CONTINUOUS
10
146.585
20
-230.471
11
146.585
21
-231.042
0
LINE
8
BLACK
6
CONTINUOUS
10
147.727
20
-230.471
11
147.727
21
-231.042
0
LINE
8
BLACK
6
CONTINUOUS
10
152.156
20
-234.613
11
152.013
21
-234.471
0
LINE
8
BLACK
6
CONTINUOUS
10
152.013
20
-234.471
11
151.727
21
-234.042
0
LINE
8
BLACK
6
CONTINUOUS
10
151.727
20
-234.042
11
151.585
21
-233.756
0
LINE
8
BLACK
6
CONTINUOUS
10
151.585
20
-233.756
11
151.442
21
-233.328
0
LINE
8
BLACK
6
CONTINUOUS
10
151.442
20
-233.328
11
151.299
21
-232.613
0
LINE
8
BLACK
6
CONTINUOUS
10
151.299
20
-232.613
11
151.299
21
-232.042
0
LINE
8
BLACK
6
CONTINUOUS
10
151.299
20
-232.042
11
151.442
21
-231.328
0
LINE
8
BLACK
6
CONTINUOUS
10
151.442
20
-231.328
11
151.585
21
-230.899
0
LINE
8
BLACK
6
CONTINUOUS
10
151.585
20
-230.899
11
151.727
21
-230.613
0
LINE
8
BLACK
6
CONTINUOUS
10
151.727
20
-230.613
11
152.013
21
-230.185
0
LINE
8
BLACK
6
CONTINUOUS
10
152.013
20
-230.185
11
152.156
21
-230.042
0
LINE
8
BLACK
6
CONTINUOUS
10
154.87
20
-233.471
11
153.156
21
-233.471
0
LINE
8
BLACK
6
CONTINUOUS
10
154.013
20
-233.471
11
154.013
21
-230.471
0
LINE
8
BLACK
6
CONTINUOUS
10
154.013
20
-230.471
11
153.727
21
-230.899
0
LINE
8
BLACK
6
CONTINUOUS
10
153.727
20
-230.899
11
153.442
21
-231.185
0
LINE
8
BLACK
6
CONTINUOUS
10
153.442
20
-231.185
11
153.156
21
-231.328
0
LINE
8
BLACK
6
CONTINUOUS
10
156.727
20
-230.471
11
157.013
21
-230.471
0
LINE
8
BLACK
6
CONTINUOUS
10
157.013
20
-230.471
11
157.299
21
-230.613
0
LINE
8
BLACK
6
CONTINUOUS
10
157.299
20
-230.613
11
157.442
21
-230.756
0
LINE
8
BLACK
6
CONTINUOUS
10
157.442
20
-230.756
11
157.585
21
-231.042
0
LINE
8
BLACK
6
CONTINUOUS
10
157.585
20
-231.042
11
157.727
21
-231.613
0
LINE
8
BLACK
6
CONTINUOUS
10
157.727
20
-231.613
11
157.727
21
-232.328
0
LINE
8
BLACK
6
CONTINUOUS
10
157.727
20
-232.328
11
157.585
21
-232.899
0
LINE
8
BLACK
6
CONTINUOUS
10
157.585
20
-232.899
11
157.442
21
-233.185
0
LINE
8
BLACK
6
CONTINUOUS
10
157.442
20
-233.185
11
157.299
21
-233.328
0
LINE
8
BLACK
6
CONTINUOUS
10
157.299
20
-233.328
11
157.013
21
-233.471
0
LINE
8
BLACK
6
CONTINUOUS
10
157.013
20
-233.471
11
156.727
21
-233.471
0
LINE
8
BLACK
6
CONTINUOUS
10
156.727
20
-233.471
11
156.442
21
-233.328
0
LINE
8
BLACK
6
CONTINUOUS
10
156.442
20
-233.328
11
156.299
21
-233.185
0
LINE
8
BLACK
6
CONTINUOUS
10
156.299
20
-233.185
11
156.156
21
-232.899
0
LINE
8
BLACK
6
CONTINUOUS
10
156.156
20
-232.899
11
156.013
21
-232.328
0
LINE
8
BLACK
6
CONTINUOUS
10
156.013
20
-232.328
11
156.013
21
-231.613
0
LINE
8
BLACK
6
CONTINUOUS
10
156.013
20
-231.613
11
156.156
21
-231.042
0
LINE
8
BLACK
6
CONTINUOUS
10
156.156
20
-231.042
11
156.299
21
-230.756
0
LINE
8
BLACK
6
CONTINUOUS
10
156.299
20
-230.756
11
156.442
21
-230.613
0
LINE
8
BLACK
6
CONTINUOUS
10
156.442
20
-230.613
11
156.727
21
-230.471
0
LINE
8
BLACK
6
CONTINUOUS
10
161.299
20
-233.471
11
161.299
21
-230.471
0
LINE
8
BLACK
6
CONTINUOUS
10
162.585
20
-233.471
11
162.585
21
-231.899
0
LINE
8
BLACK
6
CONTINUOUS
10
162.585
20
-231.899
11
162.442
21
-231.613
0
LINE
8
BLACK
6
CONTINUOUS
10
162.442
20
-231.613
11
162.156
21
-231.471
0
LINE
8
BLACK
6
CONTINUOUS
10
162.156
20
-231.471
11
161.727
21
-231.471
0
LINE
8
BLACK
6
CONTINUOUS
10
161.727
20
-231.471
11
161.442
21
-231.613
0
LINE
8
BLACK
6
CONTINUOUS
10
161.442
20
-231.613
11
161.299
21
-231.756
0
LINE
8
BLACK
6
CONTINUOUS
10
164.442
20
-233.471
11
164.156
21
-233.328
0
LINE
8
BLACK
6
CONTINUOUS
10
164.156
20
-233.328
11
164.013
21
-233.185
0
LINE
8
BLACK
6
CONTINUOUS
10
164.013
20
-233.185
11
163.87
21
-232.899
0
LINE
8
BLACK
6
CONTINUOUS
10
163.87
20
-232.899
11
163.87
21
-232.042
0
LINE
8
BLACK
6
CONTINUOUS
10
163.87
20
-232.042
11
164.013
21
-231.756
0
LINE
8
BLACK
6
CONTINUOUS
10
164.013
20
-231.756
11
164.156
21
-231.613
0
LINE
8
BLACK
6
CONTINUOUS
10
164.156
20
-231.613
11
164.442
21
-231.471
0
LINE
8
BLACK
6
CONTINUOUS
10
164.442
20
-231.471
11
164.87
21
-231.471
0
LINE
8
BLACK
6
CONTINUOUS
10
164.87
20
-231.471
11
165.156
21
-231.613
0
LINE
8
BLACK
6
CONTINUOUS
10
165.156
20
-231.613
11
165.299
21
-231.756
0
LINE
8
BLACK
6
CONTINUOUS
10
165.299
20
-231.756
11
165.442
21
-232.042
0
LINE
8
BLACK
6
CONTINUOUS
10
165.442
20
-232.042
11
165.442
21
-232.899
0
LINE
8
BLACK
6
CONTINUOUS
10
165.442
20
-232.899
11
165.299
21
-233.185
0
LINE
8
BLACK
6
CONTINUOUS
10
165.299
20
-233.185
11
165.156
21
-233.328
0
LINE
8
BLACK
6
CONTINUOUS
10
165.156
20
-233.328
11
164.87
21
-233.471
0
LINE
8
BLACK
6
CONTINUOUS
10
164.87
20
-233.471
11
164.442
21
-233.471
0
LINE
8
BLACK
6
CONTINUOUS
10
167.156
20
-233.471
11
166.87
21
-233.328
0
LINE
8
BLACK
6
CONTINUOUS
10
166.87
20
-233.328
11
166.727
21
-233.042
0
LINE
8
BLACK
6
CONTINUOUS
10
166.727
20
-233.042
11
166.727
21
-230.471
0
LINE
8
BLACK
6
CONTINUOUS
10
169.442
20
-233.328
11
169.156
21
-233.471
0
LINE
8
BLACK
6
CONTINUOUS
10
169.156
20
-233.471
11
168.585
21
-233.471
0
LINE
8
BLACK
6
CONTINUOUS
10
168.585
20
-233.471
11
168.299
21
-233.328
0
LINE
8
BLACK
6
CONTINUOUS
10
168.299
20
-233.328
11
168.156
21
-233.042
0
LINE
8
BLACK
6
CONTINUOUS
10
168.156
20
-233.042
11
168.156
21
-231.899
0
LINE
8
BLACK
6
CONTINUOUS
10
168.156
20
-231.899
11
168.299
21
-231.613
0
LINE
8
BLACK
6
CONTINUOUS
10
168.299
20
-231.613
11
168.585
21
-231.471
0
LINE
8
BLACK
6
CONTINUOUS
10
168.585
20
-231.471
11
169.156
21
-231.471
0
LINE
8
BLACK
6
CONTINUOUS
10
169.156
20
-231.471
11
169.442
21
-231.613
0
LINE
8
BLACK
6
CONTINUOUS
10
169.442
20
-231.613
11
169.585
21
-231.899
0
LINE
8
BLACK
6
CONTINUOUS
10
169.585
20
-231.899
11
169.585
21
-232.185
0
LINE
8
BLACK
6
CONTINUOUS
10
169.585
20
-232.185
11
168.156
21
-232.471
0
LINE
8
BLACK
6
CONTINUOUS
10
170.727
20
-233.328
11
171.013
21
-233.471
0
LINE
8
BLACK
6
CONTINUOUS
10
171.013
20
-233.471
11
171.585
21
-233.471
0
LINE
8
BLACK
6
CONTINUOUS
10
171.585
20
-233.471
11
171.87
21
-233.328
0
LINE
8
BLACK
6
CONTINUOUS
10
171.87
20
-233.328
11
172.013
21
-233.042
0
LINE
8
BLACK
6
CONTINUOUS
10
172.013
20
-233.042
11
172.013
21
-232.899
0
LINE
8
BLACK
6
CONTINUOUS
10
172.013
20
-232.899
11
171.87
21
-232.613
0
LINE
8
BLACK
6
CONTINUOUS
10
171.87
20
-232.613
11
171.585
21
-232.471
0
LINE
8
BLACK
6
CONTINUOUS
10
171.585
20
-232.471
11
171.156
21
-232.471
0
LINE
8
BLACK
6
CONTINUOUS
10
171.156
20
-232.471
11
170.87
21
-232.328
0
LINE
8
BLACK
6
CONTINUOUS
10
170.87
20
-232.328
11
170.727
21
-232.042
0
LINE
8
BLACK
6
CONTINUOUS
10
170.727
20
-232.042
11
170.727
21
-231.899
0
LINE
8
BLACK
6
CONTINUOUS
10
170.727
20
-231.899
11
170.87
21
-231.613
0
LINE
8
BLACK
6
CONTINUOUS
10
170.87
20
-231.613
11
171.156
21
-231.471
0
LINE
8
BLACK
6
CONTINUOUS
10
171.156
20
-231.471
11
171.585
21
-231.471
0
LINE
8
BLACK
6
CONTINUOUS
10
171.585
20
-231.471
11
171.87
21
-231.613
0
LINE
8
BLACK
6
CONTINUOUS
10
173.013
20
-234.613
11
173.156
21
-234.471
0
LINE
8
BLACK
6
CONTINUOUS
10
173.156
20
-234.471
11
173.442
21
-234.042
0
LINE
8
BLACK
6
CONTINUOUS
10
173.442
20
-234.042
11
173.585
21
-233.756
0
LINE
8
BLACK
6
CONTINUOUS
10
173.585
20
-233.756
11
173.727
21
-233.328
0
LINE
8
BLACK
6
CONTINUOUS
10
173.727
20
-233.328
11
173.87
21
-232.613
0
LINE
8
BLACK
6
CONTINUOUS
10
173.87
20
-232.613
11
173.87
21
-232.042
0
LINE
8
BLACK
6
CONTINUOUS
10
173.87
20
-232.042
11
173.727
21
-231.328
0
LINE
8
BLACK
6
CONTINUOUS
10
173.727
20
-231.328
11
173.585
21
-230.899
0
LINE
8
BLACK
6
CONTINUOUS
10
173.585
20
-230.899
11
173.442
21
-230.613
0
LINE
8
BLACK
6
CONTINUOUS
10
173.442
20
-230.613
11
173.156
21
-230.185
0
LINE
8
BLACK
6
CONTINUOUS
10
173.156
20
-230.185
11
173.013
21
-230.042
  0
ENDSEC
  0
EOF
