  0
SECTION
  2
HEADER
  9
$ANGBASE
  50
0.0
  9
$ANGDIR
  70
1
  9
$MEASUREMENT
  70
1
  0
ENDSEC
  0
SECTION
  2
TABLES
  0
TABLE
  2
LTYPE
  70
4
  0
LTYPE
  5
40F
  2
CONTINUOUS
  70
0
  3
Solid line
  72
65
  73
0
  40
0.0
  0
LTYPE
  5
410
  2
DASHDOT
 70
0
  3
Dash Dot ____ _ ____ _
 72
65
 73
4
 40
2.0
 49
1.25
 49
-0.25
 49
0.25
 49
-0.25
  0
LTYPE
  5
411
  2
DASHED
 70
0
  3
Dashed __ __ __ __ __
 72
65
 73
2
 40
0.75
 49
0.5
 49
-0.25
  0
LTYPE
  5
43B
  2
DOTTED
 70
0
  3
Dotted .  .  .  .
 72
65
 73
2
 40
0.2
 49
0.0
 49
-0.2
  0
ENDTAB
  0
TABLE
  2
STYLE
  70
4
  0
STYLE
  2
KICAD
  70
0
  40
0
  41
1
  42
1
  50
0
  71
0
  3
isocp.shx
  0
STYLE
  2
KICADB
  70
0
  40
0
  41
1
  42
1
  50
0
  71
0
  3
isocp.shx
  0
STYLE
  2
KICADI
  70
0
  40
0
  41
1
  42
1
  50
15
  71
0
  3
isocp.shx
  0
STYLE
  2
KICADBI
  70
0
  40
0
  41
1
  42
1
  50
15
  71
0
  3
isocp.shx
  0
ENDTAB
  0
TABLE
  2
LAYER
  70
1
  0
LAYER
  2
BLACK
  70
0
  62
7
  6
CONTINUOUS
  0
ENDTAB
  0
ENDSEC
  0
SECTION
  2
ENTITIES
0
LINE
8
BLACK
6
CONTINUOUS
10
134.944
20
-140.458
11
134.955
21
-140.461
0
LINE
8
BLACK
6
CONTINUOUS
10
134.955
20
-140.461
11
134.966
21
-140.467
0
LINE
8
BLACK
6
CONTINUOUS
10
134.966
20
-140.467
11
134.975
21
-140.475
0
LINE
8
BLACK
6
CONTINUOUS
10
134.975
20
-140.475
11
134.977
21
-140.477
0
LINE
8
BLACK
6
CONTINUOUS
10
134.977
20
-140.477
11
148.443
21
-153.943
0
LINE
8
BLACK
6
CONTINUOUS
10
148.443
20
-153.943
11
148.445
21
-153.945
0
LINE
8
BLACK
6
CONTINUOUS
10
148.445
20
-153.945
11
148.447
21
-153.947
0
LINE
8
BLACK
6
CONTINUOUS
10
148.447
20
-153.947
11
148.447
21
-153.947
0
LINE
8
BLACK
6
CONTINUOUS
10
148.447
20
-153.947
11
148.453
21
-153.954
0
LINE
8
BLACK
6
CONTINUOUS
10
148.453
20
-153.954
11
148.458
21
-153.964
0
LINE
8
BLACK
6
CONTINUOUS
10
148.458
20
-153.964
11
148.462
21
-153.976
0
LINE
8
BLACK
6
CONTINUOUS
10
148.462
20
-153.976
11
148.463
21
-153.988
0
LINE
8
BLACK
6
CONTINUOUS
10
148.463
20
-153.988
11
148.462
21
-153.999
0
LINE
8
BLACK
6
CONTINUOUS
10
148.462
20
-153.999
11
148.458
21
-154.011
0
LINE
8
BLACK
6
CONTINUOUS
10
148.458
20
-154.011
11
148.457
21
-154.014
0
LINE
8
BLACK
6
CONTINUOUS
10
148.457
20
-154.014
11
148.453
21
-154.021
0
LINE
8
BLACK
6
CONTINUOUS
10
148.453
20
-154.021
11
148.447
21
-154.028
0
LINE
8
BLACK
6
CONTINUOUS
10
148.447
20
-154.028
11
148.447
21
-154.028
0
LINE
8
BLACK
6
CONTINUOUS
10
148.447
20
-154.028
11
148.445
21
-154.03
0
LINE
8
BLACK
6
CONTINUOUS
10
148.445
20
-154.03
11
148.443
21
-154.032
0
LINE
8
BLACK
6
CONTINUOUS
10
148.443
20
-154.032
11
134.994
21
-167.481
0
LINE
8
BLACK
6
CONTINUOUS
10
134.994
20
-167.481
11
148.443
21
-180.931
0
LINE
8
BLACK
6
CONTINUOUS
10
148.443
20
-180.931
11
148.445
21
-180.932
0
LINE
8
BLACK
6
CONTINUOUS
10
148.445
20
-180.932
11
148.447
21
-180.935
0
LINE
8
BLACK
6
CONTINUOUS
10
148.447
20
-180.935
11
148.447
21
-180.935
0
LINE
8
BLACK
6
CONTINUOUS
10
148.447
20
-180.935
11
148.453
21
-180.942
0
LINE
8
BLACK
6
CONTINUOUS
10
148.453
20
-180.942
11
148.455
21
-180.946
0
LINE
8
BLACK
6
CONTINUOUS
10
148.455
20
-180.946
11
148.459
21
-180.948
0
LINE
8
BLACK
6
CONTINUOUS
10
148.459
20
-180.948
11
148.464
21
-180.952
0
LINE
8
BLACK
6
CONTINUOUS
10
148.464
20
-180.952
11
148.469
21
-180.956
0
LINE
8
BLACK
6
CONTINUOUS
10
148.469
20
-180.956
11
148.471
21
-180.958
0
LINE
8
BLACK
6
CONTINUOUS
10
148.471
20
-180.958
11
161.937
21
-194.424
0
LINE
8
BLACK
6
CONTINUOUS
10
161.937
20
-194.424
11
161.939
21
-194.426
0
LINE
8
BLACK
6
CONTINUOUS
10
161.939
20
-194.426
11
161.941
21
-194.428
0
LINE
8
BLACK
6
CONTINUOUS
10
161.941
20
-194.428
11
161.941
21
-194.428
0
LINE
8
BLACK
6
CONTINUOUS
10
161.941
20
-194.428
11
161.947
21
-194.435
0
LINE
8
BLACK
6
CONTINUOUS
10
161.947
20
-194.435
11
161.952
21
-194.446
0
LINE
8
BLACK
6
CONTINUOUS
10
161.952
20
-194.446
11
161.956
21
-194.457
0
LINE
8
BLACK
6
CONTINUOUS
10
161.956
20
-194.457
11
161.957
21
-194.469
0
LINE
8
BLACK
6
CONTINUOUS
10
161.957
20
-194.469
11
161.956
21
-194.481
0
LINE
8
BLACK
6
CONTINUOUS
10
161.956
20
-194.481
11
161.952
21
-194.492
0
LINE
8
BLACK
6
CONTINUOUS
10
161.952
20
-194.492
11
161.952
21
-194.492
0
LINE
8
BLACK
6
CONTINUOUS
10
161.952
20
-194.492
11
161.947
21
-194.502
0
LINE
8
BLACK
6
CONTINUOUS
10
161.947
20
-194.502
11
161.941
21
-194.509
0
LINE
8
BLACK
6
CONTINUOUS
10
161.941
20
-194.509
11
161.941
21
-194.509
0
LINE
8
BLACK
6
CONTINUOUS
10
161.941
20
-194.509
11
161.939
21
-194.511
0
LINE
8
BLACK
6
CONTINUOUS
10
161.939
20
-194.511
11
161.937
21
-194.513
0
LINE
8
BLACK
6
CONTINUOUS
10
161.937
20
-194.513
11
148.471
21
-207.98
0
LINE
8
BLACK
6
CONTINUOUS
10
148.471
20
-207.98
11
148.469
21
-207.982
0
LINE
8
BLACK
6
CONTINUOUS
10
148.469
20
-207.982
11
148.466
21
-207.984
0
LINE
8
BLACK
6
CONTINUOUS
10
148.466
20
-207.984
11
148.466
21
-207.984
0
LINE
8
BLACK
6
CONTINUOUS
10
148.466
20
-207.984
11
148.459
21
-207.989
0
LINE
8
BLACK
6
CONTINUOUS
10
148.459
20
-207.989
11
148.449
21
-207.995
0
LINE
8
BLACK
6
CONTINUOUS
10
148.449
20
-207.995
11
148.438
21
-207.998
0
LINE
8
BLACK
6
CONTINUOUS
10
148.438
20
-207.998
11
148.426
21
-207.999
0
LINE
8
BLACK
6
CONTINUOUS
10
148.426
20
-207.999
11
148.426
21
-207.999
0
LINE
8
BLACK
6
CONTINUOUS
10
148.426
20
-207.999
11
148.425
21
-207.999
0
LINE
8
BLACK
6
CONTINUOUS
10
148.425
20
-207.999
11
148.414
21
-207.998
0
LINE
8
BLACK
6
CONTINUOUS
10
148.414
20
-207.998
11
148.406
21
-207.996
0
LINE
8
BLACK
6
CONTINUOUS
10
148.406
20
-207.996
11
148.403
21
-207.995
0
LINE
8
BLACK
6
CONTINUOUS
10
148.403
20
-207.995
11
148.392
21
-207.989
0
LINE
8
BLACK
6
CONTINUOUS
10
148.392
20
-207.989
11
148.386
21
-207.984
0
LINE
8
BLACK
6
CONTINUOUS
10
148.386
20
-207.984
11
148.386
21
-207.984
0
LINE
8
BLACK
6
CONTINUOUS
10
148.386
20
-207.984
11
148.383
21
-207.982
0
LINE
8
BLACK
6
CONTINUOUS
10
148.383
20
-207.982
11
148.381
21
-207.98
0
LINE
8
BLACK
6
CONTINUOUS
10
148.381
20
-207.98
11
134.915
21
-194.513
0
LINE
8
BLACK
6
CONTINUOUS
10
134.915
20
-194.513
11
134.913
21
-194.511
0
LINE
8
BLACK
6
CONTINUOUS
10
134.913
20
-194.511
11
134.905
21
-194.502
0
LINE
8
BLACK
6
CONTINUOUS
10
134.905
20
-194.502
11
134.903
21
-194.498
0
LINE
8
BLACK
6
CONTINUOUS
10
134.903
20
-194.498
11
134.899
21
-194.496
0
LINE
8
BLACK
6
CONTINUOUS
10
134.899
20
-194.496
11
134.892
21
-194.49
0
LINE
8
BLACK
6
CONTINUOUS
10
134.892
20
-194.49
11
134.892
21
-194.49
0
LINE
8
BLACK
6
CONTINUOUS
10
134.892
20
-194.49
11
134.89
21
-194.488
0
LINE
8
BLACK
6
CONTINUOUS
10
134.89
20
-194.488
11
134.888
21
-194.486
0
LINE
8
BLACK
6
CONTINUOUS
10
134.888
20
-194.486
11
121.422
21
-181.02
0
LINE
8
BLACK
6
CONTINUOUS
10
121.422
20
-181.02
11
121.419
21
-181.018
0
LINE
8
BLACK
6
CONTINUOUS
10
121.419
20
-181.018
11
121.412
21
-181.009
0
LINE
8
BLACK
6
CONTINUOUS
10
121.412
20
-181.009
11
121.406
21
-180.999
0
LINE
8
BLACK
6
CONTINUOUS
10
121.406
20
-180.999
11
121.403
21
-180.996
0
LINE
8
BLACK
6
CONTINUOUS
10
121.403
20
-180.996
11
121.403
21
-180.996
0
LINE
8
BLACK
6
CONTINUOUS
10
121.403
20
-180.996
11
121.401
21
-180.994
0
LINE
8
BLACK
6
CONTINUOUS
10
121.401
20
-180.994
11
121.399
21
-180.992
0
LINE
8
BLACK
6
CONTINUOUS
10
121.399
20
-180.992
11
107.933
21
-167.526
0
LINE
8
BLACK
6
CONTINUOUS
10
107.933
20
-167.526
11
107.931
21
-167.524
0
LINE
8
BLACK
6
CONTINUOUS
10
107.931
20
-167.524
11
107.925
21
-167.517
0
LINE
8
BLACK
6
CONTINUOUS
10
107.925
20
-167.517
11
107.923
21
-167.515
0
LINE
8
BLACK
6
CONTINUOUS
10
107.923
20
-167.515
11
107.918
21
-167.504
0
LINE
8
BLACK
6
CONTINUOUS
10
107.918
20
-167.504
11
107.914
21
-167.493
0
LINE
8
BLACK
6
CONTINUOUS
10
107.914
20
-167.493
11
107.913
21
-167.481
0
LINE
8
BLACK
6
CONTINUOUS
10
107.913
20
-167.481
11
107.914
21
-167.469
0
LINE
8
BLACK
6
CONTINUOUS
10
107.914
20
-167.469
11
107.918
21
-167.458
0
LINE
8
BLACK
6
CONTINUOUS
10
107.918
20
-167.458
11
107.923
21
-167.448
0
LINE
8
BLACK
6
CONTINUOUS
10
107.923
20
-167.448
11
107.926
21
-167.444
0
LINE
8
BLACK
6
CONTINUOUS
10
107.926
20
-167.444
11
107.929
21
-167.441
0
LINE
8
BLACK
6
CONTINUOUS
10
107.929
20
-167.441
11
107.929
21
-167.441
0
LINE
8
BLACK
6
CONTINUOUS
10
107.929
20
-167.441
11
107.931
21
-167.439
0
LINE
8
BLACK
6
CONTINUOUS
10
107.931
20
-167.439
11
107.933
21
-167.437
0
LINE
8
BLACK
6
CONTINUOUS
10
107.933
20
-167.437
11
121.399
21
-153.971
0
LINE
8
BLACK
6
CONTINUOUS
10
121.399
20
-153.971
11
121.401
21
-153.968
0
LINE
8
BLACK
6
CONTINUOUS
10
121.401
20
-153.968
11
121.403
21
-153.966
0
LINE
8
BLACK
6
CONTINUOUS
10
121.403
20
-153.966
11
121.403
21
-153.966
0
LINE
8
BLACK
6
CONTINUOUS
10
121.403
20
-153.966
11
121.407
21
-153.964
0
LINE
8
BLACK
6
CONTINUOUS
10
121.407
20
-153.964
11
121.412
21
-153.954
0
LINE
8
BLACK
6
CONTINUOUS
10
121.412
20
-153.954
11
121.417
21
-153.947
0
LINE
8
BLACK
6
CONTINUOUS
10
121.417
20
-153.947
11
121.417
21
-153.947
0
LINE
8
BLACK
6
CONTINUOUS
10
121.417
20
-153.947
11
121.419
21
-153.945
0
LINE
8
BLACK
6
CONTINUOUS
10
121.419
20
-153.945
11
121.422
21
-153.943
0
LINE
8
BLACK
6
CONTINUOUS
10
121.422
20
-153.943
11
134.888
21
-140.477
0
LINE
8
BLACK
6
CONTINUOUS
10
134.888
20
-140.477
11
134.89
21
-140.475
0
LINE
8
BLACK
6
CONTINUOUS
10
134.89
20
-140.475
11
134.892
21
-140.473
0
LINE
8
BLACK
6
CONTINUOUS
10
134.892
20
-140.473
11
134.892
21
-140.473
0
LINE
8
BLACK
6
CONTINUOUS
10
134.892
20
-140.473
11
134.899
21
-140.467
0
LINE
8
BLACK
6
CONTINUOUS
10
134.899
20
-140.467
11
134.909
21
-140.461
0
LINE
8
BLACK
6
CONTINUOUS
10
134.909
20
-140.461
11
134.92
21
-140.458
0
LINE
8
BLACK
6
CONTINUOUS
10
134.92
20
-140.458
11
134.932
21
-140.457
0
LINE
8
BLACK
6
CONTINUOUS
10
134.932
20
-140.457
11
134.944
21
-140.458
0
LINE
8
BLACK
6
CONTINUOUS
10
135.04
20
-194.469
11
148.426
21
-207.854
0
LINE
8
BLACK
6
CONTINUOUS
10
148.426
20
-207.854
11
161.812
21
-194.469
0
LINE
8
BLACK
6
CONTINUOUS
10
161.812
20
-194.469
11
148.426
21
-181.083
0
LINE
8
BLACK
6
CONTINUOUS
10
148.426
20
-181.083
11
135.04
21
-194.469
0
LINE
8
BLACK
6
CONTINUOUS
10
121.547
20
-180.975
11
134.932
21
-194.361
0
LINE
8
BLACK
6
CONTINUOUS
10
134.932
20
-194.361
11
148.318
21
-180.975
0
LINE
8
BLACK
6
CONTINUOUS
10
148.318
20
-180.975
11
134.932
21
-167.59
0
LINE
8
BLACK
6
CONTINUOUS
10
134.932
20
-167.59
11
121.547
21
-180.975
0
LINE
8
BLACK
6
CONTINUOUS
10
108.058
20
-167.481
11
121.444
21
-180.867
0
LINE
8
BLACK
6
CONTINUOUS
10
121.444
20
-180.867
11
134.829
21
-167.481
0
LINE
8
BLACK
6
CONTINUOUS
10
134.829
20
-167.481
11
121.444
21
-154.096
0
LINE
8
BLACK
6
CONTINUOUS
10
121.444
20
-154.096
11
108.058
21
-167.481
0
LINE
8
BLACK
6
CONTINUOUS
10
121.547
20
-153.988
11
134.932
21
-167.373
0
LINE
8
BLACK
6
CONTINUOUS
10
134.932
20
-167.373
11
148.318
21
-153.988
0
LINE
8
BLACK
6
CONTINUOUS
10
148.318
20
-153.988
11
134.932
21
-140.602
0
LINE
8
BLACK
6
CONTINUOUS
10
134.932
20
-140.602
11
121.547
21
-153.988
0
LINE
8
BLACK
6
CONTINUOUS
10
162.063
20
-140.456
11
162.074
21
-140.46
0
LINE
8
BLACK
6
CONTINUOUS
10
162.074
20
-140.46
11
162.084
21
-140.465
0
LINE
8
BLACK
6
CONTINUOUS
10
162.084
20
-140.465
11
162.093
21
-140.473
0
LINE
8
BLACK
6
CONTINUOUS
10
162.093
20
-140.473
11
162.095
21
-140.475
0
LINE
8
BLACK
6
CONTINUOUS
10
162.095
20
-140.475
11
189.032
21
-167.412
0
LINE
8
BLACK
6
CONTINUOUS
10
189.032
20
-167.412
11
189.034
21
-167.414
0
LINE
8
BLACK
6
CONTINUOUS
10
189.034
20
-167.414
11
189.036
21
-167.416
0
LINE
8
BLACK
6
CONTINUOUS
10
189.036
20
-167.416
11
189.036
21
-167.416
0
LINE
8
BLACK
6
CONTINUOUS
10
189.036
20
-167.416
11
189.042
21
-167.423
0
LINE
8
BLACK
6
CONTINUOUS
10
189.042
20
-167.423
11
189.043
21
-167.424
0
LINE
8
BLACK
6
CONTINUOUS
10
189.043
20
-167.424
11
189.047
21
-167.433
0
LINE
8
BLACK
6
CONTINUOUS
10
189.047
20
-167.433
11
189.051
21
-167.444
0
LINE
8
BLACK
6
CONTINUOUS
10
189.051
20
-167.444
11
189.052
21
-167.456
0
LINE
8
BLACK
6
CONTINUOUS
10
189.052
20
-167.456
11
189.051
21
-167.468
0
LINE
8
BLACK
6
CONTINUOUS
10
189.051
20
-167.468
11
189.047
21
-167.479
0
LINE
8
BLACK
6
CONTINUOUS
10
189.047
20
-167.479
11
189.042
21
-167.49
0
LINE
8
BLACK
6
CONTINUOUS
10
189.042
20
-167.49
11
189.036
21
-167.497
0
LINE
8
BLACK
6
CONTINUOUS
10
189.036
20
-167.497
11
189.036
21
-167.497
0
LINE
8
BLACK
6
CONTINUOUS
10
189.036
20
-167.497
11
189.034
21
-167.499
0
LINE
8
BLACK
6
CONTINUOUS
10
189.034
20
-167.499
11
189.032
21
-167.501
0
LINE
8
BLACK
6
CONTINUOUS
10
189.032
20
-167.501
11
175.566
21
-180.967
0
LINE
8
BLACK
6
CONTINUOUS
10
175.566
20
-180.967
11
175.564
21
-180.969
0
LINE
8
BLACK
6
CONTINUOUS
10
175.564
20
-180.969
11
175.561
21
-180.971
0
LINE
8
BLACK
6
CONTINUOUS
10
175.561
20
-180.971
11
175.561
21
-180.971
0
LINE
8
BLACK
6
CONTINUOUS
10
175.561
20
-180.971
11
175.555
21
-180.977
0
LINE
8
BLACK
6
CONTINUOUS
10
175.555
20
-180.977
11
175.544
21
-180.982
0
LINE
8
BLACK
6
CONTINUOUS
10
175.544
20
-180.982
11
175.543
21
-180.983
0
LINE
8
BLACK
6
CONTINUOUS
10
175.543
20
-180.983
11
175.543
21
-180.983
0
LINE
8
BLACK
6
CONTINUOUS
10
175.543
20
-180.983
11
175.537
21
-180.99
0
LINE
8
BLACK
6
CONTINUOUS
10
175.537
20
-180.99
11
175.537
21
-180.99
0
LINE
8
BLACK
6
CONTINUOUS
10
175.537
20
-180.99
11
175.535
21
-180.993
0
LINE
8
BLACK
6
CONTINUOUS
10
175.535
20
-180.993
11
175.533
21
-180.994
0
LINE
8
BLACK
6
CONTINUOUS
10
175.533
20
-180.994
11
162.067
21
-194.461
0
LINE
8
BLACK
6
CONTINUOUS
10
162.067
20
-194.461
11
162.065
21
-194.463
0
LINE
8
BLACK
6
CONTINUOUS
10
162.065
20
-194.463
11
162.062
21
-194.465
0
LINE
8
BLACK
6
CONTINUOUS
10
162.062
20
-194.465
11
162.062
21
-194.465
0
LINE
8
BLACK
6
CONTINUOUS
10
162.062
20
-194.465
11
162.056
21
-194.47
0
LINE
8
BLACK
6
CONTINUOUS
10
162.056
20
-194.47
11
162.045
21
-194.476
0
LINE
8
BLACK
6
CONTINUOUS
10
162.045
20
-194.476
11
162.034
21
-194.479
0
LINE
8
BLACK
6
CONTINUOUS
10
162.034
20
-194.479
11
162.022
21
-194.481
0
LINE
8
BLACK
6
CONTINUOUS
10
162.022
20
-194.481
11
162.01
21
-194.479
0
LINE
8
BLACK
6
CONTINUOUS
10
162.01
20
-194.479
11
162.002
21
-194.477
0
LINE
8
BLACK
6
CONTINUOUS
10
162.002
20
-194.477
11
161.999
21
-194.476
0
LINE
8
BLACK
6
CONTINUOUS
10
161.999
20
-194.476
11
161.989
21
-194.47
0
LINE
8
BLACK
6
CONTINUOUS
10
161.989
20
-194.47
11
161.982
21
-194.465
0
LINE
8
BLACK
6
CONTINUOUS
10
161.982
20
-194.465
11
161.982
21
-194.465
0
LINE
8
BLACK
6
CONTINUOUS
10
161.982
20
-194.465
11
161.979
21
-194.463
0
LINE
8
BLACK
6
CONTINUOUS
10
161.979
20
-194.463
11
161.978
21
-194.461
0
LINE
8
BLACK
6
CONTINUOUS
10
161.978
20
-194.461
11
155.253
21
-187.736
0
LINE
8
BLACK
6
CONTINUOUS
10
155.253
20
-187.736
11
155.252
21
-187.735
0
LINE
8
BLACK
6
CONTINUOUS
10
155.252
20
-187.735
11
155.245
21
-187.73
0
LINE
8
BLACK
6
CONTINUOUS
10
155.245
20
-187.73
11
141.77
21
-174.255
0
LINE
8
BLACK
6
CONTINUOUS
10
141.77
20
-174.255
11
141.765
21
-174.248
0
LINE
8
BLACK
6
CONTINUOUS
10
141.765
20
-174.248
11
141.764
21
-174.247
0
LINE
8
BLACK
6
CONTINUOUS
10
141.764
20
-174.247
11
135.041
21
-167.524
0
LINE
8
BLACK
6
CONTINUOUS
10
135.041
20
-167.524
11
135.039
21
-167.522
0
LINE
8
BLACK
6
CONTINUOUS
10
135.039
20
-167.522
11
135.034
21
-167.517
0
LINE
8
BLACK
6
CONTINUOUS
10
135.034
20
-167.517
11
135.031
21
-167.513
0
LINE
8
BLACK
6
CONTINUOUS
10
135.031
20
-167.513
11
135.026
21
-167.503
0
LINE
8
BLACK
6
CONTINUOUS
10
135.026
20
-167.503
11
135.022
21
-167.491
0
LINE
8
BLACK
6
CONTINUOUS
10
135.022
20
-167.491
11
135.021
21
-167.48
0
LINE
8
BLACK
6
CONTINUOUS
10
135.021
20
-167.48
11
135.022
21
-167.468
0
LINE
8
BLACK
6
CONTINUOUS
10
135.022
20
-167.468
11
135.026
21
-167.457
0
LINE
8
BLACK
6
CONTINUOUS
10
135.026
20
-167.457
11
135.031
21
-167.446
0
LINE
8
BLACK
6
CONTINUOUS
10
135.031
20
-167.446
11
135.039
21
-167.437
0
LINE
8
BLACK
6
CONTINUOUS
10
135.039
20
-167.437
11
135.041
21
-167.435
0
LINE
8
BLACK
6
CONTINUOUS
10
135.041
20
-167.435
11
148.507
21
-153.969
0
LINE
8
BLACK
6
CONTINUOUS
10
148.507
20
-153.969
11
148.509
21
-153.967
0
LINE
8
BLACK
6
CONTINUOUS
10
148.509
20
-153.967
11
148.511
21
-153.965
0
LINE
8
BLACK
6
CONTINUOUS
10
148.511
20
-153.965
11
148.511
21
-153.965
0
LINE
8
BLACK
6
CONTINUOUS
10
148.511
20
-153.965
11
148.518
21
-153.959
0
LINE
8
BLACK
6
CONTINUOUS
10
148.518
20
-153.959
11
148.529
21
-153.954
0
LINE
8
BLACK
6
CONTINUOUS
10
148.529
20
-153.954
11
148.53
21
-153.953
0
LINE
8
BLACK
6
CONTINUOUS
10
148.53
20
-153.953
11
148.53
21
-153.952
0
LINE
8
BLACK
6
CONTINUOUS
10
148.53
20
-153.952
11
148.536
21
-153.945
0
LINE
8
BLACK
6
CONTINUOUS
10
148.536
20
-153.945
11
148.536
21
-153.945
0
LINE
8
BLACK
6
CONTINUOUS
10
148.536
20
-153.945
11
148.538
21
-153.943
0
LINE
8
BLACK
6
CONTINUOUS
10
148.538
20
-153.943
11
148.54
21
-153.941
0
LINE
8
BLACK
6
CONTINUOUS
10
148.54
20
-153.941
11
162.006
21
-140.475
0
LINE
8
BLACK
6
CONTINUOUS
10
162.006
20
-140.475
11
162.008
21
-140.473
0
LINE
8
BLACK
6
CONTINUOUS
10
162.008
20
-140.473
11
162.01
21
-140.471
0
LINE
8
BLACK
6
CONTINUOUS
10
162.01
20
-140.471
11
162.01
21
-140.471
0
LINE
8
BLACK
6
CONTINUOUS
10
162.01
20
-140.471
11
162.017
21
-140.465
0
LINE
8
BLACK
6
CONTINUOUS
10
162.017
20
-140.465
11
162.028
21
-140.46
0
LINE
8
BLACK
6
CONTINUOUS
10
162.028
20
-140.46
11
162.039
21
-140.456
0
LINE
8
BLACK
6
CONTINUOUS
10
162.039
20
-140.456
11
162.051
21
-140.455
0
LINE
8
BLACK
6
CONTINUOUS
10
162.051
20
-140.455
11
162.063
21
-140.456
0
LINE
8
BLACK
6
CONTINUOUS
10
135.166
20
-167.48
11
162.022
21
-194.336
0
LINE
8
BLACK
6
CONTINUOUS
10
162.022
20
-194.336
11
175.408
21
-180.95
0
LINE
8
BLACK
6
CONTINUOUS
10
175.408
20
-180.95
11
168.723
21
-174.265
0
LINE
8
BLACK
6
CONTINUOUS
10
168.723
20
-174.265
11
168.722
21
-174.265
0
LINE
8
BLACK
6
CONTINUOUS
10
168.722
20
-174.265
11
168.715
21
-174.259
0
LINE
8
BLACK
6
CONTINUOUS
10
168.715
20
-174.259
11
155.241
21
-160.785
0
LINE
8
BLACK
6
CONTINUOUS
10
155.241
20
-160.785
11
155.235
21
-160.778
0
LINE
8
BLACK
6
CONTINUOUS
10
155.235
20
-160.778
11
155.235
21
-160.777
0
LINE
8
BLACK
6
CONTINUOUS
10
155.235
20
-160.777
11
148.552
21
-154.094
0
LINE
8
BLACK
6
CONTINUOUS
10
148.552
20
-154.094
11
135.166
21
-167.48
0
LINE
8
BLACK
6
CONTINUOUS
10
148.665
20
-153.986
11
175.521
21
-180.842
0
LINE
8
BLACK
6
CONTINUOUS
10
175.521
20
-180.842
11
188.907
21
-167.456
0
LINE
8
BLACK
6
CONTINUOUS
10
188.907
20
-167.456
11
182.222
21
-160.772
0
LINE
8
BLACK
6
CONTINUOUS
10
182.222
20
-160.772
11
182.221
21
-160.771
0
LINE
8
BLACK
6
CONTINUOUS
10
182.221
20
-160.771
11
182.214
21
-160.766
0
LINE
8
BLACK
6
CONTINUOUS
10
182.214
20
-160.766
11
168.74
21
-147.291
0
LINE
8
BLACK
6
CONTINUOUS
10
168.74
20
-147.291
11
168.734
21
-147.284
0
LINE
8
BLACK
6
CONTINUOUS
10
168.734
20
-147.284
11
168.734
21
-147.283
0
LINE
8
BLACK
6
CONTINUOUS
10
168.734
20
-147.283
11
162.051
21
-140.6
0
LINE
8
BLACK
6
CONTINUOUS
10
162.051
20
-140.6
11
148.665
21
-153.986
0
LINE
8
BLACK
6
CONTINUOUS
10
238.124
20
-158.806
11
238.121
21
-158.807
0
LINE
8
BLACK
6
CONTINUOUS
10
238.121
20
-158.807
11
238.109
21
-158.805
0
LINE
8
BLACK
6
CONTINUOUS
10
238.109
20
-158.805
11
238.098
21
-158.802
0
LINE
8
BLACK
6
CONTINUOUS
10
238.098
20
-158.802
11
238.088
21
-158.796
0
LINE
8
BLACK
6
CONTINUOUS
10
238.088
20
-158.796
11
238.079
21
-158.789
0
LINE
8
BLACK
6
CONTINUOUS
10
238.079
20
-158.789
11
238.071
21
-158.78
0
LINE
8
BLACK
6
CONTINUOUS
10
238.071
20
-158.78
11
238.066
21
-158.769
0
LINE
8
BLACK
6
CONTINUOUS
10
238.066
20
-158.769
11
238.062
21
-158.758
0
LINE
8
BLACK
6
CONTINUOUS
10
238.062
20
-158.758
11
238.061
21
-158.746
0
LINE
8
BLACK
6
CONTINUOUS
10
238.061
20
-158.746
11
238.061
21
-158.743
0
LINE
8
BLACK
6
CONTINUOUS
10
238.061
20
-158.743
11
238.061
21
-156.425
0
LINE
8
BLACK
6
CONTINUOUS
10
238.061
20
-156.425
11
219.074
21
-156.425
0
LINE
8
BLACK
6
CONTINUOUS
10
219.074
20
-156.425
11
219.071
21
-156.425
0
LINE
8
BLACK
6
CONTINUOUS
10
219.071
20
-156.425
11
219.059
21
-156.424
0
LINE
8
BLACK
6
CONTINUOUS
10
219.059
20
-156.424
11
219.048
21
-156.421
0
LINE
8
BLACK
6
CONTINUOUS
10
219.048
20
-156.421
11
219.038
21
-156.415
0
LINE
8
BLACK
6
CONTINUOUS
10
219.038
20
-156.415
11
219.029
21
-156.408
0
LINE
8
BLACK
6
CONTINUOUS
10
219.029
20
-156.408
11
219.021
21
-156.399
0
LINE
8
BLACK
6
CONTINUOUS
10
219.021
20
-156.399
11
219.016
21
-156.388
0
LINE
8
BLACK
6
CONTINUOUS
10
219.016
20
-156.388
11
219.012
21
-156.377
0
LINE
8
BLACK
6
CONTINUOUS
10
219.012
20
-156.377
11
219.011
21
-156.365
0
LINE
8
BLACK
6
CONTINUOUS
10
219.011
20
-156.365
11
219.011
21
-156.362
0
LINE
8
BLACK
6
CONTINUOUS
10
219.011
20
-156.362
11
219.011
21
-154.04
0
LINE
8
BLACK
6
CONTINUOUS
10
219.011
20
-154.04
11
200.078
21
-154.04
0
LINE
8
BLACK
6
CONTINUOUS
10
200.078
20
-154.04
11
200.078
21
-156.358
0
LINE
8
BLACK
6
CONTINUOUS
10
200.078
20
-156.358
11
200.078
21
-156.361
0
LINE
8
BLACK
6
CONTINUOUS
10
200.078
20
-156.361
11
200.078
21
-156.364
0
LINE
8
BLACK
6
CONTINUOUS
10
200.078
20
-156.364
11
200.078
21
-156.364
0
LINE
8
BLACK
6
CONTINUOUS
10
200.078
20
-156.364
11
200.077
21
-156.373
0
LINE
8
BLACK
6
CONTINUOUS
10
200.077
20
-156.373
11
200.073
21
-156.384
0
LINE
8
BLACK
6
CONTINUOUS
10
200.073
20
-156.384
11
200.068
21
-156.395
0
LINE
8
BLACK
6
CONTINUOUS
10
200.068
20
-156.395
11
200.06
21
-156.404
0
LINE
8
BLACK
6
CONTINUOUS
10
200.06
20
-156.404
11
200.051
21
-156.411
0
LINE
8
BLACK
6
CONTINUOUS
10
200.051
20
-156.411
11
200.041
21
-156.417
0
LINE
8
BLACK
6
CONTINUOUS
10
200.041
20
-156.417
11
200.029
21
-156.421
0
LINE
8
BLACK
6
CONTINUOUS
10
200.029
20
-156.421
11
200.018
21
-156.422
0
LINE
8
BLACK
6
CONTINUOUS
10
200.018
20
-156.422
11
200.015
21
-156.421
0
LINE
8
BLACK
6
CONTINUOUS
10
200.015
20
-156.421
11
180.97
21
-156.421
0
LINE
8
BLACK
6
CONTINUOUS
10
180.97
20
-156.421
11
180.968
21
-156.422
0
LINE
8
BLACK
6
CONTINUOUS
10
180.968
20
-156.422
11
180.956
21
-156.421
0
LINE
8
BLACK
6
CONTINUOUS
10
180.956
20
-156.421
11
180.944
21
-156.417
0
LINE
8
BLACK
6
CONTINUOUS
10
180.944
20
-156.417
11
180.934
21
-156.411
0
LINE
8
BLACK
6
CONTINUOUS
10
180.934
20
-156.411
11
180.925
21
-156.404
0
LINE
8
BLACK
6
CONTINUOUS
10
180.925
20
-156.404
11
180.917
21
-156.395
0
LINE
8
BLACK
6
CONTINUOUS
10
180.917
20
-156.395
11
180.914
21
-156.388
0
LINE
8
BLACK
6
CONTINUOUS
10
180.914
20
-156.388
11
180.912
21
-156.384
0
LINE
8
BLACK
6
CONTINUOUS
10
180.912
20
-156.384
11
180.908
21
-156.373
0
LINE
8
BLACK
6
CONTINUOUS
10
180.908
20
-156.373
11
180.907
21
-156.361
0
LINE
8
BLACK
6
CONTINUOUS
10
180.907
20
-156.361
11
180.908
21
-156.358
0
LINE
8
BLACK
6
CONTINUOUS
10
180.908
20
-156.358
11
180.908
21
-139.756
0
LINE
8
BLACK
6
CONTINUOUS
10
180.908
20
-139.756
11
161.935
21
-139.756
0
LINE
8
BLACK
6
CONTINUOUS
10
161.935
20
-139.756
11
161.934
21
-139.757
0
LINE
8
BLACK
6
CONTINUOUS
10
161.934
20
-139.757
11
161.922
21
-139.758
0
LINE
8
BLACK
6
CONTINUOUS
10
161.922
20
-139.758
11
161.92
21
-139.757
0
LINE
8
BLACK
6
CONTINUOUS
10
161.92
20
-139.757
11
142.875
21
-139.757
0
LINE
8
BLACK
6
CONTINUOUS
10
142.875
20
-139.757
11
142.872
21
-139.758
0
LINE
8
BLACK
6
CONTINUOUS
10
142.872
20
-139.758
11
142.861
21
-139.757
0
LINE
8
BLACK
6
CONTINUOUS
10
142.861
20
-139.757
11
142.849
21
-139.753
0
LINE
8
BLACK
6
CONTINUOUS
10
142.849
20
-139.753
11
142.839
21
-139.748
0
LINE
8
BLACK
6
CONTINUOUS
10
142.839
20
-139.748
11
142.83
21
-139.74
0
LINE
8
BLACK
6
CONTINUOUS
10
142.83
20
-139.74
11
142.822
21
-139.731
0
LINE
8
BLACK
6
CONTINUOUS
10
142.822
20
-139.731
11
142.82
21
-139.726
0
LINE
8
BLACK
6
CONTINUOUS
10
142.82
20
-139.726
11
142.817
21
-139.721
0
LINE
8
BLACK
6
CONTINUOUS
10
142.817
20
-139.721
11
142.813
21
-139.709
0
LINE
8
BLACK
6
CONTINUOUS
10
142.813
20
-139.709
11
142.812
21
-139.697
0
LINE
8
BLACK
6
CONTINUOUS
10
142.812
20
-139.697
11
142.812
21
-139.695
0
LINE
8
BLACK
6
CONTINUOUS
10
142.812
20
-139.695
11
142.812
21
-111.125
0
LINE
8
BLACK
6
CONTINUOUS
10
142.812
20
-111.125
11
142.812
21
-111.122
0
LINE
8
BLACK
6
CONTINUOUS
10
142.812
20
-111.122
11
142.812
21
-111.12
0
LINE
8
BLACK
6
CONTINUOUS
10
142.812
20
-111.12
11
142.812
21
-82.5592
0
LINE
8
BLACK
6
CONTINUOUS
10
142.812
20
-82.5592
11
142.812
21
-82.5581
0
LINE
8
BLACK
6
CONTINUOUS
10
142.812
20
-82.5581
11
142.811
21
-82.5463
0
LINE
8
BLACK
6
CONTINUOUS
10
142.811
20
-82.5463
11
142.811
21
-82.5434
0
LINE
8
BLACK
6
CONTINUOUS
10
142.811
20
-82.5434
11
142.811
21
-63.4993
0
LINE
8
BLACK
6
CONTINUOUS
10
142.811
20
-63.4993
11
142.811
21
-63.4963
0
LINE
8
BLACK
6
CONTINUOUS
10
142.811
20
-63.4963
11
142.812
21
-63.4845
0
LINE
8
BLACK
6
CONTINUOUS
10
142.812
20
-63.4845
11
142.816
21
-63.4732
0
LINE
8
BLACK
6
CONTINUOUS
10
142.816
20
-63.4732
11
142.821
21
-63.4628
0
LINE
8
BLACK
6
CONTINUOUS
10
142.821
20
-63.4628
11
142.829
21
-63.4537
0
LINE
8
BLACK
6
CONTINUOUS
10
142.829
20
-63.4537
11
142.838
21
-63.4462
0
LINE
8
BLACK
6
CONTINUOUS
10
142.838
20
-63.4462
11
142.848
21
-63.4406
0
LINE
8
BLACK
6
CONTINUOUS
10
142.848
20
-63.4406
11
142.859
21
-63.4372
0
LINE
8
BLACK
6
CONTINUOUS
10
142.859
20
-63.4372
11
142.868
21
-63.4363
0
LINE
8
BLACK
6
CONTINUOUS
10
142.868
20
-63.4363
11
142.868
21
-63.4363
0
LINE
8
BLACK
6
CONTINUOUS
10
142.868
20
-63.4363
11
142.871
21
-63.436
0
LINE
8
BLACK
6
CONTINUOUS
10
142.871
20
-63.436
11
142.874
21
-63.4363
0
LINE
8
BLACK
6
CONTINUOUS
10
142.874
20
-63.4363
11
161.918
21
-63.4363
0
LINE
8
BLACK
6
CONTINUOUS
10
161.918
20
-63.4363
11
161.921
21
-63.436
0
LINE
8
BLACK
6
CONTINUOUS
10
161.921
20
-63.436
11
161.924
21
-63.4363
0
LINE
8
BLACK
6
CONTINUOUS
10
161.924
20
-63.4363
11
180.911
21
-63.4363
0
LINE
8
BLACK
6
CONTINUOUS
10
180.911
20
-63.4363
11
180.911
21
-61.118
0
LINE
8
BLACK
6
CONTINUOUS
10
180.911
20
-61.118
11
180.911
21
-61.1151
0
LINE
8
BLACK
6
CONTINUOUS
10
180.911
20
-61.1151
11
180.912
21
-61.1033
0
LINE
8
BLACK
6
CONTINUOUS
10
180.912
20
-61.1033
11
180.916
21
-61.092
0
LINE
8
BLACK
6
CONTINUOUS
10
180.916
20
-61.092
11
180.921
21
-61.0816
0
LINE
8
BLACK
6
CONTINUOUS
10
180.921
20
-61.0816
11
180.929
21
-61.0724
0
LINE
8
BLACK
6
CONTINUOUS
10
180.929
20
-61.0724
11
180.938
21
-61.0649
0
LINE
8
BLACK
6
CONTINUOUS
10
180.938
20
-61.0649
11
180.948
21
-61.0594
0
LINE
8
BLACK
6
CONTINUOUS
10
180.948
20
-61.0594
11
180.959
21
-61.0559
0
LINE
8
BLACK
6
CONTINUOUS
10
180.959
20
-61.0559
11
180.968
21
-61.0551
0
LINE
8
BLACK
6
CONTINUOUS
10
180.968
20
-61.0551
11
180.968
21
-61.0551
0
LINE
8
BLACK
6
CONTINUOUS
10
180.968
20
-61.0551
11
180.971
21
-61.0548
0
LINE
8
BLACK
6
CONTINUOUS
10
180.971
20
-61.0548
11
180.974
21
-61.0551
0
LINE
8
BLACK
6
CONTINUOUS
10
180.974
20
-61.0551
11
199.958
21
-61.0551
0
LINE
8
BLACK
6
CONTINUOUS
10
199.958
20
-61.0551
11
199.958
21
-58.7331
0
LINE
8
BLACK
6
CONTINUOUS
10
199.958
20
-58.7331
11
199.957
21
-58.7301
0
LINE
8
BLACK
6
CONTINUOUS
10
199.957
20
-58.7301
11
199.958
21
-58.7184
0
LINE
8
BLACK
6
CONTINUOUS
10
199.958
20
-58.7184
11
199.962
21
-58.707
0
LINE
8
BLACK
6
CONTINUOUS
10
199.962
20
-58.707
11
199.967
21
-58.6966
0
LINE
8
BLACK
6
CONTINUOUS
10
199.967
20
-58.6966
11
199.975
21
-58.6875
0
LINE
8
BLACK
6
CONTINUOUS
10
199.975
20
-58.6875
11
199.984
21
-58.68
0
LINE
8
BLACK
6
CONTINUOUS
10
199.984
20
-58.68
11
199.994
21
-58.6744
0
LINE
8
BLACK
6
CONTINUOUS
10
199.994
20
-58.6744
11
200.006
21
-58.671
0
LINE
8
BLACK
6
CONTINUOUS
10
200.006
20
-58.671
11
200.015
21
-58.6701
0
LINE
8
BLACK
6
CONTINUOUS
10
200.015
20
-58.6701
11
200.015
21
-58.6701
0
LINE
8
BLACK
6
CONTINUOUS
10
200.015
20
-58.6701
11
200.018
21
-58.6698
0
LINE
8
BLACK
6
CONTINUOUS
10
200.018
20
-58.6698
11
200.02
21
-58.6701
0
LINE
8
BLACK
6
CONTINUOUS
10
200.02
20
-58.6701
11
219.065
21
-58.6701
0
LINE
8
BLACK
6
CONTINUOUS
10
219.065
20
-58.6701
11
219.068
21
-58.6698
0
LINE
8
BLACK
6
CONTINUOUS
10
219.068
20
-58.6698
11
219.07
21
-58.6701
0
LINE
8
BLACK
6
CONTINUOUS
10
219.07
20
-58.6701
11
219.07
21
-58.6701
0
LINE
8
BLACK
6
CONTINUOUS
10
219.07
20
-58.6701
11
219.079
21
-58.671
0
LINE
8
BLACK
6
CONTINUOUS
10
219.079
20
-58.671
11
219.091
21
-58.6744
0
LINE
8
BLACK
6
CONTINUOUS
10
219.091
20
-58.6744
11
219.101
21
-58.68
0
LINE
8
BLACK
6
CONTINUOUS
10
219.101
20
-58.68
11
219.11
21
-58.6875
0
LINE
8
BLACK
6
CONTINUOUS
10
219.11
20
-58.6875
11
219.118
21
-58.6966
0
LINE
8
BLACK
6
CONTINUOUS
10
219.118
20
-58.6966
11
219.123
21
-58.707
0
LINE
8
BLACK
6
CONTINUOUS
10
219.123
20
-58.707
11
219.127
21
-58.7184
0
LINE
8
BLACK
6
CONTINUOUS
10
219.127
20
-58.7184
11
219.128
21
-58.7301
0
LINE
8
BLACK
6
CONTINUOUS
10
219.128
20
-58.7301
11
219.128
21
-58.7331
0
LINE
8
BLACK
6
CONTINUOUS
10
219.128
20
-58.7331
11
219.128
21
-61.0551
0
LINE
8
BLACK
6
CONTINUOUS
10
219.128
20
-61.0551
11
238.118
21
-61.0551
0
LINE
8
BLACK
6
CONTINUOUS
10
238.118
20
-61.0551
11
238.121
21
-61.0548
0
LINE
8
BLACK
6
CONTINUOUS
10
238.121
20
-61.0548
11
238.124
21
-61.0551
0
LINE
8
BLACK
6
CONTINUOUS
10
238.124
20
-61.0551
11
238.124
21
-61.0551
0
LINE
8
BLACK
6
CONTINUOUS
10
238.124
20
-61.0551
11
238.133
21
-61.0559
0
LINE
8
BLACK
6
CONTINUOUS
10
238.133
20
-61.0559
11
238.144
21
-61.0594
0
LINE
8
BLACK
6
CONTINUOUS
10
238.144
20
-61.0594
11
238.155
21
-61.0649
0
LINE
8
BLACK
6
CONTINUOUS
10
238.155
20
-61.0649
11
238.164
21
-61.0724
0
LINE
8
BLACK
6
CONTINUOUS
10
238.164
20
-61.0724
11
238.171
21
-61.0816
0
LINE
8
BLACK
6
CONTINUOUS
10
238.171
20
-61.0816
11
238.177
21
-61.092
0
LINE
8
BLACK
6
CONTINUOUS
10
238.177
20
-61.092
11
238.18
21
-61.1033
0
LINE
8
BLACK
6
CONTINUOUS
10
238.18
20
-61.1033
11
238.182
21
-61.1151
0
LINE
8
BLACK
6
CONTINUOUS
10
238.182
20
-61.1151
11
238.181
21
-61.118
0
LINE
8
BLACK
6
CONTINUOUS
10
238.181
20
-61.118
11
238.181
21
-63.4363
0
LINE
8
BLACK
6
CONTINUOUS
10
238.181
20
-63.4363
11
257.168
21
-63.4363
0
LINE
8
BLACK
6
CONTINUOUS
10
257.168
20
-63.4363
11
257.171
21
-63.436
0
LINE
8
BLACK
6
CONTINUOUS
10
257.171
20
-63.436
11
257.174
21
-63.4363
0
LINE
8
BLACK
6
CONTINUOUS
10
257.174
20
-63.4363
11
257.174
21
-63.4363
0
LINE
8
BLACK
6
CONTINUOUS
10
257.174
20
-63.4363
11
257.183
21
-63.4372
0
LINE
8
BLACK
6
CONTINUOUS
10
257.183
20
-63.4372
11
257.184
21
-63.4375
0
LINE
8
BLACK
6
CONTINUOUS
10
257.184
20
-63.4375
11
285.745
21
-63.4375
0
LINE
8
BLACK
6
CONTINUOUS
10
285.745
20
-63.4375
11
285.747
21
-63.4372
0
LINE
8
BLACK
6
CONTINUOUS
10
285.747
20
-63.4372
11
285.75
21
-63.4375
0
LINE
8
BLACK
6
CONTINUOUS
10
285.75
20
-63.4375
11
285.75
21
-63.4375
0
LINE
8
BLACK
6
CONTINUOUS
10
285.75
20
-63.4375
11
285.759
21
-63.4383
0
LINE
8
BLACK
6
CONTINUOUS
10
285.759
20
-63.4383
11
285.771
21
-63.4418
0
LINE
8
BLACK
6
CONTINUOUS
10
285.771
20
-63.4418
11
285.781
21
-63.4473
0
LINE
8
BLACK
6
CONTINUOUS
10
285.781
20
-63.4473
11
285.79
21
-63.4548
0
LINE
8
BLACK
6
CONTINUOUS
10
285.79
20
-63.4548
11
285.798
21
-63.464
0
LINE
8
BLACK
6
CONTINUOUS
10
285.798
20
-63.464
11
285.803
21
-63.4744
0
LINE
8
BLACK
6
CONTINUOUS
10
285.803
20
-63.4744
11
285.807
21
-63.4857
0
LINE
8
BLACK
6
CONTINUOUS
10
285.807
20
-63.4857
11
285.808
21
-63.4975
0
LINE
8
BLACK
6
CONTINUOUS
10
285.808
20
-63.4975
11
285.807
21
-63.5004
0
LINE
8
BLACK
6
CONTINUOUS
10
285.807
20
-63.5004
11
285.807
21
-82.5445
0
LINE
8
BLACK
6
CONTINUOUS
10
285.807
20
-82.5445
11
285.808
21
-82.5475
0
LINE
8
BLACK
6
CONTINUOUS
10
285.808
20
-82.5475
11
285.807
21
-82.5504
0
LINE
8
BLACK
6
CONTINUOUS
10
285.807
20
-82.5504
11
285.807
21
-101.595
0
LINE
8
BLACK
6
CONTINUOUS
10
285.807
20
-101.595
11
285.808
21
-101.597
0
LINE
8
BLACK
6
CONTINUOUS
10
285.808
20
-101.597
11
285.807
21
-101.6
0
LINE
8
BLACK
6
CONTINUOUS
10
285.807
20
-101.6
11
285.807
21
-120.645
0
LINE
8
BLACK
6
CONTINUOUS
10
285.807
20
-120.645
11
285.808
21
-120.647
0
LINE
8
BLACK
6
CONTINUOUS
10
285.808
20
-120.647
11
285.807
21
-120.65
0
LINE
8
BLACK
6
CONTINUOUS
10
285.807
20
-120.65
11
285.807
21
-120.65
0
LINE
8
BLACK
6
CONTINUOUS
10
285.807
20
-120.65
11
285.807
21
-120.659
0
LINE
8
BLACK
6
CONTINUOUS
10
285.807
20
-120.659
11
285.805
21
-120.665
0
LINE
8
BLACK
6
CONTINUOUS
10
285.805
20
-120.665
11
285.805
21
-139.692
0
LINE
8
BLACK
6
CONTINUOUS
10
285.805
20
-139.692
11
285.805
21
-139.695
0
LINE
8
BLACK
6
CONTINUOUS
10
285.805
20
-139.695
11
285.805
21
-139.698
0
LINE
8
BLACK
6
CONTINUOUS
10
285.805
20
-139.698
11
285.805
21
-139.698
0
LINE
8
BLACK
6
CONTINUOUS
10
285.805
20
-139.698
11
285.804
21
-139.707
0
LINE
8
BLACK
6
CONTINUOUS
10
285.804
20
-139.707
11
285.801
21
-139.718
0
LINE
8
BLACK
6
CONTINUOUS
10
285.801
20
-139.718
11
285.795
21
-139.728
0
LINE
8
BLACK
6
CONTINUOUS
10
285.795
20
-139.728
11
285.788
21
-139.738
0
LINE
8
BLACK
6
CONTINUOUS
10
285.788
20
-139.738
11
285.778
21
-139.745
0
LINE
8
BLACK
6
CONTINUOUS
10
285.778
20
-139.745
11
285.768
21
-139.751
0
LINE
8
BLACK
6
CONTINUOUS
10
285.768
20
-139.751
11
285.757
21
-139.754
0
LINE
8
BLACK
6
CONTINUOUS
10
285.757
20
-139.754
11
285.745
21
-139.755
0
LINE
8
BLACK
6
CONTINUOUS
10
285.745
20
-139.755
11
285.742
21
-139.755
0
LINE
8
BLACK
6
CONTINUOUS
10
285.742
20
-139.755
11
276.281
21
-139.755
0
LINE
8
BLACK
6
CONTINUOUS
10
276.281
20
-139.755
11
276.281
21
-158.743
0
LINE
8
BLACK
6
CONTINUOUS
10
276.281
20
-158.743
11
276.282
21
-158.746
0
LINE
8
BLACK
6
CONTINUOUS
10
276.282
20
-158.746
11
276.281
21
-158.749
0
LINE
8
BLACK
6
CONTINUOUS
10
276.281
20
-158.749
11
276.281
21
-158.749
0
LINE
8
BLACK
6
CONTINUOUS
10
276.281
20
-158.749
11
276.28
21
-158.758
0
LINE
8
BLACK
6
CONTINUOUS
10
276.28
20
-158.758
11
276.277
21
-158.769
0
LINE
8
BLACK
6
CONTINUOUS
10
276.277
20
-158.769
11
276.271
21
-158.78
0
LINE
8
BLACK
6
CONTINUOUS
10
276.271
20
-158.78
11
276.264
21
-158.789
0
LINE
8
BLACK
6
CONTINUOUS
10
276.264
20
-158.789
11
276.255
21
-158.796
0
LINE
8
BLACK
6
CONTINUOUS
10
276.255
20
-158.796
11
276.244
21
-158.802
0
LINE
8
BLACK
6
CONTINUOUS
10
276.244
20
-158.802
11
276.233
21
-158.805
0
LINE
8
BLACK
6
CONTINUOUS
10
276.233
20
-158.805
11
276.221
21
-158.807
0
LINE
8
BLACK
6
CONTINUOUS
10
276.221
20
-158.807
11
276.218
21
-158.806
0
LINE
8
BLACK
6
CONTINUOUS
10
276.218
20
-158.806
11
257.174
21
-158.806
0
LINE
8
BLACK
6
CONTINUOUS
10
257.174
20
-158.806
11
257.171
21
-158.807
0
LINE
8
BLACK
6
CONTINUOUS
10
257.171
20
-158.807
11
257.168
21
-158.806
0
LINE
8
BLACK
6
CONTINUOUS
10
257.168
20
-158.806
11
238.124
21
-158.806
0
LINE
8
BLACK
6
CONTINUOUS
10
257.231
20
-139.756
11
257.231
21
-158.686
0
LINE
8
BLACK
6
CONTINUOUS
10
257.231
20
-158.686
11
276.161
21
-158.686
0
LINE
8
BLACK
6
CONTINUOUS
10
276.161
20
-158.686
11
276.161
21
-139.756
0
LINE
8
BLACK
6
CONTINUOUS
10
276.161
20
-139.756
11
257.231
21
-139.756
0
LINE
8
BLACK
6
CONTINUOUS
10
238.181
20
-139.756
11
238.181
21
-156.362
0
LINE
8
BLACK
6
CONTINUOUS
10
238.181
20
-156.362
11
238.182
21
-156.365
0
LINE
8
BLACK
6
CONTINUOUS
10
238.182
20
-156.365
11
238.181
21
-156.368
0
LINE
8
BLACK
6
CONTINUOUS
10
238.181
20
-156.368
11
238.181
21
-158.686
0
LINE
8
BLACK
6
CONTINUOUS
10
238.181
20
-158.686
11
257.111
21
-158.686
0
LINE
8
BLACK
6
CONTINUOUS
10
257.111
20
-158.686
11
257.111
21
-139.756
0
LINE
8
BLACK
6
CONTINUOUS
10
257.111
20
-139.756
11
238.181
21
-139.756
0
LINE
8
BLACK
6
CONTINUOUS
10
219.131
20
-137.375
11
219.131
21
-156.305
0
LINE
8
BLACK
6
CONTINUOUS
10
219.131
20
-156.305
11
238.061
21
-156.305
0
LINE
8
BLACK
6
CONTINUOUS
10
238.061
20
-156.305
11
238.061
21
-147.19
0
LINE
8
BLACK
6
CONTINUOUS
10
238.061
20
-147.19
11
238.061
21
-139.714
0
LINE
8
BLACK
6
CONTINUOUS
10
238.061
20
-139.714
11
238.058
21
-139.704
0
LINE
8
BLACK
6
CONTINUOUS
10
238.058
20
-139.704
11
238.057
21
-139.693
0
LINE
8
BLACK
6
CONTINUOUS
10
238.057
20
-139.693
11
238.058
21
-139.69
0
LINE
8
BLACK
6
CONTINUOUS
10
238.058
20
-139.69
11
238.058
21
-137.375
0
LINE
8
BLACK
6
CONTINUOUS
10
238.058
20
-137.375
11
219.131
21
-137.375
0
LINE
8
BLACK
6
CONTINUOUS
10
181.031
20
-137.375
11
181.031
21
-139.693
0
LINE
8
BLACK
6
CONTINUOUS
10
181.031
20
-139.693
11
181.032
21
-139.696
0
LINE
8
BLACK
6
CONTINUOUS
10
181.032
20
-139.696
11
181.031
21
-139.699
0
LINE
8
BLACK
6
CONTINUOUS
10
181.031
20
-139.699
11
181.031
21
-139.699
0
LINE
8
BLACK
6
CONTINUOUS
10
181.031
20
-139.699
11
181.03
21
-139.708
0
LINE
8
BLACK
6
CONTINUOUS
10
181.03
20
-139.708
11
181.028
21
-139.718
0
LINE
8
BLACK
6
CONTINUOUS
10
181.028
20
-139.718
11
181.028
21
-156.301
0
LINE
8
BLACK
6
CONTINUOUS
10
181.028
20
-156.301
11
199.958
21
-156.301
0
LINE
8
BLACK
6
CONTINUOUS
10
199.958
20
-156.301
11
199.958
21
-153.983
0
LINE
8
BLACK
6
CONTINUOUS
10
199.958
20
-153.983
11
199.957
21
-153.98
0
LINE
8
BLACK
6
CONTINUOUS
10
199.957
20
-153.98
11
199.958
21
-153.977
0
LINE
8
BLACK
6
CONTINUOUS
10
199.958
20
-153.977
11
199.958
21
-137.375
0
LINE
8
BLACK
6
CONTINUOUS
10
199.958
20
-137.375
11
181.031
21
-137.375
0
LINE
8
BLACK
6
CONTINUOUS
10
200.081
20
-134.994
11
200.081
21
-137.312
0
LINE
8
BLACK
6
CONTINUOUS
10
200.081
20
-137.312
11
200.082
21
-137.315
0
LINE
8
BLACK
6
CONTINUOUS
10
200.082
20
-137.315
11
200.081
21
-137.318
0
LINE
8
BLACK
6
CONTINUOUS
10
200.081
20
-137.318
11
200.081
21
-137.318
0
LINE
8
BLACK
6
CONTINUOUS
10
200.081
20
-137.318
11
200.08
21
-137.327
0
LINE
8
BLACK
6
CONTINUOUS
10
200.08
20
-137.327
11
200.078
21
-137.336
0
LINE
8
BLACK
6
CONTINUOUS
10
200.078
20
-137.336
11
200.078
21
-153.92
0
LINE
8
BLACK
6
CONTINUOUS
10
200.078
20
-153.92
11
219.008
21
-153.92
0
LINE
8
BLACK
6
CONTINUOUS
10
219.008
20
-153.92
11
219.008
21
-134.994
0
LINE
8
BLACK
6
CONTINUOUS
10
219.008
20
-134.994
11
200.081
21
-134.994
0
LINE
8
BLACK
6
CONTINUOUS
10
142.932
20
-111.182
11
142.932
21
-139.637
0
LINE
8
BLACK
6
CONTINUOUS
10
142.932
20
-139.637
11
161.861
21
-139.637
0
LINE
8
BLACK
6
CONTINUOUS
10
161.861
20
-139.637
11
161.861
21
-120.649
0
LINE
8
BLACK
6
CONTINUOUS
10
161.861
20
-120.649
11
161.861
21
-120.646
0
LINE
8
BLACK
6
CONTINUOUS
10
161.861
20
-120.646
11
161.861
21
-120.643
0
LINE
8
BLACK
6
CONTINUOUS
10
161.861
20
-120.643
11
161.861
21
-111.182
0
LINE
8
BLACK
6
CONTINUOUS
10
161.861
20
-111.182
11
142.932
21
-111.182
0
LINE
8
BLACK
6
CONTINUOUS
10
161.982
20
-120.706
11
161.982
21
-139.636
0
LINE
8
BLACK
6
CONTINUOUS
10
161.982
20
-139.636
11
180.908
21
-139.636
0
LINE
8
BLACK
6
CONTINUOUS
10
180.908
20
-139.636
11
180.908
21
-137.314
0
LINE
8
BLACK
6
CONTINUOUS
10
180.908
20
-137.314
11
180.907
21
-137.311
0
LINE
8
BLACK
6
CONTINUOUS
10
180.907
20
-137.311
11
180.908
21
-137.3
0
LINE
8
BLACK
6
CONTINUOUS
10
180.908
20
-137.3
11
180.911
21
-137.29
0
LINE
8
BLACK
6
CONTINUOUS
10
180.911
20
-137.29
11
180.911
21
-120.706
0
LINE
8
BLACK
6
CONTINUOUS
10
180.911
20
-120.706
11
161.982
21
-120.706
0
LINE
8
BLACK
6
CONTINUOUS
10
257.23
20
-120.707
11
257.23
21
-139.635
0
LINE
8
BLACK
6
CONTINUOUS
10
257.23
20
-139.635
11
285.685
21
-139.635
0
LINE
8
BLACK
6
CONTINUOUS
10
285.685
20
-139.635
11
285.685
21
-120.707
0
LINE
8
BLACK
6
CONTINUOUS
10
285.685
20
-120.707
11
257.23
21
-120.707
0
LINE
8
BLACK
6
CONTINUOUS
10
238.181
20
-120.706
11
238.181
21
-137.312
0
LINE
8
BLACK
6
CONTINUOUS
10
238.181
20
-137.312
11
238.182
21
-137.315
0
LINE
8
BLACK
6
CONTINUOUS
10
238.182
20
-137.315
11
238.181
21
-137.318
0
LINE
8
BLACK
6
CONTINUOUS
10
238.181
20
-137.318
11
238.181
21
-139.633
0
LINE
8
BLACK
6
CONTINUOUS
10
238.181
20
-139.633
11
257.108
21
-139.633
0
LINE
8
BLACK
6
CONTINUOUS
10
257.108
20
-139.633
11
257.108
21
-120.706
0
LINE
8
BLACK
6
CONTINUOUS
10
257.108
20
-120.706
11
238.181
21
-120.706
0
LINE
8
BLACK
6
CONTINUOUS
10
219.131
20
-118.325
11
219.131
21
-134.931
0
LINE
8
BLACK
6
CONTINUOUS
10
219.131
20
-134.931
11
219.132
21
-134.934
0
LINE
8
BLACK
6
CONTINUOUS
10
219.132
20
-134.934
11
219.131
21
-134.937
0
LINE
8
BLACK
6
CONTINUOUS
10
219.131
20
-134.937
11
219.131
21
-137.255
0
LINE
8
BLACK
6
CONTINUOUS
10
219.131
20
-137.255
11
238.058
21
-137.255
0
LINE
8
BLACK
6
CONTINUOUS
10
238.058
20
-137.255
11
238.058
21
-120.646
0
LINE
8
BLACK
6
CONTINUOUS
10
238.058
20
-120.646
11
238.057
21
-120.643
0
LINE
8
BLACK
6
CONTINUOUS
10
238.057
20
-120.643
11
238.058
21
-120.631
0
LINE
8
BLACK
6
CONTINUOUS
10
238.058
20
-120.631
11
238.061
21
-120.621
0
LINE
8
BLACK
6
CONTINUOUS
10
238.061
20
-120.621
11
238.061
21
-118.325
0
LINE
8
BLACK
6
CONTINUOUS
10
238.061
20
-118.325
11
219.131
21
-118.325
0
LINE
8
BLACK
6
CONTINUOUS
10
181.031
20
-118.325
11
181.031
21
-120.643
0
LINE
8
BLACK
6
CONTINUOUS
10
181.031
20
-120.643
11
181.032
21
-120.646
0
LINE
8
BLACK
6
CONTINUOUS
10
181.032
20
-120.646
11
181.031
21
-120.649
0
LINE
8
BLACK
6
CONTINUOUS
10
181.031
20
-120.649
11
181.031
21
-137.251
0
LINE
8
BLACK
6
CONTINUOUS
10
181.031
20
-137.251
11
199.958
21
-137.251
0
LINE
8
BLACK
6
CONTINUOUS
10
199.958
20
-137.251
11
199.958
21
-134.933
0
LINE
8
BLACK
6
CONTINUOUS
10
199.958
20
-134.933
11
199.957
21
-134.93
0
LINE
8
BLACK
6
CONTINUOUS
10
199.957
20
-134.93
11
199.958
21
-134.918
0
LINE
8
BLACK
6
CONTINUOUS
10
199.958
20
-134.918
11
199.961
21
-134.909
0
LINE
8
BLACK
6
CONTINUOUS
10
199.961
20
-134.909
11
199.961
21
-118.325
0
LINE
8
BLACK
6
CONTINUOUS
10
199.961
20
-118.325
11
181.031
21
-118.325
0
LINE
8
BLACK
6
CONTINUOUS
10
200.081
20
-115.944
11
200.081
21
-118.262
0
LINE
8
BLACK
6
CONTINUOUS
10
200.081
20
-118.262
11
200.082
21
-118.265
0
LINE
8
BLACK
6
CONTINUOUS
10
200.082
20
-118.265
11
200.081
21
-118.268
0
LINE
8
BLACK
6
CONTINUOUS
10
200.081
20
-118.268
11
200.081
21
-134.87
0
LINE
8
BLACK
6
CONTINUOUS
10
200.081
20
-134.87
11
219.011
21
-134.87
0
LINE
8
BLACK
6
CONTINUOUS
10
219.011
20
-134.87
11
219.011
21
-126.599
0
LINE
8
BLACK
6
CONTINUOUS
10
219.011
20
-126.599
11
219.011
21
-118.268
0
LINE
8
BLACK
6
CONTINUOUS
10
219.011
20
-118.268
11
219.011
21
-118.265
0
LINE
8
BLACK
6
CONTINUOUS
10
219.011
20
-118.265
11
219.011
21
-118.262
0
LINE
8
BLACK
6
CONTINUOUS
10
219.011
20
-118.262
11
219.011
21
-115.944
0
LINE
8
BLACK
6
CONTINUOUS
10
219.011
20
-115.944
11
200.081
21
-115.944
0
LINE
8
BLACK
6
CONTINUOUS
10
161.982
20
-101.656
11
161.982
21
-111.12
0
LINE
8
BLACK
6
CONTINUOUS
10
161.982
20
-111.12
11
161.983
21
-111.122
0
LINE
8
BLACK
6
CONTINUOUS
10
161.983
20
-111.122
11
161.982
21
-111.125
0
LINE
8
BLACK
6
CONTINUOUS
10
161.982
20
-111.125
11
161.982
21
-120.586
0
LINE
8
BLACK
6
CONTINUOUS
10
161.982
20
-120.586
11
180.911
21
-120.586
0
LINE
8
BLACK
6
CONTINUOUS
10
180.911
20
-120.586
11
180.911
21
-118.283
0
LINE
8
BLACK
6
CONTINUOUS
10
180.911
20
-118.283
11
180.908
21
-118.273
0
LINE
8
BLACK
6
CONTINUOUS
10
180.908
20
-118.273
11
180.907
21
-118.261
0
LINE
8
BLACK
6
CONTINUOUS
10
180.907
20
-118.261
11
180.908
21
-118.258
0
LINE
8
BLACK
6
CONTINUOUS
10
180.908
20
-118.258
11
180.908
21
-101.656
0
LINE
8
BLACK
6
CONTINUOUS
10
180.908
20
-101.656
11
161.982
21
-101.656
0
LINE
8
BLACK
6
CONTINUOUS
10
257.232
20
-101.657
11
257.232
21
-120.585
0
LINE
8
BLACK
6
CONTINUOUS
10
257.232
20
-120.585
11
285.687
21
-120.585
0
LINE
8
BLACK
6
CONTINUOUS
10
285.687
20
-120.585
11
285.687
21
-101.657
0
LINE
8
BLACK
6
CONTINUOUS
10
285.687
20
-101.657
11
257.232
21
-101.657
0
LINE
8
BLACK
6
CONTINUOUS
10
238.181
20
-101.656
11
238.181
21
-118.262
0
LINE
8
BLACK
6
CONTINUOUS
10
238.181
20
-118.262
11
238.182
21
-118.265
0
LINE
8
BLACK
6
CONTINUOUS
10
238.182
20
-118.265
11
238.181
21
-118.268
0
LINE
8
BLACK
6
CONTINUOUS
10
238.181
20
-118.268
11
238.181
21
-120.583
0
LINE
8
BLACK
6
CONTINUOUS
10
238.181
20
-120.583
11
257.111
21
-120.583
0
LINE
8
BLACK
6
CONTINUOUS
10
257.111
20
-120.583
11
257.111
21
-101.656
0
LINE
8
BLACK
6
CONTINUOUS
10
257.111
20
-101.656
11
238.181
21
-101.656
0
LINE
8
BLACK
6
CONTINUOUS
10
219.131
20
-99.2751
11
219.131
21
-115.881
0
LINE
8
BLACK
6
CONTINUOUS
10
219.131
20
-115.881
11
219.132
21
-115.884
0
LINE
8
BLACK
6
CONTINUOUS
10
219.132
20
-115.884
11
219.131
21
-115.887
0
LINE
8
BLACK
6
CONTINUOUS
10
219.131
20
-115.887
11
219.131
21
-118.205
0
LINE
8
BLACK
6
CONTINUOUS
10
219.131
20
-118.205
11
238.061
21
-118.205
0
LINE
8
BLACK
6
CONTINUOUS
10
238.061
20
-118.205
11
238.061
21
-109.931
0
LINE
8
BLACK
6
CONTINUOUS
10
238.061
20
-109.931
11
238.061
21
-101.599
0
LINE
8
BLACK
6
CONTINUOUS
10
238.061
20
-101.599
11
238.061
21
-101.596
0
LINE
8
BLACK
6
CONTINUOUS
10
238.061
20
-101.596
11
238.061
21
-101.593
0
LINE
8
BLACK
6
CONTINUOUS
10
238.061
20
-101.593
11
238.061
21
-99.2751
0
LINE
8
BLACK
6
CONTINUOUS
10
238.061
20
-99.2751
11
219.131
21
-99.2751
0
LINE
8
BLACK
6
CONTINUOUS
10
181.031
20
-99.2751
11
181.031
21
-101.593
0
LINE
8
BLACK
6
CONTINUOUS
10
181.031
20
-101.593
11
181.032
21
-101.596
0
LINE
8
BLACK
6
CONTINUOUS
10
181.032
20
-101.596
11
181.031
21
-101.599
0
LINE
8
BLACK
6
CONTINUOUS
10
181.031
20
-101.599
11
181.031
21
-118.201
0
LINE
8
BLACK
6
CONTINUOUS
10
181.031
20
-118.201
11
199.958
21
-118.201
0
LINE
8
BLACK
6
CONTINUOUS
10
199.958
20
-118.201
11
199.958
21
-99.2751
0
LINE
8
BLACK
6
CONTINUOUS
10
199.958
20
-99.2751
11
181.031
21
-99.2751
0
LINE
8
BLACK
6
CONTINUOUS
10
200.081
20
-96.8938
11
200.081
21
-99.2121
0
LINE
8
BLACK
6
CONTINUOUS
10
200.081
20
-99.2121
11
200.082
21
-99.2151
0
LINE
8
BLACK
6
CONTINUOUS
10
200.082
20
-99.2151
11
200.081
21
-99.218
0
LINE
8
BLACK
6
CONTINUOUS
10
200.081
20
-99.218
11
200.081
21
-115.824
0
LINE
8
BLACK
6
CONTINUOUS
10
200.081
20
-115.824
11
219.011
21
-115.824
0
LINE
8
BLACK
6
CONTINUOUS
10
219.011
20
-115.824
11
219.011
21
-107.549
0
LINE
8
BLACK
6
CONTINUOUS
10
219.011
20
-107.549
11
219.011
21
-99.218
0
LINE
8
BLACK
6
CONTINUOUS
10
219.011
20
-99.218
11
219.011
21
-99.2151
0
LINE
8
BLACK
6
CONTINUOUS
10
219.011
20
-99.2151
11
219.011
21
-99.2121
0
LINE
8
BLACK
6
CONTINUOUS
10
219.011
20
-99.2121
11
219.011
21
-96.8938
0
LINE
8
BLACK
6
CONTINUOUS
10
219.011
20
-96.8938
11
200.081
21
-96.8938
0
LINE
8
BLACK
6
CONTINUOUS
10
142.932
20
-82.6075
11
142.932
21
-111.062
0
LINE
8
BLACK
6
CONTINUOUS
10
142.932
20
-111.062
11
161.861
21
-111.062
0
LINE
8
BLACK
6
CONTINUOUS
10
161.861
20
-111.062
11
161.861
21
-101.599
0
LINE
8
BLACK
6
CONTINUOUS
10
161.861
20
-101.599
11
161.861
21
-101.596
0
LINE
8
BLACK
6
CONTINUOUS
10
161.861
20
-101.596
11
161.861
21
-101.593
0
LINE
8
BLACK
6
CONTINUOUS
10
161.861
20
-101.593
11
161.861
21
-82.6075
0
LINE
8
BLACK
6
CONTINUOUS
10
161.861
20
-82.6075
11
142.932
21
-82.6075
0
LINE
8
BLACK
6
CONTINUOUS
10
257.232
20
-82.6075
11
257.232
21
-101.537
0
LINE
8
BLACK
6
CONTINUOUS
10
257.232
20
-101.537
11
285.687
21
-101.537
0
LINE
8
BLACK
6
CONTINUOUS
10
285.687
20
-101.537
11
285.687
21
-82.6075
0
LINE
8
BLACK
6
CONTINUOUS
10
285.687
20
-82.6075
11
257.232
21
-82.6075
0
LINE
8
BLACK
6
CONTINUOUS
10
238.181
20
-82.6063
11
238.181
21
-99.2121
0
LINE
8
BLACK
6
CONTINUOUS
10
238.181
20
-99.2121
11
238.182
21
-99.2151
0
LINE
8
BLACK
6
CONTINUOUS
10
238.182
20
-99.2151
11
238.181
21
-99.218
0
LINE
8
BLACK
6
CONTINUOUS
10
238.181
20
-99.218
11
238.181
21
-101.536
0
LINE
8
BLACK
6
CONTINUOUS
10
238.181
20
-101.536
11
257.111
21
-101.536
0
LINE
8
BLACK
6
CONTINUOUS
10
257.111
20
-101.536
11
257.111
21
-82.6063
0
LINE
8
BLACK
6
CONTINUOUS
10
257.111
20
-82.6063
11
238.181
21
-82.6063
0
LINE
8
BLACK
6
CONTINUOUS
10
161.982
20
-82.6063
11
161.982
21
-101.536
0
LINE
8
BLACK
6
CONTINUOUS
10
161.982
20
-101.536
11
180.908
21
-101.536
0
LINE
8
BLACK
6
CONTINUOUS
10
180.908
20
-101.536
11
180.908
21
-99.2143
0
LINE
8
BLACK
6
CONTINUOUS
10
180.908
20
-99.2143
11
180.907
21
-99.2114
0
LINE
8
BLACK
6
CONTINUOUS
10
180.907
20
-99.2114
11
180.908
21
-99.1996
0
LINE
8
BLACK
6
CONTINUOUS
10
180.908
20
-99.1996
11
180.911
21
-99.1901
0
LINE
8
BLACK
6
CONTINUOUS
10
180.911
20
-99.1901
11
180.911
21
-82.6063
0
LINE
8
BLACK
6
CONTINUOUS
10
180.911
20
-82.6063
11
161.982
21
-82.6063
0
LINE
8
BLACK
6
CONTINUOUS
10
219.131
20
-80.2251
11
219.131
21
-96.8309
0
LINE
8
BLACK
6
CONTINUOUS
10
219.131
20
-96.8309
11
219.132
21
-96.8338
0
LINE
8
BLACK
6
CONTINUOUS
10
219.132
20
-96.8338
11
219.131
21
-96.8368
0
LINE
8
BLACK
6
CONTINUOUS
10
219.131
20
-96.8368
11
219.131
21
-99.1551
0
LINE
8
BLACK
6
CONTINUOUS
10
219.131
20
-99.1551
11
238.061
21
-99.1551
0
LINE
8
BLACK
6
CONTINUOUS
10
238.061
20
-99.1551
11
238.061
21
-90.8807
0
LINE
8
BLACK
6
CONTINUOUS
10
238.061
20
-90.8807
11
238.061
21
-82.5493
0
LINE
8
BLACK
6
CONTINUOUS
10
238.061
20
-82.5493
11
238.061
21
-82.5463
0
LINE
8
BLACK
6
CONTINUOUS
10
238.061
20
-82.5463
11
238.061
21
-82.5434
0
LINE
8
BLACK
6
CONTINUOUS
10
238.061
20
-82.5434
11
238.061
21
-80.2251
0
LINE
8
BLACK
6
CONTINUOUS
10
238.061
20
-80.2251
11
219.131
21
-80.2251
0
LINE
8
BLACK
6
CONTINUOUS
10
181.031
20
-80.2251
11
181.031
21
-82.5434
0
LINE
8
BLACK
6
CONTINUOUS
10
181.031
20
-82.5434
11
181.032
21
-82.5463
0
LINE
8
BLACK
6
CONTINUOUS
10
181.032
20
-82.5463
11
181.031
21
-82.5493
0
LINE
8
BLACK
6
CONTINUOUS
10
181.031
20
-82.5493
11
181.031
21
-99.1514
0
LINE
8
BLACK
6
CONTINUOUS
10
181.031
20
-99.1514
11
199.961
21
-99.1514
0
LINE
8
BLACK
6
CONTINUOUS
10
199.961
20
-99.1514
11
199.961
21
-96.8368
0
LINE
8
BLACK
6
CONTINUOUS
10
199.961
20
-96.8368
11
199.961
21
-96.8338
0
LINE
8
BLACK
6
CONTINUOUS
10
199.961
20
-96.8338
11
199.961
21
-96.8309
0
LINE
8
BLACK
6
CONTINUOUS
10
199.961
20
-96.8309
11
199.961
21
-80.2251
0
LINE
8
BLACK
6
CONTINUOUS
10
199.961
20
-80.2251
11
181.031
21
-80.2251
0
LINE
8
BLACK
6
CONTINUOUS
10
200.081
20
-77.8438
11
200.081
21
-80.1621
0
LINE
8
BLACK
6
CONTINUOUS
10
200.081
20
-80.1621
11
200.082
21
-80.1651
0
LINE
8
BLACK
6
CONTINUOUS
10
200.082
20
-80.1651
11
200.081
21
-80.168
0
LINE
8
BLACK
6
CONTINUOUS
10
200.081
20
-80.168
11
200.081
21
-96.7738
0
LINE
8
BLACK
6
CONTINUOUS
10
200.081
20
-96.7738
11
219.011
21
-96.7738
0
LINE
8
BLACK
6
CONTINUOUS
10
219.011
20
-96.7738
11
219.011
21
-88.4994
0
LINE
8
BLACK
6
CONTINUOUS
10
219.011
20
-88.4994
11
219.011
21
-80.168
0
LINE
8
BLACK
6
CONTINUOUS
10
219.011
20
-80.168
11
219.011
21
-80.1651
0
LINE
8
BLACK
6
CONTINUOUS
10
219.011
20
-80.1651
11
219.011
21
-80.1621
0
LINE
8
BLACK
6
CONTINUOUS
10
219.011
20
-80.1621
11
219.011
21
-77.8438
0
LINE
8
BLACK
6
CONTINUOUS
10
219.011
20
-77.8438
11
200.081
21
-77.8438
0
LINE
8
BLACK
6
CONTINUOUS
10
257.232
20
-63.5575
11
257.232
21
-82.4875
0
LINE
8
BLACK
6
CONTINUOUS
10
257.232
20
-82.4875
11
285.687
21
-82.4875
0
LINE
8
BLACK
6
CONTINUOUS
10
285.687
20
-82.4875
11
285.687
21
-63.5575
0
LINE
8
BLACK
6
CONTINUOUS
10
285.687
20
-63.5575
11
257.232
21
-63.5575
0
LINE
8
BLACK
6
CONTINUOUS
10
238.181
20
-63.5563
11
238.181
21
-80.1621
0
LINE
8
BLACK
6
CONTINUOUS
10
238.181
20
-80.1621
11
238.182
21
-80.1651
0
LINE
8
BLACK
6
CONTINUOUS
10
238.182
20
-80.1651
11
238.181
21
-80.168
0
LINE
8
BLACK
6
CONTINUOUS
10
238.181
20
-80.168
11
238.181
21
-82.4863
0
LINE
8
BLACK
6
CONTINUOUS
10
238.181
20
-82.4863
11
257.111
21
-82.4863
0
LINE
8
BLACK
6
CONTINUOUS
10
257.111
20
-82.4863
11
257.111
21
-63.5563
0
LINE
8
BLACK
6
CONTINUOUS
10
257.111
20
-63.5563
11
238.181
21
-63.5563
0
LINE
8
BLACK
6
CONTINUOUS
10
161.981
20
-63.5563
11
161.981
21
-82.4863
0
LINE
8
BLACK
6
CONTINUOUS
10
161.981
20
-82.4863
11
180.911
21
-82.4863
0
LINE
8
BLACK
6
CONTINUOUS
10
180.911
20
-82.4863
11
180.911
21
-80.168
0
LINE
8
BLACK
6
CONTINUOUS
10
180.911
20
-80.168
11
180.911
21
-80.1651
0
LINE
8
BLACK
6
CONTINUOUS
10
180.911
20
-80.1651
11
180.911
21
-80.1621
0
LINE
8
BLACK
6
CONTINUOUS
10
180.911
20
-80.1621
11
180.911
21
-63.5563
0
LINE
8
BLACK
6
CONTINUOUS
10
180.911
20
-63.5563
11
161.981
21
-63.5563
0
LINE
8
BLACK
6
CONTINUOUS
10
142.931
20
-63.5563
11
142.931
21
-82.4863
0
LINE
8
BLACK
6
CONTINUOUS
10
142.931
20
-82.4863
11
161.861
21
-82.4863
0
LINE
8
BLACK
6
CONTINUOUS
10
161.861
20
-82.4863
11
161.861
21
-73.0213
0
LINE
8
BLACK
6
CONTINUOUS
10
161.861
20
-73.0213
11
161.861
21
-63.5563
0
LINE
8
BLACK
6
CONTINUOUS
10
161.861
20
-63.5563
11
142.931
21
-63.5563
0
LINE
8
BLACK
6
CONTINUOUS
10
219.131
20
-61.1751
11
219.131
21
-77.7809
0
LINE
8
BLACK
6
CONTINUOUS
10
219.131
20
-77.7809
11
219.132
21
-77.7838
0
LINE
8
BLACK
6
CONTINUOUS
10
219.132
20
-77.7838
11
219.131
21
-77.7868
0
LINE
8
BLACK
6
CONTINUOUS
10
219.131
20
-77.7868
11
219.131
21
-80.1051
0
LINE
8
BLACK
6
CONTINUOUS
10
219.131
20
-80.1051
11
238.061
21
-80.1051
0
LINE
8
BLACK
6
CONTINUOUS
10
238.061
20
-80.1051
11
238.061
21
-71.8307
0
LINE
8
BLACK
6
CONTINUOUS
10
238.061
20
-71.8307
11
238.061
21
-63.4993
0
LINE
8
BLACK
6
CONTINUOUS
10
238.061
20
-63.4993
11
238.061
21
-63.4963
0
LINE
8
BLACK
6
CONTINUOUS
10
238.061
20
-63.4963
11
238.061
21
-63.4934
0
LINE
8
BLACK
6
CONTINUOUS
10
238.061
20
-63.4934
11
238.061
21
-61.1751
0
LINE
8
BLACK
6
CONTINUOUS
10
238.061
20
-61.1751
11
219.131
21
-61.1751
0
LINE
8
BLACK
6
CONTINUOUS
10
181.031
20
-61.1751
11
181.031
21
-63.4934
0
LINE
8
BLACK
6
CONTINUOUS
10
181.031
20
-63.4934
11
181.032
21
-63.4963
0
LINE
8
BLACK
6
CONTINUOUS
10
181.032
20
-63.4963
11
181.031
21
-63.4993
0
LINE
8
BLACK
6
CONTINUOUS
10
181.031
20
-63.4993
11
181.031
21
-80.1051
0
LINE
8
BLACK
6
CONTINUOUS
10
181.031
20
-80.1051
11
199.961
21
-80.1051
0
LINE
8
BLACK
6
CONTINUOUS
10
199.961
20
-80.1051
11
199.961
21
-77.8014
0
LINE
8
BLACK
6
CONTINUOUS
10
199.961
20
-77.8014
11
199.958
21
-77.7919
0
LINE
8
BLACK
6
CONTINUOUS
10
199.958
20
-77.7919
11
199.957
21
-77.7801
0
LINE
8
BLACK
6
CONTINUOUS
10
199.957
20
-77.7801
11
199.958
21
-77.7772
0
LINE
8
BLACK
6
CONTINUOUS
10
199.958
20
-77.7772
11
199.958
21
-61.1751
0
LINE
8
BLACK
6
CONTINUOUS
10
199.958
20
-61.1751
11
181.031
21
-61.1751
0
LINE
8
BLACK
6
CONTINUOUS
10
200.078
20
-58.7901
11
200.078
21
-61.0938
0
LINE
8
BLACK
6
CONTINUOUS
10
200.078
20
-61.0938
11
200.08
21
-61.1033
0
LINE
8
BLACK
6
CONTINUOUS
10
200.08
20
-61.1033
11
200.082
21
-61.1151
0
LINE
8
BLACK
6
CONTINUOUS
10
200.082
20
-61.1151
11
200.081
21
-61.118
0
LINE
8
BLACK
6
CONTINUOUS
10
200.081
20
-61.118
11
200.081
21
-77.7201
0
LINE
8
BLACK
6
CONTINUOUS
10
200.081
20
-77.7201
11
219.008
21
-77.7201
0
LINE
8
BLACK
6
CONTINUOUS
10
219.008
20
-77.7201
11
219.008
21
-58.7901
0
LINE
8
BLACK
6
CONTINUOUS
10
219.008
20
-58.7901
11
200.078
21
-58.7901
0
LINE
8
BLACK
6
CONTINUOUS
10
207.27
20
-50.8106
11
207.275
21
-50.8112
0
LINE
8
BLACK
6
CONTINUOUS
10
207.275
20
-50.8112
11
207.283
21
-50.8135
0
LINE
8
BLACK
6
CONTINUOUS
10
207.283
20
-50.8135
11
207.29
21
-50.8172
0
LINE
8
BLACK
6
CONTINUOUS
10
207.29
20
-50.8172
11
207.296
21
-50.8222
0
LINE
8
BLACK
6
CONTINUOUS
10
207.296
20
-50.8222
11
207.301
21
-50.8283
0
LINE
8
BLACK
6
CONTINUOUS
10
207.301
20
-50.8283
11
207.305
21
-50.8353
0
LINE
8
BLACK
6
CONTINUOUS
10
207.305
20
-50.8353
11
207.307
21
-50.8428
0
LINE
8
BLACK
6
CONTINUOUS
10
207.307
20
-50.8428
11
207.308
21
-50.8506
0
LINE
8
BLACK
6
CONTINUOUS
10
207.308
20
-50.8506
11
207.308
21
-50.8526
0
LINE
8
BLACK
6
CONTINUOUS
10
207.308
20
-50.8526
11
207.308
21
-53.6867
0
LINE
8
BLACK
6
CONTINUOUS
10
207.308
20
-53.6867
11
207.308
21
-53.6886
0
LINE
8
BLACK
6
CONTINUOUS
10
207.308
20
-53.6886
11
207.307
21
-53.6965
0
LINE
8
BLACK
6
CONTINUOUS
10
207.307
20
-53.6965
11
207.305
21
-53.704
0
LINE
8
BLACK
6
CONTINUOUS
10
207.305
20
-53.704
11
207.301
21
-53.711
0
LINE
8
BLACK
6
CONTINUOUS
10
207.301
20
-53.711
11
207.296
21
-53.7171
0
LINE
8
BLACK
6
CONTINUOUS
10
207.296
20
-53.7171
11
207.29
21
-53.7221
0
LINE
8
BLACK
6
CONTINUOUS
10
207.29
20
-53.7221
11
207.283
21
-53.7258
0
LINE
8
BLACK
6
CONTINUOUS
10
207.283
20
-53.7258
11
207.275
21
-53.7281
0
LINE
8
BLACK
6
CONTINUOUS
10
207.275
20
-53.7281
11
207.27
21
-53.7286
0
LINE
8
BLACK
6
CONTINUOUS
10
207.27
20
-53.7286
11
207.268
21
-53.7288
0
LINE
8
BLACK
6
CONTINUOUS
10
207.268
20
-53.7288
11
207.266
21
-53.7286
0
LINE
8
BLACK
6
CONTINUOUS
10
207.266
20
-53.7286
11
205.67
21
-53.7286
0
LINE
8
BLACK
6
CONTINUOUS
10
205.67
20
-53.7286
11
205.668
21
-53.7288
0
LINE
8
BLACK
6
CONTINUOUS
10
205.668
20
-53.7288
11
205.666
21
-53.7286
0
LINE
8
BLACK
6
CONTINUOUS
10
205.666
20
-53.7286
11
205.66
21
-53.7281
0
LINE
8
BLACK
6
CONTINUOUS
10
205.66
20
-53.7281
11
205.652
21
-53.7258
0
LINE
8
BLACK
6
CONTINUOUS
10
205.652
20
-53.7258
11
205.645
21
-53.7221
0
LINE
8
BLACK
6
CONTINUOUS
10
205.645
20
-53.7221
11
205.639
21
-53.7171
0
LINE
8
BLACK
6
CONTINUOUS
10
205.639
20
-53.7171
11
205.634
21
-53.711
0
LINE
8
BLACK
6
CONTINUOUS
10
205.634
20
-53.711
11
205.63
21
-53.704
0
LINE
8
BLACK
6
CONTINUOUS
10
205.63
20
-53.704
11
205.628
21
-53.6965
0
LINE
8
BLACK
6
CONTINUOUS
10
205.628
20
-53.6965
11
205.627
21
-53.6886
0
LINE
8
BLACK
6
CONTINUOUS
10
205.627
20
-53.6886
11
205.628
21
-53.6867
0
LINE
8
BLACK
6
CONTINUOUS
10
205.628
20
-53.6867
11
205.628
21
-50.8526
0
LINE
8
BLACK
6
CONTINUOUS
10
205.628
20
-50.8526
11
205.627
21
-50.8506
0
LINE
8
BLACK
6
CONTINUOUS
10
205.627
20
-50.8506
11
205.628
21
-50.8428
0
LINE
8
BLACK
6
CONTINUOUS
10
205.628
20
-50.8428
11
205.63
21
-50.8353
0
LINE
8
BLACK
6
CONTINUOUS
10
205.63
20
-50.8353
11
205.634
21
-50.8283
0
LINE
8
BLACK
6
CONTINUOUS
10
205.634
20
-50.8283
11
205.639
21
-50.8222
0
LINE
8
BLACK
6
CONTINUOUS
10
205.639
20
-50.8222
11
205.645
21
-50.8172
0
LINE
8
BLACK
6
CONTINUOUS
10
205.645
20
-50.8172
11
205.652
21
-50.8135
0
LINE
8
BLACK
6
CONTINUOUS
10
205.652
20
-50.8135
11
205.66
21
-50.8112
0
LINE
8
BLACK
6
CONTINUOUS
10
205.66
20
-50.8112
11
205.666
21
-50.8106
0
LINE
8
BLACK
6
CONTINUOUS
10
205.666
20
-50.8106
11
205.668
21
-50.8104
0
LINE
8
BLACK
6
CONTINUOUS
10
205.668
20
-50.8104
11
205.67
21
-50.8106
0
LINE
8
BLACK
6
CONTINUOUS
10
205.67
20
-50.8106
11
207.266
21
-50.8106
0
LINE
8
BLACK
6
CONTINUOUS
10
207.266
20
-50.8106
11
207.268
21
-50.8104
0
LINE
8
BLACK
6
CONTINUOUS
10
207.268
20
-50.8104
11
207.27
21
-50.8106
0
LINE
8
BLACK
6
CONTINUOUS
10
206.337
20
-51.2073
11
206.335
21
-51.2061
0
LINE
8
BLACK
6
CONTINUOUS
10
206.335
20
-51.2061
11
206.333
21
-51.2048
0
LINE
8
BLACK
6
CONTINUOUS
10
206.333
20
-51.2048
11
206.272
21
-51.1559
0
LINE
8
BLACK
6
CONTINUOUS
10
206.272
20
-51.1559
11
206.272
21
-51.1559
0
LINE
8
BLACK
6
CONTINUOUS
10
206.272
20
-51.1559
11
206.272
21
-51.1559
0
LINE
8
BLACK
6
CONTINUOUS
10
206.272
20
-51.1559
11
206.272
21
-51.1557
0
LINE
8
BLACK
6
CONTINUOUS
10
206.272
20
-51.1557
11
206.27
21
-51.1541
0
LINE
8
BLACK
6
CONTINUOUS
10
206.27
20
-51.1541
11
206.269
21
-51.1525
0
LINE
8
BLACK
6
CONTINUOUS
10
206.269
20
-51.1525
11
206.218
21
-51.0927
0
LINE
8
BLACK
6
CONTINUOUS
10
206.218
20
-51.0927
11
206.218
21
-51.0924
0
LINE
8
BLACK
6
CONTINUOUS
10
206.218
20
-51.0924
11
206.217
21
-51.0905
0
LINE
8
BLACK
6
CONTINUOUS
10
206.217
20
-51.0905
11
206.216
21
-51.0887
0
LINE
8
BLACK
6
CONTINUOUS
10
206.216
20
-51.0887
11
206.178
21
-51.0203
0
LINE
8
BLACK
6
CONTINUOUS
10
206.178
20
-51.0203
11
206.178
21
-51.02
0
LINE
8
BLACK
6
CONTINUOUS
10
206.178
20
-51.02
11
206.177
21
-51.0179
0
LINE
8
BLACK
6
CONTINUOUS
10
206.177
20
-51.0179
11
206.176
21
-51.0158
0
LINE
8
BLACK
6
CONTINUOUS
10
206.176
20
-51.0158
11
206.152
21
-50.9414
0
LINE
8
BLACK
6
CONTINUOUS
10
206.152
20
-50.9414
11
206.152
21
-50.941
0
LINE
8
BLACK
6
CONTINUOUS
10
206.152
20
-50.941
11
206.152
21
-50.9388
0
LINE
8
BLACK
6
CONTINUOUS
10
206.152
20
-50.9388
11
206.151
21
-50.9366
0
LINE
8
BLACK
6
CONTINUOUS
10
206.151
20
-50.9366
11
206.146
21
-50.8906
0
LINE
8
BLACK
6
CONTINUOUS
10
206.146
20
-50.8906
11
205.708
21
-50.8906
0
LINE
8
BLACK
6
CONTINUOUS
10
205.708
20
-50.8906
11
205.708
21
-53.6486
0
LINE
8
BLACK
6
CONTINUOUS
10
205.708
20
-53.6486
11
207.228
21
-53.6486
0
LINE
8
BLACK
6
CONTINUOUS
10
207.228
20
-53.6486
11
207.228
21
-50.8906
0
LINE
8
BLACK
6
CONTINUOUS
10
207.228
20
-50.8906
11
206.989
21
-50.8906
0
LINE
8
BLACK
6
CONTINUOUS
10
206.989
20
-50.8906
11
206.985
21
-50.9308
0
LINE
8
BLACK
6
CONTINUOUS
10
206.985
20
-50.9308
11
206.985
21
-50.9311
0
LINE
8
BLACK
6
CONTINUOUS
10
206.985
20
-50.9311
11
206.984
21
-50.9334
0
LINE
8
BLACK
6
CONTINUOUS
10
206.984
20
-50.9334
11
206.984
21
-50.9356
0
LINE
8
BLACK
6
CONTINUOUS
10
206.984
20
-50.9356
11
206.961
21
-51.0103
0
LINE
8
BLACK
6
CONTINUOUS
10
206.961
20
-51.0103
11
206.961
21
-51.0106
0
LINE
8
BLACK
6
CONTINUOUS
10
206.961
20
-51.0106
11
206.96
21
-51.0127
0
LINE
8
BLACK
6
CONTINUOUS
10
206.96
20
-51.0127
11
206.959
21
-51.0148
0
LINE
8
BLACK
6
CONTINUOUS
10
206.959
20
-51.0148
11
206.923
21
-51.0837
0
LINE
8
BLACK
6
CONTINUOUS
10
206.923
20
-51.0837
11
206.923
21
-51.084
0
LINE
8
BLACK
6
CONTINUOUS
10
206.923
20
-51.084
11
206.921
21
-51.0859
0
LINE
8
BLACK
6
CONTINUOUS
10
206.921
20
-51.0859
11
206.92
21
-51.0878
0
LINE
8
BLACK
6
CONTINUOUS
10
206.92
20
-51.0878
11
206.871
21
-51.1483
0
LINE
8
BLACK
6
CONTINUOUS
10
206.871
20
-51.1483
11
206.871
21
-51.1486
0
LINE
8
BLACK
6
CONTINUOUS
10
206.871
20
-51.1486
11
206.869
21
-51.1502
0
LINE
8
BLACK
6
CONTINUOUS
10
206.869
20
-51.1502
11
206.867
21
-51.1518
0
LINE
8
BLACK
6
CONTINUOUS
10
206.867
20
-51.1518
11
206.807
21
-51.2015
0
LINE
8
BLACK
6
CONTINUOUS
10
206.807
20
-51.2015
11
206.807
21
-51.2017
0
LINE
8
BLACK
6
CONTINUOUS
10
206.807
20
-51.2017
11
206.805
21
-51.203
0
LINE
8
BLACK
6
CONTINUOUS
10
206.805
20
-51.203
11
206.803
21
-51.2042
0
LINE
8
BLACK
6
CONTINUOUS
10
206.803
20
-51.2042
11
206.734
21
-51.2414
0
LINE
8
BLACK
6
CONTINUOUS
10
206.734
20
-51.2414
11
206.734
21
-51.2415
0
LINE
8
BLACK
6
CONTINUOUS
10
206.734
20
-51.2415
11
206.732
21
-51.2424
0
LINE
8
BLACK
6
CONTINUOUS
10
206.732
20
-51.2424
11
206.73
21
-51.2433
0
LINE
8
BLACK
6
CONTINUOUS
10
206.73
20
-51.2433
11
206.655
21
-51.2664
0
LINE
8
BLACK
6
CONTINUOUS
10
206.655
20
-51.2664
11
206.655
21
-51.2665
0
LINE
8
BLACK
6
CONTINUOUS
10
206.655
20
-51.2665
11
206.653
21
-51.2669
0
LINE
8
BLACK
6
CONTINUOUS
10
206.653
20
-51.2669
11
206.651
21
-51.2673
0
LINE
8
BLACK
6
CONTINUOUS
10
206.651
20
-51.2673
11
206.573
21
-51.2755
0
LINE
8
BLACK
6
CONTINUOUS
10
206.573
20
-51.2755
11
206.573
21
-51.2755
0
LINE
8
BLACK
6
CONTINUOUS
10
206.573
20
-51.2755
11
206.57
21
-51.2755
0
LINE
8
BLACK
6
CONTINUOUS
10
206.57
20
-51.2755
11
206.568
21
-51.2755
0
LINE
8
BLACK
6
CONTINUOUS
10
206.568
20
-51.2755
11
206.49
21
-51.2685
0
LINE
8
BLACK
6
CONTINUOUS
10
206.49
20
-51.2685
11
206.49
21
-51.2684
0
LINE
8
BLACK
6
CONTINUOUS
10
206.49
20
-51.2684
11
206.488
21
-51.268
0
LINE
8
BLACK
6
CONTINUOUS
10
206.488
20
-51.268
11
206.486
21
-51.2675
0
LINE
8
BLACK
6
CONTINUOUS
10
206.486
20
-51.2675
11
206.411
21
-51.2455
0
LINE
8
BLACK
6
CONTINUOUS
10
206.411
20
-51.2455
11
206.41
21
-51.2454
0
LINE
8
BLACK
6
CONTINUOUS
10
206.41
20
-51.2454
11
206.408
21
-51.2445
0
LINE
8
BLACK
6
CONTINUOUS
10
206.408
20
-51.2445
11
206.406
21
-51.2437
0
LINE
8
BLACK
6
CONTINUOUS
10
206.406
20
-51.2437
11
206.337
21
-51.2075
0
LINE
8
BLACK
6
CONTINUOUS
10
206.337
20
-51.2075
11
206.337
21
-51.2075
0
LINE
8
BLACK
6
CONTINUOUS
10
206.337
20
-51.2075
11
206.337
21
-51.2073
0
LINE
8
BLACK
6
CONTINUOUS
10
206.197
20
-50.8906
11
206.201
21
-50.9286
0
LINE
8
BLACK
6
CONTINUOUS
10
206.201
20
-50.9286
11
206.223
21
-50.9983
0
LINE
8
BLACK
6
CONTINUOUS
10
206.223
20
-50.9983
11
206.258
21
-51.0624
0
LINE
8
BLACK
6
CONTINUOUS
10
206.258
20
-51.0624
11
206.305
21
-51.1185
0
LINE
8
BLACK
6
CONTINUOUS
10
206.305
20
-51.1185
11
206.362
21
-51.1643
0
LINE
8
BLACK
6
CONTINUOUS
10
206.362
20
-51.1643
11
206.427
21
-51.1982
0
LINE
8
BLACK
6
CONTINUOUS
10
206.427
20
-51.1982
11
206.497
21
-51.2189
0
LINE
8
BLACK
6
CONTINUOUS
10
206.497
20
-51.2189
11
206.57
21
-51.2255
0
LINE
8
BLACK
6
CONTINUOUS
10
206.57
20
-51.2255
11
206.643
21
-51.2179
0
LINE
8
BLACK
6
CONTINUOUS
10
206.643
20
-51.2179
11
206.713
21
-51.1962
0
LINE
8
BLACK
6
CONTINUOUS
10
206.713
20
-51.1962
11
206.777
21
-51.1614
0
LINE
8
BLACK
6
CONTINUOUS
10
206.777
20
-51.1614
11
206.834
21
-51.1148
0
LINE
8
BLACK
6
CONTINUOUS
10
206.834
20
-51.1148
11
206.88
21
-51.0581
0
LINE
8
BLACK
6
CONTINUOUS
10
206.88
20
-51.0581
11
206.914
21
-50.9935
0
LINE
8
BLACK
6
CONTINUOUS
10
206.914
20
-50.9935
11
206.935
21
-50.9235
0
LINE
8
BLACK
6
CONTINUOUS
10
206.935
20
-50.9235
11
206.939
21
-50.8906
0
LINE
8
BLACK
6
CONTINUOUS
10
206.939
20
-50.8906
11
206.197
21
-50.8906
0
LINE
8
BLACK
6
CONTINUOUS
10
205.981
20
-51.0282
11
205.999
21
-51.0354
0
LINE
8
BLACK
6
CONTINUOUS
10
205.999
20
-51.0354
11
206.014
21
-51.0459
0
LINE
8
BLACK
6
CONTINUOUS
10
206.014
20
-51.0459
11
206.028
21
-51.0592
0
LINE
8
BLACK
6
CONTINUOUS
10
206.028
20
-51.0592
11
206.038
21
-51.0748
0
LINE
8
BLACK
6
CONTINUOUS
10
206.038
20
-51.0748
11
206.045
21
-51.0922
0
LINE
8
BLACK
6
CONTINUOUS
10
206.045
20
-51.0922
11
206.049
21
-51.1106
0
LINE
8
BLACK
6
CONTINUOUS
10
206.049
20
-51.1106
11
206.049
21
-51.1294
0
LINE
8
BLACK
6
CONTINUOUS
10
206.049
20
-51.1294
11
206.045
21
-51.1479
0
LINE
8
BLACK
6
CONTINUOUS
10
206.045
20
-51.1479
11
206.038
21
-51.1653
0
LINE
8
BLACK
6
CONTINUOUS
10
206.038
20
-51.1653
11
206.028
21
-51.1809
0
LINE
8
BLACK
6
CONTINUOUS
10
206.028
20
-51.1809
11
206.014
21
-51.1942
0
LINE
8
BLACK
6
CONTINUOUS
10
206.014
20
-51.1942
11
205.999
21
-51.2046
0
LINE
8
BLACK
6
CONTINUOUS
10
205.999
20
-51.2046
11
205.981
21
-51.2118
0
LINE
8
BLACK
6
CONTINUOUS
10
205.981
20
-51.2118
11
205.963
21
-51.2155
0
LINE
8
BLACK
6
CONTINUOUS
10
205.963
20
-51.2155
11
205.944
21
-51.2155
0
LINE
8
BLACK
6
CONTINUOUS
10
205.944
20
-51.2155
11
205.926
21
-51.2118
0
LINE
8
BLACK
6
CONTINUOUS
10
205.926
20
-51.2118
11
205.908
21
-51.2046
0
LINE
8
BLACK
6
CONTINUOUS
10
205.908
20
-51.2046
11
205.893
21
-51.1942
0
LINE
8
BLACK
6
CONTINUOUS
10
205.893
20
-51.1942
11
205.879
21
-51.1809
0
LINE
8
BLACK
6
CONTINUOUS
10
205.879
20
-51.1809
11
205.869
21
-51.1653
0
LINE
8
BLACK
6
CONTINUOUS
10
205.869
20
-51.1653
11
205.862
21
-51.1479
0
LINE
8
BLACK
6
CONTINUOUS
10
205.862
20
-51.1479
11
205.858
21
-51.1294
0
LINE
8
BLACK
6
CONTINUOUS
10
205.858
20
-51.1294
11
205.858
21
-51.1106
0
LINE
8
BLACK
6
CONTINUOUS
10
205.858
20
-51.1106
11
205.862
21
-51.0922
0
LINE
8
BLACK
6
CONTINUOUS
10
205.862
20
-51.0922
11
205.869
21
-51.0748
0
LINE
8
BLACK
6
CONTINUOUS
10
205.869
20
-51.0748
11
205.879
21
-51.0592
0
LINE
8
BLACK
6
CONTINUOUS
10
205.879
20
-51.0592
11
205.893
21
-51.0459
0
LINE
8
BLACK
6
CONTINUOUS
10
205.893
20
-51.0459
11
205.908
21
-51.0354
0
LINE
8
BLACK
6
CONTINUOUS
10
205.908
20
-51.0354
11
205.926
21
-51.0282
0
LINE
8
BLACK
6
CONTINUOUS
10
205.926
20
-51.0282
11
205.944
21
-51.0246
0
LINE
8
BLACK
6
CONTINUOUS
10
205.944
20
-51.0246
11
205.963
21
-51.0246
0
LINE
8
BLACK
6
CONTINUOUS
10
205.963
20
-51.0246
11
205.981
21
-51.0282
  0
ENDSEC
  0
EOF
