  0
SECTION
  2
HEADER
  9
$ANGBASE
  50
0.0
  9
$ANGDIR
  70
1
  9
$MEASUREMENT
  70
1
  0
ENDSEC
  0
SECTION
  2
TABLES
  0
TABLE
  2
LTYPE
  70
4
  0
LTYPE
  5
40F
  2
CONTINUOUS
  70
0
  3
Solid line
  72
65
  73
0
  40
0.0
  0
LTYPE
  5
410
  2
DASHDOT
 70
0
  3
Dash Dot ____ _ ____ _
 72
65
 73
4
 40
2.0
 49
1.25
 49
-0.25
 49
0.25
 49
-0.25
  0
LTYPE
  5
411
  2
DASHED
 70
0
  3
Dashed __ __ __ __ __
 72
65
 73
2
 40
0.75
 49
0.5
 49
-0.25
  0
LTYPE
  5
43B
  2
DOTTED
 70
0
  3
Dotted .  .  .  .
 72
65
 73
2
 40
0.2
 49
0.0
 49
-0.2
  0
ENDTAB
  0
TABLE
  2
STYLE
  70
4
  0
STYLE
  2
KICAD
  70
0
  40
0
  41
1
  42
1
  50
0
  71
0
  3
isocp.shx
  0
STYLE
  2
KICADB
  70
0
  40
0
  41
1
  42
1
  50
0
  71
0
  3
isocp.shx
  0
STYLE
  2
KICADI
  70
0
  40
0
  41
1
  42
1
  50
15
  71
0
  3
isocp.shx
  0
STYLE
  2
KICADBI
  70
0
  40
0
  41
1
  42
1
  50
15
  71
0
  3
isocp.shx
  0
ENDTAB
  0
TABLE
  2
LAYER
  70
1
  0
LAYER
  2
BLACK
  70
0
  62
7
  6
CONTINUOUS
  0
ENDTAB
  0
ENDSEC
  0
SECTION
  2
ENTITIES
0
LINE
8
BLACK
6
CONTINUOUS
10
96.8464
20
-53.6539
11
96.8483
21
-53.6562
0
LINE
8
BLACK
6
CONTINUOUS
10
96.8483
20
-53.6562
11
96.8483
21
-53.6563
0
LINE
8
BLACK
6
CONTINUOUS
10
96.8483
20
-53.6563
11
96.8483
21
-53.6563
0
LINE
8
BLACK
6
CONTINUOUS
10
96.8483
20
-53.6563
11
96.8484
21
-53.6564
0
LINE
8
BLACK
6
CONTINUOUS
10
96.8484
20
-53.6564
11
96.8506
21
-53.6606
0
LINE
8
BLACK
6
CONTINUOUS
10
96.8506
20
-53.6606
11
96.8506
21
-53.6606
0
LINE
8
BLACK
6
CONTINUOUS
10
96.8506
20
-53.6606
11
96.8506
21
-53.6606
0
LINE
8
BLACK
6
CONTINUOUS
10
96.8506
20
-53.6606
11
96.8507
21
-53.6608
0
LINE
8
BLACK
6
CONTINUOUS
10
96.8507
20
-53.6608
11
96.852
21
-53.6653
0
LINE
8
BLACK
6
CONTINUOUS
10
96.852
20
-53.6653
11
96.852
21
-53.6653
0
LINE
8
BLACK
6
CONTINUOUS
10
96.852
20
-53.6653
11
96.852
21
-53.6653
0
LINE
8
BLACK
6
CONTINUOUS
10
96.852
20
-53.6653
11
96.8522
21
-53.6668
0
LINE
8
BLACK
6
CONTINUOUS
10
96.8522
20
-53.6668
11
96.8525
21
-53.6702
0
LINE
8
BLACK
6
CONTINUOUS
10
96.8525
20
-53.6702
11
96.8524
21
-53.6714
0
LINE
8
BLACK
6
CONTINUOUS
10
96.8524
20
-53.6714
11
96.8498
21
-59.2327
0
LINE
8
BLACK
6
CONTINUOUS
10
96.8498
20
-59.2327
11
96.8498
21
-59.2327
0
LINE
8
BLACK
6
CONTINUOUS
10
96.8498
20
-59.2327
11
96.8498
21
-59.2332
0
LINE
8
BLACK
6
CONTINUOUS
10
96.8498
20
-59.2332
11
96.8546
21
-59.2788
0
LINE
8
BLACK
6
CONTINUOUS
10
96.8546
20
-59.2788
11
96.8678
21
-59.3215
0
LINE
8
BLACK
6
CONTINUOUS
10
96.8678
20
-59.3215
11
96.889
21
-59.3608
0
LINE
8
BLACK
6
CONTINUOUS
10
96.889
20
-59.3608
11
96.9175
21
-59.3952
0
LINE
8
BLACK
6
CONTINUOUS
10
96.9175
20
-59.3952
11
96.9521
21
-59.4234
0
LINE
8
BLACK
6
CONTINUOUS
10
96.9521
20
-59.4234
11
96.9916
21
-59.4444
0
LINE
8
BLACK
6
CONTINUOUS
10
96.9916
20
-59.4444
11
97.0343
21
-59.4573
0
LINE
8
BLACK
6
CONTINUOUS
10
97.0343
20
-59.4573
11
97.08
21
-59.4618
0
LINE
8
BLACK
6
CONTINUOUS
10
97.08
20
-59.4618
11
97.8661
21
-59.4618
0
LINE
8
BLACK
6
CONTINUOUS
10
97.8661
20
-59.4618
11
97.8666
21
-59.4618
0
LINE
8
BLACK
6
CONTINUOUS
10
97.8666
20
-59.4618
11
97.9122
21
-59.457
0
LINE
8
BLACK
6
CONTINUOUS
10
97.9122
20
-59.457
11
97.9549
21
-59.4438
0
LINE
8
BLACK
6
CONTINUOUS
10
97.9549
20
-59.4438
11
97.9942
21
-59.4226
0
LINE
8
BLACK
6
CONTINUOUS
10
97.9942
20
-59.4226
11
98.0286
21
-59.3941
0
LINE
8
BLACK
6
CONTINUOUS
10
98.0286
20
-59.3941
11
98.0568
21
-59.3595
0
LINE
8
BLACK
6
CONTINUOUS
10
98.0568
20
-59.3595
11
98.0778
21
-59.32
0
LINE
8
BLACK
6
CONTINUOUS
10
98.0778
20
-59.32
11
98.0907
21
-59.2773
0
LINE
8
BLACK
6
CONTINUOUS
10
98.0907
20
-59.2773
11
98.0952
21
-59.2316
0
LINE
8
BLACK
6
CONTINUOUS
10
98.0952
20
-59.2316
11
98.0952
21
-54.6874
0
LINE
8
BLACK
6
CONTINUOUS
10
98.0952
20
-54.6874
11
98.0951
21
-54.6862
0
LINE
8
BLACK
6
CONTINUOUS
10
98.0951
20
-54.6862
11
98.0956
21
-54.6813
0
LINE
8
BLACK
6
CONTINUOUS
10
98.0956
20
-54.6813
11
98.097
21
-54.6766
0
LINE
8
BLACK
6
CONTINUOUS
10
98.097
20
-54.6766
11
98.0993
21
-54.6722
0
LINE
8
BLACK
6
CONTINUOUS
10
98.0993
20
-54.6722
11
98.1024
21
-54.6684
0
LINE
8
BLACK
6
CONTINUOUS
10
98.1024
20
-54.6684
11
98.1062
21
-54.6653
0
LINE
8
BLACK
6
CONTINUOUS
10
98.1062
20
-54.6653
11
98.1106
21
-54.663
0
LINE
8
BLACK
6
CONTINUOUS
10
98.1106
20
-54.663
11
98.1153
21
-54.6616
0
LINE
8
BLACK
6
CONTINUOUS
10
98.1153
20
-54.6616
11
98.119
21
-54.6612
0
LINE
8
BLACK
6
CONTINUOUS
10
98.119
20
-54.6612
11
98.119
21
-54.6612
0
LINE
8
BLACK
6
CONTINUOUS
10
98.119
20
-54.6612
11
98.1202
21
-54.6611
0
LINE
8
BLACK
6
CONTINUOUS
10
98.1202
20
-54.6611
11
98.1214
21
-54.6612
0
LINE
8
BLACK
6
CONTINUOUS
10
98.1214
20
-54.6612
11
104.926
21
-54.6612
0
LINE
8
BLACK
6
CONTINUOUS
10
104.926
20
-54.6612
11
104.927
21
-54.6611
0
LINE
8
BLACK
6
CONTINUOUS
10
104.927
20
-54.6611
11
104.929
21
-54.6612
0
LINE
8
BLACK
6
CONTINUOUS
10
104.929
20
-54.6612
11
104.929
21
-54.6612
0
LINE
8
BLACK
6
CONTINUOUS
10
104.929
20
-54.6612
11
104.932
21
-54.6616
0
LINE
8
BLACK
6
CONTINUOUS
10
104.932
20
-54.6616
11
104.937
21
-54.663
0
LINE
8
BLACK
6
CONTINUOUS
10
104.937
20
-54.663
11
104.941
21
-54.6653
0
LINE
8
BLACK
6
CONTINUOUS
10
104.941
20
-54.6653
11
104.945
21
-54.6684
0
LINE
8
BLACK
6
CONTINUOUS
10
104.945
20
-54.6684
11
104.948
21
-54.6722
0
LINE
8
BLACK
6
CONTINUOUS
10
104.948
20
-54.6722
11
104.951
21
-54.6766
0
LINE
8
BLACK
6
CONTINUOUS
10
104.951
20
-54.6766
11
104.952
21
-54.6813
0
LINE
8
BLACK
6
CONTINUOUS
10
104.952
20
-54.6813
11
104.953
21
-54.6862
0
LINE
8
BLACK
6
CONTINUOUS
10
104.953
20
-54.6862
11
104.952
21
-54.6874
0
LINE
8
BLACK
6
CONTINUOUS
10
104.952
20
-54.6874
11
104.952
21
-59.2327
0
LINE
8
BLACK
6
CONTINUOUS
10
104.952
20
-59.2327
11
104.952
21
-59.2332
0
LINE
8
BLACK
6
CONTINUOUS
10
104.952
20
-59.2332
11
104.957
21
-59.2788
0
LINE
8
BLACK
6
CONTINUOUS
10
104.957
20
-59.2788
11
104.97
21
-59.3215
0
LINE
8
BLACK
6
CONTINUOUS
10
104.97
20
-59.3215
11
104.992
21
-59.3608
0
LINE
8
BLACK
6
CONTINUOUS
10
104.992
20
-59.3608
11
105.02
21
-59.3952
0
LINE
8
BLACK
6
CONTINUOUS
10
105.02
20
-59.3952
11
105.055
21
-59.4234
0
LINE
8
BLACK
6
CONTINUOUS
10
105.055
20
-59.4234
11
105.094
21
-59.4444
0
LINE
8
BLACK
6
CONTINUOUS
10
105.094
20
-59.4444
11
105.137
21
-59.4573
0
LINE
8
BLACK
6
CONTINUOUS
10
105.137
20
-59.4573
11
105.183
21
-59.4618
0
LINE
8
BLACK
6
CONTINUOUS
10
105.183
20
-59.4618
11
105.981
21
-59.4618
0
LINE
8
BLACK
6
CONTINUOUS
10
105.981
20
-59.4618
11
105.982
21
-59.4618
0
LINE
8
BLACK
6
CONTINUOUS
10
105.982
20
-59.4618
11
106.028
21
-59.457
0
LINE
8
BLACK
6
CONTINUOUS
10
106.028
20
-59.457
11
106.07
21
-59.4438
0
LINE
8
BLACK
6
CONTINUOUS
10
106.07
20
-59.4438
11
106.109
21
-59.4226
0
LINE
8
BLACK
6
CONTINUOUS
10
106.109
20
-59.4226
11
106.144
21
-59.3941
0
LINE
8
BLACK
6
CONTINUOUS
10
106.144
20
-59.3941
11
106.172
21
-59.3595
0
LINE
8
BLACK
6
CONTINUOUS
10
106.172
20
-59.3595
11
106.193
21
-59.32
0
LINE
8
BLACK
6
CONTINUOUS
10
106.193
20
-59.32
11
106.206
21
-59.2773
0
LINE
8
BLACK
6
CONTINUOUS
10
106.206
20
-59.2773
11
106.21
21
-59.2316
0
LINE
8
BLACK
6
CONTINUOUS
10
106.21
20
-59.2316
11
106.205
21
-53.6714
0
LINE
8
BLACK
6
CONTINUOUS
10
106.205
20
-53.6714
11
106.205
21
-53.6702
0
LINE
8
BLACK
6
CONTINUOUS
10
106.205
20
-53.6702
11
106.205
21
-53.6672
0
LINE
8
BLACK
6
CONTINUOUS
10
106.205
20
-53.6672
11
106.205
21
-53.6653
0
LINE
8
BLACK
6
CONTINUOUS
10
106.205
20
-53.6653
11
106.205
21
-53.6653
0
LINE
8
BLACK
6
CONTINUOUS
10
106.205
20
-53.6653
11
106.205
21
-53.6653
0
LINE
8
BLACK
6
CONTINUOUS
10
106.205
20
-53.6653
11
106.206
21
-53.6623
0
LINE
8
BLACK
6
CONTINUOUS
10
106.206
20
-53.6623
11
106.207
21
-53.6606
0
LINE
8
BLACK
6
CONTINUOUS
10
106.207
20
-53.6606
11
106.207
21
-53.6606
0
LINE
8
BLACK
6
CONTINUOUS
10
106.207
20
-53.6606
11
106.207
21
-53.6606
0
LINE
8
BLACK
6
CONTINUOUS
10
106.207
20
-53.6606
11
106.208
21
-53.6578
0
LINE
8
BLACK
6
CONTINUOUS
10
106.208
20
-53.6578
11
106.209
21
-53.6563
0
LINE
8
BLACK
6
CONTINUOUS
10
106.209
20
-53.6563
11
106.209
21
-53.6563
0
LINE
8
BLACK
6
CONTINUOUS
10
106.209
20
-53.6563
11
106.209
21
-53.6562
0
LINE
8
BLACK
6
CONTINUOUS
10
106.209
20
-53.6562
11
106.211
21
-53.6538
0
LINE
8
BLACK
6
CONTINUOUS
10
106.211
20
-53.6538
11
106.212
21
-53.6525
0
LINE
8
BLACK
6
CONTINUOUS
10
106.212
20
-53.6525
11
106.212
21
-53.6524
0
LINE
8
BLACK
6
CONTINUOUS
10
106.212
20
-53.6524
11
106.212
21
-53.6524
0
LINE
8
BLACK
6
CONTINUOUS
10
106.212
20
-53.6524
11
106.215
21
-53.6505
0
LINE
8
BLACK
6
CONTINUOUS
10
106.215
20
-53.6505
11
106.216
21
-53.6493
0
LINE
8
BLACK
6
CONTINUOUS
10
106.216
20
-53.6493
11
106.216
21
-53.6493
0
LINE
8
BLACK
6
CONTINUOUS
10
106.216
20
-53.6493
11
106.216
21
-53.6493
0
LINE
8
BLACK
6
CONTINUOUS
10
106.216
20
-53.6493
11
106.219
21
-53.6478
0
LINE
8
BLACK
6
CONTINUOUS
10
106.219
20
-53.6478
11
106.22
21
-53.647
0
LINE
8
BLACK
6
CONTINUOUS
10
106.22
20
-53.647
11
106.22
21
-53.647
0
LINE
8
BLACK
6
CONTINUOUS
10
106.22
20
-53.647
11
106.22
21
-53.647
0
LINE
8
BLACK
6
CONTINUOUS
10
106.22
20
-53.647
11
106.223
21
-53.6462
0
LINE
8
BLACK
6
CONTINUOUS
10
106.223
20
-53.6462
11
106.225
21
-53.6456
0
LINE
8
BLACK
6
CONTINUOUS
10
106.225
20
-53.6456
11
106.225
21
-53.6456
0
LINE
8
BLACK
6
CONTINUOUS
10
106.225
20
-53.6456
11
106.225
21
-53.6456
0
LINE
8
BLACK
6
CONTINUOUS
10
106.225
20
-53.6456
11
106.228
21
-53.6452
0
LINE
8
BLACK
6
CONTINUOUS
10
106.228
20
-53.6452
11
106.23
21
-53.6451
0
LINE
8
BLACK
6
CONTINUOUS
10
106.23
20
-53.6451
11
106.231
21
-53.6452
0
LINE
8
BLACK
6
CONTINUOUS
10
106.231
20
-53.6452
11
221.591
21
-53.6452
0
LINE
8
BLACK
6
CONTINUOUS
10
221.591
20
-53.6452
11
221.592
21
-53.6453
0
LINE
8
BLACK
6
CONTINUOUS
10
221.592
20
-53.6453
11
221.592
21
-53.6453
0
LINE
8
BLACK
6
CONTINUOUS
10
221.592
20
-53.6453
11
222.214
21
-53.7063
0
LINE
8
BLACK
6
CONTINUOUS
10
222.214
20
-53.7063
11
222.214
21
-53.7063
0
LINE
8
BLACK
6
CONTINUOUS
10
222.214
20
-53.7063
11
222.216
21
-53.7068
0
LINE
8
BLACK
6
CONTINUOUS
10
222.216
20
-53.7068
11
222.218
21
-53.7072
0
LINE
8
BLACK
6
CONTINUOUS
10
222.218
20
-53.7072
11
222.816
21
-53.8877
0
LINE
8
BLACK
6
CONTINUOUS
10
222.816
20
-53.8877
11
222.817
21
-53.8879
0
LINE
8
BLACK
6
CONTINUOUS
10
222.817
20
-53.8879
11
222.819
21
-53.8888
0
LINE
8
BLACK
6
CONTINUOUS
10
222.819
20
-53.8888
11
222.821
21
-53.8896
0
LINE
8
BLACK
6
CONTINUOUS
10
222.821
20
-53.8896
11
223.372
21
-54.1828
0
LINE
8
BLACK
6
CONTINUOUS
10
223.372
20
-54.1828
11
223.373
21
-54.183
0
LINE
8
BLACK
6
CONTINUOUS
10
223.373
20
-54.183
11
223.375
21
-54.1843
0
LINE
8
BLACK
6
CONTINUOUS
10
223.375
20
-54.1843
11
223.376
21
-54.1855
0
LINE
8
BLACK
6
CONTINUOUS
10
223.376
20
-54.1855
11
223.861
21
-54.5803
0
LINE
8
BLACK
6
CONTINUOUS
10
223.861
20
-54.5803
11
223.861
21
-54.5803
0
LINE
8
BLACK
6
CONTINUOUS
10
223.861
20
-54.5803
11
223.861
21
-54.5803
0
LINE
8
BLACK
6
CONTINUOUS
10
223.861
20
-54.5803
11
223.861
21
-54.5805
0
LINE
8
BLACK
6
CONTINUOUS
10
223.861
20
-54.5805
11
223.862
21
-54.5821
0
LINE
8
BLACK
6
CONTINUOUS
10
223.862
20
-54.5821
11
223.864
21
-54.5838
0
LINE
8
BLACK
6
CONTINUOUS
10
223.864
20
-54.5838
11
224.262
21
-55.065
0
LINE
8
BLACK
6
CONTINUOUS
10
224.262
20
-55.065
11
224.262
21
-55.065
0
LINE
8
BLACK
6
CONTINUOUS
10
224.262
20
-55.065
11
224.262
21
-55.065
0
LINE
8
BLACK
6
CONTINUOUS
10
224.262
20
-55.065
11
224.262
21
-55.0653
0
LINE
8
BLACK
6
CONTINUOUS
10
224.262
20
-55.0653
11
224.264
21
-55.0672
0
LINE
8
BLACK
6
CONTINUOUS
10
224.264
20
-55.0672
11
224.265
21
-55.0691
0
LINE
8
BLACK
6
CONTINUOUS
10
224.265
20
-55.0691
11
224.562
21
-55.6185
0
LINE
8
BLACK
6
CONTINUOUS
10
224.562
20
-55.6185
11
224.562
21
-55.6185
0
LINE
8
BLACK
6
CONTINUOUS
10
224.562
20
-55.6185
11
224.562
21
-55.6185
0
LINE
8
BLACK
6
CONTINUOUS
10
224.562
20
-55.6185
11
224.562
21
-55.6188
0
LINE
8
BLACK
6
CONTINUOUS
10
224.562
20
-55.6188
11
224.563
21
-55.6209
0
LINE
8
BLACK
6
CONTINUOUS
10
224.563
20
-55.6209
11
224.564
21
-55.623
0
LINE
8
BLACK
6
CONTINUOUS
10
224.564
20
-55.623
11
224.749
21
-56.2197
0
LINE
8
BLACK
6
CONTINUOUS
10
224.749
20
-56.2197
11
224.749
21
-56.22
0
LINE
8
BLACK
6
CONTINUOUS
10
224.749
20
-56.22
11
224.749
21
-56.2223
0
LINE
8
BLACK
6
CONTINUOUS
10
224.749
20
-56.2223
11
224.749
21
-56.2245
0
LINE
8
BLACK
6
CONTINUOUS
10
224.749
20
-56.2245
11
224.815
21
-56.8456
0
LINE
8
BLACK
6
CONTINUOUS
10
224.815
20
-56.8456
11
224.815
21
-56.846
0
LINE
8
BLACK
6
CONTINUOUS
10
224.815
20
-56.846
11
224.815
21
-56.8471
0
LINE
8
BLACK
6
CONTINUOUS
10
224.815
20
-56.8471
11
224.815
21
-56.8482
0
LINE
8
BLACK
6
CONTINUOUS
10
224.815
20
-56.8482
11
224.815
21
-56.8694
0
LINE
8
BLACK
6
CONTINUOUS
10
224.815
20
-56.8694
11
224.815
21
-56.8694
0
LINE
8
BLACK
6
CONTINUOUS
10
224.815
20
-56.8694
11
224.815
21
-56.8702
0
LINE
8
BLACK
6
CONTINUOUS
10
224.815
20
-56.8702
11
224.815
21
-56.8705
0
LINE
8
BLACK
6
CONTINUOUS
10
224.815
20
-56.8705
11
224.815
21
-56.8709
0
LINE
8
BLACK
6
CONTINUOUS
10
224.815
20
-56.8709
11
224.817
21
-146.046
0
LINE
8
BLACK
6
CONTINUOUS
10
224.817
20
-146.046
11
224.817
21
-146.056
0
LINE
8
BLACK
6
CONTINUOUS
10
224.817
20
-146.056
11
224.88
21
-146.674
0
LINE
8
BLACK
6
CONTINUOUS
10
224.88
20
-146.674
11
225.061
21
-147.267
0
LINE
8
BLACK
6
CONTINUOUS
10
225.061
20
-147.267
11
225.354
21
-147.814
0
LINE
8
BLACK
6
CONTINUOUS
10
225.354
20
-147.814
11
225.748
21
-148.294
0
LINE
8
BLACK
6
CONTINUOUS
10
225.748
20
-148.294
11
258.514
21
-181.06
0
LINE
8
BLACK
6
CONTINUOUS
10
258.514
20
-181.06
11
258.515
21
-181.061
0
LINE
8
BLACK
6
CONTINUOUS
10
258.515
20
-181.061
11
258.515
21
-181.061
0
LINE
8
BLACK
6
CONTINUOUS
10
258.515
20
-181.061
11
258.912
21
-181.544
0
LINE
8
BLACK
6
CONTINUOUS
10
258.912
20
-181.544
11
258.912
21
-181.544
0
LINE
8
BLACK
6
CONTINUOUS
10
258.912
20
-181.544
11
258.914
21
-181.546
0
LINE
8
BLACK
6
CONTINUOUS
10
258.914
20
-181.546
11
258.915
21
-181.548
0
LINE
8
BLACK
6
CONTINUOUS
10
258.915
20
-181.548
11
259.21
21
-182.099
0
LINE
8
BLACK
6
CONTINUOUS
10
259.21
20
-182.099
11
259.21
21
-182.099
0
LINE
8
BLACK
6
CONTINUOUS
10
259.21
20
-182.099
11
259.21
21
-182.099
0
LINE
8
BLACK
6
CONTINUOUS
10
259.21
20
-182.099
11
259.21
21
-182.099
0
LINE
8
BLACK
6
CONTINUOUS
10
259.21
20
-182.099
11
259.211
21
-182.102
0
LINE
8
BLACK
6
CONTINUOUS
10
259.211
20
-182.102
11
259.212
21
-182.104
0
LINE
8
BLACK
6
CONTINUOUS
10
259.212
20
-182.104
11
259.395
21
-182.702
0
LINE
8
BLACK
6
CONTINUOUS
10
259.395
20
-182.702
11
259.395
21
-182.702
0
LINE
8
BLACK
6
CONTINUOUS
10
259.395
20
-182.702
11
259.396
21
-182.704
0
LINE
8
BLACK
6
CONTINUOUS
10
259.396
20
-182.704
11
259.396
21
-182.706
0
LINE
8
BLACK
6
CONTINUOUS
10
259.396
20
-182.706
11
259.459
21
-183.329
0
LINE
8
BLACK
6
CONTINUOUS
10
259.459
20
-183.329
11
259.459
21
-183.329
0
LINE
8
BLACK
6
CONTINUOUS
10
259.459
20
-183.329
11
259.459
21
-183.331
0
LINE
8
BLACK
6
CONTINUOUS
10
259.459
20
-183.331
11
259.459
21
-183.333
0
LINE
8
BLACK
6
CONTINUOUS
10
259.459
20
-183.333
11
259.4
21
-183.956
0
LINE
8
BLACK
6
CONTINUOUS
10
259.4
20
-183.956
11
259.4
21
-183.956
0
LINE
8
BLACK
6
CONTINUOUS
10
259.4
20
-183.956
11
259.4
21
-183.959
0
LINE
8
BLACK
6
CONTINUOUS
10
259.4
20
-183.959
11
259.399
21
-183.961
0
LINE
8
BLACK
6
CONTINUOUS
10
259.399
20
-183.961
11
259.221
21
-184.56
0
LINE
8
BLACK
6
CONTINUOUS
10
259.221
20
-184.56
11
259.221
21
-184.56
0
LINE
8
BLACK
6
CONTINUOUS
10
259.221
20
-184.56
11
259.22
21
-184.563
0
LINE
8
BLACK
6
CONTINUOUS
10
259.22
20
-184.563
11
259.219
21
-184.565
0
LINE
8
BLACK
6
CONTINUOUS
10
259.219
20
-184.565
11
258.927
21
-185.118
0
LINE
8
BLACK
6
CONTINUOUS
10
258.927
20
-185.118
11
258.927
21
-185.118
0
LINE
8
BLACK
6
CONTINUOUS
10
258.927
20
-185.118
11
258.926
21
-185.12
0
LINE
8
BLACK
6
CONTINUOUS
10
258.926
20
-185.12
11
258.925
21
-185.122
0
LINE
8
BLACK
6
CONTINUOUS
10
258.925
20
-185.122
11
258.531
21
-185.608
0
LINE
8
BLACK
6
CONTINUOUS
10
258.531
20
-185.608
11
258.531
21
-185.608
0
LINE
8
BLACK
6
CONTINUOUS
10
258.531
20
-185.608
11
258.53
21
-185.609
0
LINE
8
BLACK
6
CONTINUOUS
10
258.53
20
-185.609
11
258.529
21
-185.61
0
LINE
8
BLACK
6
CONTINUOUS
10
258.529
20
-185.61
11
258.514
21
-185.625
0
LINE
8
BLACK
6
CONTINUOUS
10
258.514
20
-185.625
11
258.514
21
-185.625
0
LINE
8
BLACK
6
CONTINUOUS
10
258.514
20
-185.625
11
258.514
21
-185.626
0
LINE
8
BLACK
6
CONTINUOUS
10
258.514
20
-185.626
11
258.513
21
-185.626
0
LINE
8
BLACK
6
CONTINUOUS
10
258.513
20
-185.626
11
218.924
21
-225.19
0
LINE
8
BLACK
6
CONTINUOUS
10
218.924
20
-225.19
11
218.923
21
-225.19
0
LINE
8
BLACK
6
CONTINUOUS
10
218.923
20
-225.19
11
218.923
21
-225.19
0
LINE
8
BLACK
6
CONTINUOUS
10
218.923
20
-225.19
11
218.44
21
-225.587
0
LINE
8
BLACK
6
CONTINUOUS
10
218.44
20
-225.587
11
218.44
21
-225.587
0
LINE
8
BLACK
6
CONTINUOUS
10
218.44
20
-225.587
11
218.44
21
-225.587
0
LINE
8
BLACK
6
CONTINUOUS
10
218.44
20
-225.587
11
218.44
21
-225.587
0
LINE
8
BLACK
6
CONTINUOUS
10
218.44
20
-225.587
11
218.438
21
-225.589
0
LINE
8
BLACK
6
CONTINUOUS
10
218.438
20
-225.589
11
218.436
21
-225.59
0
LINE
8
BLACK
6
CONTINUOUS
10
218.436
20
-225.59
11
217.885
21
-225.885
0
LINE
8
BLACK
6
CONTINUOUS
10
217.885
20
-225.885
11
217.885
21
-225.886
0
LINE
8
BLACK
6
CONTINUOUS
10
217.885
20
-225.886
11
217.882
21
-225.886
0
LINE
8
BLACK
6
CONTINUOUS
10
217.882
20
-225.886
11
217.88
21
-225.887
0
LINE
8
BLACK
6
CONTINUOUS
10
217.88
20
-225.887
11
217.282
21
-226.07
0
LINE
8
BLACK
6
CONTINUOUS
10
217.282
20
-226.07
11
217.282
21
-226.07
0
LINE
8
BLACK
6
CONTINUOUS
10
217.282
20
-226.07
11
217.28
21
-226.071
0
LINE
8
BLACK
6
CONTINUOUS
10
217.28
20
-226.071
11
217.278
21
-226.071
0
LINE
8
BLACK
6
CONTINUOUS
10
217.278
20
-226.071
11
216.655
21
-226.134
0
LINE
8
BLACK
6
CONTINUOUS
10
216.655
20
-226.134
11
216.655
21
-226.134
0
LINE
8
BLACK
6
CONTINUOUS
10
216.655
20
-226.134
11
216.653
21
-226.134
0
LINE
8
BLACK
6
CONTINUOUS
10
216.653
20
-226.134
11
216.651
21
-226.134
0
LINE
8
BLACK
6
CONTINUOUS
10
216.651
20
-226.134
11
216.028
21
-226.076
0
LINE
8
BLACK
6
CONTINUOUS
10
216.028
20
-226.076
11
216.028
21
-226.075
0
LINE
8
BLACK
6
CONTINUOUS
10
216.028
20
-226.075
11
216.025
21
-226.075
0
LINE
8
BLACK
6
CONTINUOUS
10
216.025
20
-226.075
11
216.023
21
-226.075
0
LINE
8
BLACK
6
CONTINUOUS
10
216.023
20
-226.075
11
215.424
21
-225.896
0
LINE
8
BLACK
6
CONTINUOUS
10
215.424
20
-225.896
11
215.424
21
-225.896
0
LINE
8
BLACK
6
CONTINUOUS
10
215.424
20
-225.896
11
215.421
21
-225.895
0
LINE
8
BLACK
6
CONTINUOUS
10
215.421
20
-225.895
11
215.419
21
-225.894
0
LINE
8
BLACK
6
CONTINUOUS
10
215.419
20
-225.894
11
214.866
21
-225.602
0
LINE
8
BLACK
6
CONTINUOUS
10
214.866
20
-225.602
11
214.866
21
-225.602
0
LINE
8
BLACK
6
CONTINUOUS
10
214.866
20
-225.602
11
214.864
21
-225.601
0
LINE
8
BLACK
6
CONTINUOUS
10
214.864
20
-225.601
11
214.862
21
-225.6
0
LINE
8
BLACK
6
CONTINUOUS
10
214.862
20
-225.6
11
214.376
21
-225.206
0
LINE
8
BLACK
6
CONTINUOUS
10
214.376
20
-225.206
11
214.376
21
-225.206
0
LINE
8
BLACK
6
CONTINUOUS
10
214.376
20
-225.206
11
214.375
21
-225.205
0
LINE
8
BLACK
6
CONTINUOUS
10
214.375
20
-225.205
11
214.374
21
-225.205
0
LINE
8
BLACK
6
CONTINUOUS
10
214.374
20
-225.205
11
214.359
21
-225.19
0
LINE
8
BLACK
6
CONTINUOUS
10
214.359
20
-225.19
11
214.359
21
-225.19
0
LINE
8
BLACK
6
CONTINUOUS
10
214.359
20
-225.19
11
167.293
21
-178.119
0
LINE
8
BLACK
6
CONTINUOUS
10
167.293
20
-178.119
11
167.293
21
-178.119
0
LINE
8
BLACK
6
CONTINUOUS
10
167.293
20
-178.119
11
167.286
21
-178.112
0
LINE
8
BLACK
6
CONTINUOUS
10
167.286
20
-178.112
11
166.805
21
-177.72
0
LINE
8
BLACK
6
CONTINUOUS
10
166.805
20
-177.72
11
166.258
21
-177.43
0
LINE
8
BLACK
6
CONTINUOUS
10
166.258
20
-177.43
11
165.665
21
-177.251
0
LINE
8
BLACK
6
CONTINUOUS
10
165.665
20
-177.251
11
165.048
21
-177.19
0
LINE
8
BLACK
6
CONTINUOUS
10
165.048
20
-177.19
11
80.0342
21
-177.19
0
LINE
8
BLACK
6
CONTINUOUS
10
80.0342
20
-177.19
11
80.033
21
-177.19
0
LINE
8
BLACK
6
CONTINUOUS
10
80.033
20
-177.19
11
80.033
21
-177.19
0
LINE
8
BLACK
6
CONTINUOUS
10
80.033
20
-177.19
11
79.4113
21
-177.129
0
LINE
8
BLACK
6
CONTINUOUS
10
79.4113
20
-177.129
11
79.411
21
-177.129
0
LINE
8
BLACK
6
CONTINUOUS
10
79.411
20
-177.129
11
79.4087
21
-177.128
0
LINE
8
BLACK
6
CONTINUOUS
10
79.4087
20
-177.128
11
79.4065
21
-177.128
0
LINE
8
BLACK
6
CONTINUOUS
10
79.4065
20
-177.128
11
78.8086
21
-176.947
0
LINE
8
BLACK
6
CONTINUOUS
10
78.8086
20
-176.947
11
78.8083
21
-176.947
0
LINE
8
BLACK
6
CONTINUOUS
10
78.8083
20
-176.947
11
78.8062
21
-176.946
0
LINE
8
BLACK
6
CONTINUOUS
10
78.8062
20
-176.946
11
78.8041
21
-176.946
0
LINE
8
BLACK
6
CONTINUOUS
10
78.8041
20
-176.946
11
78.2526
21
-176.652
0
LINE
8
BLACK
6
CONTINUOUS
10
78.2526
20
-176.652
11
78.2523
21
-176.652
0
LINE
8
BLACK
6
CONTINUOUS
10
78.2523
20
-176.652
11
78.2504
21
-176.651
0
LINE
8
BLACK
6
CONTINUOUS
10
78.2504
20
-176.651
11
78.2485
21
-176.65
0
LINE
8
BLACK
6
CONTINUOUS
10
78.2485
20
-176.65
11
77.7645
21
-176.255
0
LINE
8
BLACK
6
CONTINUOUS
10
77.7645
20
-176.255
11
77.7642
21
-176.255
0
LINE
8
BLACK
6
CONTINUOUS
10
77.7642
20
-176.255
11
77.7626
21
-176.253
0
LINE
8
BLACK
6
CONTINUOUS
10
77.7626
20
-176.253
11
77.761
21
-176.251
0
LINE
8
BLACK
6
CONTINUOUS
10
77.761
20
-176.251
11
77.3629
21
-175.77
0
LINE
8
BLACK
6
CONTINUOUS
10
77.3629
20
-175.77
11
77.3627
21
-175.77
0
LINE
8
BLACK
6
CONTINUOUS
10
77.3627
20
-175.77
11
77.3614
21
-175.768
0
LINE
8
BLACK
6
CONTINUOUS
10
77.3614
20
-175.768
11
77.3602
21
-175.766
0
LINE
8
BLACK
6
CONTINUOUS
10
77.3602
20
-175.766
11
77.0631
21
-175.217
0
LINE
8
BLACK
6
CONTINUOUS
10
77.0631
20
-175.217
11
77.0629
21
-175.216
0
LINE
8
BLACK
6
CONTINUOUS
10
77.0629
20
-175.216
11
77.0621
21
-175.214
0
LINE
8
BLACK
6
CONTINUOUS
10
77.0621
20
-175.214
11
77.0612
21
-175.212
0
LINE
8
BLACK
6
CONTINUOUS
10
77.0612
20
-175.212
11
76.8765
21
-174.616
0
LINE
8
BLACK
6
CONTINUOUS
10
76.8765
20
-174.616
11
76.8764
21
-174.615
0
LINE
8
BLACK
6
CONTINUOUS
10
76.8764
20
-174.615
11
76.876
21
-174.613
0
LINE
8
BLACK
6
CONTINUOUS
10
76.876
20
-174.613
11
76.8755
21
-174.611
0
LINE
8
BLACK
6
CONTINUOUS
10
76.8755
20
-174.611
11
76.8102
21
-173.99
0
LINE
8
BLACK
6
CONTINUOUS
10
76.8102
20
-173.99
11
76.8102
21
-173.989
0
LINE
8
BLACK
6
CONTINUOUS
10
76.8102
20
-173.989
11
76.8102
21
-173.988
0
LINE
8
BLACK
6
CONTINUOUS
10
76.8102
20
-173.988
11
76.8101
21
-173.987
0
LINE
8
BLACK
6
CONTINUOUS
10
76.8101
20
-173.987
11
76.81
21
-173.966
0
LINE
8
BLACK
6
CONTINUOUS
10
76.81
20
-173.966
11
76.81
21
-173.966
0
LINE
8
BLACK
6
CONTINUOUS
10
76.81
20
-173.966
11
76.81
21
-56.8694
0
LINE
8
BLACK
6
CONTINUOUS
10
76.81
20
-56.8694
11
76.8101
21
-56.8682
0
LINE
8
BLACK
6
CONTINUOUS
10
76.8101
20
-56.8682
11
76.8101
21
-56.8682
0
LINE
8
BLACK
6
CONTINUOUS
10
76.8101
20
-56.8682
11
76.8711
21
-56.2465
0
LINE
8
BLACK
6
CONTINUOUS
10
76.8711
20
-56.2465
11
76.8711
21
-56.2462
0
LINE
8
BLACK
6
CONTINUOUS
10
76.8711
20
-56.2462
11
76.8716
21
-56.2439
0
LINE
8
BLACK
6
CONTINUOUS
10
76.8716
20
-56.2439
11
76.872
21
-56.2417
0
LINE
8
BLACK
6
CONTINUOUS
10
76.872
20
-56.2417
11
77.0525
21
-55.6438
0
LINE
8
BLACK
6
CONTINUOUS
10
77.0525
20
-55.6438
11
77.0527
21
-55.6435
0
LINE
8
BLACK
6
CONTINUOUS
10
77.0527
20
-55.6435
11
77.0536
21
-55.6414
0
LINE
8
BLACK
6
CONTINUOUS
10
77.0536
20
-55.6414
11
77.0544
21
-55.6393
0
LINE
8
BLACK
6
CONTINUOUS
10
77.0544
20
-55.6393
11
77.3476
21
-55.0878
0
LINE
8
BLACK
6
CONTINUOUS
10
77.3476
20
-55.0878
11
77.3478
21
-55.0875
0
LINE
8
BLACK
6
CONTINUOUS
10
77.3478
20
-55.0875
11
77.3491
21
-55.0856
0
LINE
8
BLACK
6
CONTINUOUS
10
77.3491
20
-55.0856
11
77.3503
21
-55.0837
0
LINE
8
BLACK
6
CONTINUOUS
10
77.3503
20
-55.0837
11
77.7451
21
-54.5997
0
LINE
8
BLACK
6
CONTINUOUS
10
77.7451
20
-54.5997
11
77.7451
21
-54.5997
0
LINE
8
BLACK
6
CONTINUOUS
10
77.7451
20
-54.5997
11
77.7451
21
-54.5997
0
LINE
8
BLACK
6
CONTINUOUS
10
77.7451
20
-54.5997
11
77.7453
21
-54.5994
0
LINE
8
BLACK
6
CONTINUOUS
10
77.7453
20
-54.5994
11
77.7469
21
-54.5978
0
LINE
8
BLACK
6
CONTINUOUS
10
77.7469
20
-54.5978
11
77.7486
21
-54.5962
0
LINE
8
BLACK
6
CONTINUOUS
10
77.7486
20
-54.5962
11
78.2298
21
-54.1981
0
LINE
8
BLACK
6
CONTINUOUS
10
78.2298
20
-54.1981
11
78.2298
21
-54.1981
0
LINE
8
BLACK
6
CONTINUOUS
10
78.2298
20
-54.1981
11
78.2298
21
-54.1981
0
LINE
8
BLACK
6
CONTINUOUS
10
78.2298
20
-54.1981
11
78.2301
21
-54.1979
0
LINE
8
BLACK
6
CONTINUOUS
10
78.2301
20
-54.1979
11
78.232
21
-54.1966
0
LINE
8
BLACK
6
CONTINUOUS
10
78.232
20
-54.1966
11
78.2339
21
-54.1954
0
LINE
8
BLACK
6
CONTINUOUS
10
78.2339
20
-54.1954
11
78.7833
21
-53.8983
0
LINE
8
BLACK
6
CONTINUOUS
10
78.7833
20
-53.8983
11
78.7833
21
-53.8983
0
LINE
8
BLACK
6
CONTINUOUS
10
78.7833
20
-53.8983
11
78.7833
21
-53.8983
0
LINE
8
BLACK
6
CONTINUOUS
10
78.7833
20
-53.8983
11
78.7836
21
-53.8981
0
LINE
8
BLACK
6
CONTINUOUS
10
78.7836
20
-53.8981
11
78.7857
21
-53.8973
0
LINE
8
BLACK
6
CONTINUOUS
10
78.7857
20
-53.8973
11
78.7878
21
-53.8964
0
LINE
8
BLACK
6
CONTINUOUS
10
78.7878
20
-53.8964
11
79.3845
21
-53.7117
0
LINE
8
BLACK
6
CONTINUOUS
10
79.3845
20
-53.7117
11
79.3845
21
-53.7117
0
LINE
8
BLACK
6
CONTINUOUS
10
79.3845
20
-53.7117
11
79.3848
21
-53.7116
0
LINE
8
BLACK
6
CONTINUOUS
10
79.3848
20
-53.7116
11
79.3871
21
-53.7112
0
LINE
8
BLACK
6
CONTINUOUS
10
79.3871
20
-53.7112
11
79.3893
21
-53.7107
0
LINE
8
BLACK
6
CONTINUOUS
10
79.3893
20
-53.7107
11
80.0104
21
-53.6454
0
LINE
8
BLACK
6
CONTINUOUS
10
80.0104
20
-53.6454
11
80.0108
21
-53.6454
0
LINE
8
BLACK
6
CONTINUOUS
10
80.0108
20
-53.6454
11
80.0119
21
-53.6454
0
LINE
8
BLACK
6
CONTINUOUS
10
80.0119
20
-53.6454
11
80.013
21
-53.6453
0
LINE
8
BLACK
6
CONTINUOUS
10
80.013
20
-53.6453
11
80.0341
21
-53.6452
0
LINE
8
BLACK
6
CONTINUOUS
10
80.0341
20
-53.6452
11
80.0342
21
-53.6452
0
LINE
8
BLACK
6
CONTINUOUS
10
80.0342
20
-53.6452
11
96.8262
21
-53.6452
0
LINE
8
BLACK
6
CONTINUOUS
10
96.8262
20
-53.6452
11
96.8274
21
-53.6451
0
LINE
8
BLACK
6
CONTINUOUS
10
96.8274
20
-53.6451
11
96.83
21
-53.6453
0
LINE
8
BLACK
6
CONTINUOUS
10
96.83
20
-53.6453
11
96.8323
21
-53.6456
0
LINE
8
BLACK
6
CONTINUOUS
10
96.8323
20
-53.6456
11
96.8323
21
-53.6456
0
LINE
8
BLACK
6
CONTINUOUS
10
96.8323
20
-53.6456
11
96.8323
21
-53.6456
0
LINE
8
BLACK
6
CONTINUOUS
10
96.8323
20
-53.6456
11
96.8342
21
-53.6461
0
LINE
8
BLACK
6
CONTINUOUS
10
96.8342
20
-53.6461
11
96.837
21
-53.647
0
LINE
8
BLACK
6
CONTINUOUS
10
96.837
20
-53.647
11
96.837
21
-53.647
0
LINE
8
BLACK
6
CONTINUOUS
10
96.837
20
-53.647
11
96.837
21
-53.647
0
LINE
8
BLACK
6
CONTINUOUS
10
96.837
20
-53.647
11
96.837
21
-53.647
0
LINE
8
BLACK
6
CONTINUOUS
10
96.837
20
-53.647
11
96.8414
21
-53.6493
0
LINE
8
BLACK
6
CONTINUOUS
10
96.8414
20
-53.6493
11
96.8414
21
-53.6493
0
LINE
8
BLACK
6
CONTINUOUS
10
96.8414
20
-53.6493
11
96.8414
21
-53.6493
0
LINE
8
BLACK
6
CONTINUOUS
10
96.8414
20
-53.6493
11
96.8416
21
-53.6495
0
LINE
8
BLACK
6
CONTINUOUS
10
96.8416
20
-53.6495
11
96.8452
21
-53.6524
0
LINE
8
BLACK
6
CONTINUOUS
10
96.8452
20
-53.6524
11
96.8452
21
-53.6524
0
LINE
8
BLACK
6
CONTINUOUS
10
96.8452
20
-53.6524
11
96.8464
21
-53.6539
0
LINE
8
BLACK
6
CONTINUOUS
10
105.179
20
-59.5117
11
105.179
21
-59.5117
0
LINE
8
BLACK
6
CONTINUOUS
10
105.179
20
-59.5117
11
105.13
21
-59.5068
0
LINE
8
BLACK
6
CONTINUOUS
10
105.13
20
-59.5068
11
105.129
21
-59.5068
0
LINE
8
BLACK
6
CONTINUOUS
10
105.129
20
-59.5068
11
105.127
21
-59.5063
0
LINE
8
BLACK
6
CONTINUOUS
10
105.127
20
-59.5063
11
105.125
21
-59.5059
0
LINE
8
BLACK
6
CONTINUOUS
10
105.125
20
-59.5059
11
105.077
21
-59.4916
0
LINE
8
BLACK
6
CONTINUOUS
10
105.077
20
-59.4916
11
105.077
21
-59.4915
0
LINE
8
BLACK
6
CONTINUOUS
10
105.077
20
-59.4915
11
105.075
21
-59.4906
0
LINE
8
BLACK
6
CONTINUOUS
10
105.075
20
-59.4906
11
105.073
21
-59.4897
0
LINE
8
BLACK
6
CONTINUOUS
10
105.073
20
-59.4897
11
105.029
21
-59.4664
0
LINE
8
BLACK
6
CONTINUOUS
10
105.029
20
-59.4664
11
105.029
21
-59.4663
0
LINE
8
BLACK
6
CONTINUOUS
10
105.029
20
-59.4663
11
105.027
21
-59.465
0
LINE
8
BLACK
6
CONTINUOUS
10
105.027
20
-59.465
11
105.025
21
-59.4637
0
LINE
8
BLACK
6
CONTINUOUS
10
105.025
20
-59.4637
11
104.987
21
-59.4324
0
LINE
8
BLACK
6
CONTINUOUS
10
104.987
20
-59.4324
11
104.986
21
-59.4322
0
LINE
8
BLACK
6
CONTINUOUS
10
104.986
20
-59.4322
11
104.985
21
-59.4305
0
LINE
8
BLACK
6
CONTINUOUS
10
104.985
20
-59.4305
11
104.983
21
-59.429
0
LINE
8
BLACK
6
CONTINUOUS
10
104.983
20
-59.429
11
104.952
21
-59.3908
0
LINE
8
BLACK
6
CONTINUOUS
10
104.952
20
-59.3908
11
104.951
21
-59.3905
0
LINE
8
BLACK
6
CONTINUOUS
10
104.951
20
-59.3905
11
104.95
21
-59.3886
0
LINE
8
BLACK
6
CONTINUOUS
10
104.95
20
-59.3886
11
104.949
21
-59.3867
0
LINE
8
BLACK
6
CONTINUOUS
10
104.949
20
-59.3867
11
104.925
21
-59.3431
0
LINE
8
BLACK
6
CONTINUOUS
10
104.925
20
-59.3431
11
104.925
21
-59.3431
0
LINE
8
BLACK
6
CONTINUOUS
10
104.925
20
-59.3431
11
104.925
21
-59.3431
0
LINE
8
BLACK
6
CONTINUOUS
10
104.925
20
-59.3431
11
104.925
21
-59.3428
0
LINE
8
BLACK
6
CONTINUOUS
10
104.925
20
-59.3428
11
104.924
21
-59.3407
0
LINE
8
BLACK
6
CONTINUOUS
10
104.924
20
-59.3407
11
104.923
21
-59.3386
0
LINE
8
BLACK
6
CONTINUOUS
10
104.923
20
-59.3386
11
104.909
21
-59.2913
0
LINE
8
BLACK
6
CONTINUOUS
10
104.909
20
-59.2913
11
104.909
21
-59.2909
0
LINE
8
BLACK
6
CONTINUOUS
10
104.909
20
-59.2909
11
104.908
21
-59.2887
0
LINE
8
BLACK
6
CONTINUOUS
10
104.908
20
-59.2887
11
104.908
21
-59.2865
0
LINE
8
BLACK
6
CONTINUOUS
10
104.908
20
-59.2865
11
104.903
21
-59.2372
0
LINE
8
BLACK
6
CONTINUOUS
10
104.903
20
-59.2372
11
104.903
21
-59.2368
0
LINE
8
BLACK
6
CONTINUOUS
10
104.903
20
-59.2368
11
104.903
21
-59.2357
0
LINE
8
BLACK
6
CONTINUOUS
10
104.903
20
-59.2357
11
104.902
21
-59.2347
0
LINE
8
BLACK
6
CONTINUOUS
10
104.902
20
-59.2347
11
104.902
21
-59.234
0
LINE
8
BLACK
6
CONTINUOUS
10
104.902
20
-59.234
11
104.902
21
-59.234
0
LINE
8
BLACK
6
CONTINUOUS
10
104.902
20
-59.234
11
104.902
21
-59.2332
0
LINE
8
BLACK
6
CONTINUOUS
10
104.902
20
-59.2332
11
104.902
21
-59.2329
0
LINE
8
BLACK
6
CONTINUOUS
10
104.902
20
-59.2329
11
104.902
21
-59.2325
0
LINE
8
BLACK
6
CONTINUOUS
10
104.902
20
-59.2325
11
104.902
21
-54.7112
0
LINE
8
BLACK
6
CONTINUOUS
10
104.902
20
-54.7112
11
98.1452
21
-54.7112
0
LINE
8
BLACK
6
CONTINUOUS
10
98.1452
20
-54.7112
11
98.1452
21
-59.234
0
LINE
8
BLACK
6
CONTINUOUS
10
98.1452
20
-59.234
11
98.1451
21
-59.2352
0
LINE
8
BLACK
6
CONTINUOUS
10
98.1451
20
-59.2352
11
98.1451
21
-59.2352
0
LINE
8
BLACK
6
CONTINUOUS
10
98.1451
20
-59.2352
11
98.1402
21
-59.2846
0
LINE
8
BLACK
6
CONTINUOUS
10
98.1402
20
-59.2846
11
98.1402
21
-59.2849
0
LINE
8
BLACK
6
CONTINUOUS
10
98.1402
20
-59.2849
11
98.1397
21
-59.2872
0
LINE
8
BLACK
6
CONTINUOUS
10
98.1397
20
-59.2872
11
98.1393
21
-59.2894
0
LINE
8
BLACK
6
CONTINUOUS
10
98.1393
20
-59.2894
11
98.125
21
-59.3368
0
LINE
8
BLACK
6
CONTINUOUS
10
98.125
20
-59.3368
11
98.1249
21
-59.3372
0
LINE
8
BLACK
6
CONTINUOUS
10
98.1249
20
-59.3372
11
98.124
21
-59.3392
0
LINE
8
BLACK
6
CONTINUOUS
10
98.124
20
-59.3392
11
98.1231
21
-59.3413
0
LINE
8
BLACK
6
CONTINUOUS
10
98.1231
20
-59.3413
11
98.0998
21
-59.3851
0
LINE
8
BLACK
6
CONTINUOUS
10
98.0998
20
-59.3851
11
98.0997
21
-59.3854
0
LINE
8
BLACK
6
CONTINUOUS
10
98.0997
20
-59.3854
11
98.0984
21
-59.3873
0
LINE
8
BLACK
6
CONTINUOUS
10
98.0984
20
-59.3873
11
98.0971
21
-59.3892
0
LINE
8
BLACK
6
CONTINUOUS
10
98.0971
20
-59.3892
11
98.0658
21
-59.4276
0
LINE
8
BLACK
6
CONTINUOUS
10
98.0658
20
-59.4276
11
98.0656
21
-59.4278
0
LINE
8
BLACK
6
CONTINUOUS
10
98.0656
20
-59.4278
11
98.0639
21
-59.4295
0
LINE
8
BLACK
6
CONTINUOUS
10
98.0639
20
-59.4295
11
98.0624
21
-59.431
0
LINE
8
BLACK
6
CONTINUOUS
10
98.0624
20
-59.431
11
98.0242
21
-59.4626
0
LINE
8
BLACK
6
CONTINUOUS
10
98.0242
20
-59.4626
11
98.0239
21
-59.4629
0
LINE
8
BLACK
6
CONTINUOUS
10
98.0239
20
-59.4629
11
98.022
21
-59.4641
0
LINE
8
BLACK
6
CONTINUOUS
10
98.022
20
-59.4641
11
98.0201
21
-59.4654
0
LINE
8
BLACK
6
CONTINUOUS
10
98.0201
20
-59.4654
11
97.9765
21
-59.4889
0
LINE
8
BLACK
6
CONTINUOUS
10
97.9765
20
-59.4889
11
97.9765
21
-59.4889
0
LINE
8
BLACK
6
CONTINUOUS
10
97.9765
20
-59.4889
11
97.9765
21
-59.4889
0
LINE
8
BLACK
6
CONTINUOUS
10
97.9765
20
-59.4889
11
97.9762
21
-59.4891
0
LINE
8
BLACK
6
CONTINUOUS
10
97.9762
20
-59.4891
11
97.9741
21
-59.49
0
LINE
8
BLACK
6
CONTINUOUS
10
97.9741
20
-59.49
11
97.972
21
-59.4908
0
LINE
8
BLACK
6
CONTINUOUS
10
97.972
20
-59.4908
11
97.9247
21
-59.5055
0
LINE
8
BLACK
6
CONTINUOUS
10
97.9247
20
-59.5055
11
97.9243
21
-59.5056
0
LINE
8
BLACK
6
CONTINUOUS
10
97.9243
20
-59.5056
11
97.9221
21
-59.506
0
LINE
8
BLACK
6
CONTINUOUS
10
97.9221
20
-59.506
11
97.9199
21
-59.5065
0
LINE
8
BLACK
6
CONTINUOUS
10
97.9199
20
-59.5065
11
97.8706
21
-59.5117
0
LINE
8
BLACK
6
CONTINUOUS
10
97.8706
20
-59.5117
11
97.8702
21
-59.5117
0
LINE
8
BLACK
6
CONTINUOUS
10
97.8702
20
-59.5117
11
97.8691
21
-59.5117
0
LINE
8
BLACK
6
CONTINUOUS
10
97.8691
20
-59.5117
11
97.8681
21
-59.5118
0
LINE
8
BLACK
6
CONTINUOUS
10
97.8681
20
-59.5118
11
97.8675
21
-59.5118
0
LINE
8
BLACK
6
CONTINUOUS
10
97.8675
20
-59.5118
11
97.8674
21
-59.5118
0
LINE
8
BLACK
6
CONTINUOUS
10
97.8674
20
-59.5118
11
97.0776
21
-59.5118
0
LINE
8
BLACK
6
CONTINUOUS
10
97.0776
20
-59.5118
11
97.0764
21
-59.5117
0
LINE
8
BLACK
6
CONTINUOUS
10
97.0764
20
-59.5117
11
97.0764
21
-59.5117
0
LINE
8
BLACK
6
CONTINUOUS
10
97.0764
20
-59.5117
11
97.027
21
-59.5068
0
LINE
8
BLACK
6
CONTINUOUS
10
97.027
20
-59.5068
11
97.0267
21
-59.5068
0
LINE
8
BLACK
6
CONTINUOUS
10
97.0267
20
-59.5068
11
97.0244
21
-59.5063
0
LINE
8
BLACK
6
CONTINUOUS
10
97.0244
20
-59.5063
11
97.0222
21
-59.5059
0
LINE
8
BLACK
6
CONTINUOUS
10
97.0222
20
-59.5059
11
96.9748
21
-59.4916
0
LINE
8
BLACK
6
CONTINUOUS
10
96.9748
20
-59.4916
11
96.9744
21
-59.4915
0
LINE
8
BLACK
6
CONTINUOUS
10
96.9744
20
-59.4915
11
96.9724
21
-59.4906
0
LINE
8
BLACK
6
CONTINUOUS
10
96.9724
20
-59.4906
11
96.9703
21
-59.4897
0
LINE
8
BLACK
6
CONTINUOUS
10
96.9703
20
-59.4897
11
96.9265
21
-59.4664
0
LINE
8
BLACK
6
CONTINUOUS
10
96.9265
20
-59.4664
11
96.9262
21
-59.4663
0
LINE
8
BLACK
6
CONTINUOUS
10
96.9262
20
-59.4663
11
96.9243
21
-59.465
0
LINE
8
BLACK
6
CONTINUOUS
10
96.9243
20
-59.465
11
96.9224
21
-59.4637
0
LINE
8
BLACK
6
CONTINUOUS
10
96.9224
20
-59.4637
11
96.884
21
-59.4324
0
LINE
8
BLACK
6
CONTINUOUS
10
96.884
20
-59.4324
11
96.8838
21
-59.4322
0
LINE
8
BLACK
6
CONTINUOUS
10
96.8838
20
-59.4322
11
96.8821
21
-59.4305
0
LINE
8
BLACK
6
CONTINUOUS
10
96.8821
20
-59.4305
11
96.8806
21
-59.429
0
LINE
8
BLACK
6
CONTINUOUS
10
96.8806
20
-59.429
11
96.849
21
-59.3908
0
LINE
8
BLACK
6
CONTINUOUS
10
96.849
20
-59.3908
11
96.8487
21
-59.3905
0
LINE
8
BLACK
6
CONTINUOUS
10
96.8487
20
-59.3905
11
96.8475
21
-59.3886
0
LINE
8
BLACK
6
CONTINUOUS
10
96.8475
20
-59.3886
11
96.8462
21
-59.3867
0
LINE
8
BLACK
6
CONTINUOUS
10
96.8462
20
-59.3867
11
96.8227
21
-59.3431
0
LINE
8
BLACK
6
CONTINUOUS
10
96.8227
20
-59.3431
11
96.8227
21
-59.3431
0
LINE
8
BLACK
6
CONTINUOUS
10
96.8227
20
-59.3431
11
96.8227
21
-59.3431
0
LINE
8
BLACK
6
CONTINUOUS
10
96.8227
20
-59.3431
11
96.8225
21
-59.3428
0
LINE
8
BLACK
6
CONTINUOUS
10
96.8225
20
-59.3428
11
96.8216
21
-59.3407
0
LINE
8
BLACK
6
CONTINUOUS
10
96.8216
20
-59.3407
11
96.8208
21
-59.3386
0
LINE
8
BLACK
6
CONTINUOUS
10
96.8208
20
-59.3386
11
96.8061
21
-59.2913
0
LINE
8
BLACK
6
CONTINUOUS
10
96.8061
20
-59.2913
11
96.806
21
-59.2909
0
LINE
8
BLACK
6
CONTINUOUS
10
96.806
20
-59.2909
11
96.8056
21
-59.2887
0
LINE
8
BLACK
6
CONTINUOUS
10
96.8056
20
-59.2887
11
96.8051
21
-59.2865
0
LINE
8
BLACK
6
CONTINUOUS
10
96.8051
20
-59.2865
11
96.7999
21
-59.2372
0
LINE
8
BLACK
6
CONTINUOUS
10
96.7999
20
-59.2372
11
96.7999
21
-59.2368
0
LINE
8
BLACK
6
CONTINUOUS
10
96.7999
20
-59.2368
11
96.7999
21
-59.2357
0
LINE
8
BLACK
6
CONTINUOUS
10
96.7999
20
-59.2357
11
96.7998
21
-59.2347
0
LINE
8
BLACK
6
CONTINUOUS
10
96.7998
20
-59.2347
11
96.7998
21
-59.234
0
LINE
8
BLACK
6
CONTINUOUS
10
96.7998
20
-59.234
11
96.7998
21
-59.234
0
LINE
8
BLACK
6
CONTINUOUS
10
96.7998
20
-59.234
11
96.7998
21
-59.2329
0
LINE
8
BLACK
6
CONTINUOUS
10
96.7998
20
-59.2329
11
96.7998
21
-59.2325
0
LINE
8
BLACK
6
CONTINUOUS
10
96.7998
20
-59.2325
11
96.8024
21
-53.6952
0
LINE
8
BLACK
6
CONTINUOUS
10
96.8024
20
-53.6952
11
80.0355
21
-53.6952
0
LINE
8
BLACK
6
CONTINUOUS
10
80.0355
20
-53.6952
11
80.0144
21
-53.6953
0
LINE
8
BLACK
6
CONTINUOUS
10
80.0144
20
-53.6953
11
79.3969
21
-53.7602
0
LINE
8
BLACK
6
CONTINUOUS
10
79.3969
20
-53.7602
11
78.8049
21
-53.9434
0
LINE
8
BLACK
6
CONTINUOUS
10
78.8049
20
-53.9434
11
78.2598
21
-54.2382
0
LINE
8
BLACK
6
CONTINUOUS
10
78.2598
20
-54.2382
11
77.7823
21
-54.6332
0
LINE
8
BLACK
6
CONTINUOUS
10
77.7823
20
-54.6332
11
77.3906
21
-55.1134
0
LINE
8
BLACK
6
CONTINUOUS
10
77.3906
20
-55.1134
11
77.0997
21
-55.6606
0
LINE
8
BLACK
6
CONTINUOUS
10
77.0997
20
-55.6606
11
76.9206
21
-56.2538
0
LINE
8
BLACK
6
CONTINUOUS
10
76.9206
20
-56.2538
11
76.86
21
-56.8718
0
LINE
8
BLACK
6
CONTINUOUS
10
76.86
20
-56.8718
11
76.86
21
-173.965
0
LINE
8
BLACK
6
CONTINUOUS
10
76.86
20
-173.965
11
76.8601
21
-173.986
0
LINE
8
BLACK
6
CONTINUOUS
10
76.8601
20
-173.986
11
76.925
21
-174.603
0
LINE
8
BLACK
6
CONTINUOUS
10
76.925
20
-174.603
11
77.1082
21
-175.195
0
LINE
8
BLACK
6
CONTINUOUS
10
77.1082
20
-175.195
11
77.403
21
-175.74
0
LINE
8
BLACK
6
CONTINUOUS
10
77.403
20
-175.74
11
77.798
21
-176.218
0
LINE
8
BLACK
6
CONTINUOUS
10
77.798
20
-176.218
11
78.2782
21
-176.609
0
LINE
8
BLACK
6
CONTINUOUS
10
78.2782
20
-176.609
11
78.8254
21
-176.9
0
LINE
8
BLACK
6
CONTINUOUS
10
78.8254
20
-176.9
11
79.4186
21
-177.079
0
LINE
8
BLACK
6
CONTINUOUS
10
79.4186
20
-177.079
11
80.0366
21
-177.14
0
LINE
8
BLACK
6
CONTINUOUS
10
80.0366
20
-177.14
11
165.05
21
-177.14
0
LINE
8
BLACK
6
CONTINUOUS
10
165.05
20
-177.14
11
165.052
21
-177.14
0
LINE
8
BLACK
6
CONTINUOUS
10
165.052
20
-177.14
11
165.052
21
-177.14
0
LINE
8
BLACK
6
CONTINUOUS
10
165.052
20
-177.14
11
165.673
21
-177.201
0
LINE
8
BLACK
6
CONTINUOUS
10
165.673
20
-177.201
11
165.673
21
-177.201
0
LINE
8
BLACK
6
CONTINUOUS
10
165.673
20
-177.201
11
165.675
21
-177.202
0
LINE
8
BLACK
6
CONTINUOUS
10
165.675
20
-177.202
11
165.678
21
-177.202
0
LINE
8
BLACK
6
CONTINUOUS
10
165.678
20
-177.202
11
166.275
21
-177.382
0
LINE
8
BLACK
6
CONTINUOUS
10
166.275
20
-177.382
11
166.275
21
-177.382
0
LINE
8
BLACK
6
CONTINUOUS
10
166.275
20
-177.382
11
166.277
21
-177.383
0
LINE
8
BLACK
6
CONTINUOUS
10
166.277
20
-177.383
11
166.28
21
-177.384
0
LINE
8
BLACK
6
CONTINUOUS
10
166.28
20
-177.384
11
166.831
21
-177.677
0
LINE
8
BLACK
6
CONTINUOUS
10
166.831
20
-177.677
11
166.831
21
-177.677
0
LINE
8
BLACK
6
CONTINUOUS
10
166.831
20
-177.677
11
166.833
21
-177.679
0
LINE
8
BLACK
6
CONTINUOUS
10
166.833
20
-177.679
11
166.835
21
-177.68
0
LINE
8
BLACK
6
CONTINUOUS
10
166.835
20
-177.68
11
167.318
21
-178.074
0
LINE
8
BLACK
6
CONTINUOUS
10
167.318
20
-178.074
11
167.319
21
-178.075
0
LINE
8
BLACK
6
CONTINUOUS
10
167.319
20
-178.075
11
167.319
21
-178.075
0
LINE
8
BLACK
6
CONTINUOUS
10
167.319
20
-178.075
11
167.32
21
-178.076
0
LINE
8
BLACK
6
CONTINUOUS
10
167.32
20
-178.076
11
167.327
21
-178.083
0
LINE
8
BLACK
6
CONTINUOUS
10
167.327
20
-178.083
11
167.327
21
-178.083
0
LINE
8
BLACK
6
CONTINUOUS
10
167.327
20
-178.083
11
214.394
21
-225.153
0
LINE
8
BLACK
6
CONTINUOUS
10
214.394
20
-225.153
11
214.394
21
-225.153
0
LINE
8
BLACK
6
CONTINUOUS
10
214.394
20
-225.153
11
214.409
21
-225.168
0
LINE
8
BLACK
6
CONTINUOUS
10
214.409
20
-225.168
11
214.892
21
-225.559
0
LINE
8
BLACK
6
CONTINUOUS
10
214.892
20
-225.559
11
215.441
21
-225.849
0
LINE
8
BLACK
6
CONTINUOUS
10
215.441
20
-225.849
11
216.035
21
-226.026
0
LINE
8
BLACK
6
CONTINUOUS
10
216.035
20
-226.026
11
216.653
21
-226.084
0
LINE
8
BLACK
6
CONTINUOUS
10
216.653
20
-226.084
11
217.27
21
-226.022
0
LINE
8
BLACK
6
CONTINUOUS
10
217.27
20
-226.022
11
217.863
21
-225.84
0
LINE
8
BLACK
6
CONTINUOUS
10
217.863
20
-225.84
11
218.41
21
-225.547
0
LINE
8
BLACK
6
CONTINUOUS
10
218.41
20
-225.547
11
218.891
21
-225.152
0
LINE
8
BLACK
6
CONTINUOUS
10
218.891
20
-225.152
11
258.478
21
-185.59
0
LINE
8
BLACK
6
CONTINUOUS
10
258.478
20
-185.59
11
258.493
21
-185.575
0
LINE
8
BLACK
6
CONTINUOUS
10
258.493
20
-185.575
11
258.884
21
-185.092
0
LINE
8
BLACK
6
CONTINUOUS
10
258.884
20
-185.092
11
259.174
21
-184.544
0
LINE
8
BLACK
6
CONTINUOUS
10
259.174
20
-184.544
11
259.351
21
-183.949
0
LINE
8
BLACK
6
CONTINUOUS
10
259.351
20
-183.949
11
259.409
21
-183.331
0
LINE
8
BLACK
6
CONTINUOUS
10
259.409
20
-183.331
11
259.346
21
-182.714
0
LINE
8
BLACK
6
CONTINUOUS
10
259.346
20
-182.714
11
259.165
21
-182.121
0
LINE
8
BLACK
6
CONTINUOUS
10
259.165
20
-182.121
11
258.872
21
-181.574
0
LINE
8
BLACK
6
CONTINUOUS
10
258.872
20
-181.574
11
258.477
21
-181.093
0
LINE
8
BLACK
6
CONTINUOUS
10
258.477
20
-181.093
11
225.711
21
-148.327
0
LINE
8
BLACK
6
CONTINUOUS
10
225.711
20
-148.327
11
225.71
21
-148.326
0
LINE
8
BLACK
6
CONTINUOUS
10
225.71
20
-148.326
11
225.71
21
-148.326
0
LINE
8
BLACK
6
CONTINUOUS
10
225.71
20
-148.326
11
225.314
21
-147.844
0
LINE
8
BLACK
6
CONTINUOUS
10
225.314
20
-147.844
11
225.314
21
-147.843
0
LINE
8
BLACK
6
CONTINUOUS
10
225.314
20
-147.843
11
225.312
21
-147.841
0
LINE
8
BLACK
6
CONTINUOUS
10
225.312
20
-147.841
11
225.311
21
-147.84
0
LINE
8
BLACK
6
CONTINUOUS
10
225.311
20
-147.84
11
225.016
21
-147.289
0
LINE
8
BLACK
6
CONTINUOUS
10
225.016
20
-147.289
11
225.016
21
-147.288
0
LINE
8
BLACK
6
CONTINUOUS
10
225.016
20
-147.288
11
225.015
21
-147.286
0
LINE
8
BLACK
6
CONTINUOUS
10
225.015
20
-147.286
11
225.014
21
-147.284
0
LINE
8
BLACK
6
CONTINUOUS
10
225.014
20
-147.284
11
224.831
21
-146.687
0
LINE
8
BLACK
6
CONTINUOUS
10
224.831
20
-146.687
11
224.831
21
-146.686
0
LINE
8
BLACK
6
CONTINUOUS
10
224.831
20
-146.686
11
224.831
21
-146.684
0
LINE
8
BLACK
6
CONTINUOUS
10
224.831
20
-146.684
11
224.83
21
-146.682
0
LINE
8
BLACK
6
CONTINUOUS
10
224.83
20
-146.682
11
224.767
21
-146.06
0
LINE
8
BLACK
6
CONTINUOUS
10
224.767
20
-146.06
11
224.767
21
-146.06
0
LINE
8
BLACK
6
CONTINUOUS
10
224.767
20
-146.06
11
224.767
21
-146.059
0
LINE
8
BLACK
6
CONTINUOUS
10
224.767
20
-146.059
11
224.767
21
-146.058
0
LINE
8
BLACK
6
CONTINUOUS
10
224.767
20
-146.058
11
224.767
21
-146.048
0
LINE
8
BLACK
6
CONTINUOUS
10
224.767
20
-146.048
11
224.767
21
-146.048
0
LINE
8
BLACK
6
CONTINUOUS
10
224.767
20
-146.048
11
224.767
21
-146.047
0
LINE
8
BLACK
6
CONTINUOUS
10
224.767
20
-146.047
11
224.767
21
-146.046
0
LINE
8
BLACK
6
CONTINUOUS
10
224.767
20
-146.046
11
224.767
21
-146.046
0
LINE
8
BLACK
6
CONTINUOUS
10
224.767
20
-146.046
11
224.765
21
-56.8707
0
LINE
8
BLACK
6
CONTINUOUS
10
224.765
20
-56.8707
11
224.765
21
-56.8496
0
LINE
8
BLACK
6
CONTINUOUS
10
224.765
20
-56.8496
11
224.7
21
-56.2321
0
LINE
8
BLACK
6
CONTINUOUS
10
224.7
20
-56.2321
11
224.517
21
-55.6401
0
LINE
8
BLACK
6
CONTINUOUS
10
224.517
20
-55.6401
11
224.222
21
-55.095
0
LINE
8
BLACK
6
CONTINUOUS
10
224.222
20
-55.095
11
223.827
21
-54.6175
0
LINE
8
BLACK
6
CONTINUOUS
10
223.827
20
-54.6175
11
223.347
21
-54.2258
0
LINE
8
BLACK
6
CONTINUOUS
10
223.347
20
-54.2258
11
222.8
21
-53.9349
0
LINE
8
BLACK
6
CONTINUOUS
10
222.8
20
-53.9349
11
222.206
21
-53.7558
0
LINE
8
BLACK
6
CONTINUOUS
10
222.206
20
-53.7558
11
221.588
21
-53.6952
0
LINE
8
BLACK
6
CONTINUOUS
10
221.588
20
-53.6952
11
106.255
21
-53.6952
0
LINE
8
BLACK
6
CONTINUOUS
10
106.255
20
-53.6952
11
106.261
21
-59.234
0
LINE
8
BLACK
6
CONTINUOUS
10
106.261
20
-59.234
11
106.26
21
-59.2352
0
LINE
8
BLACK
6
CONTINUOUS
10
106.26
20
-59.2352
11
106.26
21
-59.2352
0
LINE
8
BLACK
6
CONTINUOUS
10
106.26
20
-59.2352
11
106.256
21
-59.2846
0
LINE
8
BLACK
6
CONTINUOUS
10
106.256
20
-59.2846
11
106.256
21
-59.2849
0
LINE
8
BLACK
6
CONTINUOUS
10
106.256
20
-59.2849
11
106.255
21
-59.2872
0
LINE
8
BLACK
6
CONTINUOUS
10
106.255
20
-59.2872
11
106.255
21
-59.2894
0
LINE
8
BLACK
6
CONTINUOUS
10
106.255
20
-59.2894
11
106.24
21
-59.3368
0
LINE
8
BLACK
6
CONTINUOUS
10
106.24
20
-59.3368
11
106.24
21
-59.3372
0
LINE
8
BLACK
6
CONTINUOUS
10
106.24
20
-59.3372
11
106.239
21
-59.3392
0
LINE
8
BLACK
6
CONTINUOUS
10
106.239
20
-59.3392
11
106.238
21
-59.3413
0
LINE
8
BLACK
6
CONTINUOUS
10
106.238
20
-59.3413
11
106.215
21
-59.3851
0
LINE
8
BLACK
6
CONTINUOUS
10
106.215
20
-59.3851
11
106.215
21
-59.3854
0
LINE
8
BLACK
6
CONTINUOUS
10
106.215
20
-59.3854
11
106.214
21
-59.3873
0
LINE
8
BLACK
6
CONTINUOUS
10
106.214
20
-59.3873
11
106.212
21
-59.3892
0
LINE
8
BLACK
6
CONTINUOUS
10
106.212
20
-59.3892
11
106.181
21
-59.4276
0
LINE
8
BLACK
6
CONTINUOUS
10
106.181
20
-59.4276
11
106.181
21
-59.4278
0
LINE
8
BLACK
6
CONTINUOUS
10
106.181
20
-59.4278
11
106.179
21
-59.4295
0
LINE
8
BLACK
6
CONTINUOUS
10
106.179
20
-59.4295
11
106.178
21
-59.431
0
LINE
8
BLACK
6
CONTINUOUS
10
106.178
20
-59.431
11
106.139
21
-59.4626
0
LINE
8
BLACK
6
CONTINUOUS
10
106.139
20
-59.4626
11
106.139
21
-59.4629
0
LINE
8
BLACK
6
CONTINUOUS
10
106.139
20
-59.4629
11
106.137
21
-59.4641
0
LINE
8
BLACK
6
CONTINUOUS
10
106.137
20
-59.4641
11
106.135
21
-59.4654
0
LINE
8
BLACK
6
CONTINUOUS
10
106.135
20
-59.4654
11
106.092
21
-59.4889
0
LINE
8
BLACK
6
CONTINUOUS
10
106.092
20
-59.4889
11
106.092
21
-59.4889
0
LINE
8
BLACK
6
CONTINUOUS
10
106.092
20
-59.4889
11
106.092
21
-59.4889
0
LINE
8
BLACK
6
CONTINUOUS
10
106.092
20
-59.4889
11
106.092
21
-59.4891
0
LINE
8
BLACK
6
CONTINUOUS
10
106.092
20
-59.4891
11
106.089
21
-59.49
0
LINE
8
BLACK
6
CONTINUOUS
10
106.089
20
-59.49
11
106.087
21
-59.4908
0
LINE
8
BLACK
6
CONTINUOUS
10
106.087
20
-59.4908
11
106.04
21
-59.5055
0
LINE
8
BLACK
6
CONTINUOUS
10
106.04
20
-59.5055
11
106.04
21
-59.5056
0
LINE
8
BLACK
6
CONTINUOUS
10
106.04
20
-59.5056
11
106.037
21
-59.506
0
LINE
8
BLACK
6
CONTINUOUS
10
106.037
20
-59.506
11
106.035
21
-59.5065
0
LINE
8
BLACK
6
CONTINUOUS
10
106.035
20
-59.5065
11
105.986
21
-59.5117
0
LINE
8
BLACK
6
CONTINUOUS
10
105.986
20
-59.5117
11
105.986
21
-59.5117
0
LINE
8
BLACK
6
CONTINUOUS
10
105.986
20
-59.5117
11
105.984
21
-59.5117
0
LINE
8
BLACK
6
CONTINUOUS
10
105.984
20
-59.5117
11
105.983
21
-59.5118
0
LINE
8
BLACK
6
CONTINUOUS
10
105.983
20
-59.5118
11
105.983
21
-59.5118
0
LINE
8
BLACK
6
CONTINUOUS
10
105.983
20
-59.5118
11
105.983
21
-59.5118
0
LINE
8
BLACK
6
CONTINUOUS
10
105.983
20
-59.5118
11
105.18
21
-59.5118
0
LINE
8
BLACK
6
CONTINUOUS
10
105.18
20
-59.5118
11
105.179
21
-59.5117
0
LINE
8
BLACK
6
CONTINUOUS
10
220.128
20
-204.475
11
220.133
21
-204.476
0
LINE
8
BLACK
6
CONTINUOUS
10
220.133
20
-204.476
11
220.137
21
-204.479
0
LINE
8
BLACK
6
CONTINUOUS
10
220.137
20
-204.479
11
220.141
21
-204.482
0
LINE
8
BLACK
6
CONTINUOUS
10
220.141
20
-204.482
11
220.142
21
-204.483
0
LINE
8
BLACK
6
CONTINUOUS
10
220.142
20
-204.483
11
222.544
21
-206.885
0
LINE
8
BLACK
6
CONTINUOUS
10
222.544
20
-206.885
11
222.545
21
-206.886
0
LINE
8
BLACK
6
CONTINUOUS
10
222.545
20
-206.886
11
222.546
21
-206.887
0
LINE
8
BLACK
6
CONTINUOUS
10
222.546
20
-206.887
11
222.546
21
-206.887
0
LINE
8
BLACK
6
CONTINUOUS
10
222.546
20
-206.887
11
222.548
21
-206.89
0
LINE
8
BLACK
6
CONTINUOUS
10
222.548
20
-206.89
11
222.551
21
-206.894
0
LINE
8
BLACK
6
CONTINUOUS
10
222.551
20
-206.894
11
222.551
21
-206.894
0
LINE
8
BLACK
6
CONTINUOUS
10
222.551
20
-206.894
11
222.552
21
-206.899
0
LINE
8
BLACK
6
CONTINUOUS
10
222.552
20
-206.899
11
222.552
21
-206.904
0
LINE
8
BLACK
6
CONTINUOUS
10
222.552
20
-206.904
11
222.552
21
-206.909
0
LINE
8
BLACK
6
CONTINUOUS
10
222.552
20
-206.909
11
222.551
21
-206.913
0
LINE
8
BLACK
6
CONTINUOUS
10
222.551
20
-206.913
11
222.548
21
-206.918
0
LINE
8
BLACK
6
CONTINUOUS
10
222.548
20
-206.918
11
222.546
21
-206.921
0
LINE
8
BLACK
6
CONTINUOUS
10
222.546
20
-206.921
11
222.546
21
-206.921
0
LINE
8
BLACK
6
CONTINUOUS
10
222.546
20
-206.921
11
222.545
21
-206.922
0
LINE
8
BLACK
6
CONTINUOUS
10
222.545
20
-206.922
11
222.544
21
-206.922
0
LINE
8
BLACK
6
CONTINUOUS
10
222.544
20
-206.922
11
220.425
21
-209.042
0
LINE
8
BLACK
6
CONTINUOUS
10
220.425
20
-209.042
11
220.424
21
-209.043
0
LINE
8
BLACK
6
CONTINUOUS
10
220.424
20
-209.043
11
220.42
21
-209.046
0
LINE
8
BLACK
6
CONTINUOUS
10
220.42
20
-209.046
11
220.416
21
-209.048
0
LINE
8
BLACK
6
CONTINUOUS
10
220.416
20
-209.048
11
220.411
21
-209.05
0
LINE
8
BLACK
6
CONTINUOUS
10
220.411
20
-209.05
11
220.406
21
-209.05
0
LINE
8
BLACK
6
CONTINUOUS
10
220.406
20
-209.05
11
220.401
21
-209.05
0
LINE
8
BLACK
6
CONTINUOUS
10
220.401
20
-209.05
11
220.396
21
-209.048
0
LINE
8
BLACK
6
CONTINUOUS
10
220.396
20
-209.048
11
220.392
21
-209.046
0
LINE
8
BLACK
6
CONTINUOUS
10
220.392
20
-209.046
11
220.389
21
-209.044
0
LINE
8
BLACK
6
CONTINUOUS
10
220.389
20
-209.044
11
220.389
21
-209.044
0
LINE
8
BLACK
6
CONTINUOUS
10
220.389
20
-209.044
11
220.388
21
-209.043
0
LINE
8
BLACK
6
CONTINUOUS
10
220.388
20
-209.043
11
220.387
21
-209.042
0
LINE
8
BLACK
6
CONTINUOUS
10
220.387
20
-209.042
11
217.985
21
-206.639
0
LINE
8
BLACK
6
CONTINUOUS
10
217.985
20
-206.639
11
217.984
21
-206.639
0
LINE
8
BLACK
6
CONTINUOUS
10
217.984
20
-206.639
11
217.981
21
-206.635
0
LINE
8
BLACK
6
CONTINUOUS
10
217.981
20
-206.635
11
217.979
21
-206.631
0
LINE
8
BLACK
6
CONTINUOUS
10
217.979
20
-206.631
11
217.977
21
-206.626
0
LINE
8
BLACK
6
CONTINUOUS
10
217.977
20
-206.626
11
217.977
21
-206.621
0
LINE
8
BLACK
6
CONTINUOUS
10
217.977
20
-206.621
11
217.977
21
-206.616
0
LINE
8
BLACK
6
CONTINUOUS
10
217.977
20
-206.616
11
217.979
21
-206.611
0
LINE
8
BLACK
6
CONTINUOUS
10
217.979
20
-206.611
11
217.981
21
-206.607
0
LINE
8
BLACK
6
CONTINUOUS
10
217.981
20
-206.607
11
217.983
21
-206.604
0
LINE
8
BLACK
6
CONTINUOUS
10
217.983
20
-206.604
11
217.984
21
-206.603
0
LINE
8
BLACK
6
CONTINUOUS
10
217.984
20
-206.603
11
217.985
21
-206.602
0
LINE
8
BLACK
6
CONTINUOUS
10
217.985
20
-206.602
11
220.105
21
-204.483
0
LINE
8
BLACK
6
CONTINUOUS
10
220.105
20
-204.483
11
220.105
21
-204.482
0
LINE
8
BLACK
6
CONTINUOUS
10
220.105
20
-204.482
11
220.106
21
-204.481
0
LINE
8
BLACK
6
CONTINUOUS
10
220.106
20
-204.481
11
220.106
21
-204.481
0
LINE
8
BLACK
6
CONTINUOUS
10
220.106
20
-204.481
11
220.109
21
-204.479
0
LINE
8
BLACK
6
CONTINUOUS
10
220.109
20
-204.479
11
220.114
21
-204.476
0
LINE
8
BLACK
6
CONTINUOUS
10
220.114
20
-204.476
11
220.118
21
-204.475
0
LINE
8
BLACK
6
CONTINUOUS
10
220.118
20
-204.475
11
220.123
21
-204.474
0
LINE
8
BLACK
6
CONTINUOUS
10
220.123
20
-204.474
11
220.128
21
-204.475
0
LINE
8
BLACK
6
CONTINUOUS
10
218.037
20
-206.621
11
220.406
21
-208.99
0
LINE
8
BLACK
6
CONTINUOUS
10
220.406
20
-208.99
11
222.492
21
-206.904
0
LINE
8
BLACK
6
CONTINUOUS
10
222.492
20
-206.904
11
220.123
21
-204.535
0
LINE
8
BLACK
6
CONTINUOUS
10
220.123
20
-204.535
11
218.037
21
-206.621
0
LINE
8
BLACK
6
CONTINUOUS
10
233.89
20
-195.556
11
233.886
21
-195.554
0
LINE
8
BLACK
6
CONTINUOUS
10
233.886
20
-195.554
11
233.883
21
-195.552
0
LINE
8
BLACK
6
CONTINUOUS
10
233.883
20
-195.552
11
233.883
21
-195.552
0
LINE
8
BLACK
6
CONTINUOUS
10
233.883
20
-195.552
11
233.882
21
-195.551
0
LINE
8
BLACK
6
CONTINUOUS
10
233.882
20
-195.551
11
233.881
21
-195.55
0
LINE
8
BLACK
6
CONTINUOUS
10
233.881
20
-195.55
11
231.479
21
-193.147
0
LINE
8
BLACK
6
CONTINUOUS
10
231.479
20
-193.147
11
231.478
21
-193.147
0
LINE
8
BLACK
6
CONTINUOUS
10
231.478
20
-193.147
11
231.475
21
-193.143
0
LINE
8
BLACK
6
CONTINUOUS
10
231.475
20
-193.143
11
231.472
21
-193.138
0
LINE
8
BLACK
6
CONTINUOUS
10
231.472
20
-193.138
11
231.471
21
-193.134
0
LINE
8
BLACK
6
CONTINUOUS
10
231.471
20
-193.134
11
231.47
21
-193.129
0
LINE
8
BLACK
6
CONTINUOUS
10
231.47
20
-193.129
11
231.471
21
-193.124
0
LINE
8
BLACK
6
CONTINUOUS
10
231.471
20
-193.124
11
231.472
21
-193.119
0
LINE
8
BLACK
6
CONTINUOUS
10
231.472
20
-193.119
11
231.475
21
-193.115
0
LINE
8
BLACK
6
CONTINUOUS
10
231.475
20
-193.115
11
231.477
21
-193.112
0
LINE
8
BLACK
6
CONTINUOUS
10
231.477
20
-193.112
11
231.478
21
-193.111
0
LINE
8
BLACK
6
CONTINUOUS
10
231.478
20
-193.111
11
231.479
21
-193.11
0
LINE
8
BLACK
6
CONTINUOUS
10
231.479
20
-193.11
11
233.598
21
-190.991
0
LINE
8
BLACK
6
CONTINUOUS
10
233.598
20
-190.991
11
233.599
21
-190.99
0
LINE
8
BLACK
6
CONTINUOUS
10
233.599
20
-190.99
11
233.6
21
-190.989
0
LINE
8
BLACK
6
CONTINUOUS
10
233.6
20
-190.989
11
233.6
21
-190.989
0
LINE
8
BLACK
6
CONTINUOUS
10
233.6
20
-190.989
11
233.603
21
-190.987
0
LINE
8
BLACK
6
CONTINUOUS
10
233.603
20
-190.987
11
233.607
21
-190.984
0
LINE
8
BLACK
6
CONTINUOUS
10
233.607
20
-190.984
11
233.612
21
-190.983
0
LINE
8
BLACK
6
CONTINUOUS
10
233.612
20
-190.983
11
233.617
21
-190.982
0
LINE
8
BLACK
6
CONTINUOUS
10
233.617
20
-190.982
11
233.622
21
-190.983
0
LINE
8
BLACK
6
CONTINUOUS
10
233.622
20
-190.983
11
233.627
21
-190.984
0
LINE
8
BLACK
6
CONTINUOUS
10
233.627
20
-190.984
11
233.631
21
-190.987
0
LINE
8
BLACK
6
CONTINUOUS
10
233.631
20
-190.987
11
233.635
21
-190.99
0
LINE
8
BLACK
6
CONTINUOUS
10
233.635
20
-190.99
11
233.635
21
-190.991
0
LINE
8
BLACK
6
CONTINUOUS
10
233.635
20
-190.991
11
236.038
21
-193.393
0
LINE
8
BLACK
6
CONTINUOUS
10
236.038
20
-193.393
11
236.039
21
-193.394
0
LINE
8
BLACK
6
CONTINUOUS
10
236.039
20
-193.394
11
236.04
21
-193.395
0
LINE
8
BLACK
6
CONTINUOUS
10
236.04
20
-193.395
11
236.04
21
-193.395
0
LINE
8
BLACK
6
CONTINUOUS
10
236.04
20
-193.395
11
236.042
21
-193.398
0
LINE
8
BLACK
6
CONTINUOUS
10
236.042
20
-193.398
11
236.044
21
-193.402
0
LINE
8
BLACK
6
CONTINUOUS
10
236.044
20
-193.402
11
236.044
21
-193.402
0
LINE
8
BLACK
6
CONTINUOUS
10
236.044
20
-193.402
11
236.046
21
-193.407
0
LINE
8
BLACK
6
CONTINUOUS
10
236.046
20
-193.407
11
236.046
21
-193.412
0
LINE
8
BLACK
6
CONTINUOUS
10
236.046
20
-193.412
11
236.046
21
-193.417
0
LINE
8
BLACK
6
CONTINUOUS
10
236.046
20
-193.417
11
236.044
21
-193.421
0
LINE
8
BLACK
6
CONTINUOUS
10
236.044
20
-193.421
11
236.042
21
-193.426
0
LINE
8
BLACK
6
CONTINUOUS
10
236.042
20
-193.426
11
236.04
21
-193.429
0
LINE
8
BLACK
6
CONTINUOUS
10
236.04
20
-193.429
11
236.04
21
-193.429
0
LINE
8
BLACK
6
CONTINUOUS
10
236.04
20
-193.429
11
236.039
21
-193.429
0
LINE
8
BLACK
6
CONTINUOUS
10
236.039
20
-193.429
11
236.038
21
-193.43
0
LINE
8
BLACK
6
CONTINUOUS
10
236.038
20
-193.43
11
233.918
21
-195.55
0
LINE
8
BLACK
6
CONTINUOUS
10
233.918
20
-195.55
11
233.918
21
-195.551
0
LINE
8
BLACK
6
CONTINUOUS
10
233.918
20
-195.551
11
233.914
21
-195.554
0
LINE
8
BLACK
6
CONTINUOUS
10
233.914
20
-195.554
11
233.909
21
-195.556
0
LINE
8
BLACK
6
CONTINUOUS
10
233.909
20
-195.556
11
233.905
21
-195.558
0
LINE
8
BLACK
6
CONTINUOUS
10
233.905
20
-195.558
11
233.9
21
-195.558
0
LINE
8
BLACK
6
CONTINUOUS
10
233.9
20
-195.558
11
233.895
21
-195.558
0
LINE
8
BLACK
6
CONTINUOUS
10
233.895
20
-195.558
11
233.89
21
-195.556
0
LINE
8
BLACK
6
CONTINUOUS
10
231.531
20
-193.129
11
233.9
21
-195.498
0
LINE
8
BLACK
6
CONTINUOUS
10
233.9
20
-195.498
11
235.986
21
-193.412
0
LINE
8
BLACK
6
CONTINUOUS
10
235.986
20
-193.412
11
233.617
21
-191.043
0
LINE
8
BLACK
6
CONTINUOUS
10
233.617
20
-191.043
11
231.531
21
-193.129
0
LINE
8
BLACK
6
CONTINUOUS
10
213.535
20
-188.8
11
213.53
21
-188.797
0
LINE
8
BLACK
6
CONTINUOUS
10
213.53
20
-188.797
11
213.527
21
-188.795
0
LINE
8
BLACK
6
CONTINUOUS
10
213.527
20
-188.795
11
213.527
21
-188.795
0
LINE
8
BLACK
6
CONTINUOUS
10
213.527
20
-188.795
11
213.526
21
-188.794
0
LINE
8
BLACK
6
CONTINUOUS
10
213.526
20
-188.794
11
213.526
21
-188.793
0
LINE
8
BLACK
6
CONTINUOUS
10
213.526
20
-188.793
11
211.123
21
-186.391
0
LINE
8
BLACK
6
CONTINUOUS
10
211.123
20
-186.391
11
211.122
21
-186.39
0
LINE
8
BLACK
6
CONTINUOUS
10
211.122
20
-186.39
11
211.119
21
-186.386
0
LINE
8
BLACK
6
CONTINUOUS
10
211.119
20
-186.386
11
211.117
21
-186.382
0
LINE
8
BLACK
6
CONTINUOUS
10
211.117
20
-186.382
11
211.115
21
-186.377
0
LINE
8
BLACK
6
CONTINUOUS
10
211.115
20
-186.377
11
211.115
21
-186.372
0
LINE
8
BLACK
6
CONTINUOUS
10
211.115
20
-186.372
11
211.115
21
-186.367
0
LINE
8
BLACK
6
CONTINUOUS
10
211.115
20
-186.367
11
211.117
21
-186.363
0
LINE
8
BLACK
6
CONTINUOUS
10
211.117
20
-186.363
11
211.119
21
-186.358
0
LINE
8
BLACK
6
CONTINUOUS
10
211.119
20
-186.358
11
211.122
21
-186.355
0
LINE
8
BLACK
6
CONTINUOUS
10
211.122
20
-186.355
11
211.122
21
-186.354
0
LINE
8
BLACK
6
CONTINUOUS
10
211.122
20
-186.354
11
211.123
21
-186.354
0
LINE
8
BLACK
6
CONTINUOUS
10
211.123
20
-186.354
11
213.243
21
-184.234
0
LINE
8
BLACK
6
CONTINUOUS
10
213.243
20
-184.234
11
213.244
21
-184.233
0
LINE
8
BLACK
6
CONTINUOUS
10
213.244
20
-184.233
11
213.245
21
-184.232
0
LINE
8
BLACK
6
CONTINUOUS
10
213.245
20
-184.232
11
213.245
21
-184.232
0
LINE
8
BLACK
6
CONTINUOUS
10
213.245
20
-184.232
11
213.247
21
-184.23
0
LINE
8
BLACK
6
CONTINUOUS
10
213.247
20
-184.23
11
213.252
21
-184.228
0
LINE
8
BLACK
6
CONTINUOUS
10
213.252
20
-184.228
11
213.256
21
-184.226
0
LINE
8
BLACK
6
CONTINUOUS
10
213.256
20
-184.226
11
213.261
21
-184.226
0
LINE
8
BLACK
6
CONTINUOUS
10
213.261
20
-184.226
11
213.266
21
-184.226
0
LINE
8
BLACK
6
CONTINUOUS
10
213.266
20
-184.226
11
213.271
21
-184.228
0
LINE
8
BLACK
6
CONTINUOUS
10
213.271
20
-184.228
11
213.275
21
-184.23
0
LINE
8
BLACK
6
CONTINUOUS
10
213.275
20
-184.23
11
213.279
21
-184.233
0
LINE
8
BLACK
6
CONTINUOUS
10
213.279
20
-184.233
11
213.28
21
-184.234
0
LINE
8
BLACK
6
CONTINUOUS
10
213.28
20
-184.234
11
215.682
21
-186.637
0
LINE
8
BLACK
6
CONTINUOUS
10
215.682
20
-186.637
11
215.683
21
-186.637
0
LINE
8
BLACK
6
CONTINUOUS
10
215.683
20
-186.637
11
215.684
21
-186.638
0
LINE
8
BLACK
6
CONTINUOUS
10
215.684
20
-186.638
11
215.684
21
-186.638
0
LINE
8
BLACK
6
CONTINUOUS
10
215.684
20
-186.638
11
215.686
21
-186.641
0
LINE
8
BLACK
6
CONTINUOUS
10
215.686
20
-186.641
11
215.689
21
-186.645
0
LINE
8
BLACK
6
CONTINUOUS
10
215.689
20
-186.645
11
215.689
21
-186.645
0
LINE
8
BLACK
6
CONTINUOUS
10
215.689
20
-186.645
11
215.69
21
-186.65
0
LINE
8
BLACK
6
CONTINUOUS
10
215.69
20
-186.65
11
215.691
21
-186.655
0
LINE
8
BLACK
6
CONTINUOUS
10
215.691
20
-186.655
11
215.69
21
-186.66
0
LINE
8
BLACK
6
CONTINUOUS
10
215.69
20
-186.66
11
215.689
21
-186.665
0
LINE
8
BLACK
6
CONTINUOUS
10
215.689
20
-186.665
11
215.686
21
-186.669
0
LINE
8
BLACK
6
CONTINUOUS
10
215.686
20
-186.669
11
215.684
21
-186.672
0
LINE
8
BLACK
6
CONTINUOUS
10
215.684
20
-186.672
11
215.684
21
-186.672
0
LINE
8
BLACK
6
CONTINUOUS
10
215.684
20
-186.672
11
215.683
21
-186.673
0
LINE
8
BLACK
6
CONTINUOUS
10
215.683
20
-186.673
11
215.682
21
-186.674
0
LINE
8
BLACK
6
CONTINUOUS
10
215.682
20
-186.674
11
213.563
21
-188.793
0
LINE
8
BLACK
6
CONTINUOUS
10
213.563
20
-188.793
11
213.562
21
-188.794
0
LINE
8
BLACK
6
CONTINUOUS
10
213.562
20
-188.794
11
213.558
21
-188.797
0
LINE
8
BLACK
6
CONTINUOUS
10
213.558
20
-188.797
11
213.554
21
-188.8
0
LINE
8
BLACK
6
CONTINUOUS
10
213.554
20
-188.8
11
213.549
21
-188.801
0
LINE
8
BLACK
6
CONTINUOUS
10
213.549
20
-188.801
11
213.544
21
-188.802
0
LINE
8
BLACK
6
CONTINUOUS
10
213.544
20
-188.802
11
213.539
21
-188.801
0
LINE
8
BLACK
6
CONTINUOUS
10
213.539
20
-188.801
11
213.535
21
-188.8
0
LINE
8
BLACK
6
CONTINUOUS
10
211.175
20
-186.372
11
213.544
21
-188.741
0
LINE
8
BLACK
6
CONTINUOUS
10
213.544
20
-188.741
11
215.63
21
-186.655
0
LINE
8
BLACK
6
CONTINUOUS
10
215.63
20
-186.655
11
213.261
21
-184.286
0
LINE
8
BLACK
6
CONTINUOUS
10
213.261
20
-184.286
11
211.175
21
-186.372
0
LINE
8
BLACK
6
CONTINUOUS
10
247.116
20
-177.494
11
247.12
21
-177.496
0
LINE
8
BLACK
6
CONTINUOUS
10
247.12
20
-177.496
11
247.125
21
-177.498
0
LINE
8
BLACK
6
CONTINUOUS
10
247.125
20
-177.498
11
247.128
21
-177.501
0
LINE
8
BLACK
6
CONTINUOUS
10
247.128
20
-177.501
11
247.129
21
-177.502
0
LINE
8
BLACK
6
CONTINUOUS
10
247.129
20
-177.502
11
249.532
21
-179.905
0
LINE
8
BLACK
6
CONTINUOUS
10
249.532
20
-179.905
11
249.533
21
-179.905
0
LINE
8
BLACK
6
CONTINUOUS
10
249.533
20
-179.905
11
249.533
21
-179.906
0
LINE
8
BLACK
6
CONTINUOUS
10
249.533
20
-179.906
11
249.533
21
-179.906
0
LINE
8
BLACK
6
CONTINUOUS
10
249.533
20
-179.906
11
249.536
21
-179.909
0
LINE
8
BLACK
6
CONTINUOUS
10
249.536
20
-179.909
11
249.538
21
-179.914
0
LINE
8
BLACK
6
CONTINUOUS
10
249.538
20
-179.914
11
249.538
21
-179.914
0
LINE
8
BLACK
6
CONTINUOUS
10
249.538
20
-179.914
11
249.54
21
-179.918
0
LINE
8
BLACK
6
CONTINUOUS
10
249.54
20
-179.918
11
249.54
21
-179.923
0
LINE
8
BLACK
6
CONTINUOUS
10
249.54
20
-179.923
11
249.54
21
-179.928
0
LINE
8
BLACK
6
CONTINUOUS
10
249.54
20
-179.928
11
249.538
21
-179.933
0
LINE
8
BLACK
6
CONTINUOUS
10
249.538
20
-179.933
11
249.536
21
-179.937
0
LINE
8
BLACK
6
CONTINUOUS
10
249.536
20
-179.937
11
249.533
21
-179.94
0
LINE
8
BLACK
6
CONTINUOUS
10
249.533
20
-179.94
11
249.533
21
-179.94
0
LINE
8
BLACK
6
CONTINUOUS
10
249.533
20
-179.94
11
249.533
21
-179.941
0
LINE
8
BLACK
6
CONTINUOUS
10
249.533
20
-179.941
11
249.532
21
-179.942
0
LINE
8
BLACK
6
CONTINUOUS
10
249.532
20
-179.942
11
247.412
21
-182.061
0
LINE
8
BLACK
6
CONTINUOUS
10
247.412
20
-182.061
11
247.411
21
-182.062
0
LINE
8
BLACK
6
CONTINUOUS
10
247.411
20
-182.062
11
247.408
21
-182.065
0
LINE
8
BLACK
6
CONTINUOUS
10
247.408
20
-182.065
11
247.403
21
-182.068
0
LINE
8
BLACK
6
CONTINUOUS
10
247.403
20
-182.068
11
247.398
21
-182.069
0
LINE
8
BLACK
6
CONTINUOUS
10
247.398
20
-182.069
11
247.394
21
-182.07
0
LINE
8
BLACK
6
CONTINUOUS
10
247.394
20
-182.07
11
247.389
21
-182.069
0
LINE
8
BLACK
6
CONTINUOUS
10
247.389
20
-182.069
11
247.384
21
-182.068
0
LINE
8
BLACK
6
CONTINUOUS
10
247.384
20
-182.068
11
247.38
21
-182.065
0
LINE
8
BLACK
6
CONTINUOUS
10
247.38
20
-182.065
11
247.377
21
-182.063
0
LINE
8
BLACK
6
CONTINUOUS
10
247.377
20
-182.063
11
247.377
21
-182.063
0
LINE
8
BLACK
6
CONTINUOUS
10
247.377
20
-182.063
11
247.376
21
-182.062
0
LINE
8
BLACK
6
CONTINUOUS
10
247.376
20
-182.062
11
247.375
21
-182.061
0
LINE
8
BLACK
6
CONTINUOUS
10
247.375
20
-182.061
11
244.973
21
-179.659
0
LINE
8
BLACK
6
CONTINUOUS
10
244.973
20
-179.659
11
244.972
21
-179.658
0
LINE
8
BLACK
6
CONTINUOUS
10
244.972
20
-179.658
11
244.969
21
-179.654
0
LINE
8
BLACK
6
CONTINUOUS
10
244.969
20
-179.654
11
244.966
21
-179.65
0
LINE
8
BLACK
6
CONTINUOUS
10
244.966
20
-179.65
11
244.965
21
-179.645
0
LINE
8
BLACK
6
CONTINUOUS
10
244.965
20
-179.645
11
244.964
21
-179.64
0
LINE
8
BLACK
6
CONTINUOUS
10
244.964
20
-179.64
11
244.965
21
-179.635
0
LINE
8
BLACK
6
CONTINUOUS
10
244.965
20
-179.635
11
244.966
21
-179.631
0
LINE
8
BLACK
6
CONTINUOUS
10
244.966
20
-179.631
11
244.969
21
-179.626
0
LINE
8
BLACK
6
CONTINUOUS
10
244.969
20
-179.626
11
244.971
21
-179.624
0
LINE
8
BLACK
6
CONTINUOUS
10
244.971
20
-179.624
11
244.972
21
-179.623
0
LINE
8
BLACK
6
CONTINUOUS
10
244.972
20
-179.623
11
244.973
21
-179.622
0
LINE
8
BLACK
6
CONTINUOUS
10
244.973
20
-179.622
11
247.092
21
-177.502
0
LINE
8
BLACK
6
CONTINUOUS
10
247.092
20
-177.502
11
247.093
21
-177.501
0
LINE
8
BLACK
6
CONTINUOUS
10
247.093
20
-177.501
11
247.094
21
-177.5
0
LINE
8
BLACK
6
CONTINUOUS
10
247.094
20
-177.5
11
247.094
21
-177.5
0
LINE
8
BLACK
6
CONTINUOUS
10
247.094
20
-177.5
11
247.097
21
-177.498
0
LINE
8
BLACK
6
CONTINUOUS
10
247.097
20
-177.498
11
247.101
21
-177.496
0
LINE
8
BLACK
6
CONTINUOUS
10
247.101
20
-177.496
11
247.106
21
-177.494
0
LINE
8
BLACK
6
CONTINUOUS
10
247.106
20
-177.494
11
247.111
21
-177.494
0
LINE
8
BLACK
6
CONTINUOUS
10
247.111
20
-177.494
11
247.116
21
-177.494
0
LINE
8
BLACK
6
CONTINUOUS
10
245.025
20
-179.64
11
247.394
21
-182.009
0
LINE
8
BLACK
6
CONTINUOUS
10
247.394
20
-182.009
11
249.48
21
-179.923
0
LINE
8
BLACK
6
CONTINUOUS
10
249.48
20
-179.923
11
247.111
21
-177.554
0
LINE
8
BLACK
6
CONTINUOUS
10
247.111
20
-177.554
11
245.025
21
-179.64
0
LINE
8
BLACK
6
CONTINUOUS
10
199.773
20
-170.733
11
199.777
21
-170.734
0
LINE
8
BLACK
6
CONTINUOUS
10
199.777
20
-170.734
11
199.782
21
-170.736
0
LINE
8
BLACK
6
CONTINUOUS
10
199.782
20
-170.736
11
199.785
21
-170.739
0
LINE
8
BLACK
6
CONTINUOUS
10
199.785
20
-170.739
11
199.786
21
-170.74
0
LINE
8
BLACK
6
CONTINUOUS
10
199.786
20
-170.74
11
202.189
21
-173.143
0
LINE
8
BLACK
6
CONTINUOUS
10
202.189
20
-173.143
11
202.19
21
-173.144
0
LINE
8
BLACK
6
CONTINUOUS
10
202.19
20
-173.144
11
202.19
21
-173.144
0
LINE
8
BLACK
6
CONTINUOUS
10
202.19
20
-173.144
11
202.19
21
-173.145
0
LINE
8
BLACK
6
CONTINUOUS
10
202.19
20
-173.145
11
202.193
21
-173.147
0
LINE
8
BLACK
6
CONTINUOUS
10
202.193
20
-173.147
11
202.195
21
-173.152
0
LINE
8
BLACK
6
CONTINUOUS
10
202.195
20
-173.152
11
202.195
21
-173.152
0
LINE
8
BLACK
6
CONTINUOUS
10
202.195
20
-173.152
11
202.196
21
-173.156
0
LINE
8
BLACK
6
CONTINUOUS
10
202.196
20
-173.156
11
202.197
21
-173.161
0
LINE
8
BLACK
6
CONTINUOUS
10
202.197
20
-173.161
11
202.196
21
-173.166
0
LINE
8
BLACK
6
CONTINUOUS
10
202.196
20
-173.166
11
202.195
21
-173.171
0
LINE
8
BLACK
6
CONTINUOUS
10
202.195
20
-173.171
11
202.193
21
-173.175
0
LINE
8
BLACK
6
CONTINUOUS
10
202.193
20
-173.175
11
202.19
21
-173.178
0
LINE
8
BLACK
6
CONTINUOUS
10
202.19
20
-173.178
11
202.19
21
-173.178
0
LINE
8
BLACK
6
CONTINUOUS
10
202.19
20
-173.178
11
202.19
21
-173.179
0
LINE
8
BLACK
6
CONTINUOUS
10
202.19
20
-173.179
11
202.189
21
-173.18
0
LINE
8
BLACK
6
CONTINUOUS
10
202.189
20
-173.18
11
200.069
21
-175.299
0
LINE
8
BLACK
6
CONTINUOUS
10
200.069
20
-175.299
11
200.068
21
-175.3
0
LINE
8
BLACK
6
CONTINUOUS
10
200.068
20
-175.3
11
200.064
21
-175.304
0
LINE
8
BLACK
6
CONTINUOUS
10
200.064
20
-175.304
11
200.06
21
-175.306
0
LINE
8
BLACK
6
CONTINUOUS
10
200.06
20
-175.306
11
200.055
21
-175.307
0
LINE
8
BLACK
6
CONTINUOUS
10
200.055
20
-175.307
11
200.05
21
-175.308
0
LINE
8
BLACK
6
CONTINUOUS
10
200.05
20
-175.308
11
200.046
21
-175.307
0
LINE
8
BLACK
6
CONTINUOUS
10
200.046
20
-175.307
11
200.041
21
-175.306
0
LINE
8
BLACK
6
CONTINUOUS
10
200.041
20
-175.306
11
200.037
21
-175.304
0
LINE
8
BLACK
6
CONTINUOUS
10
200.037
20
-175.304
11
200.034
21
-175.301
0
LINE
8
BLACK
6
CONTINUOUS
10
200.034
20
-175.301
11
200.034
21
-175.301
0
LINE
8
BLACK
6
CONTINUOUS
10
200.034
20
-175.301
11
200.033
21
-175.3
0
LINE
8
BLACK
6
CONTINUOUS
10
200.033
20
-175.3
11
200.032
21
-175.299
0
LINE
8
BLACK
6
CONTINUOUS
10
200.032
20
-175.299
11
197.629
21
-172.897
0
LINE
8
BLACK
6
CONTINUOUS
10
197.629
20
-172.897
11
197.629
21
-172.896
0
LINE
8
BLACK
6
CONTINUOUS
10
197.629
20
-172.896
11
197.625
21
-172.892
0
LINE
8
BLACK
6
CONTINUOUS
10
197.625
20
-172.892
11
197.623
21
-172.888
0
LINE
8
BLACK
6
CONTINUOUS
10
197.623
20
-172.888
11
197.622
21
-172.883
0
LINE
8
BLACK
6
CONTINUOUS
10
197.622
20
-172.883
11
197.621
21
-172.878
0
LINE
8
BLACK
6
CONTINUOUS
10
197.621
20
-172.878
11
197.622
21
-172.874
0
LINE
8
BLACK
6
CONTINUOUS
10
197.622
20
-172.874
11
197.623
21
-172.869
0
LINE
8
BLACK
6
CONTINUOUS
10
197.623
20
-172.869
11
197.625
21
-172.865
0
LINE
8
BLACK
6
CONTINUOUS
10
197.625
20
-172.865
11
197.628
21
-172.862
0
LINE
8
BLACK
6
CONTINUOUS
10
197.628
20
-172.862
11
197.629
21
-172.861
0
LINE
8
BLACK
6
CONTINUOUS
10
197.629
20
-172.861
11
197.629
21
-172.86
0
LINE
8
BLACK
6
CONTINUOUS
10
197.629
20
-172.86
11
199.749
21
-170.74
0
LINE
8
BLACK
6
CONTINUOUS
10
199.749
20
-170.74
11
199.75
21
-170.739
0
LINE
8
BLACK
6
CONTINUOUS
10
199.75
20
-170.739
11
199.751
21
-170.739
0
LINE
8
BLACK
6
CONTINUOUS
10
199.751
20
-170.739
11
199.751
21
-170.739
0
LINE
8
BLACK
6
CONTINUOUS
10
199.751
20
-170.739
11
199.754
21
-170.736
0
LINE
8
BLACK
6
CONTINUOUS
10
199.754
20
-170.736
11
199.758
21
-170.734
0
LINE
8
BLACK
6
CONTINUOUS
10
199.758
20
-170.734
11
199.763
21
-170.733
0
LINE
8
BLACK
6
CONTINUOUS
10
199.763
20
-170.733
11
199.768
21
-170.732
0
LINE
8
BLACK
6
CONTINUOUS
10
199.768
20
-170.732
11
199.773
21
-170.733
0
LINE
8
BLACK
6
CONTINUOUS
10
197.682
20
-172.878
11
200.05
21
-175.247
0
LINE
8
BLACK
6
CONTINUOUS
10
200.05
20
-175.247
11
202.136
21
-173.161
0
LINE
8
BLACK
6
CONTINUOUS
10
202.136
20
-173.161
11
199.768
21
-170.793
0
LINE
8
BLACK
6
CONTINUOUS
10
199.768
20
-170.793
11
197.682
21
-172.878
0
LINE
8
BLACK
6
CONTINUOUS
10
233.89
20
-168.574
11
233.886
21
-168.572
0
LINE
8
BLACK
6
CONTINUOUS
10
233.886
20
-168.572
11
233.883
21
-168.569
0
LINE
8
BLACK
6
CONTINUOUS
10
233.883
20
-168.569
11
233.883
21
-168.569
0
LINE
8
BLACK
6
CONTINUOUS
10
233.883
20
-168.569
11
233.882
21
-168.569
0
LINE
8
BLACK
6
CONTINUOUS
10
233.882
20
-168.569
11
233.881
21
-168.568
0
LINE
8
BLACK
6
CONTINUOUS
10
233.881
20
-168.568
11
231.479
21
-166.165
0
LINE
8
BLACK
6
CONTINUOUS
10
231.479
20
-166.165
11
231.478
21
-166.164
0
LINE
8
BLACK
6
CONTINUOUS
10
231.478
20
-166.164
11
231.475
21
-166.161
0
LINE
8
BLACK
6
CONTINUOUS
10
231.475
20
-166.161
11
231.472
21
-166.156
0
LINE
8
BLACK
6
CONTINUOUS
10
231.472
20
-166.156
11
231.471
21
-166.151
0
LINE
8
BLACK
6
CONTINUOUS
10
231.471
20
-166.151
11
231.471
21
-166.147
0
LINE
8
BLACK
6
CONTINUOUS
10
231.471
20
-166.147
11
231.471
21
-166.142
0
LINE
8
BLACK
6
CONTINUOUS
10
231.471
20
-166.142
11
231.472
21
-166.137
0
LINE
8
BLACK
6
CONTINUOUS
10
231.472
20
-166.137
11
231.475
21
-166.133
0
LINE
8
BLACK
6
CONTINUOUS
10
231.475
20
-166.133
11
231.477
21
-166.13
0
LINE
8
BLACK
6
CONTINUOUS
10
231.477
20
-166.13
11
231.478
21
-166.129
0
LINE
8
BLACK
6
CONTINUOUS
10
231.478
20
-166.129
11
231.479
21
-166.128
0
LINE
8
BLACK
6
CONTINUOUS
10
231.479
20
-166.128
11
233.598
21
-164.008
0
LINE
8
BLACK
6
CONTINUOUS
10
233.598
20
-164.008
11
233.599
21
-164.008
0
LINE
8
BLACK
6
CONTINUOUS
10
233.599
20
-164.008
11
233.6
21
-164.007
0
LINE
8
BLACK
6
CONTINUOUS
10
233.6
20
-164.007
11
233.6
21
-164.007
0
LINE
8
BLACK
6
CONTINUOUS
10
233.6
20
-164.007
11
233.603
21
-164.004
0
LINE
8
BLACK
6
CONTINUOUS
10
233.603
20
-164.004
11
233.607
21
-164.002
0
LINE
8
BLACK
6
CONTINUOUS
10
233.607
20
-164.002
11
233.612
21
-164.001
0
LINE
8
BLACK
6
CONTINUOUS
10
233.612
20
-164.001
11
233.617
21
-164
0
LINE
8
BLACK
6
CONTINUOUS
10
233.617
20
-164
11
233.622
21
-164.001
0
LINE
8
BLACK
6
CONTINUOUS
10
233.622
20
-164.001
11
233.627
21
-164.002
0
LINE
8
BLACK
6
CONTINUOUS
10
233.627
20
-164.002
11
233.631
21
-164.004
0
LINE
8
BLACK
6
CONTINUOUS
10
233.631
20
-164.004
11
233.635
21
-164.008
0
LINE
8
BLACK
6
CONTINUOUS
10
233.635
20
-164.008
11
233.636
21
-164.008
0
LINE
8
BLACK
6
CONTINUOUS
10
233.636
20
-164.008
11
236.038
21
-166.411
0
LINE
8
BLACK
6
CONTINUOUS
10
236.038
20
-166.411
11
236.039
21
-166.412
0
LINE
8
BLACK
6
CONTINUOUS
10
236.039
20
-166.412
11
236.04
21
-166.413
0
LINE
8
BLACK
6
CONTINUOUS
10
236.04
20
-166.413
11
236.04
21
-166.413
0
LINE
8
BLACK
6
CONTINUOUS
10
236.04
20
-166.413
11
236.042
21
-166.415
0
LINE
8
BLACK
6
CONTINUOUS
10
236.042
20
-166.415
11
236.044
21
-166.42
0
LINE
8
BLACK
6
CONTINUOUS
10
236.044
20
-166.42
11
236.044
21
-166.42
0
LINE
8
BLACK
6
CONTINUOUS
10
236.044
20
-166.42
11
236.046
21
-166.425
0
LINE
8
BLACK
6
CONTINUOUS
10
236.046
20
-166.425
11
236.046
21
-166.429
0
LINE
8
BLACK
6
CONTINUOUS
10
236.046
20
-166.429
11
236.046
21
-166.434
0
LINE
8
BLACK
6
CONTINUOUS
10
236.046
20
-166.434
11
236.044
21
-166.439
0
LINE
8
BLACK
6
CONTINUOUS
10
236.044
20
-166.439
11
236.042
21
-166.443
0
LINE
8
BLACK
6
CONTINUOUS
10
236.042
20
-166.443
11
236.04
21
-166.446
0
LINE
8
BLACK
6
CONTINUOUS
10
236.04
20
-166.446
11
236.04
21
-166.446
0
LINE
8
BLACK
6
CONTINUOUS
10
236.04
20
-166.446
11
236.039
21
-166.447
0
LINE
8
BLACK
6
CONTINUOUS
10
236.039
20
-166.447
11
236.038
21
-166.448
0
LINE
8
BLACK
6
CONTINUOUS
10
236.038
20
-166.448
11
233.918
21
-168.568
0
LINE
8
BLACK
6
CONTINUOUS
10
233.918
20
-168.568
11
233.918
21
-168.569
0
LINE
8
BLACK
6
CONTINUOUS
10
233.918
20
-168.569
11
233.914
21
-168.572
0
LINE
8
BLACK
6
CONTINUOUS
10
233.914
20
-168.572
11
233.909
21
-168.574
0
LINE
8
BLACK
6
CONTINUOUS
10
233.909
20
-168.574
11
233.905
21
-168.575
0
LINE
8
BLACK
6
CONTINUOUS
10
233.905
20
-168.575
11
233.9
21
-168.576
0
LINE
8
BLACK
6
CONTINUOUS
10
233.9
20
-168.576
11
233.895
21
-168.575
0
LINE
8
BLACK
6
CONTINUOUS
10
233.895
20
-168.575
11
233.89
21
-168.574
0
LINE
8
BLACK
6
CONTINUOUS
10
231.531
20
-166.147
11
233.9
21
-168.515
0
LINE
8
BLACK
6
CONTINUOUS
10
233.9
20
-168.515
11
235.986
21
-166.429
0
LINE
8
BLACK
6
CONTINUOUS
10
235.986
20
-166.429
11
233.617
21
-164.061
0
LINE
8
BLACK
6
CONTINUOUS
10
233.617
20
-164.061
11
231.531
21
-166.147
0
LINE
8
BLACK
6
CONTINUOUS
10
119.172
20
-158.521
11
119.172
21
-158.521
0
LINE
8
BLACK
6
CONTINUOUS
10
119.172
20
-158.521
11
119.176
21
-158.522
0
LINE
8
BLACK
6
CONTINUOUS
10
119.176
20
-158.522
11
119.181
21
-158.523
0
LINE
8
BLACK
6
CONTINUOUS
10
119.181
20
-158.523
11
119.185
21
-158.525
0
LINE
8
BLACK
6
CONTINUOUS
10
119.185
20
-158.525
11
119.189
21
-158.529
0
LINE
8
BLACK
6
CONTINUOUS
10
119.189
20
-158.529
11
119.192
21
-158.532
0
LINE
8
BLACK
6
CONTINUOUS
10
119.192
20
-158.532
11
119.194
21
-158.537
0
LINE
8
BLACK
6
CONTINUOUS
10
119.194
20
-158.537
11
119.196
21
-158.541
0
LINE
8
BLACK
6
CONTINUOUS
10
119.196
20
-158.541
11
119.196
21
-158.546
0
LINE
8
BLACK
6
CONTINUOUS
10
119.196
20
-158.546
11
119.196
21
-158.548
0
LINE
8
BLACK
6
CONTINUOUS
10
119.196
20
-158.548
11
119.196
21
-161.545
0
LINE
8
BLACK
6
CONTINUOUS
10
119.196
20
-161.545
11
119.196
21
-161.546
0
LINE
8
BLACK
6
CONTINUOUS
10
119.196
20
-161.546
11
119.196
21
-161.548
0
LINE
8
BLACK
6
CONTINUOUS
10
119.196
20
-161.548
11
119.196
21
-161.548
0
LINE
8
BLACK
6
CONTINUOUS
10
119.196
20
-161.548
11
119.196
21
-161.551
0
LINE
8
BLACK
6
CONTINUOUS
10
119.196
20
-161.551
11
119.194
21
-161.556
0
LINE
8
BLACK
6
CONTINUOUS
10
119.194
20
-161.556
11
119.192
21
-161.56
0
LINE
8
BLACK
6
CONTINUOUS
10
119.192
20
-161.56
11
119.189
21
-161.564
0
LINE
8
BLACK
6
CONTINUOUS
10
119.189
20
-161.564
11
119.185
21
-161.567
0
LINE
8
BLACK
6
CONTINUOUS
10
119.185
20
-161.567
11
119.181
21
-161.57
0
LINE
8
BLACK
6
CONTINUOUS
10
119.181
20
-161.57
11
119.176
21
-161.571
0
LINE
8
BLACK
6
CONTINUOUS
10
119.176
20
-161.571
11
119.171
21
-161.571
0
LINE
8
BLACK
6
CONTINUOUS
10
119.171
20
-161.571
11
119.17
21
-161.571
0
LINE
8
BLACK
6
CONTINUOUS
10
119.17
20
-161.571
11
115.772
21
-161.571
0
LINE
8
BLACK
6
CONTINUOUS
10
115.772
20
-161.571
11
115.771
21
-161.571
0
LINE
8
BLACK
6
CONTINUOUS
10
115.771
20
-161.571
11
115.766
21
-161.571
0
LINE
8
BLACK
6
CONTINUOUS
10
115.766
20
-161.571
11
115.762
21
-161.57
0
LINE
8
BLACK
6
CONTINUOUS
10
115.762
20
-161.57
11
115.757
21
-161.567
0
LINE
8
BLACK
6
CONTINUOUS
10
115.757
20
-161.567
11
115.753
21
-161.564
0
LINE
8
BLACK
6
CONTINUOUS
10
115.753
20
-161.564
11
115.75
21
-161.56
0
LINE
8
BLACK
6
CONTINUOUS
10
115.75
20
-161.56
11
115.748
21
-161.556
0
LINE
8
BLACK
6
CONTINUOUS
10
115.748
20
-161.556
11
115.747
21
-161.551
0
LINE
8
BLACK
6
CONTINUOUS
10
115.747
20
-161.551
11
115.746
21
-161.546
0
LINE
8
BLACK
6
CONTINUOUS
10
115.746
20
-161.546
11
115.746
21
-161.545
0
LINE
8
BLACK
6
CONTINUOUS
10
115.746
20
-161.545
11
115.746
21
-158.548
0
LINE
8
BLACK
6
CONTINUOUS
10
115.746
20
-158.548
11
115.746
21
-158.546
0
LINE
8
BLACK
6
CONTINUOUS
10
115.746
20
-158.546
11
115.747
21
-158.541
0
LINE
8
BLACK
6
CONTINUOUS
10
115.747
20
-158.541
11
115.748
21
-158.537
0
LINE
8
BLACK
6
CONTINUOUS
10
115.748
20
-158.537
11
115.75
21
-158.532
0
LINE
8
BLACK
6
CONTINUOUS
10
115.75
20
-158.532
11
115.753
21
-158.529
0
LINE
8
BLACK
6
CONTINUOUS
10
115.753
20
-158.529
11
115.757
21
-158.525
0
LINE
8
BLACK
6
CONTINUOUS
10
115.757
20
-158.525
11
115.762
21
-158.523
0
LINE
8
BLACK
6
CONTINUOUS
10
115.762
20
-158.523
11
115.766
21
-158.522
0
LINE
8
BLACK
6
CONTINUOUS
10
115.766
20
-158.522
11
115.77
21
-158.521
0
LINE
8
BLACK
6
CONTINUOUS
10
115.77
20
-158.521
11
115.77
21
-158.521
0
LINE
8
BLACK
6
CONTINUOUS
10
115.77
20
-158.521
11
115.771
21
-158.521
0
LINE
8
BLACK
6
CONTINUOUS
10
115.771
20
-158.521
11
115.772
21
-158.521
0
LINE
8
BLACK
6
CONTINUOUS
10
115.772
20
-158.521
11
119.17
21
-158.521
0
LINE
8
BLACK
6
CONTINUOUS
10
119.17
20
-158.521
11
119.171
21
-158.521
0
LINE
8
BLACK
6
CONTINUOUS
10
119.171
20
-158.521
11
119.172
21
-158.521
0
LINE
8
BLACK
6
CONTINUOUS
10
115.796
20
-158.571
11
115.796
21
-161.521
0
LINE
8
BLACK
6
CONTINUOUS
10
115.796
20
-161.521
11
119.146
21
-161.521
0
LINE
8
BLACK
6
CONTINUOUS
10
119.146
20
-161.521
11
119.146
21
-158.571
0
LINE
8
BLACK
6
CONTINUOUS
10
119.146
20
-158.571
11
115.796
21
-158.571
0
LINE
8
BLACK
6
CONTINUOUS
10
100.122
20
-158.521
11
100.122
21
-158.521
0
LINE
8
BLACK
6
CONTINUOUS
10
100.122
20
-158.521
11
100.126
21
-158.522
0
LINE
8
BLACK
6
CONTINUOUS
10
100.126
20
-158.522
11
100.131
21
-158.523
0
LINE
8
BLACK
6
CONTINUOUS
10
100.131
20
-158.523
11
100.135
21
-158.525
0
LINE
8
BLACK
6
CONTINUOUS
10
100.135
20
-158.525
11
100.139
21
-158.529
0
LINE
8
BLACK
6
CONTINUOUS
10
100.139
20
-158.529
11
100.142
21
-158.532
0
LINE
8
BLACK
6
CONTINUOUS
10
100.142
20
-158.532
11
100.144
21
-158.537
0
LINE
8
BLACK
6
CONTINUOUS
10
100.144
20
-158.537
11
100.146
21
-158.541
0
LINE
8
BLACK
6
CONTINUOUS
10
100.146
20
-158.541
11
100.146
21
-158.546
0
LINE
8
BLACK
6
CONTINUOUS
10
100.146
20
-158.546
11
100.146
21
-158.548
0
LINE
8
BLACK
6
CONTINUOUS
10
100.146
20
-158.548
11
100.146
21
-161.545
0
LINE
8
BLACK
6
CONTINUOUS
10
100.146
20
-161.545
11
100.146
21
-161.546
0
LINE
8
BLACK
6
CONTINUOUS
10
100.146
20
-161.546
11
100.146
21
-161.548
0
LINE
8
BLACK
6
CONTINUOUS
10
100.146
20
-161.548
11
100.146
21
-161.548
0
LINE
8
BLACK
6
CONTINUOUS
10
100.146
20
-161.548
11
100.146
21
-161.551
0
LINE
8
BLACK
6
CONTINUOUS
10
100.146
20
-161.551
11
100.144
21
-161.556
0
LINE
8
BLACK
6
CONTINUOUS
10
100.144
20
-161.556
11
100.142
21
-161.56
0
LINE
8
BLACK
6
CONTINUOUS
10
100.142
20
-161.56
11
100.139
21
-161.564
0
LINE
8
BLACK
6
CONTINUOUS
10
100.139
20
-161.564
11
100.135
21
-161.567
0
LINE
8
BLACK
6
CONTINUOUS
10
100.135
20
-161.567
11
100.131
21
-161.57
0
LINE
8
BLACK
6
CONTINUOUS
10
100.131
20
-161.57
11
100.126
21
-161.571
0
LINE
8
BLACK
6
CONTINUOUS
10
100.126
20
-161.571
11
100.121
21
-161.571
0
LINE
8
BLACK
6
CONTINUOUS
10
100.121
20
-161.571
11
100.12
21
-161.571
0
LINE
8
BLACK
6
CONTINUOUS
10
100.12
20
-161.571
11
96.7225
21
-161.571
0
LINE
8
BLACK
6
CONTINUOUS
10
96.7225
20
-161.571
11
96.7213
21
-161.571
0
LINE
8
BLACK
6
CONTINUOUS
10
96.7213
20
-161.571
11
96.7164
21
-161.571
0
LINE
8
BLACK
6
CONTINUOUS
10
96.7164
20
-161.571
11
96.7116
21
-161.57
0
LINE
8
BLACK
6
CONTINUOUS
10
96.7116
20
-161.57
11
96.7073
21
-161.567
0
LINE
8
BLACK
6
CONTINUOUS
10
96.7073
20
-161.567
11
96.7035
21
-161.564
0
LINE
8
BLACK
6
CONTINUOUS
10
96.7035
20
-161.564
11
96.7004
21
-161.56
0
LINE
8
BLACK
6
CONTINUOUS
10
96.7004
20
-161.56
11
96.6981
21
-161.556
0
LINE
8
BLACK
6
CONTINUOUS
10
96.6981
20
-161.556
11
96.6966
21
-161.551
0
LINE
8
BLACK
6
CONTINUOUS
10
96.6966
20
-161.551
11
96.6961
21
-161.546
0
LINE
8
BLACK
6
CONTINUOUS
10
96.6961
20
-161.546
11
96.6963
21
-161.545
0
LINE
8
BLACK
6
CONTINUOUS
10
96.6963
20
-161.545
11
96.6963
21
-158.548
0
LINE
8
BLACK
6
CONTINUOUS
10
96.6963
20
-158.548
11
96.6961
21
-158.546
0
LINE
8
BLACK
6
CONTINUOUS
10
96.6961
20
-158.546
11
96.6966
21
-158.541
0
LINE
8
BLACK
6
CONTINUOUS
10
96.6966
20
-158.541
11
96.6981
21
-158.537
0
LINE
8
BLACK
6
CONTINUOUS
10
96.6981
20
-158.537
11
96.7004
21
-158.532
0
LINE
8
BLACK
6
CONTINUOUS
10
96.7004
20
-158.532
11
96.7035
21
-158.529
0
LINE
8
BLACK
6
CONTINUOUS
10
96.7035
20
-158.529
11
96.7073
21
-158.525
0
LINE
8
BLACK
6
CONTINUOUS
10
96.7073
20
-158.525
11
96.7116
21
-158.523
0
LINE
8
BLACK
6
CONTINUOUS
10
96.7116
20
-158.523
11
96.7164
21
-158.522
0
LINE
8
BLACK
6
CONTINUOUS
10
96.7164
20
-158.522
11
96.72
21
-158.521
0
LINE
8
BLACK
6
CONTINUOUS
10
96.72
20
-158.521
11
96.72
21
-158.521
0
LINE
8
BLACK
6
CONTINUOUS
10
96.72
20
-158.521
11
96.7213
21
-158.521
0
LINE
8
BLACK
6
CONTINUOUS
10
96.7213
20
-158.521
11
96.7225
21
-158.521
0
LINE
8
BLACK
6
CONTINUOUS
10
96.7225
20
-158.521
11
100.12
21
-158.521
0
LINE
8
BLACK
6
CONTINUOUS
10
100.12
20
-158.521
11
100.121
21
-158.521
0
LINE
8
BLACK
6
CONTINUOUS
10
100.121
20
-158.521
11
100.122
21
-158.521
0
LINE
8
BLACK
6
CONTINUOUS
10
96.7463
20
-158.571
11
96.7463
21
-161.521
0
LINE
8
BLACK
6
CONTINUOUS
10
96.7463
20
-161.521
11
100.096
21
-161.521
0
LINE
8
BLACK
6
CONTINUOUS
10
100.096
20
-161.521
11
100.096
21
-158.571
0
LINE
8
BLACK
6
CONTINUOUS
10
100.096
20
-158.571
11
96.7463
21
-158.571
0
LINE
8
BLACK
6
CONTINUOUS
10
138.222
20
-156.14
11
138.222
21
-156.14
0
LINE
8
BLACK
6
CONTINUOUS
10
138.222
20
-156.14
11
138.226
21
-156.14
0
LINE
8
BLACK
6
CONTINUOUS
10
138.226
20
-156.14
11
138.231
21
-156.142
0
LINE
8
BLACK
6
CONTINUOUS
10
138.231
20
-156.142
11
138.235
21
-156.144
0
LINE
8
BLACK
6
CONTINUOUS
10
138.235
20
-156.144
11
138.239
21
-156.147
0
LINE
8
BLACK
6
CONTINUOUS
10
138.239
20
-156.147
11
138.242
21
-156.151
0
LINE
8
BLACK
6
CONTINUOUS
10
138.242
20
-156.151
11
138.244
21
-156.155
0
LINE
8
BLACK
6
CONTINUOUS
10
138.244
20
-156.155
11
138.246
21
-156.16
0
LINE
8
BLACK
6
CONTINUOUS
10
138.246
20
-156.16
11
138.246
21
-156.165
0
LINE
8
BLACK
6
CONTINUOUS
10
138.246
20
-156.165
11
138.246
21
-156.166
0
LINE
8
BLACK
6
CONTINUOUS
10
138.246
20
-156.166
11
138.246
21
-159.164
0
LINE
8
BLACK
6
CONTINUOUS
10
138.246
20
-159.164
11
138.246
21
-159.165
0
LINE
8
BLACK
6
CONTINUOUS
10
138.246
20
-159.165
11
138.246
21
-159.166
0
LINE
8
BLACK
6
CONTINUOUS
10
138.246
20
-159.166
11
138.246
21
-159.166
0
LINE
8
BLACK
6
CONTINUOUS
10
138.246
20
-159.166
11
138.246
21
-159.17
0
LINE
8
BLACK
6
CONTINUOUS
10
138.246
20
-159.17
11
138.244
21
-159.175
0
LINE
8
BLACK
6
CONTINUOUS
10
138.244
20
-159.175
11
138.242
21
-159.179
0
LINE
8
BLACK
6
CONTINUOUS
10
138.242
20
-159.179
11
138.239
21
-159.183
0
LINE
8
BLACK
6
CONTINUOUS
10
138.239
20
-159.183
11
138.235
21
-159.186
0
LINE
8
BLACK
6
CONTINUOUS
10
138.235
20
-159.186
11
138.231
21
-159.188
0
LINE
8
BLACK
6
CONTINUOUS
10
138.231
20
-159.188
11
138.226
21
-159.19
0
LINE
8
BLACK
6
CONTINUOUS
10
138.226
20
-159.19
11
138.221
21
-159.19
0
LINE
8
BLACK
6
CONTINUOUS
10
138.221
20
-159.19
11
138.22
21
-159.19
0
LINE
8
BLACK
6
CONTINUOUS
10
138.22
20
-159.19
11
134.822
21
-159.19
0
LINE
8
BLACK
6
CONTINUOUS
10
134.822
20
-159.19
11
134.821
21
-159.19
0
LINE
8
BLACK
6
CONTINUOUS
10
134.821
20
-159.19
11
134.816
21
-159.19
0
LINE
8
BLACK
6
CONTINUOUS
10
134.816
20
-159.19
11
134.812
21
-159.188
0
LINE
8
BLACK
6
CONTINUOUS
10
134.812
20
-159.188
11
134.807
21
-159.186
0
LINE
8
BLACK
6
CONTINUOUS
10
134.807
20
-159.186
11
134.803
21
-159.183
0
LINE
8
BLACK
6
CONTINUOUS
10
134.803
20
-159.183
11
134.8
21
-159.179
0
LINE
8
BLACK
6
CONTINUOUS
10
134.8
20
-159.179
11
134.798
21
-159.175
0
LINE
8
BLACK
6
CONTINUOUS
10
134.798
20
-159.175
11
134.797
21
-159.17
0
LINE
8
BLACK
6
CONTINUOUS
10
134.797
20
-159.17
11
134.796
21
-159.165
0
LINE
8
BLACK
6
CONTINUOUS
10
134.796
20
-159.165
11
134.796
21
-159.164
0
LINE
8
BLACK
6
CONTINUOUS
10
134.796
20
-159.164
11
134.796
21
-156.166
0
LINE
8
BLACK
6
CONTINUOUS
10
134.796
20
-156.166
11
134.796
21
-156.165
0
LINE
8
BLACK
6
CONTINUOUS
10
134.796
20
-156.165
11
134.797
21
-156.16
0
LINE
8
BLACK
6
CONTINUOUS
10
134.797
20
-156.16
11
134.798
21
-156.155
0
LINE
8
BLACK
6
CONTINUOUS
10
134.798
20
-156.155
11
134.8
21
-156.151
0
LINE
8
BLACK
6
CONTINUOUS
10
134.8
20
-156.151
11
134.803
21
-156.147
0
LINE
8
BLACK
6
CONTINUOUS
10
134.803
20
-156.147
11
134.807
21
-156.144
0
LINE
8
BLACK
6
CONTINUOUS
10
134.807
20
-156.144
11
134.812
21
-156.142
0
LINE
8
BLACK
6
CONTINUOUS
10
134.812
20
-156.142
11
134.816
21
-156.14
0
LINE
8
BLACK
6
CONTINUOUS
10
134.816
20
-156.14
11
134.82
21
-156.14
0
LINE
8
BLACK
6
CONTINUOUS
10
134.82
20
-156.14
11
134.82
21
-156.14
0
LINE
8
BLACK
6
CONTINUOUS
10
134.82
20
-156.14
11
134.821
21
-156.14
0
LINE
8
BLACK
6
CONTINUOUS
10
134.821
20
-156.14
11
134.822
21
-156.14
0
LINE
8
BLACK
6
CONTINUOUS
10
134.822
20
-156.14
11
138.22
21
-156.14
0
LINE
8
BLACK
6
CONTINUOUS
10
138.22
20
-156.14
11
138.221
21
-156.14
0
LINE
8
BLACK
6
CONTINUOUS
10
138.221
20
-156.14
11
138.222
21
-156.14
0
LINE
8
BLACK
6
CONTINUOUS
10
134.846
20
-156.19
11
134.846
21
-159.14
0
LINE
8
BLACK
6
CONTINUOUS
10
134.846
20
-159.14
11
138.196
21
-159.14
0
LINE
8
BLACK
6
CONTINUOUS
10
138.196
20
-159.14
11
138.196
21
-156.19
0
LINE
8
BLACK
6
CONTINUOUS
10
138.196
20
-156.19
11
134.846
21
-156.19
0
LINE
8
BLACK
6
CONTINUOUS
10
176.322
20
-156.14
11
176.322
21
-156.14
0
LINE
8
BLACK
6
CONTINUOUS
10
176.322
20
-156.14
11
176.326
21
-156.14
0
LINE
8
BLACK
6
CONTINUOUS
10
176.326
20
-156.14
11
176.331
21
-156.142
0
LINE
8
BLACK
6
CONTINUOUS
10
176.331
20
-156.142
11
176.335
21
-156.144
0
LINE
8
BLACK
6
CONTINUOUS
10
176.335
20
-156.144
11
176.339
21
-156.147
0
LINE
8
BLACK
6
CONTINUOUS
10
176.339
20
-156.147
11
176.342
21
-156.151
0
LINE
8
BLACK
6
CONTINUOUS
10
176.342
20
-156.151
11
176.344
21
-156.155
0
LINE
8
BLACK
6
CONTINUOUS
10
176.344
20
-156.155
11
176.346
21
-156.16
0
LINE
8
BLACK
6
CONTINUOUS
10
176.346
20
-156.16
11
176.346
21
-156.165
0
LINE
8
BLACK
6
CONTINUOUS
10
176.346
20
-156.165
11
176.346
21
-156.166
0
LINE
8
BLACK
6
CONTINUOUS
10
176.346
20
-156.166
11
176.346
21
-159.164
0
LINE
8
BLACK
6
CONTINUOUS
10
176.346
20
-159.164
11
176.346
21
-159.165
0
LINE
8
BLACK
6
CONTINUOUS
10
176.346
20
-159.165
11
176.346
21
-159.166
0
LINE
8
BLACK
6
CONTINUOUS
10
176.346
20
-159.166
11
176.346
21
-159.166
0
LINE
8
BLACK
6
CONTINUOUS
10
176.346
20
-159.166
11
176.346
21
-159.17
0
LINE
8
BLACK
6
CONTINUOUS
10
176.346
20
-159.17
11
176.344
21
-159.175
0
LINE
8
BLACK
6
CONTINUOUS
10
176.344
20
-159.175
11
176.342
21
-159.179
0
LINE
8
BLACK
6
CONTINUOUS
10
176.342
20
-159.179
11
176.339
21
-159.183
0
LINE
8
BLACK
6
CONTINUOUS
10
176.339
20
-159.183
11
176.335
21
-159.186
0
LINE
8
BLACK
6
CONTINUOUS
10
176.335
20
-159.186
11
176.331
21
-159.188
0
LINE
8
BLACK
6
CONTINUOUS
10
176.331
20
-159.188
11
176.326
21
-159.19
0
LINE
8
BLACK
6
CONTINUOUS
10
176.326
20
-159.19
11
176.321
21
-159.19
0
LINE
8
BLACK
6
CONTINUOUS
10
176.321
20
-159.19
11
176.32
21
-159.19
0
LINE
8
BLACK
6
CONTINUOUS
10
176.32
20
-159.19
11
172.922
21
-159.19
0
LINE
8
BLACK
6
CONTINUOUS
10
172.922
20
-159.19
11
172.921
21
-159.19
0
LINE
8
BLACK
6
CONTINUOUS
10
172.921
20
-159.19
11
172.916
21
-159.19
0
LINE
8
BLACK
6
CONTINUOUS
10
172.916
20
-159.19
11
172.912
21
-159.188
0
LINE
8
BLACK
6
CONTINUOUS
10
172.912
20
-159.188
11
172.907
21
-159.186
0
LINE
8
BLACK
6
CONTINUOUS
10
172.907
20
-159.186
11
172.903
21
-159.183
0
LINE
8
BLACK
6
CONTINUOUS
10
172.903
20
-159.183
11
172.9
21
-159.179
0
LINE
8
BLACK
6
CONTINUOUS
10
172.9
20
-159.179
11
172.898
21
-159.175
0
LINE
8
BLACK
6
CONTINUOUS
10
172.898
20
-159.175
11
172.897
21
-159.17
0
LINE
8
BLACK
6
CONTINUOUS
10
172.897
20
-159.17
11
172.896
21
-159.165
0
LINE
8
BLACK
6
CONTINUOUS
10
172.896
20
-159.165
11
172.896
21
-159.164
0
LINE
8
BLACK
6
CONTINUOUS
10
172.896
20
-159.164
11
172.896
21
-156.166
0
LINE
8
BLACK
6
CONTINUOUS
10
172.896
20
-156.166
11
172.896
21
-156.165
0
LINE
8
BLACK
6
CONTINUOUS
10
172.896
20
-156.165
11
172.897
21
-156.16
0
LINE
8
BLACK
6
CONTINUOUS
10
172.897
20
-156.16
11
172.898
21
-156.155
0
LINE
8
BLACK
6
CONTINUOUS
10
172.898
20
-156.155
11
172.9
21
-156.151
0
LINE
8
BLACK
6
CONTINUOUS
10
172.9
20
-156.151
11
172.903
21
-156.147
0
LINE
8
BLACK
6
CONTINUOUS
10
172.903
20
-156.147
11
172.907
21
-156.144
0
LINE
8
BLACK
6
CONTINUOUS
10
172.907
20
-156.144
11
172.912
21
-156.142
0
LINE
8
BLACK
6
CONTINUOUS
10
172.912
20
-156.142
11
172.916
21
-156.14
0
LINE
8
BLACK
6
CONTINUOUS
10
172.916
20
-156.14
11
172.92
21
-156.14
0
LINE
8
BLACK
6
CONTINUOUS
10
172.92
20
-156.14
11
172.92
21
-156.14
0
LINE
8
BLACK
6
CONTINUOUS
10
172.92
20
-156.14
11
172.921
21
-156.14
0
LINE
8
BLACK
6
CONTINUOUS
10
172.921
20
-156.14
11
172.922
21
-156.14
0
LINE
8
BLACK
6
CONTINUOUS
10
172.922
20
-156.14
11
176.32
21
-156.14
0
LINE
8
BLACK
6
CONTINUOUS
10
176.32
20
-156.14
11
176.321
21
-156.14
0
LINE
8
BLACK
6
CONTINUOUS
10
176.321
20
-156.14
11
176.322
21
-156.14
0
LINE
8
BLACK
6
CONTINUOUS
10
172.946
20
-156.19
11
172.946
21
-159.14
0
LINE
8
BLACK
6
CONTINUOUS
10
172.946
20
-159.14
11
176.296
21
-159.14
0
LINE
8
BLACK
6
CONTINUOUS
10
176.296
20
-159.14
11
176.296
21
-156.19
0
LINE
8
BLACK
6
CONTINUOUS
10
176.296
20
-156.19
11
172.946
21
-156.19
0
LINE
8
BLACK
6
CONTINUOUS
10
157.269
20
-153.759
11
157.269
21
-153.759
0
LINE
8
BLACK
6
CONTINUOUS
10
157.269
20
-153.759
11
157.272
21
-153.759
0
LINE
8
BLACK
6
CONTINUOUS
10
157.272
20
-153.759
11
157.277
21
-153.761
0
LINE
8
BLACK
6
CONTINUOUS
10
157.277
20
-153.761
11
157.281
21
-153.763
0
LINE
8
BLACK
6
CONTINUOUS
10
157.281
20
-153.763
11
157.285
21
-153.766
0
LINE
8
BLACK
6
CONTINUOUS
10
157.285
20
-153.766
11
157.288
21
-153.77
0
LINE
8
BLACK
6
CONTINUOUS
10
157.288
20
-153.77
11
157.291
21
-153.774
0
LINE
8
BLACK
6
CONTINUOUS
10
157.291
20
-153.774
11
157.292
21
-153.779
0
LINE
8
BLACK
6
CONTINUOUS
10
157.292
20
-153.779
11
157.293
21
-153.784
0
LINE
8
BLACK
6
CONTINUOUS
10
157.293
20
-153.784
11
157.293
21
-153.785
0
LINE
8
BLACK
6
CONTINUOUS
10
157.293
20
-153.785
11
157.293
21
-156.783
0
LINE
8
BLACK
6
CONTINUOUS
10
157.293
20
-156.783
11
157.293
21
-156.784
0
LINE
8
BLACK
6
CONTINUOUS
10
157.293
20
-156.784
11
157.293
21
-156.785
0
LINE
8
BLACK
6
CONTINUOUS
10
157.293
20
-156.785
11
157.293
21
-156.785
0
LINE
8
BLACK
6
CONTINUOUS
10
157.293
20
-156.785
11
157.292
21
-156.789
0
LINE
8
BLACK
6
CONTINUOUS
10
157.292
20
-156.789
11
157.291
21
-156.793
0
LINE
8
BLACK
6
CONTINUOUS
10
157.291
20
-156.793
11
157.288
21
-156.798
0
LINE
8
BLACK
6
CONTINUOUS
10
157.288
20
-156.798
11
157.285
21
-156.802
0
LINE
8
BLACK
6
CONTINUOUS
10
157.285
20
-156.802
11
157.281
21
-156.805
0
LINE
8
BLACK
6
CONTINUOUS
10
157.281
20
-156.805
11
157.277
21
-156.807
0
LINE
8
BLACK
6
CONTINUOUS
10
157.277
20
-156.807
11
157.272
21
-156.808
0
LINE
8
BLACK
6
CONTINUOUS
10
157.272
20
-156.808
11
157.268
21
-156.809
0
LINE
8
BLACK
6
CONTINUOUS
10
157.268
20
-156.809
11
157.266
21
-156.809
0
LINE
8
BLACK
6
CONTINUOUS
10
157.266
20
-156.809
11
153.869
21
-156.809
0
LINE
8
BLACK
6
CONTINUOUS
10
153.869
20
-156.809
11
153.868
21
-156.809
0
LINE
8
BLACK
6
CONTINUOUS
10
153.868
20
-156.809
11
153.863
21
-156.808
0
LINE
8
BLACK
6
CONTINUOUS
10
153.863
20
-156.808
11
153.858
21
-156.807
0
LINE
8
BLACK
6
CONTINUOUS
10
153.858
20
-156.807
11
153.854
21
-156.805
0
LINE
8
BLACK
6
CONTINUOUS
10
153.854
20
-156.805
11
153.85
21
-156.802
0
LINE
8
BLACK
6
CONTINUOUS
10
153.85
20
-156.802
11
153.847
21
-156.798
0
LINE
8
BLACK
6
CONTINUOUS
10
153.847
20
-156.798
11
153.844
21
-156.793
0
LINE
8
BLACK
6
CONTINUOUS
10
153.844
20
-156.793
11
153.843
21
-156.789
0
LINE
8
BLACK
6
CONTINUOUS
10
153.843
20
-156.789
11
153.842
21
-156.784
0
LINE
8
BLACK
6
CONTINUOUS
10
153.842
20
-156.784
11
153.843
21
-156.783
0
LINE
8
BLACK
6
CONTINUOUS
10
153.843
20
-156.783
11
153.843
21
-153.785
0
LINE
8
BLACK
6
CONTINUOUS
10
153.843
20
-153.785
11
153.842
21
-153.784
0
LINE
8
BLACK
6
CONTINUOUS
10
153.842
20
-153.784
11
153.843
21
-153.779
0
LINE
8
BLACK
6
CONTINUOUS
10
153.843
20
-153.779
11
153.844
21
-153.774
0
LINE
8
BLACK
6
CONTINUOUS
10
153.844
20
-153.774
11
153.847
21
-153.77
0
LINE
8
BLACK
6
CONTINUOUS
10
153.847
20
-153.77
11
153.85
21
-153.766
0
LINE
8
BLACK
6
CONTINUOUS
10
153.85
20
-153.766
11
153.854
21
-153.763
0
LINE
8
BLACK
6
CONTINUOUS
10
153.854
20
-153.763
11
153.858
21
-153.761
0
LINE
8
BLACK
6
CONTINUOUS
10
153.858
20
-153.761
11
153.863
21
-153.759
0
LINE
8
BLACK
6
CONTINUOUS
10
153.863
20
-153.759
11
153.866
21
-153.759
0
LINE
8
BLACK
6
CONTINUOUS
10
153.866
20
-153.759
11
153.866
21
-153.759
0
LINE
8
BLACK
6
CONTINUOUS
10
153.866
20
-153.759
11
153.868
21
-153.759
0
LINE
8
BLACK
6
CONTINUOUS
10
153.868
20
-153.759
11
153.869
21
-153.759
0
LINE
8
BLACK
6
CONTINUOUS
10
153.869
20
-153.759
11
157.266
21
-153.759
0
LINE
8
BLACK
6
CONTINUOUS
10
157.266
20
-153.759
11
157.268
21
-153.759
0
LINE
8
BLACK
6
CONTINUOUS
10
157.268
20
-153.759
11
157.269
21
-153.759
0
LINE
8
BLACK
6
CONTINUOUS
10
153.893
20
-153.809
11
153.893
21
-156.759
0
LINE
8
BLACK
6
CONTINUOUS
10
153.893
20
-156.759
11
157.243
21
-156.759
0
LINE
8
BLACK
6
CONTINUOUS
10
157.243
20
-156.759
11
157.243
21
-153.809
0
LINE
8
BLACK
6
CONTINUOUS
10
157.243
20
-153.809
11
153.893
21
-153.809
0
LINE
8
BLACK
6
CONTINUOUS
10
195.374
20
-139.472
11
195.374
21
-139.472
0
LINE
8
BLACK
6
CONTINUOUS
10
195.374
20
-139.472
11
195.377
21
-139.473
0
LINE
8
BLACK
6
CONTINUOUS
10
195.377
20
-139.473
11
195.382
21
-139.474
0
LINE
8
BLACK
6
CONTINUOUS
10
195.382
20
-139.474
11
195.386
21
-139.477
0
LINE
8
BLACK
6
CONTINUOUS
10
195.386
20
-139.477
11
195.39
21
-139.48
0
LINE
8
BLACK
6
CONTINUOUS
10
195.39
20
-139.48
11
195.393
21
-139.484
0
LINE
8
BLACK
6
CONTINUOUS
10
195.393
20
-139.484
11
195.396
21
-139.488
0
LINE
8
BLACK
6
CONTINUOUS
10
195.396
20
-139.488
11
195.397
21
-139.493
0
LINE
8
BLACK
6
CONTINUOUS
10
195.397
20
-139.493
11
195.398
21
-139.497
0
LINE
8
BLACK
6
CONTINUOUS
10
195.398
20
-139.497
11
195.397
21
-139.499
0
LINE
8
BLACK
6
CONTINUOUS
10
195.397
20
-139.499
11
195.397
21
-142.496
0
LINE
8
BLACK
6
CONTINUOUS
10
195.397
20
-142.496
11
195.398
21
-142.497
0
LINE
8
BLACK
6
CONTINUOUS
10
195.398
20
-142.497
11
195.397
21
-142.499
0
LINE
8
BLACK
6
CONTINUOUS
10
195.397
20
-142.499
11
195.397
21
-142.499
0
LINE
8
BLACK
6
CONTINUOUS
10
195.397
20
-142.499
11
195.397
21
-142.502
0
LINE
8
BLACK
6
CONTINUOUS
10
195.397
20
-142.502
11
195.396
21
-142.507
0
LINE
8
BLACK
6
CONTINUOUS
10
195.396
20
-142.507
11
195.393
21
-142.511
0
LINE
8
BLACK
6
CONTINUOUS
10
195.393
20
-142.511
11
195.39
21
-142.515
0
LINE
8
BLACK
6
CONTINUOUS
10
195.39
20
-142.515
11
195.386
21
-142.518
0
LINE
8
BLACK
6
CONTINUOUS
10
195.386
20
-142.518
11
195.382
21
-142.521
0
LINE
8
BLACK
6
CONTINUOUS
10
195.382
20
-142.521
11
195.377
21
-142.522
0
LINE
8
BLACK
6
CONTINUOUS
10
195.377
20
-142.522
11
195.372
21
-142.523
0
LINE
8
BLACK
6
CONTINUOUS
10
195.372
20
-142.523
11
195.371
21
-142.522
0
LINE
8
BLACK
6
CONTINUOUS
10
195.371
20
-142.522
11
191.974
21
-142.522
0
LINE
8
BLACK
6
CONTINUOUS
10
191.974
20
-142.522
11
191.972
21
-142.523
0
LINE
8
BLACK
6
CONTINUOUS
10
191.972
20
-142.523
11
191.968
21
-142.522
0
LINE
8
BLACK
6
CONTINUOUS
10
191.968
20
-142.522
11
191.963
21
-142.521
0
LINE
8
BLACK
6
CONTINUOUS
10
191.963
20
-142.521
11
191.959
21
-142.518
0
LINE
8
BLACK
6
CONTINUOUS
10
191.959
20
-142.518
11
191.955
21
-142.515
0
LINE
8
BLACK
6
CONTINUOUS
10
191.955
20
-142.515
11
191.952
21
-142.511
0
LINE
8
BLACK
6
CONTINUOUS
10
191.952
20
-142.511
11
191.949
21
-142.507
0
LINE
8
BLACK
6
CONTINUOUS
10
191.949
20
-142.507
11
191.948
21
-142.502
0
LINE
8
BLACK
6
CONTINUOUS
10
191.948
20
-142.502
11
191.947
21
-142.497
0
LINE
8
BLACK
6
CONTINUOUS
10
191.947
20
-142.497
11
191.947
21
-142.496
0
LINE
8
BLACK
6
CONTINUOUS
10
191.947
20
-142.496
11
191.947
21
-139.499
0
LINE
8
BLACK
6
CONTINUOUS
10
191.947
20
-139.499
11
191.947
21
-139.497
0
LINE
8
BLACK
6
CONTINUOUS
10
191.947
20
-139.497
11
191.948
21
-139.493
0
LINE
8
BLACK
6
CONTINUOUS
10
191.948
20
-139.493
11
191.949
21
-139.488
0
LINE
8
BLACK
6
CONTINUOUS
10
191.949
20
-139.488
11
191.952
21
-139.484
0
LINE
8
BLACK
6
CONTINUOUS
10
191.952
20
-139.484
11
191.955
21
-139.48
0
LINE
8
BLACK
6
CONTINUOUS
10
191.955
20
-139.48
11
191.959
21
-139.477
0
LINE
8
BLACK
6
CONTINUOUS
10
191.959
20
-139.477
11
191.963
21
-139.474
0
LINE
8
BLACK
6
CONTINUOUS
10
191.963
20
-139.474
11
191.968
21
-139.473
0
LINE
8
BLACK
6
CONTINUOUS
10
191.968
20
-139.473
11
191.971
21
-139.472
0
LINE
8
BLACK
6
CONTINUOUS
10
191.971
20
-139.472
11
191.971
21
-139.472
0
LINE
8
BLACK
6
CONTINUOUS
10
191.971
20
-139.472
11
191.972
21
-139.472
0
LINE
8
BLACK
6
CONTINUOUS
10
191.972
20
-139.472
11
191.974
21
-139.472
0
LINE
8
BLACK
6
CONTINUOUS
10
191.974
20
-139.472
11
195.371
21
-139.472
0
LINE
8
BLACK
6
CONTINUOUS
10
195.371
20
-139.472
11
195.372
21
-139.472
0
LINE
8
BLACK
6
CONTINUOUS
10
195.372
20
-139.472
11
195.374
21
-139.472
0
LINE
8
BLACK
6
CONTINUOUS
10
191.997
20
-139.522
11
191.997
21
-142.472
0
LINE
8
BLACK
6
CONTINUOUS
10
191.997
20
-142.472
11
195.347
21
-142.472
0
LINE
8
BLACK
6
CONTINUOUS
10
195.347
20
-142.472
11
195.347
21
-139.522
0
LINE
8
BLACK
6
CONTINUOUS
10
195.347
20
-139.522
11
191.997
21
-139.522
0
LINE
8
BLACK
6
CONTINUOUS
10
95.3612
20
-139.472
11
95.3612
21
-139.472
0
LINE
8
BLACK
6
CONTINUOUS
10
95.3612
20
-139.472
11
95.3649
21
-139.473
0
LINE
8
BLACK
6
CONTINUOUS
10
95.3649
20
-139.473
11
95.3696
21
-139.474
0
LINE
8
BLACK
6
CONTINUOUS
10
95.3696
20
-139.474
11
95.3739
21
-139.477
0
LINE
8
BLACK
6
CONTINUOUS
10
95.3739
20
-139.477
11
95.3777
21
-139.48
0
LINE
8
BLACK
6
CONTINUOUS
10
95.3777
20
-139.48
11
95.3808
21
-139.484
0
LINE
8
BLACK
6
CONTINUOUS
10
95.3808
20
-139.484
11
95.3832
21
-139.488
0
LINE
8
BLACK
6
CONTINUOUS
10
95.3832
20
-139.488
11
95.3846
21
-139.493
0
LINE
8
BLACK
6
CONTINUOUS
10
95.3846
20
-139.493
11
95.3851
21
-139.497
0
LINE
8
BLACK
6
CONTINUOUS
10
95.3851
20
-139.497
11
95.385
21
-139.499
0
LINE
8
BLACK
6
CONTINUOUS
10
95.385
20
-139.499
11
95.385
21
-142.496
0
LINE
8
BLACK
6
CONTINUOUS
10
95.385
20
-142.496
11
95.3851
21
-142.497
0
LINE
8
BLACK
6
CONTINUOUS
10
95.3851
20
-142.497
11
95.385
21
-142.499
0
LINE
8
BLACK
6
CONTINUOUS
10
95.385
20
-142.499
11
95.385
21
-142.499
0
LINE
8
BLACK
6
CONTINUOUS
10
95.385
20
-142.499
11
95.3846
21
-142.502
0
LINE
8
BLACK
6
CONTINUOUS
10
95.3846
20
-142.502
11
95.3832
21
-142.507
0
LINE
8
BLACK
6
CONTINUOUS
10
95.3832
20
-142.507
11
95.3808
21
-142.511
0
LINE
8
BLACK
6
CONTINUOUS
10
95.3808
20
-142.511
11
95.3777
21
-142.515
0
LINE
8
BLACK
6
CONTINUOUS
10
95.3777
20
-142.515
11
95.3739
21
-142.518
0
LINE
8
BLACK
6
CONTINUOUS
10
95.3739
20
-142.518
11
95.3696
21
-142.521
0
LINE
8
BLACK
6
CONTINUOUS
10
95.3696
20
-142.521
11
95.3649
21
-142.522
0
LINE
8
BLACK
6
CONTINUOUS
10
95.3649
20
-142.522
11
95.36
21
-142.523
0
LINE
8
BLACK
6
CONTINUOUS
10
95.36
20
-142.523
11
95.3587
21
-142.522
0
LINE
8
BLACK
6
CONTINUOUS
10
95.3587
20
-142.522
11
91.9612
21
-142.522
0
LINE
8
BLACK
6
CONTINUOUS
10
91.9612
20
-142.522
11
91.96
21
-142.523
0
LINE
8
BLACK
6
CONTINUOUS
10
91.96
20
-142.523
11
91.9551
21
-142.522
0
LINE
8
BLACK
6
CONTINUOUS
10
91.9551
20
-142.522
11
91.9503
21
-142.521
0
LINE
8
BLACK
6
CONTINUOUS
10
91.9503
20
-142.521
11
91.946
21
-142.518
0
LINE
8
BLACK
6
CONTINUOUS
10
91.946
20
-142.518
11
91.9422
21
-142.515
0
LINE
8
BLACK
6
CONTINUOUS
10
91.9422
20
-142.515
11
91.9391
21
-142.511
0
LINE
8
BLACK
6
CONTINUOUS
10
91.9391
20
-142.511
11
91.9368
21
-142.507
0
LINE
8
BLACK
6
CONTINUOUS
10
91.9368
20
-142.507
11
91.9353
21
-142.502
0
LINE
8
BLACK
6
CONTINUOUS
10
91.9353
20
-142.502
11
91.9348
21
-142.497
0
LINE
8
BLACK
6
CONTINUOUS
10
91.9348
20
-142.497
11
91.935
21
-142.496
0
LINE
8
BLACK
6
CONTINUOUS
10
91.935
20
-142.496
11
91.935
21
-139.499
0
LINE
8
BLACK
6
CONTINUOUS
10
91.935
20
-139.499
11
91.9348
21
-139.497
0
LINE
8
BLACK
6
CONTINUOUS
10
91.9348
20
-139.497
11
91.9353
21
-139.493
0
LINE
8
BLACK
6
CONTINUOUS
10
91.9353
20
-139.493
11
91.9368
21
-139.488
0
LINE
8
BLACK
6
CONTINUOUS
10
91.9368
20
-139.488
11
91.9391
21
-139.484
0
LINE
8
BLACK
6
CONTINUOUS
10
91.9391
20
-139.484
11
91.9422
21
-139.48
0
LINE
8
BLACK
6
CONTINUOUS
10
91.9422
20
-139.48
11
91.946
21
-139.477
0
LINE
8
BLACK
6
CONTINUOUS
10
91.946
20
-139.477
11
91.9503
21
-139.474
0
LINE
8
BLACK
6
CONTINUOUS
10
91.9503
20
-139.474
11
91.9551
21
-139.473
0
LINE
8
BLACK
6
CONTINUOUS
10
91.9551
20
-139.473
11
91.9587
21
-139.472
0
LINE
8
BLACK
6
CONTINUOUS
10
91.9587
20
-139.472
11
91.9587
21
-139.472
0
LINE
8
BLACK
6
CONTINUOUS
10
91.9587
20
-139.472
11
91.96
21
-139.472
0
LINE
8
BLACK
6
CONTINUOUS
10
91.96
20
-139.472
11
91.9612
21
-139.472
0
LINE
8
BLACK
6
CONTINUOUS
10
91.9612
20
-139.472
11
95.3587
21
-139.472
0
LINE
8
BLACK
6
CONTINUOUS
10
95.3587
20
-139.472
11
95.36
21
-139.472
0
LINE
8
BLACK
6
CONTINUOUS
10
95.36
20
-139.472
11
95.3612
21
-139.472
0
LINE
8
BLACK
6
CONTINUOUS
10
91.985
20
-139.522
11
91.985
21
-142.472
0
LINE
8
BLACK
6
CONTINUOUS
10
91.985
20
-142.472
11
95.335
21
-142.472
0
LINE
8
BLACK
6
CONTINUOUS
10
95.335
20
-142.472
11
95.335
21
-139.522
0
LINE
8
BLACK
6
CONTINUOUS
10
95.335
20
-139.522
11
91.985
21
-139.522
0
LINE
8
BLACK
6
CONTINUOUS
10
119.174
20
-139.472
11
119.174
21
-139.472
0
LINE
8
BLACK
6
CONTINUOUS
10
119.174
20
-139.472
11
119.177
21
-139.473
0
LINE
8
BLACK
6
CONTINUOUS
10
119.177
20
-139.473
11
119.182
21
-139.474
0
LINE
8
BLACK
6
CONTINUOUS
10
119.182
20
-139.474
11
119.186
21
-139.477
0
LINE
8
BLACK
6
CONTINUOUS
10
119.186
20
-139.477
11
119.19
21
-139.48
0
LINE
8
BLACK
6
CONTINUOUS
10
119.19
20
-139.48
11
119.193
21
-139.484
0
LINE
8
BLACK
6
CONTINUOUS
10
119.193
20
-139.484
11
119.196
21
-139.488
0
LINE
8
BLACK
6
CONTINUOUS
10
119.196
20
-139.488
11
119.197
21
-139.493
0
LINE
8
BLACK
6
CONTINUOUS
10
119.197
20
-139.493
11
119.198
21
-139.497
0
LINE
8
BLACK
6
CONTINUOUS
10
119.198
20
-139.497
11
119.197
21
-139.499
0
LINE
8
BLACK
6
CONTINUOUS
10
119.197
20
-139.499
11
119.197
21
-142.496
0
LINE
8
BLACK
6
CONTINUOUS
10
119.197
20
-142.496
11
119.198
21
-142.497
0
LINE
8
BLACK
6
CONTINUOUS
10
119.198
20
-142.497
11
119.197
21
-142.499
0
LINE
8
BLACK
6
CONTINUOUS
10
119.197
20
-142.499
11
119.197
21
-142.499
0
LINE
8
BLACK
6
CONTINUOUS
10
119.197
20
-142.499
11
119.197
21
-142.502
0
LINE
8
BLACK
6
CONTINUOUS
10
119.197
20
-142.502
11
119.196
21
-142.507
0
LINE
8
BLACK
6
CONTINUOUS
10
119.196
20
-142.507
11
119.193
21
-142.511
0
LINE
8
BLACK
6
CONTINUOUS
10
119.193
20
-142.511
11
119.19
21
-142.515
0
LINE
8
BLACK
6
CONTINUOUS
10
119.19
20
-142.515
11
119.186
21
-142.518
0
LINE
8
BLACK
6
CONTINUOUS
10
119.186
20
-142.518
11
119.182
21
-142.521
0
LINE
8
BLACK
6
CONTINUOUS
10
119.182
20
-142.521
11
119.177
21
-142.522
0
LINE
8
BLACK
6
CONTINUOUS
10
119.177
20
-142.522
11
119.172
21
-142.523
0
LINE
8
BLACK
6
CONTINUOUS
10
119.172
20
-142.523
11
119.171
21
-142.522
0
LINE
8
BLACK
6
CONTINUOUS
10
119.171
20
-142.522
11
115.774
21
-142.522
0
LINE
8
BLACK
6
CONTINUOUS
10
115.774
20
-142.522
11
115.772
21
-142.523
0
LINE
8
BLACK
6
CONTINUOUS
10
115.772
20
-142.523
11
115.768
21
-142.522
0
LINE
8
BLACK
6
CONTINUOUS
10
115.768
20
-142.522
11
115.763
21
-142.521
0
LINE
8
BLACK
6
CONTINUOUS
10
115.763
20
-142.521
11
115.759
21
-142.518
0
LINE
8
BLACK
6
CONTINUOUS
10
115.759
20
-142.518
11
115.755
21
-142.515
0
LINE
8
BLACK
6
CONTINUOUS
10
115.755
20
-142.515
11
115.752
21
-142.511
0
LINE
8
BLACK
6
CONTINUOUS
10
115.752
20
-142.511
11
115.749
21
-142.507
0
LINE
8
BLACK
6
CONTINUOUS
10
115.749
20
-142.507
11
115.748
21
-142.502
0
LINE
8
BLACK
6
CONTINUOUS
10
115.748
20
-142.502
11
115.747
21
-142.497
0
LINE
8
BLACK
6
CONTINUOUS
10
115.747
20
-142.497
11
115.747
21
-142.496
0
LINE
8
BLACK
6
CONTINUOUS
10
115.747
20
-142.496
11
115.747
21
-139.499
0
LINE
8
BLACK
6
CONTINUOUS
10
115.747
20
-139.499
11
115.747
21
-139.497
0
LINE
8
BLACK
6
CONTINUOUS
10
115.747
20
-139.497
11
115.748
21
-139.493
0
LINE
8
BLACK
6
CONTINUOUS
10
115.748
20
-139.493
11
115.749
21
-139.488
0
LINE
8
BLACK
6
CONTINUOUS
10
115.749
20
-139.488
11
115.752
21
-139.484
0
LINE
8
BLACK
6
CONTINUOUS
10
115.752
20
-139.484
11
115.755
21
-139.48
0
LINE
8
BLACK
6
CONTINUOUS
10
115.755
20
-139.48
11
115.759
21
-139.477
0
LINE
8
BLACK
6
CONTINUOUS
10
115.759
20
-139.477
11
115.763
21
-139.474
0
LINE
8
BLACK
6
CONTINUOUS
10
115.763
20
-139.474
11
115.768
21
-139.473
0
LINE
8
BLACK
6
CONTINUOUS
10
115.768
20
-139.473
11
115.771
21
-139.472
0
LINE
8
BLACK
6
CONTINUOUS
10
115.771
20
-139.472
11
115.771
21
-139.472
0
LINE
8
BLACK
6
CONTINUOUS
10
115.771
20
-139.472
11
115.772
21
-139.472
0
LINE
8
BLACK
6
CONTINUOUS
10
115.772
20
-139.472
11
115.774
21
-139.472
0
LINE
8
BLACK
6
CONTINUOUS
10
115.774
20
-139.472
11
119.171
21
-139.472
0
LINE
8
BLACK
6
CONTINUOUS
10
119.171
20
-139.472
11
119.172
21
-139.472
0
LINE
8
BLACK
6
CONTINUOUS
10
119.172
20
-139.472
11
119.174
21
-139.472
0
LINE
8
BLACK
6
CONTINUOUS
10
115.797
20
-139.522
11
115.797
21
-142.472
0
LINE
8
BLACK
6
CONTINUOUS
10
115.797
20
-142.472
11
119.147
21
-142.472
0
LINE
8
BLACK
6
CONTINUOUS
10
119.147
20
-142.472
11
119.147
21
-139.522
0
LINE
8
BLACK
6
CONTINUOUS
10
119.147
20
-139.522
11
115.797
21
-139.522
0
LINE
8
BLACK
6
CONTINUOUS
10
138.224
20
-137.091
11
138.224
21
-137.091
0
LINE
8
BLACK
6
CONTINUOUS
10
138.224
20
-137.091
11
138.227
21
-137.092
0
LINE
8
BLACK
6
CONTINUOUS
10
138.227
20
-137.092
11
138.232
21
-137.093
0
LINE
8
BLACK
6
CONTINUOUS
10
138.232
20
-137.093
11
138.236
21
-137.095
0
LINE
8
BLACK
6
CONTINUOUS
10
138.236
20
-137.095
11
138.24
21
-137.098
0
LINE
8
BLACK
6
CONTINUOUS
10
138.24
20
-137.098
11
138.243
21
-137.102
0
LINE
8
BLACK
6
CONTINUOUS
10
138.243
20
-137.102
11
138.246
21
-137.107
0
LINE
8
BLACK
6
CONTINUOUS
10
138.246
20
-137.107
11
138.247
21
-137.111
0
LINE
8
BLACK
6
CONTINUOUS
10
138.247
20
-137.111
11
138.248
21
-137.116
0
LINE
8
BLACK
6
CONTINUOUS
10
138.248
20
-137.116
11
138.247
21
-137.117
0
LINE
8
BLACK
6
CONTINUOUS
10
138.247
20
-137.117
11
138.247
21
-140.115
0
LINE
8
BLACK
6
CONTINUOUS
10
138.247
20
-140.115
11
138.248
21
-140.116
0
LINE
8
BLACK
6
CONTINUOUS
10
138.248
20
-140.116
11
138.247
21
-140.117
0
LINE
8
BLACK
6
CONTINUOUS
10
138.247
20
-140.117
11
138.247
21
-140.117
0
LINE
8
BLACK
6
CONTINUOUS
10
138.247
20
-140.117
11
138.247
21
-140.121
0
LINE
8
BLACK
6
CONTINUOUS
10
138.247
20
-140.121
11
138.246
21
-140.126
0
LINE
8
BLACK
6
CONTINUOUS
10
138.246
20
-140.126
11
138.243
21
-140.13
0
LINE
8
BLACK
6
CONTINUOUS
10
138.243
20
-140.13
11
138.24
21
-140.134
0
LINE
8
BLACK
6
CONTINUOUS
10
138.24
20
-140.134
11
138.236
21
-140.137
0
LINE
8
BLACK
6
CONTINUOUS
10
138.236
20
-140.137
11
138.232
21
-140.139
0
LINE
8
BLACK
6
CONTINUOUS
10
138.232
20
-140.139
11
138.227
21
-140.141
0
LINE
8
BLACK
6
CONTINUOUS
10
138.227
20
-140.141
11
138.222
21
-140.141
0
LINE
8
BLACK
6
CONTINUOUS
10
138.222
20
-140.141
11
138.221
21
-140.141
0
LINE
8
BLACK
6
CONTINUOUS
10
138.221
20
-140.141
11
134.824
21
-140.141
0
LINE
8
BLACK
6
CONTINUOUS
10
134.824
20
-140.141
11
134.822
21
-140.141
0
LINE
8
BLACK
6
CONTINUOUS
10
134.822
20
-140.141
11
134.818
21
-140.141
0
LINE
8
BLACK
6
CONTINUOUS
10
134.818
20
-140.141
11
134.813
21
-140.139
0
LINE
8
BLACK
6
CONTINUOUS
10
134.813
20
-140.139
11
134.809
21
-140.137
0
LINE
8
BLACK
6
CONTINUOUS
10
134.809
20
-140.137
11
134.805
21
-140.134
0
LINE
8
BLACK
6
CONTINUOUS
10
134.805
20
-140.134
11
134.802
21
-140.13
0
LINE
8
BLACK
6
CONTINUOUS
10
134.802
20
-140.13
11
134.799
21
-140.126
0
LINE
8
BLACK
6
CONTINUOUS
10
134.799
20
-140.126
11
134.798
21
-140.121
0
LINE
8
BLACK
6
CONTINUOUS
10
134.798
20
-140.121
11
134.797
21
-140.116
0
LINE
8
BLACK
6
CONTINUOUS
10
134.797
20
-140.116
11
134.797
21
-140.115
0
LINE
8
BLACK
6
CONTINUOUS
10
134.797
20
-140.115
11
134.797
21
-137.117
0
LINE
8
BLACK
6
CONTINUOUS
10
134.797
20
-137.117
11
134.797
21
-137.116
0
LINE
8
BLACK
6
CONTINUOUS
10
134.797
20
-137.116
11
134.798
21
-137.111
0
LINE
8
BLACK
6
CONTINUOUS
10
134.798
20
-137.111
11
134.799
21
-137.107
0
LINE
8
BLACK
6
CONTINUOUS
10
134.799
20
-137.107
11
134.802
21
-137.102
0
LINE
8
BLACK
6
CONTINUOUS
10
134.802
20
-137.102
11
134.805
21
-137.098
0
LINE
8
BLACK
6
CONTINUOUS
10
134.805
20
-137.098
11
134.809
21
-137.095
0
LINE
8
BLACK
6
CONTINUOUS
10
134.809
20
-137.095
11
134.813
21
-137.093
0
LINE
8
BLACK
6
CONTINUOUS
10
134.813
20
-137.093
11
134.818
21
-137.092
0
LINE
8
BLACK
6
CONTINUOUS
10
134.818
20
-137.092
11
134.821
21
-137.091
0
LINE
8
BLACK
6
CONTINUOUS
10
134.821
20
-137.091
11
134.821
21
-137.091
0
LINE
8
BLACK
6
CONTINUOUS
10
134.821
20
-137.091
11
134.822
21
-137.091
0
LINE
8
BLACK
6
CONTINUOUS
10
134.822
20
-137.091
11
134.824
21
-137.091
0
LINE
8
BLACK
6
CONTINUOUS
10
134.824
20
-137.091
11
138.221
21
-137.091
0
LINE
8
BLACK
6
CONTINUOUS
10
138.221
20
-137.091
11
138.222
21
-137.091
0
LINE
8
BLACK
6
CONTINUOUS
10
138.222
20
-137.091
11
138.224
21
-137.091
0
LINE
8
BLACK
6
CONTINUOUS
10
134.847
20
-137.141
11
134.847
21
-140.091
0
LINE
8
BLACK
6
CONTINUOUS
10
134.847
20
-140.091
11
138.197
21
-140.091
0
LINE
8
BLACK
6
CONTINUOUS
10
138.197
20
-140.091
11
138.197
21
-137.141
0
LINE
8
BLACK
6
CONTINUOUS
10
138.197
20
-137.141
11
134.847
21
-137.141
0
LINE
8
BLACK
6
CONTINUOUS
10
176.324
20
-137.091
11
176.324
21
-137.091
0
LINE
8
BLACK
6
CONTINUOUS
10
176.324
20
-137.091
11
176.327
21
-137.092
0
LINE
8
BLACK
6
CONTINUOUS
10
176.327
20
-137.092
11
176.332
21
-137.093
0
LINE
8
BLACK
6
CONTINUOUS
10
176.332
20
-137.093
11
176.336
21
-137.095
0
LINE
8
BLACK
6
CONTINUOUS
10
176.336
20
-137.095
11
176.34
21
-137.098
0
LINE
8
BLACK
6
CONTINUOUS
10
176.34
20
-137.098
11
176.343
21
-137.102
0
LINE
8
BLACK
6
CONTINUOUS
10
176.343
20
-137.102
11
176.346
21
-137.107
0
LINE
8
BLACK
6
CONTINUOUS
10
176.346
20
-137.107
11
176.347
21
-137.111
0
LINE
8
BLACK
6
CONTINUOUS
10
176.347
20
-137.111
11
176.348
21
-137.116
0
LINE
8
BLACK
6
CONTINUOUS
10
176.348
20
-137.116
11
176.347
21
-137.117
0
LINE
8
BLACK
6
CONTINUOUS
10
176.347
20
-137.117
11
176.347
21
-140.115
0
LINE
8
BLACK
6
CONTINUOUS
10
176.347
20
-140.115
11
176.348
21
-140.116
0
LINE
8
BLACK
6
CONTINUOUS
10
176.348
20
-140.116
11
176.347
21
-140.117
0
LINE
8
BLACK
6
CONTINUOUS
10
176.347
20
-140.117
11
176.347
21
-140.117
0
LINE
8
BLACK
6
CONTINUOUS
10
176.347
20
-140.117
11
176.347
21
-140.121
0
LINE
8
BLACK
6
CONTINUOUS
10
176.347
20
-140.121
11
176.346
21
-140.126
0
LINE
8
BLACK
6
CONTINUOUS
10
176.346
20
-140.126
11
176.343
21
-140.13
0
LINE
8
BLACK
6
CONTINUOUS
10
176.343
20
-140.13
11
176.34
21
-140.134
0
LINE
8
BLACK
6
CONTINUOUS
10
176.34
20
-140.134
11
176.336
21
-140.137
0
LINE
8
BLACK
6
CONTINUOUS
10
176.336
20
-140.137
11
176.332
21
-140.139
0
LINE
8
BLACK
6
CONTINUOUS
10
176.332
20
-140.139
11
176.327
21
-140.141
0
LINE
8
BLACK
6
CONTINUOUS
10
176.327
20
-140.141
11
176.322
21
-140.141
0
LINE
8
BLACK
6
CONTINUOUS
10
176.322
20
-140.141
11
176.321
21
-140.141
0
LINE
8
BLACK
6
CONTINUOUS
10
176.321
20
-140.141
11
172.924
21
-140.141
0
LINE
8
BLACK
6
CONTINUOUS
10
172.924
20
-140.141
11
172.922
21
-140.141
0
LINE
8
BLACK
6
CONTINUOUS
10
172.922
20
-140.141
11
172.918
21
-140.141
0
LINE
8
BLACK
6
CONTINUOUS
10
172.918
20
-140.141
11
172.913
21
-140.139
0
LINE
8
BLACK
6
CONTINUOUS
10
172.913
20
-140.139
11
172.909
21
-140.137
0
LINE
8
BLACK
6
CONTINUOUS
10
172.909
20
-140.137
11
172.905
21
-140.134
0
LINE
8
BLACK
6
CONTINUOUS
10
172.905
20
-140.134
11
172.902
21
-140.13
0
LINE
8
BLACK
6
CONTINUOUS
10
172.902
20
-140.13
11
172.899
21
-140.126
0
LINE
8
BLACK
6
CONTINUOUS
10
172.899
20
-140.126
11
172.898
21
-140.121
0
LINE
8
BLACK
6
CONTINUOUS
10
172.898
20
-140.121
11
172.897
21
-140.116
0
LINE
8
BLACK
6
CONTINUOUS
10
172.897
20
-140.116
11
172.897
21
-140.115
0
LINE
8
BLACK
6
CONTINUOUS
10
172.897
20
-140.115
11
172.897
21
-137.117
0
LINE
8
BLACK
6
CONTINUOUS
10
172.897
20
-137.117
11
172.897
21
-137.116
0
LINE
8
BLACK
6
CONTINUOUS
10
172.897
20
-137.116
11
172.898
21
-137.111
0
LINE
8
BLACK
6
CONTINUOUS
10
172.898
20
-137.111
11
172.899
21
-137.107
0
LINE
8
BLACK
6
CONTINUOUS
10
172.899
20
-137.107
11
172.902
21
-137.102
0
LINE
8
BLACK
6
CONTINUOUS
10
172.902
20
-137.102
11
172.905
21
-137.098
0
LINE
8
BLACK
6
CONTINUOUS
10
172.905
20
-137.098
11
172.909
21
-137.095
0
LINE
8
BLACK
6
CONTINUOUS
10
172.909
20
-137.095
11
172.913
21
-137.093
0
LINE
8
BLACK
6
CONTINUOUS
10
172.913
20
-137.093
11
172.918
21
-137.092
0
LINE
8
BLACK
6
CONTINUOUS
10
172.918
20
-137.092
11
172.921
21
-137.091
0
LINE
8
BLACK
6
CONTINUOUS
10
172.921
20
-137.091
11
172.921
21
-137.091
0
LINE
8
BLACK
6
CONTINUOUS
10
172.921
20
-137.091
11
172.922
21
-137.091
0
LINE
8
BLACK
6
CONTINUOUS
10
172.922
20
-137.091
11
172.924
21
-137.091
0
LINE
8
BLACK
6
CONTINUOUS
10
172.924
20
-137.091
11
176.321
21
-137.091
0
LINE
8
BLACK
6
CONTINUOUS
10
176.321
20
-137.091
11
176.322
21
-137.091
0
LINE
8
BLACK
6
CONTINUOUS
10
176.322
20
-137.091
11
176.324
21
-137.091
0
LINE
8
BLACK
6
CONTINUOUS
10
172.947
20
-137.141
11
172.947
21
-140.091
0
LINE
8
BLACK
6
CONTINUOUS
10
172.947
20
-140.091
11
176.297
21
-140.091
0
LINE
8
BLACK
6
CONTINUOUS
10
176.297
20
-140.091
11
176.297
21
-137.141
0
LINE
8
BLACK
6
CONTINUOUS
10
176.297
20
-137.141
11
172.947
21
-137.141
0
LINE
8
BLACK
6
CONTINUOUS
10
157.274
20
-134.71
11
157.274
21
-134.71
0
LINE
8
BLACK
6
CONTINUOUS
10
157.274
20
-134.71
11
157.277
21
-134.71
0
LINE
8
BLACK
6
CONTINUOUS
10
157.277
20
-134.71
11
157.282
21
-134.712
0
LINE
8
BLACK
6
CONTINUOUS
10
157.282
20
-134.712
11
157.286
21
-134.714
0
LINE
8
BLACK
6
CONTINUOUS
10
157.286
20
-134.714
11
157.29
21
-134.717
0
LINE
8
BLACK
6
CONTINUOUS
10
157.29
20
-134.717
11
157.293
21
-134.721
0
LINE
8
BLACK
6
CONTINUOUS
10
157.293
20
-134.721
11
157.296
21
-134.725
0
LINE
8
BLACK
6
CONTINUOUS
10
157.296
20
-134.725
11
157.297
21
-134.73
0
LINE
8
BLACK
6
CONTINUOUS
10
157.297
20
-134.73
11
157.298
21
-134.735
0
LINE
8
BLACK
6
CONTINUOUS
10
157.298
20
-134.735
11
157.297
21
-134.736
0
LINE
8
BLACK
6
CONTINUOUS
10
157.297
20
-134.736
11
157.297
21
-137.734
0
LINE
8
BLACK
6
CONTINUOUS
10
157.297
20
-137.734
11
157.298
21
-137.735
0
LINE
8
BLACK
6
CONTINUOUS
10
157.298
20
-137.735
11
157.297
21
-137.736
0
LINE
8
BLACK
6
CONTINUOUS
10
157.297
20
-137.736
11
157.297
21
-137.736
0
LINE
8
BLACK
6
CONTINUOUS
10
157.297
20
-137.736
11
157.297
21
-137.74
0
LINE
8
BLACK
6
CONTINUOUS
10
157.297
20
-137.74
11
157.296
21
-137.745
0
LINE
8
BLACK
6
CONTINUOUS
10
157.296
20
-137.745
11
157.293
21
-137.749
0
LINE
8
BLACK
6
CONTINUOUS
10
157.293
20
-137.749
11
157.29
21
-137.753
0
LINE
8
BLACK
6
CONTINUOUS
10
157.29
20
-137.753
11
157.286
21
-137.756
0
LINE
8
BLACK
6
CONTINUOUS
10
157.286
20
-137.756
11
157.282
21
-137.758
0
LINE
8
BLACK
6
CONTINUOUS
10
157.282
20
-137.758
11
157.277
21
-137.76
0
LINE
8
BLACK
6
CONTINUOUS
10
157.277
20
-137.76
11
157.272
21
-137.76
0
LINE
8
BLACK
6
CONTINUOUS
10
157.272
20
-137.76
11
157.271
21
-137.76
0
LINE
8
BLACK
6
CONTINUOUS
10
157.271
20
-137.76
11
153.874
21
-137.76
0
LINE
8
BLACK
6
CONTINUOUS
10
153.874
20
-137.76
11
153.872
21
-137.76
0
LINE
8
BLACK
6
CONTINUOUS
10
153.872
20
-137.76
11
153.868
21
-137.76
0
LINE
8
BLACK
6
CONTINUOUS
10
153.868
20
-137.76
11
153.863
21
-137.758
0
LINE
8
BLACK
6
CONTINUOUS
10
153.863
20
-137.758
11
153.859
21
-137.756
0
LINE
8
BLACK
6
CONTINUOUS
10
153.859
20
-137.756
11
153.855
21
-137.753
0
LINE
8
BLACK
6
CONTINUOUS
10
153.855
20
-137.753
11
153.852
21
-137.749
0
LINE
8
BLACK
6
CONTINUOUS
10
153.852
20
-137.749
11
153.849
21
-137.745
0
LINE
8
BLACK
6
CONTINUOUS
10
153.849
20
-137.745
11
153.848
21
-137.74
0
LINE
8
BLACK
6
CONTINUOUS
10
153.848
20
-137.74
11
153.847
21
-137.735
0
LINE
8
BLACK
6
CONTINUOUS
10
153.847
20
-137.735
11
153.847
21
-137.734
0
LINE
8
BLACK
6
CONTINUOUS
10
153.847
20
-137.734
11
153.847
21
-134.736
0
LINE
8
BLACK
6
CONTINUOUS
10
153.847
20
-134.736
11
153.847
21
-134.735
0
LINE
8
BLACK
6
CONTINUOUS
10
153.847
20
-134.735
11
153.848
21
-134.73
0
LINE
8
BLACK
6
CONTINUOUS
10
153.848
20
-134.73
11
153.849
21
-134.725
0
LINE
8
BLACK
6
CONTINUOUS
10
153.849
20
-134.725
11
153.852
21
-134.721
0
LINE
8
BLACK
6
CONTINUOUS
10
153.852
20
-134.721
11
153.855
21
-134.717
0
LINE
8
BLACK
6
CONTINUOUS
10
153.855
20
-134.717
11
153.859
21
-134.714
0
LINE
8
BLACK
6
CONTINUOUS
10
153.859
20
-134.714
11
153.863
21
-134.712
0
LINE
8
BLACK
6
CONTINUOUS
10
153.863
20
-134.712
11
153.868
21
-134.71
0
LINE
8
BLACK
6
CONTINUOUS
10
153.868
20
-134.71
11
153.871
21
-134.71
0
LINE
8
BLACK
6
CONTINUOUS
10
153.871
20
-134.71
11
153.871
21
-134.71
0
LINE
8
BLACK
6
CONTINUOUS
10
153.871
20
-134.71
11
153.872
21
-134.71
0
LINE
8
BLACK
6
CONTINUOUS
10
153.872
20
-134.71
11
153.874
21
-134.71
0
LINE
8
BLACK
6
CONTINUOUS
10
153.874
20
-134.71
11
157.271
21
-134.71
0
LINE
8
BLACK
6
CONTINUOUS
10
157.271
20
-134.71
11
157.272
21
-134.71
0
LINE
8
BLACK
6
CONTINUOUS
10
157.272
20
-134.71
11
157.274
21
-134.71
0
LINE
8
BLACK
6
CONTINUOUS
10
153.897
20
-134.76
11
153.897
21
-137.71
0
LINE
8
BLACK
6
CONTINUOUS
10
153.897
20
-137.71
11
157.247
21
-137.71
0
LINE
8
BLACK
6
CONTINUOUS
10
157.247
20
-137.71
11
157.247
21
-134.76
0
LINE
8
BLACK
6
CONTINUOUS
10
157.247
20
-134.76
11
153.897
21
-134.76
0
LINE
8
BLACK
6
CONTINUOUS
10
214.424
20
-134.71
11
214.424
21
-134.71
0
LINE
8
BLACK
6
CONTINUOUS
10
214.424
20
-134.71
11
214.427
21
-134.71
0
LINE
8
BLACK
6
CONTINUOUS
10
214.427
20
-134.71
11
214.432
21
-134.712
0
LINE
8
BLACK
6
CONTINUOUS
10
214.432
20
-134.712
11
214.436
21
-134.714
0
LINE
8
BLACK
6
CONTINUOUS
10
214.436
20
-134.714
11
214.44
21
-134.717
0
LINE
8
BLACK
6
CONTINUOUS
10
214.44
20
-134.717
11
214.443
21
-134.721
0
LINE
8
BLACK
6
CONTINUOUS
10
214.443
20
-134.721
11
214.446
21
-134.725
0
LINE
8
BLACK
6
CONTINUOUS
10
214.446
20
-134.725
11
214.447
21
-134.73
0
LINE
8
BLACK
6
CONTINUOUS
10
214.447
20
-134.73
11
214.448
21
-134.735
0
LINE
8
BLACK
6
CONTINUOUS
10
214.448
20
-134.735
11
214.447
21
-134.736
0
LINE
8
BLACK
6
CONTINUOUS
10
214.447
20
-134.736
11
214.447
21
-137.734
0
LINE
8
BLACK
6
CONTINUOUS
10
214.447
20
-137.734
11
214.448
21
-137.735
0
LINE
8
BLACK
6
CONTINUOUS
10
214.448
20
-137.735
11
214.447
21
-137.736
0
LINE
8
BLACK
6
CONTINUOUS
10
214.447
20
-137.736
11
214.447
21
-137.736
0
LINE
8
BLACK
6
CONTINUOUS
10
214.447
20
-137.736
11
214.447
21
-137.74
0
LINE
8
BLACK
6
CONTINUOUS
10
214.447
20
-137.74
11
214.446
21
-137.745
0
LINE
8
BLACK
6
CONTINUOUS
10
214.446
20
-137.745
11
214.443
21
-137.749
0
LINE
8
BLACK
6
CONTINUOUS
10
214.443
20
-137.749
11
214.44
21
-137.753
0
LINE
8
BLACK
6
CONTINUOUS
10
214.44
20
-137.753
11
214.436
21
-137.756
0
LINE
8
BLACK
6
CONTINUOUS
10
214.436
20
-137.756
11
214.432
21
-137.758
0
LINE
8
BLACK
6
CONTINUOUS
10
214.432
20
-137.758
11
214.427
21
-137.76
0
LINE
8
BLACK
6
CONTINUOUS
10
214.427
20
-137.76
11
214.422
21
-137.76
0
LINE
8
BLACK
6
CONTINUOUS
10
214.422
20
-137.76
11
214.421
21
-137.76
0
LINE
8
BLACK
6
CONTINUOUS
10
214.421
20
-137.76
11
211.024
21
-137.76
0
LINE
8
BLACK
6
CONTINUOUS
10
211.024
20
-137.76
11
211.022
21
-137.76
0
LINE
8
BLACK
6
CONTINUOUS
10
211.022
20
-137.76
11
211.018
21
-137.76
0
LINE
8
BLACK
6
CONTINUOUS
10
211.018
20
-137.76
11
211.013
21
-137.758
0
LINE
8
BLACK
6
CONTINUOUS
10
211.013
20
-137.758
11
211.009
21
-137.756
0
LINE
8
BLACK
6
CONTINUOUS
10
211.009
20
-137.756
11
211.005
21
-137.753
0
LINE
8
BLACK
6
CONTINUOUS
10
211.005
20
-137.753
11
211.002
21
-137.749
0
LINE
8
BLACK
6
CONTINUOUS
10
211.002
20
-137.749
11
210.999
21
-137.745
0
LINE
8
BLACK
6
CONTINUOUS
10
210.999
20
-137.745
11
210.998
21
-137.74
0
LINE
8
BLACK
6
CONTINUOUS
10
210.998
20
-137.74
11
210.997
21
-137.735
0
LINE
8
BLACK
6
CONTINUOUS
10
210.997
20
-137.735
11
210.997
21
-137.734
0
LINE
8
BLACK
6
CONTINUOUS
10
210.997
20
-137.734
11
210.997
21
-134.736
0
LINE
8
BLACK
6
CONTINUOUS
10
210.997
20
-134.736
11
210.997
21
-134.735
0
LINE
8
BLACK
6
CONTINUOUS
10
210.997
20
-134.735
11
210.998
21
-134.73
0
LINE
8
BLACK
6
CONTINUOUS
10
210.998
20
-134.73
11
210.999
21
-134.725
0
LINE
8
BLACK
6
CONTINUOUS
10
210.999
20
-134.725
11
211.002
21
-134.721
0
LINE
8
BLACK
6
CONTINUOUS
10
211.002
20
-134.721
11
211.005
21
-134.717
0
LINE
8
BLACK
6
CONTINUOUS
10
211.005
20
-134.717
11
211.009
21
-134.714
0
LINE
8
BLACK
6
CONTINUOUS
10
211.009
20
-134.714
11
211.013
21
-134.712
0
LINE
8
BLACK
6
CONTINUOUS
10
211.013
20
-134.712
11
211.018
21
-134.71
0
LINE
8
BLACK
6
CONTINUOUS
10
211.018
20
-134.71
11
211.021
21
-134.71
0
LINE
8
BLACK
6
CONTINUOUS
10
211.021
20
-134.71
11
211.021
21
-134.71
0
LINE
8
BLACK
6
CONTINUOUS
10
211.021
20
-134.71
11
211.022
21
-134.71
0
LINE
8
BLACK
6
CONTINUOUS
10
211.022
20
-134.71
11
211.024
21
-134.71
0
LINE
8
BLACK
6
CONTINUOUS
10
211.024
20
-134.71
11
214.421
21
-134.71
0
LINE
8
BLACK
6
CONTINUOUS
10
214.421
20
-134.71
11
214.422
21
-134.71
0
LINE
8
BLACK
6
CONTINUOUS
10
214.422
20
-134.71
11
214.424
21
-134.71
0
LINE
8
BLACK
6
CONTINUOUS
10
211.047
20
-134.76
11
211.047
21
-137.71
0
LINE
8
BLACK
6
CONTINUOUS
10
211.047
20
-137.71
11
214.397
21
-137.71
0
LINE
8
BLACK
6
CONTINUOUS
10
214.397
20
-137.71
11
214.397
21
-134.76
0
LINE
8
BLACK
6
CONTINUOUS
10
214.397
20
-134.76
11
211.047
21
-134.76
0
LINE
8
BLACK
6
CONTINUOUS
10
119.172
20
-120.421
11
119.172
21
-120.421
0
LINE
8
BLACK
6
CONTINUOUS
10
119.172
20
-120.421
11
119.176
21
-120.422
0
LINE
8
BLACK
6
CONTINUOUS
10
119.176
20
-120.422
11
119.181
21
-120.423
0
LINE
8
BLACK
6
CONTINUOUS
10
119.181
20
-120.423
11
119.185
21
-120.425
0
LINE
8
BLACK
6
CONTINUOUS
10
119.185
20
-120.425
11
119.189
21
-120.429
0
LINE
8
BLACK
6
CONTINUOUS
10
119.189
20
-120.429
11
119.192
21
-120.432
0
LINE
8
BLACK
6
CONTINUOUS
10
119.192
20
-120.432
11
119.194
21
-120.437
0
LINE
8
BLACK
6
CONTINUOUS
10
119.194
20
-120.437
11
119.196
21
-120.441
0
LINE
8
BLACK
6
CONTINUOUS
10
119.196
20
-120.441
11
119.196
21
-120.446
0
LINE
8
BLACK
6
CONTINUOUS
10
119.196
20
-120.446
11
119.196
21
-120.448
0
LINE
8
BLACK
6
CONTINUOUS
10
119.196
20
-120.448
11
119.196
21
-123.445
0
LINE
8
BLACK
6
CONTINUOUS
10
119.196
20
-123.445
11
119.196
21
-123.446
0
LINE
8
BLACK
6
CONTINUOUS
10
119.196
20
-123.446
11
119.196
21
-123.448
0
LINE
8
BLACK
6
CONTINUOUS
10
119.196
20
-123.448
11
119.196
21
-123.448
0
LINE
8
BLACK
6
CONTINUOUS
10
119.196
20
-123.448
11
119.196
21
-123.451
0
LINE
8
BLACK
6
CONTINUOUS
10
119.196
20
-123.451
11
119.194
21
-123.456
0
LINE
8
BLACK
6
CONTINUOUS
10
119.194
20
-123.456
11
119.192
21
-123.46
0
LINE
8
BLACK
6
CONTINUOUS
10
119.192
20
-123.46
11
119.189
21
-123.464
0
LINE
8
BLACK
6
CONTINUOUS
10
119.189
20
-123.464
11
119.185
21
-123.467
0
LINE
8
BLACK
6
CONTINUOUS
10
119.185
20
-123.467
11
119.181
21
-123.47
0
LINE
8
BLACK
6
CONTINUOUS
10
119.181
20
-123.47
11
119.176
21
-123.471
0
LINE
8
BLACK
6
CONTINUOUS
10
119.176
20
-123.471
11
119.171
21
-123.471
0
LINE
8
BLACK
6
CONTINUOUS
10
119.171
20
-123.471
11
119.17
21
-123.471
0
LINE
8
BLACK
6
CONTINUOUS
10
119.17
20
-123.471
11
115.772
21
-123.471
0
LINE
8
BLACK
6
CONTINUOUS
10
115.772
20
-123.471
11
115.771
21
-123.471
0
LINE
8
BLACK
6
CONTINUOUS
10
115.771
20
-123.471
11
115.766
21
-123.471
0
LINE
8
BLACK
6
CONTINUOUS
10
115.766
20
-123.471
11
115.762
21
-123.47
0
LINE
8
BLACK
6
CONTINUOUS
10
115.762
20
-123.47
11
115.757
21
-123.467
0
LINE
8
BLACK
6
CONTINUOUS
10
115.757
20
-123.467
11
115.753
21
-123.464
0
LINE
8
BLACK
6
CONTINUOUS
10
115.753
20
-123.464
11
115.75
21
-123.46
0
LINE
8
BLACK
6
CONTINUOUS
10
115.75
20
-123.46
11
115.748
21
-123.456
0
LINE
8
BLACK
6
CONTINUOUS
10
115.748
20
-123.456
11
115.747
21
-123.451
0
LINE
8
BLACK
6
CONTINUOUS
10
115.747
20
-123.451
11
115.746
21
-123.446
0
LINE
8
BLACK
6
CONTINUOUS
10
115.746
20
-123.446
11
115.746
21
-123.445
0
LINE
8
BLACK
6
CONTINUOUS
10
115.746
20
-123.445
11
115.746
21
-120.448
0
LINE
8
BLACK
6
CONTINUOUS
10
115.746
20
-120.448
11
115.746
21
-120.446
0
LINE
8
BLACK
6
CONTINUOUS
10
115.746
20
-120.446
11
115.747
21
-120.441
0
LINE
8
BLACK
6
CONTINUOUS
10
115.747
20
-120.441
11
115.748
21
-120.437
0
LINE
8
BLACK
6
CONTINUOUS
10
115.748
20
-120.437
11
115.75
21
-120.432
0
LINE
8
BLACK
6
CONTINUOUS
10
115.75
20
-120.432
11
115.753
21
-120.429
0
LINE
8
BLACK
6
CONTINUOUS
10
115.753
20
-120.429
11
115.757
21
-120.425
0
LINE
8
BLACK
6
CONTINUOUS
10
115.757
20
-120.425
11
115.762
21
-120.423
0
LINE
8
BLACK
6
CONTINUOUS
10
115.762
20
-120.423
11
115.766
21
-120.422
0
LINE
8
BLACK
6
CONTINUOUS
10
115.766
20
-120.422
11
115.77
21
-120.421
0
LINE
8
BLACK
6
CONTINUOUS
10
115.77
20
-120.421
11
115.77
21
-120.421
0
LINE
8
BLACK
6
CONTINUOUS
10
115.77
20
-120.421
11
115.771
21
-120.421
0
LINE
8
BLACK
6
CONTINUOUS
10
115.771
20
-120.421
11
115.772
21
-120.421
0
LINE
8
BLACK
6
CONTINUOUS
10
115.772
20
-120.421
11
119.17
21
-120.421
0
LINE
8
BLACK
6
CONTINUOUS
10
119.17
20
-120.421
11
119.171
21
-120.421
0
LINE
8
BLACK
6
CONTINUOUS
10
119.171
20
-120.421
11
119.172
21
-120.421
0
LINE
8
BLACK
6
CONTINUOUS
10
115.796
20
-120.471
11
115.796
21
-123.421
0
LINE
8
BLACK
6
CONTINUOUS
10
115.796
20
-123.421
11
119.146
21
-123.421
0
LINE
8
BLACK
6
CONTINUOUS
10
119.146
20
-123.421
11
119.146
21
-120.471
0
LINE
8
BLACK
6
CONTINUOUS
10
119.146
20
-120.471
11
115.796
21
-120.471
0
LINE
8
BLACK
6
CONTINUOUS
10
95.36
20
-120.421
11
95.36
21
-120.421
0
LINE
8
BLACK
6
CONTINUOUS
10
95.36
20
-120.421
11
95.3637
21
-120.422
0
LINE
8
BLACK
6
CONTINUOUS
10
95.3637
20
-120.422
11
95.3684
21
-120.423
0
LINE
8
BLACK
6
CONTINUOUS
10
95.3684
20
-120.423
11
95.3727
21
-120.425
0
LINE
8
BLACK
6
CONTINUOUS
10
95.3727
20
-120.425
11
95.3765
21
-120.429
0
LINE
8
BLACK
6
CONTINUOUS
10
95.3765
20
-120.429
11
95.3796
21
-120.432
0
LINE
8
BLACK
6
CONTINUOUS
10
95.3796
20
-120.432
11
95.382
21
-120.437
0
LINE
8
BLACK
6
CONTINUOUS
10
95.382
20
-120.437
11
95.3834
21
-120.441
0
LINE
8
BLACK
6
CONTINUOUS
10
95.3834
20
-120.441
11
95.3839
21
-120.446
0
LINE
8
BLACK
6
CONTINUOUS
10
95.3839
20
-120.446
11
95.3838
21
-120.448
0
LINE
8
BLACK
6
CONTINUOUS
10
95.3838
20
-120.448
11
95.3838
21
-123.445
0
LINE
8
BLACK
6
CONTINUOUS
10
95.3838
20
-123.445
11
95.3839
21
-123.446
0
LINE
8
BLACK
6
CONTINUOUS
10
95.3839
20
-123.446
11
95.3838
21
-123.448
0
LINE
8
BLACK
6
CONTINUOUS
10
95.3838
20
-123.448
11
95.3838
21
-123.448
0
LINE
8
BLACK
6
CONTINUOUS
10
95.3838
20
-123.448
11
95.3834
21
-123.451
0
LINE
8
BLACK
6
CONTINUOUS
10
95.3834
20
-123.451
11
95.382
21
-123.456
0
LINE
8
BLACK
6
CONTINUOUS
10
95.382
20
-123.456
11
95.3796
21
-123.46
0
LINE
8
BLACK
6
CONTINUOUS
10
95.3796
20
-123.46
11
95.3765
21
-123.464
0
LINE
8
BLACK
6
CONTINUOUS
10
95.3765
20
-123.464
11
95.3727
21
-123.467
0
LINE
8
BLACK
6
CONTINUOUS
10
95.3727
20
-123.467
11
95.3684
21
-123.47
0
LINE
8
BLACK
6
CONTINUOUS
10
95.3684
20
-123.47
11
95.3637
21
-123.471
0
LINE
8
BLACK
6
CONTINUOUS
10
95.3637
20
-123.471
11
95.3588
21
-123.471
0
LINE
8
BLACK
6
CONTINUOUS
10
95.3588
20
-123.471
11
95.3575
21
-123.471
0
LINE
8
BLACK
6
CONTINUOUS
10
95.3575
20
-123.471
11
91.96
21
-123.471
0
LINE
8
BLACK
6
CONTINUOUS
10
91.96
20
-123.471
11
91.9588
21
-123.471
0
LINE
8
BLACK
6
CONTINUOUS
10
91.9588
20
-123.471
11
91.9539
21
-123.471
0
LINE
8
BLACK
6
CONTINUOUS
10
91.9539
20
-123.471
11
91.9491
21
-123.47
0
LINE
8
BLACK
6
CONTINUOUS
10
91.9491
20
-123.47
11
91.9448
21
-123.467
0
LINE
8
BLACK
6
CONTINUOUS
10
91.9448
20
-123.467
11
91.941
21
-123.464
0
LINE
8
BLACK
6
CONTINUOUS
10
91.941
20
-123.464
11
91.9379
21
-123.46
0
LINE
8
BLACK
6
CONTINUOUS
10
91.9379
20
-123.46
11
91.9356
21
-123.456
0
LINE
8
BLACK
6
CONTINUOUS
10
91.9356
20
-123.456
11
91.9341
21
-123.451
0
LINE
8
BLACK
6
CONTINUOUS
10
91.9341
20
-123.451
11
91.9336
21
-123.446
0
LINE
8
BLACK
6
CONTINUOUS
10
91.9336
20
-123.446
11
91.9338
21
-123.445
0
LINE
8
BLACK
6
CONTINUOUS
10
91.9338
20
-123.445
11
91.9338
21
-120.448
0
LINE
8
BLACK
6
CONTINUOUS
10
91.9338
20
-120.448
11
91.9336
21
-120.446
0
LINE
8
BLACK
6
CONTINUOUS
10
91.9336
20
-120.446
11
91.9341
21
-120.441
0
LINE
8
BLACK
6
CONTINUOUS
10
91.9341
20
-120.441
11
91.9356
21
-120.437
0
LINE
8
BLACK
6
CONTINUOUS
10
91.9356
20
-120.437
11
91.9379
21
-120.432
0
LINE
8
BLACK
6
CONTINUOUS
10
91.9379
20
-120.432
11
91.941
21
-120.429
0
LINE
8
BLACK
6
CONTINUOUS
10
91.941
20
-120.429
11
91.9448
21
-120.425
0
LINE
8
BLACK
6
CONTINUOUS
10
91.9448
20
-120.425
11
91.9491
21
-120.423
0
LINE
8
BLACK
6
CONTINUOUS
10
91.9491
20
-120.423
11
91.9539
21
-120.422
0
LINE
8
BLACK
6
CONTINUOUS
10
91.9539
20
-120.422
11
91.9575
21
-120.421
0
LINE
8
BLACK
6
CONTINUOUS
10
91.9575
20
-120.421
11
91.9575
21
-120.421
0
LINE
8
BLACK
6
CONTINUOUS
10
91.9575
20
-120.421
11
91.9588
21
-120.421
0
LINE
8
BLACK
6
CONTINUOUS
10
91.9588
20
-120.421
11
91.96
21
-120.421
0
LINE
8
BLACK
6
CONTINUOUS
10
91.96
20
-120.421
11
95.3575
21
-120.421
0
LINE
8
BLACK
6
CONTINUOUS
10
95.3575
20
-120.421
11
95.3588
21
-120.421
0
LINE
8
BLACK
6
CONTINUOUS
10
95.3588
20
-120.421
11
95.36
21
-120.421
0
LINE
8
BLACK
6
CONTINUOUS
10
91.9838
20
-120.471
11
91.9838
21
-123.421
0
LINE
8
BLACK
6
CONTINUOUS
10
91.9838
20
-123.421
11
95.3338
21
-123.421
0
LINE
8
BLACK
6
CONTINUOUS
10
95.3338
20
-123.421
11
95.3338
21
-120.471
0
LINE
8
BLACK
6
CONTINUOUS
10
95.3338
20
-120.471
11
91.9838
21
-120.471
0
LINE
8
BLACK
6
CONTINUOUS
10
195.372
20
-120.421
11
195.372
21
-120.421
0
LINE
8
BLACK
6
CONTINUOUS
10
195.372
20
-120.421
11
195.376
21
-120.422
0
LINE
8
BLACK
6
CONTINUOUS
10
195.376
20
-120.422
11
195.381
21
-120.423
0
LINE
8
BLACK
6
CONTINUOUS
10
195.381
20
-120.423
11
195.385
21
-120.425
0
LINE
8
BLACK
6
CONTINUOUS
10
195.385
20
-120.425
11
195.389
21
-120.429
0
LINE
8
BLACK
6
CONTINUOUS
10
195.389
20
-120.429
11
195.392
21
-120.432
0
LINE
8
BLACK
6
CONTINUOUS
10
195.392
20
-120.432
11
195.394
21
-120.437
0
LINE
8
BLACK
6
CONTINUOUS
10
195.394
20
-120.437
11
195.396
21
-120.441
0
LINE
8
BLACK
6
CONTINUOUS
10
195.396
20
-120.441
11
195.396
21
-120.446
0
LINE
8
BLACK
6
CONTINUOUS
10
195.396
20
-120.446
11
195.396
21
-120.448
0
LINE
8
BLACK
6
CONTINUOUS
10
195.396
20
-120.448
11
195.396
21
-123.445
0
LINE
8
BLACK
6
CONTINUOUS
10
195.396
20
-123.445
11
195.396
21
-123.446
0
LINE
8
BLACK
6
CONTINUOUS
10
195.396
20
-123.446
11
195.396
21
-123.448
0
LINE
8
BLACK
6
CONTINUOUS
10
195.396
20
-123.448
11
195.396
21
-123.448
0
LINE
8
BLACK
6
CONTINUOUS
10
195.396
20
-123.448
11
195.396
21
-123.451
0
LINE
8
BLACK
6
CONTINUOUS
10
195.396
20
-123.451
11
195.394
21
-123.456
0
LINE
8
BLACK
6
CONTINUOUS
10
195.394
20
-123.456
11
195.392
21
-123.46
0
LINE
8
BLACK
6
CONTINUOUS
10
195.392
20
-123.46
11
195.389
21
-123.464
0
LINE
8
BLACK
6
CONTINUOUS
10
195.389
20
-123.464
11
195.385
21
-123.467
0
LINE
8
BLACK
6
CONTINUOUS
10
195.385
20
-123.467
11
195.381
21
-123.47
0
LINE
8
BLACK
6
CONTINUOUS
10
195.381
20
-123.47
11
195.376
21
-123.471
0
LINE
8
BLACK
6
CONTINUOUS
10
195.376
20
-123.471
11
195.371
21
-123.471
0
LINE
8
BLACK
6
CONTINUOUS
10
195.371
20
-123.471
11
195.37
21
-123.471
0
LINE
8
BLACK
6
CONTINUOUS
10
195.37
20
-123.471
11
191.972
21
-123.471
0
LINE
8
BLACK
6
CONTINUOUS
10
191.972
20
-123.471
11
191.971
21
-123.471
0
LINE
8
BLACK
6
CONTINUOUS
10
191.971
20
-123.471
11
191.966
21
-123.471
0
LINE
8
BLACK
6
CONTINUOUS
10
191.966
20
-123.471
11
191.962
21
-123.47
0
LINE
8
BLACK
6
CONTINUOUS
10
191.962
20
-123.47
11
191.957
21
-123.467
0
LINE
8
BLACK
6
CONTINUOUS
10
191.957
20
-123.467
11
191.953
21
-123.464
0
LINE
8
BLACK
6
CONTINUOUS
10
191.953
20
-123.464
11
191.95
21
-123.46
0
LINE
8
BLACK
6
CONTINUOUS
10
191.95
20
-123.46
11
191.948
21
-123.456
0
LINE
8
BLACK
6
CONTINUOUS
10
191.948
20
-123.456
11
191.947
21
-123.451
0
LINE
8
BLACK
6
CONTINUOUS
10
191.947
20
-123.451
11
191.946
21
-123.446
0
LINE
8
BLACK
6
CONTINUOUS
10
191.946
20
-123.446
11
191.946
21
-123.445
0
LINE
8
BLACK
6
CONTINUOUS
10
191.946
20
-123.445
11
191.946
21
-120.448
0
LINE
8
BLACK
6
CONTINUOUS
10
191.946
20
-120.448
11
191.946
21
-120.446
0
LINE
8
BLACK
6
CONTINUOUS
10
191.946
20
-120.446
11
191.947
21
-120.441
0
LINE
8
BLACK
6
CONTINUOUS
10
191.947
20
-120.441
11
191.948
21
-120.437
0
LINE
8
BLACK
6
CONTINUOUS
10
191.948
20
-120.437
11
191.95
21
-120.432
0
LINE
8
BLACK
6
CONTINUOUS
10
191.95
20
-120.432
11
191.953
21
-120.429
0
LINE
8
BLACK
6
CONTINUOUS
10
191.953
20
-120.429
11
191.957
21
-120.425
0
LINE
8
BLACK
6
CONTINUOUS
10
191.957
20
-120.425
11
191.962
21
-120.423
0
LINE
8
BLACK
6
CONTINUOUS
10
191.962
20
-120.423
11
191.966
21
-120.422
0
LINE
8
BLACK
6
CONTINUOUS
10
191.966
20
-120.422
11
191.97
21
-120.421
0
LINE
8
BLACK
6
CONTINUOUS
10
191.97
20
-120.421
11
191.97
21
-120.421
0
LINE
8
BLACK
6
CONTINUOUS
10
191.97
20
-120.421
11
191.971
21
-120.421
0
LINE
8
BLACK
6
CONTINUOUS
10
191.971
20
-120.421
11
191.972
21
-120.421
0
LINE
8
BLACK
6
CONTINUOUS
10
191.972
20
-120.421
11
195.37
21
-120.421
0
LINE
8
BLACK
6
CONTINUOUS
10
195.37
20
-120.421
11
195.371
21
-120.421
0
LINE
8
BLACK
6
CONTINUOUS
10
195.371
20
-120.421
11
195.372
21
-120.421
0
LINE
8
BLACK
6
CONTINUOUS
10
191.996
20
-120.471
11
191.996
21
-123.421
0
LINE
8
BLACK
6
CONTINUOUS
10
191.996
20
-123.421
11
195.346
21
-123.421
0
LINE
8
BLACK
6
CONTINUOUS
10
195.346
20
-123.421
11
195.346
21
-120.471
0
LINE
8
BLACK
6
CONTINUOUS
10
195.346
20
-120.471
11
191.996
21
-120.471
0
LINE
8
BLACK
6
CONTINUOUS
10
138.222
20
-118.04
11
138.222
21
-118.04
0
LINE
8
BLACK
6
CONTINUOUS
10
138.222
20
-118.04
11
138.226
21
-118.04
0
LINE
8
BLACK
6
CONTINUOUS
10
138.226
20
-118.04
11
138.231
21
-118.042
0
LINE
8
BLACK
6
CONTINUOUS
10
138.231
20
-118.042
11
138.235
21
-118.044
0
LINE
8
BLACK
6
CONTINUOUS
10
138.235
20
-118.044
11
138.239
21
-118.047
0
LINE
8
BLACK
6
CONTINUOUS
10
138.239
20
-118.047
11
138.242
21
-118.051
0
LINE
8
BLACK
6
CONTINUOUS
10
138.242
20
-118.051
11
138.244
21
-118.055
0
LINE
8
BLACK
6
CONTINUOUS
10
138.244
20
-118.055
11
138.246
21
-118.06
0
LINE
8
BLACK
6
CONTINUOUS
10
138.246
20
-118.06
11
138.246
21
-118.065
0
LINE
8
BLACK
6
CONTINUOUS
10
138.246
20
-118.065
11
138.246
21
-118.066
0
LINE
8
BLACK
6
CONTINUOUS
10
138.246
20
-118.066
11
138.246
21
-121.064
0
LINE
8
BLACK
6
CONTINUOUS
10
138.246
20
-121.064
11
138.246
21
-121.065
0
LINE
8
BLACK
6
CONTINUOUS
10
138.246
20
-121.065
11
138.246
21
-121.066
0
LINE
8
BLACK
6
CONTINUOUS
10
138.246
20
-121.066
11
138.246
21
-121.066
0
LINE
8
BLACK
6
CONTINUOUS
10
138.246
20
-121.066
11
138.246
21
-121.07
0
LINE
8
BLACK
6
CONTINUOUS
10
138.246
20
-121.07
11
138.244
21
-121.075
0
LINE
8
BLACK
6
CONTINUOUS
10
138.244
20
-121.075
11
138.242
21
-121.079
0
LINE
8
BLACK
6
CONTINUOUS
10
138.242
20
-121.079
11
138.239
21
-121.083
0
LINE
8
BLACK
6
CONTINUOUS
10
138.239
20
-121.083
11
138.235
21
-121.086
0
LINE
8
BLACK
6
CONTINUOUS
10
138.235
20
-121.086
11
138.231
21
-121.088
0
LINE
8
BLACK
6
CONTINUOUS
10
138.231
20
-121.088
11
138.226
21
-121.09
0
LINE
8
BLACK
6
CONTINUOUS
10
138.226
20
-121.09
11
138.221
21
-121.09
0
LINE
8
BLACK
6
CONTINUOUS
10
138.221
20
-121.09
11
138.22
21
-121.09
0
LINE
8
BLACK
6
CONTINUOUS
10
138.22
20
-121.09
11
134.822
21
-121.09
0
LINE
8
BLACK
6
CONTINUOUS
10
134.822
20
-121.09
11
134.821
21
-121.09
0
LINE
8
BLACK
6
CONTINUOUS
10
134.821
20
-121.09
11
134.816
21
-121.09
0
LINE
8
BLACK
6
CONTINUOUS
10
134.816
20
-121.09
11
134.812
21
-121.088
0
LINE
8
BLACK
6
CONTINUOUS
10
134.812
20
-121.088
11
134.807
21
-121.086
0
LINE
8
BLACK
6
CONTINUOUS
10
134.807
20
-121.086
11
134.803
21
-121.083
0
LINE
8
BLACK
6
CONTINUOUS
10
134.803
20
-121.083
11
134.8
21
-121.079
0
LINE
8
BLACK
6
CONTINUOUS
10
134.8
20
-121.079
11
134.798
21
-121.075
0
LINE
8
BLACK
6
CONTINUOUS
10
134.798
20
-121.075
11
134.797
21
-121.07
0
LINE
8
BLACK
6
CONTINUOUS
10
134.797
20
-121.07
11
134.796
21
-121.065
0
LINE
8
BLACK
6
CONTINUOUS
10
134.796
20
-121.065
11
134.796
21
-121.064
0
LINE
8
BLACK
6
CONTINUOUS
10
134.796
20
-121.064
11
134.796
21
-118.066
0
LINE
8
BLACK
6
CONTINUOUS
10
134.796
20
-118.066
11
134.796
21
-118.065
0
LINE
8
BLACK
6
CONTINUOUS
10
134.796
20
-118.065
11
134.797
21
-118.06
0
LINE
8
BLACK
6
CONTINUOUS
10
134.797
20
-118.06
11
134.798
21
-118.055
0
LINE
8
BLACK
6
CONTINUOUS
10
134.798
20
-118.055
11
134.8
21
-118.051
0
LINE
8
BLACK
6
CONTINUOUS
10
134.8
20
-118.051
11
134.803
21
-118.047
0
LINE
8
BLACK
6
CONTINUOUS
10
134.803
20
-118.047
11
134.807
21
-118.044
0
LINE
8
BLACK
6
CONTINUOUS
10
134.807
20
-118.044
11
134.812
21
-118.042
0
LINE
8
BLACK
6
CONTINUOUS
10
134.812
20
-118.042
11
134.816
21
-118.04
0
LINE
8
BLACK
6
CONTINUOUS
10
134.816
20
-118.04
11
134.82
21
-118.04
0
LINE
8
BLACK
6
CONTINUOUS
10
134.82
20
-118.04
11
134.82
21
-118.04
0
LINE
8
BLACK
6
CONTINUOUS
10
134.82
20
-118.04
11
134.821
21
-118.04
0
LINE
8
BLACK
6
CONTINUOUS
10
134.821
20
-118.04
11
134.822
21
-118.04
0
LINE
8
BLACK
6
CONTINUOUS
10
134.822
20
-118.04
11
138.22
21
-118.04
0
LINE
8
BLACK
6
CONTINUOUS
10
138.22
20
-118.04
11
138.221
21
-118.04
0
LINE
8
BLACK
6
CONTINUOUS
10
138.221
20
-118.04
11
138.222
21
-118.04
0
LINE
8
BLACK
6
CONTINUOUS
10
134.846
20
-118.09
11
134.846
21
-121.04
0
LINE
8
BLACK
6
CONTINUOUS
10
134.846
20
-121.04
11
138.196
21
-121.04
0
LINE
8
BLACK
6
CONTINUOUS
10
138.196
20
-121.04
11
138.196
21
-118.09
0
LINE
8
BLACK
6
CONTINUOUS
10
138.196
20
-118.09
11
134.846
21
-118.09
0
LINE
8
BLACK
6
CONTINUOUS
10
176.322
20
-118.04
11
176.322
21
-118.04
0
LINE
8
BLACK
6
CONTINUOUS
10
176.322
20
-118.04
11
176.326
21
-118.04
0
LINE
8
BLACK
6
CONTINUOUS
10
176.326
20
-118.04
11
176.331
21
-118.042
0
LINE
8
BLACK
6
CONTINUOUS
10
176.331
20
-118.042
11
176.335
21
-118.044
0
LINE
8
BLACK
6
CONTINUOUS
10
176.335
20
-118.044
11
176.339
21
-118.047
0
LINE
8
BLACK
6
CONTINUOUS
10
176.339
20
-118.047
11
176.342
21
-118.051
0
LINE
8
BLACK
6
CONTINUOUS
10
176.342
20
-118.051
11
176.344
21
-118.055
0
LINE
8
BLACK
6
CONTINUOUS
10
176.344
20
-118.055
11
176.346
21
-118.06
0
LINE
8
BLACK
6
CONTINUOUS
10
176.346
20
-118.06
11
176.346
21
-118.065
0
LINE
8
BLACK
6
CONTINUOUS
10
176.346
20
-118.065
11
176.346
21
-118.066
0
LINE
8
BLACK
6
CONTINUOUS
10
176.346
20
-118.066
11
176.346
21
-121.064
0
LINE
8
BLACK
6
CONTINUOUS
10
176.346
20
-121.064
11
176.346
21
-121.065
0
LINE
8
BLACK
6
CONTINUOUS
10
176.346
20
-121.065
11
176.346
21
-121.066
0
LINE
8
BLACK
6
CONTINUOUS
10
176.346
20
-121.066
11
176.346
21
-121.066
0
LINE
8
BLACK
6
CONTINUOUS
10
176.346
20
-121.066
11
176.346
21
-121.07
0
LINE
8
BLACK
6
CONTINUOUS
10
176.346
20
-121.07
11
176.344
21
-121.075
0
LINE
8
BLACK
6
CONTINUOUS
10
176.344
20
-121.075
11
176.342
21
-121.079
0
LINE
8
BLACK
6
CONTINUOUS
10
176.342
20
-121.079
11
176.339
21
-121.083
0
LINE
8
BLACK
6
CONTINUOUS
10
176.339
20
-121.083
11
176.335
21
-121.086
0
LINE
8
BLACK
6
CONTINUOUS
10
176.335
20
-121.086
11
176.331
21
-121.088
0
LINE
8
BLACK
6
CONTINUOUS
10
176.331
20
-121.088
11
176.326
21
-121.09
0
LINE
8
BLACK
6
CONTINUOUS
10
176.326
20
-121.09
11
176.321
21
-121.09
0
LINE
8
BLACK
6
CONTINUOUS
10
176.321
20
-121.09
11
176.32
21
-121.09
0
LINE
8
BLACK
6
CONTINUOUS
10
176.32
20
-121.09
11
172.922
21
-121.09
0
LINE
8
BLACK
6
CONTINUOUS
10
172.922
20
-121.09
11
172.921
21
-121.09
0
LINE
8
BLACK
6
CONTINUOUS
10
172.921
20
-121.09
11
172.916
21
-121.09
0
LINE
8
BLACK
6
CONTINUOUS
10
172.916
20
-121.09
11
172.912
21
-121.088
0
LINE
8
BLACK
6
CONTINUOUS
10
172.912
20
-121.088
11
172.907
21
-121.086
0
LINE
8
BLACK
6
CONTINUOUS
10
172.907
20
-121.086
11
172.903
21
-121.083
0
LINE
8
BLACK
6
CONTINUOUS
10
172.903
20
-121.083
11
172.9
21
-121.079
0
LINE
8
BLACK
6
CONTINUOUS
10
172.9
20
-121.079
11
172.898
21
-121.075
0
LINE
8
BLACK
6
CONTINUOUS
10
172.898
20
-121.075
11
172.897
21
-121.07
0
LINE
8
BLACK
6
CONTINUOUS
10
172.897
20
-121.07
11
172.896
21
-121.065
0
LINE
8
BLACK
6
CONTINUOUS
10
172.896
20
-121.065
11
172.896
21
-121.064
0
LINE
8
BLACK
6
CONTINUOUS
10
172.896
20
-121.064
11
172.896
21
-118.066
0
LINE
8
BLACK
6
CONTINUOUS
10
172.896
20
-118.066
11
172.896
21
-118.065
0
LINE
8
BLACK
6
CONTINUOUS
10
172.896
20
-118.065
11
172.897
21
-118.06
0
LINE
8
BLACK
6
CONTINUOUS
10
172.897
20
-118.06
11
172.898
21
-118.055
0
LINE
8
BLACK
6
CONTINUOUS
10
172.898
20
-118.055
11
172.9
21
-118.051
0
LINE
8
BLACK
6
CONTINUOUS
10
172.9
20
-118.051
11
172.903
21
-118.047
0
LINE
8
BLACK
6
CONTINUOUS
10
172.903
20
-118.047
11
172.907
21
-118.044
0
LINE
8
BLACK
6
CONTINUOUS
10
172.907
20
-118.044
11
172.912
21
-118.042
0
LINE
8
BLACK
6
CONTINUOUS
10
172.912
20
-118.042
11
172.916
21
-118.04
0
LINE
8
BLACK
6
CONTINUOUS
10
172.916
20
-118.04
11
172.92
21
-118.04
0
LINE
8
BLACK
6
CONTINUOUS
10
172.92
20
-118.04
11
172.92
21
-118.04
0
LINE
8
BLACK
6
CONTINUOUS
10
172.92
20
-118.04
11
172.921
21
-118.04
0
LINE
8
BLACK
6
CONTINUOUS
10
172.921
20
-118.04
11
172.922
21
-118.04
0
LINE
8
BLACK
6
CONTINUOUS
10
172.922
20
-118.04
11
176.32
21
-118.04
0
LINE
8
BLACK
6
CONTINUOUS
10
176.32
20
-118.04
11
176.321
21
-118.04
0
LINE
8
BLACK
6
CONTINUOUS
10
176.321
20
-118.04
11
176.322
21
-118.04
0
LINE
8
BLACK
6
CONTINUOUS
10
172.946
20
-118.09
11
172.946
21
-121.04
0
LINE
8
BLACK
6
CONTINUOUS
10
172.946
20
-121.04
11
176.296
21
-121.04
0
LINE
8
BLACK
6
CONTINUOUS
10
176.296
20
-121.04
11
176.296
21
-118.09
0
LINE
8
BLACK
6
CONTINUOUS
10
176.296
20
-118.09
11
172.946
21
-118.09
0
LINE
8
BLACK
6
CONTINUOUS
10
157.272
20
-115.659
11
157.272
21
-115.659
0
LINE
8
BLACK
6
CONTINUOUS
10
157.272
20
-115.659
11
157.276
21
-115.659
0
LINE
8
BLACK
6
CONTINUOUS
10
157.276
20
-115.659
11
157.281
21
-115.661
0
LINE
8
BLACK
6
CONTINUOUS
10
157.281
20
-115.661
11
157.285
21
-115.663
0
LINE
8
BLACK
6
CONTINUOUS
10
157.285
20
-115.663
11
157.289
21
-115.666
0
LINE
8
BLACK
6
CONTINUOUS
10
157.289
20
-115.666
11
157.292
21
-115.67
0
LINE
8
BLACK
6
CONTINUOUS
10
157.292
20
-115.67
11
157.294
21
-115.674
0
LINE
8
BLACK
6
CONTINUOUS
10
157.294
20
-115.674
11
157.296
21
-115.679
0
LINE
8
BLACK
6
CONTINUOUS
10
157.296
20
-115.679
11
157.296
21
-115.684
0
LINE
8
BLACK
6
CONTINUOUS
10
157.296
20
-115.684
11
157.296
21
-115.685
0
LINE
8
BLACK
6
CONTINUOUS
10
157.296
20
-115.685
11
157.296
21
-118.683
0
LINE
8
BLACK
6
CONTINUOUS
10
157.296
20
-118.683
11
157.296
21
-118.684
0
LINE
8
BLACK
6
CONTINUOUS
10
157.296
20
-118.684
11
157.296
21
-118.685
0
LINE
8
BLACK
6
CONTINUOUS
10
157.296
20
-118.685
11
157.296
21
-118.685
0
LINE
8
BLACK
6
CONTINUOUS
10
157.296
20
-118.685
11
157.296
21
-118.689
0
LINE
8
BLACK
6
CONTINUOUS
10
157.296
20
-118.689
11
157.294
21
-118.693
0
LINE
8
BLACK
6
CONTINUOUS
10
157.294
20
-118.693
11
157.292
21
-118.698
0
LINE
8
BLACK
6
CONTINUOUS
10
157.292
20
-118.698
11
157.289
21
-118.702
0
LINE
8
BLACK
6
CONTINUOUS
10
157.289
20
-118.702
11
157.285
21
-118.705
0
LINE
8
BLACK
6
CONTINUOUS
10
157.285
20
-118.705
11
157.281
21
-118.707
0
LINE
8
BLACK
6
CONTINUOUS
10
157.281
20
-118.707
11
157.276
21
-118.708
0
LINE
8
BLACK
6
CONTINUOUS
10
157.276
20
-118.708
11
157.271
21
-118.709
0
LINE
8
BLACK
6
CONTINUOUS
10
157.271
20
-118.709
11
157.27
21
-118.709
0
LINE
8
BLACK
6
CONTINUOUS
10
157.27
20
-118.709
11
153.872
21
-118.709
0
LINE
8
BLACK
6
CONTINUOUS
10
153.872
20
-118.709
11
153.871
21
-118.709
0
LINE
8
BLACK
6
CONTINUOUS
10
153.871
20
-118.709
11
153.866
21
-118.708
0
LINE
8
BLACK
6
CONTINUOUS
10
153.866
20
-118.708
11
153.862
21
-118.707
0
LINE
8
BLACK
6
CONTINUOUS
10
153.862
20
-118.707
11
153.857
21
-118.705
0
LINE
8
BLACK
6
CONTINUOUS
10
153.857
20
-118.705
11
153.853
21
-118.702
0
LINE
8
BLACK
6
CONTINUOUS
10
153.853
20
-118.702
11
153.85
21
-118.698
0
LINE
8
BLACK
6
CONTINUOUS
10
153.85
20
-118.698
11
153.848
21
-118.693
0
LINE
8
BLACK
6
CONTINUOUS
10
153.848
20
-118.693
11
153.847
21
-118.689
0
LINE
8
BLACK
6
CONTINUOUS
10
153.847
20
-118.689
11
153.846
21
-118.684
0
LINE
8
BLACK
6
CONTINUOUS
10
153.846
20
-118.684
11
153.846
21
-118.683
0
LINE
8
BLACK
6
CONTINUOUS
10
153.846
20
-118.683
11
153.846
21
-115.685
0
LINE
8
BLACK
6
CONTINUOUS
10
153.846
20
-115.685
11
153.846
21
-115.684
0
LINE
8
BLACK
6
CONTINUOUS
10
153.846
20
-115.684
11
153.847
21
-115.679
0
LINE
8
BLACK
6
CONTINUOUS
10
153.847
20
-115.679
11
153.848
21
-115.674
0
LINE
8
BLACK
6
CONTINUOUS
10
153.848
20
-115.674
11
153.85
21
-115.67
0
LINE
8
BLACK
6
CONTINUOUS
10
153.85
20
-115.67
11
153.853
21
-115.666
0
LINE
8
BLACK
6
CONTINUOUS
10
153.853
20
-115.666
11
153.857
21
-115.663
0
LINE
8
BLACK
6
CONTINUOUS
10
153.857
20
-115.663
11
153.862
21
-115.661
0
LINE
8
BLACK
6
CONTINUOUS
10
153.862
20
-115.661
11
153.866
21
-115.659
0
LINE
8
BLACK
6
CONTINUOUS
10
153.866
20
-115.659
11
153.87
21
-115.659
0
LINE
8
BLACK
6
CONTINUOUS
10
153.87
20
-115.659
11
153.87
21
-115.659
0
LINE
8
BLACK
6
CONTINUOUS
10
153.87
20
-115.659
11
153.871
21
-115.659
0
LINE
8
BLACK
6
CONTINUOUS
10
153.871
20
-115.659
11
153.872
21
-115.659
0
LINE
8
BLACK
6
CONTINUOUS
10
153.872
20
-115.659
11
157.27
21
-115.659
0
LINE
8
BLACK
6
CONTINUOUS
10
157.27
20
-115.659
11
157.271
21
-115.659
0
LINE
8
BLACK
6
CONTINUOUS
10
157.271
20
-115.659
11
157.272
21
-115.659
0
LINE
8
BLACK
6
CONTINUOUS
10
153.896
20
-115.709
11
153.896
21
-118.659
0
LINE
8
BLACK
6
CONTINUOUS
10
153.896
20
-118.659
11
157.246
21
-118.659
0
LINE
8
BLACK
6
CONTINUOUS
10
157.246
20
-118.659
11
157.246
21
-115.709
0
LINE
8
BLACK
6
CONTINUOUS
10
157.246
20
-115.709
11
153.896
21
-115.709
0
LINE
8
BLACK
6
CONTINUOUS
10
214.424
20
-106.135
11
214.424
21
-106.135
0
LINE
8
BLACK
6
CONTINUOUS
10
214.424
20
-106.135
11
214.427
21
-106.135
0
LINE
8
BLACK
6
CONTINUOUS
10
214.427
20
-106.135
11
214.432
21
-106.137
0
LINE
8
BLACK
6
CONTINUOUS
10
214.432
20
-106.137
11
214.436
21
-106.139
0
LINE
8
BLACK
6
CONTINUOUS
10
214.436
20
-106.139
11
214.44
21
-106.142
0
LINE
8
BLACK
6
CONTINUOUS
10
214.44
20
-106.142
11
214.443
21
-106.146
0
LINE
8
BLACK
6
CONTINUOUS
10
214.443
20
-106.146
11
214.446
21
-106.15
0
LINE
8
BLACK
6
CONTINUOUS
10
214.446
20
-106.15
11
214.447
21
-106.155
0
LINE
8
BLACK
6
CONTINUOUS
10
214.447
20
-106.155
11
214.448
21
-106.16
0
LINE
8
BLACK
6
CONTINUOUS
10
214.448
20
-106.16
11
214.447
21
-106.161
0
LINE
8
BLACK
6
CONTINUOUS
10
214.447
20
-106.161
11
214.447
21
-109.159
0
LINE
8
BLACK
6
CONTINUOUS
10
214.447
20
-109.159
11
214.448
21
-109.16
0
LINE
8
BLACK
6
CONTINUOUS
10
214.448
20
-109.16
11
214.447
21
-109.161
0
LINE
8
BLACK
6
CONTINUOUS
10
214.447
20
-109.161
11
214.447
21
-109.161
0
LINE
8
BLACK
6
CONTINUOUS
10
214.447
20
-109.161
11
214.447
21
-109.165
0
LINE
8
BLACK
6
CONTINUOUS
10
214.447
20
-109.165
11
214.446
21
-109.17
0
LINE
8
BLACK
6
CONTINUOUS
10
214.446
20
-109.17
11
214.443
21
-109.174
0
LINE
8
BLACK
6
CONTINUOUS
10
214.443
20
-109.174
11
214.44
21
-109.178
0
LINE
8
BLACK
6
CONTINUOUS
10
214.44
20
-109.178
11
214.436
21
-109.181
0
LINE
8
BLACK
6
CONTINUOUS
10
214.436
20
-109.181
11
214.432
21
-109.183
0
LINE
8
BLACK
6
CONTINUOUS
10
214.432
20
-109.183
11
214.427
21
-109.185
0
LINE
8
BLACK
6
CONTINUOUS
10
214.427
20
-109.185
11
214.422
21
-109.185
0
LINE
8
BLACK
6
CONTINUOUS
10
214.422
20
-109.185
11
214.421
21
-109.185
0
LINE
8
BLACK
6
CONTINUOUS
10
214.421
20
-109.185
11
211.024
21
-109.185
0
LINE
8
BLACK
6
CONTINUOUS
10
211.024
20
-109.185
11
211.022
21
-109.185
0
LINE
8
BLACK
6
CONTINUOUS
10
211.022
20
-109.185
11
211.018
21
-109.185
0
LINE
8
BLACK
6
CONTINUOUS
10
211.018
20
-109.185
11
211.013
21
-109.183
0
LINE
8
BLACK
6
CONTINUOUS
10
211.013
20
-109.183
11
211.009
21
-109.181
0
LINE
8
BLACK
6
CONTINUOUS
10
211.009
20
-109.181
11
211.005
21
-109.178
0
LINE
8
BLACK
6
CONTINUOUS
10
211.005
20
-109.178
11
211.002
21
-109.174
0
LINE
8
BLACK
6
CONTINUOUS
10
211.002
20
-109.174
11
210.999
21
-109.17
0
LINE
8
BLACK
6
CONTINUOUS
10
210.999
20
-109.17
11
210.998
21
-109.165
0
LINE
8
BLACK
6
CONTINUOUS
10
210.998
20
-109.165
11
210.997
21
-109.16
0
LINE
8
BLACK
6
CONTINUOUS
10
210.997
20
-109.16
11
210.997
21
-109.159
0
LINE
8
BLACK
6
CONTINUOUS
10
210.997
20
-109.159
11
210.997
21
-106.161
0
LINE
8
BLACK
6
CONTINUOUS
10
210.997
20
-106.161
11
210.997
21
-106.16
0
LINE
8
BLACK
6
CONTINUOUS
10
210.997
20
-106.16
11
210.998
21
-106.155
0
LINE
8
BLACK
6
CONTINUOUS
10
210.998
20
-106.155
11
210.999
21
-106.15
0
LINE
8
BLACK
6
CONTINUOUS
10
210.999
20
-106.15
11
211.002
21
-106.146
0
LINE
8
BLACK
6
CONTINUOUS
10
211.002
20
-106.146
11
211.005
21
-106.142
0
LINE
8
BLACK
6
CONTINUOUS
10
211.005
20
-106.142
11
211.009
21
-106.139
0
LINE
8
BLACK
6
CONTINUOUS
10
211.009
20
-106.139
11
211.013
21
-106.137
0
LINE
8
BLACK
6
CONTINUOUS
10
211.013
20
-106.137
11
211.018
21
-106.135
0
LINE
8
BLACK
6
CONTINUOUS
10
211.018
20
-106.135
11
211.021
21
-106.135
0
LINE
8
BLACK
6
CONTINUOUS
10
211.021
20
-106.135
11
211.021
21
-106.135
0
LINE
8
BLACK
6
CONTINUOUS
10
211.021
20
-106.135
11
211.022
21
-106.135
0
LINE
8
BLACK
6
CONTINUOUS
10
211.022
20
-106.135
11
211.024
21
-106.135
0
LINE
8
BLACK
6
CONTINUOUS
10
211.024
20
-106.135
11
214.421
21
-106.135
0
LINE
8
BLACK
6
CONTINUOUS
10
214.421
20
-106.135
11
214.422
21
-106.135
0
LINE
8
BLACK
6
CONTINUOUS
10
214.422
20
-106.135
11
214.424
21
-106.135
0
LINE
8
BLACK
6
CONTINUOUS
10
211.047
20
-106.185
11
211.047
21
-109.135
0
LINE
8
BLACK
6
CONTINUOUS
10
211.047
20
-109.135
11
214.397
21
-109.135
0
LINE
8
BLACK
6
CONTINUOUS
10
214.397
20
-109.135
11
214.397
21
-106.185
0
LINE
8
BLACK
6
CONTINUOUS
10
214.397
20
-106.185
11
211.047
21
-106.185
0
LINE
8
BLACK
6
CONTINUOUS
10
95.3612
20
-101.372
11
95.3612
21
-101.372
0
LINE
8
BLACK
6
CONTINUOUS
10
95.3612
20
-101.372
11
95.3649
21
-101.373
0
LINE
8
BLACK
6
CONTINUOUS
10
95.3649
20
-101.373
11
95.3696
21
-101.374
0
LINE
8
BLACK
6
CONTINUOUS
10
95.3696
20
-101.374
11
95.3739
21
-101.377
0
LINE
8
BLACK
6
CONTINUOUS
10
95.3739
20
-101.377
11
95.3777
21
-101.38
0
LINE
8
BLACK
6
CONTINUOUS
10
95.3777
20
-101.38
11
95.3808
21
-101.384
0
LINE
8
BLACK
6
CONTINUOUS
10
95.3808
20
-101.384
11
95.3832
21
-101.388
0
LINE
8
BLACK
6
CONTINUOUS
10
95.3832
20
-101.388
11
95.3846
21
-101.393
0
LINE
8
BLACK
6
CONTINUOUS
10
95.3846
20
-101.393
11
95.3851
21
-101.397
0
LINE
8
BLACK
6
CONTINUOUS
10
95.3851
20
-101.397
11
95.385
21
-101.399
0
LINE
8
BLACK
6
CONTINUOUS
10
95.385
20
-101.399
11
95.385
21
-104.396
0
LINE
8
BLACK
6
CONTINUOUS
10
95.385
20
-104.396
11
95.3851
21
-104.397
0
LINE
8
BLACK
6
CONTINUOUS
10
95.3851
20
-104.397
11
95.385
21
-104.399
0
LINE
8
BLACK
6
CONTINUOUS
10
95.385
20
-104.399
11
95.385
21
-104.399
0
LINE
8
BLACK
6
CONTINUOUS
10
95.385
20
-104.399
11
95.3846
21
-104.402
0
LINE
8
BLACK
6
CONTINUOUS
10
95.3846
20
-104.402
11
95.3832
21
-104.407
0
LINE
8
BLACK
6
CONTINUOUS
10
95.3832
20
-104.407
11
95.3808
21
-104.411
0
LINE
8
BLACK
6
CONTINUOUS
10
95.3808
20
-104.411
11
95.3777
21
-104.415
0
LINE
8
BLACK
6
CONTINUOUS
10
95.3777
20
-104.415
11
95.3739
21
-104.418
0
LINE
8
BLACK
6
CONTINUOUS
10
95.3739
20
-104.418
11
95.3696
21
-104.421
0
LINE
8
BLACK
6
CONTINUOUS
10
95.3696
20
-104.421
11
95.3649
21
-104.422
0
LINE
8
BLACK
6
CONTINUOUS
10
95.3649
20
-104.422
11
95.36
21
-104.423
0
LINE
8
BLACK
6
CONTINUOUS
10
95.36
20
-104.423
11
95.3587
21
-104.422
0
LINE
8
BLACK
6
CONTINUOUS
10
95.3587
20
-104.422
11
91.9612
21
-104.422
0
LINE
8
BLACK
6
CONTINUOUS
10
91.9612
20
-104.422
11
91.96
21
-104.423
0
LINE
8
BLACK
6
CONTINUOUS
10
91.96
20
-104.423
11
91.9551
21
-104.422
0
LINE
8
BLACK
6
CONTINUOUS
10
91.9551
20
-104.422
11
91.9503
21
-104.421
0
LINE
8
BLACK
6
CONTINUOUS
10
91.9503
20
-104.421
11
91.946
21
-104.418
0
LINE
8
BLACK
6
CONTINUOUS
10
91.946
20
-104.418
11
91.9422
21
-104.415
0
LINE
8
BLACK
6
CONTINUOUS
10
91.9422
20
-104.415
11
91.9391
21
-104.411
0
LINE
8
BLACK
6
CONTINUOUS
10
91.9391
20
-104.411
11
91.9368
21
-104.407
0
LINE
8
BLACK
6
CONTINUOUS
10
91.9368
20
-104.407
11
91.9353
21
-104.402
0
LINE
8
BLACK
6
CONTINUOUS
10
91.9353
20
-104.402
11
91.9348
21
-104.397
0
LINE
8
BLACK
6
CONTINUOUS
10
91.9348
20
-104.397
11
91.935
21
-104.396
0
LINE
8
BLACK
6
CONTINUOUS
10
91.935
20
-104.396
11
91.935
21
-101.399
0
LINE
8
BLACK
6
CONTINUOUS
10
91.935
20
-101.399
11
91.9348
21
-101.397
0
LINE
8
BLACK
6
CONTINUOUS
10
91.9348
20
-101.397
11
91.9353
21
-101.393
0
LINE
8
BLACK
6
CONTINUOUS
10
91.9353
20
-101.393
11
91.9368
21
-101.388
0
LINE
8
BLACK
6
CONTINUOUS
10
91.9368
20
-101.388
11
91.9391
21
-101.384
0
LINE
8
BLACK
6
CONTINUOUS
10
91.9391
20
-101.384
11
91.9422
21
-101.38
0
LINE
8
BLACK
6
CONTINUOUS
10
91.9422
20
-101.38
11
91.946
21
-101.377
0
LINE
8
BLACK
6
CONTINUOUS
10
91.946
20
-101.377
11
91.9503
21
-101.374
0
LINE
8
BLACK
6
CONTINUOUS
10
91.9503
20
-101.374
11
91.9551
21
-101.373
0
LINE
8
BLACK
6
CONTINUOUS
10
91.9551
20
-101.373
11
91.9587
21
-101.372
0
LINE
8
BLACK
6
CONTINUOUS
10
91.9587
20
-101.372
11
91.9587
21
-101.372
0
LINE
8
BLACK
6
CONTINUOUS
10
91.9587
20
-101.372
11
91.96
21
-101.372
0
LINE
8
BLACK
6
CONTINUOUS
10
91.96
20
-101.372
11
91.9612
21
-101.372
0
LINE
8
BLACK
6
CONTINUOUS
10
91.9612
20
-101.372
11
95.3587
21
-101.372
0
LINE
8
BLACK
6
CONTINUOUS
10
95.3587
20
-101.372
11
95.36
21
-101.372
0
LINE
8
BLACK
6
CONTINUOUS
10
95.36
20
-101.372
11
95.3612
21
-101.372
0
LINE
8
BLACK
6
CONTINUOUS
10
91.985
20
-101.422
11
91.985
21
-104.372
0
LINE
8
BLACK
6
CONTINUOUS
10
91.985
20
-104.372
11
95.335
21
-104.372
0
LINE
8
BLACK
6
CONTINUOUS
10
95.335
20
-104.372
11
95.335
21
-101.422
0
LINE
8
BLACK
6
CONTINUOUS
10
95.335
20
-101.422
11
91.985
21
-101.422
0
LINE
8
BLACK
6
CONTINUOUS
10
119.174
20
-101.372
11
119.174
21
-101.372
0
LINE
8
BLACK
6
CONTINUOUS
10
119.174
20
-101.372
11
119.177
21
-101.373
0
LINE
8
BLACK
6
CONTINUOUS
10
119.177
20
-101.373
11
119.182
21
-101.374
0
LINE
8
BLACK
6
CONTINUOUS
10
119.182
20
-101.374
11
119.186
21
-101.377
0
LINE
8
BLACK
6
CONTINUOUS
10
119.186
20
-101.377
11
119.19
21
-101.38
0
LINE
8
BLACK
6
CONTINUOUS
10
119.19
20
-101.38
11
119.193
21
-101.384
0
LINE
8
BLACK
6
CONTINUOUS
10
119.193
20
-101.384
11
119.196
21
-101.388
0
LINE
8
BLACK
6
CONTINUOUS
10
119.196
20
-101.388
11
119.197
21
-101.393
0
LINE
8
BLACK
6
CONTINUOUS
10
119.197
20
-101.393
11
119.198
21
-101.397
0
LINE
8
BLACK
6
CONTINUOUS
10
119.198
20
-101.397
11
119.197
21
-101.399
0
LINE
8
BLACK
6
CONTINUOUS
10
119.197
20
-101.399
11
119.197
21
-104.396
0
LINE
8
BLACK
6
CONTINUOUS
10
119.197
20
-104.396
11
119.198
21
-104.397
0
LINE
8
BLACK
6
CONTINUOUS
10
119.198
20
-104.397
11
119.197
21
-104.399
0
LINE
8
BLACK
6
CONTINUOUS
10
119.197
20
-104.399
11
119.197
21
-104.399
0
LINE
8
BLACK
6
CONTINUOUS
10
119.197
20
-104.399
11
119.197
21
-104.402
0
LINE
8
BLACK
6
CONTINUOUS
10
119.197
20
-104.402
11
119.196
21
-104.407
0
LINE
8
BLACK
6
CONTINUOUS
10
119.196
20
-104.407
11
119.193
21
-104.411
0
LINE
8
BLACK
6
CONTINUOUS
10
119.193
20
-104.411
11
119.19
21
-104.415
0
LINE
8
BLACK
6
CONTINUOUS
10
119.19
20
-104.415
11
119.186
21
-104.418
0
LINE
8
BLACK
6
CONTINUOUS
10
119.186
20
-104.418
11
119.182
21
-104.421
0
LINE
8
BLACK
6
CONTINUOUS
10
119.182
20
-104.421
11
119.177
21
-104.422
0
LINE
8
BLACK
6
CONTINUOUS
10
119.177
20
-104.422
11
119.172
21
-104.423
0
LINE
8
BLACK
6
CONTINUOUS
10
119.172
20
-104.423
11
119.171
21
-104.422
0
LINE
8
BLACK
6
CONTINUOUS
10
119.171
20
-104.422
11
115.774
21
-104.422
0
LINE
8
BLACK
6
CONTINUOUS
10
115.774
20
-104.422
11
115.772
21
-104.423
0
LINE
8
BLACK
6
CONTINUOUS
10
115.772
20
-104.423
11
115.768
21
-104.422
0
LINE
8
BLACK
6
CONTINUOUS
10
115.768
20
-104.422
11
115.763
21
-104.421
0
LINE
8
BLACK
6
CONTINUOUS
10
115.763
20
-104.421
11
115.759
21
-104.418
0
LINE
8
BLACK
6
CONTINUOUS
10
115.759
20
-104.418
11
115.755
21
-104.415
0
LINE
8
BLACK
6
CONTINUOUS
10
115.755
20
-104.415
11
115.752
21
-104.411
0
LINE
8
BLACK
6
CONTINUOUS
10
115.752
20
-104.411
11
115.749
21
-104.407
0
LINE
8
BLACK
6
CONTINUOUS
10
115.749
20
-104.407
11
115.748
21
-104.402
0
LINE
8
BLACK
6
CONTINUOUS
10
115.748
20
-104.402
11
115.747
21
-104.397
0
LINE
8
BLACK
6
CONTINUOUS
10
115.747
20
-104.397
11
115.747
21
-104.396
0
LINE
8
BLACK
6
CONTINUOUS
10
115.747
20
-104.396
11
115.747
21
-101.399
0
LINE
8
BLACK
6
CONTINUOUS
10
115.747
20
-101.399
11
115.747
21
-101.397
0
LINE
8
BLACK
6
CONTINUOUS
10
115.747
20
-101.397
11
115.748
21
-101.393
0
LINE
8
BLACK
6
CONTINUOUS
10
115.748
20
-101.393
11
115.749
21
-101.388
0
LINE
8
BLACK
6
CONTINUOUS
10
115.749
20
-101.388
11
115.752
21
-101.384
0
LINE
8
BLACK
6
CONTINUOUS
10
115.752
20
-101.384
11
115.755
21
-101.38
0
LINE
8
BLACK
6
CONTINUOUS
10
115.755
20
-101.38
11
115.759
21
-101.377
0
LINE
8
BLACK
6
CONTINUOUS
10
115.759
20
-101.377
11
115.763
21
-101.374
0
LINE
8
BLACK
6
CONTINUOUS
10
115.763
20
-101.374
11
115.768
21
-101.373
0
LINE
8
BLACK
6
CONTINUOUS
10
115.768
20
-101.373
11
115.771
21
-101.372
0
LINE
8
BLACK
6
CONTINUOUS
10
115.771
20
-101.372
11
115.771
21
-101.372
0
LINE
8
BLACK
6
CONTINUOUS
10
115.771
20
-101.372
11
115.772
21
-101.372
0
LINE
8
BLACK
6
CONTINUOUS
10
115.772
20
-101.372
11
115.774
21
-101.372
0
LINE
8
BLACK
6
CONTINUOUS
10
115.774
20
-101.372
11
119.171
21
-101.372
0
LINE
8
BLACK
6
CONTINUOUS
10
119.171
20
-101.372
11
119.172
21
-101.372
0
LINE
8
BLACK
6
CONTINUOUS
10
119.172
20
-101.372
11
119.174
21
-101.372
0
LINE
8
BLACK
6
CONTINUOUS
10
115.797
20
-101.422
11
115.797
21
-104.372
0
LINE
8
BLACK
6
CONTINUOUS
10
115.797
20
-104.372
11
119.147
21
-104.372
0
LINE
8
BLACK
6
CONTINUOUS
10
119.147
20
-104.372
11
119.147
21
-101.422
0
LINE
8
BLACK
6
CONTINUOUS
10
119.147
20
-101.422
11
115.797
21
-101.422
0
LINE
8
BLACK
6
CONTINUOUS
10
195.374
20
-101.372
11
195.374
21
-101.372
0
LINE
8
BLACK
6
CONTINUOUS
10
195.374
20
-101.372
11
195.377
21
-101.373
0
LINE
8
BLACK
6
CONTINUOUS
10
195.377
20
-101.373
11
195.382
21
-101.374
0
LINE
8
BLACK
6
CONTINUOUS
10
195.382
20
-101.374
11
195.386
21
-101.377
0
LINE
8
BLACK
6
CONTINUOUS
10
195.386
20
-101.377
11
195.39
21
-101.38
0
LINE
8
BLACK
6
CONTINUOUS
10
195.39
20
-101.38
11
195.393
21
-101.384
0
LINE
8
BLACK
6
CONTINUOUS
10
195.393
20
-101.384
11
195.396
21
-101.388
0
LINE
8
BLACK
6
CONTINUOUS
10
195.396
20
-101.388
11
195.397
21
-101.393
0
LINE
8
BLACK
6
CONTINUOUS
10
195.397
20
-101.393
11
195.398
21
-101.397
0
LINE
8
BLACK
6
CONTINUOUS
10
195.398
20
-101.397
11
195.397
21
-101.399
0
LINE
8
BLACK
6
CONTINUOUS
10
195.397
20
-101.399
11
195.397
21
-104.396
0
LINE
8
BLACK
6
CONTINUOUS
10
195.397
20
-104.396
11
195.398
21
-104.397
0
LINE
8
BLACK
6
CONTINUOUS
10
195.398
20
-104.397
11
195.397
21
-104.399
0
LINE
8
BLACK
6
CONTINUOUS
10
195.397
20
-104.399
11
195.397
21
-104.399
0
LINE
8
BLACK
6
CONTINUOUS
10
195.397
20
-104.399
11
195.397
21
-104.402
0
LINE
8
BLACK
6
CONTINUOUS
10
195.397
20
-104.402
11
195.396
21
-104.407
0
LINE
8
BLACK
6
CONTINUOUS
10
195.396
20
-104.407
11
195.393
21
-104.411
0
LINE
8
BLACK
6
CONTINUOUS
10
195.393
20
-104.411
11
195.39
21
-104.415
0
LINE
8
BLACK
6
CONTINUOUS
10
195.39
20
-104.415
11
195.386
21
-104.418
0
LINE
8
BLACK
6
CONTINUOUS
10
195.386
20
-104.418
11
195.382
21
-104.421
0
LINE
8
BLACK
6
CONTINUOUS
10
195.382
20
-104.421
11
195.377
21
-104.422
0
LINE
8
BLACK
6
CONTINUOUS
10
195.377
20
-104.422
11
195.372
21
-104.423
0
LINE
8
BLACK
6
CONTINUOUS
10
195.372
20
-104.423
11
195.371
21
-104.422
0
LINE
8
BLACK
6
CONTINUOUS
10
195.371
20
-104.422
11
191.974
21
-104.422
0
LINE
8
BLACK
6
CONTINUOUS
10
191.974
20
-104.422
11
191.972
21
-104.423
0
LINE
8
BLACK
6
CONTINUOUS
10
191.972
20
-104.423
11
191.968
21
-104.422
0
LINE
8
BLACK
6
CONTINUOUS
10
191.968
20
-104.422
11
191.963
21
-104.421
0
LINE
8
BLACK
6
CONTINUOUS
10
191.963
20
-104.421
11
191.959
21
-104.418
0
LINE
8
BLACK
6
CONTINUOUS
10
191.959
20
-104.418
11
191.955
21
-104.415
0
LINE
8
BLACK
6
CONTINUOUS
10
191.955
20
-104.415
11
191.952
21
-104.411
0
LINE
8
BLACK
6
CONTINUOUS
10
191.952
20
-104.411
11
191.949
21
-104.407
0
LINE
8
BLACK
6
CONTINUOUS
10
191.949
20
-104.407
11
191.948
21
-104.402
0
LINE
8
BLACK
6
CONTINUOUS
10
191.948
20
-104.402
11
191.947
21
-104.397
0
LINE
8
BLACK
6
CONTINUOUS
10
191.947
20
-104.397
11
191.947
21
-104.396
0
LINE
8
BLACK
6
CONTINUOUS
10
191.947
20
-104.396
11
191.947
21
-101.399
0
LINE
8
BLACK
6
CONTINUOUS
10
191.947
20
-101.399
11
191.947
21
-101.397
0
LINE
8
BLACK
6
CONTINUOUS
10
191.947
20
-101.397
11
191.948
21
-101.393
0
LINE
8
BLACK
6
CONTINUOUS
10
191.948
20
-101.393
11
191.949
21
-101.388
0
LINE
8
BLACK
6
CONTINUOUS
10
191.949
20
-101.388
11
191.952
21
-101.384
0
LINE
8
BLACK
6
CONTINUOUS
10
191.952
20
-101.384
11
191.955
21
-101.38
0
LINE
8
BLACK
6
CONTINUOUS
10
191.955
20
-101.38
11
191.959
21
-101.377
0
LINE
8
BLACK
6
CONTINUOUS
10
191.959
20
-101.377
11
191.963
21
-101.374
0
LINE
8
BLACK
6
CONTINUOUS
10
191.963
20
-101.374
11
191.968
21
-101.373
0
LINE
8
BLACK
6
CONTINUOUS
10
191.968
20
-101.373
11
191.971
21
-101.372
0
LINE
8
BLACK
6
CONTINUOUS
10
191.971
20
-101.372
11
191.971
21
-101.372
0
LINE
8
BLACK
6
CONTINUOUS
10
191.971
20
-101.372
11
191.972
21
-101.372
0
LINE
8
BLACK
6
CONTINUOUS
10
191.972
20
-101.372
11
191.974
21
-101.372
0
LINE
8
BLACK
6
CONTINUOUS
10
191.974
20
-101.372
11
195.371
21
-101.372
0
LINE
8
BLACK
6
CONTINUOUS
10
195.371
20
-101.372
11
195.372
21
-101.372
0
LINE
8
BLACK
6
CONTINUOUS
10
195.372
20
-101.372
11
195.374
21
-101.372
0
LINE
8
BLACK
6
CONTINUOUS
10
191.997
20
-101.422
11
191.997
21
-104.372
0
LINE
8
BLACK
6
CONTINUOUS
10
191.997
20
-104.372
11
195.347
21
-104.372
0
LINE
8
BLACK
6
CONTINUOUS
10
195.347
20
-104.372
11
195.347
21
-101.422
0
LINE
8
BLACK
6
CONTINUOUS
10
195.347
20
-101.422
11
191.997
21
-101.422
0
LINE
8
BLACK
6
CONTINUOUS
10
176.324
20
-98.9912
11
176.324
21
-98.9912
0
LINE
8
BLACK
6
CONTINUOUS
10
176.324
20
-98.9912
11
176.327
21
-98.9916
0
LINE
8
BLACK
6
CONTINUOUS
10
176.327
20
-98.9916
11
176.332
21
-98.993
0
LINE
8
BLACK
6
CONTINUOUS
10
176.332
20
-98.993
11
176.336
21
-98.9953
0
LINE
8
BLACK
6
CONTINUOUS
10
176.336
20
-98.9953
11
176.34
21
-98.9984
0
LINE
8
BLACK
6
CONTINUOUS
10
176.34
20
-98.9984
11
176.343
21
-99.0023
0
LINE
8
BLACK
6
CONTINUOUS
10
176.343
20
-99.0023
11
176.346
21
-99.0066
0
LINE
8
BLACK
6
CONTINUOUS
10
176.346
20
-99.0066
11
176.347
21
-99.0113
0
LINE
8
BLACK
6
CONTINUOUS
10
176.347
20
-99.0113
11
176.348
21
-99.0162
0
LINE
8
BLACK
6
CONTINUOUS
10
176.348
20
-99.0162
11
176.347
21
-99.0174
0
LINE
8
BLACK
6
CONTINUOUS
10
176.347
20
-99.0174
11
176.347
21
-102.015
0
LINE
8
BLACK
6
CONTINUOUS
10
176.347
20
-102.015
11
176.348
21
-102.016
0
LINE
8
BLACK
6
CONTINUOUS
10
176.348
20
-102.016
11
176.347
21
-102.017
0
LINE
8
BLACK
6
CONTINUOUS
10
176.347
20
-102.017
11
176.347
21
-102.017
0
LINE
8
BLACK
6
CONTINUOUS
10
176.347
20
-102.017
11
176.347
21
-102.021
0
LINE
8
BLACK
6
CONTINUOUS
10
176.347
20
-102.021
11
176.346
21
-102.026
0
LINE
8
BLACK
6
CONTINUOUS
10
176.346
20
-102.026
11
176.343
21
-102.03
0
LINE
8
BLACK
6
CONTINUOUS
10
176.343
20
-102.03
11
176.34
21
-102.034
0
LINE
8
BLACK
6
CONTINUOUS
10
176.34
20
-102.034
11
176.336
21
-102.037
0
LINE
8
BLACK
6
CONTINUOUS
10
176.336
20
-102.037
11
176.332
21
-102.039
0
LINE
8
BLACK
6
CONTINUOUS
10
176.332
20
-102.039
11
176.327
21
-102.041
0
LINE
8
BLACK
6
CONTINUOUS
10
176.327
20
-102.041
11
176.322
21
-102.041
0
LINE
8
BLACK
6
CONTINUOUS
10
176.322
20
-102.041
11
176.321
21
-102.041
0
LINE
8
BLACK
6
CONTINUOUS
10
176.321
20
-102.041
11
172.924
21
-102.041
0
LINE
8
BLACK
6
CONTINUOUS
10
172.924
20
-102.041
11
172.922
21
-102.041
0
LINE
8
BLACK
6
CONTINUOUS
10
172.922
20
-102.041
11
172.918
21
-102.041
0
LINE
8
BLACK
6
CONTINUOUS
10
172.918
20
-102.041
11
172.913
21
-102.039
0
LINE
8
BLACK
6
CONTINUOUS
10
172.913
20
-102.039
11
172.909
21
-102.037
0
LINE
8
BLACK
6
CONTINUOUS
10
172.909
20
-102.037
11
172.905
21
-102.034
0
LINE
8
BLACK
6
CONTINUOUS
10
172.905
20
-102.034
11
172.904
21
-102.033
0
LINE
8
BLACK
6
CONTINUOUS
10
172.904
20
-102.033
11
172.902
21
-102.03
0
LINE
8
BLACK
6
CONTINUOUS
10
172.902
20
-102.03
11
172.899
21
-102.026
0
LINE
8
BLACK
6
CONTINUOUS
10
172.899
20
-102.026
11
172.898
21
-102.021
0
LINE
8
BLACK
6
CONTINUOUS
10
172.898
20
-102.021
11
172.897
21
-102.016
0
LINE
8
BLACK
6
CONTINUOUS
10
172.897
20
-102.016
11
172.897
21
-102.015
0
LINE
8
BLACK
6
CONTINUOUS
10
172.897
20
-102.015
11
172.897
21
-99.0174
0
LINE
8
BLACK
6
CONTINUOUS
10
172.897
20
-99.0174
11
172.897
21
-99.0162
0
LINE
8
BLACK
6
CONTINUOUS
10
172.897
20
-99.0162
11
172.898
21
-99.0113
0
LINE
8
BLACK
6
CONTINUOUS
10
172.898
20
-99.0113
11
172.899
21
-99.0066
0
LINE
8
BLACK
6
CONTINUOUS
10
172.899
20
-99.0066
11
172.902
21
-99.0023
0
LINE
8
BLACK
6
CONTINUOUS
10
172.902
20
-99.0023
11
172.905
21
-98.9984
0
LINE
8
BLACK
6
CONTINUOUS
10
172.905
20
-98.9984
11
172.909
21
-98.9953
0
LINE
8
BLACK
6
CONTINUOUS
10
172.909
20
-98.9953
11
172.913
21
-98.993
0
LINE
8
BLACK
6
CONTINUOUS
10
172.913
20
-98.993
11
172.918
21
-98.9916
0
LINE
8
BLACK
6
CONTINUOUS
10
172.918
20
-98.9916
11
172.921
21
-98.9912
0
LINE
8
BLACK
6
CONTINUOUS
10
172.921
20
-98.9912
11
172.921
21
-98.9912
0
LINE
8
BLACK
6
CONTINUOUS
10
172.921
20
-98.9912
11
172.922
21
-98.9911
0
LINE
8
BLACK
6
CONTINUOUS
10
172.922
20
-98.9911
11
172.924
21
-98.9912
0
LINE
8
BLACK
6
CONTINUOUS
10
172.924
20
-98.9912
11
176.321
21
-98.9912
0
LINE
8
BLACK
6
CONTINUOUS
10
176.321
20
-98.9912
11
176.322
21
-98.9911
0
LINE
8
BLACK
6
CONTINUOUS
10
176.322
20
-98.9911
11
176.324
21
-98.9912
0
LINE
8
BLACK
6
CONTINUOUS
10
172.947
20
-99.0412
11
172.947
21
-101.991
0
LINE
8
BLACK
6
CONTINUOUS
10
172.947
20
-101.991
11
176.297
21
-101.991
0
LINE
8
BLACK
6
CONTINUOUS
10
176.297
20
-101.991
11
176.297
21
-99.0412
0
LINE
8
BLACK
6
CONTINUOUS
10
176.297
20
-99.0412
11
172.947
21
-99.0412
0
LINE
8
BLACK
6
CONTINUOUS
10
138.22
20
-98.9875
11
138.22
21
-98.9875
0
LINE
8
BLACK
6
CONTINUOUS
10
138.22
20
-98.9875
11
138.224
21
-98.9879
0
LINE
8
BLACK
6
CONTINUOUS
10
138.224
20
-98.9879
11
138.228
21
-98.9893
0
LINE
8
BLACK
6
CONTINUOUS
10
138.228
20
-98.9893
11
138.233
21
-98.9916
0
LINE
8
BLACK
6
CONTINUOUS
10
138.233
20
-98.9916
11
138.236
21
-98.9948
0
LINE
8
BLACK
6
CONTINUOUS
10
138.236
20
-98.9948
11
138.24
21
-98.9986
0
LINE
8
BLACK
6
CONTINUOUS
10
138.24
20
-98.9986
11
138.242
21
-99.0029
0
LINE
8
BLACK
6
CONTINUOUS
10
138.242
20
-99.0029
11
138.243
21
-99.0076
0
LINE
8
BLACK
6
CONTINUOUS
10
138.243
20
-99.0076
11
138.244
21
-99.0125
0
LINE
8
BLACK
6
CONTINUOUS
10
138.244
20
-99.0125
11
138.244
21
-99.0137
0
LINE
8
BLACK
6
CONTINUOUS
10
138.244
20
-99.0137
11
138.244
21
-102.011
0
LINE
8
BLACK
6
CONTINUOUS
10
138.244
20
-102.011
11
138.244
21
-102.013
0
LINE
8
BLACK
6
CONTINUOUS
10
138.244
20
-102.013
11
138.244
21
-102.014
0
LINE
8
BLACK
6
CONTINUOUS
10
138.244
20
-102.014
11
138.244
21
-102.014
0
LINE
8
BLACK
6
CONTINUOUS
10
138.244
20
-102.014
11
138.243
21
-102.017
0
LINE
8
BLACK
6
CONTINUOUS
10
138.243
20
-102.017
11
138.242
21
-102.022
0
LINE
8
BLACK
6
CONTINUOUS
10
138.242
20
-102.022
11
138.24
21
-102.026
0
LINE
8
BLACK
6
CONTINUOUS
10
138.24
20
-102.026
11
138.236
21
-102.03
0
LINE
8
BLACK
6
CONTINUOUS
10
138.236
20
-102.03
11
138.233
21
-102.033
0
LINE
8
BLACK
6
CONTINUOUS
10
138.233
20
-102.033
11
138.228
21
-102.036
0
LINE
8
BLACK
6
CONTINUOUS
10
138.228
20
-102.036
11
138.224
21
-102.037
0
LINE
8
BLACK
6
CONTINUOUS
10
138.224
20
-102.037
11
138.219
21
-102.038
0
LINE
8
BLACK
6
CONTINUOUS
10
138.219
20
-102.038
11
138.218
21
-102.038
0
LINE
8
BLACK
6
CONTINUOUS
10
138.218
20
-102.038
11
134.82
21
-102.038
0
LINE
8
BLACK
6
CONTINUOUS
10
134.82
20
-102.038
11
134.819
21
-102.038
0
LINE
8
BLACK
6
CONTINUOUS
10
134.819
20
-102.038
11
134.814
21
-102.037
0
LINE
8
BLACK
6
CONTINUOUS
10
134.814
20
-102.037
11
134.809
21
-102.036
0
LINE
8
BLACK
6
CONTINUOUS
10
134.809
20
-102.036
11
134.805
21
-102.033
0
LINE
8
BLACK
6
CONTINUOUS
10
134.805
20
-102.033
11
134.801
21
-102.03
0
LINE
8
BLACK
6
CONTINUOUS
10
134.801
20
-102.03
11
134.801
21
-102.03
0
LINE
8
BLACK
6
CONTINUOUS
10
134.801
20
-102.03
11
134.798
21
-102.026
0
LINE
8
BLACK
6
CONTINUOUS
10
134.798
20
-102.026
11
134.796
21
-102.022
0
LINE
8
BLACK
6
CONTINUOUS
10
134.796
20
-102.022
11
134.794
21
-102.017
0
LINE
8
BLACK
6
CONTINUOUS
10
134.794
20
-102.017
11
134.794
21
-102.013
0
LINE
8
BLACK
6
CONTINUOUS
10
134.794
20
-102.013
11
134.794
21
-102.011
0
LINE
8
BLACK
6
CONTINUOUS
10
134.794
20
-102.011
11
134.794
21
-99.0137
0
LINE
8
BLACK
6
CONTINUOUS
10
134.794
20
-99.0137
11
134.794
21
-99.0125
0
LINE
8
BLACK
6
CONTINUOUS
10
134.794
20
-99.0125
11
134.794
21
-99.0076
0
LINE
8
BLACK
6
CONTINUOUS
10
134.794
20
-99.0076
11
134.796
21
-99.0029
0
LINE
8
BLACK
6
CONTINUOUS
10
134.796
20
-99.0029
11
134.798
21
-98.9986
0
LINE
8
BLACK
6
CONTINUOUS
10
134.798
20
-98.9986
11
134.801
21
-98.9948
0
LINE
8
BLACK
6
CONTINUOUS
10
134.801
20
-98.9948
11
134.805
21
-98.9916
0
LINE
8
BLACK
6
CONTINUOUS
10
134.805
20
-98.9916
11
134.809
21
-98.9893
0
LINE
8
BLACK
6
CONTINUOUS
10
134.809
20
-98.9893
11
134.814
21
-98.9879
0
LINE
8
BLACK
6
CONTINUOUS
10
134.814
20
-98.9879
11
134.818
21
-98.9875
0
LINE
8
BLACK
6
CONTINUOUS
10
134.818
20
-98.9875
11
134.818
21
-98.9875
0
LINE
8
BLACK
6
CONTINUOUS
10
134.818
20
-98.9875
11
134.819
21
-98.9874
0
LINE
8
BLACK
6
CONTINUOUS
10
134.819
20
-98.9874
11
134.82
21
-98.9875
0
LINE
8
BLACK
6
CONTINUOUS
10
134.82
20
-98.9875
11
138.218
21
-98.9875
0
LINE
8
BLACK
6
CONTINUOUS
10
138.218
20
-98.9875
11
138.219
21
-98.9874
0
LINE
8
BLACK
6
CONTINUOUS
10
138.219
20
-98.9874
11
138.22
21
-98.9875
0
LINE
8
BLACK
6
CONTINUOUS
10
134.844
20
-99.0375
11
134.844
21
-101.988
0
LINE
8
BLACK
6
CONTINUOUS
10
134.844
20
-101.988
11
138.194
21
-101.988
0
LINE
8
BLACK
6
CONTINUOUS
10
138.194
20
-101.988
11
138.194
21
-99.0375
0
LINE
8
BLACK
6
CONTINUOUS
10
138.194
20
-99.0375
11
134.844
21
-99.0375
0
LINE
8
BLACK
6
CONTINUOUS
10
157.274
20
-96.61
11
157.274
21
-96.61
0
LINE
8
BLACK
6
CONTINUOUS
10
157.274
20
-96.61
11
157.277
21
-96.6103
0
LINE
8
BLACK
6
CONTINUOUS
10
157.277
20
-96.6103
11
157.282
21
-96.6118
0
LINE
8
BLACK
6
CONTINUOUS
10
157.282
20
-96.6118
11
157.286
21
-96.6141
0
LINE
8
BLACK
6
CONTINUOUS
10
157.286
20
-96.6141
11
157.29
21
-96.6172
0
LINE
8
BLACK
6
CONTINUOUS
10
157.29
20
-96.6172
11
157.293
21
-96.621
0
LINE
8
BLACK
6
CONTINUOUS
10
157.293
20
-96.621
11
157.296
21
-96.6253
0
LINE
8
BLACK
6
CONTINUOUS
10
157.296
20
-96.6253
11
157.297
21
-96.6301
0
LINE
8
BLACK
6
CONTINUOUS
10
157.297
20
-96.6301
11
157.298
21
-96.635
0
LINE
8
BLACK
6
CONTINUOUS
10
157.298
20
-96.635
11
157.297
21
-96.6362
0
LINE
8
BLACK
6
CONTINUOUS
10
157.297
20
-96.6362
11
157.297
21
-99.6337
0
LINE
8
BLACK
6
CONTINUOUS
10
157.297
20
-99.6337
11
157.298
21
-99.635
0
LINE
8
BLACK
6
CONTINUOUS
10
157.298
20
-99.635
11
157.297
21
-99.6362
0
LINE
8
BLACK
6
CONTINUOUS
10
157.297
20
-99.6362
11
157.297
21
-99.6362
0
LINE
8
BLACK
6
CONTINUOUS
10
157.297
20
-99.6362
11
157.297
21
-99.6399
0
LINE
8
BLACK
6
CONTINUOUS
10
157.297
20
-99.6399
11
157.296
21
-99.6446
0
LINE
8
BLACK
6
CONTINUOUS
10
157.296
20
-99.6446
11
157.293
21
-99.6489
0
LINE
8
BLACK
6
CONTINUOUS
10
157.293
20
-99.6489
11
157.29
21
-99.6527
0
LINE
8
BLACK
6
CONTINUOUS
10
157.29
20
-99.6527
11
157.286
21
-99.6558
0
LINE
8
BLACK
6
CONTINUOUS
10
157.286
20
-99.6558
11
157.282
21
-99.6582
0
LINE
8
BLACK
6
CONTINUOUS
10
157.282
20
-99.6582
11
157.277
21
-99.6596
0
LINE
8
BLACK
6
CONTINUOUS
10
157.277
20
-99.6596
11
157.272
21
-99.6601
0
LINE
8
BLACK
6
CONTINUOUS
10
157.272
20
-99.6601
11
157.271
21
-99.66
0
LINE
8
BLACK
6
CONTINUOUS
10
157.271
20
-99.66
11
153.874
21
-99.66
0
LINE
8
BLACK
6
CONTINUOUS
10
153.874
20
-99.66
11
153.872
21
-99.6601
0
LINE
8
BLACK
6
CONTINUOUS
10
153.872
20
-99.6601
11
153.868
21
-99.6596
0
LINE
8
BLACK
6
CONTINUOUS
10
153.868
20
-99.6596
11
153.863
21
-99.6582
0
LINE
8
BLACK
6
CONTINUOUS
10
153.863
20
-99.6582
11
153.859
21
-99.6558
0
LINE
8
BLACK
6
CONTINUOUS
10
153.859
20
-99.6558
11
153.855
21
-99.6527
0
LINE
8
BLACK
6
CONTINUOUS
10
153.855
20
-99.6527
11
153.852
21
-99.6489
0
LINE
8
BLACK
6
CONTINUOUS
10
153.852
20
-99.6489
11
153.849
21
-99.6446
0
LINE
8
BLACK
6
CONTINUOUS
10
153.849
20
-99.6446
11
153.848
21
-99.6399
0
LINE
8
BLACK
6
CONTINUOUS
10
153.848
20
-99.6399
11
153.847
21
-99.635
0
LINE
8
BLACK
6
CONTINUOUS
10
153.847
20
-99.635
11
153.847
21
-99.6337
0
LINE
8
BLACK
6
CONTINUOUS
10
153.847
20
-99.6337
11
153.847
21
-96.6362
0
LINE
8
BLACK
6
CONTINUOUS
10
153.847
20
-96.6362
11
153.847
21
-96.635
0
LINE
8
BLACK
6
CONTINUOUS
10
153.847
20
-96.635
11
153.848
21
-96.6301
0
LINE
8
BLACK
6
CONTINUOUS
10
153.848
20
-96.6301
11
153.849
21
-96.6253
0
LINE
8
BLACK
6
CONTINUOUS
10
153.849
20
-96.6253
11
153.852
21
-96.621
0
LINE
8
BLACK
6
CONTINUOUS
10
153.852
20
-96.621
11
153.855
21
-96.6172
0
LINE
8
BLACK
6
CONTINUOUS
10
153.855
20
-96.6172
11
153.859
21
-96.6141
0
LINE
8
BLACK
6
CONTINUOUS
10
153.859
20
-96.6141
11
153.863
21
-96.6118
0
LINE
8
BLACK
6
CONTINUOUS
10
153.863
20
-96.6118
11
153.868
21
-96.6103
0
LINE
8
BLACK
6
CONTINUOUS
10
153.868
20
-96.6103
11
153.871
21
-96.61
0
LINE
8
BLACK
6
CONTINUOUS
10
153.871
20
-96.61
11
153.871
21
-96.61
0
LINE
8
BLACK
6
CONTINUOUS
10
153.871
20
-96.61
11
153.872
21
-96.6098
0
LINE
8
BLACK
6
CONTINUOUS
10
153.872
20
-96.6098
11
153.874
21
-96.61
0
LINE
8
BLACK
6
CONTINUOUS
10
153.874
20
-96.61
11
157.271
21
-96.61
0
LINE
8
BLACK
6
CONTINUOUS
10
157.271
20
-96.61
11
157.272
21
-96.6098
0
LINE
8
BLACK
6
CONTINUOUS
10
157.272
20
-96.6098
11
157.274
21
-96.61
0
LINE
8
BLACK
6
CONTINUOUS
10
153.897
20
-96.66
11
153.897
21
-99.61
0
LINE
8
BLACK
6
CONTINUOUS
10
153.897
20
-99.61
11
157.247
21
-99.61
0
LINE
8
BLACK
6
CONTINUOUS
10
157.247
20
-99.61
11
157.247
21
-96.66
0
LINE
8
BLACK
6
CONTINUOUS
10
157.247
20
-96.66
11
153.897
21
-96.66
0
LINE
8
BLACK
6
CONTINUOUS
10
95.36
20
-82.3213
11
95.36
21
-82.3213
0
LINE
8
BLACK
6
CONTINUOUS
10
95.36
20
-82.3213
11
95.3637
21
-82.3217
0
LINE
8
BLACK
6
CONTINUOUS
10
95.3637
20
-82.3217
11
95.3684
21
-82.3231
0
LINE
8
BLACK
6
CONTINUOUS
10
95.3684
20
-82.3231
11
95.3727
21
-82.3254
0
LINE
8
BLACK
6
CONTINUOUS
10
95.3727
20
-82.3254
11
95.3765
21
-82.3285
0
LINE
8
BLACK
6
CONTINUOUS
10
95.3765
20
-82.3285
11
95.3796
21
-82.3324
0
LINE
8
BLACK
6
CONTINUOUS
10
95.3796
20
-82.3324
11
95.382
21
-82.3367
0
LINE
8
BLACK
6
CONTINUOUS
10
95.382
20
-82.3367
11
95.3834
21
-82.3414
0
LINE
8
BLACK
6
CONTINUOUS
10
95.3834
20
-82.3414
11
95.3839
21
-82.3463
0
LINE
8
BLACK
6
CONTINUOUS
10
95.3839
20
-82.3463
11
95.3838
21
-82.3475
0
LINE
8
BLACK
6
CONTINUOUS
10
95.3838
20
-82.3475
11
95.3838
21
-85.3451
0
LINE
8
BLACK
6
CONTINUOUS
10
95.3838
20
-85.3451
11
95.3839
21
-85.3463
0
LINE
8
BLACK
6
CONTINUOUS
10
95.3839
20
-85.3463
11
95.3838
21
-85.3475
0
LINE
8
BLACK
6
CONTINUOUS
10
95.3838
20
-85.3475
11
95.3838
21
-85.3475
0
LINE
8
BLACK
6
CONTINUOUS
10
95.3838
20
-85.3475
11
95.3834
21
-85.3512
0
LINE
8
BLACK
6
CONTINUOUS
10
95.3834
20
-85.3512
11
95.382
21
-85.3559
0
LINE
8
BLACK
6
CONTINUOUS
10
95.382
20
-85.3559
11
95.3796
21
-85.3603
0
LINE
8
BLACK
6
CONTINUOUS
10
95.3796
20
-85.3603
11
95.3765
21
-85.3641
0
LINE
8
BLACK
6
CONTINUOUS
10
95.3765
20
-85.3641
11
95.3727
21
-85.3672
0
LINE
8
BLACK
6
CONTINUOUS
10
95.3727
20
-85.3672
11
95.3684
21
-85.3695
0
LINE
8
BLACK
6
CONTINUOUS
10
95.3684
20
-85.3695
11
95.3637
21
-85.3709
0
LINE
8
BLACK
6
CONTINUOUS
10
95.3637
20
-85.3709
11
95.3588
21
-85.3714
0
LINE
8
BLACK
6
CONTINUOUS
10
95.3588
20
-85.3714
11
95.3575
21
-85.3713
0
LINE
8
BLACK
6
CONTINUOUS
10
95.3575
20
-85.3713
11
91.96
21
-85.3713
0
LINE
8
BLACK
6
CONTINUOUS
10
91.96
20
-85.3713
11
91.9588
21
-85.3714
0
LINE
8
BLACK
6
CONTINUOUS
10
91.9588
20
-85.3714
11
91.9539
21
-85.3709
0
LINE
8
BLACK
6
CONTINUOUS
10
91.9539
20
-85.3709
11
91.9491
21
-85.3695
0
LINE
8
BLACK
6
CONTINUOUS
10
91.9491
20
-85.3695
11
91.9448
21
-85.3672
0
LINE
8
BLACK
6
CONTINUOUS
10
91.9448
20
-85.3672
11
91.941
21
-85.3641
0
LINE
8
BLACK
6
CONTINUOUS
10
91.941
20
-85.3641
11
91.9405
21
-85.3635
0
LINE
8
BLACK
6
CONTINUOUS
10
91.9405
20
-85.3635
11
91.9379
21
-85.3603
0
LINE
8
BLACK
6
CONTINUOUS
10
91.9379
20
-85.3603
11
91.9356
21
-85.3559
0
LINE
8
BLACK
6
CONTINUOUS
10
91.9356
20
-85.3559
11
91.9341
21
-85.3512
0
LINE
8
BLACK
6
CONTINUOUS
10
91.9341
20
-85.3512
11
91.9336
21
-85.3463
0
LINE
8
BLACK
6
CONTINUOUS
10
91.9336
20
-85.3463
11
91.9338
21
-85.3451
0
LINE
8
BLACK
6
CONTINUOUS
10
91.9338
20
-85.3451
11
91.9338
21
-82.3475
0
LINE
8
BLACK
6
CONTINUOUS
10
91.9338
20
-82.3475
11
91.9336
21
-82.3463
0
LINE
8
BLACK
6
CONTINUOUS
10
91.9336
20
-82.3463
11
91.9341
21
-82.3414
0
LINE
8
BLACK
6
CONTINUOUS
10
91.9341
20
-82.3414
11
91.9356
21
-82.3367
0
LINE
8
BLACK
6
CONTINUOUS
10
91.9356
20
-82.3367
11
91.9379
21
-82.3324
0
LINE
8
BLACK
6
CONTINUOUS
10
91.9379
20
-82.3324
11
91.941
21
-82.3285
0
LINE
8
BLACK
6
CONTINUOUS
10
91.941
20
-82.3285
11
91.9448
21
-82.3254
0
LINE
8
BLACK
6
CONTINUOUS
10
91.9448
20
-82.3254
11
91.9491
21
-82.3231
0
LINE
8
BLACK
6
CONTINUOUS
10
91.9491
20
-82.3231
11
91.9539
21
-82.3217
0
LINE
8
BLACK
6
CONTINUOUS
10
91.9539
20
-82.3217
11
91.9575
21
-82.3213
0
LINE
8
BLACK
6
CONTINUOUS
10
91.9575
20
-82.3213
11
91.9575
21
-82.3213
0
LINE
8
BLACK
6
CONTINUOUS
10
91.9575
20
-82.3213
11
91.9588
21
-82.3212
0
LINE
8
BLACK
6
CONTINUOUS
10
91.9588
20
-82.3212
11
91.96
21
-82.3213
0
LINE
8
BLACK
6
CONTINUOUS
10
91.96
20
-82.3213
11
95.3575
21
-82.3213
0
LINE
8
BLACK
6
CONTINUOUS
10
95.3575
20
-82.3213
11
95.3588
21
-82.3212
0
LINE
8
BLACK
6
CONTINUOUS
10
95.3588
20
-82.3212
11
95.36
21
-82.3213
0
LINE
8
BLACK
6
CONTINUOUS
10
91.9838
20
-82.3713
11
91.9838
21
-85.3213
0
LINE
8
BLACK
6
CONTINUOUS
10
91.9838
20
-85.3213
11
95.3338
21
-85.3213
0
LINE
8
BLACK
6
CONTINUOUS
10
95.3338
20
-85.3213
11
95.3338
21
-82.3713
0
LINE
8
BLACK
6
CONTINUOUS
10
95.3338
20
-82.3713
11
91.9838
21
-82.3713
0
LINE
8
BLACK
6
CONTINUOUS
10
119.172
20
-82.3213
11
119.172
21
-82.3213
0
LINE
8
BLACK
6
CONTINUOUS
10
119.172
20
-82.3213
11
119.176
21
-82.3217
0
LINE
8
BLACK
6
CONTINUOUS
10
119.176
20
-82.3217
11
119.181
21
-82.3231
0
LINE
8
BLACK
6
CONTINUOUS
10
119.181
20
-82.3231
11
119.185
21
-82.3254
0
LINE
8
BLACK
6
CONTINUOUS
10
119.185
20
-82.3254
11
119.189
21
-82.3285
0
LINE
8
BLACK
6
CONTINUOUS
10
119.189
20
-82.3285
11
119.192
21
-82.3324
0
LINE
8
BLACK
6
CONTINUOUS
10
119.192
20
-82.3324
11
119.194
21
-82.3367
0
LINE
8
BLACK
6
CONTINUOUS
10
119.194
20
-82.3367
11
119.196
21
-82.3414
0
LINE
8
BLACK
6
CONTINUOUS
10
119.196
20
-82.3414
11
119.196
21
-82.3463
0
LINE
8
BLACK
6
CONTINUOUS
10
119.196
20
-82.3463
11
119.196
21
-82.3475
0
LINE
8
BLACK
6
CONTINUOUS
10
119.196
20
-82.3475
11
119.196
21
-85.3451
0
LINE
8
BLACK
6
CONTINUOUS
10
119.196
20
-85.3451
11
119.196
21
-85.3463
0
LINE
8
BLACK
6
CONTINUOUS
10
119.196
20
-85.3463
11
119.196
21
-85.3475
0
LINE
8
BLACK
6
CONTINUOUS
10
119.196
20
-85.3475
11
119.196
21
-85.3475
0
LINE
8
BLACK
6
CONTINUOUS
10
119.196
20
-85.3475
11
119.196
21
-85.3512
0
LINE
8
BLACK
6
CONTINUOUS
10
119.196
20
-85.3512
11
119.194
21
-85.3559
0
LINE
8
BLACK
6
CONTINUOUS
10
119.194
20
-85.3559
11
119.192
21
-85.3603
0
LINE
8
BLACK
6
CONTINUOUS
10
119.192
20
-85.3603
11
119.189
21
-85.3641
0
LINE
8
BLACK
6
CONTINUOUS
10
119.189
20
-85.3641
11
119.185
21
-85.3672
0
LINE
8
BLACK
6
CONTINUOUS
10
119.185
20
-85.3672
11
119.181
21
-85.3695
0
LINE
8
BLACK
6
CONTINUOUS
10
119.181
20
-85.3695
11
119.176
21
-85.3709
0
LINE
8
BLACK
6
CONTINUOUS
10
119.176
20
-85.3709
11
119.171
21
-85.3714
0
LINE
8
BLACK
6
CONTINUOUS
10
119.171
20
-85.3714
11
119.17
21
-85.3713
0
LINE
8
BLACK
6
CONTINUOUS
10
119.17
20
-85.3713
11
115.772
21
-85.3713
0
LINE
8
BLACK
6
CONTINUOUS
10
115.772
20
-85.3713
11
115.771
21
-85.3714
0
LINE
8
BLACK
6
CONTINUOUS
10
115.771
20
-85.3714
11
115.766
21
-85.3709
0
LINE
8
BLACK
6
CONTINUOUS
10
115.766
20
-85.3709
11
115.762
21
-85.3695
0
LINE
8
BLACK
6
CONTINUOUS
10
115.762
20
-85.3695
11
115.757
21
-85.3672
0
LINE
8
BLACK
6
CONTINUOUS
10
115.757
20
-85.3672
11
115.753
21
-85.3641
0
LINE
8
BLACK
6
CONTINUOUS
10
115.753
20
-85.3641
11
115.753
21
-85.3635
0
LINE
8
BLACK
6
CONTINUOUS
10
115.753
20
-85.3635
11
115.75
21
-85.3603
0
LINE
8
BLACK
6
CONTINUOUS
10
115.75
20
-85.3603
11
115.748
21
-85.3559
0
LINE
8
BLACK
6
CONTINUOUS
10
115.748
20
-85.3559
11
115.747
21
-85.3512
0
LINE
8
BLACK
6
CONTINUOUS
10
115.747
20
-85.3512
11
115.746
21
-85.3463
0
LINE
8
BLACK
6
CONTINUOUS
10
115.746
20
-85.3463
11
115.746
21
-85.3451
0
LINE
8
BLACK
6
CONTINUOUS
10
115.746
20
-85.3451
11
115.746
21
-82.3475
0
LINE
8
BLACK
6
CONTINUOUS
10
115.746
20
-82.3475
11
115.746
21
-82.3463
0
LINE
8
BLACK
6
CONTINUOUS
10
115.746
20
-82.3463
11
115.747
21
-82.3414
0
LINE
8
BLACK
6
CONTINUOUS
10
115.747
20
-82.3414
11
115.748
21
-82.3367
0
LINE
8
BLACK
6
CONTINUOUS
10
115.748
20
-82.3367
11
115.75
21
-82.3324
0
LINE
8
BLACK
6
CONTINUOUS
10
115.75
20
-82.3324
11
115.753
21
-82.3285
0
LINE
8
BLACK
6
CONTINUOUS
10
115.753
20
-82.3285
11
115.757
21
-82.3254
0
LINE
8
BLACK
6
CONTINUOUS
10
115.757
20
-82.3254
11
115.762
21
-82.3231
0
LINE
8
BLACK
6
CONTINUOUS
10
115.762
20
-82.3231
11
115.766
21
-82.3217
0
LINE
8
BLACK
6
CONTINUOUS
10
115.766
20
-82.3217
11
115.77
21
-82.3213
0
LINE
8
BLACK
6
CONTINUOUS
10
115.77
20
-82.3213
11
115.77
21
-82.3213
0
LINE
8
BLACK
6
CONTINUOUS
10
115.77
20
-82.3213
11
115.771
21
-82.3212
0
LINE
8
BLACK
6
CONTINUOUS
10
115.771
20
-82.3212
11
115.772
21
-82.3213
0
LINE
8
BLACK
6
CONTINUOUS
10
115.772
20
-82.3213
11
119.17
21
-82.3213
0
LINE
8
BLACK
6
CONTINUOUS
10
119.17
20
-82.3213
11
119.171
21
-82.3212
0
LINE
8
BLACK
6
CONTINUOUS
10
119.171
20
-82.3212
11
119.172
21
-82.3213
0
LINE
8
BLACK
6
CONTINUOUS
10
115.796
20
-82.3713
11
115.796
21
-85.3213
0
LINE
8
BLACK
6
CONTINUOUS
10
115.796
20
-85.3213
11
119.146
21
-85.3213
0
LINE
8
BLACK
6
CONTINUOUS
10
119.146
20
-85.3213
11
119.146
21
-82.3713
0
LINE
8
BLACK
6
CONTINUOUS
10
119.146
20
-82.3713
11
115.796
21
-82.3713
0
LINE
8
BLACK
6
CONTINUOUS
10
214.422
20
-82.3213
11
214.422
21
-82.3213
0
LINE
8
BLACK
6
CONTINUOUS
10
214.422
20
-82.3213
11
214.426
21
-82.3217
0
LINE
8
BLACK
6
CONTINUOUS
10
214.426
20
-82.3217
11
214.431
21
-82.3231
0
LINE
8
BLACK
6
CONTINUOUS
10
214.431
20
-82.3231
11
214.435
21
-82.3254
0
LINE
8
BLACK
6
CONTINUOUS
10
214.435
20
-82.3254
11
214.439
21
-82.3285
0
LINE
8
BLACK
6
CONTINUOUS
10
214.439
20
-82.3285
11
214.442
21
-82.3324
0
LINE
8
BLACK
6
CONTINUOUS
10
214.442
20
-82.3324
11
214.444
21
-82.3367
0
LINE
8
BLACK
6
CONTINUOUS
10
214.444
20
-82.3367
11
214.446
21
-82.3414
0
LINE
8
BLACK
6
CONTINUOUS
10
214.446
20
-82.3414
11
214.446
21
-82.3463
0
LINE
8
BLACK
6
CONTINUOUS
10
214.446
20
-82.3463
11
214.446
21
-82.3475
0
LINE
8
BLACK
6
CONTINUOUS
10
214.446
20
-82.3475
11
214.446
21
-85.3451
0
LINE
8
BLACK
6
CONTINUOUS
10
214.446
20
-85.3451
11
214.446
21
-85.3463
0
LINE
8
BLACK
6
CONTINUOUS
10
214.446
20
-85.3463
11
214.446
21
-85.3475
0
LINE
8
BLACK
6
CONTINUOUS
10
214.446
20
-85.3475
11
214.446
21
-85.3475
0
LINE
8
BLACK
6
CONTINUOUS
10
214.446
20
-85.3475
11
214.446
21
-85.3512
0
LINE
8
BLACK
6
CONTINUOUS
10
214.446
20
-85.3512
11
214.444
21
-85.3559
0
LINE
8
BLACK
6
CONTINUOUS
10
214.444
20
-85.3559
11
214.442
21
-85.3603
0
LINE
8
BLACK
6
CONTINUOUS
10
214.442
20
-85.3603
11
214.439
21
-85.3641
0
LINE
8
BLACK
6
CONTINUOUS
10
214.439
20
-85.3641
11
214.435
21
-85.3672
0
LINE
8
BLACK
6
CONTINUOUS
10
214.435
20
-85.3672
11
214.431
21
-85.3695
0
LINE
8
BLACK
6
CONTINUOUS
10
214.431
20
-85.3695
11
214.426
21
-85.3709
0
LINE
8
BLACK
6
CONTINUOUS
10
214.426
20
-85.3709
11
214.421
21
-85.3714
0
LINE
8
BLACK
6
CONTINUOUS
10
214.421
20
-85.3714
11
214.42
21
-85.3713
0
LINE
8
BLACK
6
CONTINUOUS
10
214.42
20
-85.3713
11
211.022
21
-85.3713
0
LINE
8
BLACK
6
CONTINUOUS
10
211.022
20
-85.3713
11
211.021
21
-85.3714
0
LINE
8
BLACK
6
CONTINUOUS
10
211.021
20
-85.3714
11
211.016
21
-85.3709
0
LINE
8
BLACK
6
CONTINUOUS
10
211.016
20
-85.3709
11
211.012
21
-85.3695
0
LINE
8
BLACK
6
CONTINUOUS
10
211.012
20
-85.3695
11
211.007
21
-85.3672
0
LINE
8
BLACK
6
CONTINUOUS
10
211.007
20
-85.3672
11
211.003
21
-85.3641
0
LINE
8
BLACK
6
CONTINUOUS
10
211.003
20
-85.3641
11
211.003
21
-85.3635
0
LINE
8
BLACK
6
CONTINUOUS
10
211.003
20
-85.3635
11
211
21
-85.3603
0
LINE
8
BLACK
6
CONTINUOUS
10
211
20
-85.3603
11
210.998
21
-85.3559
0
LINE
8
BLACK
6
CONTINUOUS
10
210.998
20
-85.3559
11
210.997
21
-85.3512
0
LINE
8
BLACK
6
CONTINUOUS
10
210.997
20
-85.3512
11
210.996
21
-85.3463
0
LINE
8
BLACK
6
CONTINUOUS
10
210.996
20
-85.3463
11
210.996
21
-85.3451
0
LINE
8
BLACK
6
CONTINUOUS
10
210.996
20
-85.3451
11
210.996
21
-82.3475
0
LINE
8
BLACK
6
CONTINUOUS
10
210.996
20
-82.3475
11
210.996
21
-82.3463
0
LINE
8
BLACK
6
CONTINUOUS
10
210.996
20
-82.3463
11
210.997
21
-82.3414
0
LINE
8
BLACK
6
CONTINUOUS
10
210.997
20
-82.3414
11
210.998
21
-82.3367
0
LINE
8
BLACK
6
CONTINUOUS
10
210.998
20
-82.3367
11
211
21
-82.3324
0
LINE
8
BLACK
6
CONTINUOUS
10
211
20
-82.3324
11
211.003
21
-82.3285
0
LINE
8
BLACK
6
CONTINUOUS
10
211.003
20
-82.3285
11
211.007
21
-82.3254
0
LINE
8
BLACK
6
CONTINUOUS
10
211.007
20
-82.3254
11
211.012
21
-82.3231
0
LINE
8
BLACK
6
CONTINUOUS
10
211.012
20
-82.3231
11
211.016
21
-82.3217
0
LINE
8
BLACK
6
CONTINUOUS
10
211.016
20
-82.3217
11
211.02
21
-82.3213
0
LINE
8
BLACK
6
CONTINUOUS
10
211.02
20
-82.3213
11
211.02
21
-82.3213
0
LINE
8
BLACK
6
CONTINUOUS
10
211.02
20
-82.3213
11
211.021
21
-82.3212
0
LINE
8
BLACK
6
CONTINUOUS
10
211.021
20
-82.3212
11
211.022
21
-82.3213
0
LINE
8
BLACK
6
CONTINUOUS
10
211.022
20
-82.3213
11
214.42
21
-82.3213
0
LINE
8
BLACK
6
CONTINUOUS
10
214.42
20
-82.3213
11
214.421
21
-82.3212
0
LINE
8
BLACK
6
CONTINUOUS
10
214.421
20
-82.3212
11
214.422
21
-82.3213
0
LINE
8
BLACK
6
CONTINUOUS
10
211.046
20
-82.3713
11
211.046
21
-85.3213
0
LINE
8
BLACK
6
CONTINUOUS
10
211.046
20
-85.3213
11
214.396
21
-85.3213
0
LINE
8
BLACK
6
CONTINUOUS
10
214.396
20
-85.3213
11
214.396
21
-82.3713
0
LINE
8
BLACK
6
CONTINUOUS
10
214.396
20
-82.3713
11
211.046
21
-82.3713
0
LINE
8
BLACK
6
CONTINUOUS
10
195.369
20
-82.3176
11
195.369
21
-82.3176
0
LINE
8
BLACK
6
CONTINUOUS
10
195.369
20
-82.3176
11
195.372
21
-82.318
0
LINE
8
BLACK
6
CONTINUOUS
10
195.372
20
-82.318
11
195.377
21
-82.3194
0
LINE
8
BLACK
6
CONTINUOUS
10
195.377
20
-82.3194
11
195.381
21
-82.3217
0
LINE
8
BLACK
6
CONTINUOUS
10
195.381
20
-82.3217
11
195.385
21
-82.3249
0
LINE
8
BLACK
6
CONTINUOUS
10
195.385
20
-82.3249
11
195.388
21
-82.3287
0
LINE
8
BLACK
6
CONTINUOUS
10
195.388
20
-82.3287
11
195.391
21
-82.333
0
LINE
8
BLACK
6
CONTINUOUS
10
195.391
20
-82.333
11
195.392
21
-82.3377
0
LINE
8
BLACK
6
CONTINUOUS
10
195.392
20
-82.3377
11
195.393
21
-82.3426
0
LINE
8
BLACK
6
CONTINUOUS
10
195.393
20
-82.3426
11
195.393
21
-82.3438
0
LINE
8
BLACK
6
CONTINUOUS
10
195.393
20
-82.3438
11
195.393
21
-85.3414
0
LINE
8
BLACK
6
CONTINUOUS
10
195.393
20
-85.3414
11
195.393
21
-85.3426
0
LINE
8
BLACK
6
CONTINUOUS
10
195.393
20
-85.3426
11
195.393
21
-85.3438
0
LINE
8
BLACK
6
CONTINUOUS
10
195.393
20
-85.3438
11
195.393
21
-85.3438
0
LINE
8
BLACK
6
CONTINUOUS
10
195.393
20
-85.3438
11
195.392
21
-85.3475
0
LINE
8
BLACK
6
CONTINUOUS
10
195.392
20
-85.3475
11
195.391
21
-85.3522
0
LINE
8
BLACK
6
CONTINUOUS
10
195.391
20
-85.3522
11
195.388
21
-85.3566
0
LINE
8
BLACK
6
CONTINUOUS
10
195.388
20
-85.3566
11
195.385
21
-85.3604
0
LINE
8
BLACK
6
CONTINUOUS
10
195.385
20
-85.3604
11
195.381
21
-85.3635
0
LINE
8
BLACK
6
CONTINUOUS
10
195.381
20
-85.3635
11
195.377
21
-85.3658
0
LINE
8
BLACK
6
CONTINUOUS
10
195.377
20
-85.3658
11
195.372
21
-85.3673
0
LINE
8
BLACK
6
CONTINUOUS
10
195.372
20
-85.3673
11
195.368
21
-85.3677
0
LINE
8
BLACK
6
CONTINUOUS
10
195.368
20
-85.3677
11
195.366
21
-85.3676
0
LINE
8
BLACK
6
CONTINUOUS
10
195.366
20
-85.3676
11
191.969
21
-85.3676
0
LINE
8
BLACK
6
CONTINUOUS
10
191.969
20
-85.3676
11
191.968
21
-85.3677
0
LINE
8
BLACK
6
CONTINUOUS
10
191.968
20
-85.3677
11
191.963
21
-85.3673
0
LINE
8
BLACK
6
CONTINUOUS
10
191.963
20
-85.3673
11
191.958
21
-85.3658
0
LINE
8
BLACK
6
CONTINUOUS
10
191.958
20
-85.3658
11
191.954
21
-85.3635
0
LINE
8
BLACK
6
CONTINUOUS
10
191.954
20
-85.3635
11
191.95
21
-85.3604
0
LINE
8
BLACK
6
CONTINUOUS
10
191.95
20
-85.3604
11
191.95
21
-85.3603
0
LINE
8
BLACK
6
CONTINUOUS
10
191.95
20
-85.3603
11
191.947
21
-85.3566
0
LINE
8
BLACK
6
CONTINUOUS
10
191.947
20
-85.3566
11
191.944
21
-85.3522
0
LINE
8
BLACK
6
CONTINUOUS
10
191.944
20
-85.3522
11
191.943
21
-85.3475
0
LINE
8
BLACK
6
CONTINUOUS
10
191.943
20
-85.3475
11
191.942
21
-85.3426
0
LINE
8
BLACK
6
CONTINUOUS
10
191.942
20
-85.3426
11
191.943
21
-85.3414
0
LINE
8
BLACK
6
CONTINUOUS
10
191.943
20
-85.3414
11
191.943
21
-82.3438
0
LINE
8
BLACK
6
CONTINUOUS
10
191.943
20
-82.3438
11
191.942
21
-82.3426
0
LINE
8
BLACK
6
CONTINUOUS
10
191.942
20
-82.3426
11
191.943
21
-82.3377
0
LINE
8
BLACK
6
CONTINUOUS
10
191.943
20
-82.3377
11
191.944
21
-82.333
0
LINE
8
BLACK
6
CONTINUOUS
10
191.944
20
-82.333
11
191.947
21
-82.3287
0
LINE
8
BLACK
6
CONTINUOUS
10
191.947
20
-82.3287
11
191.95
21
-82.3249
0
LINE
8
BLACK
6
CONTINUOUS
10
191.95
20
-82.3249
11
191.954
21
-82.3217
0
LINE
8
BLACK
6
CONTINUOUS
10
191.954
20
-82.3217
11
191.958
21
-82.3194
0
LINE
8
BLACK
6
CONTINUOUS
10
191.958
20
-82.3194
11
191.963
21
-82.318
0
LINE
8
BLACK
6
CONTINUOUS
10
191.963
20
-82.318
11
191.966
21
-82.3176
0
LINE
8
BLACK
6
CONTINUOUS
10
191.966
20
-82.3176
11
191.966
21
-82.3176
0
LINE
8
BLACK
6
CONTINUOUS
10
191.966
20
-82.3176
11
191.968
21
-82.3175
0
LINE
8
BLACK
6
CONTINUOUS
10
191.968
20
-82.3175
11
191.969
21
-82.3176
0
LINE
8
BLACK
6
CONTINUOUS
10
191.969
20
-82.3176
11
195.366
21
-82.3176
0
LINE
8
BLACK
6
CONTINUOUS
10
195.366
20
-82.3176
11
195.368
21
-82.3175
0
LINE
8
BLACK
6
CONTINUOUS
10
195.368
20
-82.3175
11
195.369
21
-82.3176
0
LINE
8
BLACK
6
CONTINUOUS
10
191.993
20
-82.3676
11
191.993
21
-85.3176
0
LINE
8
BLACK
6
CONTINUOUS
10
191.993
20
-85.3176
11
195.343
21
-85.3176
0
LINE
8
BLACK
6
CONTINUOUS
10
195.343
20
-85.3176
11
195.343
21
-82.3676
0
LINE
8
BLACK
6
CONTINUOUS
10
195.343
20
-82.3676
11
191.993
21
-82.3676
0
LINE
8
BLACK
6
CONTINUOUS
10
176.322
20
-79.9401
11
176.322
21
-79.9401
0
LINE
8
BLACK
6
CONTINUOUS
10
176.322
20
-79.9401
11
176.326
21
-79.9404
0
LINE
8
BLACK
6
CONTINUOUS
10
176.326
20
-79.9404
11
176.331
21
-79.9419
0
LINE
8
BLACK
6
CONTINUOUS
10
176.331
20
-79.9419
11
176.335
21
-79.9442
0
LINE
8
BLACK
6
CONTINUOUS
10
176.335
20
-79.9442
11
176.339
21
-79.9473
0
LINE
8
BLACK
6
CONTINUOUS
10
176.339
20
-79.9473
11
176.342
21
-79.9511
0
LINE
8
BLACK
6
CONTINUOUS
10
176.342
20
-79.9511
11
176.344
21
-79.9554
0
LINE
8
BLACK
6
CONTINUOUS
10
176.344
20
-79.9554
11
176.346
21
-79.9602
0
LINE
8
BLACK
6
CONTINUOUS
10
176.346
20
-79.9602
11
176.346
21
-79.9651
0
LINE
8
BLACK
6
CONTINUOUS
10
176.346
20
-79.9651
11
176.346
21
-79.9663
0
LINE
8
BLACK
6
CONTINUOUS
10
176.346
20
-79.9663
11
176.346
21
-82.9638
0
LINE
8
BLACK
6
CONTINUOUS
10
176.346
20
-82.9638
11
176.346
21
-82.9651
0
LINE
8
BLACK
6
CONTINUOUS
10
176.346
20
-82.9651
11
176.346
21
-82.9663
0
LINE
8
BLACK
6
CONTINUOUS
10
176.346
20
-82.9663
11
176.346
21
-82.9663
0
LINE
8
BLACK
6
CONTINUOUS
10
176.346
20
-82.9663
11
176.346
21
-82.97
0
LINE
8
BLACK
6
CONTINUOUS
10
176.346
20
-82.97
11
176.344
21
-82.9747
0
LINE
8
BLACK
6
CONTINUOUS
10
176.344
20
-82.9747
11
176.342
21
-82.979
0
LINE
8
BLACK
6
CONTINUOUS
10
176.342
20
-82.979
11
176.339
21
-82.9828
0
LINE
8
BLACK
6
CONTINUOUS
10
176.339
20
-82.9828
11
176.335
21
-82.9859
0
LINE
8
BLACK
6
CONTINUOUS
10
176.335
20
-82.9859
11
176.331
21
-82.9883
0
LINE
8
BLACK
6
CONTINUOUS
10
176.331
20
-82.9883
11
176.326
21
-82.9897
0
LINE
8
BLACK
6
CONTINUOUS
10
176.326
20
-82.9897
11
176.321
21
-82.9902
0
LINE
8
BLACK
6
CONTINUOUS
10
176.321
20
-82.9902
11
176.32
21
-82.9901
0
LINE
8
BLACK
6
CONTINUOUS
10
176.32
20
-82.9901
11
172.922
21
-82.9901
0
LINE
8
BLACK
6
CONTINUOUS
10
172.922
20
-82.9901
11
172.921
21
-82.9902
0
LINE
8
BLACK
6
CONTINUOUS
10
172.921
20
-82.9902
11
172.916
21
-82.9897
0
LINE
8
BLACK
6
CONTINUOUS
10
172.916
20
-82.9897
11
172.912
21
-82.9883
0
LINE
8
BLACK
6
CONTINUOUS
10
172.912
20
-82.9883
11
172.907
21
-82.9859
0
LINE
8
BLACK
6
CONTINUOUS
10
172.907
20
-82.9859
11
172.903
21
-82.9828
0
LINE
8
BLACK
6
CONTINUOUS
10
172.903
20
-82.9828
11
172.9
21
-82.979
0
LINE
8
BLACK
6
CONTINUOUS
10
172.9
20
-82.979
11
172.898
21
-82.9747
0
LINE
8
BLACK
6
CONTINUOUS
10
172.898
20
-82.9747
11
172.897
21
-82.97
0
LINE
8
BLACK
6
CONTINUOUS
10
172.897
20
-82.97
11
172.896
21
-82.9651
0
LINE
8
BLACK
6
CONTINUOUS
10
172.896
20
-82.9651
11
172.896
21
-82.9638
0
LINE
8
BLACK
6
CONTINUOUS
10
172.896
20
-82.9638
11
172.896
21
-79.9663
0
LINE
8
BLACK
6
CONTINUOUS
10
172.896
20
-79.9663
11
172.896
21
-79.9651
0
LINE
8
BLACK
6
CONTINUOUS
10
172.896
20
-79.9651
11
172.897
21
-79.9602
0
LINE
8
BLACK
6
CONTINUOUS
10
172.897
20
-79.9602
11
172.898
21
-79.9554
0
LINE
8
BLACK
6
CONTINUOUS
10
172.898
20
-79.9554
11
172.9
21
-79.9511
0
LINE
8
BLACK
6
CONTINUOUS
10
172.9
20
-79.9511
11
172.903
21
-79.9473
0
LINE
8
BLACK
6
CONTINUOUS
10
172.903
20
-79.9473
11
172.907
21
-79.9442
0
LINE
8
BLACK
6
CONTINUOUS
10
172.907
20
-79.9442
11
172.912
21
-79.9419
0
LINE
8
BLACK
6
CONTINUOUS
10
172.912
20
-79.9419
11
172.916
21
-79.9404
0
LINE
8
BLACK
6
CONTINUOUS
10
172.916
20
-79.9404
11
172.92
21
-79.9401
0
LINE
8
BLACK
6
CONTINUOUS
10
172.92
20
-79.9401
11
172.92
21
-79.9401
0
LINE
8
BLACK
6
CONTINUOUS
10
172.92
20
-79.9401
11
172.921
21
-79.9399
0
LINE
8
BLACK
6
CONTINUOUS
10
172.921
20
-79.9399
11
172.922
21
-79.9401
0
LINE
8
BLACK
6
CONTINUOUS
10
172.922
20
-79.9401
11
176.32
21
-79.9401
0
LINE
8
BLACK
6
CONTINUOUS
10
176.32
20
-79.9401
11
176.321
21
-79.9399
0
LINE
8
BLACK
6
CONTINUOUS
10
176.321
20
-79.9399
11
176.322
21
-79.9401
0
LINE
8
BLACK
6
CONTINUOUS
10
172.946
20
-79.9901
11
172.946
21
-82.9401
0
LINE
8
BLACK
6
CONTINUOUS
10
172.946
20
-82.9401
11
176.296
21
-82.9401
0
LINE
8
BLACK
6
CONTINUOUS
10
176.296
20
-82.9401
11
176.296
21
-79.9901
0
LINE
8
BLACK
6
CONTINUOUS
10
176.296
20
-79.9901
11
172.946
21
-79.9901
0
LINE
8
BLACK
6
CONTINUOUS
10
138.222
20
-79.9401
11
138.222
21
-79.9401
0
LINE
8
BLACK
6
CONTINUOUS
10
138.222
20
-79.9401
11
138.226
21
-79.9404
0
LINE
8
BLACK
6
CONTINUOUS
10
138.226
20
-79.9404
11
138.231
21
-79.9419
0
LINE
8
BLACK
6
CONTINUOUS
10
138.231
20
-79.9419
11
138.235
21
-79.9442
0
LINE
8
BLACK
6
CONTINUOUS
10
138.235
20
-79.9442
11
138.239
21
-79.9473
0
LINE
8
BLACK
6
CONTINUOUS
10
138.239
20
-79.9473
11
138.242
21
-79.9511
0
LINE
8
BLACK
6
CONTINUOUS
10
138.242
20
-79.9511
11
138.244
21
-79.9554
0
LINE
8
BLACK
6
CONTINUOUS
10
138.244
20
-79.9554
11
138.246
21
-79.9602
0
LINE
8
BLACK
6
CONTINUOUS
10
138.246
20
-79.9602
11
138.246
21
-79.9651
0
LINE
8
BLACK
6
CONTINUOUS
10
138.246
20
-79.9651
11
138.246
21
-79.9663
0
LINE
8
BLACK
6
CONTINUOUS
10
138.246
20
-79.9663
11
138.246
21
-82.9638
0
LINE
8
BLACK
6
CONTINUOUS
10
138.246
20
-82.9638
11
138.246
21
-82.9651
0
LINE
8
BLACK
6
CONTINUOUS
10
138.246
20
-82.9651
11
138.246
21
-82.9663
0
LINE
8
BLACK
6
CONTINUOUS
10
138.246
20
-82.9663
11
138.246
21
-82.9663
0
LINE
8
BLACK
6
CONTINUOUS
10
138.246
20
-82.9663
11
138.246
21
-82.97
0
LINE
8
BLACK
6
CONTINUOUS
10
138.246
20
-82.97
11
138.244
21
-82.9747
0
LINE
8
BLACK
6
CONTINUOUS
10
138.244
20
-82.9747
11
138.242
21
-82.979
0
LINE
8
BLACK
6
CONTINUOUS
10
138.242
20
-82.979
11
138.239
21
-82.9828
0
LINE
8
BLACK
6
CONTINUOUS
10
138.239
20
-82.9828
11
138.235
21
-82.9859
0
LINE
8
BLACK
6
CONTINUOUS
10
138.235
20
-82.9859
11
138.231
21
-82.9883
0
LINE
8
BLACK
6
CONTINUOUS
10
138.231
20
-82.9883
11
138.226
21
-82.9897
0
LINE
8
BLACK
6
CONTINUOUS
10
138.226
20
-82.9897
11
138.221
21
-82.9902
0
LINE
8
BLACK
6
CONTINUOUS
10
138.221
20
-82.9902
11
138.22
21
-82.9901
0
LINE
8
BLACK
6
CONTINUOUS
10
138.22
20
-82.9901
11
134.822
21
-82.9901
0
LINE
8
BLACK
6
CONTINUOUS
10
134.822
20
-82.9901
11
134.821
21
-82.9902
0
LINE
8
BLACK
6
CONTINUOUS
10
134.821
20
-82.9902
11
134.816
21
-82.9897
0
LINE
8
BLACK
6
CONTINUOUS
10
134.816
20
-82.9897
11
134.812
21
-82.9883
0
LINE
8
BLACK
6
CONTINUOUS
10
134.812
20
-82.9883
11
134.807
21
-82.9859
0
LINE
8
BLACK
6
CONTINUOUS
10
134.807
20
-82.9859
11
134.803
21
-82.9828
0
LINE
8
BLACK
6
CONTINUOUS
10
134.803
20
-82.9828
11
134.8
21
-82.979
0
LINE
8
BLACK
6
CONTINUOUS
10
134.8
20
-82.979
11
134.798
21
-82.9747
0
LINE
8
BLACK
6
CONTINUOUS
10
134.798
20
-82.9747
11
134.797
21
-82.97
0
LINE
8
BLACK
6
CONTINUOUS
10
134.797
20
-82.97
11
134.796
21
-82.9651
0
LINE
8
BLACK
6
CONTINUOUS
10
134.796
20
-82.9651
11
134.796
21
-82.9638
0
LINE
8
BLACK
6
CONTINUOUS
10
134.796
20
-82.9638
11
134.796
21
-79.9663
0
LINE
8
BLACK
6
CONTINUOUS
10
134.796
20
-79.9663
11
134.796
21
-79.9651
0
LINE
8
BLACK
6
CONTINUOUS
10
134.796
20
-79.9651
11
134.797
21
-79.9602
0
LINE
8
BLACK
6
CONTINUOUS
10
134.797
20
-79.9602
11
134.798
21
-79.9554
0
LINE
8
BLACK
6
CONTINUOUS
10
134.798
20
-79.9554
11
134.8
21
-79.9511
0
LINE
8
BLACK
6
CONTINUOUS
10
134.8
20
-79.9511
11
134.803
21
-79.9473
0
LINE
8
BLACK
6
CONTINUOUS
10
134.803
20
-79.9473
11
134.807
21
-79.9442
0
LINE
8
BLACK
6
CONTINUOUS
10
134.807
20
-79.9442
11
134.812
21
-79.9419
0
LINE
8
BLACK
6
CONTINUOUS
10
134.812
20
-79.9419
11
134.816
21
-79.9404
0
LINE
8
BLACK
6
CONTINUOUS
10
134.816
20
-79.9404
11
134.82
21
-79.9401
0
LINE
8
BLACK
6
CONTINUOUS
10
134.82
20
-79.9401
11
134.82
21
-79.9401
0
LINE
8
BLACK
6
CONTINUOUS
10
134.82
20
-79.9401
11
134.821
21
-79.9399
0
LINE
8
BLACK
6
CONTINUOUS
10
134.821
20
-79.9399
11
134.822
21
-79.9401
0
LINE
8
BLACK
6
CONTINUOUS
10
134.822
20
-79.9401
11
138.22
21
-79.9401
0
LINE
8
BLACK
6
CONTINUOUS
10
138.22
20
-79.9401
11
138.221
21
-79.9399
0
LINE
8
BLACK
6
CONTINUOUS
10
138.221
20
-79.9399
11
138.222
21
-79.9401
0
LINE
8
BLACK
6
CONTINUOUS
10
134.846
20
-79.9901
11
134.846
21
-82.9401
0
LINE
8
BLACK
6
CONTINUOUS
10
134.846
20
-82.9401
11
138.196
21
-82.9401
0
LINE
8
BLACK
6
CONTINUOUS
10
138.196
20
-82.9401
11
138.196
21
-79.9901
0
LINE
8
BLACK
6
CONTINUOUS
10
138.196
20
-79.9901
11
134.846
21
-79.9901
0
LINE
8
BLACK
6
CONTINUOUS
10
157.272
20
-77.5551
11
157.272
21
-77.5551
0
LINE
8
BLACK
6
CONTINUOUS
10
157.272
20
-77.5551
11
157.276
21
-77.5555
0
LINE
8
BLACK
6
CONTINUOUS
10
157.276
20
-77.5555
11
157.281
21
-77.5569
0
LINE
8
BLACK
6
CONTINUOUS
10
157.281
20
-77.5569
11
157.285
21
-77.5592
0
LINE
8
BLACK
6
CONTINUOUS
10
157.285
20
-77.5592
11
157.289
21
-77.5624
0
LINE
8
BLACK
6
CONTINUOUS
10
157.289
20
-77.5624
11
157.292
21
-77.5662
0
LINE
8
BLACK
6
CONTINUOUS
10
157.292
20
-77.5662
11
157.294
21
-77.5705
0
LINE
8
BLACK
6
CONTINUOUS
10
157.294
20
-77.5705
11
157.296
21
-77.5752
0
LINE
8
BLACK
6
CONTINUOUS
10
157.296
20
-77.5752
11
157.296
21
-77.5801
0
LINE
8
BLACK
6
CONTINUOUS
10
157.296
20
-77.5801
11
157.296
21
-77.5813
0
LINE
8
BLACK
6
CONTINUOUS
10
157.296
20
-77.5813
11
157.296
21
-80.5789
0
LINE
8
BLACK
6
CONTINUOUS
10
157.296
20
-80.5789
11
157.296
21
-80.5801
0
LINE
8
BLACK
6
CONTINUOUS
10
157.296
20
-80.5801
11
157.296
21
-80.5813
0
LINE
8
BLACK
6
CONTINUOUS
10
157.296
20
-80.5813
11
157.296
21
-80.5813
0
LINE
8
BLACK
6
CONTINUOUS
10
157.296
20
-80.5813
11
157.296
21
-80.585
0
LINE
8
BLACK
6
CONTINUOUS
10
157.296
20
-80.585
11
157.294
21
-80.5897
0
LINE
8
BLACK
6
CONTINUOUS
10
157.294
20
-80.5897
11
157.292
21
-80.5941
0
LINE
8
BLACK
6
CONTINUOUS
10
157.292
20
-80.5941
11
157.289
21
-80.5979
0
LINE
8
BLACK
6
CONTINUOUS
10
157.289
20
-80.5979
11
157.285
21
-80.601
0
LINE
8
BLACK
6
CONTINUOUS
10
157.285
20
-80.601
11
157.281
21
-80.6033
0
LINE
8
BLACK
6
CONTINUOUS
10
157.281
20
-80.6033
11
157.276
21
-80.6048
0
LINE
8
BLACK
6
CONTINUOUS
10
157.276
20
-80.6048
11
157.271
21
-80.6052
0
LINE
8
BLACK
6
CONTINUOUS
10
157.271
20
-80.6052
11
157.27
21
-80.6051
0
LINE
8
BLACK
6
CONTINUOUS
10
157.27
20
-80.6051
11
153.872
21
-80.6051
0
LINE
8
BLACK
6
CONTINUOUS
10
153.872
20
-80.6051
11
153.871
21
-80.6052
0
LINE
8
BLACK
6
CONTINUOUS
10
153.871
20
-80.6052
11
153.866
21
-80.6048
0
LINE
8
BLACK
6
CONTINUOUS
10
153.866
20
-80.6048
11
153.862
21
-80.6033
0
LINE
8
BLACK
6
CONTINUOUS
10
153.862
20
-80.6033
11
153.857
21
-80.601
0
LINE
8
BLACK
6
CONTINUOUS
10
153.857
20
-80.601
11
153.853
21
-80.5979
0
LINE
8
BLACK
6
CONTINUOUS
10
153.853
20
-80.5979
11
153.85
21
-80.5941
0
LINE
8
BLACK
6
CONTINUOUS
10
153.85
20
-80.5941
11
153.848
21
-80.5897
0
LINE
8
BLACK
6
CONTINUOUS
10
153.848
20
-80.5897
11
153.847
21
-80.585
0
LINE
8
BLACK
6
CONTINUOUS
10
153.847
20
-80.585
11
153.846
21
-80.5801
0
LINE
8
BLACK
6
CONTINUOUS
10
153.846
20
-80.5801
11
153.846
21
-80.5789
0
LINE
8
BLACK
6
CONTINUOUS
10
153.846
20
-80.5789
11
153.846
21
-77.5813
0
LINE
8
BLACK
6
CONTINUOUS
10
153.846
20
-77.5813
11
153.846
21
-77.5801
0
LINE
8
BLACK
6
CONTINUOUS
10
153.846
20
-77.5801
11
153.847
21
-77.5752
0
LINE
8
BLACK
6
CONTINUOUS
10
153.847
20
-77.5752
11
153.848
21
-77.5705
0
LINE
8
BLACK
6
CONTINUOUS
10
153.848
20
-77.5705
11
153.85
21
-77.5662
0
LINE
8
BLACK
6
CONTINUOUS
10
153.85
20
-77.5662
11
153.853
21
-77.5624
0
LINE
8
BLACK
6
CONTINUOUS
10
153.853
20
-77.5624
11
153.857
21
-77.5592
0
LINE
8
BLACK
6
CONTINUOUS
10
153.857
20
-77.5592
11
153.862
21
-77.5569
0
LINE
8
BLACK
6
CONTINUOUS
10
153.862
20
-77.5569
11
153.866
21
-77.5555
0
LINE
8
BLACK
6
CONTINUOUS
10
153.866
20
-77.5555
11
153.87
21
-77.5551
0
LINE
8
BLACK
6
CONTINUOUS
10
153.87
20
-77.5551
11
153.87
21
-77.5551
0
LINE
8
BLACK
6
CONTINUOUS
10
153.87
20
-77.5551
11
153.871
21
-77.555
0
LINE
8
BLACK
6
CONTINUOUS
10
153.871
20
-77.555
11
153.872
21
-77.5551
0
LINE
8
BLACK
6
CONTINUOUS
10
153.872
20
-77.5551
11
157.27
21
-77.5551
0
LINE
8
BLACK
6
CONTINUOUS
10
157.27
20
-77.5551
11
157.271
21
-77.555
0
LINE
8
BLACK
6
CONTINUOUS
10
157.271
20
-77.555
11
157.272
21
-77.5551
0
LINE
8
BLACK
6
CONTINUOUS
10
153.896
20
-77.6051
11
153.896
21
-80.5551
0
LINE
8
BLACK
6
CONTINUOUS
10
153.896
20
-80.5551
11
157.246
21
-80.5551
0
LINE
8
BLACK
6
CONTINUOUS
10
157.246
20
-80.5551
11
157.246
21
-77.6051
0
LINE
8
BLACK
6
CONTINUOUS
10
157.246
20
-77.6051
11
153.896
21
-77.6051
  0
ENDSEC
  0
EOF
