  0
SECTION
  2
HEADER
  9
$ANGBASE
  50
0.0
  9
$ANGDIR
  70
1
  9
$MEASUREMENT
  70
1
  0
ENDSEC
  0
SECTION
  2
TABLES
  0
TABLE
  2
LTYPE
  70
4
  0
LTYPE
  5
40F
  2
CONTINUOUS
  70
0
  3
Solid line
  72
65
  73
0
  40
0.0
  0
LTYPE
  5
410
  2
DASHDOT
 70
0
  3
Dash Dot ____ _ ____ _
 72
65
 73
4
 40
2.0
 49
1.25
 49
-0.25
 49
0.25
 49
-0.25
  0
LTYPE
  5
411
  2
DASHED
 70
0
  3
Dashed __ __ __ __ __
 72
65
 73
2
 40
0.75
 49
0.5
 49
-0.25
  0
LTYPE
  5
43B
  2
DOTTED
 70
0
  3
Dotted .  .  .  .
 72
65
 73
2
 40
0.2
 49
0.0
 49
-0.2
  0
ENDTAB
  0
TABLE
  2
STYLE
  70
4
  0
STYLE
  2
KICAD
  70
0
  40
0
  41
1
  42
1
  50
0
  71
0
  3
isocp.shx
  0
STYLE
  2
KICADB
  70
0
  40
0
  41
1
  42
1
  50
0
  71
0
  3
isocp.shx
  0
STYLE
  2
KICADI
  70
0
  40
0
  41
1
  42
1
  50
15
  71
0
  3
isocp.shx
  0
STYLE
  2
KICADBI
  70
0
  40
0
  41
1
  42
1
  50
15
  71
0
  3
isocp.shx
  0
ENDTAB
  0
TABLE
  2
LAYER
  70
1
  0
LAYER
  2
BLACK
  70
0
  62
7
  6
CONTINUOUS
  0
ENDTAB
  0
ENDSEC
  0
SECTION
  2
ENTITIES
0
LINE
8
BLACK
6
CONTINUOUS
10
105.981
20
-59.4868
11
105.181
21
-59.4868
0
LINE
8
BLACK
6
CONTINUOUS
10
106.23
20
-53.6702
11
106.236
21
-59.2328
0
LINE
8
BLACK
6
CONTINUOUS
10
104.927
20
-54.6862
11
104.927
21
-59.2328
0
LINE
8
BLACK
6
CONTINUOUS
10
98.1202
20
-54.6862
11
104.927
21
-54.6862
0
LINE
8
BLACK
6
CONTINUOUS
10
98.1202
20
-59.2328
11
98.1202
21
-54.6862
0
LINE
8
BLACK
6
CONTINUOUS
10
97.0788
20
-59.4868
11
97.8662
21
-59.4868
0
LINE
8
BLACK
6
CONTINUOUS
10
96.8248
20
-59.2328
11
96.8274
21
-53.6702
0
ARC
8
BLACK
10
105.981
20
-59.2328
40
0.254
50
-90
51
-0
0
ARC
8
BLACK
10
105.181
20
-59.2328
40
0.254
50
180
51
270
0
ARC
8
BLACK
10
97.8662
20
-59.2328
40
0.254
50
-90
51
-0
0
ARC
8
BLACK
10
97.0788
20
-59.2328
40
0.254
50
180
51
270
0
LINE
8
BLACK
6
CONTINUOUS
10
106.23
20
-53.6702
11
221.59
21
-53.6702
0
LINE
8
BLACK
6
CONTINUOUS
10
96.8274
20
-53.6702
11
80.0354
21
-53.6702
0
LINE
8
BLACK
6
CONTINUOUS
10
76.835
20
-173.965
11
76.835
21
-56.8706
0
LINE
8
BLACK
6
CONTINUOUS
10
165.049
20
-177.165
11
80.0354
21
-177.165
0
LINE
8
BLACK
6
CONTINUOUS
10
214.376
20
-225.171
11
167.31
21
-178.102
0
LINE
8
BLACK
6
CONTINUOUS
10
258.496
20
-185.608
11
218.907
21
-225.171
0
LINE
8
BLACK
6
CONTINUOUS
10
225.73
20
-148.311
11
258.496
21
-181.077
0
LINE
8
BLACK
6
CONTINUOUS
10
224.79
20
-56.8706
11
224.792
21
-146.046
0
ARC
8
BLACK
10
221.59
20
-56.8706
40
3.2004
50
-0
51
90
0
ARC
8
BLACK
10
80.0354
20
-56.8706
40
3.2004
50
90
51
180
0
ARC
8
BLACK
10
165.049
20
-180.363
40
3.19778
50
45
51
90
0
ARC
8
BLACK
10
227.994
20
-146.046
40
3.20201
50
180
51
225
0
ARC
8
BLACK
10
80.0354
20
-173.965
40
3.2004
50
180
51
270
0
ARC
8
BLACK
10
216.642
20
-222.905
40
3.20423
50
-135
51
-45
0
ARC
8
BLACK
10
256.23
20
-183.342
40
3.20423
50
-45
51
45
0
LINE
8
BLACK
6
CONTINUOUS
10
168.667
20
-104.69
11
170.417
21
-106.44
0
LINE
8
BLACK
6
CONTINUOUS
10
170.417
20
-104.69
11
168.667
21
-106.44
0
LINE
8
BLACK
6
CONTINUOUS
10
178.827
20
-104.69
11
180.577
21
-106.44
0
LINE
8
BLACK
6
CONTINUOUS
10
180.577
20
-104.69
11
178.827
21
-106.44
0
LINE
8
BLACK
6
CONTINUOUS
10
92.4675
20
-164.221
11
94.2175
21
-165.971
0
LINE
8
BLACK
6
CONTINUOUS
10
94.2175
20
-164.221
11
92.4675
21
-165.971
0
LINE
8
BLACK
6
CONTINUOUS
10
102.627
20
-164.221
11
104.377
21
-165.971
0
LINE
8
BLACK
6
CONTINUOUS
10
104.377
20
-164.221
11
102.627
21
-165.971
0
LINE
8
BLACK
6
CONTINUOUS
10
206.767
20
-88.0212
11
208.517
21
-89.7712
0
LINE
8
BLACK
6
CONTINUOUS
10
208.517
20
-88.0212
11
206.767
21
-89.7712
0
LINE
8
BLACK
6
CONTINUOUS
10
216.927
20
-88.0212
11
218.677
21
-89.7712
0
LINE
8
BLACK
6
CONTINUOUS
10
218.677
20
-88.0212
11
216.927
21
-89.7712
0
LINE
8
BLACK
6
CONTINUOUS
10
87.705
20
-107.072
11
89.455
21
-108.822
0
LINE
8
BLACK
6
CONTINUOUS
10
89.455
20
-107.072
11
87.705
21
-108.822
0
LINE
8
BLACK
6
CONTINUOUS
10
97.865
20
-107.072
11
99.615
21
-108.822
0
LINE
8
BLACK
6
CONTINUOUS
10
99.615
20
-107.072
11
97.865
21
-108.822
0
LINE
8
BLACK
6
CONTINUOUS
10
111.517
20
-126.121
11
113.267
21
-127.871
0
LINE
8
BLACK
6
CONTINUOUS
10
113.267
20
-126.121
11
111.517
21
-127.871
0
LINE
8
BLACK
6
CONTINUOUS
10
121.677
20
-126.121
11
123.427
21
-127.871
0
LINE
8
BLACK
6
CONTINUOUS
10
123.427
20
-126.121
11
121.677
21
-127.871
0
LINE
8
BLACK
6
CONTINUOUS
10
111.517
20
-88.0212
11
113.267
21
-89.7712
0
LINE
8
BLACK
6
CONTINUOUS
10
113.267
20
-88.0212
11
111.517
21
-89.7712
0
LINE
8
BLACK
6
CONTINUOUS
10
121.677
20
-88.0212
11
123.427
21
-89.7712
0
LINE
8
BLACK
6
CONTINUOUS
10
123.427
20
-88.0212
11
121.677
21
-89.7712
0
LINE
8
BLACK
6
CONTINUOUS
10
191.872
20
-172.124
11
193.622
21
-173.874
0
LINE
8
BLACK
6
CONTINUOUS
10
193.622
20
-172.124
11
191.872
21
-173.874
0
LINE
8
BLACK
6
CONTINUOUS
10
199.056
20
-179.309
11
200.806
21
-181.059
0
LINE
8
BLACK
6
CONTINUOUS
10
200.806
20
-179.309
11
199.056
21
-181.059
0
LINE
8
BLACK
6
CONTINUOUS
10
168.667
20
-161.84
11
170.417
21
-163.59
0
LINE
8
BLACK
6
CONTINUOUS
10
170.417
20
-161.84
11
168.667
21
-163.59
0
LINE
8
BLACK
6
CONTINUOUS
10
178.827
20
-161.84
11
180.577
21
-163.59
0
LINE
8
BLACK
6
CONTINUOUS
10
180.577
20
-161.84
11
178.827
21
-163.59
0
LINE
8
BLACK
6
CONTINUOUS
10
87.705
20
-126.121
11
89.455
21
-127.871
0
LINE
8
BLACK
6
CONTINUOUS
10
89.455
20
-126.121
11
87.705
21
-127.871
0
LINE
8
BLACK
6
CONTINUOUS
10
97.865
20
-126.122
11
99.615
21
-127.872
0
LINE
8
BLACK
6
CONTINUOUS
10
99.615
20
-126.122
11
97.865
21
-127.872
0
LINE
8
BLACK
6
CONTINUOUS
10
239.215
20
-178.885
11
240.965
21
-180.635
0
LINE
8
BLACK
6
CONTINUOUS
10
240.965
20
-178.885
11
239.215
21
-180.635
0
LINE
8
BLACK
6
CONTINUOUS
10
246.399
20
-186.069
11
248.149
21
-187.819
0
LINE
8
BLACK
6
CONTINUOUS
10
248.149
20
-186.069
11
246.399
21
-187.819
0
LINE
8
BLACK
6
CONTINUOUS
10
130.567
20
-142.79
11
132.317
21
-144.54
0
LINE
8
BLACK
6
CONTINUOUS
10
132.317
20
-142.79
11
130.567
21
-144.54
0
LINE
8
BLACK
6
CONTINUOUS
10
140.727
20
-142.79
11
142.477
21
-144.54
0
LINE
8
BLACK
6
CONTINUOUS
10
142.477
20
-142.79
11
140.727
21
-144.54
0
LINE
8
BLACK
6
CONTINUOUS
10
149.617
20
-83.255
11
151.367
21
-85.005
0
LINE
8
BLACK
6
CONTINUOUS
10
151.367
20
-83.255
11
149.617
21
-85.005
0
LINE
8
BLACK
6
CONTINUOUS
10
159.777
20
-83.255
11
161.527
21
-85.005
0
LINE
8
BLACK
6
CONTINUOUS
10
161.527
20
-83.255
11
159.777
21
-85.005
0
LINE
8
BLACK
6
CONTINUOUS
10
212.228
20
-205.867
11
213.978
21
-207.617
0
LINE
8
BLACK
6
CONTINUOUS
10
213.978
20
-205.867
11
212.228
21
-207.617
0
LINE
8
BLACK
6
CONTINUOUS
10
219.412
20
-213.051
11
221.162
21
-214.801
0
LINE
8
BLACK
6
CONTINUOUS
10
221.162
20
-213.051
11
219.412
21
-214.801
0
LINE
8
BLACK
6
CONTINUOUS
10
206.767
20
-140.409
11
208.517
21
-142.159
0
LINE
8
BLACK
6
CONTINUOUS
10
208.517
20
-140.409
11
206.767
21
-142.159
0
LINE
8
BLACK
6
CONTINUOUS
10
216.927
20
-140.409
11
218.677
21
-142.159
0
LINE
8
BLACK
6
CONTINUOUS
10
218.677
20
-140.409
11
216.927
21
-142.159
0
LINE
8
BLACK
6
CONTINUOUS
10
187.714
20
-88.0175
11
189.464
21
-89.7675
0
LINE
8
BLACK
6
CONTINUOUS
10
189.464
20
-88.0175
11
187.714
21
-89.7675
0
LINE
8
BLACK
6
CONTINUOUS
10
197.874
20
-88.0175
11
199.624
21
-89.7675
0
LINE
8
BLACK
6
CONTINUOUS
10
199.624
20
-88.0175
11
197.874
21
-89.7675
0
LINE
8
BLACK
6
CONTINUOUS
10
87.705
20
-145.172
11
89.455
21
-146.922
0
LINE
8
BLACK
6
CONTINUOUS
10
89.455
20
-145.172
11
87.705
21
-146.922
0
LINE
8
BLACK
6
CONTINUOUS
10
97.865
20
-145.172
11
99.615
21
-146.922
0
LINE
8
BLACK
6
CONTINUOUS
10
99.615
20
-145.172
11
97.865
21
-146.922
0
LINE
8
BLACK
6
CONTINUOUS
10
149.614
20
-159.459
11
151.364
21
-161.209
0
LINE
8
BLACK
6
CONTINUOUS
10
151.364
20
-159.459
11
149.614
21
-161.209
0
LINE
8
BLACK
6
CONTINUOUS
10
159.774
20
-159.459
11
161.524
21
-161.209
0
LINE
8
BLACK
6
CONTINUOUS
10
161.524
20
-159.459
11
159.774
21
-161.209
0
LINE
8
BLACK
6
CONTINUOUS
10
149.617
20
-121.359
11
151.367
21
-123.109
0
LINE
8
BLACK
6
CONTINUOUS
10
151.367
20
-121.359
11
149.617
21
-123.109
0
LINE
8
BLACK
6
CONTINUOUS
10
159.777
20
-121.359
11
161.527
21
-123.109
0
LINE
8
BLACK
6
CONTINUOUS
10
161.527
20
-121.359
11
159.777
21
-123.109
0
LINE
8
BLACK
6
CONTINUOUS
10
130.567
20
-85.6399
11
132.317
21
-87.3899
0
LINE
8
BLACK
6
CONTINUOUS
10
132.317
20
-85.6399
11
130.567
21
-87.3899
0
LINE
8
BLACK
6
CONTINUOUS
10
140.727
20
-85.6399
11
142.477
21
-87.3899
0
LINE
8
BLACK
6
CONTINUOUS
10
142.477
20
-85.6399
11
140.727
21
-87.3899
0
LINE
8
BLACK
6
CONTINUOUS
10
205.366
20
-185.618
11
207.116
21
-187.368
0
LINE
8
BLACK
6
CONTINUOUS
10
207.116
20
-185.618
11
205.366
21
-187.368
0
LINE
8
BLACK
6
CONTINUOUS
10
212.55
20
-192.802
11
214.3
21
-194.552
0
LINE
8
BLACK
6
CONTINUOUS
10
214.3
20
-192.802
11
212.55
21
-194.552
0
LINE
8
BLACK
6
CONTINUOUS
10
149.617
20
-102.309
11
151.367
21
-104.059
0
LINE
8
BLACK
6
CONTINUOUS
10
151.367
20
-102.309
11
149.617
21
-104.059
0
LINE
8
BLACK
6
CONTINUOUS
10
159.777
20
-102.309
11
161.527
21
-104.059
0
LINE
8
BLACK
6
CONTINUOUS
10
161.527
20
-102.309
11
159.777
21
-104.059
0
LINE
8
BLACK
6
CONTINUOUS
10
187.717
20
-126.121
11
189.467
21
-127.871
0
LINE
8
BLACK
6
CONTINUOUS
10
189.467
20
-126.121
11
187.717
21
-127.871
0
LINE
8
BLACK
6
CONTINUOUS
10
197.877
20
-126.121
11
199.627
21
-127.871
0
LINE
8
BLACK
6
CONTINUOUS
10
199.627
20
-126.121
11
197.877
21
-127.871
0
LINE
8
BLACK
6
CONTINUOUS
10
168.667
20
-123.74
11
170.417
21
-125.49
0
LINE
8
BLACK
6
CONTINUOUS
10
170.417
20
-123.74
11
168.667
21
-125.49
0
LINE
8
BLACK
6
CONTINUOUS
10
178.827
20
-123.74
11
180.577
21
-125.49
0
LINE
8
BLACK
6
CONTINUOUS
10
180.577
20
-123.74
11
178.827
21
-125.49
0
LINE
8
BLACK
6
CONTINUOUS
10
168.667
20
-85.6399
11
170.417
21
-87.3899
0
LINE
8
BLACK
6
CONTINUOUS
10
170.417
20
-85.6399
11
168.667
21
-87.3899
0
LINE
8
BLACK
6
CONTINUOUS
10
178.827
20
-85.6399
11
180.577
21
-87.3899
0
LINE
8
BLACK
6
CONTINUOUS
10
180.577
20
-85.6399
11
178.827
21
-87.3899
0
LINE
8
BLACK
6
CONTINUOUS
10
111.517
20
-164.221
11
113.267
21
-165.971
0
LINE
8
BLACK
6
CONTINUOUS
10
113.267
20
-164.221
11
111.517
21
-165.971
0
LINE
8
BLACK
6
CONTINUOUS
10
121.677
20
-164.221
11
123.427
21
-165.971
0
LINE
8
BLACK
6
CONTINUOUS
10
123.427
20
-164.221
11
121.677
21
-165.971
0
LINE
8
BLACK
6
CONTINUOUS
10
206.767
20
-111.834
11
208.517
21
-113.584
0
LINE
8
BLACK
6
CONTINUOUS
10
208.517
20
-111.834
11
206.767
21
-113.584
0
LINE
8
BLACK
6
CONTINUOUS
10
216.927
20
-111.834
11
218.677
21
-113.584
0
LINE
8
BLACK
6
CONTINUOUS
10
218.677
20
-111.834
11
216.927
21
-113.584
0
LINE
8
BLACK
6
CONTINUOUS
10
111.517
20
-107.071
11
113.267
21
-108.821
0
LINE
8
BLACK
6
CONTINUOUS
10
113.267
20
-107.071
11
111.517
21
-108.821
0
LINE
8
BLACK
6
CONTINUOUS
10
121.677
20
-107.071
11
123.427
21
-108.821
0
LINE
8
BLACK
6
CONTINUOUS
10
123.427
20
-107.071
11
121.677
21
-108.821
0
LINE
8
BLACK
6
CONTINUOUS
10
225.721
20
-165.391
11
227.471
21
-167.141
0
LINE
8
BLACK
6
CONTINUOUS
10
227.471
20
-165.391
11
225.721
21
-167.141
0
LINE
8
BLACK
6
CONTINUOUS
10
232.905
20
-172.575
11
234.655
21
-174.325
0
LINE
8
BLACK
6
CONTINUOUS
10
234.655
20
-172.575
11
232.905
21
-174.325
0
LINE
8
BLACK
6
CONTINUOUS
10
168.667
20
-142.79
11
170.417
21
-144.54
0
LINE
8
BLACK
6
CONTINUOUS
10
170.417
20
-142.79
11
168.667
21
-144.54
0
LINE
8
BLACK
6
CONTINUOUS
10
178.827
20
-142.79
11
180.577
21
-144.54
0
LINE
8
BLACK
6
CONTINUOUS
10
180.577
20
-142.79
11
178.827
21
-144.54
0
LINE
8
BLACK
6
CONTINUOUS
10
130.564
20
-104.686
11
132.314
21
-106.436
0
LINE
8
BLACK
6
CONTINUOUS
10
132.314
20
-104.686
11
130.564
21
-106.436
0
LINE
8
BLACK
6
CONTINUOUS
10
140.724
20
-104.686
11
142.474
21
-106.436
0
LINE
8
BLACK
6
CONTINUOUS
10
142.474
20
-104.686
11
140.724
21
-106.436
0
LINE
8
BLACK
6
CONTINUOUS
10
111.517
20
-145.171
11
113.267
21
-146.921
0
LINE
8
BLACK
6
CONTINUOUS
10
113.267
20
-145.171
11
111.517
21
-146.921
0
LINE
8
BLACK
6
CONTINUOUS
10
121.677
20
-145.171
11
123.427
21
-146.921
0
LINE
8
BLACK
6
CONTINUOUS
10
123.427
20
-145.171
11
121.677
21
-146.921
0
LINE
8
BLACK
6
CONTINUOUS
10
87.705
20
-88.0212
11
89.455
21
-89.7712
0
LINE
8
BLACK
6
CONTINUOUS
10
89.455
20
-88.0212
11
87.705
21
-89.7712
0
LINE
8
BLACK
6
CONTINUOUS
10
97.865
20
-88.0225
11
99.615
21
-89.7725
0
LINE
8
BLACK
6
CONTINUOUS
10
99.615
20
-88.0225
11
97.865
21
-89.7725
0
LINE
8
BLACK
6
CONTINUOUS
10
225.721
20
-192.373
11
227.471
21
-194.123
0
LINE
8
BLACK
6
CONTINUOUS
10
227.471
20
-192.373
11
225.721
21
-194.123
0
LINE
8
BLACK
6
CONTINUOUS
10
232.905
20
-199.557
11
234.655
21
-201.307
0
LINE
8
BLACK
6
CONTINUOUS
10
234.655
20
-199.557
11
232.905
21
-201.307
0
LINE
8
BLACK
6
CONTINUOUS
10
130.567
20
-161.84
11
132.317
21
-163.59
0
LINE
8
BLACK
6
CONTINUOUS
10
132.317
20
-161.84
11
130.567
21
-163.59
0
LINE
8
BLACK
6
CONTINUOUS
10
140.727
20
-161.84
11
142.477
21
-163.59
0
LINE
8
BLACK
6
CONTINUOUS
10
142.477
20
-161.84
11
140.727
21
-163.59
0
LINE
8
BLACK
6
CONTINUOUS
10
130.567
20
-123.74
11
132.317
21
-125.49
0
LINE
8
BLACK
6
CONTINUOUS
10
132.317
20
-123.74
11
130.567
21
-125.49
0
LINE
8
BLACK
6
CONTINUOUS
10
140.727
20
-123.74
11
142.477
21
-125.49
0
LINE
8
BLACK
6
CONTINUOUS
10
142.477
20
-123.74
11
140.727
21
-125.49
0
LINE
8
BLACK
6
CONTINUOUS
10
187.717
20
-107.071
11
189.467
21
-108.821
0
LINE
8
BLACK
6
CONTINUOUS
10
189.467
20
-107.071
11
187.717
21
-108.821
0
LINE
8
BLACK
6
CONTINUOUS
10
197.877
20
-107.071
11
199.627
21
-108.821
0
LINE
8
BLACK
6
CONTINUOUS
10
199.627
20
-107.071
11
197.877
21
-108.821
0
LINE
8
BLACK
6
CONTINUOUS
10
187.717
20
-145.171
11
189.467
21
-146.921
0
LINE
8
BLACK
6
CONTINUOUS
10
189.467
20
-145.171
11
187.717
21
-146.921
0
LINE
8
BLACK
6
CONTINUOUS
10
197.877
20
-145.171
11
199.627
21
-146.921
0
LINE
8
BLACK
6
CONTINUOUS
10
199.627
20
-145.171
11
197.877
21
-146.921
0
LINE
8
BLACK
6
CONTINUOUS
10
149.617
20
-140.409
11
151.367
21
-142.159
0
LINE
8
BLACK
6
CONTINUOUS
10
151.367
20
-140.409
11
149.617
21
-142.159
0
LINE
8
BLACK
6
CONTINUOUS
10
159.777
20
-140.409
11
161.527
21
-142.159
0
LINE
8
BLACK
6
CONTINUOUS
10
161.527
20
-140.409
11
159.777
21
-142.159
0
CIRCLE
8
BLACK
10
224.799
20
-171.655
40
1.5
0
CIRCLE
8
BLACK
10
231.085
20
-174.347
40
1.5
0
CIRCLE
8
BLACK
10
172.082
20
-148.746
40
1.5
0
CIRCLE
8
BLACK
10
178.431
20
-146.205
40
1.5
0
CIRCLE
8
BLACK
10
133.979
20
-110.643
40
1.5
0
CIRCLE
8
BLACK
10
140.328
20
-108.101
40
1.5
0
CIRCLE
8
BLACK
10
114.932
20
-151.127
40
1.5
0
CIRCLE
8
BLACK
10
121.281
20
-148.586
40
1.5
0
CIRCLE
8
BLACK
10
91.12
20
-93.9775
40
1.5
0
CIRCLE
8
BLACK
10
97.4688
20
-91.4363
40
1.5
0
CIRCLE
8
BLACK
10
224.799
20
-198.637
40
1.5
0
CIRCLE
8
BLACK
10
231.085
20
-201.33
40
1.5
0
CIRCLE
8
BLACK
10
133.982
20
-167.795
40
1.5
0
CIRCLE
8
BLACK
10
140.331
20
-165.255
40
1.5
0
CIRCLE
8
BLACK
10
133.982
20
-129.695
40
1.5
0
CIRCLE
8
BLACK
10
140.331
20
-127.155
40
1.5
0
CIRCLE
8
BLACK
10
191.132
20
-113.027
40
1.5
0
CIRCLE
8
BLACK
10
197.481
20
-110.486
40
1.5
0
CIRCLE
8
BLACK
10
191.132
20
-151.127
40
1.5
0
CIRCLE
8
BLACK
10
197.481
20
-148.586
40
1.5
0
CIRCLE
8
BLACK
10
153.032
20
-146.365
40
1.5
0
CIRCLE
8
BLACK
10
159.381
20
-143.824
40
1.5
0
CIRCLE
8
BLACK
10
172.082
20
-110.646
40
1.5
0
CIRCLE
8
BLACK
10
178.431
20
-108.105
40
1.5
0
CIRCLE
8
BLACK
10
95.8825
20
-170.176
40
1.5
0
CIRCLE
8
BLACK
10
102.231
20
-167.636
40
1.5
0
CIRCLE
8
BLACK
10
210.182
20
-93.9762
40
1.5
0
CIRCLE
8
BLACK
10
216.531
20
-91.4363
40
1.5
0
CIRCLE
8
BLACK
10
91.12
20
-113.027
40
1.5
0
CIRCLE
8
BLACK
10
97.47
20
-110.487
40
1.5
0
CIRCLE
8
BLACK
10
114.932
20
-132.076
40
1.5
0
CIRCLE
8
BLACK
10
121.281
20
-129.536
40
1.5
0
CIRCLE
8
BLACK
10
114.932
20
-93.9762
40
1.5
0
CIRCLE
8
BLACK
10
121.281
20
-91.4363
40
1.5
0
CIRCLE
8
BLACK
10
190.951
20
-178.388
40
1.5
0
CIRCLE
8
BLACK
10
197.236
20
-181.081
40
1.5
0
CIRCLE
8
BLACK
10
172.082
20
-167.795
40
1.5
0
CIRCLE
8
BLACK
10
178.431
20
-165.255
40
1.5
0
CIRCLE
8
BLACK
10
91.12
20
-132.077
40
1.5
0
CIRCLE
8
BLACK
10
97.4688
20
-129.536
40
1.5
0
CIRCLE
8
BLACK
10
238.293
20
-185.149
40
1.5
0
CIRCLE
8
BLACK
10
244.579
20
-187.841
40
1.5
0
CIRCLE
8
BLACK
10
133.982
20
-148.746
40
1.5
0
CIRCLE
8
BLACK
10
140.331
20
-146.205
40
1.5
0
CIRCLE
8
BLACK
10
153.032
20
-89.21
40
1.5
0
CIRCLE
8
BLACK
10
159.381
20
-86.6701
40
1.5
0
CIRCLE
8
BLACK
10
211.306
20
-212.13
40
1.5
0
CIRCLE
8
BLACK
10
217.592
20
-214.823
40
1.5
0
CIRCLE
8
BLACK
10
210.182
20
-146.365
40
1.5
0
CIRCLE
8
BLACK
10
216.531
20
-143.824
40
1.5
0
CIRCLE
8
BLACK
10
191.129
20
-93.9725
40
1.5
0
CIRCLE
8
BLACK
10
197.478
20
-91.4326
40
1.5
0
CIRCLE
8
BLACK
10
91.12
20
-151.127
40
1.5
0
CIRCLE
8
BLACK
10
97.47
20
-148.587
40
1.5
0
CIRCLE
8
BLACK
10
153.029
20
-165.414
40
1.5
0
CIRCLE
8
BLACK
10
159.378
20
-162.874
40
1.5
0
CIRCLE
8
BLACK
10
153.032
20
-127.314
40
1.5
0
CIRCLE
8
BLACK
10
159.381
20
-124.774
40
1.5
0
CIRCLE
8
BLACK
10
133.982
20
-91.5949
40
1.5
0
CIRCLE
8
BLACK
10
140.331
20
-89.0551
40
1.5
0
CIRCLE
8
BLACK
10
204.445
20
-191.881
40
1.5
0
CIRCLE
8
BLACK
10
210.73
20
-194.575
40
1.5
0
CIRCLE
8
BLACK
10
153.032
20
-108.265
40
1.5
0
CIRCLE
8
BLACK
10
159.381
20
-105.724
40
1.5
0
CIRCLE
8
BLACK
10
191.132
20
-132.076
40
1.5
0
CIRCLE
8
BLACK
10
197.481
20
-129.536
40
1.5
0
CIRCLE
8
BLACK
10
172.082
20
-129.695
40
1.5
0
CIRCLE
8
BLACK
10
178.431
20
-127.155
40
1.5
0
CIRCLE
8
BLACK
10
172.082
20
-91.5949
40
1.5
0
CIRCLE
8
BLACK
10
178.431
20
-89.0551
40
1.5
0
CIRCLE
8
BLACK
10
114.932
20
-170.176
40
1.5
0
CIRCLE
8
BLACK
10
121.281
20
-167.636
40
1.5
0
CIRCLE
8
BLACK
10
210.182
20
-117.79
40
1.5
0
CIRCLE
8
BLACK
10
216.531
20
-115.249
40
1.5
0
CIRCLE
8
BLACK
10
114.932
20
-113.027
40
1.5
0
CIRCLE
8
BLACK
10
121.281
20
-110.486
40
1.5
0
LINE
8
BLACK
6
CONTINUOUS
10
230.187
20
-167.857
11
230.187
21
-171.857
0
LINE
8
BLACK
6
CONTINUOUS
10
228.187
20
-169.857
11
232.187
21
-169.857
0
LINE
8
BLACK
6
CONTINUOUS
10
174.621
20
-141.665
11
174.621
21
-145.665
0
LINE
8
BLACK
6
CONTINUOUS
10
172.621
20
-143.665
11
176.621
21
-143.665
0
LINE
8
BLACK
6
CONTINUOUS
10
136.518
20
-103.561
11
136.518
21
-107.561
0
LINE
8
BLACK
6
CONTINUOUS
10
134.518
20
-105.561
11
138.518
21
-105.561
0
LINE
8
BLACK
6
CONTINUOUS
10
117.471
20
-144.046
11
117.471
21
-148.046
0
LINE
8
BLACK
6
CONTINUOUS
10
115.471
20
-146.046
11
119.471
21
-146.046
0
LINE
8
BLACK
6
CONTINUOUS
10
93.66
20
-86.8975
11
93.66
21
-90.8975
0
LINE
8
BLACK
6
CONTINUOUS
10
91.66
20
-88.8975
11
95.66
21
-88.8975
0
LINE
8
BLACK
6
CONTINUOUS
10
230.187
20
-194.839
11
230.187
21
-198.839
0
LINE
8
BLACK
6
CONTINUOUS
10
228.187
20
-196.839
11
232.187
21
-196.839
0
LINE
8
BLACK
6
CONTINUOUS
10
136.521
20
-160.715
11
136.521
21
-164.715
0
LINE
8
BLACK
6
CONTINUOUS
10
134.521
20
-162.715
11
138.521
21
-162.715
0
LINE
8
BLACK
6
CONTINUOUS
10
136.521
20
-122.615
11
136.521
21
-126.615
0
LINE
8
BLACK
6
CONTINUOUS
10
134.521
20
-124.615
11
138.521
21
-124.615
0
LINE
8
BLACK
6
CONTINUOUS
10
193.671
20
-105.946
11
193.671
21
-109.946
0
LINE
8
BLACK
6
CONTINUOUS
10
191.671
20
-107.946
11
195.671
21
-107.946
0
LINE
8
BLACK
6
CONTINUOUS
10
193.671
20
-144.046
11
193.671
21
-148.046
0
LINE
8
BLACK
6
CONTINUOUS
10
191.671
20
-146.046
11
195.671
21
-146.046
0
LINE
8
BLACK
6
CONTINUOUS
10
155.571
20
-139.284
11
155.571
21
-143.284
0
LINE
8
BLACK
6
CONTINUOUS
10
153.571
20
-141.284
11
157.571
21
-141.284
0
LINE
8
BLACK
6
CONTINUOUS
10
174.621
20
-103.565
11
174.621
21
-107.565
0
LINE
8
BLACK
6
CONTINUOUS
10
172.621
20
-105.565
11
176.621
21
-105.565
0
LINE
8
BLACK
6
CONTINUOUS
10
98.4213
20
-163.096
11
98.4213
21
-167.096
0
LINE
8
BLACK
6
CONTINUOUS
10
96.4213
20
-165.096
11
100.421
21
-165.096
0
LINE
8
BLACK
6
CONTINUOUS
10
212.721
20
-86.8963
11
212.721
21
-90.8963
0
LINE
8
BLACK
6
CONTINUOUS
10
210.721
20
-88.8963
11
214.721
21
-88.8963
0
LINE
8
BLACK
6
CONTINUOUS
10
93.66
20
-105.947
11
93.66
21
-109.947
0
LINE
8
BLACK
6
CONTINUOUS
10
91.66
20
-107.947
11
95.66
21
-107.947
0
LINE
8
BLACK
6
CONTINUOUS
10
117.471
20
-124.996
11
117.471
21
-128.996
0
LINE
8
BLACK
6
CONTINUOUS
10
115.471
20
-126.996
11
119.471
21
-126.996
0
LINE
8
BLACK
6
CONTINUOUS
10
117.471
20
-86.8963
11
117.471
21
-90.8963
0
LINE
8
BLACK
6
CONTINUOUS
10
115.471
20
-88.8963
11
119.471
21
-88.8963
0
LINE
8
BLACK
6
CONTINUOUS
10
196.338
20
-174.591
11
196.338
21
-178.591
0
LINE
8
BLACK
6
CONTINUOUS
10
194.338
20
-176.591
11
198.338
21
-176.591
0
LINE
8
BLACK
6
CONTINUOUS
10
174.621
20
-160.715
11
174.621
21
-164.715
0
LINE
8
BLACK
6
CONTINUOUS
10
172.621
20
-162.715
11
176.621
21
-162.715
0
LINE
8
BLACK
6
CONTINUOUS
10
93.66
20
-124.997
11
93.66
21
-128.997
0
LINE
8
BLACK
6
CONTINUOUS
10
91.66
20
-126.997
11
95.66
21
-126.997
0
LINE
8
BLACK
6
CONTINUOUS
10
243.681
20
-181.351
11
243.681
21
-185.351
0
LINE
8
BLACK
6
CONTINUOUS
10
241.681
20
-183.351
11
245.681
21
-183.351
0
LINE
8
BLACK
6
CONTINUOUS
10
136.521
20
-141.665
11
136.521
21
-145.665
0
LINE
8
BLACK
6
CONTINUOUS
10
134.521
20
-143.665
11
138.521
21
-143.665
0
LINE
8
BLACK
6
CONTINUOUS
10
155.571
20
-82.1301
11
155.571
21
-86.1301
0
LINE
8
BLACK
6
CONTINUOUS
10
153.571
20
-84.1301
11
157.571
21
-84.1301
0
LINE
8
BLACK
6
CONTINUOUS
10
216.694
20
-208.333
11
216.694
21
-212.333
0
LINE
8
BLACK
6
CONTINUOUS
10
214.694
20
-210.333
11
218.694
21
-210.333
0
LINE
8
BLACK
6
CONTINUOUS
10
212.721
20
-139.284
11
212.721
21
-143.284
0
LINE
8
BLACK
6
CONTINUOUS
10
210.721
20
-141.284
11
214.721
21
-141.284
0
LINE
8
BLACK
6
CONTINUOUS
10
193.668
20
-86.8926
11
193.668
21
-90.8926
0
LINE
8
BLACK
6
CONTINUOUS
10
191.668
20
-88.8926
11
195.668
21
-88.8926
0
LINE
8
BLACK
6
CONTINUOUS
10
93.66
20
-144.047
11
93.66
21
-148.047
0
LINE
8
BLACK
6
CONTINUOUS
10
91.66
20
-146.047
11
95.66
21
-146.047
0
LINE
8
BLACK
6
CONTINUOUS
10
155.568
20
-158.334
11
155.568
21
-162.334
0
LINE
8
BLACK
6
CONTINUOUS
10
153.568
20
-160.334
11
157.568
21
-160.334
0
LINE
8
BLACK
6
CONTINUOUS
10
155.571
20
-120.234
11
155.571
21
-124.234
0
LINE
8
BLACK
6
CONTINUOUS
10
153.571
20
-122.234
11
157.571
21
-122.234
0
LINE
8
BLACK
6
CONTINUOUS
10
136.521
20
-84.5151
11
136.521
21
-88.5151
0
LINE
8
BLACK
6
CONTINUOUS
10
134.521
20
-86.5151
11
138.521
21
-86.5151
0
LINE
8
BLACK
6
CONTINUOUS
10
209.832
20
-188.085
11
209.832
21
-192.085
0
LINE
8
BLACK
6
CONTINUOUS
10
207.832
20
-190.085
11
211.832
21
-190.085
0
LINE
8
BLACK
6
CONTINUOUS
10
155.571
20
-101.184
11
155.571
21
-105.184
0
LINE
8
BLACK
6
CONTINUOUS
10
153.571
20
-103.184
11
157.571
21
-103.184
0
LINE
8
BLACK
6
CONTINUOUS
10
193.671
20
-124.996
11
193.671
21
-128.996
0
LINE
8
BLACK
6
CONTINUOUS
10
191.671
20
-126.996
11
195.671
21
-126.996
0
LINE
8
BLACK
6
CONTINUOUS
10
174.621
20
-122.615
11
174.621
21
-126.615
0
LINE
8
BLACK
6
CONTINUOUS
10
172.621
20
-124.615
11
176.621
21
-124.615
0
LINE
8
BLACK
6
CONTINUOUS
10
174.621
20
-84.5151
11
174.621
21
-88.5151
0
LINE
8
BLACK
6
CONTINUOUS
10
172.621
20
-86.5151
11
176.621
21
-86.5151
0
LINE
8
BLACK
6
CONTINUOUS
10
117.471
20
-163.096
11
117.471
21
-167.096
0
LINE
8
BLACK
6
CONTINUOUS
10
115.471
20
-165.096
11
119.471
21
-165.096
0
LINE
8
BLACK
6
CONTINUOUS
10
212.721
20
-110.709
11
212.721
21
-114.709
0
LINE
8
BLACK
6
CONTINUOUS
10
210.721
20
-112.709
11
214.721
21
-112.709
0
LINE
8
BLACK
6
CONTINUOUS
10
117.471
20
-105.946
11
117.471
21
-109.946
0
LINE
8
BLACK
6
CONTINUOUS
10
115.471
20
-107.946
11
119.471
21
-107.946
0
LINE
8
BLACK
6
CONTINUOUS
10
79.6743
20
-230.792
11
79.6743
21
-227.792
0
LINE
8
BLACK
6
CONTINUOUS
10
79.6743
20
-227.792
11
80.3886
21
-227.792
0
LINE
8
BLACK
6
CONTINUOUS
10
80.3886
20
-227.792
11
80.8171
21
-227.934
0
LINE
8
BLACK
6
CONTINUOUS
10
80.8171
20
-227.934
11
81.1029
21
-228.22
0
LINE
8
BLACK
6
CONTINUOUS
10
81.1029
20
-228.22
11
81.2457
21
-228.506
0
LINE
8
BLACK
6
CONTINUOUS
10
81.2457
20
-228.506
11
81.3886
21
-229.077
0
LINE
8
BLACK
6
CONTINUOUS
10
81.3886
20
-229.077
11
81.3886
21
-229.506
0
LINE
8
BLACK
6
CONTINUOUS
10
81.3886
20
-229.506
11
81.2457
21
-230.077
0
LINE
8
BLACK
6
CONTINUOUS
10
81.2457
20
-230.077
11
81.1029
21
-230.363
0
LINE
8
BLACK
6
CONTINUOUS
10
81.1029
20
-230.363
11
80.8171
21
-230.649
0
LINE
8
BLACK
6
CONTINUOUS
10
80.8171
20
-230.649
11
80.3886
21
-230.792
0
LINE
8
BLACK
6
CONTINUOUS
10
80.3886
20
-230.792
11
79.6743
21
-230.792
0
LINE
8
BLACK
6
CONTINUOUS
10
82.6743
20
-230.792
11
82.6743
21
-228.792
0
LINE
8
BLACK
6
CONTINUOUS
10
82.6743
20
-229.363
11
82.8171
21
-229.077
0
LINE
8
BLACK
6
CONTINUOUS
10
82.8171
20
-229.077
11
82.96
21
-228.934
0
LINE
8
BLACK
6
CONTINUOUS
10
82.96
20
-228.934
11
83.2457
21
-228.792
0
LINE
8
BLACK
6
CONTINUOUS
10
83.2457
20
-228.792
11
83.5314
21
-228.792
0
LINE
8
BLACK
6
CONTINUOUS
10
84.5314
20
-230.792
11
84.5314
21
-228.792
0
LINE
8
BLACK
6
CONTINUOUS
10
84.5314
20
-227.792
11
84.3886
21
-227.934
0
LINE
8
BLACK
6
CONTINUOUS
10
84.3886
20
-227.934
11
84.5314
21
-228.077
0
LINE
8
BLACK
6
CONTINUOUS
10
84.5314
20
-228.077
11
84.6743
21
-227.934
0
LINE
8
BLACK
6
CONTINUOUS
10
84.6743
20
-227.934
11
84.5314
21
-227.792
0
LINE
8
BLACK
6
CONTINUOUS
10
84.5314
20
-227.792
11
84.5314
21
-228.077
0
LINE
8
BLACK
6
CONTINUOUS
10
86.3886
20
-230.792
11
86.1029
21
-230.649
0
LINE
8
BLACK
6
CONTINUOUS
10
86.1029
20
-230.649
11
85.96
21
-230.363
0
LINE
8
BLACK
6
CONTINUOUS
10
85.96
20
-230.363
11
85.96
21
-227.792
0
LINE
8
BLACK
6
CONTINUOUS
10
87.96
20
-230.792
11
87.6743
21
-230.649
0
LINE
8
BLACK
6
CONTINUOUS
10
87.6743
20
-230.649
11
87.5314
21
-230.363
0
LINE
8
BLACK
6
CONTINUOUS
10
87.5314
20
-230.363
11
87.5314
21
-227.792
0
LINE
8
BLACK
6
CONTINUOUS
10
91.3886
20
-230.792
11
91.3886
21
-227.792
0
LINE
8
BLACK
6
CONTINUOUS
10
91.3886
20
-227.792
11
92.3886
21
-229.934
0
LINE
8
BLACK
6
CONTINUOUS
10
92.3886
20
-229.934
11
93.3886
21
-227.792
0
LINE
8
BLACK
6
CONTINUOUS
10
93.3886
20
-227.792
11
93.3886
21
-230.792
0
LINE
8
BLACK
6
CONTINUOUS
10
96.1029
20
-230.792
11
96.1029
21
-229.22
0
LINE
8
BLACK
6
CONTINUOUS
10
96.1029
20
-229.22
11
95.96
21
-228.934
0
LINE
8
BLACK
6
CONTINUOUS
10
95.96
20
-228.934
11
95.6743
21
-228.792
0
LINE
8
BLACK
6
CONTINUOUS
10
95.6743
20
-228.792
11
95.1029
21
-228.792
0
LINE
8
BLACK
6
CONTINUOUS
10
95.1029
20
-228.792
11
94.8171
21
-228.934
0
LINE
8
BLACK
6
CONTINUOUS
10
96.1029
20
-230.649
11
95.8171
21
-230.792
0
LINE
8
BLACK
6
CONTINUOUS
10
95.8171
20
-230.792
11
95.1029
21
-230.792
0
LINE
8
BLACK
6
CONTINUOUS
10
95.1029
20
-230.792
11
94.8171
21
-230.649
0
LINE
8
BLACK
6
CONTINUOUS
10
94.8171
20
-230.649
11
94.6743
21
-230.363
0
LINE
8
BLACK
6
CONTINUOUS
10
94.6743
20
-230.363
11
94.6743
21
-230.077
0
LINE
8
BLACK
6
CONTINUOUS
10
94.6743
20
-230.077
11
94.8171
21
-229.792
0
LINE
8
BLACK
6
CONTINUOUS
10
94.8171
20
-229.792
11
95.1029
21
-229.649
0
LINE
8
BLACK
6
CONTINUOUS
10
95.1029
20
-229.649
11
95.8171
21
-229.649
0
LINE
8
BLACK
6
CONTINUOUS
10
95.8171
20
-229.649
11
96.1029
21
-229.506
0
LINE
8
BLACK
6
CONTINUOUS
10
97.5314
20
-228.792
11
97.5314
21
-231.792
0
LINE
8
BLACK
6
CONTINUOUS
10
97.5314
20
-228.934
11
97.8171
21
-228.792
0
LINE
8
BLACK
6
CONTINUOUS
10
97.8171
20
-228.792
11
98.3886
21
-228.792
0
LINE
8
BLACK
6
CONTINUOUS
10
98.3886
20
-228.792
11
98.6743
21
-228.934
0
LINE
8
BLACK
6
CONTINUOUS
10
98.6743
20
-228.934
11
98.8171
21
-229.077
0
LINE
8
BLACK
6
CONTINUOUS
10
98.8171
20
-229.077
11
98.96
21
-229.363
0
LINE
8
BLACK
6
CONTINUOUS
10
98.96
20
-229.363
11
98.96
21
-230.22
0
LINE
8
BLACK
6
CONTINUOUS
10
98.96
20
-230.22
11
98.8171
21
-230.506
0
LINE
8
BLACK
6
CONTINUOUS
10
98.8171
20
-230.506
11
98.6743
21
-230.649
0
LINE
8
BLACK
6
CONTINUOUS
10
98.6743
20
-230.649
11
98.3886
21
-230.792
0
LINE
8
BLACK
6
CONTINUOUS
10
98.3886
20
-230.792
11
97.8171
21
-230.792
0
LINE
8
BLACK
6
CONTINUOUS
10
97.8171
20
-230.792
11
97.5314
21
-230.649
0
LINE
8
BLACK
6
CONTINUOUS
10
100.246
20
-230.506
11
100.389
21
-230.649
0
LINE
8
BLACK
6
CONTINUOUS
10
100.389
20
-230.649
11
100.246
21
-230.792
0
LINE
8
BLACK
6
CONTINUOUS
10
100.246
20
-230.792
11
100.103
21
-230.649
0
LINE
8
BLACK
6
CONTINUOUS
10
100.103
20
-230.649
11
100.246
21
-230.506
0
LINE
8
BLACK
6
CONTINUOUS
10
100.246
20
-230.506
11
100.246
21
-230.792
0
LINE
8
BLACK
6
CONTINUOUS
10
100.246
20
-228.934
11
100.389
21
-229.077
0
LINE
8
BLACK
6
CONTINUOUS
10
100.389
20
-229.077
11
100.246
21
-229.22
0
LINE
8
BLACK
6
CONTINUOUS
10
100.246
20
-229.22
11
100.103
21
-229.077
0
LINE
8
BLACK
6
CONTINUOUS
10
100.103
20
-229.077
11
100.246
21
-228.934
0
LINE
8
BLACK
6
CONTINUOUS
10
100.246
20
-228.934
11
100.246
21
-229.22
0
LINE
8
BLACK
6
CONTINUOUS
10
75.06
20
-234.859
11
76.81
21
-236.609
0
LINE
8
BLACK
6
CONTINUOUS
10
76.81
20
-234.859
11
75.06
21
-236.609
0
LINE
8
BLACK
6
CONTINUOUS
10
81.2457
20
-237.092
11
79.5314
21
-237.092
0
LINE
8
BLACK
6
CONTINUOUS
10
80.3886
20
-237.092
11
80.3886
21
-234.092
0
LINE
8
BLACK
6
CONTINUOUS
10
80.3886
20
-234.092
11
80.1029
21
-234.52
0
LINE
8
BLACK
6
CONTINUOUS
10
80.1029
20
-234.52
11
79.8171
21
-234.806
0
LINE
8
BLACK
6
CONTINUOUS
10
79.8171
20
-234.806
11
79.5314
21
-234.949
0
LINE
8
BLACK
6
CONTINUOUS
10
82.5314
20
-236.806
11
82.6743
21
-236.949
0
LINE
8
BLACK
6
CONTINUOUS
10
82.6743
20
-236.949
11
82.5314
21
-237.092
0
LINE
8
BLACK
6
CONTINUOUS
10
82.5314
20
-237.092
11
82.3886
21
-236.949
0
LINE
8
BLACK
6
CONTINUOUS
10
82.3886
20
-236.949
11
82.5314
21
-236.806
0
LINE
8
BLACK
6
CONTINUOUS
10
82.5314
20
-236.806
11
82.5314
21
-237.092
0
LINE
8
BLACK
6
CONTINUOUS
10
83.6743
20
-234.092
11
85.6743
21
-234.092
0
LINE
8
BLACK
6
CONTINUOUS
10
85.6743
20
-234.092
11
84.3886
21
-237.092
0
LINE
8
BLACK
6
CONTINUOUS
10
88.2457
20
-234.092
11
86.8171
21
-234.092
0
LINE
8
BLACK
6
CONTINUOUS
10
86.8171
20
-234.092
11
86.6743
21
-235.52
0
LINE
8
BLACK
6
CONTINUOUS
10
86.6743
20
-235.52
11
86.8171
21
-235.377
0
LINE
8
BLACK
6
CONTINUOUS
10
86.8171
20
-235.377
11
87.1029
21
-235.234
0
LINE
8
BLACK
6
CONTINUOUS
10
87.1029
20
-235.234
11
87.8171
21
-235.234
0
LINE
8
BLACK
6
CONTINUOUS
10
87.8171
20
-235.234
11
88.1029
21
-235.377
0
LINE
8
BLACK
6
CONTINUOUS
10
88.1029
20
-235.377
11
88.2457
21
-235.52
0
LINE
8
BLACK
6
CONTINUOUS
10
88.2457
20
-235.52
11
88.3886
21
-235.806
0
LINE
8
BLACK
6
CONTINUOUS
10
88.3886
20
-235.806
11
88.3886
21
-236.52
0
LINE
8
BLACK
6
CONTINUOUS
10
88.3886
20
-236.52
11
88.2457
21
-236.806
0
LINE
8
BLACK
6
CONTINUOUS
10
88.2457
20
-236.806
11
88.1029
21
-236.949
0
LINE
8
BLACK
6
CONTINUOUS
10
88.1029
20
-236.949
11
87.8171
21
-237.092
0
LINE
8
BLACK
6
CONTINUOUS
10
87.8171
20
-237.092
11
87.1029
21
-237.092
0
LINE
8
BLACK
6
CONTINUOUS
10
87.1029
20
-237.092
11
86.8171
21
-236.949
0
LINE
8
BLACK
6
CONTINUOUS
10
86.8171
20
-236.949
11
86.6743
21
-236.806
0
LINE
8
BLACK
6
CONTINUOUS
10
89.6743
20
-237.092
11
89.6743
21
-235.092
0
LINE
8
BLACK
6
CONTINUOUS
10
89.6743
20
-235.377
11
89.8171
21
-235.234
0
LINE
8
BLACK
6
CONTINUOUS
10
89.8171
20
-235.234
11
90.1029
21
-235.092
0
LINE
8
BLACK
6
CONTINUOUS
10
90.1029
20
-235.092
11
90.5314
21
-235.092
0
LINE
8
BLACK
6
CONTINUOUS
10
90.5314
20
-235.092
11
90.8171
21
-235.234
0
LINE
8
BLACK
6
CONTINUOUS
10
90.8171
20
-235.234
11
90.96
21
-235.52
0
LINE
8
BLACK
6
CONTINUOUS
10
90.96
20
-235.52
11
90.96
21
-237.092
0
LINE
8
BLACK
6
CONTINUOUS
10
90.96
20
-235.52
11
91.1029
21
-235.234
0
LINE
8
BLACK
6
CONTINUOUS
10
91.1029
20
-235.234
11
91.3886
21
-235.092
0
LINE
8
BLACK
6
CONTINUOUS
10
91.3886
20
-235.092
11
91.8171
21
-235.092
0
LINE
8
BLACK
6
CONTINUOUS
10
91.8171
20
-235.092
11
92.1029
21
-235.234
0
LINE
8
BLACK
6
CONTINUOUS
10
92.1029
20
-235.234
11
92.2457
21
-235.52
0
LINE
8
BLACK
6
CONTINUOUS
10
92.2457
20
-235.52
11
92.2457
21
-237.092
0
LINE
8
BLACK
6
CONTINUOUS
10
93.6743
20
-237.092
11
93.6743
21
-235.092
0
LINE
8
BLACK
6
CONTINUOUS
10
93.6743
20
-235.377
11
93.8171
21
-235.234
0
LINE
8
BLACK
6
CONTINUOUS
10
93.8171
20
-235.234
11
94.1029
21
-235.092
0
LINE
8
BLACK
6
CONTINUOUS
10
94.1029
20
-235.092
11
94.5314
21
-235.092
0
LINE
8
BLACK
6
CONTINUOUS
10
94.5314
20
-235.092
11
94.8171
21
-235.234
0
LINE
8
BLACK
6
CONTINUOUS
10
94.8171
20
-235.234
11
94.96
21
-235.52
0
LINE
8
BLACK
6
CONTINUOUS
10
94.96
20
-235.52
11
94.96
21
-237.092
0
LINE
8
BLACK
6
CONTINUOUS
10
94.96
20
-235.52
11
95.1029
21
-235.234
0
LINE
8
BLACK
6
CONTINUOUS
10
95.1029
20
-235.234
11
95.3886
21
-235.092
0
LINE
8
BLACK
6
CONTINUOUS
10
95.3886
20
-235.092
11
95.8171
21
-235.092
0
LINE
8
BLACK
6
CONTINUOUS
10
95.8171
20
-235.092
11
96.1029
21
-235.234
0
LINE
8
BLACK
6
CONTINUOUS
10
96.1029
20
-235.234
11
96.2457
21
-235.52
0
LINE
8
BLACK
6
CONTINUOUS
10
96.2457
20
-235.52
11
96.2457
21
-237.092
0
LINE
8
BLACK
6
CONTINUOUS
10
102.103
20
-233.949
11
99.5314
21
-237.806
0
LINE
8
BLACK
6
CONTINUOUS
10
105.96
20
-234.092
11
106.246
21
-234.092
0
LINE
8
BLACK
6
CONTINUOUS
10
106.246
20
-234.092
11
106.531
21
-234.234
0
LINE
8
BLACK
6
CONTINUOUS
10
106.531
20
-234.234
11
106.674
21
-234.377
0
LINE
8
BLACK
6
CONTINUOUS
10
106.674
20
-234.377
11
106.817
21
-234.663
0
LINE
8
BLACK
6
CONTINUOUS
10
106.817
20
-234.663
11
106.96
21
-235.234
0
LINE
8
BLACK
6
CONTINUOUS
10
106.96
20
-235.234
11
106.96
21
-235.949
0
LINE
8
BLACK
6
CONTINUOUS
10
106.96
20
-235.949
11
106.817
21
-236.52
0
LINE
8
BLACK
6
CONTINUOUS
10
106.817
20
-236.52
11
106.674
21
-236.806
0
LINE
8
BLACK
6
CONTINUOUS
10
106.674
20
-236.806
11
106.531
21
-236.949
0
LINE
8
BLACK
6
CONTINUOUS
10
106.531
20
-236.949
11
106.246
21
-237.092
0
LINE
8
BLACK
6
CONTINUOUS
10
106.246
20
-237.092
11
105.96
21
-237.092
0
LINE
8
BLACK
6
CONTINUOUS
10
105.96
20
-237.092
11
105.674
21
-236.949
0
LINE
8
BLACK
6
CONTINUOUS
10
105.674
20
-236.949
11
105.531
21
-236.806
0
LINE
8
BLACK
6
CONTINUOUS
10
105.531
20
-236.806
11
105.389
21
-236.52
0
LINE
8
BLACK
6
CONTINUOUS
10
105.389
20
-236.52
11
105.246
21
-235.949
0
LINE
8
BLACK
6
CONTINUOUS
10
105.246
20
-235.949
11
105.246
21
-235.234
0
LINE
8
BLACK
6
CONTINUOUS
10
105.246
20
-235.234
11
105.389
21
-234.663
0
LINE
8
BLACK
6
CONTINUOUS
10
105.389
20
-234.663
11
105.531
21
-234.377
0
LINE
8
BLACK
6
CONTINUOUS
10
105.531
20
-234.377
11
105.674
21
-234.234
0
LINE
8
BLACK
6
CONTINUOUS
10
105.674
20
-234.234
11
105.96
21
-234.092
0
LINE
8
BLACK
6
CONTINUOUS
10
108.246
20
-236.806
11
108.389
21
-236.949
0
LINE
8
BLACK
6
CONTINUOUS
10
108.389
20
-236.949
11
108.246
21
-237.092
0
LINE
8
BLACK
6
CONTINUOUS
10
108.246
20
-237.092
11
108.103
21
-236.949
0
LINE
8
BLACK
6
CONTINUOUS
10
108.103
20
-236.949
11
108.246
21
-236.806
0
LINE
8
BLACK
6
CONTINUOUS
10
108.246
20
-236.806
11
108.246
21
-237.092
0
LINE
8
BLACK
6
CONTINUOUS
10
110.246
20
-234.092
11
110.531
21
-234.092
0
LINE
8
BLACK
6
CONTINUOUS
10
110.531
20
-234.092
11
110.817
21
-234.234
0
LINE
8
BLACK
6
CONTINUOUS
10
110.817
20
-234.234
11
110.96
21
-234.377
0
LINE
8
BLACK
6
CONTINUOUS
10
110.96
20
-234.377
11
111.103
21
-234.663
0
LINE
8
BLACK
6
CONTINUOUS
10
111.103
20
-234.663
11
111.246
21
-235.234
0
LINE
8
BLACK
6
CONTINUOUS
10
111.246
20
-235.234
11
111.246
21
-235.949
0
LINE
8
BLACK
6
CONTINUOUS
10
111.246
20
-235.949
11
111.103
21
-236.52
0
LINE
8
BLACK
6
CONTINUOUS
10
111.103
20
-236.52
11
110.96
21
-236.806
0
LINE
8
BLACK
6
CONTINUOUS
10
110.96
20
-236.806
11
110.817
21
-236.949
0
LINE
8
BLACK
6
CONTINUOUS
10
110.817
20
-236.949
11
110.531
21
-237.092
0
LINE
8
BLACK
6
CONTINUOUS
10
110.531
20
-237.092
11
110.246
21
-237.092
0
LINE
8
BLACK
6
CONTINUOUS
10
110.246
20
-237.092
11
109.96
21
-236.949
0
LINE
8
BLACK
6
CONTINUOUS
10
109.96
20
-236.949
11
109.817
21
-236.806
0
LINE
8
BLACK
6
CONTINUOUS
10
109.817
20
-236.806
11
109.674
21
-236.52
0
LINE
8
BLACK
6
CONTINUOUS
10
109.674
20
-236.52
11
109.531
21
-235.949
0
LINE
8
BLACK
6
CONTINUOUS
10
109.531
20
-235.949
11
109.531
21
-235.234
0
LINE
8
BLACK
6
CONTINUOUS
10
109.531
20
-235.234
11
109.674
21
-234.663
0
LINE
8
BLACK
6
CONTINUOUS
10
109.674
20
-234.663
11
109.817
21
-234.377
0
LINE
8
BLACK
6
CONTINUOUS
10
109.817
20
-234.377
11
109.96
21
-234.234
0
LINE
8
BLACK
6
CONTINUOUS
10
109.96
20
-234.234
11
110.246
21
-234.092
0
LINE
8
BLACK
6
CONTINUOUS
10
113.817
20
-234.092
11
113.246
21
-234.092
0
LINE
8
BLACK
6
CONTINUOUS
10
113.246
20
-234.092
11
112.96
21
-234.234
0
LINE
8
BLACK
6
CONTINUOUS
10
112.96
20
-234.234
11
112.817
21
-234.377
0
LINE
8
BLACK
6
CONTINUOUS
10
112.817
20
-234.377
11
112.531
21
-234.806
0
LINE
8
BLACK
6
CONTINUOUS
10
112.531
20
-234.806
11
112.389
21
-235.377
0
LINE
8
BLACK
6
CONTINUOUS
10
112.389
20
-235.377
11
112.389
21
-236.52
0
LINE
8
BLACK
6
CONTINUOUS
10
112.389
20
-236.52
11
112.531
21
-236.806
0
LINE
8
BLACK
6
CONTINUOUS
10
112.531
20
-236.806
11
112.674
21
-236.949
0
LINE
8
BLACK
6
CONTINUOUS
10
112.674
20
-236.949
11
112.96
21
-237.092
0
LINE
8
BLACK
6
CONTINUOUS
10
112.96
20
-237.092
11
113.531
21
-237.092
0
LINE
8
BLACK
6
CONTINUOUS
10
113.531
20
-237.092
11
113.817
21
-236.949
0
LINE
8
BLACK
6
CONTINUOUS
10
113.817
20
-236.949
11
113.96
21
-236.806
0
LINE
8
BLACK
6
CONTINUOUS
10
113.96
20
-236.806
11
114.103
21
-236.52
0
LINE
8
BLACK
6
CONTINUOUS
10
114.103
20
-236.52
11
114.103
21
-235.806
0
LINE
8
BLACK
6
CONTINUOUS
10
114.103
20
-235.806
11
113.96
21
-235.52
0
LINE
8
BLACK
6
CONTINUOUS
10
113.96
20
-235.52
11
113.817
21
-235.377
0
LINE
8
BLACK
6
CONTINUOUS
10
113.817
20
-235.377
11
113.531
21
-235.234
0
LINE
8
BLACK
6
CONTINUOUS
10
113.531
20
-235.234
11
112.96
21
-235.234
0
LINE
8
BLACK
6
CONTINUOUS
10
112.96
20
-235.234
11
112.674
21
-235.377
0
LINE
8
BLACK
6
CONTINUOUS
10
112.674
20
-235.377
11
112.531
21
-235.52
0
LINE
8
BLACK
6
CONTINUOUS
10
112.531
20
-235.52
11
112.389
21
-235.806
0
LINE
8
BLACK
6
CONTINUOUS
10
115.531
20
-237.092
11
116.103
21
-237.092
0
LINE
8
BLACK
6
CONTINUOUS
10
116.103
20
-237.092
11
116.389
21
-236.949
0
LINE
8
BLACK
6
CONTINUOUS
10
116.389
20
-236.949
11
116.531
21
-236.806
0
LINE
8
BLACK
6
CONTINUOUS
10
116.531
20
-236.806
11
116.817
21
-236.377
0
LINE
8
BLACK
6
CONTINUOUS
10
116.817
20
-236.377
11
116.96
21
-235.806
0
LINE
8
BLACK
6
CONTINUOUS
10
116.96
20
-235.806
11
116.96
21
-234.663
0
LINE
8
BLACK
6
CONTINUOUS
10
116.96
20
-234.663
11
116.817
21
-234.377
0
LINE
8
BLACK
6
CONTINUOUS
10
116.817
20
-234.377
11
116.674
21
-234.234
0
LINE
8
BLACK
6
CONTINUOUS
10
116.674
20
-234.234
11
116.389
21
-234.092
0
LINE
8
BLACK
6
CONTINUOUS
10
116.389
20
-234.092
11
115.817
21
-234.092
0
LINE
8
BLACK
6
CONTINUOUS
10
115.817
20
-234.092
11
115.531
21
-234.234
0
LINE
8
BLACK
6
CONTINUOUS
10
115.531
20
-234.234
11
115.389
21
-234.377
0
LINE
8
BLACK
6
CONTINUOUS
10
115.389
20
-234.377
11
115.246
21
-234.663
0
LINE
8
BLACK
6
CONTINUOUS
10
115.246
20
-234.663
11
115.246
21
-235.377
0
LINE
8
BLACK
6
CONTINUOUS
10
115.246
20
-235.377
11
115.389
21
-235.663
0
LINE
8
BLACK
6
CONTINUOUS
10
115.389
20
-235.663
11
115.531
21
-235.806
0
LINE
8
BLACK
6
CONTINUOUS
10
115.531
20
-235.806
11
115.817
21
-235.949
0
LINE
8
BLACK
6
CONTINUOUS
10
115.817
20
-235.949
11
116.389
21
-235.949
0
LINE
8
BLACK
6
CONTINUOUS
10
116.389
20
-235.949
11
116.674
21
-235.806
0
LINE
8
BLACK
6
CONTINUOUS
10
116.674
20
-235.806
11
116.817
21
-235.663
0
LINE
8
BLACK
6
CONTINUOUS
10
116.817
20
-235.663
11
116.96
21
-235.377
0
LINE
8
BLACK
6
CONTINUOUS
10
118.103
20
-234.092
11
118.103
21
-234.663
0
LINE
8
BLACK
6
CONTINUOUS
10
119.246
20
-234.092
11
119.246
21
-234.663
0
LINE
8
BLACK
6
CONTINUOUS
10
123.674
20
-238.234
11
123.531
21
-238.092
0
LINE
8
BLACK
6
CONTINUOUS
10
123.531
20
-238.092
11
123.246
21
-237.663
0
LINE
8
BLACK
6
CONTINUOUS
10
123.246
20
-237.663
11
123.103
21
-237.377
0
LINE
8
BLACK
6
CONTINUOUS
10
123.103
20
-237.377
11
122.96
21
-236.949
0
LINE
8
BLACK
6
CONTINUOUS
10
122.96
20
-236.949
11
122.817
21
-236.234
0
LINE
8
BLACK
6
CONTINUOUS
10
122.817
20
-236.234
11
122.817
21
-235.663
0
LINE
8
BLACK
6
CONTINUOUS
10
122.817
20
-235.663
11
122.96
21
-234.949
0
LINE
8
BLACK
6
CONTINUOUS
10
122.96
20
-234.949
11
123.103
21
-234.52
0
LINE
8
BLACK
6
CONTINUOUS
10
123.103
20
-234.52
11
123.246
21
-234.234
0
LINE
8
BLACK
6
CONTINUOUS
10
123.246
20
-234.234
11
123.531
21
-233.806
0
LINE
8
BLACK
6
CONTINUOUS
10
123.531
20
-233.806
11
123.674
21
-233.663
0
LINE
8
BLACK
6
CONTINUOUS
10
124.531
20
-234.092
11
126.531
21
-234.092
0
LINE
8
BLACK
6
CONTINUOUS
10
126.531
20
-234.092
11
125.246
21
-237.092
0
LINE
8
BLACK
6
CONTINUOUS
10
128.96
20
-234.092
11
128.389
21
-234.092
0
LINE
8
BLACK
6
CONTINUOUS
10
128.389
20
-234.092
11
128.103
21
-234.234
0
LINE
8
BLACK
6
CONTINUOUS
10
128.103
20
-234.234
11
127.96
21
-234.377
0
LINE
8
BLACK
6
CONTINUOUS
10
127.96
20
-234.377
11
127.674
21
-234.806
0
LINE
8
BLACK
6
CONTINUOUS
10
127.674
20
-234.806
11
127.531
21
-235.377
0
LINE
8
BLACK
6
CONTINUOUS
10
127.531
20
-235.377
11
127.531
21
-236.52
0
LINE
8
BLACK
6
CONTINUOUS
10
127.531
20
-236.52
11
127.674
21
-236.806
0
LINE
8
BLACK
6
CONTINUOUS
10
127.674
20
-236.806
11
127.817
21
-236.949
0
LINE
8
BLACK
6
CONTINUOUS
10
127.817
20
-236.949
11
128.103
21
-237.092
0
LINE
8
BLACK
6
CONTINUOUS
10
128.103
20
-237.092
11
128.674
21
-237.092
0
LINE
8
BLACK
6
CONTINUOUS
10
128.674
20
-237.092
11
128.96
21
-236.949
0
LINE
8
BLACK
6
CONTINUOUS
10
128.96
20
-236.949
11
129.103
21
-236.806
0
LINE
8
BLACK
6
CONTINUOUS
10
129.103
20
-236.806
11
129.246
21
-236.52
0
LINE
8
BLACK
6
CONTINUOUS
10
129.246
20
-236.52
11
129.246
21
-235.806
0
LINE
8
BLACK
6
CONTINUOUS
10
129.246
20
-235.806
11
129.103
21
-235.52
0
LINE
8
BLACK
6
CONTINUOUS
10
129.103
20
-235.52
11
128.96
21
-235.377
0
LINE
8
BLACK
6
CONTINUOUS
10
128.96
20
-235.377
11
128.674
21
-235.234
0
LINE
8
BLACK
6
CONTINUOUS
10
128.674
20
-235.234
11
128.103
21
-235.234
0
LINE
8
BLACK
6
CONTINUOUS
10
128.103
20
-235.234
11
127.817
21
-235.377
0
LINE
8
BLACK
6
CONTINUOUS
10
127.817
20
-235.377
11
127.674
21
-235.52
0
LINE
8
BLACK
6
CONTINUOUS
10
127.674
20
-235.52
11
127.531
21
-235.806
0
LINE
8
BLACK
6
CONTINUOUS
10
132.817
20
-237.092
11
132.817
21
-234.092
0
LINE
8
BLACK
6
CONTINUOUS
10
134.103
20
-237.092
11
134.103
21
-235.52
0
LINE
8
BLACK
6
CONTINUOUS
10
134.103
20
-235.52
11
133.96
21
-235.234
0
LINE
8
BLACK
6
CONTINUOUS
10
133.96
20
-235.234
11
133.674
21
-235.092
0
LINE
8
BLACK
6
CONTINUOUS
10
133.674
20
-235.092
11
133.246
21
-235.092
0
LINE
8
BLACK
6
CONTINUOUS
10
133.246
20
-235.092
11
132.96
21
-235.234
0
LINE
8
BLACK
6
CONTINUOUS
10
132.96
20
-235.234
11
132.817
21
-235.377
0
LINE
8
BLACK
6
CONTINUOUS
10
135.96
20
-237.092
11
135.674
21
-236.949
0
LINE
8
BLACK
6
CONTINUOUS
10
135.674
20
-236.949
11
135.531
21
-236.806
0
LINE
8
BLACK
6
CONTINUOUS
10
135.531
20
-236.806
11
135.389
21
-236.52
0
LINE
8
BLACK
6
CONTINUOUS
10
135.389
20
-236.52
11
135.389
21
-235.663
0
LINE
8
BLACK
6
CONTINUOUS
10
135.389
20
-235.663
11
135.531
21
-235.377
0
LINE
8
BLACK
6
CONTINUOUS
10
135.531
20
-235.377
11
135.674
21
-235.234
0
LINE
8
BLACK
6
CONTINUOUS
10
135.674
20
-235.234
11
135.96
21
-235.092
0
LINE
8
BLACK
6
CONTINUOUS
10
135.96
20
-235.092
11
136.389
21
-235.092
0
LINE
8
BLACK
6
CONTINUOUS
10
136.389
20
-235.092
11
136.674
21
-235.234
0
LINE
8
BLACK
6
CONTINUOUS
10
136.674
20
-235.234
11
136.817
21
-235.377
0
LINE
8
BLACK
6
CONTINUOUS
10
136.817
20
-235.377
11
136.96
21
-235.663
0
LINE
8
BLACK
6
CONTINUOUS
10
136.96
20
-235.663
11
136.96
21
-236.52
0
LINE
8
BLACK
6
CONTINUOUS
10
136.96
20
-236.52
11
136.817
21
-236.806
0
LINE
8
BLACK
6
CONTINUOUS
10
136.817
20
-236.806
11
136.674
21
-236.949
0
LINE
8
BLACK
6
CONTINUOUS
10
136.674
20
-236.949
11
136.389
21
-237.092
0
LINE
8
BLACK
6
CONTINUOUS
10
136.389
20
-237.092
11
135.96
21
-237.092
0
LINE
8
BLACK
6
CONTINUOUS
10
138.674
20
-237.092
11
138.389
21
-236.949
0
LINE
8
BLACK
6
CONTINUOUS
10
138.389
20
-236.949
11
138.246
21
-236.663
0
LINE
8
BLACK
6
CONTINUOUS
10
138.246
20
-236.663
11
138.246
21
-234.092
0
LINE
8
BLACK
6
CONTINUOUS
10
140.96
20
-236.949
11
140.674
21
-237.092
0
LINE
8
BLACK
6
CONTINUOUS
10
140.674
20
-237.092
11
140.103
21
-237.092
0
LINE
8
BLACK
6
CONTINUOUS
10
140.103
20
-237.092
11
139.817
21
-236.949
0
LINE
8
BLACK
6
CONTINUOUS
10
139.817
20
-236.949
11
139.674
21
-236.663
0
LINE
8
BLACK
6
CONTINUOUS
10
139.674
20
-236.663
11
139.674
21
-235.52
0
LINE
8
BLACK
6
CONTINUOUS
10
139.674
20
-235.52
11
139.817
21
-235.234
0
LINE
8
BLACK
6
CONTINUOUS
10
139.817
20
-235.234
11
140.103
21
-235.092
0
LINE
8
BLACK
6
CONTINUOUS
10
140.103
20
-235.092
11
140.674
21
-235.092
0
LINE
8
BLACK
6
CONTINUOUS
10
140.674
20
-235.092
11
140.96
21
-235.234
0
LINE
8
BLACK
6
CONTINUOUS
10
140.96
20
-235.234
11
141.103
21
-235.52
0
LINE
8
BLACK
6
CONTINUOUS
10
141.103
20
-235.52
11
141.103
21
-235.806
0
LINE
8
BLACK
6
CONTINUOUS
10
141.103
20
-235.806
11
139.674
21
-236.092
0
LINE
8
BLACK
6
CONTINUOUS
10
142.246
20
-236.949
11
142.531
21
-237.092
0
LINE
8
BLACK
6
CONTINUOUS
10
142.531
20
-237.092
11
143.103
21
-237.092
0
LINE
8
BLACK
6
CONTINUOUS
10
143.103
20
-237.092
11
143.389
21
-236.949
0
LINE
8
BLACK
6
CONTINUOUS
10
143.389
20
-236.949
11
143.531
21
-236.663
0
LINE
8
BLACK
6
CONTINUOUS
10
143.531
20
-236.663
11
143.531
21
-236.52
0
LINE
8
BLACK
6
CONTINUOUS
10
143.531
20
-236.52
11
143.389
21
-236.234
0
LINE
8
BLACK
6
CONTINUOUS
10
143.389
20
-236.234
11
143.103
21
-236.092
0
LINE
8
BLACK
6
CONTINUOUS
10
143.103
20
-236.092
11
142.674
21
-236.092
0
LINE
8
BLACK
6
CONTINUOUS
10
142.674
20
-236.092
11
142.389
21
-235.949
0
LINE
8
BLACK
6
CONTINUOUS
10
142.389
20
-235.949
11
142.246
21
-235.663
0
LINE
8
BLACK
6
CONTINUOUS
10
142.246
20
-235.663
11
142.246
21
-235.52
0
LINE
8
BLACK
6
CONTINUOUS
10
142.246
20
-235.52
11
142.389
21
-235.234
0
LINE
8
BLACK
6
CONTINUOUS
10
142.389
20
-235.234
11
142.674
21
-235.092
0
LINE
8
BLACK
6
CONTINUOUS
10
142.674
20
-235.092
11
143.103
21
-235.092
0
LINE
8
BLACK
6
CONTINUOUS
10
143.103
20
-235.092
11
143.389
21
-235.234
0
LINE
8
BLACK
6
CONTINUOUS
10
144.531
20
-238.234
11
144.674
21
-238.092
0
LINE
8
BLACK
6
CONTINUOUS
10
144.674
20
-238.092
11
144.96
21
-237.663
0
LINE
8
BLACK
6
CONTINUOUS
10
144.96
20
-237.663
11
145.103
21
-237.377
0
LINE
8
BLACK
6
CONTINUOUS
10
145.103
20
-237.377
11
145.246
21
-236.949
0
LINE
8
BLACK
6
CONTINUOUS
10
145.246
20
-236.949
11
145.389
21
-236.234
0
LINE
8
BLACK
6
CONTINUOUS
10
145.389
20
-236.234
11
145.389
21
-235.663
0
LINE
8
BLACK
6
CONTINUOUS
10
145.389
20
-235.663
11
145.246
21
-234.949
0
LINE
8
BLACK
6
CONTINUOUS
10
145.246
20
-234.949
11
145.103
21
-234.52
0
LINE
8
BLACK
6
CONTINUOUS
10
145.103
20
-234.52
11
144.96
21
-234.234
0
LINE
8
BLACK
6
CONTINUOUS
10
144.96
20
-234.234
11
144.674
21
-233.806
0
LINE
8
BLACK
6
CONTINUOUS
10
144.674
20
-233.806
11
144.531
21
-233.663
0
LINE
8
BLACK
6
CONTINUOUS
10
149.96
20
-238.234
11
149.817
21
-238.092
0
LINE
8
BLACK
6
CONTINUOUS
10
149.817
20
-238.092
11
149.531
21
-237.663
0
LINE
8
BLACK
6
CONTINUOUS
10
149.531
20
-237.663
11
149.389
21
-237.377
0
LINE
8
BLACK
6
CONTINUOUS
10
149.389
20
-237.377
11
149.246
21
-236.949
0
LINE
8
BLACK
6
CONTINUOUS
10
149.246
20
-236.949
11
149.103
21
-236.234
0
LINE
8
BLACK
6
CONTINUOUS
10
149.103
20
-236.234
11
149.103
21
-235.663
0
LINE
8
BLACK
6
CONTINUOUS
10
149.103
20
-235.663
11
149.246
21
-234.949
0
LINE
8
BLACK
6
CONTINUOUS
10
149.246
20
-234.949
11
149.389
21
-234.52
0
LINE
8
BLACK
6
CONTINUOUS
10
149.389
20
-234.52
11
149.531
21
-234.234
0
LINE
8
BLACK
6
CONTINUOUS
10
149.531
20
-234.234
11
149.817
21
-233.806
0
LINE
8
BLACK
6
CONTINUOUS
10
149.817
20
-233.806
11
149.96
21
-233.663
0
LINE
8
BLACK
6
CONTINUOUS
10
151.103
20
-235.092
11
151.103
21
-237.092
0
LINE
8
BLACK
6
CONTINUOUS
10
151.103
20
-235.377
11
151.246
21
-235.234
0
LINE
8
BLACK
6
CONTINUOUS
10
151.246
20
-235.234
11
151.531
21
-235.092
0
LINE
8
BLACK
6
CONTINUOUS
10
151.531
20
-235.092
11
151.96
21
-235.092
0
LINE
8
BLACK
6
CONTINUOUS
10
151.96
20
-235.092
11
152.246
21
-235.234
0
LINE
8
BLACK
6
CONTINUOUS
10
152.246
20
-235.234
11
152.389
21
-235.52
0
LINE
8
BLACK
6
CONTINUOUS
10
152.389
20
-235.52
11
152.389
21
-237.092
0
LINE
8
BLACK
6
CONTINUOUS
10
154.246
20
-237.092
11
153.96
21
-236.949
0
LINE
8
BLACK
6
CONTINUOUS
10
153.96
20
-236.949
11
153.817
21
-236.806
0
LINE
8
BLACK
6
CONTINUOUS
10
153.817
20
-236.806
11
153.674
21
-236.52
0
LINE
8
BLACK
6
CONTINUOUS
10
153.674
20
-236.52
11
153.674
21
-235.663
0
LINE
8
BLACK
6
CONTINUOUS
10
153.674
20
-235.663
11
153.817
21
-235.377
0
LINE
8
BLACK
6
CONTINUOUS
10
153.817
20
-235.377
11
153.96
21
-235.234
0
LINE
8
BLACK
6
CONTINUOUS
10
153.96
20
-235.234
11
154.246
21
-235.092
0
LINE
8
BLACK
6
CONTINUOUS
10
154.246
20
-235.092
11
154.674
21
-235.092
0
LINE
8
BLACK
6
CONTINUOUS
10
154.674
20
-235.092
11
154.96
21
-235.234
0
LINE
8
BLACK
6
CONTINUOUS
10
154.96
20
-235.234
11
155.103
21
-235.377
0
LINE
8
BLACK
6
CONTINUOUS
10
155.103
20
-235.377
11
155.246
21
-235.663
0
LINE
8
BLACK
6
CONTINUOUS
10
155.246
20
-235.663
11
155.246
21
-236.52
0
LINE
8
BLACK
6
CONTINUOUS
10
155.246
20
-236.52
11
155.103
21
-236.806
0
LINE
8
BLACK
6
CONTINUOUS
10
155.103
20
-236.806
11
154.96
21
-236.949
0
LINE
8
BLACK
6
CONTINUOUS
10
154.96
20
-236.949
11
154.674
21
-237.092
0
LINE
8
BLACK
6
CONTINUOUS
10
154.674
20
-237.092
11
154.246
21
-237.092
0
LINE
8
BLACK
6
CONTINUOUS
10
156.103
20
-235.092
11
157.246
21
-235.092
0
LINE
8
BLACK
6
CONTINUOUS
10
156.531
20
-234.092
11
156.531
21
-236.663
0
LINE
8
BLACK
6
CONTINUOUS
10
156.531
20
-236.663
11
156.674
21
-236.949
0
LINE
8
BLACK
6
CONTINUOUS
10
156.674
20
-236.949
11
156.96
21
-237.092
0
LINE
8
BLACK
6
CONTINUOUS
10
156.96
20
-237.092
11
157.246
21
-237.092
0
LINE
8
BLACK
6
CONTINUOUS
10
160.531
20
-235.092
11
160.531
21
-238.092
0
LINE
8
BLACK
6
CONTINUOUS
10
160.531
20
-235.234
11
160.817
21
-235.092
0
LINE
8
BLACK
6
CONTINUOUS
10
160.817
20
-235.092
11
161.389
21
-235.092
0
LINE
8
BLACK
6
CONTINUOUS
10
161.389
20
-235.092
11
161.674
21
-235.234
0
LINE
8
BLACK
6
CONTINUOUS
10
161.674
20
-235.234
11
161.817
21
-235.377
0
LINE
8
BLACK
6
CONTINUOUS
10
161.817
20
-235.377
11
161.96
21
-235.663
0
LINE
8
BLACK
6
CONTINUOUS
10
161.96
20
-235.663
11
161.96
21
-236.52
0
LINE
8
BLACK
6
CONTINUOUS
10
161.96
20
-236.52
11
161.817
21
-236.806
0
LINE
8
BLACK
6
CONTINUOUS
10
161.817
20
-236.806
11
161.674
21
-236.949
0
LINE
8
BLACK
6
CONTINUOUS
10
161.674
20
-236.949
11
161.389
21
-237.092
0
LINE
8
BLACK
6
CONTINUOUS
10
161.389
20
-237.092
11
160.817
21
-237.092
0
LINE
8
BLACK
6
CONTINUOUS
10
160.817
20
-237.092
11
160.531
21
-236.949
0
LINE
8
BLACK
6
CONTINUOUS
10
163.674
20
-237.092
11
163.389
21
-236.949
0
LINE
8
BLACK
6
CONTINUOUS
10
163.389
20
-236.949
11
163.246
21
-236.663
0
LINE
8
BLACK
6
CONTINUOUS
10
163.246
20
-236.663
11
163.246
21
-234.092
0
LINE
8
BLACK
6
CONTINUOUS
10
166.103
20
-237.092
11
166.103
21
-235.52
0
LINE
8
BLACK
6
CONTINUOUS
10
166.103
20
-235.52
11
165.96
21
-235.234
0
LINE
8
BLACK
6
CONTINUOUS
10
165.96
20
-235.234
11
165.674
21
-235.092
0
LINE
8
BLACK
6
CONTINUOUS
10
165.674
20
-235.092
11
165.103
21
-235.092
0
LINE
8
BLACK
6
CONTINUOUS
10
165.103
20
-235.092
11
164.817
21
-235.234
0
LINE
8
BLACK
6
CONTINUOUS
10
166.103
20
-236.949
11
165.817
21
-237.092
0
LINE
8
BLACK
6
CONTINUOUS
10
165.817
20
-237.092
11
165.103
21
-237.092
0
LINE
8
BLACK
6
CONTINUOUS
10
165.103
20
-237.092
11
164.817
21
-236.949
0
LINE
8
BLACK
6
CONTINUOUS
10
164.817
20
-236.949
11
164.674
21
-236.663
0
LINE
8
BLACK
6
CONTINUOUS
10
164.674
20
-236.663
11
164.674
21
-236.377
0
LINE
8
BLACK
6
CONTINUOUS
10
164.674
20
-236.377
11
164.817
21
-236.092
0
LINE
8
BLACK
6
CONTINUOUS
10
164.817
20
-236.092
11
165.103
21
-235.949
0
LINE
8
BLACK
6
CONTINUOUS
10
165.103
20
-235.949
11
165.817
21
-235.949
0
LINE
8
BLACK
6
CONTINUOUS
10
165.817
20
-235.949
11
166.103
21
-235.806
0
LINE
8
BLACK
6
CONTINUOUS
10
167.103
20
-235.092
11
168.246
21
-235.092
0
LINE
8
BLACK
6
CONTINUOUS
10
167.531
20
-234.092
11
167.531
21
-236.663
0
LINE
8
BLACK
6
CONTINUOUS
10
167.531
20
-236.663
11
167.674
21
-236.949
0
LINE
8
BLACK
6
CONTINUOUS
10
167.674
20
-236.949
11
167.96
21
-237.092
0
LINE
8
BLACK
6
CONTINUOUS
10
167.96
20
-237.092
11
168.246
21
-237.092
0
LINE
8
BLACK
6
CONTINUOUS
10
170.389
20
-236.949
11
170.103
21
-237.092
0
LINE
8
BLACK
6
CONTINUOUS
10
170.103
20
-237.092
11
169.531
21
-237.092
0
LINE
8
BLACK
6
CONTINUOUS
10
169.531
20
-237.092
11
169.246
21
-236.949
0
LINE
8
BLACK
6
CONTINUOUS
10
169.246
20
-236.949
11
169.103
21
-236.663
0
LINE
8
BLACK
6
CONTINUOUS
10
169.103
20
-236.663
11
169.103
21
-235.52
0
LINE
8
BLACK
6
CONTINUOUS
10
169.103
20
-235.52
11
169.246
21
-235.234
0
LINE
8
BLACK
6
CONTINUOUS
10
169.246
20
-235.234
11
169.531
21
-235.092
0
LINE
8
BLACK
6
CONTINUOUS
10
169.531
20
-235.092
11
170.103
21
-235.092
0
LINE
8
BLACK
6
CONTINUOUS
10
170.103
20
-235.092
11
170.389
21
-235.234
0
LINE
8
BLACK
6
CONTINUOUS
10
170.389
20
-235.234
11
170.531
21
-235.52
0
LINE
8
BLACK
6
CONTINUOUS
10
170.531
20
-235.52
11
170.531
21
-235.806
0
LINE
8
BLACK
6
CONTINUOUS
10
170.531
20
-235.806
11
169.103
21
-236.092
0
LINE
8
BLACK
6
CONTINUOUS
10
173.103
20
-237.092
11
173.103
21
-234.092
0
LINE
8
BLACK
6
CONTINUOUS
10
173.103
20
-236.949
11
172.817
21
-237.092
0
LINE
8
BLACK
6
CONTINUOUS
10
172.817
20
-237.092
11
172.246
21
-237.092
0
LINE
8
BLACK
6
CONTINUOUS
10
172.246
20
-237.092
11
171.96
21
-236.949
0
LINE
8
BLACK
6
CONTINUOUS
10
171.96
20
-236.949
11
171.817
21
-236.806
0
LINE
8
BLACK
6
CONTINUOUS
10
171.817
20
-236.806
11
171.674
21
-236.52
0
LINE
8
BLACK
6
CONTINUOUS
10
171.674
20
-236.52
11
171.674
21
-235.663
0
LINE
8
BLACK
6
CONTINUOUS
10
171.674
20
-235.663
11
171.817
21
-235.377
0
LINE
8
BLACK
6
CONTINUOUS
10
171.817
20
-235.377
11
171.96
21
-235.234
0
LINE
8
BLACK
6
CONTINUOUS
10
171.96
20
-235.234
11
172.246
21
-235.092
0
LINE
8
BLACK
6
CONTINUOUS
10
172.246
20
-235.092
11
172.817
21
-235.092
0
LINE
8
BLACK
6
CONTINUOUS
10
172.817
20
-235.092
11
173.103
21
-235.234
0
LINE
8
BLACK
6
CONTINUOUS
10
174.246
20
-238.234
11
174.389
21
-238.092
0
LINE
8
BLACK
6
CONTINUOUS
10
174.389
20
-238.092
11
174.674
21
-237.663
0
LINE
8
BLACK
6
CONTINUOUS
10
174.674
20
-237.663
11
174.817
21
-237.377
0
LINE
8
BLACK
6
CONTINUOUS
10
174.817
20
-237.377
11
174.96
21
-236.949
0
LINE
8
BLACK
6
CONTINUOUS
10
174.96
20
-236.949
11
175.103
21
-236.234
0
LINE
8
BLACK
6
CONTINUOUS
10
175.103
20
-236.234
11
175.103
21
-235.663
0
LINE
8
BLACK
6
CONTINUOUS
10
175.103
20
-235.663
11
174.96
21
-234.949
0
LINE
8
BLACK
6
CONTINUOUS
10
174.96
20
-234.949
11
174.817
21
-234.52
0
LINE
8
BLACK
6
CONTINUOUS
10
174.817
20
-234.52
11
174.674
21
-234.234
0
LINE
8
BLACK
6
CONTINUOUS
10
174.674
20
-234.234
11
174.389
21
-233.806
0
LINE
8
BLACK
6
CONTINUOUS
10
174.389
20
-233.806
11
174.246
21
-233.663
0
CIRCLE
8
BLACK
10
75.31
20
-239.694
40
1.5
0
LINE
8
BLACK
6
CONTINUOUS
10
79.3886
20
-238.052
11
81.2457
21
-238.052
0
LINE
8
BLACK
6
CONTINUOUS
10
81.2457
20
-238.052
11
80.2457
21
-239.194
0
LINE
8
BLACK
6
CONTINUOUS
10
80.2457
20
-239.194
11
80.6743
21
-239.194
0
LINE
8
BLACK
6
CONTINUOUS
10
80.6743
20
-239.194
11
80.96
21
-239.337
0
LINE
8
BLACK
6
CONTINUOUS
10
80.96
20
-239.337
11
81.1029
21
-239.48
0
LINE
8
BLACK
6
CONTINUOUS
10
81.1029
20
-239.48
11
81.2457
21
-239.766
0
LINE
8
BLACK
6
CONTINUOUS
10
81.2457
20
-239.766
11
81.2457
21
-240.48
0
LINE
8
BLACK
6
CONTINUOUS
10
81.2457
20
-240.48
11
81.1029
21
-240.766
0
LINE
8
BLACK
6
CONTINUOUS
10
81.1029
20
-240.766
11
80.96
21
-240.909
0
LINE
8
BLACK
6
CONTINUOUS
10
80.96
20
-240.909
11
80.6743
21
-241.052
0
LINE
8
BLACK
6
CONTINUOUS
10
80.6743
20
-241.052
11
79.8171
21
-241.052
0
LINE
8
BLACK
6
CONTINUOUS
10
79.8171
20
-241.052
11
79.5314
21
-240.909
0
LINE
8
BLACK
6
CONTINUOUS
10
79.5314
20
-240.909
11
79.3886
21
-240.766
0
LINE
8
BLACK
6
CONTINUOUS
10
82.5314
20
-240.766
11
82.6743
21
-240.909
0
LINE
8
BLACK
6
CONTINUOUS
10
82.6743
20
-240.909
11
82.5314
21
-241.052
0
LINE
8
BLACK
6
CONTINUOUS
10
82.5314
20
-241.052
11
82.3886
21
-240.909
0
LINE
8
BLACK
6
CONTINUOUS
10
82.3886
20
-240.909
11
82.5314
21
-240.766
0
LINE
8
BLACK
6
CONTINUOUS
10
82.5314
20
-240.766
11
82.5314
21
-241.052
0
LINE
8
BLACK
6
CONTINUOUS
10
84.5314
20
-238.052
11
84.8171
21
-238.052
0
LINE
8
BLACK
6
CONTINUOUS
10
84.8171
20
-238.052
11
85.1029
21
-238.194
0
LINE
8
BLACK
6
CONTINUOUS
10
85.1029
20
-238.194
11
85.2457
21
-238.337
0
LINE
8
BLACK
6
CONTINUOUS
10
85.2457
20
-238.337
11
85.3886
21
-238.623
0
LINE
8
BLACK
6
CONTINUOUS
10
85.3886
20
-238.623
11
85.5314
21
-239.194
0
LINE
8
BLACK
6
CONTINUOUS
10
85.5314
20
-239.194
11
85.5314
21
-239.909
0
LINE
8
BLACK
6
CONTINUOUS
10
85.5314
20
-239.909
11
85.3886
21
-240.48
0
LINE
8
BLACK
6
CONTINUOUS
10
85.3886
20
-240.48
11
85.2457
21
-240.766
0
LINE
8
BLACK
6
CONTINUOUS
10
85.2457
20
-240.766
11
85.1029
21
-240.909
0
LINE
8
BLACK
6
CONTINUOUS
10
85.1029
20
-240.909
11
84.8171
21
-241.052
0
LINE
8
BLACK
6
CONTINUOUS
10
84.8171
20
-241.052
11
84.5314
21
-241.052
0
LINE
8
BLACK
6
CONTINUOUS
10
84.5314
20
-241.052
11
84.2457
21
-240.909
0
LINE
8
BLACK
6
CONTINUOUS
10
84.2457
20
-240.909
11
84.1029
21
-240.766
0
LINE
8
BLACK
6
CONTINUOUS
10
84.1029
20
-240.766
11
83.96
21
-240.48
0
LINE
8
BLACK
6
CONTINUOUS
10
83.96
20
-240.48
11
83.8171
21
-239.909
0
LINE
8
BLACK
6
CONTINUOUS
10
83.8171
20
-239.909
11
83.8171
21
-239.194
0
LINE
8
BLACK
6
CONTINUOUS
10
83.8171
20
-239.194
11
83.96
21
-238.623
0
LINE
8
BLACK
6
CONTINUOUS
10
83.96
20
-238.623
11
84.1029
21
-238.337
0
LINE
8
BLACK
6
CONTINUOUS
10
84.1029
20
-238.337
11
84.2457
21
-238.194
0
LINE
8
BLACK
6
CONTINUOUS
10
84.2457
20
-238.194
11
84.5314
21
-238.052
0
LINE
8
BLACK
6
CONTINUOUS
10
87.3886
20
-238.052
11
87.6743
21
-238.052
0
LINE
8
BLACK
6
CONTINUOUS
10
87.6743
20
-238.052
11
87.96
21
-238.194
0
LINE
8
BLACK
6
CONTINUOUS
10
87.96
20
-238.194
11
88.1029
21
-238.337
0
LINE
8
BLACK
6
CONTINUOUS
10
88.1029
20
-238.337
11
88.2457
21
-238.623
0
LINE
8
BLACK
6
CONTINUOUS
10
88.2457
20
-238.623
11
88.3886
21
-239.194
0
LINE
8
BLACK
6
CONTINUOUS
10
88.3886
20
-239.194
11
88.3886
21
-239.909
0
LINE
8
BLACK
6
CONTINUOUS
10
88.3886
20
-239.909
11
88.2457
21
-240.48
0
LINE
8
BLACK
6
CONTINUOUS
10
88.2457
20
-240.48
11
88.1029
21
-240.766
0
LINE
8
BLACK
6
CONTINUOUS
10
88.1029
20
-240.766
11
87.96
21
-240.909
0
LINE
8
BLACK
6
CONTINUOUS
10
87.96
20
-240.909
11
87.6743
21
-241.052
0
LINE
8
BLACK
6
CONTINUOUS
10
87.6743
20
-241.052
11
87.3886
21
-241.052
0
LINE
8
BLACK
6
CONTINUOUS
10
87.3886
20
-241.052
11
87.1029
21
-240.909
0
LINE
8
BLACK
6
CONTINUOUS
10
87.1029
20
-240.909
11
86.96
21
-240.766
0
LINE
8
BLACK
6
CONTINUOUS
10
86.96
20
-240.766
11
86.8171
21
-240.48
0
LINE
8
BLACK
6
CONTINUOUS
10
86.8171
20
-240.48
11
86.6743
21
-239.909
0
LINE
8
BLACK
6
CONTINUOUS
10
86.6743
20
-239.909
11
86.6743
21
-239.194
0
LINE
8
BLACK
6
CONTINUOUS
10
86.6743
20
-239.194
11
86.8171
21
-238.623
0
LINE
8
BLACK
6
CONTINUOUS
10
86.8171
20
-238.623
11
86.96
21
-238.337
0
LINE
8
BLACK
6
CONTINUOUS
10
86.96
20
-238.337
11
87.1029
21
-238.194
0
LINE
8
BLACK
6
CONTINUOUS
10
87.1029
20
-238.194
11
87.3886
21
-238.052
0
LINE
8
BLACK
6
CONTINUOUS
10
89.6743
20
-241.052
11
89.6743
21
-239.052
0
LINE
8
BLACK
6
CONTINUOUS
10
89.6743
20
-239.337
11
89.8171
21
-239.194
0
LINE
8
BLACK
6
CONTINUOUS
10
89.8171
20
-239.194
11
90.1029
21
-239.052
0
LINE
8
BLACK
6
CONTINUOUS
10
90.1029
20
-239.052
11
90.5314
21
-239.052
0
LINE
8
BLACK
6
CONTINUOUS
10
90.5314
20
-239.052
11
90.8171
21
-239.194
0
LINE
8
BLACK
6
CONTINUOUS
10
90.8171
20
-239.194
11
90.96
21
-239.48
0
LINE
8
BLACK
6
CONTINUOUS
10
90.96
20
-239.48
11
90.96
21
-241.052
0
LINE
8
BLACK
6
CONTINUOUS
10
90.96
20
-239.48
11
91.1029
21
-239.194
0
LINE
8
BLACK
6
CONTINUOUS
10
91.1029
20
-239.194
11
91.3886
21
-239.052
0
LINE
8
BLACK
6
CONTINUOUS
10
91.3886
20
-239.052
11
91.8171
21
-239.052
0
LINE
8
BLACK
6
CONTINUOUS
10
91.8171
20
-239.052
11
92.1029
21
-239.194
0
LINE
8
BLACK
6
CONTINUOUS
10
92.1029
20
-239.194
11
92.2457
21
-239.48
0
LINE
8
BLACK
6
CONTINUOUS
10
92.2457
20
-239.48
11
92.2457
21
-241.052
0
LINE
8
BLACK
6
CONTINUOUS
10
93.6743
20
-241.052
11
93.6743
21
-239.052
0
LINE
8
BLACK
6
CONTINUOUS
10
93.6743
20
-239.337
11
93.8171
21
-239.194
0
LINE
8
BLACK
6
CONTINUOUS
10
93.8171
20
-239.194
11
94.1029
21
-239.052
0
LINE
8
BLACK
6
CONTINUOUS
10
94.1029
20
-239.052
11
94.5314
21
-239.052
0
LINE
8
BLACK
6
CONTINUOUS
10
94.5314
20
-239.052
11
94.8171
21
-239.194
0
LINE
8
BLACK
6
CONTINUOUS
10
94.8171
20
-239.194
11
94.96
21
-239.48
0
LINE
8
BLACK
6
CONTINUOUS
10
94.96
20
-239.48
11
94.96
21
-241.052
0
LINE
8
BLACK
6
CONTINUOUS
10
94.96
20
-239.48
11
95.1029
21
-239.194
0
LINE
8
BLACK
6
CONTINUOUS
10
95.1029
20
-239.194
11
95.3886
21
-239.052
0
LINE
8
BLACK
6
CONTINUOUS
10
95.3886
20
-239.052
11
95.8171
21
-239.052
0
LINE
8
BLACK
6
CONTINUOUS
10
95.8171
20
-239.052
11
96.1029
21
-239.194
0
LINE
8
BLACK
6
CONTINUOUS
10
96.1029
20
-239.194
11
96.2457
21
-239.48
0
LINE
8
BLACK
6
CONTINUOUS
10
96.2457
20
-239.48
11
96.2457
21
-241.052
0
LINE
8
BLACK
6
CONTINUOUS
10
102.103
20
-237.909
11
99.5314
21
-241.766
0
LINE
8
BLACK
6
CONTINUOUS
10
105.96
20
-238.052
11
106.246
21
-238.052
0
LINE
8
BLACK
6
CONTINUOUS
10
106.246
20
-238.052
11
106.531
21
-238.194
0
LINE
8
BLACK
6
CONTINUOUS
10
106.531
20
-238.194
11
106.674
21
-238.337
0
LINE
8
BLACK
6
CONTINUOUS
10
106.674
20
-238.337
11
106.817
21
-238.623
0
LINE
8
BLACK
6
CONTINUOUS
10
106.817
20
-238.623
11
106.96
21
-239.194
0
LINE
8
BLACK
6
CONTINUOUS
10
106.96
20
-239.194
11
106.96
21
-239.909
0
LINE
8
BLACK
6
CONTINUOUS
10
106.96
20
-239.909
11
106.817
21
-240.48
0
LINE
8
BLACK
6
CONTINUOUS
10
106.817
20
-240.48
11
106.674
21
-240.766
0
LINE
8
BLACK
6
CONTINUOUS
10
106.674
20
-240.766
11
106.531
21
-240.909
0
LINE
8
BLACK
6
CONTINUOUS
10
106.531
20
-240.909
11
106.246
21
-241.052
0
LINE
8
BLACK
6
CONTINUOUS
10
106.246
20
-241.052
11
105.96
21
-241.052
0
LINE
8
BLACK
6
CONTINUOUS
10
105.96
20
-241.052
11
105.674
21
-240.909
0
LINE
8
BLACK
6
CONTINUOUS
10
105.674
20
-240.909
11
105.531
21
-240.766
0
LINE
8
BLACK
6
CONTINUOUS
10
105.531
20
-240.766
11
105.389
21
-240.48
0
LINE
8
BLACK
6
CONTINUOUS
10
105.389
20
-240.48
11
105.246
21
-239.909
0
LINE
8
BLACK
6
CONTINUOUS
10
105.246
20
-239.909
11
105.246
21
-239.194
0
LINE
8
BLACK
6
CONTINUOUS
10
105.246
20
-239.194
11
105.389
21
-238.623
0
LINE
8
BLACK
6
CONTINUOUS
10
105.389
20
-238.623
11
105.531
21
-238.337
0
LINE
8
BLACK
6
CONTINUOUS
10
105.531
20
-238.337
11
105.674
21
-238.194
0
LINE
8
BLACK
6
CONTINUOUS
10
105.674
20
-238.194
11
105.96
21
-238.052
0
LINE
8
BLACK
6
CONTINUOUS
10
108.246
20
-240.766
11
108.389
21
-240.909
0
LINE
8
BLACK
6
CONTINUOUS
10
108.389
20
-240.909
11
108.246
21
-241.052
0
LINE
8
BLACK
6
CONTINUOUS
10
108.246
20
-241.052
11
108.103
21
-240.909
0
LINE
8
BLACK
6
CONTINUOUS
10
108.103
20
-240.909
11
108.246
21
-240.766
0
LINE
8
BLACK
6
CONTINUOUS
10
108.246
20
-240.766
11
108.246
21
-241.052
0
LINE
8
BLACK
6
CONTINUOUS
10
111.246
20
-241.052
11
109.531
21
-241.052
0
LINE
8
BLACK
6
CONTINUOUS
10
110.389
20
-241.052
11
110.389
21
-238.052
0
LINE
8
BLACK
6
CONTINUOUS
10
110.389
20
-238.052
11
110.103
21
-238.48
0
LINE
8
BLACK
6
CONTINUOUS
10
110.103
20
-238.48
11
109.817
21
-238.766
0
LINE
8
BLACK
6
CONTINUOUS
10
109.817
20
-238.766
11
109.531
21
-238.909
0
LINE
8
BLACK
6
CONTINUOUS
10
114.103
20
-241.052
11
112.389
21
-241.052
0
LINE
8
BLACK
6
CONTINUOUS
10
113.246
20
-241.052
11
113.246
21
-238.052
0
LINE
8
BLACK
6
CONTINUOUS
10
113.246
20
-238.052
11
112.96
21
-238.48
0
LINE
8
BLACK
6
CONTINUOUS
10
112.96
20
-238.48
11
112.674
21
-238.766
0
LINE
8
BLACK
6
CONTINUOUS
10
112.674
20
-238.766
11
112.389
21
-238.909
0
LINE
8
BLACK
6
CONTINUOUS
10
115.817
20
-239.337
11
115.531
21
-239.194
0
LINE
8
BLACK
6
CONTINUOUS
10
115.531
20
-239.194
11
115.389
21
-239.052
0
LINE
8
BLACK
6
CONTINUOUS
10
115.389
20
-239.052
11
115.246
21
-238.766
0
LINE
8
BLACK
6
CONTINUOUS
10
115.246
20
-238.766
11
115.246
21
-238.623
0
LINE
8
BLACK
6
CONTINUOUS
10
115.246
20
-238.623
11
115.389
21
-238.337
0
LINE
8
BLACK
6
CONTINUOUS
10
115.389
20
-238.337
11
115.531
21
-238.194
0
LINE
8
BLACK
6
CONTINUOUS
10
115.531
20
-238.194
11
115.817
21
-238.052
0
LINE
8
BLACK
6
CONTINUOUS
10
115.817
20
-238.052
11
116.389
21
-238.052
0
LINE
8
BLACK
6
CONTINUOUS
10
116.389
20
-238.052
11
116.674
21
-238.194
0
LINE
8
BLACK
6
CONTINUOUS
10
116.674
20
-238.194
11
116.817
21
-238.337
0
LINE
8
BLACK
6
CONTINUOUS
10
116.817
20
-238.337
11
116.96
21
-238.623
0
LINE
8
BLACK
6
CONTINUOUS
10
116.96
20
-238.623
11
116.96
21
-238.766
0
LINE
8
BLACK
6
CONTINUOUS
10
116.96
20
-238.766
11
116.817
21
-239.052
0
LINE
8
BLACK
6
CONTINUOUS
10
116.817
20
-239.052
11
116.674
21
-239.194
0
LINE
8
BLACK
6
CONTINUOUS
10
116.674
20
-239.194
11
116.389
21
-239.337
0
LINE
8
BLACK
6
CONTINUOUS
10
116.389
20
-239.337
11
115.817
21
-239.337
0
LINE
8
BLACK
6
CONTINUOUS
10
115.817
20
-239.337
11
115.531
21
-239.48
0
LINE
8
BLACK
6
CONTINUOUS
10
115.531
20
-239.48
11
115.389
21
-239.623
0
LINE
8
BLACK
6
CONTINUOUS
10
115.389
20
-239.623
11
115.246
21
-239.909
0
LINE
8
BLACK
6
CONTINUOUS
10
115.246
20
-239.909
11
115.246
21
-240.48
0
LINE
8
BLACK
6
CONTINUOUS
10
115.246
20
-240.48
11
115.389
21
-240.766
0
LINE
8
BLACK
6
CONTINUOUS
10
115.389
20
-240.766
11
115.531
21
-240.909
0
LINE
8
BLACK
6
CONTINUOUS
10
115.531
20
-240.909
11
115.817
21
-241.052
0
LINE
8
BLACK
6
CONTINUOUS
10
115.817
20
-241.052
11
116.389
21
-241.052
0
LINE
8
BLACK
6
CONTINUOUS
10
116.389
20
-241.052
11
116.674
21
-240.909
0
LINE
8
BLACK
6
CONTINUOUS
10
116.674
20
-240.909
11
116.817
21
-240.766
0
LINE
8
BLACK
6
CONTINUOUS
10
116.817
20
-240.766
11
116.96
21
-240.48
0
LINE
8
BLACK
6
CONTINUOUS
10
116.96
20
-240.48
11
116.96
21
-239.909
0
LINE
8
BLACK
6
CONTINUOUS
10
116.96
20
-239.909
11
116.817
21
-239.623
0
LINE
8
BLACK
6
CONTINUOUS
10
116.817
20
-239.623
11
116.674
21
-239.48
0
LINE
8
BLACK
6
CONTINUOUS
10
116.674
20
-239.48
11
116.389
21
-239.337
0
LINE
8
BLACK
6
CONTINUOUS
10
118.103
20
-238.052
11
118.103
21
-238.623
0
LINE
8
BLACK
6
CONTINUOUS
10
119.246
20
-238.052
11
119.246
21
-238.623
0
LINE
8
BLACK
6
CONTINUOUS
10
123.674
20
-242.194
11
123.531
21
-242.052
0
LINE
8
BLACK
6
CONTINUOUS
10
123.531
20
-242.052
11
123.246
21
-241.623
0
LINE
8
BLACK
6
CONTINUOUS
10
123.246
20
-241.623
11
123.103
21
-241.337
0
LINE
8
BLACK
6
CONTINUOUS
10
123.103
20
-241.337
11
122.96
21
-240.909
0
LINE
8
BLACK
6
CONTINUOUS
10
122.96
20
-240.909
11
122.817
21
-240.194
0
LINE
8
BLACK
6
CONTINUOUS
10
122.817
20
-240.194
11
122.817
21
-239.623
0
LINE
8
BLACK
6
CONTINUOUS
10
122.817
20
-239.623
11
122.96
21
-238.909
0
LINE
8
BLACK
6
CONTINUOUS
10
122.96
20
-238.909
11
123.103
21
-238.48
0
LINE
8
BLACK
6
CONTINUOUS
10
123.103
20
-238.48
11
123.246
21
-238.194
0
LINE
8
BLACK
6
CONTINUOUS
10
123.246
20
-238.194
11
123.531
21
-237.766
0
LINE
8
BLACK
6
CONTINUOUS
10
123.531
20
-237.766
11
123.674
21
-237.623
0
LINE
8
BLACK
6
CONTINUOUS
10
124.531
20
-238.052
11
126.531
21
-238.052
0
LINE
8
BLACK
6
CONTINUOUS
10
126.531
20
-238.052
11
125.246
21
-241.052
0
LINE
8
BLACK
6
CONTINUOUS
10
128.96
20
-238.052
11
128.389
21
-238.052
0
LINE
8
BLACK
6
CONTINUOUS
10
128.389
20
-238.052
11
128.103
21
-238.194
0
LINE
8
BLACK
6
CONTINUOUS
10
128.103
20
-238.194
11
127.96
21
-238.337
0
LINE
8
BLACK
6
CONTINUOUS
10
127.96
20
-238.337
11
127.674
21
-238.766
0
LINE
8
BLACK
6
CONTINUOUS
10
127.674
20
-238.766
11
127.531
21
-239.337
0
LINE
8
BLACK
6
CONTINUOUS
10
127.531
20
-239.337
11
127.531
21
-240.48
0
LINE
8
BLACK
6
CONTINUOUS
10
127.531
20
-240.48
11
127.674
21
-240.766
0
LINE
8
BLACK
6
CONTINUOUS
10
127.674
20
-240.766
11
127.817
21
-240.909
0
LINE
8
BLACK
6
CONTINUOUS
10
127.817
20
-240.909
11
128.103
21
-241.052
0
LINE
8
BLACK
6
CONTINUOUS
10
128.103
20
-241.052
11
128.674
21
-241.052
0
LINE
8
BLACK
6
CONTINUOUS
10
128.674
20
-241.052
11
128.96
21
-240.909
0
LINE
8
BLACK
6
CONTINUOUS
10
128.96
20
-240.909
11
129.103
21
-240.766
0
LINE
8
BLACK
6
CONTINUOUS
10
129.103
20
-240.766
11
129.246
21
-240.48
0
LINE
8
BLACK
6
CONTINUOUS
10
129.246
20
-240.48
11
129.246
21
-239.766
0
LINE
8
BLACK
6
CONTINUOUS
10
129.246
20
-239.766
11
129.103
21
-239.48
0
LINE
8
BLACK
6
CONTINUOUS
10
129.103
20
-239.48
11
128.96
21
-239.337
0
LINE
8
BLACK
6
CONTINUOUS
10
128.96
20
-239.337
11
128.674
21
-239.194
0
LINE
8
BLACK
6
CONTINUOUS
10
128.674
20
-239.194
11
128.103
21
-239.194
0
LINE
8
BLACK
6
CONTINUOUS
10
128.103
20
-239.194
11
127.817
21
-239.337
0
LINE
8
BLACK
6
CONTINUOUS
10
127.817
20
-239.337
11
127.674
21
-239.48
0
LINE
8
BLACK
6
CONTINUOUS
10
127.674
20
-239.48
11
127.531
21
-239.766
0
LINE
8
BLACK
6
CONTINUOUS
10
132.817
20
-241.052
11
132.817
21
-238.052
0
LINE
8
BLACK
6
CONTINUOUS
10
134.103
20
-241.052
11
134.103
21
-239.48
0
LINE
8
BLACK
6
CONTINUOUS
10
134.103
20
-239.48
11
133.96
21
-239.194
0
LINE
8
BLACK
6
CONTINUOUS
10
133.96
20
-239.194
11
133.674
21
-239.052
0
LINE
8
BLACK
6
CONTINUOUS
10
133.674
20
-239.052
11
133.246
21
-239.052
0
LINE
8
BLACK
6
CONTINUOUS
10
133.246
20
-239.052
11
132.96
21
-239.194
0
LINE
8
BLACK
6
CONTINUOUS
10
132.96
20
-239.194
11
132.817
21
-239.337
0
LINE
8
BLACK
6
CONTINUOUS
10
135.96
20
-241.052
11
135.674
21
-240.909
0
LINE
8
BLACK
6
CONTINUOUS
10
135.674
20
-240.909
11
135.531
21
-240.766
0
LINE
8
BLACK
6
CONTINUOUS
10
135.531
20
-240.766
11
135.389
21
-240.48
0
LINE
8
BLACK
6
CONTINUOUS
10
135.389
20
-240.48
11
135.389
21
-239.623
0
LINE
8
BLACK
6
CONTINUOUS
10
135.389
20
-239.623
11
135.531
21
-239.337
0
LINE
8
BLACK
6
CONTINUOUS
10
135.531
20
-239.337
11
135.674
21
-239.194
0
LINE
8
BLACK
6
CONTINUOUS
10
135.674
20
-239.194
11
135.96
21
-239.052
0
LINE
8
BLACK
6
CONTINUOUS
10
135.96
20
-239.052
11
136.389
21
-239.052
0
LINE
8
BLACK
6
CONTINUOUS
10
136.389
20
-239.052
11
136.674
21
-239.194
0
LINE
8
BLACK
6
CONTINUOUS
10
136.674
20
-239.194
11
136.817
21
-239.337
0
LINE
8
BLACK
6
CONTINUOUS
10
136.817
20
-239.337
11
136.96
21
-239.623
0
LINE
8
BLACK
6
CONTINUOUS
10
136.96
20
-239.623
11
136.96
21
-240.48
0
LINE
8
BLACK
6
CONTINUOUS
10
136.96
20
-240.48
11
136.817
21
-240.766
0
LINE
8
BLACK
6
CONTINUOUS
10
136.817
20
-240.766
11
136.674
21
-240.909
0
LINE
8
BLACK
6
CONTINUOUS
10
136.674
20
-240.909
11
136.389
21
-241.052
0
LINE
8
BLACK
6
CONTINUOUS
10
136.389
20
-241.052
11
135.96
21
-241.052
0
LINE
8
BLACK
6
CONTINUOUS
10
138.674
20
-241.052
11
138.389
21
-240.909
0
LINE
8
BLACK
6
CONTINUOUS
10
138.389
20
-240.909
11
138.246
21
-240.623
0
LINE
8
BLACK
6
CONTINUOUS
10
138.246
20
-240.623
11
138.246
21
-238.052
0
LINE
8
BLACK
6
CONTINUOUS
10
140.96
20
-240.909
11
140.674
21
-241.052
0
LINE
8
BLACK
6
CONTINUOUS
10
140.674
20
-241.052
11
140.103
21
-241.052
0
LINE
8
BLACK
6
CONTINUOUS
10
140.103
20
-241.052
11
139.817
21
-240.909
0
LINE
8
BLACK
6
CONTINUOUS
10
139.817
20
-240.909
11
139.674
21
-240.623
0
LINE
8
BLACK
6
CONTINUOUS
10
139.674
20
-240.623
11
139.674
21
-239.48
0
LINE
8
BLACK
6
CONTINUOUS
10
139.674
20
-239.48
11
139.817
21
-239.194
0
LINE
8
BLACK
6
CONTINUOUS
10
139.817
20
-239.194
11
140.103
21
-239.052
0
LINE
8
BLACK
6
CONTINUOUS
10
140.103
20
-239.052
11
140.674
21
-239.052
0
LINE
8
BLACK
6
CONTINUOUS
10
140.674
20
-239.052
11
140.96
21
-239.194
0
LINE
8
BLACK
6
CONTINUOUS
10
140.96
20
-239.194
11
141.103
21
-239.48
0
LINE
8
BLACK
6
CONTINUOUS
10
141.103
20
-239.48
11
141.103
21
-239.766
0
LINE
8
BLACK
6
CONTINUOUS
10
141.103
20
-239.766
11
139.674
21
-240.052
0
LINE
8
BLACK
6
CONTINUOUS
10
142.246
20
-240.909
11
142.531
21
-241.052
0
LINE
8
BLACK
6
CONTINUOUS
10
142.531
20
-241.052
11
143.103
21
-241.052
0
LINE
8
BLACK
6
CONTINUOUS
10
143.103
20
-241.052
11
143.389
21
-240.909
0
LINE
8
BLACK
6
CONTINUOUS
10
143.389
20
-240.909
11
143.531
21
-240.623
0
LINE
8
BLACK
6
CONTINUOUS
10
143.531
20
-240.623
11
143.531
21
-240.48
0
LINE
8
BLACK
6
CONTINUOUS
10
143.531
20
-240.48
11
143.389
21
-240.194
0
LINE
8
BLACK
6
CONTINUOUS
10
143.389
20
-240.194
11
143.103
21
-240.052
0
LINE
8
BLACK
6
CONTINUOUS
10
143.103
20
-240.052
11
142.674
21
-240.052
0
LINE
8
BLACK
6
CONTINUOUS
10
142.674
20
-240.052
11
142.389
21
-239.909
0
LINE
8
BLACK
6
CONTINUOUS
10
142.389
20
-239.909
11
142.246
21
-239.623
0
LINE
8
BLACK
6
CONTINUOUS
10
142.246
20
-239.623
11
142.246
21
-239.48
0
LINE
8
BLACK
6
CONTINUOUS
10
142.246
20
-239.48
11
142.389
21
-239.194
0
LINE
8
BLACK
6
CONTINUOUS
10
142.389
20
-239.194
11
142.674
21
-239.052
0
LINE
8
BLACK
6
CONTINUOUS
10
142.674
20
-239.052
11
143.103
21
-239.052
0
LINE
8
BLACK
6
CONTINUOUS
10
143.103
20
-239.052
11
143.389
21
-239.194
0
LINE
8
BLACK
6
CONTINUOUS
10
144.531
20
-242.194
11
144.674
21
-242.052
0
LINE
8
BLACK
6
CONTINUOUS
10
144.674
20
-242.052
11
144.96
21
-241.623
0
LINE
8
BLACK
6
CONTINUOUS
10
144.96
20
-241.623
11
145.103
21
-241.337
0
LINE
8
BLACK
6
CONTINUOUS
10
145.103
20
-241.337
11
145.246
21
-240.909
0
LINE
8
BLACK
6
CONTINUOUS
10
145.246
20
-240.909
11
145.389
21
-240.194
0
LINE
8
BLACK
6
CONTINUOUS
10
145.389
20
-240.194
11
145.389
21
-239.623
0
LINE
8
BLACK
6
CONTINUOUS
10
145.389
20
-239.623
11
145.246
21
-238.909
0
LINE
8
BLACK
6
CONTINUOUS
10
145.246
20
-238.909
11
145.103
21
-238.48
0
LINE
8
BLACK
6
CONTINUOUS
10
145.103
20
-238.48
11
144.96
21
-238.194
0
LINE
8
BLACK
6
CONTINUOUS
10
144.96
20
-238.194
11
144.674
21
-237.766
0
LINE
8
BLACK
6
CONTINUOUS
10
144.674
20
-237.766
11
144.531
21
-237.623
0
LINE
8
BLACK
6
CONTINUOUS
10
149.96
20
-242.194
11
149.817
21
-242.052
0
LINE
8
BLACK
6
CONTINUOUS
10
149.817
20
-242.052
11
149.531
21
-241.623
0
LINE
8
BLACK
6
CONTINUOUS
10
149.531
20
-241.623
11
149.389
21
-241.337
0
LINE
8
BLACK
6
CONTINUOUS
10
149.389
20
-241.337
11
149.246
21
-240.909
0
LINE
8
BLACK
6
CONTINUOUS
10
149.246
20
-240.909
11
149.103
21
-240.194
0
LINE
8
BLACK
6
CONTINUOUS
10
149.103
20
-240.194
11
149.103
21
-239.623
0
LINE
8
BLACK
6
CONTINUOUS
10
149.103
20
-239.623
11
149.246
21
-238.909
0
LINE
8
BLACK
6
CONTINUOUS
10
149.246
20
-238.909
11
149.389
21
-238.48
0
LINE
8
BLACK
6
CONTINUOUS
10
149.389
20
-238.48
11
149.531
21
-238.194
0
LINE
8
BLACK
6
CONTINUOUS
10
149.531
20
-238.194
11
149.817
21
-237.766
0
LINE
8
BLACK
6
CONTINUOUS
10
149.817
20
-237.766
11
149.96
21
-237.623
0
LINE
8
BLACK
6
CONTINUOUS
10
151.103
20
-239.052
11
151.103
21
-241.052
0
LINE
8
BLACK
6
CONTINUOUS
10
151.103
20
-239.337
11
151.246
21
-239.194
0
LINE
8
BLACK
6
CONTINUOUS
10
151.246
20
-239.194
11
151.531
21
-239.052
0
LINE
8
BLACK
6
CONTINUOUS
10
151.531
20
-239.052
11
151.96
21
-239.052
0
LINE
8
BLACK
6
CONTINUOUS
10
151.96
20
-239.052
11
152.246
21
-239.194
0
LINE
8
BLACK
6
CONTINUOUS
10
152.246
20
-239.194
11
152.389
21
-239.48
0
LINE
8
BLACK
6
CONTINUOUS
10
152.389
20
-239.48
11
152.389
21
-241.052
0
LINE
8
BLACK
6
CONTINUOUS
10
154.246
20
-241.052
11
153.96
21
-240.909
0
LINE
8
BLACK
6
CONTINUOUS
10
153.96
20
-240.909
11
153.817
21
-240.766
0
LINE
8
BLACK
6
CONTINUOUS
10
153.817
20
-240.766
11
153.674
21
-240.48
0
LINE
8
BLACK
6
CONTINUOUS
10
153.674
20
-240.48
11
153.674
21
-239.623
0
LINE
8
BLACK
6
CONTINUOUS
10
153.674
20
-239.623
11
153.817
21
-239.337
0
LINE
8
BLACK
6
CONTINUOUS
10
153.817
20
-239.337
11
153.96
21
-239.194
0
LINE
8
BLACK
6
CONTINUOUS
10
153.96
20
-239.194
11
154.246
21
-239.052
0
LINE
8
BLACK
6
CONTINUOUS
10
154.246
20
-239.052
11
154.674
21
-239.052
0
LINE
8
BLACK
6
CONTINUOUS
10
154.674
20
-239.052
11
154.96
21
-239.194
0
LINE
8
BLACK
6
CONTINUOUS
10
154.96
20
-239.194
11
155.103
21
-239.337
0
LINE
8
BLACK
6
CONTINUOUS
10
155.103
20
-239.337
11
155.246
21
-239.623
0
LINE
8
BLACK
6
CONTINUOUS
10
155.246
20
-239.623
11
155.246
21
-240.48
0
LINE
8
BLACK
6
CONTINUOUS
10
155.246
20
-240.48
11
155.103
21
-240.766
0
LINE
8
BLACK
6
CONTINUOUS
10
155.103
20
-240.766
11
154.96
21
-240.909
0
LINE
8
BLACK
6
CONTINUOUS
10
154.96
20
-240.909
11
154.674
21
-241.052
0
LINE
8
BLACK
6
CONTINUOUS
10
154.674
20
-241.052
11
154.246
21
-241.052
0
LINE
8
BLACK
6
CONTINUOUS
10
156.103
20
-239.052
11
157.246
21
-239.052
0
LINE
8
BLACK
6
CONTINUOUS
10
156.531
20
-238.052
11
156.531
21
-240.623
0
LINE
8
BLACK
6
CONTINUOUS
10
156.531
20
-240.623
11
156.674
21
-240.909
0
LINE
8
BLACK
6
CONTINUOUS
10
156.674
20
-240.909
11
156.96
21
-241.052
0
LINE
8
BLACK
6
CONTINUOUS
10
156.96
20
-241.052
11
157.246
21
-241.052
0
LINE
8
BLACK
6
CONTINUOUS
10
160.531
20
-239.052
11
160.531
21
-242.052
0
LINE
8
BLACK
6
CONTINUOUS
10
160.531
20
-239.194
11
160.817
21
-239.052
0
LINE
8
BLACK
6
CONTINUOUS
10
160.817
20
-239.052
11
161.389
21
-239.052
0
LINE
8
BLACK
6
CONTINUOUS
10
161.389
20
-239.052
11
161.674
21
-239.194
0
LINE
8
BLACK
6
CONTINUOUS
10
161.674
20
-239.194
11
161.817
21
-239.337
0
LINE
8
BLACK
6
CONTINUOUS
10
161.817
20
-239.337
11
161.96
21
-239.623
0
LINE
8
BLACK
6
CONTINUOUS
10
161.96
20
-239.623
11
161.96
21
-240.48
0
LINE
8
BLACK
6
CONTINUOUS
10
161.96
20
-240.48
11
161.817
21
-240.766
0
LINE
8
BLACK
6
CONTINUOUS
10
161.817
20
-240.766
11
161.674
21
-240.909
0
LINE
8
BLACK
6
CONTINUOUS
10
161.674
20
-240.909
11
161.389
21
-241.052
0
LINE
8
BLACK
6
CONTINUOUS
10
161.389
20
-241.052
11
160.817
21
-241.052
0
LINE
8
BLACK
6
CONTINUOUS
10
160.817
20
-241.052
11
160.531
21
-240.909
0
LINE
8
BLACK
6
CONTINUOUS
10
163.674
20
-241.052
11
163.389
21
-240.909
0
LINE
8
BLACK
6
CONTINUOUS
10
163.389
20
-240.909
11
163.246
21
-240.623
0
LINE
8
BLACK
6
CONTINUOUS
10
163.246
20
-240.623
11
163.246
21
-238.052
0
LINE
8
BLACK
6
CONTINUOUS
10
166.103
20
-241.052
11
166.103
21
-239.48
0
LINE
8
BLACK
6
CONTINUOUS
10
166.103
20
-239.48
11
165.96
21
-239.194
0
LINE
8
BLACK
6
CONTINUOUS
10
165.96
20
-239.194
11
165.674
21
-239.052
0
LINE
8
BLACK
6
CONTINUOUS
10
165.674
20
-239.052
11
165.103
21
-239.052
0
LINE
8
BLACK
6
CONTINUOUS
10
165.103
20
-239.052
11
164.817
21
-239.194
0
LINE
8
BLACK
6
CONTINUOUS
10
166.103
20
-240.909
11
165.817
21
-241.052
0
LINE
8
BLACK
6
CONTINUOUS
10
165.817
20
-241.052
11
165.103
21
-241.052
0
LINE
8
BLACK
6
CONTINUOUS
10
165.103
20
-241.052
11
164.817
21
-240.909
0
LINE
8
BLACK
6
CONTINUOUS
10
164.817
20
-240.909
11
164.674
21
-240.623
0
LINE
8
BLACK
6
CONTINUOUS
10
164.674
20
-240.623
11
164.674
21
-240.337
0
LINE
8
BLACK
6
CONTINUOUS
10
164.674
20
-240.337
11
164.817
21
-240.052
0
LINE
8
BLACK
6
CONTINUOUS
10
164.817
20
-240.052
11
165.103
21
-239.909
0
LINE
8
BLACK
6
CONTINUOUS
10
165.103
20
-239.909
11
165.817
21
-239.909
0
LINE
8
BLACK
6
CONTINUOUS
10
165.817
20
-239.909
11
166.103
21
-239.766
0
LINE
8
BLACK
6
CONTINUOUS
10
167.103
20
-239.052
11
168.246
21
-239.052
0
LINE
8
BLACK
6
CONTINUOUS
10
167.531
20
-238.052
11
167.531
21
-240.623
0
LINE
8
BLACK
6
CONTINUOUS
10
167.531
20
-240.623
11
167.674
21
-240.909
0
LINE
8
BLACK
6
CONTINUOUS
10
167.674
20
-240.909
11
167.96
21
-241.052
0
LINE
8
BLACK
6
CONTINUOUS
10
167.96
20
-241.052
11
168.246
21
-241.052
0
LINE
8
BLACK
6
CONTINUOUS
10
170.389
20
-240.909
11
170.103
21
-241.052
0
LINE
8
BLACK
6
CONTINUOUS
10
170.103
20
-241.052
11
169.531
21
-241.052
0
LINE
8
BLACK
6
CONTINUOUS
10
169.531
20
-241.052
11
169.246
21
-240.909
0
LINE
8
BLACK
6
CONTINUOUS
10
169.246
20
-240.909
11
169.103
21
-240.623
0
LINE
8
BLACK
6
CONTINUOUS
10
169.103
20
-240.623
11
169.103
21
-239.48
0
LINE
8
BLACK
6
CONTINUOUS
10
169.103
20
-239.48
11
169.246
21
-239.194
0
LINE
8
BLACK
6
CONTINUOUS
10
169.246
20
-239.194
11
169.531
21
-239.052
0
LINE
8
BLACK
6
CONTINUOUS
10
169.531
20
-239.052
11
170.103
21
-239.052
0
LINE
8
BLACK
6
CONTINUOUS
10
170.103
20
-239.052
11
170.389
21
-239.194
0
LINE
8
BLACK
6
CONTINUOUS
10
170.389
20
-239.194
11
170.531
21
-239.48
0
LINE
8
BLACK
6
CONTINUOUS
10
170.531
20
-239.48
11
170.531
21
-239.766
0
LINE
8
BLACK
6
CONTINUOUS
10
170.531
20
-239.766
11
169.103
21
-240.052
0
LINE
8
BLACK
6
CONTINUOUS
10
173.103
20
-241.052
11
173.103
21
-238.052
0
LINE
8
BLACK
6
CONTINUOUS
10
173.103
20
-240.909
11
172.817
21
-241.052
0
LINE
8
BLACK
6
CONTINUOUS
10
172.817
20
-241.052
11
172.246
21
-241.052
0
LINE
8
BLACK
6
CONTINUOUS
10
172.246
20
-241.052
11
171.96
21
-240.909
0
LINE
8
BLACK
6
CONTINUOUS
10
171.96
20
-240.909
11
171.817
21
-240.766
0
LINE
8
BLACK
6
CONTINUOUS
10
171.817
20
-240.766
11
171.674
21
-240.48
0
LINE
8
BLACK
6
CONTINUOUS
10
171.674
20
-240.48
11
171.674
21
-239.623
0
LINE
8
BLACK
6
CONTINUOUS
10
171.674
20
-239.623
11
171.817
21
-239.337
0
LINE
8
BLACK
6
CONTINUOUS
10
171.817
20
-239.337
11
171.96
21
-239.194
0
LINE
8
BLACK
6
CONTINUOUS
10
171.96
20
-239.194
11
172.246
21
-239.052
0
LINE
8
BLACK
6
CONTINUOUS
10
172.246
20
-239.052
11
172.817
21
-239.052
0
LINE
8
BLACK
6
CONTINUOUS
10
172.817
20
-239.052
11
173.103
21
-239.194
0
LINE
8
BLACK
6
CONTINUOUS
10
174.246
20
-242.194
11
174.389
21
-242.052
0
LINE
8
BLACK
6
CONTINUOUS
10
174.389
20
-242.052
11
174.674
21
-241.623
0
LINE
8
BLACK
6
CONTINUOUS
10
174.674
20
-241.623
11
174.817
21
-241.337
0
LINE
8
BLACK
6
CONTINUOUS
10
174.817
20
-241.337
11
174.96
21
-240.909
0
LINE
8
BLACK
6
CONTINUOUS
10
174.96
20
-240.909
11
175.103
21
-240.194
0
LINE
8
BLACK
6
CONTINUOUS
10
175.103
20
-240.194
11
175.103
21
-239.623
0
LINE
8
BLACK
6
CONTINUOUS
10
175.103
20
-239.623
11
174.96
21
-238.909
0
LINE
8
BLACK
6
CONTINUOUS
10
174.96
20
-238.909
11
174.817
21
-238.48
0
LINE
8
BLACK
6
CONTINUOUS
10
174.817
20
-238.48
11
174.674
21
-238.194
0
LINE
8
BLACK
6
CONTINUOUS
10
174.674
20
-238.194
11
174.389
21
-237.766
0
LINE
8
BLACK
6
CONTINUOUS
10
174.389
20
-237.766
11
174.246
21
-237.623
0
LINE
8
BLACK
6
CONTINUOUS
10
74.81
20
-241.994
11
74.81
21
-245.994
0
LINE
8
BLACK
6
CONTINUOUS
10
72.81
20
-243.994
11
76.81
21
-243.994
0
LINE
8
BLACK
6
CONTINUOUS
10
80.96
20
-243.352
11
80.96
21
-245.352
0
LINE
8
BLACK
6
CONTINUOUS
10
80.2457
20
-242.209
11
79.5314
21
-244.352
0
LINE
8
BLACK
6
CONTINUOUS
10
79.5314
20
-244.352
11
81.3886
21
-244.352
0
LINE
8
BLACK
6
CONTINUOUS
10
82.5314
20
-245.066
11
82.6743
21
-245.209
0
LINE
8
BLACK
6
CONTINUOUS
10
82.6743
20
-245.209
11
82.5314
21
-245.352
0
LINE
8
BLACK
6
CONTINUOUS
10
82.5314
20
-245.352
11
82.3886
21
-245.209
0
LINE
8
BLACK
6
CONTINUOUS
10
82.3886
20
-245.209
11
82.5314
21
-245.066
0
LINE
8
BLACK
6
CONTINUOUS
10
82.5314
20
-245.066
11
82.5314
21
-245.352
0
LINE
8
BLACK
6
CONTINUOUS
10
84.5314
20
-242.352
11
84.8171
21
-242.352
0
LINE
8
BLACK
6
CONTINUOUS
10
84.8171
20
-242.352
11
85.1029
21
-242.494
0
LINE
8
BLACK
6
CONTINUOUS
10
85.1029
20
-242.494
11
85.2457
21
-242.637
0
LINE
8
BLACK
6
CONTINUOUS
10
85.2457
20
-242.637
11
85.3886
21
-242.923
0
LINE
8
BLACK
6
CONTINUOUS
10
85.3886
20
-242.923
11
85.5314
21
-243.494
0
LINE
8
BLACK
6
CONTINUOUS
10
85.5314
20
-243.494
11
85.5314
21
-244.209
0
LINE
8
BLACK
6
CONTINUOUS
10
85.5314
20
-244.209
11
85.3886
21
-244.78
0
LINE
8
BLACK
6
CONTINUOUS
10
85.3886
20
-244.78
11
85.2457
21
-245.066
0
LINE
8
BLACK
6
CONTINUOUS
10
85.2457
20
-245.066
11
85.1029
21
-245.209
0
LINE
8
BLACK
6
CONTINUOUS
10
85.1029
20
-245.209
11
84.8171
21
-245.352
0
LINE
8
BLACK
6
CONTINUOUS
10
84.8171
20
-245.352
11
84.5314
21
-245.352
0
LINE
8
BLACK
6
CONTINUOUS
10
84.5314
20
-245.352
11
84.2457
21
-245.209
0
LINE
8
BLACK
6
CONTINUOUS
10
84.2457
20
-245.209
11
84.1029
21
-245.066
0
LINE
8
BLACK
6
CONTINUOUS
10
84.1029
20
-245.066
11
83.96
21
-244.78
0
LINE
8
BLACK
6
CONTINUOUS
10
83.96
20
-244.78
11
83.8171
21
-244.209
0
LINE
8
BLACK
6
CONTINUOUS
10
83.8171
20
-244.209
11
83.8171
21
-243.494
0
LINE
8
BLACK
6
CONTINUOUS
10
83.8171
20
-243.494
11
83.96
21
-242.923
0
LINE
8
BLACK
6
CONTINUOUS
10
83.96
20
-242.923
11
84.1029
21
-242.637
0
LINE
8
BLACK
6
CONTINUOUS
10
84.1029
20
-242.637
11
84.2457
21
-242.494
0
LINE
8
BLACK
6
CONTINUOUS
10
84.2457
20
-242.494
11
84.5314
21
-242.352
0
LINE
8
BLACK
6
CONTINUOUS
10
87.3886
20
-242.352
11
87.6743
21
-242.352
0
LINE
8
BLACK
6
CONTINUOUS
10
87.6743
20
-242.352
11
87.96
21
-242.494
0
LINE
8
BLACK
6
CONTINUOUS
10
87.96
20
-242.494
11
88.1029
21
-242.637
0
LINE
8
BLACK
6
CONTINUOUS
10
88.1029
20
-242.637
11
88.2457
21
-242.923
0
LINE
8
BLACK
6
CONTINUOUS
10
88.2457
20
-242.923
11
88.3886
21
-243.494
0
LINE
8
BLACK
6
CONTINUOUS
10
88.3886
20
-243.494
11
88.3886
21
-244.209
0
LINE
8
BLACK
6
CONTINUOUS
10
88.3886
20
-244.209
11
88.2457
21
-244.78
0
LINE
8
BLACK
6
CONTINUOUS
10
88.2457
20
-244.78
11
88.1029
21
-245.066
0
LINE
8
BLACK
6
CONTINUOUS
10
88.1029
20
-245.066
11
87.96
21
-245.209
0
LINE
8
BLACK
6
CONTINUOUS
10
87.96
20
-245.209
11
87.6743
21
-245.352
0
LINE
8
BLACK
6
CONTINUOUS
10
87.6743
20
-245.352
11
87.3886
21
-245.352
0
LINE
8
BLACK
6
CONTINUOUS
10
87.3886
20
-245.352
11
87.1029
21
-245.209
0
LINE
8
BLACK
6
CONTINUOUS
10
87.1029
20
-245.209
11
86.96
21
-245.066
0
LINE
8
BLACK
6
CONTINUOUS
10
86.96
20
-245.066
11
86.8171
21
-244.78
0
LINE
8
BLACK
6
CONTINUOUS
10
86.8171
20
-244.78
11
86.6743
21
-244.209
0
LINE
8
BLACK
6
CONTINUOUS
10
86.6743
20
-244.209
11
86.6743
21
-243.494
0
LINE
8
BLACK
6
CONTINUOUS
10
86.6743
20
-243.494
11
86.8171
21
-242.923
0
LINE
8
BLACK
6
CONTINUOUS
10
86.8171
20
-242.923
11
86.96
21
-242.637
0
LINE
8
BLACK
6
CONTINUOUS
10
86.96
20
-242.637
11
87.1029
21
-242.494
0
LINE
8
BLACK
6
CONTINUOUS
10
87.1029
20
-242.494
11
87.3886
21
-242.352
0
LINE
8
BLACK
6
CONTINUOUS
10
89.6743
20
-245.352
11
89.6743
21
-243.352
0
LINE
8
BLACK
6
CONTINUOUS
10
89.6743
20
-243.637
11
89.8171
21
-243.494
0
LINE
8
BLACK
6
CONTINUOUS
10
89.8171
20
-243.494
11
90.1029
21
-243.352
0
LINE
8
BLACK
6
CONTINUOUS
10
90.1029
20
-243.352
11
90.5314
21
-243.352
0
LINE
8
BLACK
6
CONTINUOUS
10
90.5314
20
-243.352
11
90.8171
21
-243.494
0
LINE
8
BLACK
6
CONTINUOUS
10
90.8171
20
-243.494
11
90.96
21
-243.78
0
LINE
8
BLACK
6
CONTINUOUS
10
90.96
20
-243.78
11
90.96
21
-245.352
0
LINE
8
BLACK
6
CONTINUOUS
10
90.96
20
-243.78
11
91.1029
21
-243.494
0
LINE
8
BLACK
6
CONTINUOUS
10
91.1029
20
-243.494
11
91.3886
21
-243.352
0
LINE
8
BLACK
6
CONTINUOUS
10
91.3886
20
-243.352
11
91.8171
21
-243.352
0
LINE
8
BLACK
6
CONTINUOUS
10
91.8171
20
-243.352
11
92.1029
21
-243.494
0
LINE
8
BLACK
6
CONTINUOUS
10
92.1029
20
-243.494
11
92.2457
21
-243.78
0
LINE
8
BLACK
6
CONTINUOUS
10
92.2457
20
-243.78
11
92.2457
21
-245.352
0
LINE
8
BLACK
6
CONTINUOUS
10
93.6743
20
-245.352
11
93.6743
21
-243.352
0
LINE
8
BLACK
6
CONTINUOUS
10
93.6743
20
-243.637
11
93.8171
21
-243.494
0
LINE
8
BLACK
6
CONTINUOUS
10
93.8171
20
-243.494
11
94.1029
21
-243.352
0
LINE
8
BLACK
6
CONTINUOUS
10
94.1029
20
-243.352
11
94.5314
21
-243.352
0
LINE
8
BLACK
6
CONTINUOUS
10
94.5314
20
-243.352
11
94.8171
21
-243.494
0
LINE
8
BLACK
6
CONTINUOUS
10
94.8171
20
-243.494
11
94.96
21
-243.78
0
LINE
8
BLACK
6
CONTINUOUS
10
94.96
20
-243.78
11
94.96
21
-245.352
0
LINE
8
BLACK
6
CONTINUOUS
10
94.96
20
-243.78
11
95.1029
21
-243.494
0
LINE
8
BLACK
6
CONTINUOUS
10
95.1029
20
-243.494
11
95.3886
21
-243.352
0
LINE
8
BLACK
6
CONTINUOUS
10
95.3886
20
-243.352
11
95.8171
21
-243.352
0
LINE
8
BLACK
6
CONTINUOUS
10
95.8171
20
-243.352
11
96.1029
21
-243.494
0
LINE
8
BLACK
6
CONTINUOUS
10
96.1029
20
-243.494
11
96.2457
21
-243.78
0
LINE
8
BLACK
6
CONTINUOUS
10
96.2457
20
-243.78
11
96.2457
21
-245.352
0
LINE
8
BLACK
6
CONTINUOUS
10
102.103
20
-242.209
11
99.5314
21
-246.066
0
LINE
8
BLACK
6
CONTINUOUS
10
105.96
20
-242.352
11
106.246
21
-242.352
0
LINE
8
BLACK
6
CONTINUOUS
10
106.246
20
-242.352
11
106.531
21
-242.494
0
LINE
8
BLACK
6
CONTINUOUS
10
106.531
20
-242.494
11
106.674
21
-242.637
0
LINE
8
BLACK
6
CONTINUOUS
10
106.674
20
-242.637
11
106.817
21
-242.923
0
LINE
8
BLACK
6
CONTINUOUS
10
106.817
20
-242.923
11
106.96
21
-243.494
0
LINE
8
BLACK
6
CONTINUOUS
10
106.96
20
-243.494
11
106.96
21
-244.209
0
LINE
8
BLACK
6
CONTINUOUS
10
106.96
20
-244.209
11
106.817
21
-244.78
0
LINE
8
BLACK
6
CONTINUOUS
10
106.817
20
-244.78
11
106.674
21
-245.066
0
LINE
8
BLACK
6
CONTINUOUS
10
106.674
20
-245.066
11
106.531
21
-245.209
0
LINE
8
BLACK
6
CONTINUOUS
10
106.531
20
-245.209
11
106.246
21
-245.352
0
LINE
8
BLACK
6
CONTINUOUS
10
106.246
20
-245.352
11
105.96
21
-245.352
0
LINE
8
BLACK
6
CONTINUOUS
10
105.96
20
-245.352
11
105.674
21
-245.209
0
LINE
8
BLACK
6
CONTINUOUS
10
105.674
20
-245.209
11
105.531
21
-245.066
0
LINE
8
BLACK
6
CONTINUOUS
10
105.531
20
-245.066
11
105.389
21
-244.78
0
LINE
8
BLACK
6
CONTINUOUS
10
105.389
20
-244.78
11
105.246
21
-244.209
0
LINE
8
BLACK
6
CONTINUOUS
10
105.246
20
-244.209
11
105.246
21
-243.494
0
LINE
8
BLACK
6
CONTINUOUS
10
105.246
20
-243.494
11
105.389
21
-242.923
0
LINE
8
BLACK
6
CONTINUOUS
10
105.389
20
-242.923
11
105.531
21
-242.637
0
LINE
8
BLACK
6
CONTINUOUS
10
105.531
20
-242.637
11
105.674
21
-242.494
0
LINE
8
BLACK
6
CONTINUOUS
10
105.674
20
-242.494
11
105.96
21
-242.352
0
LINE
8
BLACK
6
CONTINUOUS
10
108.246
20
-245.066
11
108.389
21
-245.209
0
LINE
8
BLACK
6
CONTINUOUS
10
108.389
20
-245.209
11
108.246
21
-245.352
0
LINE
8
BLACK
6
CONTINUOUS
10
108.246
20
-245.352
11
108.103
21
-245.209
0
LINE
8
BLACK
6
CONTINUOUS
10
108.103
20
-245.209
11
108.246
21
-245.066
0
LINE
8
BLACK
6
CONTINUOUS
10
108.246
20
-245.066
11
108.246
21
-245.352
0
LINE
8
BLACK
6
CONTINUOUS
10
111.246
20
-245.352
11
109.531
21
-245.352
0
LINE
8
BLACK
6
CONTINUOUS
10
110.389
20
-245.352
11
110.389
21
-242.352
0
LINE
8
BLACK
6
CONTINUOUS
10
110.389
20
-242.352
11
110.103
21
-242.78
0
LINE
8
BLACK
6
CONTINUOUS
10
110.103
20
-242.78
11
109.817
21
-243.066
0
LINE
8
BLACK
6
CONTINUOUS
10
109.817
20
-243.066
11
109.531
21
-243.209
0
LINE
8
BLACK
6
CONTINUOUS
10
113.96
20
-242.352
11
112.531
21
-242.352
0
LINE
8
BLACK
6
CONTINUOUS
10
112.531
20
-242.352
11
112.389
21
-243.78
0
LINE
8
BLACK
6
CONTINUOUS
10
112.389
20
-243.78
11
112.531
21
-243.637
0
LINE
8
BLACK
6
CONTINUOUS
10
112.531
20
-243.637
11
112.817
21
-243.494
0
LINE
8
BLACK
6
CONTINUOUS
10
112.817
20
-243.494
11
113.531
21
-243.494
0
LINE
8
BLACK
6
CONTINUOUS
10
113.531
20
-243.494
11
113.817
21
-243.637
0
LINE
8
BLACK
6
CONTINUOUS
10
113.817
20
-243.637
11
113.96
21
-243.78
0
LINE
8
BLACK
6
CONTINUOUS
10
113.96
20
-243.78
11
114.103
21
-244.066
0
LINE
8
BLACK
6
CONTINUOUS
10
114.103
20
-244.066
11
114.103
21
-244.78
0
LINE
8
BLACK
6
CONTINUOUS
10
114.103
20
-244.78
11
113.96
21
-245.066
0
LINE
8
BLACK
6
CONTINUOUS
10
113.96
20
-245.066
11
113.817
21
-245.209
0
LINE
8
BLACK
6
CONTINUOUS
10
113.817
20
-245.209
11
113.531
21
-245.352
0
LINE
8
BLACK
6
CONTINUOUS
10
113.531
20
-245.352
11
112.817
21
-245.352
0
LINE
8
BLACK
6
CONTINUOUS
10
112.817
20
-245.352
11
112.531
21
-245.209
0
LINE
8
BLACK
6
CONTINUOUS
10
112.531
20
-245.209
11
112.389
21
-245.066
0
LINE
8
BLACK
6
CONTINUOUS
10
115.103
20
-242.352
11
117.103
21
-242.352
0
LINE
8
BLACK
6
CONTINUOUS
10
117.103
20
-242.352
11
115.817
21
-245.352
0
LINE
8
BLACK
6
CONTINUOUS
10
118.103
20
-242.352
11
118.103
21
-242.923
0
LINE
8
BLACK
6
CONTINUOUS
10
119.246
20
-242.352
11
119.246
21
-242.923
0
LINE
8
BLACK
6
CONTINUOUS
10
123.674
20
-246.494
11
123.531
21
-246.352
0
LINE
8
BLACK
6
CONTINUOUS
10
123.531
20
-246.352
11
123.246
21
-245.923
0
LINE
8
BLACK
6
CONTINUOUS
10
123.246
20
-245.923
11
123.103
21
-245.637
0
LINE
8
BLACK
6
CONTINUOUS
10
123.103
20
-245.637
11
122.96
21
-245.209
0
LINE
8
BLACK
6
CONTINUOUS
10
122.96
20
-245.209
11
122.817
21
-244.494
0
LINE
8
BLACK
6
CONTINUOUS
10
122.817
20
-244.494
11
122.817
21
-243.923
0
LINE
8
BLACK
6
CONTINUOUS
10
122.817
20
-243.923
11
122.96
21
-243.209
0
LINE
8
BLACK
6
CONTINUOUS
10
122.96
20
-243.209
11
123.103
21
-242.78
0
LINE
8
BLACK
6
CONTINUOUS
10
123.103
20
-242.78
11
123.246
21
-242.494
0
LINE
8
BLACK
6
CONTINUOUS
10
123.246
20
-242.494
11
123.531
21
-242.066
0
LINE
8
BLACK
6
CONTINUOUS
10
123.531
20
-242.066
11
123.674
21
-241.923
0
LINE
8
BLACK
6
CONTINUOUS
10
124.531
20
-242.352
11
126.389
21
-242.352
0
LINE
8
BLACK
6
CONTINUOUS
10
126.389
20
-242.352
11
125.389
21
-243.494
0
LINE
8
BLACK
6
CONTINUOUS
10
125.389
20
-243.494
11
125.817
21
-243.494
0
LINE
8
BLACK
6
CONTINUOUS
10
125.817
20
-243.494
11
126.103
21
-243.637
0
LINE
8
BLACK
6
CONTINUOUS
10
126.103
20
-243.637
11
126.246
21
-243.78
0
LINE
8
BLACK
6
CONTINUOUS
10
126.246
20
-243.78
11
126.389
21
-244.066
0
LINE
8
BLACK
6
CONTINUOUS
10
126.389
20
-244.066
11
126.389
21
-244.78
0
LINE
8
BLACK
6
CONTINUOUS
10
126.389
20
-244.78
11
126.246
21
-245.066
0
LINE
8
BLACK
6
CONTINUOUS
10
126.246
20
-245.066
11
126.103
21
-245.209
0
LINE
8
BLACK
6
CONTINUOUS
10
126.103
20
-245.209
11
125.817
21
-245.352
0
LINE
8
BLACK
6
CONTINUOUS
10
125.817
20
-245.352
11
124.96
21
-245.352
0
LINE
8
BLACK
6
CONTINUOUS
10
124.96
20
-245.352
11
124.674
21
-245.209
0
LINE
8
BLACK
6
CONTINUOUS
10
124.674
20
-245.209
11
124.531
21
-245.066
0
LINE
8
BLACK
6
CONTINUOUS
10
128.103
20
-243.637
11
127.817
21
-243.494
0
LINE
8
BLACK
6
CONTINUOUS
10
127.817
20
-243.494
11
127.674
21
-243.352
0
LINE
8
BLACK
6
CONTINUOUS
10
127.674
20
-243.352
11
127.531
21
-243.066
0
LINE
8
BLACK
6
CONTINUOUS
10
127.531
20
-243.066
11
127.531
21
-242.923
0
LINE
8
BLACK
6
CONTINUOUS
10
127.531
20
-242.923
11
127.674
21
-242.637
0
LINE
8
BLACK
6
CONTINUOUS
10
127.674
20
-242.637
11
127.817
21
-242.494
0
LINE
8
BLACK
6
CONTINUOUS
10
127.817
20
-242.494
11
128.103
21
-242.352
0
LINE
8
BLACK
6
CONTINUOUS
10
128.103
20
-242.352
11
128.674
21
-242.352
0
LINE
8
BLACK
6
CONTINUOUS
10
128.674
20
-242.352
11
128.96
21
-242.494
0
LINE
8
BLACK
6
CONTINUOUS
10
128.96
20
-242.494
11
129.103
21
-242.637
0
LINE
8
BLACK
6
CONTINUOUS
10
129.103
20
-242.637
11
129.246
21
-242.923
0
LINE
8
BLACK
6
CONTINUOUS
10
129.246
20
-242.923
11
129.246
21
-243.066
0
LINE
8
BLACK
6
CONTINUOUS
10
129.246
20
-243.066
11
129.103
21
-243.352
0
LINE
8
BLACK
6
CONTINUOUS
10
129.103
20
-243.352
11
128.96
21
-243.494
0
LINE
8
BLACK
6
CONTINUOUS
10
128.96
20
-243.494
11
128.674
21
-243.637
0
LINE
8
BLACK
6
CONTINUOUS
10
128.674
20
-243.637
11
128.103
21
-243.637
0
LINE
8
BLACK
6
CONTINUOUS
10
128.103
20
-243.637
11
127.817
21
-243.78
0
LINE
8
BLACK
6
CONTINUOUS
10
127.817
20
-243.78
11
127.674
21
-243.923
0
LINE
8
BLACK
6
CONTINUOUS
10
127.674
20
-243.923
11
127.531
21
-244.209
0
LINE
8
BLACK
6
CONTINUOUS
10
127.531
20
-244.209
11
127.531
21
-244.78
0
LINE
8
BLACK
6
CONTINUOUS
10
127.531
20
-244.78
11
127.674
21
-245.066
0
LINE
8
BLACK
6
CONTINUOUS
10
127.674
20
-245.066
11
127.817
21
-245.209
0
LINE
8
BLACK
6
CONTINUOUS
10
127.817
20
-245.209
11
128.103
21
-245.352
0
LINE
8
BLACK
6
CONTINUOUS
10
128.103
20
-245.352
11
128.674
21
-245.352
0
LINE
8
BLACK
6
CONTINUOUS
10
128.674
20
-245.352
11
128.96
21
-245.209
0
LINE
8
BLACK
6
CONTINUOUS
10
128.96
20
-245.209
11
129.103
21
-245.066
0
LINE
8
BLACK
6
CONTINUOUS
10
129.103
20
-245.066
11
129.246
21
-244.78
0
LINE
8
BLACK
6
CONTINUOUS
10
129.246
20
-244.78
11
129.246
21
-244.209
0
LINE
8
BLACK
6
CONTINUOUS
10
129.246
20
-244.209
11
129.103
21
-243.923
0
LINE
8
BLACK
6
CONTINUOUS
10
129.103
20
-243.923
11
128.96
21
-243.78
0
LINE
8
BLACK
6
CONTINUOUS
10
128.96
20
-243.78
11
128.674
21
-243.637
0
LINE
8
BLACK
6
CONTINUOUS
10
132.817
20
-245.352
11
132.817
21
-242.352
0
LINE
8
BLACK
6
CONTINUOUS
10
134.103
20
-245.352
11
134.103
21
-243.78
0
LINE
8
BLACK
6
CONTINUOUS
10
134.103
20
-243.78
11
133.96
21
-243.494
0
LINE
8
BLACK
6
CONTINUOUS
10
133.96
20
-243.494
11
133.674
21
-243.352
0
LINE
8
BLACK
6
CONTINUOUS
10
133.674
20
-243.352
11
133.246
21
-243.352
0
LINE
8
BLACK
6
CONTINUOUS
10
133.246
20
-243.352
11
132.96
21
-243.494
0
LINE
8
BLACK
6
CONTINUOUS
10
132.96
20
-243.494
11
132.817
21
-243.637
0
LINE
8
BLACK
6
CONTINUOUS
10
135.96
20
-245.352
11
135.674
21
-245.209
0
LINE
8
BLACK
6
CONTINUOUS
10
135.674
20
-245.209
11
135.531
21
-245.066
0
LINE
8
BLACK
6
CONTINUOUS
10
135.531
20
-245.066
11
135.389
21
-244.78
0
LINE
8
BLACK
6
CONTINUOUS
10
135.389
20
-244.78
11
135.389
21
-243.923
0
LINE
8
BLACK
6
CONTINUOUS
10
135.389
20
-243.923
11
135.531
21
-243.637
0
LINE
8
BLACK
6
CONTINUOUS
10
135.531
20
-243.637
11
135.674
21
-243.494
0
LINE
8
BLACK
6
CONTINUOUS
10
135.674
20
-243.494
11
135.96
21
-243.352
0
LINE
8
BLACK
6
CONTINUOUS
10
135.96
20
-243.352
11
136.389
21
-243.352
0
LINE
8
BLACK
6
CONTINUOUS
10
136.389
20
-243.352
11
136.674
21
-243.494
0
LINE
8
BLACK
6
CONTINUOUS
10
136.674
20
-243.494
11
136.817
21
-243.637
0
LINE
8
BLACK
6
CONTINUOUS
10
136.817
20
-243.637
11
136.96
21
-243.923
0
LINE
8
BLACK
6
CONTINUOUS
10
136.96
20
-243.923
11
136.96
21
-244.78
0
LINE
8
BLACK
6
CONTINUOUS
10
136.96
20
-244.78
11
136.817
21
-245.066
0
LINE
8
BLACK
6
CONTINUOUS
10
136.817
20
-245.066
11
136.674
21
-245.209
0
LINE
8
BLACK
6
CONTINUOUS
10
136.674
20
-245.209
11
136.389
21
-245.352
0
LINE
8
BLACK
6
CONTINUOUS
10
136.389
20
-245.352
11
135.96
21
-245.352
0
LINE
8
BLACK
6
CONTINUOUS
10
138.674
20
-245.352
11
138.389
21
-245.209
0
LINE
8
BLACK
6
CONTINUOUS
10
138.389
20
-245.209
11
138.246
21
-244.923
0
LINE
8
BLACK
6
CONTINUOUS
10
138.246
20
-244.923
11
138.246
21
-242.352
0
LINE
8
BLACK
6
CONTINUOUS
10
140.96
20
-245.209
11
140.674
21
-245.352
0
LINE
8
BLACK
6
CONTINUOUS
10
140.674
20
-245.352
11
140.103
21
-245.352
0
LINE
8
BLACK
6
CONTINUOUS
10
140.103
20
-245.352
11
139.817
21
-245.209
0
LINE
8
BLACK
6
CONTINUOUS
10
139.817
20
-245.209
11
139.674
21
-244.923
0
LINE
8
BLACK
6
CONTINUOUS
10
139.674
20
-244.923
11
139.674
21
-243.78
0
LINE
8
BLACK
6
CONTINUOUS
10
139.674
20
-243.78
11
139.817
21
-243.494
0
LINE
8
BLACK
6
CONTINUOUS
10
139.817
20
-243.494
11
140.103
21
-243.352
0
LINE
8
BLACK
6
CONTINUOUS
10
140.103
20
-243.352
11
140.674
21
-243.352
0
LINE
8
BLACK
6
CONTINUOUS
10
140.674
20
-243.352
11
140.96
21
-243.494
0
LINE
8
BLACK
6
CONTINUOUS
10
140.96
20
-243.494
11
141.103
21
-243.78
0
LINE
8
BLACK
6
CONTINUOUS
10
141.103
20
-243.78
11
141.103
21
-244.066
0
LINE
8
BLACK
6
CONTINUOUS
10
141.103
20
-244.066
11
139.674
21
-244.352
0
LINE
8
BLACK
6
CONTINUOUS
10
142.246
20
-245.209
11
142.531
21
-245.352
0
LINE
8
BLACK
6
CONTINUOUS
10
142.531
20
-245.352
11
143.103
21
-245.352
0
LINE
8
BLACK
6
CONTINUOUS
10
143.103
20
-245.352
11
143.389
21
-245.209
0
LINE
8
BLACK
6
CONTINUOUS
10
143.389
20
-245.209
11
143.531
21
-244.923
0
LINE
8
BLACK
6
CONTINUOUS
10
143.531
20
-244.923
11
143.531
21
-244.78
0
LINE
8
BLACK
6
CONTINUOUS
10
143.531
20
-244.78
11
143.389
21
-244.494
0
LINE
8
BLACK
6
CONTINUOUS
10
143.389
20
-244.494
11
143.103
21
-244.352
0
LINE
8
BLACK
6
CONTINUOUS
10
143.103
20
-244.352
11
142.674
21
-244.352
0
LINE
8
BLACK
6
CONTINUOUS
10
142.674
20
-244.352
11
142.389
21
-244.209
0
LINE
8
BLACK
6
CONTINUOUS
10
142.389
20
-244.209
11
142.246
21
-243.923
0
LINE
8
BLACK
6
CONTINUOUS
10
142.246
20
-243.923
11
142.246
21
-243.78
0
LINE
8
BLACK
6
CONTINUOUS
10
142.246
20
-243.78
11
142.389
21
-243.494
0
LINE
8
BLACK
6
CONTINUOUS
10
142.389
20
-243.494
11
142.674
21
-243.352
0
LINE
8
BLACK
6
CONTINUOUS
10
142.674
20
-243.352
11
143.103
21
-243.352
0
LINE
8
BLACK
6
CONTINUOUS
10
143.103
20
-243.352
11
143.389
21
-243.494
0
LINE
8
BLACK
6
CONTINUOUS
10
144.531
20
-246.494
11
144.674
21
-246.352
0
LINE
8
BLACK
6
CONTINUOUS
10
144.674
20
-246.352
11
144.96
21
-245.923
0
LINE
8
BLACK
6
CONTINUOUS
10
144.96
20
-245.923
11
145.103
21
-245.637
0
LINE
8
BLACK
6
CONTINUOUS
10
145.103
20
-245.637
11
145.246
21
-245.209
0
LINE
8
BLACK
6
CONTINUOUS
10
145.246
20
-245.209
11
145.389
21
-244.494
0
LINE
8
BLACK
6
CONTINUOUS
10
145.389
20
-244.494
11
145.389
21
-243.923
0
LINE
8
BLACK
6
CONTINUOUS
10
145.389
20
-243.923
11
145.246
21
-243.209
0
LINE
8
BLACK
6
CONTINUOUS
10
145.246
20
-243.209
11
145.103
21
-242.78
0
LINE
8
BLACK
6
CONTINUOUS
10
145.103
20
-242.78
11
144.96
21
-242.494
0
LINE
8
BLACK
6
CONTINUOUS
10
144.96
20
-242.494
11
144.674
21
-242.066
0
LINE
8
BLACK
6
CONTINUOUS
10
144.674
20
-242.066
11
144.531
21
-241.923
0
LINE
8
BLACK
6
CONTINUOUS
10
149.96
20
-246.494
11
149.817
21
-246.352
0
LINE
8
BLACK
6
CONTINUOUS
10
149.817
20
-246.352
11
149.531
21
-245.923
0
LINE
8
BLACK
6
CONTINUOUS
10
149.531
20
-245.923
11
149.389
21
-245.637
0
LINE
8
BLACK
6
CONTINUOUS
10
149.389
20
-245.637
11
149.246
21
-245.209
0
LINE
8
BLACK
6
CONTINUOUS
10
149.246
20
-245.209
11
149.103
21
-244.494
0
LINE
8
BLACK
6
CONTINUOUS
10
149.103
20
-244.494
11
149.103
21
-243.923
0
LINE
8
BLACK
6
CONTINUOUS
10
149.103
20
-243.923
11
149.246
21
-243.209
0
LINE
8
BLACK
6
CONTINUOUS
10
149.246
20
-243.209
11
149.389
21
-242.78
0
LINE
8
BLACK
6
CONTINUOUS
10
149.389
20
-242.78
11
149.531
21
-242.494
0
LINE
8
BLACK
6
CONTINUOUS
10
149.531
20
-242.494
11
149.817
21
-242.066
0
LINE
8
BLACK
6
CONTINUOUS
10
149.817
20
-242.066
11
149.96
21
-241.923
0
LINE
8
BLACK
6
CONTINUOUS
10
151.103
20
-243.352
11
151.103
21
-245.352
0
LINE
8
BLACK
6
CONTINUOUS
10
151.103
20
-243.637
11
151.246
21
-243.494
0
LINE
8
BLACK
6
CONTINUOUS
10
151.246
20
-243.494
11
151.531
21
-243.352
0
LINE
8
BLACK
6
CONTINUOUS
10
151.531
20
-243.352
11
151.96
21
-243.352
0
LINE
8
BLACK
6
CONTINUOUS
10
151.96
20
-243.352
11
152.246
21
-243.494
0
LINE
8
BLACK
6
CONTINUOUS
10
152.246
20
-243.494
11
152.389
21
-243.78
0
LINE
8
BLACK
6
CONTINUOUS
10
152.389
20
-243.78
11
152.389
21
-245.352
0
LINE
8
BLACK
6
CONTINUOUS
10
154.246
20
-245.352
11
153.96
21
-245.209
0
LINE
8
BLACK
6
CONTINUOUS
10
153.96
20
-245.209
11
153.817
21
-245.066
0
LINE
8
BLACK
6
CONTINUOUS
10
153.817
20
-245.066
11
153.674
21
-244.78
0
LINE
8
BLACK
6
CONTINUOUS
10
153.674
20
-244.78
11
153.674
21
-243.923
0
LINE
8
BLACK
6
CONTINUOUS
10
153.674
20
-243.923
11
153.817
21
-243.637
0
LINE
8
BLACK
6
CONTINUOUS
10
153.817
20
-243.637
11
153.96
21
-243.494
0
LINE
8
BLACK
6
CONTINUOUS
10
153.96
20
-243.494
11
154.246
21
-243.352
0
LINE
8
BLACK
6
CONTINUOUS
10
154.246
20
-243.352
11
154.674
21
-243.352
0
LINE
8
BLACK
6
CONTINUOUS
10
154.674
20
-243.352
11
154.96
21
-243.494
0
LINE
8
BLACK
6
CONTINUOUS
10
154.96
20
-243.494
11
155.103
21
-243.637
0
LINE
8
BLACK
6
CONTINUOUS
10
155.103
20
-243.637
11
155.246
21
-243.923
0
LINE
8
BLACK
6
CONTINUOUS
10
155.246
20
-243.923
11
155.246
21
-244.78
0
LINE
8
BLACK
6
CONTINUOUS
10
155.246
20
-244.78
11
155.103
21
-245.066
0
LINE
8
BLACK
6
CONTINUOUS
10
155.103
20
-245.066
11
154.96
21
-245.209
0
LINE
8
BLACK
6
CONTINUOUS
10
154.96
20
-245.209
11
154.674
21
-245.352
0
LINE
8
BLACK
6
CONTINUOUS
10
154.674
20
-245.352
11
154.246
21
-245.352
0
LINE
8
BLACK
6
CONTINUOUS
10
156.103
20
-243.352
11
157.246
21
-243.352
0
LINE
8
BLACK
6
CONTINUOUS
10
156.531
20
-242.352
11
156.531
21
-244.923
0
LINE
8
BLACK
6
CONTINUOUS
10
156.531
20
-244.923
11
156.674
21
-245.209
0
LINE
8
BLACK
6
CONTINUOUS
10
156.674
20
-245.209
11
156.96
21
-245.352
0
LINE
8
BLACK
6
CONTINUOUS
10
156.96
20
-245.352
11
157.246
21
-245.352
0
LINE
8
BLACK
6
CONTINUOUS
10
160.531
20
-243.352
11
160.531
21
-246.352
0
LINE
8
BLACK
6
CONTINUOUS
10
160.531
20
-243.494
11
160.817
21
-243.352
0
LINE
8
BLACK
6
CONTINUOUS
10
160.817
20
-243.352
11
161.389
21
-243.352
0
LINE
8
BLACK
6
CONTINUOUS
10
161.389
20
-243.352
11
161.674
21
-243.494
0
LINE
8
BLACK
6
CONTINUOUS
10
161.674
20
-243.494
11
161.817
21
-243.637
0
LINE
8
BLACK
6
CONTINUOUS
10
161.817
20
-243.637
11
161.96
21
-243.923
0
LINE
8
BLACK
6
CONTINUOUS
10
161.96
20
-243.923
11
161.96
21
-244.78
0
LINE
8
BLACK
6
CONTINUOUS
10
161.96
20
-244.78
11
161.817
21
-245.066
0
LINE
8
BLACK
6
CONTINUOUS
10
161.817
20
-245.066
11
161.674
21
-245.209
0
LINE
8
BLACK
6
CONTINUOUS
10
161.674
20
-245.209
11
161.389
21
-245.352
0
LINE
8
BLACK
6
CONTINUOUS
10
161.389
20
-245.352
11
160.817
21
-245.352
0
LINE
8
BLACK
6
CONTINUOUS
10
160.817
20
-245.352
11
160.531
21
-245.209
0
LINE
8
BLACK
6
CONTINUOUS
10
163.674
20
-245.352
11
163.389
21
-245.209
0
LINE
8
BLACK
6
CONTINUOUS
10
163.389
20
-245.209
11
163.246
21
-244.923
0
LINE
8
BLACK
6
CONTINUOUS
10
163.246
20
-244.923
11
163.246
21
-242.352
0
LINE
8
BLACK
6
CONTINUOUS
10
166.103
20
-245.352
11
166.103
21
-243.78
0
LINE
8
BLACK
6
CONTINUOUS
10
166.103
20
-243.78
11
165.96
21
-243.494
0
LINE
8
BLACK
6
CONTINUOUS
10
165.96
20
-243.494
11
165.674
21
-243.352
0
LINE
8
BLACK
6
CONTINUOUS
10
165.674
20
-243.352
11
165.103
21
-243.352
0
LINE
8
BLACK
6
CONTINUOUS
10
165.103
20
-243.352
11
164.817
21
-243.494
0
LINE
8
BLACK
6
CONTINUOUS
10
166.103
20
-245.209
11
165.817
21
-245.352
0
LINE
8
BLACK
6
CONTINUOUS
10
165.817
20
-245.352
11
165.103
21
-245.352
0
LINE
8
BLACK
6
CONTINUOUS
10
165.103
20
-245.352
11
164.817
21
-245.209
0
LINE
8
BLACK
6
CONTINUOUS
10
164.817
20
-245.209
11
164.674
21
-244.923
0
LINE
8
BLACK
6
CONTINUOUS
10
164.674
20
-244.923
11
164.674
21
-244.637
0
LINE
8
BLACK
6
CONTINUOUS
10
164.674
20
-244.637
11
164.817
21
-244.352
0
LINE
8
BLACK
6
CONTINUOUS
10
164.817
20
-244.352
11
165.103
21
-244.209
0
LINE
8
BLACK
6
CONTINUOUS
10
165.103
20
-244.209
11
165.817
21
-244.209
0
LINE
8
BLACK
6
CONTINUOUS
10
165.817
20
-244.209
11
166.103
21
-244.066
0
LINE
8
BLACK
6
CONTINUOUS
10
167.103
20
-243.352
11
168.246
21
-243.352
0
LINE
8
BLACK
6
CONTINUOUS
10
167.531
20
-242.352
11
167.531
21
-244.923
0
LINE
8
BLACK
6
CONTINUOUS
10
167.531
20
-244.923
11
167.674
21
-245.209
0
LINE
8
BLACK
6
CONTINUOUS
10
167.674
20
-245.209
11
167.96
21
-245.352
0
LINE
8
BLACK
6
CONTINUOUS
10
167.96
20
-245.352
11
168.246
21
-245.352
0
LINE
8
BLACK
6
CONTINUOUS
10
170.389
20
-245.209
11
170.103
21
-245.352
0
LINE
8
BLACK
6
CONTINUOUS
10
170.103
20
-245.352
11
169.531
21
-245.352
0
LINE
8
BLACK
6
CONTINUOUS
10
169.531
20
-245.352
11
169.246
21
-245.209
0
LINE
8
BLACK
6
CONTINUOUS
10
169.246
20
-245.209
11
169.103
21
-244.923
0
LINE
8
BLACK
6
CONTINUOUS
10
169.103
20
-244.923
11
169.103
21
-243.78
0
LINE
8
BLACK
6
CONTINUOUS
10
169.103
20
-243.78
11
169.246
21
-243.494
0
LINE
8
BLACK
6
CONTINUOUS
10
169.246
20
-243.494
11
169.531
21
-243.352
0
LINE
8
BLACK
6
CONTINUOUS
10
169.531
20
-243.352
11
170.103
21
-243.352
0
LINE
8
BLACK
6
CONTINUOUS
10
170.103
20
-243.352
11
170.389
21
-243.494
0
LINE
8
BLACK
6
CONTINUOUS
10
170.389
20
-243.494
11
170.531
21
-243.78
0
LINE
8
BLACK
6
CONTINUOUS
10
170.531
20
-243.78
11
170.531
21
-244.066
0
LINE
8
BLACK
6
CONTINUOUS
10
170.531
20
-244.066
11
169.103
21
-244.352
0
LINE
8
BLACK
6
CONTINUOUS
10
173.103
20
-245.352
11
173.103
21
-242.352
0
LINE
8
BLACK
6
CONTINUOUS
10
173.103
20
-245.209
11
172.817
21
-245.352
0
LINE
8
BLACK
6
CONTINUOUS
10
172.817
20
-245.352
11
172.246
21
-245.352
0
LINE
8
BLACK
6
CONTINUOUS
10
172.246
20
-245.352
11
171.96
21
-245.209
0
LINE
8
BLACK
6
CONTINUOUS
10
171.96
20
-245.209
11
171.817
21
-245.066
0
LINE
8
BLACK
6
CONTINUOUS
10
171.817
20
-245.066
11
171.674
21
-244.78
0
LINE
8
BLACK
6
CONTINUOUS
10
171.674
20
-244.78
11
171.674
21
-243.923
0
LINE
8
BLACK
6
CONTINUOUS
10
171.674
20
-243.923
11
171.817
21
-243.637
0
LINE
8
BLACK
6
CONTINUOUS
10
171.817
20
-243.637
11
171.96
21
-243.494
0
LINE
8
BLACK
6
CONTINUOUS
10
171.96
20
-243.494
11
172.246
21
-243.352
0
LINE
8
BLACK
6
CONTINUOUS
10
172.246
20
-243.352
11
172.817
21
-243.352
0
LINE
8
BLACK
6
CONTINUOUS
10
172.817
20
-243.352
11
173.103
21
-243.494
0
LINE
8
BLACK
6
CONTINUOUS
10
174.246
20
-246.494
11
174.389
21
-246.352
0
LINE
8
BLACK
6
CONTINUOUS
10
174.389
20
-246.352
11
174.674
21
-245.923
0
LINE
8
BLACK
6
CONTINUOUS
10
174.674
20
-245.923
11
174.817
21
-245.637
0
LINE
8
BLACK
6
CONTINUOUS
10
174.817
20
-245.637
11
174.96
21
-245.209
0
LINE
8
BLACK
6
CONTINUOUS
10
174.96
20
-245.209
11
175.103
21
-244.494
0
LINE
8
BLACK
6
CONTINUOUS
10
175.103
20
-244.494
11
175.103
21
-243.923
0
LINE
8
BLACK
6
CONTINUOUS
10
175.103
20
-243.923
11
174.96
21
-243.209
0
LINE
8
BLACK
6
CONTINUOUS
10
174.96
20
-243.209
11
174.817
21
-242.78
0
LINE
8
BLACK
6
CONTINUOUS
10
174.817
20
-242.78
11
174.674
21
-242.494
0
LINE
8
BLACK
6
CONTINUOUS
10
174.674
20
-242.494
11
174.389
21
-242.066
0
LINE
8
BLACK
6
CONTINUOUS
10
174.389
20
-242.066
11
174.246
21
-241.923
  0
ENDSEC
  0
EOF
