  0
SECTION
  2
HEADER
  9
$ANGBASE
  50
0.0
  9
$ANGDIR
  70
1
  9
$MEASUREMENT
  70
1
  0
ENDSEC
  0
SECTION
  2
TABLES
  0
TABLE
  2
LTYPE
  70
4
  0
LTYPE
  5
40F
  2
CONTINUOUS
  70
0
  3
Solid line
  72
65
  73
0
  40
0.0
  0
LTYPE
  5
410
  2
DASHDOT
 70
0
  3
Dash Dot ____ _ ____ _
 72
65
 73
4
 40
2.0
 49
1.25
 49
-0.25
 49
0.25
 49
-0.25
  0
LTYPE
  5
411
  2
DASHED
 70
0
  3
Dashed __ __ __ __ __
 72
65
 73
2
 40
0.75
 49
0.5
 49
-0.25
  0
LTYPE
  5
43B
  2
DOTTED
 70
0
  3
Dotted .  .  .  .
 72
65
 73
2
 40
0.2
 49
0.0
 49
-0.2
  0
ENDTAB
  0
TABLE
  2
STYLE
  70
4
  0
STYLE
  2
KICAD
  70
0
  40
0
  41
1
  42
1
  50
0
  71
0
  3
isocp.shx
  0
STYLE
  2
KICADB
  70
0
  40
0
  41
1
  42
1
  50
0
  71
0
  3
isocp.shx
  0
STYLE
  2
KICADI
  70
0
  40
0
  41
1
  42
1
  50
15
  71
0
  3
isocp.shx
  0
STYLE
  2
KICADBI
  70
0
  40
0
  41
1
  42
1
  50
15
  71
0
  3
isocp.shx
  0
ENDTAB
  0
TABLE
  2
LAYER
  70
1
  0
LAYER
  2
BLACK
  70
0
  62
7
  6
CONTINUOUS
  0
ENDTAB
  0
ENDSEC
  0
SECTION
  2
ENTITIES
0
LINE
8
BLACK
6
CONTINUOUS
10
129.789
20
-76.2257
11
129.784
21
-76.2242
0
LINE
8
BLACK
6
CONTINUOUS
10
129.784
20
-76.2242
11
129.78
21
-76.2219
0
LINE
8
BLACK
6
CONTINUOUS
10
129.78
20
-76.2219
11
129.777
21
-76.2196
0
LINE
8
BLACK
6
CONTINUOUS
10
129.777
20
-76.2196
11
129.777
21
-76.2196
0
LINE
8
BLACK
6
CONTINUOUS
10
129.777
20
-76.2196
11
129.776
21
-76.2188
0
LINE
8
BLACK
6
CONTINUOUS
10
129.776
20
-76.2188
11
129.775
21
-76.2179
0
LINE
8
BLACK
6
CONTINUOUS
10
129.775
20
-76.2179
11
120.302
21
-66.7443
0
LINE
8
BLACK
6
CONTINUOUS
10
120.302
20
-66.7443
11
120.301
21
-66.7436
0
LINE
8
BLACK
6
CONTINUOUS
10
120.301
20
-66.7436
11
120.298
21
-66.7398
0
LINE
8
BLACK
6
CONTINUOUS
10
120.298
20
-66.7398
11
120.296
21
-66.7354
0
LINE
8
BLACK
6
CONTINUOUS
10
120.296
20
-66.7354
11
120.294
21
-66.7307
0
LINE
8
BLACK
6
CONTINUOUS
10
120.294
20
-66.7307
11
120.294
21
-66.7258
0
LINE
8
BLACK
6
CONTINUOUS
10
120.294
20
-66.7258
11
120.294
21
-66.7209
0
LINE
8
BLACK
6
CONTINUOUS
10
120.294
20
-66.7209
11
120.296
21
-66.7162
0
LINE
8
BLACK
6
CONTINUOUS
10
120.296
20
-66.7162
11
120.298
21
-66.7118
0
LINE
8
BLACK
6
CONTINUOUS
10
120.298
20
-66.7118
11
120.3
21
-66.709
0
LINE
8
BLACK
6
CONTINUOUS
10
120.3
20
-66.709
11
120.3
21
-66.709
0
LINE
8
BLACK
6
CONTINUOUS
10
120.3
20
-66.709
11
120.301
21
-66.708
0
LINE
8
BLACK
6
CONTINUOUS
10
120.301
20
-66.708
11
120.302
21
-66.7073
0
LINE
8
BLACK
6
CONTINUOUS
10
120.302
20
-66.7073
11
129.775
21
-57.2337
0
LINE
8
BLACK
6
CONTINUOUS
10
129.775
20
-57.2337
11
129.776
21
-57.2328
0
LINE
8
BLACK
6
CONTINUOUS
10
129.776
20
-57.2328
11
129.777
21
-57.232
0
LINE
8
BLACK
6
CONTINUOUS
10
129.777
20
-57.232
11
129.777
21
-57.232
0
LINE
8
BLACK
6
CONTINUOUS
10
129.777
20
-57.232
11
129.78
21
-57.2297
0
LINE
8
BLACK
6
CONTINUOUS
10
129.78
20
-57.2297
11
129.784
21
-57.2274
0
LINE
8
BLACK
6
CONTINUOUS
10
129.784
20
-57.2274
11
129.789
21
-57.2259
0
LINE
8
BLACK
6
CONTINUOUS
10
129.789
20
-57.2259
11
129.794
21
-57.2254
0
LINE
8
BLACK
6
CONTINUOUS
10
129.794
20
-57.2254
11
129.794
21
-57.2254
0
LINE
8
BLACK
6
CONTINUOUS
10
129.794
20
-57.2254
11
129.799
21
-57.2259
0
LINE
8
BLACK
6
CONTINUOUS
10
129.799
20
-57.2259
11
129.804
21
-57.2274
0
LINE
8
BLACK
6
CONTINUOUS
10
129.804
20
-57.2274
11
129.808
21
-57.2297
0
LINE
8
BLACK
6
CONTINUOUS
10
129.808
20
-57.2297
11
129.812
21
-57.2328
0
LINE
8
BLACK
6
CONTINUOUS
10
129.812
20
-57.2328
11
129.813
21
-57.2338
0
LINE
8
BLACK
6
CONTINUOUS
10
129.813
20
-57.2338
11
139.286
21
-66.7073
0
LINE
8
BLACK
6
CONTINUOUS
10
139.286
20
-66.7073
11
139.287
21
-66.708
0
LINE
8
BLACK
6
CONTINUOUS
10
139.287
20
-66.708
11
139.288
21
-66.709
0
LINE
8
BLACK
6
CONTINUOUS
10
139.288
20
-66.709
11
139.288
21
-66.709
0
LINE
8
BLACK
6
CONTINUOUS
10
139.288
20
-66.709
11
139.29
21
-66.7118
0
LINE
8
BLACK
6
CONTINUOUS
10
139.29
20
-66.7118
11
139.292
21
-66.7162
0
LINE
8
BLACK
6
CONTINUOUS
10
139.292
20
-66.7162
11
139.294
21
-66.7209
0
LINE
8
BLACK
6
CONTINUOUS
10
139.294
20
-66.7209
11
139.294
21
-66.7209
0
LINE
8
BLACK
6
CONTINUOUS
10
139.294
20
-66.7209
11
139.294
21
-66.7258
0
LINE
8
BLACK
6
CONTINUOUS
10
139.294
20
-66.7258
11
139.294
21
-66.7307
0
LINE
8
BLACK
6
CONTINUOUS
10
139.294
20
-66.7307
11
139.292
21
-66.7354
0
LINE
8
BLACK
6
CONTINUOUS
10
139.292
20
-66.7354
11
139.29
21
-66.7398
0
LINE
8
BLACK
6
CONTINUOUS
10
139.29
20
-66.7398
11
139.288
21
-66.7426
0
LINE
8
BLACK
6
CONTINUOUS
10
139.288
20
-66.7426
11
139.288
21
-66.7426
0
LINE
8
BLACK
6
CONTINUOUS
10
139.288
20
-66.7426
11
139.287
21
-66.7436
0
LINE
8
BLACK
6
CONTINUOUS
10
139.287
20
-66.7436
11
139.286
21
-66.7443
0
LINE
8
BLACK
6
CONTINUOUS
10
139.286
20
-66.7443
11
129.813
21
-76.2178
0
LINE
8
BLACK
6
CONTINUOUS
10
129.813
20
-76.2178
11
129.812
21
-76.2188
0
LINE
8
BLACK
6
CONTINUOUS
10
129.812
20
-76.2188
11
129.811
21
-76.2196
0
LINE
8
BLACK
6
CONTINUOUS
10
129.811
20
-76.2196
11
129.808
21
-76.2219
0
LINE
8
BLACK
6
CONTINUOUS
10
129.808
20
-76.2219
11
129.804
21
-76.2242
0
LINE
8
BLACK
6
CONTINUOUS
10
129.804
20
-76.2242
11
129.799
21
-76.2257
0
LINE
8
BLACK
6
CONTINUOUS
10
129.799
20
-76.2257
11
129.794
21
-76.2262
0
LINE
8
BLACK
6
CONTINUOUS
10
129.794
20
-76.2262
11
129.794
21
-76.2262
0
LINE
8
BLACK
6
CONTINUOUS
10
129.794
20
-76.2262
11
129.789
21
-76.2257
0
LINE
8
BLACK
6
CONTINUOUS
10
120.354
20
-66.7258
11
129.794
21
-76.1657
0
LINE
8
BLACK
6
CONTINUOUS
10
129.794
20
-76.1657
11
139.234
21
-66.7258
0
LINE
8
BLACK
6
CONTINUOUS
10
139.234
20
-66.7258
11
129.794
21
-57.2859
0
LINE
8
BLACK
6
CONTINUOUS
10
129.794
20
-57.2859
11
120.354
21
-66.7258
0
LINE
8
BLACK
6
CONTINUOUS
10
124.85
20
-71.7687
11
124.855
21
-71.7701
0
LINE
8
BLACK
6
CONTINUOUS
10
124.855
20
-71.7701
11
124.859
21
-71.7724
0
LINE
8
BLACK
6
CONTINUOUS
10
124.859
20
-71.7724
11
124.863
21
-71.7756
0
LINE
8
BLACK
6
CONTINUOUS
10
124.863
20
-71.7756
11
124.863
21
-71.7765
0
LINE
8
BLACK
6
CONTINUOUS
10
124.863
20
-71.7765
11
126.955
21
-73.8678
0
LINE
8
BLACK
6
CONTINUOUS
10
126.955
20
-73.8678
11
126.956
21
-73.8686
0
LINE
8
BLACK
6
CONTINUOUS
10
126.956
20
-73.8686
11
126.956
21
-73.8695
0
LINE
8
BLACK
6
CONTINUOUS
10
126.956
20
-73.8695
11
126.956
21
-73.8695
0
LINE
8
BLACK
6
CONTINUOUS
10
126.956
20
-73.8695
11
126.959
21
-73.8724
0
LINE
8
BLACK
6
CONTINUOUS
10
126.959
20
-73.8724
11
126.961
21
-73.8768
0
LINE
8
BLACK
6
CONTINUOUS
10
126.961
20
-73.8768
11
126.963
21
-73.8815
0
LINE
8
BLACK
6
CONTINUOUS
10
126.963
20
-73.8815
11
126.963
21
-73.8864
0
LINE
8
BLACK
6
CONTINUOUS
10
126.963
20
-73.8864
11
126.963
21
-73.8913
0
LINE
8
BLACK
6
CONTINUOUS
10
126.963
20
-73.8913
11
126.961
21
-73.896
0
LINE
8
BLACK
6
CONTINUOUS
10
126.961
20
-73.896
11
126.961
21
-73.896
0
LINE
8
BLACK
6
CONTINUOUS
10
126.961
20
-73.896
11
126.959
21
-73.9003
0
LINE
8
BLACK
6
CONTINUOUS
10
126.959
20
-73.9003
11
126.956
21
-73.9032
0
LINE
8
BLACK
6
CONTINUOUS
10
126.956
20
-73.9032
11
126.956
21
-73.9032
0
LINE
8
BLACK
6
CONTINUOUS
10
126.956
20
-73.9032
11
126.956
21
-73.9041
0
LINE
8
BLACK
6
CONTINUOUS
10
126.956
20
-73.9041
11
126.955
21
-73.9049
0
LINE
8
BLACK
6
CONTINUOUS
10
126.955
20
-73.9049
11
125.924
21
-74.9356
0
LINE
8
BLACK
6
CONTINUOUS
10
125.924
20
-74.9356
11
125.923
21
-74.9365
0
LINE
8
BLACK
6
CONTINUOUS
10
125.923
20
-74.9365
11
125.92
21
-74.9396
0
LINE
8
BLACK
6
CONTINUOUS
10
125.92
20
-74.9396
11
125.915
21
-74.942
0
LINE
8
BLACK
6
CONTINUOUS
10
125.915
20
-74.942
11
125.91
21
-74.9434
0
LINE
8
BLACK
6
CONTINUOUS
10
125.91
20
-74.9434
11
125.906
21
-74.9439
0
LINE
8
BLACK
6
CONTINUOUS
10
125.906
20
-74.9439
11
125.901
21
-74.9434
0
LINE
8
BLACK
6
CONTINUOUS
10
125.901
20
-74.9434
11
125.896
21
-74.942
0
LINE
8
BLACK
6
CONTINUOUS
10
125.896
20
-74.942
11
125.892
21
-74.9396
0
LINE
8
BLACK
6
CONTINUOUS
10
125.892
20
-74.9396
11
125.889
21
-74.9373
0
LINE
8
BLACK
6
CONTINUOUS
10
125.889
20
-74.9373
11
125.889
21
-74.9373
0
LINE
8
BLACK
6
CONTINUOUS
10
125.889
20
-74.9373
11
125.888
21
-74.9365
0
LINE
8
BLACK
6
CONTINUOUS
10
125.888
20
-74.9365
11
125.887
21
-74.9356
0
LINE
8
BLACK
6
CONTINUOUS
10
125.887
20
-74.9356
11
123.796
21
-72.8442
0
LINE
8
BLACK
6
CONTINUOUS
10
123.796
20
-72.8442
11
123.795
21
-72.8435
0
LINE
8
BLACK
6
CONTINUOUS
10
123.795
20
-72.8435
11
123.792
21
-72.8397
0
LINE
8
BLACK
6
CONTINUOUS
10
123.792
20
-72.8397
11
123.789
21
-72.8353
0
LINE
8
BLACK
6
CONTINUOUS
10
123.789
20
-72.8353
11
123.788
21
-72.8306
0
LINE
8
BLACK
6
CONTINUOUS
10
123.788
20
-72.8306
11
123.787
21
-72.8257
0
LINE
8
BLACK
6
CONTINUOUS
10
123.787
20
-72.8257
11
123.788
21
-72.8208
0
LINE
8
BLACK
6
CONTINUOUS
10
123.788
20
-72.8208
11
123.789
21
-72.8161
0
LINE
8
BLACK
6
CONTINUOUS
10
123.789
20
-72.8161
11
123.792
21
-72.8118
0
LINE
8
BLACK
6
CONTINUOUS
10
123.792
20
-72.8118
11
123.794
21
-72.8089
0
LINE
8
BLACK
6
CONTINUOUS
10
123.794
20
-72.8089
11
123.795
21
-72.8079
0
LINE
8
BLACK
6
CONTINUOUS
10
123.795
20
-72.8079
11
123.796
21
-72.8072
0
LINE
8
BLACK
6
CONTINUOUS
10
123.796
20
-72.8072
11
124.826
21
-71.7765
0
LINE
8
BLACK
6
CONTINUOUS
10
124.826
20
-71.7765
11
124.827
21
-71.7756
0
LINE
8
BLACK
6
CONTINUOUS
10
124.827
20
-71.7756
11
124.828
21
-71.7748
0
LINE
8
BLACK
6
CONTINUOUS
10
124.828
20
-71.7748
11
124.828
21
-71.7748
0
LINE
8
BLACK
6
CONTINUOUS
10
124.828
20
-71.7748
11
124.831
21
-71.7724
0
LINE
8
BLACK
6
CONTINUOUS
10
124.831
20
-71.7724
11
124.835
21
-71.7701
0
LINE
8
BLACK
6
CONTINUOUS
10
124.835
20
-71.7701
11
124.84
21
-71.7687
0
LINE
8
BLACK
6
CONTINUOUS
10
124.84
20
-71.7687
11
124.845
21
-71.7682
0
LINE
8
BLACK
6
CONTINUOUS
10
124.845
20
-71.7682
11
124.845
21
-71.7682
0
LINE
8
BLACK
6
CONTINUOUS
10
124.845
20
-71.7682
11
124.85
21
-71.7687
0
LINE
8
BLACK
6
CONTINUOUS
10
123.848
20
-72.8257
11
125.906
21
-74.8834
0
LINE
8
BLACK
6
CONTINUOUS
10
125.906
20
-74.8834
11
126.903
21
-73.8864
0
LINE
8
BLACK
6
CONTINUOUS
10
126.903
20
-73.8864
11
124.845
21
-71.8287
0
LINE
8
BLACK
6
CONTINUOUS
10
124.845
20
-71.8287
11
123.848
21
-72.8257
0
LINE
8
BLACK
6
CONTINUOUS
10
225.032
20
-63.58
11
225.036
21
-63.5804
0
LINE
8
BLACK
6
CONTINUOUS
10
225.036
20
-63.5804
11
225.041
21
-63.5818
0
LINE
8
BLACK
6
CONTINUOUS
10
225.041
20
-63.5818
11
225.045
21
-63.5841
0
LINE
8
BLACK
6
CONTINUOUS
10
225.045
20
-63.5841
11
225.049
21
-63.5872
0
LINE
8
BLACK
6
CONTINUOUS
10
225.049
20
-63.5872
11
225.052
21
-63.591
0
LINE
8
BLACK
6
CONTINUOUS
10
225.052
20
-63.591
11
225.054
21
-63.5954
0
LINE
8
BLACK
6
CONTINUOUS
10
225.054
20
-63.5954
11
225.056
21
-63.6001
0
LINE
8
BLACK
6
CONTINUOUS
10
225.056
20
-63.6001
11
225.056
21
-63.605
0
LINE
8
BLACK
6
CONTINUOUS
10
225.056
20
-63.605
11
225.056
21
-63.6062
0
LINE
8
BLACK
6
CONTINUOUS
10
225.056
20
-63.6062
11
225.056
21
-74.8038
0
LINE
8
BLACK
6
CONTINUOUS
10
225.056
20
-74.8038
11
225.056
21
-74.805
0
LINE
8
BLACK
6
CONTINUOUS
10
225.056
20
-74.805
11
225.056
21
-74.8099
0
LINE
8
BLACK
6
CONTINUOUS
10
225.056
20
-74.8099
11
225.054
21
-74.8146
0
LINE
8
BLACK
6
CONTINUOUS
10
225.054
20
-74.8146
11
225.052
21
-74.819
0
LINE
8
BLACK
6
CONTINUOUS
10
225.052
20
-74.819
11
225.049
21
-74.8228
0
LINE
8
BLACK
6
CONTINUOUS
10
225.049
20
-74.8228
11
225.045
21
-74.8259
0
LINE
8
BLACK
6
CONTINUOUS
10
225.045
20
-74.8259
11
225.041
21
-74.8282
0
LINE
8
BLACK
6
CONTINUOUS
10
225.041
20
-74.8282
11
225.036
21
-74.8296
0
LINE
8
BLACK
6
CONTINUOUS
10
225.036
20
-74.8296
11
225.032
21
-74.83
0
LINE
8
BLACK
6
CONTINUOUS
10
225.032
20
-74.83
11
225.032
21
-74.83
0
LINE
8
BLACK
6
CONTINUOUS
10
225.032
20
-74.83
11
225.031
21
-74.8301
0
LINE
8
BLACK
6
CONTINUOUS
10
225.031
20
-74.8301
11
225.03
21
-74.83
0
LINE
8
BLACK
6
CONTINUOUS
10
225.03
20
-74.83
11
210.132
21
-74.83
0
LINE
8
BLACK
6
CONTINUOUS
10
210.132
20
-74.83
11
210.131
21
-74.8301
0
LINE
8
BLACK
6
CONTINUOUS
10
210.131
20
-74.8301
11
210.13
21
-74.83
0
LINE
8
BLACK
6
CONTINUOUS
10
210.13
20
-74.83
11
210.13
21
-74.83
0
LINE
8
BLACK
6
CONTINUOUS
10
210.13
20
-74.83
11
210.126
21
-74.8296
0
LINE
8
BLACK
6
CONTINUOUS
10
210.126
20
-74.8296
11
210.122
21
-74.8282
0
LINE
8
BLACK
6
CONTINUOUS
10
210.122
20
-74.8282
11
210.117
21
-74.8259
0
LINE
8
BLACK
6
CONTINUOUS
10
210.117
20
-74.8259
11
210.113
21
-74.8228
0
LINE
8
BLACK
6
CONTINUOUS
10
210.113
20
-74.8228
11
210.11
21
-74.819
0
LINE
8
BLACK
6
CONTINUOUS
10
210.11
20
-74.819
11
210.108
21
-74.8146
0
LINE
8
BLACK
6
CONTINUOUS
10
210.108
20
-74.8146
11
210.107
21
-74.8099
0
LINE
8
BLACK
6
CONTINUOUS
10
210.107
20
-74.8099
11
210.106
21
-74.805
0
LINE
8
BLACK
6
CONTINUOUS
10
210.106
20
-74.805
11
210.106
21
-74.8038
0
LINE
8
BLACK
6
CONTINUOUS
10
210.106
20
-74.8038
11
210.106
21
-63.6062
0
LINE
8
BLACK
6
CONTINUOUS
10
210.106
20
-63.6062
11
210.106
21
-63.605
0
LINE
8
BLACK
6
CONTINUOUS
10
210.106
20
-63.605
11
210.107
21
-63.6001
0
LINE
8
BLACK
6
CONTINUOUS
10
210.107
20
-63.6001
11
210.108
21
-63.5954
0
LINE
8
BLACK
6
CONTINUOUS
10
210.108
20
-63.5954
11
210.11
21
-63.591
0
LINE
8
BLACK
6
CONTINUOUS
10
210.11
20
-63.591
11
210.113
21
-63.5872
0
LINE
8
BLACK
6
CONTINUOUS
10
210.113
20
-63.5872
11
210.117
21
-63.5841
0
LINE
8
BLACK
6
CONTINUOUS
10
210.117
20
-63.5841
11
210.122
21
-63.5818
0
LINE
8
BLACK
6
CONTINUOUS
10
210.122
20
-63.5818
11
210.126
21
-63.5804
0
LINE
8
BLACK
6
CONTINUOUS
10
210.126
20
-63.5804
11
210.13
21
-63.58
0
LINE
8
BLACK
6
CONTINUOUS
10
210.13
20
-63.58
11
210.131
21
-63.5799
0
LINE
8
BLACK
6
CONTINUOUS
10
210.131
20
-63.5799
11
210.132
21
-63.58
0
LINE
8
BLACK
6
CONTINUOUS
10
210.132
20
-63.58
11
225.03
21
-63.58
0
LINE
8
BLACK
6
CONTINUOUS
10
225.03
20
-63.58
11
225.031
21
-63.5799
0
LINE
8
BLACK
6
CONTINUOUS
10
225.031
20
-63.5799
11
225.032
21
-63.58
0
LINE
8
BLACK
6
CONTINUOUS
10
210.156
20
-63.63
11
210.156
21
-74.78
0
LINE
8
BLACK
6
CONTINUOUS
10
210.156
20
-74.78
11
225.006
21
-74.78
0
LINE
8
BLACK
6
CONTINUOUS
10
225.006
20
-74.78
11
225.006
21
-63.63
0
LINE
8
BLACK
6
CONTINUOUS
10
225.006
20
-63.63
11
210.156
21
-63.63
0
LINE
8
BLACK
6
CONTINUOUS
10
136.711
20
-72.905
11
136.711
21
-72.905
0
LINE
8
BLACK
6
CONTINUOUS
10
136.711
20
-72.905
11
136.715
21
-72.9054
0
LINE
8
BLACK
6
CONTINUOUS
10
136.715
20
-72.9054
11
136.719
21
-72.9068
0
LINE
8
BLACK
6
CONTINUOUS
10
136.719
20
-72.9068
11
136.724
21
-72.9091
0
LINE
8
BLACK
6
CONTINUOUS
10
136.724
20
-72.9091
11
136.727
21
-72.9122
0
LINE
8
BLACK
6
CONTINUOUS
10
136.727
20
-72.9122
11
136.73
21
-72.916
0
LINE
8
BLACK
6
CONTINUOUS
10
136.73
20
-72.916
11
136.733
21
-72.9204
0
LINE
8
BLACK
6
CONTINUOUS
10
136.733
20
-72.9204
11
136.734
21
-72.9251
0
LINE
8
BLACK
6
CONTINUOUS
10
136.734
20
-72.9251
11
136.735
21
-72.93
0
LINE
8
BLACK
6
CONTINUOUS
10
136.735
20
-72.93
11
136.735
21
-72.9312
0
LINE
8
BLACK
6
CONTINUOUS
10
136.735
20
-72.9312
11
136.735
21
-74.3888
0
LINE
8
BLACK
6
CONTINUOUS
10
136.735
20
-74.3888
11
136.735
21
-74.39
0
LINE
8
BLACK
6
CONTINUOUS
10
136.735
20
-74.39
11
136.735
21
-74.3912
0
LINE
8
BLACK
6
CONTINUOUS
10
136.735
20
-74.3912
11
136.735
21
-74.3912
0
LINE
8
BLACK
6
CONTINUOUS
10
136.735
20
-74.3912
11
136.734
21
-74.3949
0
LINE
8
BLACK
6
CONTINUOUS
10
136.734
20
-74.3949
11
136.733
21
-74.3996
0
LINE
8
BLACK
6
CONTINUOUS
10
136.733
20
-74.3996
11
136.73
21
-74.404
0
LINE
8
BLACK
6
CONTINUOUS
10
136.73
20
-74.404
11
136.727
21
-74.4078
0
LINE
8
BLACK
6
CONTINUOUS
10
136.727
20
-74.4078
11
136.724
21
-74.4109
0
LINE
8
BLACK
6
CONTINUOUS
10
136.724
20
-74.4109
11
136.719
21
-74.4132
0
LINE
8
BLACK
6
CONTINUOUS
10
136.719
20
-74.4132
11
136.715
21
-74.4146
0
LINE
8
BLACK
6
CONTINUOUS
10
136.715
20
-74.4146
11
136.71
21
-74.4151
0
LINE
8
BLACK
6
CONTINUOUS
10
136.71
20
-74.4151
11
136.708
21
-74.415
0
LINE
8
BLACK
6
CONTINUOUS
10
136.708
20
-74.415
11
133.751
21
-74.415
0
LINE
8
BLACK
6
CONTINUOUS
10
133.751
20
-74.415
11
133.75
21
-74.4151
0
LINE
8
BLACK
6
CONTINUOUS
10
133.75
20
-74.4151
11
133.745
21
-74.4146
0
LINE
8
BLACK
6
CONTINUOUS
10
133.745
20
-74.4146
11
133.74
21
-74.4132
0
LINE
8
BLACK
6
CONTINUOUS
10
133.74
20
-74.4132
11
133.736
21
-74.4109
0
LINE
8
BLACK
6
CONTINUOUS
10
133.736
20
-74.4109
11
133.732
21
-74.4078
0
LINE
8
BLACK
6
CONTINUOUS
10
133.732
20
-74.4078
11
133.729
21
-74.404
0
LINE
8
BLACK
6
CONTINUOUS
10
133.729
20
-74.404
11
133.726
21
-74.3996
0
LINE
8
BLACK
6
CONTINUOUS
10
133.726
20
-74.3996
11
133.725
21
-74.3949
0
LINE
8
BLACK
6
CONTINUOUS
10
133.725
20
-74.3949
11
133.724
21
-74.39
0
LINE
8
BLACK
6
CONTINUOUS
10
133.724
20
-74.39
11
133.725
21
-74.3888
0
LINE
8
BLACK
6
CONTINUOUS
10
133.725
20
-74.3888
11
133.725
21
-72.9312
0
LINE
8
BLACK
6
CONTINUOUS
10
133.725
20
-72.9312
11
133.724
21
-72.93
0
LINE
8
BLACK
6
CONTINUOUS
10
133.724
20
-72.93
11
133.725
21
-72.9251
0
LINE
8
BLACK
6
CONTINUOUS
10
133.725
20
-72.9251
11
133.726
21
-72.9204
0
LINE
8
BLACK
6
CONTINUOUS
10
133.726
20
-72.9204
11
133.729
21
-72.916
0
LINE
8
BLACK
6
CONTINUOUS
10
133.729
20
-72.916
11
133.732
21
-72.9122
0
LINE
8
BLACK
6
CONTINUOUS
10
133.732
20
-72.9122
11
133.736
21
-72.9091
0
LINE
8
BLACK
6
CONTINUOUS
10
133.736
20
-72.9091
11
133.74
21
-72.9068
0
LINE
8
BLACK
6
CONTINUOUS
10
133.74
20
-72.9068
11
133.745
21
-72.9054
0
LINE
8
BLACK
6
CONTINUOUS
10
133.745
20
-72.9054
11
133.748
21
-72.905
0
LINE
8
BLACK
6
CONTINUOUS
10
133.748
20
-72.905
11
133.748
21
-72.905
0
LINE
8
BLACK
6
CONTINUOUS
10
133.748
20
-72.905
11
133.75
21
-72.9049
0
LINE
8
BLACK
6
CONTINUOUS
10
133.75
20
-72.9049
11
133.751
21
-72.905
0
LINE
8
BLACK
6
CONTINUOUS
10
133.751
20
-72.905
11
136.708
21
-72.905
0
LINE
8
BLACK
6
CONTINUOUS
10
136.708
20
-72.905
11
136.71
21
-72.9049
0
LINE
8
BLACK
6
CONTINUOUS
10
136.71
20
-72.9049
11
136.711
21
-72.905
0
LINE
8
BLACK
6
CONTINUOUS
10
133.775
20
-72.955
11
133.775
21
-74.365
0
LINE
8
BLACK
6
CONTINUOUS
10
133.775
20
-74.365
11
136.685
21
-74.365
0
LINE
8
BLACK
6
CONTINUOUS
10
136.685
20
-74.365
11
136.685
21
-72.955
0
LINE
8
BLACK
6
CONTINUOUS
10
136.685
20
-72.955
11
133.775
21
-72.955
0
LINE
8
BLACK
6
CONTINUOUS
10
106.421
20
-72.9138
11
106.416
21
-72.9124
0
LINE
8
BLACK
6
CONTINUOUS
10
106.416
20
-72.9124
11
106.412
21
-72.9101
0
LINE
8
BLACK
6
CONTINUOUS
10
106.412
20
-72.9101
11
106.409
21
-72.9077
0
LINE
8
BLACK
6
CONTINUOUS
10
106.409
20
-72.9077
11
106.409
21
-72.9077
0
LINE
8
BLACK
6
CONTINUOUS
10
106.409
20
-72.9077
11
106.408
21
-72.907
0
LINE
8
BLACK
6
CONTINUOUS
10
106.408
20
-72.907
11
106.407
21
-72.906
0
LINE
8
BLACK
6
CONTINUOUS
10
106.407
20
-72.906
11
101.883
21
-68.3822
0
LINE
8
BLACK
6
CONTINUOUS
10
101.883
20
-68.3822
11
101.882
21
-68.3815
0
LINE
8
BLACK
6
CONTINUOUS
10
101.882
20
-68.3815
11
101.879
21
-68.3777
0
LINE
8
BLACK
6
CONTINUOUS
10
101.879
20
-68.3777
11
101.877
21
-68.3733
0
LINE
8
BLACK
6
CONTINUOUS
10
101.877
20
-68.3733
11
101.875
21
-68.3686
0
LINE
8
BLACK
6
CONTINUOUS
10
101.875
20
-68.3686
11
101.875
21
-68.3637
0
LINE
8
BLACK
6
CONTINUOUS
10
101.875
20
-68.3637
11
101.875
21
-68.3588
0
LINE
8
BLACK
6
CONTINUOUS
10
101.875
20
-68.3588
11
101.877
21
-68.3541
0
LINE
8
BLACK
6
CONTINUOUS
10
101.877
20
-68.3541
11
101.879
21
-68.3498
0
LINE
8
BLACK
6
CONTINUOUS
10
101.879
20
-68.3498
11
101.882
21
-68.3469
0
LINE
8
BLACK
6
CONTINUOUS
10
101.882
20
-68.3469
11
101.882
21
-68.3469
0
LINE
8
BLACK
6
CONTINUOUS
10
101.882
20
-68.3469
11
101.882
21
-68.3459
0
LINE
8
BLACK
6
CONTINUOUS
10
101.882
20
-68.3459
11
101.883
21
-68.3452
0
LINE
8
BLACK
6
CONTINUOUS
10
101.883
20
-68.3452
11
106.407
21
-63.8214
0
LINE
8
BLACK
6
CONTINUOUS
10
106.407
20
-63.8214
11
106.408
21
-63.8205
0
LINE
8
BLACK
6
CONTINUOUS
10
106.408
20
-63.8205
11
106.409
21
-63.8197
0
LINE
8
BLACK
6
CONTINUOUS
10
106.409
20
-63.8197
11
106.409
21
-63.8197
0
LINE
8
BLACK
6
CONTINUOUS
10
106.409
20
-63.8197
11
106.412
21
-63.8173
0
LINE
8
BLACK
6
CONTINUOUS
10
106.412
20
-63.8173
11
106.416
21
-63.815
0
LINE
8
BLACK
6
CONTINUOUS
10
106.416
20
-63.815
11
106.421
21
-63.8136
0
LINE
8
BLACK
6
CONTINUOUS
10
106.421
20
-63.8136
11
106.426
21
-63.8131
0
LINE
8
BLACK
6
CONTINUOUS
10
106.426
20
-63.8131
11
106.426
21
-63.8131
0
LINE
8
BLACK
6
CONTINUOUS
10
106.426
20
-63.8131
11
106.431
21
-63.8136
0
LINE
8
BLACK
6
CONTINUOUS
10
106.431
20
-63.8136
11
106.435
21
-63.815
0
LINE
8
BLACK
6
CONTINUOUS
10
106.435
20
-63.815
11
106.44
21
-63.8173
0
LINE
8
BLACK
6
CONTINUOUS
10
106.44
20
-63.8173
11
106.443
21
-63.8205
0
LINE
8
BLACK
6
CONTINUOUS
10
106.443
20
-63.8205
11
106.444
21
-63.8214
0
LINE
8
BLACK
6
CONTINUOUS
10
106.444
20
-63.8214
11
110.968
21
-68.3452
0
LINE
8
BLACK
6
CONTINUOUS
10
110.968
20
-68.3452
11
110.969
21
-68.3459
0
LINE
8
BLACK
6
CONTINUOUS
10
110.969
20
-68.3459
11
110.97
21
-68.3469
0
LINE
8
BLACK
6
CONTINUOUS
10
110.97
20
-68.3469
11
110.97
21
-68.3469
0
LINE
8
BLACK
6
CONTINUOUS
10
110.97
20
-68.3469
11
110.972
21
-68.3498
0
LINE
8
BLACK
6
CONTINUOUS
10
110.972
20
-68.3498
11
110.974
21
-68.3541
0
LINE
8
BLACK
6
CONTINUOUS
10
110.974
20
-68.3541
11
110.976
21
-68.3588
0
LINE
8
BLACK
6
CONTINUOUS
10
110.976
20
-68.3588
11
110.976
21
-68.3588
0
LINE
8
BLACK
6
CONTINUOUS
10
110.976
20
-68.3588
11
110.976
21
-68.3637
0
LINE
8
BLACK
6
CONTINUOUS
10
110.976
20
-68.3637
11
110.976
21
-68.3686
0
LINE
8
BLACK
6
CONTINUOUS
10
110.976
20
-68.3686
11
110.974
21
-68.3733
0
LINE
8
BLACK
6
CONTINUOUS
10
110.974
20
-68.3733
11
110.972
21
-68.3777
0
LINE
8
BLACK
6
CONTINUOUS
10
110.972
20
-68.3777
11
110.97
21
-68.3805
0
LINE
8
BLACK
6
CONTINUOUS
10
110.97
20
-68.3805
11
110.97
21
-68.3805
0
LINE
8
BLACK
6
CONTINUOUS
10
110.97
20
-68.3805
11
110.969
21
-68.3815
0
LINE
8
BLACK
6
CONTINUOUS
10
110.969
20
-68.3815
11
110.968
21
-68.3822
0
LINE
8
BLACK
6
CONTINUOUS
10
110.968
20
-68.3822
11
106.444
21
-72.906
0
LINE
8
BLACK
6
CONTINUOUS
10
106.444
20
-72.906
11
106.443
21
-72.907
0
LINE
8
BLACK
6
CONTINUOUS
10
106.443
20
-72.907
11
106.442
21
-72.9077
0
LINE
8
BLACK
6
CONTINUOUS
10
106.442
20
-72.9077
11
106.44
21
-72.9101
0
LINE
8
BLACK
6
CONTINUOUS
10
106.44
20
-72.9101
11
106.435
21
-72.9124
0
LINE
8
BLACK
6
CONTINUOUS
10
106.435
20
-72.9124
11
106.431
21
-72.9138
0
LINE
8
BLACK
6
CONTINUOUS
10
106.431
20
-72.9138
11
106.426
21
-72.9143
0
LINE
8
BLACK
6
CONTINUOUS
10
106.426
20
-72.9143
11
106.426
21
-72.9143
0
LINE
8
BLACK
6
CONTINUOUS
10
106.426
20
-72.9143
11
106.421
21
-72.9138
0
LINE
8
BLACK
6
CONTINUOUS
10
101.935
20
-68.3637
11
106.426
21
-72.8538
0
LINE
8
BLACK
6
CONTINUOUS
10
106.426
20
-72.8538
11
110.916
21
-68.3637
0
LINE
8
BLACK
6
CONTINUOUS
10
110.916
20
-68.3637
11
106.426
21
-63.8736
0
LINE
8
BLACK
6
CONTINUOUS
10
106.426
20
-63.8736
11
101.935
21
-68.3637
0
LINE
8
BLACK
6
CONTINUOUS
10
191.239
20
-55.244
11
191.239
21
-55.244
0
LINE
8
BLACK
6
CONTINUOUS
10
191.239
20
-55.244
11
191.243
21
-55.2444
0
LINE
8
BLACK
6
CONTINUOUS
10
191.243
20
-55.2444
11
191.248
21
-55.2458
0
LINE
8
BLACK
6
CONTINUOUS
10
191.248
20
-55.2458
11
191.252
21
-55.2481
0
LINE
8
BLACK
6
CONTINUOUS
10
191.252
20
-55.2481
11
191.256
21
-55.2512
0
LINE
8
BLACK
6
CONTINUOUS
10
191.256
20
-55.2512
11
191.259
21
-55.255
0
LINE
8
BLACK
6
CONTINUOUS
10
191.259
20
-55.255
11
191.261
21
-55.2594
0
LINE
8
BLACK
6
CONTINUOUS
10
191.261
20
-55.2594
11
191.263
21
-55.2641
0
LINE
8
BLACK
6
CONTINUOUS
10
191.263
20
-55.2641
11
191.263
21
-55.269
0
LINE
8
BLACK
6
CONTINUOUS
10
191.263
20
-55.269
11
191.263
21
-55.2702
0
LINE
8
BLACK
6
CONTINUOUS
10
191.263
20
-55.2702
11
191.263
21
-72.7678
0
LINE
8
BLACK
6
CONTINUOUS
10
191.263
20
-72.7678
11
191.263
21
-72.769
0
LINE
8
BLACK
6
CONTINUOUS
10
191.263
20
-72.769
11
191.263
21
-72.7702
0
LINE
8
BLACK
6
CONTINUOUS
10
191.263
20
-72.7702
11
191.263
21
-72.7702
0
LINE
8
BLACK
6
CONTINUOUS
10
191.263
20
-72.7702
11
191.263
21
-72.7739
0
LINE
8
BLACK
6
CONTINUOUS
10
191.263
20
-72.7739
11
191.261
21
-72.7786
0
LINE
8
BLACK
6
CONTINUOUS
10
191.261
20
-72.7786
11
191.259
21
-72.783
0
LINE
8
BLACK
6
CONTINUOUS
10
191.259
20
-72.783
11
191.256
21
-72.7868
0
LINE
8
BLACK
6
CONTINUOUS
10
191.256
20
-72.7868
11
191.252
21
-72.7899
0
LINE
8
BLACK
6
CONTINUOUS
10
191.252
20
-72.7899
11
191.248
21
-72.7922
0
LINE
8
BLACK
6
CONTINUOUS
10
191.248
20
-72.7922
11
191.243
21
-72.7936
0
LINE
8
BLACK
6
CONTINUOUS
10
191.243
20
-72.7936
11
191.238
21
-72.7941
0
LINE
8
BLACK
6
CONTINUOUS
10
191.238
20
-72.7941
11
191.237
21
-72.794
0
LINE
8
BLACK
6
CONTINUOUS
10
191.237
20
-72.794
11
177.039
21
-72.794
0
LINE
8
BLACK
6
CONTINUOUS
10
177.039
20
-72.794
11
177.038
21
-72.7941
0
LINE
8
BLACK
6
CONTINUOUS
10
177.038
20
-72.7941
11
177.033
21
-72.7936
0
LINE
8
BLACK
6
CONTINUOUS
10
177.033
20
-72.7936
11
177.028
21
-72.7922
0
LINE
8
BLACK
6
CONTINUOUS
10
177.028
20
-72.7922
11
177.024
21
-72.7899
0
LINE
8
BLACK
6
CONTINUOUS
10
177.024
20
-72.7899
11
177.02
21
-72.7868
0
LINE
8
BLACK
6
CONTINUOUS
10
177.02
20
-72.7868
11
177.017
21
-72.783
0
LINE
8
BLACK
6
CONTINUOUS
10
177.017
20
-72.783
11
177.015
21
-72.7786
0
LINE
8
BLACK
6
CONTINUOUS
10
177.015
20
-72.7786
11
177.013
21
-72.7739
0
LINE
8
BLACK
6
CONTINUOUS
10
177.013
20
-72.7739
11
177.013
21
-72.769
0
LINE
8
BLACK
6
CONTINUOUS
10
177.013
20
-72.769
11
177.013
21
-72.7678
0
LINE
8
BLACK
6
CONTINUOUS
10
177.013
20
-72.7678
11
177.013
21
-55.2702
0
LINE
8
BLACK
6
CONTINUOUS
10
177.013
20
-55.2702
11
177.013
21
-55.269
0
LINE
8
BLACK
6
CONTINUOUS
10
177.013
20
-55.269
11
177.013
21
-55.2641
0
LINE
8
BLACK
6
CONTINUOUS
10
177.013
20
-55.2641
11
177.015
21
-55.2594
0
LINE
8
BLACK
6
CONTINUOUS
10
177.015
20
-55.2594
11
177.017
21
-55.255
0
LINE
8
BLACK
6
CONTINUOUS
10
177.017
20
-55.255
11
177.02
21
-55.2512
0
LINE
8
BLACK
6
CONTINUOUS
10
177.02
20
-55.2512
11
177.024
21
-55.2481
0
LINE
8
BLACK
6
CONTINUOUS
10
177.024
20
-55.2481
11
177.028
21
-55.2458
0
LINE
8
BLACK
6
CONTINUOUS
10
177.028
20
-55.2458
11
177.033
21
-55.2444
0
LINE
8
BLACK
6
CONTINUOUS
10
177.033
20
-55.2444
11
177.037
21
-55.244
0
LINE
8
BLACK
6
CONTINUOUS
10
177.037
20
-55.244
11
177.037
21
-55.244
0
LINE
8
BLACK
6
CONTINUOUS
10
177.037
20
-55.244
11
177.038
21
-55.2439
0
LINE
8
BLACK
6
CONTINUOUS
10
177.038
20
-55.2439
11
177.039
21
-55.244
0
LINE
8
BLACK
6
CONTINUOUS
10
177.039
20
-55.244
11
191.237
21
-55.244
0
LINE
8
BLACK
6
CONTINUOUS
10
191.237
20
-55.244
11
191.238
21
-55.2439
0
LINE
8
BLACK
6
CONTINUOUS
10
191.238
20
-55.2439
11
191.239
21
-55.244
0
LINE
8
BLACK
6
CONTINUOUS
10
177.063
20
-55.294
11
177.063
21
-72.744
0
LINE
8
BLACK
6
CONTINUOUS
10
177.063
20
-72.744
11
191.213
21
-72.744
0
LINE
8
BLACK
6
CONTINUOUS
10
191.213
20
-72.744
11
191.213
21
-55.294
0
LINE
8
BLACK
6
CONTINUOUS
10
191.213
20
-55.294
11
177.063
21
-55.294
0
LINE
8
BLACK
6
CONTINUOUS
10
111.391
20
-72.5781
11
111.387
21
-72.5758
0
LINE
8
BLACK
6
CONTINUOUS
10
111.387
20
-72.5758
11
111.384
21
-72.5734
0
LINE
8
BLACK
6
CONTINUOUS
10
111.384
20
-72.5734
11
111.384
21
-72.5734
0
LINE
8
BLACK
6
CONTINUOUS
10
111.384
20
-72.5734
11
111.383
21
-72.5726
0
LINE
8
BLACK
6
CONTINUOUS
10
111.383
20
-72.5726
11
111.382
21
-72.5717
0
LINE
8
BLACK
6
CONTINUOUS
10
111.382
20
-72.5717
11
109.291
21
-70.4804
0
LINE
8
BLACK
6
CONTINUOUS
10
109.291
20
-70.4804
11
109.29
21
-70.4796
0
LINE
8
BLACK
6
CONTINUOUS
10
109.29
20
-70.4796
11
109.287
21
-70.4758
0
LINE
8
BLACK
6
CONTINUOUS
10
109.287
20
-70.4758
11
109.284
21
-70.4714
0
LINE
8
BLACK
6
CONTINUOUS
10
109.284
20
-70.4714
11
109.283
21
-70.4667
0
LINE
8
BLACK
6
CONTINUOUS
10
109.283
20
-70.4667
11
109.282
21
-70.4618
0
LINE
8
BLACK
6
CONTINUOUS
10
109.282
20
-70.4618
11
109.283
21
-70.4569
0
LINE
8
BLACK
6
CONTINUOUS
10
109.283
20
-70.4569
11
109.284
21
-70.4522
0
LINE
8
BLACK
6
CONTINUOUS
10
109.284
20
-70.4522
11
109.287
21
-70.4479
0
LINE
8
BLACK
6
CONTINUOUS
10
109.287
20
-70.4479
11
109.289
21
-70.445
0
LINE
8
BLACK
6
CONTINUOUS
10
109.289
20
-70.445
11
109.29
21
-70.4441
0
LINE
8
BLACK
6
CONTINUOUS
10
109.29
20
-70.4441
11
109.291
21
-70.4433
0
LINE
8
BLACK
6
CONTINUOUS
10
109.291
20
-70.4433
11
110.321
21
-69.4126
0
LINE
8
BLACK
6
CONTINUOUS
10
110.321
20
-69.4126
11
110.322
21
-69.4117
0
LINE
8
BLACK
6
CONTINUOUS
10
110.322
20
-69.4117
11
110.323
21
-69.4109
0
LINE
8
BLACK
6
CONTINUOUS
10
110.323
20
-69.4109
11
110.323
21
-69.4109
0
LINE
8
BLACK
6
CONTINUOUS
10
110.323
20
-69.4109
11
110.326
21
-69.4086
0
LINE
8
BLACK
6
CONTINUOUS
10
110.326
20
-69.4086
11
110.33
21
-69.4062
0
LINE
8
BLACK
6
CONTINUOUS
10
110.33
20
-69.4062
11
110.335
21
-69.4048
0
LINE
8
BLACK
6
CONTINUOUS
10
110.335
20
-69.4048
11
110.34
21
-69.4043
0
LINE
8
BLACK
6
CONTINUOUS
10
110.34
20
-69.4043
11
110.34
21
-69.4043
0
LINE
8
BLACK
6
CONTINUOUS
10
110.34
20
-69.4043
11
110.345
21
-69.4048
0
LINE
8
BLACK
6
CONTINUOUS
10
110.345
20
-69.4048
11
110.349
21
-69.4062
0
LINE
8
BLACK
6
CONTINUOUS
10
110.349
20
-69.4062
11
110.354
21
-69.4086
0
LINE
8
BLACK
6
CONTINUOUS
10
110.354
20
-69.4086
11
110.358
21
-69.4117
0
LINE
8
BLACK
6
CONTINUOUS
10
110.358
20
-69.4117
11
110.358
21
-69.4126
0
LINE
8
BLACK
6
CONTINUOUS
10
110.358
20
-69.4126
11
112.45
21
-71.504
0
LINE
8
BLACK
6
CONTINUOUS
10
112.45
20
-71.504
11
112.451
21
-71.5047
0
LINE
8
BLACK
6
CONTINUOUS
10
112.451
20
-71.5047
11
112.451
21
-71.5057
0
LINE
8
BLACK
6
CONTINUOUS
10
112.451
20
-71.5057
11
112.451
21
-71.5057
0
LINE
8
BLACK
6
CONTINUOUS
10
112.451
20
-71.5057
11
112.454
21
-71.5085
0
LINE
8
BLACK
6
CONTINUOUS
10
112.454
20
-71.5085
11
112.456
21
-71.5129
0
LINE
8
BLACK
6
CONTINUOUS
10
112.456
20
-71.5129
11
112.458
21
-71.5176
0
LINE
8
BLACK
6
CONTINUOUS
10
112.458
20
-71.5176
11
112.458
21
-71.5225
0
LINE
8
BLACK
6
CONTINUOUS
10
112.458
20
-71.5225
11
112.458
21
-71.5274
0
LINE
8
BLACK
6
CONTINUOUS
10
112.458
20
-71.5274
11
112.456
21
-71.5321
0
LINE
8
BLACK
6
CONTINUOUS
10
112.456
20
-71.5321
11
112.456
21
-71.5321
0
LINE
8
BLACK
6
CONTINUOUS
10
112.456
20
-71.5321
11
112.454
21
-71.5364
0
LINE
8
BLACK
6
CONTINUOUS
10
112.454
20
-71.5364
11
112.451
21
-71.5393
0
LINE
8
BLACK
6
CONTINUOUS
10
112.451
20
-71.5393
11
112.451
21
-71.5393
0
LINE
8
BLACK
6
CONTINUOUS
10
112.451
20
-71.5393
11
112.451
21
-71.5403
0
LINE
8
BLACK
6
CONTINUOUS
10
112.451
20
-71.5403
11
112.45
21
-71.541
0
LINE
8
BLACK
6
CONTINUOUS
10
112.45
20
-71.541
11
111.419
21
-72.5717
0
LINE
8
BLACK
6
CONTINUOUS
10
111.419
20
-72.5717
11
111.418
21
-72.5726
0
LINE
8
BLACK
6
CONTINUOUS
10
111.418
20
-72.5726
11
111.414
21
-72.5758
0
LINE
8
BLACK
6
CONTINUOUS
10
111.414
20
-72.5758
11
111.41
21
-72.5781
0
LINE
8
BLACK
6
CONTINUOUS
10
111.41
20
-72.5781
11
111.405
21
-72.5795
0
LINE
8
BLACK
6
CONTINUOUS
10
111.405
20
-72.5795
11
111.4
21
-72.58
0
LINE
8
BLACK
6
CONTINUOUS
10
111.4
20
-72.58
11
111.396
21
-72.5795
0
LINE
8
BLACK
6
CONTINUOUS
10
111.396
20
-72.5795
11
111.391
21
-72.5781
0
LINE
8
BLACK
6
CONTINUOUS
10
109.343
20
-70.4618
11
111.4
21
-72.5195
0
LINE
8
BLACK
6
CONTINUOUS
10
111.4
20
-72.5195
11
112.398
21
-71.5225
0
LINE
8
BLACK
6
CONTINUOUS
10
112.398
20
-71.5225
11
110.34
21
-69.4648
0
LINE
8
BLACK
6
CONTINUOUS
10
110.34
20
-69.4648
11
109.343
21
-70.4618
0
LINE
8
BLACK
6
CONTINUOUS
10
148.171
20
-67.5583
11
148.175
21
-67.5587
0
LINE
8
BLACK
6
CONTINUOUS
10
148.175
20
-67.5587
11
148.179
21
-67.5601
0
LINE
8
BLACK
6
CONTINUOUS
10
148.179
20
-67.5601
11
148.184
21
-67.5624
0
LINE
8
BLACK
6
CONTINUOUS
10
148.184
20
-67.5624
11
148.187
21
-67.5656
0
LINE
8
BLACK
6
CONTINUOUS
10
148.187
20
-67.5656
11
148.191
21
-67.5694
0
LINE
8
BLACK
6
CONTINUOUS
10
148.191
20
-67.5694
11
148.193
21
-67.5737
0
LINE
8
BLACK
6
CONTINUOUS
10
148.193
20
-67.5737
11
148.194
21
-67.5784
0
LINE
8
BLACK
6
CONTINUOUS
10
148.194
20
-67.5784
11
148.195
21
-67.5833
0
LINE
8
BLACK
6
CONTINUOUS
10
148.195
20
-67.5833
11
148.195
21
-67.5845
0
LINE
8
BLACK
6
CONTINUOUS
10
148.195
20
-67.5845
11
148.195
21
-70.8841
0
LINE
8
BLACK
6
CONTINUOUS
10
148.195
20
-70.8841
11
148.195
21
-70.8853
0
LINE
8
BLACK
6
CONTINUOUS
10
148.195
20
-70.8853
11
148.194
21
-70.8902
0
LINE
8
BLACK
6
CONTINUOUS
10
148.194
20
-70.8902
11
148.193
21
-70.8949
0
LINE
8
BLACK
6
CONTINUOUS
10
148.193
20
-70.8949
11
148.191
21
-70.8993
0
LINE
8
BLACK
6
CONTINUOUS
10
148.191
20
-70.8993
11
148.187
21
-70.9031
0
LINE
8
BLACK
6
CONTINUOUS
10
148.187
20
-70.9031
11
148.184
21
-70.9062
0
LINE
8
BLACK
6
CONTINUOUS
10
148.184
20
-70.9062
11
148.179
21
-70.9085
0
LINE
8
BLACK
6
CONTINUOUS
10
148.179
20
-70.9085
11
148.175
21
-70.91
0
LINE
8
BLACK
6
CONTINUOUS
10
148.175
20
-70.91
11
148.171
21
-70.9103
0
LINE
8
BLACK
6
CONTINUOUS
10
148.171
20
-70.9103
11
148.171
21
-70.9103
0
LINE
8
BLACK
6
CONTINUOUS
10
148.171
20
-70.9103
11
148.17
21
-70.9104
0
LINE
8
BLACK
6
CONTINUOUS
10
148.17
20
-70.9104
11
148.168
21
-70.9103
0
LINE
8
BLACK
6
CONTINUOUS
10
148.168
20
-70.9103
11
145.758
21
-70.9103
0
LINE
8
BLACK
6
CONTINUOUS
10
145.758
20
-70.9103
11
145.757
21
-70.9104
0
LINE
8
BLACK
6
CONTINUOUS
10
145.757
20
-70.9104
11
145.752
21
-70.91
0
LINE
8
BLACK
6
CONTINUOUS
10
145.752
20
-70.91
11
145.747
21
-70.9085
0
LINE
8
BLACK
6
CONTINUOUS
10
145.747
20
-70.9085
11
145.743
21
-70.9062
0
LINE
8
BLACK
6
CONTINUOUS
10
145.743
20
-70.9062
11
145.739
21
-70.9031
0
LINE
8
BLACK
6
CONTINUOUS
10
145.739
20
-70.9031
11
145.736
21
-70.8993
0
LINE
8
BLACK
6
CONTINUOUS
10
145.736
20
-70.8993
11
145.733
21
-70.8949
0
LINE
8
BLACK
6
CONTINUOUS
10
145.733
20
-70.8949
11
145.732
21
-70.8902
0
LINE
8
BLACK
6
CONTINUOUS
10
145.732
20
-70.8902
11
145.732
21
-70.8853
0
LINE
8
BLACK
6
CONTINUOUS
10
145.732
20
-70.8853
11
145.732
21
-70.8841
0
LINE
8
BLACK
6
CONTINUOUS
10
145.732
20
-70.8841
11
145.732
21
-67.5845
0
LINE
8
BLACK
6
CONTINUOUS
10
145.732
20
-67.5845
11
145.732
21
-67.5833
0
LINE
8
BLACK
6
CONTINUOUS
10
145.732
20
-67.5833
11
145.732
21
-67.5784
0
LINE
8
BLACK
6
CONTINUOUS
10
145.732
20
-67.5784
11
145.733
21
-67.5737
0
LINE
8
BLACK
6
CONTINUOUS
10
145.733
20
-67.5737
11
145.736
21
-67.5694
0
LINE
8
BLACK
6
CONTINUOUS
10
145.736
20
-67.5694
11
145.739
21
-67.5656
0
LINE
8
BLACK
6
CONTINUOUS
10
145.739
20
-67.5656
11
145.743
21
-67.5624
0
LINE
8
BLACK
6
CONTINUOUS
10
145.743
20
-67.5624
11
145.747
21
-67.5601
0
LINE
8
BLACK
6
CONTINUOUS
10
145.747
20
-67.5601
11
145.752
21
-67.5587
0
LINE
8
BLACK
6
CONTINUOUS
10
145.752
20
-67.5587
11
145.755
21
-67.5583
0
LINE
8
BLACK
6
CONTINUOUS
10
145.755
20
-67.5583
11
145.755
21
-67.5583
0
LINE
8
BLACK
6
CONTINUOUS
10
145.755
20
-67.5583
11
145.757
21
-67.5582
0
LINE
8
BLACK
6
CONTINUOUS
10
145.757
20
-67.5582
11
145.758
21
-67.5583
0
LINE
8
BLACK
6
CONTINUOUS
10
145.758
20
-67.5583
11
148.168
21
-67.5583
0
LINE
8
BLACK
6
CONTINUOUS
10
148.168
20
-67.5583
11
148.17
21
-67.5582
0
LINE
8
BLACK
6
CONTINUOUS
10
148.17
20
-67.5582
11
148.171
21
-67.5583
0
LINE
8
BLACK
6
CONTINUOUS
10
145.782
20
-67.6083
11
145.782
21
-70.8603
0
LINE
8
BLACK
6
CONTINUOUS
10
145.782
20
-70.8603
11
148.145
21
-70.8603
0
LINE
8
BLACK
6
CONTINUOUS
10
148.145
20
-70.8603
11
148.145
21
-67.6083
0
LINE
8
BLACK
6
CONTINUOUS
10
148.145
20
-67.6083
11
145.782
21
-67.6083
0
LINE
8
BLACK
6
CONTINUOUS
10
122.512
20
-69.1661
11
122.512
21
-69.1661
0
LINE
8
BLACK
6
CONTINUOUS
10
122.512
20
-69.1661
11
122.516
21
-69.1665
0
LINE
8
BLACK
6
CONTINUOUS
10
122.516
20
-69.1665
11
122.52
21
-69.1679
0
LINE
8
BLACK
6
CONTINUOUS
10
122.52
20
-69.1679
11
122.525
21
-69.1702
0
LINE
8
BLACK
6
CONTINUOUS
10
122.525
20
-69.1702
11
122.528
21
-69.1734
0
LINE
8
BLACK
6
CONTINUOUS
10
122.528
20
-69.1734
11
122.532
21
-69.1772
0
LINE
8
BLACK
6
CONTINUOUS
10
122.532
20
-69.1772
11
122.534
21
-69.1815
0
LINE
8
BLACK
6
CONTINUOUS
10
122.534
20
-69.1815
11
122.535
21
-69.1862
0
LINE
8
BLACK
6
CONTINUOUS
10
122.535
20
-69.1862
11
122.536
21
-69.1911
0
LINE
8
BLACK
6
CONTINUOUS
10
122.536
20
-69.1911
11
122.536
21
-69.1923
0
LINE
8
BLACK
6
CONTINUOUS
10
122.536
20
-69.1923
11
122.536
21
-70.6499
0
LINE
8
BLACK
6
CONTINUOUS
10
122.536
20
-70.6499
11
122.536
21
-70.6511
0
LINE
8
BLACK
6
CONTINUOUS
10
122.536
20
-70.6511
11
122.536
21
-70.6523
0
LINE
8
BLACK
6
CONTINUOUS
10
122.536
20
-70.6523
11
122.536
21
-70.6523
0
LINE
8
BLACK
6
CONTINUOUS
10
122.536
20
-70.6523
11
122.535
21
-70.656
0
LINE
8
BLACK
6
CONTINUOUS
10
122.535
20
-70.656
11
122.534
21
-70.6607
0
LINE
8
BLACK
6
CONTINUOUS
10
122.534
20
-70.6607
11
122.532
21
-70.6651
0
LINE
8
BLACK
6
CONTINUOUS
10
122.532
20
-70.6651
11
122.528
21
-70.6689
0
LINE
8
BLACK
6
CONTINUOUS
10
122.528
20
-70.6689
11
122.525
21
-70.672
0
LINE
8
BLACK
6
CONTINUOUS
10
122.525
20
-70.672
11
122.52
21
-70.6743
0
LINE
8
BLACK
6
CONTINUOUS
10
122.52
20
-70.6743
11
122.516
21
-70.6758
0
LINE
8
BLACK
6
CONTINUOUS
10
122.516
20
-70.6758
11
122.511
21
-70.6762
0
LINE
8
BLACK
6
CONTINUOUS
10
122.511
20
-70.6762
11
122.509
21
-70.6761
0
LINE
8
BLACK
6
CONTINUOUS
10
122.509
20
-70.6761
11
119.552
21
-70.6761
0
LINE
8
BLACK
6
CONTINUOUS
10
119.552
20
-70.6761
11
119.551
21
-70.6762
0
LINE
8
BLACK
6
CONTINUOUS
10
119.551
20
-70.6762
11
119.546
21
-70.6758
0
LINE
8
BLACK
6
CONTINUOUS
10
119.546
20
-70.6758
11
119.541
21
-70.6743
0
LINE
8
BLACK
6
CONTINUOUS
10
119.541
20
-70.6743
11
119.537
21
-70.672
0
LINE
8
BLACK
6
CONTINUOUS
10
119.537
20
-70.672
11
119.533
21
-70.6689
0
LINE
8
BLACK
6
CONTINUOUS
10
119.533
20
-70.6689
11
119.53
21
-70.6651
0
LINE
8
BLACK
6
CONTINUOUS
10
119.53
20
-70.6651
11
119.527
21
-70.6607
0
LINE
8
BLACK
6
CONTINUOUS
10
119.527
20
-70.6607
11
119.526
21
-70.656
0
LINE
8
BLACK
6
CONTINUOUS
10
119.526
20
-70.656
11
119.526
21
-70.6511
0
LINE
8
BLACK
6
CONTINUOUS
10
119.526
20
-70.6511
11
119.526
21
-70.6499
0
LINE
8
BLACK
6
CONTINUOUS
10
119.526
20
-70.6499
11
119.526
21
-69.1923
0
LINE
8
BLACK
6
CONTINUOUS
10
119.526
20
-69.1923
11
119.526
21
-69.1911
0
LINE
8
BLACK
6
CONTINUOUS
10
119.526
20
-69.1911
11
119.526
21
-69.1862
0
LINE
8
BLACK
6
CONTINUOUS
10
119.526
20
-69.1862
11
119.527
21
-69.1815
0
LINE
8
BLACK
6
CONTINUOUS
10
119.527
20
-69.1815
11
119.53
21
-69.1772
0
LINE
8
BLACK
6
CONTINUOUS
10
119.53
20
-69.1772
11
119.533
21
-69.1734
0
LINE
8
BLACK
6
CONTINUOUS
10
119.533
20
-69.1734
11
119.537
21
-69.1702
0
LINE
8
BLACK
6
CONTINUOUS
10
119.537
20
-69.1702
11
119.541
21
-69.1679
0
LINE
8
BLACK
6
CONTINUOUS
10
119.541
20
-69.1679
11
119.546
21
-69.1665
0
LINE
8
BLACK
6
CONTINUOUS
10
119.546
20
-69.1665
11
119.549
21
-69.1661
0
LINE
8
BLACK
6
CONTINUOUS
10
119.549
20
-69.1661
11
119.549
21
-69.1661
0
LINE
8
BLACK
6
CONTINUOUS
10
119.549
20
-69.1661
11
119.551
21
-69.166
0
LINE
8
BLACK
6
CONTINUOUS
10
119.551
20
-69.166
11
119.552
21
-69.1661
0
LINE
8
BLACK
6
CONTINUOUS
10
119.552
20
-69.1661
11
122.509
21
-69.1661
0
LINE
8
BLACK
6
CONTINUOUS
10
122.509
20
-69.1661
11
122.511
21
-69.166
0
LINE
8
BLACK
6
CONTINUOUS
10
122.511
20
-69.166
11
122.512
21
-69.1661
0
LINE
8
BLACK
6
CONTINUOUS
10
119.576
20
-69.2161
11
119.576
21
-70.6261
0
LINE
8
BLACK
6
CONTINUOUS
10
119.576
20
-70.6261
11
122.486
21
-70.6261
0
LINE
8
BLACK
6
CONTINUOUS
10
122.486
20
-70.6261
11
122.486
21
-69.2161
0
LINE
8
BLACK
6
CONTINUOUS
10
122.486
20
-69.2161
11
119.576
21
-69.2161
0
LINE
8
BLACK
6
CONTINUOUS
10
112.567
20
-66.9968
11
112.567
21
-66.9968
0
LINE
8
BLACK
6
CONTINUOUS
10
112.567
20
-66.9968
11
112.571
21
-66.9971
0
LINE
8
BLACK
6
CONTINUOUS
10
112.571
20
-66.9971
11
112.576
21
-66.9986
0
LINE
8
BLACK
6
CONTINUOUS
10
112.576
20
-66.9986
11
112.58
21
-67.0009
0
LINE
8
BLACK
6
CONTINUOUS
10
112.58
20
-67.0009
11
112.584
21
-67.004
0
LINE
8
BLACK
6
CONTINUOUS
10
112.584
20
-67.004
11
112.587
21
-67.0078
0
LINE
8
BLACK
6
CONTINUOUS
10
112.587
20
-67.0078
11
112.589
21
-67.0121
0
LINE
8
BLACK
6
CONTINUOUS
10
112.589
20
-67.0121
11
112.591
21
-67.0169
0
LINE
8
BLACK
6
CONTINUOUS
10
112.591
20
-67.0169
11
112.591
21
-67.0218
0
LINE
8
BLACK
6
CONTINUOUS
10
112.591
20
-67.0218
11
112.591
21
-67.023
0
LINE
8
BLACK
6
CONTINUOUS
10
112.591
20
-67.023
11
112.591
21
-69.9805
0
LINE
8
BLACK
6
CONTINUOUS
10
112.591
20
-69.9805
11
112.591
21
-69.9818
0
LINE
8
BLACK
6
CONTINUOUS
10
112.591
20
-69.9818
11
112.591
21
-69.983
0
LINE
8
BLACK
6
CONTINUOUS
10
112.591
20
-69.983
11
112.591
21
-69.983
0
LINE
8
BLACK
6
CONTINUOUS
10
112.591
20
-69.983
11
112.591
21
-69.9867
0
LINE
8
BLACK
6
CONTINUOUS
10
112.591
20
-69.9867
11
112.589
21
-69.9914
0
LINE
8
BLACK
6
CONTINUOUS
10
112.589
20
-69.9914
11
112.587
21
-69.9957
0
LINE
8
BLACK
6
CONTINUOUS
10
112.587
20
-69.9957
11
112.584
21
-69.9995
0
LINE
8
BLACK
6
CONTINUOUS
10
112.584
20
-69.9995
11
112.58
21
-70.0026
0
LINE
8
BLACK
6
CONTINUOUS
10
112.58
20
-70.0026
11
112.576
21
-70.005
0
LINE
8
BLACK
6
CONTINUOUS
10
112.576
20
-70.005
11
112.571
21
-70.0064
0
LINE
8
BLACK
6
CONTINUOUS
10
112.571
20
-70.0064
11
112.566
21
-70.0069
0
LINE
8
BLACK
6
CONTINUOUS
10
112.566
20
-70.0069
11
112.565
21
-70.0068
0
LINE
8
BLACK
6
CONTINUOUS
10
112.565
20
-70.0068
11
111.107
21
-70.0068
0
LINE
8
BLACK
6
CONTINUOUS
10
111.107
20
-70.0068
11
111.106
21
-70.0069
0
LINE
8
BLACK
6
CONTINUOUS
10
111.106
20
-70.0069
11
111.101
21
-70.0064
0
LINE
8
BLACK
6
CONTINUOUS
10
111.101
20
-70.0064
11
111.097
21
-70.005
0
LINE
8
BLACK
6
CONTINUOUS
10
111.097
20
-70.005
11
111.092
21
-70.0026
0
LINE
8
BLACK
6
CONTINUOUS
10
111.092
20
-70.0026
11
111.088
21
-69.9995
0
LINE
8
BLACK
6
CONTINUOUS
10
111.088
20
-69.9995
11
111.085
21
-69.9957
0
LINE
8
BLACK
6
CONTINUOUS
10
111.085
20
-69.9957
11
111.083
21
-69.9914
0
LINE
8
BLACK
6
CONTINUOUS
10
111.083
20
-69.9914
11
111.082
21
-69.9867
0
LINE
8
BLACK
6
CONTINUOUS
10
111.082
20
-69.9867
11
111.081
21
-69.9818
0
LINE
8
BLACK
6
CONTINUOUS
10
111.081
20
-69.9818
11
111.081
21
-69.9805
0
LINE
8
BLACK
6
CONTINUOUS
10
111.081
20
-69.9805
11
111.081
21
-67.023
0
LINE
8
BLACK
6
CONTINUOUS
10
111.081
20
-67.023
11
111.081
21
-67.0218
0
LINE
8
BLACK
6
CONTINUOUS
10
111.081
20
-67.0218
11
111.082
21
-67.0169
0
LINE
8
BLACK
6
CONTINUOUS
10
111.082
20
-67.0169
11
111.083
21
-67.0121
0
LINE
8
BLACK
6
CONTINUOUS
10
111.083
20
-67.0121
11
111.085
21
-67.0078
0
LINE
8
BLACK
6
CONTINUOUS
10
111.085
20
-67.0078
11
111.088
21
-67.004
0
LINE
8
BLACK
6
CONTINUOUS
10
111.088
20
-67.004
11
111.092
21
-67.0009
0
LINE
8
BLACK
6
CONTINUOUS
10
111.092
20
-67.0009
11
111.097
21
-66.9986
0
LINE
8
BLACK
6
CONTINUOUS
10
111.097
20
-66.9986
11
111.101
21
-66.9971
0
LINE
8
BLACK
6
CONTINUOUS
10
111.101
20
-66.9971
11
111.105
21
-66.9968
0
LINE
8
BLACK
6
CONTINUOUS
10
111.105
20
-66.9968
11
111.105
21
-66.9968
0
LINE
8
BLACK
6
CONTINUOUS
10
111.105
20
-66.9968
11
111.106
21
-66.9966
0
LINE
8
BLACK
6
CONTINUOUS
10
111.106
20
-66.9966
11
111.107
21
-66.9968
0
LINE
8
BLACK
6
CONTINUOUS
10
111.107
20
-66.9968
11
112.565
21
-66.9968
0
LINE
8
BLACK
6
CONTINUOUS
10
112.565
20
-66.9968
11
112.566
21
-66.9966
0
LINE
8
BLACK
6
CONTINUOUS
10
112.566
20
-66.9966
11
112.567
21
-66.9968
0
LINE
8
BLACK
6
CONTINUOUS
10
111.131
20
-67.0468
11
111.131
21
-69.9568
0
LINE
8
BLACK
6
CONTINUOUS
10
111.131
20
-69.9568
11
112.541
21
-69.9568
0
LINE
8
BLACK
6
CONTINUOUS
10
112.541
20
-69.9568
11
112.541
21
-67.0468
0
LINE
8
BLACK
6
CONTINUOUS
10
112.541
20
-67.0468
11
111.131
21
-67.0468
0
LINE
8
BLACK
6
CONTINUOUS
10
144.94
20
-66.6175
11
144.94
21
-66.6175
0
LINE
8
BLACK
6
CONTINUOUS
10
144.94
20
-66.6175
11
144.943
21
-66.6179
0
LINE
8
BLACK
6
CONTINUOUS
10
144.943
20
-66.6179
11
144.948
21
-66.6193
0
LINE
8
BLACK
6
CONTINUOUS
10
144.948
20
-66.6193
11
144.952
21
-66.6216
0
LINE
8
BLACK
6
CONTINUOUS
10
144.952
20
-66.6216
11
144.956
21
-66.6247
0
LINE
8
BLACK
6
CONTINUOUS
10
144.956
20
-66.6247
11
144.959
21
-66.6285
0
LINE
8
BLACK
6
CONTINUOUS
10
144.959
20
-66.6285
11
144.962
21
-66.6329
0
LINE
8
BLACK
6
CONTINUOUS
10
144.962
20
-66.6329
11
144.963
21
-66.6376
0
LINE
8
BLACK
6
CONTINUOUS
10
144.963
20
-66.6376
11
144.964
21
-66.6425
0
LINE
8
BLACK
6
CONTINUOUS
10
144.964
20
-66.6425
11
144.963
21
-66.6437
0
LINE
8
BLACK
6
CONTINUOUS
10
144.963
20
-66.6437
11
144.963
21
-69.6013
0
LINE
8
BLACK
6
CONTINUOUS
10
144.963
20
-69.6013
11
144.964
21
-69.6025
0
LINE
8
BLACK
6
CONTINUOUS
10
144.964
20
-69.6025
11
144.963
21
-69.6037
0
LINE
8
BLACK
6
CONTINUOUS
10
144.963
20
-69.6037
11
144.963
21
-69.6037
0
LINE
8
BLACK
6
CONTINUOUS
10
144.963
20
-69.6037
11
144.963
21
-69.6074
0
LINE
8
BLACK
6
CONTINUOUS
10
144.963
20
-69.6074
11
144.962
21
-69.6121
0
LINE
8
BLACK
6
CONTINUOUS
10
144.962
20
-69.6121
11
144.959
21
-69.6165
0
LINE
8
BLACK
6
CONTINUOUS
10
144.959
20
-69.6165
11
144.956
21
-69.6203
0
LINE
8
BLACK
6
CONTINUOUS
10
144.956
20
-69.6203
11
144.952
21
-69.6234
0
LINE
8
BLACK
6
CONTINUOUS
10
144.952
20
-69.6234
11
144.948
21
-69.6257
0
LINE
8
BLACK
6
CONTINUOUS
10
144.948
20
-69.6257
11
144.943
21
-69.6271
0
LINE
8
BLACK
6
CONTINUOUS
10
144.943
20
-69.6271
11
144.939
21
-69.6276
0
LINE
8
BLACK
6
CONTINUOUS
10
144.939
20
-69.6276
11
144.937
21
-69.6275
0
LINE
8
BLACK
6
CONTINUOUS
10
144.937
20
-69.6275
11
143.48
21
-69.6275
0
LINE
8
BLACK
6
CONTINUOUS
10
143.48
20
-69.6275
11
143.478
21
-69.6276
0
LINE
8
BLACK
6
CONTINUOUS
10
143.478
20
-69.6276
11
143.474
21
-69.6271
0
LINE
8
BLACK
6
CONTINUOUS
10
143.474
20
-69.6271
11
143.469
21
-69.6257
0
LINE
8
BLACK
6
CONTINUOUS
10
143.469
20
-69.6257
11
143.465
21
-69.6234
0
LINE
8
BLACK
6
CONTINUOUS
10
143.465
20
-69.6234
11
143.461
21
-69.6203
0
LINE
8
BLACK
6
CONTINUOUS
10
143.461
20
-69.6203
11
143.458
21
-69.6165
0
LINE
8
BLACK
6
CONTINUOUS
10
143.458
20
-69.6165
11
143.455
21
-69.6121
0
LINE
8
BLACK
6
CONTINUOUS
10
143.455
20
-69.6121
11
143.454
21
-69.6074
0
LINE
8
BLACK
6
CONTINUOUS
10
143.454
20
-69.6074
11
143.453
21
-69.6025
0
LINE
8
BLACK
6
CONTINUOUS
10
143.453
20
-69.6025
11
143.453
21
-69.6013
0
LINE
8
BLACK
6
CONTINUOUS
10
143.453
20
-69.6013
11
143.454
21
-66.6437
0
LINE
8
BLACK
6
CONTINUOUS
10
143.454
20
-66.6437
11
143.453
21
-66.6425
0
LINE
8
BLACK
6
CONTINUOUS
10
143.453
20
-66.6425
11
143.454
21
-66.6376
0
LINE
8
BLACK
6
CONTINUOUS
10
143.454
20
-66.6376
11
143.455
21
-66.6329
0
LINE
8
BLACK
6
CONTINUOUS
10
143.455
20
-66.6329
11
143.458
21
-66.6285
0
LINE
8
BLACK
6
CONTINUOUS
10
143.458
20
-66.6285
11
143.461
21
-66.6247
0
LINE
8
BLACK
6
CONTINUOUS
10
143.461
20
-66.6247
11
143.465
21
-66.6216
0
LINE
8
BLACK
6
CONTINUOUS
10
143.465
20
-66.6216
11
143.469
21
-66.6193
0
LINE
8
BLACK
6
CONTINUOUS
10
143.469
20
-66.6193
11
143.474
21
-66.6179
0
LINE
8
BLACK
6
CONTINUOUS
10
143.474
20
-66.6179
11
143.477
21
-66.6175
0
LINE
8
BLACK
6
CONTINUOUS
10
143.477
20
-66.6175
11
143.477
21
-66.6175
0
LINE
8
BLACK
6
CONTINUOUS
10
143.477
20
-66.6175
11
143.478
21
-66.6174
0
LINE
8
BLACK
6
CONTINUOUS
10
143.478
20
-66.6174
11
143.48
21
-66.6175
0
LINE
8
BLACK
6
CONTINUOUS
10
143.48
20
-66.6175
11
144.937
21
-66.6175
0
LINE
8
BLACK
6
CONTINUOUS
10
144.937
20
-66.6175
11
144.939
21
-66.6174
0
LINE
8
BLACK
6
CONTINUOUS
10
144.939
20
-66.6174
11
144.94
21
-66.6175
0
LINE
8
BLACK
6
CONTINUOUS
10
143.504
20
-66.6675
11
143.504
21
-69.5775
0
LINE
8
BLACK
6
CONTINUOUS
10
143.504
20
-69.5775
11
144.914
21
-69.5775
0
LINE
8
BLACK
6
CONTINUOUS
10
144.914
20
-69.5775
11
144.913
21
-66.6675
0
LINE
8
BLACK
6
CONTINUOUS
10
144.913
20
-66.6675
11
143.504
21
-66.6675
0
LINE
8
BLACK
6
CONTINUOUS
10
114.163
20
-66.1078
11
114.163
21
-66.1078
0
LINE
8
BLACK
6
CONTINUOUS
10
114.163
20
-66.1078
11
114.166
21
-66.1081
0
LINE
8
BLACK
6
CONTINUOUS
10
114.166
20
-66.1081
11
114.171
21
-66.1096
0
LINE
8
BLACK
6
CONTINUOUS
10
114.171
20
-66.1096
11
114.175
21
-66.1119
0
LINE
8
BLACK
6
CONTINUOUS
10
114.175
20
-66.1119
11
114.179
21
-66.115
0
LINE
8
BLACK
6
CONTINUOUS
10
114.179
20
-66.115
11
114.182
21
-66.1188
0
LINE
8
BLACK
6
CONTINUOUS
10
114.182
20
-66.1188
11
114.185
21
-66.1231
0
LINE
8
BLACK
6
CONTINUOUS
10
114.185
20
-66.1231
11
114.186
21
-66.1279
0
LINE
8
BLACK
6
CONTINUOUS
10
114.186
20
-66.1279
11
114.186
21
-66.1328
0
LINE
8
BLACK
6
CONTINUOUS
10
114.186
20
-66.1328
11
114.186
21
-66.134
0
LINE
8
BLACK
6
CONTINUOUS
10
114.186
20
-66.134
11
114.186
21
-69.0915
0
LINE
8
BLACK
6
CONTINUOUS
10
114.186
20
-69.0915
11
114.186
21
-69.0928
0
LINE
8
BLACK
6
CONTINUOUS
10
114.186
20
-69.0928
11
114.186
21
-69.094
0
LINE
8
BLACK
6
CONTINUOUS
10
114.186
20
-69.094
11
114.186
21
-69.094
0
LINE
8
BLACK
6
CONTINUOUS
10
114.186
20
-69.094
11
114.186
21
-69.0977
0
LINE
8
BLACK
6
CONTINUOUS
10
114.186
20
-69.0977
11
114.185
21
-69.1024
0
LINE
8
BLACK
6
CONTINUOUS
10
114.185
20
-69.1024
11
114.182
21
-69.1067
0
LINE
8
BLACK
6
CONTINUOUS
10
114.182
20
-69.1067
11
114.179
21
-69.1105
0
LINE
8
BLACK
6
CONTINUOUS
10
114.179
20
-69.1105
11
114.175
21
-69.1136
0
LINE
8
BLACK
6
CONTINUOUS
10
114.175
20
-69.1136
11
114.171
21
-69.116
0
LINE
8
BLACK
6
CONTINUOUS
10
114.171
20
-69.116
11
114.166
21
-69.1174
0
LINE
8
BLACK
6
CONTINUOUS
10
114.166
20
-69.1174
11
114.161
21
-69.1179
0
LINE
8
BLACK
6
CONTINUOUS
10
114.161
20
-69.1179
11
114.16
21
-69.1178
0
LINE
8
BLACK
6
CONTINUOUS
10
114.16
20
-69.1178
11
112.703
21
-69.1178
0
LINE
8
BLACK
6
CONTINUOUS
10
112.703
20
-69.1178
11
112.701
21
-69.1179
0
LINE
8
BLACK
6
CONTINUOUS
10
112.701
20
-69.1179
11
112.696
21
-69.1174
0
LINE
8
BLACK
6
CONTINUOUS
10
112.696
20
-69.1174
11
112.692
21
-69.116
0
LINE
8
BLACK
6
CONTINUOUS
10
112.692
20
-69.116
11
112.687
21
-69.1136
0
LINE
8
BLACK
6
CONTINUOUS
10
112.687
20
-69.1136
11
112.684
21
-69.1105
0
LINE
8
BLACK
6
CONTINUOUS
10
112.684
20
-69.1105
11
112.68
21
-69.1067
0
LINE
8
BLACK
6
CONTINUOUS
10
112.68
20
-69.1067
11
112.678
21
-69.1024
0
LINE
8
BLACK
6
CONTINUOUS
10
112.678
20
-69.1024
11
112.677
21
-69.0977
0
LINE
8
BLACK
6
CONTINUOUS
10
112.677
20
-69.0977
11
112.676
21
-69.0928
0
LINE
8
BLACK
6
CONTINUOUS
10
112.676
20
-69.0928
11
112.676
21
-69.0915
0
LINE
8
BLACK
6
CONTINUOUS
10
112.676
20
-69.0915
11
112.676
21
-66.134
0
LINE
8
BLACK
6
CONTINUOUS
10
112.676
20
-66.134
11
112.676
21
-66.1328
0
LINE
8
BLACK
6
CONTINUOUS
10
112.676
20
-66.1328
11
112.677
21
-66.1279
0
LINE
8
BLACK
6
CONTINUOUS
10
112.677
20
-66.1279
11
112.678
21
-66.1231
0
LINE
8
BLACK
6
CONTINUOUS
10
112.678
20
-66.1231
11
112.68
21
-66.1188
0
LINE
8
BLACK
6
CONTINUOUS
10
112.68
20
-66.1188
11
112.684
21
-66.115
0
LINE
8
BLACK
6
CONTINUOUS
10
112.684
20
-66.115
11
112.687
21
-66.1119
0
LINE
8
BLACK
6
CONTINUOUS
10
112.687
20
-66.1119
11
112.692
21
-66.1096
0
LINE
8
BLACK
6
CONTINUOUS
10
112.692
20
-66.1096
11
112.696
21
-66.1081
0
LINE
8
BLACK
6
CONTINUOUS
10
112.696
20
-66.1081
11
112.7
21
-66.1078
0
LINE
8
BLACK
6
CONTINUOUS
10
112.7
20
-66.1078
11
112.7
21
-66.1078
0
LINE
8
BLACK
6
CONTINUOUS
10
112.7
20
-66.1078
11
112.701
21
-66.1076
0
LINE
8
BLACK
6
CONTINUOUS
10
112.701
20
-66.1076
11
112.703
21
-66.1078
0
LINE
8
BLACK
6
CONTINUOUS
10
112.703
20
-66.1078
11
114.16
21
-66.1078
0
LINE
8
BLACK
6
CONTINUOUS
10
114.16
20
-66.1078
11
114.161
21
-66.1076
0
LINE
8
BLACK
6
CONTINUOUS
10
114.161
20
-66.1076
11
114.163
21
-66.1078
0
LINE
8
BLACK
6
CONTINUOUS
10
112.726
20
-66.1578
11
112.726
21
-69.0678
0
LINE
8
BLACK
6
CONTINUOUS
10
112.726
20
-69.0678
11
114.136
21
-69.0678
0
LINE
8
BLACK
6
CONTINUOUS
10
114.136
20
-69.0678
11
114.136
21
-66.1578
0
LINE
8
BLACK
6
CONTINUOUS
10
114.136
20
-66.1578
11
112.726
21
-66.1578
0
LINE
8
BLACK
6
CONTINUOUS
10
148.446
20
-65.9962
11
148.446
21
-65.9962
0
LINE
8
BLACK
6
CONTINUOUS
10
148.446
20
-65.9962
11
148.449
21
-65.9966
0
LINE
8
BLACK
6
CONTINUOUS
10
148.449
20
-65.9966
11
148.454
21
-65.998
0
LINE
8
BLACK
6
CONTINUOUS
10
148.454
20
-65.998
11
148.458
21
-66.0003
0
LINE
8
BLACK
6
CONTINUOUS
10
148.458
20
-66.0003
11
148.462
21
-66.0034
0
LINE
8
BLACK
6
CONTINUOUS
10
148.462
20
-66.0034
11
148.465
21
-66.0072
0
LINE
8
BLACK
6
CONTINUOUS
10
148.465
20
-66.0072
11
148.468
21
-66.0116
0
LINE
8
BLACK
6
CONTINUOUS
10
148.468
20
-66.0116
11
148.469
21
-66.0163
0
LINE
8
BLACK
6
CONTINUOUS
10
148.469
20
-66.0163
11
148.47
21
-66.0212
0
LINE
8
BLACK
6
CONTINUOUS
10
148.47
20
-66.0212
11
148.469
21
-66.0224
0
LINE
8
BLACK
6
CONTINUOUS
10
148.469
20
-66.0224
11
148.469
21
-67.48
0
LINE
8
BLACK
6
CONTINUOUS
10
148.469
20
-67.48
11
148.47
21
-67.4812
0
LINE
8
BLACK
6
CONTINUOUS
10
148.47
20
-67.4812
11
148.469
21
-67.4824
0
LINE
8
BLACK
6
CONTINUOUS
10
148.469
20
-67.4824
11
148.469
21
-67.4824
0
LINE
8
BLACK
6
CONTINUOUS
10
148.469
20
-67.4824
11
148.469
21
-67.4861
0
LINE
8
BLACK
6
CONTINUOUS
10
148.469
20
-67.4861
11
148.468
21
-67.4908
0
LINE
8
BLACK
6
CONTINUOUS
10
148.468
20
-67.4908
11
148.465
21
-67.4952
0
LINE
8
BLACK
6
CONTINUOUS
10
148.465
20
-67.4952
11
148.462
21
-67.499
0
LINE
8
BLACK
6
CONTINUOUS
10
148.462
20
-67.499
11
148.458
21
-67.5021
0
LINE
8
BLACK
6
CONTINUOUS
10
148.458
20
-67.5021
11
148.454
21
-67.5044
0
LINE
8
BLACK
6
CONTINUOUS
10
148.454
20
-67.5044
11
148.449
21
-67.5058
0
LINE
8
BLACK
6
CONTINUOUS
10
148.449
20
-67.5058
11
148.444
21
-67.5063
0
LINE
8
BLACK
6
CONTINUOUS
10
148.444
20
-67.5063
11
148.443
21
-67.5062
0
LINE
8
BLACK
6
CONTINUOUS
10
148.443
20
-67.5062
11
145.486
21
-67.5062
0
LINE
8
BLACK
6
CONTINUOUS
10
145.486
20
-67.5062
11
145.484
21
-67.5063
0
LINE
8
BLACK
6
CONTINUOUS
10
145.484
20
-67.5063
11
145.479
21
-67.5058
0
LINE
8
BLACK
6
CONTINUOUS
10
145.479
20
-67.5058
11
145.475
21
-67.5044
0
LINE
8
BLACK
6
CONTINUOUS
10
145.475
20
-67.5044
11
145.47
21
-67.5021
0
LINE
8
BLACK
6
CONTINUOUS
10
145.47
20
-67.5021
11
145.467
21
-67.499
0
LINE
8
BLACK
6
CONTINUOUS
10
145.467
20
-67.499
11
145.464
21
-67.4952
0
LINE
8
BLACK
6
CONTINUOUS
10
145.464
20
-67.4952
11
145.461
21
-67.4908
0
LINE
8
BLACK
6
CONTINUOUS
10
145.461
20
-67.4908
11
145.46
21
-67.4861
0
LINE
8
BLACK
6
CONTINUOUS
10
145.46
20
-67.4861
11
145.459
21
-67.4812
0
LINE
8
BLACK
6
CONTINUOUS
10
145.459
20
-67.4812
11
145.459
21
-67.48
0
LINE
8
BLACK
6
CONTINUOUS
10
145.459
20
-67.48
11
145.459
21
-66.0224
0
LINE
8
BLACK
6
CONTINUOUS
10
145.459
20
-66.0224
11
145.459
21
-66.0212
0
LINE
8
BLACK
6
CONTINUOUS
10
145.459
20
-66.0212
11
145.46
21
-66.0163
0
LINE
8
BLACK
6
CONTINUOUS
10
145.46
20
-66.0163
11
145.461
21
-66.0116
0
LINE
8
BLACK
6
CONTINUOUS
10
145.461
20
-66.0116
11
145.464
21
-66.0072
0
LINE
8
BLACK
6
CONTINUOUS
10
145.464
20
-66.0072
11
145.467
21
-66.0034
0
LINE
8
BLACK
6
CONTINUOUS
10
145.467
20
-66.0034
11
145.47
21
-66.0003
0
LINE
8
BLACK
6
CONTINUOUS
10
145.47
20
-66.0003
11
145.475
21
-65.998
0
LINE
8
BLACK
6
CONTINUOUS
10
145.475
20
-65.998
11
145.479
21
-65.9966
0
LINE
8
BLACK
6
CONTINUOUS
10
145.479
20
-65.9966
11
145.483
21
-65.9962
0
LINE
8
BLACK
6
CONTINUOUS
10
145.483
20
-65.9962
11
145.483
21
-65.9962
0
LINE
8
BLACK
6
CONTINUOUS
10
145.483
20
-65.9962
11
145.484
21
-65.9961
0
LINE
8
BLACK
6
CONTINUOUS
10
145.484
20
-65.9961
11
145.486
21
-65.9962
0
LINE
8
BLACK
6
CONTINUOUS
10
145.486
20
-65.9962
11
148.443
21
-65.9962
0
LINE
8
BLACK
6
CONTINUOUS
10
148.443
20
-65.9962
11
148.444
21
-65.9961
0
LINE
8
BLACK
6
CONTINUOUS
10
148.444
20
-65.9961
11
148.446
21
-65.9962
0
LINE
8
BLACK
6
CONTINUOUS
10
145.509
20
-66.0462
11
145.509
21
-67.4562
0
LINE
8
BLACK
6
CONTINUOUS
10
145.509
20
-67.4562
11
148.419
21
-67.4562
0
LINE
8
BLACK
6
CONTINUOUS
10
148.419
20
-67.4562
11
148.419
21
-66.0462
0
LINE
8
BLACK
6
CONTINUOUS
10
148.419
20
-66.0462
11
145.509
21
-66.0462
0
LINE
8
BLACK
6
CONTINUOUS
10
141.003
20
-64.0722
11
141.003
21
-64.0722
0
LINE
8
BLACK
6
CONTINUOUS
10
141.003
20
-64.0722
11
141.006
21
-64.0726
0
LINE
8
BLACK
6
CONTINUOUS
10
141.006
20
-64.0726
11
141.011
21
-64.074
0
LINE
8
BLACK
6
CONTINUOUS
10
141.011
20
-64.074
11
141.015
21
-64.0763
0
LINE
8
BLACK
6
CONTINUOUS
10
141.015
20
-64.0763
11
141.019
21
-64.0795
0
LINE
8
BLACK
6
CONTINUOUS
10
141.019
20
-64.0795
11
141.022
21
-64.0833
0
LINE
8
BLACK
6
CONTINUOUS
10
141.022
20
-64.0833
11
141.025
21
-64.0876
0
LINE
8
BLACK
6
CONTINUOUS
10
141.025
20
-64.0876
11
141.026
21
-64.0923
0
LINE
8
BLACK
6
CONTINUOUS
10
141.026
20
-64.0923
11
141.027
21
-64.0972
0
LINE
8
BLACK
6
CONTINUOUS
10
141.027
20
-64.0972
11
141.026
21
-64.0984
0
LINE
8
BLACK
6
CONTINUOUS
10
141.026
20
-64.0984
11
141.026
21
-67.056
0
LINE
8
BLACK
6
CONTINUOUS
10
141.026
20
-67.056
11
141.027
21
-67.0572
0
LINE
8
BLACK
6
CONTINUOUS
10
141.027
20
-67.0572
11
141.026
21
-67.0584
0
LINE
8
BLACK
6
CONTINUOUS
10
141.026
20
-67.0584
11
141.026
21
-67.0584
0
LINE
8
BLACK
6
CONTINUOUS
10
141.026
20
-67.0584
11
141.026
21
-67.0621
0
LINE
8
BLACK
6
CONTINUOUS
10
141.026
20
-67.0621
11
141.025
21
-67.0668
0
LINE
8
BLACK
6
CONTINUOUS
10
141.025
20
-67.0668
11
141.022
21
-67.0712
0
LINE
8
BLACK
6
CONTINUOUS
10
141.022
20
-67.0712
11
141.019
21
-67.075
0
LINE
8
BLACK
6
CONTINUOUS
10
141.019
20
-67.075
11
141.015
21
-67.0781
0
LINE
8
BLACK
6
CONTINUOUS
10
141.015
20
-67.0781
11
141.011
21
-67.0804
0
LINE
8
BLACK
6
CONTINUOUS
10
141.011
20
-67.0804
11
141.006
21
-67.0819
0
LINE
8
BLACK
6
CONTINUOUS
10
141.006
20
-67.0819
11
141.001
21
-67.0823
0
LINE
8
BLACK
6
CONTINUOUS
10
141.001
20
-67.0823
11
141
21
-67.0822
0
LINE
8
BLACK
6
CONTINUOUS
10
141
20
-67.0822
11
139.543
21
-67.0822
0
LINE
8
BLACK
6
CONTINUOUS
10
139.543
20
-67.0822
11
139.541
21
-67.0823
0
LINE
8
BLACK
6
CONTINUOUS
10
139.541
20
-67.0823
11
139.537
21
-67.0819
0
LINE
8
BLACK
6
CONTINUOUS
10
139.537
20
-67.0819
11
139.532
21
-67.0804
0
LINE
8
BLACK
6
CONTINUOUS
10
139.532
20
-67.0804
11
139.528
21
-67.0781
0
LINE
8
BLACK
6
CONTINUOUS
10
139.528
20
-67.0781
11
139.524
21
-67.075
0
LINE
8
BLACK
6
CONTINUOUS
10
139.524
20
-67.075
11
139.522
21
-67.0728
0
LINE
8
BLACK
6
CONTINUOUS
10
139.522
20
-67.0728
11
139.521
21
-67.0712
0
LINE
8
BLACK
6
CONTINUOUS
10
139.521
20
-67.0712
11
139.518
21
-67.0668
0
LINE
8
BLACK
6
CONTINUOUS
10
139.518
20
-67.0668
11
139.517
21
-67.0621
0
LINE
8
BLACK
6
CONTINUOUS
10
139.517
20
-67.0621
11
139.516
21
-67.0572
0
LINE
8
BLACK
6
CONTINUOUS
10
139.516
20
-67.0572
11
139.517
21
-67.056
0
LINE
8
BLACK
6
CONTINUOUS
10
139.517
20
-67.056
11
139.517
21
-64.0984
0
LINE
8
BLACK
6
CONTINUOUS
10
139.517
20
-64.0984
11
139.516
21
-64.0972
0
LINE
8
BLACK
6
CONTINUOUS
10
139.516
20
-64.0972
11
139.517
21
-64.0923
0
LINE
8
BLACK
6
CONTINUOUS
10
139.517
20
-64.0923
11
139.518
21
-64.0876
0
LINE
8
BLACK
6
CONTINUOUS
10
139.518
20
-64.0876
11
139.521
21
-64.0833
0
LINE
8
BLACK
6
CONTINUOUS
10
139.521
20
-64.0833
11
139.524
21
-64.0795
0
LINE
8
BLACK
6
CONTINUOUS
10
139.524
20
-64.0795
11
139.528
21
-64.0763
0
LINE
8
BLACK
6
CONTINUOUS
10
139.528
20
-64.0763
11
139.532
21
-64.074
0
LINE
8
BLACK
6
CONTINUOUS
10
139.532
20
-64.074
11
139.537
21
-64.0726
0
LINE
8
BLACK
6
CONTINUOUS
10
139.537
20
-64.0726
11
139.54
21
-64.0722
0
LINE
8
BLACK
6
CONTINUOUS
10
139.54
20
-64.0722
11
139.54
21
-64.0722
0
LINE
8
BLACK
6
CONTINUOUS
10
139.54
20
-64.0722
11
139.541
21
-64.0721
0
LINE
8
BLACK
6
CONTINUOUS
10
139.541
20
-64.0721
11
139.543
21
-64.0722
0
LINE
8
BLACK
6
CONTINUOUS
10
139.543
20
-64.0722
11
141
21
-64.0722
0
LINE
8
BLACK
6
CONTINUOUS
10
141
20
-64.0722
11
141.001
21
-64.0721
0
LINE
8
BLACK
6
CONTINUOUS
10
141.001
20
-64.0721
11
141.003
21
-64.0722
0
LINE
8
BLACK
6
CONTINUOUS
10
139.566
20
-64.1222
11
139.566
21
-67.0322
0
LINE
8
BLACK
6
CONTINUOUS
10
139.566
20
-67.0322
11
140.977
21
-67.0322
0
LINE
8
BLACK
6
CONTINUOUS
10
140.977
20
-67.0322
11
140.976
21
-64.1222
0
LINE
8
BLACK
6
CONTINUOUS
10
140.976
20
-64.1222
11
139.566
21
-64.1222
0
LINE
8
BLACK
6
CONTINUOUS
10
142.552
20
-64.0701
11
142.552
21
-64.0701
0
LINE
8
BLACK
6
CONTINUOUS
10
142.552
20
-64.0701
11
142.556
21
-64.0704
0
LINE
8
BLACK
6
CONTINUOUS
10
142.556
20
-64.0704
11
142.561
21
-64.0719
0
LINE
8
BLACK
6
CONTINUOUS
10
142.561
20
-64.0719
11
142.565
21
-64.0742
0
LINE
8
BLACK
6
CONTINUOUS
10
142.565
20
-64.0742
11
142.569
21
-64.0773
0
LINE
8
BLACK
6
CONTINUOUS
10
142.569
20
-64.0773
11
142.572
21
-64.0811
0
LINE
8
BLACK
6
CONTINUOUS
10
142.572
20
-64.0811
11
142.574
21
-64.0855
0
LINE
8
BLACK
6
CONTINUOUS
10
142.574
20
-64.0855
11
142.576
21
-64.0902
0
LINE
8
BLACK
6
CONTINUOUS
10
142.576
20
-64.0902
11
142.576
21
-64.0951
0
LINE
8
BLACK
6
CONTINUOUS
10
142.576
20
-64.0951
11
142.576
21
-64.0963
0
LINE
8
BLACK
6
CONTINUOUS
10
142.576
20
-64.0963
11
142.576
21
-67.0539
0
LINE
8
BLACK
6
CONTINUOUS
10
142.576
20
-67.0539
11
142.576
21
-67.0551
0
LINE
8
BLACK
6
CONTINUOUS
10
142.576
20
-67.0551
11
142.576
21
-67.0563
0
LINE
8
BLACK
6
CONTINUOUS
10
142.576
20
-67.0563
11
142.576
21
-67.0563
0
LINE
8
BLACK
6
CONTINUOUS
10
142.576
20
-67.0563
11
142.576
21
-67.06
0
LINE
8
BLACK
6
CONTINUOUS
10
142.576
20
-67.06
11
142.574
21
-67.0647
0
LINE
8
BLACK
6
CONTINUOUS
10
142.574
20
-67.0647
11
142.572
21
-67.069
0
LINE
8
BLACK
6
CONTINUOUS
10
142.572
20
-67.069
11
142.569
21
-67.0728
0
LINE
8
BLACK
6
CONTINUOUS
10
142.569
20
-67.0728
11
142.565
21
-67.076
0
LINE
8
BLACK
6
CONTINUOUS
10
142.565
20
-67.076
11
142.561
21
-67.0783
0
LINE
8
BLACK
6
CONTINUOUS
10
142.561
20
-67.0783
11
142.556
21
-67.0797
0
LINE
8
BLACK
6
CONTINUOUS
10
142.556
20
-67.0797
11
142.551
21
-67.0802
0
LINE
8
BLACK
6
CONTINUOUS
10
142.551
20
-67.0802
11
142.55
21
-67.0801
0
LINE
8
BLACK
6
CONTINUOUS
10
142.55
20
-67.0801
11
141.092
21
-67.0801
0
LINE
8
BLACK
6
CONTINUOUS
10
141.092
20
-67.0801
11
141.091
21
-67.0802
0
LINE
8
BLACK
6
CONTINUOUS
10
141.091
20
-67.0802
11
141.086
21
-67.0797
0
LINE
8
BLACK
6
CONTINUOUS
10
141.086
20
-67.0797
11
141.081
21
-67.0783
0
LINE
8
BLACK
6
CONTINUOUS
10
141.081
20
-67.0783
11
141.077
21
-67.076
0
LINE
8
BLACK
6
CONTINUOUS
10
141.077
20
-67.076
11
141.073
21
-67.0728
0
LINE
8
BLACK
6
CONTINUOUS
10
141.073
20
-67.0728
11
141.072
21
-67.0712
0
LINE
8
BLACK
6
CONTINUOUS
10
141.072
20
-67.0712
11
141.07
21
-67.069
0
LINE
8
BLACK
6
CONTINUOUS
10
141.07
20
-67.069
11
141.068
21
-67.0647
0
LINE
8
BLACK
6
CONTINUOUS
10
141.068
20
-67.0647
11
141.066
21
-67.06
0
LINE
8
BLACK
6
CONTINUOUS
10
141.066
20
-67.06
11
141.066
21
-67.0551
0
LINE
8
BLACK
6
CONTINUOUS
10
141.066
20
-67.0551
11
141.066
21
-67.0539
0
LINE
8
BLACK
6
CONTINUOUS
10
141.066
20
-67.0539
11
141.066
21
-64.0963
0
LINE
8
BLACK
6
CONTINUOUS
10
141.066
20
-64.0963
11
141.066
21
-64.0951
0
LINE
8
BLACK
6
CONTINUOUS
10
141.066
20
-64.0951
11
141.066
21
-64.0902
0
LINE
8
BLACK
6
CONTINUOUS
10
141.066
20
-64.0902
11
141.068
21
-64.0855
0
LINE
8
BLACK
6
CONTINUOUS
10
141.068
20
-64.0855
11
141.07
21
-64.0811
0
LINE
8
BLACK
6
CONTINUOUS
10
141.07
20
-64.0811
11
141.073
21
-64.0773
0
LINE
8
BLACK
6
CONTINUOUS
10
141.073
20
-64.0773
11
141.077
21
-64.0742
0
LINE
8
BLACK
6
CONTINUOUS
10
141.077
20
-64.0742
11
141.081
21
-64.0719
0
LINE
8
BLACK
6
CONTINUOUS
10
141.081
20
-64.0719
11
141.086
21
-64.0704
0
LINE
8
BLACK
6
CONTINUOUS
10
141.086
20
-64.0704
11
141.09
21
-64.0701
0
LINE
8
BLACK
6
CONTINUOUS
10
141.09
20
-64.0701
11
141.09
21
-64.0701
0
LINE
8
BLACK
6
CONTINUOUS
10
141.09
20
-64.0701
11
141.091
21
-64.07
0
LINE
8
BLACK
6
CONTINUOUS
10
141.091
20
-64.07
11
141.092
21
-64.0701
0
LINE
8
BLACK
6
CONTINUOUS
10
141.092
20
-64.0701
11
142.55
21
-64.0701
0
LINE
8
BLACK
6
CONTINUOUS
10
142.55
20
-64.0701
11
142.551
21
-64.07
0
LINE
8
BLACK
6
CONTINUOUS
10
142.551
20
-64.07
11
142.552
21
-64.0701
0
LINE
8
BLACK
6
CONTINUOUS
10
141.116
20
-64.1201
11
141.116
21
-67.0301
0
LINE
8
BLACK
6
CONTINUOUS
10
141.116
20
-67.0301
11
142.526
21
-67.0301
0
LINE
8
BLACK
6
CONTINUOUS
10
142.526
20
-67.0301
11
142.526
21
-64.1201
0
LINE
8
BLACK
6
CONTINUOUS
10
142.526
20
-64.1201
11
141.116
21
-64.1201
0
LINE
8
BLACK
6
CONTINUOUS
10
160.792
20
-64.5179
11
160.792
21
-64.5179
0
LINE
8
BLACK
6
CONTINUOUS
10
160.792
20
-64.5179
11
160.796
21
-64.5183
0
LINE
8
BLACK
6
CONTINUOUS
10
160.796
20
-64.5183
11
160.801
21
-64.5197
0
LINE
8
BLACK
6
CONTINUOUS
10
160.801
20
-64.5197
11
160.805
21
-64.522
0
LINE
8
BLACK
6
CONTINUOUS
10
160.805
20
-64.522
11
160.809
21
-64.5252
0
LINE
8
BLACK
6
CONTINUOUS
10
160.809
20
-64.5252
11
160.812
21
-64.529
0
LINE
8
BLACK
6
CONTINUOUS
10
160.812
20
-64.529
11
160.814
21
-64.5333
0
LINE
8
BLACK
6
CONTINUOUS
10
160.814
20
-64.5333
11
160.816
21
-64.538
0
LINE
8
BLACK
6
CONTINUOUS
10
160.816
20
-64.538
11
160.816
21
-64.5429
0
LINE
8
BLACK
6
CONTINUOUS
10
160.816
20
-64.5429
11
160.816
21
-64.5441
0
LINE
8
BLACK
6
CONTINUOUS
10
160.816
20
-64.5441
11
160.816
21
-66.0017
0
LINE
8
BLACK
6
CONTINUOUS
10
160.816
20
-66.0017
11
160.816
21
-66.0029
0
LINE
8
BLACK
6
CONTINUOUS
10
160.816
20
-66.0029
11
160.816
21
-66.0041
0
LINE
8
BLACK
6
CONTINUOUS
10
160.816
20
-66.0041
11
160.816
21
-66.0041
0
LINE
8
BLACK
6
CONTINUOUS
10
160.816
20
-66.0041
11
160.816
21
-66.0078
0
LINE
8
BLACK
6
CONTINUOUS
10
160.816
20
-66.0078
11
160.814
21
-66.0125
0
LINE
8
BLACK
6
CONTINUOUS
10
160.814
20
-66.0125
11
160.812
21
-66.0169
0
LINE
8
BLACK
6
CONTINUOUS
10
160.812
20
-66.0169
11
160.809
21
-66.0207
0
LINE
8
BLACK
6
CONTINUOUS
10
160.809
20
-66.0207
11
160.805
21
-66.0238
0
LINE
8
BLACK
6
CONTINUOUS
10
160.805
20
-66.0238
11
160.801
21
-66.0261
0
LINE
8
BLACK
6
CONTINUOUS
10
160.801
20
-66.0261
11
160.796
21
-66.0276
0
LINE
8
BLACK
6
CONTINUOUS
10
160.796
20
-66.0276
11
160.791
21
-66.028
0
LINE
8
BLACK
6
CONTINUOUS
10
160.791
20
-66.028
11
160.79
21
-66.0279
0
LINE
8
BLACK
6
CONTINUOUS
10
160.79
20
-66.0279
11
157.832
21
-66.0279
0
LINE
8
BLACK
6
CONTINUOUS
10
157.832
20
-66.0279
11
157.831
21
-66.028
0
LINE
8
BLACK
6
CONTINUOUS
10
157.831
20
-66.028
11
157.826
21
-66.0276
0
LINE
8
BLACK
6
CONTINUOUS
10
157.826
20
-66.0276
11
157.821
21
-66.0261
0
LINE
8
BLACK
6
CONTINUOUS
10
157.821
20
-66.0261
11
157.817
21
-66.0238
0
LINE
8
BLACK
6
CONTINUOUS
10
157.817
20
-66.0238
11
157.813
21
-66.0207
0
LINE
8
BLACK
6
CONTINUOUS
10
157.813
20
-66.0207
11
157.811
21
-66.0184
0
LINE
8
BLACK
6
CONTINUOUS
10
157.811
20
-66.0184
11
157.81
21
-66.0169
0
LINE
8
BLACK
6
CONTINUOUS
10
157.81
20
-66.0169
11
157.808
21
-66.0125
0
LINE
8
BLACK
6
CONTINUOUS
10
157.808
20
-66.0125
11
157.806
21
-66.0078
0
LINE
8
BLACK
6
CONTINUOUS
10
157.806
20
-66.0078
11
157.806
21
-66.0029
0
LINE
8
BLACK
6
CONTINUOUS
10
157.806
20
-66.0029
11
157.806
21
-66.0017
0
LINE
8
BLACK
6
CONTINUOUS
10
157.806
20
-66.0017
11
157.806
21
-64.5441
0
LINE
8
BLACK
6
CONTINUOUS
10
157.806
20
-64.5441
11
157.806
21
-64.5429
0
LINE
8
BLACK
6
CONTINUOUS
10
157.806
20
-64.5429
11
157.806
21
-64.538
0
LINE
8
BLACK
6
CONTINUOUS
10
157.806
20
-64.538
11
157.808
21
-64.5333
0
LINE
8
BLACK
6
CONTINUOUS
10
157.808
20
-64.5333
11
157.81
21
-64.529
0
LINE
8
BLACK
6
CONTINUOUS
10
157.81
20
-64.529
11
157.813
21
-64.5252
0
LINE
8
BLACK
6
CONTINUOUS
10
157.813
20
-64.5252
11
157.817
21
-64.522
0
LINE
8
BLACK
6
CONTINUOUS
10
157.817
20
-64.522
11
157.821
21
-64.5197
0
LINE
8
BLACK
6
CONTINUOUS
10
157.821
20
-64.5197
11
157.826
21
-64.5183
0
LINE
8
BLACK
6
CONTINUOUS
10
157.826
20
-64.5183
11
157.83
21
-64.5179
0
LINE
8
BLACK
6
CONTINUOUS
10
157.83
20
-64.5179
11
157.83
21
-64.5179
0
LINE
8
BLACK
6
CONTINUOUS
10
157.83
20
-64.5179
11
157.831
21
-64.5178
0
LINE
8
BLACK
6
CONTINUOUS
10
157.831
20
-64.5178
11
157.832
21
-64.5179
0
LINE
8
BLACK
6
CONTINUOUS
10
157.832
20
-64.5179
11
160.79
21
-64.5179
0
LINE
8
BLACK
6
CONTINUOUS
10
160.79
20
-64.5179
11
160.791
21
-64.5178
0
LINE
8
BLACK
6
CONTINUOUS
10
160.791
20
-64.5178
11
160.792
21
-64.5179
0
LINE
8
BLACK
6
CONTINUOUS
10
157.856
20
-64.5679
11
157.856
21
-65.9779
0
LINE
8
BLACK
6
CONTINUOUS
10
157.856
20
-65.9779
11
160.766
21
-65.9779
0
LINE
8
BLACK
6
CONTINUOUS
10
160.766
20
-65.9779
11
160.766
21
-64.5679
0
LINE
8
BLACK
6
CONTINUOUS
10
160.766
20
-64.5679
11
157.856
21
-64.5679
0
LINE
8
BLACK
6
CONTINUOUS
10
157.602
20
-62.4725
11
157.602
21
-62.4725
0
LINE
8
BLACK
6
CONTINUOUS
10
157.602
20
-62.4725
11
157.606
21
-62.4729
0
LINE
8
BLACK
6
CONTINUOUS
10
157.606
20
-62.4729
11
157.611
21
-62.4743
0
LINE
8
BLACK
6
CONTINUOUS
10
157.611
20
-62.4743
11
157.615
21
-62.4767
0
LINE
8
BLACK
6
CONTINUOUS
10
157.615
20
-62.4767
11
157.619
21
-62.4798
0
LINE
8
BLACK
6
CONTINUOUS
10
157.619
20
-62.4798
11
157.622
21
-62.4836
0
LINE
8
BLACK
6
CONTINUOUS
10
157.622
20
-62.4836
11
157.624
21
-62.4879
0
LINE
8
BLACK
6
CONTINUOUS
10
157.624
20
-62.4879
11
157.626
21
-62.4926
0
LINE
8
BLACK
6
CONTINUOUS
10
157.626
20
-62.4926
11
157.626
21
-62.4975
0
LINE
8
BLACK
6
CONTINUOUS
10
157.626
20
-62.4975
11
157.626
21
-62.4988
0
LINE
8
BLACK
6
CONTINUOUS
10
157.626
20
-62.4988
11
157.626
21
-65.9963
0
LINE
8
BLACK
6
CONTINUOUS
10
157.626
20
-65.9963
11
157.626
21
-65.9975
0
LINE
8
BLACK
6
CONTINUOUS
10
157.626
20
-65.9975
11
157.626
21
-65.9988
0
LINE
8
BLACK
6
CONTINUOUS
10
157.626
20
-65.9988
11
157.626
21
-65.9988
0
LINE
8
BLACK
6
CONTINUOUS
10
157.626
20
-65.9988
11
157.626
21
-66.0024
0
LINE
8
BLACK
6
CONTINUOUS
10
157.626
20
-66.0024
11
157.624
21
-66.0072
0
LINE
8
BLACK
6
CONTINUOUS
10
157.624
20
-66.0072
11
157.622
21
-66.0115
0
LINE
8
BLACK
6
CONTINUOUS
10
157.622
20
-66.0115
11
157.619
21
-66.0153
0
LINE
8
BLACK
6
CONTINUOUS
10
157.619
20
-66.0153
11
157.615
21
-66.0184
0
LINE
8
BLACK
6
CONTINUOUS
10
157.615
20
-66.0184
11
157.611
21
-66.0207
0
LINE
8
BLACK
6
CONTINUOUS
10
157.611
20
-66.0207
11
157.606
21
-66.0222
0
LINE
8
BLACK
6
CONTINUOUS
10
157.606
20
-66.0222
11
157.601
21
-66.0227
0
LINE
8
BLACK
6
CONTINUOUS
10
157.601
20
-66.0227
11
157.6
21
-66.0225
0
LINE
8
BLACK
6
CONTINUOUS
10
157.6
20
-66.0225
11
155.902
21
-66.0225
0
LINE
8
BLACK
6
CONTINUOUS
10
155.902
20
-66.0225
11
155.901
21
-66.0227
0
LINE
8
BLACK
6
CONTINUOUS
10
155.901
20
-66.0227
11
155.896
21
-66.0222
0
LINE
8
BLACK
6
CONTINUOUS
10
155.896
20
-66.0222
11
155.891
21
-66.0207
0
LINE
8
BLACK
6
CONTINUOUS
10
155.891
20
-66.0207
11
155.887
21
-66.0184
0
LINE
8
BLACK
6
CONTINUOUS
10
155.887
20
-66.0184
11
155.883
21
-66.0153
0
LINE
8
BLACK
6
CONTINUOUS
10
155.883
20
-66.0153
11
155.88
21
-66.0115
0
LINE
8
BLACK
6
CONTINUOUS
10
155.88
20
-66.0115
11
155.878
21
-66.0072
0
LINE
8
BLACK
6
CONTINUOUS
10
155.878
20
-66.0072
11
155.876
21
-66.0024
0
LINE
8
BLACK
6
CONTINUOUS
10
155.876
20
-66.0024
11
155.876
21
-65.9975
0
LINE
8
BLACK
6
CONTINUOUS
10
155.876
20
-65.9975
11
155.876
21
-65.9963
0
LINE
8
BLACK
6
CONTINUOUS
10
155.876
20
-65.9963
11
155.876
21
-62.4988
0
LINE
8
BLACK
6
CONTINUOUS
10
155.876
20
-62.4988
11
155.876
21
-62.4975
0
LINE
8
BLACK
6
CONTINUOUS
10
155.876
20
-62.4975
11
155.876
21
-62.4926
0
LINE
8
BLACK
6
CONTINUOUS
10
155.876
20
-62.4926
11
155.878
21
-62.4879
0
LINE
8
BLACK
6
CONTINUOUS
10
155.878
20
-62.4879
11
155.88
21
-62.4836
0
LINE
8
BLACK
6
CONTINUOUS
10
155.88
20
-62.4836
11
155.883
21
-62.4798
0
LINE
8
BLACK
6
CONTINUOUS
10
155.883
20
-62.4798
11
155.887
21
-62.4767
0
LINE
8
BLACK
6
CONTINUOUS
10
155.887
20
-62.4767
11
155.891
21
-62.4743
0
LINE
8
BLACK
6
CONTINUOUS
10
155.891
20
-62.4743
11
155.896
21
-62.4729
0
LINE
8
BLACK
6
CONTINUOUS
10
155.896
20
-62.4729
11
155.9
21
-62.4725
0
LINE
8
BLACK
6
CONTINUOUS
10
155.9
20
-62.4725
11
155.9
21
-62.4725
0
LINE
8
BLACK
6
CONTINUOUS
10
155.9
20
-62.4725
11
155.901
21
-62.4724
0
LINE
8
BLACK
6
CONTINUOUS
10
155.901
20
-62.4724
11
155.902
21
-62.4725
0
LINE
8
BLACK
6
CONTINUOUS
10
155.902
20
-62.4725
11
157.6
21
-62.4725
0
LINE
8
BLACK
6
CONTINUOUS
10
157.6
20
-62.4725
11
157.601
21
-62.4724
0
LINE
8
BLACK
6
CONTINUOUS
10
157.601
20
-62.4724
11
157.602
21
-62.4725
0
LINE
8
BLACK
6
CONTINUOUS
10
155.926
20
-62.5225
11
155.926
21
-65.9725
0
LINE
8
BLACK
6
CONTINUOUS
10
155.926
20
-65.9725
11
157.576
21
-65.9725
0
LINE
8
BLACK
6
CONTINUOUS
10
157.576
20
-65.9725
11
157.576
21
-62.5225
0
LINE
8
BLACK
6
CONTINUOUS
10
157.576
20
-62.5225
11
155.926
21
-62.5225
0
LINE
8
BLACK
6
CONTINUOUS
10
110.175
20
-62.691
11
110.175
21
-62.691
0
LINE
8
BLACK
6
CONTINUOUS
10
110.175
20
-62.691
11
110.178
21
-62.6913
0
LINE
8
BLACK
6
CONTINUOUS
10
110.178
20
-62.6913
11
110.183
21
-62.6928
0
LINE
8
BLACK
6
CONTINUOUS
10
110.183
20
-62.6928
11
110.187
21
-62.6951
0
LINE
8
BLACK
6
CONTINUOUS
10
110.187
20
-62.6951
11
110.191
21
-62.6982
0
LINE
8
BLACK
6
CONTINUOUS
10
110.191
20
-62.6982
11
110.194
21
-62.702
0
LINE
8
BLACK
6
CONTINUOUS
10
110.194
20
-62.702
11
110.197
21
-62.7063
0
LINE
8
BLACK
6
CONTINUOUS
10
110.197
20
-62.7063
11
110.198
21
-62.7111
0
LINE
8
BLACK
6
CONTINUOUS
10
110.198
20
-62.7111
11
110.199
21
-62.716
0
LINE
8
BLACK
6
CONTINUOUS
10
110.199
20
-62.716
11
110.199
21
-62.7172
0
LINE
8
BLACK
6
CONTINUOUS
10
110.199
20
-62.7172
11
110.199
21
-65.6747
0
LINE
8
BLACK
6
CONTINUOUS
10
110.199
20
-65.6747
11
110.199
21
-65.676
0
LINE
8
BLACK
6
CONTINUOUS
10
110.199
20
-65.676
11
110.199
21
-65.6772
0
LINE
8
BLACK
6
CONTINUOUS
10
110.199
20
-65.6772
11
110.199
21
-65.6772
0
LINE
8
BLACK
6
CONTINUOUS
10
110.199
20
-65.6772
11
110.198
21
-65.6809
0
LINE
8
BLACK
6
CONTINUOUS
10
110.198
20
-65.6809
11
110.197
21
-65.6856
0
LINE
8
BLACK
6
CONTINUOUS
10
110.197
20
-65.6856
11
110.194
21
-65.6899
0
LINE
8
BLACK
6
CONTINUOUS
10
110.194
20
-65.6899
11
110.191
21
-65.6937
0
LINE
8
BLACK
6
CONTINUOUS
10
110.191
20
-65.6937
11
110.187
21
-65.6968
0
LINE
8
BLACK
6
CONTINUOUS
10
110.187
20
-65.6968
11
110.183
21
-65.6992
0
LINE
8
BLACK
6
CONTINUOUS
10
110.183
20
-65.6992
11
110.178
21
-65.7006
0
LINE
8
BLACK
6
CONTINUOUS
10
110.178
20
-65.7006
11
110.174
21
-65.7011
0
LINE
8
BLACK
6
CONTINUOUS
10
110.174
20
-65.7011
11
110.172
21
-65.701
0
LINE
8
BLACK
6
CONTINUOUS
10
110.172
20
-65.701
11
108.715
21
-65.701
0
LINE
8
BLACK
6
CONTINUOUS
10
108.715
20
-65.701
11
108.714
21
-65.7011
0
LINE
8
BLACK
6
CONTINUOUS
10
108.714
20
-65.7011
11
108.709
21
-65.7006
0
LINE
8
BLACK
6
CONTINUOUS
10
108.709
20
-65.7006
11
108.704
21
-65.6992
0
LINE
8
BLACK
6
CONTINUOUS
10
108.704
20
-65.6992
11
108.7
21
-65.6968
0
LINE
8
BLACK
6
CONTINUOUS
10
108.7
20
-65.6968
11
108.696
21
-65.6937
0
LINE
8
BLACK
6
CONTINUOUS
10
108.696
20
-65.6937
11
108.693
21
-65.6899
0
LINE
8
BLACK
6
CONTINUOUS
10
108.693
20
-65.6899
11
108.69
21
-65.6856
0
LINE
8
BLACK
6
CONTINUOUS
10
108.69
20
-65.6856
11
108.689
21
-65.6809
0
LINE
8
BLACK
6
CONTINUOUS
10
108.689
20
-65.6809
11
108.688
21
-65.676
0
LINE
8
BLACK
6
CONTINUOUS
10
108.688
20
-65.676
11
108.689
21
-65.6747
0
LINE
8
BLACK
6
CONTINUOUS
10
108.689
20
-65.6747
11
108.689
21
-62.7172
0
LINE
8
BLACK
6
CONTINUOUS
10
108.689
20
-62.7172
11
108.688
21
-62.716
0
LINE
8
BLACK
6
CONTINUOUS
10
108.688
20
-62.716
11
108.689
21
-62.7111
0
LINE
8
BLACK
6
CONTINUOUS
10
108.689
20
-62.7111
11
108.69
21
-62.7063
0
LINE
8
BLACK
6
CONTINUOUS
10
108.69
20
-62.7063
11
108.693
21
-62.702
0
LINE
8
BLACK
6
CONTINUOUS
10
108.693
20
-62.702
11
108.696
21
-62.6982
0
LINE
8
BLACK
6
CONTINUOUS
10
108.696
20
-62.6982
11
108.7
21
-62.6951
0
LINE
8
BLACK
6
CONTINUOUS
10
108.7
20
-62.6951
11
108.704
21
-62.6928
0
LINE
8
BLACK
6
CONTINUOUS
10
108.704
20
-62.6928
11
108.709
21
-62.6913
0
LINE
8
BLACK
6
CONTINUOUS
10
108.709
20
-62.6913
11
108.712
21
-62.691
0
LINE
8
BLACK
6
CONTINUOUS
10
108.712
20
-62.691
11
108.712
21
-62.691
0
LINE
8
BLACK
6
CONTINUOUS
10
108.712
20
-62.691
11
108.714
21
-62.6908
0
LINE
8
BLACK
6
CONTINUOUS
10
108.714
20
-62.6908
11
108.715
21
-62.691
0
LINE
8
BLACK
6
CONTINUOUS
10
108.715
20
-62.691
11
110.172
21
-62.691
0
LINE
8
BLACK
6
CONTINUOUS
10
110.172
20
-62.691
11
110.174
21
-62.6908
0
LINE
8
BLACK
6
CONTINUOUS
10
110.174
20
-62.6908
11
110.175
21
-62.691
0
LINE
8
BLACK
6
CONTINUOUS
10
108.739
20
-62.741
11
108.739
21
-65.651
0
LINE
8
BLACK
6
CONTINUOUS
10
108.739
20
-65.651
11
110.149
21
-65.651
0
LINE
8
BLACK
6
CONTINUOUS
10
110.149
20
-65.651
11
110.149
21
-62.741
0
LINE
8
BLACK
6
CONTINUOUS
10
110.149
20
-62.741
11
108.739
21
-62.741
0
LINE
8
BLACK
6
CONTINUOUS
10
137.63
20
-64.7933
11
137.625
21
-64.7919
0
LINE
8
BLACK
6
CONTINUOUS
10
137.625
20
-64.7919
11
137.621
21
-64.7896
0
LINE
8
BLACK
6
CONTINUOUS
10
137.621
20
-64.7896
11
137.618
21
-64.7872
0
LINE
8
BLACK
6
CONTINUOUS
10
137.618
20
-64.7872
11
137.618
21
-64.7872
0
LINE
8
BLACK
6
CONTINUOUS
10
137.618
20
-64.7872
11
137.617
21
-64.7865
0
LINE
8
BLACK
6
CONTINUOUS
10
137.617
20
-64.7865
11
137.616
21
-64.7855
0
LINE
8
BLACK
6
CONTINUOUS
10
137.616
20
-64.7855
11
136.586
21
-63.7549
0
LINE
8
BLACK
6
CONTINUOUS
10
136.586
20
-63.7549
11
136.585
21
-63.7541
0
LINE
8
BLACK
6
CONTINUOUS
10
136.585
20
-63.7541
11
136.582
21
-63.7503
0
LINE
8
BLACK
6
CONTINUOUS
10
136.582
20
-63.7503
11
136.579
21
-63.7459
0
LINE
8
BLACK
6
CONTINUOUS
10
136.579
20
-63.7459
11
136.578
21
-63.7412
0
LINE
8
BLACK
6
CONTINUOUS
10
136.578
20
-63.7412
11
136.577
21
-63.7363
0
LINE
8
BLACK
6
CONTINUOUS
10
136.577
20
-63.7363
11
136.578
21
-63.7314
0
LINE
8
BLACK
6
CONTINUOUS
10
136.578
20
-63.7314
11
136.579
21
-63.7267
0
LINE
8
BLACK
6
CONTINUOUS
10
136.579
20
-63.7267
11
136.582
21
-63.7224
0
LINE
8
BLACK
6
CONTINUOUS
10
136.582
20
-63.7224
11
136.584
21
-63.7195
0
LINE
8
BLACK
6
CONTINUOUS
10
136.584
20
-63.7195
11
136.585
21
-63.7186
0
LINE
8
BLACK
6
CONTINUOUS
10
136.585
20
-63.7186
11
136.586
21
-63.7178
0
LINE
8
BLACK
6
CONTINUOUS
10
136.586
20
-63.7178
11
138.677
21
-61.6265
0
LINE
8
BLACK
6
CONTINUOUS
10
138.677
20
-61.6265
11
138.678
21
-61.6255
0
LINE
8
BLACK
6
CONTINUOUS
10
138.678
20
-61.6255
11
138.679
21
-61.6248
0
LINE
8
BLACK
6
CONTINUOUS
10
138.679
20
-61.6248
11
138.679
21
-61.6247
0
LINE
8
BLACK
6
CONTINUOUS
10
138.679
20
-61.6247
11
138.682
21
-61.6224
0
LINE
8
BLACK
6
CONTINUOUS
10
138.682
20
-61.6224
11
138.686
21
-61.6201
0
LINE
8
BLACK
6
CONTINUOUS
10
138.686
20
-61.6201
11
138.691
21
-61.6186
0
LINE
8
BLACK
6
CONTINUOUS
10
138.691
20
-61.6186
11
138.696
21
-61.6182
0
LINE
8
BLACK
6
CONTINUOUS
10
138.696
20
-61.6182
11
138.7
21
-61.6186
0
LINE
8
BLACK
6
CONTINUOUS
10
138.7
20
-61.6186
11
138.705
21
-61.6201
0
LINE
8
BLACK
6
CONTINUOUS
10
138.705
20
-61.6201
11
138.709
21
-61.6224
0
LINE
8
BLACK
6
CONTINUOUS
10
138.709
20
-61.6224
11
138.713
21
-61.6255
0
LINE
8
BLACK
6
CONTINUOUS
10
138.713
20
-61.6255
11
138.714
21
-61.6265
0
LINE
8
BLACK
6
CONTINUOUS
10
138.714
20
-61.6265
11
139.745
21
-62.6571
0
LINE
8
BLACK
6
CONTINUOUS
10
139.745
20
-62.6571
11
139.746
21
-62.6579
0
LINE
8
BLACK
6
CONTINUOUS
10
139.746
20
-62.6579
11
139.746
21
-62.6588
0
LINE
8
BLACK
6
CONTINUOUS
10
139.746
20
-62.6588
11
139.746
21
-62.6588
0
LINE
8
BLACK
6
CONTINUOUS
10
139.746
20
-62.6588
11
139.749
21
-62.6617
0
LINE
8
BLACK
6
CONTINUOUS
10
139.749
20
-62.6617
11
139.749
21
-62.6628
0
LINE
8
BLACK
6
CONTINUOUS
10
139.749
20
-62.6628
11
139.751
21
-62.666
0
LINE
8
BLACK
6
CONTINUOUS
10
139.751
20
-62.666
11
139.753
21
-62.6708
0
LINE
8
BLACK
6
CONTINUOUS
10
139.753
20
-62.6708
11
139.753
21
-62.6757
0
LINE
8
BLACK
6
CONTINUOUS
10
139.753
20
-62.6757
11
139.753
21
-62.6806
0
LINE
8
BLACK
6
CONTINUOUS
10
139.753
20
-62.6806
11
139.751
21
-62.6853
0
LINE
8
BLACK
6
CONTINUOUS
10
139.751
20
-62.6853
11
139.749
21
-62.6896
0
LINE
8
BLACK
6
CONTINUOUS
10
139.749
20
-62.6896
11
139.746
21
-62.6925
0
LINE
8
BLACK
6
CONTINUOUS
10
139.746
20
-62.6925
11
139.746
21
-62.6925
0
LINE
8
BLACK
6
CONTINUOUS
10
139.746
20
-62.6925
11
139.746
21
-62.6934
0
LINE
8
BLACK
6
CONTINUOUS
10
139.746
20
-62.6934
11
139.745
21
-62.6942
0
LINE
8
BLACK
6
CONTINUOUS
10
139.745
20
-62.6942
11
137.653
21
-64.7855
0
LINE
8
BLACK
6
CONTINUOUS
10
137.653
20
-64.7855
11
137.653
21
-64.7865
0
LINE
8
BLACK
6
CONTINUOUS
10
137.653
20
-64.7865
11
137.652
21
-64.7872
0
LINE
8
BLACK
6
CONTINUOUS
10
137.652
20
-64.7872
11
137.649
21
-64.7896
0
LINE
8
BLACK
6
CONTINUOUS
10
137.649
20
-64.7896
11
137.644
21
-64.7919
0
LINE
8
BLACK
6
CONTINUOUS
10
137.644
20
-64.7919
11
137.64
21
-64.7933
0
LINE
8
BLACK
6
CONTINUOUS
10
137.64
20
-64.7933
11
137.635
21
-64.7938
0
LINE
8
BLACK
6
CONTINUOUS
10
137.635
20
-64.7938
11
137.635
21
-64.7938
0
LINE
8
BLACK
6
CONTINUOUS
10
137.635
20
-64.7938
11
137.63
21
-64.7933
0
LINE
8
BLACK
6
CONTINUOUS
10
136.638
20
-63.7363
11
137.635
21
-64.7333
0
LINE
8
BLACK
6
CONTINUOUS
10
137.635
20
-64.7333
11
139.693
21
-62.6757
0
LINE
8
BLACK
6
CONTINUOUS
10
139.693
20
-62.6757
11
138.696
21
-61.6786
0
LINE
8
BLACK
6
CONTINUOUS
10
138.696
20
-61.6786
11
136.638
21
-63.7363
0
LINE
8
BLACK
6
CONTINUOUS
10
105.811
20
-62.7348
11
105.811
21
-62.7348
0
LINE
8
BLACK
6
CONTINUOUS
10
105.811
20
-62.7348
11
105.815
21
-62.7352
0
LINE
8
BLACK
6
CONTINUOUS
10
105.815
20
-62.7352
11
105.82
21
-62.7366
0
LINE
8
BLACK
6
CONTINUOUS
10
105.82
20
-62.7366
11
105.824
21
-62.739
0
LINE
8
BLACK
6
CONTINUOUS
10
105.824
20
-62.739
11
105.828
21
-62.7421
0
LINE
8
BLACK
6
CONTINUOUS
10
105.828
20
-62.7421
11
105.831
21
-62.7459
0
LINE
8
BLACK
6
CONTINUOUS
10
105.831
20
-62.7459
11
105.833
21
-62.7502
0
LINE
8
BLACK
6
CONTINUOUS
10
105.833
20
-62.7502
11
105.835
21
-62.7549
0
LINE
8
BLACK
6
CONTINUOUS
10
105.835
20
-62.7549
11
105.835
21
-62.7598
0
LINE
8
BLACK
6
CONTINUOUS
10
105.835
20
-62.7598
11
105.835
21
-62.7611
0
LINE
8
BLACK
6
CONTINUOUS
10
105.835
20
-62.7611
11
105.835
21
-64.2186
0
LINE
8
BLACK
6
CONTINUOUS
10
105.835
20
-64.2186
11
105.835
21
-64.2198
0
LINE
8
BLACK
6
CONTINUOUS
10
105.835
20
-64.2198
11
105.835
21
-64.2211
0
LINE
8
BLACK
6
CONTINUOUS
10
105.835
20
-64.2211
11
105.835
21
-64.2211
0
LINE
8
BLACK
6
CONTINUOUS
10
105.835
20
-64.2211
11
105.835
21
-64.2247
0
LINE
8
BLACK
6
CONTINUOUS
10
105.835
20
-64.2247
11
105.833
21
-64.2295
0
LINE
8
BLACK
6
CONTINUOUS
10
105.833
20
-64.2295
11
105.831
21
-64.2338
0
LINE
8
BLACK
6
CONTINUOUS
10
105.831
20
-64.2338
11
105.828
21
-64.2376
0
LINE
8
BLACK
6
CONTINUOUS
10
105.828
20
-64.2376
11
105.824
21
-64.2407
0
LINE
8
BLACK
6
CONTINUOUS
10
105.824
20
-64.2407
11
105.82
21
-64.243
0
LINE
8
BLACK
6
CONTINUOUS
10
105.82
20
-64.243
11
105.815
21
-64.2445
0
LINE
8
BLACK
6
CONTINUOUS
10
105.815
20
-64.2445
11
105.81
21
-64.245
0
LINE
8
BLACK
6
CONTINUOUS
10
105.81
20
-64.245
11
105.809
21
-64.2448
0
LINE
8
BLACK
6
CONTINUOUS
10
105.809
20
-64.2448
11
102.851
21
-64.2448
0
LINE
8
BLACK
6
CONTINUOUS
10
102.851
20
-64.2448
11
102.85
21
-64.245
0
LINE
8
BLACK
6
CONTINUOUS
10
102.85
20
-64.245
11
102.845
21
-64.2445
0
LINE
8
BLACK
6
CONTINUOUS
10
102.845
20
-64.2445
11
102.84
21
-64.243
0
LINE
8
BLACK
6
CONTINUOUS
10
102.84
20
-64.243
11
102.836
21
-64.2407
0
LINE
8
BLACK
6
CONTINUOUS
10
102.836
20
-64.2407
11
102.832
21
-64.2376
0
LINE
8
BLACK
6
CONTINUOUS
10
102.832
20
-64.2376
11
102.829
21
-64.2338
0
LINE
8
BLACK
6
CONTINUOUS
10
102.829
20
-64.2338
11
102.827
21
-64.2295
0
LINE
8
BLACK
6
CONTINUOUS
10
102.827
20
-64.2295
11
102.825
21
-64.2247
0
LINE
8
BLACK
6
CONTINUOUS
10
102.825
20
-64.2247
11
102.825
21
-64.2198
0
LINE
8
BLACK
6
CONTINUOUS
10
102.825
20
-64.2198
11
102.825
21
-64.2186
0
LINE
8
BLACK
6
CONTINUOUS
10
102.825
20
-64.2186
11
102.825
21
-62.7611
0
LINE
8
BLACK
6
CONTINUOUS
10
102.825
20
-62.7611
11
102.825
21
-62.7598
0
LINE
8
BLACK
6
CONTINUOUS
10
102.825
20
-62.7598
11
102.825
21
-62.7549
0
LINE
8
BLACK
6
CONTINUOUS
10
102.825
20
-62.7549
11
102.827
21
-62.7502
0
LINE
8
BLACK
6
CONTINUOUS
10
102.827
20
-62.7502
11
102.829
21
-62.7459
0
LINE
8
BLACK
6
CONTINUOUS
10
102.829
20
-62.7459
11
102.832
21
-62.7421
0
LINE
8
BLACK
6
CONTINUOUS
10
102.832
20
-62.7421
11
102.836
21
-62.739
0
LINE
8
BLACK
6
CONTINUOUS
10
102.836
20
-62.739
11
102.84
21
-62.7366
0
LINE
8
BLACK
6
CONTINUOUS
10
102.84
20
-62.7366
11
102.845
21
-62.7352
0
LINE
8
BLACK
6
CONTINUOUS
10
102.845
20
-62.7352
11
102.849
21
-62.7348
0
LINE
8
BLACK
6
CONTINUOUS
10
102.849
20
-62.7348
11
102.849
21
-62.7348
0
LINE
8
BLACK
6
CONTINUOUS
10
102.849
20
-62.7348
11
102.85
21
-62.7347
0
LINE
8
BLACK
6
CONTINUOUS
10
102.85
20
-62.7347
11
102.851
21
-62.7348
0
LINE
8
BLACK
6
CONTINUOUS
10
102.851
20
-62.7348
11
105.809
21
-62.7348
0
LINE
8
BLACK
6
CONTINUOUS
10
105.809
20
-62.7348
11
105.81
21
-62.7347
0
LINE
8
BLACK
6
CONTINUOUS
10
105.81
20
-62.7347
11
105.811
21
-62.7348
0
LINE
8
BLACK
6
CONTINUOUS
10
102.875
20
-62.7848
11
102.875
21
-64.1948
0
LINE
8
BLACK
6
CONTINUOUS
10
102.875
20
-64.1948
11
105.785
21
-64.1948
0
LINE
8
BLACK
6
CONTINUOUS
10
105.785
20
-64.1948
11
105.785
21
-62.7848
0
LINE
8
BLACK
6
CONTINUOUS
10
105.785
20
-62.7848
11
102.875
21
-62.7848
0
LINE
8
BLACK
6
CONTINUOUS
10
160.734
20
-62.6282
11
160.734
21
-62.6282
0
LINE
8
BLACK
6
CONTINUOUS
10
160.734
20
-62.6282
11
160.738
21
-62.6285
0
LINE
8
BLACK
6
CONTINUOUS
10
160.738
20
-62.6285
11
160.743
21
-62.63
0
LINE
8
BLACK
6
CONTINUOUS
10
160.743
20
-62.63
11
160.747
21
-62.6323
0
LINE
8
BLACK
6
CONTINUOUS
10
160.747
20
-62.6323
11
160.751
21
-62.6354
0
LINE
8
BLACK
6
CONTINUOUS
10
160.751
20
-62.6354
11
160.754
21
-62.6392
0
LINE
8
BLACK
6
CONTINUOUS
10
160.754
20
-62.6392
11
160.756
21
-62.6435
0
LINE
8
BLACK
6
CONTINUOUS
10
160.756
20
-62.6435
11
160.758
21
-62.6483
0
LINE
8
BLACK
6
CONTINUOUS
10
160.758
20
-62.6483
11
160.758
21
-62.6532
0
LINE
8
BLACK
6
CONTINUOUS
10
160.758
20
-62.6532
11
160.758
21
-62.6544
0
LINE
8
BLACK
6
CONTINUOUS
10
160.758
20
-62.6544
11
160.758
21
-64.1119
0
LINE
8
BLACK
6
CONTINUOUS
10
160.758
20
-64.1119
11
160.758
21
-64.1132
0
LINE
8
BLACK
6
CONTINUOUS
10
160.758
20
-64.1132
11
160.758
21
-64.1144
0
LINE
8
BLACK
6
CONTINUOUS
10
160.758
20
-64.1144
11
160.758
21
-64.1144
0
LINE
8
BLACK
6
CONTINUOUS
10
160.758
20
-64.1144
11
160.758
21
-64.1181
0
LINE
8
BLACK
6
CONTINUOUS
10
160.758
20
-64.1181
11
160.756
21
-64.1228
0
LINE
8
BLACK
6
CONTINUOUS
10
160.756
20
-64.1228
11
160.754
21
-64.1271
0
LINE
8
BLACK
6
CONTINUOUS
10
160.754
20
-64.1271
11
160.751
21
-64.1309
0
LINE
8
BLACK
6
CONTINUOUS
10
160.751
20
-64.1309
11
160.747
21
-64.134
0
LINE
8
BLACK
6
CONTINUOUS
10
160.747
20
-64.134
11
160.743
21
-64.1364
0
LINE
8
BLACK
6
CONTINUOUS
10
160.743
20
-64.1364
11
160.738
21
-64.1378
0
LINE
8
BLACK
6
CONTINUOUS
10
160.738
20
-64.1378
11
160.733
21
-64.1383
0
LINE
8
BLACK
6
CONTINUOUS
10
160.733
20
-64.1383
11
160.732
21
-64.1382
0
LINE
8
BLACK
6
CONTINUOUS
10
160.732
20
-64.1382
11
157.774
21
-64.1382
0
LINE
8
BLACK
6
CONTINUOUS
10
157.774
20
-64.1382
11
157.773
21
-64.1383
0
LINE
8
BLACK
6
CONTINUOUS
10
157.773
20
-64.1383
11
157.768
21
-64.1378
0
LINE
8
BLACK
6
CONTINUOUS
10
157.768
20
-64.1378
11
157.764
21
-64.1364
0
LINE
8
BLACK
6
CONTINUOUS
10
157.764
20
-64.1364
11
157.759
21
-64.134
0
LINE
8
BLACK
6
CONTINUOUS
10
157.759
20
-64.134
11
157.755
21
-64.1309
0
LINE
8
BLACK
6
CONTINUOUS
10
157.755
20
-64.1309
11
157.752
21
-64.1271
0
LINE
8
BLACK
6
CONTINUOUS
10
157.752
20
-64.1271
11
157.75
21
-64.1228
0
LINE
8
BLACK
6
CONTINUOUS
10
157.75
20
-64.1228
11
157.749
21
-64.1181
0
LINE
8
BLACK
6
CONTINUOUS
10
157.749
20
-64.1181
11
157.748
21
-64.1132
0
LINE
8
BLACK
6
CONTINUOUS
10
157.748
20
-64.1132
11
157.748
21
-64.1119
0
LINE
8
BLACK
6
CONTINUOUS
10
157.748
20
-64.1119
11
157.748
21
-62.6544
0
LINE
8
BLACK
6
CONTINUOUS
10
157.748
20
-62.6544
11
157.748
21
-62.6532
0
LINE
8
BLACK
6
CONTINUOUS
10
157.748
20
-62.6532
11
157.749
21
-62.6483
0
LINE
8
BLACK
6
CONTINUOUS
10
157.749
20
-62.6483
11
157.75
21
-62.6435
0
LINE
8
BLACK
6
CONTINUOUS
10
157.75
20
-62.6435
11
157.752
21
-62.6392
0
LINE
8
BLACK
6
CONTINUOUS
10
157.752
20
-62.6392
11
157.755
21
-62.6354
0
LINE
8
BLACK
6
CONTINUOUS
10
157.755
20
-62.6354
11
157.759
21
-62.6323
0
LINE
8
BLACK
6
CONTINUOUS
10
157.759
20
-62.6323
11
157.764
21
-62.63
0
LINE
8
BLACK
6
CONTINUOUS
10
157.764
20
-62.63
11
157.768
21
-62.6285
0
LINE
8
BLACK
6
CONTINUOUS
10
157.768
20
-62.6285
11
157.772
21
-62.6282
0
LINE
8
BLACK
6
CONTINUOUS
10
157.772
20
-62.6282
11
157.772
21
-62.6282
0
LINE
8
BLACK
6
CONTINUOUS
10
157.772
20
-62.6282
11
157.773
21
-62.628
0
LINE
8
BLACK
6
CONTINUOUS
10
157.773
20
-62.628
11
157.774
21
-62.6282
0
LINE
8
BLACK
6
CONTINUOUS
10
157.774
20
-62.6282
11
160.732
21
-62.6282
0
LINE
8
BLACK
6
CONTINUOUS
10
160.732
20
-62.6282
11
160.733
21
-62.628
0
LINE
8
BLACK
6
CONTINUOUS
10
160.733
20
-62.628
11
160.734
21
-62.6282
0
LINE
8
BLACK
6
CONTINUOUS
10
157.798
20
-62.6782
11
157.798
21
-64.0882
0
LINE
8
BLACK
6
CONTINUOUS
10
157.798
20
-64.0882
11
160.708
21
-64.0882
0
LINE
8
BLACK
6
CONTINUOUS
10
160.708
20
-64.0882
11
160.708
21
-62.6782
0
LINE
8
BLACK
6
CONTINUOUS
10
160.708
20
-62.6782
11
157.798
21
-62.6782
0
LINE
8
BLACK
6
CONTINUOUS
10
151.684
20
-62.5545
11
151.684
21
-62.5545
0
LINE
8
BLACK
6
CONTINUOUS
10
151.684
20
-62.5545
11
151.687
21
-62.5549
0
LINE
8
BLACK
6
CONTINUOUS
10
151.687
20
-62.5549
11
151.692
21
-62.5563
0
LINE
8
BLACK
6
CONTINUOUS
10
151.692
20
-62.5563
11
151.696
21
-62.5586
0
LINE
8
BLACK
6
CONTINUOUS
10
151.696
20
-62.5586
11
151.7
21
-62.5617
0
LINE
8
BLACK
6
CONTINUOUS
10
151.7
20
-62.5617
11
151.703
21
-62.5655
0
LINE
8
BLACK
6
CONTINUOUS
10
151.703
20
-62.5655
11
151.706
21
-62.5699
0
LINE
8
BLACK
6
CONTINUOUS
10
151.706
20
-62.5699
11
151.707
21
-62.5746
0
LINE
8
BLACK
6
CONTINUOUS
10
151.707
20
-62.5746
11
151.708
21
-62.5795
0
LINE
8
BLACK
6
CONTINUOUS
10
151.708
20
-62.5795
11
151.707
21
-62.5807
0
LINE
8
BLACK
6
CONTINUOUS
10
151.707
20
-62.5807
11
151.707
21
-64.0383
0
LINE
8
BLACK
6
CONTINUOUS
10
151.707
20
-64.0383
11
151.708
21
-64.0395
0
LINE
8
BLACK
6
CONTINUOUS
10
151.708
20
-64.0395
11
151.707
21
-64.0407
0
LINE
8
BLACK
6
CONTINUOUS
10
151.707
20
-64.0407
11
151.707
21
-64.0407
0
LINE
8
BLACK
6
CONTINUOUS
10
151.707
20
-64.0407
11
151.707
21
-64.0444
0
LINE
8
BLACK
6
CONTINUOUS
10
151.707
20
-64.0444
11
151.706
21
-64.0491
0
LINE
8
BLACK
6
CONTINUOUS
10
151.706
20
-64.0491
11
151.703
21
-64.0535
0
LINE
8
BLACK
6
CONTINUOUS
10
151.703
20
-64.0535
11
151.7
21
-64.0573
0
LINE
8
BLACK
6
CONTINUOUS
10
151.7
20
-64.0573
11
151.696
21
-64.0604
0
LINE
8
BLACK
6
CONTINUOUS
10
151.696
20
-64.0604
11
151.692
21
-64.0627
0
LINE
8
BLACK
6
CONTINUOUS
10
151.692
20
-64.0627
11
151.687
21
-64.0641
0
LINE
8
BLACK
6
CONTINUOUS
10
151.687
20
-64.0641
11
151.682
21
-64.0646
0
LINE
8
BLACK
6
CONTINUOUS
10
151.682
20
-64.0646
11
151.681
21
-64.0645
0
LINE
8
BLACK
6
CONTINUOUS
10
151.681
20
-64.0645
11
148.724
21
-64.0645
0
LINE
8
BLACK
6
CONTINUOUS
10
148.724
20
-64.0645
11
148.722
21
-64.0646
0
LINE
8
BLACK
6
CONTINUOUS
10
148.722
20
-64.0646
11
148.717
21
-64.0641
0
LINE
8
BLACK
6
CONTINUOUS
10
148.717
20
-64.0641
11
148.713
21
-64.0627
0
LINE
8
BLACK
6
CONTINUOUS
10
148.713
20
-64.0627
11
148.708
21
-64.0604
0
LINE
8
BLACK
6
CONTINUOUS
10
148.708
20
-64.0604
11
148.705
21
-64.0573
0
LINE
8
BLACK
6
CONTINUOUS
10
148.705
20
-64.0573
11
148.702
21
-64.0535
0
LINE
8
BLACK
6
CONTINUOUS
10
148.702
20
-64.0535
11
148.699
21
-64.0491
0
LINE
8
BLACK
6
CONTINUOUS
10
148.699
20
-64.0491
11
148.698
21
-64.0444
0
LINE
8
BLACK
6
CONTINUOUS
10
148.698
20
-64.0444
11
148.697
21
-64.0395
0
LINE
8
BLACK
6
CONTINUOUS
10
148.697
20
-64.0395
11
148.697
21
-64.0383
0
LINE
8
BLACK
6
CONTINUOUS
10
148.697
20
-64.0383
11
148.697
21
-62.5807
0
LINE
8
BLACK
6
CONTINUOUS
10
148.697
20
-62.5807
11
148.697
21
-62.5795
0
LINE
8
BLACK
6
CONTINUOUS
10
148.697
20
-62.5795
11
148.698
21
-62.5746
0
LINE
8
BLACK
6
CONTINUOUS
10
148.698
20
-62.5746
11
148.699
21
-62.5699
0
LINE
8
BLACK
6
CONTINUOUS
10
148.699
20
-62.5699
11
148.702
21
-62.5655
0
LINE
8
BLACK
6
CONTINUOUS
10
148.702
20
-62.5655
11
148.705
21
-62.5617
0
LINE
8
BLACK
6
CONTINUOUS
10
148.705
20
-62.5617
11
148.708
21
-62.5586
0
LINE
8
BLACK
6
CONTINUOUS
10
148.708
20
-62.5586
11
148.713
21
-62.5563
0
LINE
8
BLACK
6
CONTINUOUS
10
148.713
20
-62.5563
11
148.717
21
-62.5549
0
LINE
8
BLACK
6
CONTINUOUS
10
148.717
20
-62.5549
11
148.721
21
-62.5545
0
LINE
8
BLACK
6
CONTINUOUS
10
148.721
20
-62.5545
11
148.721
21
-62.5545
0
LINE
8
BLACK
6
CONTINUOUS
10
148.721
20
-62.5545
11
148.722
21
-62.5544
0
LINE
8
BLACK
6
CONTINUOUS
10
148.722
20
-62.5544
11
148.724
21
-62.5545
0
LINE
8
BLACK
6
CONTINUOUS
10
148.724
20
-62.5545
11
151.681
21
-62.5545
0
LINE
8
BLACK
6
CONTINUOUS
10
151.681
20
-62.5545
11
151.682
21
-62.5544
0
LINE
8
BLACK
6
CONTINUOUS
10
151.682
20
-62.5544
11
151.684
21
-62.5545
0
LINE
8
BLACK
6
CONTINUOUS
10
148.747
20
-62.6045
11
148.747
21
-64.0145
0
LINE
8
BLACK
6
CONTINUOUS
10
148.747
20
-64.0145
11
151.657
21
-64.0145
0
LINE
8
BLACK
6
CONTINUOUS
10
151.657
20
-64.0145
11
151.657
21
-62.6045
0
LINE
8
BLACK
6
CONTINUOUS
10
151.657
20
-62.6045
11
148.747
21
-62.6045
0
LINE
8
BLACK
6
CONTINUOUS
10
108.63
20
-60.408
11
108.63
21
-60.408
0
LINE
8
BLACK
6
CONTINUOUS
10
108.63
20
-60.408
11
108.634
21
-60.4084
0
LINE
8
BLACK
6
CONTINUOUS
10
108.634
20
-60.4084
11
108.639
21
-60.4098
0
LINE
8
BLACK
6
CONTINUOUS
10
108.639
20
-60.4098
11
108.643
21
-60.4121
0
LINE
8
BLACK
6
CONTINUOUS
10
108.643
20
-60.4121
11
108.647
21
-60.4152
0
LINE
8
BLACK
6
CONTINUOUS
10
108.647
20
-60.4152
11
108.65
21
-60.419
0
LINE
8
BLACK
6
CONTINUOUS
10
108.65
20
-60.419
11
108.652
21
-60.4234
0
LINE
8
BLACK
6
CONTINUOUS
10
108.652
20
-60.4234
11
108.654
21
-60.4281
0
LINE
8
BLACK
6
CONTINUOUS
10
108.654
20
-60.4281
11
108.654
21
-60.433
0
LINE
8
BLACK
6
CONTINUOUS
10
108.654
20
-60.433
11
108.654
21
-60.4342
0
LINE
8
BLACK
6
CONTINUOUS
10
108.654
20
-60.4342
11
108.654
21
-63.3918
0
LINE
8
BLACK
6
CONTINUOUS
10
108.654
20
-63.3918
11
108.654
21
-63.393
0
LINE
8
BLACK
6
CONTINUOUS
10
108.654
20
-63.393
11
108.654
21
-63.3942
0
LINE
8
BLACK
6
CONTINUOUS
10
108.654
20
-63.3942
11
108.654
21
-63.3942
0
LINE
8
BLACK
6
CONTINUOUS
10
108.654
20
-63.3942
11
108.654
21
-63.3979
0
LINE
8
BLACK
6
CONTINUOUS
10
108.654
20
-63.3979
11
108.652
21
-63.4026
0
LINE
8
BLACK
6
CONTINUOUS
10
108.652
20
-63.4026
11
108.65
21
-63.407
0
LINE
8
BLACK
6
CONTINUOUS
10
108.65
20
-63.407
11
108.647
21
-63.4108
0
LINE
8
BLACK
6
CONTINUOUS
10
108.647
20
-63.4108
11
108.643
21
-63.4139
0
LINE
8
BLACK
6
CONTINUOUS
10
108.643
20
-63.4139
11
108.639
21
-63.4162
0
LINE
8
BLACK
6
CONTINUOUS
10
108.639
20
-63.4162
11
108.634
21
-63.4176
0
LINE
8
BLACK
6
CONTINUOUS
10
108.634
20
-63.4176
11
108.629
21
-63.4181
0
LINE
8
BLACK
6
CONTINUOUS
10
108.629
20
-63.4181
11
108.628
21
-63.418
0
LINE
8
BLACK
6
CONTINUOUS
10
108.628
20
-63.418
11
107.17
21
-63.418
0
LINE
8
BLACK
6
CONTINUOUS
10
107.17
20
-63.418
11
107.169
21
-63.4181
0
LINE
8
BLACK
6
CONTINUOUS
10
107.169
20
-63.4181
11
107.164
21
-63.4176
0
LINE
8
BLACK
6
CONTINUOUS
10
107.164
20
-63.4176
11
107.16
21
-63.4162
0
LINE
8
BLACK
6
CONTINUOUS
10
107.16
20
-63.4162
11
107.155
21
-63.4139
0
LINE
8
BLACK
6
CONTINUOUS
10
107.155
20
-63.4139
11
107.151
21
-63.4108
0
LINE
8
BLACK
6
CONTINUOUS
10
107.151
20
-63.4108
11
107.148
21
-63.407
0
LINE
8
BLACK
6
CONTINUOUS
10
107.148
20
-63.407
11
107.146
21
-63.4026
0
LINE
8
BLACK
6
CONTINUOUS
10
107.146
20
-63.4026
11
107.145
21
-63.3979
0
LINE
8
BLACK
6
CONTINUOUS
10
107.145
20
-63.3979
11
107.144
21
-63.393
0
LINE
8
BLACK
6
CONTINUOUS
10
107.144
20
-63.393
11
107.144
21
-63.3918
0
LINE
8
BLACK
6
CONTINUOUS
10
107.144
20
-63.3918
11
107.144
21
-60.4342
0
LINE
8
BLACK
6
CONTINUOUS
10
107.144
20
-60.4342
11
107.144
21
-60.433
0
LINE
8
BLACK
6
CONTINUOUS
10
107.144
20
-60.433
11
107.145
21
-60.4281
0
LINE
8
BLACK
6
CONTINUOUS
10
107.145
20
-60.4281
11
107.146
21
-60.4234
0
LINE
8
BLACK
6
CONTINUOUS
10
107.146
20
-60.4234
11
107.148
21
-60.419
0
LINE
8
BLACK
6
CONTINUOUS
10
107.148
20
-60.419
11
107.151
21
-60.4152
0
LINE
8
BLACK
6
CONTINUOUS
10
107.151
20
-60.4152
11
107.155
21
-60.4121
0
LINE
8
BLACK
6
CONTINUOUS
10
107.155
20
-60.4121
11
107.16
21
-60.4098
0
LINE
8
BLACK
6
CONTINUOUS
10
107.16
20
-60.4098
11
107.164
21
-60.4084
0
LINE
8
BLACK
6
CONTINUOUS
10
107.164
20
-60.4084
11
107.168
21
-60.408
0
LINE
8
BLACK
6
CONTINUOUS
10
107.168
20
-60.408
11
107.168
21
-60.408
0
LINE
8
BLACK
6
CONTINUOUS
10
107.168
20
-60.408
11
107.169
21
-60.4079
0
LINE
8
BLACK
6
CONTINUOUS
10
107.169
20
-60.4079
11
107.17
21
-60.408
0
LINE
8
BLACK
6
CONTINUOUS
10
107.17
20
-60.408
11
108.628
21
-60.408
0
LINE
8
BLACK
6
CONTINUOUS
10
108.628
20
-60.408
11
108.629
21
-60.4079
0
LINE
8
BLACK
6
CONTINUOUS
10
108.629
20
-60.4079
11
108.63
21
-60.408
0
LINE
8
BLACK
6
CONTINUOUS
10
107.194
20
-60.458
11
107.194
21
-63.368
0
LINE
8
BLACK
6
CONTINUOUS
10
107.194
20
-63.368
11
108.604
21
-63.368
0
LINE
8
BLACK
6
CONTINUOUS
10
108.604
20
-63.368
11
108.604
21
-60.458
0
LINE
8
BLACK
6
CONTINUOUS
10
108.604
20
-60.458
11
107.194
21
-60.458
0
LINE
8
BLACK
6
CONTINUOUS
10
154.663
20
-61.7637
11
154.67
21
-61.766
0
LINE
8
BLACK
6
CONTINUOUS
10
154.67
20
-61.766
11
154.677
21
-61.7697
0
LINE
8
BLACK
6
CONTINUOUS
10
154.677
20
-61.7697
11
154.684
21
-61.7747
0
LINE
8
BLACK
6
CONTINUOUS
10
154.684
20
-61.7747
11
154.688
21
-61.7808
0
LINE
8
BLACK
6
CONTINUOUS
10
154.688
20
-61.7808
11
154.692
21
-61.7877
0
LINE
8
BLACK
6
CONTINUOUS
10
154.692
20
-61.7877
11
154.695
21
-61.7953
0
LINE
8
BLACK
6
CONTINUOUS
10
154.695
20
-61.7953
11
154.695
21
-61.8011
0
LINE
8
BLACK
6
CONTINUOUS
10
154.695
20
-61.8011
11
154.695
21
-63.3011
0
LINE
8
BLACK
6
CONTINUOUS
10
154.695
20
-63.3011
11
154.695
21
-63.3031
0
LINE
8
BLACK
6
CONTINUOUS
10
154.695
20
-63.3031
11
154.695
21
-63.3109
0
LINE
8
BLACK
6
CONTINUOUS
10
154.695
20
-63.3109
11
154.692
21
-63.3185
0
LINE
8
BLACK
6
CONTINUOUS
10
154.692
20
-63.3185
11
154.688
21
-63.3254
0
LINE
8
BLACK
6
CONTINUOUS
10
154.688
20
-63.3254
11
154.684
21
-63.3315
0
LINE
8
BLACK
6
CONTINUOUS
10
154.684
20
-63.3315
11
154.677
21
-63.3365
0
LINE
8
BLACK
6
CONTINUOUS
10
154.677
20
-63.3365
11
154.67
21
-63.3402
0
LINE
8
BLACK
6
CONTINUOUS
10
154.67
20
-63.3402
11
154.663
21
-63.3425
0
LINE
8
BLACK
6
CONTINUOUS
10
154.663
20
-63.3425
11
154.657
21
-63.3431
0
LINE
8
BLACK
6
CONTINUOUS
10
154.657
20
-63.3431
11
154.655
21
-63.3433
0
LINE
8
BLACK
6
CONTINUOUS
10
154.655
20
-63.3433
11
154.653
21
-63.3431
0
LINE
8
BLACK
6
CONTINUOUS
10
154.653
20
-63.3431
11
152.443
21
-63.3431
0
LINE
8
BLACK
6
CONTINUOUS
10
152.443
20
-63.3431
11
152.437
21
-63.3425
0
LINE
8
BLACK
6
CONTINUOUS
10
152.437
20
-63.3425
11
152.433
21
-63.341
0
LINE
8
BLACK
6
CONTINUOUS
10
152.433
20
-63.341
11
152.428
21
-63.3425
0
LINE
8
BLACK
6
CONTINUOUS
10
152.428
20
-63.3425
11
152.42
21
-63.3433
0
LINE
8
BLACK
6
CONTINUOUS
10
152.42
20
-63.3433
11
152.412
21
-63.3425
0
LINE
8
BLACK
6
CONTINUOUS
10
152.412
20
-63.3425
11
152.404
21
-63.3402
0
LINE
8
BLACK
6
CONTINUOUS
10
152.404
20
-63.3402
11
152.398
21
-63.3365
0
LINE
8
BLACK
6
CONTINUOUS
10
152.398
20
-63.3365
11
152.391
21
-63.3315
0
LINE
8
BLACK
6
CONTINUOUS
10
152.391
20
-63.3315
11
152.386
21
-63.3254
0
LINE
8
BLACK
6
CONTINUOUS
10
152.386
20
-63.3254
11
152.383
21
-63.3185
0
LINE
8
BLACK
6
CONTINUOUS
10
152.383
20
-63.3185
11
152.38
21
-63.3109
0
LINE
8
BLACK
6
CONTINUOUS
10
152.38
20
-63.3109
11
152.38
21
-63.3051
0
LINE
8
BLACK
6
CONTINUOUS
10
152.38
20
-63.3051
11
152.38
21
-61.8065
0
LINE
8
BLACK
6
CONTINUOUS
10
152.38
20
-61.8065
11
152.38
21
-61.8045
0
LINE
8
BLACK
6
CONTINUOUS
10
152.38
20
-61.8045
11
152.38
21
-61.8025
0
LINE
8
BLACK
6
CONTINUOUS
10
152.38
20
-61.8025
11
152.38
21
-61.8011
0
LINE
8
BLACK
6
CONTINUOUS
10
152.38
20
-61.8011
11
152.38
21
-61.7953
0
LINE
8
BLACK
6
CONTINUOUS
10
152.38
20
-61.7953
11
152.383
21
-61.7877
0
LINE
8
BLACK
6
CONTINUOUS
10
152.383
20
-61.7877
11
152.386
21
-61.7808
0
LINE
8
BLACK
6
CONTINUOUS
10
152.386
20
-61.7808
11
152.391
21
-61.7747
0
LINE
8
BLACK
6
CONTINUOUS
10
152.391
20
-61.7747
11
152.398
21
-61.7697
0
LINE
8
BLACK
6
CONTINUOUS
10
152.398
20
-61.7697
11
152.404
21
-61.766
0
LINE
8
BLACK
6
CONTINUOUS
10
152.404
20
-61.766
11
152.412
21
-61.7637
0
LINE
8
BLACK
6
CONTINUOUS
10
152.412
20
-61.7637
11
152.42
21
-61.7629
0
LINE
8
BLACK
6
CONTINUOUS
10
152.42
20
-61.7629
11
152.428
21
-61.7637
0
LINE
8
BLACK
6
CONTINUOUS
10
152.428
20
-61.7637
11
152.43
21
-61.7645
0
LINE
8
BLACK
6
CONTINUOUS
10
152.43
20
-61.7645
11
154.632
21
-61.7645
0
LINE
8
BLACK
6
CONTINUOUS
10
154.632
20
-61.7645
11
154.638
21
-61.7651
0
LINE
8
BLACK
6
CONTINUOUS
10
154.638
20
-61.7651
11
154.64
21
-61.7659
0
LINE
8
BLACK
6
CONTINUOUS
10
154.64
20
-61.7659
11
154.647
21
-61.7637
0
LINE
8
BLACK
6
CONTINUOUS
10
154.647
20
-61.7637
11
154.655
21
-61.7629
0
LINE
8
BLACK
6
CONTINUOUS
10
154.655
20
-61.7629
11
154.663
21
-61.7637
0
LINE
8
BLACK
6
CONTINUOUS
10
152.46
20
-61.8445
11
152.46
21
-63.2631
0
LINE
8
BLACK
6
CONTINUOUS
10
152.46
20
-63.2631
11
154.615
21
-63.2631
0
LINE
8
BLACK
6
CONTINUOUS
10
154.615
20
-63.2631
11
154.615
21
-61.8445
0
LINE
8
BLACK
6
CONTINUOUS
10
154.615
20
-61.8445
11
152.46
21
-61.8445
0
LINE
8
BLACK
6
CONTINUOUS
10
216.314
20
-59.008
11
216.318
21
-59.0084
0
LINE
8
BLACK
6
CONTINUOUS
10
216.318
20
-59.0084
11
216.323
21
-59.0098
0
LINE
8
BLACK
6
CONTINUOUS
10
216.323
20
-59.0098
11
216.327
21
-59.0121
0
LINE
8
BLACK
6
CONTINUOUS
10
216.327
20
-59.0121
11
216.331
21
-59.0152
0
LINE
8
BLACK
6
CONTINUOUS
10
216.331
20
-59.0152
11
216.334
21
-59.019
0
LINE
8
BLACK
6
CONTINUOUS
10
216.334
20
-59.019
11
216.336
21
-59.0234
0
LINE
8
BLACK
6
CONTINUOUS
10
216.336
20
-59.0234
11
216.338
21
-59.0281
0
LINE
8
BLACK
6
CONTINUOUS
10
216.338
20
-59.0281
11
216.338
21
-59.033
0
LINE
8
BLACK
6
CONTINUOUS
10
216.338
20
-59.033
11
216.338
21
-59.0342
0
LINE
8
BLACK
6
CONTINUOUS
10
216.338
20
-59.0342
11
216.338
21
-62.6318
0
LINE
8
BLACK
6
CONTINUOUS
10
216.338
20
-62.6318
11
216.338
21
-62.633
0
LINE
8
BLACK
6
CONTINUOUS
10
216.338
20
-62.633
11
216.338
21
-62.6379
0
LINE
8
BLACK
6
CONTINUOUS
10
216.338
20
-62.6379
11
216.336
21
-62.6426
0
LINE
8
BLACK
6
CONTINUOUS
10
216.336
20
-62.6426
11
216.334
21
-62.647
0
LINE
8
BLACK
6
CONTINUOUS
10
216.334
20
-62.647
11
216.331
21
-62.6508
0
LINE
8
BLACK
6
CONTINUOUS
10
216.331
20
-62.6508
11
216.327
21
-62.6539
0
LINE
8
BLACK
6
CONTINUOUS
10
216.327
20
-62.6539
11
216.323
21
-62.6562
0
LINE
8
BLACK
6
CONTINUOUS
10
216.323
20
-62.6562
11
216.318
21
-62.6576
0
LINE
8
BLACK
6
CONTINUOUS
10
216.318
20
-62.6576
11
216.314
21
-62.658
0
LINE
8
BLACK
6
CONTINUOUS
10
216.314
20
-62.658
11
216.314
21
-62.658
0
LINE
8
BLACK
6
CONTINUOUS
10
216.314
20
-62.658
11
216.313
21
-62.6581
0
LINE
8
BLACK
6
CONTINUOUS
10
216.313
20
-62.6581
11
216.312
21
-62.658
0
LINE
8
BLACK
6
CONTINUOUS
10
216.312
20
-62.658
11
210.164
21
-62.658
0
LINE
8
BLACK
6
CONTINUOUS
10
210.164
20
-62.658
11
210.163
21
-62.6581
0
LINE
8
BLACK
6
CONTINUOUS
10
210.163
20
-62.6581
11
210.162
21
-62.658
0
LINE
8
BLACK
6
CONTINUOUS
10
210.162
20
-62.658
11
210.162
21
-62.658
0
LINE
8
BLACK
6
CONTINUOUS
10
210.162
20
-62.658
11
210.158
21
-62.6576
0
LINE
8
BLACK
6
CONTINUOUS
10
210.158
20
-62.6576
11
210.153
21
-62.6562
0
LINE
8
BLACK
6
CONTINUOUS
10
210.153
20
-62.6562
11
210.149
21
-62.6539
0
LINE
8
BLACK
6
CONTINUOUS
10
210.149
20
-62.6539
11
210.145
21
-62.6508
0
LINE
8
BLACK
6
CONTINUOUS
10
210.145
20
-62.6508
11
210.142
21
-62.647
0
LINE
8
BLACK
6
CONTINUOUS
10
210.142
20
-62.647
11
210.14
21
-62.6426
0
LINE
8
BLACK
6
CONTINUOUS
10
210.14
20
-62.6426
11
210.138
21
-62.6379
0
LINE
8
BLACK
6
CONTINUOUS
10
210.138
20
-62.6379
11
210.138
21
-62.633
0
LINE
8
BLACK
6
CONTINUOUS
10
210.138
20
-62.633
11
210.138
21
-62.6318
0
LINE
8
BLACK
6
CONTINUOUS
10
210.138
20
-62.6318
11
210.138
21
-59.0342
0
LINE
8
BLACK
6
CONTINUOUS
10
210.138
20
-59.0342
11
210.138
21
-59.033
0
LINE
8
BLACK
6
CONTINUOUS
10
210.138
20
-59.033
11
210.138
21
-59.0281
0
LINE
8
BLACK
6
CONTINUOUS
10
210.138
20
-59.0281
11
210.14
21
-59.0234
0
LINE
8
BLACK
6
CONTINUOUS
10
210.14
20
-59.0234
11
210.142
21
-59.019
0
LINE
8
BLACK
6
CONTINUOUS
10
210.142
20
-59.019
11
210.145
21
-59.0152
0
LINE
8
BLACK
6
CONTINUOUS
10
210.145
20
-59.0152
11
210.149
21
-59.0121
0
LINE
8
BLACK
6
CONTINUOUS
10
210.149
20
-59.0121
11
210.153
21
-59.0098
0
LINE
8
BLACK
6
CONTINUOUS
10
210.153
20
-59.0098
11
210.158
21
-59.0084
0
LINE
8
BLACK
6
CONTINUOUS
10
210.158
20
-59.0084
11
210.162
21
-59.008
0
LINE
8
BLACK
6
CONTINUOUS
10
210.162
20
-59.008
11
210.163
21
-59.0079
0
LINE
8
BLACK
6
CONTINUOUS
10
210.163
20
-59.0079
11
210.164
21
-59.008
0
LINE
8
BLACK
6
CONTINUOUS
10
210.164
20
-59.008
11
216.312
21
-59.008
0
LINE
8
BLACK
6
CONTINUOUS
10
216.312
20
-59.008
11
216.313
21
-59.0079
0
LINE
8
BLACK
6
CONTINUOUS
10
216.313
20
-59.0079
11
216.314
21
-59.008
0
LINE
8
BLACK
6
CONTINUOUS
10
210.188
20
-59.058
11
210.188
21
-62.608
0
LINE
8
BLACK
6
CONTINUOUS
10
210.188
20
-62.608
11
216.288
21
-62.608
0
LINE
8
BLACK
6
CONTINUOUS
10
216.288
20
-62.608
11
216.288
21
-59.058
0
LINE
8
BLACK
6
CONTINUOUS
10
216.288
20
-59.058
11
210.188
21
-59.058
0
LINE
8
BLACK
6
CONTINUOUS
10
160.737
20
-61.028
11
160.737
21
-61.028
0
LINE
8
BLACK
6
CONTINUOUS
10
160.737
20
-61.028
11
160.741
21
-61.0283
0
LINE
8
BLACK
6
CONTINUOUS
10
160.741
20
-61.0283
11
160.745
21
-61.0298
0
LINE
8
BLACK
6
CONTINUOUS
10
160.745
20
-61.0298
11
160.75
21
-61.0321
0
LINE
8
BLACK
6
CONTINUOUS
10
160.75
20
-61.0321
11
160.754
21
-61.0352
0
LINE
8
BLACK
6
CONTINUOUS
10
160.754
20
-61.0352
11
160.757
21
-61.039
0
LINE
8
BLACK
6
CONTINUOUS
10
160.757
20
-61.039
11
160.759
21
-61.0433
0
LINE
8
BLACK
6
CONTINUOUS
10
160.759
20
-61.0433
11
160.76
21
-61.0481
0
LINE
8
BLACK
6
CONTINUOUS
10
160.76
20
-61.0481
11
160.761
21
-61.053
0
LINE
8
BLACK
6
CONTINUOUS
10
160.761
20
-61.053
11
160.761
21
-61.0542
0
LINE
8
BLACK
6
CONTINUOUS
10
160.761
20
-61.0542
11
160.761
21
-62.5117
0
LINE
8
BLACK
6
CONTINUOUS
10
160.761
20
-62.5117
11
160.761
21
-62.513
0
LINE
8
BLACK
6
CONTINUOUS
10
160.761
20
-62.513
11
160.761
21
-62.5142
0
LINE
8
BLACK
6
CONTINUOUS
10
160.761
20
-62.5142
11
160.761
21
-62.5142
0
LINE
8
BLACK
6
CONTINUOUS
10
160.761
20
-62.5142
11
160.76
21
-62.5179
0
LINE
8
BLACK
6
CONTINUOUS
10
160.76
20
-62.5179
11
160.759
21
-62.5226
0
LINE
8
BLACK
6
CONTINUOUS
10
160.759
20
-62.5226
11
160.757
21
-62.5269
0
LINE
8
BLACK
6
CONTINUOUS
10
160.757
20
-62.5269
11
160.754
21
-62.5307
0
LINE
8
BLACK
6
CONTINUOUS
10
160.754
20
-62.5307
11
160.75
21
-62.5338
0
LINE
8
BLACK
6
CONTINUOUS
10
160.75
20
-62.5338
11
160.745
21
-62.5362
0
LINE
8
BLACK
6
CONTINUOUS
10
160.745
20
-62.5362
11
160.741
21
-62.5376
0
LINE
8
BLACK
6
CONTINUOUS
10
160.741
20
-62.5376
11
160.736
21
-62.5381
0
LINE
8
BLACK
6
CONTINUOUS
10
160.736
20
-62.5381
11
160.735
21
-62.538
0
LINE
8
BLACK
6
CONTINUOUS
10
160.735
20
-62.538
11
157.777
21
-62.538
0
LINE
8
BLACK
6
CONTINUOUS
10
157.777
20
-62.538
11
157.776
21
-62.5381
0
LINE
8
BLACK
6
CONTINUOUS
10
157.776
20
-62.5381
11
157.771
21
-62.5376
0
LINE
8
BLACK
6
CONTINUOUS
10
157.771
20
-62.5376
11
157.766
21
-62.5362
0
LINE
8
BLACK
6
CONTINUOUS
10
157.766
20
-62.5362
11
157.762
21
-62.5338
0
LINE
8
BLACK
6
CONTINUOUS
10
157.762
20
-62.5338
11
157.758
21
-62.5307
0
LINE
8
BLACK
6
CONTINUOUS
10
157.758
20
-62.5307
11
157.756
21
-62.5282
0
LINE
8
BLACK
6
CONTINUOUS
10
157.756
20
-62.5282
11
157.755
21
-62.5269
0
LINE
8
BLACK
6
CONTINUOUS
10
157.755
20
-62.5269
11
157.753
21
-62.5226
0
LINE
8
BLACK
6
CONTINUOUS
10
157.753
20
-62.5226
11
157.751
21
-62.5179
0
LINE
8
BLACK
6
CONTINUOUS
10
157.751
20
-62.5179
11
157.751
21
-62.513
0
LINE
8
BLACK
6
CONTINUOUS
10
157.751
20
-62.513
11
157.751
21
-62.5117
0
LINE
8
BLACK
6
CONTINUOUS
10
157.751
20
-62.5117
11
157.751
21
-61.0542
0
LINE
8
BLACK
6
CONTINUOUS
10
157.751
20
-61.0542
11
157.751
21
-61.053
0
LINE
8
BLACK
6
CONTINUOUS
10
157.751
20
-61.053
11
157.751
21
-61.0481
0
LINE
8
BLACK
6
CONTINUOUS
10
157.751
20
-61.0481
11
157.753
21
-61.0433
0
LINE
8
BLACK
6
CONTINUOUS
10
157.753
20
-61.0433
11
157.755
21
-61.039
0
LINE
8
BLACK
6
CONTINUOUS
10
157.755
20
-61.039
11
157.758
21
-61.0352
0
LINE
8
BLACK
6
CONTINUOUS
10
157.758
20
-61.0352
11
157.762
21
-61.0321
0
LINE
8
BLACK
6
CONTINUOUS
10
157.762
20
-61.0321
11
157.766
21
-61.0298
0
LINE
8
BLACK
6
CONTINUOUS
10
157.766
20
-61.0298
11
157.771
21
-61.0283
0
LINE
8
BLACK
6
CONTINUOUS
10
157.771
20
-61.0283
11
157.775
21
-61.028
0
LINE
8
BLACK
6
CONTINUOUS
10
157.775
20
-61.028
11
157.775
21
-61.028
0
LINE
8
BLACK
6
CONTINUOUS
10
157.775
20
-61.028
11
157.776
21
-61.0278
0
LINE
8
BLACK
6
CONTINUOUS
10
157.776
20
-61.0278
11
157.777
21
-61.028
0
LINE
8
BLACK
6
CONTINUOUS
10
157.777
20
-61.028
11
160.735
21
-61.028
0
LINE
8
BLACK
6
CONTINUOUS
10
160.735
20
-61.028
11
160.736
21
-61.0278
0
LINE
8
BLACK
6
CONTINUOUS
10
160.736
20
-61.0278
11
160.737
21
-61.028
0
LINE
8
BLACK
6
CONTINUOUS
10
157.801
20
-61.078
11
157.801
21
-62.488
0
LINE
8
BLACK
6
CONTINUOUS
10
157.801
20
-62.488
11
160.711
21
-62.488
0
LINE
8
BLACK
6
CONTINUOUS
10
160.711
20
-62.488
11
160.711
21
-61.078
0
LINE
8
BLACK
6
CONTINUOUS
10
160.711
20
-61.078
11
157.801
21
-61.078
0
LINE
8
BLACK
6
CONTINUOUS
10
150.871
20
-61.0254
11
150.871
21
-61.0254
0
LINE
8
BLACK
6
CONTINUOUS
10
150.871
20
-61.0254
11
150.875
21
-61.0258
0
LINE
8
BLACK
6
CONTINUOUS
10
150.875
20
-61.0258
11
150.879
21
-61.0272
0
LINE
8
BLACK
6
CONTINUOUS
10
150.879
20
-61.0272
11
150.884
21
-61.0295
0
LINE
8
BLACK
6
CONTINUOUS
10
150.884
20
-61.0295
11
150.887
21
-61.0327
0
LINE
8
BLACK
6
CONTINUOUS
10
150.887
20
-61.0327
11
150.89
21
-61.0365
0
LINE
8
BLACK
6
CONTINUOUS
10
150.89
20
-61.0365
11
150.893
21
-61.0408
0
LINE
8
BLACK
6
CONTINUOUS
10
150.893
20
-61.0408
11
150.894
21
-61.0455
0
LINE
8
BLACK
6
CONTINUOUS
10
150.894
20
-61.0455
11
150.895
21
-61.0504
0
LINE
8
BLACK
6
CONTINUOUS
10
150.895
20
-61.0504
11
150.895
21
-61.0516
0
LINE
8
BLACK
6
CONTINUOUS
10
150.895
20
-61.0516
11
150.895
21
-62.5092
0
LINE
8
BLACK
6
CONTINUOUS
10
150.895
20
-62.5092
11
150.895
21
-62.5104
0
LINE
8
BLACK
6
CONTINUOUS
10
150.895
20
-62.5104
11
150.895
21
-62.5116
0
LINE
8
BLACK
6
CONTINUOUS
10
150.895
20
-62.5116
11
150.895
21
-62.5116
0
LINE
8
BLACK
6
CONTINUOUS
10
150.895
20
-62.5116
11
150.894
21
-62.5153
0
LINE
8
BLACK
6
CONTINUOUS
10
150.894
20
-62.5153
11
150.893
21
-62.52
0
LINE
8
BLACK
6
CONTINUOUS
10
150.893
20
-62.52
11
150.89
21
-62.5244
0
LINE
8
BLACK
6
CONTINUOUS
10
150.89
20
-62.5244
11
150.887
21
-62.5282
0
LINE
8
BLACK
6
CONTINUOUS
10
150.887
20
-62.5282
11
150.884
21
-62.5313
0
LINE
8
BLACK
6
CONTINUOUS
10
150.884
20
-62.5313
11
150.879
21
-62.5336
0
LINE
8
BLACK
6
CONTINUOUS
10
150.879
20
-62.5336
11
150.875
21
-62.5351
0
LINE
8
BLACK
6
CONTINUOUS
10
150.875
20
-62.5351
11
150.87
21
-62.5355
0
LINE
8
BLACK
6
CONTINUOUS
10
150.87
20
-62.5355
11
150.868
21
-62.5354
0
LINE
8
BLACK
6
CONTINUOUS
10
150.868
20
-62.5354
11
147.911
21
-62.5354
0
LINE
8
BLACK
6
CONTINUOUS
10
147.911
20
-62.5354
11
147.91
21
-62.5355
0
LINE
8
BLACK
6
CONTINUOUS
10
147.91
20
-62.5355
11
147.905
21
-62.5351
0
LINE
8
BLACK
6
CONTINUOUS
10
147.905
20
-62.5351
11
147.9
21
-62.5336
0
LINE
8
BLACK
6
CONTINUOUS
10
147.9
20
-62.5336
11
147.896
21
-62.5313
0
LINE
8
BLACK
6
CONTINUOUS
10
147.896
20
-62.5313
11
147.892
21
-62.5282
0
LINE
8
BLACK
6
CONTINUOUS
10
147.892
20
-62.5282
11
147.889
21
-62.5244
0
LINE
8
BLACK
6
CONTINUOUS
10
147.889
20
-62.5244
11
147.886
21
-62.52
0
LINE
8
BLACK
6
CONTINUOUS
10
147.886
20
-62.52
11
147.885
21
-62.5153
0
LINE
8
BLACK
6
CONTINUOUS
10
147.885
20
-62.5153
11
147.884
21
-62.5104
0
LINE
8
BLACK
6
CONTINUOUS
10
147.884
20
-62.5104
11
147.885
21
-62.5092
0
LINE
8
BLACK
6
CONTINUOUS
10
147.885
20
-62.5092
11
147.885
21
-61.0516
0
LINE
8
BLACK
6
CONTINUOUS
10
147.885
20
-61.0516
11
147.884
21
-61.0504
0
LINE
8
BLACK
6
CONTINUOUS
10
147.884
20
-61.0504
11
147.885
21
-61.0455
0
LINE
8
BLACK
6
CONTINUOUS
10
147.885
20
-61.0455
11
147.886
21
-61.0408
0
LINE
8
BLACK
6
CONTINUOUS
10
147.886
20
-61.0408
11
147.889
21
-61.0365
0
LINE
8
BLACK
6
CONTINUOUS
10
147.889
20
-61.0365
11
147.892
21
-61.0327
0
LINE
8
BLACK
6
CONTINUOUS
10
147.892
20
-61.0327
11
147.896
21
-61.0295
0
LINE
8
BLACK
6
CONTINUOUS
10
147.896
20
-61.0295
11
147.9
21
-61.0272
0
LINE
8
BLACK
6
CONTINUOUS
10
147.9
20
-61.0272
11
147.905
21
-61.0258
0
LINE
8
BLACK
6
CONTINUOUS
10
147.905
20
-61.0258
11
147.908
21
-61.0254
0
LINE
8
BLACK
6
CONTINUOUS
10
147.908
20
-61.0254
11
147.908
21
-61.0254
0
LINE
8
BLACK
6
CONTINUOUS
10
147.908
20
-61.0254
11
147.91
21
-61.0253
0
LINE
8
BLACK
6
CONTINUOUS
10
147.91
20
-61.0253
11
147.911
21
-61.0254
0
LINE
8
BLACK
6
CONTINUOUS
10
147.911
20
-61.0254
11
150.868
21
-61.0254
0
LINE
8
BLACK
6
CONTINUOUS
10
150.868
20
-61.0254
11
150.87
21
-61.0253
0
LINE
8
BLACK
6
CONTINUOUS
10
150.87
20
-61.0253
11
150.871
21
-61.0254
0
LINE
8
BLACK
6
CONTINUOUS
10
147.935
20
-61.0754
11
147.935
21
-62.4854
0
LINE
8
BLACK
6
CONTINUOUS
10
147.935
20
-62.4854
11
150.845
21
-62.4854
0
LINE
8
BLACK
6
CONTINUOUS
10
150.845
20
-62.4854
11
150.845
21
-61.0754
0
LINE
8
BLACK
6
CONTINUOUS
10
150.845
20
-61.0754
11
147.935
21
-61.0754
0
LINE
8
BLACK
6
CONTINUOUS
10
135.09
20
-61.9993
11
135.085
21
-61.9979
0
LINE
8
BLACK
6
CONTINUOUS
10
135.085
20
-61.9979
11
135.081
21
-61.9956
0
LINE
8
BLACK
6
CONTINUOUS
10
135.081
20
-61.9956
11
135.078
21
-61.9932
0
LINE
8
BLACK
6
CONTINUOUS
10
135.078
20
-61.9932
11
135.078
21
-61.9932
0
LINE
8
BLACK
6
CONTINUOUS
10
135.078
20
-61.9932
11
135.077
21
-61.9925
0
LINE
8
BLACK
6
CONTINUOUS
10
135.077
20
-61.9925
11
135.076
21
-61.9915
0
LINE
8
BLACK
6
CONTINUOUS
10
135.076
20
-61.9915
11
134.046
21
-60.9609
0
LINE
8
BLACK
6
CONTINUOUS
10
134.046
20
-60.9609
11
134.045
21
-60.9601
0
LINE
8
BLACK
6
CONTINUOUS
10
134.045
20
-60.9601
11
134.042
21
-60.9563
0
LINE
8
BLACK
6
CONTINUOUS
10
134.042
20
-60.9563
11
134.039
21
-60.9519
0
LINE
8
BLACK
6
CONTINUOUS
10
134.039
20
-60.9519
11
134.038
21
-60.9472
0
LINE
8
BLACK
6
CONTINUOUS
10
134.038
20
-60.9472
11
134.037
21
-60.9423
0
LINE
8
BLACK
6
CONTINUOUS
10
134.037
20
-60.9423
11
134.038
21
-60.9374
0
LINE
8
BLACK
6
CONTINUOUS
10
134.038
20
-60.9374
11
134.039
21
-60.9327
0
LINE
8
BLACK
6
CONTINUOUS
10
134.039
20
-60.9327
11
134.042
21
-60.9284
0
LINE
8
BLACK
6
CONTINUOUS
10
134.042
20
-60.9284
11
134.044
21
-60.9255
0
LINE
8
BLACK
6
CONTINUOUS
10
134.044
20
-60.9255
11
134.045
21
-60.9246
0
LINE
8
BLACK
6
CONTINUOUS
10
134.045
20
-60.9246
11
134.046
21
-60.9238
0
LINE
8
BLACK
6
CONTINUOUS
10
134.046
20
-60.9238
11
136.137
21
-58.8325
0
LINE
8
BLACK
6
CONTINUOUS
10
136.137
20
-58.8325
11
136.138
21
-58.8315
0
LINE
8
BLACK
6
CONTINUOUS
10
136.138
20
-58.8315
11
136.139
21
-58.8308
0
LINE
8
BLACK
6
CONTINUOUS
10
136.139
20
-58.8308
11
136.139
21
-58.8307
0
LINE
8
BLACK
6
CONTINUOUS
10
136.139
20
-58.8307
11
136.142
21
-58.8284
0
LINE
8
BLACK
6
CONTINUOUS
10
136.142
20
-58.8284
11
136.146
21
-58.8261
0
LINE
8
BLACK
6
CONTINUOUS
10
136.146
20
-58.8261
11
136.151
21
-58.8246
0
LINE
8
BLACK
6
CONTINUOUS
10
136.151
20
-58.8246
11
136.156
21
-58.8242
0
LINE
8
BLACK
6
CONTINUOUS
10
136.156
20
-58.8242
11
136.16
21
-58.8246
0
LINE
8
BLACK
6
CONTINUOUS
10
136.16
20
-58.8246
11
136.165
21
-58.8261
0
LINE
8
BLACK
6
CONTINUOUS
10
136.165
20
-58.8261
11
136.169
21
-58.8284
0
LINE
8
BLACK
6
CONTINUOUS
10
136.169
20
-58.8284
11
136.173
21
-58.8315
0
LINE
8
BLACK
6
CONTINUOUS
10
136.173
20
-58.8315
11
136.174
21
-58.8325
0
LINE
8
BLACK
6
CONTINUOUS
10
136.174
20
-58.8325
11
137.205
21
-59.8631
0
LINE
8
BLACK
6
CONTINUOUS
10
137.205
20
-59.8631
11
137.206
21
-59.8639
0
LINE
8
BLACK
6
CONTINUOUS
10
137.206
20
-59.8639
11
137.206
21
-59.8648
0
LINE
8
BLACK
6
CONTINUOUS
10
137.206
20
-59.8648
11
137.206
21
-59.8648
0
LINE
8
BLACK
6
CONTINUOUS
10
137.206
20
-59.8648
11
137.209
21
-59.8677
0
LINE
8
BLACK
6
CONTINUOUS
10
137.209
20
-59.8677
11
137.21
21
-59.8694
0
LINE
8
BLACK
6
CONTINUOUS
10
137.21
20
-59.8694
11
137.211
21
-59.872
0
LINE
8
BLACK
6
CONTINUOUS
10
137.211
20
-59.872
11
137.213
21
-59.8768
0
LINE
8
BLACK
6
CONTINUOUS
10
137.213
20
-59.8768
11
137.213
21
-59.8817
0
LINE
8
BLACK
6
CONTINUOUS
10
137.213
20
-59.8817
11
137.213
21
-59.8866
0
LINE
8
BLACK
6
CONTINUOUS
10
137.213
20
-59.8866
11
137.211
21
-59.8913
0
LINE
8
BLACK
6
CONTINUOUS
10
137.211
20
-59.8913
11
137.209
21
-59.8956
0
LINE
8
BLACK
6
CONTINUOUS
10
137.209
20
-59.8956
11
137.206
21
-59.8985
0
LINE
8
BLACK
6
CONTINUOUS
10
137.206
20
-59.8985
11
137.206
21
-59.8985
0
LINE
8
BLACK
6
CONTINUOUS
10
137.206
20
-59.8985
11
137.206
21
-59.8994
0
LINE
8
BLACK
6
CONTINUOUS
10
137.206
20
-59.8994
11
137.205
21
-59.9002
0
LINE
8
BLACK
6
CONTINUOUS
10
137.205
20
-59.9002
11
135.113
21
-61.9915
0
LINE
8
BLACK
6
CONTINUOUS
10
135.113
20
-61.9915
11
135.113
21
-61.9925
0
LINE
8
BLACK
6
CONTINUOUS
10
135.113
20
-61.9925
11
135.112
21
-61.9932
0
LINE
8
BLACK
6
CONTINUOUS
10
135.112
20
-61.9932
11
135.109
21
-61.9956
0
LINE
8
BLACK
6
CONTINUOUS
10
135.109
20
-61.9956
11
135.104
21
-61.9979
0
LINE
8
BLACK
6
CONTINUOUS
10
135.104
20
-61.9979
11
135.1
21
-61.9993
0
LINE
8
BLACK
6
CONTINUOUS
10
135.1
20
-61.9993
11
135.095
21
-61.9998
0
LINE
8
BLACK
6
CONTINUOUS
10
135.095
20
-61.9998
11
135.095
21
-61.9998
0
LINE
8
BLACK
6
CONTINUOUS
10
135.095
20
-61.9998
11
135.09
21
-61.9993
0
LINE
8
BLACK
6
CONTINUOUS
10
134.098
20
-60.9423
11
135.095
21
-61.9393
0
LINE
8
BLACK
6
CONTINUOUS
10
135.095
20
-61.9393
11
137.153
21
-59.8817
0
LINE
8
BLACK
6
CONTINUOUS
10
137.153
20
-59.8817
11
136.156
21
-58.8846
0
LINE
8
BLACK
6
CONTINUOUS
10
136.156
20
-58.8846
11
134.098
21
-60.9423
0
LINE
8
BLACK
6
CONTINUOUS
10
124.324
20
-59.8628
11
124.33
21
-59.8634
0
LINE
8
BLACK
6
CONTINUOUS
10
124.33
20
-59.8634
11
124.337
21
-59.8657
0
LINE
8
BLACK
6
CONTINUOUS
10
124.337
20
-59.8657
11
124.344
21
-59.8694
0
LINE
8
BLACK
6
CONTINUOUS
10
124.344
20
-59.8694
11
124.35
21
-59.8744
0
LINE
8
BLACK
6
CONTINUOUS
10
124.35
20
-59.8744
11
124.355
21
-59.8805
0
LINE
8
BLACK
6
CONTINUOUS
10
124.355
20
-59.8805
11
124.359
21
-59.8874
0
LINE
8
BLACK
6
CONTINUOUS
10
124.359
20
-59.8874
11
124.361
21
-59.895
0
LINE
8
BLACK
6
CONTINUOUS
10
124.361
20
-59.895
11
124.362
21
-59.9028
0
LINE
8
BLACK
6
CONTINUOUS
10
124.362
20
-59.9028
11
124.362
21
-59.9048
0
LINE
8
BLACK
6
CONTINUOUS
10
124.362
20
-59.9048
11
124.362
21
-61.9328
0
LINE
8
BLACK
6
CONTINUOUS
10
124.362
20
-61.9328
11
124.362
21
-61.9348
0
LINE
8
BLACK
6
CONTINUOUS
10
124.362
20
-61.9348
11
124.361
21
-61.9426
0
LINE
8
BLACK
6
CONTINUOUS
10
124.361
20
-61.9426
11
124.359
21
-61.9502
0
LINE
8
BLACK
6
CONTINUOUS
10
124.359
20
-61.9502
11
124.355
21
-61.9571
0
LINE
8
BLACK
6
CONTINUOUS
10
124.355
20
-61.9571
11
124.35
21
-61.9632
0
LINE
8
BLACK
6
CONTINUOUS
10
124.35
20
-61.9632
11
124.344
21
-61.9682
0
LINE
8
BLACK
6
CONTINUOUS
10
124.344
20
-61.9682
11
124.337
21
-61.9719
0
LINE
8
BLACK
6
CONTINUOUS
10
124.337
20
-61.9719
11
124.33
21
-61.9742
0
LINE
8
BLACK
6
CONTINUOUS
10
124.33
20
-61.9742
11
124.324
21
-61.9748
0
LINE
8
BLACK
6
CONTINUOUS
10
124.324
20
-61.9748
11
124.322
21
-61.975
0
LINE
8
BLACK
6
CONTINUOUS
10
124.322
20
-61.975
11
124.32
21
-61.9748
0
LINE
8
BLACK
6
CONTINUOUS
10
124.32
20
-61.9748
11
121.911
21
-61.9748
0
LINE
8
BLACK
6
CONTINUOUS
10
121.911
20
-61.9748
11
121.909
21
-61.975
0
LINE
8
BLACK
6
CONTINUOUS
10
121.909
20
-61.975
11
121.907
21
-61.9748
0
LINE
8
BLACK
6
CONTINUOUS
10
121.907
20
-61.9748
11
121.901
21
-61.9742
0
LINE
8
BLACK
6
CONTINUOUS
10
121.901
20
-61.9742
11
121.894
21
-61.9719
0
LINE
8
BLACK
6
CONTINUOUS
10
121.894
20
-61.9719
11
121.887
21
-61.9682
0
LINE
8
BLACK
6
CONTINUOUS
10
121.887
20
-61.9682
11
121.881
21
-61.9632
0
LINE
8
BLACK
6
CONTINUOUS
10
121.881
20
-61.9632
11
121.876
21
-61.9571
0
LINE
8
BLACK
6
CONTINUOUS
10
121.876
20
-61.9571
11
121.872
21
-61.9502
0
LINE
8
BLACK
6
CONTINUOUS
10
121.872
20
-61.9502
11
121.87
21
-61.9426
0
LINE
8
BLACK
6
CONTINUOUS
10
121.87
20
-61.9426
11
121.869
21
-61.9348
0
LINE
8
BLACK
6
CONTINUOUS
10
121.869
20
-61.9348
11
121.869
21
-61.9328
0
LINE
8
BLACK
6
CONTINUOUS
10
121.869
20
-61.9328
11
121.869
21
-59.9048
0
LINE
8
BLACK
6
CONTINUOUS
10
121.869
20
-59.9048
11
121.869
21
-59.9028
0
LINE
8
BLACK
6
CONTINUOUS
10
121.869
20
-59.9028
11
121.87
21
-59.895
0
LINE
8
BLACK
6
CONTINUOUS
10
121.87
20
-59.895
11
121.872
21
-59.8874
0
LINE
8
BLACK
6
CONTINUOUS
10
121.872
20
-59.8874
11
121.876
21
-59.8805
0
LINE
8
BLACK
6
CONTINUOUS
10
121.876
20
-59.8805
11
121.881
21
-59.8744
0
LINE
8
BLACK
6
CONTINUOUS
10
121.881
20
-59.8744
11
121.887
21
-59.8694
0
LINE
8
BLACK
6
CONTINUOUS
10
121.887
20
-59.8694
11
121.894
21
-59.8657
0
LINE
8
BLACK
6
CONTINUOUS
10
121.894
20
-59.8657
11
121.901
21
-59.8634
0
LINE
8
BLACK
6
CONTINUOUS
10
121.901
20
-59.8634
11
121.907
21
-59.8628
0
LINE
8
BLACK
6
CONTINUOUS
10
121.907
20
-59.8628
11
121.909
21
-59.8626
0
LINE
8
BLACK
6
CONTINUOUS
10
121.909
20
-59.8626
11
121.911
21
-59.8628
0
LINE
8
BLACK
6
CONTINUOUS
10
121.911
20
-59.8628
11
124.32
21
-59.8628
0
LINE
8
BLACK
6
CONTINUOUS
10
124.32
20
-59.8628
11
124.322
21
-59.8626
0
LINE
8
BLACK
6
CONTINUOUS
10
124.322
20
-59.8626
11
124.324
21
-59.8628
0
LINE
8
BLACK
6
CONTINUOUS
10
121.949
20
-59.9428
11
121.949
21
-61.8948
0
LINE
8
BLACK
6
CONTINUOUS
10
121.949
20
-61.8948
11
124.282
21
-61.8948
0
LINE
8
BLACK
6
CONTINUOUS
10
124.282
20
-61.8948
11
124.282
21
-59.9428
0
LINE
8
BLACK
6
CONTINUOUS
10
124.282
20
-59.9428
11
121.949
21
-59.9428
0
LINE
8
BLACK
6
CONTINUOUS
10
121.534
20
-58.947
11
121.534
21
-58.947
0
LINE
8
BLACK
6
CONTINUOUS
10
121.534
20
-58.947
11
121.537
21
-58.9474
0
LINE
8
BLACK
6
CONTINUOUS
10
121.537
20
-58.9474
11
121.542
21
-58.9488
0
LINE
8
BLACK
6
CONTINUOUS
10
121.542
20
-58.9488
11
121.546
21
-58.9511
0
LINE
8
BLACK
6
CONTINUOUS
10
121.546
20
-58.9511
11
121.55
21
-58.9542
0
LINE
8
BLACK
6
CONTINUOUS
10
121.55
20
-58.9542
11
121.553
21
-58.958
0
LINE
8
BLACK
6
CONTINUOUS
10
121.553
20
-58.958
11
121.556
21
-58.9624
0
LINE
8
BLACK
6
CONTINUOUS
10
121.556
20
-58.9624
11
121.557
21
-58.9671
0
LINE
8
BLACK
6
CONTINUOUS
10
121.557
20
-58.9671
11
121.558
21
-58.972
0
LINE
8
BLACK
6
CONTINUOUS
10
121.558
20
-58.972
11
121.557
21
-58.9732
0
LINE
8
BLACK
6
CONTINUOUS
10
121.557
20
-58.9732
11
121.557
21
-61.9308
0
LINE
8
BLACK
6
CONTINUOUS
10
121.557
20
-61.9308
11
121.558
21
-61.932
0
LINE
8
BLACK
6
CONTINUOUS
10
121.558
20
-61.932
11
121.557
21
-61.9332
0
LINE
8
BLACK
6
CONTINUOUS
10
121.557
20
-61.9332
11
121.557
21
-61.9332
0
LINE
8
BLACK
6
CONTINUOUS
10
121.557
20
-61.9332
11
121.557
21
-61.9369
0
LINE
8
BLACK
6
CONTINUOUS
10
121.557
20
-61.9369
11
121.556
21
-61.9416
0
LINE
8
BLACK
6
CONTINUOUS
10
121.556
20
-61.9416
11
121.553
21
-61.946
0
LINE
8
BLACK
6
CONTINUOUS
10
121.553
20
-61.946
11
121.55
21
-61.9498
0
LINE
8
BLACK
6
CONTINUOUS
10
121.55
20
-61.9498
11
121.546
21
-61.9529
0
LINE
8
BLACK
6
CONTINUOUS
10
121.546
20
-61.9529
11
121.542
21
-61.9552
0
LINE
8
BLACK
6
CONTINUOUS
10
121.542
20
-61.9552
11
121.537
21
-61.9566
0
LINE
8
BLACK
6
CONTINUOUS
10
121.537
20
-61.9566
11
121.532
21
-61.9571
0
LINE
8
BLACK
6
CONTINUOUS
10
121.532
20
-61.9571
11
121.531
21
-61.957
0
LINE
8
BLACK
6
CONTINUOUS
10
121.531
20
-61.957
11
120.074
21
-61.957
0
LINE
8
BLACK
6
CONTINUOUS
10
120.074
20
-61.957
11
120.072
21
-61.9571
0
LINE
8
BLACK
6
CONTINUOUS
10
120.072
20
-61.9571
11
120.067
21
-61.9566
0
LINE
8
BLACK
6
CONTINUOUS
10
120.067
20
-61.9566
11
120.063
21
-61.9552
0
LINE
8
BLACK
6
CONTINUOUS
10
120.063
20
-61.9552
11
120.058
21
-61.9529
0
LINE
8
BLACK
6
CONTINUOUS
10
120.058
20
-61.9529
11
120.055
21
-61.9498
0
LINE
8
BLACK
6
CONTINUOUS
10
120.055
20
-61.9498
11
120.052
21
-61.946
0
LINE
8
BLACK
6
CONTINUOUS
10
120.052
20
-61.946
11
120.049
21
-61.9416
0
LINE
8
BLACK
6
CONTINUOUS
10
120.049
20
-61.9416
11
120.048
21
-61.9369
0
LINE
8
BLACK
6
CONTINUOUS
10
120.048
20
-61.9369
11
120.047
21
-61.932
0
LINE
8
BLACK
6
CONTINUOUS
10
120.047
20
-61.932
11
120.047
21
-61.9308
0
LINE
8
BLACK
6
CONTINUOUS
10
120.047
20
-61.9308
11
120.047
21
-58.9732
0
LINE
8
BLACK
6
CONTINUOUS
10
120.047
20
-58.9732
11
120.047
21
-58.972
0
LINE
8
BLACK
6
CONTINUOUS
10
120.047
20
-58.972
11
120.048
21
-58.9671
0
LINE
8
BLACK
6
CONTINUOUS
10
120.048
20
-58.9671
11
120.049
21
-58.9624
0
LINE
8
BLACK
6
CONTINUOUS
10
120.049
20
-58.9624
11
120.052
21
-58.958
0
LINE
8
BLACK
6
CONTINUOUS
10
120.052
20
-58.958
11
120.055
21
-58.9542
0
LINE
8
BLACK
6
CONTINUOUS
10
120.055
20
-58.9542
11
120.058
21
-58.9511
0
LINE
8
BLACK
6
CONTINUOUS
10
120.058
20
-58.9511
11
120.063
21
-58.9488
0
LINE
8
BLACK
6
CONTINUOUS
10
120.063
20
-58.9488
11
120.067
21
-58.9474
0
LINE
8
BLACK
6
CONTINUOUS
10
120.067
20
-58.9474
11
120.071
21
-58.947
0
LINE
8
BLACK
6
CONTINUOUS
10
120.071
20
-58.947
11
120.071
21
-58.947
0
LINE
8
BLACK
6
CONTINUOUS
10
120.071
20
-58.947
11
120.072
21
-58.9469
0
LINE
8
BLACK
6
CONTINUOUS
10
120.072
20
-58.9469
11
120.074
21
-58.947
0
LINE
8
BLACK
6
CONTINUOUS
10
120.074
20
-58.947
11
121.531
21
-58.947
0
LINE
8
BLACK
6
CONTINUOUS
10
121.531
20
-58.947
11
121.532
21
-58.9469
0
LINE
8
BLACK
6
CONTINUOUS
10
121.532
20
-58.9469
11
121.534
21
-58.947
0
LINE
8
BLACK
6
CONTINUOUS
10
120.097
20
-58.997
11
120.097
21
-61.907
0
LINE
8
BLACK
6
CONTINUOUS
10
120.097
20
-61.907
11
121.507
21
-61.907
0
LINE
8
BLACK
6
CONTINUOUS
10
121.507
20
-61.907
11
121.507
21
-58.997
0
LINE
8
BLACK
6
CONTINUOUS
10
121.507
20
-58.997
11
120.097
21
-58.997
0
LINE
8
BLACK
6
CONTINUOUS
10
160.848
20
-50.6566
11
160.852
21
-50.657
0
LINE
8
BLACK
6
CONTINUOUS
10
160.852
20
-50.657
11
160.856
21
-50.6584
0
LINE
8
BLACK
6
CONTINUOUS
10
160.856
20
-50.6584
11
160.861
21
-50.6607
0
LINE
8
BLACK
6
CONTINUOUS
10
160.861
20
-50.6607
11
160.865
21
-50.6638
0
LINE
8
BLACK
6
CONTINUOUS
10
160.865
20
-50.6638
11
160.868
21
-50.6676
0
LINE
8
BLACK
6
CONTINUOUS
10
160.868
20
-50.6676
11
160.87
21
-50.672
0
LINE
8
BLACK
6
CONTINUOUS
10
160.87
20
-50.672
11
160.871
21
-50.6767
0
LINE
8
BLACK
6
CONTINUOUS
10
160.871
20
-50.6767
11
160.872
21
-50.6816
0
LINE
8
BLACK
6
CONTINUOUS
10
160.872
20
-50.6816
11
160.872
21
-50.6828
0
LINE
8
BLACK
6
CONTINUOUS
10
160.872
20
-50.6828
11
160.872
21
-60.8504
0
LINE
8
BLACK
6
CONTINUOUS
10
160.872
20
-60.8504
11
160.872
21
-60.8516
0
LINE
8
BLACK
6
CONTINUOUS
10
160.872
20
-60.8516
11
160.871
21
-60.8565
0
LINE
8
BLACK
6
CONTINUOUS
10
160.871
20
-60.8565
11
160.87
21
-60.8612
0
LINE
8
BLACK
6
CONTINUOUS
10
160.87
20
-60.8612
11
160.868
21
-60.8656
0
LINE
8
BLACK
6
CONTINUOUS
10
160.868
20
-60.8656
11
160.865
21
-60.8694
0
LINE
8
BLACK
6
CONTINUOUS
10
160.865
20
-60.8694
11
160.861
21
-60.8725
0
LINE
8
BLACK
6
CONTINUOUS
10
160.861
20
-60.8725
11
160.856
21
-60.8748
0
LINE
8
BLACK
6
CONTINUOUS
10
160.856
20
-60.8748
11
160.852
21
-60.8762
0
LINE
8
BLACK
6
CONTINUOUS
10
160.852
20
-60.8762
11
160.848
21
-60.8766
0
LINE
8
BLACK
6
CONTINUOUS
10
160.848
20
-60.8766
11
160.848
21
-60.8766
0
LINE
8
BLACK
6
CONTINUOUS
10
160.848
20
-60.8766
11
160.847
21
-60.8767
0
LINE
8
BLACK
6
CONTINUOUS
10
160.847
20
-60.8767
11
160.846
21
-60.8766
0
LINE
8
BLACK
6
CONTINUOUS
10
160.846
20
-60.8766
11
150.298
21
-60.8766
0
LINE
8
BLACK
6
CONTINUOUS
10
150.298
20
-60.8766
11
150.297
21
-60.8767
0
LINE
8
BLACK
6
CONTINUOUS
10
150.297
20
-60.8767
11
150.292
21
-60.8762
0
LINE
8
BLACK
6
CONTINUOUS
10
150.292
20
-60.8762
11
150.287
21
-60.8748
0
LINE
8
BLACK
6
CONTINUOUS
10
150.287
20
-60.8748
11
150.283
21
-60.8725
0
LINE
8
BLACK
6
CONTINUOUS
10
150.283
20
-60.8725
11
150.279
21
-60.8694
0
LINE
8
BLACK
6
CONTINUOUS
10
150.279
20
-60.8694
11
150.276
21
-60.8656
0
LINE
8
BLACK
6
CONTINUOUS
10
150.276
20
-60.8656
11
150.274
21
-60.8612
0
LINE
8
BLACK
6
CONTINUOUS
10
150.274
20
-60.8612
11
150.272
21
-60.8565
0
LINE
8
BLACK
6
CONTINUOUS
10
150.272
20
-60.8565
11
150.272
21
-60.8516
0
LINE
8
BLACK
6
CONTINUOUS
10
150.272
20
-60.8516
11
150.272
21
-60.8504
0
LINE
8
BLACK
6
CONTINUOUS
10
150.272
20
-60.8504
11
150.272
21
-50.6828
0
LINE
8
BLACK
6
CONTINUOUS
10
150.272
20
-50.6828
11
150.272
21
-50.6816
0
LINE
8
BLACK
6
CONTINUOUS
10
150.272
20
-50.6816
11
150.272
21
-50.6767
0
LINE
8
BLACK
6
CONTINUOUS
10
150.272
20
-50.6767
11
150.274
21
-50.672
0
LINE
8
BLACK
6
CONTINUOUS
10
150.274
20
-50.672
11
150.276
21
-50.6676
0
LINE
8
BLACK
6
CONTINUOUS
10
150.276
20
-50.6676
11
150.279
21
-50.6638
0
LINE
8
BLACK
6
CONTINUOUS
10
150.279
20
-50.6638
11
150.283
21
-50.6607
0
LINE
8
BLACK
6
CONTINUOUS
10
150.283
20
-50.6607
11
150.287
21
-50.6584
0
LINE
8
BLACK
6
CONTINUOUS
10
150.287
20
-50.6584
11
150.292
21
-50.657
0
LINE
8
BLACK
6
CONTINUOUS
10
150.292
20
-50.657
11
150.296
21
-50.6566
0
LINE
8
BLACK
6
CONTINUOUS
10
150.296
20
-50.6566
11
150.296
21
-50.6566
0
LINE
8
BLACK
6
CONTINUOUS
10
150.296
20
-50.6566
11
150.297
21
-50.6565
0
LINE
8
BLACK
6
CONTINUOUS
10
150.297
20
-50.6565
11
150.298
21
-50.6566
0
LINE
8
BLACK
6
CONTINUOUS
10
150.298
20
-50.6566
11
160.846
21
-50.6566
0
LINE
8
BLACK
6
CONTINUOUS
10
160.846
20
-50.6566
11
160.847
21
-50.6565
0
LINE
8
BLACK
6
CONTINUOUS
10
160.847
20
-50.6565
11
160.848
21
-50.6566
0
LINE
8
BLACK
6
CONTINUOUS
10
150.322
20
-50.7066
11
150.322
21
-60.8266
0
LINE
8
BLACK
6
CONTINUOUS
10
150.322
20
-60.8266
11
160.822
21
-60.8266
0
LINE
8
BLACK
6
CONTINUOUS
10
160.822
20
-60.8266
11
160.822
21
-50.7066
0
LINE
8
BLACK
6
CONTINUOUS
10
160.822
20
-50.7066
11
150.322
21
-50.7066
0
LINE
8
BLACK
6
CONTINUOUS
10
213.632
20
-221.992
11
213.868
21
-221.423
0
LINE
8
BLACK
6
CONTINUOUS
10
213.868
20
-221.423
11
214.211
21
-220.91
0
LINE
8
BLACK
6
CONTINUOUS
10
214.211
20
-220.91
11
214.647
21
-220.474
0
LINE
8
BLACK
6
CONTINUOUS
10
214.647
20
-220.474
11
215.159
21
-220.132
0
LINE
8
BLACK
6
CONTINUOUS
10
215.159
20
-220.132
11
215.729
21
-219.896
0
LINE
8
BLACK
6
CONTINUOUS
10
215.729
20
-219.896
11
216.333
21
-219.775
0
LINE
8
BLACK
6
CONTINUOUS
10
216.333
20
-219.775
11
216.95
21
-219.775
0
LINE
8
BLACK
6
CONTINUOUS
10
216.95
20
-219.775
11
217.555
21
-219.896
0
LINE
8
BLACK
6
CONTINUOUS
10
217.555
20
-219.896
11
218.124
21
-220.132
0
LINE
8
BLACK
6
CONTINUOUS
10
218.124
20
-220.132
11
218.637
21
-220.474
0
LINE
8
BLACK
6
CONTINUOUS
10
218.637
20
-220.474
11
219.073
21
-220.91
0
LINE
8
BLACK
6
CONTINUOUS
10
219.073
20
-220.91
11
219.415
21
-221.423
0
LINE
8
BLACK
6
CONTINUOUS
10
219.415
20
-221.423
11
219.651
21
-221.992
0
LINE
8
BLACK
6
CONTINUOUS
10
219.651
20
-221.992
11
219.772
21
-222.597
0
LINE
8
BLACK
6
CONTINUOUS
10
219.772
20
-222.597
11
219.772
21
-223.214
0
LINE
8
BLACK
6
CONTINUOUS
10
219.772
20
-223.214
11
219.651
21
-223.818
0
LINE
8
BLACK
6
CONTINUOUS
10
219.651
20
-223.818
11
219.415
21
-224.388
0
LINE
8
BLACK
6
CONTINUOUS
10
219.415
20
-224.388
11
219.073
21
-224.9
0
LINE
8
BLACK
6
CONTINUOUS
10
219.073
20
-224.9
11
218.637
21
-225.336
0
LINE
8
BLACK
6
CONTINUOUS
10
218.637
20
-225.336
11
218.124
21
-225.679
0
LINE
8
BLACK
6
CONTINUOUS
10
218.124
20
-225.679
11
217.555
21
-225.915
0
LINE
8
BLACK
6
CONTINUOUS
10
217.555
20
-225.915
11
216.95
21
-226.035
0
LINE
8
BLACK
6
CONTINUOUS
10
216.95
20
-226.035
11
216.333
21
-226.035
0
LINE
8
BLACK
6
CONTINUOUS
10
216.333
20
-226.035
11
215.729
21
-225.915
0
LINE
8
BLACK
6
CONTINUOUS
10
215.729
20
-225.915
11
215.159
21
-225.679
0
LINE
8
BLACK
6
CONTINUOUS
10
215.159
20
-225.679
11
214.647
21
-225.336
0
LINE
8
BLACK
6
CONTINUOUS
10
214.647
20
-225.336
11
214.211
21
-224.9
0
LINE
8
BLACK
6
CONTINUOUS
10
214.211
20
-224.9
11
213.868
21
-224.388
0
LINE
8
BLACK
6
CONTINUOUS
10
213.868
20
-224.388
11
213.632
21
-223.818
0
LINE
8
BLACK
6
CONTINUOUS
10
213.632
20
-223.818
11
213.512
21
-223.214
0
LINE
8
BLACK
6
CONTINUOUS
10
213.512
20
-223.214
11
213.512
21
-222.597
0
LINE
8
BLACK
6
CONTINUOUS
10
213.512
20
-222.597
11
213.632
21
-221.992
0
LINE
8
BLACK
6
CONTINUOUS
10
213.699
20
-223.798
11
213.93
21
-224.355
0
LINE
8
BLACK
6
CONTINUOUS
10
213.93
20
-224.355
11
214.265
21
-224.856
0
LINE
8
BLACK
6
CONTINUOUS
10
214.265
20
-224.856
11
214.691
21
-225.282
0
LINE
8
BLACK
6
CONTINUOUS
10
214.691
20
-225.282
11
215.192
21
-225.617
0
LINE
8
BLACK
6
CONTINUOUS
10
215.192
20
-225.617
11
215.749
21
-225.848
0
LINE
8
BLACK
6
CONTINUOUS
10
215.749
20
-225.848
11
216.34
21
-225.965
0
LINE
8
BLACK
6
CONTINUOUS
10
216.34
20
-225.965
11
216.943
21
-225.965
0
LINE
8
BLACK
6
CONTINUOUS
10
216.943
20
-225.965
11
217.534
21
-225.848
0
LINE
8
BLACK
6
CONTINUOUS
10
217.534
20
-225.848
11
218.091
21
-225.617
0
LINE
8
BLACK
6
CONTINUOUS
10
218.091
20
-225.617
11
218.592
21
-225.282
0
LINE
8
BLACK
6
CONTINUOUS
10
218.592
20
-225.282
11
219.019
21
-224.856
0
LINE
8
BLACK
6
CONTINUOUS
10
219.019
20
-224.856
11
219.354
21
-224.355
0
LINE
8
BLACK
6
CONTINUOUS
10
219.354
20
-224.355
11
219.584
21
-223.798
0
LINE
8
BLACK
6
CONTINUOUS
10
219.584
20
-223.798
11
219.702
21
-223.207
0
LINE
8
BLACK
6
CONTINUOUS
10
219.702
20
-223.207
11
219.702
21
-222.604
0
LINE
8
BLACK
6
CONTINUOUS
10
219.702
20
-222.604
11
219.584
21
-222.013
0
LINE
8
BLACK
6
CONTINUOUS
10
219.584
20
-222.013
11
219.354
21
-221.456
0
LINE
8
BLACK
6
CONTINUOUS
10
219.354
20
-221.456
11
219.019
21
-220.955
0
LINE
8
BLACK
6
CONTINUOUS
10
219.019
20
-220.955
11
218.592
21
-220.528
0
LINE
8
BLACK
6
CONTINUOUS
10
218.592
20
-220.528
11
218.091
21
-220.193
0
LINE
8
BLACK
6
CONTINUOUS
10
218.091
20
-220.193
11
217.534
21
-219.963
0
LINE
8
BLACK
6
CONTINUOUS
10
217.534
20
-219.963
11
216.943
21
-219.845
0
LINE
8
BLACK
6
CONTINUOUS
10
216.943
20
-219.845
11
216.34
21
-219.845
0
LINE
8
BLACK
6
CONTINUOUS
10
216.34
20
-219.845
11
215.749
21
-219.963
0
LINE
8
BLACK
6
CONTINUOUS
10
215.749
20
-219.963
11
215.192
21
-220.193
0
LINE
8
BLACK
6
CONTINUOUS
10
215.192
20
-220.193
11
214.691
21
-220.528
0
LINE
8
BLACK
6
CONTINUOUS
10
214.691
20
-220.528
11
214.265
21
-220.955
0
LINE
8
BLACK
6
CONTINUOUS
10
214.265
20
-220.955
11
213.93
21
-221.456
0
LINE
8
BLACK
6
CONTINUOUS
10
213.93
20
-221.456
11
213.699
21
-222.013
0
LINE
8
BLACK
6
CONTINUOUS
10
213.699
20
-222.013
11
213.582
21
-222.604
0
LINE
8
BLACK
6
CONTINUOUS
10
213.582
20
-222.604
11
213.582
21
-223.207
0
LINE
8
BLACK
6
CONTINUOUS
10
213.582
20
-223.207
11
213.699
21
-223.798
0
LINE
8
BLACK
6
CONTINUOUS
10
253.22
20
-182.429
11
253.456
21
-181.86
0
LINE
8
BLACK
6
CONTINUOUS
10
253.456
20
-181.86
11
253.799
21
-181.347
0
LINE
8
BLACK
6
CONTINUOUS
10
253.799
20
-181.347
11
254.235
21
-180.911
0
LINE
8
BLACK
6
CONTINUOUS
10
254.235
20
-180.911
11
254.748
21
-180.569
0
LINE
8
BLACK
6
CONTINUOUS
10
254.748
20
-180.569
11
255.317
21
-180.333
0
LINE
8
BLACK
6
CONTINUOUS
10
255.317
20
-180.333
11
255.922
21
-180.212
0
LINE
8
BLACK
6
CONTINUOUS
10
255.922
20
-180.212
11
256.538
21
-180.212
0
LINE
8
BLACK
6
CONTINUOUS
10
256.538
20
-180.212
11
257.143
21
-180.333
0
LINE
8
BLACK
6
CONTINUOUS
10
257.143
20
-180.333
11
257.713
21
-180.569
0
LINE
8
BLACK
6
CONTINUOUS
10
257.713
20
-180.569
11
258.225
21
-180.911
0
LINE
8
BLACK
6
CONTINUOUS
10
258.225
20
-180.911
11
258.661
21
-181.347
0
LINE
8
BLACK
6
CONTINUOUS
10
258.661
20
-181.347
11
259.004
21
-181.86
0
LINE
8
BLACK
6
CONTINUOUS
10
259.004
20
-181.86
11
259.24
21
-182.429
0
LINE
8
BLACK
6
CONTINUOUS
10
259.24
20
-182.429
11
259.36
21
-183.034
0
LINE
8
BLACK
6
CONTINUOUS
10
259.36
20
-183.034
11
259.36
21
-183.651
0
LINE
8
BLACK
6
CONTINUOUS
10
259.36
20
-183.651
11
259.24
21
-184.255
0
LINE
8
BLACK
6
CONTINUOUS
10
259.24
20
-184.255
11
259.004
21
-184.825
0
LINE
8
BLACK
6
CONTINUOUS
10
259.004
20
-184.825
11
258.661
21
-185.337
0
LINE
8
BLACK
6
CONTINUOUS
10
258.661
20
-185.337
11
258.225
21
-185.773
0
LINE
8
BLACK
6
CONTINUOUS
10
258.225
20
-185.773
11
257.713
21
-186.116
0
LINE
8
BLACK
6
CONTINUOUS
10
257.713
20
-186.116
11
257.143
21
-186.352
0
LINE
8
BLACK
6
CONTINUOUS
10
257.143
20
-186.352
11
256.538
21
-186.472
0
LINE
8
BLACK
6
CONTINUOUS
10
256.538
20
-186.472
11
255.922
21
-186.472
0
LINE
8
BLACK
6
CONTINUOUS
10
255.922
20
-186.472
11
255.317
21
-186.352
0
LINE
8
BLACK
6
CONTINUOUS
10
255.317
20
-186.352
11
254.748
21
-186.116
0
LINE
8
BLACK
6
CONTINUOUS
10
254.748
20
-186.116
11
254.235
21
-185.773
0
LINE
8
BLACK
6
CONTINUOUS
10
254.235
20
-185.773
11
253.799
21
-185.337
0
LINE
8
BLACK
6
CONTINUOUS
10
253.799
20
-185.337
11
253.456
21
-184.825
0
LINE
8
BLACK
6
CONTINUOUS
10
253.456
20
-184.825
11
253.22
21
-184.255
0
LINE
8
BLACK
6
CONTINUOUS
10
253.22
20
-184.255
11
253.1
21
-183.651
0
LINE
8
BLACK
6
CONTINUOUS
10
253.1
20
-183.651
11
253.1
21
-183.034
0
LINE
8
BLACK
6
CONTINUOUS
10
253.1
20
-183.034
11
253.22
21
-182.429
0
LINE
8
BLACK
6
CONTINUOUS
10
253.287
20
-184.235
11
253.518
21
-184.792
0
LINE
8
BLACK
6
CONTINUOUS
10
253.518
20
-184.792
11
253.853
21
-185.293
0
LINE
8
BLACK
6
CONTINUOUS
10
253.853
20
-185.293
11
254.279
21
-185.719
0
LINE
8
BLACK
6
CONTINUOUS
10
254.279
20
-185.719
11
254.781
21
-186.054
0
LINE
8
BLACK
6
CONTINUOUS
10
254.781
20
-186.054
11
255.337
21
-186.285
0
LINE
8
BLACK
6
CONTINUOUS
10
255.337
20
-186.285
11
255.929
21
-186.403
0
LINE
8
BLACK
6
CONTINUOUS
10
255.929
20
-186.403
11
256.531
21
-186.403
0
LINE
8
BLACK
6
CONTINUOUS
10
256.531
20
-186.403
11
257.123
21
-186.285
0
LINE
8
BLACK
6
CONTINUOUS
10
257.123
20
-186.285
11
257.68
21
-186.054
0
LINE
8
BLACK
6
CONTINUOUS
10
257.68
20
-186.054
11
258.181
21
-185.719
0
LINE
8
BLACK
6
CONTINUOUS
10
258.181
20
-185.719
11
258.607
21
-185.293
0
LINE
8
BLACK
6
CONTINUOUS
10
258.607
20
-185.293
11
258.942
21
-184.792
0
LINE
8
BLACK
6
CONTINUOUS
10
258.942
20
-184.792
11
259.173
21
-184.235
0
LINE
8
BLACK
6
CONTINUOUS
10
259.173
20
-184.235
11
259.29
21
-183.644
0
LINE
8
BLACK
6
CONTINUOUS
10
259.29
20
-183.644
11
259.29
21
-183.041
0
LINE
8
BLACK
6
CONTINUOUS
10
259.29
20
-183.041
11
259.173
21
-182.45
0
LINE
8
BLACK
6
CONTINUOUS
10
259.173
20
-182.45
11
258.942
21
-181.893
0
LINE
8
BLACK
6
CONTINUOUS
10
258.942
20
-181.893
11
258.607
21
-181.392
0
LINE
8
BLACK
6
CONTINUOUS
10
258.607
20
-181.392
11
258.181
21
-180.965
0
LINE
8
BLACK
6
CONTINUOUS
10
258.181
20
-180.965
11
257.68
21
-180.63
0
LINE
8
BLACK
6
CONTINUOUS
10
257.68
20
-180.63
11
257.123
21
-180.4
0
LINE
8
BLACK
6
CONTINUOUS
10
257.123
20
-180.4
11
256.531
21
-180.282
0
LINE
8
BLACK
6
CONTINUOUS
10
256.531
20
-180.282
11
255.929
21
-180.282
0
LINE
8
BLACK
6
CONTINUOUS
10
255.929
20
-180.282
11
255.337
21
-180.4
0
LINE
8
BLACK
6
CONTINUOUS
10
255.337
20
-180.4
11
254.781
21
-180.63
0
LINE
8
BLACK
6
CONTINUOUS
10
254.781
20
-180.63
11
254.279
21
-180.965
0
LINE
8
BLACK
6
CONTINUOUS
10
254.279
20
-180.965
11
253.853
21
-181.392
0
LINE
8
BLACK
6
CONTINUOUS
10
253.853
20
-181.392
11
253.518
21
-181.893
0
LINE
8
BLACK
6
CONTINUOUS
10
253.518
20
-181.893
11
253.287
21
-182.45
0
LINE
8
BLACK
6
CONTINUOUS
10
253.287
20
-182.45
11
253.17
21
-183.041
0
LINE
8
BLACK
6
CONTINUOUS
10
253.17
20
-183.041
11
253.17
21
-183.644
0
LINE
8
BLACK
6
CONTINUOUS
10
253.17
20
-183.644
11
253.287
21
-184.235
0
LINE
8
BLACK
6
CONTINUOUS
10
77.0258
20
-173.052
11
77.2618
21
-172.482
0
LINE
8
BLACK
6
CONTINUOUS
10
77.2618
20
-172.482
11
77.6043
21
-171.969
0
LINE
8
BLACK
6
CONTINUOUS
10
77.6043
20
-171.969
11
78.0402
21
-171.533
0
LINE
8
BLACK
6
CONTINUOUS
10
78.0402
20
-171.533
11
78.5529
21
-171.191
0
LINE
8
BLACK
6
CONTINUOUS
10
78.5529
20
-171.191
11
79.1225
21
-170.955
0
LINE
8
BLACK
6
CONTINUOUS
10
79.1225
20
-170.955
11
79.7271
21
-170.835
0
LINE
8
BLACK
6
CONTINUOUS
10
79.7271
20
-170.835
11
80.3437
21
-170.835
0
LINE
8
BLACK
6
CONTINUOUS
10
80.3437
20
-170.835
11
80.9483
21
-170.955
0
LINE
8
BLACK
6
CONTINUOUS
10
80.9483
20
-170.955
11
81.5179
21
-171.191
0
LINE
8
BLACK
6
CONTINUOUS
10
81.5179
20
-171.191
11
82.0306
21
-171.533
0
LINE
8
BLACK
6
CONTINUOUS
10
82.0306
20
-171.533
11
82.4665
21
-171.969
0
LINE
8
BLACK
6
CONTINUOUS
10
82.4665
20
-171.969
11
82.809
21
-172.482
0
LINE
8
BLACK
6
CONTINUOUS
10
82.809
20
-172.482
11
83.045
21
-173.052
0
LINE
8
BLACK
6
CONTINUOUS
10
83.045
20
-173.052
11
83.1653
21
-173.656
0
LINE
8
BLACK
6
CONTINUOUS
10
83.1653
20
-173.656
11
83.1653
21
-174.273
0
LINE
8
BLACK
6
CONTINUOUS
10
83.1653
20
-174.273
11
83.045
21
-174.878
0
LINE
8
BLACK
6
CONTINUOUS
10
83.045
20
-174.878
11
82.809
21
-175.447
0
LINE
8
BLACK
6
CONTINUOUS
10
82.809
20
-175.447
11
82.4665
21
-175.96
0
LINE
8
BLACK
6
CONTINUOUS
10
82.4665
20
-175.96
11
82.0306
21
-176.396
0
LINE
8
BLACK
6
CONTINUOUS
10
82.0306
20
-176.396
11
81.5179
21
-176.738
0
LINE
8
BLACK
6
CONTINUOUS
10
81.5179
20
-176.738
11
80.9483
21
-176.974
0
LINE
8
BLACK
6
CONTINUOUS
10
80.9483
20
-176.974
11
80.3437
21
-177.094
0
LINE
8
BLACK
6
CONTINUOUS
10
80.3437
20
-177.094
11
79.7271
21
-177.094
0
LINE
8
BLACK
6
CONTINUOUS
10
79.7271
20
-177.094
11
79.1225
21
-176.974
0
LINE
8
BLACK
6
CONTINUOUS
10
79.1225
20
-176.974
11
78.5529
21
-176.738
0
LINE
8
BLACK
6
CONTINUOUS
10
78.5529
20
-176.738
11
78.0402
21
-176.396
0
LINE
8
BLACK
6
CONTINUOUS
10
78.0402
20
-176.396
11
77.6043
21
-175.96
0
LINE
8
BLACK
6
CONTINUOUS
10
77.6043
20
-175.96
11
77.2618
21
-175.447
0
LINE
8
BLACK
6
CONTINUOUS
10
77.2618
20
-175.447
11
77.0258
21
-174.878
0
LINE
8
BLACK
6
CONTINUOUS
10
77.0258
20
-174.878
11
76.9055
21
-174.273
0
LINE
8
BLACK
6
CONTINUOUS
10
76.9055
20
-174.273
11
76.9055
21
-173.656
0
LINE
8
BLACK
6
CONTINUOUS
10
76.9055
20
-173.656
11
77.0258
21
-173.052
0
LINE
8
BLACK
6
CONTINUOUS
10
77.0928
20
-174.857
11
77.3235
21
-175.414
0
LINE
8
BLACK
6
CONTINUOUS
10
77.3235
20
-175.414
11
77.6584
21
-175.915
0
LINE
8
BLACK
6
CONTINUOUS
10
77.6584
20
-175.915
11
78.0846
21
-176.342
0
LINE
8
BLACK
6
CONTINUOUS
10
78.0846
20
-176.342
11
78.5859
21
-176.677
0
LINE
8
BLACK
6
CONTINUOUS
10
78.5859
20
-176.677
11
79.1428
21
-176.907
0
LINE
8
BLACK
6
CONTINUOUS
10
79.1428
20
-176.907
11
79.734
21
-177.025
0
LINE
8
BLACK
6
CONTINUOUS
10
79.734
20
-177.025
11
80.3368
21
-177.025
0
LINE
8
BLACK
6
CONTINUOUS
10
80.3368
20
-177.025
11
80.928
21
-176.907
0
LINE
8
BLACK
6
CONTINUOUS
10
80.928
20
-176.907
11
81.4849
21
-176.677
0
LINE
8
BLACK
6
CONTINUOUS
10
81.4849
20
-176.677
11
81.9862
21
-176.342
0
LINE
8
BLACK
6
CONTINUOUS
10
81.9862
20
-176.342
11
82.4124
21
-175.915
0
LINE
8
BLACK
6
CONTINUOUS
10
82.4124
20
-175.915
11
82.7473
21
-175.414
0
LINE
8
BLACK
6
CONTINUOUS
10
82.7473
20
-175.414
11
82.978
21
-174.857
0
LINE
8
BLACK
6
CONTINUOUS
10
82.978
20
-174.857
11
83.0956
21
-174.266
0
LINE
8
BLACK
6
CONTINUOUS
10
83.0956
20
-174.266
11
83.0956
21
-173.663
0
LINE
8
BLACK
6
CONTINUOUS
10
83.0956
20
-173.663
11
82.978
21
-173.072
0
LINE
8
BLACK
6
CONTINUOUS
10
82.978
20
-173.072
11
82.7473
21
-172.515
0
LINE
8
BLACK
6
CONTINUOUS
10
82.7473
20
-172.515
11
82.4124
21
-172.014
0
LINE
8
BLACK
6
CONTINUOUS
10
82.4124
20
-172.014
11
81.9862
21
-171.588
0
LINE
8
BLACK
6
CONTINUOUS
10
81.9862
20
-171.588
11
81.4849
21
-171.253
0
LINE
8
BLACK
6
CONTINUOUS
10
81.4849
20
-171.253
11
80.928
21
-171.022
0
LINE
8
BLACK
6
CONTINUOUS
10
80.928
20
-171.022
11
80.3368
21
-170.904
0
LINE
8
BLACK
6
CONTINUOUS
10
80.3368
20
-170.904
11
79.734
21
-170.904
0
LINE
8
BLACK
6
CONTINUOUS
10
79.734
20
-170.904
11
79.1428
21
-171.022
0
LINE
8
BLACK
6
CONTINUOUS
10
79.1428
20
-171.022
11
78.5859
21
-171.253
0
LINE
8
BLACK
6
CONTINUOUS
10
78.5859
20
-171.253
11
78.0846
21
-171.588
0
LINE
8
BLACK
6
CONTINUOUS
10
78.0846
20
-171.588
11
77.6584
21
-172.014
0
LINE
8
BLACK
6
CONTINUOUS
10
77.6584
20
-172.014
11
77.3235
21
-172.515
0
LINE
8
BLACK
6
CONTINUOUS
10
77.3235
20
-172.515
11
77.0928
21
-173.072
0
LINE
8
BLACK
6
CONTINUOUS
10
77.0928
20
-173.072
11
76.9752
21
-173.663
0
LINE
8
BLACK
6
CONTINUOUS
10
76.9752
20
-173.663
11
76.9752
21
-174.266
0
LINE
8
BLACK
6
CONTINUOUS
10
76.9752
20
-174.266
11
77.0928
21
-174.857
0
LINE
8
BLACK
6
CONTINUOUS
10
213.684
20
-161.012
11
213.92
21
-160.442
0
LINE
8
BLACK
6
CONTINUOUS
10
213.92
20
-160.442
11
214.263
21
-159.93
0
LINE
8
BLACK
6
CONTINUOUS
10
214.263
20
-159.93
11
214.699
21
-159.494
0
LINE
8
BLACK
6
CONTINUOUS
10
214.699
20
-159.494
11
215.211
21
-159.151
0
LINE
8
BLACK
6
CONTINUOUS
10
215.211
20
-159.151
11
215.781
21
-158.915
0
LINE
8
BLACK
6
CONTINUOUS
10
215.781
20
-158.915
11
216.385
21
-158.795
0
LINE
8
BLACK
6
CONTINUOUS
10
216.385
20
-158.795
11
217.002
21
-158.795
0
LINE
8
BLACK
6
CONTINUOUS
10
217.002
20
-158.795
11
217.607
21
-158.915
0
LINE
8
BLACK
6
CONTINUOUS
10
217.607
20
-158.915
11
218.176
21
-159.151
0
LINE
8
BLACK
6
CONTINUOUS
10
218.176
20
-159.151
11
218.689
21
-159.494
0
LINE
8
BLACK
6
CONTINUOUS
10
218.689
20
-159.494
11
219.125
21
-159.93
0
LINE
8
BLACK
6
CONTINUOUS
10
219.125
20
-159.93
11
219.467
21
-160.442
0
LINE
8
BLACK
6
CONTINUOUS
10
219.467
20
-160.442
11
219.703
21
-161.012
0
LINE
8
BLACK
6
CONTINUOUS
10
219.703
20
-161.012
11
219.824
21
-161.617
0
LINE
8
BLACK
6
CONTINUOUS
10
219.824
20
-161.617
11
219.824
21
-162.233
0
LINE
8
BLACK
6
CONTINUOUS
10
219.824
20
-162.233
11
219.703
21
-162.838
0
LINE
8
BLACK
6
CONTINUOUS
10
219.703
20
-162.838
11
219.467
21
-163.408
0
LINE
8
BLACK
6
CONTINUOUS
10
219.467
20
-163.408
11
219.125
21
-163.92
0
LINE
8
BLACK
6
CONTINUOUS
10
219.125
20
-163.92
11
218.689
21
-164.356
0
LINE
8
BLACK
6
CONTINUOUS
10
218.689
20
-164.356
11
218.176
21
-164.699
0
LINE
8
BLACK
6
CONTINUOUS
10
218.176
20
-164.699
11
217.607
21
-164.935
0
LINE
8
BLACK
6
CONTINUOUS
10
217.607
20
-164.935
11
217.002
21
-165.055
0
LINE
8
BLACK
6
CONTINUOUS
10
217.002
20
-165.055
11
216.385
21
-165.055
0
LINE
8
BLACK
6
CONTINUOUS
10
216.385
20
-165.055
11
215.781
21
-164.935
0
LINE
8
BLACK
6
CONTINUOUS
10
215.781
20
-164.935
11
215.211
21
-164.699
0
LINE
8
BLACK
6
CONTINUOUS
10
215.211
20
-164.699
11
214.699
21
-164.356
0
LINE
8
BLACK
6
CONTINUOUS
10
214.699
20
-164.356
11
214.263
21
-163.92
0
LINE
8
BLACK
6
CONTINUOUS
10
214.263
20
-163.92
11
213.92
21
-163.408
0
LINE
8
BLACK
6
CONTINUOUS
10
213.92
20
-163.408
11
213.684
21
-162.838
0
LINE
8
BLACK
6
CONTINUOUS
10
213.684
20
-162.838
11
213.564
21
-162.233
0
LINE
8
BLACK
6
CONTINUOUS
10
213.564
20
-162.233
11
213.564
21
-161.617
0
LINE
8
BLACK
6
CONTINUOUS
10
213.564
20
-161.617
11
213.684
21
-161.012
0
LINE
8
BLACK
6
CONTINUOUS
10
213.751
20
-162.818
11
213.982
21
-163.375
0
LINE
8
BLACK
6
CONTINUOUS
10
213.982
20
-163.375
11
214.317
21
-163.876
0
LINE
8
BLACK
6
CONTINUOUS
10
214.317
20
-163.876
11
214.743
21
-164.302
0
LINE
8
BLACK
6
CONTINUOUS
10
214.743
20
-164.302
11
215.244
21
-164.637
0
LINE
8
BLACK
6
CONTINUOUS
10
215.244
20
-164.637
11
215.801
21
-164.868
0
LINE
8
BLACK
6
CONTINUOUS
10
215.801
20
-164.868
11
216.392
21
-164.985
0
LINE
8
BLACK
6
CONTINUOUS
10
216.392
20
-164.985
11
216.995
21
-164.985
0
LINE
8
BLACK
6
CONTINUOUS
10
216.995
20
-164.985
11
217.586
21
-164.868
0
LINE
8
BLACK
6
CONTINUOUS
10
217.586
20
-164.868
11
218.143
21
-164.637
0
LINE
8
BLACK
6
CONTINUOUS
10
218.143
20
-164.637
11
218.645
21
-164.302
0
LINE
8
BLACK
6
CONTINUOUS
10
218.645
20
-164.302
11
219.071
21
-163.876
0
LINE
8
BLACK
6
CONTINUOUS
10
219.071
20
-163.876
11
219.406
21
-163.375
0
LINE
8
BLACK
6
CONTINUOUS
10
219.406
20
-163.375
11
219.636
21
-162.818
0
LINE
8
BLACK
6
CONTINUOUS
10
219.636
20
-162.818
11
219.754
21
-162.226
0
LINE
8
BLACK
6
CONTINUOUS
10
219.754
20
-162.226
11
219.754
21
-161.624
0
LINE
8
BLACK
6
CONTINUOUS
10
219.754
20
-161.624
11
219.636
21
-161.032
0
LINE
8
BLACK
6
CONTINUOUS
10
219.636
20
-161.032
11
219.406
21
-160.475
0
LINE
8
BLACK
6
CONTINUOUS
10
219.406
20
-160.475
11
219.071
21
-159.974
0
LINE
8
BLACK
6
CONTINUOUS
10
219.071
20
-159.974
11
218.645
21
-159.548
0
LINE
8
BLACK
6
CONTINUOUS
10
218.645
20
-159.548
11
218.143
21
-159.213
0
LINE
8
BLACK
6
CONTINUOUS
10
218.143
20
-159.213
11
217.586
21
-158.982
0
LINE
8
BLACK
6
CONTINUOUS
10
217.586
20
-158.982
11
216.995
21
-158.865
0
LINE
8
BLACK
6
CONTINUOUS
10
216.995
20
-158.865
11
216.392
21
-158.865
0
LINE
8
BLACK
6
CONTINUOUS
10
216.392
20
-158.865
11
215.801
21
-158.982
0
LINE
8
BLACK
6
CONTINUOUS
10
215.801
20
-158.982
11
215.244
21
-159.213
0
LINE
8
BLACK
6
CONTINUOUS
10
215.244
20
-159.213
11
214.743
21
-159.548
0
LINE
8
BLACK
6
CONTINUOUS
10
214.743
20
-159.548
11
214.317
21
-159.974
0
LINE
8
BLACK
6
CONTINUOUS
10
214.317
20
-159.974
11
213.982
21
-160.475
0
LINE
8
BLACK
6
CONTINUOUS
10
213.982
20
-160.475
11
213.751
21
-161.032
0
LINE
8
BLACK
6
CONTINUOUS
10
213.751
20
-161.032
11
213.634
21
-161.624
0
LINE
8
BLACK
6
CONTINUOUS
10
213.634
20
-161.624
11
213.634
21
-162.226
0
LINE
8
BLACK
6
CONTINUOUS
10
213.634
20
-162.226
11
213.751
21
-162.818
0
LINE
8
BLACK
6
CONTINUOUS
10
102.559
20
-135.612
11
102.795
21
-135.042
0
LINE
8
BLACK
6
CONTINUOUS
10
102.795
20
-135.042
11
103.138
21
-134.53
0
LINE
8
BLACK
6
CONTINUOUS
10
103.138
20
-134.53
11
103.574
21
-134.094
0
LINE
8
BLACK
6
CONTINUOUS
10
103.574
20
-134.094
11
104.086
21
-133.751
0
LINE
8
BLACK
6
CONTINUOUS
10
104.086
20
-133.751
11
104.656
21
-133.515
0
LINE
8
BLACK
6
CONTINUOUS
10
104.656
20
-133.515
11
105.26
21
-133.395
0
LINE
8
BLACK
6
CONTINUOUS
10
105.26
20
-133.395
11
105.877
21
-133.395
0
LINE
8
BLACK
6
CONTINUOUS
10
105.877
20
-133.395
11
106.482
21
-133.515
0
LINE
8
BLACK
6
CONTINUOUS
10
106.482
20
-133.515
11
107.051
21
-133.751
0
LINE
8
BLACK
6
CONTINUOUS
10
107.051
20
-133.751
11
107.564
21
-134.094
0
LINE
8
BLACK
6
CONTINUOUS
10
107.564
20
-134.094
11
108
21
-134.53
0
LINE
8
BLACK
6
CONTINUOUS
10
108
20
-134.53
11
108.342
21
-135.042
0
LINE
8
BLACK
6
CONTINUOUS
10
108.342
20
-135.042
11
108.578
21
-135.612
0
LINE
8
BLACK
6
CONTINUOUS
10
108.578
20
-135.612
11
108.699
21
-136.217
0
LINE
8
BLACK
6
CONTINUOUS
10
108.699
20
-136.217
11
108.699
21
-136.833
0
LINE
8
BLACK
6
CONTINUOUS
10
108.699
20
-136.833
11
108.578
21
-137.438
0
LINE
8
BLACK
6
CONTINUOUS
10
108.578
20
-137.438
11
108.342
21
-138.008
0
LINE
8
BLACK
6
CONTINUOUS
10
108.342
20
-138.008
11
108
21
-138.52
0
LINE
8
BLACK
6
CONTINUOUS
10
108
20
-138.52
11
107.564
21
-138.956
0
LINE
8
BLACK
6
CONTINUOUS
10
107.564
20
-138.956
11
107.051
21
-139.299
0
LINE
8
BLACK
6
CONTINUOUS
10
107.051
20
-139.299
11
106.482
21
-139.535
0
LINE
8
BLACK
6
CONTINUOUS
10
106.482
20
-139.535
11
105.877
21
-139.655
0
LINE
8
BLACK
6
CONTINUOUS
10
105.877
20
-139.655
11
105.26
21
-139.655
0
LINE
8
BLACK
6
CONTINUOUS
10
105.26
20
-139.655
11
104.656
21
-139.535
0
LINE
8
BLACK
6
CONTINUOUS
10
104.656
20
-139.535
11
104.086
21
-139.299
0
LINE
8
BLACK
6
CONTINUOUS
10
104.086
20
-139.299
11
103.574
21
-138.956
0
LINE
8
BLACK
6
CONTINUOUS
10
103.574
20
-138.956
11
103.138
21
-138.52
0
LINE
8
BLACK
6
CONTINUOUS
10
103.138
20
-138.52
11
102.795
21
-138.008
0
LINE
8
BLACK
6
CONTINUOUS
10
102.795
20
-138.008
11
102.559
21
-137.438
0
LINE
8
BLACK
6
CONTINUOUS
10
102.559
20
-137.438
11
102.439
21
-136.833
0
LINE
8
BLACK
6
CONTINUOUS
10
102.439
20
-136.833
11
102.439
21
-136.217
0
LINE
8
BLACK
6
CONTINUOUS
10
102.439
20
-136.217
11
102.559
21
-135.612
0
LINE
8
BLACK
6
CONTINUOUS
10
102.626
20
-137.418
11
102.857
21
-137.975
0
LINE
8
BLACK
6
CONTINUOUS
10
102.857
20
-137.975
11
103.192
21
-138.476
0
LINE
8
BLACK
6
CONTINUOUS
10
103.192
20
-138.476
11
103.618
21
-138.902
0
LINE
8
BLACK
6
CONTINUOUS
10
103.618
20
-138.902
11
104.119
21
-139.237
0
LINE
8
BLACK
6
CONTINUOUS
10
104.119
20
-139.237
11
104.676
21
-139.468
0
LINE
8
BLACK
6
CONTINUOUS
10
104.676
20
-139.468
11
105.267
21
-139.585
0
LINE
8
BLACK
6
CONTINUOUS
10
105.267
20
-139.585
11
105.87
21
-139.585
0
LINE
8
BLACK
6
CONTINUOUS
10
105.87
20
-139.585
11
106.461
21
-139.468
0
LINE
8
BLACK
6
CONTINUOUS
10
106.461
20
-139.468
11
107.018
21
-139.237
0
LINE
8
BLACK
6
CONTINUOUS
10
107.018
20
-139.237
11
107.52
21
-138.902
0
LINE
8
BLACK
6
CONTINUOUS
10
107.52
20
-138.902
11
107.946
21
-138.476
0
LINE
8
BLACK
6
CONTINUOUS
10
107.946
20
-138.476
11
108.281
21
-137.975
0
LINE
8
BLACK
6
CONTINUOUS
10
108.281
20
-137.975
11
108.511
21
-137.418
0
LINE
8
BLACK
6
CONTINUOUS
10
108.511
20
-137.418
11
108.629
21
-136.826
0
LINE
8
BLACK
6
CONTINUOUS
10
108.629
20
-136.826
11
108.629
21
-136.224
0
LINE
8
BLACK
6
CONTINUOUS
10
108.629
20
-136.224
11
108.511
21
-135.632
0
LINE
8
BLACK
6
CONTINUOUS
10
108.511
20
-135.632
11
108.281
21
-135.075
0
LINE
8
BLACK
6
CONTINUOUS
10
108.281
20
-135.075
11
107.946
21
-134.574
0
LINE
8
BLACK
6
CONTINUOUS
10
107.946
20
-134.574
11
107.52
21
-134.148
0
LINE
8
BLACK
6
CONTINUOUS
10
107.52
20
-134.148
11
107.018
21
-133.813
0
LINE
8
BLACK
6
CONTINUOUS
10
107.018
20
-133.813
11
106.461
21
-133.582
0
LINE
8
BLACK
6
CONTINUOUS
10
106.461
20
-133.582
11
105.87
21
-133.465
0
LINE
8
BLACK
6
CONTINUOUS
10
105.87
20
-133.465
11
105.267
21
-133.465
0
LINE
8
BLACK
6
CONTINUOUS
10
105.267
20
-133.465
11
104.676
21
-133.582
0
LINE
8
BLACK
6
CONTINUOUS
10
104.676
20
-133.582
11
104.119
21
-133.813
0
LINE
8
BLACK
6
CONTINUOUS
10
104.119
20
-133.813
11
103.618
21
-134.148
0
LINE
8
BLACK
6
CONTINUOUS
10
103.618
20
-134.148
11
103.192
21
-134.574
0
LINE
8
BLACK
6
CONTINUOUS
10
103.192
20
-134.574
11
102.857
21
-135.075
0
LINE
8
BLACK
6
CONTINUOUS
10
102.857
20
-135.075
11
102.626
21
-135.632
0
LINE
8
BLACK
6
CONTINUOUS
10
102.626
20
-135.632
11
102.509
21
-136.224
0
LINE
8
BLACK
6
CONTINUOUS
10
102.509
20
-136.224
11
102.509
21
-136.826
0
LINE
8
BLACK
6
CONTINUOUS
10
102.509
20
-136.826
11
102.626
21
-137.418
0
LINE
8
BLACK
6
CONTINUOUS
10
102.559
20
-97.5121
11
102.795
21
-96.9425
0
LINE
8
BLACK
6
CONTINUOUS
10
102.795
20
-96.9425
11
103.138
21
-96.4298
0
LINE
8
BLACK
6
CONTINUOUS
10
103.138
20
-96.4298
11
103.574
21
-95.9939
0
LINE
8
BLACK
6
CONTINUOUS
10
103.574
20
-95.9939
11
104.086
21
-95.6514
0
LINE
8
BLACK
6
CONTINUOUS
10
104.086
20
-95.6514
11
104.656
21
-95.4154
0
LINE
8
BLACK
6
CONTINUOUS
10
104.656
20
-95.4154
11
105.26
21
-95.2951
0
LINE
8
BLACK
6
CONTINUOUS
10
105.26
20
-95.2951
11
105.877
21
-95.2951
0
LINE
8
BLACK
6
CONTINUOUS
10
105.877
20
-95.2951
11
106.482
21
-95.4154
0
LINE
8
BLACK
6
CONTINUOUS
10
106.482
20
-95.4154
11
107.051
21
-95.6514
0
LINE
8
BLACK
6
CONTINUOUS
10
107.051
20
-95.6514
11
107.564
21
-95.9939
0
LINE
8
BLACK
6
CONTINUOUS
10
107.564
20
-95.9939
11
108
21
-96.4298
0
LINE
8
BLACK
6
CONTINUOUS
10
108
20
-96.4298
11
108.342
21
-96.9425
0
LINE
8
BLACK
6
CONTINUOUS
10
108.342
20
-96.9425
11
108.578
21
-97.5121
0
LINE
8
BLACK
6
CONTINUOUS
10
108.578
20
-97.5121
11
108.699
21
-98.1167
0
LINE
8
BLACK
6
CONTINUOUS
10
108.699
20
-98.1167
11
108.699
21
-98.7333
0
LINE
8
BLACK
6
CONTINUOUS
10
108.699
20
-98.7333
11
108.578
21
-99.3379
0
LINE
8
BLACK
6
CONTINUOUS
10
108.578
20
-99.3379
11
108.342
21
-99.9075
0
LINE
8
BLACK
6
CONTINUOUS
10
108.342
20
-99.9075
11
108
21
-100.42
0
LINE
8
BLACK
6
CONTINUOUS
10
108
20
-100.42
11
107.564
21
-100.856
0
LINE
8
BLACK
6
CONTINUOUS
10
107.564
20
-100.856
11
107.051
21
-101.199
0
LINE
8
BLACK
6
CONTINUOUS
10
107.051
20
-101.199
11
106.482
21
-101.435
0
LINE
8
BLACK
6
CONTINUOUS
10
106.482
20
-101.435
11
105.877
21
-101.555
0
LINE
8
BLACK
6
CONTINUOUS
10
105.877
20
-101.555
11
105.26
21
-101.555
0
LINE
8
BLACK
6
CONTINUOUS
10
105.26
20
-101.555
11
104.656
21
-101.435
0
LINE
8
BLACK
6
CONTINUOUS
10
104.656
20
-101.435
11
104.086
21
-101.199
0
LINE
8
BLACK
6
CONTINUOUS
10
104.086
20
-101.199
11
103.574
21
-100.856
0
LINE
8
BLACK
6
CONTINUOUS
10
103.574
20
-100.856
11
103.138
21
-100.42
0
LINE
8
BLACK
6
CONTINUOUS
10
103.138
20
-100.42
11
102.795
21
-99.9075
0
LINE
8
BLACK
6
CONTINUOUS
10
102.795
20
-99.9075
11
102.559
21
-99.3379
0
LINE
8
BLACK
6
CONTINUOUS
10
102.559
20
-99.3379
11
102.439
21
-98.7333
0
LINE
8
BLACK
6
CONTINUOUS
10
102.439
20
-98.7333
11
102.439
21
-98.1167
0
LINE
8
BLACK
6
CONTINUOUS
10
102.439
20
-98.1167
11
102.559
21
-97.5121
0
LINE
8
BLACK
6
CONTINUOUS
10
102.626
20
-99.3176
11
102.857
21
-99.8745
0
LINE
8
BLACK
6
CONTINUOUS
10
102.857
20
-99.8745
11
103.192
21
-100.376
0
LINE
8
BLACK
6
CONTINUOUS
10
103.192
20
-100.376
11
103.618
21
-100.802
0
LINE
8
BLACK
6
CONTINUOUS
10
103.618
20
-100.802
11
104.119
21
-101.137
0
LINE
8
BLACK
6
CONTINUOUS
10
104.119
20
-101.137
11
104.676
21
-101.368
0
LINE
8
BLACK
6
CONTINUOUS
10
104.676
20
-101.368
11
105.267
21
-101.485
0
LINE
8
BLACK
6
CONTINUOUS
10
105.267
20
-101.485
11
105.87
21
-101.485
0
LINE
8
BLACK
6
CONTINUOUS
10
105.87
20
-101.485
11
106.461
21
-101.368
0
LINE
8
BLACK
6
CONTINUOUS
10
106.461
20
-101.368
11
107.018
21
-101.137
0
LINE
8
BLACK
6
CONTINUOUS
10
107.018
20
-101.137
11
107.52
21
-100.802
0
LINE
8
BLACK
6
CONTINUOUS
10
107.52
20
-100.802
11
107.946
21
-100.376
0
LINE
8
BLACK
6
CONTINUOUS
10
107.946
20
-100.376
11
108.281
21
-99.8745
0
LINE
8
BLACK
6
CONTINUOUS
10
108.281
20
-99.8745
11
108.511
21
-99.3176
0
LINE
8
BLACK
6
CONTINUOUS
10
108.511
20
-99.3176
11
108.629
21
-98.7264
0
LINE
8
BLACK
6
CONTINUOUS
10
108.629
20
-98.7264
11
108.629
21
-98.1236
0
LINE
8
BLACK
6
CONTINUOUS
10
108.629
20
-98.1236
11
108.511
21
-97.5324
0
LINE
8
BLACK
6
CONTINUOUS
10
108.511
20
-97.5324
11
108.281
21
-96.9755
0
LINE
8
BLACK
6
CONTINUOUS
10
108.281
20
-96.9755
11
107.946
21
-96.4742
0
LINE
8
BLACK
6
CONTINUOUS
10
107.946
20
-96.4742
11
107.52
21
-96.048
0
LINE
8
BLACK
6
CONTINUOUS
10
107.52
20
-96.048
11
107.018
21
-95.7131
0
LINE
8
BLACK
6
CONTINUOUS
10
107.018
20
-95.7131
11
106.461
21
-95.4824
0
LINE
8
BLACK
6
CONTINUOUS
10
106.461
20
-95.4824
11
105.87
21
-95.3648
0
LINE
8
BLACK
6
CONTINUOUS
10
105.87
20
-95.3648
11
105.267
21
-95.3648
0
LINE
8
BLACK
6
CONTINUOUS
10
105.267
20
-95.3648
11
104.676
21
-95.4824
0
LINE
8
BLACK
6
CONTINUOUS
10
104.676
20
-95.4824
11
104.119
21
-95.7131
0
LINE
8
BLACK
6
CONTINUOUS
10
104.119
20
-95.7131
11
103.618
21
-96.048
0
LINE
8
BLACK
6
CONTINUOUS
10
103.618
20
-96.048
11
103.192
21
-96.4742
0
LINE
8
BLACK
6
CONTINUOUS
10
103.192
20
-96.4742
11
102.857
21
-96.9755
0
LINE
8
BLACK
6
CONTINUOUS
10
102.857
20
-96.9755
11
102.626
21
-97.5324
0
LINE
8
BLACK
6
CONTINUOUS
10
102.626
20
-97.5324
11
102.509
21
-98.1236
0
LINE
8
BLACK
6
CONTINUOUS
10
102.509
20
-98.1236
11
102.509
21
-98.7264
0
LINE
8
BLACK
6
CONTINUOUS
10
102.509
20
-98.7264
11
102.626
21
-99.3176
0
LINE
8
BLACK
6
CONTINUOUS
10
218.616
20
-97.5121
11
218.852
21
-96.9425
0
LINE
8
BLACK
6
CONTINUOUS
10
218.852
20
-96.9425
11
219.194
21
-96.4298
0
LINE
8
BLACK
6
CONTINUOUS
10
219.194
20
-96.4298
11
219.63
21
-95.9939
0
LINE
8
BLACK
6
CONTINUOUS
10
219.63
20
-95.9939
11
220.143
21
-95.6514
0
LINE
8
BLACK
6
CONTINUOUS
10
220.143
20
-95.6514
11
220.712
21
-95.4154
0
LINE
8
BLACK
6
CONTINUOUS
10
220.712
20
-95.4154
11
221.317
21
-95.2951
0
LINE
8
BLACK
6
CONTINUOUS
10
221.317
20
-95.2951
11
221.933
21
-95.2951
0
LINE
8
BLACK
6
CONTINUOUS
10
221.933
20
-95.2951
11
222.538
21
-95.4154
0
LINE
8
BLACK
6
CONTINUOUS
10
222.538
20
-95.4154
11
223.108
21
-95.6514
0
LINE
8
BLACK
6
CONTINUOUS
10
223.108
20
-95.6514
11
223.62
21
-95.9939
0
LINE
8
BLACK
6
CONTINUOUS
10
223.62
20
-95.9939
11
224.056
21
-96.4298
0
LINE
8
BLACK
6
CONTINUOUS
10
224.056
20
-96.4298
11
224.399
21
-96.9425
0
LINE
8
BLACK
6
CONTINUOUS
10
224.399
20
-96.9425
11
224.635
21
-97.5121
0
LINE
8
BLACK
6
CONTINUOUS
10
224.635
20
-97.5121
11
224.755
21
-98.1167
0
LINE
8
BLACK
6
CONTINUOUS
10
224.755
20
-98.1167
11
224.755
21
-98.7333
0
LINE
8
BLACK
6
CONTINUOUS
10
224.755
20
-98.7333
11
224.635
21
-99.3379
0
LINE
8
BLACK
6
CONTINUOUS
10
224.635
20
-99.3379
11
224.399
21
-99.9075
0
LINE
8
BLACK
6
CONTINUOUS
10
224.399
20
-99.9075
11
224.056
21
-100.42
0
LINE
8
BLACK
6
CONTINUOUS
10
224.056
20
-100.42
11
223.62
21
-100.856
0
LINE
8
BLACK
6
CONTINUOUS
10
223.62
20
-100.856
11
223.108
21
-101.199
0
LINE
8
BLACK
6
CONTINUOUS
10
223.108
20
-101.199
11
222.538
21
-101.435
0
LINE
8
BLACK
6
CONTINUOUS
10
222.538
20
-101.435
11
221.933
21
-101.555
0
LINE
8
BLACK
6
CONTINUOUS
10
221.933
20
-101.555
11
221.317
21
-101.555
0
LINE
8
BLACK
6
CONTINUOUS
10
221.317
20
-101.555
11
220.712
21
-101.435
0
LINE
8
BLACK
6
CONTINUOUS
10
220.712
20
-101.435
11
220.143
21
-101.199
0
LINE
8
BLACK
6
CONTINUOUS
10
220.143
20
-101.199
11
219.63
21
-100.856
0
LINE
8
BLACK
6
CONTINUOUS
10
219.63
20
-100.856
11
219.194
21
-100.42
0
LINE
8
BLACK
6
CONTINUOUS
10
219.194
20
-100.42
11
218.852
21
-99.9075
0
LINE
8
BLACK
6
CONTINUOUS
10
218.852
20
-99.9075
11
218.616
21
-99.3379
0
LINE
8
BLACK
6
CONTINUOUS
10
218.616
20
-99.3379
11
218.495
21
-98.7333
0
LINE
8
BLACK
6
CONTINUOUS
10
218.495
20
-98.7333
11
218.495
21
-98.1167
0
LINE
8
BLACK
6
CONTINUOUS
10
218.495
20
-98.1167
11
218.616
21
-97.5121
0
LINE
8
BLACK
6
CONTINUOUS
10
218.683
20
-99.3176
11
218.913
21
-99.8745
0
LINE
8
BLACK
6
CONTINUOUS
10
218.913
20
-99.8745
11
219.248
21
-100.376
0
LINE
8
BLACK
6
CONTINUOUS
10
219.248
20
-100.376
11
219.674
21
-100.802
0
LINE
8
BLACK
6
CONTINUOUS
10
219.674
20
-100.802
11
220.176
21
-101.137
0
LINE
8
BLACK
6
CONTINUOUS
10
220.176
20
-101.137
11
220.733
21
-101.368
0
LINE
8
BLACK
6
CONTINUOUS
10
220.733
20
-101.368
11
221.324
21
-101.485
0
LINE
8
BLACK
6
CONTINUOUS
10
221.324
20
-101.485
11
221.927
21
-101.485
0
LINE
8
BLACK
6
CONTINUOUS
10
221.927
20
-101.485
11
222.518
21
-101.368
0
LINE
8
BLACK
6
CONTINUOUS
10
222.518
20
-101.368
11
223.075
21
-101.137
0
LINE
8
BLACK
6
CONTINUOUS
10
223.075
20
-101.137
11
223.576
21
-100.802
0
LINE
8
BLACK
6
CONTINUOUS
10
223.576
20
-100.802
11
224.002
21
-100.376
0
LINE
8
BLACK
6
CONTINUOUS
10
224.002
20
-100.376
11
224.337
21
-99.8745
0
LINE
8
BLACK
6
CONTINUOUS
10
224.337
20
-99.8745
11
224.568
21
-99.3176
0
LINE
8
BLACK
6
CONTINUOUS
10
224.568
20
-99.3176
11
224.685
21
-98.7264
0
LINE
8
BLACK
6
CONTINUOUS
10
224.685
20
-98.7264
11
224.685
21
-98.1236
0
LINE
8
BLACK
6
CONTINUOUS
10
224.685
20
-98.1236
11
224.568
21
-97.5324
0
LINE
8
BLACK
6
CONTINUOUS
10
224.568
20
-97.5324
11
224.337
21
-96.9755
0
LINE
8
BLACK
6
CONTINUOUS
10
224.337
20
-96.9755
11
224.002
21
-96.4742
0
LINE
8
BLACK
6
CONTINUOUS
10
224.002
20
-96.4742
11
223.576
21
-96.048
0
LINE
8
BLACK
6
CONTINUOUS
10
223.576
20
-96.048
11
223.075
21
-95.7131
0
LINE
8
BLACK
6
CONTINUOUS
10
223.075
20
-95.7131
11
222.518
21
-95.4824
0
LINE
8
BLACK
6
CONTINUOUS
10
222.518
20
-95.4824
11
221.927
21
-95.3648
0
LINE
8
BLACK
6
CONTINUOUS
10
221.927
20
-95.3648
11
221.324
21
-95.3648
0
LINE
8
BLACK
6
CONTINUOUS
10
221.324
20
-95.3648
11
220.733
21
-95.4824
0
LINE
8
BLACK
6
CONTINUOUS
10
220.733
20
-95.4824
11
220.176
21
-95.7131
0
LINE
8
BLACK
6
CONTINUOUS
10
220.176
20
-95.7131
11
219.674
21
-96.048
0
LINE
8
BLACK
6
CONTINUOUS
10
219.674
20
-96.048
11
219.248
21
-96.4742
0
LINE
8
BLACK
6
CONTINUOUS
10
219.248
20
-96.4742
11
218.913
21
-96.9755
0
LINE
8
BLACK
6
CONTINUOUS
10
218.913
20
-96.9755
11
218.683
21
-97.5324
0
LINE
8
BLACK
6
CONTINUOUS
10
218.683
20
-97.5324
11
218.565
21
-98.1236
0
LINE
8
BLACK
6
CONTINUOUS
10
218.565
20
-98.1236
11
218.565
21
-98.7264
0
LINE
8
BLACK
6
CONTINUOUS
10
218.565
20
-98.7264
11
218.683
21
-99.3176
0
LINE
8
BLACK
6
CONTINUOUS
10
85.1441
20
-65.9526
11
85.2225
21
-65.7633
0
LINE
8
BLACK
6
CONTINUOUS
10
85.2225
20
-65.7633
11
85.3363
21
-65.593
0
LINE
8
BLACK
6
CONTINUOUS
10
85.3363
20
-65.593
11
85.4812
21
-65.4481
0
LINE
8
BLACK
6
CONTINUOUS
10
85.4812
20
-65.4481
11
85.6515
21
-65.3343
0
LINE
8
BLACK
6
CONTINUOUS
10
85.6515
20
-65.3343
11
85.8408
21
-65.2559
0
LINE
8
BLACK
6
CONTINUOUS
10
85.8408
20
-65.2559
11
86.0417
21
-65.2159
0
LINE
8
BLACK
6
CONTINUOUS
10
86.0417
20
-65.2159
11
86.2465
21
-65.2159
0
LINE
8
BLACK
6
CONTINUOUS
10
86.2465
20
-65.2159
11
86.4474
21
-65.2559
0
LINE
8
BLACK
6
CONTINUOUS
10
86.4474
20
-65.2559
11
86.6367
21
-65.3343
0
LINE
8
BLACK
6
CONTINUOUS
10
86.6367
20
-65.3343
11
86.807
21
-65.4481
0
LINE
8
BLACK
6
CONTINUOUS
10
86.807
20
-65.4481
11
86.9519
21
-65.593
0
LINE
8
BLACK
6
CONTINUOUS
10
86.9519
20
-65.593
11
87.0657
21
-65.7633
0
LINE
8
BLACK
6
CONTINUOUS
10
87.0657
20
-65.7633
11
87.1441
21
-65.9526
0
LINE
8
BLACK
6
CONTINUOUS
10
87.1441
20
-65.9526
11
87.1841
21
-66.1535
0
LINE
8
BLACK
6
CONTINUOUS
10
87.1841
20
-66.1535
11
87.1841
21
-66.3583
0
LINE
8
BLACK
6
CONTINUOUS
10
87.1841
20
-66.3583
11
87.1441
21
-66.5592
0
LINE
8
BLACK
6
CONTINUOUS
10
87.1441
20
-66.5592
11
87.0657
21
-66.7485
0
LINE
8
BLACK
6
CONTINUOUS
10
87.0657
20
-66.7485
11
86.9519
21
-66.9188
0
LINE
8
BLACK
6
CONTINUOUS
10
86.9519
20
-66.9188
11
86.807
21
-67.0637
0
LINE
8
BLACK
6
CONTINUOUS
10
86.807
20
-67.0637
11
86.6367
21
-67.1775
0
LINE
8
BLACK
6
CONTINUOUS
10
86.6367
20
-67.1775
11
86.4474
21
-67.2559
0
LINE
8
BLACK
6
CONTINUOUS
10
86.4474
20
-67.2559
11
86.2465
21
-67.2959
0
LINE
8
BLACK
6
CONTINUOUS
10
86.2465
20
-67.2959
11
86.0417
21
-67.2959
0
LINE
8
BLACK
6
CONTINUOUS
10
86.0417
20
-67.2959
11
85.8408
21
-67.2559
0
LINE
8
BLACK
6
CONTINUOUS
10
85.8408
20
-67.2559
11
85.6515
21
-67.1775
0
LINE
8
BLACK
6
CONTINUOUS
10
85.6515
20
-67.1775
11
85.4812
21
-67.0637
0
LINE
8
BLACK
6
CONTINUOUS
10
85.4812
20
-67.0637
11
85.3363
21
-66.9188
0
LINE
8
BLACK
6
CONTINUOUS
10
85.3363
20
-66.9188
11
85.2225
21
-66.7485
0
LINE
8
BLACK
6
CONTINUOUS
10
85.2225
20
-66.7485
11
85.1441
21
-66.5592
0
LINE
8
BLACK
6
CONTINUOUS
10
85.1441
20
-66.5592
11
85.1041
21
-66.3583
0
LINE
8
BLACK
6
CONTINUOUS
10
85.1041
20
-66.3583
11
85.1041
21
-66.1535
0
LINE
8
BLACK
6
CONTINUOUS
10
85.1041
20
-66.1535
11
85.1441
21
-65.9526
0
LINE
8
BLACK
6
CONTINUOUS
10
85.2111
20
-66.5389
11
85.2842
21
-66.7155
0
LINE
8
BLACK
6
CONTINUOUS
10
85.2842
20
-66.7155
11
85.3904
21
-66.8744
0
LINE
8
BLACK
6
CONTINUOUS
10
85.3904
20
-66.8744
11
85.5256
21
-67.0096
0
LINE
8
BLACK
6
CONTINUOUS
10
85.5256
20
-67.0096
11
85.6845
21
-67.1158
0
LINE
8
BLACK
6
CONTINUOUS
10
85.6845
20
-67.1158
11
85.8611
21
-67.1889
0
LINE
8
BLACK
6
CONTINUOUS
10
85.8611
20
-67.1889
11
86.0485
21
-67.2262
0
LINE
8
BLACK
6
CONTINUOUS
10
86.0485
20
-67.2262
11
86.2397
21
-67.2262
0
LINE
8
BLACK
6
CONTINUOUS
10
86.2397
20
-67.2262
11
86.4271
21
-67.1889
0
LINE
8
BLACK
6
CONTINUOUS
10
86.4271
20
-67.1889
11
86.6037
21
-67.1158
0
LINE
8
BLACK
6
CONTINUOUS
10
86.6037
20
-67.1158
11
86.7626
21
-67.0096
0
LINE
8
BLACK
6
CONTINUOUS
10
86.7626
20
-67.0096
11
86.8978
21
-66.8744
0
LINE
8
BLACK
6
CONTINUOUS
10
86.8978
20
-66.8744
11
87.004
21
-66.7155
0
LINE
8
BLACK
6
CONTINUOUS
10
87.004
20
-66.7155
11
87.0771
21
-66.5389
0
LINE
8
BLACK
6
CONTINUOUS
10
87.0771
20
-66.5389
11
87.1144
21
-66.3515
0
LINE
8
BLACK
6
CONTINUOUS
10
87.1144
20
-66.3515
11
87.1144
21
-66.1603
0
LINE
8
BLACK
6
CONTINUOUS
10
87.1144
20
-66.1603
11
87.0771
21
-65.9729
0
LINE
8
BLACK
6
CONTINUOUS
10
87.0771
20
-65.9729
11
87.004
21
-65.7963
0
LINE
8
BLACK
6
CONTINUOUS
10
87.004
20
-65.7963
11
86.8978
21
-65.6374
0
LINE
8
BLACK
6
CONTINUOUS
10
86.8978
20
-65.6374
11
86.7626
21
-65.5022
0
LINE
8
BLACK
6
CONTINUOUS
10
86.7626
20
-65.5022
11
86.6037
21
-65.396
0
LINE
8
BLACK
6
CONTINUOUS
10
86.6037
20
-65.396
11
86.4271
21
-65.3229
0
LINE
8
BLACK
6
CONTINUOUS
10
86.4271
20
-65.3229
11
86.2397
21
-65.2856
0
LINE
8
BLACK
6
CONTINUOUS
10
86.2397
20
-65.2856
11
86.0485
21
-65.2856
0
LINE
8
BLACK
6
CONTINUOUS
10
86.0485
20
-65.2856
11
85.8611
21
-65.3229
0
LINE
8
BLACK
6
CONTINUOUS
10
85.8611
20
-65.3229
11
85.6845
21
-65.396
0
LINE
8
BLACK
6
CONTINUOUS
10
85.6845
20
-65.396
11
85.5256
21
-65.5022
0
LINE
8
BLACK
6
CONTINUOUS
10
85.5256
20
-65.5022
11
85.3904
21
-65.6374
0
LINE
8
BLACK
6
CONTINUOUS
10
85.3904
20
-65.6374
11
85.2842
21
-65.7963
0
LINE
8
BLACK
6
CONTINUOUS
10
85.2842
20
-65.7963
11
85.2111
21
-65.9729
0
LINE
8
BLACK
6
CONTINUOUS
10
85.2111
20
-65.9729
11
85.1738
21
-66.1603
0
LINE
8
BLACK
6
CONTINUOUS
10
85.1738
20
-66.1603
11
85.1738
21
-66.3515
0
LINE
8
BLACK
6
CONTINUOUS
10
85.1738
20
-66.3515
11
85.2111
21
-66.5389
0
LINE
8
BLACK
6
CONTINUOUS
10
77.0258
20
-55.9577
11
77.2618
21
-55.3881
0
LINE
8
BLACK
6
CONTINUOUS
10
77.2618
20
-55.3881
11
77.6043
21
-54.8754
0
LINE
8
BLACK
6
CONTINUOUS
10
77.6043
20
-54.8754
11
78.0402
21
-54.4395
0
LINE
8
BLACK
6
CONTINUOUS
10
78.0402
20
-54.4395
11
78.5529
21
-54.097
0
LINE
8
BLACK
6
CONTINUOUS
10
78.5529
20
-54.097
11
79.1225
21
-53.861
0
LINE
8
BLACK
6
CONTINUOUS
10
79.1225
20
-53.861
11
79.7271
21
-53.7407
0
LINE
8
BLACK
6
CONTINUOUS
10
79.7271
20
-53.7407
11
80.3437
21
-53.7407
0
LINE
8
BLACK
6
CONTINUOUS
10
80.3437
20
-53.7407
11
80.9483
21
-53.861
0
LINE
8
BLACK
6
CONTINUOUS
10
80.9483
20
-53.861
11
81.5179
21
-54.097
0
LINE
8
BLACK
6
CONTINUOUS
10
81.5179
20
-54.097
11
82.0306
21
-54.4395
0
LINE
8
BLACK
6
CONTINUOUS
10
82.0306
20
-54.4395
11
82.4665
21
-54.8754
0
LINE
8
BLACK
6
CONTINUOUS
10
82.4665
20
-54.8754
11
82.809
21
-55.3881
0
LINE
8
BLACK
6
CONTINUOUS
10
82.809
20
-55.3881
11
83.045
21
-55.9577
0
LINE
8
BLACK
6
CONTINUOUS
10
83.045
20
-55.9577
11
83.1653
21
-56.5623
0
LINE
8
BLACK
6
CONTINUOUS
10
83.1653
20
-56.5623
11
83.1653
21
-57.1789
0
LINE
8
BLACK
6
CONTINUOUS
10
83.1653
20
-57.1789
11
83.045
21
-57.7835
0
LINE
8
BLACK
6
CONTINUOUS
10
83.045
20
-57.7835
11
82.809
21
-58.3531
0
LINE
8
BLACK
6
CONTINUOUS
10
82.809
20
-58.3531
11
82.4665
21
-58.8658
0
LINE
8
BLACK
6
CONTINUOUS
10
82.4665
20
-58.8658
11
82.0306
21
-59.3017
0
LINE
8
BLACK
6
CONTINUOUS
10
82.0306
20
-59.3017
11
81.5179
21
-59.6442
0
LINE
8
BLACK
6
CONTINUOUS
10
81.5179
20
-59.6442
11
80.9483
21
-59.8802
0
LINE
8
BLACK
6
CONTINUOUS
10
80.9483
20
-59.8802
11
80.3437
21
-60.0005
0
LINE
8
BLACK
6
CONTINUOUS
10
80.3437
20
-60.0005
11
79.7271
21
-60.0005
0
LINE
8
BLACK
6
CONTINUOUS
10
79.7271
20
-60.0005
11
79.1225
21
-59.8802
0
LINE
8
BLACK
6
CONTINUOUS
10
79.1225
20
-59.8802
11
78.5529
21
-59.6442
0
LINE
8
BLACK
6
CONTINUOUS
10
78.5529
20
-59.6442
11
78.0402
21
-59.3017
0
LINE
8
BLACK
6
CONTINUOUS
10
78.0402
20
-59.3017
11
77.6043
21
-58.8658
0
LINE
8
BLACK
6
CONTINUOUS
10
77.6043
20
-58.8658
11
77.2618
21
-58.3531
0
LINE
8
BLACK
6
CONTINUOUS
10
77.2618
20
-58.3531
11
77.0258
21
-57.7835
0
LINE
8
BLACK
6
CONTINUOUS
10
77.0258
20
-57.7835
11
76.9055
21
-57.1789
0
LINE
8
BLACK
6
CONTINUOUS
10
76.9055
20
-57.1789
11
76.9055
21
-56.5623
0
LINE
8
BLACK
6
CONTINUOUS
10
76.9055
20
-56.5623
11
77.0258
21
-55.9577
0
LINE
8
BLACK
6
CONTINUOUS
10
77.0928
20
-57.7632
11
77.3235
21
-58.3201
0
LINE
8
BLACK
6
CONTINUOUS
10
77.3235
20
-58.3201
11
77.6584
21
-58.8214
0
LINE
8
BLACK
6
CONTINUOUS
10
77.6584
20
-58.8214
11
78.0846
21
-59.2476
0
LINE
8
BLACK
6
CONTINUOUS
10
78.0846
20
-59.2476
11
78.5859
21
-59.5825
0
LINE
8
BLACK
6
CONTINUOUS
10
78.5859
20
-59.5825
11
79.1428
21
-59.8132
0
LINE
8
BLACK
6
CONTINUOUS
10
79.1428
20
-59.8132
11
79.734
21
-59.9308
0
LINE
8
BLACK
6
CONTINUOUS
10
79.734
20
-59.9308
11
80.3368
21
-59.9308
0
LINE
8
BLACK
6
CONTINUOUS
10
80.3368
20
-59.9308
11
80.928
21
-59.8132
0
LINE
8
BLACK
6
CONTINUOUS
10
80.928
20
-59.8132
11
81.4849
21
-59.5825
0
LINE
8
BLACK
6
CONTINUOUS
10
81.4849
20
-59.5825
11
81.9862
21
-59.2476
0
LINE
8
BLACK
6
CONTINUOUS
10
81.9862
20
-59.2476
11
82.4124
21
-58.8214
0
LINE
8
BLACK
6
CONTINUOUS
10
82.4124
20
-58.8214
11
82.7473
21
-58.3201
0
LINE
8
BLACK
6
CONTINUOUS
10
82.7473
20
-58.3201
11
82.978
21
-57.7632
0
LINE
8
BLACK
6
CONTINUOUS
10
82.978
20
-57.7632
11
83.0956
21
-57.172
0
LINE
8
BLACK
6
CONTINUOUS
10
83.0956
20
-57.172
11
83.0956
21
-56.5692
0
LINE
8
BLACK
6
CONTINUOUS
10
83.0956
20
-56.5692
11
82.978
21
-55.978
0
LINE
8
BLACK
6
CONTINUOUS
10
82.978
20
-55.978
11
82.7473
21
-55.4211
0
LINE
8
BLACK
6
CONTINUOUS
10
82.7473
20
-55.4211
11
82.4124
21
-54.9198
0
LINE
8
BLACK
6
CONTINUOUS
10
82.4124
20
-54.9198
11
81.9862
21
-54.4936
0
LINE
8
BLACK
6
CONTINUOUS
10
81.9862
20
-54.4936
11
81.4849
21
-54.1587
0
LINE
8
BLACK
6
CONTINUOUS
10
81.4849
20
-54.1587
11
80.928
21
-53.928
0
LINE
8
BLACK
6
CONTINUOUS
10
80.928
20
-53.928
11
80.3368
21
-53.8104
0
LINE
8
BLACK
6
CONTINUOUS
10
80.3368
20
-53.8104
11
79.734
21
-53.8104
0
LINE
8
BLACK
6
CONTINUOUS
10
79.734
20
-53.8104
11
79.1428
21
-53.928
0
LINE
8
BLACK
6
CONTINUOUS
10
79.1428
20
-53.928
11
78.5859
21
-54.1587
0
LINE
8
BLACK
6
CONTINUOUS
10
78.5859
20
-54.1587
11
78.0846
21
-54.4936
0
LINE
8
BLACK
6
CONTINUOUS
10
78.0846
20
-54.4936
11
77.6584
21
-54.9198
0
LINE
8
BLACK
6
CONTINUOUS
10
77.6584
20
-54.9198
11
77.3235
21
-55.4211
0
LINE
8
BLACK
6
CONTINUOUS
10
77.3235
20
-55.4211
11
77.0928
21
-55.978
0
LINE
8
BLACK
6
CONTINUOUS
10
77.0928
20
-55.978
11
76.9752
21
-56.5692
0
LINE
8
BLACK
6
CONTINUOUS
10
76.9752
20
-56.5692
11
76.9752
21
-57.172
0
LINE
8
BLACK
6
CONTINUOUS
10
76.9752
20
-57.172
11
77.0928
21
-57.7632
0
LINE
8
BLACK
6
CONTINUOUS
10
218.58
20
-55.9577
11
218.816
21
-55.3881
0
LINE
8
BLACK
6
CONTINUOUS
10
218.816
20
-55.3881
11
219.158
21
-54.8754
0
LINE
8
BLACK
6
CONTINUOUS
10
219.158
20
-54.8754
11
219.594
21
-54.4395
0
LINE
8
BLACK
6
CONTINUOUS
10
219.594
20
-54.4395
11
220.107
21
-54.097
0
LINE
8
BLACK
6
CONTINUOUS
10
220.107
20
-54.097
11
220.677
21
-53.861
0
LINE
8
BLACK
6
CONTINUOUS
10
220.677
20
-53.861
11
221.281
21
-53.7407
0
LINE
8
BLACK
6
CONTINUOUS
10
221.281
20
-53.7407
11
221.898
21
-53.7407
0
LINE
8
BLACK
6
CONTINUOUS
10
221.898
20
-53.7407
11
222.503
21
-53.861
0
LINE
8
BLACK
6
CONTINUOUS
10
222.503
20
-53.861
11
223.072
21
-54.097
0
LINE
8
BLACK
6
CONTINUOUS
10
223.072
20
-54.097
11
223.585
21
-54.4395
0
LINE
8
BLACK
6
CONTINUOUS
10
223.585
20
-54.4395
11
224.021
21
-54.8754
0
LINE
8
BLACK
6
CONTINUOUS
10
224.021
20
-54.8754
11
224.363
21
-55.3881
0
LINE
8
BLACK
6
CONTINUOUS
10
224.363
20
-55.3881
11
224.599
21
-55.9577
0
LINE
8
BLACK
6
CONTINUOUS
10
224.599
20
-55.9577
11
224.719
21
-56.5623
0
LINE
8
BLACK
6
CONTINUOUS
10
224.719
20
-56.5623
11
224.719
21
-57.1789
0
LINE
8
BLACK
6
CONTINUOUS
10
224.719
20
-57.1789
11
224.599
21
-57.7835
0
LINE
8
BLACK
6
CONTINUOUS
10
224.599
20
-57.7835
11
224.363
21
-58.3531
0
LINE
8
BLACK
6
CONTINUOUS
10
224.363
20
-58.3531
11
224.021
21
-58.8658
0
LINE
8
BLACK
6
CONTINUOUS
10
224.021
20
-58.8658
11
223.585
21
-59.3017
0
LINE
8
BLACK
6
CONTINUOUS
10
223.585
20
-59.3017
11
223.072
21
-59.6442
0
LINE
8
BLACK
6
CONTINUOUS
10
223.072
20
-59.6442
11
222.503
21
-59.8802
0
LINE
8
BLACK
6
CONTINUOUS
10
222.503
20
-59.8802
11
221.898
21
-60.0005
0
LINE
8
BLACK
6
CONTINUOUS
10
221.898
20
-60.0005
11
221.281
21
-60.0005
0
LINE
8
BLACK
6
CONTINUOUS
10
221.281
20
-60.0005
11
220.677
21
-59.8802
0
LINE
8
BLACK
6
CONTINUOUS
10
220.677
20
-59.8802
11
220.107
21
-59.6442
0
LINE
8
BLACK
6
CONTINUOUS
10
220.107
20
-59.6442
11
219.594
21
-59.3017
0
LINE
8
BLACK
6
CONTINUOUS
10
219.594
20
-59.3017
11
219.158
21
-58.8658
0
LINE
8
BLACK
6
CONTINUOUS
10
219.158
20
-58.8658
11
218.816
21
-58.3531
0
LINE
8
BLACK
6
CONTINUOUS
10
218.816
20
-58.3531
11
218.58
21
-57.7835
0
LINE
8
BLACK
6
CONTINUOUS
10
218.58
20
-57.7835
11
218.46
21
-57.1789
0
LINE
8
BLACK
6
CONTINUOUS
10
218.46
20
-57.1789
11
218.46
21
-56.5623
0
LINE
8
BLACK
6
CONTINUOUS
10
218.46
20
-56.5623
11
218.58
21
-55.9577
0
LINE
8
BLACK
6
CONTINUOUS
10
218.647
20
-57.7632
11
218.878
21
-58.3201
0
LINE
8
BLACK
6
CONTINUOUS
10
218.878
20
-58.3201
11
219.213
21
-58.8214
0
LINE
8
BLACK
6
CONTINUOUS
10
219.213
20
-58.8214
11
219.639
21
-59.2476
0
LINE
8
BLACK
6
CONTINUOUS
10
219.639
20
-59.2476
11
220.14
21
-59.5825
0
LINE
8
BLACK
6
CONTINUOUS
10
220.14
20
-59.5825
11
220.697
21
-59.8132
0
LINE
8
BLACK
6
CONTINUOUS
10
220.697
20
-59.8132
11
221.288
21
-59.9308
0
LINE
8
BLACK
6
CONTINUOUS
10
221.288
20
-59.9308
11
221.891
21
-59.9308
0
LINE
8
BLACK
6
CONTINUOUS
10
221.891
20
-59.9308
11
222.482
21
-59.8132
0
LINE
8
BLACK
6
CONTINUOUS
10
222.482
20
-59.8132
11
223.039
21
-59.5825
0
LINE
8
BLACK
6
CONTINUOUS
10
223.039
20
-59.5825
11
223.54
21
-59.2476
0
LINE
8
BLACK
6
CONTINUOUS
10
223.54
20
-59.2476
11
223.967
21
-58.8214
0
LINE
8
BLACK
6
CONTINUOUS
10
223.967
20
-58.8214
11
224.302
21
-58.3201
0
LINE
8
BLACK
6
CONTINUOUS
10
224.302
20
-58.3201
11
224.532
21
-57.7632
0
LINE
8
BLACK
6
CONTINUOUS
10
224.532
20
-57.7632
11
224.65
21
-57.172
0
LINE
8
BLACK
6
CONTINUOUS
10
224.65
20
-57.172
11
224.65
21
-56.5692
0
LINE
8
BLACK
6
CONTINUOUS
10
224.65
20
-56.5692
11
224.532
21
-55.978
0
LINE
8
BLACK
6
CONTINUOUS
10
224.532
20
-55.978
11
224.302
21
-55.4211
0
LINE
8
BLACK
6
CONTINUOUS
10
224.302
20
-55.4211
11
223.967
21
-54.9198
0
LINE
8
BLACK
6
CONTINUOUS
10
223.967
20
-54.9198
11
223.54
21
-54.4936
0
LINE
8
BLACK
6
CONTINUOUS
10
223.54
20
-54.4936
11
223.039
21
-54.1587
0
LINE
8
BLACK
6
CONTINUOUS
10
223.039
20
-54.1587
11
222.482
21
-53.928
0
LINE
8
BLACK
6
CONTINUOUS
10
222.482
20
-53.928
11
221.891
21
-53.8104
0
LINE
8
BLACK
6
CONTINUOUS
10
221.891
20
-53.8104
11
221.288
21
-53.8104
0
LINE
8
BLACK
6
CONTINUOUS
10
221.288
20
-53.8104
11
220.697
21
-53.928
0
LINE
8
BLACK
6
CONTINUOUS
10
220.697
20
-53.928
11
220.14
21
-54.1587
0
LINE
8
BLACK
6
CONTINUOUS
10
220.14
20
-54.1587
11
219.639
21
-54.4936
0
LINE
8
BLACK
6
CONTINUOUS
10
219.639
20
-54.4936
11
219.213
21
-54.9198
0
LINE
8
BLACK
6
CONTINUOUS
10
219.213
20
-54.9198
11
218.878
21
-55.4211
0
LINE
8
BLACK
6
CONTINUOUS
10
218.878
20
-55.4211
11
218.647
21
-55.978
0
LINE
8
BLACK
6
CONTINUOUS
10
218.647
20
-55.978
11
218.529
21
-56.5692
0
LINE
8
BLACK
6
CONTINUOUS
10
218.529
20
-56.5692
11
218.529
21
-57.172
0
LINE
8
BLACK
6
CONTINUOUS
10
218.529
20
-57.172
11
218.647
21
-57.7632
0
LINE
8
BLACK
6
CONTINUOUS
10
166.853
20
-55.8815
11
167.089
21
-55.3119
0
LINE
8
BLACK
6
CONTINUOUS
10
167.089
20
-55.3119
11
167.431
21
-54.7992
0
LINE
8
BLACK
6
CONTINUOUS
10
167.431
20
-54.7992
11
167.867
21
-54.3633
0
LINE
8
BLACK
6
CONTINUOUS
10
167.867
20
-54.3633
11
168.38
21
-54.0208
0
LINE
8
BLACK
6
CONTINUOUS
10
168.38
20
-54.0208
11
168.95
21
-53.7848
0
LINE
8
BLACK
6
CONTINUOUS
10
168.95
20
-53.7848
11
169.554
21
-53.6645
0
LINE
8
BLACK
6
CONTINUOUS
10
169.554
20
-53.6645
11
170.171
21
-53.6645
0
LINE
8
BLACK
6
CONTINUOUS
10
170.171
20
-53.6645
11
170.775
21
-53.7848
0
LINE
8
BLACK
6
CONTINUOUS
10
170.775
20
-53.7848
11
171.345
21
-54.0208
0
LINE
8
BLACK
6
CONTINUOUS
10
171.345
20
-54.0208
11
171.858
21
-54.3633
0
LINE
8
BLACK
6
CONTINUOUS
10
171.858
20
-54.3633
11
172.294
21
-54.7992
0
LINE
8
BLACK
6
CONTINUOUS
10
172.294
20
-54.7992
11
172.636
21
-55.3119
0
LINE
8
BLACK
6
CONTINUOUS
10
172.636
20
-55.3119
11
172.872
21
-55.8815
0
LINE
8
BLACK
6
CONTINUOUS
10
172.872
20
-55.8815
11
172.992
21
-56.4861
0
LINE
8
BLACK
6
CONTINUOUS
10
172.992
20
-56.4861
11
172.992
21
-57.1027
0
LINE
8
BLACK
6
CONTINUOUS
10
172.992
20
-57.1027
11
172.872
21
-57.7073
0
LINE
8
BLACK
6
CONTINUOUS
10
172.872
20
-57.7073
11
172.636
21
-58.2769
0
LINE
8
BLACK
6
CONTINUOUS
10
172.636
20
-58.2769
11
172.294
21
-58.7896
0
LINE
8
BLACK
6
CONTINUOUS
10
172.294
20
-58.7896
11
171.858
21
-59.2255
0
LINE
8
BLACK
6
CONTINUOUS
10
171.858
20
-59.2255
11
171.345
21
-59.568
0
LINE
8
BLACK
6
CONTINUOUS
10
171.345
20
-59.568
11
170.775
21
-59.804
0
LINE
8
BLACK
6
CONTINUOUS
10
170.775
20
-59.804
11
170.171
21
-59.9243
0
LINE
8
BLACK
6
CONTINUOUS
10
170.171
20
-59.9243
11
169.554
21
-59.9243
0
LINE
8
BLACK
6
CONTINUOUS
10
169.554
20
-59.9243
11
168.95
21
-59.804
0
LINE
8
BLACK
6
CONTINUOUS
10
168.95
20
-59.804
11
168.38
21
-59.568
0
LINE
8
BLACK
6
CONTINUOUS
10
168.38
20
-59.568
11
167.867
21
-59.2255
0
LINE
8
BLACK
6
CONTINUOUS
10
167.867
20
-59.2255
11
167.431
21
-58.7896
0
LINE
8
BLACK
6
CONTINUOUS
10
167.431
20
-58.7896
11
167.089
21
-58.2769
0
LINE
8
BLACK
6
CONTINUOUS
10
167.089
20
-58.2769
11
166.853
21
-57.7073
0
LINE
8
BLACK
6
CONTINUOUS
10
166.853
20
-57.7073
11
166.733
21
-57.1027
0
LINE
8
BLACK
6
CONTINUOUS
10
166.733
20
-57.1027
11
166.733
21
-56.4861
0
LINE
8
BLACK
6
CONTINUOUS
10
166.733
20
-56.4861
11
166.853
21
-55.8815
0
LINE
8
BLACK
6
CONTINUOUS
10
166.92
20
-57.687
11
167.151
21
-58.2439
0
LINE
8
BLACK
6
CONTINUOUS
10
167.151
20
-58.2439
11
167.485
21
-58.7452
0
LINE
8
BLACK
6
CONTINUOUS
10
167.485
20
-58.7452
11
167.912
21
-59.1714
0
LINE
8
BLACK
6
CONTINUOUS
10
167.912
20
-59.1714
11
168.413
21
-59.5063
0
LINE
8
BLACK
6
CONTINUOUS
10
168.413
20
-59.5063
11
168.97
21
-59.737
0
LINE
8
BLACK
6
CONTINUOUS
10
168.97
20
-59.737
11
169.561
21
-59.8546
0
LINE
8
BLACK
6
CONTINUOUS
10
169.561
20
-59.8546
11
170.164
21
-59.8546
0
LINE
8
BLACK
6
CONTINUOUS
10
170.164
20
-59.8546
11
170.755
21
-59.737
0
LINE
8
BLACK
6
CONTINUOUS
10
170.755
20
-59.737
11
171.312
21
-59.5063
0
LINE
8
BLACK
6
CONTINUOUS
10
171.312
20
-59.5063
11
171.813
21
-59.1714
0
LINE
8
BLACK
6
CONTINUOUS
10
171.813
20
-59.1714
11
172.24
21
-58.7452
0
LINE
8
BLACK
6
CONTINUOUS
10
172.24
20
-58.7452
11
172.574
21
-58.2439
0
LINE
8
BLACK
6
CONTINUOUS
10
172.574
20
-58.2439
11
172.805
21
-57.687
0
LINE
8
BLACK
6
CONTINUOUS
10
172.805
20
-57.687
11
172.923
21
-57.0958
0
LINE
8
BLACK
6
CONTINUOUS
10
172.923
20
-57.0958
11
172.923
21
-56.493
0
LINE
8
BLACK
6
CONTINUOUS
10
172.923
20
-56.493
11
172.805
21
-55.9018
0
LINE
8
BLACK
6
CONTINUOUS
10
172.805
20
-55.9018
11
172.574
21
-55.3449
0
LINE
8
BLACK
6
CONTINUOUS
10
172.574
20
-55.3449
11
172.24
21
-54.8436
0
LINE
8
BLACK
6
CONTINUOUS
10
172.24
20
-54.8436
11
171.813
21
-54.4174
0
LINE
8
BLACK
6
CONTINUOUS
10
171.813
20
-54.4174
11
171.312
21
-54.0825
0
LINE
8
BLACK
6
CONTINUOUS
10
171.312
20
-54.0825
11
170.755
21
-53.8518
0
LINE
8
BLACK
6
CONTINUOUS
10
170.755
20
-53.8518
11
170.164
21
-53.7342
0
LINE
8
BLACK
6
CONTINUOUS
10
170.164
20
-53.7342
11
169.561
21
-53.7342
0
LINE
8
BLACK
6
CONTINUOUS
10
169.561
20
-53.7342
11
168.97
21
-53.8518
0
LINE
8
BLACK
6
CONTINUOUS
10
168.97
20
-53.8518
11
168.413
21
-54.0825
0
LINE
8
BLACK
6
CONTINUOUS
10
168.413
20
-54.0825
11
167.912
21
-54.4174
0
LINE
8
BLACK
6
CONTINUOUS
10
167.912
20
-54.4174
11
167.485
21
-54.8436
0
LINE
8
BLACK
6
CONTINUOUS
10
167.485
20
-54.8436
11
167.151
21
-55.3449
0
LINE
8
BLACK
6
CONTINUOUS
10
167.151
20
-55.3449
11
166.92
21
-55.9018
0
LINE
8
BLACK
6
CONTINUOUS
10
166.92
20
-55.9018
11
166.802
21
-56.493
0
LINE
8
BLACK
6
CONTINUOUS
10
166.802
20
-56.493
11
166.802
21
-57.0958
0
LINE
8
BLACK
6
CONTINUOUS
10
166.802
20
-57.0958
11
166.92
21
-57.687
  0
ENDSEC
  0
EOF
