%TF.GenerationSoftware,KiCad,Pcbnew,(5.1.8)-1*%
%TF.CreationDate,2022-07-09T12:20:42+10:00*%
%TF.ProjectId,ICSP_edge_adapter,49435350-5f65-4646-9765-5f6164617074,rev?*%
%TF.SameCoordinates,Original*%
%TF.FileFunction,Copper,L1,Top*%
%TF.FilePolarity,Positive*%
%FSLAX46Y46*%
G04 Gerber Fmt 4.6, Leading zero omitted, Abs format (unit mm)*
G04 Created by KiCad (PCBNEW (5.1.8)-1) date 2022-07-09 12:20:42*
%MOMM*%
%LPD*%
G01*
G04 APERTURE LIST*
%TA.AperFunction,SMDPad,CuDef*%
%ADD10R,3.150000X1.000000*%
%TD*%
%TA.AperFunction,ViaPad*%
%ADD11C,0.800000*%
%TD*%
%TA.AperFunction,Conductor*%
%ADD12C,0.250000*%
%TD*%
%TA.AperFunction,Conductor*%
%ADD13C,0.750000*%
%TD*%
%TA.AperFunction,Conductor*%
%ADD14C,0.254000*%
%TD*%
%TA.AperFunction,Conductor*%
%ADD15C,0.100000*%
%TD*%
G04 APERTURE END LIST*
D10*
%TO.P,J1,1*%
%TO.N,/MISO*%
X99183401Y-45065801D03*
%TO.P,J1,2*%
%TO.N,+3V3*%
X104233401Y-45065801D03*
%TO.P,J1,3*%
%TO.N,/SCK*%
X99183401Y-47605801D03*
%TO.P,J1,4*%
%TO.N,/MOSI*%
X104233401Y-47605801D03*
%TO.P,J1,5*%
%TO.N,/RST*%
X99183401Y-50145801D03*
%TO.P,J1,6*%
%TO.N,GND*%
X104233401Y-50145801D03*
%TD*%
D11*
%TO.N,/MISO*%
X97464880Y-42555160D03*
%TO.N,+3V3*%
X105227120Y-43835320D03*
%TO.N,/SCK*%
X101686360Y-46446440D03*
%TO.N,/MOSI*%
X101666040Y-48006000D03*
%TO.N,/RST*%
X101752400Y-49392840D03*
%TO.N,GND*%
X95849440Y-43545760D03*
X95849440Y-51739800D03*
X97398840Y-53207920D03*
X100434986Y-53207920D03*
X95849440Y-48462184D03*
X95849440Y-46823376D03*
X103471132Y-53207920D03*
X106507280Y-53207920D03*
X107523280Y-46401736D03*
X107523280Y-48040544D03*
X107523280Y-51318160D03*
X107523280Y-43124120D03*
%TD*%
D12*
%TO.N,/MISO*%
X99183401Y-44273681D02*
X97464880Y-42555160D01*
X99183401Y-45065801D02*
X99183401Y-44273681D01*
D13*
%TO.N,+3V3*%
X105227120Y-44072082D02*
X104233401Y-45065801D01*
X105227120Y-43835320D02*
X105227120Y-44072082D01*
D12*
%TO.N,/SCK*%
X100526999Y-47605801D02*
X99183401Y-47605801D01*
X101686360Y-46446440D02*
X100526999Y-47605801D01*
%TO.N,/MOSI*%
X102066239Y-47605801D02*
X104233401Y-47605801D01*
X101666040Y-48006000D02*
X102066239Y-47605801D01*
%TO.N,/RST*%
X100999439Y-50145801D02*
X99183401Y-50145801D01*
X101752400Y-49392840D02*
X100999439Y-50145801D01*
%TD*%
D14*
%TO.N,GND*%
X108132709Y-40787998D02*
X108379967Y-40812243D01*
X108598877Y-40878336D01*
X108800786Y-40985692D01*
X108977995Y-41130221D01*
X109123756Y-41306417D01*
X109232520Y-41507572D01*
X109300140Y-41726016D01*
X109326001Y-41972064D01*
X109326818Y-53141734D01*
X109302578Y-53388962D01*
X109236483Y-53607878D01*
X109129128Y-53809783D01*
X108984600Y-53986993D01*
X108808404Y-54132755D01*
X108607247Y-54241520D01*
X108388802Y-54309140D01*
X108142768Y-54335000D01*
X95320456Y-54335000D01*
X95073219Y-54310759D01*
X94854303Y-54244664D01*
X94652398Y-54137309D01*
X94475188Y-53992781D01*
X94329426Y-53816585D01*
X94220661Y-53615428D01*
X94153041Y-53396983D01*
X94127181Y-53150951D01*
X94127622Y-47105801D01*
X97229577Y-47105801D01*
X97229577Y-48105801D01*
X97236856Y-48179706D01*
X97258413Y-48250771D01*
X97293420Y-48316264D01*
X97340532Y-48373670D01*
X97397938Y-48420782D01*
X97463431Y-48455789D01*
X97534496Y-48477346D01*
X97608401Y-48484625D01*
X100758401Y-48484625D01*
X100832306Y-48477346D01*
X100903371Y-48455789D01*
X100968864Y-48420782D01*
X100994590Y-48399669D01*
X101062504Y-48501309D01*
X101170731Y-48609536D01*
X101297992Y-48694569D01*
X101360267Y-48720364D01*
X101257091Y-48789304D01*
X101148864Y-48897531D01*
X101063831Y-49024792D01*
X101005259Y-49166197D01*
X100975400Y-49316312D01*
X100975400Y-49336184D01*
X100968864Y-49330820D01*
X100903371Y-49295813D01*
X100832306Y-49274256D01*
X100758401Y-49266977D01*
X97608401Y-49266977D01*
X97534496Y-49274256D01*
X97463431Y-49295813D01*
X97397938Y-49330820D01*
X97340532Y-49377932D01*
X97293420Y-49435338D01*
X97258413Y-49500831D01*
X97236856Y-49571896D01*
X97229577Y-49645801D01*
X97229577Y-50645801D01*
X97236856Y-50719706D01*
X97258413Y-50790771D01*
X97293420Y-50856264D01*
X97340532Y-50913670D01*
X97397938Y-50960782D01*
X97463431Y-50995789D01*
X97534496Y-51017346D01*
X97608401Y-51024625D01*
X100758401Y-51024625D01*
X100832306Y-51017346D01*
X100903371Y-50995789D01*
X100968864Y-50960782D01*
X101026270Y-50913670D01*
X101073382Y-50856264D01*
X101108389Y-50790771D01*
X101129946Y-50719706D01*
X101137225Y-50645801D01*
X102279577Y-50645801D01*
X102286856Y-50719706D01*
X102308413Y-50790771D01*
X102343420Y-50856264D01*
X102390532Y-50913670D01*
X102447938Y-50960782D01*
X102513431Y-50995789D01*
X102584496Y-51017346D01*
X102658401Y-51024625D01*
X104012151Y-51022801D01*
X104106401Y-50928551D01*
X104106401Y-50272801D01*
X104360401Y-50272801D01*
X104360401Y-50928551D01*
X104454651Y-51022801D01*
X105808401Y-51024625D01*
X105882306Y-51017346D01*
X105953371Y-50995789D01*
X106018864Y-50960782D01*
X106076270Y-50913670D01*
X106123382Y-50856264D01*
X106158389Y-50790771D01*
X106179946Y-50719706D01*
X106187225Y-50645801D01*
X106185401Y-50367051D01*
X106091151Y-50272801D01*
X104360401Y-50272801D01*
X104106401Y-50272801D01*
X102375651Y-50272801D01*
X102281401Y-50367051D01*
X102279577Y-50645801D01*
X101137225Y-50645801D01*
X101137225Y-50628592D01*
X101192475Y-50611832D01*
X101279684Y-50565218D01*
X101356123Y-50502485D01*
X101371840Y-50483334D01*
X101685335Y-50169840D01*
X101828928Y-50169840D01*
X101979043Y-50139981D01*
X102120448Y-50081409D01*
X102247709Y-49996376D01*
X102300468Y-49943618D01*
X102375651Y-50018801D01*
X104106401Y-50018801D01*
X104106401Y-49363051D01*
X104360401Y-49363051D01*
X104360401Y-50018801D01*
X106091151Y-50018801D01*
X106185401Y-49924551D01*
X106187225Y-49645801D01*
X106179946Y-49571896D01*
X106158389Y-49500831D01*
X106123382Y-49435338D01*
X106076270Y-49377932D01*
X106018864Y-49330820D01*
X105953371Y-49295813D01*
X105882306Y-49274256D01*
X105808401Y-49266977D01*
X104454651Y-49268801D01*
X104360401Y-49363051D01*
X104106401Y-49363051D01*
X104012151Y-49268801D01*
X102658401Y-49266977D01*
X102584496Y-49274256D01*
X102524646Y-49292411D01*
X102499541Y-49166197D01*
X102440969Y-49024792D01*
X102355936Y-48897531D01*
X102247709Y-48789304D01*
X102120448Y-48704271D01*
X102058173Y-48678476D01*
X102161349Y-48609536D01*
X102269576Y-48501309D01*
X102354609Y-48374048D01*
X102366763Y-48344707D01*
X102390532Y-48373670D01*
X102447938Y-48420782D01*
X102513431Y-48455789D01*
X102584496Y-48477346D01*
X102658401Y-48484625D01*
X105808401Y-48484625D01*
X105882306Y-48477346D01*
X105953371Y-48455789D01*
X106018864Y-48420782D01*
X106076270Y-48373670D01*
X106123382Y-48316264D01*
X106158389Y-48250771D01*
X106179946Y-48179706D01*
X106187225Y-48105801D01*
X106187225Y-47105801D01*
X106179946Y-47031896D01*
X106158389Y-46960831D01*
X106123382Y-46895338D01*
X106076270Y-46837932D01*
X106018864Y-46790820D01*
X105953371Y-46755813D01*
X105882306Y-46734256D01*
X105808401Y-46726977D01*
X102658401Y-46726977D01*
X102584496Y-46734256D01*
X102513431Y-46755813D01*
X102447938Y-46790820D01*
X102390532Y-46837932D01*
X102343420Y-46895338D01*
X102308413Y-46960831D01*
X102286856Y-47031896D01*
X102279774Y-47103801D01*
X102101114Y-47103801D01*
X102181669Y-47049976D01*
X102289896Y-46941749D01*
X102374929Y-46814488D01*
X102433501Y-46673083D01*
X102463360Y-46522968D01*
X102463360Y-46369912D01*
X102433501Y-46219797D01*
X102374929Y-46078392D01*
X102289896Y-45951131D01*
X102181669Y-45842904D01*
X102054408Y-45757871D01*
X101913003Y-45699299D01*
X101762888Y-45669440D01*
X101609832Y-45669440D01*
X101459717Y-45699299D01*
X101318312Y-45757871D01*
X101191051Y-45842904D01*
X101082824Y-45951131D01*
X100997791Y-46078392D01*
X100939219Y-46219797D01*
X100909360Y-46369912D01*
X100909360Y-46513505D01*
X100695889Y-46726977D01*
X97608401Y-46726977D01*
X97534496Y-46734256D01*
X97463431Y-46755813D01*
X97397938Y-46790820D01*
X97340532Y-46837932D01*
X97293420Y-46895338D01*
X97258413Y-46960831D01*
X97236856Y-47031896D01*
X97229577Y-47105801D01*
X94127622Y-47105801D01*
X94127961Y-42478632D01*
X96687880Y-42478632D01*
X96687880Y-42631688D01*
X96717739Y-42781803D01*
X96776311Y-42923208D01*
X96861344Y-43050469D01*
X96969571Y-43158696D01*
X97096832Y-43243729D01*
X97238237Y-43302301D01*
X97388352Y-43332160D01*
X97531945Y-43332160D01*
X98386762Y-44186977D01*
X97608401Y-44186977D01*
X97534496Y-44194256D01*
X97463431Y-44215813D01*
X97397938Y-44250820D01*
X97340532Y-44297932D01*
X97293420Y-44355338D01*
X97258413Y-44420831D01*
X97236856Y-44491896D01*
X97229577Y-44565801D01*
X97229577Y-45565801D01*
X97236856Y-45639706D01*
X97258413Y-45710771D01*
X97293420Y-45776264D01*
X97340532Y-45833670D01*
X97397938Y-45880782D01*
X97463431Y-45915789D01*
X97534496Y-45937346D01*
X97608401Y-45944625D01*
X100758401Y-45944625D01*
X100832306Y-45937346D01*
X100903371Y-45915789D01*
X100968864Y-45880782D01*
X101026270Y-45833670D01*
X101073382Y-45776264D01*
X101108389Y-45710771D01*
X101129946Y-45639706D01*
X101137225Y-45565801D01*
X101137225Y-44565801D01*
X102279577Y-44565801D01*
X102279577Y-45565801D01*
X102286856Y-45639706D01*
X102308413Y-45710771D01*
X102343420Y-45776264D01*
X102390532Y-45833670D01*
X102447938Y-45880782D01*
X102513431Y-45915789D01*
X102584496Y-45937346D01*
X102658401Y-45944625D01*
X105808401Y-45944625D01*
X105882306Y-45937346D01*
X105953371Y-45915789D01*
X106018864Y-45880782D01*
X106076270Y-45833670D01*
X106123382Y-45776264D01*
X106158389Y-45710771D01*
X106179946Y-45639706D01*
X106187225Y-45565801D01*
X106187225Y-44565801D01*
X106179946Y-44491896D01*
X106158389Y-44420831D01*
X106123382Y-44355338D01*
X106076270Y-44297932D01*
X106018864Y-44250820D01*
X105967127Y-44223166D01*
X105968239Y-44219499D01*
X105979120Y-44109019D01*
X105979120Y-44109018D01*
X105982758Y-44072082D01*
X105979277Y-44036744D01*
X106004120Y-43911848D01*
X106004120Y-43758792D01*
X105974261Y-43608677D01*
X105915689Y-43467272D01*
X105830656Y-43340011D01*
X105722429Y-43231784D01*
X105595168Y-43146751D01*
X105453763Y-43088179D01*
X105303648Y-43058320D01*
X105150592Y-43058320D01*
X105000477Y-43088179D01*
X104859072Y-43146751D01*
X104731811Y-43231784D01*
X104623584Y-43340011D01*
X104538551Y-43467272D01*
X104479979Y-43608677D01*
X104450120Y-43758792D01*
X104450120Y-43785593D01*
X104048737Y-44186977D01*
X102658401Y-44186977D01*
X102584496Y-44194256D01*
X102513431Y-44215813D01*
X102447938Y-44250820D01*
X102390532Y-44297932D01*
X102343420Y-44355338D01*
X102308413Y-44420831D01*
X102286856Y-44491896D01*
X102279577Y-44565801D01*
X101137225Y-44565801D01*
X101129946Y-44491896D01*
X101108389Y-44420831D01*
X101073382Y-44355338D01*
X101026270Y-44297932D01*
X100968864Y-44250820D01*
X100903371Y-44215813D01*
X100832306Y-44194256D01*
X100758401Y-44186977D01*
X99679290Y-44186977D01*
X99678137Y-44175272D01*
X99649432Y-44080645D01*
X99627733Y-44040049D01*
X99602818Y-43993435D01*
X99555801Y-43936145D01*
X99555793Y-43936137D01*
X99540085Y-43916997D01*
X99520944Y-43901288D01*
X98241880Y-42622225D01*
X98241880Y-42478632D01*
X98212021Y-42328517D01*
X98153449Y-42187112D01*
X98068416Y-42059851D01*
X97960189Y-41951624D01*
X97832928Y-41866591D01*
X97691523Y-41808019D01*
X97541408Y-41778160D01*
X97388352Y-41778160D01*
X97238237Y-41808019D01*
X97096832Y-41866591D01*
X96969571Y-41951624D01*
X96861344Y-42059851D01*
X96776311Y-42187112D01*
X96717739Y-42328517D01*
X96687880Y-42478632D01*
X94127961Y-42478632D01*
X94127998Y-41980476D01*
X94152243Y-41733214D01*
X94218336Y-41514304D01*
X94325692Y-41312395D01*
X94470221Y-41135186D01*
X94646417Y-40989425D01*
X94847572Y-40880661D01*
X95066016Y-40813041D01*
X95312053Y-40787181D01*
X108132709Y-40787998D01*
%TA.AperFunction,Conductor*%
D15*
G36*
X108132709Y-40787998D02*
G01*
X108379967Y-40812243D01*
X108598877Y-40878336D01*
X108800786Y-40985692D01*
X108977995Y-41130221D01*
X109123756Y-41306417D01*
X109232520Y-41507572D01*
X109300140Y-41726016D01*
X109326001Y-41972064D01*
X109326818Y-53141734D01*
X109302578Y-53388962D01*
X109236483Y-53607878D01*
X109129128Y-53809783D01*
X108984600Y-53986993D01*
X108808404Y-54132755D01*
X108607247Y-54241520D01*
X108388802Y-54309140D01*
X108142768Y-54335000D01*
X95320456Y-54335000D01*
X95073219Y-54310759D01*
X94854303Y-54244664D01*
X94652398Y-54137309D01*
X94475188Y-53992781D01*
X94329426Y-53816585D01*
X94220661Y-53615428D01*
X94153041Y-53396983D01*
X94127181Y-53150951D01*
X94127622Y-47105801D01*
X97229577Y-47105801D01*
X97229577Y-48105801D01*
X97236856Y-48179706D01*
X97258413Y-48250771D01*
X97293420Y-48316264D01*
X97340532Y-48373670D01*
X97397938Y-48420782D01*
X97463431Y-48455789D01*
X97534496Y-48477346D01*
X97608401Y-48484625D01*
X100758401Y-48484625D01*
X100832306Y-48477346D01*
X100903371Y-48455789D01*
X100968864Y-48420782D01*
X100994590Y-48399669D01*
X101062504Y-48501309D01*
X101170731Y-48609536D01*
X101297992Y-48694569D01*
X101360267Y-48720364D01*
X101257091Y-48789304D01*
X101148864Y-48897531D01*
X101063831Y-49024792D01*
X101005259Y-49166197D01*
X100975400Y-49316312D01*
X100975400Y-49336184D01*
X100968864Y-49330820D01*
X100903371Y-49295813D01*
X100832306Y-49274256D01*
X100758401Y-49266977D01*
X97608401Y-49266977D01*
X97534496Y-49274256D01*
X97463431Y-49295813D01*
X97397938Y-49330820D01*
X97340532Y-49377932D01*
X97293420Y-49435338D01*
X97258413Y-49500831D01*
X97236856Y-49571896D01*
X97229577Y-49645801D01*
X97229577Y-50645801D01*
X97236856Y-50719706D01*
X97258413Y-50790771D01*
X97293420Y-50856264D01*
X97340532Y-50913670D01*
X97397938Y-50960782D01*
X97463431Y-50995789D01*
X97534496Y-51017346D01*
X97608401Y-51024625D01*
X100758401Y-51024625D01*
X100832306Y-51017346D01*
X100903371Y-50995789D01*
X100968864Y-50960782D01*
X101026270Y-50913670D01*
X101073382Y-50856264D01*
X101108389Y-50790771D01*
X101129946Y-50719706D01*
X101137225Y-50645801D01*
X102279577Y-50645801D01*
X102286856Y-50719706D01*
X102308413Y-50790771D01*
X102343420Y-50856264D01*
X102390532Y-50913670D01*
X102447938Y-50960782D01*
X102513431Y-50995789D01*
X102584496Y-51017346D01*
X102658401Y-51024625D01*
X104012151Y-51022801D01*
X104106401Y-50928551D01*
X104106401Y-50272801D01*
X104360401Y-50272801D01*
X104360401Y-50928551D01*
X104454651Y-51022801D01*
X105808401Y-51024625D01*
X105882306Y-51017346D01*
X105953371Y-50995789D01*
X106018864Y-50960782D01*
X106076270Y-50913670D01*
X106123382Y-50856264D01*
X106158389Y-50790771D01*
X106179946Y-50719706D01*
X106187225Y-50645801D01*
X106185401Y-50367051D01*
X106091151Y-50272801D01*
X104360401Y-50272801D01*
X104106401Y-50272801D01*
X102375651Y-50272801D01*
X102281401Y-50367051D01*
X102279577Y-50645801D01*
X101137225Y-50645801D01*
X101137225Y-50628592D01*
X101192475Y-50611832D01*
X101279684Y-50565218D01*
X101356123Y-50502485D01*
X101371840Y-50483334D01*
X101685335Y-50169840D01*
X101828928Y-50169840D01*
X101979043Y-50139981D01*
X102120448Y-50081409D01*
X102247709Y-49996376D01*
X102300468Y-49943618D01*
X102375651Y-50018801D01*
X104106401Y-50018801D01*
X104106401Y-49363051D01*
X104360401Y-49363051D01*
X104360401Y-50018801D01*
X106091151Y-50018801D01*
X106185401Y-49924551D01*
X106187225Y-49645801D01*
X106179946Y-49571896D01*
X106158389Y-49500831D01*
X106123382Y-49435338D01*
X106076270Y-49377932D01*
X106018864Y-49330820D01*
X105953371Y-49295813D01*
X105882306Y-49274256D01*
X105808401Y-49266977D01*
X104454651Y-49268801D01*
X104360401Y-49363051D01*
X104106401Y-49363051D01*
X104012151Y-49268801D01*
X102658401Y-49266977D01*
X102584496Y-49274256D01*
X102524646Y-49292411D01*
X102499541Y-49166197D01*
X102440969Y-49024792D01*
X102355936Y-48897531D01*
X102247709Y-48789304D01*
X102120448Y-48704271D01*
X102058173Y-48678476D01*
X102161349Y-48609536D01*
X102269576Y-48501309D01*
X102354609Y-48374048D01*
X102366763Y-48344707D01*
X102390532Y-48373670D01*
X102447938Y-48420782D01*
X102513431Y-48455789D01*
X102584496Y-48477346D01*
X102658401Y-48484625D01*
X105808401Y-48484625D01*
X105882306Y-48477346D01*
X105953371Y-48455789D01*
X106018864Y-48420782D01*
X106076270Y-48373670D01*
X106123382Y-48316264D01*
X106158389Y-48250771D01*
X106179946Y-48179706D01*
X106187225Y-48105801D01*
X106187225Y-47105801D01*
X106179946Y-47031896D01*
X106158389Y-46960831D01*
X106123382Y-46895338D01*
X106076270Y-46837932D01*
X106018864Y-46790820D01*
X105953371Y-46755813D01*
X105882306Y-46734256D01*
X105808401Y-46726977D01*
X102658401Y-46726977D01*
X102584496Y-46734256D01*
X102513431Y-46755813D01*
X102447938Y-46790820D01*
X102390532Y-46837932D01*
X102343420Y-46895338D01*
X102308413Y-46960831D01*
X102286856Y-47031896D01*
X102279774Y-47103801D01*
X102101114Y-47103801D01*
X102181669Y-47049976D01*
X102289896Y-46941749D01*
X102374929Y-46814488D01*
X102433501Y-46673083D01*
X102463360Y-46522968D01*
X102463360Y-46369912D01*
X102433501Y-46219797D01*
X102374929Y-46078392D01*
X102289896Y-45951131D01*
X102181669Y-45842904D01*
X102054408Y-45757871D01*
X101913003Y-45699299D01*
X101762888Y-45669440D01*
X101609832Y-45669440D01*
X101459717Y-45699299D01*
X101318312Y-45757871D01*
X101191051Y-45842904D01*
X101082824Y-45951131D01*
X100997791Y-46078392D01*
X100939219Y-46219797D01*
X100909360Y-46369912D01*
X100909360Y-46513505D01*
X100695889Y-46726977D01*
X97608401Y-46726977D01*
X97534496Y-46734256D01*
X97463431Y-46755813D01*
X97397938Y-46790820D01*
X97340532Y-46837932D01*
X97293420Y-46895338D01*
X97258413Y-46960831D01*
X97236856Y-47031896D01*
X97229577Y-47105801D01*
X94127622Y-47105801D01*
X94127961Y-42478632D01*
X96687880Y-42478632D01*
X96687880Y-42631688D01*
X96717739Y-42781803D01*
X96776311Y-42923208D01*
X96861344Y-43050469D01*
X96969571Y-43158696D01*
X97096832Y-43243729D01*
X97238237Y-43302301D01*
X97388352Y-43332160D01*
X97531945Y-43332160D01*
X98386762Y-44186977D01*
X97608401Y-44186977D01*
X97534496Y-44194256D01*
X97463431Y-44215813D01*
X97397938Y-44250820D01*
X97340532Y-44297932D01*
X97293420Y-44355338D01*
X97258413Y-44420831D01*
X97236856Y-44491896D01*
X97229577Y-44565801D01*
X97229577Y-45565801D01*
X97236856Y-45639706D01*
X97258413Y-45710771D01*
X97293420Y-45776264D01*
X97340532Y-45833670D01*
X97397938Y-45880782D01*
X97463431Y-45915789D01*
X97534496Y-45937346D01*
X97608401Y-45944625D01*
X100758401Y-45944625D01*
X100832306Y-45937346D01*
X100903371Y-45915789D01*
X100968864Y-45880782D01*
X101026270Y-45833670D01*
X101073382Y-45776264D01*
X101108389Y-45710771D01*
X101129946Y-45639706D01*
X101137225Y-45565801D01*
X101137225Y-44565801D01*
X102279577Y-44565801D01*
X102279577Y-45565801D01*
X102286856Y-45639706D01*
X102308413Y-45710771D01*
X102343420Y-45776264D01*
X102390532Y-45833670D01*
X102447938Y-45880782D01*
X102513431Y-45915789D01*
X102584496Y-45937346D01*
X102658401Y-45944625D01*
X105808401Y-45944625D01*
X105882306Y-45937346D01*
X105953371Y-45915789D01*
X106018864Y-45880782D01*
X106076270Y-45833670D01*
X106123382Y-45776264D01*
X106158389Y-45710771D01*
X106179946Y-45639706D01*
X106187225Y-45565801D01*
X106187225Y-44565801D01*
X106179946Y-44491896D01*
X106158389Y-44420831D01*
X106123382Y-44355338D01*
X106076270Y-44297932D01*
X106018864Y-44250820D01*
X105967127Y-44223166D01*
X105968239Y-44219499D01*
X105979120Y-44109019D01*
X105979120Y-44109018D01*
X105982758Y-44072082D01*
X105979277Y-44036744D01*
X106004120Y-43911848D01*
X106004120Y-43758792D01*
X105974261Y-43608677D01*
X105915689Y-43467272D01*
X105830656Y-43340011D01*
X105722429Y-43231784D01*
X105595168Y-43146751D01*
X105453763Y-43088179D01*
X105303648Y-43058320D01*
X105150592Y-43058320D01*
X105000477Y-43088179D01*
X104859072Y-43146751D01*
X104731811Y-43231784D01*
X104623584Y-43340011D01*
X104538551Y-43467272D01*
X104479979Y-43608677D01*
X104450120Y-43758792D01*
X104450120Y-43785593D01*
X104048737Y-44186977D01*
X102658401Y-44186977D01*
X102584496Y-44194256D01*
X102513431Y-44215813D01*
X102447938Y-44250820D01*
X102390532Y-44297932D01*
X102343420Y-44355338D01*
X102308413Y-44420831D01*
X102286856Y-44491896D01*
X102279577Y-44565801D01*
X101137225Y-44565801D01*
X101129946Y-44491896D01*
X101108389Y-44420831D01*
X101073382Y-44355338D01*
X101026270Y-44297932D01*
X100968864Y-44250820D01*
X100903371Y-44215813D01*
X100832306Y-44194256D01*
X100758401Y-44186977D01*
X99679290Y-44186977D01*
X99678137Y-44175272D01*
X99649432Y-44080645D01*
X99627733Y-44040049D01*
X99602818Y-43993435D01*
X99555801Y-43936145D01*
X99555793Y-43936137D01*
X99540085Y-43916997D01*
X99520944Y-43901288D01*
X98241880Y-42622225D01*
X98241880Y-42478632D01*
X98212021Y-42328517D01*
X98153449Y-42187112D01*
X98068416Y-42059851D01*
X97960189Y-41951624D01*
X97832928Y-41866591D01*
X97691523Y-41808019D01*
X97541408Y-41778160D01*
X97388352Y-41778160D01*
X97238237Y-41808019D01*
X97096832Y-41866591D01*
X96969571Y-41951624D01*
X96861344Y-42059851D01*
X96776311Y-42187112D01*
X96717739Y-42328517D01*
X96687880Y-42478632D01*
X94127961Y-42478632D01*
X94127998Y-41980476D01*
X94152243Y-41733214D01*
X94218336Y-41514304D01*
X94325692Y-41312395D01*
X94470221Y-41135186D01*
X94646417Y-40989425D01*
X94847572Y-40880661D01*
X95066016Y-40813041D01*
X95312053Y-40787181D01*
X108132709Y-40787998D01*
G37*
%TD.AperFunction*%
%TD*%
M02*
