%TF.GenerationSoftware,KiCad,Pcbnew,(5.1.8)-1*%
%TF.CreationDate,2022-07-09T18:06:19+10:00*%
%TF.ProjectId,ergonomic_split_right,6572676f-6e6f-46d6-9963-5f73706c6974,rev?*%
%TF.SameCoordinates,Original*%
%TF.FileFunction,Legend,Top*%
%TF.FilePolarity,Positive*%
%FSLAX46Y46*%
G04 Gerber Fmt 4.6, Leading zero omitted, Abs format (unit mm)*
G04 Created by KiCad (PCBNEW (5.1.8)-1) date 2022-07-09 18:06:19*
%MOMM*%
%LPD*%
G01*
G04 APERTURE LIST*
%ADD10C,0.150000*%
%ADD11C,0.120000*%
G04 APERTURE END LIST*
D10*
X253270690Y-51840261D02*
X253175452Y-51887880D01*
X252984976Y-51887880D01*
X252889738Y-51840261D01*
X252842119Y-51745023D01*
X252842119Y-51364071D01*
X252889738Y-51268833D01*
X252984976Y-51221214D01*
X253175452Y-51221214D01*
X253270690Y-51268833D01*
X253318309Y-51364071D01*
X253318309Y-51459309D01*
X252842119Y-51554547D01*
X253746880Y-51887880D02*
X253746880Y-51221214D01*
X253746880Y-51411690D02*
X253794500Y-51316452D01*
X253842119Y-51268833D01*
X253937357Y-51221214D01*
X254032595Y-51221214D01*
X254794500Y-51221214D02*
X254794500Y-52030738D01*
X254746880Y-52125976D01*
X254699261Y-52173595D01*
X254604023Y-52221214D01*
X254461166Y-52221214D01*
X254365928Y-52173595D01*
X254794500Y-51840261D02*
X254699261Y-51887880D01*
X254508785Y-51887880D01*
X254413547Y-51840261D01*
X254365928Y-51792642D01*
X254318309Y-51697404D01*
X254318309Y-51411690D01*
X254365928Y-51316452D01*
X254413547Y-51268833D01*
X254508785Y-51221214D01*
X254699261Y-51221214D01*
X254794500Y-51268833D01*
X255413547Y-51887880D02*
X255318309Y-51840261D01*
X255270690Y-51792642D01*
X255223071Y-51697404D01*
X255223071Y-51411690D01*
X255270690Y-51316452D01*
X255318309Y-51268833D01*
X255413547Y-51221214D01*
X255556404Y-51221214D01*
X255651642Y-51268833D01*
X255699261Y-51316452D01*
X255746880Y-51411690D01*
X255746880Y-51697404D01*
X255699261Y-51792642D01*
X255651642Y-51840261D01*
X255556404Y-51887880D01*
X255413547Y-51887880D01*
X256175452Y-51221214D02*
X256175452Y-51887880D01*
X256175452Y-51316452D02*
X256223071Y-51268833D01*
X256318309Y-51221214D01*
X256461166Y-51221214D01*
X256556404Y-51268833D01*
X256604023Y-51364071D01*
X256604023Y-51887880D01*
X257223071Y-51887880D02*
X257127833Y-51840261D01*
X257080214Y-51792642D01*
X257032595Y-51697404D01*
X257032595Y-51411690D01*
X257080214Y-51316452D01*
X257127833Y-51268833D01*
X257223071Y-51221214D01*
X257365928Y-51221214D01*
X257461166Y-51268833D01*
X257508785Y-51316452D01*
X257556404Y-51411690D01*
X257556404Y-51697404D01*
X257508785Y-51792642D01*
X257461166Y-51840261D01*
X257365928Y-51887880D01*
X257223071Y-51887880D01*
X257984976Y-51887880D02*
X257984976Y-51221214D01*
X257984976Y-51316452D02*
X258032595Y-51268833D01*
X258127833Y-51221214D01*
X258270690Y-51221214D01*
X258365928Y-51268833D01*
X258413547Y-51364071D01*
X258413547Y-51887880D01*
X258413547Y-51364071D02*
X258461166Y-51268833D01*
X258556404Y-51221214D01*
X258699261Y-51221214D01*
X258794500Y-51268833D01*
X258842119Y-51364071D01*
X258842119Y-51887880D01*
X259318309Y-51887880D02*
X259318309Y-51221214D01*
X259318309Y-50887880D02*
X259270690Y-50935500D01*
X259318309Y-50983119D01*
X259365928Y-50935500D01*
X259318309Y-50887880D01*
X259318309Y-50983119D01*
X260223071Y-51840261D02*
X260127833Y-51887880D01*
X259937357Y-51887880D01*
X259842119Y-51840261D01*
X259794500Y-51792642D01*
X259746880Y-51697404D01*
X259746880Y-51411690D01*
X259794500Y-51316452D01*
X259842119Y-51268833D01*
X259937357Y-51221214D01*
X260127833Y-51221214D01*
X260223071Y-51268833D01*
X261365928Y-51840261D02*
X261461166Y-51887880D01*
X261651642Y-51887880D01*
X261746880Y-51840261D01*
X261794500Y-51745023D01*
X261794500Y-51697404D01*
X261746880Y-51602166D01*
X261651642Y-51554547D01*
X261508785Y-51554547D01*
X261413547Y-51506928D01*
X261365928Y-51411690D01*
X261365928Y-51364071D01*
X261413547Y-51268833D01*
X261508785Y-51221214D01*
X261651642Y-51221214D01*
X261746880Y-51268833D01*
X262223071Y-51221214D02*
X262223071Y-52221214D01*
X262223071Y-51268833D02*
X262318309Y-51221214D01*
X262508785Y-51221214D01*
X262604023Y-51268833D01*
X262651642Y-51316452D01*
X262699261Y-51411690D01*
X262699261Y-51697404D01*
X262651642Y-51792642D01*
X262604023Y-51840261D01*
X262508785Y-51887880D01*
X262318309Y-51887880D01*
X262223071Y-51840261D01*
X263270690Y-51887880D02*
X263175452Y-51840261D01*
X263127833Y-51745023D01*
X263127833Y-50887880D01*
X263651642Y-51887880D02*
X263651642Y-51221214D01*
X263651642Y-50887880D02*
X263604023Y-50935500D01*
X263651642Y-50983119D01*
X263699261Y-50935500D01*
X263651642Y-50887880D01*
X263651642Y-50983119D01*
X263984976Y-51221214D02*
X264365928Y-51221214D01*
X264127833Y-50887880D02*
X264127833Y-51745023D01*
X264175452Y-51840261D01*
X264270690Y-51887880D01*
X264365928Y-51887880D01*
X265461166Y-51506928D02*
X266223071Y-51506928D01*
X267365928Y-51221214D02*
X267604023Y-51887880D01*
X267842119Y-51221214D01*
X268413547Y-50887880D02*
X268508785Y-50887880D01*
X268604023Y-50935500D01*
X268651642Y-50983119D01*
X268699261Y-51078357D01*
X268746880Y-51268833D01*
X268746880Y-51506928D01*
X268699261Y-51697404D01*
X268651642Y-51792642D01*
X268604023Y-51840261D01*
X268508785Y-51887880D01*
X268413547Y-51887880D01*
X268318309Y-51840261D01*
X268270690Y-51792642D01*
X268223071Y-51697404D01*
X268175452Y-51506928D01*
X268175452Y-51268833D01*
X268223071Y-51078357D01*
X268270690Y-50983119D01*
X268318309Y-50935500D01*
X268413547Y-50887880D01*
X254746880Y-53252166D02*
X255223071Y-53252166D01*
X254651642Y-53537880D02*
X254984976Y-52537880D01*
X255318309Y-53537880D01*
X255794500Y-53537880D02*
X255699261Y-53490261D01*
X255651642Y-53395023D01*
X255651642Y-52537880D01*
X256556404Y-53490261D02*
X256461166Y-53537880D01*
X256270690Y-53537880D01*
X256175452Y-53490261D01*
X256127833Y-53395023D01*
X256127833Y-53014071D01*
X256175452Y-52918833D01*
X256270690Y-52871214D01*
X256461166Y-52871214D01*
X256556404Y-52918833D01*
X256604023Y-53014071D01*
X256604023Y-53109309D01*
X256127833Y-53204547D01*
X256937357Y-53537880D02*
X257461166Y-52871214D01*
X256937357Y-52871214D02*
X257461166Y-53537880D01*
X258937357Y-53014071D02*
X259080214Y-53061690D01*
X259127833Y-53109309D01*
X259175452Y-53204547D01*
X259175452Y-53347404D01*
X259127833Y-53442642D01*
X259080214Y-53490261D01*
X258984976Y-53537880D01*
X258604023Y-53537880D01*
X258604023Y-52537880D01*
X258937357Y-52537880D01*
X259032595Y-52585500D01*
X259080214Y-52633119D01*
X259127833Y-52728357D01*
X259127833Y-52823595D01*
X259080214Y-52918833D01*
X259032595Y-52966452D01*
X258937357Y-53014071D01*
X258604023Y-53014071D01*
X259604023Y-53537880D02*
X259604023Y-52871214D01*
X259604023Y-52537880D02*
X259556404Y-52585500D01*
X259604023Y-52633119D01*
X259651642Y-52585500D01*
X259604023Y-52537880D01*
X259604023Y-52633119D01*
X260080214Y-52871214D02*
X260080214Y-53537880D01*
X260080214Y-52966452D02*
X260127833Y-52918833D01*
X260223071Y-52871214D01*
X260365928Y-52871214D01*
X260461166Y-52918833D01*
X260508785Y-53014071D01*
X260508785Y-53537880D01*
X261127833Y-53537880D02*
X261032595Y-53490261D01*
X260984976Y-53442642D01*
X260937357Y-53347404D01*
X260937357Y-53061690D01*
X260984976Y-52966452D01*
X261032595Y-52918833D01*
X261127833Y-52871214D01*
X261270690Y-52871214D01*
X261365928Y-52918833D01*
X261413547Y-52966452D01*
X261461166Y-53061690D01*
X261461166Y-53347404D01*
X261413547Y-53442642D01*
X261365928Y-53490261D01*
X261270690Y-53537880D01*
X261127833Y-53537880D01*
X261842119Y-53490261D02*
X261937357Y-53537880D01*
X262127833Y-53537880D01*
X262223071Y-53490261D01*
X262270690Y-53395023D01*
X262270690Y-53347404D01*
X262223071Y-53252166D01*
X262127833Y-53204547D01*
X261984976Y-53204547D01*
X261889738Y-53156928D01*
X261842119Y-53061690D01*
X261842119Y-53014071D01*
X261889738Y-52918833D01*
X261984976Y-52871214D01*
X262127833Y-52871214D01*
X262223071Y-52918833D01*
X263413547Y-52633119D02*
X263461166Y-52585500D01*
X263556404Y-52537880D01*
X263794500Y-52537880D01*
X263889738Y-52585500D01*
X263937357Y-52633119D01*
X263984976Y-52728357D01*
X263984976Y-52823595D01*
X263937357Y-52966452D01*
X263365928Y-53537880D01*
X263984976Y-53537880D01*
X264604023Y-52537880D02*
X264699261Y-52537880D01*
X264794500Y-52585500D01*
X264842119Y-52633119D01*
X264889738Y-52728357D01*
X264937357Y-52918833D01*
X264937357Y-53156928D01*
X264889738Y-53347404D01*
X264842119Y-53442642D01*
X264794500Y-53490261D01*
X264699261Y-53537880D01*
X264604023Y-53537880D01*
X264508785Y-53490261D01*
X264461166Y-53442642D01*
X264413547Y-53347404D01*
X264365928Y-53156928D01*
X264365928Y-52918833D01*
X264413547Y-52728357D01*
X264461166Y-52633119D01*
X264508785Y-52585500D01*
X264604023Y-52537880D01*
X265318309Y-52633119D02*
X265365928Y-52585500D01*
X265461166Y-52537880D01*
X265699261Y-52537880D01*
X265794500Y-52585500D01*
X265842119Y-52633119D01*
X265889738Y-52728357D01*
X265889738Y-52823595D01*
X265842119Y-52966452D01*
X265270690Y-53537880D01*
X265889738Y-53537880D01*
X266270690Y-52633119D02*
X266318309Y-52585500D01*
X266413547Y-52537880D01*
X266651642Y-52537880D01*
X266746880Y-52585500D01*
X266794500Y-52633119D01*
X266842119Y-52728357D01*
X266842119Y-52823595D01*
X266794500Y-52966452D01*
X266223071Y-53537880D01*
X266842119Y-53537880D01*
X222176626Y-50617120D02*
G75*
G03*
X222176626Y-50617120I-79026J0D01*
G01*
D11*
%TO.C,C8*%
X162710400Y-58650260D02*
X162710400Y-58931420D01*
X163730400Y-58650260D02*
X163730400Y-58931420D01*
%TO.C,C3*%
X160695332Y-58650260D02*
X160695332Y-58931420D01*
X161715332Y-58650260D02*
X161715332Y-58931420D01*
%TO.C,C2*%
X158680266Y-58650260D02*
X158680266Y-58931420D01*
X159700266Y-58650260D02*
X159700266Y-58931420D01*
%TO.C,C1*%
X156665200Y-58650260D02*
X156665200Y-58931420D01*
X157685200Y-58650260D02*
X157685200Y-58931420D01*
%TO.C,SW12*%
X144831741Y-153987535D02*
X134932246Y-144088040D01*
X134932246Y-163887030D02*
X125032751Y-153987535D01*
X144831741Y-153987535D02*
X134932246Y-163887030D01*
X125032751Y-153987535D02*
X134932246Y-144088040D01*
%TO.C,SW1*%
X131343245Y-167481250D02*
X121443750Y-157581755D01*
X121443750Y-177380745D02*
X111544255Y-167481250D01*
X131343245Y-167481250D02*
X121443750Y-177380745D01*
X111544255Y-167481250D02*
X121443750Y-157581755D01*
%TO.C,SW35*%
X158325491Y-194468785D02*
X148425996Y-184569290D01*
X148425996Y-204368280D02*
X138526501Y-194468785D01*
X158325491Y-194468785D02*
X148425996Y-204368280D01*
X138526501Y-194468785D02*
X148425996Y-184569290D01*
%TO.C,C5*%
X206244580Y-50207640D02*
X206525740Y-50207640D01*
X206244580Y-49187640D02*
X206525740Y-49187640D01*
%TO.C,C7*%
X220299860Y-48516000D02*
X220018700Y-48516000D01*
X220299860Y-47496000D02*
X220018700Y-47496000D01*
%TO.C,C120*%
X209841560Y-52198660D02*
X209841560Y-52479820D01*
X208821560Y-52198660D02*
X208821560Y-52479820D01*
%TO.C,J2*%
X154463750Y-58420000D02*
X153193750Y-58420000D01*
X154463750Y-57150000D02*
X154463750Y-58420000D01*
X152150821Y-49150000D02*
X151696679Y-49150000D01*
X152150821Y-49910000D02*
X151696679Y-49910000D01*
X149610821Y-49150000D02*
X149213750Y-49150000D01*
X149610821Y-49910000D02*
X149213750Y-49910000D01*
X140553750Y-49150000D02*
X146553750Y-49150000D01*
X140553750Y-49910000D02*
X140553750Y-49150000D01*
X146553750Y-49910000D02*
X140553750Y-49910000D01*
X149213750Y-50800000D02*
X146553750Y-50800000D01*
X152150821Y-51690000D02*
X151696679Y-51690000D01*
X152150821Y-52450000D02*
X151696679Y-52450000D01*
X149610821Y-51690000D02*
X149213750Y-51690000D01*
X149610821Y-52450000D02*
X149213750Y-52450000D01*
X140553750Y-51690000D02*
X146553750Y-51690000D01*
X140553750Y-52450000D02*
X140553750Y-51690000D01*
X146553750Y-52450000D02*
X140553750Y-52450000D01*
X149213750Y-53340000D02*
X146553750Y-53340000D01*
X152150821Y-54230000D02*
X151696679Y-54230000D01*
X152150821Y-54990000D02*
X151696679Y-54990000D01*
X149610821Y-54230000D02*
X149213750Y-54230000D01*
X149610821Y-54990000D02*
X149213750Y-54990000D01*
X140553750Y-54230000D02*
X146553750Y-54230000D01*
X140553750Y-54990000D02*
X140553750Y-54230000D01*
X146553750Y-54990000D02*
X140553750Y-54990000D01*
X149213750Y-55880000D02*
X146553750Y-55880000D01*
X152083750Y-56770000D02*
X151696679Y-56770000D01*
X152083750Y-57530000D02*
X151696679Y-57530000D01*
X149610821Y-56770000D02*
X149213750Y-56770000D01*
X149610821Y-57530000D02*
X149213750Y-57530000D01*
X146553750Y-56870000D02*
X140553750Y-56870000D01*
X146553750Y-56990000D02*
X140553750Y-56990000D01*
X146553750Y-57110000D02*
X140553750Y-57110000D01*
X146553750Y-57230000D02*
X140553750Y-57230000D01*
X146553750Y-57350000D02*
X140553750Y-57350000D01*
X146553750Y-57470000D02*
X140553750Y-57470000D01*
X140553750Y-56770000D02*
X146553750Y-56770000D01*
X140553750Y-57530000D02*
X140553750Y-56770000D01*
X146553750Y-57530000D02*
X140553750Y-57530000D01*
X146553750Y-58480000D02*
X149213750Y-58480000D01*
X146553750Y-48200000D02*
X146553750Y-58480000D01*
X149213750Y-48200000D02*
X146553750Y-48200000D01*
X149213750Y-58480000D02*
X149213750Y-48200000D01*
%TO.C,R11*%
X226938100Y-45157658D02*
X226938100Y-44683142D01*
X225893100Y-45157658D02*
X225893100Y-44683142D01*
%TO.C,R12*%
X218448658Y-49642500D02*
X217974142Y-49642500D01*
X218448658Y-50687500D02*
X217974142Y-50687500D01*
%TO.C,R13*%
X218448959Y-52281831D02*
X217974443Y-52281831D01*
X218448959Y-51236831D02*
X217974443Y-51236831D01*
%TO.C,SW2*%
X264459960Y-66022460D02*
X278459960Y-66022460D01*
X278458760Y-80021310D02*
X278458760Y-66021310D01*
X264458760Y-80021310D02*
X264458760Y-66021310D01*
X278458760Y-80021310D02*
X264458760Y-80021310D01*
%TO.C,SW3*%
X264459960Y-85072460D02*
X278459960Y-85072460D01*
X278459960Y-99072460D02*
X278459960Y-85072460D01*
X278459960Y-99072460D02*
X264459960Y-99072460D01*
X264459960Y-99072460D02*
X264459960Y-85072460D01*
%TO.C,SW4*%
X278458760Y-118121310D02*
X264458760Y-118121310D01*
X264458760Y-118121310D02*
X264458760Y-104121310D01*
X278458760Y-118121310D02*
X278458760Y-104121310D01*
X264459960Y-104122460D02*
X278459960Y-104122460D01*
%TO.C,SW5*%
X264457420Y-137169920D02*
X264457420Y-123169920D01*
X278457420Y-137169920D02*
X264457420Y-137169920D01*
X278457420Y-137169920D02*
X278457420Y-123169920D01*
X264457420Y-123169920D02*
X278457420Y-123169920D01*
%TO.C,SW6*%
X144831741Y-180975035D02*
X134932246Y-171075540D01*
X134932246Y-190874530D02*
X125032751Y-180975035D01*
X144831741Y-180975035D02*
X134932246Y-190874530D01*
X125032751Y-180975035D02*
X134932246Y-171075540D01*
%TO.C,SW7*%
X164446260Y-66021310D02*
X178446260Y-66021310D01*
X178446260Y-80021310D02*
X164446260Y-80021310D01*
X164446260Y-80021310D02*
X164446260Y-66021310D01*
X178446260Y-80021310D02*
X178446260Y-66021310D01*
%TO.C,SW8*%
X164446260Y-85071310D02*
X178446260Y-85071310D01*
X178446260Y-99071310D02*
X164446260Y-99071310D01*
X164446260Y-99071310D02*
X164446260Y-85071310D01*
X178446260Y-99071310D02*
X178446260Y-85071310D01*
%TO.C,SW9*%
X178446260Y-118121310D02*
X178446260Y-104121310D01*
X164446260Y-118121310D02*
X164446260Y-104121310D01*
X178446260Y-118121310D02*
X164446260Y-118121310D01*
X164446260Y-104121310D02*
X178446260Y-104121310D01*
%TO.C,SW10*%
X164446260Y-123171310D02*
X178446260Y-123171310D01*
X178446260Y-137171310D02*
X164446260Y-137171310D01*
X164446260Y-137171310D02*
X164446260Y-123171310D01*
X178446260Y-137171310D02*
X178446260Y-123171310D01*
%TO.C,SW11*%
X240646260Y-142221310D02*
X254646260Y-142221310D01*
X254646260Y-156221310D02*
X240646260Y-156221310D01*
X240646260Y-156221310D02*
X240646260Y-142221310D01*
X254646260Y-156221310D02*
X254646260Y-142221310D01*
%TO.C,SW13*%
X197496260Y-77640060D02*
X197496260Y-63640060D01*
X183496260Y-77640060D02*
X183496260Y-63640060D01*
X197496260Y-77640060D02*
X183496260Y-77640060D01*
X183496260Y-63640060D02*
X197496260Y-63640060D01*
%TO.C,SW14*%
X197496260Y-96690060D02*
X197496260Y-82690060D01*
X183496260Y-96690060D02*
X183496260Y-82690060D01*
X197496260Y-96690060D02*
X183496260Y-96690060D01*
X183496260Y-82690060D02*
X197496260Y-82690060D01*
%TO.C,SW15*%
X197492520Y-115736370D02*
X197492520Y-101736370D01*
X183492520Y-115736370D02*
X183492520Y-101736370D01*
X197492520Y-115736370D02*
X183492520Y-115736370D01*
X183492520Y-101736370D02*
X197492520Y-101736370D01*
%TO.C,SW16*%
X197496260Y-134790060D02*
X197496260Y-120790060D01*
X183496260Y-134790060D02*
X183496260Y-120790060D01*
X197496260Y-134790060D02*
X183496260Y-134790060D01*
X183496260Y-120790060D02*
X197496260Y-120790060D01*
%TO.C,SW17*%
X183492520Y-139836370D02*
X197492520Y-139836370D01*
X197492520Y-153836370D02*
X183492520Y-153836370D01*
X183492520Y-153836370D02*
X183492520Y-139836370D01*
X197492520Y-153836370D02*
X197492520Y-139836370D01*
%TO.C,SW18*%
X155286928Y-184114285D02*
X145387433Y-174214790D01*
X155286928Y-164315295D02*
X165186423Y-174214790D01*
X165184761Y-174214825D02*
X155285266Y-184114320D01*
X145385771Y-174214825D02*
X155285266Y-164315330D01*
%TO.C,SW19*%
X202542520Y-61255120D02*
X216542520Y-61255120D01*
X216542520Y-75255120D02*
X202542520Y-75255120D01*
X202542520Y-75255120D02*
X202542520Y-61255120D01*
X216542520Y-75255120D02*
X216542520Y-61255120D01*
%TO.C,SW20*%
X216546260Y-94308810D02*
X216546260Y-80308810D01*
X202546260Y-94308810D02*
X202546260Y-80308810D01*
X216546260Y-94308810D02*
X202546260Y-94308810D01*
X202546260Y-80308810D02*
X216546260Y-80308810D01*
%TO.C,SW21*%
X202546260Y-99358810D02*
X216546260Y-99358810D01*
X216546260Y-113358810D02*
X202546260Y-113358810D01*
X202546260Y-113358810D02*
X202546260Y-99358810D01*
X216546260Y-113358810D02*
X216546260Y-99358810D01*
%TO.C,SW22*%
X202546260Y-118408810D02*
X216546260Y-118408810D01*
X216546260Y-132408810D02*
X202546260Y-132408810D01*
X202546260Y-132408810D02*
X202546260Y-118408810D01*
X216546260Y-132408810D02*
X216546260Y-118408810D01*
%TO.C,SW23*%
X216542520Y-151455120D02*
X216542520Y-137455120D01*
X202542520Y-151455120D02*
X202542520Y-137455120D01*
X216542520Y-151455120D02*
X202542520Y-151455120D01*
X202542520Y-137455120D02*
X216542520Y-137455120D01*
%TO.C,SW24*%
X158884775Y-160721040D02*
X168784270Y-150821545D01*
X178683765Y-160721040D02*
X168784270Y-170620535D01*
X168785932Y-150821510D02*
X178685427Y-160721005D01*
X168785932Y-170620500D02*
X158886437Y-160721005D01*
%TO.C,SW25*%
X235596260Y-77640060D02*
X235596260Y-63640060D01*
X221596260Y-77640060D02*
X221596260Y-63640060D01*
X235596260Y-77640060D02*
X221596260Y-77640060D01*
X221596260Y-63640060D02*
X235596260Y-63640060D01*
%TO.C,SW26*%
X221596260Y-82690060D02*
X235596260Y-82690060D01*
X235596260Y-96690060D02*
X221596260Y-96690060D01*
X221596260Y-96690060D02*
X221596260Y-82690060D01*
X235596260Y-96690060D02*
X235596260Y-82690060D01*
%TO.C,SW27*%
X221596260Y-101740060D02*
X235596260Y-101740060D01*
X235596260Y-115740060D02*
X221596260Y-115740060D01*
X221596260Y-115740060D02*
X221596260Y-101740060D01*
X235596260Y-115740060D02*
X235596260Y-101740060D01*
%TO.C,SW28*%
X221596260Y-120790060D02*
X235596260Y-120790060D01*
X235596260Y-134790060D02*
X221596260Y-134790060D01*
X221596260Y-134790060D02*
X221596260Y-120790060D01*
X235596260Y-134790060D02*
X235596260Y-120790060D01*
%TO.C,SW29*%
X235596260Y-153840060D02*
X235596260Y-139840060D01*
X221596260Y-153840060D02*
X221596260Y-139840060D01*
X235596260Y-153840060D02*
X221596260Y-153840060D01*
X221596260Y-139840060D02*
X235596260Y-139840060D01*
%TO.C,SW30*%
X273696260Y-156221310D02*
X273696260Y-142221310D01*
X259696260Y-156221310D02*
X259696260Y-142221310D01*
X273696260Y-156221310D02*
X259696260Y-156221310D01*
X259696260Y-142221310D02*
X273696260Y-142221310D01*
%TO.C,SW31*%
X240646260Y-66021310D02*
X254646260Y-66021310D01*
X254646260Y-80021310D02*
X240646260Y-80021310D01*
X240646260Y-80021310D02*
X240646260Y-66021310D01*
X254646260Y-80021310D02*
X254646260Y-66021310D01*
%TO.C,SW32*%
X254646260Y-99071310D02*
X254646260Y-85071310D01*
X240646260Y-99071310D02*
X240646260Y-85071310D01*
X254646260Y-99071310D02*
X240646260Y-99071310D01*
X240646260Y-85071310D02*
X254646260Y-85071310D01*
%TO.C,SW33*%
X254646260Y-118121310D02*
X254646260Y-104121310D01*
X240646260Y-118121310D02*
X240646260Y-104121310D01*
X254646260Y-118121310D02*
X240646260Y-118121310D01*
X240646260Y-104121310D02*
X254646260Y-104121310D01*
%TO.C,SW34*%
X254642520Y-137167620D02*
X254642520Y-123167620D01*
X240642520Y-137167620D02*
X240642520Y-123167620D01*
X254642520Y-137167620D02*
X240642520Y-137167620D01*
X240642520Y-123167620D02*
X254642520Y-123167620D01*
%TO.C,SW36*%
X159397460Y-89834960D02*
X145397460Y-89834960D01*
X159397460Y-103834960D02*
X145397460Y-103834960D01*
X159396260Y-103833810D02*
X159396260Y-89833810D01*
X145396260Y-103833810D02*
X145396260Y-89833810D01*
%TO.C,SW37*%
X145396260Y-132408810D02*
X145396260Y-118408810D01*
X159396260Y-132408810D02*
X159396260Y-118408810D01*
X159397460Y-132409960D02*
X145397460Y-132409960D01*
X159397460Y-118409960D02*
X145397460Y-118409960D01*
%TO.C,SW39*%
X159396260Y-80021310D02*
X159396260Y-66021310D01*
X145396260Y-80021310D02*
X145396260Y-66021310D01*
X159396260Y-80021310D02*
X145396260Y-80021310D01*
X145396260Y-66021310D02*
X159396260Y-66021310D01*
%TO.C,SW40*%
X183971820Y-48427020D02*
G75*
G03*
X183971820Y-48427020I-3000000J0D01*
G01*
X186871820Y-50427020D02*
X186871820Y-54527020D01*
X175071820Y-54527020D02*
X175071820Y-50427020D01*
X175071820Y-46427020D02*
X175071820Y-42327020D01*
X186871820Y-46427020D02*
X186871820Y-42327020D01*
X186871820Y-42327020D02*
X175071820Y-42327020D01*
X184771820Y-40927020D02*
X185071820Y-40627020D01*
X185071820Y-40627020D02*
X185071820Y-41227020D01*
X185071820Y-41227020D02*
X184771820Y-40927020D01*
X186871820Y-54527020D02*
X184471820Y-54527020D01*
X182271820Y-54527020D02*
X179671820Y-54527020D01*
X177471820Y-54527020D02*
X175071820Y-54527020D01*
X181471820Y-48427020D02*
X180471820Y-48427020D01*
X180971820Y-47927020D02*
X180971820Y-48927020D01*
%TO.C,U2*%
X222126161Y-49929142D02*
X221277633Y-50777670D01*
X225237431Y-54313204D02*
X224601035Y-53676808D01*
X225873827Y-53676808D02*
X225237431Y-54313204D01*
X228985097Y-50565538D02*
X228348701Y-49929142D01*
X228348701Y-51201934D02*
X228985097Y-50565538D01*
X225237431Y-46817872D02*
X225873827Y-47454268D01*
X224601035Y-47454268D02*
X225237431Y-46817872D01*
%TO.C,C8*%
D10*
X163691842Y-56414966D02*
X163739461Y-56462585D01*
X163787080Y-56605442D01*
X163787080Y-56700680D01*
X163739461Y-56843538D01*
X163644223Y-56938776D01*
X163548985Y-56986395D01*
X163358509Y-57034014D01*
X163215652Y-57034014D01*
X163025176Y-56986395D01*
X162929938Y-56938776D01*
X162834700Y-56843538D01*
X162787080Y-56700680D01*
X162787080Y-56605442D01*
X162834700Y-56462585D01*
X162882319Y-56414966D01*
X163215652Y-55843538D02*
X163168033Y-55938776D01*
X163120414Y-55986395D01*
X163025176Y-56034014D01*
X162977557Y-56034014D01*
X162882319Y-55986395D01*
X162834700Y-55938776D01*
X162787080Y-55843538D01*
X162787080Y-55653061D01*
X162834700Y-55557823D01*
X162882319Y-55510204D01*
X162977557Y-55462585D01*
X163025176Y-55462585D01*
X163120414Y-55510204D01*
X163168033Y-55557823D01*
X163215652Y-55653061D01*
X163215652Y-55843538D01*
X163263271Y-55938776D01*
X163310890Y-55986395D01*
X163406128Y-56034014D01*
X163596604Y-56034014D01*
X163691842Y-55986395D01*
X163739461Y-55938776D01*
X163787080Y-55843538D01*
X163787080Y-55653061D01*
X163739461Y-55557823D01*
X163691842Y-55510204D01*
X163596604Y-55462585D01*
X163406128Y-55462585D01*
X163310890Y-55510204D01*
X163263271Y-55557823D01*
X163215652Y-55653061D01*
%TO.C,C3*%
X161609042Y-56414966D02*
X161656661Y-56462585D01*
X161704280Y-56605442D01*
X161704280Y-56700680D01*
X161656661Y-56843538D01*
X161561423Y-56938776D01*
X161466185Y-56986395D01*
X161275709Y-57034014D01*
X161132852Y-57034014D01*
X160942376Y-56986395D01*
X160847138Y-56938776D01*
X160751900Y-56843538D01*
X160704280Y-56700680D01*
X160704280Y-56605442D01*
X160751900Y-56462585D01*
X160799519Y-56414966D01*
X160704280Y-56081633D02*
X160704280Y-55462585D01*
X161085233Y-55795919D01*
X161085233Y-55653061D01*
X161132852Y-55557823D01*
X161180471Y-55510204D01*
X161275709Y-55462585D01*
X161513804Y-55462585D01*
X161609042Y-55510204D01*
X161656661Y-55557823D01*
X161704280Y-55653061D01*
X161704280Y-55938776D01*
X161656661Y-56034014D01*
X161609042Y-56081633D01*
%TO.C,C2*%
X159627842Y-56414966D02*
X159675461Y-56462585D01*
X159723080Y-56605442D01*
X159723080Y-56700680D01*
X159675461Y-56843538D01*
X159580223Y-56938776D01*
X159484985Y-56986395D01*
X159294509Y-57034014D01*
X159151652Y-57034014D01*
X158961176Y-56986395D01*
X158865938Y-56938776D01*
X158770700Y-56843538D01*
X158723080Y-56700680D01*
X158723080Y-56605442D01*
X158770700Y-56462585D01*
X158818319Y-56414966D01*
X158818319Y-56034014D02*
X158770700Y-55986395D01*
X158723080Y-55891157D01*
X158723080Y-55653061D01*
X158770700Y-55557823D01*
X158818319Y-55510204D01*
X158913557Y-55462585D01*
X159008795Y-55462585D01*
X159151652Y-55510204D01*
X159723080Y-56081633D01*
X159723080Y-55462585D01*
%TO.C,C1*%
X157583142Y-56414966D02*
X157630761Y-56462585D01*
X157678380Y-56605442D01*
X157678380Y-56700680D01*
X157630761Y-56843538D01*
X157535523Y-56938776D01*
X157440285Y-56986395D01*
X157249809Y-57034014D01*
X157106952Y-57034014D01*
X156916476Y-56986395D01*
X156821238Y-56938776D01*
X156726000Y-56843538D01*
X156678380Y-56700680D01*
X156678380Y-56605442D01*
X156726000Y-56462585D01*
X156773619Y-56414966D01*
X157678380Y-55462585D02*
X157678380Y-56034014D01*
X157678380Y-55748300D02*
X156678380Y-55748300D01*
X156821238Y-55843538D01*
X156916476Y-55938776D01*
X156964095Y-56034014D01*
%TO.C,SW12*%
X139959159Y-161568212D02*
X140093846Y-161500868D01*
X140262205Y-161332510D01*
X140295876Y-161231494D01*
X140295876Y-161164151D01*
X140262205Y-161063136D01*
X140194861Y-160995792D01*
X140093846Y-160962120D01*
X140026502Y-160962120D01*
X139925487Y-160995792D01*
X139757128Y-161096807D01*
X139656113Y-161130479D01*
X139588770Y-161130479D01*
X139487754Y-161096807D01*
X139420411Y-161029464D01*
X139386739Y-160928449D01*
X139386739Y-160861105D01*
X139420411Y-160760090D01*
X139588770Y-160591731D01*
X139723457Y-160524388D01*
X139925487Y-160255014D02*
X140800953Y-160793762D01*
X140430563Y-160153998D01*
X141070327Y-160524388D01*
X140531579Y-159648922D01*
X141878449Y-159716266D02*
X141474388Y-160120327D01*
X141676418Y-159918296D02*
X140969311Y-159211189D01*
X141002983Y-159379548D01*
X141002983Y-159514235D01*
X140969311Y-159615250D01*
X141508059Y-158807128D02*
X141508059Y-158739785D01*
X141541731Y-158638770D01*
X141710090Y-158470411D01*
X141811105Y-158436739D01*
X141878449Y-158436739D01*
X141979464Y-158470411D01*
X142046807Y-158537754D01*
X142114151Y-158672441D01*
X142114151Y-159480563D01*
X142551884Y-159042831D01*
%TO.C,SW1*%
X126807380Y-174725209D02*
X126942067Y-174657866D01*
X127110426Y-174489507D01*
X127144098Y-174388492D01*
X127144098Y-174321148D01*
X127110426Y-174220133D01*
X127043083Y-174152790D01*
X126942067Y-174119118D01*
X126874724Y-174119118D01*
X126773709Y-174152790D01*
X126605350Y-174253805D01*
X126504335Y-174287477D01*
X126436991Y-174287477D01*
X126335976Y-174253805D01*
X126268632Y-174186461D01*
X126234961Y-174085446D01*
X126234961Y-174018103D01*
X126268632Y-173917087D01*
X126436991Y-173748729D01*
X126571678Y-173681385D01*
X126773709Y-173412011D02*
X127649174Y-173950759D01*
X127278785Y-173310996D01*
X127918548Y-173681385D01*
X127379800Y-172805920D01*
X128726670Y-172873263D02*
X128322609Y-173277324D01*
X128524640Y-173075294D02*
X127817533Y-172368187D01*
X127851205Y-172536546D01*
X127851205Y-172671233D01*
X127817533Y-172772248D01*
%TO.C,SW35*%
X153452909Y-202049462D02*
X153587596Y-201982118D01*
X153755955Y-201813760D01*
X153789626Y-201712744D01*
X153789626Y-201645401D01*
X153755955Y-201544386D01*
X153688611Y-201477042D01*
X153587596Y-201443370D01*
X153520252Y-201443370D01*
X153419237Y-201477042D01*
X153250878Y-201578057D01*
X153149863Y-201611729D01*
X153082520Y-201611729D01*
X152981504Y-201578057D01*
X152914161Y-201510714D01*
X152880489Y-201409699D01*
X152880489Y-201342355D01*
X152914161Y-201241340D01*
X153082520Y-201072981D01*
X153217207Y-201005638D01*
X153419237Y-200736264D02*
X154294703Y-201275012D01*
X153924313Y-200635248D01*
X154564077Y-201005638D01*
X154025329Y-200130172D01*
X154227359Y-199928142D02*
X154665092Y-199490409D01*
X154698764Y-199995485D01*
X154799779Y-199894470D01*
X154900794Y-199860798D01*
X154968138Y-199860798D01*
X155069153Y-199894470D01*
X155237512Y-200062829D01*
X155271183Y-200163844D01*
X155271183Y-200231187D01*
X155237512Y-200332203D01*
X155035481Y-200534233D01*
X154934466Y-200567905D01*
X154867122Y-200567905D01*
X155304855Y-198850646D02*
X154968138Y-199187363D01*
X155271183Y-199557752D01*
X155271183Y-199490409D01*
X155304855Y-199389394D01*
X155473214Y-199221035D01*
X155574229Y-199187363D01*
X155641573Y-199187363D01*
X155742588Y-199221035D01*
X155910947Y-199389394D01*
X155944618Y-199490409D01*
X155944618Y-199557752D01*
X155910947Y-199658768D01*
X155742588Y-199827126D01*
X155641573Y-199860798D01*
X155574229Y-199860798D01*
%TO.C,C5*%
X203617533Y-50115742D02*
X203569914Y-50163361D01*
X203427057Y-50210980D01*
X203331819Y-50210980D01*
X203188961Y-50163361D01*
X203093723Y-50068123D01*
X203046104Y-49972885D01*
X202998485Y-49782409D01*
X202998485Y-49639552D01*
X203046104Y-49449076D01*
X203093723Y-49353838D01*
X203188961Y-49258600D01*
X203331819Y-49210980D01*
X203427057Y-49210980D01*
X203569914Y-49258600D01*
X203617533Y-49306219D01*
X204522295Y-49210980D02*
X204046104Y-49210980D01*
X203998485Y-49687171D01*
X204046104Y-49639552D01*
X204141342Y-49591933D01*
X204379438Y-49591933D01*
X204474676Y-49639552D01*
X204522295Y-49687171D01*
X204569914Y-49782409D01*
X204569914Y-50020504D01*
X204522295Y-50115742D01*
X204474676Y-50163361D01*
X204379438Y-50210980D01*
X204141342Y-50210980D01*
X204046104Y-50163361D01*
X203998485Y-50115742D01*
%TO.C,C7*%
X219924333Y-47022022D02*
X219876714Y-47069641D01*
X219733857Y-47117260D01*
X219638619Y-47117260D01*
X219495761Y-47069641D01*
X219400523Y-46974403D01*
X219352904Y-46879165D01*
X219305285Y-46688689D01*
X219305285Y-46545832D01*
X219352904Y-46355356D01*
X219400523Y-46260118D01*
X219495761Y-46164880D01*
X219638619Y-46117260D01*
X219733857Y-46117260D01*
X219876714Y-46164880D01*
X219924333Y-46212499D01*
X220257666Y-46117260D02*
X220924333Y-46117260D01*
X220495761Y-47117260D01*
%TO.C,C120*%
X211118702Y-53458287D02*
X211166321Y-53505906D01*
X211213940Y-53648763D01*
X211213940Y-53744001D01*
X211166321Y-53886859D01*
X211071083Y-53982097D01*
X210975845Y-54029716D01*
X210785369Y-54077335D01*
X210642512Y-54077335D01*
X210452036Y-54029716D01*
X210356798Y-53982097D01*
X210261560Y-53886859D01*
X210213940Y-53744001D01*
X210213940Y-53648763D01*
X210261560Y-53505906D01*
X210309179Y-53458287D01*
X211213940Y-52505906D02*
X211213940Y-53077335D01*
X211213940Y-52791620D02*
X210213940Y-52791620D01*
X210356798Y-52886859D01*
X210452036Y-52982097D01*
X210499655Y-53077335D01*
X210309179Y-52124954D02*
X210261560Y-52077335D01*
X210213940Y-51982097D01*
X210213940Y-51744001D01*
X210261560Y-51648763D01*
X210309179Y-51601144D01*
X210404417Y-51553525D01*
X210499655Y-51553525D01*
X210642512Y-51601144D01*
X211213940Y-52172573D01*
X211213940Y-51553525D01*
X210213940Y-50934478D02*
X210213940Y-50839240D01*
X210261560Y-50744001D01*
X210309179Y-50696382D01*
X210404417Y-50648763D01*
X210594893Y-50601144D01*
X210832988Y-50601144D01*
X211023464Y-50648763D01*
X211118702Y-50696382D01*
X211166321Y-50744001D01*
X211213940Y-50839240D01*
X211213940Y-50934478D01*
X211166321Y-51029716D01*
X211118702Y-51077335D01*
X211023464Y-51124954D01*
X210832988Y-51172573D01*
X210594893Y-51172573D01*
X210404417Y-51124954D01*
X210309179Y-51077335D01*
X210261560Y-51029716D01*
X210213940Y-50934478D01*
%TO.C,J2*%
X147205416Y-58872380D02*
X147205416Y-59586666D01*
X147157797Y-59729523D01*
X147062559Y-59824761D01*
X146919702Y-59872380D01*
X146824464Y-59872380D01*
X147633988Y-58967619D02*
X147681607Y-58920000D01*
X147776845Y-58872380D01*
X148014940Y-58872380D01*
X148110178Y-58920000D01*
X148157797Y-58967619D01*
X148205416Y-59062857D01*
X148205416Y-59158095D01*
X148157797Y-59300952D01*
X147586369Y-59872380D01*
X148205416Y-59872380D01*
%TO.C,R11*%
X225437980Y-45563257D02*
X224961790Y-45896590D01*
X225437980Y-46134685D02*
X224437980Y-46134685D01*
X224437980Y-45753733D01*
X224485600Y-45658495D01*
X224533219Y-45610876D01*
X224628457Y-45563257D01*
X224771314Y-45563257D01*
X224866552Y-45610876D01*
X224914171Y-45658495D01*
X224961790Y-45753733D01*
X224961790Y-46134685D01*
X225437980Y-44610876D02*
X225437980Y-45182304D01*
X225437980Y-44896590D02*
X224437980Y-44896590D01*
X224580838Y-44991828D01*
X224676076Y-45087066D01*
X224723695Y-45182304D01*
X225437980Y-43658495D02*
X225437980Y-44229923D01*
X225437980Y-43944209D02*
X224437980Y-43944209D01*
X224580838Y-44039447D01*
X224676076Y-44134685D01*
X224723695Y-44229923D01*
%TO.C,R12*%
X215323182Y-49235620D02*
X214989849Y-48759430D01*
X214751754Y-49235620D02*
X214751754Y-48235620D01*
X215132706Y-48235620D01*
X215227944Y-48283240D01*
X215275563Y-48330859D01*
X215323182Y-48426097D01*
X215323182Y-48568954D01*
X215275563Y-48664192D01*
X215227944Y-48711811D01*
X215132706Y-48759430D01*
X214751754Y-48759430D01*
X216275563Y-49235620D02*
X215704135Y-49235620D01*
X215989849Y-49235620D02*
X215989849Y-48235620D01*
X215894611Y-48378478D01*
X215799373Y-48473716D01*
X215704135Y-48521335D01*
X216656516Y-48330859D02*
X216704135Y-48283240D01*
X216799373Y-48235620D01*
X217037468Y-48235620D01*
X217132706Y-48283240D01*
X217180325Y-48330859D01*
X217227944Y-48426097D01*
X217227944Y-48521335D01*
X217180325Y-48664192D01*
X216608897Y-49235620D01*
X217227944Y-49235620D01*
%TO.C,R13*%
X217477102Y-53645060D02*
X217143769Y-53168870D01*
X216905674Y-53645060D02*
X216905674Y-52645060D01*
X217286626Y-52645060D01*
X217381864Y-52692680D01*
X217429483Y-52740299D01*
X217477102Y-52835537D01*
X217477102Y-52978394D01*
X217429483Y-53073632D01*
X217381864Y-53121251D01*
X217286626Y-53168870D01*
X216905674Y-53168870D01*
X218429483Y-53645060D02*
X217858055Y-53645060D01*
X218143769Y-53645060D02*
X218143769Y-52645060D01*
X218048531Y-52787918D01*
X217953293Y-52883156D01*
X217858055Y-52930775D01*
X218762817Y-52645060D02*
X219381864Y-52645060D01*
X219048531Y-53026013D01*
X219191388Y-53026013D01*
X219286626Y-53073632D01*
X219334245Y-53121251D01*
X219381864Y-53216489D01*
X219381864Y-53454584D01*
X219334245Y-53549822D01*
X219286626Y-53597441D01*
X219191388Y-53645060D01*
X218905674Y-53645060D01*
X218810436Y-53597441D01*
X218762817Y-53549822D01*
%TO.C,SW2*%
X270129166Y-81936221D02*
X270272023Y-81983840D01*
X270510119Y-81983840D01*
X270605357Y-81936221D01*
X270652976Y-81888602D01*
X270700595Y-81793364D01*
X270700595Y-81698126D01*
X270652976Y-81602888D01*
X270605357Y-81555269D01*
X270510119Y-81507650D01*
X270319642Y-81460031D01*
X270224404Y-81412412D01*
X270176785Y-81364793D01*
X270129166Y-81269555D01*
X270129166Y-81174317D01*
X270176785Y-81079079D01*
X270224404Y-81031460D01*
X270319642Y-80983840D01*
X270557738Y-80983840D01*
X270700595Y-81031460D01*
X271033928Y-80983840D02*
X271272023Y-81983840D01*
X271462500Y-81269555D01*
X271652976Y-81983840D01*
X271891071Y-80983840D01*
X272224404Y-81079079D02*
X272272023Y-81031460D01*
X272367261Y-80983840D01*
X272605357Y-80983840D01*
X272700595Y-81031460D01*
X272748214Y-81079079D01*
X272795833Y-81174317D01*
X272795833Y-81269555D01*
X272748214Y-81412412D01*
X272176785Y-81983840D01*
X272795833Y-81983840D01*
%TO.C,SW3*%
X270129166Y-100986221D02*
X270272023Y-101033840D01*
X270510119Y-101033840D01*
X270605357Y-100986221D01*
X270652976Y-100938602D01*
X270700595Y-100843364D01*
X270700595Y-100748126D01*
X270652976Y-100652888D01*
X270605357Y-100605269D01*
X270510119Y-100557650D01*
X270319642Y-100510031D01*
X270224404Y-100462412D01*
X270176785Y-100414793D01*
X270129166Y-100319555D01*
X270129166Y-100224317D01*
X270176785Y-100129079D01*
X270224404Y-100081460D01*
X270319642Y-100033840D01*
X270557738Y-100033840D01*
X270700595Y-100081460D01*
X271033928Y-100033840D02*
X271272023Y-101033840D01*
X271462500Y-100319555D01*
X271652976Y-101033840D01*
X271891071Y-100033840D01*
X272176785Y-100033840D02*
X272795833Y-100033840D01*
X272462500Y-100414793D01*
X272605357Y-100414793D01*
X272700595Y-100462412D01*
X272748214Y-100510031D01*
X272795833Y-100605269D01*
X272795833Y-100843364D01*
X272748214Y-100938602D01*
X272700595Y-100986221D01*
X272605357Y-101033840D01*
X272319642Y-101033840D01*
X272224404Y-100986221D01*
X272176785Y-100938602D01*
%TO.C,SW4*%
X270129166Y-120036221D02*
X270272023Y-120083840D01*
X270510119Y-120083840D01*
X270605357Y-120036221D01*
X270652976Y-119988602D01*
X270700595Y-119893364D01*
X270700595Y-119798126D01*
X270652976Y-119702888D01*
X270605357Y-119655269D01*
X270510119Y-119607650D01*
X270319642Y-119560031D01*
X270224404Y-119512412D01*
X270176785Y-119464793D01*
X270129166Y-119369555D01*
X270129166Y-119274317D01*
X270176785Y-119179079D01*
X270224404Y-119131460D01*
X270319642Y-119083840D01*
X270557738Y-119083840D01*
X270700595Y-119131460D01*
X271033928Y-119083840D02*
X271272023Y-120083840D01*
X271462500Y-119369555D01*
X271652976Y-120083840D01*
X271891071Y-119083840D01*
X272700595Y-119417174D02*
X272700595Y-120083840D01*
X272462500Y-119036221D02*
X272224404Y-119750507D01*
X272843452Y-119750507D01*
%TO.C,SW5*%
X270126626Y-139083681D02*
X270269483Y-139131300D01*
X270507579Y-139131300D01*
X270602817Y-139083681D01*
X270650436Y-139036062D01*
X270698055Y-138940824D01*
X270698055Y-138845586D01*
X270650436Y-138750348D01*
X270602817Y-138702729D01*
X270507579Y-138655110D01*
X270317102Y-138607491D01*
X270221864Y-138559872D01*
X270174245Y-138512253D01*
X270126626Y-138417015D01*
X270126626Y-138321777D01*
X270174245Y-138226539D01*
X270221864Y-138178920D01*
X270317102Y-138131300D01*
X270555198Y-138131300D01*
X270698055Y-138178920D01*
X271031388Y-138131300D02*
X271269483Y-139131300D01*
X271459960Y-138417015D01*
X271650436Y-139131300D01*
X271888531Y-138131300D01*
X272745674Y-138131300D02*
X272269483Y-138131300D01*
X272221864Y-138607491D01*
X272269483Y-138559872D01*
X272364721Y-138512253D01*
X272602817Y-138512253D01*
X272698055Y-138559872D01*
X272745674Y-138607491D01*
X272793293Y-138702729D01*
X272793293Y-138940824D01*
X272745674Y-139036062D01*
X272698055Y-139083681D01*
X272602817Y-139131300D01*
X272364721Y-139131300D01*
X272269483Y-139083681D01*
X272221864Y-139036062D01*
%TO.C,SW6*%
X140295876Y-188218994D02*
X140430563Y-188151651D01*
X140598922Y-187983292D01*
X140632594Y-187882277D01*
X140632594Y-187814933D01*
X140598922Y-187713918D01*
X140531579Y-187646575D01*
X140430563Y-187612903D01*
X140363220Y-187612903D01*
X140262205Y-187646575D01*
X140093846Y-187747590D01*
X139992831Y-187781262D01*
X139925487Y-187781262D01*
X139824472Y-187747590D01*
X139757128Y-187680246D01*
X139723457Y-187579231D01*
X139723457Y-187511888D01*
X139757128Y-187410872D01*
X139925487Y-187242514D01*
X140060174Y-187175170D01*
X140262205Y-186905796D02*
X141137670Y-187444544D01*
X140767281Y-186804781D01*
X141407044Y-187175170D01*
X140868296Y-186299705D01*
X141440716Y-185727285D02*
X141306029Y-185861972D01*
X141272357Y-185962987D01*
X141272357Y-186030331D01*
X141306029Y-186198689D01*
X141407044Y-186367048D01*
X141676418Y-186636422D01*
X141777433Y-186670094D01*
X141844777Y-186670094D01*
X141945792Y-186636422D01*
X142080479Y-186501735D01*
X142114151Y-186400720D01*
X142114151Y-186333376D01*
X142080479Y-186232361D01*
X141912120Y-186064002D01*
X141811105Y-186030331D01*
X141743762Y-186030331D01*
X141642746Y-186064002D01*
X141508059Y-186198689D01*
X141474388Y-186299705D01*
X141474388Y-186367048D01*
X141508059Y-186468063D01*
%TO.C,SW7*%
X170116666Y-81936221D02*
X170259523Y-81983840D01*
X170497619Y-81983840D01*
X170592857Y-81936221D01*
X170640476Y-81888602D01*
X170688095Y-81793364D01*
X170688095Y-81698126D01*
X170640476Y-81602888D01*
X170592857Y-81555269D01*
X170497619Y-81507650D01*
X170307142Y-81460031D01*
X170211904Y-81412412D01*
X170164285Y-81364793D01*
X170116666Y-81269555D01*
X170116666Y-81174317D01*
X170164285Y-81079079D01*
X170211904Y-81031460D01*
X170307142Y-80983840D01*
X170545238Y-80983840D01*
X170688095Y-81031460D01*
X171021428Y-80983840D02*
X171259523Y-81983840D01*
X171450000Y-81269555D01*
X171640476Y-81983840D01*
X171878571Y-80983840D01*
X172164285Y-80983840D02*
X172830952Y-80983840D01*
X172402380Y-81983840D01*
%TO.C,SW8*%
X170116666Y-100986221D02*
X170259523Y-101033840D01*
X170497619Y-101033840D01*
X170592857Y-100986221D01*
X170640476Y-100938602D01*
X170688095Y-100843364D01*
X170688095Y-100748126D01*
X170640476Y-100652888D01*
X170592857Y-100605269D01*
X170497619Y-100557650D01*
X170307142Y-100510031D01*
X170211904Y-100462412D01*
X170164285Y-100414793D01*
X170116666Y-100319555D01*
X170116666Y-100224317D01*
X170164285Y-100129079D01*
X170211904Y-100081460D01*
X170307142Y-100033840D01*
X170545238Y-100033840D01*
X170688095Y-100081460D01*
X171021428Y-100033840D02*
X171259523Y-101033840D01*
X171450000Y-100319555D01*
X171640476Y-101033840D01*
X171878571Y-100033840D01*
X172402380Y-100462412D02*
X172307142Y-100414793D01*
X172259523Y-100367174D01*
X172211904Y-100271936D01*
X172211904Y-100224317D01*
X172259523Y-100129079D01*
X172307142Y-100081460D01*
X172402380Y-100033840D01*
X172592857Y-100033840D01*
X172688095Y-100081460D01*
X172735714Y-100129079D01*
X172783333Y-100224317D01*
X172783333Y-100271936D01*
X172735714Y-100367174D01*
X172688095Y-100414793D01*
X172592857Y-100462412D01*
X172402380Y-100462412D01*
X172307142Y-100510031D01*
X172259523Y-100557650D01*
X172211904Y-100652888D01*
X172211904Y-100843364D01*
X172259523Y-100938602D01*
X172307142Y-100986221D01*
X172402380Y-101033840D01*
X172592857Y-101033840D01*
X172688095Y-100986221D01*
X172735714Y-100938602D01*
X172783333Y-100843364D01*
X172783333Y-100652888D01*
X172735714Y-100557650D01*
X172688095Y-100510031D01*
X172592857Y-100462412D01*
%TO.C,SW9*%
X170116666Y-120036221D02*
X170259523Y-120083840D01*
X170497619Y-120083840D01*
X170592857Y-120036221D01*
X170640476Y-119988602D01*
X170688095Y-119893364D01*
X170688095Y-119798126D01*
X170640476Y-119702888D01*
X170592857Y-119655269D01*
X170497619Y-119607650D01*
X170307142Y-119560031D01*
X170211904Y-119512412D01*
X170164285Y-119464793D01*
X170116666Y-119369555D01*
X170116666Y-119274317D01*
X170164285Y-119179079D01*
X170211904Y-119131460D01*
X170307142Y-119083840D01*
X170545238Y-119083840D01*
X170688095Y-119131460D01*
X171021428Y-119083840D02*
X171259523Y-120083840D01*
X171450000Y-119369555D01*
X171640476Y-120083840D01*
X171878571Y-119083840D01*
X172307142Y-120083840D02*
X172497619Y-120083840D01*
X172592857Y-120036221D01*
X172640476Y-119988602D01*
X172735714Y-119845745D01*
X172783333Y-119655269D01*
X172783333Y-119274317D01*
X172735714Y-119179079D01*
X172688095Y-119131460D01*
X172592857Y-119083840D01*
X172402380Y-119083840D01*
X172307142Y-119131460D01*
X172259523Y-119179079D01*
X172211904Y-119274317D01*
X172211904Y-119512412D01*
X172259523Y-119607650D01*
X172307142Y-119655269D01*
X172402380Y-119702888D01*
X172592857Y-119702888D01*
X172688095Y-119655269D01*
X172735714Y-119607650D01*
X172783333Y-119512412D01*
%TO.C,SW10*%
X169640476Y-139086221D02*
X169783333Y-139133840D01*
X170021428Y-139133840D01*
X170116666Y-139086221D01*
X170164285Y-139038602D01*
X170211904Y-138943364D01*
X170211904Y-138848126D01*
X170164285Y-138752888D01*
X170116666Y-138705269D01*
X170021428Y-138657650D01*
X169830952Y-138610031D01*
X169735714Y-138562412D01*
X169688095Y-138514793D01*
X169640476Y-138419555D01*
X169640476Y-138324317D01*
X169688095Y-138229079D01*
X169735714Y-138181460D01*
X169830952Y-138133840D01*
X170069047Y-138133840D01*
X170211904Y-138181460D01*
X170545238Y-138133840D02*
X170783333Y-139133840D01*
X170973809Y-138419555D01*
X171164285Y-139133840D01*
X171402380Y-138133840D01*
X172307142Y-139133840D02*
X171735714Y-139133840D01*
X172021428Y-139133840D02*
X172021428Y-138133840D01*
X171926190Y-138276698D01*
X171830952Y-138371936D01*
X171735714Y-138419555D01*
X172926190Y-138133840D02*
X173021428Y-138133840D01*
X173116666Y-138181460D01*
X173164285Y-138229079D01*
X173211904Y-138324317D01*
X173259523Y-138514793D01*
X173259523Y-138752888D01*
X173211904Y-138943364D01*
X173164285Y-139038602D01*
X173116666Y-139086221D01*
X173021428Y-139133840D01*
X172926190Y-139133840D01*
X172830952Y-139086221D01*
X172783333Y-139038602D01*
X172735714Y-138943364D01*
X172688095Y-138752888D01*
X172688095Y-138514793D01*
X172735714Y-138324317D01*
X172783333Y-138229079D01*
X172830952Y-138181460D01*
X172926190Y-138133840D01*
%TO.C,SW11*%
X245840476Y-158136221D02*
X245983333Y-158183840D01*
X246221428Y-158183840D01*
X246316666Y-158136221D01*
X246364285Y-158088602D01*
X246411904Y-157993364D01*
X246411904Y-157898126D01*
X246364285Y-157802888D01*
X246316666Y-157755269D01*
X246221428Y-157707650D01*
X246030952Y-157660031D01*
X245935714Y-157612412D01*
X245888095Y-157564793D01*
X245840476Y-157469555D01*
X245840476Y-157374317D01*
X245888095Y-157279079D01*
X245935714Y-157231460D01*
X246030952Y-157183840D01*
X246269047Y-157183840D01*
X246411904Y-157231460D01*
X246745238Y-157183840D02*
X246983333Y-158183840D01*
X247173809Y-157469555D01*
X247364285Y-158183840D01*
X247602380Y-157183840D01*
X248507142Y-158183840D02*
X247935714Y-158183840D01*
X248221428Y-158183840D02*
X248221428Y-157183840D01*
X248126190Y-157326698D01*
X248030952Y-157421936D01*
X247935714Y-157469555D01*
X249459523Y-158183840D02*
X248888095Y-158183840D01*
X249173809Y-158183840D02*
X249173809Y-157183840D01*
X249078571Y-157326698D01*
X248983333Y-157421936D01*
X248888095Y-157469555D01*
%TO.C,SW13*%
X188690476Y-79554971D02*
X188833333Y-79602590D01*
X189071428Y-79602590D01*
X189166666Y-79554971D01*
X189214285Y-79507352D01*
X189261904Y-79412114D01*
X189261904Y-79316876D01*
X189214285Y-79221638D01*
X189166666Y-79174019D01*
X189071428Y-79126400D01*
X188880952Y-79078781D01*
X188785714Y-79031162D01*
X188738095Y-78983543D01*
X188690476Y-78888305D01*
X188690476Y-78793067D01*
X188738095Y-78697829D01*
X188785714Y-78650210D01*
X188880952Y-78602590D01*
X189119047Y-78602590D01*
X189261904Y-78650210D01*
X189595238Y-78602590D02*
X189833333Y-79602590D01*
X190023809Y-78888305D01*
X190214285Y-79602590D01*
X190452380Y-78602590D01*
X191357142Y-79602590D02*
X190785714Y-79602590D01*
X191071428Y-79602590D02*
X191071428Y-78602590D01*
X190976190Y-78745448D01*
X190880952Y-78840686D01*
X190785714Y-78888305D01*
X191690476Y-78602590D02*
X192309523Y-78602590D01*
X191976190Y-78983543D01*
X192119047Y-78983543D01*
X192214285Y-79031162D01*
X192261904Y-79078781D01*
X192309523Y-79174019D01*
X192309523Y-79412114D01*
X192261904Y-79507352D01*
X192214285Y-79554971D01*
X192119047Y-79602590D01*
X191833333Y-79602590D01*
X191738095Y-79554971D01*
X191690476Y-79507352D01*
%TO.C,SW14*%
X188690476Y-98604971D02*
X188833333Y-98652590D01*
X189071428Y-98652590D01*
X189166666Y-98604971D01*
X189214285Y-98557352D01*
X189261904Y-98462114D01*
X189261904Y-98366876D01*
X189214285Y-98271638D01*
X189166666Y-98224019D01*
X189071428Y-98176400D01*
X188880952Y-98128781D01*
X188785714Y-98081162D01*
X188738095Y-98033543D01*
X188690476Y-97938305D01*
X188690476Y-97843067D01*
X188738095Y-97747829D01*
X188785714Y-97700210D01*
X188880952Y-97652590D01*
X189119047Y-97652590D01*
X189261904Y-97700210D01*
X189595238Y-97652590D02*
X189833333Y-98652590D01*
X190023809Y-97938305D01*
X190214285Y-98652590D01*
X190452380Y-97652590D01*
X191357142Y-98652590D02*
X190785714Y-98652590D01*
X191071428Y-98652590D02*
X191071428Y-97652590D01*
X190976190Y-97795448D01*
X190880952Y-97890686D01*
X190785714Y-97938305D01*
X192214285Y-97985924D02*
X192214285Y-98652590D01*
X191976190Y-97604971D02*
X191738095Y-98319257D01*
X192357142Y-98319257D01*
%TO.C,SW15*%
X188686736Y-117651281D02*
X188829593Y-117698900D01*
X189067688Y-117698900D01*
X189162926Y-117651281D01*
X189210545Y-117603662D01*
X189258164Y-117508424D01*
X189258164Y-117413186D01*
X189210545Y-117317948D01*
X189162926Y-117270329D01*
X189067688Y-117222710D01*
X188877212Y-117175091D01*
X188781974Y-117127472D01*
X188734355Y-117079853D01*
X188686736Y-116984615D01*
X188686736Y-116889377D01*
X188734355Y-116794139D01*
X188781974Y-116746520D01*
X188877212Y-116698900D01*
X189115307Y-116698900D01*
X189258164Y-116746520D01*
X189591498Y-116698900D02*
X189829593Y-117698900D01*
X190020069Y-116984615D01*
X190210545Y-117698900D01*
X190448640Y-116698900D01*
X191353402Y-117698900D02*
X190781974Y-117698900D01*
X191067688Y-117698900D02*
X191067688Y-116698900D01*
X190972450Y-116841758D01*
X190877212Y-116936996D01*
X190781974Y-116984615D01*
X192258164Y-116698900D02*
X191781974Y-116698900D01*
X191734355Y-117175091D01*
X191781974Y-117127472D01*
X191877212Y-117079853D01*
X192115307Y-117079853D01*
X192210545Y-117127472D01*
X192258164Y-117175091D01*
X192305783Y-117270329D01*
X192305783Y-117508424D01*
X192258164Y-117603662D01*
X192210545Y-117651281D01*
X192115307Y-117698900D01*
X191877212Y-117698900D01*
X191781974Y-117651281D01*
X191734355Y-117603662D01*
%TO.C,SW16*%
X188690476Y-136704971D02*
X188833333Y-136752590D01*
X189071428Y-136752590D01*
X189166666Y-136704971D01*
X189214285Y-136657352D01*
X189261904Y-136562114D01*
X189261904Y-136466876D01*
X189214285Y-136371638D01*
X189166666Y-136324019D01*
X189071428Y-136276400D01*
X188880952Y-136228781D01*
X188785714Y-136181162D01*
X188738095Y-136133543D01*
X188690476Y-136038305D01*
X188690476Y-135943067D01*
X188738095Y-135847829D01*
X188785714Y-135800210D01*
X188880952Y-135752590D01*
X189119047Y-135752590D01*
X189261904Y-135800210D01*
X189595238Y-135752590D02*
X189833333Y-136752590D01*
X190023809Y-136038305D01*
X190214285Y-136752590D01*
X190452380Y-135752590D01*
X191357142Y-136752590D02*
X190785714Y-136752590D01*
X191071428Y-136752590D02*
X191071428Y-135752590D01*
X190976190Y-135895448D01*
X190880952Y-135990686D01*
X190785714Y-136038305D01*
X192214285Y-135752590D02*
X192023809Y-135752590D01*
X191928571Y-135800210D01*
X191880952Y-135847829D01*
X191785714Y-135990686D01*
X191738095Y-136181162D01*
X191738095Y-136562114D01*
X191785714Y-136657352D01*
X191833333Y-136704971D01*
X191928571Y-136752590D01*
X192119047Y-136752590D01*
X192214285Y-136704971D01*
X192261904Y-136657352D01*
X192309523Y-136562114D01*
X192309523Y-136324019D01*
X192261904Y-136228781D01*
X192214285Y-136181162D01*
X192119047Y-136133543D01*
X191928571Y-136133543D01*
X191833333Y-136181162D01*
X191785714Y-136228781D01*
X191738095Y-136324019D01*
%TO.C,SW17*%
X188686736Y-155751281D02*
X188829593Y-155798900D01*
X189067688Y-155798900D01*
X189162926Y-155751281D01*
X189210545Y-155703662D01*
X189258164Y-155608424D01*
X189258164Y-155513186D01*
X189210545Y-155417948D01*
X189162926Y-155370329D01*
X189067688Y-155322710D01*
X188877212Y-155275091D01*
X188781974Y-155227472D01*
X188734355Y-155179853D01*
X188686736Y-155084615D01*
X188686736Y-154989377D01*
X188734355Y-154894139D01*
X188781974Y-154846520D01*
X188877212Y-154798900D01*
X189115307Y-154798900D01*
X189258164Y-154846520D01*
X189591498Y-154798900D02*
X189829593Y-155798900D01*
X190020069Y-155084615D01*
X190210545Y-155798900D01*
X190448640Y-154798900D01*
X191353402Y-155798900D02*
X190781974Y-155798900D01*
X191067688Y-155798900D02*
X191067688Y-154798900D01*
X190972450Y-154941758D01*
X190877212Y-155036996D01*
X190781974Y-155084615D01*
X191686736Y-154798900D02*
X192353402Y-154798900D01*
X191924831Y-155798900D01*
%TO.C,SW18*%
X160312179Y-181795502D02*
X160446866Y-181728158D01*
X160615225Y-181559800D01*
X160648896Y-181458784D01*
X160648896Y-181391441D01*
X160615225Y-181290426D01*
X160547881Y-181223082D01*
X160446866Y-181189410D01*
X160379522Y-181189410D01*
X160278507Y-181223082D01*
X160110148Y-181324097D01*
X160009133Y-181357769D01*
X159941790Y-181357769D01*
X159840774Y-181324097D01*
X159773431Y-181256754D01*
X159739759Y-181155739D01*
X159739759Y-181088395D01*
X159773431Y-180987380D01*
X159941790Y-180819021D01*
X160076477Y-180751678D01*
X160278507Y-180482304D02*
X161153973Y-181021052D01*
X160783583Y-180381288D01*
X161423347Y-180751678D01*
X160884599Y-179876212D01*
X162231469Y-179943556D02*
X161827408Y-180347617D01*
X162029438Y-180145586D02*
X161322331Y-179438479D01*
X161356003Y-179606838D01*
X161356003Y-179741525D01*
X161322331Y-179842540D01*
X162231469Y-179135434D02*
X162130453Y-179169105D01*
X162063110Y-179169105D01*
X161962095Y-179135434D01*
X161928423Y-179101762D01*
X161894751Y-179000747D01*
X161894751Y-178933403D01*
X161928423Y-178832388D01*
X162063110Y-178697701D01*
X162164125Y-178664029D01*
X162231469Y-178664029D01*
X162332484Y-178697701D01*
X162366156Y-178731373D01*
X162399827Y-178832388D01*
X162399827Y-178899731D01*
X162366156Y-179000747D01*
X162231469Y-179135434D01*
X162197797Y-179236449D01*
X162197797Y-179303792D01*
X162231469Y-179404808D01*
X162366156Y-179539495D01*
X162467171Y-179573166D01*
X162534514Y-179573166D01*
X162635530Y-179539495D01*
X162770217Y-179404808D01*
X162803888Y-179303792D01*
X162803888Y-179236449D01*
X162770217Y-179135434D01*
X162635530Y-179000747D01*
X162534514Y-178967075D01*
X162467171Y-178967075D01*
X162366156Y-179000747D01*
%TO.C,SW19*%
X207736736Y-77170031D02*
X207879593Y-77217650D01*
X208117688Y-77217650D01*
X208212926Y-77170031D01*
X208260545Y-77122412D01*
X208308164Y-77027174D01*
X208308164Y-76931936D01*
X208260545Y-76836698D01*
X208212926Y-76789079D01*
X208117688Y-76741460D01*
X207927212Y-76693841D01*
X207831974Y-76646222D01*
X207784355Y-76598603D01*
X207736736Y-76503365D01*
X207736736Y-76408127D01*
X207784355Y-76312889D01*
X207831974Y-76265270D01*
X207927212Y-76217650D01*
X208165307Y-76217650D01*
X208308164Y-76265270D01*
X208641498Y-76217650D02*
X208879593Y-77217650D01*
X209070069Y-76503365D01*
X209260545Y-77217650D01*
X209498640Y-76217650D01*
X210403402Y-77217650D02*
X209831974Y-77217650D01*
X210117688Y-77217650D02*
X210117688Y-76217650D01*
X210022450Y-76360508D01*
X209927212Y-76455746D01*
X209831974Y-76503365D01*
X210879593Y-77217650D02*
X211070069Y-77217650D01*
X211165307Y-77170031D01*
X211212926Y-77122412D01*
X211308164Y-76979555D01*
X211355783Y-76789079D01*
X211355783Y-76408127D01*
X211308164Y-76312889D01*
X211260545Y-76265270D01*
X211165307Y-76217650D01*
X210974831Y-76217650D01*
X210879593Y-76265270D01*
X210831974Y-76312889D01*
X210784355Y-76408127D01*
X210784355Y-76646222D01*
X210831974Y-76741460D01*
X210879593Y-76789079D01*
X210974831Y-76836698D01*
X211165307Y-76836698D01*
X211260545Y-76789079D01*
X211308164Y-76741460D01*
X211355783Y-76646222D01*
%TO.C,SW20*%
X207740476Y-96223721D02*
X207883333Y-96271340D01*
X208121428Y-96271340D01*
X208216666Y-96223721D01*
X208264285Y-96176102D01*
X208311904Y-96080864D01*
X208311904Y-95985626D01*
X208264285Y-95890388D01*
X208216666Y-95842769D01*
X208121428Y-95795150D01*
X207930952Y-95747531D01*
X207835714Y-95699912D01*
X207788095Y-95652293D01*
X207740476Y-95557055D01*
X207740476Y-95461817D01*
X207788095Y-95366579D01*
X207835714Y-95318960D01*
X207930952Y-95271340D01*
X208169047Y-95271340D01*
X208311904Y-95318960D01*
X208645238Y-95271340D02*
X208883333Y-96271340D01*
X209073809Y-95557055D01*
X209264285Y-96271340D01*
X209502380Y-95271340D01*
X209835714Y-95366579D02*
X209883333Y-95318960D01*
X209978571Y-95271340D01*
X210216666Y-95271340D01*
X210311904Y-95318960D01*
X210359523Y-95366579D01*
X210407142Y-95461817D01*
X210407142Y-95557055D01*
X210359523Y-95699912D01*
X209788095Y-96271340D01*
X210407142Y-96271340D01*
X211026190Y-95271340D02*
X211121428Y-95271340D01*
X211216666Y-95318960D01*
X211264285Y-95366579D01*
X211311904Y-95461817D01*
X211359523Y-95652293D01*
X211359523Y-95890388D01*
X211311904Y-96080864D01*
X211264285Y-96176102D01*
X211216666Y-96223721D01*
X211121428Y-96271340D01*
X211026190Y-96271340D01*
X210930952Y-96223721D01*
X210883333Y-96176102D01*
X210835714Y-96080864D01*
X210788095Y-95890388D01*
X210788095Y-95652293D01*
X210835714Y-95461817D01*
X210883333Y-95366579D01*
X210930952Y-95318960D01*
X211026190Y-95271340D01*
%TO.C,SW21*%
X207740476Y-115273721D02*
X207883333Y-115321340D01*
X208121428Y-115321340D01*
X208216666Y-115273721D01*
X208264285Y-115226102D01*
X208311904Y-115130864D01*
X208311904Y-115035626D01*
X208264285Y-114940388D01*
X208216666Y-114892769D01*
X208121428Y-114845150D01*
X207930952Y-114797531D01*
X207835714Y-114749912D01*
X207788095Y-114702293D01*
X207740476Y-114607055D01*
X207740476Y-114511817D01*
X207788095Y-114416579D01*
X207835714Y-114368960D01*
X207930952Y-114321340D01*
X208169047Y-114321340D01*
X208311904Y-114368960D01*
X208645238Y-114321340D02*
X208883333Y-115321340D01*
X209073809Y-114607055D01*
X209264285Y-115321340D01*
X209502380Y-114321340D01*
X209835714Y-114416579D02*
X209883333Y-114368960D01*
X209978571Y-114321340D01*
X210216666Y-114321340D01*
X210311904Y-114368960D01*
X210359523Y-114416579D01*
X210407142Y-114511817D01*
X210407142Y-114607055D01*
X210359523Y-114749912D01*
X209788095Y-115321340D01*
X210407142Y-115321340D01*
X211359523Y-115321340D02*
X210788095Y-115321340D01*
X211073809Y-115321340D02*
X211073809Y-114321340D01*
X210978571Y-114464198D01*
X210883333Y-114559436D01*
X210788095Y-114607055D01*
%TO.C,SW22*%
X207740476Y-134323721D02*
X207883333Y-134371340D01*
X208121428Y-134371340D01*
X208216666Y-134323721D01*
X208264285Y-134276102D01*
X208311904Y-134180864D01*
X208311904Y-134085626D01*
X208264285Y-133990388D01*
X208216666Y-133942769D01*
X208121428Y-133895150D01*
X207930952Y-133847531D01*
X207835714Y-133799912D01*
X207788095Y-133752293D01*
X207740476Y-133657055D01*
X207740476Y-133561817D01*
X207788095Y-133466579D01*
X207835714Y-133418960D01*
X207930952Y-133371340D01*
X208169047Y-133371340D01*
X208311904Y-133418960D01*
X208645238Y-133371340D02*
X208883333Y-134371340D01*
X209073809Y-133657055D01*
X209264285Y-134371340D01*
X209502380Y-133371340D01*
X209835714Y-133466579D02*
X209883333Y-133418960D01*
X209978571Y-133371340D01*
X210216666Y-133371340D01*
X210311904Y-133418960D01*
X210359523Y-133466579D01*
X210407142Y-133561817D01*
X210407142Y-133657055D01*
X210359523Y-133799912D01*
X209788095Y-134371340D01*
X210407142Y-134371340D01*
X210788095Y-133466579D02*
X210835714Y-133418960D01*
X210930952Y-133371340D01*
X211169047Y-133371340D01*
X211264285Y-133418960D01*
X211311904Y-133466579D01*
X211359523Y-133561817D01*
X211359523Y-133657055D01*
X211311904Y-133799912D01*
X210740476Y-134371340D01*
X211359523Y-134371340D01*
%TO.C,SW23*%
X207736736Y-153370031D02*
X207879593Y-153417650D01*
X208117688Y-153417650D01*
X208212926Y-153370031D01*
X208260545Y-153322412D01*
X208308164Y-153227174D01*
X208308164Y-153131936D01*
X208260545Y-153036698D01*
X208212926Y-152989079D01*
X208117688Y-152941460D01*
X207927212Y-152893841D01*
X207831974Y-152846222D01*
X207784355Y-152798603D01*
X207736736Y-152703365D01*
X207736736Y-152608127D01*
X207784355Y-152512889D01*
X207831974Y-152465270D01*
X207927212Y-152417650D01*
X208165307Y-152417650D01*
X208308164Y-152465270D01*
X208641498Y-152417650D02*
X208879593Y-153417650D01*
X209070069Y-152703365D01*
X209260545Y-153417650D01*
X209498640Y-152417650D01*
X209831974Y-152512889D02*
X209879593Y-152465270D01*
X209974831Y-152417650D01*
X210212926Y-152417650D01*
X210308164Y-152465270D01*
X210355783Y-152512889D01*
X210403402Y-152608127D01*
X210403402Y-152703365D01*
X210355783Y-152846222D01*
X209784355Y-153417650D01*
X210403402Y-153417650D01*
X210736736Y-152417650D02*
X211355783Y-152417650D01*
X211022450Y-152798603D01*
X211165307Y-152798603D01*
X211260545Y-152846222D01*
X211308164Y-152893841D01*
X211355783Y-152989079D01*
X211355783Y-153227174D01*
X211308164Y-153322412D01*
X211260545Y-153370031D01*
X211165307Y-153417650D01*
X210879593Y-153417650D01*
X210784355Y-153370031D01*
X210736736Y-153322412D01*
%TO.C,SW24*%
X173811183Y-168301717D02*
X173945870Y-168234373D01*
X174114229Y-168066015D01*
X174147900Y-167964999D01*
X174147900Y-167897656D01*
X174114229Y-167796641D01*
X174046885Y-167729297D01*
X173945870Y-167695625D01*
X173878526Y-167695625D01*
X173777511Y-167729297D01*
X173609152Y-167830312D01*
X173508137Y-167863984D01*
X173440794Y-167863984D01*
X173339778Y-167830312D01*
X173272435Y-167762969D01*
X173238763Y-167661954D01*
X173238763Y-167594610D01*
X173272435Y-167493595D01*
X173440794Y-167325236D01*
X173575481Y-167257893D01*
X173777511Y-166988519D02*
X174652977Y-167527267D01*
X174282587Y-166887503D01*
X174922351Y-167257893D01*
X174383603Y-166382427D01*
X174686648Y-166214068D02*
X174686648Y-166146725D01*
X174720320Y-166045710D01*
X174888679Y-165877351D01*
X174989694Y-165843679D01*
X175057038Y-165843679D01*
X175158053Y-165877351D01*
X175225396Y-165944694D01*
X175292740Y-166079381D01*
X175292740Y-166887503D01*
X175730473Y-166449771D01*
X175865160Y-165372275D02*
X176336564Y-165843679D01*
X175427427Y-165271259D02*
X175764144Y-165944694D01*
X176201877Y-165506962D01*
%TO.C,SW25*%
X226790476Y-79554971D02*
X226933333Y-79602590D01*
X227171428Y-79602590D01*
X227266666Y-79554971D01*
X227314285Y-79507352D01*
X227361904Y-79412114D01*
X227361904Y-79316876D01*
X227314285Y-79221638D01*
X227266666Y-79174019D01*
X227171428Y-79126400D01*
X226980952Y-79078781D01*
X226885714Y-79031162D01*
X226838095Y-78983543D01*
X226790476Y-78888305D01*
X226790476Y-78793067D01*
X226838095Y-78697829D01*
X226885714Y-78650210D01*
X226980952Y-78602590D01*
X227219047Y-78602590D01*
X227361904Y-78650210D01*
X227695238Y-78602590D02*
X227933333Y-79602590D01*
X228123809Y-78888305D01*
X228314285Y-79602590D01*
X228552380Y-78602590D01*
X228885714Y-78697829D02*
X228933333Y-78650210D01*
X229028571Y-78602590D01*
X229266666Y-78602590D01*
X229361904Y-78650210D01*
X229409523Y-78697829D01*
X229457142Y-78793067D01*
X229457142Y-78888305D01*
X229409523Y-79031162D01*
X228838095Y-79602590D01*
X229457142Y-79602590D01*
X230361904Y-78602590D02*
X229885714Y-78602590D01*
X229838095Y-79078781D01*
X229885714Y-79031162D01*
X229980952Y-78983543D01*
X230219047Y-78983543D01*
X230314285Y-79031162D01*
X230361904Y-79078781D01*
X230409523Y-79174019D01*
X230409523Y-79412114D01*
X230361904Y-79507352D01*
X230314285Y-79554971D01*
X230219047Y-79602590D01*
X229980952Y-79602590D01*
X229885714Y-79554971D01*
X229838095Y-79507352D01*
%TO.C,SW26*%
X226790476Y-98604971D02*
X226933333Y-98652590D01*
X227171428Y-98652590D01*
X227266666Y-98604971D01*
X227314285Y-98557352D01*
X227361904Y-98462114D01*
X227361904Y-98366876D01*
X227314285Y-98271638D01*
X227266666Y-98224019D01*
X227171428Y-98176400D01*
X226980952Y-98128781D01*
X226885714Y-98081162D01*
X226838095Y-98033543D01*
X226790476Y-97938305D01*
X226790476Y-97843067D01*
X226838095Y-97747829D01*
X226885714Y-97700210D01*
X226980952Y-97652590D01*
X227219047Y-97652590D01*
X227361904Y-97700210D01*
X227695238Y-97652590D02*
X227933333Y-98652590D01*
X228123809Y-97938305D01*
X228314285Y-98652590D01*
X228552380Y-97652590D01*
X228885714Y-97747829D02*
X228933333Y-97700210D01*
X229028571Y-97652590D01*
X229266666Y-97652590D01*
X229361904Y-97700210D01*
X229409523Y-97747829D01*
X229457142Y-97843067D01*
X229457142Y-97938305D01*
X229409523Y-98081162D01*
X228838095Y-98652590D01*
X229457142Y-98652590D01*
X230314285Y-97652590D02*
X230123809Y-97652590D01*
X230028571Y-97700210D01*
X229980952Y-97747829D01*
X229885714Y-97890686D01*
X229838095Y-98081162D01*
X229838095Y-98462114D01*
X229885714Y-98557352D01*
X229933333Y-98604971D01*
X230028571Y-98652590D01*
X230219047Y-98652590D01*
X230314285Y-98604971D01*
X230361904Y-98557352D01*
X230409523Y-98462114D01*
X230409523Y-98224019D01*
X230361904Y-98128781D01*
X230314285Y-98081162D01*
X230219047Y-98033543D01*
X230028571Y-98033543D01*
X229933333Y-98081162D01*
X229885714Y-98128781D01*
X229838095Y-98224019D01*
%TO.C,SW27*%
X226790476Y-117654971D02*
X226933333Y-117702590D01*
X227171428Y-117702590D01*
X227266666Y-117654971D01*
X227314285Y-117607352D01*
X227361904Y-117512114D01*
X227361904Y-117416876D01*
X227314285Y-117321638D01*
X227266666Y-117274019D01*
X227171428Y-117226400D01*
X226980952Y-117178781D01*
X226885714Y-117131162D01*
X226838095Y-117083543D01*
X226790476Y-116988305D01*
X226790476Y-116893067D01*
X226838095Y-116797829D01*
X226885714Y-116750210D01*
X226980952Y-116702590D01*
X227219047Y-116702590D01*
X227361904Y-116750210D01*
X227695238Y-116702590D02*
X227933333Y-117702590D01*
X228123809Y-116988305D01*
X228314285Y-117702590D01*
X228552380Y-116702590D01*
X228885714Y-116797829D02*
X228933333Y-116750210D01*
X229028571Y-116702590D01*
X229266666Y-116702590D01*
X229361904Y-116750210D01*
X229409523Y-116797829D01*
X229457142Y-116893067D01*
X229457142Y-116988305D01*
X229409523Y-117131162D01*
X228838095Y-117702590D01*
X229457142Y-117702590D01*
X229790476Y-116702590D02*
X230457142Y-116702590D01*
X230028571Y-117702590D01*
%TO.C,SW28*%
X226790476Y-136704971D02*
X226933333Y-136752590D01*
X227171428Y-136752590D01*
X227266666Y-136704971D01*
X227314285Y-136657352D01*
X227361904Y-136562114D01*
X227361904Y-136466876D01*
X227314285Y-136371638D01*
X227266666Y-136324019D01*
X227171428Y-136276400D01*
X226980952Y-136228781D01*
X226885714Y-136181162D01*
X226838095Y-136133543D01*
X226790476Y-136038305D01*
X226790476Y-135943067D01*
X226838095Y-135847829D01*
X226885714Y-135800210D01*
X226980952Y-135752590D01*
X227219047Y-135752590D01*
X227361904Y-135800210D01*
X227695238Y-135752590D02*
X227933333Y-136752590D01*
X228123809Y-136038305D01*
X228314285Y-136752590D01*
X228552380Y-135752590D01*
X228885714Y-135847829D02*
X228933333Y-135800210D01*
X229028571Y-135752590D01*
X229266666Y-135752590D01*
X229361904Y-135800210D01*
X229409523Y-135847829D01*
X229457142Y-135943067D01*
X229457142Y-136038305D01*
X229409523Y-136181162D01*
X228838095Y-136752590D01*
X229457142Y-136752590D01*
X230028571Y-136181162D02*
X229933333Y-136133543D01*
X229885714Y-136085924D01*
X229838095Y-135990686D01*
X229838095Y-135943067D01*
X229885714Y-135847829D01*
X229933333Y-135800210D01*
X230028571Y-135752590D01*
X230219047Y-135752590D01*
X230314285Y-135800210D01*
X230361904Y-135847829D01*
X230409523Y-135943067D01*
X230409523Y-135990686D01*
X230361904Y-136085924D01*
X230314285Y-136133543D01*
X230219047Y-136181162D01*
X230028571Y-136181162D01*
X229933333Y-136228781D01*
X229885714Y-136276400D01*
X229838095Y-136371638D01*
X229838095Y-136562114D01*
X229885714Y-136657352D01*
X229933333Y-136704971D01*
X230028571Y-136752590D01*
X230219047Y-136752590D01*
X230314285Y-136704971D01*
X230361904Y-136657352D01*
X230409523Y-136562114D01*
X230409523Y-136371638D01*
X230361904Y-136276400D01*
X230314285Y-136228781D01*
X230219047Y-136181162D01*
%TO.C,SW29*%
X226790476Y-155754971D02*
X226933333Y-155802590D01*
X227171428Y-155802590D01*
X227266666Y-155754971D01*
X227314285Y-155707352D01*
X227361904Y-155612114D01*
X227361904Y-155516876D01*
X227314285Y-155421638D01*
X227266666Y-155374019D01*
X227171428Y-155326400D01*
X226980952Y-155278781D01*
X226885714Y-155231162D01*
X226838095Y-155183543D01*
X226790476Y-155088305D01*
X226790476Y-154993067D01*
X226838095Y-154897829D01*
X226885714Y-154850210D01*
X226980952Y-154802590D01*
X227219047Y-154802590D01*
X227361904Y-154850210D01*
X227695238Y-154802590D02*
X227933333Y-155802590D01*
X228123809Y-155088305D01*
X228314285Y-155802590D01*
X228552380Y-154802590D01*
X228885714Y-154897829D02*
X228933333Y-154850210D01*
X229028571Y-154802590D01*
X229266666Y-154802590D01*
X229361904Y-154850210D01*
X229409523Y-154897829D01*
X229457142Y-154993067D01*
X229457142Y-155088305D01*
X229409523Y-155231162D01*
X228838095Y-155802590D01*
X229457142Y-155802590D01*
X229933333Y-155802590D02*
X230123809Y-155802590D01*
X230219047Y-155754971D01*
X230266666Y-155707352D01*
X230361904Y-155564495D01*
X230409523Y-155374019D01*
X230409523Y-154993067D01*
X230361904Y-154897829D01*
X230314285Y-154850210D01*
X230219047Y-154802590D01*
X230028571Y-154802590D01*
X229933333Y-154850210D01*
X229885714Y-154897829D01*
X229838095Y-154993067D01*
X229838095Y-155231162D01*
X229885714Y-155326400D01*
X229933333Y-155374019D01*
X230028571Y-155421638D01*
X230219047Y-155421638D01*
X230314285Y-155374019D01*
X230361904Y-155326400D01*
X230409523Y-155231162D01*
%TO.C,SW30*%
X264890476Y-158136221D02*
X265033333Y-158183840D01*
X265271428Y-158183840D01*
X265366666Y-158136221D01*
X265414285Y-158088602D01*
X265461904Y-157993364D01*
X265461904Y-157898126D01*
X265414285Y-157802888D01*
X265366666Y-157755269D01*
X265271428Y-157707650D01*
X265080952Y-157660031D01*
X264985714Y-157612412D01*
X264938095Y-157564793D01*
X264890476Y-157469555D01*
X264890476Y-157374317D01*
X264938095Y-157279079D01*
X264985714Y-157231460D01*
X265080952Y-157183840D01*
X265319047Y-157183840D01*
X265461904Y-157231460D01*
X265795238Y-157183840D02*
X266033333Y-158183840D01*
X266223809Y-157469555D01*
X266414285Y-158183840D01*
X266652380Y-157183840D01*
X266938095Y-157183840D02*
X267557142Y-157183840D01*
X267223809Y-157564793D01*
X267366666Y-157564793D01*
X267461904Y-157612412D01*
X267509523Y-157660031D01*
X267557142Y-157755269D01*
X267557142Y-157993364D01*
X267509523Y-158088602D01*
X267461904Y-158136221D01*
X267366666Y-158183840D01*
X267080952Y-158183840D01*
X266985714Y-158136221D01*
X266938095Y-158088602D01*
X268176190Y-157183840D02*
X268271428Y-157183840D01*
X268366666Y-157231460D01*
X268414285Y-157279079D01*
X268461904Y-157374317D01*
X268509523Y-157564793D01*
X268509523Y-157802888D01*
X268461904Y-157993364D01*
X268414285Y-158088602D01*
X268366666Y-158136221D01*
X268271428Y-158183840D01*
X268176190Y-158183840D01*
X268080952Y-158136221D01*
X268033333Y-158088602D01*
X267985714Y-157993364D01*
X267938095Y-157802888D01*
X267938095Y-157564793D01*
X267985714Y-157374317D01*
X268033333Y-157279079D01*
X268080952Y-157231460D01*
X268176190Y-157183840D01*
%TO.C,SW31*%
X245840476Y-81936221D02*
X245983333Y-81983840D01*
X246221428Y-81983840D01*
X246316666Y-81936221D01*
X246364285Y-81888602D01*
X246411904Y-81793364D01*
X246411904Y-81698126D01*
X246364285Y-81602888D01*
X246316666Y-81555269D01*
X246221428Y-81507650D01*
X246030952Y-81460031D01*
X245935714Y-81412412D01*
X245888095Y-81364793D01*
X245840476Y-81269555D01*
X245840476Y-81174317D01*
X245888095Y-81079079D01*
X245935714Y-81031460D01*
X246030952Y-80983840D01*
X246269047Y-80983840D01*
X246411904Y-81031460D01*
X246745238Y-80983840D02*
X246983333Y-81983840D01*
X247173809Y-81269555D01*
X247364285Y-81983840D01*
X247602380Y-80983840D01*
X247888095Y-80983840D02*
X248507142Y-80983840D01*
X248173809Y-81364793D01*
X248316666Y-81364793D01*
X248411904Y-81412412D01*
X248459523Y-81460031D01*
X248507142Y-81555269D01*
X248507142Y-81793364D01*
X248459523Y-81888602D01*
X248411904Y-81936221D01*
X248316666Y-81983840D01*
X248030952Y-81983840D01*
X247935714Y-81936221D01*
X247888095Y-81888602D01*
X249459523Y-81983840D02*
X248888095Y-81983840D01*
X249173809Y-81983840D02*
X249173809Y-80983840D01*
X249078571Y-81126698D01*
X248983333Y-81221936D01*
X248888095Y-81269555D01*
%TO.C,SW32*%
X245840476Y-100986221D02*
X245983333Y-101033840D01*
X246221428Y-101033840D01*
X246316666Y-100986221D01*
X246364285Y-100938602D01*
X246411904Y-100843364D01*
X246411904Y-100748126D01*
X246364285Y-100652888D01*
X246316666Y-100605269D01*
X246221428Y-100557650D01*
X246030952Y-100510031D01*
X245935714Y-100462412D01*
X245888095Y-100414793D01*
X245840476Y-100319555D01*
X245840476Y-100224317D01*
X245888095Y-100129079D01*
X245935714Y-100081460D01*
X246030952Y-100033840D01*
X246269047Y-100033840D01*
X246411904Y-100081460D01*
X246745238Y-100033840D02*
X246983333Y-101033840D01*
X247173809Y-100319555D01*
X247364285Y-101033840D01*
X247602380Y-100033840D01*
X247888095Y-100033840D02*
X248507142Y-100033840D01*
X248173809Y-100414793D01*
X248316666Y-100414793D01*
X248411904Y-100462412D01*
X248459523Y-100510031D01*
X248507142Y-100605269D01*
X248507142Y-100843364D01*
X248459523Y-100938602D01*
X248411904Y-100986221D01*
X248316666Y-101033840D01*
X248030952Y-101033840D01*
X247935714Y-100986221D01*
X247888095Y-100938602D01*
X248888095Y-100129079D02*
X248935714Y-100081460D01*
X249030952Y-100033840D01*
X249269047Y-100033840D01*
X249364285Y-100081460D01*
X249411904Y-100129079D01*
X249459523Y-100224317D01*
X249459523Y-100319555D01*
X249411904Y-100462412D01*
X248840476Y-101033840D01*
X249459523Y-101033840D01*
%TO.C,SW33*%
X245840476Y-120036221D02*
X245983333Y-120083840D01*
X246221428Y-120083840D01*
X246316666Y-120036221D01*
X246364285Y-119988602D01*
X246411904Y-119893364D01*
X246411904Y-119798126D01*
X246364285Y-119702888D01*
X246316666Y-119655269D01*
X246221428Y-119607650D01*
X246030952Y-119560031D01*
X245935714Y-119512412D01*
X245888095Y-119464793D01*
X245840476Y-119369555D01*
X245840476Y-119274317D01*
X245888095Y-119179079D01*
X245935714Y-119131460D01*
X246030952Y-119083840D01*
X246269047Y-119083840D01*
X246411904Y-119131460D01*
X246745238Y-119083840D02*
X246983333Y-120083840D01*
X247173809Y-119369555D01*
X247364285Y-120083840D01*
X247602380Y-119083840D01*
X247888095Y-119083840D02*
X248507142Y-119083840D01*
X248173809Y-119464793D01*
X248316666Y-119464793D01*
X248411904Y-119512412D01*
X248459523Y-119560031D01*
X248507142Y-119655269D01*
X248507142Y-119893364D01*
X248459523Y-119988602D01*
X248411904Y-120036221D01*
X248316666Y-120083840D01*
X248030952Y-120083840D01*
X247935714Y-120036221D01*
X247888095Y-119988602D01*
X248840476Y-119083840D02*
X249459523Y-119083840D01*
X249126190Y-119464793D01*
X249269047Y-119464793D01*
X249364285Y-119512412D01*
X249411904Y-119560031D01*
X249459523Y-119655269D01*
X249459523Y-119893364D01*
X249411904Y-119988602D01*
X249364285Y-120036221D01*
X249269047Y-120083840D01*
X248983333Y-120083840D01*
X248888095Y-120036221D01*
X248840476Y-119988602D01*
%TO.C,SW34*%
X245836736Y-139082531D02*
X245979593Y-139130150D01*
X246217688Y-139130150D01*
X246312926Y-139082531D01*
X246360545Y-139034912D01*
X246408164Y-138939674D01*
X246408164Y-138844436D01*
X246360545Y-138749198D01*
X246312926Y-138701579D01*
X246217688Y-138653960D01*
X246027212Y-138606341D01*
X245931974Y-138558722D01*
X245884355Y-138511103D01*
X245836736Y-138415865D01*
X245836736Y-138320627D01*
X245884355Y-138225389D01*
X245931974Y-138177770D01*
X246027212Y-138130150D01*
X246265307Y-138130150D01*
X246408164Y-138177770D01*
X246741498Y-138130150D02*
X246979593Y-139130150D01*
X247170069Y-138415865D01*
X247360545Y-139130150D01*
X247598640Y-138130150D01*
X247884355Y-138130150D02*
X248503402Y-138130150D01*
X248170069Y-138511103D01*
X248312926Y-138511103D01*
X248408164Y-138558722D01*
X248455783Y-138606341D01*
X248503402Y-138701579D01*
X248503402Y-138939674D01*
X248455783Y-139034912D01*
X248408164Y-139082531D01*
X248312926Y-139130150D01*
X248027212Y-139130150D01*
X247931974Y-139082531D01*
X247884355Y-139034912D01*
X249360545Y-138463484D02*
X249360545Y-139130150D01*
X249122450Y-138082531D02*
X248884355Y-138796817D01*
X249503402Y-138796817D01*
%TO.C,SW36*%
X150590476Y-105748721D02*
X150733333Y-105796340D01*
X150971428Y-105796340D01*
X151066666Y-105748721D01*
X151114285Y-105701102D01*
X151161904Y-105605864D01*
X151161904Y-105510626D01*
X151114285Y-105415388D01*
X151066666Y-105367769D01*
X150971428Y-105320150D01*
X150780952Y-105272531D01*
X150685714Y-105224912D01*
X150638095Y-105177293D01*
X150590476Y-105082055D01*
X150590476Y-104986817D01*
X150638095Y-104891579D01*
X150685714Y-104843960D01*
X150780952Y-104796340D01*
X151019047Y-104796340D01*
X151161904Y-104843960D01*
X151495238Y-104796340D02*
X151733333Y-105796340D01*
X151923809Y-105082055D01*
X152114285Y-105796340D01*
X152352380Y-104796340D01*
X152638095Y-104796340D02*
X153257142Y-104796340D01*
X152923809Y-105177293D01*
X153066666Y-105177293D01*
X153161904Y-105224912D01*
X153209523Y-105272531D01*
X153257142Y-105367769D01*
X153257142Y-105605864D01*
X153209523Y-105701102D01*
X153161904Y-105748721D01*
X153066666Y-105796340D01*
X152780952Y-105796340D01*
X152685714Y-105748721D01*
X152638095Y-105701102D01*
X154114285Y-104796340D02*
X153923809Y-104796340D01*
X153828571Y-104843960D01*
X153780952Y-104891579D01*
X153685714Y-105034436D01*
X153638095Y-105224912D01*
X153638095Y-105605864D01*
X153685714Y-105701102D01*
X153733333Y-105748721D01*
X153828571Y-105796340D01*
X154019047Y-105796340D01*
X154114285Y-105748721D01*
X154161904Y-105701102D01*
X154209523Y-105605864D01*
X154209523Y-105367769D01*
X154161904Y-105272531D01*
X154114285Y-105224912D01*
X154019047Y-105177293D01*
X153828571Y-105177293D01*
X153733333Y-105224912D01*
X153685714Y-105272531D01*
X153638095Y-105367769D01*
%TO.C,SW37*%
X150590476Y-134323721D02*
X150733333Y-134371340D01*
X150971428Y-134371340D01*
X151066666Y-134323721D01*
X151114285Y-134276102D01*
X151161904Y-134180864D01*
X151161904Y-134085626D01*
X151114285Y-133990388D01*
X151066666Y-133942769D01*
X150971428Y-133895150D01*
X150780952Y-133847531D01*
X150685714Y-133799912D01*
X150638095Y-133752293D01*
X150590476Y-133657055D01*
X150590476Y-133561817D01*
X150638095Y-133466579D01*
X150685714Y-133418960D01*
X150780952Y-133371340D01*
X151019047Y-133371340D01*
X151161904Y-133418960D01*
X151495238Y-133371340D02*
X151733333Y-134371340D01*
X151923809Y-133657055D01*
X152114285Y-134371340D01*
X152352380Y-133371340D01*
X152638095Y-133371340D02*
X153257142Y-133371340D01*
X152923809Y-133752293D01*
X153066666Y-133752293D01*
X153161904Y-133799912D01*
X153209523Y-133847531D01*
X153257142Y-133942769D01*
X153257142Y-134180864D01*
X153209523Y-134276102D01*
X153161904Y-134323721D01*
X153066666Y-134371340D01*
X152780952Y-134371340D01*
X152685714Y-134323721D01*
X152638095Y-134276102D01*
X153590476Y-133371340D02*
X154257142Y-133371340D01*
X153828571Y-134371340D01*
%TO.C,SW39*%
X150590476Y-81936221D02*
X150733333Y-81983840D01*
X150971428Y-81983840D01*
X151066666Y-81936221D01*
X151114285Y-81888602D01*
X151161904Y-81793364D01*
X151161904Y-81698126D01*
X151114285Y-81602888D01*
X151066666Y-81555269D01*
X150971428Y-81507650D01*
X150780952Y-81460031D01*
X150685714Y-81412412D01*
X150638095Y-81364793D01*
X150590476Y-81269555D01*
X150590476Y-81174317D01*
X150638095Y-81079079D01*
X150685714Y-81031460D01*
X150780952Y-80983840D01*
X151019047Y-80983840D01*
X151161904Y-81031460D01*
X151495238Y-80983840D02*
X151733333Y-81983840D01*
X151923809Y-81269555D01*
X152114285Y-81983840D01*
X152352380Y-80983840D01*
X152638095Y-80983840D02*
X153257142Y-80983840D01*
X152923809Y-81364793D01*
X153066666Y-81364793D01*
X153161904Y-81412412D01*
X153209523Y-81460031D01*
X153257142Y-81555269D01*
X153257142Y-81793364D01*
X153209523Y-81888602D01*
X153161904Y-81936221D01*
X153066666Y-81983840D01*
X152780952Y-81983840D01*
X152685714Y-81936221D01*
X152638095Y-81888602D01*
X153733333Y-81983840D02*
X153923809Y-81983840D01*
X154019047Y-81936221D01*
X154066666Y-81888602D01*
X154161904Y-81745745D01*
X154209523Y-81555269D01*
X154209523Y-81174317D01*
X154161904Y-81079079D01*
X154114285Y-81031460D01*
X154019047Y-80983840D01*
X153828571Y-80983840D01*
X153733333Y-81031460D01*
X153685714Y-81079079D01*
X153638095Y-81174317D01*
X153638095Y-81412412D01*
X153685714Y-81507650D01*
X153733333Y-81555269D01*
X153828571Y-81602888D01*
X154019047Y-81602888D01*
X154114285Y-81555269D01*
X154161904Y-81507650D01*
X154209523Y-81412412D01*
%TO.C,SW40*%
X187364596Y-45113841D02*
X187507453Y-45161460D01*
X187745548Y-45161460D01*
X187840786Y-45113841D01*
X187888405Y-45066222D01*
X187936024Y-44970984D01*
X187936024Y-44875746D01*
X187888405Y-44780508D01*
X187840786Y-44732889D01*
X187745548Y-44685270D01*
X187555072Y-44637651D01*
X187459834Y-44590032D01*
X187412215Y-44542413D01*
X187364596Y-44447175D01*
X187364596Y-44351937D01*
X187412215Y-44256699D01*
X187459834Y-44209080D01*
X187555072Y-44161460D01*
X187793167Y-44161460D01*
X187936024Y-44209080D01*
X188269358Y-44161460D02*
X188507453Y-45161460D01*
X188697929Y-44447175D01*
X188888405Y-45161460D01*
X189126500Y-44161460D01*
X189936024Y-44494794D02*
X189936024Y-45161460D01*
X189697929Y-44113841D02*
X189459834Y-44828127D01*
X190078881Y-44828127D01*
X190650310Y-44161460D02*
X190745548Y-44161460D01*
X190840786Y-44209080D01*
X190888405Y-44256699D01*
X190936024Y-44351937D01*
X190983643Y-44542413D01*
X190983643Y-44780508D01*
X190936024Y-44970984D01*
X190888405Y-45066222D01*
X190840786Y-45113841D01*
X190745548Y-45161460D01*
X190650310Y-45161460D01*
X190555072Y-45113841D01*
X190507453Y-45066222D01*
X190459834Y-44970984D01*
X190412215Y-44780508D01*
X190412215Y-44542413D01*
X190459834Y-44351937D01*
X190507453Y-44256699D01*
X190555072Y-44209080D01*
X190650310Y-44161460D01*
%TO.C,U2*%
X219947346Y-49991402D02*
X220519766Y-50563822D01*
X220620781Y-50597494D01*
X220688125Y-50597494D01*
X220789140Y-50563822D01*
X220923827Y-50429135D01*
X220957499Y-50328120D01*
X220957499Y-50260776D01*
X220923827Y-50159761D01*
X220351407Y-49587341D01*
X220721797Y-49351639D02*
X220721797Y-49284296D01*
X220755468Y-49183280D01*
X220923827Y-49014922D01*
X221024842Y-48981250D01*
X221092186Y-48981250D01*
X221193201Y-49014922D01*
X221260545Y-49082265D01*
X221327888Y-49216952D01*
X221327888Y-50025074D01*
X221765621Y-49587341D01*
%TO.C,U9*%
X205862015Y-54240180D02*
X205862015Y-55049704D01*
X205909634Y-55144942D01*
X205957253Y-55192561D01*
X206052491Y-55240180D01*
X206242967Y-55240180D01*
X206338205Y-55192561D01*
X206385824Y-55144942D01*
X206433443Y-55049704D01*
X206433443Y-54240180D01*
X206957253Y-55240180D02*
X207147729Y-55240180D01*
X207242967Y-55192561D01*
X207290586Y-55144942D01*
X207385824Y-55002085D01*
X207433443Y-54811609D01*
X207433443Y-54430657D01*
X207385824Y-54335419D01*
X207338205Y-54287800D01*
X207242967Y-54240180D01*
X207052491Y-54240180D01*
X206957253Y-54287800D01*
X206909634Y-54335419D01*
X206862015Y-54430657D01*
X206862015Y-54668752D01*
X206909634Y-54763990D01*
X206957253Y-54811609D01*
X207052491Y-54859228D01*
X207242967Y-54859228D01*
X207338205Y-54811609D01*
X207385824Y-54763990D01*
X207433443Y-54668752D01*
%TD*%
M02*
