%TF.GenerationSoftware,KiCad,Pcbnew,(5.1.8)-1*%
%TF.CreationDate,2022-07-09T18:06:19+10:00*%
%TF.ProjectId,ergonomic_split_right,6572676f-6e6f-46d6-9963-5f73706c6974,rev?*%
%TF.SameCoordinates,Original*%
%TF.FileFunction,Paste,Top*%
%TF.FilePolarity,Positive*%
%FSLAX46Y46*%
G04 Gerber Fmt 4.6, Leading zero omitted, Abs format (unit mm)*
G04 Created by KiCad (PCBNEW (5.1.8)-1) date 2022-07-09 18:06:19*
%MOMM*%
%LPD*%
G01*
G04 APERTURE LIST*
%ADD10R,1.000000X0.700000*%
G04 APERTURE END LIST*
%TO.C,C8*%
G36*
G01*
X162970400Y-59115840D02*
X163470400Y-59115840D01*
G75*
G02*
X163695400Y-59340840I0J-225000D01*
G01*
X163695400Y-59790840D01*
G75*
G02*
X163470400Y-60015840I-225000J0D01*
G01*
X162970400Y-60015840D01*
G75*
G02*
X162745400Y-59790840I0J225000D01*
G01*
X162745400Y-59340840D01*
G75*
G02*
X162970400Y-59115840I225000J0D01*
G01*
G37*
G36*
G01*
X162970400Y-57565840D02*
X163470400Y-57565840D01*
G75*
G02*
X163695400Y-57790840I0J-225000D01*
G01*
X163695400Y-58240840D01*
G75*
G02*
X163470400Y-58465840I-225000J0D01*
G01*
X162970400Y-58465840D01*
G75*
G02*
X162745400Y-58240840I0J225000D01*
G01*
X162745400Y-57790840D01*
G75*
G02*
X162970400Y-57565840I225000J0D01*
G01*
G37*
%TD*%
%TO.C,C3*%
G36*
G01*
X160955332Y-59115840D02*
X161455332Y-59115840D01*
G75*
G02*
X161680332Y-59340840I0J-225000D01*
G01*
X161680332Y-59790840D01*
G75*
G02*
X161455332Y-60015840I-225000J0D01*
G01*
X160955332Y-60015840D01*
G75*
G02*
X160730332Y-59790840I0J225000D01*
G01*
X160730332Y-59340840D01*
G75*
G02*
X160955332Y-59115840I225000J0D01*
G01*
G37*
G36*
G01*
X160955332Y-57565840D02*
X161455332Y-57565840D01*
G75*
G02*
X161680332Y-57790840I0J-225000D01*
G01*
X161680332Y-58240840D01*
G75*
G02*
X161455332Y-58465840I-225000J0D01*
G01*
X160955332Y-58465840D01*
G75*
G02*
X160730332Y-58240840I0J225000D01*
G01*
X160730332Y-57790840D01*
G75*
G02*
X160955332Y-57565840I225000J0D01*
G01*
G37*
%TD*%
%TO.C,C2*%
G36*
G01*
X158940266Y-59115840D02*
X159440266Y-59115840D01*
G75*
G02*
X159665266Y-59340840I0J-225000D01*
G01*
X159665266Y-59790840D01*
G75*
G02*
X159440266Y-60015840I-225000J0D01*
G01*
X158940266Y-60015840D01*
G75*
G02*
X158715266Y-59790840I0J225000D01*
G01*
X158715266Y-59340840D01*
G75*
G02*
X158940266Y-59115840I225000J0D01*
G01*
G37*
G36*
G01*
X158940266Y-57565840D02*
X159440266Y-57565840D01*
G75*
G02*
X159665266Y-57790840I0J-225000D01*
G01*
X159665266Y-58240840D01*
G75*
G02*
X159440266Y-58465840I-225000J0D01*
G01*
X158940266Y-58465840D01*
G75*
G02*
X158715266Y-58240840I0J225000D01*
G01*
X158715266Y-57790840D01*
G75*
G02*
X158940266Y-57565840I225000J0D01*
G01*
G37*
%TD*%
%TO.C,C1*%
G36*
G01*
X156925200Y-59115840D02*
X157425200Y-59115840D01*
G75*
G02*
X157650200Y-59340840I0J-225000D01*
G01*
X157650200Y-59790840D01*
G75*
G02*
X157425200Y-60015840I-225000J0D01*
G01*
X156925200Y-60015840D01*
G75*
G02*
X156700200Y-59790840I0J225000D01*
G01*
X156700200Y-59340840D01*
G75*
G02*
X156925200Y-59115840I225000J0D01*
G01*
G37*
G36*
G01*
X156925200Y-57565840D02*
X157425200Y-57565840D01*
G75*
G02*
X157650200Y-57790840I0J-225000D01*
G01*
X157650200Y-58240840D01*
G75*
G02*
X157425200Y-58465840I-225000J0D01*
G01*
X156925200Y-58465840D01*
G75*
G02*
X156700200Y-58240840I0J225000D01*
G01*
X156700200Y-57790840D01*
G75*
G02*
X156925200Y-57565840I225000J0D01*
G01*
G37*
%TD*%
%TO.C,C5*%
G36*
G01*
X205160160Y-49947640D02*
X205160160Y-49447640D01*
G75*
G02*
X205385160Y-49222640I225000J0D01*
G01*
X205835160Y-49222640D01*
G75*
G02*
X206060160Y-49447640I0J-225000D01*
G01*
X206060160Y-49947640D01*
G75*
G02*
X205835160Y-50172640I-225000J0D01*
G01*
X205385160Y-50172640D01*
G75*
G02*
X205160160Y-49947640I0J225000D01*
G01*
G37*
G36*
G01*
X206710160Y-49947640D02*
X206710160Y-49447640D01*
G75*
G02*
X206935160Y-49222640I225000J0D01*
G01*
X207385160Y-49222640D01*
G75*
G02*
X207610160Y-49447640I0J-225000D01*
G01*
X207610160Y-49947640D01*
G75*
G02*
X207385160Y-50172640I-225000J0D01*
G01*
X206935160Y-50172640D01*
G75*
G02*
X206710160Y-49947640I0J225000D01*
G01*
G37*
%TD*%
%TO.C,C7*%
G36*
G01*
X219834280Y-47756000D02*
X219834280Y-48256000D01*
G75*
G02*
X219609280Y-48481000I-225000J0D01*
G01*
X219159280Y-48481000D01*
G75*
G02*
X218934280Y-48256000I0J225000D01*
G01*
X218934280Y-47756000D01*
G75*
G02*
X219159280Y-47531000I225000J0D01*
G01*
X219609280Y-47531000D01*
G75*
G02*
X219834280Y-47756000I0J-225000D01*
G01*
G37*
G36*
G01*
X221384280Y-47756000D02*
X221384280Y-48256000D01*
G75*
G02*
X221159280Y-48481000I-225000J0D01*
G01*
X220709280Y-48481000D01*
G75*
G02*
X220484280Y-48256000I0J225000D01*
G01*
X220484280Y-47756000D01*
G75*
G02*
X220709280Y-47531000I225000J0D01*
G01*
X221159280Y-47531000D01*
G75*
G02*
X221384280Y-47756000I0J-225000D01*
G01*
G37*
%TD*%
%TO.C,C120*%
G36*
G01*
X209081560Y-52664240D02*
X209581560Y-52664240D01*
G75*
G02*
X209806560Y-52889240I0J-225000D01*
G01*
X209806560Y-53339240D01*
G75*
G02*
X209581560Y-53564240I-225000J0D01*
G01*
X209081560Y-53564240D01*
G75*
G02*
X208856560Y-53339240I0J225000D01*
G01*
X208856560Y-52889240D01*
G75*
G02*
X209081560Y-52664240I225000J0D01*
G01*
G37*
G36*
G01*
X209081560Y-51114240D02*
X209581560Y-51114240D01*
G75*
G02*
X209806560Y-51339240I0J-225000D01*
G01*
X209806560Y-51789240D01*
G75*
G02*
X209581560Y-52014240I-225000J0D01*
G01*
X209081560Y-52014240D01*
G75*
G02*
X208856560Y-51789240I0J225000D01*
G01*
X208856560Y-51339240D01*
G75*
G02*
X209081560Y-51114240I225000J0D01*
G01*
G37*
%TD*%
%TO.C,R11*%
G36*
G01*
X226690600Y-46145400D02*
X226140600Y-46145400D01*
G75*
G02*
X225940600Y-45945400I0J200000D01*
G01*
X225940600Y-45545400D01*
G75*
G02*
X226140600Y-45345400I200000J0D01*
G01*
X226690600Y-45345400D01*
G75*
G02*
X226890600Y-45545400I0J-200000D01*
G01*
X226890600Y-45945400D01*
G75*
G02*
X226690600Y-46145400I-200000J0D01*
G01*
G37*
G36*
G01*
X226690600Y-44495400D02*
X226140600Y-44495400D01*
G75*
G02*
X225940600Y-44295400I0J200000D01*
G01*
X225940600Y-43895400D01*
G75*
G02*
X226140600Y-43695400I200000J0D01*
G01*
X226690600Y-43695400D01*
G75*
G02*
X226890600Y-43895400I0J-200000D01*
G01*
X226890600Y-44295400D01*
G75*
G02*
X226690600Y-44495400I-200000J0D01*
G01*
G37*
%TD*%
%TO.C,R12*%
G36*
G01*
X219436400Y-49890000D02*
X219436400Y-50440000D01*
G75*
G02*
X219236400Y-50640000I-200000J0D01*
G01*
X218836400Y-50640000D01*
G75*
G02*
X218636400Y-50440000I0J200000D01*
G01*
X218636400Y-49890000D01*
G75*
G02*
X218836400Y-49690000I200000J0D01*
G01*
X219236400Y-49690000D01*
G75*
G02*
X219436400Y-49890000I0J-200000D01*
G01*
G37*
G36*
G01*
X217786400Y-49890000D02*
X217786400Y-50440000D01*
G75*
G02*
X217586400Y-50640000I-200000J0D01*
G01*
X217186400Y-50640000D01*
G75*
G02*
X216986400Y-50440000I0J200000D01*
G01*
X216986400Y-49890000D01*
G75*
G02*
X217186400Y-49690000I200000J0D01*
G01*
X217586400Y-49690000D01*
G75*
G02*
X217786400Y-49890000I0J-200000D01*
G01*
G37*
%TD*%
%TO.C,R13*%
G36*
G01*
X217786701Y-51484331D02*
X217786701Y-52034331D01*
G75*
G02*
X217586701Y-52234331I-200000J0D01*
G01*
X217186701Y-52234331D01*
G75*
G02*
X216986701Y-52034331I0J200000D01*
G01*
X216986701Y-51484331D01*
G75*
G02*
X217186701Y-51284331I200000J0D01*
G01*
X217586701Y-51284331D01*
G75*
G02*
X217786701Y-51484331I0J-200000D01*
G01*
G37*
G36*
G01*
X219436701Y-51484331D02*
X219436701Y-52034331D01*
G75*
G02*
X219236701Y-52234331I-200000J0D01*
G01*
X218836701Y-52234331D01*
G75*
G02*
X218636701Y-52034331I0J200000D01*
G01*
X218636701Y-51484331D01*
G75*
G02*
X218836701Y-51284331I200000J0D01*
G01*
X219236701Y-51284331D01*
G75*
G02*
X219436701Y-51484331I0J-200000D01*
G01*
G37*
%TD*%
%TO.C,U2*%
G36*
G01*
X223222177Y-50982731D02*
X222755487Y-51449421D01*
G75*
G02*
X222585781Y-51449421I-84853J84853D01*
G01*
X222585781Y-51449421D01*
G75*
G02*
X222585781Y-51279715I84853J84853D01*
G01*
X223052471Y-50813025D01*
G75*
G02*
X223222177Y-50813025I84853J-84853D01*
G01*
X223222177Y-50813025D01*
G75*
G02*
X223222177Y-50982731I-84853J-84853D01*
G01*
G37*
G36*
G01*
X223575730Y-51336285D02*
X223109040Y-51802975D01*
G75*
G02*
X222939334Y-51802975I-84853J84853D01*
G01*
X222939334Y-51802975D01*
G75*
G02*
X222939334Y-51633269I84853J84853D01*
G01*
X223406024Y-51166579D01*
G75*
G02*
X223575730Y-51166579I84853J-84853D01*
G01*
X223575730Y-51166579D01*
G75*
G02*
X223575730Y-51336285I-84853J-84853D01*
G01*
G37*
G36*
G01*
X223929283Y-51689838D02*
X223462593Y-52156528D01*
G75*
G02*
X223292887Y-52156528I-84853J84853D01*
G01*
X223292887Y-52156528D01*
G75*
G02*
X223292887Y-51986822I84853J84853D01*
G01*
X223759577Y-51520132D01*
G75*
G02*
X223929283Y-51520132I84853J-84853D01*
G01*
X223929283Y-51520132D01*
G75*
G02*
X223929283Y-51689838I-84853J-84853D01*
G01*
G37*
G36*
G01*
X224282837Y-52043392D02*
X223816147Y-52510082D01*
G75*
G02*
X223646441Y-52510082I-84853J84853D01*
G01*
X223646441Y-52510082D01*
G75*
G02*
X223646441Y-52340376I84853J84853D01*
G01*
X224113131Y-51873686D01*
G75*
G02*
X224282837Y-51873686I84853J-84853D01*
G01*
X224282837Y-51873686D01*
G75*
G02*
X224282837Y-52043392I-84853J-84853D01*
G01*
G37*
G36*
G01*
X224636390Y-52396945D02*
X224169700Y-52863635D01*
G75*
G02*
X223999994Y-52863635I-84853J84853D01*
G01*
X223999994Y-52863635D01*
G75*
G02*
X223999994Y-52693929I84853J84853D01*
G01*
X224466684Y-52227239D01*
G75*
G02*
X224636390Y-52227239I84853J-84853D01*
G01*
X224636390Y-52227239D01*
G75*
G02*
X224636390Y-52396945I-84853J-84853D01*
G01*
G37*
G36*
G01*
X224989944Y-52750498D02*
X224523254Y-53217188D01*
G75*
G02*
X224353548Y-53217188I-84853J84853D01*
G01*
X224353548Y-53217188D01*
G75*
G02*
X224353548Y-53047482I84853J84853D01*
G01*
X224820238Y-52580792D01*
G75*
G02*
X224989944Y-52580792I84853J-84853D01*
G01*
X224989944Y-52580792D01*
G75*
G02*
X224989944Y-52750498I-84853J-84853D01*
G01*
G37*
G36*
G01*
X225951608Y-53217188D02*
X225484918Y-52750498D01*
G75*
G02*
X225484918Y-52580792I84853J84853D01*
G01*
X225484918Y-52580792D01*
G75*
G02*
X225654624Y-52580792I84853J-84853D01*
G01*
X226121314Y-53047482D01*
G75*
G02*
X226121314Y-53217188I-84853J-84853D01*
G01*
X226121314Y-53217188D01*
G75*
G02*
X225951608Y-53217188I-84853J84853D01*
G01*
G37*
G36*
G01*
X226305162Y-52863635D02*
X225838472Y-52396945D01*
G75*
G02*
X225838472Y-52227239I84853J84853D01*
G01*
X225838472Y-52227239D01*
G75*
G02*
X226008178Y-52227239I84853J-84853D01*
G01*
X226474868Y-52693929D01*
G75*
G02*
X226474868Y-52863635I-84853J-84853D01*
G01*
X226474868Y-52863635D01*
G75*
G02*
X226305162Y-52863635I-84853J84853D01*
G01*
G37*
G36*
G01*
X226658715Y-52510082D02*
X226192025Y-52043392D01*
G75*
G02*
X226192025Y-51873686I84853J84853D01*
G01*
X226192025Y-51873686D01*
G75*
G02*
X226361731Y-51873686I84853J-84853D01*
G01*
X226828421Y-52340376D01*
G75*
G02*
X226828421Y-52510082I-84853J-84853D01*
G01*
X226828421Y-52510082D01*
G75*
G02*
X226658715Y-52510082I-84853J84853D01*
G01*
G37*
G36*
G01*
X227012269Y-52156528D02*
X226545579Y-51689838D01*
G75*
G02*
X226545579Y-51520132I84853J84853D01*
G01*
X226545579Y-51520132D01*
G75*
G02*
X226715285Y-51520132I84853J-84853D01*
G01*
X227181975Y-51986822D01*
G75*
G02*
X227181975Y-52156528I-84853J-84853D01*
G01*
X227181975Y-52156528D01*
G75*
G02*
X227012269Y-52156528I-84853J84853D01*
G01*
G37*
G36*
G01*
X227365822Y-51802975D02*
X226899132Y-51336285D01*
G75*
G02*
X226899132Y-51166579I84853J84853D01*
G01*
X226899132Y-51166579D01*
G75*
G02*
X227068838Y-51166579I84853J-84853D01*
G01*
X227535528Y-51633269D01*
G75*
G02*
X227535528Y-51802975I-84853J-84853D01*
G01*
X227535528Y-51802975D01*
G75*
G02*
X227365822Y-51802975I-84853J84853D01*
G01*
G37*
G36*
G01*
X227719375Y-51449421D02*
X227252685Y-50982731D01*
G75*
G02*
X227252685Y-50813025I84853J84853D01*
G01*
X227252685Y-50813025D01*
G75*
G02*
X227422391Y-50813025I84853J-84853D01*
G01*
X227889081Y-51279715D01*
G75*
G02*
X227889081Y-51449421I-84853J-84853D01*
G01*
X227889081Y-51449421D01*
G75*
G02*
X227719375Y-51449421I-84853J84853D01*
G01*
G37*
G36*
G01*
X227889081Y-49851361D02*
X227422391Y-50318051D01*
G75*
G02*
X227252685Y-50318051I-84853J84853D01*
G01*
X227252685Y-50318051D01*
G75*
G02*
X227252685Y-50148345I84853J84853D01*
G01*
X227719375Y-49681655D01*
G75*
G02*
X227889081Y-49681655I84853J-84853D01*
G01*
X227889081Y-49681655D01*
G75*
G02*
X227889081Y-49851361I-84853J-84853D01*
G01*
G37*
G36*
G01*
X227535528Y-49497807D02*
X227068838Y-49964497D01*
G75*
G02*
X226899132Y-49964497I-84853J84853D01*
G01*
X226899132Y-49964497D01*
G75*
G02*
X226899132Y-49794791I84853J84853D01*
G01*
X227365822Y-49328101D01*
G75*
G02*
X227535528Y-49328101I84853J-84853D01*
G01*
X227535528Y-49328101D01*
G75*
G02*
X227535528Y-49497807I-84853J-84853D01*
G01*
G37*
G36*
G01*
X227181975Y-49144254D02*
X226715285Y-49610944D01*
G75*
G02*
X226545579Y-49610944I-84853J84853D01*
G01*
X226545579Y-49610944D01*
G75*
G02*
X226545579Y-49441238I84853J84853D01*
G01*
X227012269Y-48974548D01*
G75*
G02*
X227181975Y-48974548I84853J-84853D01*
G01*
X227181975Y-48974548D01*
G75*
G02*
X227181975Y-49144254I-84853J-84853D01*
G01*
G37*
G36*
G01*
X226828421Y-48790700D02*
X226361731Y-49257390D01*
G75*
G02*
X226192025Y-49257390I-84853J84853D01*
G01*
X226192025Y-49257390D01*
G75*
G02*
X226192025Y-49087684I84853J84853D01*
G01*
X226658715Y-48620994D01*
G75*
G02*
X226828421Y-48620994I84853J-84853D01*
G01*
X226828421Y-48620994D01*
G75*
G02*
X226828421Y-48790700I-84853J-84853D01*
G01*
G37*
G36*
G01*
X226474868Y-48437147D02*
X226008178Y-48903837D01*
G75*
G02*
X225838472Y-48903837I-84853J84853D01*
G01*
X225838472Y-48903837D01*
G75*
G02*
X225838472Y-48734131I84853J84853D01*
G01*
X226305162Y-48267441D01*
G75*
G02*
X226474868Y-48267441I84853J-84853D01*
G01*
X226474868Y-48267441D01*
G75*
G02*
X226474868Y-48437147I-84853J-84853D01*
G01*
G37*
G36*
G01*
X226121314Y-48083594D02*
X225654624Y-48550284D01*
G75*
G02*
X225484918Y-48550284I-84853J84853D01*
G01*
X225484918Y-48550284D01*
G75*
G02*
X225484918Y-48380578I84853J84853D01*
G01*
X225951608Y-47913888D01*
G75*
G02*
X226121314Y-47913888I84853J-84853D01*
G01*
X226121314Y-47913888D01*
G75*
G02*
X226121314Y-48083594I-84853J-84853D01*
G01*
G37*
G36*
G01*
X224820238Y-48550284D02*
X224353548Y-48083594D01*
G75*
G02*
X224353548Y-47913888I84853J84853D01*
G01*
X224353548Y-47913888D01*
G75*
G02*
X224523254Y-47913888I84853J-84853D01*
G01*
X224989944Y-48380578D01*
G75*
G02*
X224989944Y-48550284I-84853J-84853D01*
G01*
X224989944Y-48550284D01*
G75*
G02*
X224820238Y-48550284I-84853J84853D01*
G01*
G37*
G36*
G01*
X224466684Y-48903837D02*
X223999994Y-48437147D01*
G75*
G02*
X223999994Y-48267441I84853J84853D01*
G01*
X223999994Y-48267441D01*
G75*
G02*
X224169700Y-48267441I84853J-84853D01*
G01*
X224636390Y-48734131D01*
G75*
G02*
X224636390Y-48903837I-84853J-84853D01*
G01*
X224636390Y-48903837D01*
G75*
G02*
X224466684Y-48903837I-84853J84853D01*
G01*
G37*
G36*
G01*
X224113131Y-49257390D02*
X223646441Y-48790700D01*
G75*
G02*
X223646441Y-48620994I84853J84853D01*
G01*
X223646441Y-48620994D01*
G75*
G02*
X223816147Y-48620994I84853J-84853D01*
G01*
X224282837Y-49087684D01*
G75*
G02*
X224282837Y-49257390I-84853J-84853D01*
G01*
X224282837Y-49257390D01*
G75*
G02*
X224113131Y-49257390I-84853J84853D01*
G01*
G37*
G36*
G01*
X223759577Y-49610944D02*
X223292887Y-49144254D01*
G75*
G02*
X223292887Y-48974548I84853J84853D01*
G01*
X223292887Y-48974548D01*
G75*
G02*
X223462593Y-48974548I84853J-84853D01*
G01*
X223929283Y-49441238D01*
G75*
G02*
X223929283Y-49610944I-84853J-84853D01*
G01*
X223929283Y-49610944D01*
G75*
G02*
X223759577Y-49610944I-84853J84853D01*
G01*
G37*
G36*
G01*
X223406024Y-49964497D02*
X222939334Y-49497807D01*
G75*
G02*
X222939334Y-49328101I84853J84853D01*
G01*
X222939334Y-49328101D01*
G75*
G02*
X223109040Y-49328101I84853J-84853D01*
G01*
X223575730Y-49794791D01*
G75*
G02*
X223575730Y-49964497I-84853J-84853D01*
G01*
X223575730Y-49964497D01*
G75*
G02*
X223406024Y-49964497I-84853J84853D01*
G01*
G37*
G36*
G01*
X223052471Y-50318051D02*
X222585781Y-49851361D01*
G75*
G02*
X222585781Y-49681655I84853J84853D01*
G01*
X222585781Y-49681655D01*
G75*
G02*
X222755487Y-49681655I84853J-84853D01*
G01*
X223222177Y-50148345D01*
G75*
G02*
X223222177Y-50318051I-84853J-84853D01*
G01*
X223222177Y-50318051D01*
G75*
G02*
X223052471Y-50318051I-84853J84853D01*
G01*
G37*
%TD*%
D10*
%TO.C,U9*%
X205267560Y-51348640D03*
X205267560Y-52298640D03*
X205267560Y-53248640D03*
X207667560Y-53248640D03*
X207667560Y-51348640D03*
%TD*%
M02*
