%TF.GenerationSoftware,KiCad,Pcbnew,(5.1.8)-1*%
%TF.CreationDate,2022-07-09T18:06:19+10:00*%
%TF.ProjectId,ergonomic_split_right,6572676f-6e6f-46d6-9963-5f73706c6974,rev?*%
%TF.SameCoordinates,Original*%
%TF.FileFunction,Soldermask,Top*%
%TF.FilePolarity,Negative*%
%FSLAX46Y46*%
G04 Gerber Fmt 4.6, Leading zero omitted, Abs format (unit mm)*
G04 Created by KiCad (PCBNEW (5.1.8)-1) date 2022-07-09 18:06:19*
%MOMM*%
%LPD*%
G01*
G04 APERTURE LIST*
%ADD10C,3.000000*%
%ADD11C,1.750000*%
%ADD12C,4.000000*%
%ADD13C,5.700000*%
%ADD14R,1.700000X1.700000*%
%ADD15O,1.700000X1.700000*%
%ADD16C,2.000000*%
%ADD17R,2.000000X3.200000*%
%ADD18R,2.000000X2.000000*%
%ADD19C,0.100000*%
%ADD20R,1.000000X0.700000*%
G04 APERTURE END LIST*
%TO.C,C8*%
G36*
G01*
X162970400Y-59115840D02*
X163470400Y-59115840D01*
G75*
G02*
X163695400Y-59340840I0J-225000D01*
G01*
X163695400Y-59790840D01*
G75*
G02*
X163470400Y-60015840I-225000J0D01*
G01*
X162970400Y-60015840D01*
G75*
G02*
X162745400Y-59790840I0J225000D01*
G01*
X162745400Y-59340840D01*
G75*
G02*
X162970400Y-59115840I225000J0D01*
G01*
G37*
G36*
G01*
X162970400Y-57565840D02*
X163470400Y-57565840D01*
G75*
G02*
X163695400Y-57790840I0J-225000D01*
G01*
X163695400Y-58240840D01*
G75*
G02*
X163470400Y-58465840I-225000J0D01*
G01*
X162970400Y-58465840D01*
G75*
G02*
X162745400Y-58240840I0J225000D01*
G01*
X162745400Y-57790840D01*
G75*
G02*
X162970400Y-57565840I225000J0D01*
G01*
G37*
%TD*%
%TO.C,C3*%
G36*
G01*
X160955332Y-59115840D02*
X161455332Y-59115840D01*
G75*
G02*
X161680332Y-59340840I0J-225000D01*
G01*
X161680332Y-59790840D01*
G75*
G02*
X161455332Y-60015840I-225000J0D01*
G01*
X160955332Y-60015840D01*
G75*
G02*
X160730332Y-59790840I0J225000D01*
G01*
X160730332Y-59340840D01*
G75*
G02*
X160955332Y-59115840I225000J0D01*
G01*
G37*
G36*
G01*
X160955332Y-57565840D02*
X161455332Y-57565840D01*
G75*
G02*
X161680332Y-57790840I0J-225000D01*
G01*
X161680332Y-58240840D01*
G75*
G02*
X161455332Y-58465840I-225000J0D01*
G01*
X160955332Y-58465840D01*
G75*
G02*
X160730332Y-58240840I0J225000D01*
G01*
X160730332Y-57790840D01*
G75*
G02*
X160955332Y-57565840I225000J0D01*
G01*
G37*
%TD*%
%TO.C,C2*%
G36*
G01*
X158940266Y-59115840D02*
X159440266Y-59115840D01*
G75*
G02*
X159665266Y-59340840I0J-225000D01*
G01*
X159665266Y-59790840D01*
G75*
G02*
X159440266Y-60015840I-225000J0D01*
G01*
X158940266Y-60015840D01*
G75*
G02*
X158715266Y-59790840I0J225000D01*
G01*
X158715266Y-59340840D01*
G75*
G02*
X158940266Y-59115840I225000J0D01*
G01*
G37*
G36*
G01*
X158940266Y-57565840D02*
X159440266Y-57565840D01*
G75*
G02*
X159665266Y-57790840I0J-225000D01*
G01*
X159665266Y-58240840D01*
G75*
G02*
X159440266Y-58465840I-225000J0D01*
G01*
X158940266Y-58465840D01*
G75*
G02*
X158715266Y-58240840I0J225000D01*
G01*
X158715266Y-57790840D01*
G75*
G02*
X158940266Y-57565840I225000J0D01*
G01*
G37*
%TD*%
%TO.C,C1*%
G36*
G01*
X156925200Y-59115840D02*
X157425200Y-59115840D01*
G75*
G02*
X157650200Y-59340840I0J-225000D01*
G01*
X157650200Y-59790840D01*
G75*
G02*
X157425200Y-60015840I-225000J0D01*
G01*
X156925200Y-60015840D01*
G75*
G02*
X156700200Y-59790840I0J225000D01*
G01*
X156700200Y-59340840D01*
G75*
G02*
X156925200Y-59115840I225000J0D01*
G01*
G37*
G36*
G01*
X156925200Y-57565840D02*
X157425200Y-57565840D01*
G75*
G02*
X157650200Y-57790840I0J-225000D01*
G01*
X157650200Y-58240840D01*
G75*
G02*
X157425200Y-58465840I-225000J0D01*
G01*
X156925200Y-58465840D01*
G75*
G02*
X156700200Y-58240840I0J225000D01*
G01*
X156700200Y-57790840D01*
G75*
G02*
X156925200Y-57565840I225000J0D01*
G01*
G37*
%TD*%
D10*
%TO.C,SW12*%
X136729959Y-159375654D03*
D11*
X138525112Y-150394500D03*
X131340907Y-157578704D03*
D10*
X139422374Y-153089510D03*
D12*
X134932246Y-153987535D03*
%TD*%
D10*
%TO.C,SW1*%
X123241463Y-172869369D03*
D11*
X125036616Y-163888215D03*
X117852411Y-171072419D03*
D10*
X125933878Y-166583225D03*
D12*
X121443750Y-167481250D03*
%TD*%
D11*
%TO.C,SW35*%
X152018862Y-190875750D03*
X144834657Y-198059954D03*
D10*
X150222811Y-199856006D03*
X152916124Y-193570760D03*
D12*
X148425996Y-194468785D03*
%TD*%
%TO.C,C5*%
G36*
G01*
X205160160Y-49947640D02*
X205160160Y-49447640D01*
G75*
G02*
X205385160Y-49222640I225000J0D01*
G01*
X205835160Y-49222640D01*
G75*
G02*
X206060160Y-49447640I0J-225000D01*
G01*
X206060160Y-49947640D01*
G75*
G02*
X205835160Y-50172640I-225000J0D01*
G01*
X205385160Y-50172640D01*
G75*
G02*
X205160160Y-49947640I0J225000D01*
G01*
G37*
G36*
G01*
X206710160Y-49947640D02*
X206710160Y-49447640D01*
G75*
G02*
X206935160Y-49222640I225000J0D01*
G01*
X207385160Y-49222640D01*
G75*
G02*
X207610160Y-49447640I0J-225000D01*
G01*
X207610160Y-49947640D01*
G75*
G02*
X207385160Y-50172640I-225000J0D01*
G01*
X206935160Y-50172640D01*
G75*
G02*
X206710160Y-49947640I0J225000D01*
G01*
G37*
%TD*%
%TO.C,C7*%
G36*
G01*
X219834280Y-47756000D02*
X219834280Y-48256000D01*
G75*
G02*
X219609280Y-48481000I-225000J0D01*
G01*
X219159280Y-48481000D01*
G75*
G02*
X218934280Y-48256000I0J225000D01*
G01*
X218934280Y-47756000D01*
G75*
G02*
X219159280Y-47531000I225000J0D01*
G01*
X219609280Y-47531000D01*
G75*
G02*
X219834280Y-47756000I0J-225000D01*
G01*
G37*
G36*
G01*
X221384280Y-47756000D02*
X221384280Y-48256000D01*
G75*
G02*
X221159280Y-48481000I-225000J0D01*
G01*
X220709280Y-48481000D01*
G75*
G02*
X220484280Y-48256000I0J225000D01*
G01*
X220484280Y-47756000D01*
G75*
G02*
X220709280Y-47531000I225000J0D01*
G01*
X221159280Y-47531000D01*
G75*
G02*
X221384280Y-47756000I0J-225000D01*
G01*
G37*
%TD*%
%TO.C,C120*%
G36*
G01*
X209081560Y-52664240D02*
X209581560Y-52664240D01*
G75*
G02*
X209806560Y-52889240I0J-225000D01*
G01*
X209806560Y-53339240D01*
G75*
G02*
X209581560Y-53564240I-225000J0D01*
G01*
X209081560Y-53564240D01*
G75*
G02*
X208856560Y-53339240I0J225000D01*
G01*
X208856560Y-52889240D01*
G75*
G02*
X209081560Y-52664240I225000J0D01*
G01*
G37*
G36*
G01*
X209081560Y-51114240D02*
X209581560Y-51114240D01*
G75*
G02*
X209806560Y-51339240I0J-225000D01*
G01*
X209806560Y-51789240D01*
G75*
G02*
X209581560Y-52014240I-225000J0D01*
G01*
X209081560Y-52014240D01*
G75*
G02*
X208856560Y-51789240I0J225000D01*
G01*
X208856560Y-51339240D01*
G75*
G02*
X209081560Y-51114240I225000J0D01*
G01*
G37*
%TD*%
D13*
%TO.C,H1*%
X143535400Y-41022612D03*
%TD*%
%TO.C,H2*%
X285089600Y-41022612D03*
%TD*%
%TO.C,H3*%
X285087988Y-158115000D03*
%TD*%
%TO.C,H4*%
X148474804Y-207428204D03*
%TD*%
%TO.C,H5*%
X108496996Y-167450396D03*
%TD*%
%TO.C,H6*%
X143668750Y-82550000D03*
%TD*%
%TO.C,H7*%
X148431250Y-146050000D03*
%TD*%
%TO.C,H8*%
X259556250Y-82550000D03*
%TD*%
%TO.C,H9*%
X259556250Y-120650000D03*
%TD*%
%TO.C,H10*%
X194335400Y-40995600D03*
%TD*%
D14*
%TO.C,J2*%
X153193750Y-57150000D03*
D15*
X150653750Y-57150000D03*
X153193750Y-54610000D03*
X150653750Y-54610000D03*
X153193750Y-52070000D03*
X150653750Y-52070000D03*
X153193750Y-49530000D03*
X150653750Y-49530000D03*
%TD*%
%TO.C,R11*%
G36*
G01*
X226690600Y-46145400D02*
X226140600Y-46145400D01*
G75*
G02*
X225940600Y-45945400I0J200000D01*
G01*
X225940600Y-45545400D01*
G75*
G02*
X226140600Y-45345400I200000J0D01*
G01*
X226690600Y-45345400D01*
G75*
G02*
X226890600Y-45545400I0J-200000D01*
G01*
X226890600Y-45945400D01*
G75*
G02*
X226690600Y-46145400I-200000J0D01*
G01*
G37*
G36*
G01*
X226690600Y-44495400D02*
X226140600Y-44495400D01*
G75*
G02*
X225940600Y-44295400I0J200000D01*
G01*
X225940600Y-43895400D01*
G75*
G02*
X226140600Y-43695400I200000J0D01*
G01*
X226690600Y-43695400D01*
G75*
G02*
X226890600Y-43895400I0J-200000D01*
G01*
X226890600Y-44295400D01*
G75*
G02*
X226690600Y-44495400I-200000J0D01*
G01*
G37*
%TD*%
%TO.C,R12*%
G36*
G01*
X219436400Y-49890000D02*
X219436400Y-50440000D01*
G75*
G02*
X219236400Y-50640000I-200000J0D01*
G01*
X218836400Y-50640000D01*
G75*
G02*
X218636400Y-50440000I0J200000D01*
G01*
X218636400Y-49890000D01*
G75*
G02*
X218836400Y-49690000I200000J0D01*
G01*
X219236400Y-49690000D01*
G75*
G02*
X219436400Y-49890000I0J-200000D01*
G01*
G37*
G36*
G01*
X217786400Y-49890000D02*
X217786400Y-50440000D01*
G75*
G02*
X217586400Y-50640000I-200000J0D01*
G01*
X217186400Y-50640000D01*
G75*
G02*
X216986400Y-50440000I0J200000D01*
G01*
X216986400Y-49890000D01*
G75*
G02*
X217186400Y-49690000I200000J0D01*
G01*
X217586400Y-49690000D01*
G75*
G02*
X217786400Y-49890000I0J-200000D01*
G01*
G37*
%TD*%
%TO.C,R13*%
G36*
G01*
X217786701Y-51484331D02*
X217786701Y-52034331D01*
G75*
G02*
X217586701Y-52234331I-200000J0D01*
G01*
X217186701Y-52234331D01*
G75*
G02*
X216986701Y-52034331I0J200000D01*
G01*
X216986701Y-51484331D01*
G75*
G02*
X217186701Y-51284331I200000J0D01*
G01*
X217586701Y-51284331D01*
G75*
G02*
X217786701Y-51484331I0J-200000D01*
G01*
G37*
G36*
G01*
X219436701Y-51484331D02*
X219436701Y-52034331D01*
G75*
G02*
X219236701Y-52234331I-200000J0D01*
G01*
X218836701Y-52234331D01*
G75*
G02*
X218636701Y-52034331I0J200000D01*
G01*
X218636701Y-51484331D01*
G75*
G02*
X218836701Y-51284331I200000J0D01*
G01*
X219236701Y-51284331D01*
G75*
G02*
X219436701Y-51484331I0J-200000D01*
G01*
G37*
%TD*%
D10*
%TO.C,SW2*%
X268919960Y-78102460D03*
D11*
X276539960Y-73022460D03*
D12*
X271459960Y-73022460D03*
D11*
X266379960Y-73021190D03*
D10*
X275268760Y-75561310D03*
%TD*%
D11*
%TO.C,SW3*%
X266379960Y-92072460D03*
D10*
X268919960Y-97152460D03*
X275269960Y-94612460D03*
D11*
X276539960Y-92072460D03*
D12*
X271459960Y-92072460D03*
%TD*%
D10*
%TO.C,SW4*%
X275268760Y-113661310D03*
D11*
X266379960Y-111121190D03*
D12*
X271459960Y-111122460D03*
D11*
X276539960Y-111122460D03*
D10*
X268919960Y-116202460D03*
%TD*%
D12*
%TO.C,SW5*%
X271457420Y-130169920D03*
D11*
X276537420Y-130169920D03*
D10*
X275267420Y-132709920D03*
X268917420Y-135249920D03*
D11*
X266377420Y-130169920D03*
%TD*%
D12*
%TO.C,SW6*%
X134932246Y-180975035D03*
D10*
X139422374Y-180077010D03*
D11*
X131340907Y-184566204D03*
X138525112Y-177382000D03*
D10*
X136729959Y-186363154D03*
%TD*%
D11*
%TO.C,SW7*%
X176527460Y-73021190D03*
X166367460Y-73021190D03*
D10*
X168907460Y-78101190D03*
X175256260Y-75561310D03*
D12*
X171446260Y-73021310D03*
%TD*%
D10*
%TO.C,SW8*%
X168907460Y-97152460D03*
D11*
X176527460Y-92071190D03*
X166367460Y-92071190D03*
D10*
X175256260Y-94611310D03*
D12*
X171446260Y-92071310D03*
%TD*%
%TO.C,SW9*%
X171446260Y-111121310D03*
D10*
X175256260Y-113661310D03*
X168907460Y-116201190D03*
D11*
X166367460Y-111121190D03*
X176527460Y-111121190D03*
%TD*%
D10*
%TO.C,SW10*%
X168907460Y-135252460D03*
D11*
X176527460Y-130171190D03*
X166367460Y-130171190D03*
D10*
X175256260Y-132711310D03*
D12*
X171446260Y-130171310D03*
%TD*%
D11*
%TO.C,SW11*%
X252727460Y-149221190D03*
X242567460Y-149221190D03*
D10*
X245107460Y-154301190D03*
X251456260Y-151761310D03*
D12*
X247646260Y-149221310D03*
%TD*%
%TO.C,SW13*%
X190496260Y-70640060D03*
D10*
X194306260Y-73180060D03*
X187957460Y-75719940D03*
D11*
X185417460Y-70639940D03*
X195577460Y-70639940D03*
%TD*%
D12*
%TO.C,SW14*%
X190496260Y-89690060D03*
D10*
X194306260Y-92230060D03*
D11*
X185417460Y-89689940D03*
X195577460Y-89689940D03*
D10*
X187957460Y-94771210D03*
%TD*%
D12*
%TO.C,SW15*%
X190492520Y-108736370D03*
D10*
X194302520Y-111276370D03*
X187953720Y-113816250D03*
D11*
X185413720Y-108736250D03*
X195573720Y-108736250D03*
%TD*%
D12*
%TO.C,SW16*%
X190496260Y-127790060D03*
D10*
X194306260Y-130330060D03*
D11*
X185417460Y-127789940D03*
X195577460Y-127789940D03*
D10*
X187957460Y-132871210D03*
%TD*%
D11*
%TO.C,SW17*%
X195573720Y-146836250D03*
X185413720Y-146836250D03*
D10*
X187953720Y-151916250D03*
X194302520Y-149376370D03*
D12*
X190492520Y-146836370D03*
%TD*%
%TO.C,SW18*%
X155285266Y-174214825D03*
D10*
X159775394Y-173316800D03*
X157082081Y-179602046D03*
D11*
X151693927Y-177805994D03*
X158878132Y-170621790D03*
%TD*%
%TO.C,SW19*%
X214623720Y-68255000D03*
X204463720Y-68255000D03*
D10*
X207003720Y-73335000D03*
X213352520Y-70795120D03*
D12*
X209542520Y-68255120D03*
%TD*%
%TO.C,SW20*%
X209546260Y-87308810D03*
D10*
X213356260Y-89848810D03*
D11*
X204467460Y-87308690D03*
X214627460Y-87308690D03*
D10*
X207007460Y-92389960D03*
%TD*%
D11*
%TO.C,SW21*%
X214627460Y-106358690D03*
X204467460Y-106358690D03*
D10*
X207007460Y-111438690D03*
X213356260Y-108898810D03*
D12*
X209546260Y-106358810D03*
%TD*%
D10*
%TO.C,SW22*%
X207007460Y-130489960D03*
D11*
X214627460Y-125408690D03*
X204467460Y-125408690D03*
D10*
X213356260Y-127948810D03*
D12*
X209546260Y-125408810D03*
%TD*%
%TO.C,SW23*%
X209542520Y-144455120D03*
D10*
X213352520Y-146995120D03*
X207003720Y-149535000D03*
D11*
X204463720Y-144455000D03*
X214623720Y-144455000D03*
%TD*%
%TO.C,SW24*%
X172377136Y-157128005D03*
X165192931Y-164312209D03*
D10*
X170581085Y-166108261D03*
X173274398Y-159823015D03*
D12*
X168784270Y-160721040D03*
%TD*%
%TO.C,SW25*%
X228596260Y-70640060D03*
D10*
X232406260Y-73180060D03*
X226057460Y-75719940D03*
D11*
X223517460Y-70639940D03*
X233677460Y-70639940D03*
%TD*%
D10*
%TO.C,SW26*%
X226057460Y-94771210D03*
D11*
X233677460Y-89689940D03*
X223517460Y-89689940D03*
D10*
X232406260Y-92230060D03*
D12*
X228596260Y-89690060D03*
%TD*%
D11*
%TO.C,SW27*%
X233677460Y-108739940D03*
X223517460Y-108739940D03*
D10*
X226057460Y-113819940D03*
X232406260Y-111280060D03*
D12*
X228596260Y-108740060D03*
%TD*%
D10*
%TO.C,SW28*%
X226057460Y-132871210D03*
D11*
X233677460Y-127789940D03*
X223517460Y-127789940D03*
D10*
X232406260Y-130330060D03*
D12*
X228596260Y-127790060D03*
%TD*%
%TO.C,SW29*%
X228596260Y-146840060D03*
D10*
X232406260Y-149380060D03*
X226057460Y-151919940D03*
D11*
X223517460Y-146839940D03*
X233677460Y-146839940D03*
%TD*%
D12*
%TO.C,SW30*%
X266696260Y-149221310D03*
D10*
X270506260Y-151761310D03*
X264157460Y-154301190D03*
D11*
X261617460Y-149221190D03*
X271777460Y-149221190D03*
%TD*%
%TO.C,SW31*%
X252727460Y-73021190D03*
X242567460Y-73021190D03*
D10*
X245107460Y-78101190D03*
X251456260Y-75561310D03*
D12*
X247646260Y-73021310D03*
%TD*%
%TO.C,SW32*%
X247646260Y-92071310D03*
D10*
X251456260Y-94611310D03*
D11*
X242567460Y-92071190D03*
X252727460Y-92071190D03*
D10*
X245107460Y-97152460D03*
%TD*%
D12*
%TO.C,SW33*%
X247646260Y-111121310D03*
D10*
X251456260Y-113661310D03*
X245107460Y-116201190D03*
D11*
X242567460Y-111121190D03*
X252727460Y-111121190D03*
%TD*%
D12*
%TO.C,SW34*%
X247642520Y-130167620D03*
D10*
X251452520Y-132707620D03*
D11*
X242563720Y-130167500D03*
X252723720Y-130167500D03*
D10*
X245103720Y-135248770D03*
%TD*%
%TO.C,SW36*%
X149857460Y-101914960D03*
D11*
X157477460Y-96833690D03*
X147317460Y-96833690D03*
D10*
X156206260Y-99373810D03*
D12*
X152396260Y-96833810D03*
%TD*%
%TO.C,SW37*%
X152396260Y-125408810D03*
D10*
X156206260Y-127948810D03*
D11*
X147317460Y-125408690D03*
X157477460Y-125408690D03*
D10*
X149857460Y-130489960D03*
%TD*%
D12*
%TO.C,SW39*%
X152396260Y-73021310D03*
D10*
X156206260Y-75561310D03*
X149857460Y-78101190D03*
D11*
X147317460Y-73021190D03*
X157477460Y-73021190D03*
%TD*%
D16*
%TO.C,SW40*%
X178471820Y-55427020D03*
X183471820Y-55427020D03*
D17*
X175371820Y-48427020D03*
X186571820Y-48427020D03*
D16*
X178471820Y-40927020D03*
X180971820Y-40927020D03*
D18*
X183471820Y-40927020D03*
%TD*%
%TO.C,U2*%
G36*
G01*
X223222177Y-50982731D02*
X222755487Y-51449421D01*
G75*
G02*
X222585781Y-51449421I-84853J84853D01*
G01*
X222585781Y-51449421D01*
G75*
G02*
X222585781Y-51279715I84853J84853D01*
G01*
X223052471Y-50813025D01*
G75*
G02*
X223222177Y-50813025I84853J-84853D01*
G01*
X223222177Y-50813025D01*
G75*
G02*
X223222177Y-50982731I-84853J-84853D01*
G01*
G37*
G36*
G01*
X223575730Y-51336285D02*
X223109040Y-51802975D01*
G75*
G02*
X222939334Y-51802975I-84853J84853D01*
G01*
X222939334Y-51802975D01*
G75*
G02*
X222939334Y-51633269I84853J84853D01*
G01*
X223406024Y-51166579D01*
G75*
G02*
X223575730Y-51166579I84853J-84853D01*
G01*
X223575730Y-51166579D01*
G75*
G02*
X223575730Y-51336285I-84853J-84853D01*
G01*
G37*
G36*
G01*
X223929283Y-51689838D02*
X223462593Y-52156528D01*
G75*
G02*
X223292887Y-52156528I-84853J84853D01*
G01*
X223292887Y-52156528D01*
G75*
G02*
X223292887Y-51986822I84853J84853D01*
G01*
X223759577Y-51520132D01*
G75*
G02*
X223929283Y-51520132I84853J-84853D01*
G01*
X223929283Y-51520132D01*
G75*
G02*
X223929283Y-51689838I-84853J-84853D01*
G01*
G37*
G36*
G01*
X224282837Y-52043392D02*
X223816147Y-52510082D01*
G75*
G02*
X223646441Y-52510082I-84853J84853D01*
G01*
X223646441Y-52510082D01*
G75*
G02*
X223646441Y-52340376I84853J84853D01*
G01*
X224113131Y-51873686D01*
G75*
G02*
X224282837Y-51873686I84853J-84853D01*
G01*
X224282837Y-51873686D01*
G75*
G02*
X224282837Y-52043392I-84853J-84853D01*
G01*
G37*
G36*
G01*
X224636390Y-52396945D02*
X224169700Y-52863635D01*
G75*
G02*
X223999994Y-52863635I-84853J84853D01*
G01*
X223999994Y-52863635D01*
G75*
G02*
X223999994Y-52693929I84853J84853D01*
G01*
X224466684Y-52227239D01*
G75*
G02*
X224636390Y-52227239I84853J-84853D01*
G01*
X224636390Y-52227239D01*
G75*
G02*
X224636390Y-52396945I-84853J-84853D01*
G01*
G37*
G36*
G01*
X224989944Y-52750498D02*
X224523254Y-53217188D01*
G75*
G02*
X224353548Y-53217188I-84853J84853D01*
G01*
X224353548Y-53217188D01*
G75*
G02*
X224353548Y-53047482I84853J84853D01*
G01*
X224820238Y-52580792D01*
G75*
G02*
X224989944Y-52580792I84853J-84853D01*
G01*
X224989944Y-52580792D01*
G75*
G02*
X224989944Y-52750498I-84853J-84853D01*
G01*
G37*
G36*
G01*
X225951608Y-53217188D02*
X225484918Y-52750498D01*
G75*
G02*
X225484918Y-52580792I84853J84853D01*
G01*
X225484918Y-52580792D01*
G75*
G02*
X225654624Y-52580792I84853J-84853D01*
G01*
X226121314Y-53047482D01*
G75*
G02*
X226121314Y-53217188I-84853J-84853D01*
G01*
X226121314Y-53217188D01*
G75*
G02*
X225951608Y-53217188I-84853J84853D01*
G01*
G37*
G36*
G01*
X226305162Y-52863635D02*
X225838472Y-52396945D01*
G75*
G02*
X225838472Y-52227239I84853J84853D01*
G01*
X225838472Y-52227239D01*
G75*
G02*
X226008178Y-52227239I84853J-84853D01*
G01*
X226474868Y-52693929D01*
G75*
G02*
X226474868Y-52863635I-84853J-84853D01*
G01*
X226474868Y-52863635D01*
G75*
G02*
X226305162Y-52863635I-84853J84853D01*
G01*
G37*
G36*
G01*
X226658715Y-52510082D02*
X226192025Y-52043392D01*
G75*
G02*
X226192025Y-51873686I84853J84853D01*
G01*
X226192025Y-51873686D01*
G75*
G02*
X226361731Y-51873686I84853J-84853D01*
G01*
X226828421Y-52340376D01*
G75*
G02*
X226828421Y-52510082I-84853J-84853D01*
G01*
X226828421Y-52510082D01*
G75*
G02*
X226658715Y-52510082I-84853J84853D01*
G01*
G37*
G36*
G01*
X227012269Y-52156528D02*
X226545579Y-51689838D01*
G75*
G02*
X226545579Y-51520132I84853J84853D01*
G01*
X226545579Y-51520132D01*
G75*
G02*
X226715285Y-51520132I84853J-84853D01*
G01*
X227181975Y-51986822D01*
G75*
G02*
X227181975Y-52156528I-84853J-84853D01*
G01*
X227181975Y-52156528D01*
G75*
G02*
X227012269Y-52156528I-84853J84853D01*
G01*
G37*
G36*
G01*
X227365822Y-51802975D02*
X226899132Y-51336285D01*
G75*
G02*
X226899132Y-51166579I84853J84853D01*
G01*
X226899132Y-51166579D01*
G75*
G02*
X227068838Y-51166579I84853J-84853D01*
G01*
X227535528Y-51633269D01*
G75*
G02*
X227535528Y-51802975I-84853J-84853D01*
G01*
X227535528Y-51802975D01*
G75*
G02*
X227365822Y-51802975I-84853J84853D01*
G01*
G37*
G36*
G01*
X227719375Y-51449421D02*
X227252685Y-50982731D01*
G75*
G02*
X227252685Y-50813025I84853J84853D01*
G01*
X227252685Y-50813025D01*
G75*
G02*
X227422391Y-50813025I84853J-84853D01*
G01*
X227889081Y-51279715D01*
G75*
G02*
X227889081Y-51449421I-84853J-84853D01*
G01*
X227889081Y-51449421D01*
G75*
G02*
X227719375Y-51449421I-84853J84853D01*
G01*
G37*
G36*
G01*
X227889081Y-49851361D02*
X227422391Y-50318051D01*
G75*
G02*
X227252685Y-50318051I-84853J84853D01*
G01*
X227252685Y-50318051D01*
G75*
G02*
X227252685Y-50148345I84853J84853D01*
G01*
X227719375Y-49681655D01*
G75*
G02*
X227889081Y-49681655I84853J-84853D01*
G01*
X227889081Y-49681655D01*
G75*
G02*
X227889081Y-49851361I-84853J-84853D01*
G01*
G37*
G36*
G01*
X227535528Y-49497807D02*
X227068838Y-49964497D01*
G75*
G02*
X226899132Y-49964497I-84853J84853D01*
G01*
X226899132Y-49964497D01*
G75*
G02*
X226899132Y-49794791I84853J84853D01*
G01*
X227365822Y-49328101D01*
G75*
G02*
X227535528Y-49328101I84853J-84853D01*
G01*
X227535528Y-49328101D01*
G75*
G02*
X227535528Y-49497807I-84853J-84853D01*
G01*
G37*
G36*
G01*
X227181975Y-49144254D02*
X226715285Y-49610944D01*
G75*
G02*
X226545579Y-49610944I-84853J84853D01*
G01*
X226545579Y-49610944D01*
G75*
G02*
X226545579Y-49441238I84853J84853D01*
G01*
X227012269Y-48974548D01*
G75*
G02*
X227181975Y-48974548I84853J-84853D01*
G01*
X227181975Y-48974548D01*
G75*
G02*
X227181975Y-49144254I-84853J-84853D01*
G01*
G37*
G36*
G01*
X226828421Y-48790700D02*
X226361731Y-49257390D01*
G75*
G02*
X226192025Y-49257390I-84853J84853D01*
G01*
X226192025Y-49257390D01*
G75*
G02*
X226192025Y-49087684I84853J84853D01*
G01*
X226658715Y-48620994D01*
G75*
G02*
X226828421Y-48620994I84853J-84853D01*
G01*
X226828421Y-48620994D01*
G75*
G02*
X226828421Y-48790700I-84853J-84853D01*
G01*
G37*
G36*
G01*
X226474868Y-48437147D02*
X226008178Y-48903837D01*
G75*
G02*
X225838472Y-48903837I-84853J84853D01*
G01*
X225838472Y-48903837D01*
G75*
G02*
X225838472Y-48734131I84853J84853D01*
G01*
X226305162Y-48267441D01*
G75*
G02*
X226474868Y-48267441I84853J-84853D01*
G01*
X226474868Y-48267441D01*
G75*
G02*
X226474868Y-48437147I-84853J-84853D01*
G01*
G37*
G36*
G01*
X226121314Y-48083594D02*
X225654624Y-48550284D01*
G75*
G02*
X225484918Y-48550284I-84853J84853D01*
G01*
X225484918Y-48550284D01*
G75*
G02*
X225484918Y-48380578I84853J84853D01*
G01*
X225951608Y-47913888D01*
G75*
G02*
X226121314Y-47913888I84853J-84853D01*
G01*
X226121314Y-47913888D01*
G75*
G02*
X226121314Y-48083594I-84853J-84853D01*
G01*
G37*
G36*
G01*
X224820238Y-48550284D02*
X224353548Y-48083594D01*
G75*
G02*
X224353548Y-47913888I84853J84853D01*
G01*
X224353548Y-47913888D01*
G75*
G02*
X224523254Y-47913888I84853J-84853D01*
G01*
X224989944Y-48380578D01*
G75*
G02*
X224989944Y-48550284I-84853J-84853D01*
G01*
X224989944Y-48550284D01*
G75*
G02*
X224820238Y-48550284I-84853J84853D01*
G01*
G37*
G36*
G01*
X224466684Y-48903837D02*
X223999994Y-48437147D01*
G75*
G02*
X223999994Y-48267441I84853J84853D01*
G01*
X223999994Y-48267441D01*
G75*
G02*
X224169700Y-48267441I84853J-84853D01*
G01*
X224636390Y-48734131D01*
G75*
G02*
X224636390Y-48903837I-84853J-84853D01*
G01*
X224636390Y-48903837D01*
G75*
G02*
X224466684Y-48903837I-84853J84853D01*
G01*
G37*
G36*
G01*
X224113131Y-49257390D02*
X223646441Y-48790700D01*
G75*
G02*
X223646441Y-48620994I84853J84853D01*
G01*
X223646441Y-48620994D01*
G75*
G02*
X223816147Y-48620994I84853J-84853D01*
G01*
X224282837Y-49087684D01*
G75*
G02*
X224282837Y-49257390I-84853J-84853D01*
G01*
X224282837Y-49257390D01*
G75*
G02*
X224113131Y-49257390I-84853J84853D01*
G01*
G37*
G36*
G01*
X223759577Y-49610944D02*
X223292887Y-49144254D01*
G75*
G02*
X223292887Y-48974548I84853J84853D01*
G01*
X223292887Y-48974548D01*
G75*
G02*
X223462593Y-48974548I84853J-84853D01*
G01*
X223929283Y-49441238D01*
G75*
G02*
X223929283Y-49610944I-84853J-84853D01*
G01*
X223929283Y-49610944D01*
G75*
G02*
X223759577Y-49610944I-84853J84853D01*
G01*
G37*
G36*
G01*
X223406024Y-49964497D02*
X222939334Y-49497807D01*
G75*
G02*
X222939334Y-49328101I84853J84853D01*
G01*
X222939334Y-49328101D01*
G75*
G02*
X223109040Y-49328101I84853J-84853D01*
G01*
X223575730Y-49794791D01*
G75*
G02*
X223575730Y-49964497I-84853J-84853D01*
G01*
X223575730Y-49964497D01*
G75*
G02*
X223406024Y-49964497I-84853J84853D01*
G01*
G37*
G36*
G01*
X223052471Y-50318051D02*
X222585781Y-49851361D01*
G75*
G02*
X222585781Y-49681655I84853J84853D01*
G01*
X222585781Y-49681655D01*
G75*
G02*
X222755487Y-49681655I84853J-84853D01*
G01*
X223222177Y-50148345D01*
G75*
G02*
X223222177Y-50318051I-84853J-84853D01*
G01*
X223222177Y-50318051D01*
G75*
G02*
X223052471Y-50318051I-84853J84853D01*
G01*
G37*
D19*
G36*
X224123738Y-50936769D02*
G01*
X223752507Y-50565538D01*
X224123738Y-50194307D01*
X224494969Y-50565538D01*
X224123738Y-50936769D01*
G37*
G36*
X224494969Y-51308000D02*
G01*
X224123738Y-50936769D01*
X224494969Y-50565538D01*
X224866200Y-50936769D01*
X224494969Y-51308000D01*
G37*
G36*
X224866200Y-51679231D02*
G01*
X224494969Y-51308000D01*
X224866200Y-50936769D01*
X225237431Y-51308000D01*
X224866200Y-51679231D01*
G37*
G36*
X225237431Y-52050462D02*
G01*
X224866200Y-51679231D01*
X225237431Y-51308000D01*
X225608662Y-51679231D01*
X225237431Y-52050462D01*
G37*
G36*
X224494969Y-50565538D02*
G01*
X224123738Y-50194307D01*
X224494969Y-49823076D01*
X224866200Y-50194307D01*
X224494969Y-50565538D01*
G37*
G36*
X224866200Y-50936769D02*
G01*
X224494969Y-50565538D01*
X224866200Y-50194307D01*
X225237431Y-50565538D01*
X224866200Y-50936769D01*
G37*
G36*
X225237431Y-51308000D02*
G01*
X224866200Y-50936769D01*
X225237431Y-50565538D01*
X225608662Y-50936769D01*
X225237431Y-51308000D01*
G37*
G36*
X225608662Y-51679231D02*
G01*
X225237431Y-51308000D01*
X225608662Y-50936769D01*
X225979893Y-51308000D01*
X225608662Y-51679231D01*
G37*
G36*
X224866200Y-50194307D02*
G01*
X224494969Y-49823076D01*
X224866200Y-49451845D01*
X225237431Y-49823076D01*
X224866200Y-50194307D01*
G37*
G36*
X225237431Y-50565538D02*
G01*
X224866200Y-50194307D01*
X225237431Y-49823076D01*
X225608662Y-50194307D01*
X225237431Y-50565538D01*
G37*
G36*
X225608662Y-50936769D02*
G01*
X225237431Y-50565538D01*
X225608662Y-50194307D01*
X225979893Y-50565538D01*
X225608662Y-50936769D01*
G37*
G36*
X225979893Y-51308000D02*
G01*
X225608662Y-50936769D01*
X225979893Y-50565538D01*
X226351124Y-50936769D01*
X225979893Y-51308000D01*
G37*
G36*
X225237431Y-49823076D02*
G01*
X224866200Y-49451845D01*
X225237431Y-49080614D01*
X225608662Y-49451845D01*
X225237431Y-49823076D01*
G37*
G36*
X225608662Y-50194307D02*
G01*
X225237431Y-49823076D01*
X225608662Y-49451845D01*
X225979893Y-49823076D01*
X225608662Y-50194307D01*
G37*
G36*
X225979893Y-50565538D02*
G01*
X225608662Y-50194307D01*
X225979893Y-49823076D01*
X226351124Y-50194307D01*
X225979893Y-50565538D01*
G37*
G36*
X226351124Y-50936769D02*
G01*
X225979893Y-50565538D01*
X226351124Y-50194307D01*
X226722355Y-50565538D01*
X226351124Y-50936769D01*
G37*
%TD*%
D20*
%TO.C,U9*%
X205267560Y-51348640D03*
X205267560Y-52298640D03*
X205267560Y-53248640D03*
X207667560Y-53248640D03*
X207667560Y-51348640D03*
%TD*%
M02*
