M48
; DRILL file {KiCad (5.1.8)-1} date 07/09/22 16:38:27
; FORMAT={-:-/ absolute / metric / decimal}
; #@! TF.CreationDate,2022-07-09T16:38:27+10:00
; #@! TF.GenerationSoftware,Kicad,Pcbnew,(5.1.8)-1
; #@! TF.FileFunction,Plated,1,2,PTH
FMAT,2
METRIC
T1C0.400
T2C1.000
T3C1.500
T4C3.200
%
G90
G05
T1
X113.096Y-164.973
X114.366Y-166.497
X114.795Y-172.263
X119.183Y-161.542
X120.853Y-164.313
X121.336Y-161.519
X124.384Y-155.844
X124.846Y-170.297
X126.563Y-151.404
X126.644Y-178.257
X127.838Y-179.883
X127.843Y-152.949
X131.889Y-163.766
X132.461Y-167.787
X132.671Y-148.048
X132.671Y-175.035
X132.817Y-186.22
X139.487Y-174.996
X143.627Y-155.553
X144.192Y-124.422
X144.259Y-95.745
X144.335Y-71.564
X146.113Y-199.949
X146.258Y-121.488
X147.511Y-68.428
X147.777Y-191.313
X147.792Y-183.2
X147.798Y-180.553
X148.107Y-91.034
X148.133Y-119.634
X148.336Y-89.129
X148.361Y-117.729
X148.387Y-188.392
X150.406Y-173.013
X152.614Y-180.066
X154.153Y-70.155
X154.635Y-171.196
X154.997Y-91.035
X154.997Y-119.61
X155.346Y-168.123
X155.462Y-191.025
X156.616Y-68.707
X157.175Y-60.858
X158.582Y-165.517
X159.207Y-60.884
X159.736Y-67.122
X160.772Y-138.897
X161.214Y-60.858
X161.788Y-88.56
X162.042Y-124.8
X163.22Y-60.858
X163.322Y-129.159
X163.347Y-109.842
X163.373Y-71.768
X163.373Y-91.072
X163.905Y-159.519
X165.801Y-99.35
X166.371Y-166.306
X166.827Y-58.471
X167.005Y-81.051
X167.183Y-86.233
X167.183Y-124.358
X167.411Y-84.328
X167.411Y-122.453
X167.538Y-138.074
X167.996Y-100.355
X168.021Y-157.632
X168.732Y-154.686
X168.846Y-68.721
X168.846Y-106.821
X170.84Y-60.376
X173.101Y-108.28
X173.152Y-70.231
X174.047Y-86.272
X174.047Y-124.372
X174.904Y-152.781
X175.565Y-106.832
X175.616Y-68.783
X175.666Y-43.815
X178.856Y-75.561
X178.856Y-94.611
X178.856Y-132.711
X180.635Y-85.816
X181.173Y-124.043
X181.199Y-66.99
X181.493Y-143.612
X182.372Y-69.406
X182.372Y-88.684
X182.41Y-107.391
X182.435Y-126.619
X182.435Y-145.517
X182.552Y-154.907
X183.654Y-163.567
X183.83Y-165.816
X183.947Y-104.882
X185.367Y-165.26
X185.374Y-163.398
X185.547Y-58.623
X185.915Y-116.294
X186.182Y-83.845
X186.22Y-97.104
X186.258Y-121.971
X186.296Y-135.534
X186.309Y-43.84
X186.411Y-81.94
X186.487Y-120.066
X186.855Y-78.397
X187.893Y-104.436
X187.896Y-66.34
X192.227Y-67.767
X192.227Y-106.02
X192.227Y-143.916
X193.097Y-83.891
X193.097Y-121.991
X194.691Y-66.319
X194.691Y-104.572
X194.691Y-142.469
X197.903Y-111.276
X197.906Y-73.18
X197.906Y-92.23
X197.906Y-130.33
X199.207Y-121.727
X199.908Y-82.997
X200.416Y-156.304
X200.528Y-64.648
X201.486Y-86.22
X201.486Y-124.32
X201.498Y-105.093
X201.498Y-143.142
X201.524Y-66.967
X202.286Y-140.36
X202.753Y-102.337
X204.064Y-52.299
X204.826Y-95.034
X205.156Y-81.458
X205.257Y-119.583
X205.384Y-79.553
X205.486Y-117.678
X205.689Y-133.375
X205.765Y-76.086
X205.803Y-114.084
X206.035Y-152.385
X206.639Y-46.431
X206.943Y-63.955
X206.943Y-140.155
X206.946Y-102.059
X207.239Y-47.386
X208.407Y-49.657
X209.321Y-54.381
X211.252Y-103.556
X211.303Y-65.405
X211.353Y-141.681
X211.417Y-153.454
X212.147Y-81.51
X213.716Y-102.108
X213.766Y-63.957
X213.817Y-140.233
X213.843Y-59.004
X214.211Y-56.685
X214.681Y-58.166
X214.706Y-59.741
X216.23Y-50.114
X216.231Y-83.386
X216.648Y-70.554
X216.75Y-147.013
X216.889Y-89.781
X216.956Y-108.899
X216.956Y-127.949
X218.14Y-47.981
X219.23Y-157.025
X220.574Y-145.542
X220.664Y-126.746
X221.341Y-140.894
X221.375Y-69.329
X221.375Y-88.436
X221.502Y-107.378
X221.952Y-102.291
X222.105Y-64.107
X222.291Y-125.105
X222.821Y-47.477
X223.307Y-46.34
X224.048Y-154.793
X224.066Y-78.473
X224.091Y-97.625
X224.231Y-135.865
X224.307Y-121.971
X224.409Y-83.871
X224.496Y-50.483
X224.536Y-120.066
X224.638Y-81.966
X224.828Y-116.51
X225.143Y-53.718
X225.196Y-49.733
X225.247Y-51.41
X225.996Y-66.34
X225.996Y-104.44
X225.996Y-142.54
X225.997Y-123.491
X226.085Y-50.546
X227.127Y-53.264
X227.584Y-54.254
X227.584Y-55.397
X228.879Y-55.27
X230.302Y-105.969
X230.378Y-144.018
X230.507Y-157.008
X231.197Y-83.891
X231.197Y-121.991
X232.766Y-104.521
X232.842Y-66.396
X232.842Y-142.57
X234.371Y-65.608
X236.006Y-73.18
X236.006Y-92.23
X236.006Y-111.28
X236.006Y-130.33
X236.006Y-149.38
X237.073Y-87.528
X237.642Y-66.726
X238.191Y-125.506
X238.735Y-65.964
X239.573Y-90.945
X239.585Y-66.777
X239.593Y-79.568
X239.598Y-109.791
X239.598Y-129.095
X239.598Y-147.917
X240.574Y-142.184
X240.589Y-66.015
X240.67Y-103.566
X242.773Y-100.025
X243.063Y-157.018
X243.357Y-86.157
X243.383Y-124.282
X243.472Y-80.48
X243.573Y-138.506
X243.586Y-84.252
X243.611Y-122.377
X245.046Y-68.721
X245.046Y-106.821
X245.046Y-144.921
X245.58Y-118.834
X249.377Y-70.18
X249.418Y-108.415
X249.479Y-146.406
X250.244Y-124.369
X250.247Y-86.272
X251.765Y-106.705
X251.841Y-68.732
X251.943Y-144.958
X255.053Y-132.708
X255.056Y-75.561
X255.056Y-94.611
X255.056Y-113.661
X255.056Y-151.761
X258.585Y-147.815
X258.796Y-67.843
X259.69Y-87.152
X261.386Y-125.715
X261.48Y-130.505
X262.636Y-156.86
X263.334Y-71.73
X263.347Y-90.729
X264.338Y-109.652
X265.206Y-106.025
X267.03Y-119.164
X267.03Y-138.341
X267.208Y-80.759
X267.233Y-86.258
X267.233Y-124.308
X267.462Y-84.353
X267.462Y-122.403
X268.186Y-100.025
X268.402Y-146.431
X268.859Y-68.721
X268.859Y-106.821
X270.866Y-144.983
X273.177Y-70.307
X273.228Y-108.356
X274.057Y-124.37
X274.06Y-86.272
X274.106Y-151.761
X275.641Y-68.859
X275.692Y-106.909
X278.751Y-75.561
X278.866Y-132.709
X278.869Y-94.611
X278.869Y-113.661
X279.476Y-71.577
X279.867Y-107.452
T2
X178.472Y-40.927
X178.472Y-55.427
X180.972Y-40.927
X183.472Y-40.927
X183.472Y-55.427
X150.654Y-49.53
X150.654Y-52.07
X150.654Y-54.61
X150.654Y-57.15
X153.194Y-49.53
X153.194Y-52.07
X153.194Y-54.61
X153.194Y-57.15
T4
X259.556Y-120.65
X148.431Y-146.05
X194.335Y-40.996
X259.556Y-82.55
X143.669Y-82.55
X148.475Y-207.428
X108.497Y-167.45
X285.088Y-158.115
X143.535Y-41.023
X285.09Y-41.023
T3
G00X175.372Y-47.777
M15
G01X175.372Y-49.077
M16
G05
G00X186.572Y-47.777
M15
G01X186.572Y-49.077
M16
G05
T0
M30
