%TF.GenerationSoftware,KiCad,Pcbnew,(5.1.8)-1*%
%TF.CreationDate,2022-07-09T18:06:19+10:00*%
%TF.ProjectId,ergonomic_split_right,6572676f-6e6f-46d6-9963-5f73706c6974,rev?*%
%TF.SameCoordinates,Original*%
%TF.FileFunction,Profile,NP*%
%FSLAX46Y46*%
G04 Gerber Fmt 4.6, Leading zero omitted, Abs format (unit mm)*
G04 Created by KiCad (PCBNEW (5.1.8)-1) date 2022-07-09 18:06:19*
%MOMM*%
%LPD*%
G01*
G04 APERTURE LIST*
%TA.AperFunction,Profile*%
%ADD10C,0.050000*%
%TD*%
G04 APERTURE END LIST*
D10*
X140335000Y-129819400D02*
X140333388Y-41022612D01*
X106248200Y-165201600D02*
X139398629Y-132079999D01*
X146226008Y-209677000D02*
X106248200Y-169699192D01*
X198168305Y-162227405D02*
X150723600Y-209677000D01*
X285087988Y-161317012D02*
X200431400Y-161290000D01*
X288291612Y-41022612D02*
X288290000Y-158115000D01*
X143535400Y-37820600D02*
X285089600Y-37820600D01*
X106248200Y-169699192D02*
G75*
G02*
X106248200Y-165201600I2248796J2248796D01*
G01*
X150723600Y-209677000D02*
G75*
G02*
X146226008Y-209677000I-2248796J2248796D01*
G01*
X140333388Y-41022612D02*
G75*
G02*
X143535400Y-37820600I3202012J0D01*
G01*
X285089600Y-37820600D02*
G75*
G02*
X288291612Y-41022612I0J-3202012D01*
G01*
X198168305Y-162227405D02*
G75*
G02*
X200431400Y-161290000I2263095J-2263095D01*
G01*
X140335000Y-129819400D02*
G75*
G02*
X139398629Y-132079999I-3196970J0D01*
G01*
X288290000Y-158115000D02*
G75*
G02*
X285087988Y-161317012I-3202012J0D01*
G01*
%TO.C,SW12*%
X133625760Y-150275189D02*
X131221597Y-152679352D01*
X131221597Y-152679352D02*
X129100277Y-150558032D01*
X131504440Y-148153869D02*
X133625760Y-150275189D01*
X129100277Y-150558032D02*
X131504440Y-148153869D01*
%TO.C,SW1*%
X120137264Y-163768904D02*
X117733101Y-166173067D01*
X117733101Y-166173067D02*
X115611781Y-164051747D01*
X118015944Y-161647584D02*
X120137264Y-163768904D01*
X115611781Y-164051747D02*
X118015944Y-161647584D01*
%TO.C,SW35*%
X142592365Y-191039317D02*
X144996528Y-188635154D01*
X144713686Y-193160638D02*
X142592365Y-191039317D01*
X144996528Y-188635154D02*
X147117849Y-190756475D01*
X147117849Y-190756475D02*
X144713686Y-193160638D01*
%TO.C,SW2*%
X269758760Y-66471310D02*
X273158760Y-66471310D01*
X269758760Y-69471310D02*
X269758760Y-66471310D01*
X273158760Y-66471310D02*
X273158760Y-69471310D01*
X273158760Y-69471310D02*
X269758760Y-69471310D01*
%TO.C,SW3*%
X273159960Y-88522460D02*
X269759960Y-88522460D01*
X269759960Y-88522460D02*
X269759960Y-85522460D01*
X273159960Y-85522460D02*
X273159960Y-88522460D01*
X269759960Y-85522460D02*
X273159960Y-85522460D01*
%TO.C,SW4*%
X273158760Y-107571310D02*
X269758760Y-107571310D01*
X273158760Y-104571310D02*
X273158760Y-107571310D01*
X269758760Y-107571310D02*
X269758760Y-104571310D01*
X269758760Y-104571310D02*
X273158760Y-104571310D01*
%TO.C,SW5*%
X269757420Y-123619920D02*
X273157420Y-123619920D01*
X273157420Y-123619920D02*
X273157420Y-126619920D01*
X269757420Y-126619920D02*
X269757420Y-123619920D01*
X273157420Y-126619920D02*
X269757420Y-126619920D01*
%TO.C,SW6*%
X133625760Y-177262689D02*
X131221597Y-179666852D01*
X131221597Y-179666852D02*
X129100277Y-177545532D01*
X131504440Y-175141369D02*
X133625760Y-177262689D01*
X129100277Y-177545532D02*
X131504440Y-175141369D01*
%TO.C,SW7*%
X173146260Y-69471310D02*
X169746260Y-69471310D01*
X173146260Y-66471310D02*
X173146260Y-69471310D01*
X169746260Y-69471310D02*
X169746260Y-66471310D01*
X169746260Y-66471310D02*
X173146260Y-66471310D01*
%TO.C,SW8*%
X169747460Y-85522460D02*
X173147460Y-85522460D01*
X173147460Y-85522460D02*
X173147460Y-88522460D01*
X169747460Y-88522460D02*
X169747460Y-85522460D01*
X173147460Y-88522460D02*
X169747460Y-88522460D01*
%TO.C,SW9*%
X169746260Y-104571310D02*
X173146260Y-104571310D01*
X169746260Y-107571310D02*
X169746260Y-104571310D01*
X173146260Y-104571310D02*
X173146260Y-107571310D01*
X173146260Y-107571310D02*
X169746260Y-107571310D01*
%TO.C,SW10*%
X169747460Y-123622460D02*
X173147460Y-123622460D01*
X173147460Y-123622460D02*
X173147460Y-126622460D01*
X169747460Y-126622460D02*
X169747460Y-123622460D01*
X173147460Y-126622460D02*
X169747460Y-126622460D01*
%TO.C,SW11*%
X249346260Y-145671310D02*
X245946260Y-145671310D01*
X249346260Y-142671310D02*
X249346260Y-145671310D01*
X245946260Y-145671310D02*
X245946260Y-142671310D01*
X245946260Y-142671310D02*
X249346260Y-142671310D01*
%TO.C,SW13*%
X188796260Y-64090060D02*
X192196260Y-64090060D01*
X188796260Y-67090060D02*
X188796260Y-64090060D01*
X192196260Y-64090060D02*
X192196260Y-67090060D01*
X192196260Y-67090060D02*
X188796260Y-67090060D01*
%TO.C,SW14*%
X192197460Y-86141210D02*
X188797460Y-86141210D01*
X188797460Y-86141210D02*
X188797460Y-83141210D01*
X192197460Y-83141210D02*
X192197460Y-86141210D01*
X188797460Y-83141210D02*
X192197460Y-83141210D01*
%TO.C,SW15*%
X188792520Y-102186370D02*
X192192520Y-102186370D01*
X188792520Y-105186370D02*
X188792520Y-102186370D01*
X192192520Y-102186370D02*
X192192520Y-105186370D01*
X192192520Y-105186370D02*
X188792520Y-105186370D01*
%TO.C,SW16*%
X192197460Y-124241210D02*
X188797460Y-124241210D01*
X188797460Y-124241210D02*
X188797460Y-121241210D01*
X192197460Y-121241210D02*
X192197460Y-124241210D01*
X188797460Y-121241210D02*
X192197460Y-121241210D01*
%TO.C,SW17*%
X192192520Y-143286370D02*
X188792520Y-143286370D01*
X192192520Y-140286370D02*
X192192520Y-143286370D01*
X188792520Y-143286370D02*
X188792520Y-140286370D01*
X188792520Y-140286370D02*
X192192520Y-140286370D01*
%TO.C,SW18*%
X149451635Y-170785357D02*
X151855798Y-168381194D01*
X151572956Y-172906678D02*
X149451635Y-170785357D01*
X151855798Y-168381194D02*
X153977119Y-170502515D01*
X153977119Y-170502515D02*
X151572956Y-172906678D01*
%TO.C,SW19*%
X211242520Y-64705120D02*
X207842520Y-64705120D01*
X211242520Y-61705120D02*
X211242520Y-64705120D01*
X207842520Y-64705120D02*
X207842520Y-61705120D01*
X207842520Y-61705120D02*
X211242520Y-61705120D01*
%TO.C,SW20*%
X211247460Y-83759960D02*
X207847460Y-83759960D01*
X207847460Y-83759960D02*
X207847460Y-80759960D01*
X211247460Y-80759960D02*
X211247460Y-83759960D01*
X207847460Y-80759960D02*
X211247460Y-80759960D01*
%TO.C,SW21*%
X211246260Y-102808810D02*
X207846260Y-102808810D01*
X211246260Y-99808810D02*
X211246260Y-102808810D01*
X207846260Y-102808810D02*
X207846260Y-99808810D01*
X207846260Y-99808810D02*
X211246260Y-99808810D01*
%TO.C,SW22*%
X207847460Y-118859960D02*
X211247460Y-118859960D01*
X211247460Y-118859960D02*
X211247460Y-121859960D01*
X207847460Y-121859960D02*
X207847460Y-118859960D01*
X211247460Y-121859960D02*
X207847460Y-121859960D01*
%TO.C,SW23*%
X207842520Y-137905120D02*
X211242520Y-137905120D01*
X207842520Y-140905120D02*
X207842520Y-137905120D01*
X211242520Y-137905120D02*
X211242520Y-140905120D01*
X211242520Y-140905120D02*
X207842520Y-140905120D01*
%TO.C,SW24*%
X167476123Y-157008730D02*
X165071960Y-159412893D01*
X165354802Y-154887409D02*
X167476123Y-157008730D01*
X165071960Y-159412893D02*
X162950639Y-157291572D01*
X162950639Y-157291572D02*
X165354802Y-154887409D01*
%TO.C,SW25*%
X226896260Y-64090060D02*
X230296260Y-64090060D01*
X226896260Y-67090060D02*
X226896260Y-64090060D01*
X230296260Y-64090060D02*
X230296260Y-67090060D01*
X230296260Y-67090060D02*
X226896260Y-67090060D01*
%TO.C,SW26*%
X226897460Y-83141210D02*
X230297460Y-83141210D01*
X230297460Y-83141210D02*
X230297460Y-86141210D01*
X226897460Y-86141210D02*
X226897460Y-83141210D01*
X230297460Y-86141210D02*
X226897460Y-86141210D01*
%TO.C,SW27*%
X230296260Y-105190060D02*
X226896260Y-105190060D01*
X230296260Y-102190060D02*
X230296260Y-105190060D01*
X226896260Y-105190060D02*
X226896260Y-102190060D01*
X226896260Y-102190060D02*
X230296260Y-102190060D01*
%TO.C,SW28*%
X226897460Y-121241210D02*
X230297460Y-121241210D01*
X230297460Y-121241210D02*
X230297460Y-124241210D01*
X226897460Y-124241210D02*
X226897460Y-121241210D01*
X230297460Y-124241210D02*
X226897460Y-124241210D01*
%TO.C,SW29*%
X226896260Y-140290060D02*
X230296260Y-140290060D01*
X226896260Y-143290060D02*
X226896260Y-140290060D01*
X230296260Y-140290060D02*
X230296260Y-143290060D01*
X230296260Y-143290060D02*
X226896260Y-143290060D01*
%TO.C,SW30*%
X264996260Y-142671310D02*
X268396260Y-142671310D01*
X264996260Y-145671310D02*
X264996260Y-142671310D01*
X268396260Y-142671310D02*
X268396260Y-145671310D01*
X268396260Y-145671310D02*
X264996260Y-145671310D01*
%TO.C,SW31*%
X249346260Y-69471310D02*
X245946260Y-69471310D01*
X249346260Y-66471310D02*
X249346260Y-69471310D01*
X245946260Y-69471310D02*
X245946260Y-66471310D01*
X245946260Y-66471310D02*
X249346260Y-66471310D01*
%TO.C,SW32*%
X249347460Y-88522460D02*
X245947460Y-88522460D01*
X245947460Y-88522460D02*
X245947460Y-85522460D01*
X249347460Y-85522460D02*
X249347460Y-88522460D01*
X245947460Y-85522460D02*
X249347460Y-85522460D01*
%TO.C,SW33*%
X245946260Y-104571310D02*
X249346260Y-104571310D01*
X245946260Y-107571310D02*
X245946260Y-104571310D01*
X249346260Y-104571310D02*
X249346260Y-107571310D01*
X249346260Y-107571310D02*
X245946260Y-107571310D01*
%TO.C,SW34*%
X249343720Y-126618770D02*
X245943720Y-126618770D01*
X245943720Y-126618770D02*
X245943720Y-123618770D01*
X249343720Y-123618770D02*
X249343720Y-126618770D01*
X245943720Y-123618770D02*
X249343720Y-123618770D01*
%TO.C,SW36*%
X154097460Y-93284960D02*
X150697460Y-93284960D01*
X150697460Y-93284960D02*
X150697460Y-90284960D01*
X154097460Y-90284960D02*
X154097460Y-93284960D01*
X150697460Y-90284960D02*
X154097460Y-90284960D01*
%TO.C,SW37*%
X150697460Y-118859960D02*
X154097460Y-118859960D01*
X154097460Y-118859960D02*
X154097460Y-121859960D01*
X150697460Y-121859960D02*
X150697460Y-118859960D01*
X154097460Y-121859960D02*
X150697460Y-121859960D01*
%TO.C,SW39*%
X150696260Y-66471310D02*
X154096260Y-66471310D01*
X150696260Y-69471310D02*
X150696260Y-66471310D01*
X154096260Y-66471310D02*
X154096260Y-69471310D01*
X154096260Y-69471310D02*
X150696260Y-69471310D01*
%TD*%
M02*
