M48
; DRILL file {KiCad (5.1.8)-1} date 07/09/22 16:38:27
; FORMAT={-:-/ absolute / metric / decimal}
; #@! TF.CreationDate,2022-07-09T16:38:27+10:00
; #@! TF.GenerationSoftware,Kicad,Pcbnew,(5.1.8)-1
; #@! TF.FileFunction,NonPlated,1,2,NPTH
FMAT,2
METRIC
T1C1.750
T2C3.000
T3C4.000
%
G90
G05
T1
X131.341Y-157.579
X138.525Y-150.394
X185.414Y-146.836
X195.574Y-146.836
X166.367Y-111.121
X176.527Y-111.121
X242.567Y-73.021
X252.727Y-73.021
X204.467Y-106.359
X214.627Y-106.359
X185.414Y-108.736
X195.574Y-108.736
X166.367Y-92.071
X176.527Y-92.071
X223.517Y-146.84
X233.677Y-146.84
X204.464Y-144.455
X214.624Y-144.455
X266.38Y-111.121
X276.54Y-111.122
X223.517Y-108.74
X233.677Y-108.74
X223.517Y-127.79
X233.677Y-127.79
X204.467Y-87.309
X214.627Y-87.309
X204.464Y-68.255
X214.624Y-68.255
X185.417Y-70.64
X195.577Y-70.64
X166.367Y-73.021
X176.527Y-73.021
X147.317Y-125.409
X157.477Y-125.409
X223.517Y-89.69
X233.677Y-89.69
X147.317Y-73.021
X157.477Y-73.021
X117.852Y-171.072
X125.037Y-163.888
X185.417Y-127.79
X195.577Y-127.79
X242.567Y-149.221
X252.727Y-149.221
X131.341Y-184.566
X138.525Y-177.382
X147.317Y-96.834
X157.477Y-96.834
X223.517Y-70.64
X233.677Y-70.64
X242.567Y-111.121
X252.727Y-111.121
X144.835Y-198.06
X152.019Y-190.876
X185.417Y-89.69
X195.577Y-89.69
X266.38Y-73.021
X276.54Y-73.022
X266.377Y-130.17
X276.537Y-130.17
X242.564Y-130.167
X252.724Y-130.167
X165.193Y-164.312
X172.377Y-157.128
X261.617Y-149.221
X271.777Y-149.221
X151.694Y-177.806
X158.878Y-170.622
X166.367Y-130.171
X176.527Y-130.171
X266.38Y-92.072
X276.54Y-92.072
X242.567Y-92.071
X252.727Y-92.071
X204.467Y-125.409
X214.627Y-125.409
T2
X157.082Y-179.602
X159.775Y-173.317
X168.907Y-135.252
X175.256Y-132.711
X268.92Y-97.152
X275.27Y-94.612
X245.107Y-97.152
X251.456Y-94.611
X207.007Y-130.49
X213.356Y-127.949
X136.73Y-159.376
X139.422Y-153.09
X187.954Y-151.916
X194.303Y-149.376
X168.907Y-116.201
X175.256Y-113.661
X245.107Y-78.101
X251.456Y-75.561
X207.007Y-111.439
X213.356Y-108.899
X187.954Y-113.816
X194.303Y-111.276
X168.907Y-97.152
X175.256Y-94.611
X226.057Y-151.92
X232.406Y-149.38
X207.004Y-149.535
X213.353Y-146.995
X268.92Y-116.202
X275.269Y-113.661
X226.057Y-113.82
X232.406Y-111.28
X226.057Y-132.871
X232.406Y-130.33
X207.007Y-92.39
X213.356Y-89.849
X207.004Y-73.335
X213.353Y-70.795
X187.957Y-75.72
X194.306Y-73.18
X168.907Y-78.101
X175.256Y-75.561
X149.857Y-130.49
X156.206Y-127.949
X226.057Y-94.771
X232.406Y-92.23
X149.857Y-78.101
X156.206Y-75.561
X123.241Y-172.869
X125.934Y-166.583
X187.957Y-132.871
X194.306Y-130.33
X245.107Y-154.301
X251.456Y-151.761
X136.73Y-186.363
X139.422Y-180.077
X149.857Y-101.915
X156.206Y-99.374
X226.057Y-75.72
X232.406Y-73.18
X245.107Y-116.201
X251.456Y-113.661
X150.223Y-199.856
X152.916Y-193.571
X187.957Y-94.771
X194.306Y-92.23
X268.92Y-78.102
X275.269Y-75.561
X268.917Y-135.25
X275.267Y-132.71
X245.104Y-135.249
X251.453Y-132.708
X170.581Y-166.108
X173.274Y-159.823
X264.157Y-154.301
X270.506Y-151.761
T3
X209.546Y-106.359
X190.493Y-108.736
X171.446Y-92.071
X228.596Y-146.84
X209.543Y-144.455
X271.46Y-111.122
X228.596Y-108.74
X228.596Y-127.79
X209.546Y-87.309
X209.543Y-68.255
X190.496Y-70.64
X171.446Y-73.021
X152.396Y-125.409
X228.596Y-89.69
X152.396Y-73.021
X121.444Y-167.481
X190.496Y-127.79
X247.646Y-149.221
X134.932Y-180.975
X152.396Y-96.834
X228.596Y-70.64
X247.646Y-111.121
X148.426Y-194.469
X190.496Y-89.69
X271.46Y-73.022
X271.457Y-130.17
X247.643Y-130.168
X168.784Y-160.721
X266.696Y-149.221
X155.285Y-174.215
X171.446Y-130.171
X271.46Y-92.072
X247.646Y-92.071
X209.546Y-125.409
X134.932Y-153.988
X190.493Y-146.836
X171.446Y-111.121
X247.646Y-73.021
T0
M30
